<?xml version="1.0" encoding="UTF-8"?>
<svg xmlns="http://www.w3.org/2000/svg" xmlns:xlink="http://www.w3.org/1999/xlink" width="70px" height="70px" viewBox="0 0 70 70" version="1.1">
<defs>
<filter id="alpha" filterUnits="objectBoundingBox" x="0%" y="0%" width="100%" height="100%">
  <feColorMatrix type="matrix" in="SourceGraphic" values="0 0 0 0 1 0 0 0 0 1 0 0 0 0 1 0 0 0 1 0"/>
</filter>
<mask id="mask0">
  <g filter="url(#alpha)">
<rect x="0" y="0" width="70" height="70" style="fill:rgb(0%,0%,0%);fill-opacity:0.701961;stroke:none;"/>
  </g>
</mask>
<clipPath id="clip1">
  <rect x="0" y="0" width="70" height="70"/>
</clipPath>
<g id="surface5" clip-path="url(#clip1)">
<path style=" stroke:none;fill-rule:nonzero;fill:rgb(6.666667%,89.803922%,70.196078%);fill-opacity:1;" d="M 37.8125 15.210938 L 34.96875 10.269531 L 32.113281 15.210938 L 29.269531 20.148438 L 40.671875 20.148438 Z M 31.101562 19.121094 L 33.03125 15.777344 L 34.96875 12.4375 L 36.894531 15.777344 L 38.824219 19.121094 Z M 31.101562 19.121094 "/>
</g>
<mask id="mask1">
  <g filter="url(#alpha)">
<rect x="0" y="0" width="70" height="70" style="fill:rgb(0%,0%,0%);fill-opacity:0.701961;stroke:none;"/>
  </g>
</mask>
<clipPath id="clip2">
  <rect x="0" y="0" width="70" height="70"/>
</clipPath>
<g id="surface8" clip-path="url(#clip2)">
<path style=" stroke:none;fill-rule:nonzero;fill:rgb(6.666667%,89.803922%,70.196078%);fill-opacity:1;" d="M 22.550781 41.5 L 19.699219 36.5625 L 13.996094 46.4375 L 25.398438 46.4375 Z M 15.835938 45.410156 L 17.769531 42.066406 L 19.699219 38.722656 L 21.628906 42.066406 L 23.5625 45.410156 Z M 15.835938 45.410156 "/>
</g>
<mask id="mask2">
  <g filter="url(#alpha)">
<rect x="0" y="0" width="70" height="70" style="fill:rgb(0%,0%,0%);fill-opacity:0.701961;stroke:none;"/>
  </g>
</mask>
<clipPath id="clip3">
  <rect x="0" y="0" width="70" height="70"/>
</clipPath>
<g id="surface11" clip-path="url(#clip3)">
<path style=" stroke:none;fill-rule:nonzero;fill:rgb(6.666667%,89.803922%,70.196078%);fill-opacity:1;" d="M 53.078125 41.5 L 50.226562 36.5625 L 47.375 41.5 L 44.53125 46.4375 L 55.9375 46.4375 Z M 46.367188 45.410156 L 50.226562 38.722656 L 52.15625 42.066406 L 54.089844 45.410156 Z M 46.367188 45.410156 "/>
</g>
<mask id="mask3">
  <g filter="url(#alpha)">
<rect x="0" y="0" width="70" height="70" style="fill:rgb(0%,0%,0%);fill-opacity:0.501961;stroke:none;"/>
  </g>
</mask>
<clipPath id="clip4">
  <rect x="0" y="0" width="70" height="70"/>
</clipPath>
<g id="surface14" clip-path="url(#clip4)">
<path style=" stroke:none;fill-rule:nonzero;fill:rgb(6.666667%,89.803922%,70.196078%);fill-opacity:1;" d="M 29.191406 23.808594 C 22.96875 26.96875 20.488281 34.570312 23.648438 40.792969 C 26.804688 47.011719 34.410156 49.496094 40.628906 46.335938 C 46.851562 43.175781 49.332031 35.574219 46.175781 29.351562 C 43.015625 23.132812 35.410156 20.648438 29.191406 23.808594 Z M 38.703125 42.542969 C 34.578125 44.632812 29.539062 42.988281 27.441406 38.863281 C 25.347656 34.738281 26.992188 29.699219 31.117188 27.601562 C 35.242188 25.507812 40.28125 27.152344 42.378906 31.273438 C 44.476562 35.398438 42.832031 40.445312 38.703125 42.539062 Z M 38.703125 42.542969 "/>
</g>
</defs>
<g id="surface1">
<path style=" stroke:none;fill-rule:nonzero;fill:rgb(6.666667%,89.803922%,70.196078%);fill-opacity:1;" d="M 39.003906 34.8125 L 68.601562 34.8125 L 68.601562 35.191406 L 39.003906 35.191406 Z M 39.003906 34.8125 "/>
<path style=" stroke:none;fill-rule:nonzero;fill:rgb(6.666667%,89.803922%,70.196078%);fill-opacity:1;" d="M 0.507812 34.8125 L 30.109375 34.8125 L 30.109375 35.191406 L 0.507812 35.191406 Z M 0.507812 34.8125 "/>
<path style=" stroke:none;fill-rule:nonzero;fill:rgb(6.666667%,89.803922%,70.196078%);fill-opacity:1;" d="M 68.921875 36.082031 C 68.324219 36.082031 67.839844 35.597656 67.839844 35 C 67.839844 34.40625 68.320312 33.921875 68.917969 33.917969 C 69.515625 33.917969 70 34.402344 70 35 C 70 35.285156 69.886719 35.558594 69.683594 35.761719 C 69.484375 35.964844 69.207031 36.082031 68.921875 36.082031 Z M 68.921875 36.082031 "/>
<path style=" stroke:none;fill-rule:nonzero;fill:rgb(6.666667%,89.803922%,70.196078%);fill-opacity:1;" d="M 1.082031 36.082031 C 0.484375 36.082031 0 35.597656 0 35 C 0 34.40625 0.480469 33.921875 1.078125 33.917969 C 1.675781 33.917969 2.160156 34.402344 2.160156 35 C 2.160156 35.285156 2.046875 35.558594 1.847656 35.761719 C 1.644531 35.964844 1.367188 36.082031 1.082031 36.082031 Z M 1.082031 36.082031 "/>
<path style=" stroke:none;fill-rule:nonzero;fill:rgb(6.666667%,89.803922%,70.196078%);fill-opacity:1;" d="M 34.8125 39.003906 L 35.191406 39.003906 L 35.191406 68.605469 L 34.8125 68.605469 Z M 34.8125 39.003906 "/>
<path style=" stroke:none;fill-rule:nonzero;fill:rgb(6.666667%,89.803922%,70.196078%);fill-opacity:1;" d="M 34.8125 0.507812 L 35.191406 0.507812 L 35.191406 30.109375 L 34.8125 30.109375 Z M 34.8125 0.507812 "/>
<path style=" stroke:none;fill-rule:nonzero;fill:rgb(6.666667%,89.803922%,70.196078%);fill-opacity:1;" d="M 33.921875 68.921875 C 33.921875 68.324219 34.402344 67.839844 35 67.839844 C 35.597656 67.839844 36.082031 68.320312 36.082031 68.917969 C 36.082031 69.515625 35.597656 70 35.003906 70 C 34.40625 70 33.921875 69.515625 33.921875 68.921875 Z M 33.921875 68.921875 "/>
<path style=" stroke:none;fill-rule:nonzero;fill:rgb(6.666667%,89.803922%,70.196078%);fill-opacity:1;" d="M 33.921875 1.082031 C 33.921875 0.484375 34.402344 0 35 0 C 35.597656 0 36.082031 0.480469 36.082031 1.078125 C 36.082031 1.675781 35.597656 2.160156 35.003906 2.160156 C 34.40625 2.160156 33.921875 1.679688 33.921875 1.082031 Z M 33.921875 1.082031 "/>
<path style=" stroke:none;fill-rule:nonzero;fill:rgb(6.666667%,89.803922%,70.196078%);fill-opacity:1;" d="M 35 37.289062 C 33.738281 37.289062 32.714844 36.265625 32.710938 35 C 32.710938 33.738281 33.734375 32.714844 35 32.710938 C 36.261719 32.710938 37.285156 33.734375 37.289062 35 C 37.289062 36.261719 36.265625 37.285156 35 37.289062 Z M 35 33.09375 C 33.949219 33.09375 33.09375 33.945312 33.09375 35 C 33.09375 36.054688 33.945312 36.90625 35 36.90625 C 36.050781 36.910156 36.90625 36.054688 36.90625 35.003906 C 36.90625 33.949219 36.054688 33.097656 35 33.09375 Z M 35 33.09375 "/>
<path style=" stroke:none;fill-rule:nonzero;fill:rgb(6.666667%,89.803922%,70.196078%);fill-opacity:1;" d="M 34.921875 42 C 31.105469 42 28.007812 38.90625 28.007812 35.089844 C 28.007812 31.269531 31.105469 28.175781 34.921875 28.175781 C 38.738281 28.175781 41.835938 31.269531 41.835938 35.089844 C 41.835938 38.90625 38.738281 42 34.921875 42 Z M 34.921875 28.339844 C 31.195312 28.339844 28.175781 31.359375 28.171875 35.085938 C 28.171875 38.8125 31.191406 41.835938 34.917969 41.835938 C 38.644531 41.835938 41.667969 38.816406 41.667969 35.089844 C 41.664062 31.367188 38.644531 28.347656 34.921875 28.34375 Z M 34.921875 28.339844 "/>
<path style=" stroke:none;fill-rule:nonzero;fill:rgb(6.666667%,89.803922%,70.196078%);fill-opacity:1;" d="M 34.921875 36.023438 C 34.40625 36.023438 33.984375 35.605469 33.984375 35.089844 C 33.984375 34.570312 34.40625 34.152344 34.921875 34.152344 C 35.4375 34.152344 35.859375 34.570312 35.859375 35.089844 C 35.859375 35.605469 35.4375 36.023438 34.921875 36.023438 Z M 34.921875 36.023438 "/>
<path style=" stroke:none;fill-rule:nonzero;fill:rgb(6.666667%,89.803922%,70.196078%);fill-opacity:1;" d="M 34.921875 38.328125 C 33.132812 38.328125 31.679688 36.878906 31.679688 35.089844 C 31.679688 33.296875 33.132812 31.847656 34.921875 31.847656 C 36.710938 31.847656 38.164062 33.296875 38.164062 35.089844 C 38.160156 36.878906 36.710938 38.328125 34.921875 38.328125 Z M 34.921875 32.011719 C 33.222656 32.011719 31.847656 33.386719 31.84375 35.085938 C 31.84375 36.785156 33.222656 38.164062 34.917969 38.164062 C 36.617188 38.164062 37.996094 36.789062 37.996094 35.089844 C 37.996094 33.390625 36.621094 32.015625 34.921875 32.011719 Z M 34.921875 32.011719 "/>
<path style=" stroke:none;fill-rule:nonzero;fill:rgb(6.666667%,89.803922%,70.196078%);fill-opacity:1;" d="M 38.960938 35.171875 L 30.882812 35.171875 C 30.835938 35.179688 30.792969 35.144531 30.789062 35.097656 C 30.78125 35.054688 30.816406 35.011719 30.859375 35.003906 L 38.964844 35.003906 C 39.007812 35 39.050781 35.03125 39.058594 35.078125 C 39.0625 35.125 39.03125 35.167969 38.984375 35.171875 C 38.976562 35.175781 38.96875 35.175781 38.960938 35.171875 Z M 38.960938 35.171875 "/>
<path style=" stroke:none;fill-rule:nonzero;fill:rgb(6.666667%,89.803922%,70.196078%);fill-opacity:1;" d="M 34.921875 39.210938 C 34.875 39.210938 34.839844 39.175781 34.839844 39.128906 L 34.839844 31.050781 C 34.832031 31.003906 34.863281 30.960938 34.910156 30.957031 C 34.957031 30.949219 35 30.980469 35.003906 31.027344 C 35.003906 31.035156 35.003906 31.042969 35.003906 31.050781 L 35.003906 39.128906 C 35.003906 39.171875 34.96875 39.210938 34.921875 39.210938 Z M 34.921875 39.210938 "/>
<path style=" stroke:none;fill-rule:nonzero;fill:rgb(6.666667%,89.803922%,70.196078%);fill-opacity:1;" d="M 34.039062 28.316406 L 34.039062 28.03125 C 34.332031 27.996094 34.625 27.980469 34.921875 27.980469 C 35.222656 27.980469 35.519531 27.996094 35.816406 28.035156 L 35.816406 28.320312 C 37.191406 28.496094 38.484375 29.09375 39.511719 30.023438 L 39.980469 29.554688 C 39.828125 29.417969 39.667969 29.28125 39.503906 29.15625 L 39.851562 28.863281 C 36.421875 26.136719 31.429688 26.710938 28.707031 30.140625 C 28.566406 30.324219 28.421875 30.511719 28.296875 30.710938 L 28.691406 30.917969 C 28.445312 31.289062 28.230469 31.679688 28.050781 32.085938 L 27.65625 31.878906 C 26.65625 34.152344 26.773438 36.761719 27.980469 38.929688 L 28.328125 38.636719 C 28.621094 39.179688 28.980469 39.683594 29.394531 40.136719 L 29.863281 39.667969 C 28.152344 37.785156 27.628906 35.109375 28.507812 32.722656 C 29.382812 30.335938 31.515625 28.632812 34.039062 28.308594 Z M 34.039062 28.316406 "/>
<path style=" stroke:none;fill-rule:nonzero;fill:rgb(6.666667%,89.803922%,70.196078%);fill-opacity:1;" d="M 42.28125 38.066406 C 43.144531 35.933594 43.039062 33.535156 41.996094 31.488281 L 41.652344 31.78125 C 41.503906 31.480469 41.335938 31.1875 41.148438 30.910156 L 40.65625 31.390625 C 41.925781 33.355469 42.097656 35.835938 41.117188 37.957031 C 40.132812 40.082031 38.128906 41.554688 35.808594 41.859375 L 35.808594 42.140625 C 35.515625 42.179688 35.214844 42.199219 34.917969 42.199219 C 34.621094 42.199219 34.324219 42.179688 34.035156 42.144531 L 34.035156 41.859375 C 33.03125 41.730469 32.066406 41.378906 31.21875 40.828125 L 31.019531 41.03125 C 30.96875 40.996094 30.914062 40.960938 30.863281 40.925781 L 30.210938 41.480469 C 33.734375 44.078125 38.699219 43.328125 41.300781 39.804688 C 41.429688 39.625 41.554688 39.441406 41.671875 39.253906 L 41.277344 39.046875 C 41.511719 38.667969 41.714844 38.269531 41.878906 37.855469 Z M 42.28125 38.066406 "/>
<path style=" stroke:none;fill-rule:nonzero;fill:rgb(6.666667%,89.803922%,70.196078%);fill-opacity:1;" d="M 34.839844 27.484375 L 34.421875 22.988281 C 34.394531 22.792969 34.484375 22.605469 34.648438 22.5 C 34.8125 22.394531 35.023438 22.394531 35.1875 22.5 C 35.351562 22.605469 35.441406 22.792969 35.417969 22.988281 L 35 27.484375 C 34.996094 27.53125 34.953125 27.566406 34.910156 27.5625 C 34.871094 27.554688 34.84375 27.523438 34.839844 27.484375 Z M 34.839844 27.484375 "/>
<path style=" stroke:none;fill-rule:nonzero;fill:rgb(6.666667%,89.803922%,70.196078%);fill-opacity:1;" d="M 35.003906 42.671875 L 35.421875 47.167969 C 35.445312 47.363281 35.355469 47.550781 35.191406 47.65625 C 35.027344 47.761719 34.816406 47.761719 34.652344 47.65625 C 34.488281 47.550781 34.398438 47.363281 34.425781 47.167969 L 34.84375 42.671875 C 34.847656 42.625 34.890625 42.59375 34.9375 42.597656 C 34.972656 42.601562 35.003906 42.632812 35.007812 42.671875 Z M 35.003906 42.671875 "/>
<path style=" stroke:none;fill-rule:nonzero;fill:rgb(6.666667%,89.803922%,70.196078%);fill-opacity:1;" d="M 42.515625 34.996094 L 47.011719 34.578125 C 47.285156 34.527344 47.546875 34.707031 47.597656 34.980469 C 47.648438 35.253906 47.46875 35.515625 47.195312 35.566406 C 47.167969 35.570312 47.136719 35.574219 47.105469 35.574219 C 47.074219 35.578125 47.042969 35.578125 47.011719 35.574219 L 42.515625 35.15625 C 42.46875 35.152344 42.433594 35.113281 42.4375 35.066406 C 42.445312 35.027344 42.476562 35 42.515625 34.996094 Z M 42.515625 34.996094 "/>
<path style=" stroke:none;fill-rule:nonzero;fill:rgb(6.666667%,89.803922%,70.196078%);fill-opacity:1;" d="M 27.328125 35.160156 L 22.832031 35.578125 C 22.640625 35.597656 22.453125 35.507812 22.351562 35.347656 C 22.25 35.183594 22.25 34.976562 22.351562 34.816406 C 22.453125 34.652344 22.640625 34.5625 22.832031 34.582031 L 27.328125 35 C 27.375 35 27.410156 35.039062 27.410156 35.082031 C 27.410156 35.128906 27.375 35.167969 27.328125 35.167969 Z M 27.328125 35.160156 "/>
<use xlink:href="#surface5" mask="url(#mask0)"/>
<use xlink:href="#surface8" mask="url(#mask1)"/>
<use xlink:href="#surface11" mask="url(#mask2)"/>
<path style=" stroke:none;fill-rule:nonzero;fill:rgb(6.666667%,89.803922%,70.196078%);fill-opacity:1;" d="M 34.96875 56.6875 C 22.664062 56.6875 12.652344 46.683594 12.652344 34.382812 C 12.652344 22.082031 22.664062 12.082031 34.96875 12.082031 C 47.277344 12.082031 57.277344 22.089844 57.277344 34.390625 C 57.277344 46.6875 47.265625 56.6875 34.96875 56.6875 Z M 34.96875 12.40625 C 22.851562 12.40625 12.992188 22.261719 12.992188 34.382812 C 12.992188 46.5 22.84375 56.359375 34.96875 56.359375 C 47.097656 56.359375 56.949219 46.5 56.949219 34.382812 C 56.949219 22.261719 47.082031 12.40625 34.96875 12.40625 Z M 34.96875 12.40625 "/>
<path style=" stroke:none;fill-rule:nonzero;fill:rgb(6.666667%,89.803922%,70.196078%);fill-opacity:1;" d="M 34.96875 49.8125 C 26.449219 49.816406 19.535156 42.910156 19.535156 34.386719 C 19.53125 25.863281 26.4375 18.953125 34.960938 18.953125 C 43.484375 18.949219 50.390625 25.859375 50.390625 34.382812 C 50.390625 42.898438 43.488281 49.804688 34.96875 49.8125 Z M 34.96875 19.28125 C 26.628906 19.277344 19.863281 26.039062 19.863281 34.378906 C 19.859375 42.71875 26.621094 49.484375 34.960938 49.484375 C 43.300781 49.484375 50.0625 42.722656 50.0625 34.382812 C 50.054688 26.050781 43.304688 19.292969 34.96875 19.28125 Z M 34.96875 19.28125 "/>
<path style=" stroke:none;fill-rule:nonzero;fill:rgb(6.666667%,89.803922%,70.196078%);fill-opacity:1;" d="M 34.800781 12.238281 L 35.128906 12.238281 L 35.128906 19.117188 L 34.800781 19.117188 Z M 34.800781 12.238281 "/>
<path style=" stroke:none;fill-rule:nonzero;fill:rgb(6.666667%,89.803922%,70.196078%);fill-opacity:1;" d="M 34.800781 49.644531 L 35.128906 49.644531 L 35.128906 56.523438 L 34.800781 56.523438 Z M 34.800781 49.644531 "/>
<path style=" stroke:none;fill-rule:nonzero;fill:rgb(6.666667%,89.803922%,70.196078%);fill-opacity:1;" d="M 23.75 15.289062 L 24.035156 15.125 L 27.472656 21.082031 L 27.1875 21.246094 Z M 23.75 15.289062 "/>
<path style=" stroke:none;fill-rule:nonzero;fill:rgb(6.666667%,89.803922%,70.196078%);fill-opacity:1;" d="M 42.453125 47.683594 L 42.738281 47.519531 L 46.175781 53.476562 L 45.890625 53.640625 Z M 42.453125 47.683594 "/>
<path style=" stroke:none;fill-rule:nonzero;fill:rgb(6.666667%,89.803922%,70.196078%);fill-opacity:1;" d="M 15.703125 23.453125 L 15.867188 23.167969 L 21.824219 26.609375 L 21.660156 26.890625 Z M 15.703125 23.453125 "/>
<path style=" stroke:none;fill-rule:nonzero;fill:rgb(6.666667%,89.803922%,70.196078%);fill-opacity:1;" d="M 48.101562 42.15625 L 48.265625 41.871094 L 54.222656 45.3125 L 54.058594 45.59375 Z M 48.101562 42.15625 "/>
<path style=" stroke:none;fill-rule:nonzero;fill:rgb(6.666667%,89.803922%,70.196078%);fill-opacity:1;" d="M 12.820312 34.21875 L 19.699219 34.21875 L 19.699219 34.546875 L 12.820312 34.546875 Z M 12.820312 34.21875 "/>
<path style=" stroke:none;fill-rule:nonzero;fill:rgb(6.666667%,89.803922%,70.196078%);fill-opacity:1;" d="M 50.226562 34.21875 L 57.105469 34.21875 L 57.105469 34.546875 L 50.226562 34.546875 Z M 50.226562 34.21875 "/>
<path style=" stroke:none;fill-rule:nonzero;fill:rgb(6.666667%,89.803922%,70.196078%);fill-opacity:1;" d="M 15.707031 45.3125 L 21.660156 41.871094 L 21.824219 42.15625 L 15.871094 45.59375 Z M 15.707031 45.3125 "/>
<path style=" stroke:none;fill-rule:nonzero;fill:rgb(6.666667%,89.803922%,70.196078%);fill-opacity:1;" d="M 48.101562 26.609375 L 54.058594 23.167969 L 54.222656 23.453125 L 48.265625 26.890625 Z M 48.101562 26.609375 "/>
<path style=" stroke:none;fill-rule:nonzero;fill:rgb(6.666667%,89.803922%,70.196078%);fill-opacity:1;" d="M 23.75 53.480469 L 27.191406 47.523438 L 27.472656 47.6875 L 24.03125 53.644531 Z M 23.75 53.480469 "/>
<path style=" stroke:none;fill-rule:nonzero;fill:rgb(6.666667%,89.803922%,70.196078%);fill-opacity:1;" d="M 42.453125 21.078125 L 45.894531 15.125 L 46.179688 15.289062 L 42.738281 21.242188 Z M 42.453125 21.078125 "/>
<path style=" stroke:none;fill-rule:nonzero;fill:rgb(6.666667%,89.803922%,70.196078%);fill-opacity:1;" d="M 38.609375 10.351562 L 34.964844 4.035156 L 31.316406 10.351562 L 31.03125 10.183594 L 34.964844 3.378906 L 38.894531 10.183594 Z M 38.609375 10.351562 "/>
<path style=" stroke:none;fill-rule:nonzero;fill:rgb(6.666667%,89.803922%,70.196078%);fill-opacity:1;" d="M 15.789062 49.8125 L 7.925781 49.8125 L 11.855469 43.003906 L 12.140625 43.167969 L 8.496094 49.484375 L 15.789062 49.484375 Z M 15.789062 49.8125 "/>
<path style=" stroke:none;fill-rule:nonzero;fill:rgb(6.666667%,89.803922%,70.196078%);fill-opacity:1;" d="M 61.949219 49.8125 L 54.089844 49.8125 L 54.089844 49.484375 L 61.382812 49.484375 L 57.734375 43.167969 L 58.019531 43.003906 Z M 61.949219 49.8125 "/>
<path style=" stroke:none;fill-rule:nonzero;fill:rgb(6.666667%,89.803922%,70.196078%);fill-opacity:1;" d="M 54.621094 50.082031 C 58.011719 45.6875 59.847656 40.292969 59.847656 34.746094 L 59.5 34.746094 C 59.5 40.21875 57.691406 45.539062 54.347656 49.871094 Z M 54.621094 50.082031 "/>
<path style=" stroke:none;fill-rule:nonzero;fill:rgb(6.666667%,89.803922%,70.196078%);fill-opacity:1;" d="M 52.644531 51.09375 C 52.347656 51.398438 52.058594 51.714844 51.753906 52.011719 C 51.1875 51.976562 50.628906 51.9375 50.078125 51.871094 C 50.265625 51.707031 50.441406 51.53125 50.621094 51.363281 C 50.800781 51.195312 50.984375 51.023438 51.148438 50.839844 C 51.695312 50.867188 52.273438 50.894531 52.835938 50.878906 C 52.769531 50.949219 52.707031 51.023438 52.644531 51.09375 Z M 52.644531 51.09375 "/>
<path style=" stroke:none;fill-rule:nonzero;fill:rgb(6.666667%,89.803922%,70.196078%);fill-opacity:1;" d="M 50.890625 52.828125 L 50.40625 53.246094 C 50.246094 53.386719 50.085938 53.53125 49.914062 53.65625 C 49.347656 53.5625 48.8125 53.472656 48.261719 53.339844 C 48.46875 53.199219 48.660156 53.046875 48.855469 52.894531 C 49.050781 52.742188 49.246094 52.589844 49.433594 52.429688 C 49.976562 52.511719 50.539062 52.589844 51.109375 52.636719 C 51.035156 52.703125 50.960938 52.765625 50.890625 52.828125 Z M 50.890625 52.828125 "/>
<path style=" stroke:none;fill-rule:nonzero;fill:rgb(6.666667%,89.803922%,70.196078%);fill-opacity:1;" d="M 48.964844 54.378906 C 48.617188 54.625 48.277344 54.878906 47.910156 55.101562 C 47.359375 54.960938 46.832031 54.808594 46.300781 54.625 L 46.625 54.445312 L 46.9375 54.246094 L 47.5625 53.84375 C 48.09375 53.988281 48.644531 54.105469 49.207031 54.222656 Z M 48.964844 54.378906 "/>
<path style=" stroke:none;fill-rule:nonzero;fill:rgb(6.666667%,89.803922%,70.196078%);fill-opacity:1;" d="M 46.898438 55.726562 L 46.34375 56.042969 C 46.160156 56.148438 45.964844 56.238281 45.773438 56.339844 C 45.507812 56.238281 45.246094 56.136719 44.992188 56.035156 C 44.730469 55.929688 44.472656 55.8125 44.222656 55.699219 C 44.675781 55.503906 45.109375 55.269531 45.550781 55.042969 C 46.074219 55.242188 46.597656 55.414062 47.148438 55.585938 Z M 46.898438 55.726562 "/>
<path style=" stroke:none;fill-rule:nonzero;fill:rgb(6.666667%,89.803922%,70.196078%);fill-opacity:1;" d="M 44.707031 56.863281 L 44.121094 57.125 L 43.527344 57.359375 C 43.273438 57.234375 43.023438 57.109375 42.777344 56.976562 C 42.53125 56.84375 42.285156 56.703125 42.046875 56.5625 C 42.28125 56.480469 42.515625 56.410156 42.746094 56.316406 L 43.4375 56.046875 C 43.9375 56.304688 44.4375 56.519531 44.96875 56.746094 Z M 44.707031 56.863281 "/>
<path style=" stroke:none;fill-rule:nonzero;fill:rgb(6.666667%,89.803922%,70.196078%);fill-opacity:1;" d="M 42.410156 57.761719 C 42.007812 57.902344 41.597656 58.019531 41.1875 58.132812 C 40.707031 57.84375 40.242188 57.515625 39.792969 57.1875 C 40.035156 57.132812 40.277344 57.082031 40.515625 57.019531 L 41.226562 56.816406 C 41.699219 57.128906 42.179688 57.394531 42.683594 57.667969 Z M 42.410156 57.761719 "/>
<path style=" stroke:none;fill-rule:nonzero;fill:rgb(6.666667%,89.803922%,70.196078%);fill-opacity:1;" d="M 40.03125 58.425781 C 39.617188 58.53125 39.195312 58.597656 38.777344 58.671875 C 38.332031 58.335938 37.898438 57.960938 37.488281 57.589844 L 38.226562 57.496094 L 38.953125 57.367188 C 39.394531 57.722656 39.84375 58.042969 40.3125 58.359375 Z M 40.03125 58.425781 "/>
<path style=" stroke:none;fill-rule:nonzero;fill:rgb(6.666667%,89.803922%,70.196078%);fill-opacity:1;" d="M 37.601562 58.839844 C 37.171875 58.902344 36.746094 58.921875 36.320312 58.957031 C 35.910156 58.578125 35.519531 58.15625 35.148438 57.75 L 35.890625 57.730469 L 36.628906 57.675781 C 37.027344 58.074219 37.445312 58.4375 37.878906 58.8125 Z M 37.601562 58.839844 "/>
<path style=" stroke:none;fill-rule:nonzero;fill:rgb(6.666667%,89.803922%,70.196078%);fill-opacity:1;" d="M 35.136719 59.003906 C 34.710938 59.027344 34.285156 59.003906 33.855469 58.996094 C 33.488281 58.578125 33.144531 58.121094 32.8125 57.679688 L 33.550781 57.734375 L 34.292969 57.75 C 34.652344 58.1875 35.027344 58.59375 35.429688 59 Z M 35.136719 59.003906 "/>
<path style=" stroke:none;fill-rule:nonzero;fill:rgb(6.666667%,89.803922%,70.196078%);fill-opacity:1;" d="M 32.671875 58.925781 C 32.242188 58.902344 31.816406 58.839844 31.398438 58.785156 C 31.070312 58.332031 30.773438 57.839844 30.492188 57.363281 L 31.222656 57.492188 L 31.957031 57.585938 C 32.269531 58.054688 32.601562 58.492188 32.953125 58.941406 Z M 32.671875 58.925781 "/>
<path style=" stroke:none;fill-rule:nonzero;fill:rgb(6.666667%,89.803922%,70.196078%);fill-opacity:1;" d="M 30.222656 58.597656 C 29.796875 58.53125 29.390625 58.421875 28.972656 58.332031 C 28.6875 57.847656 28.449219 57.324219 28.214844 56.828125 L 28.925781 57.03125 L 29.648438 57.199219 C 29.910156 57.699219 30.199219 58.171875 30.503906 58.652344 Z M 30.222656 58.597656 "/>
<path style=" stroke:none;fill-rule:nonzero;fill:rgb(6.666667%,89.803922%,70.196078%);fill-opacity:1;" d="M 27.824219 58.023438 C 27.410156 57.914062 27.011719 57.757812 26.605469 57.628906 C 26.382812 57.117188 26.1875 56.570312 26.007812 56.058594 L 26.695312 56.332031 C 26.925781 56.417969 27.164062 56.488281 27.398438 56.570312 C 27.503906 56.828125 27.613281 57.089844 27.730469 57.34375 C 27.847656 57.601562 27.972656 57.851562 28.101562 58.105469 Z M 27.824219 58.023438 "/>
<path style=" stroke:none;fill-rule:nonzero;fill:rgb(6.666667%,89.803922%,70.196078%);fill-opacity:1;" d="M 11.089844 37.011719 C 11.289062 39.082031 11.757812 41.117188 12.480469 43.066406 C 12.671875 43.546875 12.855469 44.035156 13.078125 44.503906 C 13.300781 44.972656 13.527344 45.441406 13.761719 45.902344 C 16.238281 50.523438 20.164062 54.199219 24.933594 56.363281 L 25 56.214844 C 23.128906 55.367188 21.378906 54.28125 19.789062 52.980469 C 18.996094 52.328125 18.246094 51.625 17.542969 50.878906 L 17.277344 50.59375 L 17.027344 50.308594 L 16.519531 49.730469 L 16.046875 49.125 L 15.808594 48.820312 L 15.585938 48.507812 C 13.171875 45.160156 11.683594 41.238281 11.265625 37.136719 Z M 11.089844 37.011719 "/>
<path style=" stroke:none;fill-rule:nonzero;fill:rgb(6.666667%,89.803922%,70.196078%);fill-opacity:1;" d="M 25.191406 56.394531 C 25.167969 56.484375 25.097656 56.554688 25.007812 56.578125 C 24.917969 56.601562 24.824219 56.574219 24.761719 56.503906 C 24.699219 56.4375 24.679688 56.339844 24.710938 56.253906 C 24.71875 56.230469 24.726562 56.210938 24.738281 56.195312 C 24.765625 56.101562 24.847656 56.03125 24.941406 56.019531 C 25.039062 56.003906 25.132812 56.046875 25.1875 56.128906 C 25.238281 56.210938 25.242188 56.316406 25.191406 56.398438 Z M 25.191406 56.394531 "/>
<path style=" stroke:none;fill-rule:nonzero;fill:rgb(6.666667%,89.803922%,70.196078%);fill-opacity:1;" d="M 19.675781 56.152344 C 19.589844 56.277344 19.417969 56.304688 19.292969 56.21875 C 19.234375 56.175781 19.191406 56.113281 19.179688 56.042969 C 19.167969 55.972656 19.1875 55.898438 19.226562 55.839844 C 19.3125 55.710938 19.480469 55.675781 19.609375 55.757812 C 19.734375 55.84375 19.769531 56.011719 19.6875 56.140625 Z M 19.675781 56.152344 "/>
<path style=" stroke:none;fill-rule:nonzero;fill:rgb(6.666667%,89.803922%,70.196078%);fill-opacity:1;" d="M 10.285156 39.066406 C 10.054688 38.914062 9.816406 38.757812 9.585938 38.597656 C 9.355469 38.4375 9.136719 38.269531 8.910156 38.097656 C 8.765625 36.984375 8.691406 35.867188 8.6875 34.746094 L 10.078125 34.746094 C 10.476562 35.109375 10.875 35.453125 11.277344 35.785156 L 9.929688 35.839844 C 9.929688 36.113281 9.964844 36.382812 9.980469 36.652344 C 9.996094 36.921875 10.015625 37.191406 10.054688 37.460938 C 10.125 37.996094 10.179688 38.535156 10.285156 39.066406 Z M 10.285156 39.066406 "/>
<path style=" stroke:none;fill-rule:nonzero;fill:rgb(6.666667%,89.803922%,70.196078%);fill-opacity:1;" d="M 17.125 54.21875 C 17.832031 54.855469 18.574219 55.449219 19.347656 56.007812 L 19.441406 55.875 C 18.695312 55.332031 17.972656 54.753906 17.285156 54.136719 C 17.257812 53.527344 17.261719 52.914062 17.269531 52.324219 L 17.109375 52.332031 C 17.097656 52.945312 17.097656 53.578125 17.125 54.21875 Z M 17.125 54.21875 "/>
<path style=" stroke:none;fill-rule:nonzero;fill:rgb(6.666667%,89.803922%,70.196078%);fill-opacity:1;" d="M 56.804688 47.167969 L 56.757812 47.015625 C 56.320312 47.125 55.886719 47.222656 55.464844 47.3125 C 55.039062 47.402344 54.589844 47.46875 54.164062 47.53125 C 54.03125 47.746094 53.878906 47.945312 53.734375 48.152344 C 53.59375 48.355469 53.453125 48.5625 53.296875 48.761719 C 52.984375 49.15625 52.683594 49.558594 52.347656 49.933594 L 52.472656 50.039062 C 52.804688 49.671875 53.101562 49.273438 53.410156 48.886719 C 53.5625 48.691406 53.695312 48.484375 53.84375 48.28125 C 53.996094 48.082031 54.136719 47.882812 54.273438 47.671875 C 54.6875 47.609375 55.109375 47.539062 55.535156 47.457031 C 55.964844 47.378906 56.375 47.273438 56.804688 47.167969 Z M 56.804688 47.167969 "/>
<path style=" stroke:none;fill-rule:nonzero;fill:rgb(6.666667%,89.803922%,70.196078%);fill-opacity:1;" d="M 52.183594 49.835938 C 52.261719 49.722656 52.417969 49.691406 52.53125 49.765625 C 52.660156 49.835938 52.710938 49.996094 52.644531 50.125 C 52.609375 50.183594 52.550781 50.222656 52.488281 50.238281 C 52.421875 50.25 52.355469 50.238281 52.300781 50.203125 L 52.285156 50.195312 C 52.167969 50.117188 52.125 49.964844 52.183594 49.835938 Z M 52.183594 49.835938 "/>
<path style=" stroke:none;fill-rule:nonzero;fill:rgb(6.666667%,89.803922%,70.196078%);fill-opacity:1;" d="M 13.363281 44.003906 C 13.960938 45.378906 14.6875 46.691406 15.539062 47.921875 L 14.890625 48.367188 C 14.015625 47.09375 13.265625 45.738281 12.652344 44.316406 Z M 13.363281 44.003906 "/>
<path style=" stroke:none;fill-rule:nonzero;fill:rgb(6.666667%,89.803922%,70.196078%);fill-opacity:1;" d="M 14.785156 19.410156 C 11.394531 23.804688 9.558594 29.195312 9.558594 34.746094 L 9.902344 34.746094 C 9.902344 29.273438 11.714844 23.953125 15.054688 19.617188 Z M 14.785156 19.410156 "/>
<path style=" stroke:none;fill-rule:nonzero;fill:rgb(6.666667%,89.803922%,70.196078%);fill-opacity:1;" d="M 16.761719 18.402344 C 17.058594 18.09375 17.34375 17.777344 17.648438 17.480469 C 18.21875 17.515625 18.773438 17.554688 19.324219 17.621094 C 19.136719 17.78125 18.964844 17.960938 18.78125 18.128906 C 18.601562 18.296875 18.421875 18.464844 18.253906 18.648438 C 17.707031 18.625 17.128906 18.59375 16.566406 18.609375 C 16.632812 18.542969 16.695312 18.46875 16.761719 18.402344 Z M 16.761719 18.402344 "/>
<path style=" stroke:none;fill-rule:nonzero;fill:rgb(6.666667%,89.803922%,70.196078%);fill-opacity:1;" d="M 18.515625 16.664062 L 19 16.246094 C 19.15625 16.101562 19.320312 15.964844 19.492188 15.835938 C 20.0625 15.929688 20.597656 16.015625 21.144531 16.148438 C 20.9375 16.292969 20.75 16.449219 20.554688 16.597656 C 20.359375 16.75 20.160156 16.898438 19.972656 17.0625 C 19.429688 16.980469 18.867188 16.902344 18.300781 16.855469 C 18.371094 16.785156 18.441406 16.726562 18.515625 16.664062 Z M 18.515625 16.664062 "/>
<path style=" stroke:none;fill-rule:nonzero;fill:rgb(6.666667%,89.803922%,70.196078%);fill-opacity:1;" d="M 20.4375 15.113281 C 20.785156 14.867188 21.128906 14.613281 21.492188 14.390625 C 22.042969 14.53125 22.574219 14.683594 23.101562 14.867188 L 22.78125 15.054688 L 21.84375 15.652344 C 21.3125 15.515625 20.765625 15.390625 20.199219 15.277344 Z M 20.4375 15.113281 "/>
<path style=" stroke:none;fill-rule:nonzero;fill:rgb(6.666667%,89.803922%,70.196078%);fill-opacity:1;" d="M 22.503906 13.765625 L 23.058594 13.445312 C 23.246094 13.339844 23.4375 13.25 23.628906 13.152344 C 23.894531 13.246094 24.15625 13.347656 24.414062 13.453125 C 24.671875 13.5625 24.929688 13.679688 25.179688 13.792969 C 24.726562 13.984375 24.292969 14.21875 23.851562 14.445312 C 23.332031 14.246094 22.804688 14.078125 22.253906 13.90625 Z M 22.503906 13.765625 "/>
<path style=" stroke:none;fill-rule:nonzero;fill:rgb(6.666667%,89.803922%,70.196078%);fill-opacity:1;" d="M 24.699219 12.632812 L 25.28125 12.371094 L 25.871094 12.136719 C 26.125 12.261719 26.375 12.382812 26.621094 12.519531 C 26.867188 12.652344 27.117188 12.800781 27.355469 12.945312 C 27.121094 13.027344 26.882812 13.097656 26.65625 13.1875 L 25.964844 13.460938 C 25.464844 13.199219 24.960938 12.988281 24.433594 12.761719 Z M 24.699219 12.632812 "/>
<path style=" stroke:none;fill-rule:nonzero;fill:rgb(6.666667%,89.803922%,70.196078%);fill-opacity:1;" d="M 26.996094 11.730469 C 27.394531 11.589844 27.808594 11.472656 28.21875 11.359375 C 28.695312 11.640625 29.160156 11.976562 29.609375 12.300781 C 29.367188 12.359375 29.125 12.410156 28.886719 12.472656 L 28.175781 12.675781 C 27.703125 12.363281 27.226562 12.097656 26.722656 11.820312 Z M 26.996094 11.730469 "/>
<path style=" stroke:none;fill-rule:nonzero;fill:rgb(6.666667%,89.803922%,70.196078%);fill-opacity:1;" d="M 29.371094 11.070312 C 29.785156 10.964844 30.207031 10.898438 30.625 10.820312 C 31.070312 11.160156 31.503906 11.53125 31.914062 11.902344 L 31.179688 11.996094 L 30.449219 12.128906 C 30.011719 11.773438 29.5625 11.453125 29.089844 11.132812 Z M 29.371094 11.070312 "/>
<path style=" stroke:none;fill-rule:nonzero;fill:rgb(6.666667%,89.803922%,70.196078%);fill-opacity:1;" d="M 39.179688 10.894531 C 39.605469 10.960938 40.015625 11.066406 40.429688 11.160156 C 40.714844 11.644531 40.953125 12.164062 41.1875 12.664062 L 40.476562 12.460938 L 39.753906 12.292969 C 39.492188 11.792969 39.203125 11.320312 38.902344 10.839844 Z M 39.179688 10.894531 "/>
<path style=" stroke:none;fill-rule:nonzero;fill:rgb(6.666667%,89.803922%,70.196078%);fill-opacity:1;" d="M 41.582031 11.46875 C 41.992188 11.574219 42.390625 11.730469 42.796875 11.863281 C 43.023438 12.375 43.214844 12.917969 43.394531 13.425781 L 42.707031 13.15625 C 42.476562 13.066406 42.238281 12.996094 42.007812 12.914062 C 41.898438 12.65625 41.789062 12.394531 41.671875 12.136719 C 41.554688 11.882812 41.433594 11.632812 41.304688 11.378906 Z M 41.582031 11.46875 "/>
<path style=" stroke:none;fill-rule:nonzero;fill:rgb(6.666667%,89.803922%,70.196078%);fill-opacity:1;" d="M 58.320312 32.480469 C 58.117188 30.410156 57.648438 28.375 56.925781 26.421875 C 56.734375 25.941406 56.554688 25.453125 56.328125 24.984375 C 56.105469 24.515625 55.882812 24.046875 55.644531 23.585938 C 55.15625 22.667969 54.605469 21.785156 53.996094 20.941406 C 51.570312 17.539062 48.28125 14.84375 44.472656 13.125 L 44.40625 13.273438 C 47.21875 14.542969 49.753906 16.355469 51.863281 18.609375 L 52.128906 18.894531 L 52.382812 19.179688 L 52.882812 19.757812 L 53.355469 20.363281 L 53.59375 20.667969 L 53.816406 20.984375 C 56.230469 24.328125 57.722656 28.25 58.136719 32.355469 Z M 58.320312 32.480469 "/>
<path style=" stroke:none;fill-rule:nonzero;fill:rgb(6.666667%,89.803922%,70.196078%);fill-opacity:1;" d="M 44.210938 13.097656 C 44.230469 13.007812 44.300781 12.9375 44.390625 12.914062 C 44.480469 12.890625 44.574219 12.917969 44.636719 12.988281 C 44.699219 13.054688 44.71875 13.152344 44.6875 13.238281 C 44.683594 13.257812 44.671875 13.277344 44.664062 13.296875 C 44.617188 13.421875 44.484375 13.492188 44.355469 13.453125 C 44.226562 13.414062 44.152344 13.285156 44.183594 13.15625 C 44.191406 13.132812 44.199219 13.113281 44.210938 13.097656 Z M 44.210938 13.097656 "/>
<path style=" stroke:none;fill-rule:nonzero;fill:rgb(6.666667%,89.803922%,70.196078%);fill-opacity:1;" d="M 49.726562 13.34375 C 49.769531 13.285156 49.832031 13.246094 49.90625 13.230469 C 49.976562 13.21875 50.050781 13.238281 50.109375 13.277344 C 50.234375 13.363281 50.261719 13.535156 50.175781 13.65625 C 50.089844 13.78125 49.917969 13.808594 49.792969 13.722656 C 49.667969 13.632812 49.640625 13.460938 49.730469 13.339844 Z M 49.726562 13.34375 "/>
<path style=" stroke:none;fill-rule:nonzero;fill:rgb(6.666667%,89.803922%,70.196078%);fill-opacity:1;" d="M 59.117188 30.421875 C 59.351562 30.574219 59.585938 30.730469 59.820312 30.890625 C 60.050781 31.050781 60.269531 31.21875 60.496094 31.390625 C 60.636719 32.503906 60.710938 33.621094 60.71875 34.742188 L 59.324219 34.742188 C 58.925781 34.378906 58.527344 34.035156 58.128906 33.707031 L 59.472656 33.648438 C 59.472656 33.375 59.4375 33.109375 59.421875 32.835938 C 59.402344 32.566406 59.390625 32.296875 59.351562 32.027344 C 59.277344 31.496094 59.226562 30.957031 59.117188 30.421875 Z M 59.117188 30.421875 "/>
<path style=" stroke:none;fill-rule:nonzero;fill:rgb(6.666667%,89.803922%,70.196078%);fill-opacity:1;" d="M 52.277344 15.273438 C 51.570312 14.636719 50.828125 14.039062 50.058594 13.480469 L 49.960938 13.613281 C 50.710938 14.15625 51.429688 14.738281 52.117188 15.351562 C 52.148438 15.964844 52.144531 16.578125 52.132812 17.167969 L 52.292969 17.160156 C 52.3125 16.546875 52.3125 15.910156 52.277344 15.273438 Z M 52.277344 15.273438 "/>
<path style=" stroke:none;fill-rule:nonzero;fill:rgb(6.666667%,89.803922%,70.196078%);fill-opacity:1;" d="M 12.597656 22.316406 L 12.652344 22.476562 C 13.089844 22.363281 13.523438 22.265625 13.949219 22.175781 C 14.382812 22.09375 14.816406 22.023438 15.242188 21.960938 C 15.371094 21.746094 15.527344 21.542969 15.667969 21.339844 C 15.808594 21.132812 15.953125 20.925781 16.109375 20.726562 C 16.421875 20.335938 16.71875 19.929688 17.058594 19.558594 L 16.933594 19.449219 C 16.597656 19.816406 16.304688 20.21875 15.996094 20.605469 C 15.839844 20.796875 15.710938 21.007812 15.558594 21.207031 C 15.410156 21.40625 15.265625 21.605469 15.132812 21.820312 C 14.71875 21.878906 14.296875 21.949219 13.871094 22.03125 C 13.441406 22.113281 13.027344 22.214844 12.597656 22.316406 Z M 12.597656 22.316406 "/>
<path style=" stroke:none;fill-rule:nonzero;fill:rgb(6.666667%,89.803922%,70.196078%);fill-opacity:1;" d="M 17.21875 19.65625 C 17.144531 19.769531 16.988281 19.800781 16.871094 19.722656 L 16.863281 19.722656 C 16.734375 19.652344 16.6875 19.496094 16.75 19.363281 C 16.824219 19.25 16.980469 19.214844 17.09375 19.289062 L 17.109375 19.300781 C 17.230469 19.375 17.277344 19.523438 17.21875 19.65625 Z M 17.21875 19.65625 "/>
<path style=" stroke:none;fill-rule:nonzero;fill:rgb(6.666667%,89.803922%,70.196078%);fill-opacity:1;" d="M 56.035156 25.484375 C 55.4375 24.113281 54.707031 22.800781 53.859375 21.570312 L 54.503906 21.125 C 55.382812 22.398438 56.136719 23.753906 56.753906 25.175781 Z M 56.035156 25.484375 "/>
<use xlink:href="#surface14" mask="url(#mask3)"/>
</g>
</svg>
