<svg xmlns="http://www.w3.org/2000/svg" xmlns:xlink="http://www.w3.org/1999/xlink" viewBox="0 0 492.41 492.41"><defs><style>.cls-1{mask:url(#mask);filter:url(#luminosity-noclip-2);}.cls-2{mix-blend-mode:multiply;fill:url(#Безымянный_градиент_2);}.cls-3,.cls-4{fill:#17cffc;}.cls-4{opacity:0.7;}.cls-5{opacity:0.5;}.cls-6{mask:url(#mask-2);}.cls-7{filter:url(#luminosity-noclip);}</style><filter id="luminosity-noclip" x="156.68" y="-8438.38" width="177.79" height="32766" filterUnits="userSpaceOnUse" color-interpolation-filters="sRGB"><feFlood flood-color="#fff" result="bg"/><feBlend in="SourceGraphic" in2="bg"/></filter><mask id="mask" x="156.68" y="-8438.38" width="177.79" height="32766" maskUnits="userSpaceOnUse"><g class="cls-7"/></mask><radialGradient id="Безымянный_градиент_2" cx="228.1" cy="344.85" r="100.74" gradientTransform="translate(44.3 -57.59) scale(0.88)" gradientUnits="userSpaceOnUse"><stop offset="0.59" stop-color="#fff"/><stop offset="0.81" stop-color="gray"/><stop offset="0.9" stop-color="#4d4d4d"/><stop offset="1"/></radialGradient><filter id="luminosity-noclip-2" x="156.68" y="157.82" width="177.79" height="177.79" filterUnits="userSpaceOnUse" color-interpolation-filters="sRGB"><feFlood flood-color="#fff" result="bg"/><feBlend in="SourceGraphic" in2="bg"/></filter><mask id="mask-2" x="156.68" y="157.82" width="177.79" height="177.79" maskUnits="userSpaceOnUse"><g class="cls-1"><path class="cls-2" d="M205.33,167.47a88.87,88.87,0,1,0,119.48,39A88.87,88.87,0,0,0,205.33,167.47Zm66.92,131.78A58.93,58.93,0,1,1,298.11,220,58.94,58.94,0,0,1,272.25,299.25Z"/></g></mask></defs><title>icon_burger</title><g id="Layer_2" data-name="Layer 2"><g id="Layer_1-2" data-name="Layer 1"><rect class="cls-3" x="274.36" y="244.87" width="208.22" height="2.68"/><rect class="cls-3" x="3.57" y="244.87" width="208.22" height="2.68"/><path class="cls-3" d="M484.82,253.8a7.6,7.6,0,1,1,7.59-7.59A7.59,7.59,0,0,1,484.82,253.8Z"/><path class="cls-3" d="M7.6,253.8a7.6,7.6,0,1,1,7.59-7.59A7.59,7.59,0,0,1,7.6,253.8Z"/><rect class="cls-3" x="244.87" y="274.36" width="2.68" height="208.23"/><rect class="cls-3" x="244.87" y="3.57" width="2.68" height="208.23"/><path class="cls-3" d="M238.61,484.82a7.6,7.6,0,1,1,7.6,7.59A7.6,7.6,0,0,1,238.61,484.82Z"/><path class="cls-3" d="M238.61,7.6a7.6,7.6,0,1,1,7.6,7.59A7.6,7.6,0,0,1,238.61,7.6Z"/><path class="cls-3" d="M246.21,262.29a16.09,16.09,0,1,1,16.08-16.08A16.1,16.1,0,0,1,246.21,262.29Zm0-29.49a13.41,13.41,0,1,0,13.4,13.41A13.42,13.42,0,0,0,246.21,232.8Z"/><path class="cls-3" d="M245.65,295.45a48.63,48.63,0,1,1,48.63-48.63A48.68,48.68,0,0,1,245.65,295.45Zm0-96.09a47.46,47.46,0,1,0,47.45,47.46A47.51,47.51,0,0,0,245.65,199.36Z"/><path class="cls-3" d="M245.65,253.41a6.59,6.59,0,1,1,6.59-6.59A6.6,6.6,0,0,1,245.65,253.41Z"/><path class="cls-3" d="M245.65,269.62a22.8,22.8,0,1,1,22.8-22.8A22.82,22.82,0,0,1,245.65,269.62Zm0-44.43a21.63,21.63,0,1,0,21.62,21.63A21.66,21.66,0,0,0,245.65,225.19Z"/><path class="cls-3" d="M274.06,247.41H217.23a.59.59,0,1,1,0-1.17h56.83a.59.59,0,1,1,0,1.17Z"/><path class="cls-3" d="M245.65,275.82a.58.58,0,0,1-.59-.58V218.41a.59.59,0,1,1,1.17,0v56.83A.58.58,0,0,1,245.65,275.82Z"/><path class="cls-3" d="M239.44,199.19v-2a50.76,50.76,0,0,1,6.21-.38,50.23,50.23,0,0,1,6.29.39v2a47.93,47.93,0,0,1,26,12l3.3-3.3q-1.62-1.47-3.35-2.81l2.44-2.07a55.8,55.8,0,0,0-81.29,13l2.79,1.47a52,52,0,0,0-4.51,8.22l-2.78-1.46a55.8,55.8,0,0,0,2.28,49.6l2.44-2.07a52.82,52.82,0,0,0,7.51,10.56l3.3-3.3a48,48,0,0,1,29.38-79.91Z"/><path class="cls-3" d="M297.42,267.76a55.79,55.79,0,0,0-2-46.27L293,223.57a52.65,52.65,0,0,0-3.55-6.14L286,220.81a48,48,0,0,1-34.09,73.63v2a50.22,50.22,0,0,1-6.29.4,50.75,50.75,0,0,1-6.21-.39v-2a47.84,47.84,0,0,1-19.81-7.24l-1.4,1.41c-.36-.24-.73-.48-1.08-.73l-4.6,3.9a55.79,55.79,0,0,0,80.63-15.67l-2.78-1.46a52.48,52.48,0,0,0,4.24-8.36Z"/><path class="cls-3" d="M245.06,193.34l-2.93-31.64a3.53,3.53,0,1,1,7,0l-2.93,31.64a.59.59,0,0,1-.64.53A.61.61,0,0,1,245.06,193.34Z"/><path class="cls-3" d="M246.23,300.16l2.93,31.64a3.53,3.53,0,1,1-7,0l2.93-31.64a.59.59,0,0,1,1.17,0Z"/><path class="cls-3" d="M299.06,246.17l31.64-2.93a3.53,3.53,0,1,1,.65,7,4.7,4.7,0,0,1-.65,0l-31.64-2.93a.59.59,0,0,1-.53-.64A.57.57,0,0,1,299.06,246.17Z"/><path class="cls-3" d="M192.23,247.34l-31.64,2.93a3.53,3.53,0,0,1-.65-7,4.7,4.7,0,0,1,.65,0l31.64,2.93a.59.59,0,0,1,0,1.18Z"/><path class="cls-4" d="M266,107,245.94,72.22,225.88,107l-20,34.74h80.23Zm-47.22,27.51L232.36,111l13.58-23.52L259.52,111l13.58,23.52H218.78Z"/><path class="cls-4" d="M158.62,291.93l-20.06-34.74L118.5,291.93,98.44,326.67h80.23ZM111.4,319.44,125,295.92l13.58-23.52,13.58,23.52,13.58,23.52H111.4Z"/><path class="cls-4" d="M373.38,291.93l-20.06-34.74-20.06,34.74-20.05,34.74h80.23Zm-47.22,27.51,13.58-23.52,13.58-23.52,13.58,23.52,13.58,23.52H326.16Z"/><path class="cls-3" d="M245.94,398.77C159.42,398.77,89,328.38,89,241.85S159.42,84.94,245.94,84.94s156.92,70.39,156.92,156.91S332.47,398.77,245.94,398.77Zm0-311.52c-85.25,0-154.61,69.35-154.61,154.6s69.36,154.61,154.61,154.61S400.55,327.1,400.55,241.85,331.19,87.25,245.94,87.25Z"/><path class="cls-3" d="M245.94,350.39A108.54,108.54,0,1,1,354.48,241.85,108.66,108.66,0,0,1,245.94,350.39Zm0-214.76A106.23,106.23,0,1,0,352.17,241.85,106.34,106.34,0,0,0,245.94,135.63Z"/><rect class="cls-3" x="244.79" y="86.09" width="2.31" height="48.38"/><rect class="cls-3" x="244.79" y="349.23" width="2.31" height="48.38"/><rect class="cls-3" x="179" y="103.72" width="2.31" height="48.38" transform="translate(-39.82 107.21) rotate(-30)"/><rect class="cls-3" x="310.57" y="331.61" width="2.31" height="48.38" transform="translate(-136.14 203.53) rotate(-30)"/><rect class="cls-3" x="130.84" y="151.88" width="2.31" height="48.38" transform="translate(-86.48 202.35) rotate(-60)"/><rect class="cls-3" x="358.73" y="283.45" width="2.31" height="48.38" transform="translate(-86.48 465.49) rotate(-60)"/><rect class="cls-3" x="90.18" y="240.7" width="48.38" height="2.31"/><rect class="cls-3" x="353.32" y="240.7" width="48.38" height="2.31"/><rect class="cls-3" x="107.81" y="306.48" width="48.38" height="2.31" transform="translate(-136.17 107.26) rotate(-30.01)"/><rect class="cls-3" x="335.7" y="174.91" width="48.38" height="2.31" transform="translate(-39.81 203.6) rotate(-30.01)"/><rect class="cls-3" x="155.97" y="354.64" width="48.38" height="2.31" transform="translate(-218.05 333.81) rotate(-59.98)"/><rect class="cls-3" x="287.54" y="126.75" width="48.38" height="2.31" transform="translate(45.06 333.87) rotate(-59.99)"/><polygon class="cls-3" points="271.59 72.8 245.94 28.37 220.29 72.8 218.29 71.64 245.94 23.75 273.59 71.64 271.59 72.8"/><polygon class="cls-3" points="111.05 350.39 55.75 350.39 83.4 302.5 85.4 303.66 59.75 348.08 111.05 348.08 111.05 350.39"/><polygon class="cls-3" points="435.78 350.39 380.48 350.39 380.48 348.08 431.78 348.08 406.13 303.66 408.13 302.5 435.78 350.39"/><path class="cls-3" d="M384.23,352.3A176.69,176.69,0,0,0,421,244.41h-2.43a174.36,174.36,0,0,1-36.25,106.41Z"/><path class="cls-3" d="M370.31,359.4c-2.09,2.15-4.11,4.37-6.25,6.47-4-.24-7.91-.53-11.78-1,1.31-1.14,2.53-2.39,3.8-3.57s2.55-2.37,3.72-3.66c3.85.18,7.92.37,11.86.26C371.21,358.39,370.77,358.91,370.31,359.4Z"/><path class="cls-3" d="M358,371.61l-3.4,2.94c-1.13,1-2.27,2-3.47,2.88-4-.66-7.76-1.27-11.62-2.21,1.45-1,2.79-2.08,4.16-3.15s2.76-2.12,4.08-3.26c3.81.58,7.78,1.12,11.77,1.46C359,370.74,358.48,371.17,358,371.61Z"/><path class="cls-3" d="M344.45,382.51c-2.46,1.73-4.86,3.54-7.42,5.1-3.88-1-7.6-2.06-11.33-3.37l2.26-1.3,2.19-1.41,4.4-2.81c3.74,1,7.59,1.84,11.56,2.64Z"/><path class="cls-3" d="M329.9,392l-3.9,2.24c-1.3.74-2.66,1.38-4,2.08q-2.81-1.05-5.52-2.13c-1.82-.76-3.64-1.58-5.41-2.38,3.2-1.36,6.25-3,9.36-4.6,3.66,1.4,7.36,2.6,11.23,3.8Z"/><path class="cls-3" d="M314.48,400l-4.11,1.84-4.18,1.65c-1.79-.88-3.54-1.74-5.28-2.68s-3.46-1.94-5.14-2.92c1.64-.58,3.31-1.06,4.93-1.72l4.85-1.91c3.52,1.83,7.05,3.33,10.78,4.93Z"/><path class="cls-3" d="M298.32,406.31c-2.82,1-5.71,1.82-8.6,2.63-3.37-2.05-6.65-4.35-9.79-6.65,1.69-.4,3.39-.76,5.08-1.19l5-1.43c3.32,2.2,6.69,4.07,10.23,6Z"/><path class="cls-3" d="M281.6,411c-2.91.74-5.88,1.2-8.83,1.73-3.13-2.36-6.17-5-9.06-7.61l5.18-.66,5.13-.92c3.08,2.51,6.24,4.76,9.56,7Z"/><path class="cls-3" d="M264.49,413.89c-3,.45-6,.59-9,.83-2.88-2.67-5.64-5.63-8.25-8.48l5.22-.13,5.2-.4c2.81,2.8,5.73,5.37,8.8,8Z"/><path class="cls-3" d="M247.16,415.07c-3,.14-6,0-9-.07-2.6-2.95-5-6.15-7.35-9.27l5.2.39,5.22.12c2.52,3.08,5.17,5.92,8,8.8Z"/><path class="cls-3" d="M229.81,414.51c-3-.17-6-.61-8.95-1-2.29-3.19-4.39-6.63-6.38-10l5.14.91,5.17.65c2.19,3.32,4.55,6.4,7,9.56Z"/><path class="cls-3" d="M212.6,412.2c-3-.46-5.87-1.23-8.8-1.88-2-3.4-3.69-7.07-5.32-10.56l5,1.42,5.08,1.18c1.84,3.51,3.86,6.84,6,10.22Z"/><path class="cls-3" d="M195.72,408.15c-2.91-.75-5.71-1.85-8.56-2.77-1.59-3.59-2.94-7.43-4.22-11.05l4.85,1.92c1.62.62,3.29,1.12,4.93,1.7.75,1.8,1.51,3.65,2.34,5.44s1.7,3.55,2.6,5.34Z"/><path class="cls-3" d="M78,260.34a169.31,169.31,0,0,0,9.8,42.6c1.35,3.39,2.63,6.82,4.2,10.12s3.16,6.58,4.82,9.84a165.76,165.76,0,0,0,11.58,18.59,166.45,166.45,0,0,0,67,55l.47-1.06a166.15,166.15,0,0,1-36.68-22.74,169.82,169.82,0,0,1-15.79-14.79l-1.87-2-1.77-2-3.55-4.09-3.34-4.26-1.67-2.13-1.56-2.2a165.29,165.29,0,0,1-30.41-80Z"/><path class="cls-3" d="M177.19,396.7a1.76,1.76,0,1,1-3.18-1.44,1.88,1.88,0,0,1,2.4-1.06A1.86,1.86,0,0,1,177.19,396.7Z"/><path class="cls-3" d="M138.4,395a1.94,1.94,0,0,1-2.71.47,1.92,1.92,0,0,1-.43-2.71A1.93,1.93,0,1,1,138.4,395Z"/><path class="cls-3" d="M72.34,274.81c-1.63-1.07-3.29-2.17-4.92-3.3s-3.17-2.31-4.76-3.52a191.73,191.73,0,0,1-1.56-23.58h9.79q4.22,3.83,8.42,7.3l-9.47.41c0,1.9.26,3.8.37,5.7s.23,3.8.5,5.68C71.21,267.28,71.59,271.07,72.34,274.81Z"/><path class="cls-3" d="M120.45,381.4A193.13,193.13,0,0,0,136.08,394l.68-.95a185.34,185.34,0,0,1-15.17-12.21c-.2-4.3-.18-8.62-.11-12.76l-1.14.05C120.26,372.45,120.27,376.9,120.45,381.4Z"/><path class="cls-3" d="M399.58,331.8l-.33-1.08c-3.07.77-6.11,1.47-9.1,2.1S384,333.9,381,334.34c-.92,1.51-2,2.93-3,4.37s-2,2.9-3.09,4.3c-2.21,2.76-4.31,5.61-6.68,8.23l.88.75c2.34-2.58,4.42-5.39,6.59-8.11,1.09-1.37,2-2.83,3.07-4.24s2.06-2.81,3-4.3c2.91-.44,5.88-.93,8.89-1.5S396.57,332.55,399.58,331.8Z"/><path class="cls-3" d="M367.07,350.57a1.77,1.77,0,0,1,2.51-.45,1.9,1.9,0,0,1,.79,2.53,1.76,1.76,0,0,1-2.52.47A2,2,0,0,1,367.07,350.57Z"/><path class="cls-3" d="M94,309.55a163.39,163.39,0,0,0,15.3,27.56l-4.54,3.13A169,169,0,0,1,89,311.75Z"/><path class="cls-3" d="M104,136.52A176.7,176.7,0,0,0,67.22,244.41h2.43A174.19,174.19,0,0,1,105.9,138Z"/><path class="cls-3" d="M117.9,129.43c2.09-2.16,4.1-4.38,6.24-6.48,4,.25,7.91.53,11.79,1-1.32,1.13-2.53,2.38-3.81,3.57s-2.54,2.37-3.71,3.66c-3.85-.18-7.92-.38-11.87-.27C117,130.43,117.43,129.91,117.9,129.43Z"/><path class="cls-3" d="M130.25,117.21l3.4-2.94c1.12-1,2.26-2,3.46-2.87,4,.66,7.77,1.26,11.62,2.2-1.44,1-2.78,2.09-4.15,3.16s-2.77,2.11-4.08,3.25c-3.82-.57-7.79-1.11-11.78-1.46C129.21,118.08,129.73,117.65,130.25,117.21Z"/><path class="cls-3" d="M143.76,106.31c2.45-1.73,4.85-3.53,7.41-5.1,3.88,1,7.61,2.06,11.34,3.37l-2.26,1.3-2.2,1.41-4.39,2.81q-5.62-1.44-11.57-2.64Z"/><path class="cls-3" d="M158.3,96.82l3.9-2.24c1.31-.74,2.66-1.38,4-2.08q2.81,1.05,5.52,2.13c1.83.76,3.64,1.58,5.41,2.38-3.2,1.36-6.25,3-9.35,4.6-3.66-1.4-7.37-2.6-11.24-3.8Z"/><path class="cls-3" d="M173.73,88.86l4.1-1.84L182,85.37c1.79.88,3.54,1.74,5.27,2.68S190.75,90,192.43,91c-1.64.58-3.31,1.07-4.92,1.72l-4.85,1.91c-3.52-1.83-7.06-3.33-10.79-4.93Z"/><path class="cls-3" d="M189.89,82.52c2.82-1,5.71-1.82,8.6-2.63,3.36,2,6.64,4.34,9.78,6.64-1.69.4-3.39.76-5.07,1.19l-5,1.43c-3.32-2.2-6.68-4.06-10.22-6Z"/><path class="cls-3" d="M206.61,77.86c2.91-.74,5.87-1.2,8.82-1.74,3.14,2.37,6.18,5,9.06,7.61l-5.17.66-5.13.92c-3.08-2.51-6.25-4.75-9.56-7Z"/><path class="cls-3" d="M275.61,76.63c3,.46,5.87,1.22,8.79,1.87,2,3.41,3.69,7.07,5.33,10.57l-5-1.43-5.08-1.18c-1.84-3.51-3.87-6.84-6-10.22Z"/><path class="cls-3" d="M292.49,80.67c2.9.75,5.7,1.85,8.56,2.77,1.59,3.59,2.93,7.43,4.21,11l-4.85-1.91c-1.62-.63-3.28-1.13-4.92-1.7-.75-1.8-1.52-3.66-2.35-5.45s-1.69-3.55-2.59-5.34Z"/><path class="cls-3" d="M410.24,228.48a164.79,164.79,0,0,0-3.52-21.62,162.07,162.07,0,0,0-6.28-21c-1.34-3.39-2.62-6.82-4.2-10.11s-3.15-6.59-4.82-9.85a164.32,164.32,0,0,0-11.58-18.59,166.51,166.51,0,0,0-67-55l-.48,1.06a164.62,164.62,0,0,1,52.47,37.53l1.87,2,1.78,2L372,139l3.34,4.26,1.67,2.13,1.57,2.21a165.25,165.25,0,0,1,30.41,80Z"/><path class="cls-3" d="M311,92.12a1.76,1.76,0,1,1,3.18,1.44A1.76,1.76,0,1,1,311,92.12Z"/><path class="cls-3" d="M349.8,93.87a1.94,1.94,0,0,1,2.72-.46,1.91,1.91,0,0,1,.43,2.7,2,2,0,0,1-2.72.47A2,2,0,0,1,349.8,93.87Z"/><path class="cls-3" d="M415.86,214c1.64,1.07,3.29,2.17,4.93,3.3s3.17,2.32,4.76,3.52a191.86,191.86,0,0,1,1.56,23.58h-9.8q-4.21-3.82-8.42-7.29l9.47-.41c0-1.91-.25-3.8-.37-5.7s-.22-3.81-.49-5.69C417,221.54,416.62,217.75,415.86,214Z"/><path class="cls-3" d="M367.75,107.42a192.86,192.86,0,0,0-15.62-12.6l-.68.94A188.8,188.8,0,0,1,366.62,108c.2,4.3.18,8.62.1,12.77l1.14-.06C367.94,116.38,367.94,111.92,367.75,107.42Z"/><path class="cls-3" d="M88.62,157,89,158.1q4.62-1.15,9.11-2.1c3.07-.58,6.11-1.08,9.1-1.52.92-1.51,2-2.93,3-4.37s2-2.9,3.1-4.3c2.2-2.76,4.3-5.6,6.68-8.22l-.88-.76c-2.35,2.58-4.42,5.39-6.6,8.12-1.08,1.36-2,2.82-3.06,4.23s-2.07,2.81-3,4.31c-2.92.43-5.88.92-8.89,1.49S91.64,156.27,88.62,157Z"/><path class="cls-3" d="M121.13,138.25a1.77,1.77,0,0,1-2.51.45,1.91,1.91,0,0,1-.79-2.53,1.75,1.75,0,0,1,2.52-.46A2,2,0,0,1,121.13,138.25Z"/><path class="cls-3" d="M394.16,179.27a162.21,162.21,0,0,0-15.3-27.55l4.54-3.13a168,168,0,0,1,15.82,28.49Z"/><g class="cls-5"><g class="cls-6"><path class="cls-3" d="M205.33,167.47a88.87,88.87,0,1,0,119.48,39A88.87,88.87,0,0,0,205.33,167.47Zm66.92,131.78A58.93,58.93,0,1,1,298.11,220,58.94,58.94,0,0,1,272.25,299.25Z"/></g></g></g></g></svg>