<svg xmlns="http://www.w3.org/2000/svg" xmlns:xlink="http://www.w3.org/1999/xlink" viewBox="0 0 496.48 117.22"><defs><style>.cls-1{mask:url(#mask);filter:url(#luminosity-noclip-8);}.cls-10,.cls-2,.cls-4,.cls-6,.cls-8{mix-blend-mode:multiply;}.cls-2{fill:url(#linear-gradient);}.cls-3{mask:url(#mask-2);filter:url(#luminosity-noclip-13);}.cls-4{fill:url(#linear-gradient-2);}.cls-5{mask:url(#mask-3);filter:url(#luminosity-noclip-14);}.cls-6{fill:url(#linear-gradient-3);}.cls-11,.cls-7{mask:url(#mask-4);}.cls-7{filter:url(#luminosity-noclip-9);}.cls-8{fill:url(#linear-gradient-4);}.cls-12,.cls-9{mask:url(#mask-5);}.cls-9{filter:url(#luminosity-noclip-10);}.cls-10{fill:url(#linear-gradient-5);}.cls-13{fill:#00d0ff;}.cls-14{mask:url(#mask-8);}.cls-15{mask:url(#mask-9);}.cls-16{mask:url(#mask-10);}.cls-17{mask:url(#mask-13);}.cls-18{mask:url(#mask-14);}.cls-19{filter:url(#luminosity-noclip-5);}.cls-20{filter:url(#luminosity-noclip-4);}.cls-21{filter:url(#luminosity-noclip-3);}.cls-22{filter:url(#luminosity-noclip-2);}.cls-23{filter:url(#luminosity-noclip);}</style><filter id="luminosity-noclip" x="95.87" y="-8273.01" width="161.12" height="32766" filterUnits="userSpaceOnUse" color-interpolation-filters="sRGB"><feFlood flood-color="#fff" result="bg"/><feBlend in="SourceGraphic" in2="bg"/></filter><mask id="mask" x="95.87" y="-8273.01" width="161.12" height="32766" maskUnits="userSpaceOnUse"><g class="cls-23"/></mask><linearGradient id="linear-gradient" x1="800.66" y1="213.64" x2="1011.86" y2="213.64" gradientTransform="matrix(-0.77, 0, 0, 0.77, 872.98, -70.58)" gradientUnits="userSpaceOnUse"><stop offset="0" stop-color="#fff"/><stop offset="0.07" stop-color="#e9e9e9"/><stop offset="0.42" stop-color="#878787"/><stop offset="0.7" stop-color="#3e3e3e"/><stop offset="0.9" stop-color="#111"/><stop offset="1"/></linearGradient><filter id="luminosity-noclip-2" x="405.65" y="-8273.01" width="25.35" height="32766" filterUnits="userSpaceOnUse" color-interpolation-filters="sRGB"><feFlood flood-color="#fff" result="bg"/><feBlend in="SourceGraphic" in2="bg"/></filter><mask id="mask-2" x="405.65" y="-8273.01" width="25.35" height="32766" maskUnits="userSpaceOnUse"><g class="cls-22"/></mask><linearGradient id="linear-gradient-2" x1="1118.91" y1="-3145.51" x2="1118.91" y2="-3077.31" gradientTransform="matrix(0, 0.77, 0.77, 0, 2794.38, -815.66)" xlink:href="#linear-gradient"/><filter id="luminosity-noclip-3" x="450.51" y="-8273.01" width="25.35" height="32766" filterUnits="userSpaceOnUse" color-interpolation-filters="sRGB"><feFlood flood-color="#fff" result="bg"/><feBlend in="SourceGraphic" in2="bg"/></filter><mask id="mask-3" x="450.51" y="-8273.01" width="25.35" height="32766" maskUnits="userSpaceOnUse"><g class="cls-21"/></mask><linearGradient id="linear-gradient-3" x1="-2654.38" y1="-454.66" x2="-2654.38" y2="-386.46" gradientTransform="matrix(0, -0.77, -0.77, 0, 153.71, -1990.81)" xlink:href="#linear-gradient"/><filter id="luminosity-noclip-4" x="444.64" y="-8273.01" width="4.93" height="32766" filterUnits="userSpaceOnUse" color-interpolation-filters="sRGB"><feFlood flood-color="#fff" result="bg"/><feBlend in="SourceGraphic" in2="bg"/></filter><mask id="mask-4" x="444.64" y="-8273.01" width="4.93" height="32766" maskUnits="userSpaceOnUse"><g class="cls-20"/></mask><linearGradient id="linear-gradient-4" x1="554.52" y1="83.22" x2="554.52" y2="151.43" xlink:href="#linear-gradient"/><filter id="luminosity-noclip-5" x="431.94" y="-8273.01" width="4.93" height="32766" filterUnits="userSpaceOnUse" color-interpolation-filters="sRGB"><feFlood flood-color="#fff" result="bg"/><feBlend in="SourceGraphic" in2="bg"/></filter><mask id="mask-5" x="431.94" y="-8273.01" width="4.93" height="32766" maskUnits="userSpaceOnUse"><g class="cls-19"/></mask><linearGradient id="linear-gradient-5" x1="-2089.99" y1="-3683.4" x2="-2089.99" y2="-3615.19" gradientTransform="matrix(0.77, 0, 0, -0.77, 2039.53, -2730.73)" xlink:href="#linear-gradient"/><filter id="luminosity-noclip-8" x="95.87" y="88.44" width="161.12" height="12.54" filterUnits="userSpaceOnUse" color-interpolation-filters="sRGB"><feFlood flood-color="#fff" result="bg"/><feBlend in="SourceGraphic" in2="bg"/></filter><mask id="mask-8" x="95.87" y="88.44" width="161.12" height="12.54" maskUnits="userSpaceOnUse"><g class="cls-1"><path class="cls-2" d="M246.4,101H108.32L95.87,88.44H257A17.12,17.12,0,0,0,246.4,101Z"/></g></mask><filter id="luminosity-noclip-9" x="444.64" y="21.04" width="4.93" height="25.54" filterUnits="userSpaceOnUse" color-interpolation-filters="sRGB"><feFlood flood-color="#fff" result="bg"/><feBlend in="SourceGraphic" in2="bg"/></filter><mask id="mask-9" x="444.64" y="21.04" width="4.93" height="25.54" maskUnits="userSpaceOnUse"><g class="cls-7"><path class="cls-8" d="M449.57,21.6v25a19.72,19.72,0,0,0-4.93-4.38V21A22.9,22.9,0,0,1,449.57,21.6Z"/></g></mask><filter id="luminosity-noclip-10" x="431.94" y="66.24" width="4.93" height="25.54" filterUnits="userSpaceOnUse" color-interpolation-filters="sRGB"><feFlood flood-color="#fff" result="bg"/><feBlend in="SourceGraphic" in2="bg"/></filter><mask id="mask-10" x="431.94" y="66.24" width="4.93" height="25.54" maskUnits="userSpaceOnUse"><g class="cls-9"><path class="cls-10" d="M431.94,91.21v-25a19.86,19.86,0,0,0,4.92,4.37V91.77A22.8,22.8,0,0,1,431.94,91.21Z"/></g></mask><filter id="luminosity-noclip-13" x="405.65" y="47.53" width="25.35" height="4.96" filterUnits="userSpaceOnUse" color-interpolation-filters="sRGB"><feFlood flood-color="#fff" result="bg"/><feBlend in="SourceGraphic" in2="bg"/></filter><mask id="mask-13" x="405.65" y="47.53" width="25.35" height="4.96" maskUnits="userSpaceOnUse"><g class="cls-3"><path class="cls-4" d="M406.2,47.53H431a20,20,0,0,0-4.35,5h-21A23.14,23.14,0,0,1,406.2,47.53Z"/></g></mask><filter id="luminosity-noclip-14" x="450.51" y="60.33" width="25.35" height="4.96" filterUnits="userSpaceOnUse" color-interpolation-filters="sRGB"><feFlood flood-color="#fff" result="bg"/><feBlend in="SourceGraphic" in2="bg"/></filter><mask id="mask-14" x="450.51" y="60.33" width="25.35" height="4.96" maskUnits="userSpaceOnUse"><g class="cls-5"><path class="cls-6" d="M475.3,65.29H450.51a19.8,19.8,0,0,0,4.34-5h21A23.26,23.26,0,0,1,475.3,65.29Z"/></g></mask></defs><title>link_burger</title><g id="Layer_2" data-name="Layer 2"><g id="Layer_1-2" data-name="Layer 1"><path class="cls-13" d="M.52,83.73,5.24,80.9a1.12,1.12,0,0,1,.54-.15H51.54l6.12-1.68a1.27,1.27,0,0,1,.28,0h53.43a1.06,1.06,0,0,1,.8,1.76l-3.92,4.55a1.06,1.06,0,0,1-.8.37H1.06a1,1,0,0,1-1-.79A1.07,1.07,0,0,1,.52,83.73Z"/><path class="cls-13" d="M437.72,56.23a2.95,2.95,0,1,0,2.94-3A2.94,2.94,0,0,0,437.72,56.23Z"/><path class="cls-13" d="M450.64,56.65h45.42a.43.43,0,0,0,0-.85H450.64a.43.43,0,0,0,0,.85Z"/><path class="cls-13" d="M385.27,56.65h45.42a.43.43,0,0,0,0-.85H385.27a.43.43,0,0,0,0,.85Z"/><path class="cls-13" d="M450.64,56.65h45.42a.43.43,0,0,0,0-.85H450.64a.43.43,0,0,0,0,.85Z"/><path class="cls-13" d="M385.27,56.65h45.42a.43.43,0,0,0,0-.85H385.27a.43.43,0,0,0,0,.85Z"/><path class="cls-13" d="M440.66,46.6a.42.42,0,0,0,.42-.42V.42a.42.42,0,0,0-.84,0V46.18A.42.42,0,0,0,440.66,46.6Z"/><path class="cls-13" d="M440.66,112.45a.42.42,0,0,0,.42-.42V66.28a.42.42,0,1,0-.84,0V112A.42.42,0,0,0,440.66,112.45Z"/><path class="cls-13" d="M402.66,57.82A38.19,38.19,0,0,0,437.3,94.39V97a40.76,40.76,0,0,1-37.21-39.17Z"/><path class="cls-13" d="M444,94.39a38.2,38.2,0,0,0,34.64-36.57h2.57A40.78,40.78,0,0,1,444,97Z"/><path class="cls-13" d="M444,15.46a40.78,40.78,0,0,1,37.21,39.18h-2.57A38.2,38.2,0,0,0,444,18.06Z"/><path class="cls-13" d="M437.3,15.46v2.6a38.19,38.19,0,0,0-34.64,36.58h-2.57A40.77,40.77,0,0,1,437.3,15.46Z"/><path class="cls-13" d="M440.91,104.13h-.49c-.53,0-1.06,0-1.58,0v.43a52,52,0,0,1-32.19-11.76V90a48.13,48.13,0,0,1,0-67.45V19.68A52.07,52.07,0,0,1,438.84,7.92v.43c.52,0,1.05,0,1.58,0h.49c.53,0,1,0,1.58,0V7.92a52.07,52.07,0,0,1,32.19,11.76V22.5a48.16,48.16,0,0,1,0,67.45v2.82a52,52,0,0,1-32.19,11.76v-.43C442,104.12,441.44,104.13,440.91,104.13Zm1.58-1.72v-.57a49.46,49.46,0,0,0,16.29-3,46.36,46.36,0,0,0,0-85.14,49.47,49.47,0,0,0-16.29-3.05v-.56c-.53,0-1.05,0-1.58,0h-.49c-.53,0-1.06,0-1.58,0v.56a49.53,49.53,0,0,0-16.3,3.05,46.36,46.36,0,0,0,0,85.14,49.52,49.52,0,0,0,16.3,3v.57c.52,0,1.05,0,1.58,0h.49C441.44,102.44,442,102.42,442.49,102.41Z"/><path class="cls-13" d="M430.35,56.23a10.87,10.87,0,0,1,.13-1.63H429.2a11.66,11.66,0,0,1,9.85-9.92V46a10,10,0,0,1,3.22,0V44.68a11.64,11.64,0,0,1,9.85,9.92h-1.27a11.06,11.06,0,0,1,0,3.25h1.27a11.64,11.64,0,0,1-9.85,9.92V66.49a10.86,10.86,0,0,1-3.22,0v1.28a11.66,11.66,0,0,1-9.85-9.92h1.28A10.84,10.84,0,0,1,430.35,56.23Zm19.78,0a9.47,9.47,0,1,0-9.47,9.54A9.52,9.52,0,0,0,450.13,56.23Z"/><ellipse class="cls-13" cx="260.79" cy="105.68" rx="2.95" ry="2.97"/><path class="cls-13" d="M250.48,105.68a11,11,0,0,1,.13-1.63h-1.28a11.65,11.65,0,0,1,9.85-9.91v1.28a10,10,0,0,1,3.22,0V94.14a11.63,11.63,0,0,1,9.85,9.91H271a10.28,10.28,0,0,1,0,3.26h1.28a11.63,11.63,0,0,1-9.85,9.91v-1.28a10,10,0,0,1-3.22,0v1.28a11.65,11.65,0,0,1-9.85-9.91h1.28A11,11,0,0,1,250.48,105.68Zm19.78,0a9.47,9.47,0,1,0-9.47,9.54A9.52,9.52,0,0,0,270.26,105.68Z"/><path class="cls-13" d="M48.42,85.24H316a.44.44,0,0,0,.38-.21c11-16.57,23.65-34.21,25.56-34.27h47.71a.46.46,0,0,0,.45-.46.45.45,0,0,0-.45-.45H342c-3.16,0-22,28.25-26.18,34.48H48.42a.46.46,0,0,0-.46.45A.47.47,0,0,0,48.42,85.24Z"/><path class="cls-13" d="M106,106.09H248.73a.41.41,0,1,0,0-.82H106.15l-17-16.73a.36.36,0,0,0-.28-.12H1a.41.41,0,1,0,0,.82H88.7l17,16.73A.38.38,0,0,0,106,106.09Z"/><g class="cls-14"><path class="cls-13" d="M246.4,101H108.32L95.87,88.44H257A17.12,17.12,0,0,0,246.4,101Z"/></g><g class="cls-15"><path class="cls-13" d="M449.57,21.6v25a19.72,19.72,0,0,0-4.93-4.38V21A22.9,22.9,0,0,1,449.57,21.6Z"/></g><g class="cls-16"><path class="cls-13" d="M431.94,91.21v-25a19.86,19.86,0,0,0,4.92,4.37V91.77A22.8,22.8,0,0,1,431.94,91.21Z"/></g><g class="cls-15"><path class="cls-13" d="M449.57,21.6v25a19.72,19.72,0,0,0-4.93-4.38V21A22.9,22.9,0,0,1,449.57,21.6Z"/></g><g class="cls-16"><path class="cls-13" d="M431.94,91.21v-25a19.86,19.86,0,0,0,4.92,4.37V91.77A22.8,22.8,0,0,1,431.94,91.21Z"/></g><g class="cls-17"><path class="cls-13" d="M406.2,47.53H431a20,20,0,0,0-4.35,5h-21A23.14,23.14,0,0,1,406.2,47.53Z"/></g><g class="cls-18"><path class="cls-13" d="M475.3,65.29H450.51a19.8,19.8,0,0,0,4.34-5h21A23.26,23.26,0,0,1,475.3,65.29Z"/></g></g></g></svg>