<svg xmlns="http://www.w3.org/2000/svg" xmlns:xlink="http://www.w3.org/1999/xlink" viewBox="0 0 488.03 238.16"><defs><style>.cls-1{mask:url(#mask);filter:url(#luminosity-noclip-2);}.cls-2{mix-blend-mode:multiply;fill:url(#linear-gradient);}.cls-3{fill:url(#New_Gradient_Swatch_1);}.cls-4{fill:url(#New_Gradient_Swatch_1-2);}.cls-5{opacity:0.35;fill:url(#New_Gradient_Swatch_1-4);}.cls-6{fill:url(#New_Gradient_Swatch_1-5);}.cls-7{opacity:0.2;fill:url(#New_Gradient_Swatch_1-6);}.cls-8{opacity:0.3;fill:url(#New_Gradient_Swatch_1-7);}.cls-9{opacity:0.8;fill:url(#New_Gradient_Swatch_1-8);}.cls-10{opacity:0.4;fill:url(#New_Gradient_Swatch_1-9);}.cls-11{opacity:0.7;fill:url(#New_Gradient_Swatch_1-10);}.cls-12{opacity:0.1;fill:url(#New_Gradient_Swatch_1-11);}.cls-13{opacity:0.6;fill:url(#New_Gradient_Swatch_1-12);}.cls-14{opacity:0.5;fill:url(#New_Gradient_Swatch_1-13);}.cls-15{fill:url(#New_Gradient_Swatch_1-14);}.cls-16{clip-path:url(#clip-path);}.cls-17{fill:url(#New_Gradient_Swatch_1-17);}.cls-18{fill:url(#New_Gradient_Swatch_1-18);}.cls-19{clip-path:url(#clip-path-2);}.cls-20{fill:url(#New_Gradient_Swatch_1-21);}.cls-21{fill:url(#New_Gradient_Swatch_1-22);}.cls-22{mask:url(#mask-2);}.cls-23{fill:url(#New_Gradient_Swatch_1-23);}.cls-24{fill:url(#New_Gradient_Swatch_1-24);}.cls-25{fill:url(#New_Gradient_Swatch_1-25);}.cls-26{fill:url(#New_Gradient_Swatch_1-26);}.cls-27{fill:url(#New_Gradient_Swatch_1-27);}.cls-28{fill:url(#New_Gradient_Swatch_1-28);}.cls-29{fill:url(#New_Gradient_Swatch_1-29);}.cls-30{fill:url(#New_Gradient_Swatch_1-30);}.cls-31{fill:url(#New_Gradient_Swatch_1-31);}.cls-32{filter:url(#luminosity-noclip);}</style><filter id="luminosity-noclip" x="256.97" y="-8331.5" width="150.8" height="32766" filterUnits="userSpaceOnUse" color-interpolation-filters="sRGB"><feFlood flood-color="#fff" result="bg"/><feBlend in="SourceGraphic" in2="bg"/></filter><mask id="mask" x="256.97" y="-8331.5" width="150.8" height="32766" maskUnits="userSpaceOnUse"><g class="cls-32"/></mask><linearGradient id="linear-gradient" x1="256.16" y1="225.18" x2="407.77" y2="225.18" gradientUnits="userSpaceOnUse"><stop offset="0"/><stop offset="0.18" stop-color="#030303"/><stop offset="0.31" stop-color="#0d0d0d"/><stop offset="0.43" stop-color="#1d1d1d"/><stop offset="0.54" stop-color="#343434"/><stop offset="0.64" stop-color="#515151"/><stop offset="0.74" stop-color="#757575"/><stop offset="0.83" stop-color="#a0a0a0"/><stop offset="0.92" stop-color="#d1d1d1"/><stop offset="1" stop-color="#fff"/></linearGradient><linearGradient id="New_Gradient_Swatch_1" x1="409.18" y1="85.64" x2="469.31" y2="85.64" gradientUnits="userSpaceOnUse"><stop offset="0" stop-color="#cf52fe"/><stop offset="1" stop-color="#19dbb6"/></linearGradient><linearGradient id="New_Gradient_Swatch_1-2" x1="404.1" y1="4.2" x2="412.49" y2="4.2" xlink:href="#New_Gradient_Swatch_1"/><linearGradient id="New_Gradient_Swatch_1-4" x1="7.09" y1="121.32" x2="459.89" y2="121.32" xlink:href="#New_Gradient_Swatch_1"/><linearGradient id="New_Gradient_Swatch_1-5" x1="6.4" y1="121.32" x2="460.58" y2="121.32" xlink:href="#New_Gradient_Swatch_1"/><linearGradient id="New_Gradient_Swatch_1-6" x1="474.6" y1="146.47" x2="488.03" y2="146.47" xlink:href="#New_Gradient_Swatch_1"/><linearGradient id="New_Gradient_Swatch_1-7" x1="474.48" y1="127.81" x2="488.03" y2="127.81" xlink:href="#New_Gradient_Swatch_1"/><linearGradient id="New_Gradient_Swatch_1-8" x1="474.28" y1="34.61" x2="488.03" y2="34.61" xlink:href="#New_Gradient_Swatch_1"/><linearGradient id="New_Gradient_Swatch_1-9" x1="474.36" y1="109.15" x2="488.03" y2="109.15" xlink:href="#New_Gradient_Swatch_1"/><linearGradient id="New_Gradient_Swatch_1-10" x1="474.28" y1="53.24" x2="488.03" y2="53.24" xlink:href="#New_Gradient_Swatch_1"/><linearGradient id="New_Gradient_Swatch_1-11" x1="474.72" y1="164.13" x2="488.03" y2="164.13" xlink:href="#New_Gradient_Swatch_1"/><linearGradient id="New_Gradient_Swatch_1-12" x1="474.28" y1="71.87" x2="488.03" y2="71.87" xlink:href="#New_Gradient_Swatch_1"/><linearGradient id="New_Gradient_Swatch_1-13" x1="474.28" y1="90.5" x2="488.03" y2="90.5" xlink:href="#New_Gradient_Swatch_1"/><linearGradient id="New_Gradient_Swatch_1-14" x1="474.28" y1="15.73" x2="488.03" y2="15.73" xlink:href="#New_Gradient_Swatch_1"/><clipPath id="clip-path"><path id="SVGID" class="cls-3" d="M468.62,167.77a.69.69,0,0,1-.69-.69V4.89H409.87a.69.69,0,1,1,0-1.38h58.75a.69.69,0,0,1,.69.69V167.08A.69.69,0,0,1,468.62,167.77Z"/></clipPath><linearGradient id="New_Gradient_Swatch_1-17" x1="404.57" y1="85.64" x2="473.92" y2="85.64" xlink:href="#New_Gradient_Swatch_1"/><linearGradient id="New_Gradient_Swatch_1-18" x1="406.65" y1="85.64" x2="471.85" y2="85.64" xlink:href="#New_Gradient_Swatch_1"/><clipPath id="clip-path-2"><path id="SVGID-2" data-name="SVGID" class="cls-4" d="M412.49,4.2A4.2,4.2,0,1,1,408.3,0,4.2,4.2,0,0,1,412.49,4.2Z"/></clipPath><linearGradient id="New_Gradient_Swatch_1-21" x1="400.38" y1="4.2" x2="416.21" y2="4.2" xlink:href="#New_Gradient_Swatch_1"/><linearGradient id="New_Gradient_Swatch_1-22" x1="404.34" y1="4.2" x2="412.25" y2="4.2" xlink:href="#New_Gradient_Swatch_1"/><filter id="luminosity-noclip-2" x="256.97" y="219.54" width="150.8" height="11.28" filterUnits="userSpaceOnUse" color-interpolation-filters="sRGB"><feFlood flood-color="#fff" result="bg"/><feBlend in="SourceGraphic" in2="bg"/></filter><mask id="mask-2" x="256.97" y="219.54" width="150.8" height="11.28" maskUnits="userSpaceOnUse"><g class="cls-1"><polygon class="cls-2" points="350.59 230.82 397.8 230.29 407.77 219.8 265.61 219.54 256.97 230.82 350.59 230.82"/></g></mask><linearGradient id="New_Gradient_Swatch_1-23" x1="256.97" y1="225.18" x2="407.77" y2="225.18" xlink:href="#New_Gradient_Swatch_1"/><linearGradient id="New_Gradient_Swatch_1-24" x1="28.88" y1="85.52" x2="53.88" y2="85.52" xlink:href="#New_Gradient_Swatch_1"/><linearGradient id="New_Gradient_Swatch_1-25" x1="24.58" y1="233.96" x2="215.77" y2="233.96" xlink:href="#New_Gradient_Swatch_1"/><linearGradient id="New_Gradient_Swatch_1-26" x1="248.82" y1="14.28" x2="320.11" y2="14.28" xlink:href="#New_Gradient_Swatch_1"/><linearGradient id="New_Gradient_Swatch_1-27" x1="0" y1="156.59" x2="28.13" y2="156.59" xlink:href="#New_Gradient_Swatch_1"/><linearGradient id="New_Gradient_Swatch_1-28" x1="98.53" y1="22.56" x2="232.69" y2="22.56" xlink:href="#New_Gradient_Swatch_1"/><linearGradient id="New_Gradient_Swatch_1-29" x1="245.15" y1="194.55" x2="459.89" y2="194.55" xlink:href="#New_Gradient_Swatch_1"/><linearGradient id="New_Gradient_Swatch_1-30" x1="242.71" y1="25.97" x2="452.18" y2="25.97" xlink:href="#New_Gradient_Swatch_1"/><linearGradient id="New_Gradient_Swatch_1-31" x1="16.08" y1="218.23" x2="217.16" y2="218.23" xlink:href="#New_Gradient_Swatch_1"/></defs><title>message_13_purple_green</title><g id="Layer_2" data-name="Layer 2"><g id="Layer_1-2" data-name="Layer 1"><path class="cls-5" d="M459.89,165.77V12.49H267.06L249.85,29H96.49c-13.8,12.66-30,27.33-42.61,38.42v37H29.67L7.09,122v92.9l18.28,15.23H248.94l15-16.55,147.47.37C422.92,202.77,445.9,180.32,459.89,165.77Z"/><path class="cls-6" d="M249.24,230.85H25.12L6.4,215.25V121.7l23-18H53.19V67.12l.23-.2C64.1,57.56,78.44,44.64,96,28.51l.19-.18H249.57L266.79,11.8H460.58V166.05l-.19.2c-13.85,14.4-36.35,36.4-48.53,48.23l-.21.19-147.44-.37ZM25.62,229.47h223l15-16.55h.31l147.19.37c12.16-11.81,34.32-33.48,48.1-47.8V13.18H267.34L250.13,29.7H96.76C79.38,45.64,65.19,58.44,54.57,67.75v37.34H29.9L7.78,122.37v92.24Z"/><polygon class="cls-7" points="488.03 157.51 488.03 142.52 474.6 135.42 474.7 150.47 488.03 157.51"/><polygon class="cls-8" points="488.03 138.89 488.03 123.89 474.48 116.73 474.58 131.78 488.03 138.89"/><polygon class="cls-9" points="474.28 23.48 474.28 38.48 488.03 45.74 488.03 30.75 474.28 23.48"/><polygon class="cls-10" points="474.36 98.04 474.45 113.09 488.03 120.26 488.03 105.26 474.36 98.04"/><polygon class="cls-11" points="488.03 64.37 488.03 49.38 474.28 42.11 474.28 57.11 488.03 64.37"/><polygon class="cls-12" points="488.03 161.15 474.72 154.12 474.81 167.75 488.03 174.15 488.03 161.15"/><polygon class="cls-13" points="488.03 83 488.03 68 474.28 60.74 474.28 75.74 488.03 83"/><polygon class="cls-14" points="488.03 101.63 488.03 86.63 474.28 79.37 474.28 85.91 474.33 94.39 488.03 101.63"/><polygon class="cls-15" points="488.03 27.12 488.03 11.93 474.28 4.35 474.28 19.85 488.03 27.12"/><path id="SVGID-4" data-name="SVGID" class="cls-3" d="M468.62,167.77a.69.69,0,0,1-.69-.69V4.89H409.87a.69.69,0,1,1,0-1.38h58.75a.69.69,0,0,1,.69.69V167.08A.69.69,0,0,1,468.62,167.77Z"/><g class="cls-16"><rect class="cls-3" x="409.18" y="3.51" width="60.13" height="164.26"/><path class="cls-17" d="M439.25,147.48a219,219,0,0,1-23.5-1.25q-5.7-.61-11.18-1.53h3.92V26.58h-3.92q5.48-.91,11.18-1.53a219.78,219.78,0,0,1,47,0q5.69.61,11.17,1.53H470V144.7h3.92q-5.48.92-11.17,1.53A219,219,0,0,1,439.25,147.48Z"/><path class="cls-18" d="M439.25,116.56a104,104,0,0,1-22.7-2.43,83.28,83.28,0,0,1-9.9-2.85h1.84V60h-1.84a83.28,83.28,0,0,1,9.9-2.85,107.2,107.2,0,0,1,45.39,0A83.45,83.45,0,0,1,471.85,60H470v51.28h1.85a83.45,83.45,0,0,1-9.91,2.85A103.79,103.79,0,0,1,439.25,116.56Z"/></g><path id="SVGID-5" data-name="SVGID" class="cls-4" d="M412.49,4.2A4.2,4.2,0,1,1,408.3,0,4.2,4.2,0,0,1,412.49,4.2Z"/><g class="cls-19"><rect class="cls-4" x="404.1" width="8.39" height="8.39"/><path class="cls-20" d="M408.3,8.39c-4.37,0-7.92-1.88-7.92-4.19S403.93,0,408.3,0s7.91,1.88,7.91,4.2S412.67,8.39,408.3,8.39Z"/><path class="cls-21" d="M408.3,6.3c-2.19,0-4-.94-4-2.1s1.77-2.1,4-2.1,3.95.94,3.95,2.1S410.48,6.3,408.3,6.3Z"/></g><g class="cls-22"><polygon class="cls-23" points="350.59 230.82 397.8 230.29 407.77 219.8 265.61 219.54 256.97 230.82 350.59 230.82"/></g><polygon class="cls-24" points="53.88 66.65 47.98 70.24 47.98 98.77 35.39 98.77 28.88 104.4 53.88 104.4 53.88 66.65"/><polygon class="cls-25" points="24.58 229.76 34 238.16 90.66 238.16 96.56 233.84 210.66 233.84 215.77 230.29 24.58 229.76"/><polygon class="cls-26" points="315.82 3.67 265.35 3.67 249.61 18.14 248.82 24.88 265.74 8.39 320.11 8.39 315.82 3.67"/><path class="cls-27" d="M.69,215.77a.69.69,0,0,1-.69-.69v-96a.7.7,0,0,1,.26-.54L27,97.56a.69.69,0,0,1,1,.11.7.7,0,0,1-.12,1L1.38,119.42v95.66A.69.69,0,0,1,.69,215.77Z"/><polygon class="cls-28" points="228.6 19.8 105.21 19.8 98.53 25.31 232.69 25.31 232.69 24.85 228.6 19.8"/><polygon class="cls-29" points="245.15 229.77 264.3 208.26 292.89 208.26 303.9 200.39 361.08 200.39 367.38 206.69 410.92 206.69 459.71 158.95 459.89 165.77 411.38 213.98 263.91 213.61 248.94 230.16 245.15 229.77"/><path class="cls-30" d="M253,33.92h-10a.35.35,0,0,1-.34-.35.34.34,0,0,1,.34-.34h9.83l15.64-15.12a.34.34,0,0,1,.24-.09H451.84a.34.34,0,0,1,.34.34.35.35,0,0,1-.34.35H268.89L253.26,33.82A.37.37,0,0,1,253,33.92Z"/><path class="cls-31" d="M216.82,223.82H27.44a.32.32,0,0,1-.23-.09l-11-10.5a.34.34,0,0,1,.47-.5l10.92,10.4H216.82a.35.35,0,0,1,.34.35A.34.34,0,0,1,216.82,223.82Z"/><polygon class="cls-7" points="488.03 157.51 488.03 142.52 474.6 135.42 474.7 150.47 488.03 157.51"/><polygon class="cls-8" points="488.03 138.89 488.03 123.89 474.48 116.73 474.58 131.78 488.03 138.89"/><polygon class="cls-9" points="474.28 23.48 474.28 38.48 488.03 45.74 488.03 30.75 474.28 23.48"/><polygon class="cls-10" points="474.36 98.04 474.45 113.09 488.03 120.26 488.03 105.26 474.36 98.04"/><polygon class="cls-11" points="488.03 64.37 488.03 49.38 474.28 42.11 474.28 57.11 488.03 64.37"/><polygon class="cls-12" points="488.03 161.15 474.72 154.12 474.81 167.75 488.03 174.15 488.03 161.15"/><polygon class="cls-13" points="488.03 83 488.03 68 474.28 60.74 474.28 75.74 488.03 83"/><polygon class="cls-14" points="488.03 101.63 488.03 86.63 474.28 79.37 474.28 85.91 474.33 94.39 488.03 101.63"/><polygon class="cls-15" points="488.03 27.12 488.03 11.93 474.28 4.35 474.28 19.85 488.03 27.12"/><path id="SVGID-6" data-name="SVGID" class="cls-4" d="M412.49,4.2A4.2,4.2,0,1,1,408.3,0,4.2,4.2,0,0,1,412.49,4.2Z"/><g class="cls-19"><rect class="cls-4" x="404.1" width="8.39" height="8.39"/><path class="cls-20" d="M408.3,8.39c-4.37,0-7.92-1.88-7.92-4.19S403.93,0,408.3,0s7.91,1.88,7.91,4.2S412.67,8.39,408.3,8.39Z"/><path class="cls-21" d="M408.3,6.3c-2.19,0-4-.94-4-2.1s1.77-2.1,4-2.1,3.95.94,3.95,2.1S410.48,6.3,408.3,6.3Z"/></g><polygon class="cls-24" points="53.88 66.65 47.98 70.24 47.98 98.77 35.39 98.77 28.88 104.4 53.88 104.4 53.88 66.65"/><polygon class="cls-25" points="24.58 229.76 34 238.16 90.66 238.16 96.56 233.84 210.66 233.84 215.77 230.29 24.58 229.76"/><polygon class="cls-26" points="315.82 3.67 265.35 3.67 249.61 18.14 248.82 24.88 265.74 8.39 320.11 8.39 315.82 3.67"/><polygon class="cls-28" points="228.6 19.8 105.21 19.8 98.53 25.31 232.69 25.31 232.69 24.85 228.6 19.8"/><polygon class="cls-29" points="245.15 229.77 264.3 208.26 292.89 208.26 303.9 200.39 361.08 200.39 367.38 206.69 410.92 206.69 459.71 158.95 459.89 165.77 411.38 213.98 263.91 213.61 248.94 230.16 245.15 229.77"/></g></g></svg>