<svg xmlns="http://www.w3.org/2000/svg" xmlns:xlink="http://www.w3.org/1999/xlink" viewBox="0 0 496.08 167.23"><defs><style>.cls-1{opacity:0.7;fill:url(#New_Gradient_Swatch_1);}.cls-2{opacity:0.8;fill:url(#New_Gradient_Swatch_1-2);}.cls-3{opacity:0.6;fill:url(#New_Gradient_Swatch_1-3);}.cls-4{opacity:0.4;fill:url(#New_Gradient_Swatch_1-4);}.cls-5{opacity:0.2;fill:url(#New_Gradient_Swatch_1-5);}.cls-6{opacity:0.1;fill:url(#New_Gradient_Swatch_1-6);}.cls-7{fill:url(#New_Gradient_Swatch_1-7);}.cls-8{fill:url(#New_Gradient_Swatch_1-8);}.cls-9{fill:url(#New_Gradient_Swatch_1-9);}.cls-10{fill:url(#New_Gradient_Swatch_1-10);}</style><linearGradient id="New_Gradient_Swatch_1" y1="96" x2="50.13" y2="96" gradientUnits="userSpaceOnUse"><stop offset="0" stop-color="#cf52fe"/><stop offset="1" stop-color="#19dbb6"/></linearGradient><linearGradient id="New_Gradient_Swatch_1-2" x1="326.1" y1="70.32" x2="352.16" y2="70.32" xlink:href="#New_Gradient_Swatch_1"/><linearGradient id="New_Gradient_Swatch_1-3" x1="362.08" y1="70.32" x2="388.14" y2="70.32" xlink:href="#New_Gradient_Swatch_1"/><linearGradient id="New_Gradient_Swatch_1-4" x1="398.07" y1="70.32" x2="424.12" y2="70.32" xlink:href="#New_Gradient_Swatch_1"/><linearGradient id="New_Gradient_Swatch_1-5" x1="434.05" y1="70.32" x2="460.1" y2="70.32" xlink:href="#New_Gradient_Swatch_1"/><linearGradient id="New_Gradient_Swatch_1-6" x1="470.03" y1="70.32" x2="496.08" y2="70.32" xlink:href="#New_Gradient_Swatch_1"/><linearGradient id="New_Gradient_Swatch_1-7" x1="275.65" y1="50.87" x2="317.83" y2="50.87" xlink:href="#New_Gradient_Swatch_1"/><linearGradient id="New_Gradient_Swatch_1-8" x1="251.45" y1="55.63" x2="256.41" y2="55.63" xlink:href="#New_Gradient_Swatch_1"/><linearGradient id="New_Gradient_Swatch_1-9" x1="0.48" y1="93.4" x2="253.31" y2="93.4" xlink:href="#New_Gradient_Swatch_1"/><linearGradient id="New_Gradient_Swatch_1-10" y1="122.19" x2="2.46" y2="122.19" xlink:href="#New_Gradient_Swatch_1"/></defs><title>product_top_purple_green</title><g id="Layer_2" data-name="Layer 2"><g id="Layer_1-2" data-name="Layer 1"><polyline class="cls-1" points="0 135.5 8.7 132.28 25.13 104.44 31.03 98.12 49.13 67.46 50.13 58.55 46.64 56.49 40.62 66.69 40.81 66.8 21.05 99.85 0 135.5"/><rect class="cls-2" x="326.1" y="38.9" width="26.05" height="62.84" rx="3.07"/><rect class="cls-3" x="362.08" y="38.9" width="26.06" height="62.84" rx="3.07"/><rect class="cls-4" x="398.07" y="38.9" width="26.05" height="62.84" rx="3.07"/><rect class="cls-5" x="434.05" y="38.9" width="26.06" height="62.84" rx="3.07"/><rect class="cls-6" x="470.03" y="38.9" width="26.06" height="62.84" rx="3.07"/><rect class="cls-7" x="275.65" width="42.18" height="101.74" rx="4.96"/><path class="cls-8" d="M253.93,107.74a2.48,2.48,0,0,1-2.48-2.48V6a2.48,2.48,0,1,1,5,0v99.26A2.48,2.48,0,0,1,253.93,107.74Z"/><polyline class="cls-9" points="0.48 130.95 45.47 54.71 253.31 54.71 253.31 56.96 46.75 56.96 2.41 132.09"/><polyline class="cls-10" points="0 167.22 0.16 77.15 1.05 77.98 2.21 79.93 2.46 78.43 2.3 167.2"/></g></g></svg>