<svg xmlns="http://www.w3.org/2000/svg" xmlns:xlink="http://www.w3.org/1999/xlink" viewBox="0 0 488.03 136.75"><defs><style>.cls-1{fill:url(#New_Gradient_Swatch_5);}.cls-2{opacity:0.2;fill:url(#New_Gradient_Swatch_5-2);}.cls-10,.cls-11,.cls-12,.cls-13,.cls-15,.cls-2,.cls-22,.cls-23,.cls-3,.cls-4,.cls-5,.cls-6,.cls-7,.cls-9{isolation:isolate;}.cls-10,.cls-3{opacity:0.7;}.cls-3{fill:url(#New_Gradient_Swatch_5-3);}.cls-11,.cls-4{opacity:0.6;}.cls-4{fill:url(#New_Gradient_Swatch_5-4);}.cls-12,.cls-5{opacity:0.8;}.cls-5{fill:url(#New_Gradient_Swatch_5-5);}.cls-13,.cls-22,.cls-23,.cls-6{opacity:0.5;}.cls-6{fill:url(#New_Gradient_Swatch_5-6);}.cls-7{opacity:0.3;fill:url(#New_Gradient_Swatch_5-7);}.cls-8{fill:url(#New_Gradient_Swatch_5-8);}.cls-15,.cls-9{opacity:0.4;}.cls-9{fill:url(#New_Gradient_Swatch_5-9);}.cls-10{fill:url(#New_Gradient_Swatch_5-16);}.cls-11{fill:url(#New_Gradient_Swatch_5-17);}.cls-12{fill:url(#New_Gradient_Swatch_5-18);}.cls-13{fill:url(#New_Gradient_Swatch_5-19);}.cls-14{fill:url(#New_Gradient_Swatch_5-20);}.cls-15{fill:url(#New_Gradient_Swatch_5-21);}.cls-16{fill:url(#New_Gradient_Swatch_5-27);}.cls-17{fill:url(#New_Gradient_Swatch_5-28);}.cls-18{clip-path:url(#clip-path);}.cls-19{fill:url(#New_Gradient_Swatch_5-30);}.cls-20{fill:url(#New_Gradient_Swatch_5-31);}.cls-21{fill:url(#New_Gradient_Swatch_5-32);}.cls-22{fill:url(#New_Gradient_Swatch_5-33);}.cls-23{fill:url(#New_Gradient_Swatch_5-34);}.cls-24{fill:url(#New_Gradient_Swatch_5-35);}</style><linearGradient id="New_Gradient_Swatch_5" x1="218.73" y1="57.47" x2="488.03" y2="57.47" gradientUnits="userSpaceOnUse"><stop offset="0" stop-color="#11e5b3"/><stop offset="0.14" stop-color="#15dcb8"/><stop offset="0.36" stop-color="#21c4c6"/><stop offset="0.64" stop-color="#359edc"/><stop offset="0.97" stop-color="#4f68fb"/><stop offset="1" stop-color="#5263fe"/></linearGradient><linearGradient id="New_Gradient_Swatch_5-2" x1="5.41" y1="437.02" x2="478.76" y2="437.02" gradientTransform="translate(0 -371.8)" xlink:href="#New_Gradient_Swatch_5"/><linearGradient id="New_Gradient_Swatch_5-3" x1="116.11" y1="500.79" x2="151.66" y2="500.79" gradientTransform="translate(0 -371.8)" xlink:href="#New_Gradient_Swatch_5"/><linearGradient id="New_Gradient_Swatch_5-4" x1="85.54" y1="500.79" x2="121.08" y2="500.79" gradientTransform="translate(0 -371.8)" xlink:href="#New_Gradient_Swatch_5"/><linearGradient id="New_Gradient_Swatch_5-5" x1="146.69" y1="500.79" x2="182.24" y2="500.79" gradientTransform="translate(0 -371.8)" xlink:href="#New_Gradient_Swatch_5"/><linearGradient id="New_Gradient_Swatch_5-6" x1="54.96" y1="500.79" x2="90.51" y2="500.79" gradientTransform="translate(0 -371.8)" xlink:href="#New_Gradient_Swatch_5"/><linearGradient id="New_Gradient_Swatch_5-7" x1="4.4" y1="500.79" x2="29.35" y2="500.79" gradientTransform="translate(0 -371.8)" xlink:href="#New_Gradient_Swatch_5"/><linearGradient id="New_Gradient_Swatch_5-8" x1="177.27" y1="500.79" x2="209.47" y2="500.79" gradientTransform="translate(0 -371.8)" xlink:href="#New_Gradient_Swatch_5"/><linearGradient id="New_Gradient_Swatch_5-9" x1="24.38" y1="500.79" x2="59.93" y2="500.79" gradientTransform="translate(0 -371.8)" xlink:href="#New_Gradient_Swatch_5"/><linearGradient id="New_Gradient_Swatch_5-16" x1="242.26" y1="380" x2="256.54" y2="380" gradientTransform="translate(0 -371.8)" xlink:href="#New_Gradient_Swatch_5"/><linearGradient id="New_Gradient_Swatch_5-17" x1="254.54" y1="380" x2="268.82" y2="380" gradientTransform="translate(0 -371.8)" xlink:href="#New_Gradient_Swatch_5"/><linearGradient id="New_Gradient_Swatch_5-18" x1="229.98" y1="380" x2="244.25" y2="380" gradientTransform="translate(0 -371.8)" xlink:href="#New_Gradient_Swatch_5"/><linearGradient id="New_Gradient_Swatch_5-19" x1="266.82" y1="380" x2="281.1" y2="380" gradientTransform="translate(0 -371.8)" xlink:href="#New_Gradient_Swatch_5"/><linearGradient id="New_Gradient_Swatch_5-20" x1="219.04" y1="380" x2="231.97" y2="380" gradientTransform="translate(0 -371.8)" xlink:href="#New_Gradient_Swatch_5"/><linearGradient id="New_Gradient_Swatch_5-21" x1="279.1" y1="380" x2="293.38" y2="380" gradientTransform="translate(0 -371.8)" xlink:href="#New_Gradient_Swatch_5"/><linearGradient id="New_Gradient_Swatch_5-27" x1="4.5" y1="437.04" x2="479.67" y2="437.04" gradientTransform="translate(0 -377.35)" xlink:href="#New_Gradient_Swatch_5"/><linearGradient id="New_Gradient_Swatch_5-28" x1="218.73" y1="434.82" x2="488.03" y2="434.82" gradientTransform="translate(0 -377.35)" xlink:href="#New_Gradient_Swatch_5"/><clipPath id="clip-path" transform="translate(0 5.55)"><path class="cls-1" d="M455.43,114.93a.45.45,0,0,1-.45-.45v0a.43.43,0,0,1,.13-.3l32-32V.91H219.26a.46.46,0,0,1-.52-.39.45.45,0,0,1,.37-.52H487.57a.47.47,0,0,1,.46.46V82.34a.43.43,0,0,1-.14.32l-32.14,32.13A.43.43,0,0,1,455.43,114.93Z"/></clipPath><linearGradient id="New_Gradient_Swatch_5-30" x1="218.8" y1="434.81" x2="488.03" y2="434.81" gradientTransform="translate(0 -371.8)" xlink:href="#New_Gradient_Swatch_5"/><linearGradient id="New_Gradient_Swatch_5-31" x1="249.92" y1="434.82" x2="456.91" y2="434.82" gradientTransform="translate(0 -377.35)" xlink:href="#New_Gradient_Swatch_5"/><linearGradient id="New_Gradient_Swatch_5-32" x1="301.67" y1="434.81" x2="405.15" y2="434.81" gradientTransform="translate(0 -377.35)" xlink:href="#New_Gradient_Swatch_5"/><linearGradient id="New_Gradient_Swatch_5-33" x1="5.41" y1="423.47" x2="93.39" y2="423.47" gradientTransform="translate(0 -371.8)" xlink:href="#New_Gradient_Swatch_5"/><linearGradient id="New_Gradient_Swatch_5-34" x1="346.65" y1="436.83" x2="478.76" y2="436.83" gradientTransform="translate(0 -371.8)" xlink:href="#New_Gradient_Swatch_5"/><linearGradient id="New_Gradient_Swatch_5-35" x1="0" y1="415.19" x2="79.51" y2="415.19" gradientTransform="translate(0 -371.8)" xlink:href="#New_Gradient_Swatch_5"/></defs><title>profile_menu_green_blue</title><g id="Layer_2" data-name="Layer 2"><g id="Layer_1-2" data-name="Layer 1"><g id="Layer_2-2" data-name="Layer 2"><g id="Layer_1-2-2" data-name="Layer 1-2"><g id="Layer_2-2-2" data-name="Layer 2-2"><g id="Layer_1-2-2-2" data-name="Layer 1-2-2"><polygon class="cls-2" points="478.76 14.98 5.41 14.98 5.41 115.47 447.14 115.47 478.76 83.85 478.76 14.98"/><polygon class="cls-3" points="116.11 136.75 140.1 136.75 151.66 121.24 127.68 121.24 116.11 136.75"/><polygon class="cls-4" points="85.54 136.75 109.52 136.75 121.08 121.24 97.1 121.24 85.54 136.75"/><polygon class="cls-5" points="182.24 121.24 158.26 121.24 146.69 136.75 170.67 136.75 182.24 121.24"/><polygon class="cls-6" points="54.96 136.75 78.94 136.75 90.51 121.24 66.53 121.24 54.96 136.75"/><polygon class="cls-7" points="4.4 121.24 4.4 136.75 17.79 136.75 29.35 121.24 4.4 121.24"/><polygon class="cls-8" points="177.27 136.75 198.26 136.75 209.47 121.24 188.84 121.24 177.27 136.75"/><polygon class="cls-9" points="24.38 136.75 48.36 136.75 59.93 121.24 35.95 121.24 24.38 136.75"/><polygon class="cls-3" points="116.11 136.75 140.1 136.75 151.66 121.24 127.68 121.24 116.11 136.75"/><polygon class="cls-4" points="85.54 136.75 109.52 136.75 121.08 121.24 97.1 121.24 85.54 136.75"/><polygon class="cls-5" points="182.24 121.24 158.26 121.24 146.69 136.75 170.67 136.75 182.24 121.24"/><polygon class="cls-6" points="54.96 136.75 78.94 136.75 90.51 121.24 66.53 121.24 54.96 136.75"/><polygon class="cls-7" points="4.4 121.24 4.4 136.75 17.79 136.75 29.35 121.24 4.4 121.24"/><polygon class="cls-9" points="24.38 136.75 48.36 136.75 59.93 121.24 35.95 121.24 24.38 136.75"/><polygon class="cls-10" points="256.54 9.97 246.9 9.97 242.26 6.44 251.89 6.44 256.54 9.97"/><polygon class="cls-11" points="268.82 9.97 259.18 9.97 254.54 6.44 264.17 6.44 268.82 9.97"/><polygon class="cls-12" points="229.98 6.44 239.61 6.44 244.25 9.97 234.62 9.97 229.98 6.44"/><polygon class="cls-13" points="281.1 9.97 271.46 9.97 266.82 6.44 276.45 6.44 281.1 9.97"/><polygon class="cls-14" points="231.97 9.97 223.55 9.97 219.04 6.44 227.33 6.44 231.97 9.97"/><polygon class="cls-15" points="293.38 9.97 283.75 9.97 279.1 6.44 288.73 6.44 293.38 9.97"/><polygon class="cls-10" points="256.54 9.97 246.9 9.97 242.26 6.44 251.89 6.44 256.54 9.97"/><polygon class="cls-11" points="268.82 9.97 259.18 9.97 254.54 6.44 264.17 6.44 268.82 9.97"/><polygon class="cls-12" points="229.98 6.44 239.61 6.44 244.25 9.97 234.62 9.97 229.98 6.44"/><polygon class="cls-13" points="281.1 9.97 271.46 9.97 266.82 6.44 276.45 6.44 281.1 9.97"/><polygon class="cls-15" points="293.38 9.97 283.75 9.97 279.1 6.44 288.73 6.44 293.38 9.97"/><path class="cls-16" d="M447.15,110.84H5.41a.93.93,0,0,1-.91-.92h0V9.43a.93.93,0,0,1,.91-.89H478.76a.91.91,0,0,1,.91.91h0V78.31a.9.9,0,0,1-.26.64l-31.62,31.59A.94.94,0,0,1,447.15,110.84ZM6.32,109H446.77L477.85,77.9V10.34H6.32Z" transform="translate(0 5.55)"/><path id="SVGID-2" class="cls-17" d="M455.43,114.93a.45.45,0,0,1-.45-.45v0a.43.43,0,0,1,.13-.3l32-32V.91H219.26a.46.46,0,0,1-.52-.39.45.45,0,0,1,.37-.52H487.57a.47.47,0,0,1,.46.46V82.34a.43.43,0,0,1-.14.32l-32.14,32.13A.43.43,0,0,1,455.43,114.93Z" transform="translate(0 5.55)"/><path class="cls-1" d="M455.43,114.93a.45.45,0,0,1-.45-.45v0a.43.43,0,0,1,.13-.3l32-32V.91H219.26a.46.46,0,0,1-.52-.39.45.45,0,0,1,.37-.52H487.57a.47.47,0,0,1,.46.46V82.34a.43.43,0,0,1-.14.32l-32.14,32.13A.43.43,0,0,1,455.43,114.93Z" transform="translate(0 5.55)"/><g class="cls-18"><rect class="cls-19" x="218.8" y="5.54" width="269.23" height="114.94"/><path class="cls-20" d="M249.92,57.46a213.92,213.92,0,0,1,8.13-59.15v.77H448.78v-.77a213.92,213.92,0,0,1,8.13,59.15,214,214,0,0,1-8.13,59.16v-.77H258.05v.77A214,214,0,0,1,249.92,57.46Z" transform="translate(0 5.55)"/><path class="cls-21" d="M301.67,57.46c0-21,5.79-40,15.15-53.73a63.08,63.08,0,0,1,7.66-9.28V-.92h57.87V-5.55A63.61,63.61,0,0,1,390,3.74c9.36,13.75,15.15,32.75,15.15,53.72s-5.79,40-15.15,53.73a63.08,63.08,0,0,1-7.66,9.28v-4.62H324.48v4.63a64.25,64.25,0,0,1-7.66-9.28C307.46,97.45,301.67,78.45,301.67,57.46Z" transform="translate(0 5.55)"/></g><polygon class="cls-22" points="5.41 88.89 11.5 80.77 11.5 20.54 82.56 20.54 93.39 14.45 5.41 14.98 5.41 88.89"/><polygon class="cls-23" points="472.01 14.79 472.01 80.77 444.6 108.69 354.26 108.69 346.65 115.28 447.14 115.28 478.76 83.85 478.76 14.98 472.01 14.79"/><polygon class="cls-24" points="4.4 77.73 2.37 72.65 2.37 35.43 0 29.68 0 9.04 27.75 9.04 24.7 11.75 79.51 11.75 77.82 14.45 4.4 14.45 4.4 77.73"/></g></g></g></g></g></g></svg>