<svg xmlns="http://www.w3.org/2000/svg" xmlns:xlink="http://www.w3.org/1999/xlink" viewBox="0 0 485.84 173.88"><defs><style>.cls-1{mask:url(#mask);filter:url(#luminosity-noclip-6);}.cls-10,.cls-2,.cls-4,.cls-6,.cls-8{mix-blend-mode:multiply;}.cls-2{fill:url(#Безымянный_градиент_2);}.cls-3{mask:url(#mask-2);filter:url(#luminosity-noclip-7);}.cls-4{fill:url(#linear-gradient);}.cls-5{mask:url(#mask-3);filter:url(#luminosity-noclip-8);}.cls-6{fill:url(#linear-gradient-2);}.cls-7{mask:url(#mask-4);filter:url(#luminosity-noclip-9);}.cls-8{fill:url(#linear-gradient-3);}.cls-9{mask:url(#mask-5);filter:url(#luminosity-noclip-10);}.cls-10{fill:url(#linear-gradient-4);}.cls-11{opacity:0.5;}.cls-12{mask:url(#mask-6);}.cls-13,.cls-14,.cls-15{fill:#17cffc;}.cls-14{opacity:0.45;}.cls-15{opacity:0.2;}.cls-16{fill:#7312a0;}.cls-17{mask:url(#mask-7);}.cls-18{mask:url(#mask-8);}.cls-19{mask:url(#mask-9);}.cls-20{mask:url(#mask-10);}.cls-21{opacity:0.15;}.cls-22{fill:url(#New_Gradient_Swatch_6);}.cls-23{fill:url(#New_Gradient_Swatch_6-2);}.cls-24{fill:url(#New_Gradient_Swatch_6-3);}.cls-25{fill:url(#New_Gradient_Swatch_6-4);}.cls-26{fill:url(#New_Gradient_Swatch_6-5);}.cls-27{fill:url(#New_Gradient_Swatch_6-6);}.cls-28{fill:url(#New_Gradient_Swatch_6-7);}.cls-29{fill:url(#New_Gradient_Swatch_6-8);}.cls-30{fill:url(#New_Gradient_Swatch_6-9);}.cls-31{fill:url(#New_Gradient_Swatch_6-10);}.cls-32{fill:url(#New_Gradient_Swatch_6-11);}.cls-33{fill:url(#New_Gradient_Swatch_6-12);}.cls-34{fill:url(#New_Gradient_Swatch_6-13);}.cls-35{filter:url(#luminosity-noclip-5);}.cls-36{filter:url(#luminosity-noclip-4);}.cls-37{filter:url(#luminosity-noclip-3);}.cls-38{filter:url(#luminosity-noclip-2);}.cls-39{filter:url(#luminosity-noclip);}</style><filter id="luminosity-noclip" x="21.47" y="-8277.38" width="80.23" height="32766" filterUnits="userSpaceOnUse" color-interpolation-filters="sRGB"><feFlood flood-color="#fff" result="bg"/><feBlend in="SourceGraphic" in2="bg"/></filter><mask id="mask" x="21.47" y="-8277.38" width="80.23" height="32766" maskUnits="userSpaceOnUse"><g class="cls-39"/></mask><radialGradient id="Безымянный_градиент_2" cx="20.21" cy="212.08" r="45.46" gradientTransform="translate(43.75 -76.52) scale(0.88)" gradientUnits="userSpaceOnUse"><stop offset="0.59" stop-color="#fff"/><stop offset="0.81" stop-color="gray"/><stop offset="0.9" stop-color="#4d4d4d"/><stop offset="1"/></radialGradient><filter id="luminosity-noclip-2" x="67.09" y="-8277.38" width="15.67" height="32766" filterUnits="userSpaceOnUse" color-interpolation-filters="sRGB"><feFlood flood-color="#fff" result="bg"/><feBlend in="SourceGraphic" in2="bg"/></filter><mask id="mask-2" x="67.09" y="-8277.38" width="15.67" height="32766" maskUnits="userSpaceOnUse"><g class="cls-38"/></mask><linearGradient id="linear-gradient" x1="67.09" y1="121.68" x2="82.75" y2="121.68" gradientUnits="userSpaceOnUse"><stop offset="0" stop-color="#fff"/><stop offset="0.02" stop-color="#f2f2f2"/><stop offset="0.14" stop-color="#bababa"/><stop offset="0.25" stop-color="#888"/><stop offset="0.37" stop-color="#5e5e5e"/><stop offset="0.49" stop-color="#3c3c3c"/><stop offset="0.61" stop-color="#222"/><stop offset="0.74" stop-color="#0f0f0f"/><stop offset="0.86" stop-color="#040404"/><stop offset="1"/></linearGradient><filter id="luminosity-noclip-3" x="67.09" y="-8277.38" width="15.71" height="32766" filterUnits="userSpaceOnUse" color-interpolation-filters="sRGB"><feFlood flood-color="#fff" result="bg"/><feBlend in="SourceGraphic" in2="bg"/></filter><mask id="mask-3" x="67.09" y="-8277.38" width="15.71" height="32766" maskUnits="userSpaceOnUse"><g class="cls-37"/></mask><linearGradient id="linear-gradient-2" x1="67.09" y1="99.7" x2="82.79" y2="99.7" xlink:href="#linear-gradient"/><filter id="luminosity-noclip-4" x="40.38" y="-8277.38" width="15.8" height="32766" filterUnits="userSpaceOnUse" color-interpolation-filters="sRGB"><feFlood flood-color="#fff" result="bg"/><feBlend in="SourceGraphic" in2="bg"/></filter><mask id="mask-4" x="40.38" y="-8277.38" width="15.8" height="32766" maskUnits="userSpaceOnUse"><g class="cls-36"/></mask><linearGradient id="linear-gradient-3" x1="48.28" y1="90.01" x2="48.28" y2="109.37" xlink:href="#linear-gradient"/><filter id="luminosity-noclip-5" x="40.42" y="-8277.38" width="15.76" height="32766" filterUnits="userSpaceOnUse" color-interpolation-filters="sRGB"><feFlood flood-color="#fff" result="bg"/><feBlend in="SourceGraphic" in2="bg"/></filter><mask id="mask-5" x="40.42" y="-8277.38" width="15.76" height="32766" maskUnits="userSpaceOnUse"><g class="cls-35"/></mask><linearGradient id="linear-gradient-4" x1="48.3" y1="131.1" x2="48.3" y2="112.28" xlink:href="#linear-gradient"/><filter id="luminosity-noclip-6" x="21.47" y="70.51" width="80.23" height="80.23" filterUnits="userSpaceOnUse" color-interpolation-filters="sRGB"><feFlood flood-color="#fff" result="bg"/><feBlend in="SourceGraphic" in2="bg"/></filter><mask id="mask-6" x="21.47" y="70.51" width="80.23" height="80.23" maskUnits="userSpaceOnUse"><g class="cls-1"><path class="cls-2" d="M43.43,74.86a40.1,40.1,0,1,0,53.91,17.6A40.11,40.11,0,0,0,43.43,74.86Zm30.19,59.47A26.59,26.59,0,1,1,85.29,98.58,26.59,26.59,0,0,1,73.62,134.33Z"/></g></mask><filter id="luminosity-noclip-7" x="67.09" y="112.28" width="15.67" height="18.79" filterUnits="userSpaceOnUse" color-interpolation-filters="sRGB"><feFlood flood-color="#fff" result="bg"/><feBlend in="SourceGraphic" in2="bg"/></filter><mask id="mask-7" x="67.09" y="112.28" width="15.67" height="18.79" maskUnits="userSpaceOnUse"><g class="cls-3"><path class="cls-4" d="M67.09,127.32v3.76a21.26,21.26,0,0,0,15.66-18.8H79.14A17.65,17.65,0,0,1,67.09,127.32Z"/></g></mask><filter id="luminosity-noclip-8" x="67.09" y="90.04" width="15.71" height="19.33" filterUnits="userSpaceOnUse" color-interpolation-filters="sRGB"><feFlood flood-color="#fff" result="bg"/><feBlend in="SourceGraphic" in2="bg"/></filter><mask id="mask-8" x="67.09" y="90.04" width="15.71" height="19.33" maskUnits="userSpaceOnUse"><g class="cls-5"><path class="cls-6" d="M79.19,109.37h3.6A21.24,21.24,0,0,0,67.09,90v3.75A17.66,17.66,0,0,1,79.19,109.37Z"/></g></mask><filter id="luminosity-noclip-9" x="40.38" y="90.01" width="15.8" height="19.36" filterUnits="userSpaceOnUse" color-interpolation-filters="sRGB"><feFlood flood-color="#fff" result="bg"/><feBlend in="SourceGraphic" in2="bg"/></filter><mask id="mask-9" x="40.38" y="90.01" width="15.8" height="19.36" maskUnits="userSpaceOnUse"><g class="cls-7"><path class="cls-8" d="M56.18,93.76V90a21.24,21.24,0,0,0-15.8,19.36H44A17.66,17.66,0,0,1,56.18,93.76Z"/></g></mask><filter id="luminosity-noclip-10" x="40.42" y="112.28" width="15.76" height="18.82" filterUnits="userSpaceOnUse" color-interpolation-filters="sRGB"><feFlood flood-color="#fff" result="bg"/><feBlend in="SourceGraphic" in2="bg"/></filter><mask id="mask-10" x="40.42" y="112.28" width="15.76" height="18.82" maskUnits="userSpaceOnUse"><g class="cls-9"><path class="cls-10" d="M44,112.28H40.42A21.24,21.24,0,0,0,56.18,131.1v-3.75A17.62,17.62,0,0,1,44,112.28Z"/></g></mask><radialGradient id="New_Gradient_Swatch_6" cx="208.46" cy="77.23" r="10.34" gradientUnits="userSpaceOnUse"><stop offset="0" stop-color="#11e5b3"/><stop offset="0.28" stop-color="#12e2b4"/><stop offset="0.44" stop-color="#17dab9"/><stop offset="0.59" stop-color="#1ecbc2"/><stop offset="0.71" stop-color="#28b7ce"/><stop offset="0.83" stop-color="#359cdd"/><stop offset="0.93" stop-color="#457cef"/><stop offset="1" stop-color="#5263fe"/></radialGradient><radialGradient id="New_Gradient_Swatch_6-2" cx="227.55" cy="77.26" r="9.83" xlink:href="#New_Gradient_Swatch_6"/><radialGradient id="New_Gradient_Swatch_6-3" cx="248.24" cy="77.26" r="11.37" xlink:href="#New_Gradient_Swatch_6"/><radialGradient id="New_Gradient_Swatch_6-4" cx="267.67" cy="77.25" r="11.13" xlink:href="#New_Gradient_Swatch_6"/><radialGradient id="New_Gradient_Swatch_6-5" cx="282.89" cy="77.23" r="10.34" xlink:href="#New_Gradient_Swatch_6"/><radialGradient id="New_Gradient_Swatch_6-6" cx="305.61" cy="77.26" r="11.37" xlink:href="#New_Gradient_Swatch_6"/><radialGradient id="New_Gradient_Swatch_6-7" cx="326.5" cy="77.27" r="10.7" xlink:href="#New_Gradient_Swatch_6"/><radialGradient id="New_Gradient_Swatch_6-8" cx="349.31" cy="77.27" r="9.04" xlink:href="#New_Gradient_Swatch_6"/><radialGradient id="New_Gradient_Swatch_6-9" cx="363.38" cy="77.26" r="11.73" xlink:href="#New_Gradient_Swatch_6"/><radialGradient id="New_Gradient_Swatch_6-10" cx="393.57" cy="77.24" r="11.66" xlink:href="#New_Gradient_Swatch_6"/><radialGradient id="New_Gradient_Swatch_6-11" cx="408.68" cy="77.23" r="10.34" xlink:href="#New_Gradient_Swatch_6"/><radialGradient id="New_Gradient_Swatch_6-12" cx="431.4" cy="77.26" r="11.37" xlink:href="#New_Gradient_Swatch_6"/><radialGradient id="New_Gradient_Swatch_6-13" cx="452.33" cy="77.28" r="10.62" xlink:href="#New_Gradient_Swatch_6"/></defs><title>already_in_cart_02</title><g id="Layer_2" data-name="Layer 2"><g id="Layer_1-2" data-name="Layer 1"><g class="cls-11"><g class="cls-12"><path class="cls-13" d="M43.43,74.86a40.1,40.1,0,1,0,53.91,17.6A40.11,40.11,0,0,0,43.43,74.86Zm30.19,59.47A26.59,26.59,0,1,1,85.29,98.58,26.59,26.59,0,0,1,73.62,134.33Z"/></g></g><circle class="cls-14" cx="61.59" cy="110.62" r="14.38" transform="translate(-63.64 91.95) rotate(-52.41)"/><rect class="cls-13" x="14.07" y="110.36" width="95.04" height="0.52" transform="translate(-49.2 171.91) rotate(-89.85)"/><rect class="cls-13" x="61.32" y="63.1" width="0.52" height="95.04" transform="matrix(0, -1, 1, 0, -49.2, 171.91)"/><rect class="cls-13" x="56.78" y="99.17" width="16.04" height="0.52" transform="matrix(0, -1, 1, 0, -34.8, 163.96)"/><rect class="cls-13" x="72.53" y="99.45" width="0.52" height="16.04" transform="translate(-34.86 179.98) rotate(-89.85)"/><rect class="cls-13" x="50.49" y="99.23" width="16.04" height="0.52" transform="matrix(0, -1, 1, 0, -41.12, 157.75)"/><rect class="cls-13" x="50.21" y="99.47" width="0.52" height="16.04" transform="translate(-57.15 157.68) rotate(-89.85)"/><rect class="cls-13" x="56.72" y="121.38" width="16.04" height="0.52" transform="translate(-57.06 186.07) rotate(-89.86)"/><rect class="cls-13" x="72.52" y="105.62" width="0.52" height="16.04" transform="translate(-41.05 186.12) rotate(-89.85)"/><rect class="cls-13" x="50.44" y="121.28" width="16.04" height="0.52" transform="translate(-63.24 179.68) rotate(-89.85)"/><rect class="cls-13" x="50.2" y="105.48" width="0.52" height="16.04" transform="translate(-63.18 163.66) rotate(-89.85)"/><rect class="cls-13" x="43.17" y="70.87" width="0.52" height="7.98" transform="translate(-29.19 27.78) rotate(-26.92)"/><rect class="cls-13" x="79.48" y="142.39" width="0.52" height="7.98" transform="translate(-57.63 51.97) rotate(-26.92)"/><rect class="cls-13" x="23.2" y="94.18" width="0.52" height="7.98" transform="translate(-77.15 90.01) rotate(-71.92)"/><rect class="cls-13" x="99.45" y="119.07" width="0.52" height="7.98" transform="translate(-48.22 179.66) rotate(-71.92)"/><rect class="cls-13" x="21.84" y="128.52" width="7.98" height="0.52" transform="translate(-55.48 25.63) rotate(-26.91)"/><rect class="cls-13" x="93.35" y="92.2" width="7.98" height="0.52" transform="translate(-31.31 54.08) rotate(-26.91)"/><rect class="cls-13" x="45.15" y="148.48" width="7.98" height="0.52" transform="translate(-107.51 149.27) rotate(-71.91)"/><rect class="cls-13" x="70.04" y="72.23" width="7.98" height="0.52" transform="translate(-17.87 120.35) rotate(-71.91)"/><rect class="cls-13" x="41.73" y="91.28" width="0.52" height="5.13" transform="translate(-56.6 64.7) rotate(-49.42)"/><rect class="cls-13" x="80.91" y="124.83" width="0.52" height="5.13" transform="translate(-68.39 106.18) rotate(-49.42)"/><rect class="cls-13" x="33.3" y="112.35" width="5.13" height="0.52" transform="translate(-8.61 3.12) rotate(-4.44)"/><rect class="cls-13" x="84.73" y="108.37" width="5.13" height="0.52" transform="translate(-8.14 7.07) rotate(-4.43)"/><rect class="cls-13" x="42.24" y="129.95" width="5.13" height="0.52" transform="translate(-83.23 79.52) rotate(-49.41)"/><rect class="cls-13" x="75.8" y="90.77" width="5.13" height="0.52" transform="translate(-41.75 91.33) rotate(-49.42)"/><rect class="cls-13" x="63.31" y="133.77" width="0.52" height="5.13" transform="translate(-10.32 5.31) rotate(-4.42)"/><rect class="cls-13" x="59.34" y="82.34" width="0.52" height="5.13" transform="translate(-6.37 4.85) rotate(-4.42)"/><path class="cls-13" d="M63.91,108.61a.69.69,0,0,0-.66.72v2.45a.66.66,0,1,0,1.31,0v-2.45A.69.69,0,0,0,63.91,108.61Z"/><path class="cls-13" d="M59.26,108.61a.69.69,0,0,0-.65.72v2.45a.66.66,0,1,0,1.31,0v-2.45A.69.69,0,0,0,59.26,108.61Z"/><path class="cls-13" d="M63.91,57.88a.69.69,0,0,0-.66.72v2.45a.66.66,0,1,0,1.31,0V58.6A.69.69,0,0,0,63.91,57.88Z"/><path class="cls-13" d="M59.26,57.88a.69.69,0,0,0-.65.72v2.45a.66.66,0,1,0,1.31,0V58.6A.69.69,0,0,0,59.26,57.88Z"/><path class="cls-13" d="M63.91,159.34a.69.69,0,0,0-.66.72v2.45a.66.66,0,1,0,1.31,0v-2.45A.69.69,0,0,0,63.91,159.34Z"/><path class="cls-13" d="M59.26,159.34a.69.69,0,0,0-.65.72v2.45a.66.66,0,1,0,1.31,0v-2.45A.69.69,0,0,0,59.26,159.34Z"/><path class="cls-13" d="M114.26,112.88a.69.69,0,0,0-.72-.66h-2.45a.66.66,0,1,0,0,1.31h2.45A.69.69,0,0,0,114.26,112.88Z"/><path class="cls-13" d="M114.26,108.23a.69.69,0,0,0-.72-.65h-2.45a.66.66,0,1,0,0,1.31h2.45A.69.69,0,0,0,114.26,108.23Z"/><path class="cls-13" d="M12.8,112.88a.69.69,0,0,0-.72-.66H9.63a.66.66,0,1,0,0,1.31h2.45A.69.69,0,0,0,12.8,112.88Z"/><path class="cls-13" d="M12.8,108.23a.69.69,0,0,0-.72-.65H9.63a.66.66,0,1,0,0,1.31h2.45A.69.69,0,0,0,12.8,108.23Z"/><path class="cls-15" d="M88,109.23h6.63A33,33,0,0,0,67.75,78.11v6.78A26.41,26.41,0,0,1,88,109.23Z"/><path class="cls-15" d="M55.53,84.87V78.09a33,33,0,0,0-26.94,31.14h6.63A26.4,26.4,0,0,1,55.53,84.87Z"/><path class="cls-15" d="M35.27,112.49H28.62A33,33,0,0,0,55.53,143v-6.77A26.4,26.4,0,0,1,35.27,112.49Z"/><path class="cls-15" d="M67.75,136.22V143a33,33,0,0,0,26.8-30.51H87.9A26.39,26.39,0,0,1,67.75,136.22Z"/><path class="cls-13" d="M64.84,110.56a3.26,3.26,0,1,1-3.26-3.25A3.26,3.26,0,0,1,64.84,110.56Z"/><path class="cls-16" d="M50.58,111H.46a.47.47,0,0,1,0-.93H50.58a.47.47,0,0,1,0,.93Z"/><path class="cls-16" d="M122.71,111H72.59a.47.47,0,0,1,0-.93h50.12a.47.47,0,0,1,0,.93Z"/><path class="cls-13" d="M50.58,111H.46a.47.47,0,0,1,0-.93H50.58a.47.47,0,0,1,0,.93Z"/><path class="cls-13" d="M122.71,111H72.59a.47.47,0,0,1,0-.93h50.12a.47.47,0,0,1,0,.93Z"/><path class="cls-13" d="M61.59,100a.46.46,0,0,1-.47-.46V49.44a.47.47,0,1,1,.93,0V99.55A.46.46,0,0,1,61.59,100Z"/><path class="cls-13" d="M61.59,172.14a.47.47,0,0,1-.47-.46V121.56a.47.47,0,0,1,.93,0v50.12A.47.47,0,0,1,61.59,172.14Z"/><path class="cls-13" d="M73,110.56a11.56,11.56,0,0,0-.14-1.78h1.41A12.81,12.81,0,0,0,63.37,97.91v1.41a11.76,11.76,0,0,0-1.78-.14,11.56,11.56,0,0,0-1.78.14V97.91a12.81,12.81,0,0,0-10.87,10.87h1.41a11.39,11.39,0,0,0,0,3.56H48.94A12.81,12.81,0,0,0,59.81,123.2v-1.41a11.56,11.56,0,0,0,1.78.14,11.76,11.76,0,0,0,1.78-.14v1.41a12.81,12.81,0,0,0,10.86-10.86H72.82A11.66,11.66,0,0,0,73,110.56Zm-21.82,0A10.45,10.45,0,1,1,61.59,121,10.45,10.45,0,0,1,51.14,110.56Z"/><path class="cls-13" d="M102.25,106.73l-10.72.5-.09-.7,1-1.38A33,33,0,0,0,80.68,87l-.08.1c-.59-.48-1.2-1-1.83-1.38l.07-.11a33.1,33.1,0,0,0-10.42-5.09l2.31-9.81c.1-.42,0-.81-.2-.86l-.91-.22c-.21,0-.47.26-.57.69l-2.3,9.77c-.5-.12-1-.22-1.52-.32l-.38-.49c-1.07,0-2.13,0-3.19.06a33.68,33.68,0,0,0-3.48-.07l-.41.54c-.42.08-.84.16-1.26.26l-2.36-10c-.11-.42-.36-.73-.58-.68l-.9.22c-.21,0-.31.43-.2.86l2.37,10A33.27,33.27,0,0,0,44.2,85.71l.06.08c-.63.44-1.24.9-1.83,1.39l-.06-.08a32.94,32.94,0,0,0-11.76,18.14l1,1.37-.06.48-10.88-.47c-.44,0-.8.14-.81.36l0,.93c0,.22.33.41.77.43l10.82.47c0,.42,0,.83,0,1.25V111c0,.41,0,.81,0,1.21l-10.69.49c-.44,0-.79.22-.78.44L20,114c0,.22.37.38.81.36l10.74-.5c0,.22.05.43.08.64l-1,1.37A33,33,0,0,0,42.42,134l.06-.08c.6.49,1.21,1,1.84,1.39l-.06.08a33.12,33.12,0,0,0,10.5,5.11l-2.32,9.86c-.1.43,0,.81.2.86l.91.22c.21.05.47-.26.57-.69l2.31-9.82c.47.11.94.2,1.41.29l.41.54a31,31,0,0,0,3.48-.08,31,31,0,0,0,3.2,0l.37-.49,1.27-.26L69,151c.1.43.35.73.57.68l.9-.21c.22,0,.31-.44.21-.87l-2.38-10a33.11,33.11,0,0,0,10.65-5.18l-.08-.1c.63-.44,1.24-.91,1.84-1.4l.08.11a32.93,32.93,0,0,0,11.75-18.14l-1-1.38.06-.44,10.95.48c.44,0,.8-.15.81-.37l0-.93c0-.22-.33-.41-.77-.43l-10.89-.47c0-.42,0-.83,0-1.24v-.93c0-.39,0-.79,0-1.18l10.67-.49c.44,0,.79-.22.78-.44l0-.92C103.06,106.88,102.69,106.71,102.25,106.73ZM86.77,124.91a31.41,31.41,0,0,1-7,7.73l.21.28c-.25.21-.51.41-.78.61l-.11.08h0v0h0l-.11.08-.8.59-.21-.28a31.37,31.37,0,0,1-9.36,4.68,28.35,28.35,0,0,1-4,.71l-.44,0-.24,0a28.91,28.91,0,0,1-9.25-.77A31.39,31.39,0,0,1,45.27,134l-.21.29-.81-.59-.1-.08h0l0,0h0l-.1-.07-.79-.62.21-.28A31.57,31.57,0,0,1,36.37,125a28.69,28.69,0,0,1,0-28.78,31.61,31.61,0,0,1,7.05-7.73l-.21-.28.78-.62.11-.07h0l0,0h0a.39.39,0,0,1,.1-.08l.81-.59.21.28a31.32,31.32,0,0,1,9.35-4.68,29,29,0,0,1,9.26-.8l.24,0,.43,0a28.46,28.46,0,0,1,4,.7A31.46,31.46,0,0,1,77.83,87l.21-.29c.28.19.54.39.81.59l.11.08h0l0,0h0l.11.07c.27.21.53.41.78.62l-.21.28a31.42,31.42,0,0,1,7.07,7.71,28.73,28.73,0,0,1,0,28.82Z"/><g class="cls-17"><path class="cls-13" d="M67.09,127.32v3.76a21.26,21.26,0,0,0,15.66-18.8H79.14A17.65,17.65,0,0,1,67.09,127.32Z"/></g><g class="cls-18"><path class="cls-13" d="M79.19,109.37h3.6A21.24,21.24,0,0,0,67.09,90v3.75A17.66,17.66,0,0,1,79.19,109.37Z"/></g><g class="cls-19"><path class="cls-13" d="M56.18,93.76V90a21.24,21.24,0,0,0-15.8,19.36H44A17.66,17.66,0,0,1,56.18,93.76Z"/></g><g class="cls-20"><path class="cls-13" d="M44,112.28H40.42A21.24,21.24,0,0,0,56.18,131.1v-3.75A17.62,17.62,0,0,1,44,112.28Z"/></g><polygon class="cls-13" points="76.72 125.25 76.08 125.88 98.74 148.54 264.57 148.54 264.57 147.64 99.11 147.64 76.72 125.25"/><path class="cls-13" d="M479.29,44.62l.14.13V165.06l-8.83,8.82h-195l-36-8.68H226.09l-10.81-10.81h48.66l16.16-15.31h-63l-6.3-6.31H176.73V76.2L156.59,56.07l-.13-.14V19.49h297.7ZM157.36,55.56,177.5,75.7l.13.13v56h33.52l6.31,6.31h64.9l-18.07,17.11H217.46l9,9H240L276,173H470.23l8.29-8.3V45.12L453.79,20.39H157.36Z"/><path class="cls-13" d="M266.65,164.25H444.29l17-17v-20.3l17.73-17.73v55.06s-9.18,8.63-8.91,8.9-194.31,0-194.31,0Z"/><rect class="cls-13" x="57.07" y="105.9" width="9.38" height="9.38"/><path class="cls-13" d="M72.65,121.47H50.88V99.7H72.65Zm-20.87-.9h20v-20h-20Z"/><polygon class="cls-13" points="156.91 26.77 460.87 26.77 454.29 20.19 156.91 20.19 156.91 26.77"/><polygon class="cls-13" points="222.07 160.55 229.06 160.55 233.24 164.74 226.28 164.74 222.07 160.55"/><polygon class="cls-13" points="177.18 106.8 182.28 111.9 182.28 125.94 197.38 125.94 203.46 132.02 177.18 132.02 177.18 106.8"/><polygon class="cls-13" points="273.33 155.75 290.45 138.63 305.91 138.63 288.87 155.67 273.33 155.75"/><polygon class="cls-13" points="297.15 155.75 314.26 138.63 329.73 138.63 312.69 155.67 297.15 155.75"/><polygon class="cls-13" points="320.96 155.75 338.08 138.63 353.55 138.63 336.5 155.67 320.96 155.75"/><polygon class="cls-13" points="344.78 155.75 361.9 138.63 377.36 138.63 360.32 155.67 344.78 155.75"/><polygon class="cls-13" points="368.6 155.75 385.71 138.63 401.18 138.63 384.14 155.67 368.6 155.75"/><polygon class="cls-13" points="392.42 155.75 409.53 138.63 425 138.63 407.96 155.67 392.42 155.75"/><polygon class="cls-13" points="416.23 155.75 433.35 138.63 448.81 138.63 431.77 155.67 416.23 155.75"/><polygon class="cls-13" points="459.61 138.63 459.42 144.76 448.45 155.71 440.05 155.75 457.16 138.63 459.61 138.63"/><path class="cls-13" d="M461.8,18.36,447.4,4H299.19l-9.49,9.48H182.89L169.15,27.18l-1-.1,14.45-14.45h106.8l9.49-9.49H447.73L462.61,18"/><polygon class="cls-13" points="296.81 13.78 303.49 7.11 316.81 7.11 310.05 13.87 296.81 13.78"/><polygon class="cls-13" points="317.08 13.78 323.75 7.11 337.07 7.11 330.31 13.87 317.08 13.78"/><polygon class="cls-13" points="337.34 13.78 344.01 7.11 357.33 7.11 350.57 13.87 337.34 13.78"/><polygon class="cls-13" points="357.6 13.78 364.28 7.11 377.59 7.11 370.83 13.87 357.6 13.78"/><polygon class="cls-13" points="377.87 13.78 384.54 7.11 397.86 7.11 391.1 13.87 377.87 13.78"/><polygon class="cls-13" points="398.13 13.78 404.8 7.11 418.12 7.11 411.36 13.87 398.13 13.78"/><polygon class="cls-13" points="418.39 13.78 425.07 7.11 438.38 7.11 431.62 13.87 418.39 13.78"/><polygon class="cls-13" points="437.23 13.78 443.91 7.11 446.85 7.11 453 13.87 437.23 13.78"/><polygon class="cls-13" points="294.08 4.79 293.5 4.21 297.71 0 316.89 0 316.89 0.81 298.05 0.81 294.08 4.79"/><g class="cls-21"><path class="cls-13" d="M167.21,33.16H451.76l19.69,19.68s1.4,53.09,0,53.09S457,120.34,457,120.34V132.8H219.82l-3.63-3.64h-9.8l-6.48-6.48h-14V106.8l-4.44-4.45V70.66L162.93,52.17v-13Z"/></g><polygon class="cls-13" points="481.64 49.84 481.64 88.87 485.84 93.07 485.84 127.41 478.89 134.36 479.08 44.47 481.64 49.84"/><polyline class="cls-13" points="165.96 55.21 165.96 54.94 165.96 44.07 169.29 40.75 240.72 40.75 243.16 38.3 243.16 35.68 240.4 32.92 198.18 32.92 195.59 30.33 168.84 30.33 164.28 34.89 164.28 37.25 162.93 39.13 162.93 51.96"/><path class="cls-13" d="M288.07,114.05h0a2.73,2.73,0,0,1,2.73,2.73h0a2.73,2.73,0,0,1-2.73,2.73h0a2.73,2.73,0,0,1-2.73-2.73h0A2.73,2.73,0,0,1,288.07,114.05Z"/><path class="cls-13" d="M294,122.66H282.19V110.9H294ZM283,121.82h10.08V111.74H283Z"/><path class="cls-13" d="M330.1,114.05h0a2.73,2.73,0,0,1,2.73,2.73h0a2.73,2.73,0,0,1-2.73,2.73h0a2.73,2.73,0,0,1-2.73-2.73h0A2.73,2.73,0,0,1,330.1,114.05Z"/><path class="cls-13" d="M336,122.66H324.22V110.9H336Zm-10.92-.84h10.08V111.74H325.06Z"/><path class="cls-13" d="M372.14,114.05h0a2.73,2.73,0,0,1,2.73,2.73h0a2.73,2.73,0,0,1-2.73,2.73h0a2.73,2.73,0,0,1-2.73-2.73h0A2.73,2.73,0,0,1,372.14,114.05Z"/><path class="cls-13" d="M378,122.66H366.26V110.9H378Zm-10.92-.84h10.08V111.74H367.1Z"/><path class="cls-22" d="M214.25,88.43h-1.31q-.87,0-.93-1a5.67,5.67,0,0,1,0-.61c0-.28,0-.46,0-.55a.58.58,0,0,1,0-.19.36.36,0,0,0,0-.19.7.7,0,0,0-.29,0h-6.14a.72.72,0,0,0-.58.38c-.11.15-.25.36-.43.63a7.28,7.28,0,0,0-.4.62,1.72,1.72,0,0,1-1.47,1h-2.63a.78.78,0,0,1-.73-.37,1.37,1.37,0,0,1-.13-1,2.07,2.07,0,0,1,.51-1.12c1-1.31,1.68-2.08,1.89-2.34L205,79.76l.13-.15.11-.12a.79.79,0,0,1,.13-.13.63.63,0,0,0,.11-.15c.17-.21.19-.36.06-.44a4.67,4.67,0,0,0-.43-.28l-.4-.24a.16.16,0,0,1-.06-.19.29.29,0,0,1,.19-.16,4.84,4.84,0,0,1,.61-.22c1-.3,1.62-.47,1.72-.51s.13,0,.13-.07,0,0-.09,0-.86,0-2.24,0h-.32c-.09,0-.13,0-.13-.07a.29.29,0,0,1,.13-.12c.3-.09.5-.14.61-.16a2.92,2.92,0,0,1,.46-.13l.56-.15.48-.11.74-.22a.29.29,0,0,0,.15-.16.12.12,0,0,0-.06-.16l-.11-.05a.75.75,0,0,0-.18-.08,1,1,0,0,1-.21-.1l-.19-.11a.8.8,0,0,0-.16-.08l-.11-.06q-.23-.16,0-.51l.35-.36c.3-.3.74-.73,1.3-1.31s.91-.92,1-1a3.78,3.78,0,0,0,.26-.29c.25-.3.26-.5,0-.61a1.39,1.39,0,0,0-.21-.11l-.22-.1a1,1,0,0,1-.21-.11l-.1,0-.17-.06a.3.3,0,0,1-.08-.08s0-.06,0-.08.19-.23.51-.29l1.22-.26,2.23-.54.45-.16c.11,0,.15-.07.13-.13a.13.13,0,0,0-.13-.1h-2.59a1.74,1.74,0,0,1-.38,0,.3.3,0,0,1-.29-.29.83.83,0,0,1,.19-.57c.6-.73,1.1-1.29,1.51-1.7a1.52,1.52,0,0,1,1.53-.45c.3.09.44.36.42.8,0,.13,0,.31,0,.53s0,.36,0,.4a1.41,1.41,0,0,0,.23.93.9.9,0,0,0,.7.38h2.88c.11,0,.16,0,.16.12s0,.13-.16.17-.81.27-1.79.55l-1.38.41a.76.76,0,0,0-.12.1.12.12,0,0,0,.06.19l1.15.38a1.92,1.92,0,0,0,.42.16c.3.13.4.41.32.84,0,.27-.11.68-.21,1.21s-.17.94-.21,1.22,0,.66.26.77l.52.2.69.26a1.92,1.92,0,0,1,.36.14.12.12,0,0,1,.06.16s0,.08-.13.1a2.64,2.64,0,0,1-.51.19q-1.12.36-1.47.51c-.13.07-.17.13-.13.2a1.12,1.12,0,0,0,.38,0h2.31q.09,0,.09.06s0,.09-.12.13a1.65,1.65,0,0,0-.36.11l-.62.24-.46.19c-.2.09-.29.17-.29.24s.06.15.19.21a2.7,2.7,0,0,0,.33.13l.37.13c.28.13.49.23.64.32s.3.33.26.67c-.13,1-.23,1.9-.29,2.62a24.58,24.58,0,0,0-.09,3.81,2.53,2.53,0,0,1-.2,1.12,2.91,2.91,0,0,1-.4.74,1.77,1.77,0,0,1-.54.49,1.21,1.21,0,0,1-.63.18Zm-4.55-8,.26,0h2.38c.12,0,.19-.07.21-.22a6,6,0,0,1,.13-.61c.13-.47,0-.78-.32-.93a10.33,10.33,0,0,1-1.28-.54c-.09,0-.12-.11-.1-.19a.38.38,0,0,1,.18-.15l.37-.14.52-.18a1.59,1.59,0,0,0,.37-.14c.32-.11.47-.19.45-.26s-.08-.13-.26-.06a2.9,2.9,0,0,0-.63.16l-.21.06-.29.08-.34.11-.4.13-.4.13a3.5,3.5,0,0,0-.51.19c-.19.09-.22.19-.09.32a1.82,1.82,0,0,0,.28.19l.51.28c.22.11.21.32,0,.62l-.25.29a1.77,1.77,0,0,0-.18.19,1.49,1.49,0,0,1-.21.22l-.16.2a.71.71,0,0,0-.16.19S209.6,80.43,209.7,80.43Z"/><path class="cls-23" d="M232.33,88.43h-12a.85.85,0,0,1-1-.51,2,2,0,0,1,.11-1.47,43,43,0,0,1,2.92-6.5,3.63,3.63,0,0,0,.25-.48c.17-.32.16-.53,0-.64a6.77,6.77,0,0,0-.77-.32l-.21-.08a1.45,1.45,0,0,1-.25-.1l-.15,0c-.08-.05-.11-.1-.09-.16s.08-.09.19-.13l.38-.13c.84-.24,1.35-.38,1.54-.45a3.55,3.55,0,0,0,.54-.19c.11,0,.16-.08.16-.11s0-.06-.09-.08h-2.79c-.08,0-.11,0-.09-.13s.06-.07.19-.16a2.34,2.34,0,0,1,.61-.32c.38-.15.68-.26.89-.32l.9-.22.38-.13c.15-.09.16-.16,0-.23l-.26-.09-.35-.11-.35-.12a4.3,4.3,0,0,1-.45-.19q-.22-.12-.24-.27a1.14,1.14,0,0,1,.17-.5c.13-.21.27-.44.42-.7l.48-.83c.17-.3.31-.54.42-.71a2.21,2.21,0,0,0,.19-.35c.13-.28.12-.45,0-.53l-.43-.2c-.08,0-.23-.07-.43-.15l-.47-.17-.09-.07a.12.12,0,0,1,0-.16s.09-.08.22-.13l.77-.22,2-.48a4.83,4.83,0,0,0,.73-.26c.07,0,.1-.05.1-.09s0-.07-.1-.07h-3.13c-.22,0-.36-.06-.42-.19a.91.91,0,0,1,0-.83,3.69,3.69,0,0,1,1.28-1.73,1.43,1.43,0,0,1,.8-.29h2.88a.59.59,0,0,1,.62.42,1.41,1.41,0,0,1-.11,1,.78.78,0,0,0-.09.2,1.83,1.83,0,0,0-.1.25,3.06,3.06,0,0,0-.13.64.63.63,0,0,0,.1.39.38.38,0,0,0,.32.12h2.91a1,1,0,0,1,.26,0s.06,0,.06,0a.19.19,0,0,1-.06.12h-.08l-.15,0-.16.06-1.07.28-1.44.38-.75.21c-.19.06-.22.14-.07.22,0,0,0,0,.07,0l.11,0,.14,0a.39.39,0,0,1,.15,0l.25.12.37.14.26.1c.19.12.2.36,0,.7l-.13.26c-.1.14-.24.37-.41.67l-.47.81c-.14.25-.27.48-.4.69a1,1,0,0,0-.21.51.44.44,0,0,0,.28.29,4.2,4.2,0,0,0,.64.26l.17.06a1,1,0,0,1,.21.07l.19.06a.38.38,0,0,1,.13.1c0,.06,0,.12,0,.19a.67.67,0,0,1-.23.08l-.54.14a4.39,4.39,0,0,1-.54.13,7.64,7.64,0,0,0-1,.32,1.68,1.68,0,0,0-.64.42c-.09.12-.08.19,0,.19H229c.15,0,.22,0,.22.06s-.12.13-.29.19a3.66,3.66,0,0,1-.8.29l-1.6.45a.19.19,0,0,0-.09.16c0,.06.12.13.32.19a2.93,2.93,0,0,0,.43.16l.46.16c.26.11.39.22.4.34a1.83,1.83,0,0,1-.27.72q-.48.85-1,1.92c-.07.1-.09.17-.08.21s0,0,.14.08h8.38a.64.64,0,0,1,.6.41,1.47,1.47,0,0,1-.08,1c-.07.13-.15.32-.26.58s-.18.45-.22.58-.26.67-.45,1.2-.33.89-.42,1.1a3.64,3.64,0,0,1-.29.64,2.61,2.61,0,0,1-.6.69,1.39,1.39,0,0,1-.74.27Z"/><path class="cls-24" d="M247.3,66.09h4.55a4.6,4.6,0,0,1,2.24.52,3.33,3.33,0,0,1,1.21,1.21l.16.27a3.12,3.12,0,0,1,.16.31,1.75,1.75,0,0,0,.16.25l.16.2a.94.94,0,0,0,.64.25q.8,0,2.79,0h0c.25,0,.38,0,.38.1s-.17.15-.51.26l-.86.24-1.14.32-.56.14c-.13,0-.2.08-.22.13s0,.13.12.19l.23.06.41.16.47.2.33.12c.15.09.24.18.26.29a.82.82,0,0,1-.13.48c-.17.41-.46,1-.86,1.76-.07.13-.17.31-.31.53s-.22.35-.24.37c-.19.34-.18.56,0,.67l.73.32a2.92,2.92,0,0,0,.42.19.13.13,0,0,1,.06.16c0,.07,0,.12-.16.16a2,2,0,0,0-.29.08l-.27.08-.32.08-.33.1-.31.09a1.62,1.62,0,0,1-.27.08,6.49,6.49,0,0,0-.86.29c-.2.09-.29.15-.29.19s.07.07.21.07h2.64c.08,0,.12,0,.12,0s-.08.09-.25.17a9.31,9.31,0,0,1-1.38.42l-1.63.41c-.13,0-.19.06-.19.12s.06.11.19.17l.8.42c.17.1.15.24-.06.41a2.67,2.67,0,0,1-.48.32,9.35,9.35,0,0,1-2.24,1,.94.94,0,0,0-.34.16.79.79,0,0,0,0,.39,34.51,34.51,0,0,0,.84,4.61,1.22,1.22,0,0,0,.06.28,2.6,2.6,0,0,1-.13,1.11,2.67,2.67,0,0,1-.54,1,1.38,1.38,0,0,1-1,.45H248a.74.74,0,0,1-.74-.61c-.15-.49-.29-.93-.42-1.34a32.4,32.4,0,0,1-.83-5.09v-.29a.19.19,0,0,0-.22-.22h-1.06c-.13,0-.23.09-.32.26s-.24.46-.48.94-.4.85-.51,1.1A28.43,28.43,0,0,0,242,86.83a2.12,2.12,0,0,1-.26.61,1.6,1.6,0,0,1-1.4,1h-2.76a.76.76,0,0,1-.75-.46,1.58,1.58,0,0,1,0-1.3A34.64,34.64,0,0,1,238.28,83c.32-.64.88-1.75,1.69-3.33a1.35,1.35,0,0,0,.24-.6c0-.11-.12-.21-.33-.29l-.66-.24-.65-.24c-.09,0-.12-.09-.1-.13a.32.32,0,0,1,.16-.13l1-.29a14.11,14.11,0,0,0,1.38-.41c.3-.11.42-.21.38-.29s0,0-.13,0h-2.68c-.13,0-.19,0-.16-.07s.05-.11.16-.16a8.59,8.59,0,0,1,1.18-.48l.61-.17L241,76a.93.93,0,0,0,.27-.09.1.1,0,0,0,0-.16s-.11-.08-.35-.16-.46-.16-.61-.23a3.35,3.35,0,0,1-.38-.16.34.34,0,0,1-.22-.29,1.11,1.11,0,0,1,.19-.48l.7-1.21.74-1.28a1.38,1.38,0,0,0,.24-.63c0-.11-.13-.23-.34-.33l-1-.39c-.17-.08-.25-.16-.24-.22s.12-.12.34-.16.37-.1.73-.18a6.91,6.91,0,0,0,.93-.24,17,17,0,0,0,1.7-.48l.12-.09s0-.07-.09-.07h-1.36l-1.09,0h-.53a.44.44,0,0,1-.45-.22,1.43,1.43,0,0,1,0-1,3,3,0,0,1,.91-1.3,1.88,1.88,0,0,1,1.2-.53Q242.92,66.09,247.3,66.09Zm4,6.28c-2.64,0-4.24,0-4.8,0a.46.46,0,0,0-.41.29c-.13.24-.32.56-.56,1s-.41.71-.5.88-.18.54,0,.67a1.8,1.8,0,0,0,1,.32h5.12c.06,0,.1,0,.11,0s0-.09-.08-.17-.05-.4.19-.74a9.68,9.68,0,0,0,.67-1.12c.26-.51.21-.83-.13-1A2.84,2.84,0,0,0,251.33,72.37Z"/><path class="cls-25" d="M278.76,69.2c0,.06-.09.13-.26.19s-.41.16-.8.29l-1.69.45a11,11,0,0,0-1.16.28c-.12,0-.19.1-.19.16s0,.09.1.13l.32.13.19.06.21.08.17.08.42.16c.32.15.34.36.06.61a1.89,1.89,0,0,1-1.31.45h-8.41a.49.49,0,0,0-.42.29c-.11.17-.25.41-.43.72s-.31.53-.37.65-.09.18-.08.21.05,0,.11,0h8.45a.49.49,0,0,1,.51.5.66.66,0,0,0,.45.62l1,.38.07,0c.19.06.29.13.29.22s-.16.14-.48.22l-.64.2-.87.25a5.25,5.25,0,0,0-.64.26c-.08,0-.13.08-.13.11s0,.05.07.05h2.59c.08,0,.13,0,.13.06s-.05.08-.16.1l-.74.25-.7.23a3.6,3.6,0,0,0-.48.19c-.13,0-.19.1-.19.16s0,.13.12.19l.39.19.64.32c.25.15.23.39-.07.71a2.25,2.25,0,0,1-1.56.83h-8.1c-.17,0-.27,0-.29,0s-.17.07-.25.22c-.22.41-.47.92-.77,1.54-.07.13,0,.19.06.19h8.29a.72.72,0,0,1,.72.45,1.62,1.62,0,0,1-.14,1.12c-.39.94-.59,1.42-.61,1.44-.17.47-.35,1-.55,1.57-.36,1.09-1,1.63-1.79,1.63H257.48a.76.76,0,0,1-.8-.5,2,2,0,0,1,0-1.26,30.77,30.77,0,0,1,1.63-4l1.51-2.94.06-.08a.43.43,0,0,0,0-.12.19.19,0,0,1,.05-.09c.19-.37.19-.59,0-.67s-.4-.22-.61-.32a4.37,4.37,0,0,1-.51-.26c-.11,0-.16-.1-.16-.16a.65.65,0,0,1,.25-.19l.51-.18.92-.29a4.91,4.91,0,0,0,.52-.17l.07-.07,0,0s0,0-.1,0h-2.49c-.11,0-.16,0-.16-.05s.07-.08.22-.14a16.84,16.84,0,0,1,1.73-.55c.15-.06.35-.14.61-.22a.31.31,0,0,0,.16-.16s0-.09-.13-.13a1.25,1.25,0,0,0-.26-.13l-.35-.13a4,4,0,0,1-.41-.16.6.6,0,0,1-.32-.19c-.11-.11-.12-.25,0-.45s.17-.26.26-.41.34-.6.62-1.09.51-.87.66-1.15c0-.07.11-.17.19-.32s.11-.36,0-.45a1.57,1.57,0,0,0-.35-.19,6.87,6.87,0,0,0-.74-.29c-.17-.06-.29-.12-.38-.16s-.06-.06-.06-.13,0-.07.12-.09l.84-.26,1.63-.45a5.59,5.59,0,0,0,1.37-.45c.07,0,.1,0,.1-.06s0-.1-.06-.1h-2.92c-.34,0-.55-.11-.64-.35a.87.87,0,0,1,0-.61,4.4,4.4,0,0,1,.73-1.28,2.07,2.07,0,0,1,1.51-.83H274.6a1.51,1.51,0,0,1,.38,0,.6.6,0,0,1,.56.44,1.35,1.35,0,0,1-.08,1l-.06.15s0,.1-.08.16a.3.3,0,0,0-.05.14,1.09,1.09,0,0,0-.11.75.47.47,0,0,0,.4.4,1.7,1.7,0,0,0,.41,0h2.63C278.7,69.13,278.76,69.15,278.76,69.2Z"/><path class="cls-26" d="M288.68,88.43h-1.32c-.57,0-.88-.34-.92-1a5.67,5.67,0,0,1-.05-.61c0-.28,0-.46,0-.55a.58.58,0,0,1,0-.19.36.36,0,0,0,0-.19.7.7,0,0,0-.29,0h-6.14a.72.72,0,0,0-.58.38c-.11.15-.25.36-.43.63a7.28,7.28,0,0,0-.4.62,1.72,1.72,0,0,1-1.47,1h-2.63a.78.78,0,0,1-.73-.37,1.37,1.37,0,0,1-.13-1A2.07,2.07,0,0,1,274,86c1.05-1.31,1.68-2.08,1.89-2.34l3.52-3.87.13-.15.11-.12a.79.79,0,0,1,.13-.13.63.63,0,0,0,.11-.15c.17-.21.19-.36.06-.44a4.67,4.67,0,0,0-.43-.28l-.4-.24a.16.16,0,0,1-.06-.19.29.29,0,0,1,.19-.16,4.84,4.84,0,0,1,.61-.22l1.73-.51c.08,0,.12,0,.12-.07s0,0-.09,0-.86,0-2.24,0h-.32C279,77,279,77,279,77a.29.29,0,0,1,.13-.12c.3-.09.5-.14.61-.16a2.92,2.92,0,0,1,.46-.13l.56-.15.48-.11.74-.22a.35.35,0,0,0,.16-.16.13.13,0,0,0-.07-.16l-.11-.05a.75.75,0,0,0-.18-.08.75.75,0,0,1-.2-.1l-.2-.11a.8.8,0,0,0-.16-.08l-.11-.06q-.22-.16,0-.51l.35-.36c.3-.3.74-.73,1.3-1.31s.91-.92,1-1a3.78,3.78,0,0,0,.26-.29c.25-.3.26-.5,0-.61a1,1,0,0,0-.21-.11l-.22-.1a1,1,0,0,1-.21-.11l-.1,0-.17-.06-.08-.08s0-.06,0-.08.19-.23.51-.29l1.22-.26,2.24-.54.44-.16c.11,0,.15-.07.13-.13a.13.13,0,0,0-.13-.1H284.9a1.74,1.74,0,0,1-.38,0,.3.3,0,0,1-.29-.29.83.83,0,0,1,.19-.57c.6-.73,1.1-1.29,1.51-1.7a1.52,1.52,0,0,1,1.53-.45c.3.09.44.36.42.8,0,.13,0,.31,0,.53s0,.36,0,.4a1.41,1.41,0,0,0,.23.93.9.9,0,0,0,.7.38h2.88c.11,0,.16,0,.16.12s0,.13-.16.17-.81.27-1.79.55l-1.38.41-.13.1a.13.13,0,0,0,.07.19l1.15.38a1.92,1.92,0,0,0,.42.16c.3.13.4.41.32.84,0,.27-.11.68-.21,1.21s-.17.94-.21,1.22,0,.66.26.77l.53.2.68.26a1.92,1.92,0,0,1,.36.14.12.12,0,0,1,.06.16s0,.08-.13.1a2.64,2.64,0,0,1-.51.19q-1.12.36-1.47.51c-.13.07-.17.13-.13.2a1.12,1.12,0,0,0,.38,0h2.31q.09,0,.09.06s0,.09-.12.13a1.83,1.83,0,0,0-.36.11l-.62.24-.46.19c-.2.09-.29.17-.29.24s.06.15.19.21a2.45,2.45,0,0,0,.34.13l.36.13c.28.13.49.23.64.32s.3.33.26.67c-.13,1-.22,1.9-.29,2.62a24.58,24.58,0,0,0-.09,3.81,2.53,2.53,0,0,1-.2,1.12,2.91,2.91,0,0,1-.4.74,1.77,1.77,0,0,1-.54.49,1.2,1.2,0,0,1-.62.18Zm-4.55-8,.26,0h2.38c.12,0,.19-.07.21-.22.07-.34.11-.55.13-.61.13-.47,0-.78-.32-.93a10.33,10.33,0,0,1-1.28-.54c-.09,0-.12-.11-.1-.19a.38.38,0,0,1,.18-.15l.37-.14.53-.18a1.62,1.62,0,0,0,.36-.14c.32-.11.47-.19.45-.26s-.08-.13-.25-.06a3,3,0,0,0-.65.16l-.2.06-.29.08-.34.11-.4.13-.4.13a3.5,3.5,0,0,0-.51.19c-.19.09-.22.19-.09.32a1.82,1.82,0,0,0,.28.19l.52.28c.21.11.2.32,0,.62l-.25.29a1.77,1.77,0,0,0-.18.19,1.49,1.49,0,0,1-.21.22l-.16.2a.71.71,0,0,0-.16.19S284,80.43,284.13,80.43Z"/><path class="cls-27" d="M299.33,88.43v0h-4.09a1,1,0,0,1-.32,0,.77.77,0,0,1-.74-.48,1.52,1.52,0,0,1,0-1.15,28.59,28.59,0,0,1,1.22-3.23c.51-1.13,1.17-2.44,2-3.91a1.7,1.7,0,0,0,.24-.69c0-.11-.12-.23-.34-.33l-.67-.32a1.27,1.27,0,0,1-.32-.16c-.1-.11-.09-.19,0-.26a4.38,4.38,0,0,1,.55-.19c.23-.09.66-.22,1.28-.42a1.26,1.26,0,0,0,.4-.16c.05,0,.05-.07,0-.09h-2.65c-.07,0-.1,0-.1,0s.05-.1.16-.16a3.6,3.6,0,0,1,.7-.26l1-.29c.25-.08.46-.16.61-.22a.28.28,0,0,0,.19-.1c0-.06,0-.12-.1-.16a4.7,4.7,0,0,0-.51-.22l-.64-.26c-.19-.11-.29-.21-.3-.32a1.2,1.2,0,0,1,.24-.57c.1-.22.32-.59.64-1.12l.73-1.22a1.54,1.54,0,0,0,.24-.66c0-.11-.12-.22-.33-.3A4.06,4.06,0,0,0,298,71l-.5-.19-.29-.13a.14.14,0,0,1-.08-.14c0-.06.07-.09.18-.12l.57-.16.64-.16a5.84,5.84,0,0,0,.64-.16,9.09,9.09,0,0,0,1-.25l.77-.26a1.2,1.2,0,0,0,.35-.22s-.12-.07-.35-.07h-2.37a2.66,2.66,0,0,1-.51,0,.46.46,0,0,1-.45-.37,1.26,1.26,0,0,1,.09-.81,3.44,3.44,0,0,1,.93-1.31,1.67,1.67,0,0,1,1.12-.55h7.49a9,9,0,0,1,3.26.58,3.9,3.9,0,0,1,1.93,1.5,2.53,2.53,0,0,0,.89.9,2,2,0,0,0,.74.09h3c.11.05.06.14-.16.29a2.23,2.23,0,0,1-.57.29c-.17.06-.5.16-1,.29l-.33.08-.39.09a2,2,0,0,1-.35.08l-.27.07c-.21.06-.33.13-.35.19s0,.13.19.19.3.08.77.23a5.89,5.89,0,0,1,.9.32c.19.06.29.15.31.27a1.55,1.55,0,0,1-.06.59,14.15,14.15,0,0,1-.86,2.27,1.44,1.44,0,0,0-.2.64c0,.11.14.21.36.32a1.69,1.69,0,0,0,.41.16,1,1,0,0,0,.21.1l.3.09.07,0,.11,0,.11,0s.07,0,.07.07V76a1.09,1.09,0,0,1-.45.23c-.58.15-1,.27-1.38.38a4.11,4.11,0,0,0-.73.29c-.11,0-.16.08-.16.11s0,.05.12.05h2.44c.17,0,.24,0,.22.06s-.1.1-.29.16a1.46,1.46,0,0,1-.3.11l-.32.1-.34.11-.32.1-.54.19a.28.28,0,0,0-.16.16.13.13,0,0,0,.06.16l.19.08.21.11.21.1a4.43,4.43,0,0,1,.54.29c.15.12.15.32,0,.57l-.06.13a35.56,35.56,0,0,1-3.74,4.83,12.33,12.33,0,0,1-6.21,3.78,13,13,0,0,1-3,.35Zm2.5-6.46c2.17,0,3.4,0,3.68,0a5.4,5.4,0,0,0,2.08-.57,6.37,6.37,0,0,0,2.3-2c.24-.3.26-.53.07-.68l-.48-.25a2,2,0,0,1-.48-.26c-.15-.08-.23-.15-.23-.19s.14-.17.35-.26l.41-.11.62-.19.48-.14a4.79,4.79,0,0,0,.61-.23s-.06-.06-.16-.06h-2.5c-.34,0-.51,0-.51-.07a2.09,2.09,0,0,1,.61-.25l.57-.16.74-.19.41-.1c.41-.11.62-.2.64-.29s0-.12-.08-.16a2.87,2.87,0,0,0-.4-.16,6.2,6.2,0,0,1-1.15-.45.5.5,0,0,1-.16-.54,1.51,1.51,0,0,0-.7-1.82,3,3,0,0,0-1.38-.29c-.42,0-1,0-1.84,0h-1.65c-.12,0-.25.09-.38.28s-.27.52-.5.9l-.49.83a.92.92,0,0,0-.18.48c0,.11.09.19.24.26l.66.3.56.24c.08,0,.1.1.06.16s0,.08-.16.1a4.52,4.52,0,0,1-.57.22,13,13,0,0,0-1.83.58c-.1,0-.16.08-.16.13s.05,0,.13,0h2.43c.17,0,.26,0,.26,0s-.1.13-.29.19a5.16,5.16,0,0,1-.7.23l-.4.12-.47.16a1.54,1.54,0,0,0-.35.13c-.13.09-.14.16,0,.23a1.25,1.25,0,0,0,.38.22l.71.35c.17.09.25.18.25.29a1.19,1.19,0,0,1-.19.51c-.09.17-.18.36-.29.56l-.32.61c-.1.2-.2.38-.29.53s-.19.36-.25.51a1.18,1.18,0,0,0-.07.21s.06,0,.16,0Z"/><path class="cls-28" d="M336.42,69.13c.17,0,.26,0,.26,0s-.11.09-.32.16c-.75.23-1.74.48-3,.73a7.63,7.63,0,0,0-1,.26c-.15,0-.23.06-.23.13s0,.11.13.16a1.9,1.9,0,0,1,.27.11l.24.11a4.75,4.75,0,0,1,.45.22c.17.11.16.28,0,.52a3.11,3.11,0,0,0-.39.35l-1.32,1.2c-.59.52-1,.91-1.3,1.17s-.3.28-.38.35-.19.35,0,.48a.72.72,0,0,0,.29.19l.23.11.22.11q.19.1.21.21c0,.08-.09.15-.31.21l-.4.1q-.27.06-.27.09c-.66.15-1.11.26-1.34.34a6.52,6.52,0,0,0-.93.37c-.15.06-.21.11-.19.16s.05,0,.16,0H330c.06,0,.1,0,.1.06a.32.32,0,0,1-.1.1,4,4,0,0,1-.77.29c-1.43.4-2.15.61-2.17.64-.2.06-.23.14-.1.25a1.26,1.26,0,0,0,.22.16.58.58,0,0,1,.13.1,2.48,2.48,0,0,1,.42.29c.15.14.11.3-.1.48a3.34,3.34,0,0,0-.32.38c-.1.15-.18.26-.22.34s-.13.23-.26.48l-.22.4a40.17,40.17,0,0,0-2.21,5s-.09.29-.26.83a2.92,2.92,0,0,1-.51,1,2.57,2.57,0,0,1-.54.51,1,1,0,0,1-.58.19h-2.88a.79.79,0,0,1-.72-.48,1.5,1.5,0,0,1,0-1.09,23.09,23.09,0,0,1,1.44-3.68c.21-.47.71-1.49,1.5-3.07q.39-.73,0-1a8.29,8.29,0,0,0-1.44-.68c-.15,0-.24-.08-.26-.12s-.13-.2.07-.26l.6-.24.68-.27a1.93,1.93,0,0,0,.54-.26c.06,0,.09-.08.06-.13A.08.08,0,0,0,322,77h-2.72c-.11,0-.17,0-.19-.07s0-.19.22-.32.41-.19.58-.25l.76-.29.42-.14c.09,0,.13-.08.13-.15a.13.13,0,0,0-.07-.16q-.12-.06-1.53-.54-.48-.16-.42-.87c0-.27.05-.67.08-1.2s.05-.9.05-1.13c0-.45-.09-.73-.38-.83l-.56-.18-.47-.14a1.9,1.9,0,0,0-.33-.12l-.4-.11c-.09,0-.13-.08-.13-.13a.19.19,0,0,1,.16-.12s.08-.05.19-.08l.38-.12.45-.12.47-.15.36-.11a7.68,7.68,0,0,0,1.19-.42c.1,0,.16-.08.16-.12s-.07-.07-.19-.07h-.55c-1,0-1.78,0-2.21,0a1.31,1.31,0,0,1-1.05-.73c-.11-.17-.08-.43.09-.77a3,3,0,0,1,.84-1.09,1.66,1.66,0,0,1,1.05-.45h3c.49,0,.75.26.77.84v.36a1.7,1.7,0,0,0,0,.37,1.62,1.62,0,0,0,.29,1,2.26,2.26,0,0,0,.27.27,1.24,1.24,0,0,0,.32.13,3.07,3.07,0,0,0,.59,0h2.56c.07,0,.09,0,.08.07a.3.3,0,0,1-.11.13,1.39,1.39,0,0,1-.38.16c-.41.14-1.19.37-2.34.67a1.63,1.63,0,0,0-.32.13c-.13.06-.14.13,0,.22l.22.1.45.12a3.63,3.63,0,0,0,.48.13c.19.07.41.15.64.26s.37.34.35.7-.08.77-.13,1.47c0,.13,0,.2,0,.21s.08,0,.19-.11c.3-.3.89-.86,1.79-1.7l.19-.16c.15-.19.16-.34,0-.44a.63.63,0,0,0-.28-.16,1.8,1.8,0,0,0-.31-.15l-.3-.11a.62.62,0,0,1-.19-.13c-.11-.08-.1-.16,0-.22l.38-.1,2.21-.51c.58-.13,1.14-.28,1.7-.45q.12,0,.12-.09s0,0-.12,0h-.42l-2.3,0c-.22,0-.32,0-.32-.16a.85.85,0,0,1,.16-.73,8.49,8.49,0,0,1,1.92-1.92,1.1,1.1,0,0,1,.64-.2c.83,0,1.84,0,3,0a.61.61,0,0,1,.65.44,1.64,1.64,0,0,1-.11,1.1.36.36,0,0,0-.06.11l-.08.19a2.44,2.44,0,0,0-.1.24c0,.09-.07.17-.11.26s-.08.16-.1.22q-.2.45.45.45c.32,0,.77,0,1.36,0Z"/><path class="cls-29" d="M352.16,69.13h3.24s0,0,.08,0,0,0,0,.06-.05,0-.11.06a10.26,10.26,0,0,1-1.16.36c-.38.1-.94.24-1.69.41l-.8.23a.25.25,0,0,0-.16.16q0,.09.09.12a1,1,0,0,0,.29.13.74.74,0,0,1,.23.1,4.81,4.81,0,0,1,.76.32c.24.1.25.34,0,.7s-.65,1.13-1.32,2.31a1.25,1.25,0,0,0-.27.62c0,.12.12.23.34.34l.53.17.49.18c.22.08.32.16.32.22s-.17.16-.44.23c-.62.17-1,.28-1.22.35a4.42,4.42,0,0,0-1.19.51c-.17.13-.24.21-.22.26s.06,0,.19,0h2.67c.06,0,.08,0,.08.08s0,.09-.16.13a4.38,4.38,0,0,1-.54.23l-.83.22a6.48,6.48,0,0,0-.71.19,1.4,1.4,0,0,0-.41.13c-.13.06-.14.14,0,.22a.49.49,0,0,0,.22.13l.21.07a1.68,1.68,0,0,1,.24.08l.22.08a1.39,1.39,0,0,1,.42.19q.26.12.27.27a1.14,1.14,0,0,1-.21.53l-1.47,2.85a36.43,36.43,0,0,0-1.76,4.32,4.51,4.51,0,0,1-.35.76,1.52,1.52,0,0,1-1.25.9q-1.72,0-2.91,0a.75.75,0,0,1-.72-.53,2,2,0,0,1,.05-1.23A32,32,0,0,1,345,82.29c.08-.13.53-1,1.34-2.6a.76.76,0,0,0,.1-.12.35.35,0,0,0,.06-.16c.13-.26.12-.43,0-.52a2.26,2.26,0,0,0-.45-.25,2.29,2.29,0,0,0-.38-.15l-.35-.11a.71.71,0,0,1-.26-.09c-.13-.09-.11-.18.06-.26a2.61,2.61,0,0,1,.42-.16,15,15,0,0,0,2.08-.67c.09,0,.13-.06.13-.1s0-.06-.07-.06H345c-.2,0-.29,0-.29-.07a2.92,2.92,0,0,1,.41-.32,9.36,9.36,0,0,1,1.8-.64l.73-.19c.13,0,.21-.09.23-.16a.12.12,0,0,0,0-.08.26.26,0,0,0-.16-.08l-1.05-.38a.91.91,0,0,1-.32-.19q-.19-.17,0-.48s.08-.16.19-.36l1.28-2.2a1.17,1.17,0,0,0,.21-.53q0-.15-.24-.27a4.85,4.85,0,0,0-.55-.23c-.23-.08-.39-.15-.48-.19s-.31-.17-.3-.24.15-.16.43-.24.44-.09.86-.19.76-.18,1-.23c.49-.12,1-.26,1.44-.41.12,0,.19-.1.19-.16s0,0-.13,0a5.8,5.8,0,0,0-.74,0H347a.4.4,0,0,1-.4-.24.92.92,0,0,1,0-.62,3.68,3.68,0,0,1,1-1.58,1.71,1.71,0,0,1,1.2-.6h3a.71.71,0,0,1,.24.13.76.76,0,0,1,.17.23.66.66,0,0,1,.08.3.8.8,0,0,1,0,.37,4,4,0,0,1-.26.77,1.55,1.55,0,0,0-.19.86C351.77,69,351.91,69.15,352.16,69.13Z"/><path class="cls-30" d="M370.37,69.13h-2.72a.56.56,0,0,1-.56-.43,1.39,1.39,0,0,1,.15-.94,3.08,3.08,0,0,1,.88-1.2,1.77,1.77,0,0,1,1.13-.47h2.27c.41,0,.67.14.77.42a1.72,1.72,0,0,1-.16,1.22c-.23.51-.27.89-.09,1.15a.58.58,0,0,0,.51.25h3c.09,0,.13,0,.13.07s0,.08-.16.13l-1.09.35c-.27.08-1,.26-2.2.54l-.32.1a.27.27,0,0,0-.13.13.14.14,0,0,0,.06.16,3.11,3.11,0,0,0,.59.27,3.49,3.49,0,0,1,.76.37q.15.15,0,.48a1.62,1.62,0,0,1-.23.38,5.12,5.12,0,0,1-.38.7c-.17.28-.33.54-.47.79l-.4.69a1.42,1.42,0,0,0-.19.49c0,.1.08.18.23.24l.89.35a2.68,2.68,0,0,1,.48.23.08.08,0,0,1,.05.09.22.22,0,0,1-.11.13c-.11,0-.28.1-.51.16a15.66,15.66,0,0,0-1.83.55c-.42.19-.62.34-.57.44s.07.07.22.07h2.53c.17,0,.26,0,.29.09s-.12.17-.29.26a5.19,5.19,0,0,1-.74.29l-.46.13-.5.12-.45.13a1.54,1.54,0,0,0-.54.19.13.13,0,0,0,.06.16,1,1,0,0,0,.26.13s.06,0,.06,0l.32.12.42.14a1.28,1.28,0,0,1,.26.1q.26.15.27.3a1.29,1.29,0,0,1-.21.56c-1,1.71-1.68,3.07-2.14,4.1l-.56,1.29c-.25.57-.44,1-.56,1.23a5.93,5.93,0,0,1-.48.87,2,2,0,0,1-1.09.75.75.75,0,0,1-.87-.4,48.33,48.33,0,0,1-2.56-5c-.44-1.07-.82-2-1.12-2.85a1.14,1.14,0,0,0-.83-.83,6.4,6.4,0,0,0-.78-.24l-.79-.21a1.24,1.24,0,0,1-.28-.13c-.05,0-.06-.07-.05-.14a.17.17,0,0,1,.11-.15,4.08,4.08,0,0,0,.42-.19,3.44,3.44,0,0,0,.46-.14,5.45,5.45,0,0,1,.53-.18.12.12,0,0,1,.09,0l.18-.08.08,0a.12.12,0,0,0,0-.09c0-.09-.13-.1-.32,0a4.82,4.82,0,0,0-.77.23c-.89.25-1.43.41-1.6.48-.34.13-.51.22-.51.29a.18.18,0,0,0,.05.19.55.55,0,0,0,.24.09s0,0,.06,0l.39.12.45.16a.91.91,0,0,1,.25.13c.13.13.14.31,0,.55,0,.06-.12.22-.25.48a51.24,51.24,0,0,0-2.69,5.31c-.17.38-.36.86-.58,1.44a3.53,3.53,0,0,1-.51.89,1.63,1.63,0,0,1-1.21.74h-2.53a.7.7,0,0,1-.72-.48,1.7,1.7,0,0,1,.08-1.18,44.48,44.48,0,0,1,3-6.34,2.13,2.13,0,0,1,.19-.37,2.51,2.51,0,0,0,.22-.43c.17-.3.16-.51,0-.64l-.24-.1-.37-.14-.38-.16-.26-.11c-.15,0-.21-.1-.2-.16s.12-.13.33-.19.62-.23,1-.36a9.1,9.1,0,0,0,1.4-.48c.11,0,.16-.09.16-.16s0-.09-.12-.09h-2.72c-.11,0-.16,0-.16-.1s.26-.24.8-.48c.15-.06.74-.24,1.79-.54.25-.09.39-.17.41-.26s-.09-.11-.28-.19-.22-.09-.53-.19a2.8,2.8,0,0,1-.56-.23c-.17-.08-.26-.18-.26-.28a1.44,1.44,0,0,1,.19-.52c.11-.17.22-.35.34-.56l.32-.54.32-.54.3-.53a1.42,1.42,0,0,0,.28-.67c0-.13-.14-.25-.37-.36l-.83-.32-.29-.12a.15.15,0,0,1-.05-.15.24.24,0,0,1,.14-.14,2.53,2.53,0,0,1,.42-.1l1.86-.45a8.44,8.44,0,0,0,1.4-.44c.09,0,.12-.09.1-.13s0,0-.1,0-1.1,0-2.91,0a.62.62,0,0,1-.64-.54,1.05,1.05,0,0,1,.13-.77,3,3,0,0,1,.75-.93,1.73,1.73,0,0,1,.91-.44.65.65,0,0,1,.74.35q.09.15.27.51l.27.51a2.51,2.51,0,0,0,1,1.09,1.77,1.77,0,0,0,.9.22h2.72c.28,0,.42.07.42.13s-.19.22-.48.32q-.17,0-1.44.45a6.41,6.41,0,0,0-.64.22c-.13,0-.2.1-.21.16s0,.12.11.16a2.35,2.35,0,0,0,.51.16c.41.13.78.24,1.12.32a1.65,1.65,0,0,1,1.12,1.09c.09.22.22.56.4,1l.43,1.08a1.15,1.15,0,0,0,.71.77l.7.19a5.21,5.21,0,0,0,.64.16,6.08,6.08,0,0,1,.71.23.15.15,0,0,1,.09.19.39.39,0,0,1-.22.19l-.74.26-.3.11a1.07,1.07,0,0,1-.31.08c-.23.09-.34.16-.33.24s.07.1.17.08.42-.11,1.12-.32l1.41-.42c.3-.1.47-.2.51-.28a.21.21,0,0,0-.06-.16.38.38,0,0,0-.22-.1l-.24-.1-.36-.14a1.6,1.6,0,0,0-.3-.11c-.24-.11-.36-.22-.37-.32a1.61,1.61,0,0,1,.27-.67c.58-1,.95-1.64,1.12-2l.26-.41c.11-.26.1-.44,0-.55s-.43-.2-1.22-.54c-.15-.06-.21-.13-.19-.19s.11-.13.32-.19a8.79,8.79,0,0,1,1-.26l2.11-.54c.32-.09.48-.18.48-.26S370.61,69.13,370.37,69.13Z"/><path class="cls-31" d="M389.28,69.13h-2.49c-.22,0-.32-.06-.32-.19s.07-.31.29-.48.48-.38.67-.51A15.17,15.17,0,0,1,391.81,66a10.93,10.93,0,0,1,5.79,0,5.16,5.16,0,0,1,3,2.14l.11.18.11.17a1,1,0,0,0,.1.16.38.38,0,0,0,.11.13l.11.1a.46.46,0,0,0,.15.09l.17.07a2.23,2.23,0,0,0,.71.09h2.48l.36,0c.2,0,.29.05.29.1s-.13.18-.38.29a9.33,9.33,0,0,1-1.89.6l-.24,0-.45.1-.33.08c-.26.06-.4.14-.42.22s0,.13.16.19l.1,0,.17.09.19.07.18.06a2.85,2.85,0,0,1,.42.19c.17.09.25.17.25.26s-.11.2-.35.35l-.48.29-3.52,1.6a2.07,2.07,0,0,1-.64.16.41.41,0,0,1-.51-.23,2.16,2.16,0,0,0-1.63-1.15,8.16,8.16,0,0,0-4,.26,6.93,6.93,0,0,0-2.47,1.41,3.46,3.46,0,0,0-.45.38c-.25.23-.39.41-.4.53s.09.23.31.33l.35.13.32.13a2.94,2.94,0,0,1,.45.19c.1.07.08.13-.07.19s-.3.1-.51.16l-1.41.42a3.94,3.94,0,0,0-.73.32c-.11,0-.16.07-.16.1s0,0,.13,0h.35c1.19,0,1.93,0,2.21,0q.12,0,.12,0s-.05.08-.16.1-.38.15-.89.32-.87.26-.93.29-.3.16-.32.22,0,.11.19.19c.64.3,1,.47,1.12.51s.3.38.19.74a3.58,3.58,0,0,0-.09.45,1.67,1.67,0,0,0,.32,1.41,2,2,0,0,0,1.15.64,8.68,8.68,0,0,0,4.48-.23,9.4,9.4,0,0,0,1.54-.7,1.94,1.94,0,0,1,.73-.32.56.56,0,0,1,.64.16l1.7,1.57c.3.25.35.67.16,1.24a3.44,3.44,0,0,1-1,1.48,15.94,15.94,0,0,1-4.92,3,12,12,0,0,1-4.52.68,8.15,8.15,0,0,1-3.61-.87,5.3,5.3,0,0,1-2.05-1.76,5.69,5.69,0,0,1-.74-4.22,11.49,11.49,0,0,1,.77-2.47,1,1,0,0,0,.13-.52c0-.1-.11-.19-.26-.28a2.62,2.62,0,0,0-.64-.32,3.77,3.77,0,0,0-.48-.22.15.15,0,0,1,0-.16.18.18,0,0,1,.13-.16l.54-.22,1-.32a.37.37,0,0,0,.16,0l.18-.07.15,0s.06,0,.06-.07v0h-2.66s-.06,0-.06,0a.18.18,0,0,1,.06-.13,4.47,4.47,0,0,1,.55-.23c.17-.06.46-.15.86-.25l.37-.1.4-.09.29-.1c.1,0,.16-.1.16-.16s0-.11,0-.13l-.8-.32a2,2,0,0,1-.36-.19c-.17-.09-.25-.18-.25-.29a.94.94,0,0,1,.25-.48,30.35,30.35,0,0,1,2.05-2.46,2.67,2.67,0,0,0,.35-.35c.19-.22.21-.39,0-.52a.62.62,0,0,0-.23-.16,3.76,3.76,0,0,1-.45-.16s0,0-.06,0-.27-.18-.24-.29.17-.18.43-.22q1-.19,2.37-.51,1.75-.42,2-.51c.09,0,.13-.09.13-.13s0-.07-.09-.07Z"/><path class="cls-32" d="M414.47,88.43h-1.32c-.57,0-.88-.34-.92-1a5.67,5.67,0,0,1-.05-.61c0-.28,0-.46,0-.55a.58.58,0,0,1,0-.19.36.36,0,0,0,0-.19.7.7,0,0,0-.29,0h-6.14a.72.72,0,0,0-.58.38c-.11.15-.25.36-.43.63a7.28,7.28,0,0,0-.4.62,1.72,1.72,0,0,1-1.47,1h-2.63a.78.78,0,0,1-.73-.37,1.42,1.42,0,0,1-.13-1,2.07,2.07,0,0,1,.51-1.12l1.89-2.34,3.52-3.87.13-.15.11-.12a.79.79,0,0,1,.13-.13.63.63,0,0,0,.11-.15c.17-.21.19-.36.06-.44a4.67,4.67,0,0,0-.43-.28l-.4-.24a.16.16,0,0,1-.06-.19.29.29,0,0,1,.19-.16,4.84,4.84,0,0,1,.61-.22l1.73-.51c.08,0,.12,0,.12-.07s0,0-.09,0-.86,0-2.24,0h-.32c-.09,0-.13,0-.13-.07a.29.29,0,0,1,.13-.12c.3-.09.5-.14.61-.16a2.92,2.92,0,0,1,.46-.13l.56-.15.48-.11.74-.22a.35.35,0,0,0,.16-.16.13.13,0,0,0-.07-.16l-.11-.05a.75.75,0,0,0-.18-.08.75.75,0,0,1-.2-.1l-.2-.11a.8.8,0,0,0-.16-.08l-.11-.06q-.23-.16,0-.51c.07-.07.18-.19.36-.36s.73-.73,1.29-1.31.91-.92,1-1a3.78,3.78,0,0,0,.26-.29c.25-.3.26-.5,0-.61a1,1,0,0,0-.21-.11l-.22-.1a1,1,0,0,1-.21-.11l-.1,0-.17-.06a.6.6,0,0,1-.08-.08s0-.06,0-.08.19-.23.51-.29l1.22-.26,2.24-.54.44-.16c.11,0,.15-.07.13-.13a.13.13,0,0,0-.13-.1h-2.59a1.74,1.74,0,0,1-.38,0,.3.3,0,0,1-.29-.29.83.83,0,0,1,.19-.57c.6-.73,1.1-1.29,1.51-1.7a1.52,1.52,0,0,1,1.53-.45c.3.09.44.36.42.8,0,.13,0,.31,0,.53s0,.36,0,.4a1.41,1.41,0,0,0,.23.93.9.9,0,0,0,.7.38h2.88c.11,0,.16,0,.16.12s-.05.13-.16.17-.81.27-1.79.55l-1.38.41-.13.1a.13.13,0,0,0,.07.19l1.15.38a1.92,1.92,0,0,0,.42.16c.3.13.4.41.32.84-.05.27-.11.68-.21,1.21s-.17.94-.21,1.22,0,.66.26.77l.53.2.68.26a1.92,1.92,0,0,1,.36.14.12.12,0,0,1,.06.16s0,.08-.13.1a2.64,2.64,0,0,1-.51.19q-1.12.36-1.47.51c-.13.07-.17.13-.13.2a1.12,1.12,0,0,0,.38,0H418q.09,0,.09.06s0,.09-.12.13a1.83,1.83,0,0,0-.36.11l-.62.24-.46.19c-.2.09-.29.17-.29.24s.06.15.19.21a2.45,2.45,0,0,0,.34.13l.36.13c.28.13.49.23.64.32s.3.33.26.67c-.13,1-.22,1.9-.29,2.62a24.58,24.58,0,0,0-.09,3.81,2.53,2.53,0,0,1-.2,1.12,2.91,2.91,0,0,1-.4.74,1.77,1.77,0,0,1-.54.49,1.2,1.2,0,0,1-.62.18Zm-4.55-8,.26,0h2.38c.12,0,.19-.07.21-.22.07-.34.11-.55.13-.61.13-.47,0-.78-.32-.93a10.33,10.33,0,0,1-1.28-.54c-.09,0-.12-.11-.1-.19a.38.38,0,0,1,.18-.15l.37-.14.53-.18a1.62,1.62,0,0,0,.36-.14c.32-.11.47-.19.45-.26S413,77,412.84,77a3,3,0,0,0-.65.16l-.2.06-.29.08-.34.11a3.76,3.76,0,0,1-.4.13l-.4.13a3.5,3.5,0,0,0-.51.19c-.19.09-.22.19-.09.32a1.82,1.82,0,0,0,.28.19l.52.28c.21.11.2.32,0,.62l-.25.29a1.77,1.77,0,0,0-.18.19,1.49,1.49,0,0,1-.21.22l-.16.2a.71.71,0,0,0-.16.19S409.82,80.43,409.92,80.43Z"/><path class="cls-33" d="M430.47,66.09H435a4.6,4.6,0,0,1,2.24.52,3.35,3.35,0,0,1,1.22,1.21l.16.27.16.31a1.17,1.17,0,0,0,.16.25,1.26,1.26,0,0,0,.16.2.92.92,0,0,0,.64.25c.53,0,1.46,0,2.78,0h0c.26,0,.39,0,.39.1s-.17.15-.52.26l-.86.24-1.14.32-.56.14c-.12,0-.2.08-.22.13s0,.13.13.19l.22.06.42.16.46.2.34.12a.45.45,0,0,1,.25.29.79.79,0,0,1-.12.48c-.17.41-.46,1-.87,1.76a4.79,4.79,0,0,1-.3.53c-.14.22-.22.35-.24.37-.19.34-.18.56,0,.67l.74.32a2.6,2.6,0,0,0,.41.19.13.13,0,0,1,.07.16c0,.07-.06.12-.16.16a1.71,1.71,0,0,0-.29.08l-.27.08-.32.08-.34.1-.3.09a2,2,0,0,1-.27.08,7.49,7.49,0,0,0-.87.29c-.19.09-.29.15-.29.19s.07.07.21.07h2.64c.09,0,.13,0,.13,0s-.09.09-.26.17a8.69,8.69,0,0,1-1.37.42l-1.64.41c-.12,0-.19.06-.19.12s.07.11.19.17c.52.26.78.4.8.42.18.1.15.24-.06.41a2.67,2.67,0,0,1-.48.32,9.18,9.18,0,0,1-2.24,1,1.18,1.18,0,0,0-.34.16.85.85,0,0,0,0,.39,34.56,34.56,0,0,0,.83,4.61,1.22,1.22,0,0,0,.06.28,2.58,2.58,0,0,1-.12,1.11,2.54,2.54,0,0,1-.55,1,1.38,1.38,0,0,1-1,.45h-3.52a.75.75,0,0,1-.74-.61c-.15-.49-.28-.93-.41-1.34a31.28,31.28,0,0,1-.83-5.09v-.29c0-.15-.08-.22-.23-.22h-1c-.13,0-.24.09-.32.26s-.25.46-.48.94-.41.85-.52,1.1a28.43,28.43,0,0,0-1.44,3.62,2.11,2.11,0,0,1-.25.61,1.6,1.6,0,0,1-1.41,1h-2.75A.76.76,0,0,1,420,88a1.58,1.58,0,0,1,0-1.3A34.64,34.64,0,0,1,421.44,83c.32-.64.89-1.75,1.7-3.33a1.35,1.35,0,0,0,.24-.6c0-.11-.12-.21-.34-.29l-.65-.24-.66-.24c-.08,0-.12-.09-.1-.13a.45.45,0,0,1,.16-.13l1-.29a12.88,12.88,0,0,0,1.37-.41c.3-.11.43-.21.39-.29s-.05,0-.13,0h-2.69c-.13,0-.18,0-.16-.07s.05-.11.16-.16a9.21,9.21,0,0,1,1.18-.48l.61-.17.63-.18a.93.93,0,0,0,.27-.09.12.12,0,0,0,0-.16s-.12-.08-.35-.16-.46-.16-.61-.23l-.39-.16a.36.36,0,0,1-.22-.29,1.11,1.11,0,0,1,.19-.48l.71-1.21.73-1.28a1.38,1.38,0,0,0,.24-.63c0-.11-.12-.23-.33-.33l-1-.39c-.17-.08-.25-.16-.24-.22s.13-.12.34-.16l.74-.18a6.36,6.36,0,0,0,.92-.24,16.21,16.21,0,0,0,1.7-.48l.13-.09s0-.07-.1-.07h-1.36l-1.09,0h-.52c-.24,0-.39-.07-.45-.22a1.38,1.38,0,0,1,0-1,3.07,3.07,0,0,1,.91-1.3,1.93,1.93,0,0,1,1.2-.53C425.92,66.08,427.54,66.09,430.47,66.09Zm4,6.28c-2.65,0-4.25,0-4.8,0a.49.49,0,0,0-.42.29c-.13.24-.31.56-.56,1s-.41.71-.49.88-.18.54,0,.67a1.79,1.79,0,0,0,1,.32h5.12c.06,0,.1,0,.11,0s0-.09-.08-.17,0-.4.19-.74a9.88,9.88,0,0,0,.68-1.12c.25-.51.21-.83-.13-1A2.9,2.9,0,0,0,434.5,72.37Z"/><path class="cls-34" d="M444.71,66.09h13.82a.59.59,0,0,1,.54.39,1.23,1.23,0,0,1,0,.89l-.25.58a1.68,1.68,0,0,0-.05.69,1.25,1.25,0,0,0,.11.4c0,.06.15.09.32.09h3.07c.05,0,.07,0,.07,0s0,.09-.13.16a5.17,5.17,0,0,1-.67.22l-.85.19-1,.23c-.38.1-.7.2-1,.28s-.19.06-.2.12,0,.1.11.14a5.43,5.43,0,0,0,.64.29,3.37,3.37,0,0,1,.67.32q.22.19-.06.51a2.78,2.78,0,0,1-1.48.93h-4.12a.7.7,0,0,0-.24,0,.22.22,0,0,0-.13.1l-.18.28c-.51.86-.81,1.35-.89,1.48-.2.36-.18.6,0,.73l.86.35.42.16c.08,0,.12.1.11.16s-.08.12-.21.16l-.51.16c-.47.11-.86.22-1.18.32a4,4,0,0,0-.68.26c-.17.11-.25.19-.25.26s.05,0,.16,0h2.65c.09,0,.13,0,.13.09s0,.09-.13.13a5.83,5.83,0,0,1-1.28.45c-.79.21-1.2.33-1.24.35a.26.26,0,0,0-.2.13c0,.06,0,.12.13.16a3.33,3.33,0,0,0,.37.14l.34.12c.36.14.58.24.67.28s.2.32,0,.64c-.06.15-.22.47-.48,1s-.46.85-.61,1.1a37.41,37.41,0,0,0-2.21,5.28,2.55,2.55,0,0,1-.44.87,1.44,1.44,0,0,1-1.16.73q-2.13,0-2.88,0a.73.73,0,0,1-.72-.45,1.63,1.63,0,0,1,0-1.12A23.12,23.12,0,0,1,446,83.28c.29-.62.9-1.82,1.82-3.59a1.27,1.27,0,0,0,.21-.57c0-.11-.11-.2-.31-.29a5.45,5.45,0,0,0-.52-.21l-.5-.17c-.26-.11-.38-.19-.38-.23s.11-.16.35-.22c1.43-.43,2.24-.69,2.43-.77a.19.19,0,0,0,.1-.13s0,0-.08,0l-.28,0h-2.52a.13.13,0,0,1-.1,0c0-.05,0-.09.1-.13a6.91,6.91,0,0,1,.7-.29,9.55,9.55,0,0,1,1.18-.38l.68-.2c.12,0,.19-.09.2-.16s0-.11-.11-.16l-.29-.09s-.07-.06-.22-.11l-.35-.12-.42-.19a.33.33,0,0,1-.19-.27,1.13,1.13,0,0,1,.16-.46s.3-.47.83-1.41a1.27,1.27,0,0,0,.16-.29c.07-.11.05-.17,0-.19h-4.26c-.4,0-.56-.31-.48-.8s0-.63-.28-.74l-.31-.13-.33-.12-.29-.13a2.11,2.11,0,0,1-.27-.16.13.13,0,0,1-.05-.16s.18-.11.48-.19c1.24-.28,1.87-.43,1.92-.45.34-.09.77-.22,1.28-.39.08,0,.12-.08.09-.12s0,0-.09,0h-2.95c-.27,0-.42,0-.44-.16a1.5,1.5,0,0,1,0-1.08,3.59,3.59,0,0,1,.92-1.27A1.7,1.7,0,0,1,444.71,66.09Z"/></g></g></svg>