<svg xmlns="http://www.w3.org/2000/svg" xmlns:xlink="http://www.w3.org/1999/xlink" viewBox="0 0 495.31 114.05"><defs><style>.cls-1{mask:url(#mask);filter:url(#luminosity-noclip-2);}.cls-2{mix-blend-mode:multiply;fill:url(#Безымянный_градиент_50);}.cls-3{fill:url(#Безымянный_градиент_52);}.cls-4{fill:#00d0ff;}.cls-5{fill:url(#Безымянный_градиент_49);}.cls-6{fill:#00bcfc;}.cls-7{fill:url(#Безымянный_градиент_101);}.cls-8{fill:url(#Безымянный_градиент_101-2);}.cls-9{fill:url(#Безымянный_градиент_101-3);}.cls-10{fill:url(#Безымянный_градиент_101-4);}.cls-11{fill:url(#Безымянный_градиент_101-5);}.cls-12{fill:url(#Безымянный_градиент_101-6);}.cls-13{fill:url(#Безымянный_градиент_101-7);}.cls-14{fill:url(#Безымянный_градиент_101-8);}.cls-15{fill:url(#Безымянный_градиент_101-9);}.cls-16{fill:url(#Безымянный_градиент_101-10);}.cls-17{fill:url(#Безымянный_градиент_49-2);}.cls-18{fill:url(#Безымянный_градиент_49-3);}.cls-19{fill:url(#Безымянный_градиент_49-4);}.cls-20{fill:url(#Безымянный_градиент_49-5);}.cls-21{fill:url(#Безымянный_градиент_49-6);}.cls-22{fill:url(#Безымянный_градиент_49-7);}.cls-23{fill:url(#Безымянный_градиент_49-8);}.cls-24{fill:url(#Безымянный_градиент_49-9);}.cls-25{fill:url(#Безымянный_градиент_49-10);}.cls-26{fill:url(#Безымянный_градиент_49-11);}.cls-27{fill:url(#Безымянный_градиент_49-12);}.cls-28{fill:url(#Безымянный_градиент_49-13);}.cls-29{fill:url(#Безымянный_градиент_49-14);}.cls-30{fill:url(#Безымянный_градиент_49-15);}.cls-31{fill:url(#Безымянный_градиент_49-16);}.cls-32{fill:url(#Безымянный_градиент_49-17);}.cls-33{fill:url(#Безымянный_градиент_49-18);}.cls-34{fill:url(#Безымянный_градиент_49-19);}.cls-35{fill:url(#Безымянный_градиент_49-20);}.cls-36{fill:url(#Безымянный_градиент_49-21);}.cls-37{mask:url(#mask-2);}.cls-38{fill:url(#Безымянный_градиент_54);}.cls-39{fill:url(#Безымянный_градиент_49-22);}.cls-40{fill:url(#Безымянный_градиент_49-23);}.cls-41{fill:url(#Безымянный_градиент_49-24);}.cls-42{fill:url(#Безымянный_градиент_49-25);}.cls-43{fill:url(#Безымянный_градиент_49-26);}.cls-44{fill:url(#Безымянный_градиент_49-27);}.cls-45{fill:url(#Безымянный_градиент_49-28);}.cls-46{fill:url(#Безымянный_градиент_49-29);}.cls-47{fill:url(#Безымянный_градиент_49-30);}.cls-48{fill:url(#Безымянный_градиент_49-31);}.cls-49{fill:url(#Безымянный_градиент_49-32);}.cls-50{fill:url(#Безымянный_градиент_49-33);}.cls-51{fill:url(#Безымянный_градиент_49-34);}.cls-52{fill:url(#Безымянный_градиент_49-35);}.cls-53{fill:url(#Безымянный_градиент_49-36);}.cls-54{fill:url(#Безымянный_градиент_49-37);}.cls-55{fill:url(#Безымянный_градиент_49-38);}.cls-56{fill:url(#Безымянный_градиент_49-39);}.cls-57{fill:url(#Безымянный_градиент_49-40);}.cls-58{fill:url(#Безымянный_градиент_49-41);}.cls-59{fill:url(#Безымянный_градиент_49-42);}.cls-60{fill:url(#Безымянный_градиент_49-43);}.cls-61{fill:url(#Безымянный_градиент_49-44);}.cls-62{fill:url(#Безымянный_градиент_49-45);}.cls-63{fill:url(#Безымянный_градиент_49-46);}.cls-64{fill:url(#Безымянный_градиент_49-47);}.cls-65{fill:url(#Безымянный_градиент_49-48);}.cls-66{fill:url(#Безымянный_градиент_49-49);}.cls-67{fill:url(#Безымянный_градиент_49-50);}.cls-68{fill:url(#Безымянный_градиент_49-51);}.cls-69{fill:url(#Безымянный_градиент_49-52);}.cls-70{fill:url(#Безымянный_градиент_49-53);}.cls-71{fill:url(#Безымянный_градиент_49-54);}.cls-72{fill:url(#Безымянный_градиент_49-55);}.cls-73{fill:url(#Безымянный_градиент_49-56);}.cls-74{fill:url(#Безымянный_градиент_49-57);}.cls-75{fill:url(#Безымянный_градиент_49-58);}.cls-76{fill:url(#Безымянный_градиент_49-59);}.cls-77{fill:url(#Безымянный_градиент_49-60);}.cls-78{fill:url(#Безымянный_градиент_49-61);}.cls-79{fill:url(#Безымянный_градиент_49-62);}.cls-80{fill:url(#Безымянный_градиент_49-63);}.cls-81{fill:url(#Безымянный_градиент_49-64);}.cls-82{fill:url(#Безымянный_градиент_49-65);}.cls-83{fill:url(#Безымянный_градиент_49-66);}.cls-84{fill:url(#Безымянный_градиент_49-67);}.cls-85{fill:url(#Безымянный_градиент_49-68);}.cls-86{fill:url(#Безымянный_градиент_49-69);}.cls-87{fill:url(#Безымянный_градиент_49-70);}.cls-88{fill:url(#Безымянный_градиент_49-71);}.cls-89{fill:#fff;}.cls-90{filter:url(#luminosity-noclip);}</style><filter id="luminosity-noclip" x="8.61" y="-8249.21" width="62.9" height="32766" filterUnits="userSpaceOnUse" color-interpolation-filters="sRGB"><feFlood flood-color="#fff" result="bg"/><feBlend in="SourceGraphic" in2="bg"/></filter><mask id="mask" x="8.61" y="-8249.21" width="62.9" height="32766" maskUnits="userSpaceOnUse"><g class="cls-90"/></mask><radialGradient id="Безымянный_градиент_50" cx="42" cy="63.65" r="31.45" gradientTransform="matrix(0.9, 0.43, -0.43, 0.9, 29.37, -10.95)" gradientUnits="userSpaceOnUse"><stop offset="0" stop-color="#fff"/><stop offset="0.12" stop-color="#f2f2f2"/><stop offset="0.34" stop-color="#d1d1d1"/><stop offset="0.63" stop-color="#9b9b9b"/><stop offset="0.98" stop-color="#515151"/><stop offset="1" stop-color="#4d4d4d"/></radialGradient><linearGradient id="Безымянный_градиент_52" x1="114.48" y1="77.51" x2="480.27" y2="76.36" gradientTransform="translate(-1.99 0.94) rotate(-0.05)" gradientUnits="userSpaceOnUse"><stop offset="0" stop-color="#080823"/><stop offset="0.19" stop-color="#063256"/><stop offset="0.48" stop-color="#046d9e"/><stop offset="0.72" stop-color="#0298d2"/><stop offset="0.9" stop-color="#00b3f3"/><stop offset="1" stop-color="#00bdff"/></linearGradient><linearGradient id="Безымянный_градиент_49" x1="497.32" y1="85.66" x2="101.61" y2="86.81" gradientTransform="translate(-1.99 0.94) rotate(-0.05)" gradientUnits="userSpaceOnUse"><stop offset="0" stop-color="#080823"/><stop offset="0.02" stop-color="#071a39"/><stop offset="0.07" stop-color="#063c62"/><stop offset="0.12" stop-color="#045b88"/><stop offset="0.17" stop-color="#0376a8"/><stop offset="0.23" stop-color="#028cc4"/><stop offset="0.3" stop-color="#019eda"/><stop offset="0.38" stop-color="#01aceb"/><stop offset="0.48" stop-color="#00b6f6"/><stop offset="0.62" stop-color="#00bbfd"/><stop offset="1" stop-color="#00bdff"/></linearGradient><linearGradient id="Безымянный_градиент_101" x1="498.11" y1="28.48" x2="320.92" y2="28.48" gradientTransform="translate(-1.99 0.94) rotate(-0.05)" gradientUnits="userSpaceOnUse"><stop offset="0" stop-color="#080823"/><stop offset="0.1" stop-color="#081230"/><stop offset="0.28" stop-color="#062e51"/><stop offset="0.53" stop-color="#045a87"/><stop offset="0.83" stop-color="#0297d1"/><stop offset="1" stop-color="#00bdff"/></linearGradient><linearGradient id="Безымянный_градиент_101-2" x1="498.11" y1="28.48" x2="320.92" y2="28.48" xlink:href="#Безымянный_градиент_101"/><linearGradient id="Безымянный_градиент_101-3" x1="498.11" y1="28.48" x2="320.92" y2="28.48" xlink:href="#Безымянный_градиент_101"/><linearGradient id="Безымянный_градиент_101-4" x1="498.11" y1="28.48" x2="320.92" y2="28.48" xlink:href="#Безымянный_градиент_101"/><linearGradient id="Безымянный_градиент_101-5" x1="498.11" y1="28.48" x2="320.92" y2="28.48" xlink:href="#Безымянный_градиент_101"/><linearGradient id="Безымянный_градиент_101-6" x1="498.1" y1="28.48" x2="320.91" y2="28.48" xlink:href="#Безымянный_градиент_101"/><linearGradient id="Безымянный_градиент_101-7" x1="498.11" y1="28.48" x2="320.92" y2="28.48" xlink:href="#Безымянный_градиент_101"/><linearGradient id="Безымянный_градиент_101-8" x1="498.11" y1="28.48" x2="320.92" y2="28.48" xlink:href="#Безымянный_градиент_101"/><linearGradient id="Безымянный_градиент_101-9" x1="498.1" y1="28.48" x2="320.92" y2="28.48" xlink:href="#Безымянный_градиент_101"/><linearGradient id="Безымянный_градиент_101-10" x1="498.1" y1="28.48" x2="320.92" y2="28.48" xlink:href="#Безымянный_градиент_101"/><linearGradient id="Безымянный_градиент_49-2" x1="53.94" y1="13.36" x2="318.82" y2="12.98" xlink:href="#Безымянный_градиент_49"/><linearGradient id="Безымянный_градиент_49-3" x1="53.95" y1="13.29" x2="318.83" y2="12.91" xlink:href="#Безымянный_градиент_49"/><linearGradient id="Безымянный_градиент_49-4" x1="53.95" y1="13.31" x2="318.82" y2="12.93" xlink:href="#Безымянный_градиент_49"/><linearGradient id="Безымянный_градиент_49-5" x1="53.94" y1="13.32" x2="318.82" y2="12.94" xlink:href="#Безымянный_градиент_49"/><linearGradient id="Безымянный_градиент_49-6" x1="53.94" y1="13.34" x2="318.82" y2="12.96" xlink:href="#Безымянный_градиент_49"/><linearGradient id="Безымянный_градиент_49-7" x1="53.92" y1="13.44" x2="318.8" y2="13.06" xlink:href="#Безымянный_градиент_49"/><linearGradient id="Безымянный_градиент_49-8" x1="53.94" y1="13.37" x2="318.81" y2="12.99" xlink:href="#Безымянный_градиент_49"/><linearGradient id="Безымянный_градиент_49-9" x1="53.93" y1="13.39" x2="318.81" y2="13.01" xlink:href="#Безымянный_градиент_49"/><linearGradient id="Безымянный_градиент_49-10" x1="53.93" y1="13.41" x2="318.81" y2="13.03" xlink:href="#Безымянный_градиент_49"/><linearGradient id="Безымянный_градиент_49-11" x1="53.92" y1="13.42" x2="318.81" y2="13.04" xlink:href="#Безымянный_градиент_49"/><linearGradient id="Безымянный_градиент_49-12" x1="53.96" y1="13.19" x2="318.84" y2="12.81" xlink:href="#Безымянный_градиент_49"/><linearGradient id="Безымянный_градиент_49-13" x1="53.98" y1="13.12" x2="318.86" y2="12.74" xlink:href="#Безымянный_градиент_49"/><linearGradient id="Безымянный_градиент_49-14" x1="53.97" y1="13.14" x2="318.85" y2="12.76" xlink:href="#Безымянный_градиент_49"/><linearGradient id="Безымянный_градиент_49-15" x1="53.97" y1="13.16" x2="318.85" y2="12.77" xlink:href="#Безымянный_градиент_49"/><linearGradient id="Безымянный_градиент_49-16" x1="53.97" y1="13.17" x2="318.84" y2="12.79" xlink:href="#Безымянный_градиент_49"/><linearGradient id="Безымянный_градиент_49-17" x1="53.95" y1="13.27" x2="318.83" y2="12.89" xlink:href="#Безымянный_градиент_49"/><linearGradient id="Безымянный_градиент_49-18" x1="53.96" y1="13.21" x2="318.84" y2="12.82" xlink:href="#Безымянный_градиент_49"/><linearGradient id="Безымянный_градиент_49-19" x1="53.96" y1="13.22" x2="318.84" y2="12.84" xlink:href="#Безымянный_градиент_49"/><linearGradient id="Безымянный_градиент_49-20" x1="53.96" y1="13.24" x2="318.83" y2="12.86" xlink:href="#Безымянный_градиент_49"/><linearGradient id="Безымянный_градиент_49-21" x1="53.95" y1="13.26" x2="318.83" y2="12.87" xlink:href="#Безымянный_градиент_49"/><filter id="luminosity-noclip-2" x="8.61" y="33.11" width="62.9" height="62.9" filterUnits="userSpaceOnUse" color-interpolation-filters="sRGB"><feFlood flood-color="#fff" result="bg"/><feBlend in="SourceGraphic" in2="bg"/></filter><mask id="mask-2" x="8.61" y="33.11" width="62.9" height="62.9" maskUnits="userSpaceOnUse"><g class="cls-1"><circle class="cls-2" cx="40.06" cy="64.56" r="31.45" transform="translate(-23.82 23.43) rotate(-25.41)"/></g></mask><radialGradient id="Безымянный_градиент_54" cx="42" cy="63.65" r="31.45" gradientTransform="matrix(0.9, 0.43, -0.43, 0.9, 29.37, -10.95)" gradientUnits="userSpaceOnUse"><stop offset="0" stop-color="#00bdff"/><stop offset="0.38" stop-color="#00bbfd"/><stop offset="0.52" stop-color="#00b6f6"/><stop offset="0.62" stop-color="#01aceb"/><stop offset="0.7" stop-color="#019eda"/><stop offset="0.77" stop-color="#028cc4"/><stop offset="0.83" stop-color="#0376a8"/><stop offset="0.88" stop-color="#045b88"/><stop offset="0.93" stop-color="#063c62"/><stop offset="0.98" stop-color="#071a39"/><stop offset="1" stop-color="#080823"/></radialGradient><linearGradient id="Безымянный_градиент_49-22" x1="59.75" y1="66.75" x2="-37.98" y2="67.04" xlink:href="#Безымянный_градиент_49"/><linearGradient id="Безымянный_градиент_49-23" x1="59.81" y1="84.7" x2="-37.93" y2="84.98" xlink:href="#Безымянный_градиент_49"/><linearGradient id="Безымянный_градиент_49-24" x1="59.79" y1="80.56" x2="-37.94" y2="80.84" xlink:href="#Безымянный_градиент_49"/><linearGradient id="Безымянный_градиент_49-25" x1="59.78" y1="76.13" x2="-37.95" y2="76.41" xlink:href="#Безымянный_градиент_49"/><linearGradient id="Безымянный_градиент_49-26" x1="59.77" y1="71.5" x2="-37.97" y2="71.79" xlink:href="#Безымянный_градиент_49"/><linearGradient id="Безымянный_градиент_49-27" x1="59.82" y1="88.55" x2="-37.92" y2="88.83" xlink:href="#Безымянный_градиент_49"/><linearGradient id="Безымянный_градиент_49-28" x1="59.85" y1="99.44" x2="-37.89" y2="99.73" xlink:href="#Безымянный_градиент_49"/><linearGradient id="Безымянный_градиент_49-29" x1="59.84" y1="97.46" x2="-37.89" y2="97.74" xlink:href="#Безымянный_градиент_49"/><linearGradient id="Безымянный_градиент_49-30" x1="59.84" y1="94.97" x2="-37.9" y2="95.25" xlink:href="#Безымянный_градиент_49"/><linearGradient id="Безымянный_градиент_49-31" x1="59.83" y1="92" x2="-37.91" y2="92.29" xlink:href="#Безымянный_градиент_49"/><linearGradient id="Безымянный_градиент_49-32" x1="59.85" y1="100.84" x2="-37.88" y2="101.12" xlink:href="#Безымянный_градиент_49"/><linearGradient id="Безымянный_градиент_49-33" x1="59.85" y1="100.5" x2="-37.88" y2="100.79" xlink:href="#Безымянный_градиент_49"/><linearGradient id="Безымянный_градиент_49-34" x1="59.85" y1="101.47" x2="-37.88" y2="101.76" xlink:href="#Безымянный_градиент_49"/><linearGradient id="Безымянный_градиент_49-35" x1="59.86" y1="101.85" x2="-37.88" y2="102.13" xlink:href="#Безымянный_градиент_49"/><linearGradient id="Безымянный_градиент_49-36" x1="59.86" y1="101.62" x2="-37.88" y2="101.91" xlink:href="#Безымянный_градиент_49"/><linearGradient id="Безымянный_градиент_49-37" x1="59.85" y1="98.91" x2="-37.89" y2="99.2" xlink:href="#Безымянный_градиент_49"/><linearGradient id="Безымянный_градиент_49-38" x1="59.81" y1="87.5" x2="-37.92" y2="87.78" xlink:href="#Безымянный_градиент_49"/><linearGradient id="Безымянный_градиент_49-39" x1="59.82" y1="91.05" x2="-37.91" y2="91.33" xlink:href="#Безымянный_градиент_49"/><linearGradient id="Безымянный_градиент_49-40" x1="59.83" y1="94.18" x2="-37.9" y2="94.47" xlink:href="#Безымянный_градиент_49"/><linearGradient id="Безымянный_градиент_49-41" x1="59.84" y1="96.81" x2="-37.89" y2="97.09" xlink:href="#Безымянный_градиент_49"/><linearGradient id="Безымянный_градиент_49-42" x1="59.8" y1="83.56" x2="-37.93" y2="83.85" xlink:href="#Безымянный_градиент_49"/><linearGradient id="Безымянный_градиент_49-43" x1="59.75" y1="65.39" x2="-37.99" y2="65.67" xlink:href="#Безымянный_градиент_49"/><linearGradient id="Безымянный_градиент_49-44" x1="59.76" y1="70.16" x2="-37.97" y2="70.45" xlink:href="#Безымянный_градиент_49"/><linearGradient id="Безымянный_градиент_49-45" x1="59.78" y1="74.82" x2="-37.96" y2="75.11" xlink:href="#Безымянный_градиент_49"/><linearGradient id="Безымянный_градиент_49-46" x1="59.79" y1="79.31" x2="-37.95" y2="79.6" xlink:href="#Безымянный_градиент_49"/><linearGradient id="Безымянный_градиент_49-47" x1="59.73" y1="60.45" x2="-38" y2="60.74" xlink:href="#Безымянный_градиент_49"/><linearGradient id="Безымянный_градиент_49-48" x1="59.68" y1="42.51" x2="-38.05" y2="42.79" xlink:href="#Безымянный_градиент_49"/><linearGradient id="Безымянный_градиент_49-49" x1="59.69" y1="46.65" x2="-38.04" y2="46.93" xlink:href="#Безымянный_градиент_49"/><linearGradient id="Безымянный_градиент_49-50" x1="59.71" y1="51.08" x2="-38.03" y2="51.37" xlink:href="#Безымянный_градиент_49"/><linearGradient id="Безымянный_градиент_49-51" x1="59.72" y1="55.71" x2="-38.02" y2="55.99" xlink:href="#Безымянный_градиент_49"/><linearGradient id="Безымянный_градиент_49-52" x1="59.67" y1="38.66" x2="-38.07" y2="38.94" xlink:href="#Безымянный_градиент_49"/><linearGradient id="Безымянный_градиент_49-53" x1="59.64" y1="27.77" x2="-38.1" y2="28.05" xlink:href="#Безымянный_градиент_49"/><linearGradient id="Безымянный_градиент_49-54" x1="59.64" y1="29.75" x2="-38.09" y2="30.03" xlink:href="#Безымянный_градиент_49"/><linearGradient id="Безымянный_градиент_49-55" x1="59.65" y1="32.24" x2="-38.09" y2="32.52" xlink:href="#Безымянный_градиент_49"/><linearGradient id="Безымянный_градиент_49-56" x1="59.66" y1="35.2" x2="-38.08" y2="35.49" xlink:href="#Безымянный_градиент_49"/><linearGradient id="Безымянный_градиент_49-57" x1="59.63" y1="26.37" x2="-38.11" y2="26.65" xlink:href="#Безымянный_градиент_49"/><linearGradient id="Безымянный_градиент_49-58" x1="59.63" y1="26.7" x2="-38.1" y2="26.99" xlink:href="#Безымянный_градиент_49"/><linearGradient id="Безымянный_градиент_49-59" x1="59.63" y1="25.73" x2="-38.1" y2="26.02" xlink:href="#Безымянный_градиент_49"/><linearGradient id="Безымянный_градиент_49-60" x1="59.63" y1="25.36" x2="-38.1" y2="25.64" xlink:href="#Безымянный_градиент_49"/><linearGradient id="Безымянный_градиент_49-61" x1="59.63" y1="25.58" x2="-38.11" y2="25.87" xlink:href="#Безымянный_градиент_49"/><linearGradient id="Безымянный_градиент_49-62" x1="59.64" y1="28.29" x2="-38.1" y2="28.58" xlink:href="#Безымянный_градиент_49"/><linearGradient id="Безымянный_градиент_49-63" x1="59.67" y1="39.71" x2="-38.06" y2="39.99" xlink:href="#Безымянный_градиент_49"/><linearGradient id="Безымянный_градиент_49-64" x1="59.66" y1="36.16" x2="-38.07" y2="36.45" xlink:href="#Безымянный_градиент_49"/><linearGradient id="Безымянный_градиент_49-65" x1="59.65" y1="33.02" x2="-38.08" y2="33.31" xlink:href="#Безымянный_градиент_49"/><linearGradient id="Безымянный_градиент_49-66" x1="59.64" y1="30.4" x2="-38.09" y2="30.69" xlink:href="#Безымянный_градиент_49"/><linearGradient id="Безымянный_градиент_49-67" x1="59.68" y1="43.64" x2="-38.05" y2="43.93" xlink:href="#Безымянный_градиент_49"/><linearGradient id="Безымянный_градиент_49-68" x1="59.74" y1="61.82" x2="-38" y2="62.1" xlink:href="#Безымянный_градиент_49"/><linearGradient id="Безымянный_градиент_49-69" x1="59.72" y1="57.04" x2="-38.02" y2="57.33" xlink:href="#Безымянный_градиент_49"/><linearGradient id="Безымянный_градиент_49-70" x1="59.71" y1="52.38" x2="-38.03" y2="52.67" xlink:href="#Безымянный_градиент_49"/><linearGradient id="Безымянный_градиент_49-71" x1="59.7" y1="47.89" x2="-38.04" y2="48.18" xlink:href="#Безымянный_градиент_49"/></defs><title>apply_promo_blue</title><g id="Layer_2" data-name="Layer 2"><g id="Layer_1-2" data-name="Layer 1"><polygon class="cls-3" points="115.58 93.77 332.44 93.59 340.64 62.03 122.29 62.21 115.58 93.77"/><path class="cls-4" d="M104.24,100.57a.46.46,0,0,1-.2,0,.9.9,0,0,1-.69-1.07L109,73a.91.91,0,1,1,1.77.38l-5.68,26.44A.91.91,0,0,1,104.24,100.57Z"/><path class="cls-4" d="M109.92,74.92a1.47,1.47,0,0,1-.36,0,1.7,1.7,0,0,1-1.3-2l4.91-22.82a1.68,1.68,0,0,1,1.64-1.34l184.58-1h0a1.69,1.69,0,0,1,0,3.38l-183.22.95-4.62,21.5A1.7,1.7,0,0,1,109.92,74.92Z"/><path class="cls-4" d="M299.4,50a.57.57,0,0,1-.57-.56.56.56,0,0,1,.56-.56L477.32,48h0a.56.56,0,0,1,.56.56.55.55,0,0,1-.56.56L299.4,50Z"/><path class="cls-4" d="M205.24,2.47,68.4,2.59a.57.57,0,1,1,0-1.13l136.84-.11a.57.57,0,0,1,.57.56A.57.57,0,0,1,205.24,2.47Z"/><path class="cls-4" d="M480.53,30.72a1.69,1.69,0,0,1-1.6-1.14l-9-26.2L205.19,3.6a1.69,1.69,0,1,1,0-3.38l266-.22a1.68,1.68,0,0,1,1.6,1.14l9.38,27.34a1.69,1.69,0,0,1-1.6,2.24Z"/><path class="cls-4" d="M475.39,99.93l-366.19.3a.56.56,0,0,1-.55-.69l10.26-43.17a.57.57,0,0,1,.55-.43l359.81-.8h0a.56.56,0,1,1,0,1.12l-359.36.81-10,42L475,98.8l14.07-43.22L480,29.21a.57.57,0,0,1,1.07-.37l9.1,26.55a.63.63,0,0,1,0,.36L475.92,99.54A.56.56,0,0,1,475.39,99.93Z"/><path class="cls-5" d="M102.59,114.05a2.82,2.82,0,1,1,0-5.63l372.7-.67L489.8,61.07a2.82,2.82,0,0,1,5.38,1.67L480.06,111.4a2.8,2.8,0,0,1-2.68,2l-374.78.67Z"/><path class="cls-6" d="M112.83,34.24l204.7-.17a1,1,0,0,1,.94.87l1.3,6.53a1.09,1.09,0,0,1-.94,1.38L130.12,43a.73.73,0,0,1-.3-.06l-17.29-6.52C111.48,36,111.72,34.24,112.83,34.24Z"/><polygon class="cls-7" points="385.12 42.69 396.7 42.68 389.22 15.52 377.63 15.53 385.12 42.69"/><polygon class="cls-8" points="325.53 42.74 337.11 42.73 329.63 15.57 318.04 15.58 325.53 42.74"/><polygon class="cls-9" points="340.42 42.73 352.01 42.72 344.52 15.55 332.94 15.56 340.42 42.73"/><polygon class="cls-10" points="355.32 42.72 366.91 42.7 359.42 15.54 347.83 15.55 355.32 42.72"/><polygon class="cls-11" points="370.22 42.7 381.81 42.69 374.32 15.53 362.73 15.54 370.22 42.7"/><polygon class="cls-12" points="459.6 42.63 471.19 42.62 463.7 15.46 452.12 15.47 459.6 42.63"/><polygon class="cls-13" points="400.01 42.68 411.6 42.67 404.11 15.51 392.53 15.52 400.01 42.68"/><polygon class="cls-14" points="414.91 42.66 426.5 42.66 419.01 15.49 407.42 15.5 414.91 42.66"/><polygon class="cls-15" points="429.81 42.65 441.39 42.64 433.91 15.48 422.32 15.49 429.81 42.65"/><polygon class="cls-16" points="444.7 42.64 456.29 42.63 448.81 15.47 437.22 15.48 444.7 42.64"/><polygon class="cls-17" points="240.24 20.46 249.48 20.45 246.15 7.23 236.9 7.23 240.24 20.46"/><polygon class="cls-18" points="192.47 20.5 201.72 20.49 198.38 7.27 189.14 7.27 192.47 20.5"/><polygon class="cls-19" points="204.41 20.49 213.66 20.48 210.32 7.26 201.08 7.26 204.41 20.49"/><polygon class="cls-20" points="216.35 20.48 225.6 20.47 222.27 7.25 213.02 7.25 216.35 20.48"/><polygon class="cls-21" points="228.29 20.47 237.54 20.46 234.21 7.24 224.96 7.24 228.29 20.47"/><polygon class="cls-22" points="299.94 20.41 309.19 20.4 305.85 7.18 296.61 7.18 299.94 20.41"/><polygon class="cls-23" points="252.18 20.45 261.42 20.44 258.09 7.22 248.84 7.22 252.18 20.45"/><polygon class="cls-24" points="264.12 20.44 273.36 20.43 270.03 7.21 260.79 7.21 264.12 20.44"/><polygon class="cls-25" points="276.06 20.43 285.3 20.42 281.97 7.2 272.73 7.2 276.06 20.43"/><polygon class="cls-26" points="288 20.42 297.25 20.41 293.91 7.19 284.67 7.19 288 20.42"/><polygon class="cls-27" points="120.82 20.56 130.07 20.55 126.74 7.33 117.49 7.33 120.82 20.56"/><polygon class="cls-28" points="73.06 20.59 82.3 20.59 78.97 7.37 69.73 7.37 73.06 20.59"/><polygon class="cls-29" points="85 20.59 94.24 20.58 90.91 7.36 81.67 7.36 85 20.59"/><polygon class="cls-30" points="96.94 20.58 106.19 20.57 102.85 7.34 93.61 7.35 96.94 20.58"/><polygon class="cls-31" points="108.88 20.57 118.13 20.56 114.8 7.33 105.55 7.34 108.88 20.57"/><polygon class="cls-32" points="180.53 20.51 189.77 20.5 186.44 7.28 177.2 7.28 180.53 20.51"/><polygon class="cls-33" points="132.76 20.55 142.01 20.54 138.68 7.32 129.43 7.32 132.76 20.55"/><polygon class="cls-34" points="144.71 20.54 153.95 20.53 150.62 7.31 141.37 7.31 144.71 20.54"/><polygon class="cls-35" points="156.65 20.53 165.89 20.52 162.56 7.3 153.31 7.3 156.65 20.53"/><polygon class="cls-36" points="168.59 20.52 177.83 20.51 174.5 7.29 165.26 7.29 168.59 20.52"/><path class="cls-4" d="M477.32,44A1.36,1.36,0,0,1,476,43L466.92,9.75l-153.46.13,3.82,19A1.34,1.34,0,0,1,317,30a1.44,1.44,0,0,1-1.05.5l-210.38-.26a1.35,1.35,0,0,1-1.36-1.35,1.37,1.37,0,0,1,1.36-1.36h0l208.73.26-3.82-19a1.39,1.39,0,0,1,.28-1.13,1.36,1.36,0,0,1,1.05-.49L468,7.05a1.35,1.35,0,0,1,1.31,1l9.36,34.22a1.35,1.35,0,0,1-.95,1.66A1.48,1.48,0,0,1,477.32,44Z"/><path class="cls-4" d="M84.39,106.6,23,106.65a.57.57,0,0,1,0-1.13l61,0L96,51.63,69.35,26.25a.57.57,0,1,1,.78-.82L97,51a.53.53,0,0,1,.16.53l-12.24,54.6A.57.57,0,0,1,84.39,106.6Z"/><g class="cls-37"><circle class="cls-38" cx="40.06" cy="64.56" r="31.45" transform="translate(-23.82 23.43) rotate(-25.41)"/></g><path class="cls-39" d="M76.33,68.52c.09-.76.09-1.52.14-2.28a.64.64,0,0,1,.66-.6l2.34.06a.65.65,0,0,1,.6.7c-.06.83-.06,1.67-.16,2.5a.67.67,0,0,1-.73.59l-2.32-.29A.6.6,0,0,1,76.33,68.52Z"/><path class="cls-40" d="M69.94,85.47a18.48,18.48,0,0,0,1.24-1.92.64.64,0,0,1,.86-.21l2,1.19a.64.64,0,0,1,.19.9,22.14,22.14,0,0,1-1.36,2.1.66.66,0,0,1-.91.18l-1.9-1.38A.61.61,0,0,1,69.94,85.47Z"/><path class="cls-41" d="M72.34,81.57l1-2.06a.66.66,0,0,1,.84-.31l2.15.93a.62.62,0,0,1,.29.86l-1.09,2.26a.63.63,0,0,1-.87.3L72.6,82.42A.66.66,0,0,1,72.34,81.57Z"/><path class="cls-42" d="M74.19,77.39c.25-.72.54-1.43.77-2.15a.59.59,0,0,1,.76-.42l2.25.64a.67.67,0,0,1,.43.83c-.25.8-.56,1.58-.84,2.37a.64.64,0,0,1-.82.4l-2.17-.86A.64.64,0,0,1,74.19,77.39Z"/><path class="cls-43" d="M75.53,73l.28-1.11L76,70.78a.62.62,0,0,1,.71-.51l2.31.36a.66.66,0,0,1,.53.76l-.2,1.24L79,73.85a.65.65,0,0,1-.78.5L76,73.77A.62.62,0,0,1,75.53,73Z"/><path class="cls-44" d="M67.05,89.05a20.29,20.29,0,0,0,1.5-1.72.62.62,0,0,1,.87-.11l1.85,1.43a.67.67,0,0,1,.1.93,22.78,22.78,0,0,1-1.65,1.89.63.63,0,0,1-.91.07l-1.71-1.6A.65.65,0,0,1,67.05,89.05Z"/><path class="cls-45" d="M51.94,99l2.15-.78a.63.63,0,0,1,.81.33l.94,2.14a.64.64,0,0,1-.37.85l-2.35.87a.64.64,0,0,1-.84-.37l-.72-2.22A.67.67,0,0,1,51.94,99Z"/><path class="cls-46" d="M56.16,97.27a16.87,16.87,0,0,0,2-1.06.61.61,0,0,1,.85.22l1.2,2a.66.66,0,0,1-.26.89,19.53,19.53,0,0,1-2.22,1.17.65.65,0,0,1-.88-.28l-1-2.11A.63.63,0,0,1,56.16,97.27Z"/><path class="cls-47" d="M60.14,95c.65-.39,1.23-.9,1.85-1.34a.63.63,0,0,1,.88.12l1.44,1.85a.63.63,0,0,1-.15.9c-.68.49-1.32,1-2,1.47a.67.67,0,0,1-.92-.18l-1.26-2A.61.61,0,0,1,60.14,95Z"/><path class="cls-48" d="M63.79,92.25l1.69-1.54a.67.67,0,0,1,.9,0L68,92.39a.62.62,0,0,1,0,.91L66.13,95a.62.62,0,0,1-.9,0l-1.5-1.8A.68.68,0,0,1,63.79,92.25Z"/><path class="cls-49" d="M47.51,100.29l2.21-.58a.66.66,0,0,1,.78.46l.66,2.24a.64.64,0,0,1-.48.78l-2.43.62a.66.66,0,0,1-.79-.51L47,101A.61.61,0,0,1,47.51,100.29Z"/><path class="cls-50" d="M29.4,99.46l2.21.57a.66.66,0,0,1,.47.77l-.51,2.28a.63.63,0,0,1-.79.45l-2.43-.62a.67.67,0,0,1-.45-.82l.72-2.22A.63.63,0,0,1,29.4,99.46Z"/><path class="cls-51" d="M33.86,100.48l2.26.35a.64.64,0,0,1,.55.68l-.21,2.33a.64.64,0,0,1-.73.57L33.25,104a.62.62,0,0,1-.55-.72l.43-2.3A.66.66,0,0,1,33.86,100.48Z"/><path class="cls-52" d="M38.41,101a19.28,19.28,0,0,0,2.28,0,.62.62,0,0,1,.64.6L41.4,104a.66.66,0,0,1-.65.66,21,21,0,0,1-2.51-.06.63.63,0,0,1-.63-.66l.14-2.34A.63.63,0,0,1,38.41,101Z"/><path class="cls-53" d="M43,100.9a15.62,15.62,0,0,0,2.27-.26.64.64,0,0,1,.71.53l.37,2.31a.66.66,0,0,1-.57.73,19.17,19.17,0,0,1-2.49.28.66.66,0,0,1-.72-.59l-.15-2.34A.62.62,0,0,1,43,100.9Z"/><path class="cls-54" d="M25.1,97.82a16.09,16.09,0,0,0,2.11.86.62.62,0,0,1,.37.8l-.79,2.21a.65.65,0,0,1-.85.36,19.47,19.47,0,0,1-2.32-1,.65.65,0,0,1-.34-.86l1-2.12A.62.62,0,0,1,25.1,97.82Z"/><path class="cls-55" d="M11,86.5a17.43,17.43,0,0,0,1.42,1.79.63.63,0,0,1-.06.88l-1.75,1.55a.68.68,0,0,1-.93-.08,22.86,22.86,0,0,1-1.56-2,.64.64,0,0,1,.11-.91l1.89-1.38A.64.64,0,0,1,11,86.5Z"/><path class="cls-56" d="M13.92,90a22.45,22.45,0,0,0,1.66,1.57.65.65,0,0,1,0,.89l-1.55,1.76a.64.64,0,0,1-.91,0,22.93,22.93,0,0,1-1.82-1.73.67.67,0,0,1,0-.93L13,90A.63.63,0,0,1,13.92,90Z"/><path class="cls-57" d="M17.31,93.06l1.83,1.37a.67.67,0,0,1,.14.89L18,97.26a.63.63,0,0,1-.9.12l-2-1.51a.62.62,0,0,1-.14-.89l1.5-1.81A.66.66,0,0,1,17.31,93.06Z"/><path class="cls-58" d="M21.06,95.67c.66.38,1.29.82,2,1.15a.6.6,0,0,1,.27.83l-1.05,2.09a.68.68,0,0,1-.9.27c-.75-.37-1.44-.85-2.17-1.27a.64.64,0,0,1-.24-.88l1.26-2A.64.64,0,0,1,21.06,95.67Z"/><path class="cls-59" d="M8.41,82.67l1.19,2a.67.67,0,0,1-.19.87L7.48,86.81a.62.62,0,0,1-.89-.21L5.28,84.46a.64.64,0,0,1,.2-.89l2.05-1.12A.66.66,0,0,1,8.41,82.67Z"/><path class="cls-60" d="M3.6,65.2l.12,2.29a.65.65,0,0,1-.6.67l-2.33.23a.62.62,0,0,1-.66-.62L0,65.27a.62.62,0,0,1,.6-.68H2.94A.66.66,0,0,1,3.6,65.2Z"/><path class="cls-61" d="M4,69.76,4.34,72a.62.62,0,0,1-.46.74l-2.29.51a.67.67,0,0,1-.78-.52L.42,70.27a.62.62,0,0,1,.52-.74l2.32-.3A.65.65,0,0,1,4,69.76Z"/><path class="cls-62" d="M4.91,74.24l.28,1.11c.12.36.26.71.39,1.07a.61.61,0,0,1-.38.79L3,78a.66.66,0,0,1-.83-.42c-.13-.39-.29-.78-.42-1.18l-.31-1.22a.65.65,0,0,1,.44-.81l2.27-.58A.62.62,0,0,1,4.91,74.24Z"/><path class="cls-63" d="M6.37,78.57c.29.71.65,1.38,1,2.07a.64.64,0,0,1-.29.84L5,82.55a.64.64,0,0,1-.86-.32C3.76,81.47,3.36,80.73,3,80a.68.68,0,0,1,.36-.87l2.17-.86A.61.61,0,0,1,6.37,78.57Z"/><path class="cls-64" d="M3.79,60.6c-.09.76-.08,1.52-.13,2.28a.65.65,0,0,1-.67.6L.66,63.41a.64.64,0,0,1-.6-.69c.05-.84.05-1.68.15-2.51a.69.69,0,0,1,.73-.59l2.32.29A.6.6,0,0,1,3.79,60.6Z"/><path class="cls-65" d="M10.18,43.65a18.48,18.48,0,0,0-1.24,1.92.64.64,0,0,1-.86.21l-2-1.19a.65.65,0,0,1-.19-.9,21.08,21.08,0,0,1,1.36-2.11.67.67,0,0,1,.92-.17L10,42.79A.61.61,0,0,1,10.18,43.65Z"/><path class="cls-66" d="M7.79,47.55l-1,2.06a.66.66,0,0,1-.85.3L3.8,49a.63.63,0,0,1-.29-.86L4.6,45.87a.62.62,0,0,1,.87-.3L7.52,46.7A.67.67,0,0,1,7.79,47.55Z"/><path class="cls-67" d="M5.94,51.73c-.26.72-.54,1.42-.78,2.15a.59.59,0,0,1-.75.42l-2.25-.64a.69.69,0,0,1-.44-.84c.26-.79.56-1.57.84-2.36a.64.64,0,0,1,.82-.4l2.18.86A.66.66,0,0,1,5.94,51.73Z"/><path class="cls-68" d="M4.6,56.1l-.29,1.1-.17,1.13a.63.63,0,0,1-.72.52l-2.31-.36a.66.66,0,0,1-.52-.77l.19-1.24.31-1.21a.65.65,0,0,1,.78-.5l2.27.58A.63.63,0,0,1,4.6,56.1Z"/><path class="cls-69" d="M13.07,40.06c-.49.58-1.06,1.1-1.5,1.73a.62.62,0,0,1-.87.11L8.85,40.47a.68.68,0,0,1-.09-.93c.48-.69,1.1-1.26,1.64-1.9a.66.66,0,0,1,.92-.07L13,39.18A.62.62,0,0,1,13.07,40.06Z"/><path class="cls-70" d="M28.18,30.08,26,30.87a.64.64,0,0,1-.82-.33l-.94-2.14a.66.66,0,0,1,.37-.86L27,26.68a.63.63,0,0,1,.83.37l.72,2.22A.64.64,0,0,1,28.18,30.08Z"/><path class="cls-71" d="M24,31.85a16.21,16.21,0,0,0-2,1.06.62.62,0,0,1-.85-.22l-1.19-2a.65.65,0,0,1,.25-.89,17.42,17.42,0,0,1,2.22-1.17.64.64,0,0,1,.88.27l1,2.12A.63.63,0,0,1,24,31.85Z"/><path class="cls-72" d="M20,34.1c-.65.39-1.23.9-1.85,1.34a.64.64,0,0,1-.88-.13l-1.44-1.84a.65.65,0,0,1,.16-.91c.68-.48,1.31-1,2-1.46a.66.66,0,0,1,.92.18l1.25,2A.6.6,0,0,1,20,34.1Z"/><path class="cls-73" d="M16.34,36.86,14.65,38.4a.67.67,0,0,1-.9,0l-1.66-1.65a.62.62,0,0,1,.05-.91L14,34.13a.63.63,0,0,1,.91,0L16.39,36A.66.66,0,0,1,16.34,36.86Z"/><path class="cls-74" d="M32.61,28.83l-2.21.57a.64.64,0,0,1-.77-.45L29,26.7a.63.63,0,0,1,.48-.77l2.43-.63a.68.68,0,0,1,.79.51l.43,2.3A.6.6,0,0,1,32.61,28.83Z"/><path class="cls-75" d="M50.72,29.66l-2.21-.57a.65.65,0,0,1-.46-.77l.5-2.29a.62.62,0,0,1,.79-.44l2.44.62a.65.65,0,0,1,.44.82l-.72,2.22A.63.63,0,0,1,50.72,29.66Z"/><path class="cls-76" d="M46.27,28.63,44,28.29a.66.66,0,0,1-.56-.69l.21-2.33a.64.64,0,0,1,.73-.56l2.49.37a.63.63,0,0,1,.55.73L47,28.1A.65.65,0,0,1,46.27,28.63Z"/><path class="cls-77" d="M41.72,28.15a19.28,19.28,0,0,0-2.28,0,.61.61,0,0,1-.64-.6l-.08-2.34a.66.66,0,0,1,.65-.66,21,21,0,0,1,2.51.05.66.66,0,0,1,.64.67l-.15,2.33A.63.63,0,0,1,41.72,28.15Z"/><path class="cls-78" d="M37.14,28.22a14.36,14.36,0,0,0-2.26.26.63.63,0,0,1-.71-.53l-.37-2.31a.65.65,0,0,1,.57-.73,19,19,0,0,1,2.49-.29.67.67,0,0,1,.71.6l.15,2.33A.63.63,0,0,1,37.14,28.22Z"/><path class="cls-79" d="M55,31.3a15.54,15.54,0,0,0-2.11-.86.64.64,0,0,1-.37-.81l.79-2.2a.65.65,0,0,1,.85-.36A16.14,16.14,0,0,1,56.5,28a.67.67,0,0,1,.35.86l-1,2.12A.62.62,0,0,1,55,31.3Z"/><path class="cls-80" d="M69.17,42.62a18.91,18.91,0,0,0-1.42-1.79.62.62,0,0,1,.06-.88l1.75-1.55a.65.65,0,0,1,.92.08,22.33,22.33,0,0,1,1.56,2,.65.65,0,0,1-.1.92l-1.89,1.38A.64.64,0,0,1,69.17,42.62Z"/><path class="cls-81" d="M66.21,39.13a20.53,20.53,0,0,0-1.66-1.57.64.64,0,0,1,0-.89l1.54-1.76a.65.65,0,0,1,.92,0,24.79,24.79,0,0,1,1.82,1.73.66.66,0,0,1,0,.93l-1.7,1.6A.61.61,0,0,1,66.21,39.13Z"/><path class="cls-82" d="M62.82,36.06,61,34.69a.66.66,0,0,1-.14-.89l1.31-1.94a.63.63,0,0,1,.9-.12l2,1.5a.62.62,0,0,1,.13.9l-1.49,1.8A.67.67,0,0,1,62.82,36.06Z"/><path class="cls-83" d="M59.06,33.45c-.66-.38-1.28-.83-2-1.16a.61.61,0,0,1-.27-.83l1.06-2.08a.67.67,0,0,1,.89-.27c.76.36,1.45.85,2.17,1.26a.65.65,0,0,1,.24.89l-1.25,2A.65.65,0,0,1,59.06,33.45Z"/><path class="cls-84" d="M71.72,46.45l-1.19-2a.66.66,0,0,1,.19-.88l1.93-1.32a.63.63,0,0,1,.89.21l1.3,2.15a.62.62,0,0,1-.2.88l-2,1.13A.65.65,0,0,1,71.72,46.45Z"/><path class="cls-85" d="M76.52,63.91l-.12-2.28A.68.68,0,0,1,77,61l2.33-.22a.62.62,0,0,1,.67.61l.12,2.51a.62.62,0,0,1-.59.68H77.19A.68.68,0,0,1,76.52,63.91Z"/><path class="cls-86" d="M76.14,59.35l-.35-2.25a.6.6,0,0,1,.46-.74l2.28-.51a.67.67,0,0,1,.78.51l.4,2.48a.64.64,0,0,1-.53.75l-2.32.29A.64.64,0,0,1,76.14,59.35Z"/><path class="cls-87" d="M75.21,54.88l-.28-1.11c-.11-.36-.26-.72-.39-1.07a.64.64,0,0,1,.38-.8l2.2-.8a.66.66,0,0,1,.83.42c.14.4.3.79.42,1.19l.32,1.21a.67.67,0,0,1-.45.82L76,55.32A.64.64,0,0,1,75.21,54.88Z"/><path class="cls-88" d="M73.76,50.54c-.29-.7-.66-1.37-1-2.06a.66.66,0,0,1,.3-.85l2.08-1.06a.63.63,0,0,1,.85.32c.36.75.75,1.5,1.07,2.27a.68.68,0,0,1-.35.87l-2.18.86A.59.59,0,0,1,73.76,50.54Z"/><path class="cls-89" d="M136.44,85.62h-.86c-.38,0-.58-.22-.61-.67,0-.09,0-.22,0-.4s0-.3,0-.36a.5.5,0,0,1,0-.12.31.31,0,0,0,0-.13.56.56,0,0,0-.19,0h-4a.46.46,0,0,0-.38.25l-.28.41-.27.41a1.09,1.09,0,0,1-1,.63h-1.73a.52.52,0,0,1-.48-.24.93.93,0,0,1-.08-.64,1.48,1.48,0,0,1,.33-.74l1.24-1.53c.16-.17.93-1,2.31-2.54l.09-.09a.35.35,0,0,1,.07-.09l.08-.08.08-.1c.11-.14.12-.23,0-.29l-.28-.18-.27-.16a.1.1,0,0,1,0-.12.25.25,0,0,1,.13-.11l.4-.14,1.13-.34c.06,0,.08,0,.08,0s0,0-.06,0-.56,0-1.47,0h-.21s-.08,0-.08-.05.05-.07.08-.08l.4-.11.3-.08.37-.09.32-.08.48-.14a.23.23,0,0,0,.11-.11.08.08,0,0,0-.05-.1l-.07,0-.12,0-.13-.06-.13-.08-.1,0a.29.29,0,0,1-.08,0c-.09-.07-.09-.18,0-.34l.24-.23.85-.86c.37-.38.59-.6.68-.67l.17-.19c.16-.19.17-.33,0-.4a.61.61,0,0,0-.14-.07l-.15-.06a.57.57,0,0,1-.13-.08.11.11,0,0,1-.07,0l-.11,0a.12.12,0,0,1,0,0,0,0,0,0,1,0-.06q0-.12.33-.18l.8-.17,1.47-.36.29-.1q.1,0,.09-.09a.09.09,0,0,0-.09-.06H134l-.25,0a.21.21,0,0,1-.19-.19.58.58,0,0,1,.13-.38,12.78,12.78,0,0,1,1-1.11,1,1,0,0,1,1-.3c.2.06.29.23.28.53,0,.08,0,.2,0,.34s0,.24,0,.27a1,1,0,0,0,.15.61.63.63,0,0,0,.46.25h1.89c.07,0,.11,0,.11.07s0,.09-.11.12-.53.17-1.17.35l-.91.28-.08.06a.09.09,0,0,0,0,.13l.76.25a1.26,1.26,0,0,0,.27.1c.2.09.27.27.21.55s-.07.45-.13.8-.11.61-.14.8,0,.43.17.5l.34.14.45.16a1.07,1.07,0,0,1,.24.1s.05,0,0,.1,0,0-.09.07a2.19,2.19,0,0,1-.33.12c-.49.16-.81.27-1,.34s-.11.08-.08.12.1,0,.25,0h1.51s.06,0,.06,0,0,0-.08.08l-.23.07-.41.16-.3.13c-.13.05-.19.11-.19.16s0,.09.12.13l.22.09.24.08a2.68,2.68,0,0,1,.42.21.38.38,0,0,1,.17.44c-.08.67-.14,1.25-.19,1.72a17.64,17.64,0,0,0-.06,2.5,1.73,1.73,0,0,1-.13.74,1.84,1.84,0,0,1-.26.48,1.21,1.21,0,0,1-.35.33.9.9,0,0,1-.41.11Zm-3-5.25h1.73c.08,0,.12,0,.14-.15s.07-.35.08-.39c.09-.31,0-.51-.21-.61q-.6-.24-.84-.36a.11.11,0,0,1-.06-.13.27.27,0,0,1,.12-.09l.24-.09.34-.12.24-.09c.21-.07.31-.13.3-.17s-.06-.09-.17,0a1.77,1.77,0,0,0-.42.1l-.14,0-.18,0-.23.08-.26.08-.26.09-.34.12q-.18.09-.06.21a1,1,0,0,0,.19.13l.34.18c.14.07.13.21,0,.41l-.16.18-.12.13a1,1,0,0,1-.14.15l-.1.12a.56.56,0,0,0-.11.13S133.39,80.37,133.46,80.37Z"/><path class="cls-89" d="M149.1,81.21c-.25,0-1.47,0-3.67,0a.38.38,0,0,0-.19,0,.93.93,0,0,0-.15.25,26,26,0,0,0-1.4,3.06,1.82,1.82,0,0,1-.42.67,1,1,0,0,1-.68.38h-1.93a.43.43,0,0,1-.43-.29,1.06,1.06,0,0,1,0-.72c.2-.51.45-1.12.76-1.8s.81-1.65,1.47-2.82a1.18,1.18,0,0,0,.16-.42c0-.07-.08-.13-.2-.19l-.65-.25h-.05c-.11,0-.16-.09-.14-.16s.1-.11.27-.15l.76-.19a2.39,2.39,0,0,0,.77-.32c.06,0,.09-.09.09-.11s0,0-.07,0h-1.74c-.11,0-.17,0-.19-.07s.16-.13.46-.27a7.25,7.25,0,0,1,1-.34l.38-.1c.07,0,.11-.06.12-.11s0-.07-.1-.1-.06,0-.13-.06L143,77l-.2-.07a1.71,1.71,0,0,1-.27-.13c-.11-.08-.12-.22,0-.4l.42-.7c.18-.3.29-.49.32-.56a2.78,2.78,0,0,0,.25-.46q.13-.25,0-.36s-.3-.12-.84-.37c-.06,0-.08,0-.07-.1a.18.18,0,0,1,.13-.11l.4-.13a13.82,13.82,0,0,0,1.93-.53c.07,0,.11,0,.11-.08a.08.08,0,0,0-.07,0h-2a.34.34,0,0,1-.32-.17.9.9,0,0,1,.11-.88,1.56,1.56,0,0,1,1.22-.93H150a4.41,4.41,0,0,1,1.49.21,2,2,0,0,1,1.15,1,1.71,1.71,0,0,0,.42.61.94.94,0,0,0,.55.17h1.95s.07,0,.07,0,0,.08-.13.13a6.53,6.53,0,0,1-1,.33l-.45.12-.45.11c-.14,0-.22.09-.23.15s.06.08.15.13l.37.12.38.15c.17.07.26.15.27.23a1.06,1.06,0,0,1-.14.5c0,.1-.26.51-.65,1.22l-.08.14-.09.16c-.06.14,0,.23,0,.29a.66.66,0,0,0,.25.13c.41.16.62.26.65.27s.11.1,0,.15l-.29.08-.27.07-.3.07-.29.07a3.39,3.39,0,0,0-.51.17,1.34,1.34,0,0,0-.31.17c-.1.07-.14.12-.13.14a.14.14,0,0,0,.13.05h1.62q.21,0,.21.06s-.08.1-.23.17l-.84.25-.49.13-.43.12-.18,0c-.08,0-.1.09,0,.15l.17.1.18.08.22.09c.18.11.15.28-.11.51a5.8,5.8,0,0,1-1.4.88A6.15,6.15,0,0,1,149.1,81.21ZM150,75.1h-3.07a.78.78,0,0,0-.21,0,.34.34,0,0,0-.1.15l-.07.1-.54.93a.87.87,0,0,0-.15.35c0,.07.05.14.17.19a2.2,2.2,0,0,0,.94.28h3.28c.07,0,.11,0,.11,0s0,0,0-.07,0,0-.06-.05a.35.35,0,0,1-.09-.07c-.09-.06-.14-.12-.14-.17a.9.9,0,0,1,.14-.32c.17-.28.29-.48.36-.61.17-.35.13-.56-.12-.65A1.36,1.36,0,0,0,150,75.1Z"/><path class="cls-89" d="M162.84,81.21c-.25,0-1.48,0-3.68,0a.41.41,0,0,0-.19,0,1.62,1.62,0,0,0-.14.25,24.59,24.59,0,0,0-1.41,3.06,1.82,1.82,0,0,1-.42.67.94.94,0,0,1-.67.38H154.4a.42.42,0,0,1-.43-.29,1,1,0,0,1,0-.72c.19-.51.45-1.12.75-1.8s.82-1.65,1.47-2.82a.87.87,0,0,0,.16-.42c0-.07-.07-.13-.2-.19l-.65-.25h0c-.11,0-.16-.09-.15-.16s.11-.11.27-.15l.76-.19a2.61,2.61,0,0,0,.78-.32s.08-.09.08-.11,0,0-.06,0h-1.75c-.11,0-.17,0-.18-.07s.15-.13.46-.27a6.84,6.84,0,0,1,1-.34l.38-.1c.06,0,.1-.06.11-.11s0-.07-.09-.1a.31.31,0,0,0-.14-.06l-.25-.1-.2-.07a1.71,1.71,0,0,1-.27-.13c-.12-.08-.12-.22,0-.4l.42-.7a5,5,0,0,0,.32-.56,2.18,2.18,0,0,0,.25-.46q.15-.25,0-.36l-.84-.37s-.08,0-.06-.1a.15.15,0,0,1,.12-.11l.4-.13a14.1,14.1,0,0,0,1.94-.53c.07,0,.1,0,.1-.08a.05.05,0,0,0-.06,0h-2a.31.31,0,0,1-.31-.17.9.9,0,0,1,.1-.88,1.56,1.56,0,0,1,1.22-.93h5.88a4.37,4.37,0,0,1,1.49.21,2,2,0,0,1,1.16,1,1.48,1.48,0,0,0,.42.61.89.89,0,0,0,.54.17h2s.06,0,.06,0,0,.08-.13.13a6,6,0,0,1-1,.33l-.46.12-.45.11c-.14,0-.21.09-.23.15a.4.4,0,0,0,.15.13l.38.12.38.15c.16.07.25.15.27.23a1.28,1.28,0,0,1-.15.5c0,.1-.26.51-.65,1.22,0,0,0,.08-.07.14l-.1.16c-.05.14-.05.23,0,.29a.71.71,0,0,0,.26.13l.65.27c.09.06.1.1,0,.15l-.3.08-.27.07-.29.07-.3.07a3.28,3.28,0,0,0-.5.17,1.41,1.41,0,0,0-.32.17c-.09.07-.14.12-.12.14s0,.05.12.05h1.62q.21,0,.21.06s-.08.1-.23.17-.43.14-.84.25l-.48.13-.43.12-.18,0c-.09,0-.1.09-.05.15l.17.1.18.08.22.09c.18.11.15.28-.1.51a5.67,5.67,0,0,1-1.41.88A6.1,6.1,0,0,1,162.84,81.21Zm.88-6.11h-3.07a.78.78,0,0,0-.21,0,.45.45,0,0,0-.1.15l-.06.1-.55.93a.87.87,0,0,0-.15.35c0,.07.06.14.17.19a2.2,2.2,0,0,0,.95.28H164c.07,0,.11,0,.12,0s0,0-.05-.07,0,0-.07-.05a.19.19,0,0,1-.08-.07c-.1-.06-.15-.12-.15-.17a.81.81,0,0,1,.15-.32l.36-.61c.16-.35.12-.56-.13-.65A1.32,1.32,0,0,0,163.72,75.1Z"/><path class="cls-89" d="M175.77,85.62H167.9a.53.53,0,0,1-.62-.34,1.27,1.27,0,0,1,.07-1,28.37,28.37,0,0,1,1.91-4.26,1.64,1.64,0,0,0,.17-.32c.11-.21.11-.35,0-.42a3.7,3.7,0,0,0-.5-.21l-.14,0L168.6,79l-.09,0c-.06,0-.08-.06-.06-.1s.05-.06.12-.08l.25-.09,1-.29.36-.13c.07,0,.1,0,.1-.07s0,0-.06,0H168.4q-.08,0-.06-.09s0,0,.13-.1a1.17,1.17,0,0,1,.4-.21c.25-.1.44-.17.58-.21l.59-.15.25-.08c.1-.06.11-.11,0-.15l-.16-.06-.23-.08-.24-.07-.29-.13a.25.25,0,0,1-.16-.18.7.7,0,0,1,.12-.32c.08-.14.17-.3.27-.46l.32-.55c.11-.2.2-.35.27-.46a2.41,2.41,0,0,0,.13-.23c.08-.18.08-.3,0-.35l-.28-.14-.28-.09-.31-.12s0,0-.06,0,0-.07,0-.1.06-.06.15-.09l.5-.14,1.32-.32a2.83,2.83,0,0,0,.49-.17s.06,0,.06-.06,0,0-.06,0h-2.06c-.14,0-.23,0-.27-.13a.56.56,0,0,1,0-.54,2.28,2.28,0,0,1,.84-1.14,1,1,0,0,1,.52-.19h1.89a.39.39,0,0,1,.41.28,1,1,0,0,1-.07.67s0,0-.07.12a1.07,1.07,0,0,1-.06.17,2.18,2.18,0,0,0-.08.42.42.42,0,0,0,.06.25.23.23,0,0,0,.21.09h1.91l.17,0s0,0,0,0a.09.09,0,0,1,0,.07h-.05l-.1,0-.1,0-.71.18-.94.25-.49.14c-.13,0-.14.09-.05.14s0,0,.05,0l.07,0,.09,0a.13.13,0,0,1,.1,0l.17.07.24.1.17.06c.12.08.13.24,0,.46l-.09.17a4.77,4.77,0,0,0-.27.44c-.11.2-.21.38-.31.54s-.17.31-.26.45a.56.56,0,0,0-.13.33c0,.07.06.14.17.19a2.93,2.93,0,0,0,.42.17l.12,0,.14,0,.12.05.09.06a.11.11,0,0,1,0,.13l-.15,0-.36.09-.36.09a5.77,5.77,0,0,0-.63.21,1.17,1.17,0,0,0-.42.27c-.05.08,0,.13,0,.13h1.76c.1,0,.15,0,.15,0s-.08.08-.19.12a2.48,2.48,0,0,1-.53.19l-1.05.3a.11.11,0,0,0-.06.1s.08.09.21.13l.28.1.31.11c.17.07.25.14.26.22a1.11,1.11,0,0,1-.18.47c-.21.38-.43.8-.67,1.26,0,.07-.06.12,0,.14s0,0,.09,0h5.5a.39.39,0,0,1,.39.27.94.94,0,0,1-.05.65c0,.09-.1.21-.17.38l-.15.38c-.07.18-.16.44-.29.79l-.27.72c-.07.18-.14.32-.19.42a1.64,1.64,0,0,1-.4.45.83.83,0,0,1-.48.18Z"/><path class="cls-89" d="M191.23,73c.11,0,.17,0,.17,0s-.07.06-.21.1a19.48,19.48,0,0,1-1.95.49,5.11,5.11,0,0,0-.68.17c-.09,0-.14,0-.14.08s0,.08.08.1l.18.08.16.07.29.15c.11.07.11.18,0,.33l-.25.23-.87.79-.85.77a3,3,0,0,1-.26.23c-.11.13-.12.23,0,.32a.44.44,0,0,0,.19.12l.15.07.15.08a.23.23,0,0,1,.13.13s-.06.1-.2.14l-.26.06c-.12,0-.18.05-.18.07a8.92,8.92,0,0,0-.88.22,6.17,6.17,0,0,0-.61.24c-.1,0-.14.08-.13.1s0,0,.11,0H187s.06,0,.06,0a.09.09,0,0,1-.06.06,2.82,2.82,0,0,1-.5.19l-1.43.42c-.13,0-.15.1-.06.17a.46.46,0,0,0,.14.1l.09.07.27.18c.1.1.08.21-.06.32a1.84,1.84,0,0,0-.21.25l-.15.22-.17.32a1.1,1.1,0,0,1-.15.26A27.2,27.2,0,0,0,183.36,84s-.06.2-.17.55a2.09,2.09,0,0,1-.34.63,1.64,1.64,0,0,1-.36.34.68.68,0,0,1-.37.12h-1.89a.52.52,0,0,1-.48-.31,1,1,0,0,1,0-.72,15.12,15.12,0,0,1,.95-2.41c.14-.31.47-1,1-2,.17-.32.17-.55,0-.69a5,5,0,0,0-.94-.44c-.1,0-.16-.06-.17-.09s-.08-.12,0-.16l.4-.16.44-.18a1.21,1.21,0,0,0,.36-.17s.06-.05,0-.08a.05.05,0,0,0-.06-.06H180c-.07,0-.11,0-.12-.05s0-.12.15-.21a2.76,2.76,0,0,1,.37-.16c.07,0,.24-.1.51-.19l.27-.1c.06,0,.08,0,.08-.09a.09.09,0,0,0,0-.11c-.05,0-.39-.14-1-.35q-.31-.11-.27-.57c0-.18,0-.45.05-.79s0-.59,0-.75-.06-.47-.26-.54l-.36-.12-.31-.09-.22-.07-.26-.08c-.06,0-.09,0-.09-.08a.17.17,0,0,1,.11-.09l.13,0,.25-.07.29-.09.31-.09a1.16,1.16,0,0,1,.24-.07,5.55,5.55,0,0,0,.77-.28c.07,0,.11,0,.11-.08s0,0-.13,0h-.35c-.69,0-1.17,0-1.45,0a.88.88,0,0,1-.7-.48c-.07-.12-.05-.28.07-.51a1.8,1.8,0,0,1,.54-.71,1.1,1.1,0,0,1,.7-.3h2c.32,0,.49.17.5.55v.24a.7.7,0,0,0,0,.24,1.05,1.05,0,0,0,.18.67.75.75,0,0,0,.18.18.51.51,0,0,0,.21.09,1.92,1.92,0,0,0,.39,0h1.68s.06,0,.05,0,0,.06-.07.08a.65.65,0,0,1-.25.11c-.27.1-.78.24-1.53.44l-.21.08q-.14.08,0,.15l.15.06.3.09.31.08a3.37,3.37,0,0,1,.42.17.4.4,0,0,1,.23.46,9.14,9.14,0,0,0-.08,1c0,.08,0,.13,0,.13s0,0,.12-.07.59-.57,1.18-1.11a.69.69,0,0,1,.13-.11c.09-.12.1-.22,0-.29a.56.56,0,0,0-.19-.11,1.37,1.37,0,0,0-.2-.09l-.2-.07a.48.48,0,0,1-.13-.09c-.07,0-.06-.1,0-.14l.26-.07,1.45-.33,1.11-.3c.05,0,.08,0,.08-.06s0,0-.08,0h-.27l-1.52,0c-.14,0-.21,0-.21-.11a.56.56,0,0,1,.11-.48,5.62,5.62,0,0,1,1.26-1.26.75.75,0,0,1,.42-.13h2a.4.4,0,0,1,.43.29,1,1,0,0,1-.07.72.43.43,0,0,0,0,.07s0,.08,0,.13a.77.77,0,0,0-.07.16s0,.11-.07.17a.53.53,0,0,0-.06.14c-.09.2,0,.3.29.3l.89,0Z"/><path class="cls-89" d="M204.52,81.21c-.25,0-1.47,0-3.67,0a.38.38,0,0,0-.19,0,.93.93,0,0,0-.15.25,27.88,27.88,0,0,0-1.41,3.06,1.6,1.6,0,0,1-.42.67.92.92,0,0,1-.67.38h-1.93a.43.43,0,0,1-.43-.29,1,1,0,0,1,0-.72c.2-.51.45-1.12.76-1.8s.81-1.65,1.47-2.82a1.18,1.18,0,0,0,.16-.42c0-.07-.08-.13-.2-.19l-.66-.25h0c-.11,0-.16-.09-.14-.16s.1-.11.27-.15l.75-.19a2.61,2.61,0,0,0,.78-.32c.06,0,.09-.09.09-.11s0,0-.07,0h-1.74c-.11,0-.18,0-.19-.07s.15-.13.46-.27a6.84,6.84,0,0,1,1-.34l.38-.1c.07,0,.11-.06.11-.11s0-.07-.09-.1-.06,0-.14-.06l-.25-.1-.2-.07a1.71,1.71,0,0,1-.27-.13c-.11-.08-.12-.22,0-.4l.42-.7a4.27,4.27,0,0,0,.31-.56,3,3,0,0,0,.26-.46q.14-.25,0-.36s-.3-.12-.84-.37c-.06,0-.08,0-.07-.1a.18.18,0,0,1,.13-.11,3.76,3.76,0,0,1,.4-.13,13.82,13.82,0,0,0,1.93-.53c.07,0,.1,0,.1-.08a.05.05,0,0,0-.06,0h-2a.33.33,0,0,1-.32-.17.9.9,0,0,1,.11-.88,1.55,1.55,0,0,1,1.22-.93h5.88a4.41,4.41,0,0,1,1.49.21,2,2,0,0,1,1.15,1,1.71,1.71,0,0,0,.42.61A.94.94,0,0,0,209,73h2s.06,0,.06,0,0,.08-.12.13a6.53,6.53,0,0,1-1,.33l-.45.12-.45.11c-.14,0-.22.09-.23.15s.06.08.14.13l.38.12.38.15c.17.07.26.15.27.23a1.06,1.06,0,0,1-.14.5c-.05.1-.26.51-.66,1.22a.59.59,0,0,1-.07.14c0,.06-.07.11-.09.16s-.05.23,0,.29a.66.66,0,0,0,.25.13c.41.16.62.26.65.27s.11.1,0,.15l-.29.08-.28.07-.29.07-.29.07a3.39,3.39,0,0,0-.51.17A1.34,1.34,0,0,0,208,78c-.1.07-.14.12-.13.14a.14.14,0,0,0,.13.05h1.61q.21,0,.21.06s-.07.1-.23.17-.43.14-.84.25l-.48.13-.43.12-.18,0c-.08,0-.1.09,0,.15l.17.1.18.08.22.09c.18.11.14.28-.11.51a5.67,5.67,0,0,1-1.41.88A6,6,0,0,1,204.52,81.21Zm.88-6.11h-3.06a.78.78,0,0,0-.21,0,.43.43,0,0,0-.11.15l-.06.1-.55.93a1,1,0,0,0-.14.35c0,.07,0,.14.17.19a2.16,2.16,0,0,0,.94.28h3.28c.07,0,.1,0,.11,0s0,0-.05-.07,0,0-.06-.05a.23.23,0,0,1-.09-.07c-.1-.06-.14-.12-.14-.17a.74.74,0,0,1,.14-.32c.17-.28.29-.48.36-.61.17-.35.13-.56-.13-.65A1.28,1.28,0,0,0,205.4,75.1Z"/><path class="cls-89" d="M216.09,71h3a3.13,3.13,0,0,1,1.47.34,2.16,2.16,0,0,1,.79.8,1.18,1.18,0,0,1,.11.18,1.24,1.24,0,0,1,.1.2l.11.16.1.13a.64.64,0,0,0,.42.17L224,73h0c.17,0,.25,0,.25.06s-.11.1-.33.17l-.57.16-.74.21-.37.09q-.14,0-.15.09s0,.08.09.12l.14,0,.28.11.3.12.22.09a.31.31,0,0,1,.17.19.59.59,0,0,1-.09.31c-.11.27-.3.65-.56,1.16,0,.08-.11.2-.2.34l-.16.25c-.13.22-.12.37,0,.44l.48.21.28.12a.1.1,0,0,1,0,.11s0,.07-.11.1l-.18,0a1.27,1.27,0,0,1-.18.06l-.21,0-.22.06-.2.07-.18.05a3.52,3.52,0,0,0-.57.19c-.13,0-.19.1-.19.12s0,.05.14.05H223q.09,0,.09,0s-.06.06-.17.11a7.64,7.64,0,0,1-.91.28l-1.07.27c-.08,0-.12,0-.12.07s0,.08.12.12l.53.27c.11.07.1.16,0,.27a2.22,2.22,0,0,1-.32.21,6,6,0,0,1-1.47.63.69.69,0,0,0-.22.11.55.55,0,0,0,0,.25,22.65,22.65,0,0,0,.55,3,.44.44,0,0,0,0,.19,1.58,1.58,0,0,1-.09.73,1.71,1.71,0,0,1-.35.64.94.94,0,0,1-.65.29h-2.31a.49.49,0,0,1-.49-.4l-.27-.88a22.15,22.15,0,0,1-.55-3.34v-.19a.13.13,0,0,0-.14-.14h-.7c-.08,0-.15,0-.21.16l-.31.62c-.15.32-.27.56-.34.73a17.47,17.47,0,0,0-.94,2.37,1.34,1.34,0,0,1-.17.4,1.05,1.05,0,0,1-.92.67h-1.81a.48.48,0,0,1-.49-.3,1,1,0,0,1,0-.85,23.27,23.27,0,0,1,.94-2.42c.21-.42.58-1.15,1.11-2.18a.8.8,0,0,0,.16-.4c0-.07-.08-.13-.22-.19l-.43-.16-.43-.15q-.09,0-.06-.09s0-.05.1-.08.39-.12.65-.19a7.46,7.46,0,0,0,.91-.27c.19-.07.28-.14.25-.19s0,0-.08,0h-1.77c-.08,0-.12,0-.1-.05s0-.07.1-.1a4.48,4.48,0,0,1,.78-.32l.4-.11.41-.12.18-.06a.11.11,0,0,0,0-.11,1.13,1.13,0,0,0-.24-.1L211.5,77l-.26-.1c-.09-.06-.14-.12-.14-.19a.75.75,0,0,1,.12-.32c.1-.16.25-.43.46-.79l.49-.85a.82.82,0,0,0,.15-.4c0-.08-.08-.15-.22-.23l-.65-.25c-.11-.05-.16-.1-.15-.14s.08-.08.22-.11a2.93,2.93,0,0,1,.48-.11c.24-.05.44-.11.61-.16.6-.16,1-.26,1.11-.32l.08-.06s0,0-.06,0h-2c-.16,0-.25,0-.29-.15a.85.85,0,0,1,0-.65,2,2,0,0,1,.59-.85,1.28,1.28,0,0,1,.79-.35C213.11,71,214.18,71,216.09,71Zm2.65,4.12c-1.74,0-2.79,0-3.15,0a.3.3,0,0,0-.27.19l-.37.64c-.16.27-.27.46-.33.58s-.11.35,0,.44a1.14,1.14,0,0,0,.65.21h3.36s.06,0,.07,0,0,0,0-.11,0-.26.12-.48a5.1,5.1,0,0,0,.44-.74c.17-.33.14-.54-.08-.63A1.66,1.66,0,0,0,218.74,75.08Z"/><path class="cls-89" d="M228,73h-1.93c-.1,0-.15,0-.17-.11s0-.14.13-.25a4.83,4.83,0,0,1,.77-.58,8.69,8.69,0,0,1,.91-.51,8.12,8.12,0,0,1,4.47-.76,4.48,4.48,0,0,1,1.49.44,2.61,2.61,0,0,1,1.05.89,2.88,2.88,0,0,0,.67.71A1.11,1.11,0,0,0,236,73h2s0,0,0,.06,0,.06-.11.11a5.6,5.6,0,0,1-.86.31l-.53.16-.41.11c-.09,0-.14.07-.15.11s0,.06.13.1a.94.94,0,0,0,.27.11l.21.07.25.09.21.07c.15.07.25.15.27.23a.88.88,0,0,1,0,.46,7.16,7.16,0,0,1-.42,1.37c-.12.26-.1.43.08.5l.36.14.27.09.3.13s.06.06.06.08,0,0-.1.07a1.47,1.47,0,0,1-.36.12l-.71.19a2.67,2.67,0,0,0-.57.23c-.16.1-.23.18-.21.23s0,.05.13.05h1.65q.19,0,.21.06c0,.05-.24.17-.73.36l-.66.19-.45.14c-.05,0-.07,0-.07.09a.14.14,0,0,0,0,.1l.16,0,.3.12.23.08a.8.8,0,0,1,.21.13c.07.07.06.17,0,.29a.48.48,0,0,1-.09.13,18.12,18.12,0,0,1-3.92,4.16A9,9,0,0,1,229,85.81a6.67,6.67,0,0,1-3.46-.25,3.57,3.57,0,0,1-1.48-1,3.47,3.47,0,0,1-.65-2.73,6.06,6.06,0,0,1,.51-1.72,1.09,1.09,0,0,0,.12-.49q0-.1-.27-.21l-.25-.1-.34-.12-.16-.07C223,79,223,79,223,79s0,0,.11-.08l.42-.13a7.54,7.54,0,0,0,1.17-.42c.13,0,.18-.1.17-.14s0,0-.08,0h-1.72c-.12,0-.17,0-.17-.05s.07-.09.27-.21a6,6,0,0,1,1.22-.42l.42-.12a.21.21,0,0,0,.1-.11.1.1,0,0,0,0-.08l-.4-.15a3.21,3.21,0,0,1-.46-.21q-.15-.1,0-.36s.27-.31.74-.85l.75-.87a.69.69,0,0,0,.2-.31q0-.1-.18-.21l-.22-.12L225,74a.12.12,0,0,1-.08-.11s0-.08.14-.1l.52-.12.93-.21.7-.16a5.86,5.86,0,0,0,.77-.21c.06,0,.09,0,.09-.06S228.08,73,228,73Zm-1.55,5.19h1.78c.09,0,.14,0,.15,0s-.05.07-.15.12a3.36,3.36,0,0,1-.61.26l-.38.11-.44.13-.23.07c-.08,0-.12.06-.12.11s0,.05.1.08l.1.05.18.07.21.07.22.08.15.06c.19.08.24.24.17.51a1.17,1.17,0,0,0,.21,1.11,1.25,1.25,0,0,0,.63.36,5,5,0,0,0,2.71-.08,4.64,4.64,0,0,0,1.66-1c.17-.15.34-.33.53-.53s.16-.29,0-.37l-.34-.17-.22-.09-.22-.08c-.06,0-.08-.06-.06-.1s0-.08.1-.11l.51-.15a5.23,5.23,0,0,0,1.25-.44c.06,0,.08-.06.07-.1l-.07,0h-1.86c-.07,0-.08-.06,0-.13a1.77,1.77,0,0,1,.71-.36l.26-.07.34-.1.28-.08.15-.06a.22.22,0,0,0,.1-.09.08.08,0,0,0-.06-.08l-.31-.13-.32-.1-.4-.15c-.14,0-.2-.19-.19-.4a1,1,0,0,0-.33-.9,1.34,1.34,0,0,0-.49-.25,4.32,4.32,0,0,0-2.24,0,4.63,4.63,0,0,0-2,.94,1.64,1.64,0,0,0-.33.3c-.17.16-.19.29-.05.37L228,77l.38.17c.1.06.09.1,0,.15l-.4.09a5.24,5.24,0,0,0-.61.18,3.08,3.08,0,0,0-.88.36c-.09.07-.12.12-.11.14A.11.11,0,0,0,226.47,78.15Z"/><path class="cls-89" d="M253.47,73h2s0,0,0,0a.13.13,0,0,1-.07.08,2,2,0,0,1-.44.17l-1.2.3-.26.06-.27.06-.21.07a.12.12,0,0,0-.1.12A.12.12,0,0,0,253,74l.36.13a2.84,2.84,0,0,1,.42.2q.15.09.15.18a.65.65,0,0,1-.11.32L253,76.21l-.11.19c-.11.2-.1.33,0,.4a2.69,2.69,0,0,0,.44.19l.42.15c.08,0,.12.07.1.12s0,.08-.17.11l-.14,0-.16,0-.16,0-.15.05-.67.19a.79.79,0,0,0-.48.29c-.06.07,0,.11,0,.13h1.85c.07,0,.1,0,.1,0s0,.09-.12.14a2,2,0,0,1-.38.17l-.57.17-.73.21A.42.42,0,0,0,252,79a.11.11,0,0,0,.06.13l.17.06.24.09.27.1a.7.7,0,0,1,.21.11c.11.07.12.2,0,.4l-.31.54c-.13.24-.23.42-.3.53a29.09,29.09,0,0,0-1.7,3.69,2.08,2.08,0,0,1-.5.72.85.85,0,0,1-.68.29h-1.76a.45.45,0,0,1-.41-.2.75.75,0,0,1-.1-.51,1.69,1.69,0,0,1,.13-.49c.31-.71.55-1.26.71-1.65.33-.7.81-1.64,1.45-2.8a.87.87,0,0,0,.16-.4c0-.07-.08-.14-.22-.21l-.52-.21L248.6,79a.11.11,0,0,1,0-.11.94.94,0,0,1,.36-.21l.52-.17.28-.1s.08-.06.08-.08,0-.1-.15-.07l-.42.11-.94.31-.46.15c-.09,0-.13.08-.13.15s0,.07.1.12l.22.13.13.07.12.07c.07.06.09.1.08.13s-.08.08-.19.17l-.25.17-.81.52-.93.61-.8.51a1.24,1.24,0,0,1-.74.25.45.45,0,0,1-.44-.28c0-.08-.13-.3-.3-.67a7.58,7.58,0,0,1-.37-.84,1,1,0,0,0-.63-.59l-.46-.12-.4-.13-.38-.1s0-.06,0-.09,0-.07.13-.1l.52-.17.59-.21h0q.17-.06.15-.15s-.07,0-.15,0l-.21,0-.19.06-1.15.35a1.62,1.62,0,0,0-.36.15c-.07.06-.08.11,0,.15a.2.2,0,0,0,.14.08,1.09,1.09,0,0,0,.27.11l.3.1c.17.07.26.15.28.22a1.15,1.15,0,0,1-.19.5A33.89,33.89,0,0,0,240,83.54c0,.1-.1.26-.19.47a3,3,0,0,1-.21.48,3.82,3.82,0,0,1-.29.58,1,1,0,0,1-.84.55c-.93,0-1.55,0-1.87,0a.44.44,0,0,1-.45-.31,1.08,1.08,0,0,1,.05-.76,30.31,30.31,0,0,1,2-4.16,1.37,1.37,0,0,1,.11-.23l.14-.25a.83.83,0,0,0,.12-.33c0-.06-.05-.12-.16-.18l-.53-.2-.29-.13a.06.06,0,0,1-.05-.08.16.16,0,0,1,.09-.09l1-.36a3.7,3.7,0,0,0,.67-.25c.08,0,.13-.05.13-.08s0-.06-.13-.06h-.17l-1.41,0h-.29c-.08,0-.1,0,0-.12a.22.22,0,0,1,.08-.09,7.61,7.61,0,0,1,1.2-.39l.61-.17c.08,0,.13-.06.14-.09s0-.06-.1-.1L239,77a4,4,0,0,1-.47-.2c-.1,0-.15-.09-.15-.16a.67.67,0,0,1,.13-.3c.08-.17.22-.41.41-.73l.43-.74a1.15,1.15,0,0,0,.18-.44c0-.09-.09-.16-.24-.23l-.32-.13-.12,0-.17-.06c-.12-.06-.16-.11-.13-.17s.09-.08.23-.13l.36-.09.25,0c.57-.14,1-.25,1.16-.32A3.1,3.1,0,0,0,241,73s0,0,0,0h-2a.34.34,0,0,1-.32-.15.93.93,0,0,1,.13-1A1.57,1.57,0,0,1,240,71a.4.4,0,0,1,.46.23l.15.26a2.75,2.75,0,0,0,.17.29c.05.09.1.18.14.27a2.68,2.68,0,0,0,.37.57,1,1,0,0,0,.47.29,2.35,2.35,0,0,0,.4,0H244q.15,0,.15.06c0,.06-.07.11-.18.17a2.64,2.64,0,0,1-.49.19l-.4.11-.42.12c-.15.06-.24.1-.25.13s0,.16.17.21l.23.07.26.07.22.06.46.15a.74.74,0,0,1,.46.48l.31.71c.16.36.27.64.34.85a.8.8,0,0,0,.26.34.88.88,0,0,0,.3.16,3,3,0,0,0,.41.09.14.14,0,0,0,.08-.11c0-.08,0-.17.13-.25l.38-.25.8-.5.9-.55.8-.51.36-.25c.12-.1.14-.19.06-.29l-.17-.11-.05,0-.07,0,0,0c-.05,0-.08-.09-.06-.13s0-.1.13-.12l.39-.09,1.49-.29c.54-.11,1-.21,1.31-.3.08,0,.12,0,.12-.08s0,0-.08,0H250.7l-.33,0c-.1,0-.12-.07-.05-.19a2.18,2.18,0,0,1,.27-.31,2.45,2.45,0,0,1,.32-.28c.06,0,.53-.35,1.43-1A.92.92,0,0,1,253,71a.36.36,0,0,1,.32.23.75.75,0,0,1,0,.52,3.56,3.56,0,0,1-.13.36.79.79,0,0,0,0,.58A.37.37,0,0,0,253.47,73Z"/><path class="cls-89" d="M258.93,73H257c-.1,0-.15,0-.16-.11s0-.14.12-.25a4.57,4.57,0,0,1,.78-.58,7.78,7.78,0,0,1,.9-.51,8.13,8.13,0,0,1,4.47-.76,4.48,4.48,0,0,1,1.49.44,2.61,2.61,0,0,1,1,.89,2.85,2.85,0,0,0,.68.71,1.07,1.07,0,0,0,.56.17h2s.05,0,0,.06,0,.06-.11.11a5.6,5.6,0,0,1-.86.31l-.53.16-.41.11a.23.23,0,0,0-.15.11s0,.06.13.1a.94.94,0,0,0,.27.11l.21.07.25.09.21.07a.48.48,0,0,1,.28.23,1.06,1.06,0,0,1-.05.46,7.16,7.16,0,0,1-.42,1.37c-.12.26-.09.43.09.5a2.78,2.78,0,0,0,.35.14l.28.09.29.13s.06.06.06.08,0,0-.1.07a1.47,1.47,0,0,1-.36.12c-.14,0-.37.11-.71.19a2.67,2.67,0,0,0-.57.23c-.15.1-.22.18-.21.23s0,.05.13.05h1.66q.18,0,.21.06c0,.05-.25.17-.74.36l-.66.19-.45.14a.09.09,0,0,0-.06.09.13.13,0,0,0,0,.1l.17,0,.29.12.23.08a.8.8,0,0,1,.21.13c.07.07.06.17,0,.29a1.05,1.05,0,0,1-.08.13,18.37,18.37,0,0,1-3.93,4.16,9,9,0,0,1-3.91,1.76,6.68,6.68,0,0,1-3.46-.25,3.6,3.6,0,0,1-1.47-1,3.43,3.43,0,0,1-.65-2.73,6,6,0,0,1,.5-1.72,1.35,1.35,0,0,0,.13-.49c0-.07-.11-.14-.28-.21a1.53,1.53,0,0,0-.25-.1l-.33-.12a.62.62,0,0,1-.17-.07c-.06,0-.08-.06-.07-.11s0,0,.11-.08l.42-.13a8.13,8.13,0,0,0,1.18-.42c.12,0,.18-.1.16-.14s0,0-.08,0H254c-.11,0-.17,0-.17-.05s.08-.09.27-.21a6,6,0,0,1,1.22-.42l.42-.12a.23.23,0,0,0,.11-.11s0,0-.05-.08l-.4-.15a3.21,3.21,0,0,1-.46-.21q-.15-.1,0-.36s.28-.31.74-.85l.75-.87c.13-.14.2-.24.2-.31s0-.14-.18-.21a1.26,1.26,0,0,0-.22-.12L256,74a.14.14,0,0,1-.08-.11s0-.08.15-.1l.51-.12.94-.21.69-.16a5.86,5.86,0,0,0,.77-.21c.06,0,.09,0,.09-.06S259,73,258.93,73Zm-1.55,5.19h1.79c.08,0,.13,0,.14,0s-.05.07-.14.12a4.12,4.12,0,0,1-.61.26l-.39.11-.43.13-.23.07c-.09,0-.13.06-.13.11s0,.05.11.08l.09.05.18.07.21.07.22.08.16.06c.18.08.23.24.16.51a1.17,1.17,0,0,0,.21,1.11,1.25,1.25,0,0,0,.63.36,5,5,0,0,0,2.71-.08,4.64,4.64,0,0,0,1.66-1,6.61,6.61,0,0,0,.53-.53c.15-.16.16-.29,0-.37a2.47,2.47,0,0,0-.34-.17l-.22-.09-.22-.08c-.05,0-.08-.06-.06-.1s.05-.08.1-.11l.51-.15a5.57,5.57,0,0,0,1.26-.44c.05,0,.07-.06.06-.1l-.06,0h-1.87c-.07,0-.08-.06,0-.13a1.85,1.85,0,0,1,.71-.36l.26-.07.34-.1a1.58,1.58,0,0,0,.28-.08l.15-.06a.26.26,0,0,0,.11-.09.08.08,0,0,0-.07-.08l-.31-.13-.32-.1-.4-.15c-.14,0-.2-.19-.19-.4a1,1,0,0,0-.33-.9,1.39,1.39,0,0,0-.48-.25,4.36,4.36,0,0,0-2.25,0,4.63,4.63,0,0,0-2,.94,1.64,1.64,0,0,0-.33.3c-.17.16-.18.29,0,.37s.15.07.37.17l.38.17c.1.06.09.1,0,.15l-.4.09a5.24,5.24,0,0,0-.61.18,3.23,3.23,0,0,0-.88.36c-.08.07-.12.12-.1.14A.08.08,0,0,0,257.38,78.15Z"/><path class="cls-89" d="M278.69,73h-1.63c-.14,0-.21,0-.21-.13s0-.2.19-.31a4.83,4.83,0,0,1,.44-.34,10.11,10.11,0,0,1,2.87-1.26,7.1,7.1,0,0,1,3.8,0,3.37,3.37,0,0,1,2,1.41.9.9,0,0,0,.07.11,1.23,1.23,0,0,1,.08.12.37.37,0,0,0,.06.1.4.4,0,0,0,.07.09l.08.06a.15.15,0,0,0,.09.06l.11.05a1.49,1.49,0,0,0,.47.06H289q.18,0,.18.06c0,.06-.08.12-.25.19a5.64,5.64,0,0,1-1.24.4l-.15,0-.3.06-.22.06c-.17,0-.26.09-.27.14s0,.09.1.13l.07,0,.11.06.13,0a.38.38,0,0,1,.11.05,1.55,1.55,0,0,1,.28.12c.11.06.16.11.16.17s-.07.13-.23.23l-.31.19-2.31,1a1.44,1.44,0,0,1-.42.11.3.3,0,0,1-.34-.15,1.41,1.41,0,0,0-1.07-.76,5.29,5.29,0,0,0-2.64.17,4.55,4.55,0,0,0-1.62.92c-.11.09-.21.17-.3.26a.82.82,0,0,0-.26.34c0,.08.06.15.2.22l.23.09.21.08.3.13c.07,0,0,.08-.05.12l-.33.11-.93.27a5,5,0,0,0-.48.21c-.07,0-.1,0-.1.06s0,0,.08,0h.23c.79,0,1.27,0,1.45,0s.08,0,.08,0,0,0-.1.06a6.21,6.21,0,0,1-.59.21l-.61.19c-.12.06-.19.1-.21.15s0,.07.13.12l.73.34c.16.08.2.24.13.48a1.67,1.67,0,0,0-.06.29,1.08,1.08,0,0,0,.21.93,1.33,1.33,0,0,0,.75.42,5.67,5.67,0,0,0,2.94-.15,6.11,6.11,0,0,0,1-.46,1.3,1.3,0,0,1,.48-.21.36.36,0,0,1,.42.11c.42.39.79.73,1.12,1a.72.72,0,0,1,.1.82,2.19,2.19,0,0,1-.67,1,10.41,10.41,0,0,1-3.23,2,7.66,7.66,0,0,1-3,.44,5.25,5.25,0,0,1-2.37-.56A3.55,3.55,0,0,1,275,84.17a3.65,3.65,0,0,1-.48-2.77,7.2,7.2,0,0,1,.5-1.62.62.62,0,0,0,.08-.34.27.27,0,0,0-.16-.18,2.5,2.5,0,0,0-.42-.21l-.32-.15a.08.08,0,0,1,0-.1s0-.08.08-.11l.36-.15.65-.21.11,0,.11,0,.1,0s0,0,0,0v0h-1.75s0,0,0,0a.2.2,0,0,1,0-.08l.36-.15.57-.16.24-.07.26-.06.19-.06c.07,0,.11-.07.11-.11s0-.07,0-.08l-.53-.21a1.17,1.17,0,0,1-.23-.13c-.11-.05-.17-.12-.17-.19a.64.64,0,0,1,.17-.31,19.82,19.82,0,0,1,1.34-1.62,1.15,1.15,0,0,0,.23-.23c.13-.14.14-.25,0-.34a.36.36,0,0,0-.15-.1,2.46,2.46,0,0,1-.29-.11s0,0-.05,0-.18-.12-.16-.19.12-.12.29-.14l1.55-.34a11.08,11.08,0,0,0,1.3-.34c.06,0,.09,0,.09-.08s0,0-.06,0Z"/><path class="cls-89" d="M291.86,73h-1.93c-.1,0-.15,0-.17-.11s0-.14.13-.25a4.83,4.83,0,0,1,.77-.58,8.69,8.69,0,0,1,.91-.51,8.12,8.12,0,0,1,4.47-.76,4.48,4.48,0,0,1,1.49.44,2.61,2.61,0,0,1,1.05.89,2.88,2.88,0,0,0,.67.71,1.08,1.08,0,0,0,.57.17h2s.06,0,0,.06,0,.06-.11.11a5.6,5.6,0,0,1-.86.31l-.53.16-.42.11c-.08,0-.13.07-.14.11s0,.06.12.1a1.22,1.22,0,0,0,.28.11l.21.07.25.09.21.07a.49.49,0,0,1,.27.23.88.88,0,0,1,0,.46,7.16,7.16,0,0,1-.42,1.37c-.13.26-.1.43.08.5l.36.14.27.09.3.13s.06.06.06.08-.05,0-.1.07a1.47,1.47,0,0,1-.36.12l-.71.19a2.67,2.67,0,0,0-.57.23c-.16.1-.23.18-.21.23s0,.05.12.05h1.66q.19,0,.21.06c0,.05-.24.17-.73.36l-.66.19-.46.14a.09.09,0,0,0-.06.09.18.18,0,0,0,0,.1l.17,0,.3.12.23.08a.8.8,0,0,1,.21.13c.07.07.06.17,0,.29a.48.48,0,0,1-.09.13,18.12,18.12,0,0,1-3.92,4.16,9,9,0,0,1-3.91,1.76,6.72,6.72,0,0,1-3.47-.25,3.6,3.6,0,0,1-1.47-1,3.47,3.47,0,0,1-.65-2.73,6.06,6.06,0,0,1,.51-1.72,1.26,1.26,0,0,0,.12-.49q0-.1-.27-.21l-.25-.1-.34-.12a.84.84,0,0,1-.17-.07c-.05,0-.07-.06-.06-.11s0,0,.11-.08l.42-.13a7.54,7.54,0,0,0,1.17-.42c.13,0,.18-.1.17-.14s0,0-.08,0h-1.73c-.11,0-.16,0-.16-.05s.07-.09.27-.21a6,6,0,0,1,1.22-.42l.42-.12a.21.21,0,0,0,.1-.11.1.1,0,0,0,0-.08l-.4-.15a2.72,2.72,0,0,1-.46-.21q-.15-.1,0-.36s.27-.31.73-.85l.76-.87a.69.69,0,0,0,.2-.31q0-.1-.18-.21a1.26,1.26,0,0,0-.22-.12l-.24-.11a.12.12,0,0,1-.08-.11s0-.08.14-.1l.52-.12.93-.21.69-.16a6.31,6.31,0,0,0,.78-.21c.06,0,.09,0,.09-.06S291.92,73,291.86,73Zm-1.55,5.19h1.78c.09,0,.14,0,.15,0s-.05.07-.15.12a3.36,3.36,0,0,1-.61.26l-.39.11-.43.13-.23.07c-.08,0-.12.06-.12.11s0,.05.1.08l.1.05.18.07.21.07.22.08.15.06c.19.08.24.24.17.51a1.17,1.17,0,0,0,.21,1.11,1.25,1.25,0,0,0,.63.36A5,5,0,0,0,295,81.3a4.64,4.64,0,0,0,1.66-1,6.58,6.58,0,0,0,.52-.53c.16-.16.17-.29,0-.37a3.32,3.32,0,0,0-.34-.17l-.22-.09-.22-.08c-.06,0-.08-.06-.06-.1a.15.15,0,0,1,.1-.11l.5-.15a5.19,5.19,0,0,0,1.26-.44c.06,0,.08-.06.07-.1l-.07,0h-1.86c-.07,0-.08-.06,0-.13a1.92,1.92,0,0,1,.72-.36l.26-.07.34-.1.28-.08.15-.06a.22.22,0,0,0,.1-.09.08.08,0,0,0-.06-.08l-.32-.13-.31-.1-.4-.15c-.14,0-.2-.19-.19-.4a1,1,0,0,0-.33-.9,1.34,1.34,0,0,0-.49-.25,4.32,4.32,0,0,0-2.24,0,4.58,4.58,0,0,0-2,.94,1.64,1.64,0,0,0-.33.3c-.17.16-.19.29,0,.37l.38.17.38.17c.1.06.09.1,0,.15l-.4.09a4.71,4.71,0,0,0-.61.18,3.08,3.08,0,0,0-.88.36c-.09.07-.12.12-.11.14A.11.11,0,0,0,290.31,78.15Z"/><path class="cls-89" d="M303.85,85.62v0h-2.69a.5.5,0,0,1-.21,0,.5.5,0,0,1-.48-.31,1,1,0,0,1,0-.76,20.07,20.07,0,0,1,.8-2.12c.34-.74.77-1.6,1.3-2.56a1.18,1.18,0,0,0,.16-.45c0-.08-.08-.15-.22-.22l-.44-.21a.91.91,0,0,1-.21-.11c-.07-.07-.06-.13,0-.17a1.76,1.76,0,0,1,.36-.12c.15-.06.43-.15.84-.28a.91.91,0,0,0,.26-.1s0,0,0-.06h-1.74s-.07,0-.07,0,0-.06.11-.1a2.53,2.53,0,0,1,.46-.17l.67-.19.4-.14a.22.22,0,0,0,.13-.07s0-.07-.07-.1a1.28,1.28,0,0,0-.33-.15l-.42-.17c-.13-.07-.2-.14-.2-.21a.77.77,0,0,1,.15-.38c.07-.14.21-.38.42-.73l.49-.8a1.14,1.14,0,0,0,.16-.43c0-.08-.09-.14-.23-.2a1.58,1.58,0,0,0-.26-.1l-.32-.13-.19-.08a.12.12,0,0,1-.06-.1s.05-.06.12-.07l.38-.11.42-.1.42-.11a5.43,5.43,0,0,0,.67-.16,5.23,5.23,0,0,1,.5-.17.81.81,0,0,0,.24-.15s-.08,0-.24,0h-1.55l-.34,0a.32.32,0,0,1-.29-.24.89.89,0,0,1,.06-.54,2.34,2.34,0,0,1,.61-.86,1.1,1.1,0,0,1,.74-.36h4.91a6.15,6.15,0,0,1,2.14.38,2.51,2.51,0,0,1,1.26,1,1.75,1.75,0,0,0,.59.59,1.32,1.32,0,0,0,.48.06h2c.07,0,0,.09-.11.19a1.62,1.62,0,0,1-.38.19l-.65.19-.22,0-.25.06-.23,0-.18,0c-.14,0-.22.08-.23.12s0,.09.13.13l.5.14c.31.1.5.17.59.21s.19.11.21.18a1.25,1.25,0,0,1,0,.39,9.73,9.73,0,0,1-.57,1.49.94.94,0,0,0-.13.42c0,.07.09.14.23.21a1.22,1.22,0,0,0,.28.11l.13.06.2.06,0,0,.07,0,.07,0s0,0,0,0v.06s-.12.09-.29.15l-.9.25a3.87,3.87,0,0,0-.49.19c-.07,0-.1,0-.1.07s0,0,.08,0h1.6c.11,0,.16,0,.15,0s-.07.06-.19.1l-.2.08-.21.06-.22.07-.21.07-.36.12a.15.15,0,0,0-.1.11s0,.07,0,.1l.12,0,.14.08a.42.42,0,0,0,.14.06l.35.19c.1.08.1.21,0,.38a.3.3,0,0,1,0,.08,23.24,23.24,0,0,1-2.45,3.17,8.14,8.14,0,0,1-4.08,2.48,8.52,8.52,0,0,1-1.95.23Zm1.64-4.24c1.43,0,2.23,0,2.42,0a3.6,3.6,0,0,0,1.36-.38,4.06,4.06,0,0,0,1.51-1.28c.16-.2.17-.34,0-.44l-.31-.17c-.21-.1-.32-.15-.32-.17s-.14-.1-.14-.12.09-.12.23-.17l.26-.08.41-.12.32-.1.39-.14s0,0-.1,0h-1.64c-.22,0-.33,0-.33-.05a1.36,1.36,0,0,1,.39-.16l.38-.11.49-.13.27-.06c.26-.07.4-.13.42-.19s0-.07-.05-.1a1.3,1.3,0,0,0-.27-.11,5,5,0,0,1-.75-.29.33.33,0,0,1-.11-.36,1,1,0,0,0-.46-1.2,2.06,2.06,0,0,0-.9-.18c-.28,0-.68,0-1.21,0h-1.08c-.08,0-.17.07-.25.19s-.18.34-.33.59-.25.44-.32.55a.53.53,0,0,0-.12.31.22.22,0,0,0,.16.17,3.93,3.93,0,0,0,.43.2l.37.16c.05,0,.07.06,0,.1s0,0-.11.07a2.67,2.67,0,0,1-.38.14A8.86,8.86,0,0,0,305,78c-.07,0-.11.06-.11.08s0,0,.09,0h1.59c.11,0,.17,0,.17,0s-.06.08-.19.12l-.46.15-.26.08-.31.11a.83.83,0,0,0-.23.08c-.08.06-.09.11,0,.15s.1.08.25.15l.46.23c.12.05.17.12.17.19a.83.83,0,0,1-.12.33l-.19.37-.21.4-.19.35a2.62,2.62,0,0,0-.17.33.43.43,0,0,0,0,.14s0,0,.1,0Z"/><path class="cls-89" d="M328.63,73s-.05.08-.16.13l-.53.19-1.11.29a6,6,0,0,0-.76.19c-.08,0-.13.06-.13.1s0,.06.07.09l.21.08.12,0,.14.06.12,0,.27.1c.21.1.22.23,0,.4a1.26,1.26,0,0,1-.86.3h-5.52a.31.31,0,0,0-.28.19l-.28.47a4.77,4.77,0,0,0-.24.43c0,.07-.06.11-.05.13s0,0,.07,0h5.54a.32.32,0,0,1,.34.32.42.42,0,0,0,.29.41l.68.25,0,0c.12,0,.19.1.19.15s-.11.09-.32.15l-.42.12-.57.17c-.16.06-.3.11-.42.17s-.08,0-.08.07a0,0,0,0,0,0,0h1.7c.06,0,.09,0,.09,0s0,0-.11.06l-.48.17-.46.15a2.74,2.74,0,0,0-.32.12c-.08,0-.12.06-.12.11s0,.08.08.12l.25.13.42.21c.17.1.16.25,0,.46a1.49,1.49,0,0,1-1,.55h-5.31a.51.51,0,0,1-.19,0c-.06,0-.11,0-.17.14-.14.27-.31.61-.5,1,0,.09,0,.13,0,.13h5.44a.46.46,0,0,1,.47.29,1.14,1.14,0,0,1-.09.74c-.26.61-.39.93-.4.94l-.36,1c-.24.71-.63,1.07-1.18,1.07h-8.12a.52.52,0,0,1-.53-.32,1.39,1.39,0,0,1,0-.83,21.31,21.31,0,0,1,1.07-2.63c.06-.11.39-.75,1-1.93a.1.1,0,0,0,0,0,.2.2,0,0,0,0-.08.07.07,0,0,1,0-.06c.12-.24.12-.38,0-.44l-.4-.21-.34-.17c-.07,0-.1-.06-.1-.1s.07-.07.16-.13l.34-.12.6-.18.35-.12s0,0,0,0l0,0s0,0-.06,0H315.3c-.07,0-.11,0-.11,0s.05,0,.15-.09.57-.2,1.13-.36l.4-.14a.23.23,0,0,0,.11-.11s0-.06-.09-.08l-.16-.09-.24-.08-.27-.11a.48.48,0,0,1-.21-.12.25.25,0,0,1,0-.3,3.18,3.18,0,0,0,.17-.27c.08-.15.22-.39.41-.71l.43-.76a1.52,1.52,0,0,0,.12-.21c.07-.14.07-.24,0-.29a.7.7,0,0,0-.23-.13,4,4,0,0,0-.48-.19l-.25-.1a.1.1,0,0,1,0-.09s0,0,.08-.06l.55-.17,1.07-.29a3.75,3.75,0,0,0,.9-.3s.06,0,.06,0,0-.06,0-.06h-1.91a.4.4,0,0,1-.42-.23.61.61,0,0,1,0-.4,3,3,0,0,1,.48-.84,1.37,1.37,0,0,1,1-.55h8a1.14,1.14,0,0,1,.25,0,.4.4,0,0,1,.37.29.86.86,0,0,1,0,.64l0,.09-.05.11a.12.12,0,0,0,0,.09.74.74,0,0,0-.07.49.32.32,0,0,0,.26.27l.28,0h1.72C328.6,73,328.63,73,328.63,73Z"/></g></g></svg>