<svg xmlns="http://www.w3.org/2000/svg" xmlns:xlink="http://www.w3.org/1999/xlink" viewBox="0 0 495.31 114.05"><defs><style>.cls-1{mask:url(#mask);filter:url(#luminosity-noclip-2);}.cls-2{mix-blend-mode:multiply;fill:url(#Безымянный_градиент_50);}.cls-3{fill:#999;}.cls-4{mask:url(#mask-2);}.cls-5{filter:url(#luminosity-noclip);}</style><filter id="luminosity-noclip" x="8.61" y="-8249.21" width="62.9" height="32766" filterUnits="userSpaceOnUse" color-interpolation-filters="sRGB"><feFlood flood-color="#fff" result="bg"/><feBlend in="SourceGraphic" in2="bg"/></filter><mask id="mask" x="8.61" y="-8249.21" width="62.9" height="32766" maskUnits="userSpaceOnUse"><g class="cls-5"/></mask><radialGradient id="Безымянный_градиент_50" cx="42" cy="63.65" r="31.45" gradientTransform="matrix(0.9, 0.43, -0.43, 0.9, 29.37, -10.95)" gradientUnits="userSpaceOnUse"><stop offset="0" stop-color="#fff"/><stop offset="0.12" stop-color="#f2f2f2"/><stop offset="0.34" stop-color="#d1d1d1"/><stop offset="0.63" stop-color="#9b9b9b"/><stop offset="0.98" stop-color="#515151"/><stop offset="1" stop-color="#4d4d4d"/></radialGradient><filter id="luminosity-noclip-2" x="8.61" y="33.11" width="62.9" height="62.9" filterUnits="userSpaceOnUse" color-interpolation-filters="sRGB"><feFlood flood-color="#fff" result="bg"/><feBlend in="SourceGraphic" in2="bg"/></filter><mask id="mask-2" x="8.61" y="33.11" width="62.9" height="62.9" maskUnits="userSpaceOnUse"><g class="cls-1"><circle class="cls-2" cx="40.06" cy="64.56" r="31.45" transform="translate(-23.82 23.43) rotate(-25.41)"/></g></mask></defs><title>apply_promo_grey</title><g id="Layer_2" data-name="Layer 2"><g id="Layer_1-2" data-name="Layer 1"><polygon class="cls-3" points="115.58 93.77 332.44 93.59 340.64 62.03 122.29 62.21 115.58 93.77"/><path class="cls-3" d="M104.24,100.57a.46.46,0,0,1-.2,0,.9.9,0,0,1-.69-1.07L109,73a.91.91,0,1,1,1.77.38l-5.68,26.44A.91.91,0,0,1,104.24,100.57Z"/><path class="cls-3" d="M109.92,74.92a1.47,1.47,0,0,1-.36,0,1.7,1.7,0,0,1-1.3-2l4.91-22.82a1.68,1.68,0,0,1,1.64-1.34l184.58-1h0a1.69,1.69,0,0,1,0,3.38l-183.22.95-4.62,21.5A1.7,1.7,0,0,1,109.92,74.92Z"/><path class="cls-3" d="M299.4,50a.57.57,0,0,1-.57-.56.56.56,0,0,1,.56-.56L477.32,48h0a.56.56,0,0,1,.56.56.55.55,0,0,1-.56.56L299.4,50Z"/><path class="cls-3" d="M205.24,2.47,68.4,2.59a.57.57,0,1,1,0-1.13l136.84-.11a.57.57,0,0,1,.57.56A.57.57,0,0,1,205.24,2.47Z"/><path class="cls-3" d="M480.53,30.72a1.69,1.69,0,0,1-1.6-1.14l-9-26.2L205.19,3.6a1.69,1.69,0,1,1,0-3.38l266-.22a1.68,1.68,0,0,1,1.6,1.14l9.38,27.34a1.69,1.69,0,0,1-1.6,2.24Z"/><path class="cls-3" d="M475.39,99.93l-366.19.3a.56.56,0,0,1-.55-.69l10.26-43.17a.57.57,0,0,1,.55-.43l359.81-.8h0a.56.56,0,1,1,0,1.12l-359.36.81-10,42L475,98.8l14.07-43.22L480,29.21a.57.57,0,0,1,1.07-.37l9.1,26.55a.63.63,0,0,1,0,.36L475.92,99.54A.56.56,0,0,1,475.39,99.93Z"/><path class="cls-3" d="M102.59,114.05a2.82,2.82,0,1,1,0-5.63l372.7-.67L489.8,61.07a2.82,2.82,0,0,1,5.38,1.67L480.06,111.4a2.8,2.8,0,0,1-2.68,2l-374.78.67Z"/><path class="cls-3" d="M112.83,34.24l204.7-.17a1,1,0,0,1,.94.87l1.3,6.53a1.09,1.09,0,0,1-.94,1.38L130.12,43a.73.73,0,0,1-.3-.06l-17.29-6.52C111.48,36,111.72,34.24,112.83,34.24Z"/><polygon class="cls-3" points="385.12 42.69 396.7 42.68 389.22 15.52 377.63 15.53 385.12 42.69"/><polygon class="cls-3" points="325.53 42.74 337.11 42.73 329.63 15.57 318.04 15.58 325.53 42.74"/><polygon class="cls-3" points="340.42 42.73 352.01 42.72 344.52 15.55 332.94 15.56 340.42 42.73"/><polygon class="cls-3" points="355.32 42.72 366.91 42.7 359.42 15.54 347.83 15.55 355.32 42.72"/><polygon class="cls-3" points="370.22 42.7 381.81 42.69 374.32 15.53 362.73 15.54 370.22 42.7"/><polygon class="cls-3" points="459.6 42.63 471.19 42.62 463.7 15.46 452.12 15.47 459.6 42.63"/><polygon class="cls-3" points="400.01 42.68 411.6 42.67 404.11 15.51 392.53 15.52 400.01 42.68"/><polygon class="cls-3" points="414.91 42.66 426.5 42.66 419.01 15.49 407.42 15.5 414.91 42.66"/><polygon class="cls-3" points="429.81 42.65 441.39 42.64 433.91 15.48 422.32 15.49 429.81 42.65"/><polygon class="cls-3" points="444.7 42.64 456.29 42.63 448.81 15.47 437.22 15.48 444.7 42.64"/><polygon class="cls-3" points="240.24 20.46 249.48 20.45 246.15 7.23 236.9 7.23 240.24 20.46"/><polygon class="cls-3" points="192.47 20.5 201.72 20.49 198.38 7.27 189.14 7.27 192.47 20.5"/><polygon class="cls-3" points="204.41 20.49 213.66 20.48 210.32 7.26 201.08 7.26 204.41 20.49"/><polygon class="cls-3" points="216.35 20.48 225.6 20.47 222.27 7.25 213.02 7.25 216.35 20.48"/><polygon class="cls-3" points="228.29 20.47 237.54 20.46 234.21 7.24 224.96 7.24 228.29 20.47"/><polygon class="cls-3" points="299.94 20.41 309.19 20.4 305.85 7.18 296.61 7.18 299.94 20.41"/><polygon class="cls-3" points="252.18 20.45 261.42 20.44 258.09 7.22 248.84 7.22 252.18 20.45"/><polygon class="cls-3" points="264.12 20.44 273.36 20.43 270.03 7.21 260.79 7.21 264.12 20.44"/><polygon class="cls-3" points="276.06 20.43 285.3 20.42 281.97 7.2 272.73 7.2 276.06 20.43"/><polygon class="cls-3" points="288 20.42 297.25 20.41 293.91 7.19 284.67 7.19 288 20.42"/><polygon class="cls-3" points="120.82 20.56 130.07 20.55 126.74 7.33 117.49 7.33 120.82 20.56"/><polygon class="cls-3" points="73.06 20.59 82.3 20.59 78.97 7.37 69.73 7.37 73.06 20.59"/><polygon class="cls-3" points="85 20.59 94.24 20.58 90.91 7.36 81.67 7.36 85 20.59"/><polygon class="cls-3" points="96.94 20.58 106.19 20.57 102.85 7.34 93.61 7.35 96.94 20.58"/><polygon class="cls-3" points="108.88 20.57 118.13 20.56 114.8 7.33 105.55 7.34 108.88 20.57"/><polygon class="cls-3" points="180.53 20.51 189.77 20.5 186.44 7.28 177.2 7.28 180.53 20.51"/><polygon class="cls-3" points="132.76 20.55 142.01 20.54 138.68 7.32 129.43 7.32 132.76 20.55"/><polygon class="cls-3" points="144.71 20.54 153.95 20.53 150.62 7.31 141.37 7.31 144.71 20.54"/><polygon class="cls-3" points="156.65 20.53 165.89 20.52 162.56 7.3 153.31 7.3 156.65 20.53"/><polygon class="cls-3" points="168.59 20.52 177.83 20.51 174.5 7.29 165.26 7.29 168.59 20.52"/><path class="cls-3" d="M477.32,44A1.36,1.36,0,0,1,476,43L466.92,9.75l-153.46.13,3.82,19A1.34,1.34,0,0,1,317,30a1.44,1.44,0,0,1-1.05.5l-210.38-.26a1.35,1.35,0,0,1-1.36-1.35,1.37,1.37,0,0,1,1.36-1.36h0l208.73.26-3.82-19a1.39,1.39,0,0,1,.28-1.13,1.36,1.36,0,0,1,1.05-.49L468,7.05a1.35,1.35,0,0,1,1.31,1l9.36,34.22a1.35,1.35,0,0,1-.95,1.66A1.48,1.48,0,0,1,477.32,44Z"/><path class="cls-3" d="M84.39,106.6,23,106.65a.57.57,0,0,1,0-1.13l61,0L96,51.63,69.35,26.25a.57.57,0,1,1,.78-.82L97,51a.53.53,0,0,1,.16.53l-12.24,54.6A.57.57,0,0,1,84.39,106.6Z"/><g class="cls-4"><circle class="cls-3" cx="40.06" cy="64.56" r="31.45" transform="translate(-23.82 23.43) rotate(-25.41)"/></g><path class="cls-3" d="M76.33,68.52c.09-.76.09-1.52.14-2.28a.64.64,0,0,1,.66-.6l2.34.06a.65.65,0,0,1,.6.7c-.06.83-.06,1.67-.16,2.5a.67.67,0,0,1-.73.59l-2.32-.29A.6.6,0,0,1,76.33,68.52Z"/><path class="cls-3" d="M69.94,85.47a18.48,18.48,0,0,0,1.24-1.92.64.64,0,0,1,.86-.21l2,1.19a.64.64,0,0,1,.19.9,22.14,22.14,0,0,1-1.36,2.1.66.66,0,0,1-.91.18l-1.9-1.38A.61.61,0,0,1,69.94,85.47Z"/><path class="cls-3" d="M72.34,81.57l1-2.06a.66.66,0,0,1,.84-.31l2.15.93a.62.62,0,0,1,.29.86l-1.09,2.26a.63.63,0,0,1-.87.3L72.6,82.42A.66.66,0,0,1,72.34,81.57Z"/><path class="cls-3" d="M74.19,77.39c.25-.72.54-1.43.77-2.15a.59.59,0,0,1,.76-.42l2.25.64a.67.67,0,0,1,.43.83c-.25.8-.56,1.58-.84,2.37a.64.64,0,0,1-.82.4l-2.17-.86A.64.64,0,0,1,74.19,77.39Z"/><path class="cls-3" d="M75.53,73l.28-1.11L76,70.78a.62.62,0,0,1,.71-.51l2.31.36a.66.66,0,0,1,.53.76l-.2,1.24L79,73.85a.65.65,0,0,1-.78.5L76,73.77A.62.62,0,0,1,75.53,73Z"/><path class="cls-3" d="M67.05,89.05a20.29,20.29,0,0,0,1.5-1.72.62.62,0,0,1,.87-.11l1.85,1.43a.67.67,0,0,1,.1.93,22.78,22.78,0,0,1-1.65,1.89.63.63,0,0,1-.91.07l-1.71-1.6A.65.65,0,0,1,67.05,89.05Z"/><path class="cls-3" d="M51.94,99l2.15-.78a.63.63,0,0,1,.81.33l.94,2.14a.64.64,0,0,1-.37.85l-2.35.87a.64.64,0,0,1-.84-.37l-.72-2.22A.67.67,0,0,1,51.94,99Z"/><path class="cls-3" d="M56.16,97.27a16.87,16.87,0,0,0,2-1.06.61.61,0,0,1,.85.22l1.2,2a.66.66,0,0,1-.26.89,19.53,19.53,0,0,1-2.22,1.17.65.65,0,0,1-.88-.28l-1-2.11A.63.63,0,0,1,56.16,97.27Z"/><path class="cls-3" d="M60.14,95c.65-.39,1.23-.9,1.85-1.34a.63.63,0,0,1,.88.12l1.44,1.85a.63.63,0,0,1-.15.9c-.68.49-1.32,1-2,1.47a.67.67,0,0,1-.92-.18l-1.26-2A.61.61,0,0,1,60.14,95Z"/><path class="cls-3" d="M63.79,92.25l1.69-1.54a.67.67,0,0,1,.9,0L68,92.39a.62.62,0,0,1,0,.91L66.13,95a.62.62,0,0,1-.9,0l-1.5-1.8A.68.68,0,0,1,63.79,92.25Z"/><path class="cls-3" d="M47.51,100.29l2.21-.58a.66.66,0,0,1,.78.46l.66,2.24a.64.64,0,0,1-.48.78l-2.43.62a.66.66,0,0,1-.79-.51L47,101A.61.61,0,0,1,47.51,100.29Z"/><path class="cls-3" d="M29.4,99.46l2.21.57a.66.66,0,0,1,.47.77l-.51,2.28a.63.63,0,0,1-.79.45l-2.43-.62a.67.67,0,0,1-.45-.82l.72-2.22A.63.63,0,0,1,29.4,99.46Z"/><path class="cls-3" d="M33.86,100.48l2.26.35a.64.64,0,0,1,.55.68l-.21,2.33a.64.64,0,0,1-.73.57L33.25,104a.62.62,0,0,1-.55-.72l.43-2.3A.66.66,0,0,1,33.86,100.48Z"/><path class="cls-3" d="M38.41,101a19.28,19.28,0,0,0,2.28,0,.62.62,0,0,1,.64.6L41.4,104a.66.66,0,0,1-.65.66,21,21,0,0,1-2.51-.06.63.63,0,0,1-.63-.66l.14-2.34A.63.63,0,0,1,38.41,101Z"/><path class="cls-3" d="M43,100.9a15.62,15.62,0,0,0,2.27-.26.64.64,0,0,1,.71.53l.37,2.31a.66.66,0,0,1-.57.73,19.17,19.17,0,0,1-2.49.28.66.66,0,0,1-.72-.59l-.15-2.34A.62.62,0,0,1,43,100.9Z"/><path class="cls-3" d="M25.1,97.82a16.09,16.09,0,0,0,2.11.86.62.62,0,0,1,.37.8l-.79,2.21a.65.65,0,0,1-.85.36,19.47,19.47,0,0,1-2.32-1,.65.65,0,0,1-.34-.86l1-2.12A.62.62,0,0,1,25.1,97.82Z"/><path class="cls-3" d="M11,86.5a17.43,17.43,0,0,0,1.42,1.79.63.63,0,0,1-.06.88l-1.75,1.55a.68.68,0,0,1-.93-.08,22.86,22.86,0,0,1-1.56-2,.64.64,0,0,1,.11-.91l1.89-1.38A.64.64,0,0,1,11,86.5Z"/><path class="cls-3" d="M13.92,90a22.45,22.45,0,0,0,1.66,1.57.65.65,0,0,1,0,.89l-1.55,1.76a.64.64,0,0,1-.91,0,22.93,22.93,0,0,1-1.82-1.73.67.67,0,0,1,0-.93L13,90A.63.63,0,0,1,13.92,90Z"/><path class="cls-3" d="M17.31,93.06l1.83,1.37a.67.67,0,0,1,.14.89L18,97.26a.63.63,0,0,1-.9.12l-2-1.51a.62.62,0,0,1-.14-.89l1.5-1.81A.66.66,0,0,1,17.31,93.06Z"/><path class="cls-3" d="M21.06,95.67c.66.38,1.29.82,2,1.15a.6.6,0,0,1,.27.83l-1.05,2.09a.68.68,0,0,1-.9.27c-.75-.37-1.44-.85-2.17-1.27a.64.64,0,0,1-.24-.88l1.26-2A.64.64,0,0,1,21.06,95.67Z"/><path class="cls-3" d="M8.41,82.67l1.19,2a.67.67,0,0,1-.19.87L7.48,86.81a.62.62,0,0,1-.89-.21L5.28,84.46a.64.64,0,0,1,.2-.89l2.05-1.12A.66.66,0,0,1,8.41,82.67Z"/><path class="cls-3" d="M3.6,65.2l.12,2.29a.65.65,0,0,1-.6.67l-2.33.23a.62.62,0,0,1-.66-.62L0,65.27a.62.62,0,0,1,.6-.68H2.94A.66.66,0,0,1,3.6,65.2Z"/><path class="cls-3" d="M4,69.76,4.34,72a.62.62,0,0,1-.46.74l-2.29.51a.67.67,0,0,1-.78-.52L.42,70.27a.62.62,0,0,1,.52-.74l2.32-.3A.65.65,0,0,1,4,69.76Z"/><path class="cls-3" d="M4.91,74.24l.28,1.11c.12.36.26.71.39,1.07a.61.61,0,0,1-.38.79L3,78a.66.66,0,0,1-.83-.42c-.13-.39-.29-.78-.42-1.18l-.31-1.22a.65.65,0,0,1,.44-.81l2.27-.58A.62.62,0,0,1,4.91,74.24Z"/><path class="cls-3" d="M6.37,78.57c.29.71.65,1.38,1,2.07a.64.64,0,0,1-.29.84L5,82.55a.64.64,0,0,1-.86-.32C3.76,81.47,3.36,80.73,3,80a.68.68,0,0,1,.36-.87l2.17-.86A.61.61,0,0,1,6.37,78.57Z"/><path class="cls-3" d="M3.79,60.6c-.09.76-.08,1.52-.13,2.28a.65.65,0,0,1-.67.6L.66,63.41a.64.64,0,0,1-.6-.69c.05-.84.05-1.68.15-2.51a.69.69,0,0,1,.73-.59l2.32.29A.6.6,0,0,1,3.79,60.6Z"/><path class="cls-3" d="M10.18,43.65a18.48,18.48,0,0,0-1.24,1.92.64.64,0,0,1-.86.21l-2-1.19a.65.65,0,0,1-.19-.9,21.08,21.08,0,0,1,1.36-2.11.67.67,0,0,1,.92-.17L10,42.79A.61.61,0,0,1,10.18,43.65Z"/><path class="cls-3" d="M7.79,47.55l-1,2.06a.66.66,0,0,1-.85.3L3.8,49a.63.63,0,0,1-.29-.86L4.6,45.87a.62.62,0,0,1,.87-.3L7.52,46.7A.67.67,0,0,1,7.79,47.55Z"/><path class="cls-3" d="M5.94,51.73c-.26.72-.54,1.42-.78,2.15a.59.59,0,0,1-.75.42l-2.25-.64a.69.69,0,0,1-.44-.84c.26-.79.56-1.57.84-2.36a.64.64,0,0,1,.82-.4l2.18.86A.66.66,0,0,1,5.94,51.73Z"/><path class="cls-3" d="M4.6,56.1l-.29,1.1-.17,1.13a.63.63,0,0,1-.72.52l-2.31-.36a.66.66,0,0,1-.52-.77l.19-1.24.31-1.21a.65.65,0,0,1,.78-.5l2.27.58A.63.63,0,0,1,4.6,56.1Z"/><path class="cls-3" d="M13.07,40.06c-.49.58-1.06,1.1-1.5,1.73a.62.62,0,0,1-.87.11L8.85,40.47a.68.68,0,0,1-.09-.93c.48-.69,1.1-1.26,1.64-1.9a.66.66,0,0,1,.92-.07L13,39.18A.62.62,0,0,1,13.07,40.06Z"/><path class="cls-3" d="M28.18,30.08,26,30.87a.64.64,0,0,1-.82-.33l-.94-2.14a.66.66,0,0,1,.37-.86L27,26.68a.63.63,0,0,1,.83.37l.72,2.22A.64.64,0,0,1,28.18,30.08Z"/><path class="cls-3" d="M24,31.85a16.21,16.21,0,0,0-2,1.06.62.62,0,0,1-.85-.22l-1.19-2a.65.65,0,0,1,.25-.89,17.42,17.42,0,0,1,2.22-1.17.64.64,0,0,1,.88.27l1,2.12A.63.63,0,0,1,24,31.85Z"/><path class="cls-3" d="M20,34.1c-.65.39-1.23.9-1.85,1.34a.64.64,0,0,1-.88-.13l-1.44-1.84a.65.65,0,0,1,.16-.91c.68-.48,1.31-1,2-1.46a.66.66,0,0,1,.92.18l1.25,2A.6.6,0,0,1,20,34.1Z"/><path class="cls-3" d="M16.34,36.86,14.65,38.4a.67.67,0,0,1-.9,0l-1.66-1.65a.62.62,0,0,1,.05-.91L14,34.13a.63.63,0,0,1,.91,0L16.39,36A.66.66,0,0,1,16.34,36.86Z"/><path class="cls-3" d="M32.61,28.83l-2.21.57a.64.64,0,0,1-.77-.45L29,26.7a.63.63,0,0,1,.48-.77l2.43-.63a.68.68,0,0,1,.79.51l.43,2.3A.6.6,0,0,1,32.61,28.83Z"/><path class="cls-3" d="M50.72,29.66l-2.21-.57a.65.65,0,0,1-.46-.77l.5-2.29a.62.62,0,0,1,.79-.44l2.44.62a.65.65,0,0,1,.44.82l-.72,2.22A.63.63,0,0,1,50.72,29.66Z"/><path class="cls-3" d="M46.27,28.63,44,28.29a.66.66,0,0,1-.56-.69l.21-2.33a.64.64,0,0,1,.73-.56l2.49.37a.63.63,0,0,1,.55.73L47,28.1A.65.65,0,0,1,46.27,28.63Z"/><path class="cls-3" d="M41.72,28.15a19.28,19.28,0,0,0-2.28,0,.61.61,0,0,1-.64-.6l-.08-2.34a.66.66,0,0,1,.65-.66,21,21,0,0,1,2.51.05.66.66,0,0,1,.64.67l-.15,2.33A.63.63,0,0,1,41.72,28.15Z"/><path class="cls-3" d="M37.14,28.22a14.36,14.36,0,0,0-2.26.26.63.63,0,0,1-.71-.53l-.37-2.31a.65.65,0,0,1,.57-.73,19,19,0,0,1,2.49-.29.67.67,0,0,1,.71.6l.15,2.33A.63.63,0,0,1,37.14,28.22Z"/><path class="cls-3" d="M55,31.3a15.54,15.54,0,0,0-2.11-.86.64.64,0,0,1-.37-.81l.79-2.2a.65.65,0,0,1,.85-.36A16.14,16.14,0,0,1,56.5,28a.67.67,0,0,1,.35.86l-1,2.12A.62.62,0,0,1,55,31.3Z"/><path class="cls-3" d="M69.17,42.62a18.91,18.91,0,0,0-1.42-1.79.62.62,0,0,1,.06-.88l1.75-1.55a.65.65,0,0,1,.92.08,22.33,22.33,0,0,1,1.56,2,.65.65,0,0,1-.1.92l-1.89,1.38A.64.64,0,0,1,69.17,42.62Z"/><path class="cls-3" d="M66.21,39.13a20.53,20.53,0,0,0-1.66-1.57.64.64,0,0,1,0-.89l1.54-1.76a.65.65,0,0,1,.92,0,24.79,24.79,0,0,1,1.82,1.73.66.66,0,0,1,0,.93l-1.7,1.6A.61.61,0,0,1,66.21,39.13Z"/><path class="cls-3" d="M62.82,36.06,61,34.69a.66.66,0,0,1-.14-.89l1.31-1.94a.63.63,0,0,1,.9-.12l2,1.5a.62.62,0,0,1,.13.9l-1.49,1.8A.67.67,0,0,1,62.82,36.06Z"/><path class="cls-3" d="M59.06,33.45c-.66-.38-1.28-.83-2-1.16a.61.61,0,0,1-.27-.83l1.06-2.08a.67.67,0,0,1,.89-.27c.76.36,1.45.85,2.17,1.26a.65.65,0,0,1,.24.89l-1.25,2A.65.65,0,0,1,59.06,33.45Z"/><path class="cls-3" d="M71.72,46.45l-1.19-2a.66.66,0,0,1,.19-.88l1.93-1.32a.63.63,0,0,1,.89.21l1.3,2.15a.62.62,0,0,1-.2.88l-2,1.13A.65.65,0,0,1,71.72,46.45Z"/><path class="cls-3" d="M76.52,63.91l-.12-2.28A.68.68,0,0,1,77,61l2.33-.22a.62.62,0,0,1,.67.61l.12,2.51a.62.62,0,0,1-.59.68H77.19A.68.68,0,0,1,76.52,63.91Z"/><path class="cls-3" d="M76.14,59.35l-.35-2.25a.6.6,0,0,1,.46-.74l2.28-.51a.67.67,0,0,1,.78.51l.4,2.48a.64.64,0,0,1-.53.75l-2.32.29A.64.64,0,0,1,76.14,59.35Z"/><path class="cls-3" d="M75.21,54.88l-.28-1.11c-.11-.36-.26-.72-.39-1.07a.64.64,0,0,1,.38-.8l2.2-.8a.66.66,0,0,1,.83.42c.14.4.3.79.42,1.19l.32,1.21a.67.67,0,0,1-.45.82L76,55.32A.64.64,0,0,1,75.21,54.88Z"/><path class="cls-3" d="M73.76,50.54c-.29-.7-.66-1.37-1-2.06a.66.66,0,0,1,.3-.85l2.08-1.06a.63.63,0,0,1,.85.32c.36.75.75,1.5,1.07,2.27a.68.68,0,0,1-.35.87l-2.18.86A.59.59,0,0,1,73.76,50.54Z"/></g></g></svg>