<svg xmlns="http://www.w3.org/2000/svg" xmlns:xlink="http://www.w3.org/1999/xlink" viewBox="0 0 493.22 200.89"><defs><style>.cls-1{fill:url(#New_Gradient_Swatch_1);}.cls-2{fill:url(#New_Gradient_Swatch_1-2);}.cls-3{fill:url(#New_Gradient_Swatch_1-3);}.cls-4{fill:url(#New_Gradient_Swatch_1-4);}.cls-5{fill:url(#New_Gradient_Swatch_1-5);}.cls-6{opacity:0.5;}.cls-7{fill:url(#New_Gradient_Swatch_1-6);}.cls-8{fill:url(#New_Gradient_Swatch_1-7);}.cls-9{fill:url(#New_Gradient_Swatch_1-8);}.cls-10{fill:url(#New_Gradient_Swatch_1-9);}</style><linearGradient id="New_Gradient_Swatch_1" x1="392.78" y1="100.44" x2="493.22" y2="100.44" gradientUnits="userSpaceOnUse"><stop offset="0" stop-color="#cf52fe"/><stop offset="1" stop-color="#19dbb6"/></linearGradient><linearGradient id="New_Gradient_Swatch_1-2" x1="21.69" y1="100.44" x2="73.44" y2="100.44" xlink:href="#New_Gradient_Swatch_1"/><linearGradient id="New_Gradient_Swatch_1-3" x1="0" y1="100.44" x2="41.59" y2="100.44" xlink:href="#New_Gradient_Swatch_1"/><linearGradient id="New_Gradient_Swatch_1-4" x1="30.65" y1="100.44" x2="88.99" y2="100.44" xlink:href="#New_Gradient_Swatch_1"/><linearGradient id="New_Gradient_Swatch_1-5" x1="42.34" y1="100.44" x2="100.68" y2="100.44" xlink:href="#New_Gradient_Swatch_1"/><linearGradient id="New_Gradient_Swatch_1-6" x1="354.93" y1="100.44" x2="455.37" y2="100.44" xlink:href="#New_Gradient_Swatch_1"/><linearGradient id="New_Gradient_Swatch_1-7" x1="5.91" y1="100.44" x2="477.49" y2="100.44" xlink:href="#New_Gradient_Swatch_1"/><linearGradient id="New_Gradient_Swatch_1-8" x1="340.6" y1="94.83" x2="345.22" y2="94.83" xlink:href="#New_Gradient_Swatch_1"/><linearGradient id="New_Gradient_Swatch_1-9" x1="328.07" y1="94.83" x2="332.16" y2="94.83" xlink:href="#New_Gradient_Swatch_1"/></defs><title>arrow_05_purple_green</title><g id="Layer_2" data-name="Layer 2"><g id="Layer_1-2" data-name="Layer 1"><polygon class="cls-1" points="392.78 0 493.22 100.44 392.78 200.89 392.78 0"/><polygon class="cls-2" points="21.69 48.7 73.44 100.44 21.69 152.19 21.69 48.7"/><polygon class="cls-3" points="0 58.85 41.59 100.44 0 142.03 0 58.85"/><path class="cls-4" d="M33.38,154.92a2.73,2.73,0,0,1-1.93-4.66l49.81-49.82L31.45,50.63a2.73,2.73,0,0,1,3.86-3.86L89,100.44,35.31,154.12A2.73,2.73,0,0,1,33.38,154.92Z"/><path class="cls-5" d="M45.07,154.92a2.73,2.73,0,0,1-1.93-4.66L93,100.44,43.14,50.63A2.73,2.73,0,0,1,47,46.77l53.68,53.67L47,154.12A2.73,2.73,0,0,1,45.07,154.92Z"/><g class="cls-6"><polygon class="cls-7" points="354.93 0 455.37 100.44 354.93 200.89 354.93 0"/></g><path class="cls-8" d="M474.76,103.17H8.64a2.73,2.73,0,0,1,0-5.46H474.76a2.73,2.73,0,1,1,0,5.46Z"/><path class="cls-9" d="M342.91,172.5a2.32,2.32,0,0,1-2.31-2.31V19.47a2.31,2.31,0,0,1,4.62,0V170.19A2.31,2.31,0,0,1,342.91,172.5Z"/><path class="cls-10" d="M330.12,163.64a2,2,0,0,1-2.05-2V28.06a2,2,0,1,1,4.09,0V161.6A2,2,0,0,1,330.12,163.64Z"/></g></g></svg>