<svg xmlns="http://www.w3.org/2000/svg" viewBox="0 0 485.05 209.24"><defs><style>.cls-1{fill:#00d0ff;}.cls-2{opacity:0.31;}.cls-3{opacity:0.5;}</style></defs><title>arrow_11</title><g id="Layer_2" data-name="Layer 2"><g id="Layer_1-2" data-name="Layer 1"><polygon class="cls-1" points="94.12 54.02 16.02 54.02 62.97 108.41 16.02 162.79 94.12 162.79 141.07 108.41 94.12 54.02"/><path class="cls-1" d="M100.25,173.41H5.77l56.12-65-56.12-65h94.48l56.12,65ZM9.86,171.53H99.39l54.51-63.12L99.39,45.28H9.86l54.51,63.13Z"/><g class="cls-2"><polygon class="cls-1" points="78.1 54.02 0 54.02 46.95 108.41 0 162.79 78.1 162.79 125.05 108.41 78.1 54.02"/></g><path class="cls-1" d="M63,108.41h0Z"/><rect class="cls-1" x="62.97" y="106.97" width="392.56" height="2.88"/><polygon class="cls-1" points="461.72 108.14 350.79 170.02 352.66 43.01 461.72 108.14"/><g class="cls-3"><polygon class="cls-1" points="406.66 108.13 325.99 153.13 327.35 60.77 406.66 108.13"/></g><path class="cls-1" d="M306.53,209.24l-.83-1h-1.6l-.3-90.08a1.44,1.44,0,0,1,1.44-1.44h0a1.44,1.44,0,0,1,1.44,1.43l.29,87.7c8.43-5.41,41.62-24.41,172.33-97.46L307,5.08V93.29l-154.59-1a1.44,1.44,0,0,1,0-2.88h0l151.69.94V0l181,108.45-2.18,1.21C423.36,142.93,309.9,206.54,306.53,209.24Z"/><path class="cls-1" d="M308.18,94.43H151.06L138.11,58.86H295.24Zm-154.5-3.75H302.83L292.61,62.6H143.46Z"/><polygon class="cls-1" points="319.42 101.76 166.28 101.76 154.7 69.94 307.84 69.94 319.42 101.76"/><path class="cls-1" d="M295.24,158H138.11l12.95-35.57H308.18Zm-151.78-3.75H292.61l10.22-28.08H153.68Z"/><polygon class="cls-1" points="319.42 115.05 166.28 115.05 154.7 146.88 307.84 146.88 319.42 115.05"/></g></g></svg>