<svg xmlns="http://www.w3.org/2000/svg" viewBox="0 0 495.4 232.24"><defs><style>.cls-1{fill:#11e5b3;}</style></defs><title>arrow_06_green</title><g id="Layer_2" data-name="Layer 2"><g id="Layer_1-2" data-name="Layer 1"><polygon class="cls-1" points="309.03 35.43 255.98 35.43 314.32 115.71 255.98 196 309.03 196 367.37 115.71 309.03 35.43"/><polygon class="cls-1" points="394.05 35.14 341 35.14 399.34 115.42 341 195.7 394.05 195.7 452.39 115.42 394.05 35.14"/><polygon class="cls-1" points="218.32 35.43 165.27 35.43 223.61 115.71 165.27 196 218.32 196 276.66 115.71 218.32 35.43"/><polygon class="cls-1" points="123.68 35.14 70.63 35.14 128.96 115.42 70.63 195.7 123.68 195.7 182.01 115.42 123.68 35.14"/><polygon class="cls-1" points="150.69 7.67 38.44 7.67 31.25 29.43 143.5 29.43 150.69 7.67"/><polygon class="cls-1" points="152.86 224.57 40.6 224.57 33.41 202.82 145.66 202.82 152.86 224.57"/><polygon class="cls-1" points="413.19 211.6 37.42 211.01 37.43 202.97 408.8 203.54 465.65 115.44 408.82 28.7 37.43 29.28 37.42 21.23 413.17 20.64 475.25 115.4 413.19 211.6"/><path class="cls-1" d="M13.93,7.67c0,4.24-3.11,7.67-7,7.67S0,11.91,0,7.67,3.12,0,7,0,13.93,3.43,13.93,7.67Z"/><polygon class="cls-1" points="419.26 225.92 6.97 225.92 6.97 223.23 417.86 223.23 492.13 116.27 417.86 9.01 6.97 9.01 6.97 6.33 419.26 6.33 419.66 6.91 495.4 116.27 419.26 225.92"/><path class="cls-1" d="M13.93,224.57c0-4.23-3.11-7.66-7-7.66s-7,3.43-7,7.66,3.12,7.67,7,7.67S13.93,228.81,13.93,224.57Z"/></g></g></svg>