<svg xmlns="http://www.w3.org/2000/svg" viewBox="0 0 492.95 231.1"><defs><style>.cls-1{fill:#11e5b3;}</style></defs><title>Asset 2</title><g id="Layer_2" data-name="Layer 2"><g id="Layer_1-2" data-name="Layer 1"><polygon class="cls-1" points="307.51 35.25 254.72 35.25 312.77 115.14 254.72 195.03 307.51 195.03 365.56 115.14 307.51 35.25"/><polygon class="cls-1" points="392.11 34.96 339.32 34.96 397.37 114.85 339.32 194.74 392.11 194.74 450.16 114.85 392.11 34.96"/><polygon class="cls-1" points="217.24 35.25 164.46 35.25 222.5 115.14 164.46 195.03 217.24 195.03 275.29 115.14 217.24 35.25"/><polygon class="cls-1" points="123.07 34.96 70.28 34.96 128.33 114.85 70.28 194.74 123.07 194.74 181.12 114.85 123.07 34.96"/><polygon class="cls-1" points="149.95 7.63 38.25 7.63 31.09 29.28 142.79 29.28 149.95 7.63"/><polygon class="cls-1" points="152.1 223.47 40.41 223.47 33.25 201.81 144.94 201.81 152.1 223.47"/><polygon class="cls-1" points="411.15 210.56 37.23 209.97 37.25 201.97 406.78 202.54 463.35 114.87 406.8 28.56 37.25 29.13 37.23 21.12 411.13 20.54 472.9 114.83 411.15 210.56"/><path class="cls-1" d="M13.87,7.63c0,4.22-3.11,7.63-6.94,7.63S0,11.85,0,7.63,3.1,0,6.93,0,13.87,3.42,13.87,7.63Z"/><polygon class="cls-1" points="417.19 224.8 6.93 224.8 6.93 222.13 415.79 222.13 489.71 115.69 415.79 8.97 6.93 8.97 6.93 6.3 417.19 6.3 417.59 6.87 492.95 115.69 417.19 224.8"/><path class="cls-1" d="M13.87,223.47c0-4.22-3.11-7.64-6.94-7.64S0,219.25,0,223.47s3.1,7.63,6.93,7.63S13.87,227.68,13.87,223.47Z"/></g></g></svg>