<svg xmlns="http://www.w3.org/2000/svg" viewBox="0 0 494.38 270.04"><defs><style>.cls-1{fill:#00d0ff;}</style></defs><title>arrow_08</title><g id="Layer_2" data-name="Layer 2"><g id="Layer_1-2" data-name="Layer 1"><polygon class="cls-1" points="457.38 69.72 379.11 69.72 388.61 95.84 142.37 95.84 150.55 121.96 476.4 121.96 457.38 69.72"/><polygon class="cls-1" points="353.25 34.89 274.97 34.89 284.48 61.01 36.53 61.01 45.48 87.13 372.26 87.13 353.25 34.89"/><polygon class="cls-1" points="360.09 34.89 281.82 34.89 291.32 61.01 45.08 61.01 54.59 87.13 379.11 87.13 360.09 34.89"/><polygon class="cls-1" points="277.92 55.47 34.64 55.47 27.59 34.89 270.12 34.89 277.92 55.47"/><polygon class="cls-1" points="359.4 31.92 26.89 31.92 24.4 25.2 356.91 25.2 359.4 31.92"/><path class="cls-1" d="M489.45,123.52a1.56,1.56,0,0,1-1.46-1L465.81,62.57H378L363.28,20.62H13a1.56,1.56,0,1,1,0-3.12H365.5l14.71,42H468l22.94,62a1.56,1.56,0,0,1-.93,2A1.47,1.47,0,0,1,489.45,123.52Z"/><polygon class="cls-1" points="145.81 121.96 119.92 121.96 111.51 95.84 137.4 95.84 145.81 121.96"/><polygon class="cls-1" points="114.67 121.96 88.78 121.96 80.37 95.84 106.26 95.84 114.67 121.96"/><polygon class="cls-1" points="83.53 121.96 57.64 121.96 49.24 95.84 75.13 95.84 83.53 121.96"/><polygon class="cls-1" points="71.68 20.58 52.51 20.58 46.29 0 65.45 0 71.68 20.58"/><polygon class="cls-1" points="48.53 20.58 29.37 20.58 23.14 0 42.31 0 48.53 20.58"/><polygon class="cls-1" points="25.39 20.58 6.22 20.58 0 0 19.17 0 25.39 20.58"/><polygon class="cls-1" points="141.11 20.58 121.94 20.58 115.72 0 134.89 0 141.11 20.58"/><polygon class="cls-1" points="117.97 20.58 98.8 20.58 92.57 0 111.74 0 117.97 20.58"/><polygon class="cls-1" points="94.82 20.58 75.65 20.58 69.43 0 88.6 0 94.82 20.58"/><polygon class="cls-1" points="210.54 20.58 191.37 20.58 185.15 0 204.32 0 210.54 20.58"/><polygon class="cls-1" points="187.4 20.58 168.23 20.58 162 0 181.17 0 187.4 20.58"/><polygon class="cls-1" points="164.25 20.58 145.08 20.58 138.86 0 158.03 0 164.25 20.58"/><path class="cls-1" d="M40.44,133.8,4.81,29.32a2.34,2.34,0,1,1,4.43-1.51l34.55,101.3,445.66-.26h0a2.35,2.35,0,0,1,0,4.69Z"/><path class="cls-1" d="M54.93,122.74a.78.78,0,0,1-.74-.53L21.39,26.42a.78.78,0,1,1,1.48-.51l32.79,95.8a.78.78,0,0,1-.48,1A1.09,1.09,0,0,1,54.93,122.74Z"/><path class="cls-1" d="M50.61,122.74a.78.78,0,0,1-.74-.53L17.07,26.42a.78.78,0,1,1,1.48-.51l32.79,95.8a.78.78,0,0,1-.48,1A1.09,1.09,0,0,1,50.61,122.74Z"/><path class="cls-1" d="M46.29,122.74a.78.78,0,0,1-.74-.53L12.75,26.42a.78.78,0,1,1,1.48-.51L47,121.71a.78.78,0,0,1-.49,1A1.09,1.09,0,0,1,46.29,122.74Z"/><path class="cls-1" d="M493.6,113.44a.79.79,0,0,1-.73-.5L470.62,54.29,383,54.48l-.18-.52L367.6,11.07h-153a.78.78,0,0,1,0-1.56H368.7l.19.52,15.2,42.89,87.6-.19.19.5,22.45,59.15a.77.77,0,0,1-.45,1A.87.87,0,0,1,493.6,113.44Z"/><polygon class="cls-1" points="457.38 200.32 379.11 200.32 388.61 174.2 142.37 174.2 150.55 148.08 476.4 148.08 457.38 200.32"/><polygon class="cls-1" points="353.25 235.14 274.97 235.14 284.48 209.02 36.53 209.02 45.48 182.9 372.26 182.9 353.25 235.14"/><polygon class="cls-1" points="360.09 235.14 281.82 235.14 291.32 209.02 45.08 209.02 54.59 182.9 379.11 182.9 360.09 235.14"/><polygon class="cls-1" points="277.92 214.56 34.64 214.56 27.59 235.14 270.12 235.14 277.92 214.56"/><polygon class="cls-1" points="359.4 238.11 26.89 238.11 24.4 244.84 356.91 244.84 359.4 238.11"/><path class="cls-1" d="M365.5,252.53H13a1.56,1.56,0,1,1,0-3.12H363.28L378,207.46h87.81L488,147.53a1.56,1.56,0,0,1,2-.92,1.58,1.58,0,0,1,.93,2l-22.94,62H380.21Z"/><polygon class="cls-1" points="145.81 148.08 119.92 148.08 111.51 174.2 137.4 174.2 145.81 148.08"/><polygon class="cls-1" points="114.67 148.08 88.78 148.08 80.37 174.2 106.26 174.2 114.67 148.08"/><polygon class="cls-1" points="83.53 148.08 57.64 148.08 49.24 174.2 75.13 174.2 83.53 148.08"/><polygon class="cls-1" points="71.68 249.46 52.51 249.46 46.29 270.04 65.45 270.04 71.68 249.46"/><polygon class="cls-1" points="48.53 249.46 29.37 249.46 23.14 270.04 42.31 270.04 48.53 249.46"/><polygon class="cls-1" points="25.39 249.46 6.22 249.46 0 270.04 19.17 270.04 25.39 249.46"/><polygon class="cls-1" points="141.11 249.46 121.94 249.46 115.72 270.04 134.89 270.04 141.11 249.46"/><polygon class="cls-1" points="117.97 249.46 98.8 249.46 92.57 270.04 111.74 270.04 117.97 249.46"/><polygon class="cls-1" points="94.82 249.46 75.65 249.46 69.43 270.04 88.6 270.04 94.82 249.46"/><polygon class="cls-1" points="210.54 249.46 191.37 249.46 185.15 270.04 204.32 270.04 210.54 249.46"/><polygon class="cls-1" points="187.4 249.46 168.23 249.46 162 270.04 181.17 270.04 187.4 249.46"/><polygon class="cls-1" points="164.25 249.46 145.08 249.46 138.86 270.04 158.03 270.04 164.25 249.46"/><path class="cls-1" d="M7,243.82a2.19,2.19,0,0,1-.75-.13,2.33,2.33,0,0,1-1.46-3L40.44,136.24h1.67l447.34.26a2.34,2.34,0,1,1,0,4.68h0l-445.66-.26L9.24,242.23A2.35,2.35,0,0,1,7,243.82Z"/><path class="cls-1" d="M22.13,244.65a.69.69,0,0,1-.25,0,.78.78,0,0,1-.49-1l32.8-95.8a.8.8,0,0,1,1-.48.77.77,0,0,1,.48,1L22.87,244.12A.78.78,0,0,1,22.13,244.65Z"/><path class="cls-1" d="M17.81,244.65a.69.69,0,0,1-.25,0,.78.78,0,0,1-.49-1l32.8-95.8a.79.79,0,0,1,1-.48.77.77,0,0,1,.48,1L18.55,244.12A.78.78,0,0,1,17.81,244.65Z"/><path class="cls-1" d="M13.49,244.65a.73.73,0,0,1-.25,0,.78.78,0,0,1-.49-1l32.8-95.8a.8.8,0,0,1,1-.48.78.78,0,0,1,.49,1l-32.8,95.79A.77.77,0,0,1,13.49,244.65Z"/><path class="cls-1" d="M368.7,260.53H214.6a.79.79,0,0,1,0-1.57h153L383,215.55h.56l87.07.2,22.25-58.65a.78.78,0,0,1,1.46.55l-22.64,59.66h-.54l-87.06-.19Z"/></g></g></svg>