<svg xmlns="http://www.w3.org/2000/svg" xmlns:xlink="http://www.w3.org/1999/xlink" viewBox="0 0 496.45 220.64"><defs><style>.cls-1{fill:url(#New_Gradient_Swatch_2);}.cls-2{fill:url(#New_Gradient_Swatch_2-2);}.cls-3{fill:url(#New_Gradient_Swatch_2-3);}.cls-4{fill:url(#New_Gradient_Swatch_2-4);}.cls-5{fill:url(#New_Gradient_Swatch_2-5);}.cls-6{fill:url(#New_Gradient_Swatch_2-6);}.cls-7{fill:url(#New_Gradient_Swatch_2-7);}.cls-8{fill:url(#New_Gradient_Swatch_2-8);}.cls-9{fill:url(#New_Gradient_Swatch_2-9);}.cls-10{fill:url(#New_Gradient_Swatch_2-10);}.cls-11{fill:url(#New_Gradient_Swatch_2-11);}.cls-12{fill:url(#New_Gradient_Swatch_2-12);}.cls-13{fill:url(#New_Gradient_Swatch_2-13);}.cls-14{fill:url(#New_Gradient_Swatch_2-14);}</style><linearGradient id="New_Gradient_Swatch_2" x1="51.99" y1="72.5" x2="383.72" y2="72.5" gradientUnits="userSpaceOnUse"><stop offset="0" stop-color="#9541de"/><stop offset="1" stop-color="#3ab2c0"/></linearGradient><linearGradient id="New_Gradient_Swatch_2-2" x1="0" y1="74.36" x2="403.69" y2="74.36" xlink:href="#New_Gradient_Swatch_2"/><linearGradient id="New_Gradient_Swatch_2-3" x1="109.78" y1="89.69" x2="168.4" y2="89.69" xlink:href="#New_Gradient_Swatch_2"/><linearGradient id="New_Gradient_Swatch_2-4" x1="70.02" y1="89.69" x2="128.64" y2="89.69" xlink:href="#New_Gradient_Swatch_2"/><linearGradient id="New_Gradient_Swatch_2-5" x1="30.72" y1="89.69" x2="89.35" y2="89.69" xlink:href="#New_Gradient_Swatch_2"/><linearGradient id="New_Gradient_Swatch_2-6" x1="292.28" y1="56.32" x2="482.57" y2="56.32" xlink:href="#New_Gradient_Swatch_2"/><linearGradient id="New_Gradient_Swatch_2-7" x1="304.04" y1="53.79" x2="496.45" y2="53.79" xlink:href="#New_Gradient_Swatch_2"/><linearGradient id="New_Gradient_Swatch_2-8" x1="51.99" y1="148.15" x2="383.72" y2="148.15" xlink:href="#New_Gradient_Swatch_2"/><linearGradient id="New_Gradient_Swatch_2-9" x1="0" y1="146.29" x2="403.69" y2="146.29" xlink:href="#New_Gradient_Swatch_2"/><linearGradient id="New_Gradient_Swatch_2-10" x1="109.78" y1="130.96" x2="168.4" y2="130.96" xlink:href="#New_Gradient_Swatch_2"/><linearGradient id="New_Gradient_Swatch_2-11" x1="70.02" y1="130.96" x2="128.64" y2="130.96" xlink:href="#New_Gradient_Swatch_2"/><linearGradient id="New_Gradient_Swatch_2-12" x1="30.72" y1="130.96" x2="89.35" y2="130.96" xlink:href="#New_Gradient_Swatch_2"/><linearGradient id="New_Gradient_Swatch_2-13" x1="292.28" y1="164.33" x2="482.57" y2="164.33" xlink:href="#New_Gradient_Swatch_2"/><linearGradient id="New_Gradient_Swatch_2-14" x1="304.04" y1="166.86" x2="496.45" y2="166.86" xlink:href="#New_Gradient_Swatch_2"/></defs><title>arrow_12_purple_blue</title><g id="Layer_2" data-name="Layer 2"><g id="Layer_1-2" data-name="Layer 1"><polygon class="cls-1" points="355.64 45.95 51.99 45.95 63.8 62.5 154.73 62.5 181.62 99.04 383.72 99.04 355.64 45.95"/><path class="cls-2" d="M402.93,107.65h0L175.29,107a.74.74,0,0,1-.62-.33l-26.74-39H26.07a.75.75,0,0,1-.53-.22L.22,42.35a.76.76,0,0,1,.53-1.29h368.4a.76.76,0,0,1,.67.41l33.78,65.08a.75.75,0,0,1-.67,1.1Zm-227.24-2.16,226,.65-33-63.57H2.58l23.8,23.64h122a.75.75,0,0,1,.62.32Z"/><polygon class="cls-3" points="168.4 106.87 134.03 106.87 109.78 72.5 144.16 72.5 168.4 106.87"/><polygon class="cls-4" points="128.65 106.87 94.27 106.87 70.02 72.5 104.4 72.5 128.65 106.87"/><polygon class="cls-5" points="89.35 106.87 54.97 106.87 30.72 72.5 65.1 72.5 89.35 106.87"/><polygon class="cls-6" points="303.31 33.31 376.39 33.31 413.62 106.89 482.57 106.89 425.57 5.74 292.28 5.74 303.31 33.31"/><path class="cls-7" d="M496.45,107.57H426L388.71,30.32H315.59L304,0H438.73l.19.36Zm-69.65-1.35h67.38L437.92,1.36H306L316.53,29h73Z"/><polygon class="cls-8" points="355.64 174.69 51.99 174.69 63.8 158.15 154.73 158.15 181.62 121.6 383.72 121.6 355.64 174.69"/><path class="cls-9" d="M369.15,179.58H.75a.74.74,0,0,1-.69-.47.76.76,0,0,1,.16-.82l25.32-25.14a.75.75,0,0,1,.53-.22H147.93l26.74-39a.75.75,0,0,1,.62-.32L402.93,113h0a.76.76,0,0,1,.65.36.78.78,0,0,1,0,.74l-33.78,65.07A.76.76,0,0,1,369.15,179.58ZM2.58,178.08H368.69l33-63.57-226,.64-26.74,39a.74.74,0,0,1-.62.33h-122Z"/><polygon class="cls-10" points="168.4 113.77 134.03 113.77 109.78 148.15 144.16 148.15 168.4 113.77"/><polygon class="cls-11" points="128.65 113.77 94.27 113.77 70.02 148.15 104.4 148.15 128.65 113.77"/><polygon class="cls-12" points="89.35 113.77 54.97 113.77 30.72 148.15 65.1 148.15 89.35 113.77"/><polygon class="cls-13" points="303.31 187.33 376.39 187.33 413.62 113.75 482.57 113.75 425.57 214.91 292.28 214.91 303.31 187.33"/><path class="cls-14" d="M438.73,220.64H304l11.55-30.31h73.12L426,113.07h70.5ZM306,219.29h131.9l56.26-104.86H426.8l-37.23,77.26h-73Z"/></g></g></svg>