<svg xmlns="http://www.w3.org/2000/svg" xmlns:xlink="http://www.w3.org/1999/xlink" viewBox="0 0 487.44 287.51"><defs><style>.cls-1{fill:url(#New_Gradient_Swatch_1);}.cls-2{fill:url(#New_Gradient_Swatch_1-2);}.cls-3{fill:url(#New_Gradient_Swatch_1-3);}.cls-4{fill:url(#New_Gradient_Swatch_1-4);}.cls-5{fill:url(#New_Gradient_Swatch_1-5);}.cls-6{fill:url(#New_Gradient_Swatch_1-6);}.cls-7{fill:url(#New_Gradient_Swatch_1-7);}.cls-8{fill:url(#New_Gradient_Swatch_1-8);}.cls-9{fill:url(#New_Gradient_Swatch_1-9);}.cls-10{fill:url(#New_Gradient_Swatch_1-10);}.cls-11{fill:url(#New_Gradient_Swatch_1-11);}.cls-12{fill:url(#New_Gradient_Swatch_1-12);}.cls-13{fill:url(#New_Gradient_Swatch_1-13);}.cls-14{fill:url(#New_Gradient_Swatch_1-14);}.cls-15{fill:url(#New_Gradient_Swatch_1-15);}.cls-16{fill:url(#New_Gradient_Swatch_1-16);}.cls-17{fill:url(#New_Gradient_Swatch_1-17);}.cls-18{fill:url(#New_Gradient_Swatch_1-18);}.cls-19{fill:url(#New_Gradient_Swatch_1-19);}</style><linearGradient id="New_Gradient_Swatch_1" x1="43.6" y1="142.2" x2="483.78" y2="142.2" gradientUnits="userSpaceOnUse"><stop offset="0" stop-color="#cf52fe"/><stop offset="1" stop-color="#19dbb6"/></linearGradient><linearGradient id="New_Gradient_Swatch_1-2" x1="292.83" y1="140.82" x2="487.44" y2="140.82" xlink:href="#New_Gradient_Swatch_1"/><linearGradient id="New_Gradient_Swatch_1-3" x1="183.84" y1="142.58" x2="332.09" y2="142.58" xlink:href="#New_Gradient_Swatch_1"/><linearGradient id="New_Gradient_Swatch_1-4" x1="162.97" y1="140.81" x2="311.21" y2="140.81" xlink:href="#New_Gradient_Swatch_1"/><linearGradient id="New_Gradient_Swatch_1-5" x1="154.9" y1="143.85" x2="362.3" y2="143.85" xlink:href="#New_Gradient_Swatch_1"/><linearGradient id="New_Gradient_Swatch_1-6" x1="61.15" y1="142.58" x2="140.78" y2="142.58" xlink:href="#New_Gradient_Swatch_1"/><linearGradient id="New_Gradient_Swatch_1-7" x1="20.05" y1="143.75" x2="259.21" y2="143.75" xlink:href="#New_Gradient_Swatch_1"/><linearGradient id="New_Gradient_Swatch_1-8" x1="242.36" y1="63.04" x2="273.58" y2="63.04" xlink:href="#New_Gradient_Swatch_1"/><linearGradient id="New_Gradient_Swatch_1-9" x1="242.36" y1="220.79" x2="273.58" y2="220.79" xlink:href="#New_Gradient_Swatch_1"/><linearGradient id="New_Gradient_Swatch_1-10" x1="0" y1="224.74" x2="26.06" y2="224.74" xlink:href="#New_Gradient_Swatch_1"/><linearGradient id="New_Gradient_Swatch_1-11" x1="0" y1="206.38" x2="26.06" y2="206.38" xlink:href="#New_Gradient_Swatch_1"/><linearGradient id="New_Gradient_Swatch_1-12" x1="0" y1="188.03" x2="26.06" y2="188.03" xlink:href="#New_Gradient_Swatch_1"/><linearGradient id="New_Gradient_Swatch_1-13" x1="0" y1="169.67" x2="26.06" y2="169.67" xlink:href="#New_Gradient_Swatch_1"/><linearGradient id="New_Gradient_Swatch_1-14" x1="0" y1="151.32" x2="26.06" y2="151.32" xlink:href="#New_Gradient_Swatch_1"/><linearGradient id="New_Gradient_Swatch_1-15" x1="0" y1="133.84" x2="26.06" y2="133.84" xlink:href="#New_Gradient_Swatch_1"/><linearGradient id="New_Gradient_Swatch_1-16" x1="0" y1="115.48" x2="26.06" y2="115.48" xlink:href="#New_Gradient_Swatch_1"/><linearGradient id="New_Gradient_Swatch_1-17" x1="0" y1="97.12" x2="26.06" y2="97.12" xlink:href="#New_Gradient_Swatch_1"/><linearGradient id="New_Gradient_Swatch_1-18" x1="0" y1="78.77" x2="26.06" y2="78.77" xlink:href="#New_Gradient_Swatch_1"/><linearGradient id="New_Gradient_Swatch_1-19" x1="0" y1="60.41" x2="26.06" y2="60.41" xlink:href="#New_Gradient_Swatch_1"/></defs><title>arrow_03_purplr_green</title><g id="Layer_2" data-name="Layer 2"><g id="Layer_1-2" data-name="Layer 1"><path class="cls-1" d="M43.6,262.4V22L483.78,142.2ZM51.44,29.51V254.88L464.08,142.2Z"/><polygon class="cls-2" points="487.44 140.81 292.83 194.96 292.83 86.67 487.44 140.81"/><polygon class="cls-3" points="183.84 196.49 332.09 142.57 183.84 88.67 183.84 196.49"/><polygon class="cls-4" points="162.97 194.73 311.21 140.81 162.97 86.9 162.97 194.73"/><path class="cls-5" d="M154.9,220.1V67.61L362.3,143l-1.9.7Zm2.57-149.69V217.27L357.2,143Z"/><polygon class="cls-6" points="140.78 73.01 61.15 44.05 61.15 241.1 140.78 212.15 140.78 73.01"/><polygon class="cls-7" points="20.05 287.51 20.09 284.51 23.6 0 259.15 61.93 256.78 65.5 29.67 5.79 26.27 281.55 256.73 217.56 259.21 221.1 20.05 287.51"/><ellipse class="cls-8" cx="257.97" cy="63.04" rx="15.61" ry="9.83"/><path class="cls-9" d="M273.58,220.79c0,5.43-7,9.83-15.61,9.83s-15.61-4.4-15.61-9.83,7-9.83,15.61-9.83S273.58,215.36,273.58,220.79Z"/><polygon class="cls-10" points="26.06 228.98 0 234.96 0 220.5 26.06 214.52 26.06 228.98"/><polygon class="cls-11" points="26.06 210.63 0 216.6 0 202.14 26.06 196.16 26.06 210.63"/><polygon class="cls-12" points="26.06 192.27 0 198.25 0 183.78 26.06 177.81 26.06 192.27"/><polygon class="cls-13" points="26.06 173.91 0 179.89 0 165.43 26.06 159.45 26.06 173.91"/><polygon class="cls-14" points="26.06 155.56 0 161.53 0 147.07 26.06 141.1 26.06 155.56"/><polygon class="cls-15" points="26.06 138.08 0 144.06 0 129.59 26.06 123.62 26.06 138.08"/><polygon class="cls-16" points="26.06 119.72 0 125.7 0 111.24 26.06 105.26 26.06 119.72"/><polygon class="cls-17" points="26.06 101.37 0 107.34 0 92.88 26.06 86.9 26.06 101.37"/><polygon class="cls-18" points="26.06 83.01 0 88.99 0 74.52 26.06 68.55 26.06 83.01"/><polygon class="cls-19" points="26.06 64.66 0 70.63 0 56.17 26.06 50.19 26.06 64.66"/></g></g></svg>