<svg xmlns="http://www.w3.org/2000/svg" viewBox="0 0 491.61 157.29"><defs><style>.cls-1{fill:#00d0ff;}</style></defs><title>arrow_10</title><g id="Layer_2" data-name="Layer 2"><g id="Layer_1-2" data-name="Layer 1"><polygon class="cls-1" points="491.61 104.76 179.72 104.76 168.82 115.66 481.09 115.66 491.61 104.76"/><polygon class="cls-1" points="475.5 111.37 449.35 137.52 346.74 137.52 332.31 151.96 288.38 151.96 249.47 113.05 475.5 111.37"/><path class="cls-1" d="M265.05,157.19,233.46,125.6H192.67l31.69,31.69Z"/><path class="cls-1" d="M200.83,157.19,169.24,125.6H128.45l31.69,31.69Z"/><path class="cls-1" d="M136.61,157.19,105,125.6H64.22l31.7,31.69Z"/><path class="cls-1" d="M72.38,157.19,40.79,125.6H0l31.69,31.69Z"/><polygon class="cls-1" points="491.61 52.53 179.72 52.53 168.82 41.63 481.09 41.63 491.61 52.53"/><polygon class="cls-1" points="475.5 45.92 449.35 19.77 346.74 19.77 332.31 5.33 288.38 5.33 249.47 44.24 475.5 45.92"/><path class="cls-1" d="M265.05.1,233.46,31.69H192.67L224.36,0Z"/><path class="cls-1" d="M200.83.1,169.24,31.69H128.45L160.14,0Z"/><path class="cls-1" d="M136.61.1,105,31.69H64.22L95.92,0Z"/><path class="cls-1" d="M72.38.1,40.79,31.69H0L31.69,0Z"/></g></g></svg>