<svg xmlns="http://www.w3.org/2000/svg" viewBox="0 0 491.31 175.16"><defs><style>.cls-1{fill:#11e5b3;}</style></defs><title>arrow_02_green</title><g id="Layer_2" data-name="Layer 2"><g id="Layer_1-2" data-name="Layer 1"><polygon class="cls-1" points="459.35 87.58 307.65 175.16 307.65 0 459.35 87.58"/><path class="cls-1" d="M381.42,150.16a5.62,5.62,0,0,1-2.82-10.48l90.24-52.1L378.6,35.48a5.62,5.62,0,0,1,5.62-9.73L491.31,87.58,384.22,149.41A5.58,5.58,0,0,1,381.42,150.16Z"/><rect class="cls-1" x="79.64" y="80.62" width="280.99" height="13.92"/><path class="cls-1" d="M128.64,114.75h-106L38.35,87.58,22.66,60.41h106l15.68,27.17ZM26,112.81H127.51l14.56-25.23L127.51,62.36H26L40.6,87.58Z"/><polygon class="cls-1" points="150.39 65.58 63.26 65.58 75.97 87.58 63.26 109.59 150.39 109.59 163.1 87.58 150.39 65.58"/><polygon class="cls-1" points="56.53 147.27 20.9 147.27 26.1 142.44 20.9 137.61 56.53 137.61 61.72 142.44 56.53 147.27"/><polygon class="cls-1" points="56.53 37.55 20.9 37.55 26.1 32.72 20.9 27.89 56.53 27.89 61.72 32.72 56.53 37.55"/><path class="cls-1" d="M138.62,130.21H0L20.52,87.58,0,45H138.62l20.52,42.63ZM6.2,126.32h130l18.65-38.74L136.17,48.85H6.2L24.84,87.58Z"/><path class="cls-1" d="M290.28,163.83V11.2l70.17,77.19Zm6.47-135.91V147.38l54.92-59Z"/><polygon class="cls-1" points="167.16 88.11 138.61 33.84 42.81 33.84 42.81 31.6 139.97 31.6 169.15 87.06 167.16 88.11"/><polygon class="cls-1" points="139.97 143.57 42.81 143.57 42.81 141.32 138.61 141.32 167.16 87.06 169.15 88.11 139.97 143.57"/></g></g></svg>