<svg xmlns="http://www.w3.org/2000/svg" viewBox="0 0 495.62 199.51"><defs><style>.cls-1{fill:#11e5b3;}</style></defs><title>arrow_07_green</title><g id="Layer_2" data-name="Layer 2"><g id="Layer_1-2" data-name="Layer 1"><polygon class="cls-1" points="412.64 76.17 179.15 76.17 170.29 42.21 405.39 42.21 412.64 76.17"/><polygon class="cls-1" points="424.43 88.99 411.98 31.27 32.58 31.27 32.58 27.68 414.87 27.68 427.93 88.23 424.43 88.99"/><path class="cls-1" d="M437,90H25L6.72,29.87a1.35,1.35,0,0,1,2.58-.78L27,87.26H433.67l-11-49.46L24.79,37.19a1.35,1.35,0,0,1,0-2.69h0l400,.61Z"/><polygon class="cls-1" points="211.49 21.53 430.42 21.53 444.98 94.98 480.76 94.98 459.53 12.07 202.39 12.07 211.49 21.53"/><polygon class="cls-1" points="55.97 76.17 32.73 76.17 23.12 42.21 46.37 42.21 55.97 76.17"/><polygon class="cls-1" points="85.47 76.17 62.22 76.17 52.62 42.21 75.86 42.21 85.47 76.17"/><polygon class="cls-1" points="114.97 76.17 91.72 76.17 82.12 42.21 105.36 42.21 114.97 76.17"/><polygon class="cls-1" points="144.46 76.17 121.22 76.17 111.62 42.21 134.86 42.21 144.46 76.17"/><polygon class="cls-1" points="173.96 76.17 150.72 76.17 141.12 42.21 164.36 42.21 173.96 76.17"/><polygon class="cls-1" points="54.3 30.99 31.06 30.99 24.79 12.07 48.03 12.07 54.3 30.99"/><polygon class="cls-1" points="83.8 30.99 60.56 30.99 54.29 12.07 77.53 12.07 83.8 30.99"/><polygon class="cls-1" points="113.3 30.99 90.06 30.99 83.79 12.07 107.03 12.07 113.3 30.99"/><polygon class="cls-1" points="142.79 30.99 119.55 30.99 113.29 12.07 136.53 12.07 142.79 30.99"/><polygon class="cls-1" points="172.29 30.99 149.05 30.99 142.79 12.07 166.03 12.07 172.29 30.99"/><circle class="cls-1" cx="8.06" cy="29.48" r="8.06"/><path class="cls-1" d="M437.25,95.43h0L22.79,95,6.38,42.34a.44.44,0,0,1,.29-.56.45.45,0,0,1,.57.29L23.46,94.13l413.79.4a.45.45,0,0,1,0,.9Z"/><polygon class="cls-1" points="411.74 19.29 230.41 19.29 219.98 0 401.31 0 411.74 19.29"/><polygon class="cls-1" points="495.62 94.98 444.98 94.98 433.31 35.85 481.52 35.85 495.62 94.98"/><polygon class="cls-1" points="412.64 123.34 179.15 123.34 170.29 157.31 405.39 157.31 412.64 123.34"/><polygon class="cls-1" points="414.87 171.83 32.58 171.83 32.58 168.24 411.98 168.24 424.43 110.53 427.93 111.28 414.87 171.83"/><path class="cls-1" d="M8,171.38a1.32,1.32,0,0,1-.39-.06,1.35,1.35,0,0,1-.9-1.68L25,109.56H437l-12.2,54.84h-1.07l-399,.6h0a1.35,1.35,0,0,1,0-2.69l397.88-.6,11-49.47H27L9.3,170.43A1.35,1.35,0,0,1,8,171.38Z"/><polygon class="cls-1" points="211.49 177.98 430.42 177.98 444.98 104.53 480.76 104.53 459.53 187.44 202.39 187.44 211.49 177.98"/><polygon class="cls-1" points="55.97 123.34 32.73 123.34 23.12 157.31 46.37 157.31 55.97 123.34"/><polygon class="cls-1" points="85.47 123.34 62.22 123.34 52.62 157.31 75.86 157.31 85.47 123.34"/><polygon class="cls-1" points="114.97 123.34 91.72 123.34 82.12 157.31 105.36 157.31 114.97 123.34"/><polygon class="cls-1" points="144.46 123.34 121.22 123.34 111.62 157.31 134.86 157.31 144.46 123.34"/><polygon class="cls-1" points="173.96 123.34 150.72 123.34 141.12 157.31 164.36 157.31 173.96 123.34"/><polygon class="cls-1" points="54.3 168.52 31.06 168.52 24.79 187.44 48.03 187.44 54.3 168.52"/><polygon class="cls-1" points="83.8 168.52 60.56 168.52 54.29 187.44 77.53 187.44 83.8 168.52"/><polygon class="cls-1" points="113.3 168.52 90.06 168.52 83.79 187.44 107.03 187.44 113.3 168.52"/><polygon class="cls-1" points="142.79 168.52 119.55 168.52 113.29 187.44 136.53 187.44 142.79 168.52"/><polygon class="cls-1" points="172.29 168.52 149.05 168.52 142.79 187.44 166.03 187.44 172.29 168.52"/><circle class="cls-1" cx="8.06" cy="170.03" r="8.06"/><path class="cls-1" d="M6.81,157.76l-.14,0a.46.46,0,0,1-.29-.57l16.41-52.69h.33l414.13-.39a.44.44,0,0,1,.44.44.45.45,0,0,1-.44.45l-413.79.4L7.24,157.44A.46.46,0,0,1,6.81,157.76Z"/><polygon class="cls-1" points="411.74 180.22 230.41 180.22 219.98 199.51 401.31 199.51 411.74 180.22"/><polygon class="cls-1" points="495.62 104.53 444.98 104.53 433.31 163.67 481.52 163.67 495.62 104.53"/></g></g></svg>