<svg xmlns="http://www.w3.org/2000/svg" xmlns:xlink="http://www.w3.org/1999/xlink" viewBox="0 0 491.31 175.16"><defs><style>.cls-1{fill:url(#New_Gradient_Swatch_7);}.cls-2{fill:url(#New_Gradient_Swatch_7-2);}.cls-3{fill:url(#New_Gradient_Swatch_7-3);}.cls-4{fill:url(#New_Gradient_Swatch_7-4);}.cls-5{fill:url(#New_Gradient_Swatch_7-5);}.cls-6{fill:url(#New_Gradient_Swatch_7-6);}.cls-7{fill:url(#New_Gradient_Swatch_7-7);}.cls-8{fill:url(#New_Gradient_Swatch_7-8);}.cls-9{fill:url(#New_Gradient_Swatch_7-9);}.cls-10{fill:url(#New_Gradient_Swatch_7-10);}.cls-11{fill:url(#New_Gradient_Swatch_7-11);}</style><linearGradient id="New_Gradient_Swatch_7" x1="307.65" y1="87.58" x2="459.35" y2="87.58" gradientUnits="userSpaceOnUse"><stop offset="0" stop-color="#fcdaff"/><stop offset="1" stop-color="#cf52fe"/></linearGradient><linearGradient id="New_Gradient_Swatch_7-2" x1="375.79" y1="87.58" x2="491.31" y2="87.58" xlink:href="#New_Gradient_Swatch_7"/><linearGradient id="New_Gradient_Swatch_7-3" x1="79.64" y1="87.58" x2="360.64" y2="87.58" xlink:href="#New_Gradient_Swatch_7"/><linearGradient id="New_Gradient_Swatch_7-4" x1="22.66" y1="87.58" x2="144.32" y2="87.58" xlink:href="#New_Gradient_Swatch_7"/><linearGradient id="New_Gradient_Swatch_7-5" x1="63.26" y1="87.58" x2="163.1" y2="87.58" xlink:href="#New_Gradient_Swatch_7"/><linearGradient id="New_Gradient_Swatch_7-6" x1="20.9" y1="142.44" x2="61.72" y2="142.44" xlink:href="#New_Gradient_Swatch_7"/><linearGradient id="New_Gradient_Swatch_7-7" x1="20.9" y1="32.72" x2="61.72" y2="32.72" xlink:href="#New_Gradient_Swatch_7"/><linearGradient id="New_Gradient_Swatch_7-8" x1="0" y1="87.58" x2="159.14" y2="87.58" xlink:href="#New_Gradient_Swatch_7"/><linearGradient id="New_Gradient_Swatch_7-9" x1="290.28" y1="87.51" x2="360.45" y2="87.51" xlink:href="#New_Gradient_Swatch_7"/><linearGradient id="New_Gradient_Swatch_7-10" x1="42.81" y1="59.85" x2="169.15" y2="59.85" xlink:href="#New_Gradient_Swatch_7"/><linearGradient id="New_Gradient_Swatch_7-11" x1="42.81" y1="115.31" x2="169.15" y2="115.31" xlink:href="#New_Gradient_Swatch_7"/></defs><title>arrow_02_purple</title><g id="Layer_2" data-name="Layer 2"><g id="Layer_1-2" data-name="Layer 1"><polygon class="cls-1" points="459.35 87.58 307.65 175.16 307.65 0 459.35 87.58"/><path class="cls-2" d="M381.42,150.16a5.62,5.62,0,0,1-2.82-10.48l90.24-52.1L378.6,35.48a5.62,5.62,0,0,1,5.62-9.73L491.31,87.58,384.22,149.41A5.58,5.58,0,0,1,381.42,150.16Z"/><rect class="cls-3" x="79.64" y="80.62" width="280.99" height="13.92"/><path class="cls-4" d="M128.64,114.75h-106L38.35,87.58,22.66,60.41h106l15.68,27.17ZM26,112.81H127.51l14.56-25.23L127.51,62.36H26L40.6,87.58Z"/><polygon class="cls-5" points="150.39 65.58 63.26 65.58 75.97 87.58 63.26 109.59 150.39 109.59 163.1 87.58 150.39 65.58"/><polygon class="cls-6" points="56.53 147.27 20.9 147.27 26.1 142.44 20.9 137.61 56.53 137.61 61.72 142.44 56.53 147.27"/><polygon class="cls-7" points="56.53 37.55 20.9 37.55 26.1 32.72 20.9 27.89 56.53 27.89 61.72 32.72 56.53 37.55"/><path class="cls-8" d="M138.62,130.21H0L20.52,87.58,0,45H138.62l20.52,42.63ZM6.2,126.32h130l18.65-38.74L136.17,48.85H6.2L24.84,87.58Z"/><path class="cls-9" d="M290.28,163.83V11.2l70.17,77.19Zm6.47-135.91V147.38l54.92-59Z"/><polygon class="cls-10" points="167.16 88.11 138.61 33.84 42.81 33.84 42.81 31.6 139.97 31.6 169.15 87.06 167.16 88.11"/><polygon class="cls-11" points="139.97 143.57 42.81 143.57 42.81 141.32 138.61 141.32 167.16 87.06 169.15 88.11 139.97 143.57"/></g></g></svg>