<svg xmlns="http://www.w3.org/2000/svg" xmlns:xlink="http://www.w3.org/1999/xlink" viewBox="0 0 491.61 157.29"><defs><style>.cls-1{fill:url(#New_Gradient_Swatch_2);}.cls-2{fill:url(#New_Gradient_Swatch_2-2);}.cls-3{fill:url(#New_Gradient_Swatch_2-3);}.cls-4{fill:url(#New_Gradient_Swatch_2-4);}.cls-5{fill:url(#New_Gradient_Swatch_2-5);}.cls-6{fill:url(#New_Gradient_Swatch_2-6);}.cls-7{fill:url(#New_Gradient_Swatch_2-7);}.cls-8{fill:url(#New_Gradient_Swatch_2-8);}.cls-9{fill:url(#New_Gradient_Swatch_2-9);}.cls-10{fill:url(#New_Gradient_Swatch_2-10);}.cls-11{fill:url(#New_Gradient_Swatch_2-11);}.cls-12{fill:url(#New_Gradient_Swatch_2-12);}</style><linearGradient id="New_Gradient_Swatch_2" x1="168.82" y1="110.21" x2="491.61" y2="110.21" gradientUnits="userSpaceOnUse"><stop offset="0" stop-color="#9541de"/><stop offset="1" stop-color="#3ab2c0"/></linearGradient><linearGradient id="New_Gradient_Swatch_2-2" x1="249.47" y1="131.66" x2="475.5" y2="131.66" xlink:href="#New_Gradient_Swatch_2"/><linearGradient id="New_Gradient_Swatch_2-3" x1="192.67" y1="141.44" x2="265.05" y2="141.44" xlink:href="#New_Gradient_Swatch_2"/><linearGradient id="New_Gradient_Swatch_2-4" x1="128.45" y1="141.44" x2="200.83" y2="141.44" xlink:href="#New_Gradient_Swatch_2"/><linearGradient id="New_Gradient_Swatch_2-5" x1="64.22" y1="141.44" x2="136.61" y2="141.44" xlink:href="#New_Gradient_Swatch_2"/><linearGradient id="New_Gradient_Swatch_2-6" x1="0" y1="141.44" x2="72.38" y2="141.44" xlink:href="#New_Gradient_Swatch_2"/><linearGradient id="New_Gradient_Swatch_2-7" x1="168.82" y1="47.08" x2="491.61" y2="47.08" xlink:href="#New_Gradient_Swatch_2"/><linearGradient id="New_Gradient_Swatch_2-8" x1="249.47" y1="25.63" x2="475.5" y2="25.63" xlink:href="#New_Gradient_Swatch_2"/><linearGradient id="New_Gradient_Swatch_2-9" x1="192.67" y1="15.85" x2="265.05" y2="15.85" xlink:href="#New_Gradient_Swatch_2"/><linearGradient id="New_Gradient_Swatch_2-10" x1="128.45" y1="15.85" x2="200.83" y2="15.85" xlink:href="#New_Gradient_Swatch_2"/><linearGradient id="New_Gradient_Swatch_2-11" x1="64.22" y1="15.85" x2="136.61" y2="15.85" xlink:href="#New_Gradient_Swatch_2"/><linearGradient id="New_Gradient_Swatch_2-12" x1="0" y1="15.85" x2="72.38" y2="15.85" xlink:href="#New_Gradient_Swatch_2"/></defs><title>arrow_10_purple_blue</title><g id="Layer_2" data-name="Layer 2"><g id="Layer_1-2" data-name="Layer 1"><polygon class="cls-1" points="491.61 104.76 179.72 104.76 168.82 115.66 481.09 115.66 491.61 104.76"/><polygon class="cls-2" points="475.5 111.37 449.35 137.52 346.74 137.52 332.31 151.96 288.38 151.96 249.47 113.05 475.5 111.37"/><path class="cls-3" d="M265.05,157.19,233.46,125.6H192.67l31.69,31.69Z"/><path class="cls-4" d="M200.83,157.19,169.24,125.6H128.45l31.69,31.69Z"/><path class="cls-5" d="M136.61,157.19,105,125.6H64.22l31.7,31.69Z"/><path class="cls-6" d="M72.38,157.19,40.79,125.6H0l31.69,31.69Z"/><polygon class="cls-7" points="491.61 52.53 179.72 52.53 168.82 41.63 481.09 41.63 491.61 52.53"/><polygon class="cls-8" points="475.5 45.92 449.35 19.77 346.74 19.77 332.31 5.33 288.38 5.33 249.47 44.24 475.5 45.92"/><path class="cls-9" d="M265.05.1,233.46,31.69H192.67L224.36,0Z"/><path class="cls-10" d="M200.83.1,169.24,31.69H128.45L160.14,0Z"/><path class="cls-11" d="M136.61.1,105,31.69H64.22L95.92,0Z"/><path class="cls-12" d="M72.38.1,40.79,31.69H0L31.69,0Z"/></g></g></svg>