<svg xmlns="http://www.w3.org/2000/svg" xmlns:xlink="http://www.w3.org/1999/xlink" viewBox="0 0 494.38 270.04"><defs><style>.cls-1{fill:url(#New_Gradient_Swatch_2);}.cls-2{fill:url(#New_Gradient_Swatch_2-2);}.cls-3{fill:url(#New_Gradient_Swatch_2-3);}.cls-4{fill:url(#New_Gradient_Swatch_2-4);}.cls-5{fill:url(#New_Gradient_Swatch_2-5);}.cls-6{fill:url(#New_Gradient_Swatch_2-6);}.cls-7{fill:url(#New_Gradient_Swatch_2-7);}.cls-8{fill:url(#New_Gradient_Swatch_2-8);}.cls-9{fill:url(#New_Gradient_Swatch_2-9);}.cls-10{fill:url(#New_Gradient_Swatch_2-10);}.cls-11{fill:url(#New_Gradient_Swatch_2-11);}.cls-12{fill:url(#New_Gradient_Swatch_2-12);}.cls-13{fill:url(#New_Gradient_Swatch_2-13);}.cls-14{fill:url(#New_Gradient_Swatch_2-14);}.cls-15{fill:url(#New_Gradient_Swatch_2-15);}.cls-16{fill:url(#New_Gradient_Swatch_2-16);}.cls-17{fill:url(#New_Gradient_Swatch_2-17);}.cls-18{fill:url(#New_Gradient_Swatch_2-18);}.cls-19{fill:url(#New_Gradient_Swatch_2-19);}.cls-20{fill:url(#New_Gradient_Swatch_2-20);}.cls-21{fill:url(#New_Gradient_Swatch_2-21);}.cls-22{fill:url(#New_Gradient_Swatch_2-22);}.cls-23{fill:url(#New_Gradient_Swatch_2-23);}.cls-24{fill:url(#New_Gradient_Swatch_2-24);}.cls-25{fill:url(#New_Gradient_Swatch_2-25);}.cls-26{fill:url(#New_Gradient_Swatch_2-26);}.cls-27{fill:url(#New_Gradient_Swatch_2-27);}.cls-28{fill:url(#New_Gradient_Swatch_2-28);}.cls-29{fill:url(#New_Gradient_Swatch_2-29);}.cls-30{fill:url(#New_Gradient_Swatch_2-30);}.cls-31{fill:url(#New_Gradient_Swatch_2-31);}.cls-32{fill:url(#New_Gradient_Swatch_2-32);}.cls-33{fill:url(#New_Gradient_Swatch_2-33);}.cls-34{fill:url(#New_Gradient_Swatch_2-34);}.cls-35{fill:url(#New_Gradient_Swatch_2-35);}.cls-36{fill:url(#New_Gradient_Swatch_2-36);}.cls-37{fill:url(#New_Gradient_Swatch_2-37);}.cls-38{fill:url(#New_Gradient_Swatch_2-38);}.cls-39{fill:url(#New_Gradient_Swatch_2-39);}.cls-40{fill:url(#New_Gradient_Swatch_2-40);}.cls-41{fill:url(#New_Gradient_Swatch_2-41);}.cls-42{fill:url(#New_Gradient_Swatch_2-42);}.cls-43{fill:url(#New_Gradient_Swatch_2-43);}.cls-44{fill:url(#New_Gradient_Swatch_2-44);}.cls-45{fill:url(#New_Gradient_Swatch_2-45);}.cls-46{fill:url(#New_Gradient_Swatch_2-46);}</style><linearGradient id="New_Gradient_Swatch_2" x1="142.37" y1="95.84" x2="476.4" y2="95.84" gradientUnits="userSpaceOnUse"><stop offset="0" stop-color="#9541de"/><stop offset="1" stop-color="#3ab2c0"/></linearGradient><linearGradient id="New_Gradient_Swatch_2-2" x1="36.53" y1="61.01" x2="372.26" y2="61.01" xlink:href="#New_Gradient_Swatch_2"/><linearGradient id="New_Gradient_Swatch_2-3" x1="45.08" y1="61.01" x2="379.11" y2="61.01" xlink:href="#New_Gradient_Swatch_2"/><linearGradient id="New_Gradient_Swatch_2-4" x1="27.59" y1="45.18" x2="277.92" y2="45.18" xlink:href="#New_Gradient_Swatch_2"/><linearGradient id="New_Gradient_Swatch_2-5" x1="24.4" y1="28.56" x2="359.41" y2="28.56" xlink:href="#New_Gradient_Swatch_2"/><linearGradient id="New_Gradient_Swatch_2-6" x1="11.4" y1="70.51" x2="491.01" y2="70.51" xlink:href="#New_Gradient_Swatch_2"/><linearGradient id="New_Gradient_Swatch_2-7" x1="111.51" y1="108.9" x2="145.8" y2="108.9" xlink:href="#New_Gradient_Swatch_2"/><linearGradient id="New_Gradient_Swatch_2-8" x1="80.37" y1="108.9" x2="114.67" y2="108.9" xlink:href="#New_Gradient_Swatch_2"/><linearGradient id="New_Gradient_Swatch_2-9" x1="49.24" y1="108.9" x2="83.53" y2="108.9" xlink:href="#New_Gradient_Swatch_2"/><linearGradient id="New_Gradient_Swatch_2-10" x1="46.29" y1="10.29" x2="71.68" y2="10.29" xlink:href="#New_Gradient_Swatch_2"/><linearGradient id="New_Gradient_Swatch_2-11" x1="23.14" y1="10.29" x2="48.53" y2="10.29" xlink:href="#New_Gradient_Swatch_2"/><linearGradient id="New_Gradient_Swatch_2-12" x1="0" y1="10.29" x2="25.39" y2="10.29" xlink:href="#New_Gradient_Swatch_2"/><linearGradient id="New_Gradient_Swatch_2-13" x1="115.72" y1="10.29" x2="141.11" y2="10.29" xlink:href="#New_Gradient_Swatch_2"/><linearGradient id="New_Gradient_Swatch_2-14" x1="92.57" y1="10.29" x2="117.96" y2="10.29" xlink:href="#New_Gradient_Swatch_2"/><linearGradient id="New_Gradient_Swatch_2-15" x1="69.43" y1="10.29" x2="94.82" y2="10.29" xlink:href="#New_Gradient_Swatch_2"/><linearGradient id="New_Gradient_Swatch_2-16" x1="185.15" y1="10.29" x2="210.54" y2="10.29" xlink:href="#New_Gradient_Swatch_2"/><linearGradient id="New_Gradient_Swatch_2-17" x1="162.01" y1="10.29" x2="187.4" y2="10.29" xlink:href="#New_Gradient_Swatch_2"/><linearGradient id="New_Gradient_Swatch_2-18" x1="138.86" y1="10.29" x2="164.25" y2="10.29" xlink:href="#New_Gradient_Swatch_2"/><linearGradient id="New_Gradient_Swatch_2-19" x1="4.68" y1="80.01" x2="491.79" y2="80.01" xlink:href="#New_Gradient_Swatch_2"/><linearGradient id="New_Gradient_Swatch_2-20" x1="21.35" y1="74.06" x2="55.71" y2="74.06" xlink:href="#New_Gradient_Swatch_2"/><linearGradient id="New_Gradient_Swatch_2-21" x1="17.03" y1="74.06" x2="51.39" y2="74.06" xlink:href="#New_Gradient_Swatch_2"/><linearGradient id="New_Gradient_Swatch_2-22" x1="12.71" y1="74.06" x2="47.07" y2="74.06" xlink:href="#New_Gradient_Swatch_2"/><linearGradient id="New_Gradient_Swatch_2-23" x1="213.82" y1="61.47" x2="494.38" y2="61.47" xlink:href="#New_Gradient_Swatch_2"/><linearGradient id="New_Gradient_Swatch_2-24" x1="142.37" y1="174.2" x2="476.4" y2="174.2" xlink:href="#New_Gradient_Swatch_2"/><linearGradient id="New_Gradient_Swatch_2-25" x1="36.53" y1="209.02" x2="372.26" y2="209.02" xlink:href="#New_Gradient_Swatch_2"/><linearGradient id="New_Gradient_Swatch_2-26" x1="45.08" y1="209.02" x2="379.11" y2="209.02" xlink:href="#New_Gradient_Swatch_2"/><linearGradient id="New_Gradient_Swatch_2-27" x1="27.59" y1="224.85" x2="277.92" y2="224.85" xlink:href="#New_Gradient_Swatch_2"/><linearGradient id="New_Gradient_Swatch_2-28" x1="24.4" y1="241.48" x2="359.41" y2="241.48" xlink:href="#New_Gradient_Swatch_2"/><linearGradient id="New_Gradient_Swatch_2-29" x1="11.4" y1="199.53" x2="491.01" y2="199.53" xlink:href="#New_Gradient_Swatch_2"/><linearGradient id="New_Gradient_Swatch_2-30" x1="111.51" y1="161.14" x2="145.8" y2="161.14" xlink:href="#New_Gradient_Swatch_2"/><linearGradient id="New_Gradient_Swatch_2-31" x1="80.37" y1="161.14" x2="114.67" y2="161.14" xlink:href="#New_Gradient_Swatch_2"/><linearGradient id="New_Gradient_Swatch_2-32" x1="49.24" y1="161.14" x2="83.53" y2="161.14" xlink:href="#New_Gradient_Swatch_2"/><linearGradient id="New_Gradient_Swatch_2-33" x1="46.29" y1="259.75" x2="71.68" y2="259.75" xlink:href="#New_Gradient_Swatch_2"/><linearGradient id="New_Gradient_Swatch_2-34" x1="23.14" y1="259.75" x2="48.53" y2="259.75" xlink:href="#New_Gradient_Swatch_2"/><linearGradient id="New_Gradient_Swatch_2-35" x1="0" y1="259.75" x2="25.39" y2="259.75" xlink:href="#New_Gradient_Swatch_2"/><linearGradient id="New_Gradient_Swatch_2-36" x1="115.72" y1="259.75" x2="141.11" y2="259.75" xlink:href="#New_Gradient_Swatch_2"/><linearGradient id="New_Gradient_Swatch_2-37" x1="92.57" y1="259.75" x2="117.96" y2="259.75" xlink:href="#New_Gradient_Swatch_2"/><linearGradient id="New_Gradient_Swatch_2-38" x1="69.43" y1="259.75" x2="94.82" y2="259.75" xlink:href="#New_Gradient_Swatch_2"/><linearGradient id="New_Gradient_Swatch_2-39" x1="185.15" y1="259.75" x2="210.54" y2="259.75" xlink:href="#New_Gradient_Swatch_2"/><linearGradient id="New_Gradient_Swatch_2-40" x1="162.01" y1="259.75" x2="187.4" y2="259.75" xlink:href="#New_Gradient_Swatch_2"/><linearGradient id="New_Gradient_Swatch_2-41" x1="138.86" y1="259.75" x2="164.25" y2="259.75" xlink:href="#New_Gradient_Swatch_2"/><linearGradient id="New_Gradient_Swatch_2-42" x1="4.68" y1="190.03" x2="491.79" y2="190.03" xlink:href="#New_Gradient_Swatch_2"/><linearGradient id="New_Gradient_Swatch_2-43" x1="21.35" y1="195.98" x2="55.71" y2="195.98" xlink:href="#New_Gradient_Swatch_2"/><linearGradient id="New_Gradient_Swatch_2-44" x1="17.03" y1="195.98" x2="51.39" y2="195.98" xlink:href="#New_Gradient_Swatch_2"/><linearGradient id="New_Gradient_Swatch_2-45" x1="12.71" y1="195.98" x2="47.07" y2="195.98" xlink:href="#New_Gradient_Swatch_2"/><linearGradient id="New_Gradient_Swatch_2-46" x1="213.82" y1="208.56" x2="494.38" y2="208.56" xlink:href="#New_Gradient_Swatch_2"/></defs><title>arrow_08_purple_blue</title><g id="Layer_2" data-name="Layer 2"><g id="Layer_1-2" data-name="Layer 1"><polygon class="cls-1" points="457.38 69.72 379.11 69.72 388.61 95.84 142.37 95.84 150.55 121.96 476.4 121.96 457.38 69.72"/><polygon class="cls-2" points="353.25 34.89 274.97 34.89 284.48 61.01 36.53 61.01 45.48 87.13 372.26 87.13 353.25 34.89"/><polygon class="cls-3" points="360.09 34.89 281.82 34.89 291.32 61.01 45.08 61.01 54.59 87.13 379.11 87.13 360.09 34.89"/><polygon class="cls-4" points="277.92 55.47 34.64 55.47 27.59 34.89 270.12 34.89 277.92 55.47"/><polygon class="cls-5" points="359.4 31.92 26.89 31.92 24.4 25.2 356.91 25.2 359.4 31.92"/><path class="cls-6" d="M489.45,123.52a1.56,1.56,0,0,1-1.46-1L465.81,62.57H378L363.28,20.62H13a1.56,1.56,0,1,1,0-3.12H365.5l14.71,42H468l22.94,62a1.56,1.56,0,0,1-.93,2A1.47,1.47,0,0,1,489.45,123.52Z"/><polygon class="cls-7" points="145.81 121.96 119.92 121.96 111.51 95.84 137.4 95.84 145.81 121.96"/><polygon class="cls-8" points="114.67 121.96 88.78 121.96 80.37 95.84 106.26 95.84 114.67 121.96"/><polygon class="cls-9" points="83.53 121.96 57.64 121.96 49.24 95.84 75.13 95.84 83.53 121.96"/><polygon class="cls-10" points="71.68 20.58 52.51 20.58 46.29 0 65.45 0 71.68 20.58"/><polygon class="cls-11" points="48.53 20.58 29.37 20.58 23.14 0 42.31 0 48.53 20.58"/><polygon class="cls-12" points="25.39 20.58 6.22 20.58 0 0 19.17 0 25.39 20.58"/><polygon class="cls-13" points="141.11 20.58 121.94 20.58 115.72 0 134.89 0 141.11 20.58"/><polygon class="cls-14" points="117.97 20.58 98.8 20.58 92.57 0 111.74 0 117.97 20.58"/><polygon class="cls-15" points="94.82 20.58 75.65 20.58 69.43 0 88.6 0 94.82 20.58"/><polygon class="cls-16" points="210.54 20.58 191.37 20.58 185.15 0 204.32 0 210.54 20.58"/><polygon class="cls-17" points="187.4 20.58 168.23 20.58 162 0 181.17 0 187.4 20.58"/><polygon class="cls-18" points="164.25 20.58 145.08 20.58 138.86 0 158.03 0 164.25 20.58"/><path class="cls-19" d="M40.44,133.8,4.81,29.32a2.34,2.34,0,1,1,4.43-1.51l34.55,101.3,445.66-.26h0a2.35,2.35,0,0,1,0,4.69Z"/><path class="cls-20" d="M54.93,122.74a.78.78,0,0,1-.74-.53L21.39,26.42a.78.78,0,1,1,1.48-.51l32.79,95.8a.78.78,0,0,1-.48,1A1.09,1.09,0,0,1,54.93,122.74Z"/><path class="cls-21" d="M50.61,122.74a.78.78,0,0,1-.74-.53L17.07,26.42a.78.78,0,1,1,1.48-.51l32.79,95.8a.78.78,0,0,1-.48,1A1.09,1.09,0,0,1,50.61,122.74Z"/><path class="cls-22" d="M46.29,122.74a.78.78,0,0,1-.74-.53L12.75,26.42a.78.78,0,1,1,1.48-.51L47,121.71a.78.78,0,0,1-.49,1A1.09,1.09,0,0,1,46.29,122.74Z"/><path class="cls-23" d="M493.6,113.44a.79.79,0,0,1-.73-.5L470.62,54.29,383,54.48l-.18-.52L367.6,11.07h-153a.78.78,0,0,1,0-1.56H368.7l.19.52,15.2,42.89,87.6-.19.19.5,22.45,59.15a.77.77,0,0,1-.45,1A.87.87,0,0,1,493.6,113.44Z"/><polygon class="cls-24" points="457.38 200.32 379.11 200.32 388.61 174.2 142.37 174.2 150.55 148.08 476.4 148.08 457.38 200.32"/><polygon class="cls-25" points="353.25 235.14 274.97 235.14 284.48 209.02 36.53 209.02 45.48 182.9 372.26 182.9 353.25 235.14"/><polygon class="cls-26" points="360.09 235.14 281.82 235.14 291.32 209.02 45.08 209.02 54.59 182.9 379.11 182.9 360.09 235.14"/><polygon class="cls-27" points="277.92 214.56 34.64 214.56 27.59 235.14 270.12 235.14 277.92 214.56"/><polygon class="cls-28" points="359.4 238.11 26.89 238.11 24.4 244.84 356.91 244.84 359.4 238.11"/><path class="cls-29" d="M365.5,252.53H13a1.56,1.56,0,1,1,0-3.12H363.28L378,207.46h87.81L488,147.53a1.56,1.56,0,0,1,2-.92,1.58,1.58,0,0,1,.93,2l-22.94,62H380.21Z"/><polygon class="cls-30" points="145.81 148.08 119.92 148.08 111.51 174.2 137.4 174.2 145.81 148.08"/><polygon class="cls-31" points="114.67 148.08 88.78 148.08 80.37 174.2 106.26 174.2 114.67 148.08"/><polygon class="cls-32" points="83.53 148.08 57.64 148.08 49.24 174.2 75.13 174.2 83.53 148.08"/><polygon class="cls-33" points="71.68 249.46 52.51 249.46 46.29 270.04 65.45 270.04 71.68 249.46"/><polygon class="cls-34" points="48.53 249.46 29.37 249.46 23.14 270.04 42.31 270.04 48.53 249.46"/><polygon class="cls-35" points="25.39 249.46 6.22 249.46 0 270.04 19.17 270.04 25.39 249.46"/><polygon class="cls-36" points="141.11 249.46 121.94 249.46 115.72 270.04 134.89 270.04 141.11 249.46"/><polygon class="cls-37" points="117.97 249.46 98.8 249.46 92.57 270.04 111.74 270.04 117.97 249.46"/><polygon class="cls-38" points="94.82 249.46 75.65 249.46 69.43 270.04 88.6 270.04 94.82 249.46"/><polygon class="cls-39" points="210.54 249.46 191.37 249.46 185.15 270.04 204.32 270.04 210.54 249.46"/><polygon class="cls-40" points="187.4 249.46 168.23 249.46 162 270.04 181.17 270.04 187.4 249.46"/><polygon class="cls-41" points="164.25 249.46 145.08 249.46 138.86 270.04 158.03 270.04 164.25 249.46"/><path class="cls-42" d="M7,243.82a2.19,2.19,0,0,1-.75-.13,2.33,2.33,0,0,1-1.46-3L40.44,136.24h1.67l447.34.26a2.34,2.34,0,1,1,0,4.68h0l-445.66-.26L9.24,242.23A2.35,2.35,0,0,1,7,243.82Z"/><path class="cls-43" d="M22.13,244.65a.69.69,0,0,1-.25,0,.78.78,0,0,1-.49-1l32.8-95.8a.8.8,0,0,1,1-.48.77.77,0,0,1,.48,1L22.87,244.12A.78.78,0,0,1,22.13,244.65Z"/><path class="cls-44" d="M17.81,244.65a.69.69,0,0,1-.25,0,.78.78,0,0,1-.49-1l32.8-95.8a.79.79,0,0,1,1-.48.77.77,0,0,1,.48,1L18.55,244.12A.78.78,0,0,1,17.81,244.65Z"/><path class="cls-45" d="M13.49,244.65a.73.73,0,0,1-.25,0,.78.78,0,0,1-.49-1l32.8-95.8a.8.8,0,0,1,1-.48.78.78,0,0,1,.49,1l-32.8,95.79A.77.77,0,0,1,13.49,244.65Z"/><path class="cls-46" d="M368.7,260.53H214.6a.79.79,0,0,1,0-1.57h153L383,215.55h.56l87.07.2,22.25-58.65a.78.78,0,0,1,1.46.55l-22.64,59.66h-.54l-87.06-.19Z"/></g></g></svg>