<svg xmlns="http://www.w3.org/2000/svg" xmlns:xlink="http://www.w3.org/1999/xlink" viewBox="0 0 492.37 206.31"><defs><style>.cls-1{fill:url(#New_Gradient_Swatch_2);}.cls-2{fill:url(#New_Gradient_Swatch_2-2);}.cls-3{fill:url(#New_Gradient_Swatch_2-3);}.cls-4{fill:url(#New_Gradient_Swatch_2-4);}.cls-5{fill:url(#New_Gradient_Swatch_2-5);}.cls-6{fill:url(#New_Gradient_Swatch_2-6);}.cls-7{fill:url(#New_Gradient_Swatch_2-7);}.cls-8{fill:url(#New_Gradient_Swatch_2-8);}.cls-9{fill:url(#New_Gradient_Swatch_2-9);}.cls-10{fill:url(#New_Gradient_Swatch_2-10);}.cls-11{fill:url(#New_Gradient_Swatch_2-11);}.cls-12{fill:url(#New_Gradient_Swatch_2-12);}.cls-13{fill:url(#New_Gradient_Swatch_2-13);}.cls-14{fill:url(#New_Gradient_Swatch_2-14);}.cls-15{fill:url(#New_Gradient_Swatch_2-15);}.cls-16{fill:url(#New_Gradient_Swatch_2-16);}.cls-17{fill:url(#New_Gradient_Swatch_2-17);}.cls-18{fill:url(#New_Gradient_Swatch_2-18);}.cls-19{fill:url(#New_Gradient_Swatch_2-19);}.cls-20{fill:url(#New_Gradient_Swatch_2-20);}.cls-21{fill:url(#New_Gradient_Swatch_2-21);}.cls-22{fill:url(#New_Gradient_Swatch_2-22);}.cls-23{fill:url(#New_Gradient_Swatch_2-23);}.cls-24{fill:url(#New_Gradient_Swatch_2-24);}.cls-25{fill:url(#New_Gradient_Swatch_2-25);}.cls-26{fill:url(#New_Gradient_Swatch_2-26);}</style><linearGradient id="New_Gradient_Swatch_2" x1="67" y1="69.59" x2="430.82" y2="69.59" gradientUnits="userSpaceOnUse"><stop offset="0" stop-color="#9541de"/><stop offset="1" stop-color="#3ab2c0"/></linearGradient><linearGradient id="New_Gradient_Swatch_2-2" x1="76.23" y1="82.93" x2="394.07" y2="82.93" xlink:href="#New_Gradient_Swatch_2"/><linearGradient id="New_Gradient_Swatch_2-3" x1="80.92" y1="89.6" x2="364.38" y2="89.6" xlink:href="#New_Gradient_Swatch_2"/><linearGradient id="New_Gradient_Swatch_2-4" x1="3.14" y1="65.33" x2="456.03" y2="65.33" xlink:href="#New_Gradient_Swatch_2"/><linearGradient id="New_Gradient_Swatch_2-5" x1="42.29" y1="59.63" x2="79.44" y2="59.63" xlink:href="#New_Gradient_Swatch_2"/><linearGradient id="New_Gradient_Swatch_2-6" x1="26.78" y1="59.63" x2="63.94" y2="59.63" xlink:href="#New_Gradient_Swatch_2"/><linearGradient id="New_Gradient_Swatch_2-7" x1="11.56" y1="59.63" x2="48.72" y2="59.63" xlink:href="#New_Gradient_Swatch_2"/><linearGradient id="New_Gradient_Swatch_2-8" x1="0" y1="35.83" x2="8.52" y2="35.83" xlink:href="#New_Gradient_Swatch_2"/><linearGradient id="New_Gradient_Swatch_2-9" x1="320.94" y1="15.85" x2="329.46" y2="15.85" xlink:href="#New_Gradient_Swatch_2"/><linearGradient id="New_Gradient_Swatch_2-10" x1="22.53" y1="96.27" x2="31.04" y2="96.27" xlink:href="#New_Gradient_Swatch_2"/><linearGradient id="New_Gradient_Swatch_2-11" x1="323.54" y1="56.62" x2="477.95" y2="56.62" xlink:href="#New_Gradient_Swatch_2"/><linearGradient id="New_Gradient_Swatch_2-12" x1="331.09" y1="4.26" x2="339.61" y2="4.26" xlink:href="#New_Gradient_Swatch_2"/><linearGradient id="New_Gradient_Swatch_2-13" x1="333.68" y1="50.83" x2="492.37" y2="50.83" xlink:href="#New_Gradient_Swatch_2"/><linearGradient id="New_Gradient_Swatch_2-14" x1="67" y1="136.72" x2="430.82" y2="136.72" xlink:href="#New_Gradient_Swatch_2"/><linearGradient id="New_Gradient_Swatch_2-15" x1="76.23" y1="123.38" x2="394.07" y2="123.38" xlink:href="#New_Gradient_Swatch_2"/><linearGradient id="New_Gradient_Swatch_2-16" x1="80.92" y1="116.71" x2="364.38" y2="116.71" xlink:href="#New_Gradient_Swatch_2"/><linearGradient id="New_Gradient_Swatch_2-17" x1="3.14" y1="140.98" x2="456.03" y2="140.98" xlink:href="#New_Gradient_Swatch_2"/><linearGradient id="New_Gradient_Swatch_2-18" x1="42.29" y1="146.68" x2="79.44" y2="146.68" xlink:href="#New_Gradient_Swatch_2"/><linearGradient id="New_Gradient_Swatch_2-19" x1="26.78" y1="146.68" x2="63.94" y2="146.68" xlink:href="#New_Gradient_Swatch_2"/><linearGradient id="New_Gradient_Swatch_2-20" x1="11.56" y1="146.68" x2="48.72" y2="146.68" xlink:href="#New_Gradient_Swatch_2"/><linearGradient id="New_Gradient_Swatch_2-21" x1="0" y1="170.48" x2="8.52" y2="170.48" xlink:href="#New_Gradient_Swatch_2"/><linearGradient id="New_Gradient_Swatch_2-22" x1="320.94" y1="190.46" x2="329.46" y2="190.46" xlink:href="#New_Gradient_Swatch_2"/><linearGradient id="New_Gradient_Swatch_2-23" x1="22.53" y1="110.04" x2="31.04" y2="110.04" xlink:href="#New_Gradient_Swatch_2"/><linearGradient id="New_Gradient_Swatch_2-24" x1="323.54" y1="149.68" x2="477.95" y2="149.68" xlink:href="#New_Gradient_Swatch_2"/><linearGradient id="New_Gradient_Swatch_2-25" x1="331.09" y1="202.05" x2="339.61" y2="202.05" xlink:href="#New_Gradient_Swatch_2"/><linearGradient id="New_Gradient_Swatch_2-26" x1="333.68" y1="155.48" x2="492.37" y2="155.48" xlink:href="#New_Gradient_Swatch_2"/></defs><title>arrow_09_purple_blue</title><g id="Layer_2" data-name="Layer 2"><g id="Layer_1-2" data-name="Layer 1"><polygon class="cls-1" points="67 42.91 74.96 65.45 389.64 65.45 400.51 96.27 430.82 96.27 412 42.91 67 42.91"/><polygon class="cls-2" points="76.23 69.59 79.83 80.86 365.47 80.86 370.4 96.27 394.07 96.27 385.88 69.59 76.23 69.59"/><polygon class="cls-3" points="80.92 82.93 82.64 88.88 340.62 88.61 342.84 96.27 364.38 96.27 360.68 82.93 80.92 82.93"/><path class="cls-4" d="M456,97.39H27.93a1.12,1.12,0,1,1,0-2.24h425L433.48,35.51,4.26,36.23h0a1.12,1.12,0,0,1,0-2.24l430.84-.72Z"/><polygon class="cls-5" points="79.44 97.4 68.26 97.4 42.29 21.86 53.47 21.86 79.44 97.4"/><polygon class="cls-6" points="63.94 97.4 52.76 97.4 26.79 21.86 37.97 21.86 63.94 97.4"/><polygon class="cls-7" points="48.72 97.4 37.54 97.4 11.56 21.86 22.75 21.86 48.72 97.4"/><path class="cls-8" d="M8.52,35.83a4.26,4.26,0,1,1-4.26-4.26A4.26,4.26,0,0,1,8.52,35.83Z"/><path class="cls-9" d="M329.46,15.85a4.26,4.26,0,1,1-4.26-4.26A4.25,4.25,0,0,1,329.46,15.85Z"/><path class="cls-10" d="M31,96.27A4.26,4.26,0,1,1,26.78,92,4.26,4.26,0,0,1,31,96.27Z"/><path class="cls-11" d="M476.28,99.07a1.67,1.67,0,0,1-1.57-1.1L445.05,17.51H325.2a1.67,1.67,0,0,1,0-3.33H447.38l.4,1.09,30.07,81.55a1.68,1.68,0,0,1-1,2.14A1.7,1.7,0,0,1,476.28,99.07Z"/><path class="cls-12" d="M339.61,4.26A4.26,4.26,0,1,1,335.35,0,4.26,4.26,0,0,1,339.61,4.26Z"/><path class="cls-13" d="M490.7,99.07a1.67,1.67,0,0,1-1.57-1.1l-33.93-92H335.35a1.67,1.67,0,0,1,0-3.34H457.52l.41,1.09,34.33,93.14a1.67,1.67,0,0,1-1,2.14A1.75,1.75,0,0,1,490.7,99.07Z"/><polygon class="cls-14" points="67 163.4 74.96 140.85 389.64 140.85 400.51 110.04 430.82 110.04 412 163.4 67 163.4"/><polygon class="cls-15" points="76.23 136.72 79.83 125.44 365.47 125.44 370.4 110.04 394.07 110.04 385.88 136.72 76.23 136.72"/><polygon class="cls-16" points="80.92 123.38 82.64 117.43 340.62 117.69 342.84 110.04 364.38 110.04 360.68 123.38 80.92 123.38"/><path class="cls-17" d="M435.1,173,4.26,172.32a1.12,1.12,0,1,1,0-2.24h0l429.22.72,19.46-59.64h-425a1.12,1.12,0,0,1,0-2.24H456Z"/><polygon class="cls-18" points="79.44 108.91 68.26 108.91 42.29 184.45 53.47 184.45 79.44 108.91"/><polygon class="cls-19" points="63.94 108.91 52.76 108.91 26.79 184.45 37.97 184.45 63.94 108.91"/><polygon class="cls-20" points="48.72 108.91 37.54 108.91 11.56 184.45 22.75 184.45 48.72 108.91"/><path class="cls-21" d="M8.52,170.48a4.26,4.26,0,1,0-4.26,4.26A4.26,4.26,0,0,0,8.52,170.48Z"/><path class="cls-22" d="M329.46,190.46a4.26,4.26,0,1,0-4.26,4.26A4.26,4.26,0,0,0,329.46,190.46Z"/><path class="cls-23" d="M31,110a4.26,4.26,0,1,0-4.26,4.25A4.25,4.25,0,0,0,31,110Z"/><path class="cls-24" d="M447.38,192.13H325.2a1.67,1.67,0,0,1,0-3.34H445.05l29.66-80.46a1.67,1.67,0,0,1,3.14,1.16Z"/><path class="cls-25" d="M339.61,202.05a4.26,4.26,0,1,0-4.26,4.26A4.26,4.26,0,0,0,339.61,202.05Z"/><path class="cls-26" d="M457.52,203.72H335.35a1.67,1.67,0,0,1,0-3.34H455.2l33.93-92a1.67,1.67,0,1,1,3.13,1.16Z"/></g></g></svg>