<svg xmlns="http://www.w3.org/2000/svg" xmlns:xlink="http://www.w3.org/1999/xlink" viewBox="0 0 492.45 324.52"><defs><style>.cls-1{fill:url(#New_Gradient_Swatch_7);}.cls-2{fill:url(#New_Gradient_Swatch_7-2);}.cls-3{fill:url(#New_Gradient_Swatch_7-3);}</style><linearGradient id="New_Gradient_Swatch_7" x1="21.07" y1="162.26" x2="399.69" y2="162.26" gradientUnits="userSpaceOnUse"><stop offset="0" stop-color="#fcdaff"/><stop offset="1" stop-color="#cf52fe"/></linearGradient><linearGradient id="New_Gradient_Swatch_7-2" x1="135.01" y1="162.29" x2="492.45" y2="162.29" xlink:href="#New_Gradient_Swatch_7"/><linearGradient id="New_Gradient_Swatch_7-3" x1="0" y1="162.27" x2="326.98" y2="162.27" xlink:href="#New_Gradient_Swatch_7"/></defs><title>arrow_04_purple</title><g id="Layer_2" data-name="Layer 2"><g id="Layer_1-2" data-name="Layer 1"><polygon class="cls-1" points="21.07 0 21.64 45.04 150.19 158.43 24.52 275.02 25.15 324.52 399.69 157.53 21.07 0"/><path class="cls-2" d="M138.85,289.12l-.67-44.4,111-85.25L135.63,76.56,135,35.47,492.45,158.6Zm7.08-40.65.45,29.65L469.53,158.85,142.87,46.33l.4,26.28L262,159.32Z"/><path class="cls-3" d="M2,300.65,0,23.89l327,136ZM3.64,29.31,5.58,295.19,317.77,160Z"/></g></g></svg>