<svg xmlns="http://www.w3.org/2000/svg" viewBox="0 0 496.15 156.32"><defs><style>.cls-1{fill:#00d0ff;}</style></defs><title>arrow_01</title><g id="Layer_2" data-name="Layer 2"><g id="Layer_1-2" data-name="Layer 1"><polygon class="cls-1" points="108.82 45.18 0 45.18 119.66 78.16 0 111.14 108.82 111.14 228.48 78.16 108.82 45.18"/><path class="cls-1" d="M242.36,140H27.24L252.88,78.16,27.24,16.27l215.42.09L468,78.16ZM62,135.37H241.73L450.31,78.16,241.73,21H62L270.56,78.16Z"/><polygon class="cls-1" points="246.44 147.57 5.48 147.57 5.48 145.48 246.16 145.48 488.35 78.16 246.16 10.84 5.48 10.84 5.48 8.75 246.44 8.75 246.58 8.79 496.15 78.16 246.44 147.57"/><path class="cls-1" d="M20.67,9.79A9.8,9.8,0,1,1,10.88,0,9.79,9.79,0,0,1,20.67,9.79Z"/><path class="cls-1" d="M20.67,146.52a9.8,9.8,0,1,1-9.79-9.79A9.8,9.8,0,0,1,20.67,146.52Z"/><polygon class="cls-1" points="0 53.73 91.91 78.16 0 99.25 0 53.73"/></g></g></svg>