<svg xmlns="http://www.w3.org/2000/svg" viewBox="0 0 492.37 206.31"><defs><style>.cls-1{fill:#11e5b3;}</style></defs><title>arrow_09_green</title><g id="Layer_2" data-name="Layer 2"><g id="Layer_1-2" data-name="Layer 1"><polygon class="cls-1" points="67 42.91 74.96 65.45 389.64 65.45 400.51 96.27 430.82 96.27 412 42.91 67 42.91"/><polygon class="cls-1" points="76.23 69.59 79.83 80.86 365.47 80.86 370.4 96.27 394.07 96.27 385.88 69.59 76.23 69.59"/><polygon class="cls-1" points="80.92 82.93 82.64 88.88 340.62 88.61 342.84 96.27 364.38 96.27 360.68 82.93 80.92 82.93"/><path class="cls-1" d="M456,97.39H27.93a1.12,1.12,0,1,1,0-2.24h425L433.48,35.51,4.26,36.23h0a1.12,1.12,0,0,1,0-2.24l430.84-.72Z"/><polygon class="cls-1" points="79.44 97.4 68.26 97.4 42.29 21.86 53.47 21.86 79.44 97.4"/><polygon class="cls-1" points="63.94 97.4 52.76 97.4 26.79 21.86 37.97 21.86 63.94 97.4"/><polygon class="cls-1" points="48.72 97.4 37.54 97.4 11.56 21.86 22.75 21.86 48.72 97.4"/><path class="cls-1" d="M8.52,35.83a4.26,4.26,0,1,1-4.26-4.26A4.26,4.26,0,0,1,8.52,35.83Z"/><path class="cls-1" d="M329.46,15.85a4.26,4.26,0,1,1-4.26-4.26A4.25,4.25,0,0,1,329.46,15.85Z"/><path class="cls-1" d="M31,96.27A4.26,4.26,0,1,1,26.78,92,4.26,4.26,0,0,1,31,96.27Z"/><path class="cls-1" d="M476.28,99.07a1.67,1.67,0,0,1-1.57-1.1L445.05,17.51H325.2a1.67,1.67,0,0,1,0-3.33H447.38l.4,1.09,30.07,81.55a1.68,1.68,0,0,1-1,2.14A1.7,1.7,0,0,1,476.28,99.07Z"/><path class="cls-1" d="M339.61,4.26A4.26,4.26,0,1,1,335.35,0,4.26,4.26,0,0,1,339.61,4.26Z"/><path class="cls-1" d="M490.7,99.07a1.67,1.67,0,0,1-1.57-1.1l-33.93-92H335.35a1.67,1.67,0,0,1,0-3.34H457.52l.41,1.09,34.33,93.14a1.67,1.67,0,0,1-1,2.14A1.75,1.75,0,0,1,490.7,99.07Z"/><polygon class="cls-1" points="67 163.4 74.96 140.85 389.64 140.85 400.51 110.04 430.82 110.04 412 163.4 67 163.4"/><polygon class="cls-1" points="76.23 136.72 79.83 125.44 365.47 125.44 370.4 110.04 394.07 110.04 385.88 136.72 76.23 136.72"/><polygon class="cls-1" points="80.92 123.38 82.64 117.43 340.62 117.69 342.84 110.04 364.38 110.04 360.68 123.38 80.92 123.38"/><path class="cls-1" d="M435.1,173,4.26,172.32a1.12,1.12,0,1,1,0-2.24h0l429.22.72,19.46-59.64h-425a1.12,1.12,0,0,1,0-2.24H456Z"/><polygon class="cls-1" points="79.44 108.91 68.26 108.91 42.29 184.45 53.47 184.45 79.44 108.91"/><polygon class="cls-1" points="63.94 108.91 52.76 108.91 26.79 184.45 37.97 184.45 63.94 108.91"/><polygon class="cls-1" points="48.72 108.91 37.54 108.91 11.56 184.45 22.75 184.45 48.72 108.91"/><path class="cls-1" d="M8.52,170.48a4.26,4.26,0,1,0-4.26,4.26A4.26,4.26,0,0,0,8.52,170.48Z"/><path class="cls-1" d="M329.46,190.46a4.26,4.26,0,1,0-4.26,4.26A4.26,4.26,0,0,0,329.46,190.46Z"/><path class="cls-1" d="M31,110a4.26,4.26,0,1,0-4.26,4.25A4.25,4.25,0,0,0,31,110Z"/><path class="cls-1" d="M447.38,192.13H325.2a1.67,1.67,0,0,1,0-3.34H445.05l29.66-80.46a1.67,1.67,0,0,1,3.14,1.16Z"/><path class="cls-1" d="M339.61,202.05a4.26,4.26,0,1,0-4.26,4.26A4.26,4.26,0,0,0,339.61,202.05Z"/><path class="cls-1" d="M457.52,203.72H335.35a1.67,1.67,0,0,1,0-3.34H455.2l33.93-92a1.67,1.67,0,1,1,3.13,1.16Z"/></g></g></svg>