<svg xmlns="http://www.w3.org/2000/svg" viewBox="0 0 487.44 287.51"><defs><style>.cls-1{fill:#00d0ff;}</style></defs><title>arrow_03</title><g id="Layer_2" data-name="Layer 2"><g id="Layer_1-2" data-name="Layer 1"><path class="cls-1" d="M43.6,262.4V22L483.78,142.2ZM51.44,29.51V254.88L464.08,142.2Z"/><polygon class="cls-1" points="487.44 140.81 292.83 194.96 292.83 86.67 487.44 140.81"/><polygon class="cls-1" points="183.84 196.49 332.09 142.57 183.84 88.67 183.84 196.49"/><polygon class="cls-1" points="162.97 194.73 311.21 140.81 162.97 86.9 162.97 194.73"/><path class="cls-1" d="M154.9,220.1V67.61L362.3,143l-1.9.7Zm2.57-149.69V217.27L357.2,143Z"/><polygon class="cls-1" points="140.78 73.01 61.15 44.05 61.15 241.1 140.78 212.15 140.78 73.01"/><polygon class="cls-1" points="20.05 287.51 20.09 284.51 23.6 0 259.15 61.93 256.78 65.5 29.67 5.79 26.27 281.55 256.73 217.56 259.21 221.1 20.05 287.51"/><ellipse class="cls-1" cx="257.97" cy="63.04" rx="15.61" ry="9.83"/><path class="cls-1" d="M273.58,220.79c0,5.43-7,9.83-15.61,9.83s-15.61-4.4-15.61-9.83,7-9.83,15.61-9.83S273.58,215.36,273.58,220.79Z"/><polygon class="cls-1" points="26.06 228.98 0 234.96 0 220.5 26.06 214.52 26.06 228.98"/><polygon class="cls-1" points="26.06 210.63 0 216.6 0 202.14 26.06 196.16 26.06 210.63"/><polygon class="cls-1" points="26.06 192.27 0 198.25 0 183.78 26.06 177.81 26.06 192.27"/><polygon class="cls-1" points="26.06 173.91 0 179.89 0 165.43 26.06 159.45 26.06 173.91"/><polygon class="cls-1" points="26.06 155.56 0 161.53 0 147.07 26.06 141.1 26.06 155.56"/><polygon class="cls-1" points="26.06 138.08 0 144.06 0 129.59 26.06 123.62 26.06 138.08"/><polygon class="cls-1" points="26.06 119.72 0 125.7 0 111.24 26.06 105.26 26.06 119.72"/><polygon class="cls-1" points="26.06 101.37 0 107.34 0 92.88 26.06 86.9 26.06 101.37"/><polygon class="cls-1" points="26.06 83.01 0 88.99 0 74.52 26.06 68.55 26.06 83.01"/><polygon class="cls-1" points="26.06 64.66 0 70.63 0 56.17 26.06 50.19 26.06 64.66"/></g></g></svg>