<svg xmlns="http://www.w3.org/2000/svg" xmlns:xlink="http://www.w3.org/1999/xlink" viewBox="0 0 490.41 152.33"><defs><style>.cls-1{fill:url(#New_Gradient_Swatch_5);}.cls-2{opacity:0.22;}.cls-3{fill:url(#New_Gradient_Swatch_5-2);}.cls-4{fill:url(#New_Gradient_Swatch_5-3);}.cls-5{fill:url(#New_Gradient_Swatch_5-4);}.cls-6{fill:url(#New_Gradient_Swatch_5-5);}.cls-7{fill:url(#New_Gradient_Swatch_5-6);}.cls-8{fill:url(#New_Gradient_Swatch_5-7);}.cls-9{fill:url(#New_Gradient_Swatch_5-8);}.cls-10{fill:url(#New_Gradient_Swatch_5-9);}.cls-11{fill:url(#New_Gradient_Swatch_5-10);}.cls-12{fill:url(#New_Gradient_Swatch_5-11);}.cls-13{fill:url(#New_Gradient_Swatch_5-12);}.cls-14{fill:url(#New_Gradient_Swatch_5-13);}.cls-15{fill:url(#New_Gradient_Swatch_5-14);}.cls-16{fill:url(#New_Gradient_Swatch_5-15);}.cls-17{fill:url(#New_Gradient_Swatch_5-16);}.cls-18{fill:url(#New_Gradient_Swatch_5-17);}.cls-19{fill:url(#New_Gradient_Swatch_5-18);}.cls-20{fill:url(#New_Gradient_Swatch_5-19);}.cls-21{fill:url(#New_Gradient_Swatch_5-20);}.cls-22{fill:url(#New_Gradient_Swatch_5-21);}.cls-23{fill:url(#New_Gradient_Swatch_5-22);}.cls-24{fill:url(#New_Gradient_Swatch_5-23);}.cls-25{fill:url(#New_Gradient_Swatch_5-24);}.cls-26{fill:url(#New_Gradient_Swatch_5-25);}.cls-27{fill:url(#New_Gradient_Swatch_5-26);}.cls-28{fill:url(#New_Gradient_Swatch_5-27);}.cls-29{fill:url(#New_Gradient_Swatch_5-28);}.cls-30{fill:url(#New_Gradient_Swatch_5-29);}.cls-31{fill:url(#New_Gradient_Swatch_5-30);}.cls-32{fill:url(#New_Gradient_Swatch_5-31);}.cls-33{fill:url(#New_Gradient_Swatch_5-32);}.cls-34{fill:url(#New_Gradient_Swatch_5-33);}.cls-35{fill:url(#New_Gradient_Swatch_5-34);}.cls-36{fill:url(#New_Gradient_Swatch_5-35);}.cls-37{fill:url(#New_Gradient_Swatch_5-36);}.cls-38{fill:url(#New_Gradient_Swatch_5-37);}.cls-39{fill:url(#New_Gradient_Swatch_5-38);}.cls-40{fill:url(#New_Gradient_Swatch_5-39);}.cls-41{fill:url(#New_Gradient_Swatch_5-40);}.cls-42{fill:url(#New_Gradient_Swatch_5-41);}.cls-43{fill:url(#New_Gradient_Swatch_5-42);}.cls-44{fill:url(#New_Gradient_Swatch_5-43);}.cls-45{fill:url(#New_Gradient_Swatch_5-44);}.cls-46{fill:url(#New_Gradient_Swatch_5-45);}.cls-47{fill:url(#New_Gradient_Swatch_5-46);}.cls-48{fill:url(#New_Gradient_Swatch_5-47);}.cls-49{fill:url(#New_Gradient_Swatch_5-48);}.cls-50{fill:url(#New_Gradient_Swatch_5-49);}.cls-51{fill:url(#New_Gradient_Swatch_5-50);}.cls-52{fill:url(#New_Gradient_Swatch_5-51);}.cls-53{fill:url(#New_Gradient_Swatch_5-52);}.cls-54{fill:url(#New_Gradient_Swatch_5-53);}.cls-55{fill:url(#New_Gradient_Swatch_5-54);}.cls-56{fill:url(#New_Gradient_Swatch_5-55);}</style><linearGradient id="New_Gradient_Swatch_5" x1="2.82" y1="38.23" x2="384.19" y2="38.23" gradientUnits="userSpaceOnUse"><stop offset="0" stop-color="#11e5b3"/><stop offset="0.14" stop-color="#15dcb8"/><stop offset="0.36" stop-color="#21c4c6"/><stop offset="0.64" stop-color="#359edc"/><stop offset="0.97" stop-color="#4f68fb"/><stop offset="1" stop-color="#5263fe"/></linearGradient><linearGradient id="New_Gradient_Swatch_5-2" x1="3.13" y1="46.43" x2="377.45" y2="46.43" xlink:href="#New_Gradient_Swatch_5"/><linearGradient id="New_Gradient_Swatch_5-3" x1="196.73" y1="3.15" x2="202.99" y2="3.15" xlink:href="#New_Gradient_Swatch_5"/><linearGradient id="New_Gradient_Swatch_5-4" x1="374.32" y1="72.27" x2="380.58" y2="72.27" xlink:href="#New_Gradient_Swatch_5"/><linearGradient id="New_Gradient_Swatch_5-5" x1="177.44" y1="3.15" x2="183.7" y2="3.15" xlink:href="#New_Gradient_Swatch_5"/><linearGradient id="New_Gradient_Swatch_5-6" x1="158.16" y1="3.15" x2="164.42" y2="3.15" xlink:href="#New_Gradient_Swatch_5"/><linearGradient id="New_Gradient_Swatch_5-7" x1="138.88" y1="3.15" x2="145.14" y2="3.15" xlink:href="#New_Gradient_Swatch_5"/><linearGradient id="New_Gradient_Swatch_5-8" x1="119.6" y1="3.15" x2="125.86" y2="3.15" xlink:href="#New_Gradient_Swatch_5"/><linearGradient id="New_Gradient_Swatch_5-9" x1="100.31" y1="3.14" x2="106.59" y2="3.14" xlink:href="#New_Gradient_Swatch_5"/><linearGradient id="New_Gradient_Swatch_5-10" x1="81" y1="3.14" x2="87.28" y2="3.14" xlink:href="#New_Gradient_Swatch_5"/><linearGradient id="New_Gradient_Swatch_5-11" x1="61.75" y1="3.15" x2="68.01" y2="3.15" xlink:href="#New_Gradient_Swatch_5"/><linearGradient id="New_Gradient_Swatch_5-12" x1="42.47" y1="3.15" x2="48.73" y2="3.15" xlink:href="#New_Gradient_Swatch_5"/><linearGradient id="New_Gradient_Swatch_5-13" x1="23.19" y1="3.15" x2="29.45" y2="3.15" xlink:href="#New_Gradient_Swatch_5"/><linearGradient id="New_Gradient_Swatch_5-14" x1="0" y1="26.85" x2="6.26" y2="26.85" xlink:href="#New_Gradient_Swatch_5"/><linearGradient id="New_Gradient_Swatch_5-15" x1="3" y1="65.57" x2="191" y2="65.57" xlink:href="#New_Gradient_Swatch_5"/><linearGradient id="New_Gradient_Swatch_5-16" x1="359.34" y1="10.08" x2="388.29" y2="10.08" xlink:href="#New_Gradient_Swatch_5"/><linearGradient id="New_Gradient_Swatch_5-17" x1="154.72" y1="75.34" x2="253.77" y2="75.34" xlink:href="#New_Gradient_Swatch_5"/><linearGradient id="New_Gradient_Swatch_5-18" x1="202.55" y1="107.49" x2="481.6" y2="107.49" xlink:href="#New_Gradient_Swatch_5"/><linearGradient id="New_Gradient_Swatch_5-19" x1="483.05" y1="113.31" x2="490.41" y2="113.31" xlink:href="#New_Gradient_Swatch_5"/><linearGradient id="New_Gradient_Swatch_5-20" x1="203" y1="98.29" x2="216.03" y2="98.29" xlink:href="#New_Gradient_Swatch_5"/><linearGradient id="New_Gradient_Swatch_5-21" x1="238.53" y1="133.52" x2="275.56" y2="133.52" xlink:href="#New_Gradient_Swatch_5"/><linearGradient id="New_Gradient_Swatch_5-22" x1="257.05" y1="50.18" x2="264.44" y2="50.18" xlink:href="#New_Gradient_Swatch_5"/><linearGradient id="New_Gradient_Swatch_5-23" x1="269.96" y1="49.44" x2="277.36" y2="49.44" xlink:href="#New_Gradient_Swatch_5"/><linearGradient id="New_Gradient_Swatch_5-24" x1="282.88" y1="65.7" x2="290.28" y2="65.7" xlink:href="#New_Gradient_Swatch_5"/><linearGradient id="New_Gradient_Swatch_5-25" x1="295.79" y1="54" x2="303.19" y2="54" xlink:href="#New_Gradient_Swatch_5"/><linearGradient id="New_Gradient_Swatch_5-26" x1="308.7" y1="60" x2="316.1" y2="60" xlink:href="#New_Gradient_Swatch_5"/><linearGradient id="New_Gradient_Swatch_5-27" x1="321.62" y1="48.78" x2="329.02" y2="48.78" xlink:href="#New_Gradient_Swatch_5"/><linearGradient id="New_Gradient_Swatch_5-28" x1="334.53" y1="50.25" x2="341.93" y2="50.25" xlink:href="#New_Gradient_Swatch_5"/><linearGradient id="New_Gradient_Swatch_5-29" x1="347.45" y1="60.62" x2="354.85" y2="60.62" xlink:href="#New_Gradient_Swatch_5"/><linearGradient id="New_Gradient_Swatch_5-30" x1="360.36" y1="64.6" x2="367.75" y2="64.6" xlink:href="#New_Gradient_Swatch_5"/><linearGradient id="New_Gradient_Swatch_5-31" x1="248.43" y1="124.28" x2="353.6" y2="124.28" xlink:href="#New_Gradient_Swatch_5"/><linearGradient id="New_Gradient_Swatch_5-32" x1="365.42" y1="107.33" x2="422.74" y2="107.33" xlink:href="#New_Gradient_Swatch_5"/><linearGradient id="New_Gradient_Swatch_5-33" x1="310.18" y1="129.99" x2="443.95" y2="129.99" xlink:href="#New_Gradient_Swatch_5"/><linearGradient id="New_Gradient_Swatch_5-34" x1="354.59" y1="119.2" x2="367.14" y2="119.2" xlink:href="#New_Gradient_Swatch_5"/><linearGradient id="New_Gradient_Swatch_5-35" x1="364.18" y1="119.19" x2="376.67" y2="119.19" xlink:href="#New_Gradient_Swatch_5"/><linearGradient id="New_Gradient_Swatch_5-36" x1="373.76" y1="119.19" x2="386.25" y2="119.19" xlink:href="#New_Gradient_Swatch_5"/><linearGradient id="New_Gradient_Swatch_5-37" x1="383.34" y1="119.19" x2="395.83" y2="119.19" xlink:href="#New_Gradient_Swatch_5"/><linearGradient id="New_Gradient_Swatch_5-38" x1="392.92" y1="119.19" x2="405.41" y2="119.19" xlink:href="#New_Gradient_Swatch_5"/><linearGradient id="New_Gradient_Swatch_5-39" x1="402.5" y1="119.19" x2="414.99" y2="119.19" xlink:href="#New_Gradient_Swatch_5"/><linearGradient id="New_Gradient_Swatch_5-40" x1="412.08" y1="119.19" x2="424.58" y2="119.19" xlink:href="#New_Gradient_Swatch_5"/><linearGradient id="New_Gradient_Swatch_5-41" x1="421.66" y1="119.19" x2="434.14" y2="119.19" xlink:href="#New_Gradient_Swatch_5"/><linearGradient id="New_Gradient_Swatch_5-42" x1="431.25" y1="119.19" x2="443.74" y2="119.19" xlink:href="#New_Gradient_Swatch_5"/><linearGradient id="New_Gradient_Swatch_5-43" x1="285.64" y1="121.16" x2="445.69" y2="121.16" xlink:href="#New_Gradient_Swatch_5"/><linearGradient id="New_Gradient_Swatch_5-44" x1="376.17" y1="118.32" x2="449.53" y2="118.32" xlink:href="#New_Gradient_Swatch_5"/><linearGradient id="New_Gradient_Swatch_5-45" x1="260.16" y1="131.54" x2="297.57" y2="131.54" xlink:href="#New_Gradient_Swatch_5"/><linearGradient id="New_Gradient_Swatch_5-46" x1="244.35" y1="122.78" x2="277.16" y2="122.78" xlink:href="#New_Gradient_Swatch_5"/><linearGradient id="New_Gradient_Swatch_5-47" x1="276.47" y1="114.02" x2="348.72" y2="114.02" xlink:href="#New_Gradient_Swatch_5"/><linearGradient id="New_Gradient_Swatch_5-48" x1="261.45" y1="113.33" x2="431.04" y2="113.33" xlink:href="#New_Gradient_Swatch_5"/><linearGradient id="New_Gradient_Swatch_5-49" x1="42.08" y1="131.14" x2="241.49" y2="131.14" xlink:href="#New_Gradient_Swatch_5"/><linearGradient id="New_Gradient_Swatch_5-50" x1="34.38" y1="107.62" x2="41.74" y2="107.62" xlink:href="#New_Gradient_Swatch_5"/><linearGradient id="New_Gradient_Swatch_5-51" x1="68.73" y1="144.09" x2="118.83" y2="144.09" xlink:href="#New_Gradient_Swatch_5"/><linearGradient id="New_Gradient_Swatch_5-52" x1="84.3" y1="151.05" x2="150.31" y2="151.05" xlink:href="#New_Gradient_Swatch_5"/><linearGradient id="New_Gradient_Swatch_5-53" x1="114.98" y1="135.79" x2="131.93" y2="135.79" xlink:href="#New_Gradient_Swatch_5"/><linearGradient id="New_Gradient_Swatch_5-54" x1="132.83" y1="135.79" x2="149.79" y2="135.79" xlink:href="#New_Gradient_Swatch_5"/><linearGradient id="New_Gradient_Swatch_5-55" x1="150.69" y1="136.68" x2="181.95" y2="136.68" xlink:href="#New_Gradient_Swatch_5"/></defs><title>bestseller_input_green_blue</title><g id="Layer_2" data-name="Layer 2"><g id="Layer_1-2" data-name="Layer 1"><g id="Layer_2-2" data-name="Layer 2"><g id="Layer_1-2-2" data-name="Layer 1-2"><polygon class="cls-1" points="377.42 72.58 376.8 71.96 383.31 65.44 383.31 15.44 372.64 4.77 215.17 4.77 208.18 11.76 18.47 11.76 3.44 26.79 2.82 26.17 18.11 10.88 207.81 10.88 214.8 3.89 373.01 3.89 384.19 15.07 384.19 65.81 377.42 72.58"/><g class="cls-2"><path class="cls-3" d="M3.13,39.14,20.39,21.88h195l6.27-6.27h148l7.79,7.79V62.54L362.74,77.25H265l-7.57-7.57H62.81s-5.16-6.88-6.88-6.88H3.13Z"/></g><circle class="cls-4" cx="199.86" cy="3.15" r="3.13"/><path class="cls-5" d="M374.32,72.27a3.13,3.13,0,1,1,3.13,3.13A3.13,3.13,0,0,1,374.32,72.27Z"/><circle class="cls-6" cx="180.57" cy="3.15" r="3.13"/><circle class="cls-7" cx="161.29" cy="3.15" r="3.13"/><circle class="cls-8" cx="142.01" cy="3.15" r="3.13"/><circle class="cls-9" cx="122.73" cy="3.15" r="3.13"/><path class="cls-10" d="M100.31,3.15a3.14,3.14,0,1,1,3.15,3.13h0A3.14,3.14,0,0,1,100.31,3.15Z"/><path class="cls-11" d="M81,3.15a3.14,3.14,0,1,1,3.15,3.13h0A3.13,3.13,0,0,1,81,3.15Z"/><circle class="cls-12" cx="64.88" cy="3.15" r="3.13"/><circle class="cls-13" cx="45.6" cy="3.15" r="3.13"/><circle class="cls-14" cx="26.32" cy="3.15" r="3.13"/><circle class="cls-15" cx="3.13" cy="26.85" r="3.13"/><path class="cls-16" d="M3.13,58.12H56.52l4,4h8.94l6.29,6.3h114L191,69.64H151.53L148.16,73H77.4l-3.22-3.21H62.85L56,62.92s-53,.23-53,0S3.13,58.12,3.13,58.12Z"/><polygon class="cls-17" points="388.29 19.52 387.4 19.52 387.4 13.52 375.41 1.52 359.34 1.52 359.34 0.64 375.77 0.64 388.29 13.15 388.29 19.52"/><rect class="cls-18" x="154.72" y="74.9" width="99.05" height="0.88"/><polygon class="cls-19" points="466.61 134.94 242.4 134.94 242.27 134.81 202.55 95.1 202.55 80.05 203.43 80.05 203.43 94.73 242.76 134.06 466.24 134.06 480.98 119.33 481.6 119.95 466.61 134.94"/><path class="cls-20" d="M483.05,113.31a3.68,3.68,0,1,1,3.68,3.68h0A3.68,3.68,0,0,1,483.05,113.31Z"/><path class="cls-21" d="M203,88.73l1.71,1.71v4.25L216,106a14.9,14.9,0,0,1,0,1.89l-13-13Z"/><path class="cls-22" d="M238.53,130.45v2.14l4,4h30.72s2.65-2.65,2.27-2.26-32.95,0-32.95,0Z"/><path class="cls-23" d="M264.44,33.18v34c-2.69-2.66-5.59-5.53-7.39-7.36V33.18Z"/><rect class="cls-24" x="269.96" y="25.3" width="7.4" height="48.27"/><rect class="cls-25" x="282.88" y="57.83" width="7.4" height="15.75"/><rect class="cls-26" x="295.79" y="34.43" width="7.4" height="39.15"/><rect class="cls-27" x="308.7" y="46.43" width="7.4" height="27.15"/><rect class="cls-28" x="321.62" y="23.98" width="7.4" height="49.6"/><rect class="cls-29" x="334.53" y="26.92" width="7.4" height="46.65"/><rect class="cls-30" x="347.45" y="47.67" width="7.4" height="25.9"/><polygon class="cls-31" points="367.75 55.62 367.75 66.32 360.49 73.57 360.36 73.57 360.36 55.62 367.75 55.62"/><polygon class="cls-32" points="349.14 120.24 253.88 120.24 248.43 123.24 248.43 126.93 278.75 126.93 279.94 128.32 351.26 128.32 353.6 126.93 349.14 120.24"/><polygon class="cls-33" points="420.96 105.35 367.19 105.35 365.42 109.3 422.74 109.3 420.96 105.35"/><path class="cls-34" d="M443.74,130.2H310.39a.23.23,0,0,1-.21-.21.21.21,0,0,1,.21-.21H443.74a.21.21,0,0,1,.21.21A.23.23,0,0,1,443.74,130.2Z"/><path class="cls-35" d="M361.18,124.37h-6.45c-.13,0-.17-.1-.11-.23l5.52-9.89a.49.49,0,0,1,.36-.23H367c.13,0,.18.11.11.23l-5.52,9.89A.45.45,0,0,1,361.18,124.37Z"/><path class="cls-36" d="M370.76,124.37h-6.45c-.12,0-.17-.1-.1-.23l5.51-9.89a.49.49,0,0,1,.36-.23h6.45c.13,0,.18.11.11.23l-5.51,9.89A.48.48,0,0,1,370.76,124.37Z"/><path class="cls-37" d="M380.35,124.37H373.9c-.13,0-.18-.1-.11-.23l5.51-9.89a.49.49,0,0,1,.36-.23h6.45c.13,0,.18.11.11.23l-5.51,9.89A.46.46,0,0,1,380.35,124.37Z"/><path class="cls-38" d="M389.93,124.37h-6.45c-.13,0-.18-.1-.11-.23l5.51-9.89a.49.49,0,0,1,.36-.23h6.45c.13,0,.18.11.11.23l-5.51,9.89A.45.45,0,0,1,389.93,124.37Z"/><path class="cls-39" d="M399.51,124.37h-6.45c-.13,0-.18-.1-.11-.23l5.51-9.89a.49.49,0,0,1,.36-.23h6.45c.13,0,.18.11.11.23l-5.51,9.89A.45.45,0,0,1,399.51,124.37Z"/><path class="cls-40" d="M409.09,124.37h-6.45c-.13,0-.18-.1-.11-.23l5.51-9.89a.51.51,0,0,1,.37-.23h6.45c.12,0,.17.11.1.23l-5.51,9.89A.45.45,0,0,1,409.09,124.37Z"/><g class="cls-2"><path class="cls-41" d="M418.67,124.37h-6.45c-.13,0-.18-.1-.11-.23l5.52-9.89A.48.48,0,0,1,418,114h6.45c.13,0,.17.11.1.23L419,124.14A.46.46,0,0,1,418.67,124.37Z"/></g><g class="cls-2"><path class="cls-42" d="M428.25,124.37H421.8c-.13,0-.17-.1-.11-.23l5.52-9.89a.49.49,0,0,1,.36-.23H434c.13,0,.18.11.11.23l-5.52,9.89A.46.46,0,0,1,428.25,124.37Z"/></g><g class="cls-2"><path class="cls-43" d="M437.83,124.37h-6.45c-.12,0-.17-.1-.1-.23l5.51-9.89a.49.49,0,0,1,.36-.23h6.45c.13,0,.18.11.11.23l-5.52,9.89A.45.45,0,0,1,437.83,124.37Z"/></g><path class="cls-44" d="M439.78,127.45H286.06a.42.42,0,0,1-.42-.42h0a.41.41,0,0,1,.41-.41H439.26l5.64-11.52a.42.42,0,1,1,.75.37Z"/><path class="cls-45" d="M443.32,124.78a.54.54,0,0,1-.18,0,.42.42,0,0,1-.2-.56h0l5.29-11.53H376.59a.42.42,0,0,1-.42-.42h0a.41.41,0,0,1,.41-.41h72.95l-5.83,12.71A.44.44,0,0,1,443.32,124.78Z"/><path class="cls-46" d="M297.36,131.74h-37a.2.2,0,0,1-.2-.2h0a.2.2,0,0,1,.19-.21h37a.21.21,0,0,1,.21.21.2.2,0,0,1-.2.2Z"/><path class="cls-47" d="M260.35,132.16h-16V121.63l12.26-8.23h20a.63.63,0,0,1,.55.7.64.64,0,0,1-.55.55H257l-11.39,7.65v8.61h14.71a.63.63,0,0,1,.16,1.25h-.13Z"/><path class="cls-48" d="M348.51,114.23H276.68a.21.21,0,0,1-.21-.21.2.2,0,0,1,.2-.2h71.84a.2.2,0,0,1,.21.19h0A.21.21,0,0,1,348.51,114.23Z"/><path class="cls-49" d="M353.36,118H262a.63.63,0,0,1-.55-.7.64.64,0,0,1,.55-.55h90.63l5-8h72.86a.63.63,0,0,1,.55.7.64.64,0,0,1-.55.55h-72.1Z"/><polygon class="cls-50" points="229.37 150.51 79.89 150.51 42.08 112.69 43.01 111.76 80.44 149.18 228.82 149.18 240.55 137.45 241.49 138.39 229.37 150.51"/><path class="cls-51" d="M34.38,107.62a3.68,3.68,0,1,1,3.68,3.68,3.68,3.68,0,0,1-3.68-3.68Z"/><path class="cls-52" d="M68.73,138.41h4.58s8.4,8.7,8.7,8.7h34.15l2.67,2.67H80.16Z"/><path class="cls-53" d="M84.3,149.78s2.38,2,2.38,2.38,61.35,0,61.35,0,2.54-2.27,2.26-2.27H85.68Z"/></g></g><path class="cls-54" d="M131.93,129.66V134l-2.18,2.2,2.18,1.17v4.57H120.18v-3.36h8.42v-1.21h-9.86v4.57H115V134H128.6V133H118.29L115,129.66Z"/><path class="cls-55" d="M145.9,137.35h-9.76v1.21h12.24v3.36H136.14l-3.31-3.36v-8.9l3.31,3.37V134H148.4Zm3.89-7.69L146.46,133H136.14v-3.37Z"/><path class="cls-56" d="M150.69,137.4v-7.68l3.33,3.36v1h13.62V142H150.69l3.33-3.35h10.31V137.4ZM182,129.72l-3.31,3.36H154v-3.36Zm-7.36,13.93-3.83-3.37v-7.2l3.83,2.25Z"/></g></g></svg>