<svg xmlns="http://www.w3.org/2000/svg" viewBox="0 0 490.41 152.33"><defs><style>.cls-1{fill:#00d0ff;}.cls-2{opacity:0.22;}</style></defs><title>bestseller_input_blue_2</title><g id="Layer_2" data-name="Layer 2"><g id="Layer_1-2" data-name="Layer 1"><g id="Layer_2-2" data-name="Layer 2"><g id="Layer_1-2-2" data-name="Layer 1-2"><polygon class="cls-1" points="377.42 72.58 376.8 71.96 383.31 65.44 383.31 15.44 372.64 4.77 215.17 4.77 208.18 11.76 18.47 11.76 3.44 26.79 2.82 26.17 18.11 10.88 207.81 10.88 214.8 3.89 373.01 3.89 384.19 15.07 384.19 65.81 377.42 72.58"/><g class="cls-2"><path class="cls-1" d="M3.13,39.14,20.39,21.88h195l6.27-6.27h148l7.79,7.79V62.54L362.74,77.25H265l-7.57-7.57H62.81s-5.16-6.88-6.88-6.88H3.13Z"/></g><circle class="cls-1" cx="199.86" cy="3.15" r="3.13"/><path class="cls-1" d="M374.32,72.27a3.13,3.13,0,1,1,3.13,3.13A3.13,3.13,0,0,1,374.32,72.27Z"/><circle class="cls-1" cx="180.57" cy="3.15" r="3.13"/><circle class="cls-1" cx="161.29" cy="3.15" r="3.13"/><circle class="cls-1" cx="142.01" cy="3.15" r="3.13"/><circle class="cls-1" cx="122.73" cy="3.15" r="3.13"/><path class="cls-1" d="M100.31,3.15a3.14,3.14,0,1,1,3.15,3.13h0A3.14,3.14,0,0,1,100.31,3.15Z"/><path class="cls-1" d="M81,3.15a3.14,3.14,0,1,1,3.15,3.13h0A3.13,3.13,0,0,1,81,3.15Z"/><circle class="cls-1" cx="64.88" cy="3.15" r="3.13"/><circle class="cls-1" cx="45.6" cy="3.15" r="3.13"/><circle class="cls-1" cx="26.32" cy="3.15" r="3.13"/><circle class="cls-1" cx="3.13" cy="26.85" r="3.13"/><path class="cls-1" d="M3.13,58.12H56.52l4,4h8.94l6.29,6.3h114L191,69.64H151.53L148.16,73H77.4l-3.22-3.21H62.85L56,62.92s-53,.23-53,0S3.13,58.12,3.13,58.12Z"/><polygon class="cls-1" points="388.29 19.52 387.4 19.52 387.4 13.52 375.41 1.52 359.34 1.52 359.34 0.64 375.77 0.64 388.29 13.15 388.29 19.52"/><rect class="cls-1" x="154.72" y="74.9" width="99.05" height="0.88"/><polygon class="cls-1" points="466.61 134.94 242.4 134.94 242.27 134.81 202.55 95.1 202.55 80.05 203.43 80.05 203.43 94.73 242.76 134.06 466.24 134.06 480.98 119.33 481.6 119.95 466.61 134.94"/><path class="cls-1" d="M483.05,113.31a3.68,3.68,0,1,1,3.68,3.68h0A3.68,3.68,0,0,1,483.05,113.31Z"/><path class="cls-1" d="M203,88.73l1.71,1.71v4.25L216,106a14.9,14.9,0,0,1,0,1.89l-13-13Z"/><path class="cls-1" d="M238.53,130.45v2.14l4,4h30.72s2.65-2.65,2.27-2.26-32.95,0-32.95,0Z"/><path class="cls-1" d="M264.44,33.18v34c-2.69-2.66-5.59-5.53-7.39-7.36V33.18Z"/><rect class="cls-1" x="269.96" y="25.3" width="7.4" height="48.27"/><rect class="cls-1" x="282.88" y="57.83" width="7.4" height="15.75"/><rect class="cls-1" x="295.79" y="34.43" width="7.4" height="39.15"/><rect class="cls-1" x="308.7" y="46.43" width="7.4" height="27.15"/><rect class="cls-1" x="321.62" y="23.98" width="7.4" height="49.6"/><rect class="cls-1" x="334.53" y="26.92" width="7.4" height="46.65"/><rect class="cls-1" x="347.45" y="47.67" width="7.4" height="25.9"/><polygon class="cls-1" points="367.75 55.62 367.75 66.32 360.49 73.57 360.36 73.57 360.36 55.62 367.75 55.62"/><polygon class="cls-1" points="349.14 120.24 253.88 120.24 248.43 123.24 248.43 126.93 278.75 126.93 279.94 128.32 351.26 128.32 353.6 126.93 349.14 120.24"/><polygon class="cls-1" points="420.96 105.35 367.19 105.35 365.42 109.3 422.74 109.3 420.96 105.35"/><path class="cls-1" d="M443.74,130.2H310.39a.23.23,0,0,1-.21-.21.21.21,0,0,1,.21-.21H443.74a.21.21,0,0,1,.21.21A.23.23,0,0,1,443.74,130.2Z"/><path class="cls-1" d="M361.18,124.37h-6.45c-.13,0-.17-.1-.11-.23l5.52-9.89a.49.49,0,0,1,.36-.23H367c.13,0,.18.11.11.23l-5.52,9.89A.45.45,0,0,1,361.18,124.37Z"/><path class="cls-1" d="M370.76,124.37h-6.45c-.12,0-.17-.1-.1-.23l5.51-9.89a.49.49,0,0,1,.36-.23h6.45c.13,0,.18.11.11.23l-5.51,9.89A.48.48,0,0,1,370.76,124.37Z"/><path class="cls-1" d="M380.35,124.37H373.9c-.13,0-.18-.1-.11-.23l5.51-9.89a.49.49,0,0,1,.36-.23h6.45c.13,0,.18.11.11.23l-5.51,9.89A.46.46,0,0,1,380.35,124.37Z"/><path class="cls-1" d="M389.93,124.37h-6.45c-.13,0-.18-.1-.11-.23l5.51-9.89a.49.49,0,0,1,.36-.23h6.45c.13,0,.18.11.11.23l-5.51,9.89A.45.45,0,0,1,389.93,124.37Z"/><path class="cls-1" d="M399.51,124.37h-6.45c-.13,0-.18-.1-.11-.23l5.51-9.89a.49.49,0,0,1,.36-.23h6.45c.13,0,.18.11.11.23l-5.51,9.89A.45.45,0,0,1,399.51,124.37Z"/><path class="cls-1" d="M409.09,124.37h-6.45c-.13,0-.18-.1-.11-.23l5.51-9.89a.51.51,0,0,1,.37-.23h6.45c.12,0,.17.11.1.23l-5.51,9.89A.45.45,0,0,1,409.09,124.37Z"/><g class="cls-2"><path class="cls-1" d="M418.67,124.37h-6.45c-.13,0-.18-.1-.11-.23l5.52-9.89A.48.48,0,0,1,418,114h6.45c.13,0,.17.11.1.23L419,124.14A.46.46,0,0,1,418.67,124.37Z"/></g><g class="cls-2"><path class="cls-1" d="M428.25,124.37H421.8c-.13,0-.17-.1-.11-.23l5.52-9.89a.49.49,0,0,1,.36-.23H434c.13,0,.18.11.11.23l-5.52,9.89A.46.46,0,0,1,428.25,124.37Z"/></g><g class="cls-2"><path class="cls-1" d="M437.83,124.37h-6.45c-.12,0-.17-.1-.1-.23l5.51-9.89a.49.49,0,0,1,.36-.23h6.45c.13,0,.18.11.11.23l-5.52,9.89A.45.45,0,0,1,437.83,124.37Z"/></g><path class="cls-1" d="M439.78,127.45H286.06a.42.42,0,0,1-.42-.42h0a.41.41,0,0,1,.41-.41H439.26l5.64-11.52a.42.42,0,1,1,.75.37Z"/><path class="cls-1" d="M443.32,124.78a.54.54,0,0,1-.18,0,.42.42,0,0,1-.2-.56h0l5.29-11.53H376.59a.42.42,0,0,1-.42-.42h0a.41.41,0,0,1,.41-.41h72.95l-5.83,12.71A.44.44,0,0,1,443.32,124.78Z"/><path class="cls-1" d="M297.36,131.74h-37a.2.2,0,0,1-.2-.2h0a.2.2,0,0,1,.19-.21h37a.21.21,0,0,1,.21.21.2.2,0,0,1-.2.2Z"/><path class="cls-1" d="M260.35,132.16h-16V121.63l12.26-8.23h20a.63.63,0,0,1,.55.7.64.64,0,0,1-.55.55H257l-11.39,7.65v8.61h14.71a.63.63,0,0,1,.16,1.25h-.13Z"/><path class="cls-1" d="M348.51,114.23H276.68a.21.21,0,0,1-.21-.21.2.2,0,0,1,.2-.2h71.84a.2.2,0,0,1,.21.19h0A.21.21,0,0,1,348.51,114.23Z"/><path class="cls-1" d="M353.36,118H262a.63.63,0,0,1-.55-.7.64.64,0,0,1,.55-.55h90.63l5-8h72.86a.63.63,0,0,1,.55.7.64.64,0,0,1-.55.55h-72.1Z"/><polygon class="cls-1" points="229.37 150.51 79.89 150.51 42.08 112.69 43.01 111.76 80.44 149.18 228.82 149.18 240.55 137.45 241.49 138.39 229.37 150.51"/><path class="cls-1" d="M34.38,107.62a3.68,3.68,0,1,1,3.68,3.68,3.68,3.68,0,0,1-3.68-3.68Z"/><path class="cls-1" d="M68.73,138.41h4.58s8.4,8.7,8.7,8.7h34.15l2.67,2.67H80.16Z"/><path class="cls-1" d="M84.3,149.78s2.38,2,2.38,2.38,61.35,0,61.35,0,2.54-2.27,2.26-2.27H85.68Z"/></g></g><path class="cls-1" d="M131.93,129.66V134l-2.18,2.2,2.18,1.17v4.57H120.18v-3.36h8.42v-1.21h-9.86v4.57H115V134H128.6V133H118.29L115,129.66Z"/><path class="cls-1" d="M145.9,137.35h-9.76v1.21h12.24v3.36H136.14l-3.31-3.36v-8.9l3.31,3.37V134H148.4Zm3.89-7.69L146.46,133H136.14v-3.37Z"/><path class="cls-1" d="M150.69,137.4v-7.68l3.33,3.36v1h13.62V142H150.69l3.33-3.35h10.31V137.4ZM182,129.72l-3.31,3.36H154v-3.36Zm-7.36,13.93-3.83-3.37v-7.2l3.83,2.25Z"/></g></g></svg>