<svg xmlns="http://www.w3.org/2000/svg" xmlns:xlink="http://www.w3.org/1999/xlink" viewBox="0 0 737.32 266.42"><defs><style>.cls-1{fill:none;}.cls-2{isolation:isolate;}.cls-3{clip-path:url(#clip-path);}.cls-4{opacity:0.56;mix-blend-mode:screen;}.cls-5{fill:url(#Безымянный_градиент_59);}.cls-6{fill:url(#Безымянный_градиент_59-2);}.cls-7{fill:url(#Безымянный_градиент_59-3);}.cls-8{fill:url(#Безымянный_градиент_59-4);}.cls-9{fill:url(#Безымянный_градиент_59-5);}.cls-10{fill:url(#Безымянный_градиент_59-6);}.cls-11{fill:url(#Безымянный_градиент_59-7);}.cls-12{fill:url(#Безымянный_градиент_59-8);}.cls-13{fill:url(#Безымянный_градиент_59-9);}.cls-14{fill:url(#Безымянный_градиент_59-10);}.cls-15{fill:url(#Безымянный_градиент_59-11);}.cls-16{fill:url(#Безымянный_градиент_59-12);}.cls-17{fill:url(#Безымянный_градиент_59-13);}.cls-18{fill:url(#Безымянный_градиент_59-14);}.cls-19{fill:url(#Безымянный_градиент_59-15);}.cls-20{fill:url(#Безымянный_градиент_59-16);}.cls-21{fill:url(#Безымянный_градиент_59-17);}.cls-22{fill:url(#Безымянный_градиент_59-18);}.cls-23{fill:url(#Безымянный_градиент_59-19);}.cls-24{fill:url(#Безымянный_градиент_59-20);}.cls-25{fill:url(#Безымянный_градиент_59-21);}.cls-26{fill:url(#Безымянный_градиент_59-22);}.cls-27{fill:url(#Безымянный_градиент_59-23);}.cls-28{fill:url(#Безымянный_градиент_59-24);}.cls-29{fill:url(#Безымянный_градиент_59-25);}.cls-30{fill:url(#Безымянный_градиент_59-26);}.cls-31{fill:url(#Безымянный_градиент_59-27);}.cls-32{fill:url(#Безымянный_градиент_59-28);}.cls-33{fill:url(#Безымянный_градиент_59-29);}.cls-34{fill:url(#Безымянный_градиент_59-30);}.cls-35{fill:url(#Безымянный_градиент_59-31);}.cls-36{fill:url(#Безымянный_градиент_59-32);}.cls-37{fill:url(#Безымянный_градиент_59-33);}.cls-38{fill:url(#Безымянный_градиент_59-34);}.cls-39{fill:url(#Безымянный_градиент_59-35);}.cls-40{fill:url(#Безымянный_градиент_59-36);}.cls-41{opacity:0.6;}.cls-42{fill:url(#New_Gradient_Swatch_2);}.cls-43{fill:url(#New_Gradient_Swatch_2-2);}.cls-44{fill:url(#New_Gradient_Swatch_2-3);}.cls-45{fill:url(#New_Gradient_Swatch_2-4);}.cls-46{fill:url(#New_Gradient_Swatch_2-5);}.cls-47{clip-path:url(#clip-path-2);}.cls-48{fill:url(#Безымянный_градиент_59-37);}.cls-49{fill:url(#Безымянный_градиент_59-38);}.cls-50{fill:url(#Безымянный_градиент_59-39);}.cls-51{fill:url(#Безымянный_градиент_59-40);}.cls-52{fill:url(#Безымянный_градиент_59-41);}.cls-53{fill:url(#Безымянный_градиент_59-42);}.cls-54{fill:url(#Безымянный_градиент_59-43);}.cls-55{fill:url(#Безымянный_градиент_59-44);}.cls-56{fill:url(#Безымянный_градиент_59-45);}.cls-57{fill:url(#Безымянный_градиент_59-46);}.cls-58{fill:url(#Безымянный_градиент_59-47);}.cls-59{fill:url(#Безымянный_градиент_59-48);}.cls-60{fill:url(#Безымянный_градиент_59-49);}.cls-61{fill:url(#Безымянный_градиент_59-50);}.cls-62{fill:url(#Безымянный_градиент_59-51);}.cls-63{fill:url(#Безымянный_градиент_59-52);}.cls-64{fill:url(#Безымянный_градиент_59-53);}.cls-65{fill:url(#Безымянный_градиент_59-54);}.cls-66{fill:url(#Безымянный_градиент_59-55);}.cls-67{fill:url(#Безымянный_градиент_59-56);}.cls-68{fill:url(#Безымянный_градиент_59-57);}.cls-69{fill:url(#Безымянный_градиент_59-58);}.cls-70{fill:url(#Безымянный_градиент_59-59);}.cls-71{fill:url(#Безымянный_градиент_59-60);}.cls-72{fill:url(#Безымянный_градиент_59-61);}.cls-73{fill:url(#Безымянный_градиент_59-62);}.cls-74{fill:url(#Безымянный_градиент_59-63);}.cls-75{fill:url(#Безымянный_градиент_59-64);}.cls-76{fill:url(#Безымянный_градиент_59-65);}.cls-77{fill:url(#Безымянный_градиент_59-66);}.cls-78{fill:url(#Безымянный_градиент_59-67);}.cls-79{fill:url(#Безымянный_градиент_59-68);}.cls-80{fill:url(#Безымянный_градиент_59-69);}.cls-81{fill:url(#Безымянный_градиент_59-70);}.cls-82{fill:url(#Безымянный_градиент_59-71);}.cls-83{fill:url(#Безымянный_градиент_59-72);}.cls-84{fill:url(#New_Gradient_Swatch_2-6);}</style><clipPath id="clip-path" transform="translate(128.67 7.73)"><rect id="SVGID" class="cls-1" x="5.26" y="112.73" width="469.46" height="129.86"/></clipPath><linearGradient id="Безымянный_градиент_59" x1="265.59" y1="190.91" x2="265.59" y2="244.71" gradientUnits="userSpaceOnUse"><stop offset="0"/><stop offset="0.14" stop-color="#03242d"/><stop offset="0.37" stop-color="#07596e"/><stop offset="0.58" stop-color="#0b83a2"/><stop offset="0.76" stop-color="#0da1c7"/><stop offset="0.91" stop-color="#0eb3de"/><stop offset="1" stop-color="#0fbae6"/></linearGradient><linearGradient id="Безымянный_градиент_59-2" x1="218.86" y1="190.83" x2="218.86" y2="250.04" xlink:href="#Безымянный_градиент_59"/><linearGradient id="Безымянный_градиент_59-3" x1="321.7" y1="190.94" x2="321.7" y2="238.92" xlink:href="#Безымянный_градиент_59"/><linearGradient id="Безымянный_градиент_59-4" x1="267.36" y1="190.83" x2="267.36" y2="250.04" xlink:href="#Безымянный_градиент_59"/><linearGradient id="Безымянный_градиент_59-5" x1="272.67" y1="190.83" x2="272.67" y2="250.04" xlink:href="#Безымянный_градиент_59"/><linearGradient id="Безымянный_градиент_59-6" x1="350.88" y1="190.94" x2="350.88" y2="238.39" xlink:href="#Безымянный_градиент_59"/><linearGradient id="Безымянный_градиент_59-7" x1="332.66" y1="190.93" x2="332.66" y2="240.3" xlink:href="#Безымянный_градиент_59"/><linearGradient id="Безымянный_градиент_59-8" x1="325.74" y1="190.83" x2="325.74" y2="250.04" xlink:href="#Безымянный_градиент_59"/><linearGradient id="Безымянный_градиент_59-9" x1="358.1" y1="190.93" x2="358.1" y2="240.49" xlink:href="#Безымянный_градиент_59"/><linearGradient id="Безымянный_градиент_59-10" x1="368.86" y1="190.96" x2="368.86" y2="236.27" xlink:href="#Безымянный_градиент_59"/><linearGradient id="Безымянный_градиент_59-11" x1="366.4" y1="190.91" x2="366.4" y2="244.22" xlink:href="#Безымянный_градиент_59"/><linearGradient id="Безымянный_градиент_59-12" x1="378.72" y1="190.83" x2="378.72" y2="250.04" xlink:href="#Безымянный_градиент_59"/><linearGradient id="Безымянный_градиент_59-13" x1="424.67" y1="190.83" x2="424.67" y2="250.04" xlink:href="#Безымянный_градиент_59"/><linearGradient id="Безымянный_градиент_59-14" x1="413.72" y1="190.83" x2="413.72" y2="250.04" xlink:href="#Безымянный_градиент_59"/><linearGradient id="Безымянный_градиент_59-15" x1="388.65" y1="190.93" x2="388.65" y2="241" xlink:href="#Безымянный_градиент_59"/><linearGradient id="Безымянный_градиент_59-16" x1="389.78" y1="190.92" x2="389.78" y2="243.36" xlink:href="#Безымянный_градиент_59"/><linearGradient id="Безымянный_градиент_59-17" x1="392.22" y1="190.94" x2="392.22" y2="239.18" xlink:href="#Безымянный_градиент_59"/><linearGradient id="Безымянный_градиент_59-18" x1="435.49" y1="190.83" x2="435.49" y2="250.04" xlink:href="#Безымянный_градиент_59"/><linearGradient id="Безымянный_градиент_59-19" x1="431.26" y1="190.93" x2="431.26" y2="240.49" xlink:href="#Безымянный_градиент_59"/><linearGradient id="Безымянный_градиент_59-20" x1="439.55" y1="190.91" x2="439.55" y2="244.22" xlink:href="#Безымянный_градиент_59"/><linearGradient id="Безымянный_градиент_59-21" x1="447.29" y1="190.91" x2="447.29" y2="244.22" xlink:href="#Безымянный_градиент_59"/><linearGradient id="Безымянный_градиент_59-22" x1="390.24" y1="190.95" x2="390.24" y2="236.7" xlink:href="#Безымянный_градиент_59"/><linearGradient id="Безымянный_градиент_59-23" x1="513.79" y1="190.83" x2="513.79" y2="250.04" xlink:href="#Безымянный_градиент_59"/><linearGradient id="Безымянный_градиент_59-24" x1="481.38" y1="190.91" x2="481.38" y2="244.22" xlink:href="#Безымянный_градиент_59"/><linearGradient id="Безымянный_градиент_59-25" x1="566.02" y1="190.83" x2="566.02" y2="250.04" xlink:href="#Безымянный_градиент_59"/><linearGradient id="Безымянный_градиент_59-26" x1="563.72" y1="190.94" x2="563.72" y2="237.61" xlink:href="#Безымянный_градиент_59"/><linearGradient id="Безымянный_градиент_59-27" x1="562.75" y1="190.96" x2="562.75" y2="235.4" xlink:href="#Безымянный_градиент_59"/><linearGradient id="Безымянный_градиент_59-28" x1="558.01" y1="191.1" x2="558.01" y2="220.46" xlink:href="#Безымянный_градиент_59"/><linearGradient id="Безымянный_градиент_59-29" x1="218.45" y1="191.14" x2="218.45" y2="215.94" xlink:href="#Безымянный_градиент_59"/><linearGradient id="Безымянный_градиент_59-30" x1="218.32" y1="191.13" x2="218.32" y2="216.9" xlink:href="#Безымянный_градиент_59"/><linearGradient id="Безымянный_градиент_59-31" x1="213.14" y1="190.99" x2="213.14" y2="232.5" xlink:href="#Безымянный_градиент_59"/><linearGradient id="Безымянный_градиент_59-32" x1="374.28" y1="190.49" x2="374.28" y2="230.07" xlink:href="#Безымянный_градиент_59"/><linearGradient id="Безымянный_градиент_59-33" x1="378.14" y1="190.51" x2="378.14" y2="230.17" xlink:href="#Безымянный_градиент_59"/><linearGradient id="Безымянный_градиент_59-34" x1="386.22" y1="190.49" x2="386.22" y2="230.07" xlink:href="#Безымянный_градиент_59"/><linearGradient id="Безымянный_градиент_59-35" x1="387.51" y1="190.49" x2="387.51" y2="230.07" xlink:href="#Безымянный_градиент_59"/><linearGradient id="Безымянный_градиент_59-36" x1="393.16" y1="190.49" x2="393.16" y2="230.07" xlink:href="#Безымянный_градиент_59"/><linearGradient id="New_Gradient_Swatch_2" x1="128.67" y1="237.21" x2="311.54" y2="237.21" gradientUnits="userSpaceOnUse"><stop offset="0" stop-color="#9541de"/><stop offset="1" stop-color="#3ab2c0"/></linearGradient><linearGradient id="New_Gradient_Swatch_2-2" x1="440.86" y1="237.21" x2="625.36" y2="237.21" xlink:href="#New_Gradient_Swatch_2"/><linearGradient id="New_Gradient_Swatch_2-3" x1="439.2" y1="61.58" x2="614.95" y2="61.58" xlink:href="#New_Gradient_Swatch_2"/><linearGradient id="New_Gradient_Swatch_2-4" x1="143.99" y1="61.58" x2="311.54" y2="61.58" xlink:href="#New_Gradient_Swatch_2"/><linearGradient id="New_Gradient_Swatch_2-5" x1="140.58" y1="259.31" x2="610.63" y2="259.31" xlink:href="#New_Gradient_Swatch_2"/><clipPath id="clip-path-2" transform="translate(128.67 7.73)"><polygon id="SVGID-2" data-name="SVGID" class="cls-1" points="8.46 13.68 106.46 14.23 138.58 0.4 352.05 0.4 376.83 12.94 481.96 12.94 474.71 210.33 5.25 210.33 8.46 13.68"/></clipPath><linearGradient id="Безымянный_градиент_59-37" x1="380.7" y1="3715.51" x2="380.7" y2="3805.88" gradientTransform="translate(852.43 3815.25) rotate(180)" xlink:href="#Безымянный_градиент_59"/><linearGradient id="Безымянный_градиент_59-38" x1="333.96" y1="3715.39" x2="333.96" y2="3814.84" gradientTransform="translate(852.43 3815.25) rotate(180)" xlink:href="#Безымянный_градиент_59"/><linearGradient id="Безымянный_градиент_59-39" x1="436.81" y1="3715.57" x2="436.81" y2="3796.15" gradientTransform="translate(852.43 3815.25) rotate(180)" xlink:href="#Безымянный_градиент_59"/><linearGradient id="Безымянный_градиент_59-40" x1="389.67" y1="3715.46" x2="389.67" y2="3806.7" gradientTransform="translate(852.43 3815.25) rotate(180)" xlink:href="#Безымянный_градиент_59"/><linearGradient id="Безымянный_градиент_59-41" x1="394.98" y1="3715.46" x2="394.98" y2="3806.7" gradientTransform="translate(852.43 3815.25) rotate(180)" xlink:href="#Безымянный_градиент_59"/><linearGradient id="Безымянный_градиент_59-42" x1="465.98" y1="3715.58" x2="465.98" y2="3795.27" gradientTransform="translate(852.43 3815.25) rotate(180)" xlink:href="#Безымянный_градиент_59"/><linearGradient id="Безымянный_градиент_59-43" x1="447.77" y1="3715.56" x2="447.77" y2="3798.47" gradientTransform="translate(852.43 3815.25) rotate(180)" xlink:href="#Безымянный_градиент_59"/><linearGradient id="Безымянный_градиент_59-44" x1="440.85" y1="3715.39" x2="440.85" y2="3814.84" gradientTransform="translate(852.43 3815.25) rotate(180)" xlink:href="#Безымянный_градиент_59"/><linearGradient id="Безымянный_градиент_59-45" x1="473.21" y1="3715.56" x2="473.21" y2="3798.79" gradientTransform="translate(852.43 3815.25) rotate(180)" xlink:href="#Безымянный_градиент_59"/><linearGradient id="Безымянный_градиент_59-46" x1="483.97" y1="3715.6" x2="483.97" y2="3791.71" gradientTransform="translate(852.43 3815.25) rotate(180)" xlink:href="#Безымянный_градиент_59"/><linearGradient id="Безымянный_градиент_59-47" x1="481.51" y1="3715.52" x2="481.51" y2="3805.05" gradientTransform="translate(852.43 3815.25) rotate(180)" xlink:href="#Безымянный_градиент_59"/><linearGradient id="Безымянный_градиент_59-48" x1="493.83" y1="3715.39" x2="493.83" y2="3814.84" gradientTransform="translate(852.43 3815.25) rotate(180)" xlink:href="#Безымянный_градиент_59"/><linearGradient id="Безымянный_градиент_59-49" x1="539.78" y1="3715.39" x2="539.78" y2="3814.84" gradientTransform="translate(852.43 3815.25) rotate(180)" xlink:href="#Безымянный_градиент_59"/><linearGradient id="Безымянный_градиент_59-50" x1="528.83" y1="3715.39" x2="528.83" y2="3814.84" gradientTransform="translate(852.43 3815.25) rotate(180)" xlink:href="#Безымянный_градиент_59"/><linearGradient id="Безымянный_градиент_59-51" x1="503.75" y1="3715.55" x2="503.75" y2="3799.65" gradientTransform="translate(852.43 3815.25) rotate(180)" xlink:href="#Безымянный_градиент_59"/><linearGradient id="Безымянный_градиент_59-52" x1="504.88" y1="3715.54" x2="504.88" y2="3803.61" gradientTransform="translate(852.43 3815.25) rotate(180)" xlink:href="#Безымянный_градиент_59"/><linearGradient id="Безымянный_градиент_59-53" x1="507.33" y1="3715.57" x2="507.33" y2="3796.59" gradientTransform="translate(852.43 3815.25) rotate(180)" xlink:href="#Безымянный_градиент_59"/><linearGradient id="Безымянный_градиент_59-54" x1="550.6" y1="3715.39" x2="550.6" y2="3814.84" gradientTransform="translate(852.43 3815.25) rotate(180)" xlink:href="#Безымянный_градиент_59"/><linearGradient id="Безымянный_градиент_59-55" x1="546.37" y1="3715.56" x2="546.37" y2="3798.79" gradientTransform="translate(852.43 3815.25) rotate(180)" xlink:href="#Безымянный_градиент_59"/><linearGradient id="Безымянный_градиент_59-56" x1="554.65" y1="3715.52" x2="554.65" y2="3805.05" gradientTransform="translate(852.43 3815.25) rotate(180)" xlink:href="#Безымянный_градиент_59"/><linearGradient id="Безымянный_градиент_59-57" x1="562.4" y1="3715.52" x2="562.4" y2="3805.05" gradientTransform="translate(852.43 3815.25) rotate(180)" xlink:href="#Безымянный_градиент_59"/><linearGradient id="Безымянный_градиент_59-58" x1="505.35" y1="3715.6" x2="505.35" y2="3792.43" gradientTransform="translate(852.43 3815.25) rotate(180)" xlink:href="#Безымянный_градиент_59"/><linearGradient id="Безымянный_градиент_59-59" x1="628.89" y1="3715.39" x2="628.89" y2="3814.84" gradientTransform="translate(852.43 3815.25) rotate(180)" xlink:href="#Безымянный_градиент_59"/><linearGradient id="Безымянный_градиент_59-60" x1="596.49" y1="3715.52" x2="596.49" y2="3805.05" gradientTransform="translate(852.43 3815.25) rotate(180)" xlink:href="#Безымянный_градиент_59"/><linearGradient id="Безымянный_градиент_59-61" x1="681.13" y1="3715.39" x2="681.13" y2="3814.84" gradientTransform="translate(852.43 3815.25) rotate(180)" xlink:href="#Безымянный_градиент_59"/><linearGradient id="Безымянный_градиент_59-62" x1="678.83" y1="3715.58" x2="678.83" y2="3793.95" gradientTransform="translate(852.43 3815.25) rotate(180)" xlink:href="#Безымянный_градиент_59"/><linearGradient id="Безымянный_градиент_59-63" x1="677.86" y1="3715.61" x2="677.86" y2="3790.25" gradientTransform="translate(852.43 3815.25) rotate(180)" xlink:href="#Безымянный_градиент_59"/><linearGradient id="Безымянный_градиент_59-64" x1="673.11" y1="3715.83" x2="673.11" y2="3765.15" gradientTransform="translate(852.43 3815.25) rotate(180)" xlink:href="#Безымянный_градиент_59"/><linearGradient id="Безымянный_градиент_59-65" x1="333.56" y1="3715.9" x2="333.56" y2="3757.57" gradientTransform="translate(852.43 3815.25) rotate(180)" xlink:href="#Безымянный_градиент_59"/><linearGradient id="Безымянный_градиент_59-66" x1="333.43" y1="3715.89" x2="333.43" y2="3759.17" gradientTransform="translate(852.43 3815.25) rotate(180)" xlink:href="#Безымянный_градиент_59"/><linearGradient id="Безымянный_градиент_59-67" x1="328.25" y1="3715.65" x2="328.25" y2="3785.37" gradientTransform="translate(852.43 3815.25) rotate(180)" xlink:href="#Безымянный_градиент_59"/><linearGradient id="Безымянный_градиент_59-68" x1="489.39" y1="3714.81" x2="489.39" y2="3781.27" gradientTransform="translate(852.43 3815.25) rotate(180)" xlink:href="#Безымянный_градиент_59"/><linearGradient id="Безымянный_градиент_59-69" x1="493.25" y1="3714.82" x2="493.25" y2="3781.33" gradientTransform="translate(852.43 3815.25) rotate(180)" xlink:href="#Безымянный_градиент_59"/><linearGradient id="Безымянный_градиент_59-70" x1="501.33" y1="3714.81" x2="501.33" y2="3781.27" gradientTransform="translate(852.43 3815.25) rotate(180)" xlink:href="#Безымянный_градиент_59"/><linearGradient id="Безымянный_градиент_59-71" x1="502.62" y1="3714.81" x2="502.62" y2="3781.27" gradientTransform="translate(852.43 3815.25) rotate(180)" xlink:href="#Безымянный_градиент_59"/><linearGradient id="Безымянный_градиент_59-72" x1="508.27" y1="3714.81" x2="508.27" y2="3781.27" gradientTransform="translate(852.43 3815.25) rotate(180)" xlink:href="#Безымянный_градиент_59"/><linearGradient id="New_Gradient_Swatch_2-6" x1="140.58" y1="14.84" x2="610.63" y2="14.84" xlink:href="#New_Gradient_Swatch_2"/></defs><title>border_cards</title><g class="cls-2"><g id="Layer_2" data-name="Layer 2"><g id="Layer_1-2" data-name="Layer 1"><g class="cls-3"><g class="cls-4"><polygon class="cls-5" points="354.24 191.23 178.67 229.11 176.94 229.11 354.08 191.23 354.24 191.23"/><polygon class="cls-6" points="86.28 250.29 83.67 250.29 353.88 191.36 354.04 191.36 86.28 250.29"/><polygon class="cls-7" points="355.02 191.23 289.16 206.1 288.39 206.1 354.86 191.23 355.02 191.23"/><polygon class="cls-8" points="178.37 250.29 174.9 250.29 359.65 191.36 359.82 191.36 178.37 250.29"/><polygon class="cls-9" points="188.41 250.29 184.94 250.29 360.23 191.36 360.39 191.36 188.41 250.29"/><polygon class="cls-10" points="364.19 191.23 338.25 204.01 337.56 204.01 364.04 191.23 364.19 191.23"/><polygon class="cls-11" points="361.36 191.23 305.69 211.57 303.97 211.57 361.2 191.23 361.36 191.23"/><polygon class="cls-12" points="289.12 250.29 284.77 250.29 366.55 191.36 366.71 191.36 289.12 250.29"/><polygon class="cls-13" points="368.41 191.23 349.56 212.33 347.8 212.33 368.25 191.23 368.41 191.23"/><polygon class="cls-14" points="370.09 191.23 367.97 195.58 367.63 195.58 369.93 191.23 370.09 191.23"/><polygon class="cls-15" points="371.2 191.22 364.81 227.15 361.6 227.15 371.04 191.22 371.2 191.22"/><polygon class="cls-16" points="384.99 250.29 378.04 250.29 372.45 191.36 373.26 191.36 384.99 250.29"/><polygon class="cls-17" points="471.31 250.29 467.83 250.29 378.03 191.36 378.19 191.36 471.31 250.29"/><polygon class="cls-18" points="450.81 250.29 446.47 250.29 376.63 191.36 376.8 191.36 450.81 250.29"/><polygon class="cls-19" points="376.13 191.23 401.32 214.36 399.47 214.36 375.97 191.23 376.13 191.23"/><polygon class="cls-20" points="375.25 191.18 404.45 223.75 401.41 223.75 375.1 191.18 375.25 191.18"/><polygon class="cls-21" points="378.57 191.23 406.03 207.12 405.21 207.12 378.41 191.23 378.57 191.23"/><polygon class="cls-22" points="491.72 250.29 488.25 250.29 379.26 191.36 379.42 191.36 491.72 250.29"/><polygon class="cls-23" points="387.76 191.23 474.92 212.33 473.88 212.33 387.6 191.23 387.76 191.23"/><polygon class="cls-24" points="383.79 191.22 495.46 227.15 493.03 227.15 383.63 191.22 383.79 191.22"/><polygon class="cls-25" points="385.14 191.22 509.6 227.15 507.17 227.15 384.98 191.22 385.14 191.22"/><polygon class="cls-26" points="382.2 191.23 398.43 197.29 398.02 197.29 382.05 191.23 382.2 191.23"/><polygon class="cls-27" points="639.02 250.29 635.55 250.29 388.55 191.36 388.71 191.36 639.02 250.29"/><polygon class="cls-28" points="391.1 191.22 571.82 227.15 570.17 227.15 390.94 191.22 391.1 191.22"/><polygon class="cls-29" points="737.32 250.29 734.71 250.29 394.72 191.36 394.88 191.36 737.32 250.29"/><polygon class="cls-30" points="727.14 237.44 727.63 237.8 399.8 191.36 399.97 191.36 727.14 237.44"/><polygon class="cls-31" points="724.21 235.25 724.66 235.59 400.84 191.36 401 191.36 724.21 235.25"/><polygon class="cls-32" points="704.29 220.42 704.5 220.58 411.51 191.36 411.67 191.36 704.29 220.42"/><polygon class="cls-33" points="334.79 191.36 102.11 216.05 102.31 215.9 334.62 191.36 334.79 191.36"/><polygon class="cls-34" points="335.82 191.36 100.82 217.01 101.03 216.85 335.66 191.36 335.82 191.36"/><polygon class="cls-35" points="346.5 191.36 79.78 232.67 80.27 232.31 346.33 191.36 346.5 191.36"/><polygon class="cls-36" points="374.21 181.94 374.36 181.94 374.35 181.96 374.2 181.96 374.21 181.94"/><polygon class="cls-37" points="378.05 181.91 378.19 181.91 378.23 181.96 378.08 181.96 378.05 181.91"/><polygon class="cls-38" points="386.12 181.94 386.27 181.94 386.32 181.96 386.17 181.96 386.12 181.94"/><polygon class="cls-39" points="387.41 181.94 387.56 181.94 387.61 181.96 387.46 181.96 387.41 181.94"/><polygon class="cls-40" points="393.2 181.94 393.28 181.96 393.13 181.96 393.05 181.94 393.2 181.94"/></g></g><g class="cls-41"><polygon class="cls-42" points="128.86 265.5 128.67 265.13 311.35 208.93 311.54 209.3 128.86 265.5"/><polygon class="cls-43" points="625.18 266.03 440.86 208.76 441.05 208.39 625.36 265.66 625.18 266.03"/><polygon class="cls-44" points="439.43 95.89 439.2 95.54 614.72 27.27 614.95 27.63 439.43 95.89"/><polygon class="cls-45" points="311.31 96.52 144 27 144.23 26.65 311.54 96.16 311.31 96.52"/></g><polygon class="cls-46" points="235.13 266.42 140.58 266.42 140.58 266.02 235 266.02 267.12 252.19 478.98 252.19 479.04 252.22 505.64 264.74 610.63 264.74 610.63 265.13 505.5 265.13 505.44 265.11 478.84 252.59 267.25 252.59 235.13 266.42"/><g class="cls-47"><g class="cls-4"><polygon class="cls-48" points="383.08 99.19 558.65 35.57 560.38 35.57 383.24 99.19 383.08 99.19"/><polygon class="cls-49" points="651.04 0 653.64 0 383.44 98.98 383.28 98.98 651.04 0"/><polygon class="cls-50" points="382.3 99.19 448.16 74.22 448.93 74.22 382.46 99.19 382.3 99.19"/><polygon class="cls-51" points="544.53 8.17 548.01 8.17 377.67 98.98 377.5 98.98 544.53 8.17"/><polygon class="cls-52" points="534.49 8.17 537.96 8.17 377.09 98.98 376.93 98.98 534.49 8.17"/><polygon class="cls-53" points="373.12 99.19 399.07 77.73 399.76 77.73 373.28 99.19 373.12 99.19"/><polygon class="cls-54" points="375.96 99.19 431.62 65.04 433.35 65.04 376.12 99.19 375.96 99.19"/><polygon class="cls-55" points="448.2 0 452.54 0 370.77 98.98 370.61 98.98 448.2 0"/><polygon class="cls-56" points="368.91 99.19 387.76 63.76 389.52 63.76 369.07 99.19 368.91 99.19"/><polygon class="cls-57" points="367.23 99.19 369.35 91.89 369.69 91.89 367.38 99.19 367.23 99.19"/><polygon class="cls-58" points="366.12 99.22 372.51 38.86 375.72 38.86 366.28 99.22 366.12 99.22"/><polygon class="cls-59" points="352.33 0 359.28 0 364.87 98.98 364.06 98.98 352.33 0"/><polygon class="cls-60" points="266.01 0 269.49 0 359.29 98.98 359.13 98.98 266.01 0"/><polygon class="cls-61" points="286.5 0 290.85 0 360.68 98.98 360.52 98.98 286.5 0"/><polygon class="cls-62" points="361.19 99.19 335.99 60.34 337.85 60.34 361.35 99.19 361.19 99.19"/><polygon class="cls-63" points="362.07 99.27 332.87 44.57 335.91 44.57 362.22 99.27 362.07 99.27"/><polygon class="cls-64" points="358.75 99.19 331.29 72.5 332.11 72.5 358.91 99.19 358.75 99.19"/><polygon class="cls-65" points="245.6 0 249.07 0 358.06 98.98 357.9 98.98 245.6 0"/><polygon class="cls-66" points="349.56 99.19 262.4 63.76 263.44 63.76 349.72 99.19 349.56 99.19"/><polygon class="cls-67" points="353.53 99.22 241.86 38.86 244.29 38.86 353.69 99.22 353.53 99.22"/><polygon class="cls-68" points="352.18 99.22 227.72 38.86 230.15 38.86 352.34 99.22 352.18 99.22"/><polygon class="cls-69" points="355.12 99.19 338.89 89.01 339.3 89.01 355.27 99.19 355.12 99.19"/><polygon class="cls-70" points="98.3 0 101.77 0 348.77 98.98 348.6 98.98 98.3 0"/><polygon class="cls-71" points="346.22 99.22 165.5 38.86 167.14 38.86 346.38 99.22 346.22 99.22"/><polygon class="cls-72" points="0 0 2.61 0 342.6 98.98 342.44 98.98 0 0"/><polygon class="cls-73" points="10.18 21.59 9.69 20.97 337.52 98.98 337.35 98.98 10.18 21.59"/><polygon class="cls-74" points="13.11 25.25 12.66 24.69 336.48 98.98 336.32 98.98 13.11 25.25"/><polygon class="cls-75" points="33.03 50.16 32.82 49.9 325.81 98.98 325.64 98.98 33.03 50.16"/><polygon class="cls-76" points="402.53 98.98 635.21 57.51 635.01 57.76 402.69 98.98 402.53 98.98"/><polygon class="cls-77" points="401.49 98.98 636.5 55.9 636.29 56.16 401.66 98.98 401.49 98.98"/><polygon class="cls-78" points="390.82 98.98 657.53 29.59 657.05 30.2 390.99 98.98 390.82 98.98"/><polygon class="cls-79" points="363.11 114.79 362.96 114.79 362.97 114.76 363.12 114.76 363.11 114.79"/><polygon class="cls-80" points="359.27 114.86 359.13 114.86 359.08 114.76 359.24 114.76 359.27 114.86"/><polygon class="cls-81" points="351.19 114.79 351.05 114.79 351 114.76 351.14 114.76 351.19 114.79"/><polygon class="cls-82" points="349.91 114.79 349.76 114.79 349.71 114.76 349.86 114.76 349.91 114.79"/><polygon class="cls-83" points="344.12 114.79 344.04 114.76 344.19 114.76 344.27 114.79 344.12 114.79"/></g></g><polygon class="cls-84" points="235.13 21.96 140.58 21.96 140.58 21.56 235 21.56 267.12 7.73 478.98 7.73 479.04 7.76 505.64 20.27 610.63 20.27 610.63 20.67 505.5 20.67 505.44 20.64 478.84 8.13 267.25 8.13 235.13 21.96"/></g></g></g></svg>