<svg xmlns="http://www.w3.org/2000/svg" xmlns:xlink="http://www.w3.org/1999/xlink" viewBox="0 0 492.86 290.7"><defs><style>.cls-1{fill:url(#New_Gradient_Swatch_1);}.cls-2{fill:url(#New_Gradient_Swatch_1-2);}.cls-3{fill:url(#New_Gradient_Swatch_1-3);}.cls-4{fill:url(#New_Gradient_Swatch_1-4);}.cls-5{fill:url(#New_Gradient_Swatch_1-5);}.cls-6{fill:url(#New_Gradient_Swatch_1-6);}.cls-7{fill:url(#New_Gradient_Swatch_1-7);}.cls-8{fill:url(#New_Gradient_Swatch_1-8);}.cls-9{fill:url(#New_Gradient_Swatch_1-9);}.cls-10{fill:url(#New_Gradient_Swatch_1-10);}.cls-11{fill:url(#New_Gradient_Swatch_1-11);}.cls-12{fill:url(#New_Gradient_Swatch_1-12);}.cls-13{fill:url(#New_Gradient_Swatch_1-13);}.cls-14{fill:url(#New_Gradient_Swatch_1-14);}.cls-15{fill:url(#New_Gradient_Swatch_1-15);}.cls-16{fill:url(#New_Gradient_Swatch_1-16);}.cls-17{fill:url(#New_Gradient_Swatch_1-17);}.cls-18{fill:url(#New_Gradient_Swatch_1-18);}.cls-19{fill:url(#New_Gradient_Swatch_1-19);}</style><linearGradient id="New_Gradient_Swatch_1" x1="44.09" y1="143.78" x2="489.15" y2="143.78" gradientUnits="userSpaceOnUse"><stop offset="0" stop-color="#cf52fe"/><stop offset="1" stop-color="#19dbb6"/></linearGradient><linearGradient id="New_Gradient_Swatch_1-2" x1="296.09" y1="142.38" x2="492.86" y2="142.38" xlink:href="#New_Gradient_Swatch_1"/><linearGradient id="New_Gradient_Swatch_1-3" x1="185.89" y1="144.16" x2="335.78" y2="144.16" xlink:href="#New_Gradient_Swatch_1"/><linearGradient id="New_Gradient_Swatch_1-4" x1="164.78" y1="142.38" x2="314.67" y2="142.38" xlink:href="#New_Gradient_Swatch_1"/><linearGradient id="New_Gradient_Swatch_1-5" x1="156.62" y1="145.45" x2="366.33" y2="145.45" xlink:href="#New_Gradient_Swatch_1"/><linearGradient id="New_Gradient_Swatch_1-6" x1="61.83" y1="144.16" x2="142.35" y2="144.16" xlink:href="#New_Gradient_Swatch_1"/><linearGradient id="New_Gradient_Swatch_1-7" x1="20.27" y1="145.35" x2="262.09" y2="145.35" xlink:href="#New_Gradient_Swatch_1"/><linearGradient id="New_Gradient_Swatch_1-8" x1="245.05" y1="63.74" x2="276.62" y2="63.74" xlink:href="#New_Gradient_Swatch_1"/><linearGradient id="New_Gradient_Swatch_1-9" x1="245.05" y1="223.24" x2="276.62" y2="223.24" xlink:href="#New_Gradient_Swatch_1"/><linearGradient id="New_Gradient_Swatch_1-10" x1="0" y1="227.24" x2="26.35" y2="227.24" xlink:href="#New_Gradient_Swatch_1"/><linearGradient id="New_Gradient_Swatch_1-11" x1="0" y1="208.68" x2="26.35" y2="208.68" xlink:href="#New_Gradient_Swatch_1"/><linearGradient id="New_Gradient_Swatch_1-12" x1="0" y1="190.12" x2="26.35" y2="190.12" xlink:href="#New_Gradient_Swatch_1"/><linearGradient id="New_Gradient_Swatch_1-13" x1="0" y1="171.56" x2="26.35" y2="171.56" xlink:href="#New_Gradient_Swatch_1"/><linearGradient id="New_Gradient_Swatch_1-14" x1="0" y1="153" x2="26.35" y2="153" xlink:href="#New_Gradient_Swatch_1"/><linearGradient id="New_Gradient_Swatch_1-15" x1="0" y1="135.32" x2="26.35" y2="135.32" xlink:href="#New_Gradient_Swatch_1"/><linearGradient id="New_Gradient_Swatch_1-16" x1="0" y1="116.76" x2="26.35" y2="116.76" xlink:href="#New_Gradient_Swatch_1"/><linearGradient id="New_Gradient_Swatch_1-17" x1="0" y1="98.2" x2="26.35" y2="98.2" xlink:href="#New_Gradient_Swatch_1"/><linearGradient id="New_Gradient_Swatch_1-18" x1="0" y1="79.64" x2="26.35" y2="79.64" xlink:href="#New_Gradient_Swatch_1"/><linearGradient id="New_Gradient_Swatch_1-19" x1="0" y1="61.08" x2="26.35" y2="61.08" xlink:href="#New_Gradient_Swatch_1"/></defs><title>breadcrumbs_arrow_purple_green</title><g id="Layer_2" data-name="Layer 2"><g id="Layer_1-2" data-name="Layer 1"><path class="cls-1" d="M44.09,265.32V22.24L489.15,143.78ZM52,29.84V257.71L469.24,143.78Z"/><polygon class="cls-2" points="492.86 142.38 296.09 197.13 296.09 87.63 492.86 142.38"/><polygon class="cls-3" points="185.89 198.67 335.78 144.16 185.89 89.65 185.89 198.67"/><polygon class="cls-4" points="164.78 196.89 314.67 142.38 164.78 87.87 164.78 196.89"/><path class="cls-5" d="M156.62,222.55V68.36l209.71,76.26-1.92.71Zm2.6-151.35V219.68l202-75.05Z"/><polygon class="cls-6" points="142.35 73.82 61.83 44.53 61.83 243.78 142.35 214.5 142.35 73.82"/><polygon class="cls-7" points="20.27 290.7 20.31 287.68 23.87 0 262.03 62.62 259.64 66.23 30 5.85 26.56 284.68 259.58 219.97 262.09 223.55 20.27 290.7"/><ellipse class="cls-8" cx="260.84" cy="63.74" rx="15.78" ry="9.94"/><path class="cls-9" d="M276.62,223.24c0,5.5-7.07,9.95-15.78,9.95s-15.79-4.45-15.79-9.95,7.07-9.94,15.79-9.94S276.62,217.75,276.62,223.24Z"/><polygon class="cls-10" points="26.35 231.53 0 237.57 0 222.95 26.35 216.91 26.35 231.53"/><polygon class="cls-11" points="26.35 212.97 0 219.01 0 204.39 26.35 198.34 26.35 212.97"/><polygon class="cls-12" points="26.35 194.41 0 200.45 0 185.83 26.35 179.78 26.35 194.41"/><polygon class="cls-13" points="26.35 175.85 0 181.89 0 167.27 26.35 161.22 26.35 175.85"/><polygon class="cls-14" points="26.35 157.29 0 163.33 0 148.71 26.35 142.66 26.35 157.29"/><polygon class="cls-15" points="26.35 139.61 0 145.66 0 131.03 26.35 124.99 26.35 139.61"/><polygon class="cls-16" points="26.35 121.05 0 127.09 0 112.47 26.35 106.43 26.35 121.05"/><polygon class="cls-17" points="26.35 102.49 0 108.53 0 93.91 26.35 87.87 26.35 102.49"/><polygon class="cls-18" points="26.35 83.93 0 89.97 0 75.35 26.35 69.31 26.35 83.93"/><polygon class="cls-19" points="26.35 65.37 0 71.42 0 56.79 26.35 50.75 26.35 65.37"/></g></g></svg>