<svg xmlns="http://www.w3.org/2000/svg" xmlns:xlink="http://www.w3.org/1999/xlink" viewBox="0 0 491.29 211.94"><defs><style>.cls-1{fill:url(#New_Gradient_Swatch_1);}.cls-2{fill:url(#New_Gradient_Swatch_1-2);}.cls-3{opacity:0.31;}.cls-4{fill:url(#New_Gradient_Swatch_1-3);}.cls-5{fill:url(#New_Gradient_Swatch_1-4);}.cls-6{fill:url(#New_Gradient_Swatch_1-5);}.cls-7{fill:url(#New_Gradient_Swatch_1-6);}.cls-8{opacity:0.5;}.cls-9{fill:url(#New_Gradient_Swatch_1-7);}.cls-10{fill:url(#New_Gradient_Swatch_1-8);}.cls-11{fill:url(#New_Gradient_Swatch_1-9);}.cls-12{fill:url(#New_Gradient_Swatch_1-10);}.cls-13{fill:url(#New_Gradient_Swatch_1-11);}.cls-14{fill:url(#New_Gradient_Swatch_1-12);}</style><linearGradient id="New_Gradient_Swatch_1" x1="16.23" y1="109.8" x2="142.89" y2="109.8" gradientUnits="userSpaceOnUse"><stop offset="0" stop-color="#cf52fe"/><stop offset="1" stop-color="#19dbb6"/></linearGradient><linearGradient id="New_Gradient_Swatch_1-2" x1="5.85" y1="109.8" x2="158.38" y2="109.8" xlink:href="#New_Gradient_Swatch_1"/><linearGradient id="New_Gradient_Swatch_1-3" x1="0" y1="109.8" x2="126.66" y2="109.8" xlink:href="#New_Gradient_Swatch_1"/><linearGradient id="New_Gradient_Swatch_1-4" x1="63.78" y1="109.8" x2="461.4" y2="109.8" xlink:href="#New_Gradient_Swatch_1"/><linearGradient id="New_Gradient_Swatch_1-5" x1="63.78" y1="109.8" x2="461.4" y2="109.8" xlink:href="#New_Gradient_Swatch_1"/><linearGradient id="New_Gradient_Swatch_1-6" x1="355.3" y1="107.89" x2="467.66" y2="107.89" xlink:href="#New_Gradient_Swatch_1"/><linearGradient id="New_Gradient_Swatch_1-7" x1="330.19" y1="108.33" x2="411.89" y2="108.33" xlink:href="#New_Gradient_Swatch_1"/><linearGradient id="New_Gradient_Swatch_1-8" x1="152.9" y1="105.97" x2="491.29" y2="105.97" xlink:href="#New_Gradient_Swatch_1"/><linearGradient id="New_Gradient_Swatch_1-9" x1="139.89" y1="77.63" x2="312.15" y2="77.63" xlink:href="#New_Gradient_Swatch_1"/><linearGradient id="New_Gradient_Swatch_1-10" x1="156.69" y1="86.96" x2="323.54" y2="86.96" xlink:href="#New_Gradient_Swatch_1"/><linearGradient id="New_Gradient_Swatch_1-11" x1="139.89" y1="141.98" x2="312.15" y2="141.98" xlink:href="#New_Gradient_Swatch_1"/><linearGradient id="New_Gradient_Swatch_1-12" x1="156.69" y1="132.65" x2="323.54" y2="132.65" xlink:href="#New_Gradient_Swatch_1"/></defs><title>breadcrumbs_arrow_purple_green_2</title><g id="Layer_2" data-name="Layer 2"><g id="Layer_1-2" data-name="Layer 1"><polygon class="cls-1" points="95.33 54.72 16.23 54.72 63.78 109.8 16.23 164.88 95.33 164.88 142.89 109.8 95.33 54.72"/><path class="cls-2" d="M101.54,175.64H5.85L62.69,109.8,5.85,44h95.69l56.84,65.84ZM10,173.74h90.68l55.21-63.94L100.67,45.86H10L65.2,109.8Z"/><g class="cls-3"><polygon class="cls-4" points="79.1 54.72 0 54.72 47.56 109.8 0 164.88 79.1 164.88 126.66 109.8 79.1 54.72"/></g><path class="cls-5" d="M63.78,109.8h0Z"/><rect class="cls-6" x="63.78" y="108.34" width="397.61" height="2.92"/><polygon class="cls-7" points="467.67 109.53 355.31 172.21 357.2 43.56 467.67 109.53"/><g class="cls-8"><polygon class="cls-9" points="411.89 109.52 330.19 155.1 331.56 61.55 411.89 109.52"/></g><path class="cls-10" d="M310.47,211.94l-.84-1.05H308l-.31-91.24a1.46,1.46,0,0,1,1.46-1.46h0a1.46,1.46,0,0,1,1.46,1.45l.29,88.83c8.54-5.48,42.16-24.72,174.55-98.71L310.93,5.15V94.49l-156.58-1a1.46,1.46,0,1,1,0-2.91h0l153.65,1V0L491.29,109.85l-2.2,1.23C428.81,144.77,313.89,209.2,310.47,211.94Z"/><path class="cls-11" d="M312.15,95.65H153l-13.11-36H299Zm-156.49-3.8H306.73L296.38,63.41H145.31Z"/><polygon class="cls-12" points="323.54 103.07 168.42 103.07 156.69 70.84 311.8 70.84 323.54 103.07"/><path class="cls-13" d="M299,160H139.89L153,124H312.15ZM145.31,156.2H296.38l10.35-28.44H155.66Z"/><polygon class="cls-14" points="323.54 116.53 168.42 116.53 156.69 148.77 311.8 148.77 323.54 116.53"/></g></g></svg>