<svg xmlns="http://www.w3.org/2000/svg" viewBox="0 0 494.93 291.92"><defs><style>.cls-1{fill:#11e5b3;}</style></defs><title>breadcrumbs_arrow</title><g id="Layer_2" data-name="Layer 2"><g id="Layer_1-2" data-name="Layer 1"><path class="cls-1" d="M44.27,266.43V22.33L491.21,144.38ZM52.23,30V258.8l419-114.42Z"/><polygon class="cls-1" points="494.93 142.98 297.33 197.96 297.33 88 494.93 142.98"/><polygon class="cls-1" points="186.67 199.5 337.19 144.77 186.67 90.03 186.67 199.5"/><polygon class="cls-1" points="165.47 197.72 316 142.98 165.47 88.24 165.47 197.72"/><path class="cls-1" d="M157.27,223.48V68.64l210.6,76.59-1.93.71Zm2.62-152V220.6l202.8-75.36Z"/><polygon class="cls-1" points="142.95 74.13 62.09 44.72 62.09 244.81 142.95 215.4 142.95 74.13"/><polygon class="cls-1" points="20.36 291.92 20.39 288.89 23.97 0 263.13 62.88 260.73 66.51 30.13 5.88 26.67 285.88 260.67 220.9 263.19 224.49 20.36 291.92"/><ellipse class="cls-1" cx="261.93" cy="64.01" rx="15.85" ry="9.98"/><path class="cls-1" d="M277.78,224.18c0,5.52-7.09,10-15.85,10s-15.85-4.47-15.85-10,7.1-10,15.85-10S277.78,218.67,277.78,224.18Z"/><polygon class="cls-1" points="26.46 232.5 0 238.57 0 223.88 26.46 217.82 26.46 232.5"/><polygon class="cls-1" points="26.46 213.86 0 219.93 0 205.25 26.46 199.18 26.46 213.86"/><polygon class="cls-1" points="26.46 195.22 0 201.29 0 186.61 26.46 180.54 26.46 195.22"/><polygon class="cls-1" points="26.46 176.59 0 182.65 0 167.97 26.46 161.9 26.46 176.59"/><polygon class="cls-1" points="26.46 157.95 0 164.01 0 149.33 26.46 143.26 26.46 157.95"/><polygon class="cls-1" points="26.46 140.2 0 146.27 0 131.58 26.46 125.52 26.46 140.2"/><polygon class="cls-1" points="26.46 121.56 0 127.63 0 112.94 26.46 106.88 26.46 121.56"/><polygon class="cls-1" points="26.46 102.92 0 108.99 0 94.31 26.46 88.24 26.46 102.92"/><polygon class="cls-1" points="26.46 84.29 0 90.35 0 75.67 26.46 69.6 26.46 84.29"/><polygon class="cls-1" points="26.46 65.65 0 71.72 0 57.03 26.46 50.96 26.46 65.65"/></g></g></svg>