<svg xmlns="http://www.w3.org/2000/svg" viewBox="0 0 492.42 492.42"><defs><style>.cls-1,.cls-2{fill:#11e5b3;}.cls-2{opacity:0.7;isolation:isolate;}.cls-3{opacity:0.5;}</style></defs><title>burger_icon_green_01</title><g id="Layer_2" data-name="Layer 2"><g id="Layer_1-2" data-name="Layer 1"><g id="Layer_2-2" data-name="Layer 2"><g id="Layer_1-2-2" data-name="Layer 1-2"><rect class="cls-1" x="274.37" y="244.88" width="208.22" height="2.68"/><rect class="cls-1" x="3.58" y="244.88" width="208.22" height="2.68"/><path class="cls-1" d="M484.83,253.81a7.6,7.6,0,1,1,7.59-7.61v0A7.59,7.59,0,0,1,484.83,253.81Z"/><path class="cls-1" d="M7.61,253.81a7.6,7.6,0,1,1,7.59-7.61v0A7.59,7.59,0,0,1,7.61,253.81Z"/><rect class="cls-1" x="244.88" y="274.37" width="2.68" height="208.23"/><rect class="cls-1" x="244.88" y="3.58" width="2.68" height="208.23"/><path class="cls-1" d="M238.62,484.83a7.6,7.6,0,1,1,7.61,7.59h0A7.61,7.61,0,0,1,238.62,484.83Z"/><path class="cls-1" d="M238.62,7.61a7.6,7.6,0,1,1,7.61,7.59h0A7.61,7.61,0,0,1,238.62,7.61Z"/><path class="cls-1" d="M246.22,262.3a16.09,16.09,0,1,1,16.08-16.1v0A16.09,16.09,0,0,1,246.22,262.3Zm0-29.49a13.41,13.41,0,1,0,13.4,13.42h0A13.42,13.42,0,0,0,246.22,232.81Z"/><path class="cls-1" d="M245.66,295.46a48.63,48.63,0,1,1,48.63-48.63A48.63,48.63,0,0,1,245.66,295.46Zm0-96.09a47.46,47.46,0,1,0,47.45,47.47h0a47.5,47.5,0,0,0-47.45-47.46Z"/><path class="cls-1" d="M245.66,253.42a6.59,6.59,0,1,1,6.59-6.59h0A6.6,6.6,0,0,1,245.66,253.42Z"/><path class="cls-1" d="M245.66,269.63a22.8,22.8,0,1,1,22.8-22.8h0A22.82,22.82,0,0,1,245.66,269.63Zm0-44.43a21.63,21.63,0,1,0,21.62,21.64h0A21.65,21.65,0,0,0,245.66,225.2Z"/><path class="cls-1" d="M274.07,247.42H217.24a.59.59,0,0,1-.66-.51.59.59,0,0,1,.51-.66h57a.59.59,0,0,1,.66.51.59.59,0,0,1-.51.66A.38.38,0,0,1,274.07,247.42Z"/><path class="cls-1" d="M245.66,275.83a.58.58,0,0,1-.59-.57h0V218.42a.59.59,0,0,1,.51-.66.59.59,0,0,1,.66.51.38.38,0,0,1,0,.15v56.83a.58.58,0,0,1-.58.58Z"/><path class="cls-1" d="M239.45,199.2v-2a51.5,51.5,0,0,1,6.21-.38,50.94,50.94,0,0,1,6.29.39v2a47.91,47.91,0,0,1,26,12l3.3-3.3q-1.62-1.47-3.35-2.81l2.44-2.07a55.8,55.8,0,0,0-78.4,9c-1,1.28-2,2.62-2.89,4l2.79,1.47a51.68,51.68,0,0,0-4.51,8.22l-2.78-1.46a55.81,55.81,0,0,0,2.28,49.6l2.44-2.07a52.88,52.88,0,0,0,7.51,10.56l3.3-3.3a48,48,0,0,1,29.38-79.91Z"/><path class="cls-1" d="M297.43,267.77a55.78,55.78,0,0,0-2-46.27L293,223.58a52.05,52.05,0,0,0-3.55-6.14L286,220.82a48,48,0,0,1-34.09,73.63v2a51,51,0,0,1-6.29.4,49.54,49.54,0,0,1-6.21-.39v-2a47.79,47.79,0,0,1-19.81-7.24l-1.4,1.41c-.36-.24-.73-.48-1.08-.73l-4.6,3.9a55.78,55.78,0,0,0,78-11.79q1.4-1.89,2.62-3.88l-2.78-1.46a52.08,52.08,0,0,0,4.24-8.36Z"/><path class="cls-1" d="M245.07,193.35l-2.93-31.64a3.53,3.53,0,1,1,7,0l-2.93,31.64a.59.59,0,0,1-.64.53A.6.6,0,0,1,245.07,193.35Z"/><path class="cls-1" d="M246.24,300.17l2.93,31.64a3.53,3.53,0,1,1-7,0l2.93-31.64a.59.59,0,0,1,.66-.51.58.58,0,0,1,.51.51Z"/><path class="cls-1" d="M299.07,246.18l31.64-2.93a3.53,3.53,0,1,1,1.3,6.94,3.57,3.57,0,0,1-.65.06,3.53,3.53,0,0,1-.65,0l-31.64-2.93a.59.59,0,0,1-.53-.64A.58.58,0,0,1,299.07,246.18Z"/><path class="cls-1" d="M192.24,247.35l-31.64,2.93a3.52,3.52,0,1,1,0-7l31.64,2.93a.59.59,0,0,1,0,1.18Z"/><path class="cls-2" d="M266,107,246,72.23,225.89,107l-20,34.74h80.23Zm-47.22,27.51L232.37,111,246,87.49,259.53,111l13.58,23.52H218.79Z"/><path class="cls-2" d="M158.63,291.94,138.57,257.2l-20.06,34.74L98.45,326.68h80.23Zm-47.22,27.51L125,295.93l13.58-23.52,13.58,23.52,13.58,23.52Z"/><path class="cls-2" d="M373.39,291.94,353.33,257.2l-20.06,34.74-20,34.74h80.23Zm-47.22,27.51,13.58-23.52,13.58-23.52,13.58,23.52,13.58,23.52Z"/><path class="cls-1" d="M246,398.78C159.43,398.78,89,328.39,89,241.86S159.43,85,246,85s156.92,70.39,156.92,156.91S332.48,398.78,246,398.78Zm0-311.52c-85.25,0-154.61,69.35-154.61,154.6S160.7,396.47,246,396.47s154.61-69.36,154.61-154.61S331.2,87.26,246,87.26Z"/><path class="cls-1" d="M246,350.4A108.54,108.54,0,1,1,354.49,241.86,108.55,108.55,0,0,1,246,350.4Zm0-214.76A106.23,106.23,0,1,0,352.18,241.87h0A106.34,106.34,0,0,0,246,135.64Z"/><rect class="cls-1" x="244.8" y="86.1" width="2.31" height="48.38"/><rect class="cls-1" x="244.8" y="349.24" width="2.31" height="48.38"/><rect class="cls-1" x="179.01" y="103.73" width="2.31" height="48.38" transform="translate(-39.82 107.22) rotate(-30)"/><rect class="cls-1" x="310.58" y="331.62" width="2.31" height="48.38" transform="translate(-136.14 203.54) rotate(-30)"/><rect class="cls-1" x="130.85" y="151.89" width="2.31" height="48.38" transform="translate(-86.49 202.36) rotate(-60)"/><rect class="cls-1" x="358.74" y="283.46" width="2.31" height="48.38" transform="translate(-86.48 465.5) rotate(-60)"/><rect class="cls-1" x="90.19" y="240.71" width="48.38" height="2.31"/><rect class="cls-1" x="353.33" y="240.71" width="48.38" height="2.31"/><rect class="cls-1" x="107.82" y="306.49" width="48.38" height="2.31" transform="translate(-136.17 107.27) rotate(-30.01)"/><rect class="cls-1" x="335.71" y="174.92" width="48.38" height="2.31" transform="translate(-39.81 203.61) rotate(-30.01)"/><rect class="cls-1" x="155.97" y="354.68" width="48.38" height="2.31" transform="translate(-218.07 333.8) rotate(-59.98)"/><rect class="cls-1" x="287.55" y="126.76" width="48.38" height="2.31" transform="translate(45.06 333.88) rotate(-59.99)"/><polygon class="cls-1" points="271.6 72.81 245.95 28.38 220.3 72.81 218.3 71.65 245.95 23.76 273.6 71.65 271.6 72.81"/><polygon class="cls-1" points="111.06 350.4 55.76 350.4 83.41 302.51 85.41 303.67 59.76 348.09 111.06 348.09 111.06 350.4"/><polygon class="cls-1" points="435.79 350.4 380.49 350.4 380.49 348.09 431.79 348.09 406.14 303.67 408.14 302.51 435.79 350.4"/><path class="cls-1" d="M384.24,352.31A176.66,176.66,0,0,0,421,244.42h-2.43a174.34,174.34,0,0,1-36.25,106.41Z"/><path class="cls-1" d="M370.32,359.41c-2.09,2.15-4.11,4.37-6.25,6.47-4-.24-7.91-.53-11.78-1,1.31-1.14,2.53-2.39,3.8-3.57s2.55-2.37,3.72-3.66c3.85.18,7.92.37,11.86.26C371.22,358.4,370.78,358.92,370.32,359.41Z"/><path class="cls-1" d="M358,371.62l-3.4,2.94c-1.13,1-2.27,2-3.47,2.88-4-.66-7.76-1.27-11.62-2.21,1.45-1,2.79-2.08,4.16-3.15s2.76-2.12,4.08-3.26c3.81.58,7.78,1.12,11.77,1.46C359,370.75,358.49,371.18,358,371.62Z"/><path class="cls-1" d="M344.46,382.52c-2.46,1.73-4.86,3.54-7.42,5.1-3.88-1-7.6-2.06-11.33-3.37L328,383l2.19-1.41,4.4-2.81c3.74,1,7.59,1.84,11.56,2.64Z"/><path class="cls-1" d="M329.91,392l-3.9,2.24c-1.3.74-2.66,1.38-4,2.08q-2.81-1.05-5.52-2.13c-1.82-.76-3.64-1.58-5.41-2.38,3.2-1.36,6.25-3,9.36-4.6,3.66,1.4,7.36,2.6,11.23,3.8Z"/><path class="cls-1" d="M314.49,400l-4.11,1.84-4.18,1.65c-1.79-.88-3.54-1.74-5.28-2.68s-3.46-1.94-5.14-2.92c1.64-.58,3.31-1.06,4.93-1.72l4.85-1.91c3.52,1.83,7.05,3.33,10.78,4.93Z"/><path class="cls-1" d="M298.33,406.32c-2.82,1-5.71,1.82-8.6,2.63-3.37-2.05-6.65-4.35-9.79-6.65,1.69-.4,3.39-.76,5.08-1.19l5-1.43c3.32,2.2,6.69,4.07,10.23,6Z"/><path class="cls-1" d="M281.61,411c-2.91.74-5.88,1.2-8.83,1.73-3.13-2.36-6.17-5-9.06-7.61l5.18-.66,5.13-.92c3.08,2.51,6.24,4.76,9.56,7Z"/><path class="cls-1" d="M264.5,413.9c-3,.45-6,.59-9,.83-2.88-2.67-5.64-5.63-8.25-8.48l5.22-.13,5.2-.4c2.81,2.8,5.73,5.37,8.8,8Z"/><path class="cls-1" d="M247.17,415.08c-3,.14-6,0-9-.07-2.6-2.95-5-6.15-7.35-9.27l5.2.39,5.22.12c2.52,3.08,5.17,5.92,8,8.8Z"/><path class="cls-1" d="M229.82,414.52c-3-.17-6-.61-8.95-1-2.29-3.19-4.39-6.63-6.38-10l5.14.91,5.17.65c2.19,3.32,4.55,6.4,7,9.56Z"/><path class="cls-1" d="M212.61,412.21c-3-.46-5.87-1.23-8.8-1.88-2-3.4-3.69-7.07-5.32-10.56l5,1.42,5.08,1.18c1.84,3.51,3.86,6.84,6,10.22Z"/><path class="cls-1" d="M195.73,408.16c-2.91-.75-5.71-1.85-8.56-2.77-1.59-3.59-2.94-7.43-4.22-11.05l4.85,1.92c1.62.62,3.29,1.12,4.93,1.7.75,1.8,1.51,3.65,2.34,5.44s1.7,3.55,2.6,5.34Z"/><path class="cls-1" d="M78,260.35a169.45,169.45,0,0,0,9.8,42.6c1.35,3.39,2.63,6.82,4.2,10.12s3.16,6.58,4.82,9.84a167.91,167.91,0,0,0,78.58,73.59l.47-1.06A166.29,166.29,0,0,1,139.2,372.7a169.82,169.82,0,0,1-15.79-14.79l-1.87-2-1.77-2-3.55-4.09-3.34-4.26-1.67-2.13-1.56-2.2a165.36,165.36,0,0,1-30.41-80Z"/><path class="cls-1" d="M177.2,396.71a1.76,1.76,0,1,1-3.37-1,2.17,2.17,0,0,1,.19-.41,1.76,1.76,0,1,1,3.18,1.44Z"/><path class="cls-1" d="M138.41,395a1.94,1.94,0,0,1-2.7.48h0a1.92,1.92,0,0,1-.45-2.68l0,0a1.93,1.93,0,0,1,3.23,2.12Z"/><path class="cls-1" d="M72.35,274.82c-1.63-1.07-3.29-2.17-4.92-3.3s-3.17-2.31-4.76-3.52a191.73,191.73,0,0,1-1.56-23.58H70.9q4.21,3.83,8.42,7.3l-9.47.41c0,1.9.26,3.8.37,5.7s.23,3.8.5,5.68C71.22,267.29,71.6,271.08,72.35,274.82Z"/><path class="cls-1" d="M120.46,381.41A194.76,194.76,0,0,0,136.09,394l.68-.95a185.34,185.34,0,0,1-15.17-12.21c-.2-4.3-.18-8.62-.11-12.76l-1.14.05C120.27,372.46,120.28,376.91,120.46,381.41Z"/><path class="cls-1" d="M399.59,331.81l-.33-1.08c-3.07.77-6.11,1.47-9.1,2.1s-6.15,1.08-9.15,1.52c-.92,1.51-2,2.93-3,4.37s-2,2.9-3.09,4.3c-2.21,2.76-4.31,5.61-6.68,8.23l.88.75c2.34-2.58,4.42-5.39,6.59-8.11,1.09-1.37,2-2.83,3.07-4.24s2.06-2.81,3-4.3c2.91-.44,5.88-.93,8.89-1.5S396.58,332.56,399.59,331.81Z"/><path class="cls-1" d="M367.08,350.58a1.78,1.78,0,0,1,2.46-.49l0,0a1.89,1.89,0,0,1,.79,2.53,1.75,1.75,0,0,1-2.43.53l-.09-.06A2,2,0,0,1,367.08,350.58Z"/><path class="cls-1" d="M94,309.56a163,163,0,0,0,15.3,27.56l-4.54,3.13A168.74,168.74,0,0,1,89,311.76Z"/><path class="cls-1" d="M104,136.53A176.73,176.73,0,0,0,67.23,244.42h2.43A174.19,174.19,0,0,1,105.91,138Z"/><path class="cls-1" d="M117.91,129.44c2.09-2.16,4.1-4.38,6.24-6.48,4,.25,7.91.53,11.79,1-1.32,1.13-2.53,2.38-3.81,3.57s-2.54,2.37-3.71,3.66c-3.85-.18-7.92-.38-11.87-.27C117,130.44,117.44,129.92,117.91,129.44Z"/><path class="cls-1" d="M130.26,117.22l3.4-2.94a44.6,44.6,0,0,1,3.46-2.87c4,.66,7.77,1.26,11.62,2.2-1.44,1-2.78,2.09-4.15,3.16s-2.77,2.11-4.08,3.25c-3.82-.57-7.79-1.11-11.78-1.46C129.22,118.09,129.74,117.66,130.26,117.22Z"/><path class="cls-1" d="M143.77,106.32c2.45-1.73,4.85-3.53,7.41-5.1,3.88,1,7.61,2.06,11.34,3.37l-2.26,1.3-2.2,1.41-4.39,2.81q-5.62-1.44-11.57-2.64Z"/><path class="cls-1" d="M158.31,96.83l3.9-2.24c1.31-.74,2.66-1.38,4-2.08q2.81,1,5.52,2.13c1.83.76,3.64,1.58,5.41,2.38-3.2,1.36-6.25,3-9.35,4.6-3.66-1.4-7.37-2.6-11.24-3.8Z"/><path class="cls-1" d="M173.74,88.87l4.1-1.84L182,85.38c1.79.88,3.54,1.74,5.27,2.68s3.48,2,5.16,3c-1.64.58-3.31,1.07-4.92,1.72l-4.85,1.91c-3.52-1.83-7.06-3.33-10.79-4.93Z"/><path class="cls-1" d="M189.9,82.53c2.82-1,5.71-1.82,8.6-2.63,3.36,2,6.64,4.34,9.78,6.64-1.69.4-3.39.76-5.07,1.19l-5,1.43c-3.32-2.2-6.68-4.06-10.22-6Z"/><path class="cls-1" d="M206.62,77.87c2.91-.74,5.87-1.2,8.82-1.74,3.14,2.37,6.18,5,9.06,7.61l-5.17.66-5.13.92c-3.08-2.51-6.25-4.75-9.56-7Z"/><path class="cls-1" d="M275.62,76.64c3,.46,5.87,1.22,8.79,1.87,2,3.41,3.69,7.07,5.33,10.57l-5-1.43-5.08-1.18c-1.84-3.51-3.87-6.84-6-10.22Z"/><path class="cls-1" d="M292.5,80.68c2.9.75,5.7,1.85,8.56,2.77,1.59,3.59,2.93,7.43,4.21,11l-4.85-1.91c-1.62-.63-3.28-1.13-4.92-1.7-.75-1.8-1.52-3.66-2.35-5.45s-1.69-3.55-2.59-5.34Z"/><path class="cls-1" d="M410.25,228.49a169.73,169.73,0,0,0-9.8-42.62c-1.34-3.39-2.62-6.82-4.2-10.11s-3.15-6.59-4.82-9.85a163.44,163.44,0,0,0-11.58-18.59,166.52,166.52,0,0,0-67-55l-.48,1.06a164.64,164.64,0,0,1,52.47,37.53l1.87,2,1.78,2L372,139l3.34,4.26L377,145.4l1.57,2.21a165.26,165.26,0,0,1,30.41,80Z"/><path class="cls-1" d="M311,92.13a1.76,1.76,0,1,1,3.37,1,2.17,2.17,0,0,1-.19.41,1.76,1.76,0,0,1-3.37-1A2.17,2.17,0,0,1,311,92.13Z"/><path class="cls-1" d="M349.81,93.88a1.93,1.93,0,0,1,2.7-.47h0a1.91,1.91,0,0,1,.46,2.66l0,0a1.93,1.93,0,1,1-3.15-2.24Z"/><path class="cls-1" d="M415.87,214c1.64,1.07,3.29,2.17,4.93,3.3s3.17,2.32,4.76,3.52a193.71,193.71,0,0,1,1.56,23.58h-9.8q-4.21-3.82-8.42-7.29l9.47-.41c0-1.91-.25-3.8-.37-5.7s-.22-3.81-.49-5.69C417,221.55,416.63,217.76,415.87,214Z"/><path class="cls-1" d="M367.76,107.43a192.86,192.86,0,0,0-15.62-12.6l-.68.94A189.6,189.6,0,0,1,366.63,108c.2,4.3.18,8.62.1,12.77l1.14-.06C368,116.39,368,111.93,367.76,107.43Z"/><path class="cls-1" d="M88.63,157l.38,1.1q4.62-1.16,9.11-2.1c3.07-.58,6.11-1.08,9.1-1.52.92-1.51,2-2.93,3-4.37s2-2.9,3.1-4.3c2.2-2.76,4.3-5.6,6.68-8.22l-.88-.76c-2.35,2.58-4.42,5.39-6.6,8.12-1.08,1.36-2,2.82-3.06,4.23s-2.07,2.81-3,4.31c-2.92.43-5.88.92-8.89,1.49S91.65,156.28,88.63,157Z"/><path class="cls-1" d="M121.14,138.26a1.78,1.78,0,0,1-2.46.49l-.05,0a1.91,1.91,0,0,1-.79-2.53,1.76,1.76,0,0,1,2.42-.53l.1.07A2,2,0,0,1,121.14,138.26Z"/><path class="cls-1" d="M394.17,179.28a161.83,161.83,0,0,0-15.3-27.55l4.54-3.13a168.27,168.27,0,0,1,15.82,28.49Z"/><g class="cls-3"><path class="cls-1" d="M205.34,167.48a88.87,88.87,0,1,0,119.48,39,88.88,88.88,0,0,0-119.48-39Zm66.92,131.78A58.93,58.93,0,1,1,298.12,220a58.93,58.93,0,0,1-25.86,79.25Z"/></g></g></g></g></g></svg>