<svg xmlns="http://www.w3.org/2000/svg" viewBox="0 0 496.41 117.22"><defs><style>.cls-1{fill:#11e5b3;}</style></defs><title>burger_link_green_01</title><g id="Layer_2" data-name="Layer 2"><g id="Layer_1-2" data-name="Layer 1"><g id="Layer_2-2" data-name="Layer 2"><g id="Layer_1-2-2" data-name="Layer 1-2"><path class="cls-1" d="M.51,83.73,5.23,80.9a1,1,0,0,1,.54-.15H51.53l6.12-1.68h53.71a1.06,1.06,0,0,1,1.06,1.05,1.09,1.09,0,0,1-.26.71l-3.92,4.55a1.06,1.06,0,0,1-.8.37H1.05a1,1,0,0,1-1-.79A1.06,1.06,0,0,1,.51,83.73Z"/><path class="cls-1" d="M437.71,56.23a3,3,0,1,0,0-.06Z"/><path class="cls-1" d="M450.63,56.65h45.42a.44.44,0,0,0,.36-.49.44.44,0,0,0-.36-.36H450.63a.42.42,0,0,0-.36.49A.44.44,0,0,0,450.63,56.65Z"/><path class="cls-1" d="M385.26,56.65h45.42a.44.44,0,0,0,.36-.49.44.44,0,0,0-.36-.36H385.26a.42.42,0,0,0-.36.49A.44.44,0,0,0,385.26,56.65Z"/><path class="cls-1" d="M450.63,56.65h45.42a.44.44,0,0,0,.36-.49.44.44,0,0,0-.36-.36H450.63a.42.42,0,0,0-.36.49A.44.44,0,0,0,450.63,56.65Z"/><path class="cls-1" d="M385.26,56.65h45.42a.44.44,0,0,0,.36-.49.44.44,0,0,0-.36-.36H385.26a.42.42,0,0,0-.36.49A.44.44,0,0,0,385.26,56.65Z"/><path class="cls-1" d="M440.65,46.6a.42.42,0,0,0,.42-.42h0V.42a.42.42,0,1,0-.84,0V46.18A.42.42,0,0,0,440.65,46.6Z"/><path class="cls-1" d="M440.65,112.45a.42.42,0,0,0,.42-.42h0V66.28a.42.42,0,0,0-.42-.42.42.42,0,0,0-.42.42h0V112a.42.42,0,0,0,.39.45Z"/><path class="cls-1" d="M402.65,57.82a38.19,38.19,0,0,0,34.64,36.57V97a40.76,40.76,0,0,1-37.21-39.17Z"/><path class="cls-1" d="M444,94.39a38.2,38.2,0,0,0,34.64-36.57h2.57A40.78,40.78,0,0,1,444,97Z"/><path class="cls-1" d="M444,15.46A40.78,40.78,0,0,1,481.2,54.64h-2.57A38.2,38.2,0,0,0,444,18.06Z"/><path class="cls-1" d="M437.29,15.46v2.6a38.2,38.2,0,0,0-34.64,36.58h-2.57A40.76,40.76,0,0,1,437.29,15.46Z"/><path class="cls-1" d="M440.9,104.13h-2.07v.43A52,52,0,0,1,406.64,92.8V90a48.13,48.13,0,0,1,0-67.45V19.68A52,52,0,0,1,438.83,7.92v.43h3.65V7.92a52,52,0,0,1,32.19,11.76V22.5a48.17,48.17,0,0,1,0,67.45v2.82a52,52,0,0,1-32.19,11.76v-.43C442,104.12,441.43,104.13,440.9,104.13Zm1.58-1.72v-.57a49.48,49.48,0,0,0,16.29-3,46.36,46.36,0,0,0,0-85.14,49.28,49.28,0,0,0-16.29-3v-.56h-3.65v.56a49.29,49.29,0,0,0-16.3,3,46.36,46.36,0,0,0,0,85.14,49.59,49.59,0,0,0,16.3,3v.57h2.07C441.43,102.44,442,102.42,442.48,102.41Z"/><path class="cls-1" d="M430.34,56.23a9.86,9.86,0,0,1,.13-1.63h-1.28A11.66,11.66,0,0,1,439,44.68V46a9.67,9.67,0,0,1,3.22,0V44.68a11.65,11.65,0,0,1,9.85,9.92h-1.27a11.06,11.06,0,0,1,0,3.25h1.27a11.65,11.65,0,0,1-9.85,9.92V66.49a10.86,10.86,0,0,1-3.22,0v1.28a11.66,11.66,0,0,1-9.85-9.92h1.28A9.83,9.83,0,0,1,430.34,56.23Zm19.78,0a9.47,9.47,0,1,0-9.47,9.54A9.47,9.47,0,0,0,450.12,56.23Z"/><ellipse class="cls-1" cx="260.78" cy="105.68" rx="2.95" ry="2.97"/><path class="cls-1" d="M250.47,105.68a11.08,11.08,0,0,1,.13-1.63h-1.28a11.65,11.65,0,0,1,9.85-9.91v1.28a9.67,9.67,0,0,1,3.22,0V94.14a11.62,11.62,0,0,1,9.85,9.91H271a10.48,10.48,0,0,1,0,3.26h1.28a11.62,11.62,0,0,1-9.85,9.91v-1.28a10.23,10.23,0,0,1-3.22,0v1.28a11.66,11.66,0,0,1-9.85-9.91h1.28A9.89,9.89,0,0,1,250.47,105.68Zm19.78,0a9.47,9.47,0,1,0-9.47,9.54A9.47,9.47,0,0,0,270.25,105.68Z"/><path class="cls-1" d="M48.41,85.24H316a.45.45,0,0,0,.38-.21c11-16.57,23.65-34.21,25.56-34.27h47.71a.46.46,0,0,0,.45-.46.45.45,0,0,0-.45-.45H342c-3.16,0-22,28.25-26.18,34.48H48.41a.46.46,0,0,0-.46.45A.47.47,0,0,0,48.41,85.24Z"/><path class="cls-1" d="M106,106.09H248.72a.41.41,0,1,0,0-.82H106.14l-17-16.73a.36.36,0,0,0-.28-.12H1a.41.41,0,0,0-.41.41.41.41,0,0,0,.41.41h87.7l17,16.73A.39.39,0,0,0,106,106.09Z"/><path class="cls-1" d="M246.39,101H108.31L95.86,88.44H257A17.11,17.11,0,0,0,246.39,101Z"/><path class="cls-1" d="M449.56,21.6v25a19.62,19.62,0,0,0-4.93-4.38V21A22.77,22.77,0,0,1,449.56,21.6Z"/><path class="cls-1" d="M431.93,91.21v-25a19.73,19.73,0,0,0,4.92,4.37V91.77A23.19,23.19,0,0,1,431.93,91.21Z"/><path class="cls-1" d="M449.56,21.6v25a19.62,19.62,0,0,0-4.93-4.38V21A22.77,22.77,0,0,1,449.56,21.6Z"/><path class="cls-1" d="M431.93,91.21v-25a19.73,19.73,0,0,0,4.92,4.37V91.77A23.19,23.19,0,0,1,431.93,91.21Z"/><path class="cls-1" d="M406.19,47.53H431a19.82,19.82,0,0,0-4.35,5h-21A22.73,22.73,0,0,1,406.19,47.53Z"/><path class="cls-1" d="M475.29,65.29H450.5a19.78,19.78,0,0,0,4.34-5h21A23.35,23.35,0,0,1,475.29,65.29Z"/></g></g></g></g></svg>