<svg xmlns="http://www.w3.org/2000/svg" viewBox="0 0 284.42 489.69"><defs><style>.cls-1,.cls-2,.cls-3,.cls-4,.cls-5,.cls-6,.cls-7,.cls-8,.cls-9{fill:#9f6af5;}.cls-1{opacity:0.35;}.cls-1,.cls-3,.cls-4,.cls-5,.cls-6,.cls-7,.cls-8,.cls-9{isolation:isolate;}.cls-3{opacity:0.7;}.cls-4{opacity:0.4;}.cls-5{opacity:0.2;}.cls-6{opacity:0.5;}.cls-7{opacity:0.6;}.cls-8{opacity:0.9;}.cls-9{opacity:0.8;}</style></defs><title>burger_menu_purple</title><g id="Layer_2" data-name="Layer 2"><g id="Layer_1-2" data-name="Layer 1"><g id="Layer_2-2" data-name="Layer 2"><g id="Layer_1-2-2" data-name="Layer 1-2"><polygon class="cls-1" points="45.82 10.04 29 10.04 29 146.28 42.88 161.79 42.88 357.02 29 382.04 29 480.36 263.31 480.36 263.31 406.38 243.2 387.21 243.2 96.81 263.31 83.67 263.31 10.04 220.94 10.04 210.95 20.04 50.52 20.04 45.82 10.04"/><path class="cls-2" d="M263.87,8.91v74.5l-20.1,13.14V386.4l20.1,19.17v74.79H28.43v-99l13.88-25V161.44L28.43,145.93V8.91H46.17l4.71,10H210.71l10-10Zm-1.13,73.88V10.05H221.18l-10,10h-161l-4.7-10H29.56V145.49L43.45,161V356.6l-13.89,25v97.61H262.74V406.06l-20.1-19.18V95.94Z"/><path class="cls-2" d="M20.52,394.2v83.9a2.26,2.26,0,0,0,2.26,2.26H29.2V381.14h-.92Z"/><path class="cls-2" d="M284.42,427.56v58.3a1.59,1.59,0,0,1-1.6,1.58h-4.53V418.49h.65Z"/><path class="cls-2" d="M23.92,11.13v93.31l3.39,3.65v36.22a2.41,2.41,0,0,0,0,.38l1.65,1.8a2.65,2.65,0,0,0,.48.07V8.87h-3.3A2.26,2.26,0,0,0,23.92,11.13Z"/><path class="cls-2" d="M9.8,41.68v67.68L12.35,112v26.27a1.22,1.22,0,0,0,0,.27l1.24,1.31a1.09,1.09,0,0,0,.36,0V40H11.5a1.67,1.67,0,0,0-1.7,1.64Z"/><path class="cls-2" d="M262.35,404.06v76.4h8.21a2.26,2.26,0,0,0,2.26-2.26h0V414.49Z"/><polygon class="cls-2" points="220.47 9 220.47 9.62 262.92 9.62 262.92 83.75 263.41 83.75 272.54 77.7 272.54 9.62 272.54 9.05 272.54 0 230.02 0 220.47 9"/><rect class="cls-3" x="111.82" y="8.39" width="14.34" height="5.28"/><rect class="cls-2" x="73.34" y="8.39" width="14.34" height="5.28"/><rect class="cls-3" x="92.58" y="8.39" width="14.34" height="5.28"/><rect class="cls-4" x="131.06" y="8.39" width="14.34" height="5.28"/><rect class="cls-4" x="150.3" y="8.39" width="14.34" height="5.28"/><polygon class="cls-5" points="188.78 13.68 206.89 13.68 215.19 8.39 188.78 8.39 188.78 13.68"/><polygon class="cls-2" points="68.43 8.39 53.67 8.39 55.98 13.68 68.43 13.68 68.43 8.39"/><rect class="cls-5" x="169.54" y="8.39" width="14.34" height="5.28"/><rect class="cls-6" x="248.77" y="245.89" width="8.49" height="16.41"/><rect class="cls-7" x="248.77" y="269.66" width="8.49" height="16.41"/><rect class="cls-4" x="248.77" y="222.12" width="8.49" height="16.41"/><polygon class="cls-4" points="257.26 214.76 257.26 94.06 248.77 102.15 248.77 214.76 257.26 214.76"/><rect class="cls-3" x="248.77" y="293.42" width="8.49" height="16.41"/><polygon class="cls-2" points="248.77 364.73 248.77 380.01 257.26 387.97 257.26 364.73 248.77 364.73"/><rect class="cls-8" x="248.77" y="340.96" width="8.49" height="16.41"/><rect class="cls-9" x="248.77" y="317.19" width="8.49" height="16.41"/><path class="cls-2" d="M38.25,168.36V352.84a.56.56,0,0,1-.09.31l-10.75,17a.57.57,0,0,1-.77.19h0a.57.57,0,0,1-.17-.78l10.66-16.84V168.56l-23.64-28.7a.59.59,0,0,1-.13-.36v-99a.57.57,0,0,1,.57-.56.56.56,0,0,1,.56.56h0v98.83L38.12,168A.53.53,0,0,1,38.25,168.36Z"/><path class="cls-2" d="M279.33,419.06V487a.56.56,0,0,1-.55.57H21.28a.57.57,0,0,1-.15-1.13H278.2V419.06a.57.57,0,0,1,1.13-.15.38.38,0,0,1,0,.15Z"/><polygon class="cls-2" points="258.55 79.74 236.98 94.57 236.98 212.41 236.42 212.41 236.42 94.27 258.23 79.28 258.55 79.74"/><polygon class="cls-2" points="127.67 25.47 127.67 26.03 47.16 26.03 41.41 17.42 41.88 17.1 47.46 25.47 127.67 25.47"/><circle class="cls-2" cx="22.8" cy="486.86" r="2.83"/><path class="cls-2" d="M263.87,8.91v74.5l-20.1,13.14V386.4l20.1,19.17v74.79H28.43v-99l13.88-25V161.44L28.43,145.93V8.91H46.17l4.71,10H210.71l10-10Zm-1.13,73.88V10.05H221.18l-10,10h-161l-4.7-10H29.56V145.49L43.45,161V356.6l-13.89,25v97.61H262.74V406.06l-20.1-19.18V95.94Z"/><path class="cls-2" d="M20.52,394.2v83.9a2.26,2.26,0,0,0,2.26,2.26H29.2V381.14h-.92Z"/><path class="cls-2" d="M284.42,427.56v58.3a1.59,1.59,0,0,1-1.6,1.58h-4.53V418.49h.65Z"/><path class="cls-2" d="M23.92,11.13v93.31l3.39,3.65v36.22a2.41,2.41,0,0,0,0,.38l1.65,1.8a2.65,2.65,0,0,0,.48.07V8.87h-3.3A2.26,2.26,0,0,0,23.92,11.13Z"/><path class="cls-2" d="M9.8,41.68v67.68L12.35,112v26.27a1.22,1.22,0,0,0,0,.27l1.24,1.31a1.09,1.09,0,0,0,.36,0V40H11.5a1.67,1.67,0,0,0-1.7,1.64Z"/><path class="cls-2" d="M262.35,404.06v76.4h8.21a2.26,2.26,0,0,0,2.26-2.26h0V414.49Z"/><polygon class="cls-2" points="220.47 9 220.47 9.62 262.92 9.62 262.92 83.75 263.41 83.75 272.54 77.7 272.54 9.62 272.54 9.05 272.54 0 230.02 0 220.47 9"/><rect class="cls-3" x="111.82" y="8.39" width="14.34" height="5.28"/><rect class="cls-2" x="73.34" y="8.39" width="14.34" height="5.28"/><rect class="cls-3" x="92.58" y="8.39" width="14.34" height="5.28"/><rect class="cls-4" x="131.06" y="8.39" width="14.34" height="5.28"/><rect class="cls-4" x="150.3" y="8.39" width="14.34" height="5.28"/><polygon class="cls-5" points="188.78 13.68 206.89 13.68 215.19 8.39 188.78 8.39 188.78 13.68"/><polygon class="cls-2" points="68.43 8.39 53.67 8.39 55.98 13.68 68.43 13.68 68.43 8.39"/><rect class="cls-5" x="169.54" y="8.39" width="14.34" height="5.28"/><rect class="cls-6" x="248.77" y="245.89" width="8.49" height="16.41"/><rect class="cls-7" x="248.77" y="269.66" width="8.49" height="16.41"/><rect class="cls-4" x="248.77" y="222.12" width="8.49" height="16.41"/><rect class="cls-3" x="248.77" y="293.42" width="8.49" height="16.41"/><polygon class="cls-2" points="248.77 364.73 248.77 380.01 257.26 387.97 257.26 364.73 248.77 364.73"/><rect class="cls-8" x="248.77" y="340.96" width="8.49" height="16.41"/><rect class="cls-9" x="248.77" y="317.19" width="8.49" height="16.41"/><circle class="cls-2" cx="22.8" cy="486.86" r="2.83"/><path class="cls-2" d="M14.76,205.74v-9.06L20,204v8.43H13.43L0,193.11H6ZM0,212.44V196.68l5.93,8.12v7.64Zm21.26-19.33,13.43,19.33h-6.5L14.76,193.11Z"/><path class="cls-2" d="M9.2,229v8.71H28.5V243H9.2L4,237.75v-14Zm21.51-5.31L25.46,229H9.2v-5.31ZM12.06,235.85v-5.34H28.53l-4,5.34Z"/><path class="cls-2" d="M12.39,251.37,29.11,270.7H22L5.58,251.37ZM5.58,270.7V255l5.25,6v9.68Zm23.53-19.33v15.75l-5.22-6.07v-9.68Z"/><path class="cls-2" d="M9.2,280.55v14H25.49v5.31H9.2L4,294.57v-14Zm16.29,0h5.22v19.33l-5.22-5.31Z"/></g></g></g></g></svg>