<svg xmlns="http://www.w3.org/2000/svg" xmlns:xlink="http://www.w3.org/1999/xlink" viewBox="0 0 371.78 488.53"><defs><style>.cls-1{opacity:0.35;fill:url(#New_Gradient_Swatch_5);}.cls-2{fill:url(#New_Gradient_Swatch_5-2);}.cls-3{fill:url(#New_Gradient_Swatch_5-3);}.cls-4{fill:url(#New_Gradient_Swatch_5-4);}.cls-5{fill:url(#New_Gradient_Swatch_5-5);}.cls-6{fill:url(#New_Gradient_Swatch_5-6);}.cls-7{fill:url(#New_Gradient_Swatch_5-7);}.cls-8{fill:url(#New_Gradient_Swatch_5-8);}.cls-9{fill:url(#New_Gradient_Swatch_5-9);}.cls-10{fill:url(#New_Gradient_Swatch_5-10);}.cls-11{fill:url(#New_Gradient_Swatch_5-11);}.cls-12{fill:url(#New_Gradient_Swatch_5-12);}.cls-13{fill:url(#New_Gradient_Swatch_5-13);}.cls-14{fill:url(#New_Gradient_Swatch_5-14);}.cls-15{fill:url(#New_Gradient_Swatch_5-15);}.cls-16{fill:url(#New_Gradient_Swatch_5-16);}.cls-17{fill:url(#New_Gradient_Swatch_5-17);}.cls-18{fill:url(#New_Gradient_Swatch_5-18);}.cls-19{fill:url(#New_Gradient_Swatch_5-19);}.cls-20{fill:url(#New_Gradient_Swatch_5-20);}</style><linearGradient id="New_Gradient_Swatch_5" x1="14.12" y1="247.81" x2="351.68" y2="247.81" gradientUnits="userSpaceOnUse"><stop offset="0" stop-color="#11e5b3"/><stop offset="0.14" stop-color="#15dcb8"/><stop offset="0.36" stop-color="#21c4c6"/><stop offset="0.64" stop-color="#359edc"/><stop offset="0.97" stop-color="#4f68fb"/><stop offset="1" stop-color="#5263fe"/></linearGradient><linearGradient id="New_Gradient_Swatch_5-2" x1="13.34" y1="247.81" x2="352.46" y2="247.81" xlink:href="#New_Gradient_Swatch_5"/><linearGradient id="New_Gradient_Swatch_5-3" x1="0" y1="181.27" x2="14.62" y2="181.27" xlink:href="#New_Gradient_Swatch_5"/><linearGradient id="New_Gradient_Swatch_5-4" x1="47.08" y1="484.06" x2="94.93" y2="484.06" xlink:href="#New_Gradient_Swatch_5"/><linearGradient id="New_Gradient_Swatch_5-5" x1="352.9" y1="82.9" x2="367.52" y2="82.9" xlink:href="#New_Gradient_Swatch_5"/><linearGradient id="New_Gradient_Swatch_5-6" x1="35.71" y1="473.92" x2="326.07" y2="473.92" xlink:href="#New_Gradient_Swatch_5"/><linearGradient id="New_Gradient_Swatch_5-7" x1="25.56" y1="397.1" x2="33.49" y2="397.1" xlink:href="#New_Gradient_Swatch_5"/><linearGradient id="New_Gradient_Swatch_5-8" x1="36.72" y1="25.36" x2="315.58" y2="25.36" xlink:href="#New_Gradient_Swatch_5"/><linearGradient id="New_Gradient_Swatch_5-9" x1="331.1" y1="344.77" x2="351.07" y2="344.77" xlink:href="#New_Gradient_Swatch_5"/><linearGradient id="New_Gradient_Swatch_5-10" x1="112.27" y1="464.95" x2="354.51" y2="464.95" xlink:href="#New_Gradient_Swatch_5"/><linearGradient id="New_Gradient_Swatch_5-11" x1="0.83" y1="357.16" x2="29.62" y2="357.16" xlink:href="#New_Gradient_Swatch_5"/><linearGradient id="New_Gradient_Swatch_5-12" x1="7.52" y1="35.02" x2="313.1" y2="35.02" xlink:href="#New_Gradient_Swatch_5"/><linearGradient id="New_Gradient_Swatch_5-13" x1="24.36" y1="14.31" x2="231.72" y2="14.31" xlink:href="#New_Gradient_Swatch_5"/><linearGradient id="New_Gradient_Swatch_5-14" x1="200.05" y1="483.53" x2="321.23" y2="483.53" xlink:href="#New_Gradient_Swatch_5"/><linearGradient id="New_Gradient_Swatch_5-15" x1="343.37" y1="273.43" x2="355.73" y2="273.43" xlink:href="#New_Gradient_Swatch_5"/><linearGradient id="New_Gradient_Swatch_5-16" x1="343.77" y1="286.52" x2="358.99" y2="286.52" xlink:href="#New_Gradient_Swatch_5"/><linearGradient id="New_Gradient_Swatch_5-17" x1="279.82" y1="34.52" x2="368.52" y2="34.52" xlink:href="#New_Gradient_Swatch_5"/><linearGradient id="New_Gradient_Swatch_5-18" x1="305.4" y1="21.31" x2="371.78" y2="21.31" xlink:href="#New_Gradient_Swatch_5"/><linearGradient id="New_Gradient_Swatch_5-19" x1="23.36" y1="104.44" x2="218.1" y2="104.44" xlink:href="#New_Gradient_Swatch_5"/><linearGradient id="New_Gradient_Swatch_5-20" x1="239.85" y1="372.39" x2="330.76" y2="372.39" xlink:href="#New_Gradient_Swatch_5"/></defs><title>card_frame_02</title><g id="Layer_2" data-name="Layer 2"><g id="Layer_1-2" data-name="Layer 1"><polygon class="cls-1" points="14.12 67.75 14.12 290.69 25.56 340.99 25.56 450.74 36.32 474.75 96.57 474.75 107.87 466.74 272.8 466.74 286.51 472.46 324.24 472.46 340.25 449.6 340.25 405.01 331.1 378.71 331.1 239.24 347.11 218.66 347.11 144.35 351.68 144.35 351.68 20.88 36.72 20.88 14.12 67.75"/><path class="cls-2" d="M352.46,20.1v125h-4.57v73.79l-16,20.58V378.58l9.15,26.3v45l-16.38,23.4H286.36l-13.72-5.71H108.12l-11.3,8h-61l-11-24.62V341.08L13.34,290.77V67.58l.08-.17L36.23,20.1Zm-1.57,123.47V21.67H37.22L14.91,67.93V290.6l11.43,50.3V450.57L36.83,474H96.32l11.3-8H273l13.72,5.72h37.16l15.63-22.33V405.14l-9.14-26.29V239l16-20.58V143.57Z"/><polygon class="cls-3" points="0 155.9 0 169.29 7.92 169.29 7.92 172.95 0 172.95 0 180.87 7.92 180.87 7.92 184.52 0 184.52 0 192.44 7.92 192.44 7.92 196.09 0 196.09 0 204.01 7.92 204.01 7.92 207.66 0 207.66 0 215.58 7.92 215.58 7.92 219.23 0 219.23 0 229.58 7.92 229.58 7.92 275.26 14.62 294.8 14.62 170 14.12 67.75 0 155.9"/><polygon class="cls-4" points="47.08 479.6 47.08 488.53 52.02 488.53 52.02 482.31 54.89 482.31 54.89 488.53 61.11 488.53 61.11 482.31 63.98 482.31 63.98 488.53 70.21 488.53 70.21 482.31 73.08 482.31 73.08 488.53 79.3 488.53 79.3 482.31 82.17 482.31 82.17 488.53 88.39 488.53 88.39 482.31 91.26 482.31 91.26 488.53 94.93 488.53 94.93 479.6 47.08 479.6"/><polygon class="cls-5" points="352.9 140.62 352.93 145.54 367.52 145.54 367.52 141.29 359.6 141.29 359.6 137.77 367.52 137.77 367.52 130.13 359.6 130.13 359.6 126.61 367.52 126.61 367.52 118.97 359.6 118.97 359.6 115.45 367.52 115.45 367.52 107.82 359.6 107.82 359.6 104.29 367.52 104.29 367.52 96.66 359.6 96.66 359.6 93.13 367.52 93.13 367.52 83.15 359.6 83.15 359.6 39.1 352.9 20.25 352.9 140.62"/><polygon class="cls-6" points="35.71 474.75 44.55 481.09 101.81 481.09 112.27 473.17 271.93 473.17 285.47 478.65 314.41 478.65 326.07 472.46 289.78 471.96 274.06 466.74 108.04 466.74 96.62 474.75 35.71 474.75"/><polygon class="cls-7" points="33.49 343.46 27.4 343.46 25.56 344.69 25.56 450.74 33.49 443.86 33.49 343.46"/><polygon class="cls-8" points="99.26 25.58 114.49 29.84 306.62 29.84 315.58 20.88 36.72 20.88 46.28 25.58 99.26 25.58"/><polygon class="cls-9" points="340.25 449.6 351.07 439.07 351.07 395.23 339.5 373.91 339.5 319.1 336.46 306.92 336.46 255.16 331.59 239.94 331.1 378.71 340.25 405.01 340.25 449.6"/><path class="cls-10" d="M354.51,445.77a.39.39,0,0,1-.07.23l-24.36,33.49a.33.33,0,0,1-.13.11l-8.52,4.88a.46.46,0,0,1-.2,0H281l-.15,0-11.5-4.84H120.69l-7.82,4.81a.4.4,0,0,1-.42-.67l7.92-4.87a.37.37,0,0,1,.21-.06H269.47a.37.37,0,0,1,.15,0l11.5,4.84h40l8.36-4.78,24.31-33.42a.4.4,0,0,1,.55-.09A.39.39,0,0,1,354.51,445.77Z"/><path class="cls-11" d="M29.62,477.44a.39.39,0,0,1-.24.36.39.39,0,0,1-.51-.22L18.52,452a.4.4,0,0,1,0-.15V342.3L.84,276.58a.41.41,0,0,1,0-.11V236.89a.38.38,0,0,1,.39-.39.39.39,0,0,1,.39.39v39.53l17.65,65.72a.38.38,0,0,1,0,.1V451.78l10.32,25.51A.4.4,0,0,1,29.62,477.44Z"/><path class="cls-12" d="M313.1,12.79a.38.38,0,0,1-.39.39h-69.5l-11.54-2.43H33.13L8.27,59.86a.39.39,0,1,1-.7-.36l25-49.32a.39.39,0,0,1,.35-.22H231.8l11.53,2.43h69.38A.38.38,0,0,1,313.1,12.79Z"/><polygon class="cls-13" points="24.36 26.19 24.36 21.92 34.1 2.44 71.86 2.44 82.21 6.7 220.75 6.7 231.72 10.35 32.88 10.35 24.36 26.19"/><polygon class="cls-14" points="200.05 479.87 206.75 483.53 266.43 483.53 278 487.79 318.19 487.79 321.24 484.14 281.04 484.14 269.47 479.26 200.05 479.87"/><path class="cls-15" d="M355.73,163.21v91.95a.39.39,0,0,1-.39.39H344.16v53.73l3.62,9.07a.32.32,0,0,1,0,.14v55.94l4.23,9.06a.39.39,0,1,1-.71.33l-4.26-9.13a.35.35,0,0,1,0-.17V318.57l-3.63-9.06a.4.4,0,0,1,0-.15v-54.2a.39.39,0,0,1,.4-.39H355V163.21a.39.39,0,0,1,.39-.4A.4.4,0,0,1,355.73,163.21Z"/><polygon class="cls-16" points="347.42 355.03 352.9 363.56 352.9 313.62 348.64 304.49 348.64 260.03 358.99 260.03 358.99 218.01 355.95 209.49 355.34 255.16 343.77 255.16 343.77 309.36 347.42 318.49 347.42 355.03"/><polygon class="cls-17" points="368.52 30.38 368.52 63.33 367.73 63.33 367.73 30.52 358.72 6.48 279.82 6.48 279.82 5.7 359.26 5.7 368.52 30.38"/><polygon class="cls-18" points="311.43 0 305.4 5.48 358.99 5.48 368.13 30.45 368.13 42.63 371.78 37.76 371.78 25.58 360.98 0 311.43 0"/><path class="cls-19" d="M218.1,37.15a.39.39,0,0,1-.39.39H38.61L24.14,67.08V171.73a.39.39,0,1,1-.78,0V67a.39.39,0,0,1,0-.18L38,37a.41.41,0,0,1,.36-.21H217.71A.38.38,0,0,1,218.1,37.15Z"/><path class="cls-20" d="M330.76,404.36v39.58a.34.34,0,0,1-.07.22l-14,20.71a.4.4,0,0,1-.33.17H293.22a.35.35,0,0,1-.17,0l-10.27-4.83H240.24a.4.4,0,0,1,0-.79h42.63a.53.53,0,0,1,.17,0l10.27,4.84h22.84L330,443.82V404.43l-10.33-26.11a.4.4,0,0,1,0-.15v-98a.4.4,0,0,1,.79,0v98l10.32,26.12A.32.32,0,0,1,330.76,404.36Z"/></g></g></svg>