<svg xmlns="http://www.w3.org/2000/svg" xmlns:xlink="http://www.w3.org/1999/xlink" viewBox="0 0 590.93 77.77"><defs><style>.cls-1{fill:none;}.cls-2{isolation:isolate;}.cls-3{clip-path:url(#clip-path);}.cls-4{opacity:0.56;mix-blend-mode:screen;}.cls-5{fill:url(#Безымянный_градиент_59);}.cls-6{fill:url(#Безымянный_градиент_59-2);}.cls-7{fill:url(#Безымянный_градиент_59-3);}.cls-8{fill:url(#Безымянный_градиент_59-4);}.cls-9{fill:url(#Безымянный_градиент_59-5);}.cls-10{fill:url(#Безымянный_градиент_59-6);}.cls-11{fill:url(#Безымянный_градиент_59-7);}.cls-12{fill:url(#Безымянный_градиент_59-8);}.cls-13{fill:url(#Безымянный_градиент_59-9);}.cls-14{fill:url(#Безымянный_градиент_59-10);}.cls-15{fill:url(#Безымянный_градиент_59-11);}.cls-16{fill:url(#Безымянный_градиент_59-12);}.cls-17{fill:url(#Безымянный_градиент_59-13);}.cls-18{fill:url(#Безымянный_градиент_59-14);}.cls-19{fill:url(#Безымянный_градиент_59-15);}.cls-20{fill:url(#Безымянный_градиент_59-16);}.cls-21{fill:url(#Безымянный_градиент_59-17);}.cls-22{fill:url(#Безымянный_градиент_59-18);}.cls-23{fill:url(#Безымянный_градиент_59-19);}.cls-24{fill:url(#Безымянный_градиент_59-20);}.cls-25{fill:url(#Безымянный_градиент_59-21);}.cls-26{fill:url(#Безымянный_градиент_59-22);}.cls-27{fill:url(#Безымянный_градиент_59-23);}.cls-28{fill:url(#Безымянный_градиент_59-24);}.cls-29{fill:url(#Безымянный_градиент_59-25);}.cls-30{fill:url(#Безымянный_градиент_59-26);}.cls-31{fill:url(#Безымянный_градиент_59-27);}.cls-32{fill:url(#Безымянный_градиент_59-28);}.cls-33{fill:url(#Безымянный_градиент_59-29);}.cls-34{fill:url(#Безымянный_градиент_59-30);}.cls-35{fill:url(#Безымянный_градиент_59-31);}.cls-36{fill:url(#Безымянный_градиент_59-32);}.cls-37{fill:url(#Безымянный_градиент_59-33);}.cls-38{fill:url(#Безымянный_градиент_59-34);}.cls-39{fill:url(#Безымянный_градиент_59-35);}.cls-40{fill:url(#Безымянный_градиент_59-36);}.cls-41{fill:url(#New_Gradient_Swatch_2);}.cls-42{fill:url(#New_Gradient_Swatch_1);}.cls-43{fill:url(#New_Gradient_Swatch_1-2);}.cls-44{fill:url(#New_Gradient_Swatch_1-3);}.cls-45{fill:url(#New_Gradient_Swatch_1-4);}.cls-46{fill:url(#New_Gradient_Swatch_1-5);}.cls-47{fill:url(#New_Gradient_Swatch_1-6);}.cls-48{fill:url(#New_Gradient_Swatch_1-7);}.cls-49{fill:url(#New_Gradient_Swatch_1-8);}.cls-50{fill:url(#New_Gradient_Swatch_1-9);}.cls-51{fill:url(#New_Gradient_Swatch_1-10);}.cls-52{fill:url(#New_Gradient_Swatch_1-11);}.cls-53{fill:url(#New_Gradient_Swatch_1-12);}.cls-54{fill:url(#New_Gradient_Swatch_1-13);}.cls-55{fill:url(#New_Gradient_Swatch_1-14);}</style><clipPath id="clip-path" transform="translate(12.1)"><rect id="SVGID" class="cls-1" x="36.56" y="12.79" width="421.91" height="58.35"/></clipPath><linearGradient id="Безымянный_градиент_59" x1="154.89" y1="110.46" x2="154.89" y2="158.82" gradientTransform="matrix(1, 0, 0, -1, 12.1, 180.14)" gradientUnits="userSpaceOnUse"><stop offset="0"/><stop offset="0.14" stop-color="#03242d"/><stop offset="0.37" stop-color="#07596e"/><stop offset="0.58" stop-color="#0b83a2"/><stop offset="0.76" stop-color="#0da1c7"/><stop offset="0.91" stop-color="#0eb3de"/><stop offset="1" stop-color="#0fbae6"/></linearGradient><linearGradient id="Безымянный_градиент_59-2" x1="112.89" y1="110.39" x2="112.89" y2="163.61" xlink:href="#Безымянный_градиент_59"/><linearGradient id="Безымянный_градиент_59-3" x1="205.32" y1="110.49" x2="205.32" y2="153.61" xlink:href="#Безымянный_градиент_59"/><linearGradient id="Безымянный_градиент_59-4" x1="156.47" y1="110.39" x2="156.47" y2="163.61" xlink:href="#Безымянный_градиент_59"/><linearGradient id="Безымянный_градиент_59-5" x1="161.25" y1="110.39" x2="161.25" y2="163.61" xlink:href="#Безымянный_градиент_59"/><linearGradient id="Безымянный_градиент_59-6" x1="231.53" y1="110.5" x2="231.53" y2="153.14" xlink:href="#Безымянный_градиент_59"/><linearGradient id="Безымянный_градиент_59-7" x1="215.17" y1="110.48" x2="215.17" y2="154.85" xlink:href="#Безымянный_градиент_59"/><linearGradient id="Безымянный_градиент_59-8" x1="208.95" y1="110.39" x2="208.95" y2="163.61" xlink:href="#Безымянный_градиент_59"/><linearGradient id="Безымянный_градиент_59-9" x1="238.03" y1="110.48" x2="238.03" y2="155.02" xlink:href="#Безымянный_градиент_59"/><linearGradient id="Безымянный_градиент_59-10" x1="247.7" y1="110.51" x2="247.7" y2="151.23" xlink:href="#Безымянный_градиент_59"/><linearGradient id="Безымянный_градиент_59-11" x1="245.48" y1="110.47" x2="245.48" y2="158.37" xlink:href="#Безымянный_градиент_59"/><linearGradient id="Безымянный_градиент_59-12" x1="256.56" y1="110.39" x2="256.56" y2="163.61" xlink:href="#Безымянный_градиент_59"/><linearGradient id="Безымянный_градиент_59-13" x1="297.85" y1="110.39" x2="297.85" y2="163.61" xlink:href="#Безымянный_градиент_59"/><linearGradient id="Безымянный_градиент_59-14" x1="288.02" y1="110.39" x2="288.02" y2="163.61" xlink:href="#Безымянный_градиент_59"/><linearGradient id="Безымянный_градиент_59-15" x1="265.48" y1="110.48" x2="265.48" y2="155.48" xlink:href="#Безымянный_градиент_59"/><linearGradient id="Безымянный_градиент_59-16" x1="266.49" y1="110.48" x2="266.49" y2="157.6" xlink:href="#Безымянный_градиент_59"/><linearGradient id="Безымянный_градиент_59-17" x1="268.69" y1="110.49" x2="268.69" y2="153.84" xlink:href="#Безымянный_градиент_59"/><linearGradient id="Безымянный_градиент_59-18" x1="307.58" y1="110.39" x2="307.58" y2="163.61" xlink:href="#Безымянный_градиент_59"/><linearGradient id="Безымянный_градиент_59-19" x1="303.77" y1="110.48" x2="303.77" y2="155.02" xlink:href="#Безымянный_градиент_59"/><linearGradient id="Безымянный_градиент_59-20" x1="311.22" y1="110.47" x2="311.22" y2="158.37" xlink:href="#Безымянный_градиент_59"/><linearGradient id="Безымянный_градиент_59-21" x1="318.18" y1="110.47" x2="318.18" y2="158.37" xlink:href="#Безымянный_градиент_59"/><linearGradient id="Безымянный_градиент_59-22" x1="266.91" y1="110.5" x2="266.91" y2="151.62" xlink:href="#Безымянный_градиент_59"/><linearGradient id="Безымянный_градиент_59-23" x1="377.94" y1="110.39" x2="377.94" y2="163.61" xlink:href="#Безымянный_градиент_59"/><linearGradient id="Безымянный_градиент_59-24" x1="348.82" y1="110.47" x2="348.82" y2="158.37" xlink:href="#Безымянный_градиент_59"/><linearGradient id="Безымянный_градиент_59-25" x1="424.88" y1="110.39" x2="424.88" y2="163.61" xlink:href="#Безымянный_градиент_59"/><linearGradient id="Безымянный_градиент_59-26" x1="422.82" y1="110.49" x2="422.82" y2="152.43" xlink:href="#Безымянный_градиент_59"/><linearGradient id="Безымянный_градиент_59-27" x1="421.95" y1="110.51" x2="421.95" y2="150.45" xlink:href="#Безымянный_градиент_59"/><linearGradient id="Безымянный_градиент_59-28" x1="417.68" y1="110.63" x2="417.68" y2="137.02" xlink:href="#Безымянный_градиент_59"/><linearGradient id="Безымянный_градиент_59-29" x1="112.52" y1="110.67" x2="112.52" y2="132.96" xlink:href="#Безымянный_градиент_59"/><linearGradient id="Безымянный_градиент_59-30" x1="112.41" y1="110.66" x2="112.41" y2="133.82" xlink:href="#Безымянный_градиент_59"/><linearGradient id="Безымянный_градиент_59-31" x1="107.75" y1="110.53" x2="107.75" y2="147.84" xlink:href="#Безымянный_градиент_59"/><linearGradient id="Безымянный_градиент_59-32" x1="252.57" y1="110.08" x2="252.57" y2="145.66" xlink:href="#Безымянный_градиент_59"/><linearGradient id="Безымянный_градиент_59-33" x1="256.04" y1="110.1" x2="256.04" y2="145.75" xlink:href="#Безымянный_градиент_59"/><linearGradient id="Безымянный_градиент_59-34" x1="263.3" y1="110.08" x2="263.3" y2="145.66" xlink:href="#Безымянный_градиент_59"/><linearGradient id="Безымянный_градиент_59-35" x1="264.46" y1="110.08" x2="264.46" y2="145.66" xlink:href="#Безымянный_градиент_59"/><linearGradient id="Безымянный_градиент_59-36" x1="269.54" y1="110.08" x2="269.54" y2="145.66" xlink:href="#Безымянный_градиент_59"/><linearGradient id="New_Gradient_Swatch_2" x1="36.56" y1="-272.28" x2="459" y2="-272.28" gradientTransform="translate(12.1 278.67)" gradientUnits="userSpaceOnUse"><stop offset="0" stop-color="#9541de"/><stop offset="1" stop-color="#3ab2c0"/></linearGradient><linearGradient id="New_Gradient_Swatch_1" x1="391.31" y1="1.18" x2="464.76" y2="1.18" gradientUnits="userSpaceOnUse"><stop offset="0" stop-color="#cf52fe"/><stop offset="1" stop-color="#19dbb6"/></linearGradient><linearGradient id="New_Gradient_Swatch_1-2" x1="391.78" y1="4.95" x2="454" y2="4.95" xlink:href="#New_Gradient_Swatch_1"/><linearGradient id="New_Gradient_Swatch_1-3" x1="415.69" y1="7.69" x2="446.1" y2="7.69" xlink:href="#New_Gradient_Swatch_1"/><linearGradient id="New_Gradient_Swatch_1-4" x1="436.85" y1="7.5" x2="443.34" y2="7.5" xlink:href="#New_Gradient_Swatch_1"/><linearGradient id="New_Gradient_Swatch_1-5" x1="458.72" y1="25.16" x2="502.98" y2="25.16" xlink:href="#New_Gradient_Swatch_1"/><linearGradient id="New_Gradient_Swatch_1-6" x1="472.48" y1="15.08" x2="486.95" y2="15.08" xlink:href="#New_Gradient_Swatch_1"/><linearGradient id="New_Gradient_Swatch_1-7" x1="499.67" y1="46.94" x2="507.77" y2="46.94" xlink:href="#New_Gradient_Swatch_1"/><linearGradient id="New_Gradient_Swatch_1-8" x1="55.11" y1="1.69" x2="128.56" y2="1.69" xlink:href="#New_Gradient_Swatch_1"/><linearGradient id="New_Gradient_Swatch_1-9" x1="65.87" y1="5.46" x2="128.08" y2="5.46" xlink:href="#New_Gradient_Swatch_1"/><linearGradient id="New_Gradient_Swatch_1-10" x1="73.77" y1="8.2" x2="104.17" y2="8.2" xlink:href="#New_Gradient_Swatch_1"/><linearGradient id="New_Gradient_Swatch_1-11" x1="76.53" y1="8.01" x2="83.01" y2="8.01" xlink:href="#New_Gradient_Swatch_1"/><linearGradient id="New_Gradient_Swatch_1-12" x1="16.88" y1="25.67" x2="61.14" y2="25.67" xlink:href="#New_Gradient_Swatch_1"/><linearGradient id="New_Gradient_Swatch_1-13" x1="32.92" y1="15.6" x2="47.39" y2="15.6" xlink:href="#New_Gradient_Swatch_1"/><linearGradient id="New_Gradient_Swatch_1-14" x1="12.1" y1="47.45" x2="20.2" y2="47.45" xlink:href="#New_Gradient_Swatch_1"/></defs><title>cards_frame_1</title><g class="cls-2"><g id="Layer_2" data-name="Layer 2"><g id="Layer_1-2" data-name="Layer 1"><g id="top"><g class="cls-3"><g class="cls-4"><polygon class="cls-5" points="246.66 69.39 88.87 35.34 87.32 35.34 246.51 69.39 246.66 69.39"/><polygon class="cls-6" points="5.84 16.31 3.5 16.31 246.33 69.28 246.47 69.28 5.84 16.31"/><polygon class="cls-7" points="247.36 69.39 188.17 56.03 187.47 56.03 247.22 69.39 247.36 69.39"/><polygon class="cls-8" points="88.6 16.31 85.48 16.31 251.52 69.28 251.67 69.28 88.6 16.31"/><polygon class="cls-9" points="97.63 16.31 94.5 16.31 252.04 69.28 252.18 69.28 97.63 16.31"/><polygon class="cls-10" points="255.6 69.39 232.28 57.9 231.66 57.9 255.46 69.39 255.6 69.39"/><polygon class="cls-11" points="253.05 69.39 203.03 51.11 201.48 51.11 252.91 69.39 253.05 69.39"/><polygon class="cls-12" points="188.13 16.31 184.23 16.31 257.71 69.28 257.86 69.28 188.13 16.31"/><polygon class="cls-13" points="259.39 69.39 242.45 50.43 240.87 50.43 259.25 69.39 259.39 69.39"/><polygon class="cls-14" points="260.9 69.39 258.99 65.48 258.69 65.48 260.76 69.39 260.9 69.39"/><polygon class="cls-15" points="261.9 69.4 256.15 37.1 253.26 37.1 261.76 69.4 261.9 69.4"/><polygon class="cls-16" points="274.29 16.31 268.05 16.31 263.02 69.28 263.75 69.28 274.29 16.31"/><polygon class="cls-17" points="351.87 16.31 348.74 16.31 268.04 69.28 268.18 69.28 351.87 16.31"/><polygon class="cls-18" points="333.45 16.31 329.54 16.31 266.78 69.28 266.93 69.28 333.45 16.31"/><polygon class="cls-19" points="266.32 69.39 288.97 48.6 287.31 48.6 266.18 69.39 266.32 69.39"/><polygon class="cls-20" points="265.54 69.43 291.78 40.16 289.05 40.16 265.4 69.43 265.54 69.43"/><polygon class="cls-21" points="268.52 69.39 293.2 55.11 292.46 55.11 268.38 69.39 268.52 69.39"/><polygon class="cls-22" points="370.21 16.31 367.09 16.31 269.14 69.28 269.28 69.28 370.21 16.31"/><polygon class="cls-23" points="276.78 69.39 355.11 50.43 354.18 50.43 276.63 69.39 276.78 69.39"/><polygon class="cls-24" points="273.21 69.4 373.57 37.1 371.39 37.1 273.07 69.4 273.21 69.4"/><polygon class="cls-25" points="274.43 69.4 386.28 37.1 384.09 37.1 274.28 69.4 274.43 69.4"/><polygon class="cls-26" points="271.79 69.39 286.37 63.94 286 63.94 271.64 69.39 271.79 69.39"/><polygon class="cls-27" points="502.59 16.31 499.47 16.31 277.49 69.28 277.64 69.28 502.59 16.31"/><polygon class="cls-28" points="279.78 69.4 442.2 37.1 440.72 37.1 279.64 69.4 279.78 69.4"/><polygon class="cls-29" points="590.93 16.31 588.59 16.31 283.03 69.28 283.18 69.28 590.93 16.31"/><polygon class="cls-30" points="581.79 27.86 582.23 27.54 287.6 69.28 287.75 69.28 581.79 27.86"/><polygon class="cls-31" points="579.15 29.82 579.56 29.52 288.54 69.28 288.68 69.28 579.15 29.82"/><polygon class="cls-32" points="561.25 43.16 561.44 43.01 298.13 69.28 298.27 69.28 561.25 43.16"/><polygon class="cls-33" points="229.17 69.28 20.07 47.09 20.24 47.22 229.03 69.28 229.17 69.28"/><polygon class="cls-34" points="230.1 69.28 18.9 46.22 19.09 46.36 229.96 69.28 230.1 69.28"/><polygon class="cls-35" points="239.7 69.28 0 32.15 0.44 32.47 239.55 69.28 239.7 69.28"/><polygon class="cls-36" points="264.6 77.74 264.73 77.74 264.73 77.72 264.6 77.72 264.6 77.74"/><polygon class="cls-37" points="268.05 77.77 268.18 77.77 268.22 77.72 268.08 77.72 268.05 77.77"/><polygon class="cls-38" points="275.31 77.74 275.44 77.74 275.49 77.72 275.35 77.72 275.31 77.74"/><polygon class="cls-39" points="276.46 77.74 276.6 77.74 276.65 77.72 276.51 77.72 276.46 77.74"/><polygon class="cls-40" points="281.67 77.74 281.74 77.72 281.6 77.72 281.53 77.74 281.67 77.74"/></g></g><polygon class="cls-41" points="133.64 12.79 48.66 12.79 48.66 12.43 133.52 12.43 162.39 0 352.78 0 352.84 0.03 376.75 11.27 471.1 11.27 471.1 11.63 376.62 11.63 376.57 11.6 352.66 0.36 162.5 0.36 133.64 12.79"/><polyline class="cls-42" points="391.31 1.32 464.76 1.32 464.76 1.04 391.43 1.04"/><polygon class="cls-43" points="392.37 2.41 416.52 2.41 417.74 3.63 454 3.63 452.11 5.51 414.95 5.51 412.96 7.5 404.17 7.5 400.89 4.22 393.59 4.22 391.78 2.41 392.37 2.41"/><polygon class="cls-44" points="436.75 9.23 443.2 9.23 446.1 6.34 445.9 6.14 443.09 8.95 436.86 8.95 434.55 6.64 415.69 6.64 415.69 6.92 434.43 6.92 436.75 9.23"/><polygon class="cls-45" points="437.22 6.94 443.34 6.94 442.21 8.06 437.94 8.06 436.85 6.97 437.22 6.94"/><polygon class="cls-46" points="502.79 46.17 502.99 45.97 488.11 31.09 488.11 19.72 472.54 4.15 458.72 4.15 458.72 4.43 472.42 4.43 487.83 19.83 487.83 31.21 502.79 46.17"/><polygon class="cls-47" points="472.48 5.92 486.95 20.39 486.95 24.25 485.76 23.06 485.76 21.09 473.26 8.59 472.48 5.92"/><polygon class="cls-48" points="502.66 48.53 507.77 48.53 507.77 48.25 502.77 48.25 499.87 45.34 499.67 45.54 502.66 48.53"/><polyline class="cls-49" points="128.56 1.83 55.11 1.83 55.11 1.55 128.44 1.55"/><polygon class="cls-50" points="127.5 2.92 103.35 2.92 102.13 4.14 65.87 4.14 67.75 6.02 104.92 6.02 106.91 8.01 115.7 8.01 118.98 4.73 126.27 4.73 128.08 2.92 127.5 2.92"/><polygon class="cls-51" points="83.12 9.74 76.67 9.74 73.77 6.85 73.97 6.65 76.78 9.47 83 9.47 85.32 7.15 104.17 7.15 104.17 7.43 85.44 7.43 83.12 9.74"/><polygon class="cls-52" points="82.65 7.45 76.53 7.45 77.65 8.57 81.92 8.57 83.02 7.48 82.65 7.45"/><polygon class="cls-53" points="17.08 46.68 16.88 46.48 31.76 31.61 31.76 20.23 47.33 4.66 61.14 4.66 61.14 4.94 47.45 4.94 32.04 20.34 32.04 31.72 17.08 46.68"/><polygon class="cls-54" points="47.39 6.43 32.92 20.9 32.92 24.76 34.11 23.57 34.11 21.6 46.6 9.1 47.39 6.43"/><polygon class="cls-55" points="17.21 49.04 12.1 49.04 12.1 48.77 17.09 48.77 20 45.86 20.2 46.05 17.21 49.04"/></g></g></g></g></svg>