<svg xmlns="http://www.w3.org/2000/svg" xmlns:xlink="http://www.w3.org/1999/xlink" viewBox="0 0 497.02 145.58"><defs><style>.cls-1{fill:url(#New_Gradient_Swatch_7);}.cls-2{fill:url(#New_Gradient_Swatch_7-2);}.cls-3{fill:url(#New_Gradient_Swatch_7-3);}.cls-4{fill:url(#New_Gradient_Swatch_7-4);}.cls-5{fill:url(#New_Gradient_Swatch_7-5);}.cls-6{fill:url(#New_Gradient_Swatch_7-6);}.cls-7{fill:url(#New_Gradient_Swatch_7-7);}.cls-27,.cls-34,.cls-8{opacity:0.2;}.cls-8{fill:url(#New_Gradient_Swatch_7-8);}.cls-9{fill:url(#New_Gradient_Swatch_7-9);}.cls-10{fill:url(#New_Gradient_Swatch_7-10);}.cls-11{fill:url(#New_Gradient_Swatch_7-11);}.cls-12{fill:url(#New_Gradient_Swatch_7-12);}.cls-13{fill:url(#New_Gradient_Swatch_7-13);}.cls-14{fill:url(#New_Gradient_Swatch_7-14);}.cls-15{fill:url(#New_Gradient_Swatch_7-15);}.cls-16{fill:url(#New_Gradient_Swatch_7-16);}.cls-17{fill:url(#New_Gradient_Swatch_7-17);}.cls-18{fill:url(#New_Gradient_Swatch_7-18);}.cls-19{fill:url(#New_Gradient_Swatch_7-19);}.cls-20{fill:url(#New_Gradient_Swatch_7-20);}.cls-21,.cls-33{opacity:0.5;}.cls-21{fill:url(#New_Gradient_Swatch_7-21);}.cls-22,.cls-35{opacity:0.4;}.cls-22{fill:url(#New_Gradient_Swatch_7-22);}.cls-23,.cls-31{opacity:0.6;}.cls-23{fill:url(#New_Gradient_Swatch_7-23);}.cls-24,.cls-29{opacity:0.7;}.cls-24{fill:url(#New_Gradient_Swatch_7-24);}.cls-25{opacity:0.8;fill:url(#New_Gradient_Swatch_7-25);}.cls-26{opacity:0.9;fill:url(#New_Gradient_Swatch_7-26);}.cls-27{fill:url(#New_Gradient_Swatch_7-27);}.cls-28,.cls-36{opacity:0.3;}.cls-28{fill:url(#New_Gradient_Swatch_7-28);}.cls-29{fill:url(#New_Gradient_Swatch_7-29);}.cls-30{opacity:0.1;fill:url(#New_Gradient_Swatch_7-30);}.cls-31{fill:url(#New_Gradient_Swatch_7-31);}.cls-32{fill:url(#New_Gradient_Swatch_7-32);}.cls-33{fill:url(#New_Gradient_Swatch_7-33);}.cls-34{fill:url(#New_Gradient_Swatch_7-34);}.cls-35{fill:url(#New_Gradient_Swatch_7-35);}.cls-36{fill:url(#New_Gradient_Swatch_7-36);}.cls-37{fill:url(#New_Gradient_Swatch_7-37);}.cls-38{fill:url(#New_Gradient_Swatch_7-38);}.cls-39{fill:url(#New_Gradient_Swatch_7-39);}.cls-40{fill:url(#New_Gradient_Swatch_7-40);}.cls-41{fill:url(#New_Gradient_Swatch_7-41);}.cls-42{fill:url(#New_Gradient_Swatch_7-42);}.cls-43{fill:url(#New_Gradient_Swatch_7-43);}.cls-44{fill:url(#New_Gradient_Swatch_7-44);}.cls-45{fill:url(#New_Gradient_Swatch_7-45);}</style><linearGradient id="New_Gradient_Swatch_7" x1="3.94" y1="64.4" x2="102.52" y2="64.4" gradientUnits="userSpaceOnUse"><stop offset="0" stop-color="#fcdaff"/><stop offset="1" stop-color="#cf52fe"/></linearGradient><linearGradient id="New_Gradient_Swatch_7-2" x1="0" y1="19.32" x2="8.15" y2="19.32" xlink:href="#New_Gradient_Swatch_7"/><linearGradient id="New_Gradient_Swatch_7-3" x1="353.88" y1="134.65" x2="360.12" y2="134.65" xlink:href="#New_Gradient_Swatch_7"/><linearGradient id="New_Gradient_Swatch_7-4" x1="282.44" y1="22.44" x2="288.67" y2="22.44" xlink:href="#New_Gradient_Swatch_7"/><linearGradient id="New_Gradient_Swatch_7-5" x1="444.75" y1="30.59" x2="450.99" y2="30.59" xlink:href="#New_Gradient_Swatch_7"/><linearGradient id="New_Gradient_Swatch_7-6" x1="490.79" y1="70.87" x2="497.02" y2="70.87" xlink:href="#New_Gradient_Swatch_7"/><linearGradient id="New_Gradient_Swatch_7-7" x1="356.38" y1="113.07" x2="466.95" y2="113.07" xlink:href="#New_Gradient_Swatch_7"/><linearGradient id="New_Gradient_Swatch_7-8" x1="19.3" y1="73.54" x2="481.05" y2="73.54" xlink:href="#New_Gradient_Swatch_7"/><linearGradient id="New_Gradient_Swatch_7-9" x1="17.78" y1="73.54" x2="482.58" y2="73.54" xlink:href="#New_Gradient_Swatch_7"/><linearGradient id="New_Gradient_Swatch_7-10" x1="99.74" y1="21.96" x2="295.38" y2="21.96" xlink:href="#New_Gradient_Swatch_7"/><linearGradient id="New_Gradient_Swatch_7-11" x1="107.41" y1="123.62" x2="183.18" y2="123.62" xlink:href="#New_Gradient_Swatch_7"/><linearGradient id="New_Gradient_Swatch_7-12" x1="431.09" y1="66.5" x2="487.19" y2="66.5" xlink:href="#New_Gradient_Swatch_7"/><linearGradient id="New_Gradient_Swatch_7-13" x1="220.1" y1="132.01" x2="325.11" y2="132.01" xlink:href="#New_Gradient_Swatch_7"/><linearGradient id="New_Gradient_Swatch_7-14" x1="12.95" y1="34.19" x2="40.76" y2="34.19" xlink:href="#New_Gradient_Swatch_7"/><linearGradient id="New_Gradient_Swatch_7-15" x1="217.32" y1="138" x2="322.62" y2="138" xlink:href="#New_Gradient_Swatch_7"/><linearGradient id="New_Gradient_Swatch_7-16" x1="277.26" y1="140.16" x2="337" y2="140.16" xlink:href="#New_Gradient_Swatch_7"/><linearGradient id="New_Gradient_Swatch_7-17" x1="285.41" y1="26.51" x2="447.77" y2="26.51" xlink:href="#New_Gradient_Swatch_7"/><linearGradient id="New_Gradient_Swatch_7-18" x1="119.02" y1="8.53" x2="215.2" y2="8.53" xlink:href="#New_Gradient_Swatch_7"/><linearGradient id="New_Gradient_Swatch_7-19" x1="189.51" y1="10.93" x2="276.58" y2="10.93" xlink:href="#New_Gradient_Swatch_7"/><linearGradient id="New_Gradient_Swatch_7-20" x1="482.01" y1="57.68" x2="494.28" y2="57.68" xlink:href="#New_Gradient_Swatch_7"/><linearGradient id="New_Gradient_Swatch_7-21" x1="187.97" y1="117.38" x2="199.48" y2="117.38" xlink:href="#New_Gradient_Swatch_7"/><linearGradient id="New_Gradient_Swatch_7-22" x1="201.88" y1="117.38" x2="213.39" y2="117.38" xlink:href="#New_Gradient_Swatch_7"/><linearGradient id="New_Gradient_Swatch_7-23" x1="174.06" y1="117.38" x2="185.57" y2="117.38" xlink:href="#New_Gradient_Swatch_7"/><linearGradient id="New_Gradient_Swatch_7-24" x1="160.16" y1="117.38" x2="171.67" y2="117.38" xlink:href="#New_Gradient_Swatch_7"/><linearGradient id="New_Gradient_Swatch_7-25" x1="146.25" y1="117.38" x2="157.76" y2="117.38" xlink:href="#New_Gradient_Swatch_7"/><linearGradient id="New_Gradient_Swatch_7-26" x1="132.35" y1="117.38" x2="143.85" y2="117.38" xlink:href="#New_Gradient_Swatch_7"/><linearGradient id="New_Gradient_Swatch_7-27" x1="229.69" y1="117.38" x2="241.2" y2="117.38" xlink:href="#New_Gradient_Swatch_7"/><linearGradient id="New_Gradient_Swatch_7-28" x1="215.78" y1="117.38" x2="227.29" y2="117.38" xlink:href="#New_Gradient_Swatch_7"/><linearGradient id="New_Gradient_Swatch_7-29" x1="327.03" y1="116.9" x2="339.5" y2="116.9" xlink:href="#New_Gradient_Swatch_7"/><linearGradient id="New_Gradient_Swatch_7-30" x1="243.59" y1="117.38" x2="255.1" y2="117.38" xlink:href="#New_Gradient_Swatch_7"/><linearGradient id="New_Gradient_Swatch_7-31" x1="313.12" y1="117.38" x2="324.63" y2="117.38" xlink:href="#New_Gradient_Swatch_7"/><linearGradient id="New_Gradient_Swatch_7-32" x1="119.4" y1="117.38" x2="129.95" y2="117.38" xlink:href="#New_Gradient_Swatch_7"/><linearGradient id="New_Gradient_Swatch_7-33" x1="299.22" y1="117.38" x2="310.73" y2="117.38" xlink:href="#New_Gradient_Swatch_7"/><linearGradient id="New_Gradient_Swatch_7-34" x1="257.5" y1="117.38" x2="269.01" y2="117.38" xlink:href="#New_Gradient_Swatch_7"/><linearGradient id="New_Gradient_Swatch_7-35" x1="285.31" y1="117.38" x2="296.82" y2="117.38" xlink:href="#New_Gradient_Swatch_7"/><linearGradient id="New_Gradient_Swatch_7-36" x1="271.41" y1="117.38" x2="282.91" y2="117.38" xlink:href="#New_Gradient_Swatch_7"/><linearGradient id="New_Gradient_Swatch_7-37" x1="308.48" y1="21.76" x2="326.02" y2="21.76" xlink:href="#New_Gradient_Swatch_7"/><linearGradient id="New_Gradient_Swatch_7-38" x1="326.72" y1="21.76" x2="339.91" y2="21.76" xlink:href="#New_Gradient_Swatch_7"/><linearGradient id="New_Gradient_Swatch_7-39" x1="340.61" y1="21.76" x2="353.8" y2="21.76" xlink:href="#New_Gradient_Swatch_7"/><linearGradient id="New_Gradient_Swatch_7-40" x1="354.5" y1="21.76" x2="367.69" y2="21.76" xlink:href="#New_Gradient_Swatch_7"/><linearGradient id="New_Gradient_Swatch_7-41" x1="368.39" y1="21.76" x2="381.57" y2="21.76" xlink:href="#New_Gradient_Swatch_7"/><linearGradient id="New_Gradient_Swatch_7-42" x1="385.77" y1="21.76" x2="398.96" y2="21.76" xlink:href="#New_Gradient_Swatch_7"/><linearGradient id="New_Gradient_Swatch_7-43" x1="399.66" y1="22.45" x2="422.59" y2="22.45" xlink:href="#New_Gradient_Swatch_7"/><linearGradient id="New_Gradient_Swatch_7-44" x1="426.79" y1="21.76" x2="429.37" y2="21.76" xlink:href="#New_Gradient_Swatch_7"/><linearGradient id="New_Gradient_Swatch_7-45" x1="430.07" y1="22.41" x2="443.01" y2="22.41" xlink:href="#New_Gradient_Swatch_7"/></defs><title>cart_buy_purple</title><g id="Layer_2" data-name="Layer 2"><g id="Layer_1-2" data-name="Layer 1"><path class="cls-1" d="M102.14,109.61a.38.38,0,0,1-.38-.38V92.72L4.19,58.28a.37.37,0,0,1-.25-.36V19.56a.38.38,0,0,1,.76,0V57.65l97.56,34.44a.38.38,0,0,1,.26.36v16.78A.38.38,0,0,1,102.14,109.61Z"/><path class="cls-2" d="M8.15,19.32a4.08,4.08,0,1,1-4.07-4.07A4.08,4.08,0,0,1,8.15,19.32Z"/><circle class="cls-3" cx="357" cy="134.65" r="3.12"/><path class="cls-4" d="M288.67,22.44a3.12,3.12,0,1,1-3.12-3.12A3.12,3.12,0,0,1,288.67,22.44Z"/><path class="cls-5" d="M451,30.59a3.12,3.12,0,1,1-3.12-3.12A3.12,3.12,0,0,1,451,30.59Z"/><circle class="cls-6" cx="493.9" cy="70.87" r="3.12"/><path class="cls-7" d="M441.15,135H356.76a.38.38,0,0,1,0-.76H441l25.2-26.15V91.49a.38.38,0,1,1,.76,0v16.78a.39.39,0,0,1-.11.27l-25.41,26.37A.4.4,0,0,1,441.15,135Z"/><polygon class="cls-8" points="205.71 25.8 198.52 18.6 120.84 18.6 19.3 25.8 19.3 53.03 115.84 85.63 115.84 128.47 437.29 128.47 460.03 105.72 460.03 85.63 481.05 85.63 481.05 59.75 205.71 25.8"/><path class="cls-9" d="M198.52,18.6l7.19,7.2,275.34,34V85.63H460v20.1l-22.74,22.74H115.84V85.63L19.3,53V25.8l101.54-7.2h77.68m0-1.52H120.73L19.19,24.28a1.52,1.52,0,0,0-1.41,1.52V53a1.53,1.53,0,0,0,1,1.44l95.51,32.26v41.74a1.52,1.52,0,0,0,1.52,1.52H437.29a1.52,1.52,0,0,0,1.07-.44l22.75-22.75a1.52,1.52,0,0,0,.44-1.07V87.16h19.5a1.54,1.54,0,0,0,1.53-1.53V59.75a1.52,1.52,0,0,0-1.34-1.51L206.42,24.35l-6.82-6.82a1.53,1.53,0,0,0-1.08-.45Z"/><polygon class="cls-10" points="99.74 19.08 104.53 14.77 122.28 12.85 128.51 8.53 203.79 8.53 214.34 18.12 222.02 16.2 292.5 30.59 295.38 35.39 205.71 25.8 198.52 18.6 99.74 19.08"/><polygon class="cls-11" points="170.59 135.13 183.18 129.37 115.84 128.47 114.61 112.11 107.41 119.78 107.41 135.13 170.59 135.13"/><polygon class="cls-12" points="487.19 78.52 487.19 53.53 448.35 47.37 433.41 51.94 431.09 52.65 481.05 59.75 481.05 85.63 487.19 78.52"/><polygon class="cls-13" points="220.1 129.37 227.77 134.65 318.88 134.65 325.11 130.33 220.1 129.37"/><polygon class="cls-14" points="40.76 22.44 34.05 18.6 13.43 21.96 12.95 44.5 17.74 49.77 18.22 25.8 40.76 22.44"/><path class="cls-15" d="M322.24,141.74H228.73a.36.36,0,0,1-.2-.06l-11-6.71a.38.38,0,0,1,.4-.65L228.84,141h93.4a.38.38,0,0,1,0,.76Z"/><path class="cls-16" d="M326.07,145.58H277.64a.38.38,0,0,1-.38-.38.39.39,0,0,1,.38-.39h48.28l10.44-10a.38.38,0,1,1,.52.55l-10.55,10.07A.36.36,0,0,1,326.07,145.58Z"/><path class="cls-17" d="M447.39,31H301.14a.37.37,0,0,1-.33-.19l-3.27-5.6-11.82-2.37a.38.38,0,1,1,.15-.74l12,2.39a.4.4,0,0,1,.26.18l3.25,5.57h146a.38.38,0,0,1,0,.76Z"/><path class="cls-18" d="M214.82,12.75a.43.43,0,0,1-.27-.11L207,5.08H128.13l-8.55,4.75a.38.38,0,0,1-.37-.67l8.64-4.8a.37.37,0,0,1,.18,0h79.12a.39.39,0,0,1,.27.11l7.67,7.67a.38.38,0,0,1,0,.54A.39.39,0,0,1,214.82,12.75Z"/><path class="cls-19" d="M276.2,21.86h-.08L220.49,9.38a.32.32,0,0,1-.17-.09l-9-8.53H189.89a.38.38,0,1,1,0-.76h21.58a.42.42,0,0,1,.26.1l9,8.56,55.53,12.45a.38.38,0,0,1-.09.75Z"/><path class="cls-20" d="M493.9,70.29a.38.38,0,0,1-.38-.38V49.1l-11.23-3.28a.38.38,0,0,1,.21-.73L494,48.45a.37.37,0,0,1,.27.36v21.1A.38.38,0,0,1,493.9,70.29Z"/><rect class="cls-21" x="187.97" y="110.67" width="11.51" height="13.43"/><rect class="cls-22" x="201.88" y="110.67" width="11.51" height="13.43"/><rect class="cls-23" x="174.06" y="110.67" width="11.51" height="13.43"/><rect class="cls-24" x="160.16" y="110.67" width="11.51" height="13.43"/><rect class="cls-25" x="146.25" y="110.67" width="11.51" height="13.43"/><rect class="cls-26" x="132.35" y="110.67" width="11.51" height="13.43"/><rect class="cls-27" x="229.69" y="110.67" width="11.51" height="13.43"/><rect class="cls-28" x="215.78" y="110.67" width="11.51" height="13.43"/><polygon class="cls-29" points="327.03 110.67 327.03 123.14 339.5 110.67 327.03 110.67"/><rect class="cls-30" x="243.59" y="110.67" width="11.51" height="13.43"/><rect class="cls-31" x="313.12" y="110.67" width="11.51" height="13.43"/><rect class="cls-32" x="119.4" y="110.67" width="10.55" height="13.43"/><rect class="cls-33" x="299.22" y="110.67" width="11.51" height="13.43"/><rect class="cls-34" x="257.5" y="110.67" width="11.51" height="13.43"/><rect class="cls-35" x="285.31" y="110.67" width="11.51" height="13.43"/><rect class="cls-36" x="271.41" y="110.67" width="11.51" height="13.43"/><path class="cls-37" d="M311.07,17v6.92H316v2.62h-4.9l-2.59-2.62V17Zm7.48,0v6.92h4.9v2.62h-4.9l0,0L316,23.91V17Zm4.9,0H326v9.54l-2.57-2.62Z"/><path class="cls-38" d="M326.72,17h13.19v9.54h-2.59V24.2h-7.67v2.33h-2.93V21.14l2.93-1.53v4.06l1.55-2.08h6.12v-2h-7.67Z"/><path class="cls-39" d="M340.61,26.53V17l2.58,2.62v6.92ZM351.22,17l2.58,2.62v6.92h-2.58V19.61h-8V17Z"/><path class="cls-40" d="M354.5,26.53V17l2.57,2.62v6.92ZM365.11,17l2.58,2.62v6.92h-2.58V19.61h-8V17Z"/><path class="cls-41" d="M368.39,17h13.18v9.54H379V24.2h-7.67v2.33h-2.92V21.14l2.92-1.53v4.06l1.56-2.08H379v-2h-7.67Z"/><path class="cls-42" d="M388.35,19.61v4.3h8v2.62h-8l-2.58-2.62V17h10.62l1.28,2.62Zm10.61.73h0v6.18l-2.57-2.62V23h-5.55V20.34Z"/><path class="cls-43" d="M399.66,17l2.58,2.61v.73h9.52L409.81,23h-7.57V24h9.52v2.61h-9.52L399.66,24Zm22.93,0L420,19.65H402.24V17Zm-5.72,10.83-3-2.62v-5.6l3,1.75Z"/><path class="cls-44" d="M429.37,17v9.54h-2.58V17Z"/><path class="cls-45" d="M443,17l-2.58,2.62H430.07V17Zm-5.73,10.84-3-2.62v-5.6l3,1.77Z"/></g></g></svg>