<svg xmlns="http://www.w3.org/2000/svg" xmlns:xlink="http://www.w3.org/1999/xlink" viewBox="0 0 494.99 97.53"><defs><style>.cls-1{mask:url(#mask);filter:url(#luminosity-noclip-3);}.cls-2,.cls-4{mix-blend-mode:multiply;}.cls-2{fill:url(#Безымянный_градиент_107);}.cls-3{mask:url(#mask-2);filter:url(#luminosity-noclip-4);}.cls-4{fill:url(#Безымянный_градиент_107-2);}.cls-5{mask:url(#mask-3);}.cls-12,.cls-6,.cls-9{opacity:0.6;}.cls-6{fill:url(#Безымянный_градиент_36);}.cls-10,.cls-11,.cls-12,.cls-13,.cls-14,.cls-15,.cls-16,.cls-17,.cls-18,.cls-19,.cls-20,.cls-21,.cls-7{fill:#00d0ff;}.cls-7{opacity:0.2;}.cls-8{mask:url(#mask-4);}.cls-9{fill:url(#Безымянный_градиент_36-2);}.cls-11{opacity:0.7;}.cls-13{opacity:0.4;}.cls-14{opacity:0.3;}.cls-15{opacity:0.9;}.cls-16{opacity:0.8;}.cls-17{opacity:0.5;}.cls-18{opacity:0.03;}.cls-19{opacity:0.09;}.cls-20{opacity:0.1;}.cls-21{opacity:0.05;}.cls-22{filter:url(#luminosity-noclip-2);}.cls-23{filter:url(#luminosity-noclip);}</style><filter id="luminosity-noclip" x="0" y="-8240.94" width="378.94" height="32766" filterUnits="userSpaceOnUse" color-interpolation-filters="sRGB"><feFlood flood-color="#fff" result="bg"/><feBlend in="SourceGraphic" in2="bg"/></filter><mask id="mask" x="0" y="-8240.94" width="378.94" height="32766" maskUnits="userSpaceOnUse"><g class="cls-23"/></mask><linearGradient id="Безымянный_градиент_107" y1="31.56" x2="378.94" y2="31.56" gradientUnits="userSpaceOnUse"><stop offset="0" stop-color="#fff"/><stop offset="0.15" stop-color="#cecece"/><stop offset="0.38" stop-color="#868686"/><stop offset="0.59" stop-color="#4c4c4c"/><stop offset="0.77" stop-color="#232323"/><stop offset="0.92" stop-color="#090909"/><stop offset="1"/></linearGradient><filter id="luminosity-noclip-2" x="267.16" y="-8240.94" width="102.63" height="32766" filterUnits="userSpaceOnUse" color-interpolation-filters="sRGB"><feFlood flood-color="#fff" result="bg"/><feBlend in="SourceGraphic" in2="bg"/></filter><mask id="mask-2" x="267.16" y="-8240.94" width="102.63" height="32766" maskUnits="userSpaceOnUse"><g class="cls-22"/></mask><linearGradient id="Безымянный_градиент_107-2" x1="267.16" y1="57.13" x2="369.79" y2="57.13" xlink:href="#Безымянный_градиент_107"/><filter id="luminosity-noclip-3" x="0" y="5.44" width="378.94" height="52.23" filterUnits="userSpaceOnUse" color-interpolation-filters="sRGB"><feFlood flood-color="#fff" result="bg"/><feBlend in="SourceGraphic" in2="bg"/></filter><mask id="mask-3" x="0" y="5.44" width="378.94" height="52.23" maskUnits="userSpaceOnUse"><g class="cls-1"><polygon class="cls-2" points="378.94 5.44 52.23 5.44 0 57.67 326.71 57.67 378.94 5.44"/></g></mask><linearGradient id="Безымянный_градиент_36" y1="31.56" x2="378.94" y2="31.56" gradientUnits="userSpaceOnUse"><stop offset="0" stop-color="#00d0ff"/><stop offset="0.16" stop-color="#03caec"/><stop offset="0.53" stop-color="#09bec3"/><stop offset="0.82" stop-color="#0db6a9"/><stop offset="1" stop-color="#0eb3a0"/></linearGradient><filter id="luminosity-noclip-4" x="267.16" y="50.06" width="102.63" height="14.15" filterUnits="userSpaceOnUse" color-interpolation-filters="sRGB"><feFlood flood-color="#fff" result="bg"/><feBlend in="SourceGraphic" in2="bg"/></filter><mask id="mask-4" x="267.16" y="50.06" width="102.63" height="14.15" maskUnits="userSpaceOnUse"><g class="cls-3"><polygon class="cls-4" points="369.79 50.06 281.3 50.06 267.16 64.2 355.64 64.2 369.79 50.06"/></g></mask><linearGradient id="Безымянный_градиент_36-2" x1="267.16" y1="57.13" x2="369.79" y2="57.13" xlink:href="#Безымянный_градиент_36"/></defs><title>catchphrase_blue_no_signal_1</title><g id="Layer_2" data-name="Layer 2"><g id="Layer_1-2" data-name="Layer 1"><g class="cls-5"><polygon class="cls-6" points="378.94 5.44 52.23 5.44 0 57.67 326.71 57.67 378.94 5.44"/></g><polygon class="cls-7" points="386.02 18.5 59.31 18.5 7.07 70.73 333.78 70.73 386.02 18.5"/><g class="cls-8"><polygon class="cls-9" points="369.79 50.06 281.3 50.06 267.16 64.2 355.64 64.2 369.79 50.06"/></g><path class="cls-10" d="M333.78,71.47H7.07A.74.74,0,0,1,6.39,71a.76.76,0,0,1,.16-.81L58.79,18a.71.71,0,0,1,.52-.22H386a.74.74,0,0,1,.52,1.26L334.3,71.26A.74.74,0,0,1,333.78,71.47ZM8.85,70H333.48l50.75-50.76H59.61Z"/><path class="cls-10" d="M487.91,82.63H209.33a.74.74,0,0,1-.66-.42.72.72,0,0,1,.09-.78l8.7-10.88a.74.74,0,0,1,1-.12.73.73,0,0,1,.11,1l-7.74,9.68h277a.74.74,0,1,1,0,1.48Z"/><path class="cls-10" d="M495,82.43a4.08,4.08,0,1,1-4.08-4.08A4.08,4.08,0,0,1,495,82.43Z"/><polygon class="cls-11" points="285.92 85.97 274.46 85.97 262.93 97.53 274.39 97.53 285.92 85.97"/><polygon class="cls-12" points="308.03 85.97 296.57 85.97 285.04 97.53 296.5 97.53 308.03 85.97"/><polygon class="cls-13" points="352.25 85.97 340.79 85.97 329.26 97.53 340.73 97.53 352.25 85.97"/><polygon class="cls-14" points="374.36 85.97 362.9 85.97 351.37 97.53 362.84 97.53 374.36 85.97"/><polygon class="cls-15" points="241.7 85.97 230.24 85.97 218.71 97.53 230.17 97.53 241.7 85.97"/><polygon class="cls-10" points="196.6 97.53 208.06 97.53 219.59 85.97 208.13 85.97 196.6 97.53"/><polygon class="cls-16" points="263.81 85.97 252.35 85.97 240.82 97.53 252.28 97.53 263.81 85.97"/><polygon class="cls-17" points="330.14 85.97 318.68 85.97 307.15 97.53 318.62 97.53 330.14 85.97"/><polygon class="cls-18" points="484.92 85.97 473.45 85.97 461.92 97.53 473.39 97.53 484.92 85.97"/><polygon class="cls-19" points="440.69 85.97 429.23 85.97 417.7 97.53 429.17 97.53 440.69 85.97"/><polygon class="cls-20" points="418.58 85.97 407.12 85.97 395.59 97.53 407.06 97.53 418.58 85.97"/><polygon class="cls-21" points="462.81 85.97 451.34 85.97 439.81 97.53 451.28 97.53 462.81 85.97"/><polygon class="cls-7" points="396.47 85.97 385.01 85.97 373.48 97.53 384.95 97.53 396.47 85.97"/><polygon class="cls-11" points="107.46 0 95.99 0 84.46 11.56 95.93 11.56 107.46 0"/><polygon class="cls-12" points="129.57 0 118.1 0 106.57 11.56 118.04 11.56 129.57 0"/><polygon class="cls-13" points="173.79 0 162.32 0 150.79 11.56 162.26 11.56 173.79 0"/><polygon class="cls-14" points="195.9 0 184.43 0 172.91 11.56 184.37 11.56 195.9 0"/><polygon class="cls-15" points="63.23 0 51.77 0 40.24 11.56 51.71 11.56 63.23 0"/><polygon class="cls-10" points="18.13 11.56 29.6 11.56 41.13 0 29.66 0 18.13 11.56"/><polygon class="cls-16" points="85.34 0 73.88 0 62.35 11.56 73.82 11.56 85.34 0"/><polygon class="cls-17" points="151.68 0 140.21 0 128.68 11.56 140.15 11.56 151.68 0"/><polygon class="cls-18" points="306.45 0 294.98 0 283.46 11.56 294.92 11.56 306.45 0"/><polygon class="cls-19" points="262.23 0 250.76 0 239.24 11.56 250.7 11.56 262.23 0"/><polygon class="cls-20" points="240.12 0 228.65 0 217.13 11.56 228.59 11.56 240.12 0"/><polygon class="cls-21" points="284.34 0 272.87 0 261.35 11.56 272.81 11.56 284.34 0"/><polygon class="cls-7" points="218.01 0 206.54 0 195.01 11.56 206.48 11.56 218.01 0"/><path class="cls-10" d="M371,64.58h-1.4c-.12,0-.18,0-.18-.11s0-.18.16-.27a3.51,3.51,0,0,1,.38-.29,8.37,8.37,0,0,1,2.46-1.08,6.11,6.11,0,0,1,3.26,0A2.9,2.9,0,0,1,377.34,64l.07.1.06.09a.93.93,0,0,0,0,.1l.07.07.06.05a.24.24,0,0,0,.08.06l.1,0a1.09,1.09,0,0,0,.4.06h1.6c.11,0,.16,0,.16,0s-.07.1-.22.16a4.88,4.88,0,0,1-1.06.35l-.13,0-.26.06a.82.82,0,0,0-.18,0c-.15,0-.23.08-.24.13s0,.07.09.11h.06a.24.24,0,0,0,.09.06l.11,0,.1,0a1.38,1.38,0,0,1,.24.11c.09,0,.14.09.14.14s-.07.12-.2.2l-.27.16-2,.9a1.06,1.06,0,0,1-.36.09.24.24,0,0,1-.29-.12,1.17,1.17,0,0,0-.91-.65,4.52,4.52,0,0,0-2.27.14,4.05,4.05,0,0,0-1.39.79l-.25.22a.68.68,0,0,0-.23.3c0,.06.06.13.18.18l.19.08.18.07a1.21,1.21,0,0,1,.26.11c.06,0,0,.07,0,.11l-.29.09-.79.23a3,3,0,0,0-.41.18c-.06,0-.09,0-.09,0s0,0,.07,0h.2c.67,0,1.08,0,1.24,0s.07,0,.07,0,0,0-.09,0a3.9,3.9,0,0,1-.5.18l-.53.16c-.1,0-.17.09-.18.13s0,.06.11.11l.63.29c.13.07.17.21.11.41a2.21,2.21,0,0,0,0,.25.92.92,0,0,0,.18.79,1.13,1.13,0,0,0,.64.36,4.92,4.92,0,0,0,2.52-.12,5.79,5.79,0,0,0,.87-.4,1.38,1.38,0,0,1,.41-.18.32.32,0,0,1,.36.09l1,.88c.16.15.19.38.09.71a1.91,1.91,0,0,1-.58.82,9,9,0,0,1-2.77,1.7,6.81,6.81,0,0,1-2.54.37,4.5,4.5,0,0,1-2-.48,3.06,3.06,0,0,1-1.16-1,3.19,3.19,0,0,1-.41-2.38,6.58,6.58,0,0,1,.43-1.39.5.5,0,0,0,.07-.29.23.23,0,0,0-.14-.15,1.65,1.65,0,0,0-.36-.19l-.27-.12a.09.09,0,0,1,0-.09.11.11,0,0,1,.07-.09l.31-.13.56-.18.09,0,.1,0,.08,0,0,0v0s0,0,0,0h-1.48s0,0,0,0,0,0,0-.07l.31-.12a3.56,3.56,0,0,1,.48-.15l.21,0,.22-.06.17,0q.09,0,.09-.09s0-.06,0-.07l-.45-.18-.2-.11c-.1,0-.14-.1-.14-.16a.49.49,0,0,1,.14-.27,18,18,0,0,1,1.15-1.39.88.88,0,0,0,.2-.2c.11-.12.11-.21,0-.28a.25.25,0,0,0-.13-.09l-.25-.09s0,0,0,0-.15-.1-.13-.16.1-.11.24-.13c.37-.07.82-.17,1.33-.29a9.81,9.81,0,0,0,1.12-.29c.05,0,.07,0,.07-.07s0,0-.05,0Z"/><path class="cls-10" d="M385.16,75.43h-.74c-.33,0-.5-.19-.52-.58a1.35,1.35,0,0,1,0-.34c0-.15,0-.26,0-.3a.52.52,0,0,1,0-.11c0-.06,0-.1,0-.11a.35.35,0,0,0-.16,0h-3.45a.41.41,0,0,0-.33.22l-.24.35-.23.35a1,1,0,0,1-.82.54h-1.48a.44.44,0,0,1-.41-.21.8.8,0,0,1-.08-.55,1.28,1.28,0,0,1,.29-.63L378,72.73c.14-.15.8-.87,2-2.18a.6.6,0,0,0,.08-.08l.06-.07.07-.07.06-.08c.1-.12.11-.21,0-.26l-.24-.15-.23-.13a.09.09,0,0,1,0-.11.13.13,0,0,1,.1-.09l.35-.13c.58-.17.91-.26,1-.29s.07,0,.07,0,0,0-.05,0-.48,0-1.26,0h-.18c-.05,0-.08,0-.08,0a.3.3,0,0,1,.08-.08l.34-.09.26-.07.31-.08.27-.06.42-.13a.13.13,0,0,0,.09-.09s0-.06,0-.09l-.06,0-.1,0a.45.45,0,0,1-.12-.06l-.11-.06-.08,0a.14.14,0,0,1-.07,0c-.08-.06-.08-.15,0-.29l.2-.2c.17-.16.41-.41.73-.73l.58-.58.15-.16c.14-.17.15-.28,0-.34a.41.41,0,0,0-.11-.07l-.13,0-.12-.06-.05,0-.1,0a.08.08,0,0,1,0,0s0,0,0,0,.1-.12.28-.16l.69-.14,1.26-.31.25-.09c.06,0,.08,0,.07-.07s0,0-.07,0H383l-.21,0a.18.18,0,0,1-.17-.16.52.52,0,0,1,.11-.33c.34-.41.62-.72.85-.95a.85.85,0,0,1,.86-.25q.25.06.24.45c0,.07,0,.17,0,.29s0,.2,0,.23a.78.78,0,0,0,.13.52.52.52,0,0,0,.39.22h1.62q.09,0,.09.06s0,.07-.09.1-.45.15-1,.3l-.77.24-.07,0a.07.07,0,0,0,0,.11l.65.22.24.09c.16.07.22.22.18.46s-.07.39-.12.69-.09.53-.12.68,0,.37.15.43l.29.12.39.14c.12,0,.19.07.2.09s0,0,0,.09,0,0-.07,0a1.45,1.45,0,0,1-.29.11,5.89,5.89,0,0,0-.82.29c-.08,0-.1.07-.08.1s.09,0,.22,0h1.3s.05,0,.05,0,0,0-.07.07l-.2.06-.35.14-.26.11c-.11,0-.16.09-.16.13s0,.08.1.12l.19.07.21.07A3,3,0,0,1,387,70c.12.06.17.19.14.38-.07.57-.12,1.07-.16,1.48a14.05,14.05,0,0,0-.05,2.14,1.55,1.55,0,0,1-.11.63,1.81,1.81,0,0,1-.23.41,1,1,0,0,1-.3.28.64.64,0,0,1-.35.1Zm-2.56-4.5h1.48c.07,0,.11,0,.12-.13l.07-.34c.08-.26,0-.44-.18-.52s-.58-.24-.72-.31a.09.09,0,0,1-.05-.11.27.27,0,0,1,.1-.08l.21-.08.29-.1.21-.08c.18-.06.26-.11.25-.14s-.05-.07-.14,0a1.57,1.57,0,0,0-.36.09l-.12,0-.16,0-.19.06-.22.08-.23.07a1.79,1.79,0,0,0-.29.11c-.11,0-.12.11-.05.18a.74.74,0,0,0,.16.1l.29.16c.12.06.11.18,0,.35l-.14.16-.1.11-.12.13a.41.41,0,0,0-.09.1.38.38,0,0,0-.09.11S382.54,70.93,382.6,70.93Z"/><path class="cls-10" d="M388.67,62.87h7.77a.34.34,0,0,1,.31.21.71.71,0,0,1,0,.5s-.06.14-.15.33a1,1,0,0,0,0,.39.41.41,0,0,0,.06.22s.08.06.18.06h1.73s0,0,0,0,0,.06-.07.09a2,2,0,0,1-.38.13l-.47.11-.55.12-.54.17q-.1,0-.12.06s0,.06.06.08a2.56,2.56,0,0,0,.36.16,2.82,2.82,0,0,1,.38.18c.09.07.07.17,0,.29a1.57,1.57,0,0,1-.83.52h-2.33l-.13,0a.18.18,0,0,0-.07,0l-.1.17-.5.82c-.11.21-.11.35,0,.42l.49.19.23.1a.09.09,0,0,1,.07.09s-.05.06-.12.09l-.29.09-.67.17a2.39,2.39,0,0,0-.37.15c-.1.06-.15.11-.15.14s0,0,.09,0h1.5c.05,0,.07,0,.07.06s0,0-.07.07a4,4,0,0,1-.72.25l-.7.2c-.07,0-.1,0-.11.07s0,.07.07.09l.21.08.18.06.38.17c.11.06.12.18,0,.35a4.21,4.21,0,0,1-.27.54c-.14.27-.26.47-.34.62a19.87,19.87,0,0,0-1.24,3,1.41,1.41,0,0,1-.26.48.79.79,0,0,1-.64.42H389a.42.42,0,0,1-.41-.25.9.9,0,0,1,0-.63,12.81,12.81,0,0,1,.8-2q.24-.52,1-2a.94.94,0,0,0,.12-.33c0-.06-.06-.11-.17-.16a1.54,1.54,0,0,0-.3-.12l-.28-.1c-.14-.06-.22-.1-.22-.12s.07-.09.2-.13c.81-.24,1.26-.38,1.37-.43a.1.1,0,0,0,.06-.07s0,0-.05,0L391,69h-1.43s0,0-.05,0,0,0,.05-.07l.4-.16c.22-.08.44-.16.67-.22l.38-.1c.07,0,.11-.06.11-.09s0-.07-.06-.09l-.16-.06-.13-.06-.2-.07-.23-.1a.21.21,0,0,1-.11-.16.71.71,0,0,1,.09-.26s.17-.26.47-.79a.54.54,0,0,0,.09-.16c0-.06,0-.1,0-.11h-2.39q-.35,0-.27-.45c0-.22,0-.35-.16-.41a.75.75,0,0,0-.18-.07l-.18-.08-.17-.07a.49.49,0,0,1-.15-.09.08.08,0,0,1,0-.09,1,1,0,0,1,.27-.11c.7-.15,1.06-.24,1.08-.25l.72-.21c.05,0,.07,0,.06-.08s0,0-.06,0h-1.65c-.16,0-.24,0-.25-.09a.84.84,0,0,1,0-.62,2,2,0,0,1,.51-.71A.91.91,0,0,1,388.67,62.87Z"/><path class="cls-10" d="M400.51,64.58h-1.4c-.12,0-.18,0-.18-.11s0-.18.16-.27a3.51,3.51,0,0,1,.38-.29,8.37,8.37,0,0,1,2.46-1.08,6.11,6.11,0,0,1,3.26,0A2.9,2.9,0,0,1,406.86,64l.07.1.06.09a.93.93,0,0,0,.05.1.45.45,0,0,0,.07.07l.06.05a.24.24,0,0,0,.08.06l.1,0a1.09,1.09,0,0,0,.4.06h1.6c.11,0,.16,0,.16,0s-.07.1-.22.16a4.88,4.88,0,0,1-1.06.35l-.13,0-.25.06-.19,0c-.15,0-.23.08-.24.13s0,.07.09.11h.06a.27.27,0,0,0,.1.06l.1,0,.1,0a1.38,1.38,0,0,1,.24.11c.09,0,.14.09.14.14s-.07.12-.2.2l-.27.16-2,.9a1.06,1.06,0,0,1-.36.09.24.24,0,0,1-.29-.12,1.17,1.17,0,0,0-.91-.65,4.52,4.52,0,0,0-2.27.14,4.05,4.05,0,0,0-1.39.79l-.25.22a.68.68,0,0,0-.23.3c0,.06.06.13.18.18l.19.08.18.07a1.21,1.21,0,0,1,.26.11c.06,0,0,.07,0,.11l-.29.09-.79.23a3,3,0,0,0-.41.18c-.06,0-.09,0-.09,0s0,0,.07,0h.2c.67,0,1.08,0,1.24,0s.07,0,.07,0,0,0-.09,0a3.9,3.9,0,0,1-.5.18l-.53.16a.41.41,0,0,0-.18.13s0,.06.11.11l.63.29c.13.07.17.21.11.41a2.21,2.21,0,0,0-.05.25.92.92,0,0,0,.18.79,1.13,1.13,0,0,0,.64.36,4.92,4.92,0,0,0,2.52-.12,5.79,5.79,0,0,0,.87-.4,1.38,1.38,0,0,1,.41-.18.32.32,0,0,1,.36.09c.36.34.68.63,1,.88s.19.38.09.71a1.91,1.91,0,0,1-.58.82,9,9,0,0,1-2.77,1.7,6.81,6.81,0,0,1-2.54.37,4.5,4.5,0,0,1-2-.48,3.06,3.06,0,0,1-1.16-1,3.19,3.19,0,0,1-.41-2.38,6.58,6.58,0,0,1,.43-1.39.5.5,0,0,0,.07-.29.23.23,0,0,0-.14-.15,1.65,1.65,0,0,0-.36-.19l-.27-.12a.09.09,0,0,1,0-.09.11.11,0,0,1,.07-.09l.31-.13.56-.18.09,0,.1,0,.08,0s0,0,0,0v0s0,0,0,0h-1.48s0,0,0,0,0,0,0-.07l.31-.12a3.56,3.56,0,0,1,.48-.15l.21,0,.22-.06.17,0q.09,0,.09-.09s0-.06,0-.07l-.45-.18-.2-.11c-.1,0-.14-.1-.14-.16a.49.49,0,0,1,.14-.27,18,18,0,0,1,1.15-1.39.88.88,0,0,0,.2-.2c.11-.12.11-.21,0-.28a.25.25,0,0,0-.13-.09l-.25-.09s0,0,0,0-.15-.1-.13-.16.1-.11.24-.13c.37-.07.82-.17,1.33-.29a9.81,9.81,0,0,0,1.12-.29c.05,0,.07,0,.07-.07s0,0-.05,0Z"/><path class="cls-10" d="M412.35,67.33h3.41c.1,0,.19-.07.27-.2l.31-.55.26-.44a.6.6,0,0,0,.12-.31c0-.06-.06-.11-.15-.17a1,1,0,0,0-.24-.09s-.06,0-.15-.07a1.17,1.17,0,0,1-.21-.08c-.09,0-.14-.07-.14-.11s.07-.1.18-.12l.19,0,.31-.08.35-.09.3-.06.79-.24c.07,0,.11,0,.11-.07s0,0-.11,0h-1.76a.26.26,0,0,1-.25-.15.62.62,0,0,1,0-.38,2,2,0,0,1,.81-1.06.8.8,0,0,1,.4-.12h1.58a.34.34,0,0,1,.35.18.81.81,0,0,1,0,.62l-.06.14a1.13,1.13,0,0,1-.07.15,1.93,1.93,0,0,0-.05.35c0,.19.08.28.23.27h1.64c.17,0,.25,0,.25,0s-.08.07-.28.12l-1.1.28-.26.07-.21.05-.25.06a.24.24,0,0,0-.13.1s0,.07.07.09l.24.09.21.08a2,2,0,0,1,.29.14c.1.07.1.18,0,.32s-.25.44-.52.92a2.27,2.27,0,0,0-.16.25l-.15.29a.52.52,0,0,0-.1.24.2.2,0,0,0,.12.14A1.1,1.1,0,0,0,419,68l.12,0,.12,0,.12,0,.16.07a.06.06,0,0,1,0,.08.11.11,0,0,1-.06.07l-.25.07a6.29,6.29,0,0,0-1.23.45l-.13.08c-.05,0-.06.06-.05.07s.06,0,.13,0h1.38q.18,0,.18.06s-.06.07-.21.12l-.63.18a.48.48,0,0,1-.18.06l-.21.06-.19,0c-.11,0-.17.08-.18.11s0,.06.13.09l.17.06.13,0a3.67,3.67,0,0,1,.4.16c.08,0,.13.1.13.15a.51.51,0,0,1-.09.28L418,71.92A20.37,20.37,0,0,0,417,74.51a2.29,2.29,0,0,1-.16.38.92.92,0,0,1-.76.54h-1.6a.41.41,0,0,1-.41-.29,1.06,1.06,0,0,1,0-.72,20,20,0,0,1,1.1-2.63l.36-.7c0-.08,0-.13,0-.13H412c-.07,0-.14.05-.2.15a23,23,0,0,0-1.33,3l-.05.14a.84.84,0,0,1-.05.17s0,.11-.06.15a1.43,1.43,0,0,1-.24.44,1,1,0,0,1-.32.3.76.76,0,0,1-.38.11h-1.49a.47.47,0,0,1-.48-.29,1.05,1.05,0,0,1,.05-.75A22.43,22.43,0,0,1,409,71l.08-.14.08-.13s.05-.09.07-.15a1,1,0,0,0,.07-.15c.1-.18.09-.3,0-.36l-.47-.18-.15-.06-.16-.07a.06.06,0,0,1-.05-.06s0-.06.09-.08a3.05,3.05,0,0,1,.61-.2l.79-.25c.05,0,.07,0,.06-.07s0,0-.06,0a.47.47,0,0,0-.16,0h-1.35c-.06,0-.1,0-.11,0s0-.06.11-.12a1.62,1.62,0,0,1,.36-.2l.52-.18.33-.08.25-.06c.11,0,.17-.08.18-.11s0-.08-.11-.11l-.14,0-.17,0-.16,0-.16-.08q-.19-.09-.21-.18a1.12,1.12,0,0,1,.16-.39l.73-1.24a.51.51,0,0,0,.1-.28c0-.06-.05-.11-.13-.16l-.49-.19-.25-.11c-.05,0,0-.08,0-.11l1.22-.32.76-.22a.47.47,0,0,0,.16-.09s0,0-.13,0h-1.73c-.21,0-.29-.15-.23-.45a1.73,1.73,0,0,1,.47-.85,1.13,1.13,0,0,1,.72-.41c.45,0,1,0,1.64,0a.32.32,0,0,1,.33.22.78.78,0,0,1-.05.55s0,.09-.06.16a.49.49,0,0,0,0,.13.66.66,0,0,0-.09.41c0,.17.1.25.23.24h1.71l.18,0a.08.08,0,0,1,0,0l-.07,0-.13,0L413,65a1.48,1.48,0,0,1-.29.08l-.4.1c-.08,0-.13,0-.14.07s0,.07,0,.08l.12,0,.27.11.39.16c.09,0,.13.1.14.16a.77.77,0,0,1-.1.28,2.52,2.52,0,0,0-.15.24l-.17.28c-.05.09-.1.18-.13.25a2.91,2.91,0,0,0-.18.34C412.28,67.29,412.29,67.33,412.35,67.33Z"/><path class="cls-10" d="M426.48,71.65c-.21,0-1.26,0-3.15,0a.51.51,0,0,0-.16,0,1.17,1.17,0,0,0-.12.21,21.34,21.34,0,0,0-1.21,2.63,1.5,1.5,0,0,1-.36.58.8.8,0,0,1-.58.32h-1.65a.36.36,0,0,1-.37-.25.82.82,0,0,1,0-.61c.16-.45.38-1,.64-1.55s.7-1.42,1.26-2.41a1,1,0,0,0,.14-.36c0-.06-.06-.12-.17-.17l-.56-.21h0c-.09,0-.13-.08-.12-.14s.09-.1.23-.13l.65-.16a2.53,2.53,0,0,0,.67-.27.45.45,0,0,0,.07-.1s0,0-.06,0h-1.49c-.1,0-.15,0-.16,0s.13-.12.39-.24a5.28,5.28,0,0,1,.89-.28l.32-.09a.18.18,0,0,0,.1-.09s0-.07-.08-.1l-.12,0-.22-.08-.17-.06a1.67,1.67,0,0,1-.23-.11c-.1-.07-.1-.19,0-.34l.36-.61a3.28,3.28,0,0,0,.27-.47,2.46,2.46,0,0,0,.22-.4q.12-.21,0-.3l-.72-.33s-.07,0-.06-.08a.22.22,0,0,1,.11-.1l.34-.11a12.4,12.4,0,0,0,1.66-.45c.06,0,.09,0,.09-.07a.05.05,0,0,0-.05,0h-1.7a.27.27,0,0,1-.27-.15.82.82,0,0,1,.09-.76,1.36,1.36,0,0,1,1.05-.79h5a3.78,3.78,0,0,1,1.28.18,1.7,1.7,0,0,1,1,.85,1.25,1.25,0,0,0,.36.52.73.73,0,0,0,.46.15H432s.05,0,.05,0,0,.07-.11.11a5.44,5.44,0,0,1-.84.29l-.39.1-.39.1c-.12,0-.18.07-.19.12s0,.07.12.11l.33.11.32.12c.14.06.22.13.23.2a.91.91,0,0,1-.12.43c0,.09-.22.44-.56,1l-.06.11-.08.14c0,.12,0,.2,0,.25a.57.57,0,0,0,.22.11l.56.23c.08,0,.09.09,0,.13a1.28,1.28,0,0,1-.26.07.86.86,0,0,1-.23.06l-.25.06-.25.06-.44.14a1.82,1.82,0,0,0-.27.15c-.08.06-.12.1-.1.13s0,0,.1,0h1.39q.18,0,.18.06s-.07.08-.2.14-.37.12-.72.22l-.41.11-.37.1-.15,0c-.08,0-.09.08,0,.12l.14.09.16.07.19.08c.15.09.12.24-.09.43a5,5,0,0,1-1.21.76A5.34,5.34,0,0,1,426.48,71.65Zm.76-5.24h-2.63a.62.62,0,0,0-.18,0,.32.32,0,0,0-.09.13.41.41,0,0,0,0,.09c-.12.2-.28.46-.47.79a.82.82,0,0,0-.13.3c0,.06.05.12.15.17a2,2,0,0,0,.81.23h2.81c.06,0,.09,0,.1,0s0,0-.05-.06,0,0-.05,0a.12.12,0,0,1-.08-.06c-.08,0-.12-.09-.12-.14a.67.67,0,0,1,.12-.27c.15-.24.25-.42.31-.53.14-.29.11-.48-.11-.55A.94.94,0,0,0,427.24,66.41Z"/><path class="cls-10" d="M435.59,67.33H439a.31.31,0,0,0,.27-.2l.32-.55.26-.44a.89.89,0,0,0,.12-.31c0-.06-.06-.11-.16-.17a.77.77,0,0,0-.23-.09s-.06,0-.15-.07a1.17,1.17,0,0,1-.21-.08c-.1,0-.14-.07-.14-.11s.07-.1.18-.12l.19,0,.31-.08.35-.09.3-.06.79-.24c.07,0,.11,0,.11-.07s0,0-.11,0h-1.76a.26.26,0,0,1-.25-.15.55.55,0,0,1,0-.38A2,2,0,0,1,440,63a.77.77,0,0,1,.4-.12H442a.32.32,0,0,1,.34.18.8.8,0,0,1,0,.62l-.06.14a.85.85,0,0,0-.07.15,1.93,1.93,0,0,0-.05.35c0,.19.08.28.23.27H444c.17,0,.25,0,.25,0s-.08.07-.29.12l-1.09.28-.26.07-.21.05a2.33,2.33,0,0,0-.25.06.21.21,0,0,0-.13.1s0,.07.07.09l.24.09.21.08a2.71,2.71,0,0,1,.29.14c.1.07.1.18,0,.32s-.25.44-.52.92a2.27,2.27,0,0,0-.16.25l-.15.29c-.07.11-.11.19-.1.24a.2.2,0,0,0,.12.14,1.1,1.1,0,0,0,.25.13l.12,0,.12,0,.12,0,.16.07s0,0,0,.08a.11.11,0,0,1-.06.07l-.26.07a6.16,6.16,0,0,0-1.22.45l-.14.08s-.05.06,0,.07,0,0,.13,0h1.38q.18,0,.18.06s-.06.07-.21.12l-.63.18a.48.48,0,0,1-.18.06l-.21.06-.19,0c-.11,0-.17.08-.18.11s0,.06.13.09l.17.06.13,0a3.67,3.67,0,0,1,.4.16c.08,0,.13.1.13.15a.47.47,0,0,1-.1.28c-.45.88-.71,1.37-.77,1.48a20.37,20.37,0,0,0-1.06,2.59,2.29,2.29,0,0,1-.16.38.92.92,0,0,1-.76.54h-1.6a.42.42,0,0,1-.42-.29,1.07,1.07,0,0,1,0-.72,20,20,0,0,1,1.1-2.63c.09-.19.21-.42.36-.7,0-.08,0-.13,0-.13h-3.47c-.07,0-.14.05-.2.15a23,23,0,0,0-1.33,3l-.05.14a.84.84,0,0,1-.05.17s0,.11-.06.15a1.43,1.43,0,0,1-.24.44,1,1,0,0,1-.32.3.76.76,0,0,1-.38.11h-1.49a.47.47,0,0,1-.48-.29,1.1,1.1,0,0,1,0-.75A23.6,23.6,0,0,1,432.23,71l.08-.14.08-.13s.05-.09.07-.15l.07-.15c.1-.18.09-.3,0-.36l-.46-.18-.15-.06-.16-.07s-.05,0-.05-.06,0-.06.09-.08a3.05,3.05,0,0,1,.61-.2l.79-.25c.05,0,.07,0,.05-.07s0,0-.05,0a.47.47,0,0,0-.16,0h-1.35c-.06,0-.1,0-.11,0s0-.06.11-.12a1.62,1.62,0,0,1,.36-.2l.52-.18.33-.08.25-.06a.42.42,0,0,0,.18-.11s0-.08-.11-.11l-.15,0-.16,0-.16,0a.59.59,0,0,1-.16-.08q-.19-.09-.21-.18a1,1,0,0,1,.15-.39l.74-1.24a.61.61,0,0,0,.1-.28c0-.06-.05-.11-.13-.16l-.49-.19-.25-.11c-.05,0,0-.08,0-.11l1.23-.32c.15,0,.41-.11.75-.22a.57.57,0,0,0,.17-.09s0,0-.13,0H432.8c-.21,0-.29-.15-.23-.45a1.65,1.65,0,0,1,.47-.85,1.13,1.13,0,0,1,.72-.41c.45,0,1,0,1.63,0a.33.33,0,0,1,.34.22.78.78,0,0,1-.05.55l-.06.16-.05.13a.83.83,0,0,0-.09.41q0,.25.24.24h1.71l.18,0a.08.08,0,0,1,0,0l-.07,0-.13,0-1.2.3a1.48,1.48,0,0,1-.29.08l-.4.1c-.08,0-.13,0-.14.07s0,.07,0,.08l.11,0,.27.11.4.16c.08,0,.13.1.14.16a.77.77,0,0,1-.1.28l-.16.24-.16.28c-.05.09-.1.18-.13.25a2.91,2.91,0,0,0-.18.34C435.52,67.29,435.53,67.33,435.59,67.33Z"/><path class="cls-10" d="M447.87,62.87h2.55a2.66,2.66,0,0,1,1.26.28,1.9,1.9,0,0,1,.69.69l.09.15a1.31,1.31,0,0,0,.09.17.6.6,0,0,0,.09.15.45.45,0,0,0,.09.1.53.53,0,0,0,.36.15l1.56,0h0c.15,0,.22,0,.22,0s-.1.08-.29.14l-.49.14-.63.18-.32.08a.3.3,0,0,0-.13.07s0,.07.08.11l.12,0,.24.09.26.1.19.08a.24.24,0,0,1,.14.16.48.48,0,0,1-.07.27c-.1.23-.26.56-.49,1a2.06,2.06,0,0,1-.17.29l-.13.21c-.11.19-.11.32,0,.38l.42.18.23.11a.07.07,0,0,1,0,.09s0,.06-.09.09l-.16,0-.16,0-.18,0-.19.06-.17,0-.15,0a4.69,4.69,0,0,0-.49.17c-.1.05-.16.08-.16.11s0,0,.12,0h1.48c.05,0,.08,0,.08,0s-.05,0-.15.1a4.77,4.77,0,0,1-.77.23l-.92.24c-.07,0-.11,0-.11.06s0,.06.11.1l.45.23c.1.06.08.14,0,.24a1.14,1.14,0,0,1-.27.17,5.1,5.1,0,0,1-1.26.54c-.1,0-.17.07-.18.1s0,.09,0,.21a18.5,18.5,0,0,0,.46,2.59c0,.09,0,.14,0,.17a1.58,1.58,0,0,1-.38,1.17.8.8,0,0,1-.56.25h-2a.42.42,0,0,1-.41-.34c-.08-.28-.16-.53-.23-.76a16.89,16.89,0,0,1-.47-2.86v-.16c0-.09,0-.13-.13-.13h-.59c-.07,0-.13,0-.18.14s-.14.26-.27.53-.23.48-.29.63a15.33,15.33,0,0,0-.81,2,1.34,1.34,0,0,1-.14.34.91.91,0,0,1-.8.58H442.4a.45.45,0,0,1-.43-.26.88.88,0,0,1,0-.73q.4-1.18.81-2.07c.18-.36.5-1,1-1.87a.79.79,0,0,0,.13-.35c0-.06-.07-.11-.19-.16l-.37-.13-.37-.14s-.06,0-.05-.07a.17.17,0,0,1,.09-.07c.14,0,.33-.1.56-.16a6.84,6.84,0,0,0,.77-.24c.17-.06.24-.11.22-.16s0,0-.07,0H443q-.1,0-.09,0s0-.07.09-.09a3.46,3.46,0,0,1,.67-.27l.34-.1.35-.1a.58.58,0,0,0,.16-.06s0-.05,0-.09a.75.75,0,0,0-.2-.09,3.06,3.06,0,0,1-.34-.12l-.22-.09c-.08,0-.13-.1-.13-.16a.68.68,0,0,1,.11-.28c.09-.14.22-.37.4-.68s.32-.55.41-.72a.81.81,0,0,0,.14-.35c0-.07-.07-.13-.19-.19l-.56-.21c-.1,0-.14-.1-.13-.13s.06-.07.18-.09.21-.06.42-.1.38-.09.52-.13l.95-.27.08-.06s0,0-.06,0h-1.67c-.13,0-.22,0-.25-.13a.82.82,0,0,1,0-.56,1.72,1.72,0,0,1,.52-.73,1.09,1.09,0,0,1,.67-.29C445.31,62.86,446.22,62.87,447.87,62.87Zm2.27,3.52h-2.7a.26.26,0,0,0-.24.16l-.31.55c-.14.23-.23.4-.28.49s-.1.31,0,.38a1,1,0,0,0,.55.18h2.88s.06,0,.07,0a.17.17,0,0,0-.05-.1c-.06-.08,0-.22.11-.41a5.85,5.85,0,0,0,.38-.63c.14-.29.12-.47-.07-.54A1.79,1.79,0,0,0,450.14,66.39Z"/><path class="cls-10" d="M460.52,75.43h-.74c-.32,0-.5-.19-.52-.58,0-.07,0-.18,0-.34v-.3a.23.23,0,0,1,0-.11.2.2,0,0,0,0-.11.38.38,0,0,0-.16,0h-3.46a.38.38,0,0,0-.32.22l-.25.35-.22.35a1,1,0,0,1-.83.54h-1.47a.44.44,0,0,1-.42-.21.8.8,0,0,1-.07-.55,1.2,1.2,0,0,1,.29-.63l1.06-1.31,2-2.18.07-.08.06-.07.08-.07a.33.33,0,0,0,.06-.08c.1-.12.11-.21,0-.26l-.25-.15-.22-.13a.09.09,0,0,1,0-.11s.05-.07.11-.09l.34-.13c.59-.17.91-.26,1-.29s.07,0,.07,0,0,0-.05,0-.48,0-1.26,0h-.18c-.05,0-.07,0-.07,0a.29.29,0,0,1,.07-.08l.34-.09.26-.07.32-.08.27-.06.41-.13a.13.13,0,0,0,.09-.09.09.09,0,0,0,0-.09l-.07,0-.1,0-.11-.06-.11-.06-.09,0a.15.15,0,0,1-.06,0c-.09-.06-.08-.15,0-.29l.19-.2c.17-.16.41-.41.73-.73s.51-.52.59-.58a.81.81,0,0,0,.14-.16c.15-.17.15-.28,0-.34l-.12-.07-.12,0-.12-.06-.05,0-.1,0a.1.1,0,0,1-.05,0,0,0,0,0,1,0,0c0-.07.11-.12.29-.16l.68-.14,1.26-.31a2.1,2.1,0,0,0,.25-.09c.07,0,.09,0,.08-.07s0,0-.08,0H458.4l-.22,0a.17.17,0,0,1-.16-.16.47.47,0,0,1,.11-.33,11.93,11.93,0,0,1,.84-.95.86.86,0,0,1,.87-.25c.17,0,.24.19.23.45,0,.07,0,.17,0,.29s0,.2,0,.23a.73.73,0,0,0,.12.52.56.56,0,0,0,.4.22h1.62q.09,0,.09.06s0,.07-.09.1-.46.15-1,.3l-.78.24-.07,0a.07.07,0,0,0,0,.11l.65.22.23.09c.17.07.23.22.18.46s-.06.39-.12.69-.09.53-.11.68,0,.37.14.43l.3.12.39.14c.12,0,.18.07.19.09s.05,0,0,.09,0,0-.07,0a2.12,2.12,0,0,1-.29.11,6.2,6.2,0,0,0-.83.29c-.07,0-.09.07-.07.1s.08,0,.22,0h1.29s.06,0,.06,0,0,0-.08.07l-.19.06-.36.14-.26.11c-.11,0-.16.09-.16.13s0,.08.11.12l.19.07.21.07.36.18a.35.35,0,0,1,.14.38c-.07.57-.13,1.07-.16,1.48A15.51,15.51,0,0,0,462.3,74a1.4,1.4,0,0,1-.11.63,1.47,1.47,0,0,1-.22.41,1,1,0,0,1-.31.28.64.64,0,0,1-.35.1ZM458,70.93h1.48c.07,0,.11,0,.12-.13a3.37,3.37,0,0,1,.07-.34c.07-.26,0-.44-.18-.52a6.13,6.13,0,0,1-.72-.31.08.08,0,0,1-.05-.11.24.24,0,0,1,.09-.08l.21-.08.3-.1.21-.08c.18-.06.26-.11.25-.14s-.05-.07-.15,0a1.86,1.86,0,0,0-.36.09l-.11,0-.17,0-.19.06-.22.08-.23.07a2,2,0,0,0-.28.11q-.17.08-.06.18l.16.1.29.16c.12.06.12.18,0,.35a1.27,1.27,0,0,0-.15.16l-.1.11-.11.13a.41.41,0,0,0-.09.1c-.07.06-.09.1-.09.11S457.9,70.93,458,70.93Z"/><path class="cls-10" d="M467,64.58h-1.71c-.07,0-.12,0-.13-.06s0-.08,0-.18a.74.74,0,0,1,.29-.38l.41-.32a6.13,6.13,0,0,1,2.21-.92,6.27,6.27,0,0,1,3.21.18A2.38,2.38,0,0,1,472.55,64a1.4,1.4,0,0,0,.34.48.39.39,0,0,0,.32.15h1.68c.05,0,.09,0,.09,0s0,0-.09.07a8.9,8.9,0,0,1-.89.26l-.4.09-.43.11-.21,0c-.08,0-.13,0-.13.09s0,.07.07.11l.22.09.22.12a.12.12,0,0,1,.05.13.39.39,0,0,1-.11.09A1.74,1.74,0,0,1,473,66l-1.38.65a1.59,1.59,0,0,1-.4.09.24.24,0,0,1-.25-.16.83.83,0,0,0-.47-.43,3.23,3.23,0,0,0-2-.06l-.32.16a.67.67,0,0,0-.22.17c-.19.24-.21.42-.05.54l.61.25a18.6,18.6,0,0,0,1.89.63c.3.08.85.21,1.67.39l.4.11c.07,0,.1.06.09.11s-.08.08-.2.14c-.29.12-.45.2-.49.22s-.17.15-.16.2,0,0,.09,0h1.46a.71.71,0,0,1,.22,0s0,0,0,0a.14.14,0,0,1,0,.09,2.1,2.1,0,0,1-.35.16l-.28.08-.35.12-.2,0c-.09,0-.1.08,0,.14a.67.67,0,0,0,.2.07l.37.12.29.1c.16.06.25.13.26.2a1,1,0,0,1-.11.45,10.64,10.64,0,0,1-1.77,3A5.82,5.82,0,0,1,469,75.39a5.57,5.57,0,0,1-1.42.31,6.52,6.52,0,0,1-2.81-.36,2.6,2.6,0,0,1-1-.61,2.52,2.52,0,0,1-.56-1,1.13,1.13,0,0,1,.32-1.15,2.18,2.18,0,0,1,.44-.36c.5-.25,1.12-.54,1.85-.88a.61.61,0,0,1,.34-.07.23.23,0,0,1,.27.21,1,1,0,0,0,.76.74,3.51,3.51,0,0,0,1.63.09,1.54,1.54,0,0,0,.83-.39c.33-.33.37-.58.13-.76a.77.77,0,0,0-.29-.14c-1.46-.51-2.39-.82-2.79-.94a5.45,5.45,0,0,0-.59-.17l-1.06-.24a.05.05,0,0,1,0-.07s0-.05.07-.08l.33-.12a3.39,3.39,0,0,0,.5-.24.13.13,0,0,0,0-.09s0,0-.06,0a.3.3,0,0,0-.14,0h-1.41c-.09,0-.14,0-.14,0s.12-.12.38-.26c0,0,.25-.08.63-.23a.77.77,0,0,0,.2-.11,0,0,0,0,0,0-.07l-.14,0a4.44,4.44,0,0,1-.61-.22.51.51,0,0,1-.22-.11c-.11-.07-.13-.19-.05-.36a6.24,6.24,0,0,1,.38-.73c0-.08.19-.33.46-.76a.61.61,0,0,0,.13-.29c0-.06,0-.11-.13-.14a1.17,1.17,0,0,0-.25-.12l-.23-.1c-.09,0-.14-.09-.15-.13s.08-.1.24-.14l.47-.1.57-.13,1-.25s.07,0,.07-.07S467,64.58,467,64.58Z"/><path class="cls-10" d="M485.52,64.61s0,.07-.14.11l-.45.16c-.2.06-.52.15-.95.25l-.65.16c-.07,0-.11.06-.11.1s0,0,0,.07l.18.07.11,0,.12,0,.1,0a.91.91,0,0,1,.23.09c.18.08.19.19,0,.34a1.11,1.11,0,0,1-.74.25h-4.74a.26.26,0,0,0-.23.16l-.24.41-.21.37c0,.06-.05.09,0,.11s0,0,.06,0h4.75a.27.27,0,0,1,.29.28.37.37,0,0,0,.25.35l.58.22h0c.11,0,.17.08.17.13s-.09.08-.28.13l-.35.1-.49.15a2.08,2.08,0,0,0-.36.14c-.05,0-.07,0-.07.06a0,0,0,0,0,0,0h1.46c.05,0,.07,0,.07,0s0,0-.09,0a3.12,3.12,0,0,1-.41.14,2.9,2.9,0,0,1-.4.13l-.27.11c-.07,0-.1.05-.1.09s0,.07.07.11l.21.1.36.19c.15.08.13.21,0,.39a1.29,1.29,0,0,1-.89.47h-4.71q-.08,0-.15.12c-.12.23-.26.52-.43.87,0,.07,0,.11,0,.11h4.66a.4.4,0,0,1,.41.25,1,1,0,0,1-.08.63c-.22.53-.34.8-.35.81l-.3.88c-.21.61-.54.92-1,.92h-7a.43.43,0,0,1-.45-.28,1.16,1.16,0,0,1,0-.71,16.86,16.86,0,0,1,.92-2.25l.85-1.66,0,0,0-.07a.05.05,0,0,1,0,0c.1-.2.1-.33,0-.38l-.35-.18a2,2,0,0,1-.28-.14c-.07,0-.09,0-.09-.09a.37.37,0,0,1,.14-.11l.29-.1.51-.16.3-.1,0,0,0,0-.05,0h-1.41q-.09,0-.09,0s0,0,.13-.08a9.49,9.49,0,0,1,1-.3l.34-.13a.13.13,0,0,0,.09-.09s0,0-.07-.07a.37.37,0,0,0-.14-.07l-.2-.08a1.1,1.1,0,0,1-.23-.09.46.46,0,0,1-.19-.1.21.21,0,0,1,0-.25c0-.08.09-.15.14-.24l.35-.61c.16-.28.29-.49.37-.65l.11-.18c.06-.12.06-.2,0-.25a1.2,1.2,0,0,0-.2-.11l-.41-.16-.22-.09a.08.08,0,0,1,0-.07s0,0,.08-.06l.46-.14.92-.25a4.21,4.21,0,0,0,.78-.25s.05,0,.05,0,0,0,0,0h-1.63c-.2,0-.32-.07-.36-.2a.5.5,0,0,1,0-.34,2.68,2.68,0,0,1,.42-.72,1.13,1.13,0,0,1,.84-.47h6.86a.59.59,0,0,1,.22,0,.32.32,0,0,1,.31.24.77.77,0,0,1,0,.55.59.59,0,0,0,0,.08.36.36,0,0,1,0,.09.16.16,0,0,0,0,.08.65.65,0,0,0-.06.42.28.28,0,0,0,.22.23,1.1,1.1,0,0,0,.24,0h1.47Q485.52,64.58,485.52,64.61Z"/></g></g></svg>