<svg xmlns="http://www.w3.org/2000/svg" xmlns:xlink="http://www.w3.org/1999/xlink" viewBox="0 0 494.99 97.53"><defs><style>.cls-1{mask:url(#mask);filter:url(#luminosity-noclip-3);}.cls-2,.cls-4{mix-blend-mode:multiply;}.cls-2{fill:url(#Безымянный_градиент_107);}.cls-3{mask:url(#mask-2);filter:url(#luminosity-noclip-4);}.cls-4{fill:url(#Безымянный_градиент_107-2);}.cls-5{mask:url(#mask-3);}.cls-12,.cls-6,.cls-9{opacity:0.6;}.cls-6{fill:url(#Безымянный_градиент_36);}.cls-10,.cls-11,.cls-12,.cls-13,.cls-14,.cls-15,.cls-16,.cls-17,.cls-18,.cls-19,.cls-20,.cls-21,.cls-7{fill:#00d0ff;}.cls-7{opacity:0.2;}.cls-8{mask:url(#mask-4);}.cls-9{fill:url(#Безымянный_градиент_36-2);}.cls-11{opacity:0.7;}.cls-13{opacity:0.4;}.cls-14{opacity:0.3;}.cls-15{opacity:0.9;}.cls-16{opacity:0.8;}.cls-17{opacity:0.5;}.cls-18{opacity:0.03;}.cls-19{opacity:0.09;}.cls-20{opacity:0.1;}.cls-21{opacity:0.05;}.cls-22{filter:url(#luminosity-noclip-2);}.cls-23{filter:url(#luminosity-noclip);}</style><filter id="luminosity-noclip" x="0" y="-8240.94" width="378.94" height="32766" filterUnits="userSpaceOnUse" color-interpolation-filters="sRGB"><feFlood flood-color="#fff" result="bg"/><feBlend in="SourceGraphic" in2="bg"/></filter><mask id="mask" x="0" y="-8240.94" width="378.94" height="32766" maskUnits="userSpaceOnUse"><g class="cls-23"/></mask><linearGradient id="Безымянный_градиент_107" y1="31.56" x2="378.94" y2="31.56" gradientUnits="userSpaceOnUse"><stop offset="0" stop-color="#fff"/><stop offset="0.15" stop-color="#cecece"/><stop offset="0.38" stop-color="#868686"/><stop offset="0.59" stop-color="#4c4c4c"/><stop offset="0.77" stop-color="#232323"/><stop offset="0.92" stop-color="#090909"/><stop offset="1"/></linearGradient><filter id="luminosity-noclip-2" x="267.16" y="-8240.94" width="102.63" height="32766" filterUnits="userSpaceOnUse" color-interpolation-filters="sRGB"><feFlood flood-color="#fff" result="bg"/><feBlend in="SourceGraphic" in2="bg"/></filter><mask id="mask-2" x="267.16" y="-8240.94" width="102.63" height="32766" maskUnits="userSpaceOnUse"><g class="cls-22"/></mask><linearGradient id="Безымянный_градиент_107-2" x1="267.16" y1="57.13" x2="369.79" y2="57.13" xlink:href="#Безымянный_градиент_107"/><filter id="luminosity-noclip-3" x="0" y="5.44" width="378.94" height="52.23" filterUnits="userSpaceOnUse" color-interpolation-filters="sRGB"><feFlood flood-color="#fff" result="bg"/><feBlend in="SourceGraphic" in2="bg"/></filter><mask id="mask-3" x="0" y="5.44" width="378.94" height="52.23" maskUnits="userSpaceOnUse"><g class="cls-1"><polygon class="cls-2" points="378.94 5.44 52.23 5.44 0 57.67 326.71 57.67 378.94 5.44"/></g></mask><linearGradient id="Безымянный_градиент_36" y1="31.56" x2="378.94" y2="31.56" gradientUnits="userSpaceOnUse"><stop offset="0" stop-color="#00d0ff"/><stop offset="0.16" stop-color="#03caec"/><stop offset="0.53" stop-color="#09bec3"/><stop offset="0.82" stop-color="#0db6a9"/><stop offset="1" stop-color="#0eb3a0"/></linearGradient><filter id="luminosity-noclip-4" x="267.16" y="50.06" width="102.63" height="14.15" filterUnits="userSpaceOnUse" color-interpolation-filters="sRGB"><feFlood flood-color="#fff" result="bg"/><feBlend in="SourceGraphic" in2="bg"/></filter><mask id="mask-4" x="267.16" y="50.06" width="102.63" height="14.15" maskUnits="userSpaceOnUse"><g class="cls-3"><polygon class="cls-4" points="369.79 50.06 281.3 50.06 267.16 64.2 355.64 64.2 369.79 50.06"/></g></mask><linearGradient id="Безымянный_градиент_36-2" x1="267.16" y1="57.13" x2="369.79" y2="57.13" xlink:href="#Безымянный_градиент_36"/></defs><title>catchphrase_blue_kingslay</title><g id="Layer_2" data-name="Layer 2"><g id="Layer_1-2" data-name="Layer 1"><g class="cls-5"><polygon class="cls-6" points="378.94 5.44 52.23 5.44 0 57.67 326.71 57.67 378.94 5.44"/></g><polygon class="cls-7" points="386.02 18.5 59.31 18.5 7.07 70.73 333.78 70.73 386.02 18.5"/><g class="cls-8"><polygon class="cls-9" points="369.79 50.06 281.3 50.06 267.16 64.2 355.64 64.2 369.79 50.06"/></g><path class="cls-10" d="M333.78,71.47H7.07A.74.74,0,0,1,6.39,71a.76.76,0,0,1,.16-.81L58.79,18a.71.71,0,0,1,.52-.22H386a.74.74,0,0,1,.52,1.26L334.3,71.26A.74.74,0,0,1,333.78,71.47ZM8.85,70H333.48l50.75-50.76H59.61Z"/><path class="cls-10" d="M487.91,82.63H209.33a.74.74,0,0,1-.66-.42.72.72,0,0,1,.09-.78l8.7-10.88a.74.74,0,0,1,1-.12.73.73,0,0,1,.11,1l-7.74,9.68h277a.74.74,0,1,1,0,1.48Z"/><path class="cls-10" d="M495,82.43a4.08,4.08,0,1,1-4.08-4.08A4.08,4.08,0,0,1,495,82.43Z"/><polygon class="cls-11" points="285.92 85.97 274.46 85.97 262.93 97.53 274.39 97.53 285.92 85.97"/><polygon class="cls-12" points="308.03 85.97 296.57 85.97 285.04 97.53 296.5 97.53 308.03 85.97"/><polygon class="cls-13" points="352.25 85.97 340.79 85.97 329.26 97.53 340.73 97.53 352.25 85.97"/><polygon class="cls-14" points="374.36 85.97 362.9 85.97 351.37 97.53 362.84 97.53 374.36 85.97"/><polygon class="cls-15" points="241.7 85.97 230.24 85.97 218.71 97.53 230.17 97.53 241.7 85.97"/><polygon class="cls-10" points="196.6 97.53 208.06 97.53 219.59 85.97 208.13 85.97 196.6 97.53"/><polygon class="cls-16" points="263.81 85.97 252.35 85.97 240.82 97.53 252.28 97.53 263.81 85.97"/><polygon class="cls-17" points="330.14 85.97 318.68 85.97 307.15 97.53 318.62 97.53 330.14 85.97"/><polygon class="cls-18" points="484.92 85.97 473.45 85.97 461.92 97.53 473.39 97.53 484.92 85.97"/><polygon class="cls-19" points="440.69 85.97 429.23 85.97 417.7 97.53 429.17 97.53 440.69 85.97"/><polygon class="cls-20" points="418.58 85.97 407.12 85.97 395.59 97.53 407.06 97.53 418.58 85.97"/><polygon class="cls-21" points="462.81 85.97 451.34 85.97 439.81 97.53 451.28 97.53 462.81 85.97"/><polygon class="cls-7" points="396.47 85.97 385.01 85.97 373.48 97.53 384.95 97.53 396.47 85.97"/><polygon class="cls-11" points="107.46 0 95.99 0 84.46 11.56 95.93 11.56 107.46 0"/><polygon class="cls-12" points="129.57 0 118.1 0 106.57 11.56 118.04 11.56 129.57 0"/><polygon class="cls-13" points="173.79 0 162.32 0 150.79 11.56 162.26 11.56 173.79 0"/><polygon class="cls-14" points="195.9 0 184.43 0 172.91 11.56 184.37 11.56 195.9 0"/><polygon class="cls-15" points="63.23 0 51.77 0 40.24 11.56 51.71 11.56 63.23 0"/><polygon class="cls-10" points="18.13 11.56 29.6 11.56 41.13 0 29.66 0 18.13 11.56"/><polygon class="cls-16" points="85.34 0 73.88 0 62.35 11.56 73.82 11.56 85.34 0"/><polygon class="cls-17" points="151.68 0 140.21 0 128.68 11.56 140.15 11.56 151.68 0"/><polygon class="cls-18" points="306.45 0 294.98 0 283.46 11.56 294.92 11.56 306.45 0"/><polygon class="cls-19" points="262.23 0 250.76 0 239.24 11.56 250.7 11.56 262.23 0"/><polygon class="cls-20" points="240.12 0 228.65 0 217.13 11.56 228.59 11.56 240.12 0"/><polygon class="cls-21" points="284.34 0 272.87 0 261.35 11.56 272.81 11.56 284.34 0"/><polygon class="cls-7" points="218.01 0 206.54 0 195.01 11.56 206.48 11.56 218.01 0"/><path class="cls-10" d="M367.83,76.46h-8l-2.2-2.25V68.29h9.09l1.11,2.24h-8v3.68h8Z"/><path class="cls-10" d="M368.45,68.29h11.3v8.17h-2.22v-2H371v2h-2.5V71.84l2.5-1.31V74l1.34-1.79h5.24V70.53H371Z"/><path class="cls-10" d="M391.44,68.29l-2.21,2.24h-8.88V68.29Zm-4.91,9.29L384,75.33v-4.8L386.53,72Z"/><path class="cls-10" d="M402.23,76.46h-8L392,74.21V68.29h9.09l1.11,2.24h-8v3.68h8Z"/><path class="cls-10" d="M405.05,68.29v2.87H411l-1.67,2.25h-4.28v3h-2.21V68.29Zm5.95,0h2.21v8.17H411V68.29Z"/><path class="cls-10" d="M413.81,68.29h9.08v2.24H416Zm0,8.17V71.17h2.5v5.29Zm9.08-5.93,2.22-2.24v5.12h-7.84V71.17h5.62Z"/><path class="cls-10" d="M427.92,68.29v2.87h5.95l-1.67,2.25h-4.28v3h-2.21V68.29Zm5.95,0h2.21v8.17h-2.21V68.29Z"/><path class="cls-10" d="M439.19,73.41v3h-2.51V71.17h9.08v-.64h-6.87l-2.21-2.24H448v5.12h-3.82l4.79,3H445.2l-5.06-3Z"/><path class="cls-10" d="M449.54,68.29h11.31v8.17h-2.22v-2h-6.58v2h-2.51V71.84l2.51-1.31V74l1.33-1.79h5.25V70.53h-6.58Z"/><path class="cls-10" d="M463.65,70.53v.64h9.1v5.29H461.44l2.21-2.25h6.88v-.8h-9.09V68.29Zm9.1-2.24-2.22,2.24h-6.88V68.29Z"/><path class="cls-10" d="M482.06,73.41h-6.5v.8h8.16v2.25h-8.16l-2.21-2.25V68.29l2.21,2.24v.63h8.17Zm2.59-5.12-2.22,2.24h-6.87V68.29Z"/></g></g></svg>