<svg xmlns="http://www.w3.org/2000/svg" viewBox="0 0 381 490.54"><defs><style>.cls-1,.cls-2{fill:#11e5b3;}.cls-1{opacity:0.35;isolation:isolate;}</style></defs><title>category_green_1</title><g id="Layer_2" data-name="Layer 2"><g id="Layer_1-2" data-name="Layer 1"><g id="Layer_2-2" data-name="Layer 2"><g id="Layer_1-2-2" data-name="Layer 1-2"><polygon class="cls-1" points="346.09 190.83 346.09 151.37 338.04 149.46 338.04 64.41 346.09 57.1 346.09 24.19 355.92 11.54 17.39 11.54 17.39 60.61 27.74 71.31 27.74 132.09 35.78 143.71 35.78 255.19 27.74 263.24 27.74 318.4 17.39 327.66 17.39 482.75 40.84 482.75 56.47 463.21 143.81 463.21 143.81 449.42 231.16 449.42 242.65 464.36 323.1 464.36 334.84 482.75 371.37 482.75 371.37 201.1 346.09 190.83"/><path class="cls-2" d="M372.08,483.45H334.46l-11.74-18.39H242.31l-11.5-14.94H144.52v13.8H56.81L41.18,483.45H16.69V327.34L27,318.09V263l8-8V144l-8-11.62V71.59L16.69,60.89v-50H357.36L346.79,24.43v33l-8,7.31V148.9l8,1.92v39.54l25.29,10.27Zm-36.85-1.4h35.44V201.58l-25.28-10.27V151.93L337.34,150V64.1l8.05-7.31V24l9.09-11.7H18.1v48L28.44,71v60.85l8,11.62v112l-8,8v55.19L18.1,328V482.05H40.5l15.63-19.54h87V448.72h88.4L243,463.66h80.49Z"/><polygon class="cls-2" points="111.71 5.88 65.51 5.88 67.21 0 58.56 0 56.86 5.88 51.95 5.88 53.65 0 45 0 43.3 5.88 38.39 5.88 40.09 0 31.43 0 29.73 5.88 24.83 5.88 26.53 0 17.88 0 16.17 5.88 10.29 5.88 10.29 58.06 19.11 64.67 16.9 13.96 106.56 11.76 111.71 5.88"/><polygon class="cls-2" points="363.05 213.13 363.05 285.88 354.96 282.21 354.96 327.55 371.23 350.72 371.37 201.1 346.09 190.83 346.09 151.37 338.04 149.46 338.04 64.41 346.09 57.1 346.09 24.19 355.92 11.54 342.47 12.49 333.65 26.46 333.65 52.18 324.83 60.26 324.83 155.07 337.33 160.21 337.33 202.1 363.05 213.13"/><polygon class="cls-2" points="354.96 394.62 354.96 424.05 371.13 444.63 371.16 417.13 354.96 394.62"/><polygon class="cls-2" points="371.21 366.49 354.96 343.91 354.96 378.26 371.18 401.36 371.21 366.49"/><path class="cls-2" d="M36,242.52,19.84,258.69V291L0,311.61v11.75l19.84-22v9.55L0,331.45v22.78l11.76-10.29v124.2s3.92,14.52,5.63,14.61,0-155.09,0-155.09l10.35-9.26V263.24l8-8.05Z"/><polygon class="cls-2" points="150.96 448.3 155.87 448.3 164.53 448.3 169.43 448.3 178.09 448.3 183 448.3 191.65 448.3 214.93 448.3 215.8 444.8 192.66 444.8 194.69 437.8 186.03 437.8 184.01 444.8 179.1 444.8 181.12 437.8 172.47 437.8 170.45 444.8 165.54 444.8 167.56 437.8 158.91 437.8 156.88 444.8 151.98 444.8 154 437.8 145.35 437.8 142.31 448.3 144.06 448.3 150.96 448.3"/><polygon class="cls-2" points="288.82 465.2 242.65 464.36 231.16 449.42 143.81 449.42 143.81 459.32 55.85 463.73 40.84 484.22 52.18 484.22 61 472.55 150.66 472.55 150.66 459.32 225.62 459.32 240.32 476.23 299.11 476.23 288.82 465.2"/><path class="cls-2" d="M28.28,238.85h-.7V151.5l-8.76-13.14a.36.36,0,0,1-.06-.2V75h.7v63.1l8.76,13.14a.33.33,0,0,1,.06.19Z"/><path class="cls-2" d="M381,285.88h-.7V195.71l-25.52-11.66.29-.64,25.72,11.76a.35.35,0,0,1,.21.32Z"/><path class="cls-2" d="M61,490.54H16.17v-.7H60.83l7.24-9.42a.37.37,0,0,1,.28-.13h93.33v.7H68.52l-7.24,9.41A.35.35,0,0,1,61,490.54Z"/><circle class="cls-2" cx="162.42" cy="480.64" r="4.59"/><circle class="cls-2" cx="355.7" cy="184.46" r="4.59"/><path class="cls-2" d="M332.18,225.59a.72.72,0,0,1-.7-.7V171.64l-15.82-9.35a.71.71,0,0,1-.35-.61V59.53a.71.71,0,0,1,.17-.46l7.92-9.35V21.28H205a.7.7,0,0,1,0-1.4H324.1a.7.7,0,0,1,.7.7h0V50a.76.76,0,0,1-.16.46l-7.92,9.36V161.28l15.82,9.35a.73.73,0,0,1,.35.61v53.65A.71.71,0,0,1,332.18,225.59Z"/><path class="cls-2" d="M325.57,251.69a.34.34,0,0,1-.35-.33v-72.6l-10.16-8a.36.36,0,0,1-.13-.49.37.37,0,0,1,.49-.14.27.27,0,0,1,.08.07l10.29,8.09a.37.37,0,0,1,.13.28v72.75a.35.35,0,0,1-.33.37Z"/><path class="cls-2" d="M343.94,475.84a.37.37,0,0,1-.3-.16L332,456.74H246.2a.4.4,0,0,1-.3-.17l-6.61-10.28a.35.35,0,0,1,.09-.49h0a.37.37,0,0,1,.49.11L246.39,456h85.79a.36.36,0,0,1,.3.17l11.76,19.11a.35.35,0,0,1-.11.48A.33.33,0,0,1,343.94,475.84Z"/><path class="cls-2" d="M46.3,272.27a.35.35,0,0,1-.35-.35h0V138.75l-8.77-14.61a.54.54,0,0,1,0-.18V66.14a.35.35,0,0,1,.7,0v57.72l8.77,14.61a.54.54,0,0,1,0,.18V271.92A.35.35,0,0,1,46.3,272.27Z"/><polygon class="cls-2" points="55.11 116.88 55.11 107.17 64.81 107.17 55.11 116.88"/><polygon class="cls-2" points="66.37 127.39 55.11 127.39 55.11 125.46 73.4 107.17 86.58 107.17 66.37 127.39"/><polygon class="cls-2" points="88.14 127.39 74.95 127.39 95.17 107.17 108.35 107.17 88.14 127.39"/><polygon class="cls-2" points="109.91 127.39 96.72 127.39 116.94 107.17 130.13 107.17 109.91 127.39"/><polygon class="cls-2" points="131.68 127.39 118.49 127.39 138.71 107.17 151.9 107.17 131.68 127.39"/><polygon class="cls-2" points="153.45 127.39 140.26 127.39 160.48 107.17 173.67 107.17 153.45 127.39"/><polygon class="cls-2" points="175.22 127.39 162.04 127.39 182.25 107.17 195.44 107.17 175.22 127.39"/><polygon class="cls-2" points="196.99 127.39 183.81 127.39 204.02 107.17 217.21 107.17 196.99 127.39"/><polygon class="cls-2" points="218.76 127.39 205.58 127.39 225.79 107.17 238.98 107.17 218.76 127.39"/><polygon class="cls-2" points="240.54 127.39 227.35 127.39 247.56 107.17 260.75 107.17 240.54 127.39"/><polygon class="cls-2" points="262.31 127.39 249.12 127.39 269.34 107.17 282.52 107.17 262.31 127.39"/><polygon class="cls-2" points="284.08 127.39 270.89 127.39 291.11 107.17 296.15 107.17 296.15 115.32 284.08 127.39"/><polygon class="cls-2" points="296.15 127.39 292.66 127.39 296.15 123.91 296.15 127.39"/><polygon class="cls-2" points="55.11 44.89 55.11 35.19 64.81 35.19 55.11 44.89"/><polygon class="cls-2" points="66.37 55.4 55.11 55.4 55.11 53.48 73.4 35.19 86.58 35.19 66.37 55.4"/><polygon class="cls-2" points="88.14 55.4 74.95 55.4 95.17 35.19 108.35 35.19 88.14 55.4"/><polygon class="cls-2" points="109.91 55.4 96.72 55.4 116.94 35.19 130.13 35.19 109.91 55.4"/><polygon class="cls-2" points="131.68 55.4 118.49 55.4 138.71 35.19 151.9 35.19 131.68 55.4"/><polygon class="cls-2" points="153.45 55.4 140.26 55.4 160.48 35.19 173.67 35.19 153.45 55.4"/><polygon class="cls-2" points="175.22 55.4 162.04 55.4 182.25 35.19 195.44 35.19 175.22 55.4"/><polygon class="cls-2" points="196.99 55.4 183.81 55.4 204.02 35.19 217.21 35.19 196.99 55.4"/><polygon class="cls-2" points="218.76 55.4 205.58 55.4 225.79 35.19 238.98 35.19 218.76 55.4"/><polygon class="cls-2" points="240.54 55.4 227.35 55.4 247.56 35.19 260.75 35.19 240.54 55.4"/><polygon class="cls-2" points="262.31 55.4 249.12 55.4 269.34 35.19 282.52 35.19 262.31 55.4"/><polygon class="cls-2" points="284.08 55.4 270.89 55.4 291.11 35.19 296.15 35.19 296.15 43.34 284.08 55.4"/><polygon class="cls-2" points="296.15 55.4 292.66 55.4 296.15 51.92 296.15 55.4"/><path class="cls-2" d="M302.21,135.48H49V27.9H302.21Zm-252.36-.81H301.4v-106H49.85Z"/></g></g></g></g></svg>