<svg xmlns="http://www.w3.org/2000/svg" viewBox="0 0 492.68 179.01"><defs><style>.cls-1{fill:#17cffc;}.cls-2{opacity:0.15;}</style></defs><title>category_page_category_blue</title><g id="Layer_2" data-name="Layer 2"><g id="Layer_1-2" data-name="Layer 1"><polygon class="cls-1" points="16.15 148.59 139.3 148.59 149.73 159.02 25.76 159.02 16.15 148.59"/><polygon class="cls-1" points="323.83 167.88 205.7 167.88 188.33 150.52 163.08 150.52 163.08 149.57 188.73 149.57 206.09 166.93 323.43 166.93 339.33 151.04 339.33 121.22 318.75 100.65 318.75 21.52 285.62 21.52 285.48 21.39 265.04 0.95 141.4 0.95 128.85 13.5 15.37 13.5 2.32 26.55 14.5 38.73 14.5 119.55 1.34 133.1 25.95 157.72 178.3 157.72 178.3 158.67 25.56 158.67 0 133.11 13.55 119.17 13.55 39.13 0.98 26.55 14.98 12.55 128.46 12.55 141 0 265.44 0 265.57 0.14 286.01 20.57 319.71 20.57 319.71 100.25 340.28 120.83 340.28 151.43 323.83 167.88"/><polygon class="cls-1" points="302.11 100.38 312.13 100.49 312.13 60.41 302.11 60.3 302.11 100.38"/><rect class="cls-1" x="284.15" y="40.63" width="11.46" height="59.7"/><rect class="cls-1" x="266.19" y="64.66" width="11.46" height="35.68"/><rect class="cls-1" x="248.23" y="55.54" width="11.46" height="44.79"/><polygon class="cls-1" points="311.28 108.95 248.35 108.95 240.49 101.09 241.16 100.42 248.75 108 310.89 108 315.92 102.97 316.59 103.64 311.28 108.95"/><path class="cls-1" d="M241.17,40.3l-.68-.68,6-6V25.1H247c25-.12,25.09-.05,25.28.14l-.33.34h0l-.08.46c-.66-.07-14.77,0-24.4,0v8Z"/><polygon class="cls-1" points="285.22 109.58 248.31 109.58 245.15 106.42 246.49 105.08 249.1 107.68 285.22 107.68 285.22 109.58"/><path class="cls-1" d="M247.92,29.67H246V24.56H247c2.34,0,6.17,0,6.48,0l.18,1.89c-.18,0-2.1,0-5.71,0Z"/><polygon class="cls-1" points="138.94 2.73 226.11 2.73 228.43 5.05 257.45 5.05 265.24 0.48 141.2 0.48 138.94 2.73"/><polygon class="cls-1" points="319.23 21.05 322.34 24.16 322.34 76.47 319.56 79.25 319.23 21.05"/><polygon class="cls-1" points="9.55 34.45 9.55 123.56 14.09 119.02 14.09 38.93 9.55 34.45"/><polygon class="cls-1" points="325.14 172.4 206.37 172.4 206.37 171.45 324.74 171.45 342.08 154.11 342.76 154.78 325.14 172.4"/><polygon class="cls-1" points="333.44 163.42 333.44 166.57 324.92 175.09 284.62 175.09 281.57 172.04 324.94 172.04 333.44 163.42"/><polyline class="cls-1" points="22.43 164.39 184.49 164.39 184.49 165.34 22.04 165.34 21.9 165.21"/><rect class="cls-1" x="459.94" y="18.67" width="25.93" height="6.4"/><path class="cls-1" d="M492.68,29.93H453.12V13.82h39.56ZM454.07,29h37.66V14.77H454.07Z"/><path class="cls-1" d="M342.89,124.27l-.94-.08c.24-2.87.35-6.25.11-6.79L321.66,97l-.14-.14V85.66l5.58-5.59V42.68l19.75-19.74H446.4v.95H347.24L328.05,43.08V80.47l-5.58,5.58V96.47l20.29,20.28C343.23,117.23,343.28,119.76,342.89,124.27Z"/><g class="cls-2"><polygon class="cls-1" points="21.61 77.1 21.61 36.45 11.89 26.73 19.08 19.54 132.91 19.54 144.25 8.2 222.61 8.2 226.5 12.09 257.26 12.09 262.26 7.08 275.15 19.97 272.39 22.73 241.91 22.73 241.91 29.67 235.23 36.34 235.23 92.41 232.45 95.2 232.45 104.69 191.39 145.74 162.38 145.74 158.16 149.97 149.15 149.97 143.15 143.96 19.66 143.96 9.99 134.3 18.55 125.74 18.55 80.81 21.61 77.1"/></g><g class="cls-2"><polygon class="cls-1" points="192.38 149.97 237.82 104.52 246.71 113.41 312.13 113.41 318.65 106.89 334.8 123.04 334.8 149.97 320.94 163.83 207.02 163.83 192.38 149.97"/></g><polygon class="cls-1" points="118.71 19.54 122.5 23.33 138.15 23.33 150.59 10.9 188.21 10.9 190.61 8.49 144.25 8.49 133.44 19.31 118.71 19.54"/><rect class="cls-1" x="3.82" y="39.06" width="0.53" height="9.13" transform="translate(-29.65 15.67) rotate(-45)"/><rect class="cls-1" x="3.82" y="52.64" width="0.53" height="9.13" transform="translate(-39.25 19.65) rotate(-45)"/><rect class="cls-1" x="3.82" y="66.22" width="0.53" height="9.13" transform="translate(-48.86 23.63) rotate(-45)"/><rect class="cls-1" x="3.82" y="79.8" width="0.53" height="9.13" transform="translate(-58.46 27.6) rotate(-45)"/><rect class="cls-1" x="3.82" y="93.38" width="0.53" height="9.13" transform="translate(-68.06 31.58) rotate(-45)"/><rect class="cls-1" x="3.82" y="106.96" width="0.53" height="9.13" transform="translate(-77.66 35.56) rotate(-45)"/><rect class="cls-1" x="176.25" y="170.56" width="5.36" height="5.36"/><path class="cls-1" d="M184.7,179H173.16V167.47H184.7ZM174,178.19h9.89v-9.9H174Z"/><rect class="cls-1" x="327.61" y="88.83" width="4.33" height="4.33"/><path class="cls-1" d="M334.44,95.65h-9.32V86.33h9.32ZM325.78,95h8V87h-8Z"/><rect class="cls-1" x="146.43" y="170.56" width="5.36" height="5.36"/><path class="cls-1" d="M154.88,179H143.34V167.47h11.54Zm-10.72-.82h9.9v-9.9h-9.9Z"/><rect class="cls-1" x="116.61" y="170.56" width="5.36" height="5.36"/><path class="cls-1" d="M125.06,179H113.52V167.47h11.54Zm-10.72-.82h9.89v-9.9h-9.89Z"/><rect class="cls-1" x="86.78" y="170.56" width="5.36" height="5.36"/><path class="cls-1" d="M95.24,179H83.69V167.47H95.24Zm-10.72-.82h9.89v-9.9H84.52Z"/><rect class="cls-1" x="56.96" y="170.56" width="5.36" height="5.36"/><path class="cls-1" d="M65.41,179H53.87V167.47H65.41Zm-10.71-.82h9.89v-9.9H54.7Z"/><rect class="cls-1" x="27.14" y="170.56" width="5.36" height="5.36"/><path class="cls-1" d="M35.59,179H24.05V167.47H35.59Zm-10.72-.82h9.89v-9.9H24.87Z"/><rect class="cls-1" x="345.05" y="20.98" width="5.36" height="5.36"/><path class="cls-1" d="M353.5,29.44H342V17.89H353.5Zm-10.72-.83h9.9V18.72h-9.9Z"/></g></g></svg>