<svg xmlns="http://www.w3.org/2000/svg" viewBox="0 0 483.59 183.48"><defs><style>.cls-1{fill:#17cffc;}.cls-2{opacity:0.15;}</style></defs><title>category_page_subcat_blue</title><g id="Layer_2" data-name="Layer 2"><g id="Layer_1-2" data-name="Layer 1"><path class="cls-1" d="M214.44,171.49h-.22l-22.09-22.13-.16-.16L192,83.31,157,48.18l-.17-.17.05-45.58L256,2.54h.23l11,11c5.07.51,125.19.33,188.63.16h.55l0,23,23.26,23.31.16.16-.1,94.94-27.86,0-16.62,16.59Zm264.2-17.43.09-93.38L455.48,37.37l-.17-.16,0-22.38c-5.44,0-49.77.12-93.64.16-94.5.07-94.81-.23-95.1-.52L255.8,3.64,158,3.54l0,44L193,82.69l.16.17-.07,65.87,21.6,21.65,220.14.23L451.42,154Z"/><polygon class="cls-1" points="473.78 64.33 454.94 45.45 454.93 57.13 473.59 75.83 473.78 64.33"/><polygon class="cls-1" points="473.76 83.93 454.92 65.05 454.9 76.73 473.57 95.43 473.76 83.93"/><polygon class="cls-1" points="473.74 103.53 454.9 84.65 454.88 96.33 473.55 115.03 473.74 103.53"/><polygon class="cls-1" points="473.72 123.13 454.88 104.25 454.86 115.93 473.52 134.63 473.72 123.13"/><polygon class="cls-1" points="454.86 123.85 454.85 135.53 470.64 151.38 473.55 151.38 473.7 142.73 454.86 123.85"/><polygon class="cls-1" points="454.84 143.45 454.83 151.36 462.74 151.37 454.84 143.45"/><path class="cls-1" d="M471,52.11h7.1l5.52,5.53,0,32.29s-3.56,4.11-3.84,3.83,0-33.71,0-33.71Z"/><path class="cls-1" d="M463.4,154.87,460,158.22s-8.15,0-8.19,0-9.35,9.34-9.35,9.34h-4.63v-3.22l5.93-5.92H448l3.44-3.43Z"/><polygon class="cls-1" points="446.71 149.44 447.49 148.66 435.36 136.5 435.13 136.5 207.26 136.26 199.21 144.3 199.99 145.08 207.72 137.37 434.9 137.61 446.71 149.44"/><polygon class="cls-1" points="438.67 140.6 371.7 140.53 367.65 136.48 434.85 136.55 438.67 140.6"/><path class="cls-1" d="M261.48,8.55V5.21L256.31,0,226.56,0s-3.16,2.61-2.89,2.88,32.8,0,32.8,0Z"/><polygon class="cls-1" points="433.91 180.24 433.91 179.13 208.32 178.9 184.09 154.62 184.16 88.64 184 88.48 151.16 55.57 150.93 55.57 107.72 55.53 107.56 55.69 70.89 92.27 37.79 92.24 37.79 93.34 71.35 93.38 71.51 93.22 108.17 56.63 150.7 56.67 183.06 89.1 182.99 155.08 183.15 155.24 207.86 180 208.09 180 433.91 180.24"/><rect class="cls-1" x="6.04" y="88.88" width="21.4" height="6.81" transform="matrix(-1, 0, 0, -1, 33.38, 184.59)"/><path class="cls-1" d="M0,100.92,0,83.61l33.45,0V101ZM1.59,85.19l0,14.16,30.32,0V85.22Z"/><path class="cls-1" d="M328.08,179.57l3.82,3.83,79.09.08s4.1-3.7,3.71-3.7Z"/><polygon class="cls-1" points="254.39 32.54 264.7 22.24 450.78 22.43 450.78 21.33 264.25 21.14 253.93 31.43 163.24 31.34 163.24 32.44 254.39 32.54"/><polygon class="cls-1" points="259.95 16.94 250.78 7.75 239.88 7.74 239.85 28.17 251.93 28.18 261.47 18.67 259.95 16.94"/><rect class="cls-1" x="220.63" y="7.73" width="12.93" height="20.43" transform="translate(454.18 36.13) rotate(-179.94)"/><rect class="cls-1" x="201.72" y="7.71" width="12.93" height="20.43" transform="matrix(-1, 0, 0, -1, 416.35, 36.07)"/><rect class="cls-1" x="182.81" y="7.69" width="12.93" height="20.43" transform="translate(378.53 36.01) rotate(-179.94)"/><rect class="cls-1" x="163.9" y="7.67" width="12.93" height="20.43" transform="translate(340.71 35.95) rotate(-179.94)"/><g class="cls-2"><polygon class="cls-1" points="203.52 149.57 211.08 142.01 366.08 142.01 369.83 145.75 436.08 145.75 442.04 151.71 442.04 154.83 435.58 161.28 435.58 164.25 432.98 166.86 214.95 166.86 200.67 152.58 203.52 149.57"/></g><polygon class="cls-1" points="105.7 66.64 112.11 60.23 148.5 60.23 158.66 70.39 158.66 73.29 156.23 73.29 156.23 69.97 148.12 61.85 127.03 61.85 125.71 63.17 113.81 63.17 110.95 66.03 105.7 66.64"/><path class="cls-1" d="M109.56,54.09l2.21-2.2h24.76l.93-.93h8.88s3.28,3.34,3.34,3.34H109.33Z"/><polyline class="cls-1" points="177.59 87.08 180.69 90.17 180.69 95.23 177.59 87.23"/><polygon class="cls-1" points="63.1 90.7 70.34 90.7 75.58 85.46 63.1 90.7"/><polygon class="cls-1" points="460.26 33.27 459.65 33.27 459.65 8.54 429.25 8.54 426.41 11.39 425.97 10.95 429 7.92 460.26 7.92 460.26 33.27"/><polygon class="cls-1" points="455.94 8.23 460.05 12.34 460.05 8.1 455.94 8.23"/><polygon class="cls-1" points="160.44 36.13 160.44 45.98 175.22 60.75 175.22 59.11 161.94 45.83 161.94 41.61 162.6 40.95 162.6 34.89 160.44 36.13"/><polygon class="cls-1" points="194.9 121.85 194.9 143.99 202.72 136.16 200.85 136.16 196.8 140.21 196.06 139.47 196.06 124.31 194.9 121.85"/><polygon class="cls-1" points="180.38 147.62 180.38 155.15 187.27 162.05 185.4 162.05 179.48 156.13 179.48 142.01 178.5 141.03 178.5 127.68 181.45 130.63 181.45 145.18 180.38 147.62"/><polygon class="cls-1" points="466.84 164 450.64 164 450.64 163.38 466.59 163.38 471.56 158.41 472 158.84 466.84 164"/></g></g></svg>