<svg xmlns="http://www.w3.org/2000/svg" xmlns:xlink="http://www.w3.org/1999/xlink" viewBox="0 0 492.43 492.43"><defs><style>.cls-1{fill:url(#New_Gradient_Swatch_2);}.cls-2{fill:url(#New_Gradient_Swatch_2-2);}.cls-3{fill:url(#New_Gradient_Swatch_2-3);}.cls-4{fill:url(#New_Gradient_Swatch_2-4);}.cls-5{fill:url(#New_Gradient_Swatch_2-5);}.cls-6{fill:url(#New_Gradient_Swatch_2-6);}.cls-7{fill:url(#New_Gradient_Swatch_2-7);}.cls-8{fill:url(#New_Gradient_Swatch_2-8);}.cls-9{fill:url(#New_Gradient_Swatch_2-9);}.cls-10{fill:url(#New_Gradient_Swatch_2-10);}.cls-11{fill:url(#New_Gradient_Swatch_2-11);}.cls-12{fill:url(#New_Gradient_Swatch_2-12);}.cls-13{fill:url(#New_Gradient_Swatch_2-13);}.cls-14{fill:url(#New_Gradient_Swatch_2-14);}.cls-15{fill:url(#New_Gradient_Swatch_2-15);}</style><linearGradient id="New_Gradient_Swatch_2" x1="228.58" y1="246.22" x2="263.85" y2="246.22" gradientUnits="userSpaceOnUse"><stop offset="0" stop-color="#9541de"/><stop offset="1" stop-color="#3ab2c0"/></linearGradient><linearGradient id="New_Gradient_Swatch_2-2" x1="211.87" y1="246.22" x2="280.56" y2="246.22" xlink:href="#New_Gradient_Swatch_2"/><linearGradient id="New_Gradient_Swatch_2-3" x1="200.73" y1="246.22" x2="291.7" y2="246.22" xlink:href="#New_Gradient_Swatch_2"/><linearGradient id="New_Gradient_Swatch_2-4" x1="0" y1="247.56" x2="204.07" y2="247.56" xlink:href="#New_Gradient_Swatch_2"/><linearGradient id="New_Gradient_Swatch_2-5" x1="288.37" y1="244.87" x2="492.43" y2="244.87" xlink:href="#New_Gradient_Swatch_2"/><linearGradient id="New_Gradient_Swatch_2-6" x1="242.09" y1="102.03" x2="247.66" y2="102.03" xlink:href="#New_Gradient_Swatch_2"/><linearGradient id="New_Gradient_Swatch_2-7" x1="244.77" y1="390.4" x2="250.35" y2="390.4" xlink:href="#New_Gradient_Swatch_2"/><linearGradient id="New_Gradient_Swatch_2-8" x1="34.77" y1="325.86" x2="103" y2="325.86" xlink:href="#New_Gradient_Swatch_2"/><linearGradient id="New_Gradient_Swatch_2-9" x1="34.82" y1="169.88" x2="105.96" y2="169.88" xlink:href="#New_Gradient_Swatch_2"/><linearGradient id="New_Gradient_Swatch_2-10" x1="383.7" y1="166.6" x2="457.49" y2="166.6" xlink:href="#New_Gradient_Swatch_2"/><linearGradient id="New_Gradient_Swatch_2-11" x1="392.2" y1="322.53" x2="457.79" y2="322.53" xlink:href="#New_Gradient_Swatch_2"/><linearGradient id="New_Gradient_Swatch_2-12" x1="262.62" y1="338.05" x2="425.27" y2="338.05" xlink:href="#New_Gradient_Swatch_2"/><linearGradient id="New_Gradient_Swatch_2-13" x1="67.29" y1="339.8" x2="233.03" y2="339.8" xlink:href="#New_Gradient_Swatch_2"/><linearGradient id="New_Gradient_Swatch_2-14" x1="67.16" y1="154.38" x2="229.81" y2="154.38" xlink:href="#New_Gradient_Swatch_2"/><linearGradient id="New_Gradient_Swatch_2-15" x1="259.41" y1="152.63" x2="425.14" y2="152.63" xlink:href="#New_Gradient_Swatch_2"/></defs><title>circle_07_purple_blue</title><g id="Layer_2" data-name="Layer 2"><g id="Layer_1-2" data-name="Layer 1"><path class="cls-1" d="M263.85,246.05a17.64,17.64,0,1,1-17.8-17.47A17.64,17.64,0,0,1,263.85,246.05Z"/><path class="cls-2" d="M246.54,280.56a34.35,34.35,0,1,1,34-34.66A34.39,34.39,0,0,1,246.54,280.56Zm-.61-65a30.64,30.64,0,1,0,30.92,30.35A30.68,30.68,0,0,0,245.93,215.58Z"/><path class="cls-3" d="M246.64,291.7a45.49,45.49,0,1,1,45.06-45.91A45.55,45.55,0,0,1,246.64,291.7Zm-.81-87.25A41.77,41.77,0,1,0,288,245.83,41.8,41.8,0,0,0,245.83,204.45Z"/><path class="cls-4" d="M202.23,248.48,1.87,250.35a1.86,1.86,0,0,1,0-3.72l200.35-1.86a1.86,1.86,0,1,1,0,3.71Z"/><path class="cls-5" d="M490.59,245.8l-200.35,1.86a1.86,1.86,0,1,1,0-3.71l200.35-1.86a1.86,1.86,0,1,1,0,3.71Z"/><path class="cls-6" d="M245.82,204.07a1.87,1.87,0,0,1-1.87-1.84L242.09,1.87a1.86,1.86,0,1,1,3.71,0l1.86,200.35A1.86,1.86,0,0,1,245.82,204.07Z"/><path class="cls-7" d="M248.51,492.43a1.86,1.86,0,0,1-1.88-1.84l-1.86-200.35a1.86,1.86,0,1,1,3.71,0l1.87,200.35A1.86,1.86,0,0,1,248.51,492.43Z"/><path class="cls-8" d="M34.77,255.15A230.26,230.26,0,0,0,87.59,396.68l15.41-.15A219.52,219.52,0,0,1,46.53,255Z"/><path class="cls-9" d="M46.59,241.11A219.65,219.65,0,0,1,106,98.54l-15.9.14A230.28,230.28,0,0,0,34.82,241.22Z"/><path class="cls-10" d="M457.49,237.29A230.29,230.29,0,0,0,399.59,95.8L383.7,96a219.61,219.61,0,0,1,62,141.45Z"/><path class="cls-11" d="M446,251.32A219.45,219.45,0,0,1,392.2,393.84l15.42-.14a230.29,230.29,0,0,0,50.17-142.49Z"/><path class="cls-12" d="M413.93,251.62A167.8,167.8,0,0,1,262.62,413.2l.11,11.4A179.16,179.16,0,0,0,425.27,251.51Z"/><path class="cls-13" d="M232.92,413.48A167.81,167.81,0,0,1,78.63,254.74l-11.34.1A179.15,179.15,0,0,0,233,424.87Z"/><path class="cls-14" d="M229.7,67.83A179.16,179.16,0,0,0,67.16,240.92l11.34-.11A167.8,167.8,0,0,1,229.81,79.23Z"/><path class="cls-15" d="M259.41,67.56l.1,11.39A167.81,167.81,0,0,1,413.8,237.69l11.34-.1A179.15,179.15,0,0,0,259.41,67.56Z"/></g></g></svg>