<svg xmlns="http://www.w3.org/2000/svg" viewBox="0 0 486.71 486.71"><defs><style>.cls-1{fill:#00d0ff;}</style></defs><title>circle_09</title><g id="Layer_2" data-name="Layer 2"><g id="Layer_1-2" data-name="Layer 1"><path class="cls-1" d="M260.32,409.16l-11-11.05,8.29-8.29a4,4,0,0,0,.56-.69,157.64,157.64,0,0,0,131-131,4.63,4.63,0,0,0,.75-.59l8.29-8.29,11.05,11a4.18,4.18,0,1,0,5.92-5.91l-11.06-11,11.06-11.05a4.18,4.18,0,0,0-5.92-5.91l-11.05,11-8.29-8.3a4.38,4.38,0,0,0-.69-.55,157.63,157.63,0,0,0-131-131,4.63,4.63,0,0,0-.59-.75l-8.29-8.29,11-11a4.18,4.18,0,1,0-5.91-5.91l-11,11-11.05-11a4.18,4.18,0,1,0-5.92,5.91l11.06,11-8.3,8.29a4.08,4.08,0,0,0-.58.75,157.6,157.6,0,0,0-131,131,4,4,0,0,0-.7.55l-8.29,8.3-11-11a4.18,4.18,0,0,0-5.91,5.91l11,11.05-11,11a4.18,4.18,0,1,0,5.91,5.91l11-11,8.29,8.29a4.63,4.63,0,0,0,.75.59,157.63,157.63,0,0,0,131,131,4,4,0,0,0,.55.69l8.3,8.29-11.06,11.05a4.19,4.19,0,0,0,5.92,5.92L243.36,404l11,11.06a4.18,4.18,0,1,0,5.91-5.92Zm-17-26.43A149.51,149.51,0,0,1,104,242.91,149.5,149.5,0,0,1,243.36,104,149.51,149.51,0,0,1,382.7,242.91,149.49,149.49,0,0,1,243.36,382.73Z"/><path class="cls-1" d="M243.36,359.36a116,116,0,1,1,116-116A116.13,116.13,0,0,1,243.36,359.36Zm0-229.13A113.13,113.13,0,1,0,356.48,243.36,113.26,113.26,0,0,0,243.36,130.23Z"/><circle class="cls-1" cx="243.36" cy="243.36" r="15.39"/><path class="cls-1" d="M243.36,239.19a1.44,1.44,0,0,1-1.44-1.44V185.89a1.44,1.44,0,1,1,2.87,0v51.86A1.44,1.44,0,0,1,243.36,239.19Z"/><path class="cls-1" d="M243.36,302.26a1.43,1.43,0,0,1-1.44-1.44V249a1.44,1.44,0,0,1,2.87,0v51.86A1.43,1.43,0,0,1,243.36,302.26Z"/><path class="cls-1" d="M323.15,244.79h-72a1.44,1.44,0,1,1,0-2.87h72a1.44,1.44,0,1,1,0,2.87Z"/><path class="cls-1" d="M235.57,244.79h-72a1.44,1.44,0,0,1,0-2.87h72a1.44,1.44,0,1,1,0,2.87Z"/><path class="cls-1" d="M243.42,96.89A1.44,1.44,0,0,1,242,95.45v-94a1.44,1.44,0,1,1,2.88,0v94A1.43,1.43,0,0,1,243.42,96.89Z"/><path class="cls-1" d="M243.29,486.71a1.44,1.44,0,0,1-1.44-1.43v-94a1.44,1.44,0,0,1,2.88,0v94A1.44,1.44,0,0,1,243.29,486.71Z"/><path class="cls-1" d="M485.28,244.79h-94a1.44,1.44,0,1,1,0-2.87h94a1.44,1.44,0,0,1,0,2.87Z"/><path class="cls-1" d="M95.45,244.79h-94a1.44,1.44,0,1,1,0-2.87h94a1.44,1.44,0,1,1,0,2.87Z"/></g></g></svg>