<svg xmlns="http://www.w3.org/2000/svg" xmlns:xlink="http://www.w3.org/1999/xlink" viewBox="0 0 483.79 483.79"><defs><style>.cls-1{mask:url(#mask);filter:url(#luminosity-noclip-2);}.cls-2{mix-blend-mode:multiply;fill:url(#Безымянный_градиент_2);}.cls-3{fill:url(#New_Gradient_Swatch_2);}.cls-4{fill:url(#New_Gradient_Swatch_2-2);}.cls-5{fill:url(#New_Gradient_Swatch_2-3);}.cls-6{fill:url(#New_Gradient_Swatch_2-4);}.cls-7{fill:url(#New_Gradient_Swatch_2-5);}.cls-8{fill:url(#New_Gradient_Swatch_2-6);}.cls-9{fill:url(#New_Gradient_Swatch_2-7);}.cls-10{fill:url(#New_Gradient_Swatch_2-8);}.cls-11{fill:url(#New_Gradient_Swatch_2-9);}.cls-12{fill:url(#New_Gradient_Swatch_2-10);}.cls-13{fill:url(#New_Gradient_Swatch_2-11);}.cls-14{fill:url(#New_Gradient_Swatch_2-12);}.cls-15{fill:url(#New_Gradient_Swatch_2-13);}.cls-16{fill:url(#New_Gradient_Swatch_2-14);}.cls-17{fill:url(#New_Gradient_Swatch_2-15);}.cls-18{fill:url(#New_Gradient_Swatch_2-16);}.cls-19{fill:url(#New_Gradient_Swatch_2-17);}.cls-20{fill:url(#New_Gradient_Swatch_2-18);}.cls-21{fill:url(#New_Gradient_Swatch_2-19);}.cls-22{fill:url(#New_Gradient_Swatch_2-20);}.cls-23,.cls-24,.cls-25{opacity:0.7;}.cls-23{fill:url(#New_Gradient_Swatch_2-21);}.cls-24{fill:url(#New_Gradient_Swatch_2-22);}.cls-25{fill:url(#New_Gradient_Swatch_2-23);}.cls-26{fill:url(#New_Gradient_Swatch_2-24);}.cls-27{fill:url(#New_Gradient_Swatch_2-25);}.cls-28{fill:url(#New_Gradient_Swatch_2-26);}.cls-29{fill:url(#New_Gradient_Swatch_2-27);}.cls-30{fill:url(#New_Gradient_Swatch_2-28);}.cls-31{fill:url(#New_Gradient_Swatch_2-29);}.cls-32{fill:url(#New_Gradient_Swatch_2-30);}.cls-33{fill:url(#New_Gradient_Swatch_2-31);}.cls-34{fill:url(#New_Gradient_Swatch_2-32);}.cls-35{fill:url(#New_Gradient_Swatch_2-33);}.cls-36{fill:url(#New_Gradient_Swatch_2-34);}.cls-37{fill:url(#New_Gradient_Swatch_2-35);}.cls-38{fill:url(#New_Gradient_Swatch_2-36);}.cls-39{fill:url(#New_Gradient_Swatch_2-37);}.cls-40{fill:url(#New_Gradient_Swatch_2-38);}.cls-41{fill:url(#New_Gradient_Swatch_2-39);}.cls-42{fill:url(#New_Gradient_Swatch_2-40);}.cls-43{fill:url(#New_Gradient_Swatch_2-41);}.cls-44{fill:url(#New_Gradient_Swatch_2-42);}.cls-45{fill:url(#New_Gradient_Swatch_2-43);}.cls-46{fill:url(#New_Gradient_Swatch_2-44);}.cls-47{fill:url(#New_Gradient_Swatch_2-45);}.cls-48{fill:url(#New_Gradient_Swatch_2-46);}.cls-49{fill:url(#New_Gradient_Swatch_2-47);}.cls-50{fill:url(#New_Gradient_Swatch_2-48);}.cls-51{fill:url(#New_Gradient_Swatch_2-49);}.cls-52{fill:url(#New_Gradient_Swatch_2-50);}.cls-53{fill:url(#New_Gradient_Swatch_2-51);}.cls-54{fill:url(#New_Gradient_Swatch_2-52);}.cls-55{fill:url(#New_Gradient_Swatch_2-53);}.cls-56{fill:url(#New_Gradient_Swatch_2-54);}.cls-57{fill:url(#New_Gradient_Swatch_2-55);}.cls-58{fill:url(#New_Gradient_Swatch_2-56);}.cls-59{fill:url(#New_Gradient_Swatch_2-57);}.cls-60{fill:url(#New_Gradient_Swatch_2-58);}.cls-61{fill:url(#New_Gradient_Swatch_2-59);}.cls-62{fill:url(#New_Gradient_Swatch_2-60);}.cls-63{fill:url(#New_Gradient_Swatch_2-61);}.cls-64{fill:url(#New_Gradient_Swatch_2-62);}.cls-65{fill:url(#New_Gradient_Swatch_2-63);}.cls-66{fill:url(#New_Gradient_Swatch_2-64);}.cls-67{fill:url(#New_Gradient_Swatch_2-65);}.cls-68{fill:url(#New_Gradient_Swatch_2-66);}.cls-69{fill:url(#New_Gradient_Swatch_2-67);}.cls-70{fill:url(#New_Gradient_Swatch_2-68);}.cls-71{fill:url(#New_Gradient_Swatch_2-69);}.cls-72{fill:url(#New_Gradient_Swatch_2-70);}.cls-73{fill:url(#New_Gradient_Swatch_2-71);}.cls-74{fill:url(#New_Gradient_Swatch_2-72);}.cls-75{fill:url(#New_Gradient_Swatch_2-73);}.cls-76{fill:url(#New_Gradient_Swatch_2-74);}.cls-77{fill:url(#New_Gradient_Swatch_2-75);}.cls-78{fill:url(#New_Gradient_Swatch_2-76);}.cls-79{fill:url(#New_Gradient_Swatch_2-77);}.cls-80{fill:url(#New_Gradient_Swatch_2-78);}.cls-81{fill:url(#New_Gradient_Swatch_2-79);}.cls-82{opacity:0.5;}.cls-83{mask:url(#mask-2);}.cls-84{fill:url(#New_Gradient_Swatch_2-80);}.cls-85{filter:url(#luminosity-noclip);}</style><filter id="luminosity-noclip" x="153.93" y="-8432.71" width="174.68" height="32766" filterUnits="userSpaceOnUse" color-interpolation-filters="sRGB"><feFlood flood-color="#fff" result="bg"/><feBlend in="SourceGraphic" in2="bg"/></filter><mask id="mask" x="153.93" y="-8432.71" width="174.68" height="32766" maskUnits="userSpaceOnUse"><g class="cls-85"/></mask><radialGradient id="Безымянный_градиент_2" cx="223.5" cy="340.71" r="98.98" gradientTransform="translate(44.06 -58.26) scale(0.88)" gradientUnits="userSpaceOnUse"><stop offset="0.59" stop-color="#fff"/><stop offset="0.81" stop-color="gray"/><stop offset="0.9" stop-color="#4d4d4d"/><stop offset="1"/></radialGradient><linearGradient id="New_Gradient_Swatch_2" x1="269.55" y1="241.9" x2="474.13" y2="241.9" gradientUnits="userSpaceOnUse"><stop offset="0" stop-color="#9541de"/><stop offset="1" stop-color="#3ab2c0"/></linearGradient><linearGradient id="New_Gradient_Swatch_2-2" x1="3.51" y1="241.9" x2="208.09" y2="241.9" xlink:href="#New_Gradient_Swatch_2"/><linearGradient id="New_Gradient_Swatch_2-3" x1="468.86" y1="241.9" x2="483.79" y2="241.9" xlink:href="#New_Gradient_Swatch_2"/><linearGradient id="New_Gradient_Swatch_2-4" x1="0" y1="241.9" x2="14.93" y2="241.9" xlink:href="#New_Gradient_Swatch_2"/><linearGradient id="New_Gradient_Swatch_2-5" x1="240.58" y1="371.84" x2="243.21" y2="371.84" xlink:href="#New_Gradient_Swatch_2"/><linearGradient id="New_Gradient_Swatch_2-6" x1="240.58" y1="105.8" x2="243.21" y2="105.8" xlink:href="#New_Gradient_Swatch_2"/><linearGradient id="New_Gradient_Swatch_2-7" x1="234.43" y1="476.33" x2="249.36" y2="476.33" xlink:href="#New_Gradient_Swatch_2"/><linearGradient id="New_Gradient_Swatch_2-8" x1="234.43" y1="7.46" x2="249.36" y2="7.46" xlink:href="#New_Gradient_Swatch_2"/><linearGradient id="New_Gradient_Swatch_2-9" x1="226.09" y1="241.9" x2="257.7" y2="241.9" xlink:href="#New_Gradient_Swatch_2"/><linearGradient id="New_Gradient_Swatch_2-10" x1="193.57" y1="242.5" x2="289.12" y2="242.5" xlink:href="#New_Gradient_Swatch_2"/><linearGradient id="New_Gradient_Swatch_2-11" x1="234.87" y1="242.5" x2="247.82" y2="242.5" xlink:href="#New_Gradient_Swatch_2"/><linearGradient id="New_Gradient_Swatch_2-12" x1="218.94" y1="242.5" x2="263.75" y2="242.5" xlink:href="#New_Gradient_Swatch_2"/><linearGradient id="New_Gradient_Swatch_2-13" x1="212.85" y1="242.5" x2="269.84" y2="242.5" xlink:href="#New_Gradient_Swatch_2"/><linearGradient id="New_Gradient_Swatch_2-14" x1="240.77" y1="242.5" x2="241.92" y2="242.5" xlink:href="#New_Gradient_Swatch_2"/><linearGradient id="New_Gradient_Swatch_2-15" x1="186.47" y1="232.54" x2="276.3" y2="232.54" xlink:href="#New_Gradient_Swatch_2"/><linearGradient id="New_Gradient_Swatch_2-16" x1="208.83" y1="255.5" x2="296.22" y2="255.5" xlink:href="#New_Gradient_Swatch_2"/><linearGradient id="New_Gradient_Swatch_2-17" x1="237.88" y1="172.78" x2="244.81" y2="172.78" xlink:href="#New_Gradient_Swatch_2"/><linearGradient id="New_Gradient_Swatch_2-18" x1="237.88" y1="312.08" x2="244.81" y2="312.08" xlink:href="#New_Gradient_Swatch_2"/><linearGradient id="New_Gradient_Swatch_2-19" x1="293.3" y1="242.43" x2="328.7" y2="242.43" xlink:href="#New_Gradient_Swatch_2"/><linearGradient id="New_Gradient_Swatch_2-20" x1="153.99" y1="242.43" x2="189.39" y2="242.43" xlink:href="#New_Gradient_Swatch_2"/><linearGradient id="New_Gradient_Swatch_2-21" x1="202.22" y1="105.09" x2="281.05" y2="105.09" xlink:href="#New_Gradient_Swatch_2"/><linearGradient id="New_Gradient_Swatch_2-22" x1="96.72" y1="286.82" x2="175.55" y2="286.82" xlink:href="#New_Gradient_Swatch_2"/><linearGradient id="New_Gradient_Swatch_2-23" x1="307.72" y1="286.82" x2="386.55" y2="286.82" xlink:href="#New_Gradient_Swatch_2"/><linearGradient id="New_Gradient_Swatch_2-24" x1="87.47" y1="237.62" x2="395.81" y2="237.62" xlink:href="#New_Gradient_Swatch_2"/><linearGradient id="New_Gradient_Swatch_2-25" x1="135" y1="237.62" x2="348.27" y2="237.62" xlink:href="#New_Gradient_Swatch_2"/><linearGradient id="New_Gradient_Swatch_2-26" x1="240.5" y1="108.35" x2="242.77" y2="108.35" xlink:href="#New_Gradient_Swatch_2"/><linearGradient id="New_Gradient_Swatch_2-27" x1="240.5" y1="366.89" x2="242.77" y2="366.89" xlink:href="#New_Gradient_Swatch_2"/><linearGradient id="New_Gradient_Swatch_2-28" x1="164.14" y1="125.67" x2="189.87" y2="125.67" gradientTransform="translate(86.55 -71.66) rotate(30)" xlink:href="#New_Gradient_Swatch_2"/><linearGradient id="New_Gradient_Swatch_2-29" x1="293.4" y1="349.57" x2="319.14" y2="349.57" gradientTransform="translate(215.82 -106.3) rotate(30)" xlink:href="#New_Gradient_Swatch_2"/><linearGradient id="New_Gradient_Swatch_2-30" x1="108.54" y1="172.99" x2="150.84" y2="172.99" gradientTransform="translate(214.65 -25.82) rotate(60)" xlink:href="#New_Gradient_Swatch_2"/><linearGradient id="New_Gradient_Swatch_2-31" x1="332.43" y1="302.25" x2="374.74" y2="302.25" gradientTransform="translate(438.55 -155.09) rotate(60)" xlink:href="#New_Gradient_Swatch_2"/><linearGradient id="New_Gradient_Swatch_2-32" x1="88.6" y1="237.62" x2="136.13" y2="237.62" xlink:href="#New_Gradient_Swatch_2"/><linearGradient id="New_Gradient_Swatch_2-33" x1="347.14" y1="237.62" x2="394.67" y2="237.62" xlink:href="#New_Gradient_Swatch_2"/><linearGradient id="New_Gradient_Swatch_2-34" x1="108.54" y1="302.25" x2="150.84" y2="302.25" gradientTransform="translate(168.56 -24.34) rotate(30.01)" xlink:href="#New_Gradient_Swatch_2"/><linearGradient id="New_Gradient_Swatch_2-35" x1="332.43" y1="172.99" x2="374.74" y2="172.99" gradientTransform="translate(133.92 -153.65) rotate(30.01)" xlink:href="#New_Gradient_Swatch_2"/><linearGradient id="New_Gradient_Swatch_2-36" x1="164.14" y1="349.57" x2="189.87" y2="349.57" gradientTransform="translate(391.15 21.44) rotate(59.98)" xlink:href="#New_Gradient_Swatch_2"/><linearGradient id="New_Gradient_Swatch_2-37" x1="293.4" y1="125.67" x2="319.14" y2="125.67" gradientTransform="translate(261.91 -202.39) rotate(59.99)" xlink:href="#New_Gradient_Swatch_2"/><linearGradient id="New_Gradient_Swatch_2-38" x1="214.47" y1="47.43" x2="268.8" y2="47.43" xlink:href="#New_Gradient_Swatch_2"/><linearGradient id="New_Gradient_Swatch_2-39" x1="54.77" y1="320.73" x2="109.1" y2="320.73" xlink:href="#New_Gradient_Swatch_2"/><linearGradient id="New_Gradient_Swatch_2-40" x1="373.82" y1="320.73" x2="428.15" y2="320.73" xlink:href="#New_Gradient_Swatch_2"/><linearGradient id="New_Gradient_Swatch_2-41" x1="375.61" y1="293.13" x2="413.62" y2="293.13" xlink:href="#New_Gradient_Swatch_2"/><linearGradient id="New_Gradient_Swatch_2-42" x1="346.11" y1="355.42" x2="365.15" y2="355.42" xlink:href="#New_Gradient_Swatch_2"/><linearGradient id="New_Gradient_Swatch_2-43" x1="333.53" y1="366.59" x2="353.19" y2="366.59" xlink:href="#New_Gradient_Swatch_2"/><linearGradient id="New_Gradient_Swatch_2-44" x1="319.99" y1="376.46" x2="340.05" y2="376.46" xlink:href="#New_Gradient_Swatch_2"/><linearGradient id="New_Gradient_Swatch_2-45" x1="305.63" y1="384.91" x2="325.87" y2="384.91" xlink:href="#New_Gradient_Swatch_2"/><linearGradient id="New_Gradient_Swatch_2-46" x1="290.6" y1="391.86" x2="310.8" y2="391.86" xlink:href="#New_Gradient_Swatch_2"/><linearGradient id="New_Gradient_Swatch_2-47" x1="275.03" y1="397.23" x2="294.99" y2="397.23" xlink:href="#New_Gradient_Swatch_2"/><linearGradient id="New_Gradient_Swatch_2-48" x1="259.1" y1="400.96" x2="278.61" y2="400.96" xlink:href="#New_Gradient_Swatch_2"/><linearGradient id="New_Gradient_Swatch_2-49" x1="242.95" y1="403.03" x2="261.83" y2="403.03" xlink:href="#New_Gradient_Swatch_2"/><linearGradient id="New_Gradient_Swatch_2-50" x1="226.76" y1="403.24" x2="244.83" y2="403.24" xlink:href="#New_Gradient_Swatch_2"/><linearGradient id="New_Gradient_Swatch_2-51" x1="210.73" y1="401.96" x2="227.76" y2="401.96" xlink:href="#New_Gradient_Swatch_2"/><linearGradient id="New_Gradient_Swatch_2-52" x1="195" y1="399.06" x2="210.83" y2="399.06" xlink:href="#New_Gradient_Swatch_2"/><linearGradient id="New_Gradient_Swatch_2-53" x1="179.74" y1="394.5" x2="194.2" y2="394.5" xlink:href="#New_Gradient_Swatch_2"/><linearGradient id="New_Gradient_Swatch_2-54" x1="76.6" y1="322.67" x2="172.77" y2="322.67" xlink:href="#New_Gradient_Swatch_2"/><linearGradient id="New_Gradient_Swatch_2-55" x1="170.77" y1="389.05" x2="174.27" y2="389.05" xlink:href="#New_Gradient_Swatch_2"/><linearGradient id="New_Gradient_Swatch_2-56" x1="132.52" y1="386.94" x2="136.34" y2="386.94" xlink:href="#New_Gradient_Swatch_2"/><linearGradient id="New_Gradient_Swatch_2-57" x1="60.03" y1="255.06" x2="77.92" y2="255.06" xlink:href="#New_Gradient_Swatch_2"/><linearGradient id="New_Gradient_Swatch_2-58" x1="118.19" y1="374.38" x2="134.36" y2="374.38" xlink:href="#New_Gradient_Swatch_2"/><linearGradient id="New_Gradient_Swatch_2-59" x1="361.83" y1="335.38" x2="392.58" y2="335.38" xlink:href="#New_Gradient_Swatch_2"/><linearGradient id="New_Gradient_Swatch_2-60" x1="360.44" y1="345.47" x2="364.1" y2="345.47" xlink:href="#New_Gradient_Swatch_2"/><linearGradient id="New_Gradient_Swatch_2-61" x1="87.42" y1="319.2" x2="107.43" y2="319.2" xlink:href="#New_Gradient_Swatch_2"/><linearGradient id="New_Gradient_Swatch_2-62" x1="66.04" y1="187.13" x2="104.04" y2="187.13" xlink:href="#New_Gradient_Swatch_2"/><linearGradient id="New_Gradient_Swatch_2-63" x1="114.5" y1="124.85" x2="133.55" y2="124.85" xlink:href="#New_Gradient_Swatch_2"/><linearGradient id="New_Gradient_Swatch_2-64" x1="126.47" y1="113.68" x2="146.13" y2="113.68" xlink:href="#New_Gradient_Swatch_2"/><linearGradient id="New_Gradient_Swatch_2-65" x1="139.6" y1="103.81" x2="159.66" y2="103.81" xlink:href="#New_Gradient_Swatch_2"/><linearGradient id="New_Gradient_Swatch_2-66" x1="153.79" y1="95.36" x2="174.02" y2="95.36" xlink:href="#New_Gradient_Swatch_2"/><linearGradient id="New_Gradient_Swatch_2-67" x1="168.86" y1="88.41" x2="189.06" y2="88.41" xlink:href="#New_Gradient_Swatch_2"/><linearGradient id="New_Gradient_Swatch_2-68" x1="184.67" y1="83.04" x2="204.63" y2="83.04" xlink:href="#New_Gradient_Swatch_2"/><linearGradient id="New_Gradient_Swatch_2-69" x1="201.04" y1="79.3" x2="220.56" y2="79.3" xlink:href="#New_Gradient_Swatch_2"/><linearGradient id="New_Gradient_Swatch_2-70" x1="268.83" y1="81.21" x2="284.66" y2="81.21" xlink:href="#New_Gradient_Swatch_2"/><linearGradient id="New_Gradient_Swatch_2-71" x1="285.46" y1="85.76" x2="299.92" y2="85.76" xlink:href="#New_Gradient_Swatch_2"/><linearGradient id="New_Gradient_Swatch_2-72" x1="306.89" y1="157.59" x2="403.06" y2="157.59" xlink:href="#New_Gradient_Swatch_2"/><linearGradient id="New_Gradient_Swatch_2-73" x1="305.38" y1="91.21" x2="308.89" y2="91.21" xlink:href="#New_Gradient_Swatch_2"/><linearGradient id="New_Gradient_Swatch_2-74" x1="343.32" y1="93.32" x2="347.14" y2="93.32" xlink:href="#New_Gradient_Swatch_2"/><linearGradient id="New_Gradient_Swatch_2-75" x1="401.73" y1="225.2" x2="419.63" y2="225.2" xlink:href="#New_Gradient_Swatch_2"/><linearGradient id="New_Gradient_Swatch_2-76" x1="345.29" y1="105.89" x2="361.47" y2="105.89" xlink:href="#New_Gradient_Swatch_2"/><linearGradient id="New_Gradient_Swatch_2-77" x1="87.07" y1="144.89" x2="117.83" y2="144.89" xlink:href="#New_Gradient_Swatch_2"/><linearGradient id="New_Gradient_Swatch_2-78" x1="115.56" y1="134.8" x2="119.22" y2="134.8" xlink:href="#New_Gradient_Swatch_2"/><linearGradient id="New_Gradient_Swatch_2-79" x1="372.23" y1="161.06" x2="392.23" y2="161.06" xlink:href="#New_Gradient_Swatch_2"/><filter id="luminosity-noclip-2" x="153.93" y="155.05" width="174.68" height="174.68" filterUnits="userSpaceOnUse" color-interpolation-filters="sRGB"><feFlood flood-color="#fff" result="bg"/><feBlend in="SourceGraphic" in2="bg"/></filter><mask id="mask-2" x="153.93" y="155.05" width="174.68" height="174.68" maskUnits="userSpaceOnUse"><g class="cls-1"><path class="cls-2" d="M201.74,164.53a87.32,87.32,0,1,0,117.39,38.33A87.34,87.34,0,0,0,201.74,164.53ZM267.48,294a57.89,57.89,0,1,1,25.41-77.83A57.89,57.89,0,0,1,267.48,294Z"/></g></mask><linearGradient id="New_Gradient_Swatch_2-80" x1="153.93" y1="242.39" x2="328.61" y2="242.39" xlink:href="#New_Gradient_Swatch_2"/></defs><title>circle_16_purple_blue</title><g id="Layer_2" data-name="Layer 2"><g id="Layer_1-2" data-name="Layer 1"><rect class="cls-3" x="269.55" y="240.58" width="204.58" height="2.63"/><rect class="cls-4" x="3.51" y="240.58" width="204.58" height="2.63"/><path class="cls-5" d="M476.33,249.36a7.47,7.47,0,1,1,7.46-7.46A7.47,7.47,0,0,1,476.33,249.36Z"/><path class="cls-6" d="M7.46,249.36a7.47,7.47,0,1,1,7.47-7.46A7.46,7.46,0,0,1,7.46,249.36Z"/><rect class="cls-7" x="240.58" y="269.55" width="2.63" height="204.58"/><rect class="cls-8" x="240.58" y="3.51" width="2.63" height="204.58"/><path class="cls-9" d="M234.43,476.33a7.47,7.47,0,1,1,7.47,7.46A7.47,7.47,0,0,1,234.43,476.33Z"/><path class="cls-10" d="M234.43,7.46a7.47,7.47,0,1,1,7.47,7.47A7.46,7.46,0,0,1,234.43,7.46Z"/><path class="cls-11" d="M241.9,257.7a15.81,15.81,0,1,1,15.8-15.8A15.82,15.82,0,0,1,241.9,257.7Zm0-29a13.18,13.18,0,1,0,13.17,13.18A13.18,13.18,0,0,0,241.9,228.72Z"/><path class="cls-12" d="M241.34,290.28a47.78,47.78,0,1,1,47.78-47.78A47.83,47.83,0,0,1,241.34,290.28Zm0-94.41A46.63,46.63,0,1,0,288,242.5,46.68,46.68,0,0,0,241.34,195.87Z"/><path class="cls-13" d="M241.34,249a6.48,6.48,0,1,1,6.48-6.48A6.48,6.48,0,0,1,241.34,249Z"/><path class="cls-14" d="M241.34,264.9a22.4,22.4,0,1,1,22.41-22.4A22.43,22.43,0,0,1,241.34,264.9Zm0-43.65A21.25,21.25,0,1,0,262.6,242.5,21.28,21.28,0,0,0,241.34,221.25Z"/><path class="cls-15" d="M269.26,243.08H213.43a.58.58,0,0,1-.58-.58.57.57,0,0,1,.58-.57h55.83a.57.57,0,0,1,.58.57A.58.58,0,0,1,269.26,243.08Z"/><path class="cls-16" d="M241.34,271a.58.58,0,0,1-.57-.58V214.58a.58.58,0,0,1,1.15,0v55.84A.58.58,0,0,1,241.34,271Z"/><path class="cls-17" d="M235.24,195.7v-1.94a49.21,49.21,0,0,1,6.1-.38,48.37,48.37,0,0,1,6.18.39v1.94a47,47,0,0,1,25.54,11.83l3.24-3.24c-1.05-1-2.15-1.89-3.28-2.76l2.39-2a54.79,54.79,0,0,0-79.86,12.79l2.73,1.44a52.15,52.15,0,0,0-4.43,8.07l-2.72-1.43a54.83,54.83,0,0,0,2.23,48.73l2.4-2a52.52,52.52,0,0,0,7.38,10.38l3.24-3.24a47.2,47.2,0,0,1,28.86-78.52Z"/><path class="cls-18" d="M292.22,263.07a54.88,54.88,0,0,0-2-45.46l-2.42,2a50.81,50.81,0,0,0-3.49-6L281,217a47.17,47.17,0,0,1-33.5,72.34v1.94a48.37,48.37,0,0,1-6.18.39,49.21,49.21,0,0,1-6.1-.38V289.3a46.94,46.94,0,0,1-19.45-7.12l-1.38,1.38c-.36-.23-.71-.46-1.06-.71l-4.52,3.83a54.81,54.81,0,0,0,79.22-15.39l-2.73-1.43a51.52,51.52,0,0,0,4.16-8.22Z"/><path class="cls-19" d="M240.77,190l-2.88-31.08a3.47,3.47,0,1,1,6.91-.64,3.42,3.42,0,0,1,0,.64L241.92,190a.57.57,0,0,1-.63.52A.57.57,0,0,1,240.77,190Z"/><path class="cls-20" d="M241.92,294.91,244.8,326a3.47,3.47,0,1,1-6.91.64,3.42,3.42,0,0,1,0-.64l2.88-31.08a.57.57,0,0,1,.63-.52A.57.57,0,0,1,241.92,294.91Z"/><path class="cls-21" d="M293.82,241.86,324.91,239a3.47,3.47,0,0,1,.64,6.91c-.21,0-.44,0-.64,0L293.82,243a.58.58,0,0,1,0-1.15Z"/><path class="cls-22" d="M188.87,243l-31.09,2.87a3.46,3.46,0,1,1,0-6.9l31.09,2.87a.59.59,0,0,1,.52.63A.6.6,0,0,1,188.87,243Z"/><path class="cls-23" d="M261.34,105.09,241.64,71l-19.71,34.14-19.71,34.13h78.83Zm-46.39,27L228.29,109,241.64,85.9,255,109l13.34,23.11H215Z"/><path class="cls-24" d="M155.84,286.82l-19.71-34.14-19.7,34.14L96.72,321h78.83Zm-46.39,27,13.34-23.11,13.34-23.11,13.35,23.11,13.34,23.11H109.45Z"/><path class="cls-25" d="M366.84,286.82l-19.7-34.14-19.71,34.14L307.72,321h78.83Zm-46.39,27,13.34-23.11,13.35-23.11,13.34,23.11,13.34,23.11H320.45Z"/><path class="cls-26" d="M241.64,391.79c-85,0-154.17-69.16-154.17-154.17S156.63,83.45,241.64,83.45s154.17,69.16,154.17,154.17S326.65,391.79,241.64,391.79Zm0-306.07c-83.76,0-151.9,68.14-151.9,151.9s68.14,151.9,151.9,151.9,151.89-68.14,151.89-151.9S325.39,85.72,241.64,85.72Z"/><path class="cls-27" d="M241.64,344.26A106.64,106.64,0,1,1,348.27,237.62,106.76,106.76,0,0,1,241.64,344.26Zm0-211A104.37,104.37,0,1,0,346,237.62,104.49,104.49,0,0,0,241.64,133.25Z"/><rect class="cls-28" x="240.5" y="84.58" width="2.27" height="47.53"/><rect class="cls-29" x="240.5" y="343.12" width="2.27" height="47.53"/><rect class="cls-30" x="175.87" y="101.9" width="2.27" height="47.53" transform="translate(-39.12 105.34) rotate(-30)"/><rect class="cls-31" x="305.13" y="325.8" width="2.27" height="47.53" transform="translate(-133.75 199.97) rotate(-30)"/><rect class="cls-32" x="128.55" y="149.22" width="2.27" height="47.53" transform="translate(-84.97 198.8) rotate(-60)"/><rect class="cls-33" x="352.45" y="278.49" width="2.27" height="47.53" transform="translate(-84.97 457.34) rotate(-60)"/><rect class="cls-34" x="88.6" y="236.48" width="47.53" height="2.27"/><rect class="cls-35" x="347.14" y="236.48" width="47.53" height="2.27"/><rect class="cls-36" x="105.92" y="301.12" width="47.53" height="2.27" transform="translate(-133.79 105.38) rotate(-30.01)"/><rect class="cls-37" x="329.82" y="171.85" width="47.53" height="2.27" transform="translate(-39.12 200.03) rotate(-30.01)"/><rect class="cls-38" x="153.23" y="348.43" width="47.53" height="2.27" transform="translate(-214.23 327.97) rotate(-59.98)"/><rect class="cls-39" x="282.5" y="124.53" width="47.53" height="2.27" transform="translate(44.27 328.03) rotate(-59.99)"/><polygon class="cls-40" points="266.83 71.52 241.64 27.88 216.44 71.52 214.47 70.39 241.64 23.34 268.8 70.39 266.83 71.52"/><polygon class="cls-41" points="109.1 344.26 54.77 344.26 81.94 297.2 83.91 298.34 58.71 341.99 109.1 341.99 109.1 344.26"/><polygon class="cls-42" points="428.15 344.26 373.82 344.26 373.82 341.99 424.22 341.99 399.02 298.34 400.99 297.2 428.15 344.26"/><path class="cls-43" d="M377.51,346.13a173.62,173.62,0,0,0,36.11-106h-2.39a171.25,171.25,0,0,1-35.62,104.55Z"/><path class="cls-44" d="M363.82,353.1c-2.05,2.12-4,4.31-6.13,6.37-4-.25-7.77-.52-11.58-1,1.29-1.12,2.49-2.34,3.74-3.51s2.5-2.33,3.65-3.59c3.78.17,7.78.36,11.65.26C364.71,352.12,364.28,352.63,363.82,353.1Z"/><path class="cls-45" d="M351.69,365.1l-3.34,2.9c-1.1,1-2.23,1.93-3.4,2.82-3.92-.65-7.63-1.24-11.42-2.17,1.42-1,2.74-2,4.08-3.1s2.72-2.08,4-3.19c3.75.56,7.65,1.09,11.57,1.43C352.71,364.25,352.2,364.68,351.69,365.1Z"/><path class="cls-46" d="M338.42,375.82c-2.42,1.69-4.77,3.47-7.29,5-3.81-1-7.47-2-11.14-3.31l2.23-1.27,2.15-1.38,4.32-2.77q5.52,1.43,11.36,2.6Z"/><path class="cls-47" d="M324.13,385.14l-3.83,2.2c-1.29.72-2.62,1.36-3.93,2q-2.75-1-5.42-2.09c-1.79-.74-3.58-1.55-5.32-2.34,3.15-1.34,6.15-3,9.2-4.52,3.59,1.38,7.23,2.55,11,3.74Z"/><path class="cls-48" d="M309,393l-4,1.81-4.11,1.62c-1.76-.87-3.48-1.71-5.19-2.64s-3.39-1.9-5-2.87c1.61-.57,3.25-1,4.83-1.68l4.77-1.88c3.46,1.8,6.93,3.27,10.6,4.84Z"/><path class="cls-49" d="M293.1,399.19c-2.78,1-5.62,1.79-8.45,2.59-3.31-2-6.54-4.28-9.62-6.53,1.66-.4,3.33-.75,5-1.17l4.92-1.4c3.26,2.15,6.57,4,10.05,5.9Z"/><path class="cls-50" d="M276.67,403.77c-2.86.73-5.77,1.18-8.67,1.71-3.08-2.33-6.07-4.94-8.9-7.48l5.08-.65,5-.9c3,2.47,6.14,4.67,9.39,6.9Z"/><path class="cls-51" d="M259.86,406.65c-2.92.44-5.87.57-8.81.81-2.82-2.62-5.53-5.53-8.1-8.34l5.13-.12,5.11-.4c2.76,2.76,5.63,5.29,8.64,7.82Z"/><path class="cls-52" d="M242.83,407.8c-2.94.14-5.89,0-8.84-.07-2.55-2.9-5-6-7.23-9.1l5.12.38,5.13.12c2.47,3,5.07,5.82,7.82,8.65Z"/><path class="cls-53" d="M225.78,407.25c-2.94-.16-5.86-.6-8.79-1-2.24-3.14-4.31-6.52-6.26-9.79l5,.9,5.09.64c2.15,3.26,4.46,6.29,6.9,9.39Z"/><path class="cls-54" d="M208.88,405c-2.92-.45-5.77-1.2-8.65-1.85-1.91-3.34-3.62-6.94-5.23-10.37l4.93,1.4,5,1.16c1.8,3.45,3.79,6.72,5.91,10Z"/><path class="cls-55" d="M192.29,401c-2.86-.73-5.61-1.81-8.41-2.71-1.56-3.53-2.88-7.31-4.14-10.86l4.76,1.88c1.6.61,3.23,1.11,4.84,1.67.74,1.77,1.49,3.59,2.31,5.35s1.66,3.48,2.55,5.24Z"/><path class="cls-56" d="M76.6,255.78a165.81,165.81,0,0,0,9.62,41.85c1.33,3.34,2.58,6.7,4.13,9.94s3.1,6.48,4.74,9.67a160.11,160.11,0,0,0,11.38,18.27,163.29,163.29,0,0,0,65.83,54.06l.47-1a163.11,163.11,0,0,1-36-22.35,165.22,165.22,0,0,1-15.52-14.53l-1.83-1.92-1.75-2-3.48-4-3.28-4.19-1.64-2.09-1.54-2.17a162.39,162.39,0,0,1-29.88-78.57Z"/><path class="cls-57" d="M174.09,389.75a1.72,1.72,0,1,1-3.12-1.41,1.72,1.72,0,1,1,3.12,1.41Z"/><path class="cls-58" d="M136,388a1.9,1.9,0,0,1-2.67.46,1.87,1.87,0,0,1-.42-2.65,2,2,0,0,1,2.67-.47A1.92,1.92,0,0,1,136,388Z"/><path class="cls-59" d="M71.07,270c-1.6-1.05-3.22-2.13-4.83-3.24s-3.12-2.28-4.68-3.46A189,189,0,0,1,60,240.13h9.62q4.14,3.76,8.27,7.17l-9.3.4c0,1.87.25,3.74.36,5.6s.22,3.74.49,5.59C70,262.6,70.34,266.33,71.07,270Z"/><path class="cls-60" d="M118.34,374.72a188.19,188.19,0,0,0,15.36,12.39l.66-.93a184.38,184.38,0,0,1-14.9-12c-.2-4.22-.18-8.46-.11-12.54l-1.11.05C118.16,365.93,118.16,370.31,118.34,374.72Z"/><path class="cls-61" d="M392.58,326l-.32-1.06q-4.53,1.14-8.94,2.06c-3,.58-6,1.07-8.95,1.5-.9,1.48-1.93,2.88-2.94,4.29s-2,2.85-3,4.22c-2.16,2.72-4.22,5.51-6.56,8.09l.87.74c2.3-2.54,4.34-5.3,6.47-8,1.07-1.35,2-2.78,3-4.17s2-2.76,2.92-4.22q4.31-.64,8.74-1.47C386.74,327.42,389.63,326.73,392.58,326Z"/><path class="cls-62" d="M360.65,344.43a1.73,1.73,0,0,1,2.46-.44,1.87,1.87,0,0,1,.78,2.49,1.73,1.73,0,0,1-2.48.45A1.91,1.91,0,0,1,360.65,344.43Z"/><path class="cls-63" d="M92.39,304.13a160.14,160.14,0,0,0,15,27.07L103,334.28a165.65,165.65,0,0,1-15.55-28Z"/><path class="cls-64" d="M102.15,134.13A173.62,173.62,0,0,0,66,240.13h2.39A171.28,171.28,0,0,1,104,135.59Z"/><path class="cls-65" d="M115.83,127.16c2-2.12,4-4.3,6.14-6.36,4,.24,7.77.52,11.58,1-1.3,1.11-2.49,2.34-3.74,3.5s-2.5,2.33-3.65,3.6c-3.78-.18-7.78-.37-11.66-.26C115,128.15,115.38,127.64,115.83,127.16Z"/><path class="cls-66" d="M128,115.16l3.34-2.89c1.1-1,2.22-1.93,3.4-2.82,3.92.64,7.63,1.24,11.42,2.16-1.42,1-2.74,2-4.08,3.1s-2.72,2.08-4,3.2c-3.75-.56-7.65-1.09-11.57-1.44C126.94,116,127.46,115.59,128,115.16Z"/><path class="cls-67" d="M141.24,104.45c2.41-1.7,4.77-3.47,7.29-5,3.81,1,7.47,2,11.13,3.31L157.44,104l-2.16,1.38L151,108.17q-5.52-1.41-11.37-2.59Z"/><path class="cls-68" d="M155.53,95.13l3.83-2.21c1.29-.72,2.62-1.35,3.92-2,1.84.69,3.65,1.38,5.43,2.1s3.57,1.54,5.31,2.34c-3.14,1.33-6.14,3-9.19,4.51-3.6-1.38-7.24-2.55-11-3.73Z"/><path class="cls-69" d="M170.69,87.31l4-1.82,4.11-1.62c1.76.87,3.48,1.72,5.18,2.64s3.4,1.9,5.05,2.87c-1.61.57-3.25,1.05-4.83,1.69L179.46,93c-3.46-1.8-6.93-3.28-10.6-4.85Z"/><path class="cls-70" d="M186.56,81.07c2.77-1,5.61-1.79,8.45-2.58,3.31,2,6.53,4.27,9.62,6.53-1.66.39-3.34.74-5,1.17l-4.93,1.4c-3.26-2.16-6.57-4-10-5.9Z"/><path class="cls-71" d="M203,76.49c2.86-.72,5.77-1.18,8.67-1.7,3.08,2.32,6.07,4.93,8.9,7.47l-5.08.65-5,.9c-3-2.46-6.14-4.66-9.4-6.89Z"/><path class="cls-72" d="M270.78,75.28c2.92.46,5.77,1.21,8.65,1.85,1.91,3.34,3.62,6.94,5.23,10.38l-4.93-1.41-5-1.15c-1.81-3.45-3.79-6.72-5.91-10Z"/><path class="cls-73" d="M287.37,79.26c2.85.74,5.6,1.81,8.41,2.72,1.56,3.52,2.88,7.3,4.14,10.86L295.15,91c-1.59-.61-3.22-1.11-4.84-1.67-.73-1.77-1.49-3.59-2.3-5.35s-1.67-3.49-2.55-5.25Z"/><path class="cls-74" d="M403.06,224.48a162.08,162.08,0,0,0-3.46-21.24,159,159,0,0,0-6.17-20.61c-1.32-3.34-2.58-6.7-4.13-9.94s-3.1-6.47-4.73-9.67a162.42,162.42,0,0,0-11.38-18.27,163.55,163.55,0,0,0-65.83-54l-.47,1a163.3,163.3,0,0,1,36,22.34,165.19,165.19,0,0,1,15.51,14.53l1.84,1.92,1.75,2,3.48,4,3.28,4.18,1.64,2.1L372,145a162.43,162.43,0,0,1,29.88,78.58Z"/><path class="cls-75" d="M305.57,90.51a1.72,1.72,0,1,1,3.12,1.41,1.72,1.72,0,1,1-3.12-1.41Z"/><path class="cls-76" d="M343.68,92.23a1.9,1.9,0,0,1,2.66-.46,1.88,1.88,0,0,1,.43,2.66,2,2,0,0,1-2.67.46A1.92,1.92,0,0,1,343.68,92.23Z"/><path class="cls-77" d="M408.58,210.27c1.61,1,3.23,2.12,4.84,3.24s3.11,2.27,4.68,3.46a188.83,188.83,0,0,1,1.53,23.16H410q-4.14-3.75-8.28-7.16l9.31-.41c0-1.87-.25-3.73-.36-5.6s-.23-3.73-.49-5.59C409.7,217.66,409.32,213.94,408.58,210.27Z"/><path class="cls-78" d="M361.32,105.54A188.07,188.07,0,0,0,346,93.16l-.67.92a185,185,0,0,1,14.91,12c.2,4.22.17,8.47.1,12.54l1.12-.05C361.5,114.34,361.5,110,361.32,105.54Z"/><path class="cls-79" d="M87.07,154.27l.32,1.07q4.55-1.14,9-2.07c3-.57,6-1.06,8.94-1.49.91-1.48,1.94-2.88,2.94-4.3s2-2.85,3-4.22c2.16-2.71,4.22-5.51,6.56-8.08l-.87-.75c-2.3,2.54-4.34,5.3-6.48,8-1.06,1.34-2,2.78-3,4.16s-2,2.76-2.91,4.23q-4.31.63-8.74,1.47C92.91,152.85,90,153.54,87.07,154.27Z"/><path class="cls-80" d="M119,135.83a1.75,1.75,0,0,1-2.47.45,1.88,1.88,0,0,1-.77-2.49,1.73,1.73,0,0,1,2.48-.46A1.94,1.94,0,0,1,119,135.83Z"/><path class="cls-81" d="M387.26,176.14a159.87,159.87,0,0,0-15-27.08l4.46-3.07a165.22,165.22,0,0,1,15.54,28Z"/><g class="cls-82"><g class="cls-83"><path class="cls-84" d="M201.74,164.53a87.32,87.32,0,1,0,117.39,38.33A87.34,87.34,0,0,0,201.74,164.53ZM267.48,294a57.89,57.89,0,1,1,25.41-77.83A57.89,57.89,0,0,1,267.48,294Z"/></g></g></g></g></svg>