<svg xmlns="http://www.w3.org/2000/svg" xmlns:xlink="http://www.w3.org/1999/xlink" viewBox="0 0 446.31 495.76"><defs><style>.cls-1{mask:url(#mask);filter:url(#luminosity-noclip-22);}.cls-10,.cls-12,.cls-14,.cls-16,.cls-18,.cls-2,.cls-20,.cls-22,.cls-24,.cls-26,.cls-32,.cls-34,.cls-36,.cls-38,.cls-4,.cls-6,.cls-8{mix-blend-mode:multiply;}.cls-2{fill:url(#Безымянный_градиент_3);}.cls-3,.cls-7{mask:url(#mask-2);}.cls-3{filter:url(#luminosity-noclip-27);}.cls-4{fill:url(#linear-gradient);}.cls-5{mask:url(#mask-3);filter:url(#luminosity-noclip-28);}.cls-6{fill:url(#linear-gradient-2);}.cls-7{filter:url(#luminosity-noclip-29);}.cls-8{fill:url(#linear-gradient-3);}.cls-37,.cls-9{mask:url(#mask-5);}.cls-9{filter:url(#luminosity-noclip-30);}.cls-10{fill:url(#linear-gradient-4);}.cls-11{mask:url(#mask-6);filter:url(#luminosity-noclip-31);}.cls-12{fill:url(#linear-gradient-5);}.cls-13{mask:url(#mask-7);filter:url(#luminosity-noclip-23);}.cls-14{fill:url(#linear-gradient-6);}.cls-15{mask:url(#mask-8);filter:url(#luminosity-noclip-32);}.cls-16{fill:url(#linear-gradient-7);}.cls-17{mask:url(#mask-9);filter:url(#luminosity-noclip-33);}.cls-18{fill:url(#linear-gradient-8);}.cls-19,.cls-27{mask:url(#mask-10);}.cls-19{filter:url(#luminosity-noclip-34);}.cls-20{fill:url(#linear-gradient-9);}.cls-21,.cls-28{mask:url(#mask-11);}.cls-21{filter:url(#luminosity-noclip-35);}.cls-22{fill:url(#linear-gradient-10);}.cls-23,.cls-29{mask:url(#mask-12);}.cls-23{filter:url(#luminosity-noclip-36);}.cls-24{fill:url(#linear-gradient-11);}.cls-25,.cls-30{mask:url(#mask-13);}.cls-25{filter:url(#luminosity-noclip-37);}.cls-26{fill:url(#linear-gradient-12);}.cls-31{mask:url(#mask-18);filter:url(#luminosity-noclip-24);}.cls-32{fill:url(#linear-gradient-17);}.cls-33{mask:url(#mask-19);filter:url(#luminosity-noclip-42);}.cls-34{fill:url(#radial-gradient);}.cls-35{mask:url(#mask-20);filter:url(#luminosity-noclip-25);}.cls-36{fill:url(#linear-gradient-18);}.cls-37{filter:url(#luminosity-noclip-26);}.cls-38{fill:url(#linear-gradient-19);}.cls-39{opacity:0.77;}.cls-40{mask:url(#mask-22);}.cls-41,.cls-43,.cls-47,.cls-48,.cls-49,.cls-50,.cls-51,.cls-52{fill:#17cffc;}.cls-42,.cls-43{opacity:0.5;}.cls-44{mask:url(#mask-23);}.cls-45{mask:url(#mask-24);}.cls-46{mask:url(#mask-25);}.cls-47{opacity:0.6;}.cls-48{opacity:0.7;}.cls-49{opacity:0.4;}.cls-50{opacity:0.8;}.cls-51{opacity:0.9;}.cls-52,.cls-53{opacity:0.3;}.cls-54{mask:url(#mask-26);}.cls-55{mask:url(#mask-27);}.cls-56{mask:url(#mask-28);}.cls-57{mask:url(#mask-29);}.cls-58{mask:url(#mask-30);}.cls-59{mask:url(#mask-31);}.cls-60{mask:url(#mask-32);}.cls-61{mask:url(#mask-33);}.cls-62{mask:url(#mask-34);}.cls-63{mask:url(#mask-35);}.cls-64{mask:url(#mask-36);}.cls-65{mask:url(#mask-37);}.cls-66{mask:url(#mask-42);}.cls-67{filter:url(#luminosity-noclip-20);}.cls-68{filter:url(#luminosity-noclip-19);}.cls-69{filter:url(#luminosity-noclip-18);}.cls-70{filter:url(#luminosity-noclip-13);}.cls-71{filter:url(#luminosity-noclip-12);}.cls-72{filter:url(#luminosity-noclip-11);}.cls-73{filter:url(#luminosity-noclip-10);}.cls-74{filter:url(#luminosity-noclip-9);}.cls-75{filter:url(#luminosity-noclip-8);}.cls-76{filter:url(#luminosity-noclip-7);}.cls-77{filter:url(#luminosity-noclip-6);}.cls-78{filter:url(#luminosity-noclip-5);}.cls-79{filter:url(#luminosity-noclip-3);}.cls-80{filter:url(#luminosity-noclip-2);}.cls-81{filter:url(#luminosity-noclip);}</style><filter id="luminosity-noclip" x="14.05" y="-8440.2" width="406.82" height="32766" filterUnits="userSpaceOnUse" color-interpolation-filters="sRGB"><feFlood flood-color="#fff" result="bg"/><feBlend in="SourceGraphic" in2="bg"/></filter><mask id="mask" x="14.05" y="-8440.2" width="406.82" height="32766" maskUnits="userSpaceOnUse"><g class="cls-81"/></mask><linearGradient id="Безымянный_градиент_3" x1="442.61" y1="25.06" x2="55.11" y2="402.49" gradientUnits="userSpaceOnUse"><stop offset="0" stop-color="#fff"/><stop offset="0.31" stop-color="#b3b3b3"/><stop offset="0.68" stop-color="#4d4d4d"/><stop offset="1"/></linearGradient><filter id="luminosity-noclip-2" x="211.17" y="-8440.2" width="10.05" height="32766" filterUnits="userSpaceOnUse" color-interpolation-filters="sRGB"><feFlood flood-color="#fff" result="bg"/><feBlend in="SourceGraphic" in2="bg"/></filter><mask id="mask-2" x="211.17" y="-8440.2" width="10.05" height="32766" maskUnits="userSpaceOnUse"><g class="cls-80"/></mask><linearGradient id="linear-gradient" x1="-981.84" y1="118.58" x2="-981.84" y2="7.29" gradientTransform="matrix(-1, 0, 0, 1, -765.65, 0)" gradientUnits="userSpaceOnUse"><stop offset="0" stop-color="#fff"/><stop offset="0.08" stop-color="#d1d1d1"/><stop offset="0.17" stop-color="#a0a0a0"/><stop offset="0.26" stop-color="#757575"/><stop offset="0.36" stop-color="#515151"/><stop offset="0.46" stop-color="#333"/><stop offset="0.57" stop-color="#1d1d1d"/><stop offset="0.69" stop-color="#0d0d0d"/><stop offset="0.82" stop-color="#030303"/><stop offset="1"/></linearGradient><filter id="luminosity-noclip-3" x="221.01" y="-8440.2" width="2.14" height="32766" filterUnits="userSpaceOnUse" color-interpolation-filters="sRGB"><feFlood flood-color="#fff" result="bg"/><feBlend in="SourceGraphic" in2="bg"/></filter><mask id="mask-3" x="221.01" y="-8440.2" width="2.14" height="32766" maskUnits="userSpaceOnUse"><g class="cls-79"/></mask><linearGradient id="linear-gradient-2" x1="222.08" y1="105.56" x2="222.08" y2="0" gradientTransform="matrix(1, 0, 0, 1, 0, 0)" xlink:href="#linear-gradient"/><linearGradient id="linear-gradient-3" x1="-580.38" y1="1535.87" x2="-580.38" y2="1424.57" gradientTransform="translate(-364.19 1913.04) rotate(180)" xlink:href="#linear-gradient"/><filter id="luminosity-noclip-5" x="222.96" y="-8440.2" width="10.05" height="32766" filterUnits="userSpaceOnUse" color-interpolation-filters="sRGB"><feFlood flood-color="#fff" result="bg"/><feBlend in="SourceGraphic" in2="bg"/></filter><mask id="mask-5" x="222.96" y="-8440.2" width="10.05" height="32766" maskUnits="userSpaceOnUse"><g class="cls-78"/></mask><linearGradient id="linear-gradient-4" x1="-173.48" y1="1535.87" x2="-173.48" y2="1424.57" gradientTransform="matrix(1, 0, 0, -1, 401.46, 1913.04)" xlink:href="#linear-gradient"/><filter id="luminosity-noclip-6" x="221.01" y="-8440.2" width="2.14" height="32766" filterUnits="userSpaceOnUse" color-interpolation-filters="sRGB"><feFlood flood-color="#fff" result="bg"/><feBlend in="SourceGraphic" in2="bg"/></filter><mask id="mask-6" x="221.01" y="-8440.2" width="2.14" height="32766" maskUnits="userSpaceOnUse"><g class="cls-77"/></mask><linearGradient id="linear-gradient-5" x1="-586.27" y1="1522.84" x2="-586.27" y2="1417.28" gradientTransform="translate(-364.19 1913.04) rotate(180)" xlink:href="#linear-gradient"/><filter id="luminosity-noclip-7" x="212.98" y="-8440.2" width="18.22" height="32766" filterUnits="userSpaceOnUse" color-interpolation-filters="sRGB"><feFlood flood-color="#fff" result="bg"/><feBlend in="SourceGraphic" in2="bg"/></filter><mask id="mask-7" x="212.98" y="-8440.2" width="18.22" height="32766" maskUnits="userSpaceOnUse"><g class="cls-76"/></mask><linearGradient id="linear-gradient-6" x1="222.09" y1="171.33" x2="222.09" y2="130.61" gradientUnits="userSpaceOnUse"><stop offset="0" stop-color="#fff"/><stop offset="0.14" stop-color="#e3e3e3"/><stop offset="0.43" stop-color="#9a9a9a"/><stop offset="0.86" stop-color="#282828"/><stop offset="1"/></linearGradient><filter id="luminosity-noclip-8" x="340.75" y="-8440.2" width="105.56" height="32766" filterUnits="userSpaceOnUse" color-interpolation-filters="sRGB"><feFlood flood-color="#fff" result="bg"/><feBlend in="SourceGraphic" in2="bg"/></filter><mask id="mask-8" x="340.75" y="-8440.2" width="105.56" height="32766" maskUnits="userSpaceOnUse"><g class="cls-75"/></mask><linearGradient id="linear-gradient-7" x1="-733.69" y1="274.27" x2="-733.69" y2="168.71" gradientTransform="translate(615.02 979.89) rotate(90)" xlink:href="#linear-gradient"/><filter id="luminosity-noclip-9" x="0" y="-8440.2" width="105.56" height="32766" filterUnits="userSpaceOnUse" color-interpolation-filters="sRGB"><feFlood flood-color="#fff" result="bg"/><feBlend in="SourceGraphic" in2="bg"/></filter><mask id="mask-9" x="0" y="-8440.2" width="105.56" height="32766" maskUnits="userSpaceOnUse"><g class="cls-74"/></mask><linearGradient id="linear-gradient-8" x1="786.82" y1="1995.44" x2="786.82" y2="1889.89" gradientTransform="translate(-1889.89 1033.02) rotate(-90)" xlink:href="#linear-gradient"/><filter id="luminosity-noclip-10" x="234.84" y="-8440.2" width="57.58" height="32766" filterUnits="userSpaceOnUse" color-interpolation-filters="sRGB"><feFlood flood-color="#fff" result="bg"/><feBlend in="SourceGraphic" in2="bg"/></filter><mask id="mask-10" x="234.84" y="-8440.2" width="57.58" height="32766" maskUnits="userSpaceOnUse"><g class="cls-73"/></mask><linearGradient id="linear-gradient-9" x1="213.42" y1="212.07" x2="271.93" y2="181.42" gradientTransform="translate(15.68 5.37) rotate(0.39)" gradientUnits="userSpaceOnUse"><stop offset="0" stop-color="#fff"/><stop offset="0.04" stop-color="#e9e9e9"/><stop offset="0.15" stop-color="#b3b3b3"/><stop offset="0.26" stop-color="#838383"/><stop offset="0.37" stop-color="#5b5b5b"/><stop offset="0.49" stop-color="#3a3a3a"/><stop offset="0.6" stop-color="#202020"/><stop offset="0.73" stop-color="#0e0e0e"/><stop offset="0.85" stop-color="#030303"/><stop offset="1"/></linearGradient><filter id="luminosity-noclip-11" x="236.52" y="-8440.2" width="66.42" height="32766" filterUnits="userSpaceOnUse" color-interpolation-filters="sRGB"><feFlood flood-color="#fff" result="bg"/><feBlend in="SourceGraphic" in2="bg"/></filter><mask id="mask-11" x="236.52" y="-8440.2" width="66.42" height="32766" maskUnits="userSpaceOnUse"><g class="cls-72"/></mask><linearGradient id="linear-gradient-10" x1="227.27" y1="240.41" x2="285.61" y2="209.85" gradientTransform="translate(15.68 5.37) rotate(0.39)" gradientUnits="userSpaceOnUse"><stop offset="0" stop-color="#fff"/><stop offset="0.02" stop-color="#f8f8f8"/><stop offset="0.18" stop-color="#b7b7b7"/><stop offset="0.34" stop-color="#7f7f7f"/><stop offset="0.49" stop-color="#525252"/><stop offset="0.64" stop-color="#2e2e2e"/><stop offset="0.78" stop-color="#151515"/><stop offset="0.9" stop-color="#050505"/><stop offset="1"/></linearGradient><filter id="luminosity-noclip-12" x="152.29" y="-8440.2" width="58.45" height="32766" filterUnits="userSpaceOnUse" color-interpolation-filters="sRGB"><feFlood flood-color="#fff" result="bg"/><feBlend in="SourceGraphic" in2="bg"/></filter><mask id="mask-12" x="152.29" y="-8440.2" width="58.45" height="32766" maskUnits="userSpaceOnUse"><g class="cls-71"/></mask><linearGradient id="linear-gradient-11" x1="-1022.76" y1="1616.82" x2="-964.25" y2="1586.17" gradientTransform="translate(-860.07 1852.72) rotate(-178.03)" xlink:href="#linear-gradient-9"/><filter id="luminosity-noclip-13" x="142.58" y="-8440.2" width="66.62" height="32766" filterUnits="userSpaceOnUse" color-interpolation-filters="sRGB"><feFlood flood-color="#fff" result="bg"/><feBlend in="SourceGraphic" in2="bg"/></filter><mask id="mask-13" x="142.58" y="-8440.2" width="66.62" height="32766" maskUnits="userSpaceOnUse"><g class="cls-70"/></mask><linearGradient id="linear-gradient-12" x1="-1008.91" y1="1645.16" x2="-950.57" y2="1614.6" gradientTransform="translate(-860.07 1852.72) rotate(-178.03)" xlink:href="#linear-gradient-10"/><filter id="luminosity-noclip-18" x="296.56" y="-8440.2" width="40.72" height="32766" filterUnits="userSpaceOnUse" color-interpolation-filters="sRGB"><feFlood flood-color="#fff" result="bg"/><feBlend in="SourceGraphic" in2="bg"/></filter><mask id="mask-18" x="296.56" y="-8440.2" width="40.72" height="32766" maskUnits="userSpaceOnUse"><g class="cls-69"/></mask><linearGradient id="linear-gradient-17" x1="296.56" y1="245.8" x2="337.28" y2="245.8" xlink:href="#linear-gradient-6"/><filter id="luminosity-noclip-19" x="146.36" y="-8440.2" width="153.59" height="32766" filterUnits="userSpaceOnUse" color-interpolation-filters="sRGB"><feFlood flood-color="#fff" result="bg"/><feBlend in="SourceGraphic" in2="bg"/></filter><mask id="mask-19" x="146.36" y="-8440.2" width="153.59" height="32766" maskUnits="userSpaceOnUse"><g class="cls-68"/></mask><radialGradient id="radial-gradient" cx="223.16" cy="247.88" r="76.79" gradientTransform="matrix(0.16, 0.99, -0.99, 0.16, 432.09, -12.1)" xlink:href="#linear-gradient-9"/><filter id="luminosity-noclip-20" x="106.89" y="-8440.2" width="40.72" height="32766" filterUnits="userSpaceOnUse" color-interpolation-filters="sRGB"><feFlood flood-color="#fff" result="bg"/><feBlend in="SourceGraphic" in2="bg"/></filter><mask id="mask-20" x="106.89" y="-8440.2" width="40.72" height="32766" maskUnits="userSpaceOnUse"><g class="cls-67"/></mask><linearGradient id="linear-gradient-18" x1="106.89" y1="245.8" x2="147.61" y2="245.8" gradientUnits="userSpaceOnUse"><stop offset="0"/><stop offset="0.01" stop-color="#030303"/><stop offset="0.7" stop-color="#b7b7b7"/><stop offset="1" stop-color="#fff"/></linearGradient><linearGradient id="linear-gradient-19" x1="227.98" y1="118.58" x2="227.98" y2="7.29" gradientTransform="matrix(1, 0, 0, 1, 0, 0)" xlink:href="#linear-gradient"/><filter id="luminosity-noclip-22" x="14.05" y="40.95" width="406.82" height="406.82" filterUnits="userSpaceOnUse" color-interpolation-filters="sRGB"><feFlood flood-color="#fff" result="bg"/><feBlend in="SourceGraphic" in2="bg"/></filter><mask id="mask-22" x="14.05" y="40.95" width="406.82" height="406.82" maskUnits="userSpaceOnUse"><g class="cls-1"><path class="cls-2" d="M49.38,244.36A168.08,168.08,0,0,1,217.46,76.28V41A203.42,203.42,0,0,0,14.05,244.36ZM217.46,447.77A203.4,203.4,0,0,0,420.87,244.36H385.55A168.08,168.08,0,0,1,217.46,412.44Z"/></g></mask><filter id="luminosity-noclip-23" x="212.98" y="130.61" width="18.22" height="40.72" filterUnits="userSpaceOnUse" color-interpolation-filters="sRGB"><feFlood flood-color="#fff" result="bg"/><feBlend in="SourceGraphic" in2="bg"/></filter><mask id="mask-23" x="212.98" y="130.61" width="18.22" height="40.72" maskUnits="userSpaceOnUse"><g class="cls-13"><path class="cls-14" d="M231.19,162.22a9.1,9.1,0,0,1-9.1,9.11h0a9.11,9.11,0,0,1-9.11-9.11v-22.5a9.11,9.11,0,0,1,9.11-9.11h0a9.1,9.1,0,0,1,9.1,9.11Z"/></g></mask><filter id="luminosity-noclip-24" x="296.56" y="236.69" width="40.72" height="18.22" filterUnits="userSpaceOnUse" color-interpolation-filters="sRGB"><feFlood flood-color="#fff" result="bg"/><feBlend in="SourceGraphic" in2="bg"/></filter><mask id="mask-24" x="296.56" y="236.69" width="40.72" height="18.22" maskUnits="userSpaceOnUse"><g class="cls-31"><path class="cls-32" d="M305.67,254.91a9.11,9.11,0,0,1-9.11-9.11h0a9.11,9.11,0,0,1,9.11-9.11h22.5a9.11,9.11,0,0,1,9.11,9.11h0a9.11,9.11,0,0,1-9.11,9.11Z"/></g></mask><filter id="luminosity-noclip-25" x="106.89" y="236.69" width="40.72" height="18.22" filterUnits="userSpaceOnUse" color-interpolation-filters="sRGB"><feFlood flood-color="#fff" result="bg"/><feBlend in="SourceGraphic" in2="bg"/></filter><mask id="mask-25" x="106.89" y="236.69" width="40.72" height="18.22" maskUnits="userSpaceOnUse"><g class="cls-35"><path class="cls-36" d="M116,254.91a9.11,9.11,0,0,1-9.11-9.11h0a9.11,9.11,0,0,1,9.11-9.11h22.5a9.11,9.11,0,0,1,9.11,9.11h0a9.11,9.11,0,0,1-9.11,9.11Z"/></g></mask><filter id="luminosity-noclip-26" x="222.96" y="7.29" width="10.05" height="111.3" filterUnits="userSpaceOnUse" color-interpolation-filters="sRGB"><feFlood flood-color="#fff" result="bg"/><feBlend in="SourceGraphic" in2="bg"/></filter><mask id="mask-26" x="222.96" y="7.29" width="10.05" height="111.3" maskUnits="userSpaceOnUse"><g class="cls-37"><polygon class="cls-38" points="225.24 7.29 227.91 33.75 228.67 103.23 222.96 111.08 222.96 118.54 223 118.58 233 107.87 233 45.01 225.24 7.29"/></g></mask><filter id="luminosity-noclip-27" x="211.17" y="7.29" width="10.05" height="111.3" filterUnits="userSpaceOnUse" color-interpolation-filters="sRGB"><feFlood flood-color="#fff" result="bg"/><feBlend in="SourceGraphic" in2="bg"/></filter><mask id="mask-27" x="211.17" y="7.29" width="10.05" height="111.3" maskUnits="userSpaceOnUse"><g class="cls-3"><polygon class="cls-4" points="218.93 7.29 216.26 33.75 215.5 103.23 221.21 111.08 221.21 118.54 221.17 118.58 211.17 107.87 211.17 45.01 218.93 7.29"/></g></mask><filter id="luminosity-noclip-28" x="221.01" y="0" width="2.14" height="105.56" filterUnits="userSpaceOnUse" color-interpolation-filters="sRGB"><feFlood flood-color="#fff" result="bg"/><feBlend in="SourceGraphic" in2="bg"/></filter><mask id="mask-28" x="221.01" y="0" width="2.14" height="105.56" maskUnits="userSpaceOnUse"><g class="cls-5"><path class="cls-6" d="M221,104.48,222.09,0l1.07,104.48a1.08,1.08,0,0,1-2.15,0Z"/></g></mask><filter id="luminosity-noclip-29" x="211.17" y="377.18" width="10.05" height="111.3" filterUnits="userSpaceOnUse" color-interpolation-filters="sRGB"><feFlood flood-color="#fff" result="bg"/><feBlend in="SourceGraphic" in2="bg"/></filter><mask id="mask-29" x="211.17" y="377.18" width="10.05" height="111.3" maskUnits="userSpaceOnUse"><g class="cls-7"><polygon class="cls-8" points="218.93 488.48 216.26 462.01 215.5 392.53 221.21 384.68 221.21 377.22 221.17 377.18 211.17 387.89 211.17 450.75 218.93 488.48"/></g></mask><filter id="luminosity-noclip-30" x="222.96" y="377.18" width="10.05" height="111.3" filterUnits="userSpaceOnUse" color-interpolation-filters="sRGB"><feFlood flood-color="#fff" result="bg"/><feBlend in="SourceGraphic" in2="bg"/></filter><mask id="mask-30" x="222.96" y="377.18" width="10.05" height="111.3" maskUnits="userSpaceOnUse"><g class="cls-9"><polygon class="cls-10" points="225.24 488.48 227.91 462.01 228.67 392.53 222.96 384.68 222.96 377.22 223 377.18 233 387.89 233 450.75 225.24 488.48"/></g></mask><filter id="luminosity-noclip-31" x="221.01" y="390.2" width="2.14" height="105.56" filterUnits="userSpaceOnUse" color-interpolation-filters="sRGB"><feFlood flood-color="#fff" result="bg"/><feBlend in="SourceGraphic" in2="bg"/></filter><mask id="mask-31" x="221.01" y="390.2" width="2.14" height="105.56" maskUnits="userSpaceOnUse"><g class="cls-11"><path class="cls-12" d="M223.16,391.28l-1.07,104.48L221,391.28a1.08,1.08,0,0,1,2.15,0Z"/></g></mask><filter id="luminosity-noclip-32" x="340.75" y="245.12" width="105.56" height="2.14" filterUnits="userSpaceOnUse" color-interpolation-filters="sRGB"><feFlood flood-color="#fff" result="bg"/><feBlend in="SourceGraphic" in2="bg"/></filter><mask id="mask-32" x="340.75" y="245.12" width="105.56" height="2.14" maskUnits="userSpaceOnUse"><g class="cls-15"><path class="cls-16" d="M341.84,245.12l104.47,1.07-104.47,1.08a1.08,1.08,0,0,1,0-2.15Z"/></g></mask><filter id="luminosity-noclip-33" x="0" y="245.12" width="105.56" height="2.14" filterUnits="userSpaceOnUse" color-interpolation-filters="sRGB"><feFlood flood-color="#fff" result="bg"/><feBlend in="SourceGraphic" in2="bg"/></filter><mask id="mask-33" x="0" y="245.12" width="105.56" height="2.14" maskUnits="userSpaceOnUse"><g class="cls-17"><path class="cls-18" d="M104.48,247.27,0,246.19l104.48-1.07a1.08,1.08,0,0,1,0,2.15Z"/></g></mask><filter id="luminosity-noclip-34" x="234.84" y="178.11" width="57.58" height="54.73" filterUnits="userSpaceOnUse" color-interpolation-filters="sRGB"><feFlood flood-color="#fff" result="bg"/><feBlend in="SourceGraphic" in2="bg"/></filter><mask id="mask-34" x="234.84" y="178.11" width="57.58" height="54.73" maskUnits="userSpaceOnUse"><g class="cls-19"><path class="cls-20" d="M234.84,232.84l37.73-54.73s14.21,10.81,19.85,22.28Z"/></g></mask><filter id="luminosity-noclip-35" x="236.52" y="206.11" width="66.42" height="31.9" filterUnits="userSpaceOnUse" color-interpolation-filters="sRGB"><feFlood flood-color="#fff" result="bg"/><feBlend in="SourceGraphic" in2="bg"/></filter><mask id="mask-35" x="236.52" y="206.11" width="66.42" height="31.9" maskUnits="userSpaceOnUse"><g class="cls-21"><path class="cls-22" d="M236.52,238l57.29-31.91a61.28,61.28,0,0,1,9.12,23.64Z"/></g></mask><filter id="luminosity-noclip-36" x="152.29" y="257.81" width="58.45" height="53.68" filterUnits="userSpaceOnUse" color-interpolation-filters="sRGB"><feFlood flood-color="#fff" result="bg"/><feBlend in="SourceGraphic" in2="bg"/></filter><mask id="mask-36" x="152.29" y="257.81" width="58.45" height="53.68" maskUnits="userSpaceOnUse"><g class="cls-23"><path class="cls-24" d="M210.73,257.81l-39.21,53.68s-13.91-11.2-19.23-22.82Z"/></g></mask><filter id="luminosity-noclip-37" x="142.58" y="252.59" width="66.62" height="30.32" filterUnits="userSpaceOnUse" color-interpolation-filters="sRGB"><feFlood flood-color="#fff" result="bg"/><feBlend in="SourceGraphic" in2="bg"/></filter><mask id="mask-37" x="142.58" y="252.59" width="66.62" height="30.32" maskUnits="userSpaceOnUse"><g class="cls-25"><path class="cls-26" d="M209.2,252.59l-58.14,30.32A61.25,61.25,0,0,1,142.58,259Z"/></g></mask><filter id="luminosity-noclip-42" x="146.36" y="171.09" width="153.59" height="153.59" filterUnits="userSpaceOnUse" color-interpolation-filters="sRGB"><feFlood flood-color="#fff" result="bg"/><feBlend in="SourceGraphic" in2="bg"/></filter><mask id="mask-42" x="146.36" y="171.09" width="153.59" height="153.59" maskUnits="userSpaceOnUse"><g class="cls-33"><circle class="cls-34" cx="223.16" cy="247.88" r="76.79" transform="translate(-57.27 428.45) rotate(-80.78)"/></g></mask></defs><title>circle_15</title><g id="Layer_2" data-name="Layer 2"><g id="Layer_1-2" data-name="Layer 1"><g class="cls-39"><g class="cls-40"><path class="cls-41" d="M49.38,244.36A168.08,168.08,0,0,1,217.46,76.28V41A203.42,203.42,0,0,0,14.05,244.36ZM217.46,447.77A203.4,203.4,0,0,0,420.87,244.36H385.55A168.08,168.08,0,0,1,217.46,412.44Z"/></g></g><path class="cls-41" d="M217.46,404.35c-88.22,0-160-71.77-160-160s71.77-160,160-160,160,71.77,160,160S305.68,404.35,217.46,404.35Zm0-318.36C130.14,86,59.09,157,59.09,244.36s71,158.38,158.37,158.38,158.38-71.05,158.38-158.38S304.79,86,217.46,86Z"/><path class="cls-41" d="M220.51,102.84a3,3,0,1,1-3-3A3,3,0,0,1,220.51,102.84Z"/><path class="cls-41" d="M220.51,384.46a3,3,0,1,1-3-3A3,3,0,0,1,220.51,384.46Z"/><path class="cls-41" d="M166.39,112.39a3,3,0,1,1-4-1.65A3,3,0,0,1,166.39,112.39Z"/><path class="cls-41" d="M274.16,372.58a3,3,0,1,1-4-1.65A3,3,0,0,1,274.16,372.58Z"/><circle class="cls-41" cx="117.89" cy="144.08" r="3.05"/><path class="cls-41" d="M319.19,341.06a3,3,0,1,1-4.31,0A3,3,0,0,1,319.19,341.06Z"/><path class="cls-41" d="M88.54,187a3,3,0,1,1-4,1.65A3,3,0,0,1,88.54,187Z"/><path class="cls-41" d="M348.72,294.72a3,3,0,1,1-4,1.65A3,3,0,0,1,348.72,294.72Z"/><path class="cls-41" d="M76.65,240.6a3,3,0,1,1-3,3.05A3.06,3.06,0,0,1,76.65,240.6Z"/><path class="cls-41" d="M358.28,240.6a3,3,0,1,1-3,3.05A3,3,0,0,1,358.28,240.6Z"/><path class="cls-41" d="M86.21,294.72a3,3,0,1,1-1.65,4A3,3,0,0,1,86.21,294.72Z"/><path class="cls-41" d="M346.39,187a3,3,0,1,1-1.65,4A3,3,0,0,1,346.39,187Z"/><circle class="cls-41" cx="117.89" cy="343.22" r="3.05"/><path class="cls-41" d="M314.88,141.93a3,3,0,1,1,0,4.3A3,3,0,0,1,314.88,141.93Z"/><path class="cls-41" d="M160.76,372.58a3,3,0,1,1,1.65,4A3,3,0,0,1,160.76,372.58Z"/><path class="cls-41" d="M268.54,112.39a3,3,0,1,1,1.64,4A3.05,3.05,0,0,1,268.54,112.39Z"/><g class="cls-42"><path class="cls-41" d="M250.76,312.56h-66.6l33.3-57.68Zm-61-3.23h55.39l-27.7-48Z"/></g><polygon class="cls-43" points="217.46 284.53 232.71 310.94 247.96 337.36 217.46 337.36 186.97 337.36 202.22 310.94 217.46 284.53"/><g class="cls-42"><path class="cls-41" d="M217.46,233.84l-33.3-57.68h66.6ZM189.77,179.4l27.69,48,27.7-48Z"/></g><polygon class="cls-43" points="217.46 204.19 202.22 177.78 186.97 151.37 217.46 151.37 247.96 151.37 232.71 177.78 217.46 204.19"/><g class="cls-42"><path class="cls-41" d="M285.66,277.66,228,244.36l57.67-33.3Zm-51.2-33.3,48,27.7v-55.4Z"/></g><polygon class="cls-43" points="257.63 244.36 284.05 229.11 310.46 213.86 310.46 244.36 310.46 274.86 284.05 259.61 257.63 244.36"/><g class="cls-42"><path class="cls-41" d="M149.26,277.66v-66.6l57.68,33.3Zm3.24-61v55.4l48-27.7Z"/></g><polygon class="cls-43" points="177.29 244.36 150.88 259.61 124.47 274.86 124.47 244.36 124.47 213.86 150.88 229.11 177.29 244.36"/><g class="cls-39"><path class="cls-41" d="M221,446.92A201.86,201.86,0,0,1,58,126.51a201.83,201.83,0,1,1,326.77,237,200.53,200.53,0,0,1-131.63,80.88A204.08,204.08,0,0,1,221,446.92ZM103.21,408c89.86,65.16,216,45.07,281.13-44.78s45.07-216-44.78-281.13A201.29,201.29,0,1,0,103.21,408Z"/><path class="cls-41" d="M221.11,396.51A151.59,151.59,0,1,1,344,333.91l-.22-.16.22.16a150.47,150.47,0,0,1-98.77,60.68A152.22,152.22,0,0,1,221.11,396.51Zm.47-302.36A150.8,150.8,0,0,0,99.22,156.41c-48.85,67.36-33.79,161.91,33.57,210.76S294.69,401,343.55,333.6a150.84,150.84,0,0,0-122-239.45Z"/><path class="cls-41" d="M221.2,346.09a100.29,100.29,0,0,1-59.14-19.29h0a101,101,0,1,1,75.22,18A102.79,102.79,0,0,1,221.2,346.09Zm-58.82-19.72A100.51,100.51,0,1,0,140,186,100.63,100.63,0,0,0,162.38,326.37Z"/><path class="cls-41" d="M221.29,295.68a50.73,50.73,0,1,1,8.07-.64A51.23,51.23,0,0,1,221.29,295.68Zm.19-100.82a51.19,51.19,0,0,0-8,.63,50,50,0,1,0,8-.63Z"/><rect class="cls-41" x="61.44" y="326.32" width="201.56" height="0.53" transform="translate(-197.42 266.32) rotate(-54.07)"/><polygon class="cls-41" points="179.91 442.25 179.39 442.14 221.12 244.95 221.65 245.06 179.91 442.25"/><rect class="cls-41" x="242.16" y="242.78" width="0.53" height="201.56" transform="translate(-66.38 58.18) rotate(-12.05)"/><polygon class="cls-41" points="339.79 408.12 221.17 245.16 221.6 244.85 340.22 407.81 339.79 408.12"/><polygon class="cls-41" points="395.9 345.86 221.25 245.23 221.52 244.77 396.17 345.4 395.9 345.86"/><polygon class="cls-41" points="421.83 266.16 221.36 245.27 221.41 244.74 421.89 265.63 421.83 266.16"/><polygon class="cls-41" points="221.47 245.25 221.3 244.75 412.95 182.3 413.11 182.8 221.47 245.25"/><polygon class="cls-41" points="221.56 245.2 221.21 244.8 370.88 109.8 371.24 110.2 221.56 245.2"/><polygon class="cls-41" points="221.63 245.11 221.14 244.89 302.96 60.69 303.45 60.91 221.63 245.11"/><rect class="cls-41" x="221.03" y="43.44" width="0.54" height="201.56"/><polygon class="cls-41" points="221.14 245.11 139 61.05 139.49 60.83 221.63 244.89 221.14 245.11"/><polygon class="cls-41" points="221.21 245.2 71.3 110.46 71.66 110.06 221.56 244.8 221.21 245.2"/><polygon class="cls-41" points="221.31 245.25 29.55 183.13 29.72 182.63 221.47 244.75 221.31 245.25"/><rect class="cls-41" x="20.39" y="255.36" width="201.56" height="0.53" transform="translate(-26.23 14.17) rotate(-6.04)"/><polygon class="cls-41" points="47.05 346.17 46.78 345.71 221.25 244.77 221.52 245.23 47.05 346.17"/><path class="cls-41" d="M221.34,446.83A201.87,201.87,0,0,1,77.58,103.32a200.52,200.52,0,0,1,142.3-60.14h1.55A201.87,201.87,0,0,1,365.19,386.68a200.57,200.57,0,0,1-142.3,60.15v0Zm.09-403.12h-1.54A201.35,201.35,0,0,0,80.08,388.43,200,200,0,0,0,221.34,446.3h1.55a201.35,201.35,0,0,0,139.8-344.72A200,200,0,0,0,221.43,43.71Z"/><path class="cls-41" d="M221.35,396.44a151.44,151.44,0,0,1-1.09-302.87h1.16a151.44,151.44,0,0,1,1.1,302.88ZM221.4,94.1h-1.14c-83.21.62-150.4,68.83-149.78,152C71.1,329,138.69,395.91,221.37,395.91h1.14c83.21-.62,150.4-68.82,149.78-152C371.67,161.06,304.08,94.1,221.4,94.1Z"/><path class="cls-41" d="M221.36,346.05A101,101,0,0,1,220.63,144h.78a101.05,101.05,0,0,1,.73,202.1v0Zm0-201.56h-.77a100.52,100.52,0,0,0,.73,201h.77a100.51,100.51,0,0,0-.73-201Z"/><path class="cls-41" d="M221.38,295.66A50.66,50.66,0,0,1,221,194.35h.38A50.7,50.7,0,0,1,272,244.62h0a50.72,50.72,0,0,1-50.27,51Zm0-100.78H221a50.13,50.13,0,0,0,.38,100.25h.37a50.19,50.19,0,0,0,49.75-50.5h0A50.18,50.18,0,0,0,221.39,194.88Z"/><polygon class="cls-41" points="222.62 446.56 221.12 245.01 221.65 245 223.16 446.56 222.62 446.56"/><polygon class="cls-41" points="304.5 428.63 221.14 245.11 221.63 244.89 304.98 428.41 304.5 428.63"/><polygon class="cls-41" points="372 378.95 221.21 245.2 221.56 244.8 372.36 378.55 372 378.95"/><rect class="cls-41" x="317.2" y="174.65" width="0.54" height="201.56" transform="matrix(0.3, -0.95, 0.95, 0.3, -40.96, 494.93)"/><polygon class="cls-41" points="221.42 245.27 221.35 244.74 421.65 222.18 421.71 222.7 221.42 245.27"/><polygon class="cls-41" points="221.52 245.23 221.25 244.77 395.05 142.69 395.32 143.15 221.52 245.23"/><rect class="cls-41" x="179.23" y="162.76" width="201.56" height="0.54" transform="translate(-15.29 296.37) rotate(-54.51)"/><polygon class="cls-41" points="221.65 245.06 221.12 244.95 261.56 47.49 262.08 47.59 221.65 245.06"/><polygon class="cls-41" points="221.12 245.06 177.75 48.22 178.27 48.11 221.65 244.95 221.12 245.06"/><polygon class="cls-41" points="221.17 245.16 101.48 82.98 101.91 82.67 221.6 244.84 221.17 245.16"/><rect class="cls-41" x="133.47" y="94.48" width="0.53" height="201.56" transform="matrix(0.49, -0.87, 0.87, 0.49, -102.1, 215.21)"/><polygon class="cls-41" points="221.36 245.27 20.75 225.69 20.8 225.17 221.41 244.74 221.36 245.27"/><rect class="cls-41" x="24.99" y="276.59" width="201.56" height="0.53" transform="translate(-81.24 54.11) rotate(-18.47)"/><polygon class="cls-41" points="72.79 381.18 72.43 380.79 221.21 244.81 221.57 245.2 72.79 381.18"/><polygon class="cls-41" points="141.03 429.85 140.53 429.64 221.14 244.9 221.63 245.11 141.03 429.85"/><path class="cls-41" d="M349.76,79.52V74.86a.23.23,0,0,0-.08-.21.37.37,0,0,0-.18,0,.89.89,0,0,0-.59.34l-.34.34-.93-1.19a4.22,4.22,0,0,1,3.05-1.35h1.18v6.77Z"/><path class="cls-41" d="M355.43,79.52a3.45,3.45,0,0,1-1.95-.51,1.87,1.87,0,0,1-.76-1.69V75a1.89,1.89,0,0,1,.76-1.7,3.53,3.53,0,0,1,1.95-.5h2.2a3.47,3.47,0,0,1,1.94.5,1.9,1.9,0,0,1,.77,1.7v2.37a1.88,1.88,0,0,1-.77,1.69,3.39,3.39,0,0,1-1.94.51Zm2.2-1.69a.61.61,0,0,0,.38-.22.57.57,0,0,0,.21-.38V74.86a.78.78,0,0,0-.59-.59h-2.2a.82.82,0,0,0-.6.59v2.37a.55.55,0,0,0,.22.38.59.59,0,0,0,.38.22Z"/><path class="cls-41" d="M416.16,187v-2.12c0-.82.45-1.3,1.36-1.44l4.06-.51a.33.33,0,0,0,.34-.34v-.16a.7.7,0,0,0-.17-.51.73.73,0,0,0-.51-.17h-5.08v-1.52h5.5a2.19,2.19,0,0,1,1.61.5,1.64,1.64,0,0,1,.51,1.19v.67c0,1-.74,1.67-2.2,1.87l-3.22.42c-.22,0-.34.14-.34.34v.25h5.76V187Z"/><path class="cls-41" d="M427.33,187a3.39,3.39,0,0,1-1.94-.51,1.88,1.88,0,0,1-.77-1.69v-2.37a1.9,1.9,0,0,1,.77-1.7,3.39,3.39,0,0,1,1.94-.5h2.2a3.45,3.45,0,0,1,2,.5,1.89,1.89,0,0,1,.76,1.7v2.37a1.87,1.87,0,0,1-.76,1.69,3.45,3.45,0,0,1-2,.51Zm2.2-1.7a.57.57,0,0,0,.38-.21.61.61,0,0,0,.22-.38v-2.37a.61.61,0,0,0-.22-.38.57.57,0,0,0-.38-.21h-2.2a.78.78,0,0,0-.59.59v2.37a.78.78,0,0,0,.59.59Z"/><path class="cls-41" d="M422.59,305.2a.36.36,0,0,0,.24-.09.33.33,0,0,0,.1-.25v-.51a.29.29,0,0,0-.1-.23.33.33,0,0,0-.24-.1h-5.08v-1.53h5.76a1.53,1.53,0,0,1,1.06.43,1.62,1.62,0,0,1,.46,1.27v.42a1.24,1.24,0,0,1-.32.92c-.21.23-.37.34-.48.35.76.11,1.14.62,1.14,1.52v.17a1.48,1.48,0,0,1-.55,1.27,2.39,2.39,0,0,1-1.48.42h-5.59v-1.52h5.25a.33.33,0,0,0,.24-.1.33.33,0,0,0,.1-.24v-.51a.37.37,0,0,0-.1-.23.33.33,0,0,0-.24-.1h-5.08V305.2Z"/><path class="cls-41" d="M428.68,309.26a3.49,3.49,0,0,1-1.94-.5,1.89,1.89,0,0,1-.76-1.7v-2.37a1.87,1.87,0,0,1,.76-1.69,3.41,3.41,0,0,1,1.94-.51h2.2a3.45,3.45,0,0,1,1.95.51,1.87,1.87,0,0,1,.76,1.69v2.37a1.89,1.89,0,0,1-.76,1.7,3.53,3.53,0,0,1-1.95.5Zm2.2-1.69a.61.61,0,0,0,.39-.21.59.59,0,0,0,.21-.38v-2.37a.59.59,0,0,0-.21-.38.61.61,0,0,0-.39-.21h-2.2a.78.78,0,0,0-.59.59V307a.78.78,0,0,0,.59.59Z"/><path class="cls-41" d="M353.22,412.91v-4.74c0-.17-.08-.26-.25-.26a.51.51,0,0,0-.27.09l-2.44,1.52c-.14.08-.21.16-.21.25a.25.25,0,0,0,.06.19.31.31,0,0,0,.24.07h2.45v1.52h-3.38a1.41,1.41,0,0,1-.94-.38,1.25,1.25,0,0,1-.42-1V410a1.62,1.62,0,0,1,.68-1.36l3-1.94a3.54,3.54,0,0,1,1.95-.6h1.52v6.78Z"/><path class="cls-41" d="M358.73,412.91a3.45,3.45,0,0,1-2-.51,1.88,1.88,0,0,1-.76-1.7v-2.37a1.88,1.88,0,0,1,.76-1.69,3.45,3.45,0,0,1,2-.51h2.2a3.41,3.41,0,0,1,1.94.51,1.88,1.88,0,0,1,.76,1.69v2.37a1.88,1.88,0,0,1-.76,1.7,3.41,3.41,0,0,1-1.94.51Zm2.2-1.7a.78.78,0,0,0,.59-.59v-2.37a.78.78,0,0,0-.59-.59h-2.2a.61.61,0,0,0-.39.21.59.59,0,0,0-.21.38v2.37a.59.59,0,0,0,.21.38.61.61,0,0,0,.39.21Z"/><path class="cls-41" d="M207.84,463.06v-1.53h4.82a.93.93,0,0,0,.7-.21.65.65,0,0,0,.19-.46v-.26a.78.78,0,0,0-.19-.5.83.83,0,0,0-.7-.26h-4.57a.22.22,0,0,1-.25-.25v-3.3h7.27v1.51H210a.3.3,0,0,0-.24.1.37.37,0,0,0-.1.24h0a.33.33,0,0,0,.1.24.3.3,0,0,0,.24.1h3.3a2.38,2.38,0,0,1,1.65.5,2.23,2.23,0,0,1,.55,1.7V461a2,2,0,0,1-.55,1.48,2.25,2.25,0,0,1-1.65.55Z"/><path class="cls-41" d="M219,463.06a3.45,3.45,0,0,1-1.95-.51,1.87,1.87,0,0,1-.76-1.69v-2.37a1.89,1.89,0,0,1,.76-1.7,3.53,3.53,0,0,1,1.95-.5h2.2a3.47,3.47,0,0,1,1.94.5,1.9,1.9,0,0,1,.77,1.7v2.37a1.88,1.88,0,0,1-.77,1.69,3.39,3.39,0,0,1-1.94.51Zm2.2-1.7a.59.59,0,0,0,.38-.21.57.57,0,0,0,.21-.38V458.4a.78.78,0,0,0-.59-.59H219a.57.57,0,0,0-.38.21.59.59,0,0,0-.21.38v2.37a.78.78,0,0,0,.59.59Z"/><path class="cls-41" d="M80,412.91a2.6,2.6,0,0,1-1.48-.43,1.41,1.41,0,0,1-.64-1.27v-3.38a1.41,1.41,0,0,1,.64-1.27,2.6,2.6,0,0,1,1.48-.43h5.33v1.53h-5a.33.33,0,0,0-.25.1A.34.34,0,0,0,80,408v3.21a.31.31,0,0,0,.34.34h3.13a.36.36,0,0,0,.24-.09.37.37,0,0,0,.1-.25v-.84a.35.35,0,0,0-.1-.24.33.33,0,0,0-.24-.1H80.21v-1.36h3.56a2,2,0,0,1,1.35.43,1.55,1.55,0,0,1,.51,1.27v.84a1.55,1.55,0,0,1-.51,1.27,2.06,2.06,0,0,1-1.35.43Z"/><path class="cls-41" d="M89.18,412.91a3.39,3.39,0,0,1-1.94-.51,1.88,1.88,0,0,1-.76-1.7v-2.37a1.88,1.88,0,0,1,.76-1.69,3.39,3.39,0,0,1,1.94-.51h2.2a3.45,3.45,0,0,1,2,.51,1.88,1.88,0,0,1,.76,1.69v2.37a1.88,1.88,0,0,1-.76,1.7,3.45,3.45,0,0,1-2,.51Zm2.2-1.7a.61.61,0,0,0,.39-.21.59.59,0,0,0,.21-.38v-2.37a.59.59,0,0,0-.21-.38.61.61,0,0,0-.39-.21h-2.2a.78.78,0,0,0-.59.59v2.37a.78.78,0,0,0,.59.59Z"/><path class="cls-41" d="M9.44,309.26l4.06-5.07H8.42v-1.7H16v.85a1.62,1.62,0,0,1-.34,1.18l-3.89,4.74Z"/><path class="cls-41" d="M19.59,309.26a3.49,3.49,0,0,1-1.94-.5,1.89,1.89,0,0,1-.76-1.7v-2.37a1.87,1.87,0,0,1,.76-1.69,3.41,3.41,0,0,1,1.94-.51h2.2a3.45,3.45,0,0,1,1.95.51,1.87,1.87,0,0,1,.76,1.69v2.37a1.89,1.89,0,0,1-.76,1.7,3.53,3.53,0,0,1-1.95.5Zm2.2-1.69a.61.61,0,0,0,.39-.21.59.59,0,0,0,.21-.38v-2.37a.59.59,0,0,0-.21-.38.61.61,0,0,0-.39-.21h-2.2a.78.78,0,0,0-.59.59V307a.78.78,0,0,0,.59.59Z"/><path class="cls-41" d="M10.71,187a1.3,1.3,0,0,1-.93-.43,1.72,1.72,0,0,1-.42-1.27V185a1.62,1.62,0,0,1,.32-1,1.07,1.07,0,0,1,.82-.43,1.19,1.19,0,0,1-.57-.34,1.13,1.13,0,0,1-.4-.93v-.42a1.56,1.56,0,0,1,1.52-1.69h4.23a1.56,1.56,0,0,1,1.52,1.69v.42a1.13,1.13,0,0,1-.4.93,1.19,1.19,0,0,1-.57.34,1.08,1.08,0,0,1,.82.43,1.62,1.62,0,0,1,.32,1v.25a1.72,1.72,0,0,1-.42,1.27,1.3,1.3,0,0,1-.93.43Zm3.72-4.07a.34.34,0,0,0,.24-.09.33.33,0,0,0,.1-.25v-.67a.33.33,0,0,0-.1-.24.31.31,0,0,0-.24-.1H11.81a.3.3,0,0,0-.24.1.33.33,0,0,0-.1.24v.67a.33.33,0,0,0,.1.25.32.32,0,0,0,.24.09Zm.17,2.71a.34.34,0,0,0,.24-.09.33.33,0,0,0,.1-.25v-.67a.43.43,0,0,0-.1-.24.31.31,0,0,0-.24-.1H11.81a.3.3,0,0,0-.24.1.31.31,0,0,0-.1.24v.67a.33.33,0,0,0,.1.25.32.32,0,0,0,.24.09Z"/><path class="cls-41" d="M20.53,187a3.45,3.45,0,0,1-2-.51,1.87,1.87,0,0,1-.76-1.69v-2.37a1.89,1.89,0,0,1,.76-1.7,3.45,3.45,0,0,1,2-.5h2.2a3.39,3.39,0,0,1,1.94.5,1.9,1.9,0,0,1,.77,1.7v2.37a1.88,1.88,0,0,1-.77,1.69,3.39,3.39,0,0,1-1.94.51Zm2.2-1.7a.78.78,0,0,0,.59-.59v-2.37a.78.78,0,0,0-.59-.59h-2.2a.57.57,0,0,0-.38.21.61.61,0,0,0-.22.38v2.37a.61.61,0,0,0,.22.38.57.57,0,0,0,.38.21Z"/><path class="cls-41" d="M88.83,72.75a2.51,2.51,0,0,1,1.46.42,1.61,1.61,0,0,1,.61,1.44v2.2A2.55,2.55,0,0,1,90.16,79a2.64,2.64,0,0,1-1.58.55H83.5V78h4.4a1.36,1.36,0,0,0,.8-.16c.15-.12.22-.4.22-.85v-2.2a.57.57,0,0,0-.17-.47.61.61,0,0,0-.34-.12H85.87a1.09,1.09,0,0,0-.55.12.47.47,0,0,0-.21.43v.38a.46.46,0,0,0,.21.35.92.92,0,0,0,.55.15h2.62V77H85.28a2.6,2.6,0,0,1-1.48-.42,1.43,1.43,0,0,1-.64-1.27v-.85a1.5,1.5,0,0,1,.55-1.27,2.55,2.55,0,0,1,1.57-.42Z"/><path class="cls-41" d="M94.46,79.52A3.45,3.45,0,0,1,92.51,79a1.9,1.9,0,0,1-.76-1.69V75a1.91,1.91,0,0,1,.76-1.7,3.53,3.53,0,0,1,1.95-.5h2.2a3.53,3.53,0,0,1,2,.5,1.91,1.91,0,0,1,.76,1.7v2.37A1.9,1.9,0,0,1,98.61,79a3.45,3.45,0,0,1-2,.51Zm2.2-1.69a.61.61,0,0,0,.38-.22.57.57,0,0,0,.21-.38V74.86a.78.78,0,0,0-.59-.59h-2.2a.78.78,0,0,0-.59.59v2.37a.57.57,0,0,0,.21.38.61.61,0,0,0,.38.22Z"/><path class="cls-41" d="M213.19,33.74V29.08a.23.23,0,0,0-.08-.21.48.48,0,0,0-.18,0,.94.94,0,0,0-.59.34l-.34.34-.93-1.19A4.23,4.23,0,0,1,214.12,27h1.18v6.77Z"/><path class="cls-41" d="M218.86,33.74a3.45,3.45,0,0,1-2-.51,1.87,1.87,0,0,1-.76-1.69V29.17a1.87,1.87,0,0,1,.76-1.69,3.45,3.45,0,0,1,2-.51h2.2a3.45,3.45,0,0,1,1.95.51,1.9,1.9,0,0,1,.76,1.69v2.37a1.9,1.9,0,0,1-.76,1.69,3.45,3.45,0,0,1-1.95.51Zm2.2-1.69a.59.59,0,0,0,.38-.21.61.61,0,0,0,.21-.39V29.08a.61.61,0,0,0-.21-.38.59.59,0,0,0-.38-.21h-2.2a.59.59,0,0,0-.38.21.61.61,0,0,0-.21.38v2.37a.61.61,0,0,0,.21.39.59.59,0,0,0,.38.21Z"/><path class="cls-41" d="M227.32,33.74a3.39,3.39,0,0,1-1.94-.51,1.88,1.88,0,0,1-.77-1.69V29.17a1.88,1.88,0,0,1,.77-1.69,3.39,3.39,0,0,1,1.94-.51h2.2a3.45,3.45,0,0,1,1.95.51,1.87,1.87,0,0,1,.76,1.69v2.37a1.87,1.87,0,0,1-.76,1.69,3.45,3.45,0,0,1-1.95.51Zm2.2-1.69a.57.57,0,0,0,.38-.21.61.61,0,0,0,.21-.39V29.08a.61.61,0,0,0-.21-.38.57.57,0,0,0-.38-.21h-2.2a.59.59,0,0,0-.38.21.61.61,0,0,0-.21.38v2.37a.61.61,0,0,0,.21.39.59.59,0,0,0,.38.21Z"/></g><path class="cls-41" d="M234.41,246a11.47,11.47,0,1,1-11.47-11.47A11.48,11.48,0,0,1,234.41,246Z"/><path class="cls-41" d="M234.72,369.35l-8.23-8.23,6.18-6.18a2.84,2.84,0,0,0,.41-.52,117.46,117.46,0,0,0,97.58-97.6,2.58,2.58,0,0,0,.56-.44l6.18-6.18,8.24,8.24A3.11,3.11,0,1,0,350,254l-8.23-8.23,8.23-8.23a3.11,3.11,0,1,0-4.4-4.41l-8.24,8.24-6.18-6.18a3.35,3.35,0,0,0-.51-.42,117.46,117.46,0,0,0-97.6-97.58,3.39,3.39,0,0,0-.44-.56l-6.18-6.18,8.23-8.23a3.11,3.11,0,0,0-4.4-4.41l-8.23,8.24-8.24-8.24a3.11,3.11,0,1,0-4.4,4.41l8.23,8.23-6.18,6.18a3.39,3.39,0,0,0-.44.56,117.46,117.46,0,0,0-97.6,97.58,3.35,3.35,0,0,0-.51.42l-6.18,6.18-8.24-8.24a3.11,3.11,0,0,0-4.4,4.41l8.23,8.23L94.13,254a3.11,3.11,0,1,0,4.4,4.41l8.24-8.24,6.18,6.18a2.58,2.58,0,0,0,.56.44,117.46,117.46,0,0,0,97.58,97.6,2.84,2.84,0,0,0,.41.52l6.18,6.18-8.23,8.23a3.11,3.11,0,1,0,4.4,4.41l8.24-8.24,8.23,8.24a3.11,3.11,0,0,0,4.4-4.41Zm-12.63-19.69a111.41,111.41,0,0,1-103.84-104.2A111.42,111.42,0,0,1,222.09,142,111.42,111.42,0,0,1,325.92,245.46a111.41,111.41,0,0,1-103.83,104.2Z"/><path class="cls-41" d="M389.37,234h-41a1.07,1.07,0,0,1,0-2.14h41a1.07,1.07,0,0,1,0,2.14Z"/><path class="cls-41" d="M389.37,259.73h-41a1.07,1.07,0,0,1,0-2.14h41a1.07,1.07,0,0,1,0,2.14Z"/><path class="cls-41" d="M95.77,234h-41a1.07,1.07,0,0,1,0-2.14h41a1.07,1.07,0,1,1,0,2.14Z"/><path class="cls-41" d="M95.77,259.73h-41a1.07,1.07,0,0,1,0-2.14h41a1.07,1.07,0,1,1,0,2.14Z"/><g class="cls-44"><path class="cls-41" d="M231.19,162.22a9.1,9.1,0,0,1-9.1,9.11h0a9.11,9.11,0,0,1-9.11-9.11v-22.5a9.11,9.11,0,0,1,9.11-9.11h0a9.1,9.1,0,0,1,9.1,9.11Z"/></g><g class="cls-45"><path class="cls-41" d="M305.67,254.91a9.11,9.11,0,0,1-9.11-9.11h0a9.11,9.11,0,0,1,9.11-9.11h22.5a9.11,9.11,0,0,1,9.11,9.11h0a9.11,9.11,0,0,1-9.11,9.11Z"/></g><g class="cls-46"><path class="cls-41" d="M116,254.91a9.11,9.11,0,0,1-9.11-9.11h0a9.11,9.11,0,0,1,9.11-9.11h22.5a9.11,9.11,0,0,1,9.11,9.11h0a9.11,9.11,0,0,1-9.11,9.11Z"/></g><rect class="cls-41" x="221.44" y="210.28" width="3" height="25.67" rx="1.07"/><rect class="cls-41" x="221.44" y="256.04" width="3" height="25.67" rx="1.07"/><rect class="cls-41" x="232.99" y="244.5" width="25.67" height="3" rx="1.07"/><rect class="cls-41" x="187.22" y="244.5" width="25.67" height="3" rx="1.07"/><path class="cls-47" d="M153.34,131.74q4.36-2.67,8.95-5l7.31,16.13q-3.73,1.94-7.31,4.13Z"/><path class="cls-43" d="M140.73,140.47q4.35-3.39,9-6.43l8.95,15.27q-3.64,2.43-7.09,5.13Z"/><path class="cls-48" d="M166.14,124.85q4.59-2.14,9.38-3.95l5.53,16.82c-2.58,1-5.11,2.08-7.6,3.25Z"/><path class="cls-49" d="M127,152.85l12.63,12.34c-1.48,1.54-2.9,3.12-4.29,4.73l-13.57-11.36C123.48,156.6,125.23,154.7,127,152.85Z"/><path class="cls-49" d="M130.05,149.81c2.36-2.3,4.82-4.51,7.35-6.63l10.86,14c-1.91,1.61-3.78,3.28-5.58,5Z"/><path class="cls-50" d="M185.08,136.25l-5.52-16.78c3.24-1.1,6.52-2.07,9.87-2.92l2.92,17.5Q188.66,135,185.08,136.25Z"/><path class="cls-51" d="M193.61,115.56c2.49-.55,5-1,7.55-1.46l1.45,17.68c-2.05.35-4.08.78-6.09,1.24Z"/><path class="cls-52" d="M114.49,167.9c1.47-2.05,3-4.07,4.57-6l13.56,11.36c-1.57,2-3.09,4-4.54,6.07Z"/><path class="cls-52" d="M108,178c1.3-2.22,2.67-4.4,4.09-6.54l13.65,11.43c-1.08,1.66-2.09,3.36-3.08,5.09Z"/><path class="cls-47" d="M291.71,134.49q-4.26-2.84-8.75-5.35L275,145c2.44,1.39,4.82,2.87,7.14,4.42Z"/><path class="cls-43" d="M304,143.72c-2.8-2.38-5.72-4.64-8.72-6.79l-9.56,14.91c2.37,1.71,4.66,3.52,6.88,5.4Z"/><path class="cls-48" d="M279.19,127.1q-4.5-2.34-9.22-4.32l-6.19,16.58q3.81,1.65,7.47,3.56Z"/><path class="cls-49" d="M317.16,156.63l-13.1,11.83c1.41,1.59,2.77,3.23,4.09,4.9l14-10.82C320.56,160.52,318.88,158.56,317.16,156.63Z"/><path class="cls-49" d="M314.26,153.47q-3.4-3.58-7.08-6.92l-11.41,13.53c1.85,1.69,3.65,3.43,5.38,5.24Z"/><path class="cls-50" d="M259.81,137.74,266,121.19q-4.77-1.84-9.74-3.31l-3.61,17.37C255.06,136,257.46,136.83,259.81,137.74Z"/><path class="cls-51" d="M252.11,116.73c-2.47-.65-5-1.25-7.48-1.76l-2.16,17.6c2,.44,4.05,1,6,1.48Z"/><path class="cls-52" d="M329.09,172.17c-1.39-2.11-2.82-4.19-4.33-6.22l-14,10.81c1.5,2,2.93,4.11,4.29,6.24Z"/><path class="cls-52" d="M335.22,182.5q-1.82-3.41-3.83-6.7l-14.08,10.88c1,1.71,1.95,3.45,2.87,5.21Z"/><path class="cls-47" d="M290,360.43q-4.36,2.67-8.94,5l-7.35-16.11q3.74-1.95,7.3-4.15Z"/><path class="cls-43" d="M302.54,351.66q-4.34,3.4-9,6.46l-9-15.25q3.65-2.44,7.07-5.15Z"/><path class="cls-48" d="M277.17,367.35q-4.59,2.16-9.37,4l-5.57-16.8c2.58-1,5.11-2.1,7.59-3.27Z"/><path class="cls-49" d="M316.22,339.25l-12.66-12.31c1.48-1.54,2.89-3.13,4.28-4.74l13.59,11.32C319.76,335.49,318,337.39,316.22,339.25Z"/><path class="cls-49" d="M313.2,342.3q-3.54,3.45-7.34,6.65L295,335q2.86-2.43,5.57-5Z"/><path class="cls-50" d="M258.2,356l5.56,16.77q-4.85,1.67-9.85,2.95l-3-17.5C253.4,357.54,255.82,356.81,258.2,356Z"/><path class="cls-51" d="M249.73,376.7c-2.49.56-5,1.07-7.55,1.48l-1.5-17.67c2.06-.36,4.08-.79,6.09-1.26Z"/><path class="cls-52" d="M328.71,324.16c-1.46,2.06-3,4.09-4.55,6.06l-13.59-11.33c1.57-2,3.08-4,4.52-6.07Z"/><path class="cls-52" d="M335.22,314.07c-1.29,2.22-2.65,4.41-4.07,6.55l-13.67-11.39c1.07-1.67,2.08-3.38,3.06-5.1Z"/><path class="cls-47" d="M151.58,358q4.26,2.82,8.76,5.32l7.91-15.84c-2.45-1.38-4.83-2.85-7.16-4.4Z"/><path class="cls-43" d="M139.31,348.83q4.22,3.56,8.74,6.76l9.52-14.93q-3.56-2.57-6.9-5.38Z"/><path class="cls-48" d="M164.12,365.39c3,1.54,6.08,3,9.23,4.29l6.15-16.6q-3.83-1.63-7.48-3.53Z"/><path class="cls-49" d="M126.07,336l13.07-11.87c-1.42-1.58-2.78-3.22-4.1-4.88l-14,10.85C122.66,332.07,124.35,334,126.07,336Z"/><path class="cls-49" d="M129,339.1q3.42,3.58,7.1,6.9l11.37-13.55c-1.85-1.69-3.65-3.42-5.39-5.23Z"/><path class="cls-50" d="M183.47,354.7l-6.14,16.56q4.78,1.83,9.75,3.29l3.57-17.39C188.22,356.41,185.82,355.6,183.47,354.7Z"/><path class="cls-51" d="M191.22,375.69c2.47.64,5,1.24,7.49,1.74l2.11-17.61c-2-.43-4-.93-6-1.47Z"/><path class="cls-52" d="M114.11,320.44c1.39,2.11,2.83,4.18,4.34,6.21l14-10.85c-1.5-2-2.94-4.1-4.31-6.23Z"/><path class="cls-52" d="M108,310.13q1.83,3.39,3.84,6.68l14.06-10.91c-1-1.7-2-3.44-2.88-5.2Z"/><path class="cls-41" d="M134.51,228.6l-.22,0a1.09,1.09,0,0,1-.84-1.27c.11-.53,11.52-53.69,70-72.24a1.08,1.08,0,0,1,1.4,1v11.35c.19,1.2,2.57,14,16.07,14a1.07,1.07,0,1,1,0,2.14c-15.75,0-18.18-15.76-18.2-15.92a.76.76,0,0,1,0-.15v-10c-56.06,18.55-67.07,69.66-67.17,70.18A1.08,1.08,0,0,1,134.51,228.6Z"/><g class="cls-53"><path class="cls-41" d="M312,228.6l.22,0a1.09,1.09,0,0,0,.84-1.27c-.11-.53-11.52-53.69-70-72.24a1.06,1.06,0,0,0-1,.16,1.05,1.05,0,0,0-.44.86v11.35c-.19,1.2-2.57,14-16.07,14a1.07,1.07,0,0,0,0,2.14c15.75,0,18.18-15.76,18.2-15.92a.76.76,0,0,0,0-.15v-10c56.06,18.55,67.07,69.66,67.18,70.18A1.07,1.07,0,0,0,312,228.6Z"/></g><g class="cls-53"><path class="cls-41" d="M134.51,263.25a.82.82,0,0,0-.22,0,1.07,1.07,0,0,0-.84,1.26c.11.54,11.52,53.7,70,72.24a1.07,1.07,0,0,0,1.4-1V324.41c.19-1.21,2.57-14,16.07-14a1.07,1.07,0,1,0,0-2.14c-15.75,0-18.18,15.76-18.2,15.92a.76.76,0,0,0,0,.15v10c-56.06-18.55-67.07-69.66-67.17-70.18A1.08,1.08,0,0,0,134.51,263.25Z"/></g><path class="cls-41" d="M242.73,337.18a1.1,1.1,0,0,1-.63-.2,1.08,1.08,0,0,1-.44-.87V324.76c-.19-1.2-2.57-14-16.07-14a1.07,1.07,0,1,1,0-2.14c15.75,0,18.18,15.76,18.2,15.92a.76.76,0,0,1,0,.15v10C299.9,316.07,310.87,265,311,264.46a1.07,1.07,0,0,1,1.26-.84,1.09,1.09,0,0,1,.84,1.27c-.11.53-11.52,53.69-70,72.24A1,1,0,0,1,242.73,337.18Z"/><g class="cls-54"><polygon class="cls-41" points="225.24 7.29 227.91 33.75 228.67 103.23 222.96 111.08 222.96 118.54 223 118.58 233 107.87 233 45.01 225.24 7.29"/></g><g class="cls-55"><polygon class="cls-41" points="218.93 7.29 216.26 33.75 215.5 103.23 221.21 111.08 221.21 118.54 221.17 118.58 211.17 107.87 211.17 45.01 218.93 7.29"/></g><g class="cls-56"><path class="cls-41" d="M221,104.48,222.09,0l1.07,104.48a1.08,1.08,0,0,1-2.15,0Z"/></g><g class="cls-57"><polygon class="cls-41" points="218.93 488.48 216.26 462.01 215.5 392.53 221.21 384.68 221.21 377.22 221.17 377.18 211.17 387.89 211.17 450.75 218.93 488.48"/></g><g class="cls-58"><polygon class="cls-41" points="225.24 488.48 227.91 462.01 228.67 392.53 222.96 384.68 222.96 377.22 223 377.18 233 387.89 233 450.75 225.24 488.48"/></g><g class="cls-59"><path class="cls-41" d="M223.16,391.28l-1.07,104.48L221,391.28a1.08,1.08,0,0,1,2.15,0Z"/></g><g class="cls-60"><path class="cls-41" d="M341.84,245.12l104.47,1.07-104.47,1.08a1.08,1.08,0,0,1,0-2.15Z"/></g><g class="cls-61"><path class="cls-41" d="M104.48,247.27,0,246.19l104.48-1.07a1.08,1.08,0,0,1,0,2.15Z"/></g><path class="cls-41" d="M194,246.53H158.11a.54.54,0,1,1,0-1.07H194a.54.54,0,1,1,0,1.07Z"/><path class="cls-41" d="M287.77,246.53h-35.9a.54.54,0,1,1,0-1.07h35.9a.54.54,0,0,1,0,1.07Z"/><path class="cls-41" d="M222.94,224.29a.54.54,0,0,1-.54-.53V196.17a.54.54,0,1,1,1.07,0v27.59A.53.53,0,0,1,222.94,224.29Z"/><path class="cls-41" d="M222.94,296.36a.54.54,0,0,1-.54-.54V268.23a.54.54,0,0,1,1.07,0v27.59A.54.54,0,0,1,222.94,296.36Z"/><g class="cls-62"><path class="cls-41" d="M234.84,232.84l37.73-54.73s14.21,10.81,19.85,22.28Z"/></g><g class="cls-63"><path class="cls-41" d="M236.52,238l57.29-31.91a61.28,61.28,0,0,1,9.12,23.64Z"/></g><g class="cls-64"><path class="cls-41" d="M210.73,257.81l-39.21,53.68s-13.91-11.2-19.23-22.82Z"/></g><g class="cls-65"><path class="cls-41" d="M209.2,252.59l-58.14,30.32A61.25,61.25,0,0,1,142.58,259Z"/></g><g class="cls-62"><path class="cls-41" d="M234.84,232.84l37.73-54.73s14.21,10.81,19.85,22.28Z"/></g><g class="cls-63"><path class="cls-41" d="M236.52,238l57.29-31.91a61.28,61.28,0,0,1,9.12,23.64Z"/></g><g class="cls-64"><path class="cls-41" d="M210.73,257.81l-39.21,53.68s-13.91-11.2-19.23-22.82Z"/></g><g class="cls-65"><path class="cls-41" d="M209.2,252.59l-58.14,30.32A61.25,61.25,0,0,1,142.58,259Z"/></g><g class="cls-66"><circle class="cls-41" cx="223.16" cy="247.88" r="76.79" transform="translate(-57.27 428.45) rotate(-80.78)"/></g><path class="cls-48" d="M198.66,170.41a81.4,81.4,0,0,0-54.42,58.18h6.12A75.45,75.45,0,0,1,201,175.9,29.58,29.58,0,0,1,198.66,170.41Z"/><path class="cls-48" d="M294,273.6a75.53,75.53,0,0,1-45.66,45.27,25.46,25.46,0,0,1,.84,6,81.43,81.43,0,0,0,51.08-51.27Z"/></g></g></svg>