<svg xmlns="http://www.w3.org/2000/svg" xmlns:xlink="http://www.w3.org/1999/xlink" viewBox="0 0 493.61 493.61"><defs><style>.cls-1{mask:url(#mask);filter:url(#luminosity-noclip-5);}.cls-2,.cls-4,.cls-6,.cls-8{mix-blend-mode:multiply;}.cls-2{fill:url(#linear-gradient);}.cls-3{mask:url(#mask-2);filter:url(#luminosity-noclip-6);}.cls-4{fill:url(#linear-gradient-2);}.cls-5{mask:url(#mask-3);filter:url(#luminosity-noclip-7);}.cls-6{fill:url(#linear-gradient-3);}.cls-7{mask:url(#mask-4);filter:url(#luminosity-noclip-8);}.cls-8{fill:url(#linear-gradient-4);}.cls-10,.cls-9{fill:#11e5b3;}.cls-10{opacity:0.2;}.cls-11{mask:url(#mask-5);}.cls-12{mask:url(#mask-6);}.cls-13{mask:url(#mask-7);}.cls-14{mask:url(#mask-8);}.cls-15{filter:url(#luminosity-noclip-4);}.cls-16{filter:url(#luminosity-noclip-3);}.cls-17{filter:url(#luminosity-noclip-2);}.cls-18{filter:url(#luminosity-noclip);}</style><filter id="luminosity-noclip" x="268.86" y="-8439.13" width="62.78" height="32766" filterUnits="userSpaceOnUse" color-interpolation-filters="sRGB"><feFlood flood-color="#fff" result="bg"/><feBlend in="SourceGraphic" in2="bg"/></filter><mask id="mask" x="268.86" y="-8439.13" width="62.78" height="32766" maskUnits="userSpaceOnUse"><g class="cls-18"/></mask><linearGradient id="linear-gradient" x1="268.86" y1="291.38" x2="331.63" y2="291.38" gradientUnits="userSpaceOnUse"><stop offset="0" stop-color="#fff"/><stop offset="0.02" stop-color="#f2f2f2"/><stop offset="0.14" stop-color="#bababa"/><stop offset="0.25" stop-color="#888"/><stop offset="0.37" stop-color="#5e5e5e"/><stop offset="0.49" stop-color="#3c3c3c"/><stop offset="0.61" stop-color="#222"/><stop offset="0.74" stop-color="#0f0f0f"/><stop offset="0.86" stop-color="#040404"/><stop offset="1"/></linearGradient><filter id="luminosity-noclip-2" x="268.86" y="-8439.13" width="62.94" height="32766" filterUnits="userSpaceOnUse" color-interpolation-filters="sRGB"><feFlood flood-color="#fff" result="bg"/><feBlend in="SourceGraphic" in2="bg"/></filter><mask id="mask-2" x="268.86" y="-8439.13" width="62.94" height="32766" maskUnits="userSpaceOnUse"><g class="cls-17"/></mask><linearGradient id="linear-gradient-2" x1="268.86" y1="203.31" x2="331.8" y2="203.31" xlink:href="#linear-gradient"/><filter id="luminosity-noclip-3" x="161.81" y="-8439.13" width="63.32" height="32766" filterUnits="userSpaceOnUse" color-interpolation-filters="sRGB"><feFlood flood-color="#fff" result="bg"/><feBlend in="SourceGraphic" in2="bg"/></filter><mask id="mask-3" x="161.81" y="-8439.13" width="63.32" height="32766" maskUnits="userSpaceOnUse"><g class="cls-16"/></mask><linearGradient id="linear-gradient-3" x1="193.47" y1="164.46" x2="193.47" y2="242.04" xlink:href="#linear-gradient"/><filter id="luminosity-noclip-4" x="161.97" y="-8439.13" width="63.15" height="32766" filterUnits="userSpaceOnUse" color-interpolation-filters="sRGB"><feFlood flood-color="#fff" result="bg"/><feBlend in="SourceGraphic" in2="bg"/></filter><mask id="mask-4" x="161.97" y="-8439.13" width="63.15" height="32766" maskUnits="userSpaceOnUse"><g class="cls-15"/></mask><linearGradient id="linear-gradient-4" x1="193.55" y1="329.14" x2="193.55" y2="253.72" xlink:href="#linear-gradient"/><filter id="luminosity-noclip-5" x="268.86" y="253.72" width="62.78" height="75.31" filterUnits="userSpaceOnUse" color-interpolation-filters="sRGB"><feFlood flood-color="#fff" result="bg"/><feBlend in="SourceGraphic" in2="bg"/></filter><mask id="mask-5" x="268.86" y="253.72" width="62.78" height="75.31" maskUnits="userSpaceOnUse"><g class="cls-1"><path class="cls-2" d="M268.86,314V329a85.16,85.16,0,0,0,62.77-75.32H317.18A70.77,70.77,0,0,1,268.86,314Z"/></g></mask><filter id="luminosity-noclip-6" x="268.86" y="164.57" width="62.94" height="77.48" filterUnits="userSpaceOnUse" color-interpolation-filters="sRGB"><feFlood flood-color="#fff" result="bg"/><feBlend in="SourceGraphic" in2="bg"/></filter><mask id="mask-6" x="268.86" y="164.57" width="62.94" height="77.48" maskUnits="userSpaceOnUse"><g class="cls-3"><path class="cls-4" d="M317.34,242H331.8a85.17,85.17,0,0,0-62.94-77.47v15.05A70.74,70.74,0,0,1,317.34,242Z"/></g></mask><filter id="luminosity-noclip-7" x="161.81" y="164.46" width="63.32" height="77.58" filterUnits="userSpaceOnUse" color-interpolation-filters="sRGB"><feFlood flood-color="#fff" result="bg"/><feBlend in="SourceGraphic" in2="bg"/></filter><mask id="mask-7" x="161.81" y="164.46" width="63.32" height="77.58" maskUnits="userSpaceOnUse"><g class="cls-5"><path class="cls-6" d="M225.12,179.49v-15A85.17,85.17,0,0,0,161.81,242h14.46A70.74,70.74,0,0,1,225.12,179.49Z"/></g></mask><filter id="luminosity-noclip-8" x="161.97" y="253.72" width="63.15" height="75.42" filterUnits="userSpaceOnUse" color-interpolation-filters="sRGB"><feFlood flood-color="#fff" result="bg"/><feBlend in="SourceGraphic" in2="bg"/></filter><mask id="mask-8" x="161.97" y="253.72" width="63.15" height="75.42" maskUnits="userSpaceOnUse"><g class="cls-7"><path class="cls-8" d="M176.43,253.72H162a85.17,85.17,0,0,0,63.15,75.42v-15A70.78,70.78,0,0,1,176.43,253.72Z"/></g></mask></defs><title>circle_02_green</title><g id="Layer_2" data-name="Layer 2"><g id="Layer_1-2" data-name="Layer 1"><path class="cls-9" d="M256.11,239a2.77,2.77,0,0,0-2.64,2.89v9.81a2.65,2.65,0,1,0,5.27,0V241.9A2.77,2.77,0,0,0,256.11,239Z"/><path class="cls-9" d="M237.5,239a2.77,2.77,0,0,0-2.63,2.89v9.81a2.64,2.64,0,1,0,5.26,0V241.9A2.77,2.77,0,0,0,237.5,239Z"/><path class="cls-9" d="M256.11,35.71a2.77,2.77,0,0,0-2.64,2.89v9.81a2.65,2.65,0,1,0,5.27,0V38.6A2.77,2.77,0,0,0,256.11,35.71Z"/><path class="cls-9" d="M237.5,35.71a2.77,2.77,0,0,0-2.63,2.89v9.81a2.64,2.64,0,1,0,5.26,0V38.6A2.77,2.77,0,0,0,237.5,35.71Z"/><path class="cls-9" d="M256.11,442.31a2.77,2.77,0,0,0-2.64,2.89V455a2.65,2.65,0,1,0,5.27,0V445.2A2.77,2.77,0,0,0,256.11,442.31Z"/><path class="cls-9" d="M237.5,442.31a2.77,2.77,0,0,0-2.63,2.89V455a2.64,2.64,0,1,0,5.26,0V445.2A2.77,2.77,0,0,0,237.5,442.31Z"/><path class="cls-9" d="M457.9,256.11a2.77,2.77,0,0,0-2.89-2.64H445.2a2.65,2.65,0,1,0,0,5.27H455A2.77,2.77,0,0,0,457.9,256.11Z"/><path class="cls-9" d="M457.9,237.5a2.77,2.77,0,0,0-2.89-2.63H445.2a2.64,2.64,0,1,0,0,5.26H455A2.77,2.77,0,0,0,457.9,237.5Z"/><path class="cls-9" d="M51.3,256.11a2.77,2.77,0,0,0-2.89-2.64H38.6a2.65,2.65,0,1,0,0,5.27h9.81A2.77,2.77,0,0,0,51.3,256.11Z"/><path class="cls-9" d="M51.3,237.5a2.77,2.77,0,0,0-2.89-2.63H38.6a2.64,2.64,0,1,0,0,5.26h9.81A2.77,2.77,0,0,0,51.3,237.5Z"/><path class="cls-10" d="M352.46,241.47H379A132.36,132.36,0,0,0,271.5,116.78V144A105.82,105.82,0,0,1,352.46,241.47Z"/><path class="cls-10" d="M222.52,143.85V116.7a132.38,132.38,0,0,0-108,124.77h26.58A105.82,105.82,0,0,1,222.52,143.85Z"/><path class="cls-10" d="M141.33,254.56H114.68A132.39,132.39,0,0,0,222.52,376.91V349.76A105.81,105.81,0,0,1,141.33,254.56Z"/><path class="cls-10" d="M271.5,349.66v27.17A132.38,132.38,0,0,0,378.92,254.56H352.28A105.81,105.81,0,0,1,271.5,349.66Z"/><circle class="cls-9" cx="246.8" cy="246.8" r="13.03"/><path class="cls-9" d="M202.69,248.66H1.86a1.86,1.86,0,0,1,0-3.72H202.69a1.86,1.86,0,1,1,0,3.72Z"/><path class="cls-9" d="M491.75,248.66H290.92a1.86,1.86,0,0,1,0-3.72H491.75a1.86,1.86,0,0,1,0,3.72Z"/><path class="cls-9" d="M202.69,248.67H1.86a1.87,1.87,0,0,1,0-3.73H202.69a1.87,1.87,0,0,1,0,3.73Z"/><path class="cls-9" d="M491.75,248.67H290.92a1.87,1.87,0,0,1,0-3.73H491.75a1.87,1.87,0,0,1,0,3.73Z"/><path class="cls-9" d="M246.8,204.55a1.86,1.86,0,0,1-1.86-1.86V1.86a1.87,1.87,0,0,1,3.73,0V202.69A1.87,1.87,0,0,1,246.8,204.55Z"/><path class="cls-9" d="M246.8,493.61a1.86,1.86,0,0,1-1.86-1.86V290.92a1.87,1.87,0,0,1,3.73,0V491.75A1.87,1.87,0,0,1,246.8,493.61Z"/><path class="cls-9" d="M292.4,246.8a45.43,45.43,0,0,0-.57-7.13h5.64a51.26,51.26,0,0,0-43.53-43.53v5.63a45.73,45.73,0,0,0-14.27,0v-5.63a51.25,51.25,0,0,0-43.53,43.53h5.64a44.94,44.94,0,0,0,0,14.27h-5.64a51.26,51.26,0,0,0,43.53,43.53v-5.64a44.94,44.94,0,0,0,14.27,0v5.64a51.27,51.27,0,0,0,43.53-43.53h-5.64A45.46,45.46,0,0,0,292.4,246.8Zm-87.47,0a41.87,41.87,0,1,1,41.87,41.87A41.93,41.93,0,0,1,204.93,246.8Z"/><path class="cls-9" d="M409.78,231.49l-43,2c-.1-.93-.22-1.87-.34-2.8l4.16-5.52a132,132,0,0,0-47.28-72.59L323,153q-3.58-2.92-7.37-5.56L316,147a132.89,132.89,0,0,0-41.76-20.4l9.26-39.3c.4-1.72,0-3.28-.83-3.48L279,83c-.86-.2-1.89,1-2.29,2.74l-9.23,39.16q-3-.7-6.1-1.26l-1.49-2c-4.3-.14-8.57,0-12.82.22a132.1,132.1,0,0,0-13.94-.26l-1.63,2.16c-1.68.31-3.37.65-5,1L217,84.93c-.41-1.72-1.43-2.94-2.29-2.74l-3.63.87c-.85.2-1.22,1.76-.81,3.47l9.51,40a132.54,132.54,0,0,0-42.62,20.76l.23.3q-3.78,2.64-7.35,5.59l-.24-.32a132,132,0,0,0-47.11,72.69l4.14,5.49c-.08.64-.16,1.28-.23,1.93L83,231c-1.76-.08-3.22.57-3.26,1.45l-.16,3.72c0,.89,1.36,1.66,3.12,1.74l43.36,1.89c-.09,1.66-.14,3.33-.16,5,0,.52,0,1,0,1.57s0,1.33,0,2c0,1.62.06,3.24.14,4.85l-42.83,2c-1.76.08-3.16.86-3.12,1.74l.17,3.72c0,.88,1.5,1.53,3.26,1.45l43.05-2c.09.85.19,1.7.3,2.54l-4.14,5.5A132.1,132.1,0,0,0,170,340.77l.25-.32q3.57,2.93,7.36,5.56l-.24.31a132.8,132.8,0,0,0,42.08,20.49l-9.31,39.5c-.4,1.72,0,3.27.82,3.48l3.63.85c.86.2,1.88-1,2.29-2.74l9.27-39.37c1.88.42,3.76.81,5.66,1.16l1.63,2.15a132.09,132.09,0,0,0,13.94-.29c4.25.26,8.52.34,12.81.18l1.49-2c1.71-.31,3.42-.66,5.11-1l9.51,40c.41,1.71,1.44,2.94,2.29,2.74l3.63-.87c.86-.2,1.22-1.76.81-3.47L273.5,367a132.88,132.88,0,0,0,42.7-20.78l-.31-.41c2.52-1.75,5-3.62,7.35-5.58l.32.42A132,132,0,0,0,370.67,268l-4.17-5.5c.08-.6.16-1.19.22-1.79l43.89,1.91c1.77.08,3.22-.57,3.26-1.45l.17-3.73c0-.88-1.36-1.65-3.13-1.73l-43.63-1.9c.09-1.65.15-3.31.17-5,0-.53,0-1.06,0-1.59,0-.71,0-1.41,0-2.12,0-1.59-.05-3.17-.13-4.74l42.78-2c1.76-.08,3.15-.86,3.11-1.74l-.17-3.72C413,232.06,411.54,231.41,409.78,231.49Zm-62,72.83a125.91,125.91,0,0,1-28.25,31l.85,1.13c-1,.84-2.07,1.67-3.14,2.47l-.43.31h0l-.07.06-.07.05h0l-.42.33c-1.06.81-2.14,1.59-3.23,2.35l-.85-1.13a125.63,125.63,0,0,1-37.48,18.78,115.17,115.17,0,0,1-15.88,2.84l-1.75.17-1,.08a115.92,115.92,0,0,1-37.09-3.1,126.11,126.11,0,0,1-37.53-18.7l-.85,1.14c-1.08-.77-2.16-1.54-3.23-2.35-.15-.1-.28-.21-.42-.32h0l-.07-.05-.07-.06h0l-.44-.31c-1.06-.81-2.11-1.63-3.14-2.47l.85-1.13a126,126,0,0,1-28.32-30.91,114.82,114.82,0,0,1-.13-115.31,125.93,125.93,0,0,1,28.25-31l-.85-1.12c1-.84,2.07-1.67,3.13-2.47l.43-.32h0l.07-.06.07-.05h0a4.23,4.23,0,0,1,.41-.33c1.07-.81,2.15-1.59,3.23-2.35l.86,1.12a126.1,126.1,0,0,1,37.48-18.78,116.46,116.46,0,0,1,37.08-3.19l1,.08,1.74.17a117,117,0,0,1,15.89,2.8,125.94,125.94,0,0,1,37.52,18.7l.85-1.13c1.09.76,2.17,1.53,3.24,2.34l.42.33h0l.07,0,.07.06h0l.43.32c1.07.8,2.11,1.63,3.15,2.46l-.86,1.13a126,126,0,0,1,28.33,30.91,115.12,115.12,0,0,1,.13,115.47Z"/><g class="cls-11"><path class="cls-9" d="M268.86,314V329a85.16,85.16,0,0,0,62.77-75.32H317.18A70.77,70.77,0,0,1,268.86,314Z"/></g><g class="cls-12"><path class="cls-9" d="M317.34,242H331.8a85.17,85.17,0,0,0-62.94-77.47v15.05A70.74,70.74,0,0,1,317.34,242Z"/></g><g class="cls-13"><path class="cls-9" d="M225.12,179.49v-15A85.17,85.17,0,0,0,161.81,242h14.46A70.74,70.74,0,0,1,225.12,179.49Z"/></g><g class="cls-14"><path class="cls-9" d="M176.43,253.72H162a85.17,85.17,0,0,0,63.15,75.42v-15A70.78,70.78,0,0,1,176.43,253.72Z"/></g></g></g></svg>