<svg xmlns="http://www.w3.org/2000/svg" xmlns:xlink="http://www.w3.org/1999/xlink" viewBox="0 0 484.06 484.06"><defs><style>.cls-1{fill:url(#New_Gradient_Swatch_7);}.cls-2{fill:url(#New_Gradient_Swatch_7-2);}.cls-3{fill:url(#New_Gradient_Swatch_7-3);}.cls-4{fill:url(#New_Gradient_Swatch_7-4);}.cls-5{fill:url(#New_Gradient_Swatch_7-5);}.cls-6{fill:url(#New_Gradient_Swatch_7-6);}.cls-7{fill:url(#New_Gradient_Swatch_7-7);}.cls-8{fill:url(#New_Gradient_Swatch_7-8);}.cls-9{fill:url(#New_Gradient_Swatch_7-9);}.cls-10{fill:url(#New_Gradient_Swatch_7-10);}.cls-11{fill:url(#New_Gradient_Swatch_7-11);}.cls-12{fill:url(#New_Gradient_Swatch_7-12);}.cls-13{fill:url(#New_Gradient_Swatch_7-13);}.cls-14{fill:url(#New_Gradient_Swatch_7-14);}.cls-15{fill:url(#New_Gradient_Swatch_7-15);}.cls-16{fill:url(#New_Gradient_Swatch_7-16);}.cls-17{fill:url(#New_Gradient_Swatch_7-17);}.cls-18{fill:url(#New_Gradient_Swatch_7-18);}.cls-19{fill:url(#New_Gradient_Swatch_7-19);}.cls-20{fill:url(#New_Gradient_Swatch_7-20);}.cls-21{fill:url(#New_Gradient_Swatch_7-21);}.cls-22{fill:url(#New_Gradient_Swatch_7-22);}.cls-23{fill:url(#New_Gradient_Swatch_7-23);}.cls-24{fill:url(#New_Gradient_Swatch_7-24);}.cls-25{fill:url(#New_Gradient_Swatch_7-25);}</style><linearGradient id="New_Gradient_Swatch_7" x1="119.5" y1="170.44" x2="147.24" y2="170.44" gradientUnits="userSpaceOnUse"><stop offset="0" stop-color="#fcdaff"/><stop offset="1" stop-color="#cf52fe"/></linearGradient><linearGradient id="New_Gradient_Swatch_7-2" x1="152.19" y1="134.4" x2="184.63" y2="134.4" xlink:href="#New_Gradient_Swatch_7"/><linearGradient id="New_Gradient_Swatch_7-3" x1="107.46" y1="217.12" x2="121.5" y2="217.12" xlink:href="#New_Gradient_Swatch_7"/><linearGradient id="New_Gradient_Swatch_7-4" x1="107.46" y1="269.21" x2="122.96" y2="269.21" xlink:href="#New_Gradient_Swatch_7"/><linearGradient id="New_Gradient_Swatch_7-5" x1="336.83" y1="168.41" x2="362.5" y2="168.41" xlink:href="#New_Gradient_Swatch_7"/><linearGradient id="New_Gradient_Swatch_7-6" x1="295.38" y1="133.37" x2="331.88" y2="133.37" xlink:href="#New_Gradient_Swatch_7"/><linearGradient id="New_Gradient_Swatch_7-7" x1="195.2" y1="115.21" x2="234.52" y2="115.21" xlink:href="#New_Gradient_Swatch_7"/><linearGradient id="New_Gradient_Swatch_7-8" x1="249.55" y1="114.48" x2="284.35" y2="114.48" xlink:href="#New_Gradient_Swatch_7"/><linearGradient id="New_Gradient_Swatch_7-9" x1="199.72" y1="369.59" x2="234.52" y2="369.59" xlink:href="#New_Gradient_Swatch_7"/><linearGradient id="New_Gradient_Swatch_7-10" x1="362.56" y1="266.95" x2="376.61" y2="266.95" xlink:href="#New_Gradient_Swatch_7"/><linearGradient id="New_Gradient_Swatch_7-11" x1="361.1" y1="214.86" x2="376.61" y2="214.86" xlink:href="#New_Gradient_Swatch_7"/><linearGradient id="New_Gradient_Swatch_7-12" x1="121.57" y1="315.65" x2="147.24" y2="315.65" xlink:href="#New_Gradient_Swatch_7"/><linearGradient id="New_Gradient_Swatch_7-13" x1="336.82" y1="313.63" x2="364.57" y2="313.63" xlink:href="#New_Gradient_Swatch_7"/><linearGradient id="New_Gradient_Swatch_7-14" x1="152.19" y1="350.7" x2="188.69" y2="350.7" xlink:href="#New_Gradient_Swatch_7"/><linearGradient id="New_Gradient_Swatch_7-15" x1="249.55" y1="368.85" x2="288.87" y2="368.85" xlink:href="#New_Gradient_Swatch_7"/><linearGradient id="New_Gradient_Swatch_7-16" x1="299.42" y1="349.66" x2="331.88" y2="349.66" xlink:href="#New_Gradient_Swatch_7"/><linearGradient id="New_Gradient_Swatch_7-17" x1="269.71" y1="242.03" x2="474.4" y2="242.03" xlink:href="#New_Gradient_Swatch_7"/><linearGradient id="New_Gradient_Swatch_7-18" x1="3.51" y1="242.03" x2="208.21" y2="242.03" xlink:href="#New_Gradient_Swatch_7"/><linearGradient id="New_Gradient_Swatch_7-19" x1="469.13" y1="242.03" x2="484.06" y2="242.03" xlink:href="#New_Gradient_Swatch_7"/><linearGradient id="New_Gradient_Swatch_7-20" x1="0" y1="242.03" x2="14.93" y2="242.03" xlink:href="#New_Gradient_Swatch_7"/><linearGradient id="New_Gradient_Swatch_7-21" x1="240.71" y1="372.05" x2="243.35" y2="372.05" xlink:href="#New_Gradient_Swatch_7"/><linearGradient id="New_Gradient_Swatch_7-22" x1="240.71" y1="105.86" x2="243.35" y2="105.86" xlink:href="#New_Gradient_Swatch_7"/><linearGradient id="New_Gradient_Swatch_7-23" x1="234.56" y1="476.6" x2="249.5" y2="476.6" xlink:href="#New_Gradient_Swatch_7"/><linearGradient id="New_Gradient_Swatch_7-24" x1="234.56" y1="7.47" x2="249.5" y2="7.47" xlink:href="#New_Gradient_Swatch_7"/><linearGradient id="New_Gradient_Swatch_7-25" x1="226.22" y1="242.03" x2="257.85" y2="242.03" xlink:href="#New_Gradient_Swatch_7"/></defs><title>circle_10_purple</title><g id="Layer_2" data-name="Layer 2"><g id="Layer_1-2" data-name="Layer 1"><path class="cls-1" d="M127,188.69a126.65,126.65,0,0,1,20.23-30.82l-5.68-5.68a134.27,134.27,0,0,0-22.06,33.54Z"/><path class="cls-2" d="M157.87,147.24A127,127,0,0,1,184.63,129l-3.22-7.4a134.6,134.6,0,0,0-29.22,20Z"/><path class="cls-3" d="M115.49,234.52a126.55,126.55,0,0,1,6-31.85L114,199.72a134.13,134.13,0,0,0-6.53,34.8Z"/><path class="cls-4" d="M123,285.65a126.34,126.34,0,0,1-7.47-36.1h-8a134,134,0,0,0,8.12,39.32Z"/><path class="cls-5" d="M342.51,152.19l-5.68,5.68a127.36,127.36,0,0,1,18.26,26.76l7.41-3.22A134.6,134.6,0,0,0,342.51,152.19Z"/><path class="cls-6" d="M295.38,127a126.65,126.65,0,0,1,30.82,20.23l5.68-5.68a134.32,134.32,0,0,0-33.55-22.06Z"/><path class="cls-7" d="M198.41,123a126.41,126.41,0,0,1,36.11-7.47v-8a134.66,134.66,0,0,0-39.32,8.12Z"/><path class="cls-8" d="M249.55,115.49a126,126,0,0,1,31.84,6l3-7.51a134.56,134.56,0,0,0-34.8-6.54Z"/><path class="cls-9" d="M234.52,368.58a126.11,126.11,0,0,1-31.85-6l-2.95,7.52a134.55,134.55,0,0,0,34.8,6.53Z"/><path class="cls-10" d="M368.58,249.55a126,126,0,0,1-6,31.84l7.52,3a134.55,134.55,0,0,0,6.53-34.8Z"/><path class="cls-11" d="M361.1,198.41a126.42,126.42,0,0,1,7.48,36.11h8a134.34,134.34,0,0,0-8.12-39.32Z"/><path class="cls-12" d="M147.24,326.19A126.77,126.77,0,0,1,129,299.43l-7.4,3.22a134.9,134.9,0,0,0,20,29.23Z"/><path class="cls-13" d="M357.06,295.38a126.92,126.92,0,0,1-20.24,30.81l5.69,5.69a134.32,134.32,0,0,0,22.06-33.55Z"/><path class="cls-14" d="M188.69,357.06a127,127,0,0,1-30.82-20.24l-5.68,5.69a134.27,134.27,0,0,0,33.54,22.06Z"/><path class="cls-15" d="M285.64,361.08a126,126,0,0,1-36.09,7.48v8.05a134.34,134.34,0,0,0,39.32-8.12Z"/><path class="cls-16" d="M326.19,336.82A127.58,127.58,0,0,1,314,346.37v.31h-.44a127.32,127.32,0,0,1-14.18,8.39l3.23,7.43a134.9,134.9,0,0,0,29.23-20Z"/><rect class="cls-17" x="269.71" y="240.71" width="204.69" height="2.64"/><rect class="cls-18" x="3.51" y="240.71" width="204.69" height="2.64"/><path class="cls-19" d="M476.6,249.5a7.47,7.47,0,1,1,7.46-7.47A7.46,7.46,0,0,1,476.6,249.5Z"/><path class="cls-20" d="M7.47,249.5A7.47,7.47,0,1,1,14.93,242,7.46,7.46,0,0,1,7.47,249.5Z"/><rect class="cls-21" x="240.71" y="269.71" width="2.64" height="204.7"/><rect class="cls-22" x="240.71" y="3.51" width="2.64" height="204.7"/><path class="cls-23" d="M234.56,476.6a7.47,7.47,0,1,1,7.47,7.46A7.47,7.47,0,0,1,234.56,476.6Z"/><path class="cls-24" d="M234.56,7.47A7.47,7.47,0,1,1,242,14.93,7.47,7.47,0,0,1,234.56,7.47Z"/><path class="cls-25" d="M242,257.85A15.82,15.82,0,1,1,257.85,242,15.83,15.83,0,0,1,242,257.85Zm0-29A13.18,13.18,0,1,0,255.21,242,13.2,13.2,0,0,0,242,228.85Z"/></g></g></svg>