<svg xmlns="http://www.w3.org/2000/svg" viewBox="0 0 484.68 484.69"><defs><style>.cls-1{fill:#00d0ff;}.cls-2{opacity:0.7;}.cls-3{opacity:0.3;}</style></defs><title>circle_number_blue_1</title><g id="Layer_2" data-name="Layer 2"><g id="Layer_1-2" data-name="Layer 1"><g id="Layer_2-2" data-name="Layer 2"><g id="Layer_1-2-2" data-name="Layer 1-2"><path class="cls-1" d="M241.51,403.25h1.67c1.78,0,3.57,0,5.37-.09v1.43a176.61,176.61,0,0,0,108.93-39.51v-9.45a160.88,160.88,0,0,0,0-226.57V119.6a176.64,176.64,0,0,0-109-39.5v1.43q-2.66-.09-5.37-.09h-1.67c-1.78,0-3.56,0-5.37.09V80.1a176.68,176.68,0,0,0-108.93,39.5v9.46a160.88,160.88,0,0,0,0,226.62v9.46a176.7,176.7,0,0,0,109,39.45v-1.43C238,403.22,239.73,403.25,241.51,403.25Zm-5.37-5.79v-1.9A167.93,167.93,0,0,1,181,385.34a155.29,155.29,0,0,1,0-286,168,168,0,0,1,55.15-10.22v-1.9c1.77,0,3.55-.1,5.37-.1h1.66c1.78,0,3.57,0,5.37.1v1.9A168,168,0,0,1,303.7,99.35a155.29,155.29,0,0,1,0,286,167.92,167.92,0,0,1-55.18,10.22v1.9c-1.77.06-3.56.1-5.37.1h-1.67c-1.75,0-3.53,0-5.3-.1Z"/><path class="cls-1" d="M242.33,392.75A150.36,150.36,0,1,1,392.75,242.32,150.36,150.36,0,0,1,242.33,392.75Zm0-296A145.65,145.65,0,1,0,388,242.4v-.08A145.83,145.83,0,0,0,242.33,96.67Z"/><path class="cls-1" d="M241.53,45.17a1.68,1.68,0,0,1-1.68-1.68V1.68a1.68,1.68,0,0,1,3.36,0V43.49a1.68,1.68,0,0,1-1.68,1.68Z"/><path class="cls-1" d="M221.72,46.8a169.71,169.71,0,0,1,41.1.14L264,40.08a177.36,177.36,0,0,0-43.34-.16Z"/><g class="cls-2"><path class="cls-1" d="M224.07,62.39a152.53,152.53,0,0,1,36.05.1l1-5.5a159.66,159.66,0,0,0-37.84-.11Z"/></g><g class="cls-3"><path class="cls-1" d="M226.14,76.14a139.23,139.23,0,0,1,31.61.06l.71-4.11A142.87,142.87,0,0,0,225.52,72Z"/></g><path class="cls-1" d="M243.16,484.69a1.68,1.68,0,0,1-1.68-1.68V441.2a1.68,1.68,0,0,1,3.36,0h0V483a1.68,1.68,0,0,1-1.67,1.69Z"/><path class="cls-1" d="M263,437.88a168.71,168.71,0,0,1-41.1-.13l-1.19,6.86a178.25,178.25,0,0,0,43.29.14Z"/><g class="cls-2"><path class="cls-1" d="M260.62,422.3a152.53,152.53,0,0,1-36.05-.1l-1,5.5a159.66,159.66,0,0,0,37.84.11Z"/></g><g class="cls-3"><path class="cls-1" d="M258.55,408.55a139,139,0,0,1-15.53.87,137.25,137.25,0,0,1-16.08-.94l-.71,4.11a140.62,140.62,0,0,0,16.79,1,142.8,142.8,0,0,0,16.15-.92Z"/></g><path class="cls-1" d="M483,243.21H441.2a1.68,1.68,0,0,1,0-3.36H483a1.68,1.68,0,0,1,0,3.36Z"/><path class="cls-1" d="M437.88,221.72a168.71,168.71,0,0,1-.13,41.1l6.86,1.19a178.66,178.66,0,0,0,.14-43.34Z"/><g class="cls-2"><path class="cls-1" d="M422.3,224.07a152.53,152.53,0,0,1-.1,36.05l5.5,1a159.66,159.66,0,0,0,.11-37.84Z"/></g><g class="cls-3"><path class="cls-1" d="M408.55,226.14a139,139,0,0,1,.87,15.53,137.25,137.25,0,0,1-.94,16.08l4.11.71a140.62,140.62,0,0,0,1-16.79,142.8,142.8,0,0,0-.92-16.15Z"/></g><path class="cls-1" d="M43.49,244.84H1.68a1.68,1.68,0,0,1,0-3.36H43.49a1.68,1.68,0,0,1,0,3.36Z"/><path class="cls-1" d="M46.81,263a168.71,168.71,0,0,1,.13-41.1l-6.86-1.19A177,177,0,0,0,39.92,264Z"/><g class="cls-2"><path class="cls-1" d="M62.39,260.62a152.53,152.53,0,0,1,.1-36.05l-5.5-1a159.66,159.66,0,0,0-.11,37.84Z"/></g><g class="cls-3"><path class="cls-1" d="M76.14,258.55A139.19,139.19,0,0,1,75.27,243a137.25,137.25,0,0,1,.94-16.08l-4.12-.71a143,143,0,0,0-.09,33Z"/></g></g></g></g></g></svg>