<svg xmlns="http://www.w3.org/2000/svg" xmlns:xlink="http://www.w3.org/1999/xlink" viewBox="0 0 489.87 489.87"><defs><style>.cls-1{mask:url(#mask);filter:url(#luminosity-noclip-5);}.cls-2,.cls-4,.cls-6,.cls-8{mix-blend-mode:multiply;}.cls-2{fill:url(#Безымянный_градиент_2);}.cls-3,.cls-7{mask:url(#mask-2);}.cls-3{filter:url(#luminosity-noclip-6);}.cls-4{fill:url(#Безымянный_градиент_2-2);}.cls-5{mask:url(#mask-3);filter:url(#luminosity-noclip-7);}.cls-6{fill:url(#Безымянный_градиент_2-3);}.cls-7{filter:url(#luminosity-noclip-8);}.cls-8{fill:url(#Безымянный_градиент_2-4);}.cls-10,.cls-11,.cls-9{fill:#17cffc;}.cls-10{opacity:0.65;}.cls-11,.cls-13{opacity:0.5;}.cls-12{opacity:0.44;}.cls-14{mask:url(#mask-5);}.cls-15{mask:url(#mask-6);}.cls-16{mask:url(#mask-7);}.cls-17{mask:url(#mask-8);}.cls-18{filter:url(#luminosity-noclip-3);}.cls-19{filter:url(#luminosity-noclip-2);}.cls-20{filter:url(#luminosity-noclip);}</style><filter id="luminosity-noclip" x="290.29" y="-8439.43" width="111.39" height="32766" filterUnits="userSpaceOnUse" color-interpolation-filters="sRGB"><feFlood flood-color="#fff" result="bg"/><feBlend in="SourceGraphic" in2="bg"/></filter><mask id="mask" x="290.29" y="-8439.43" width="111.39" height="32766" maskUnits="userSpaceOnUse"><g class="cls-20"/></mask><radialGradient id="Безымянный_градиент_2" cx="342.3" cy="455.53" r="63.12" gradientTransform="translate(43.94 -57.47) scale(0.88)" gradientUnits="userSpaceOnUse"><stop offset="0.59" stop-color="#fff"/><stop offset="0.81" stop-color="gray"/><stop offset="0.9" stop-color="#4d4d4d"/><stop offset="1"/></radialGradient><filter id="luminosity-noclip-2" x="87" y="-8439.43" width="111.39" height="32766" filterUnits="userSpaceOnUse" color-interpolation-filters="sRGB"><feFlood flood-color="#fff" result="bg"/><feBlend in="SourceGraphic" in2="bg"/></filter><mask id="mask-2" x="87" y="-8439.43" width="111.39" height="32766" maskUnits="userSpaceOnUse"><g class="cls-19"/></mask><radialGradient id="Безымянный_градиент_2-2" cx="111.92" cy="225.15" r="63.12" xlink:href="#Безымянный_градиент_2"/><filter id="luminosity-noclip-3" x="290.29" y="-8439.43" width="111.39" height="32766" filterUnits="userSpaceOnUse" color-interpolation-filters="sRGB"><feFlood flood-color="#fff" result="bg"/><feBlend in="SourceGraphic" in2="bg"/></filter><mask id="mask-3" x="290.29" y="-8439.43" width="111.39" height="32766" maskUnits="userSpaceOnUse"><g class="cls-18"/></mask><radialGradient id="Безымянный_градиент_2-3" cx="342.3" cy="225.15" r="63.12" xlink:href="#Безымянный_градиент_2"/><radialGradient id="Безымянный_градиент_2-4" cx="111.92" cy="455.53" r="63.12" xlink:href="#Безымянный_градиент_2"/><filter id="luminosity-noclip-5" x="290.29" y="288.8" width="111.39" height="111.39" filterUnits="userSpaceOnUse" color-interpolation-filters="sRGB"><feFlood flood-color="#fff" result="bg"/><feBlend in="SourceGraphic" in2="bg"/></filter><mask id="mask-5" x="290.29" y="288.8" width="111.39" height="111.39" maskUnits="userSpaceOnUse"><g class="cls-1"><polygon class="cls-2" points="290.29 288.8 401.68 385.21 386.7 400.19 290.29 288.8"/></g></mask><filter id="luminosity-noclip-6" x="87" y="85.51" width="111.39" height="111.39" filterUnits="userSpaceOnUse" color-interpolation-filters="sRGB"><feFlood flood-color="#fff" result="bg"/><feBlend in="SourceGraphic" in2="bg"/></filter><mask id="mask-6" x="87" y="85.51" width="111.39" height="111.39" maskUnits="userSpaceOnUse"><g class="cls-3"><polygon class="cls-4" points="198.39 196.9 87 100.48 101.97 85.51 198.39 196.9"/></g></mask><filter id="luminosity-noclip-7" x="290.29" y="85.51" width="111.39" height="111.39" filterUnits="userSpaceOnUse" color-interpolation-filters="sRGB"><feFlood flood-color="#fff" result="bg"/><feBlend in="SourceGraphic" in2="bg"/></filter><mask id="mask-7" x="290.29" y="85.51" width="111.39" height="111.39" maskUnits="userSpaceOnUse"><g class="cls-5"><polygon class="cls-6" points="290.29 196.9 386.7 85.51 401.68 100.48 290.29 196.9"/></g></mask><filter id="luminosity-noclip-8" x="87" y="288.8" width="111.39" height="111.39" filterUnits="userSpaceOnUse" color-interpolation-filters="sRGB"><feFlood flood-color="#fff" result="bg"/><feBlend in="SourceGraphic" in2="bg"/></filter><mask id="mask-8" x="87" y="288.8" width="111.39" height="111.39" maskUnits="userSpaceOnUse"><g class="cls-7"><polygon class="cls-8" points="198.39 288.8 101.97 400.19 87 385.21 198.39 288.8"/></g></mask></defs><title>circle_18</title><g id="Layer_2" data-name="Layer 2"><g id="Layer_1-2" data-name="Layer 1"><rect class="cls-9" x="237.82" y="159.34" width="183.06" height="2.36" transform="translate(-17.04 279.9) rotate(-45)"/><circle class="cls-9" cx="395.46" cy="94.4" r="6.68"/><path class="cls-9" d="M411,85.15a4.42,4.42,0,1,1,0-6.25A4.41,4.41,0,0,1,411,85.15Z"/><path class="cls-9" d="M418.13,75.65a2.76,2.76,0,1,1,0-3.91A2.78,2.78,0,0,1,418.13,75.65Z"/><rect class="cls-9" x="68.99" y="328.17" width="183.06" height="2.36" transform="translate(-185.87 209.97) rotate(-45)"/><path class="cls-9" d="M89.68,390.74a6.68,6.68,0,1,1,0,9.44A6.68,6.68,0,0,1,89.68,390.74Z"/><path class="cls-9" d="M78.9,404.72a4.42,4.42,0,1,1,0,6.25A4.41,4.41,0,0,1,78.9,404.72Z"/><path class="cls-9" d="M71.74,414.22a2.76,2.76,0,1,1,0,3.91A2.76,2.76,0,0,1,71.74,414.22Z"/><rect class="cls-9" x="328.17" y="237.82" width="2.36" height="183.06" transform="translate(-136.42 329.31) rotate(-45)"/><path class="cls-9" d="M390.74,400.18a6.68,6.68,0,1,1,9.44,0A6.67,6.67,0,0,1,390.74,400.18Z"/><path class="cls-9" d="M404.72,411a4.42,4.42,0,1,1,6.25,0A4.41,4.41,0,0,1,404.72,411Z"/><path class="cls-9" d="M414.22,418.13a2.76,2.76,0,1,1,3.91,0A2.76,2.76,0,0,1,414.22,418.13Z"/><rect class="cls-9" x="159.34" y="68.99" width="2.36" height="183.06" transform="translate(-66.49 160.51) rotate(-45)"/><path class="cls-9" d="M99.13,89.68a6.68,6.68,0,1,1-9.45,0A6.7,6.7,0,0,1,99.13,89.68Z"/><path class="cls-9" d="M85.15,78.9a4.42,4.42,0,1,1-6.25,0A4.41,4.41,0,0,1,85.15,78.9Z"/><path class="cls-9" d="M75.65,71.74a2.76,2.76,0,1,1-3.91,0A2.78,2.78,0,0,1,75.65,71.74Z"/><rect class="cls-9" x="237.82" y="159.34" width="183.06" height="2.36" transform="translate(-17.04 279.9) rotate(-45)"/><circle class="cls-9" cx="395.46" cy="94.4" r="6.68"/><path class="cls-9" d="M411,85.15a4.42,4.42,0,1,1,0-6.25A4.41,4.41,0,0,1,411,85.15Z"/><path class="cls-9" d="M418.13,75.65a2.76,2.76,0,1,1,0-3.91A2.78,2.78,0,0,1,418.13,75.65Z"/><rect class="cls-9" x="68.99" y="328.17" width="183.06" height="2.36" transform="translate(-185.87 209.97) rotate(-45)"/><path class="cls-9" d="M89.68,390.74a6.68,6.68,0,1,1,0,9.44A6.68,6.68,0,0,1,89.68,390.74Z"/><path class="cls-9" d="M78.9,404.72a4.42,4.42,0,1,1,0,6.25A4.41,4.41,0,0,1,78.9,404.72Z"/><path class="cls-9" d="M71.74,414.22a2.76,2.76,0,1,1,0,3.91A2.76,2.76,0,0,1,71.74,414.22Z"/><rect class="cls-9" x="328.17" y="237.82" width="2.36" height="183.06" transform="translate(-136.42 329.31) rotate(-45)"/><path class="cls-9" d="M390.74,400.18a6.68,6.68,0,1,1,9.44,0A6.67,6.67,0,0,1,390.74,400.18Z"/><path class="cls-9" d="M404.72,411a4.42,4.42,0,1,1,6.25,0A4.41,4.41,0,0,1,404.72,411Z"/><path class="cls-9" d="M414.22,418.13a2.76,2.76,0,1,1,3.91,0A2.76,2.76,0,0,1,414.22,418.13Z"/><rect class="cls-9" x="159.34" y="68.99" width="2.36" height="183.06" transform="translate(-66.49 160.51) rotate(-45)"/><path class="cls-9" d="M99.13,89.68a6.68,6.68,0,1,1-9.45,0A6.7,6.7,0,0,1,99.13,89.68Z"/><path class="cls-9" d="M85.15,78.9a4.42,4.42,0,1,1-6.25,0A4.41,4.41,0,0,1,85.15,78.9Z"/><path class="cls-9" d="M75.65,71.74a2.76,2.76,0,1,1-3.91,0A2.78,2.78,0,0,1,75.65,71.74Z"/><rect class="cls-9" x="243.75" y="34.02" width="2.36" height="183.06"/><path class="cls-9" d="M251.61,32.05a6.68,6.68,0,1,1-6.68-6.67A6.68,6.68,0,0,1,251.61,32.05Z"/><path class="cls-9" d="M249.35,14.55a4.42,4.42,0,1,1-4.42-4.42A4.42,4.42,0,0,1,249.35,14.55Z"/><path class="cls-9" d="M247.69,2.76A2.76,2.76,0,1,1,244.93,0,2.75,2.75,0,0,1,247.69,2.76Z"/><rect class="cls-9" x="243.75" y="272.79" width="2.36" height="183.06"/><path class="cls-9" d="M238.25,457.81a6.68,6.68,0,1,1,6.68,6.68A6.68,6.68,0,0,1,238.25,457.81Z"/><path class="cls-9" d="M240.51,475.32a4.42,4.42,0,1,1,4.42,4.42A4.42,4.42,0,0,1,240.51,475.32Z"/><path class="cls-9" d="M242.17,487.1a2.76,2.76,0,1,1,2.76,2.77A2.77,2.77,0,0,1,242.17,487.1Z"/><rect class="cls-9" x="272.79" y="243.75" width="183.06" height="2.36"/><path class="cls-9" d="M457.81,251.61a6.68,6.68,0,1,1,6.68-6.68A6.68,6.68,0,0,1,457.81,251.61Z"/><path class="cls-9" d="M475.32,249.35a4.42,4.42,0,1,1,4.42-4.42A4.42,4.42,0,0,1,475.32,249.35Z"/><path class="cls-9" d="M487.1,247.69a2.76,2.76,0,1,1,2.77-2.76A2.76,2.76,0,0,1,487.1,247.69Z"/><rect class="cls-9" x="34.02" y="243.75" width="183.06" height="2.36"/><path class="cls-9" d="M32.05,238.25a6.68,6.68,0,1,1-6.67,6.68A6.68,6.68,0,0,1,32.05,238.25Z"/><path class="cls-9" d="M14.55,240.51a4.42,4.42,0,1,1-4.42,4.42A4.42,4.42,0,0,1,14.55,240.51Z"/><path class="cls-9" d="M2.76,242.17A2.76,2.76,0,1,1,0,244.93,2.76,2.76,0,0,1,2.76,242.17Z"/><rect class="cls-9" x="243.75" y="34.02" width="2.36" height="183.06"/><path class="cls-9" d="M251.61,32.05a6.68,6.68,0,1,1-6.68-6.67A6.68,6.68,0,0,1,251.61,32.05Z"/><path class="cls-9" d="M249.35,14.55a4.42,4.42,0,1,1-4.42-4.42A4.42,4.42,0,0,1,249.35,14.55Z"/><path class="cls-9" d="M247.69,2.76A2.76,2.76,0,1,1,244.93,0,2.75,2.75,0,0,1,247.69,2.76Z"/><rect class="cls-9" x="243.75" y="272.79" width="2.36" height="183.06"/><path class="cls-9" d="M238.25,457.81a6.68,6.68,0,1,1,6.68,6.68A6.68,6.68,0,0,1,238.25,457.81Z"/><path class="cls-9" d="M240.51,475.32a4.42,4.42,0,1,1,4.42,4.42A4.42,4.42,0,0,1,240.51,475.32Z"/><path class="cls-9" d="M242.17,487.1a2.76,2.76,0,1,1,2.76,2.77A2.77,2.77,0,0,1,242.17,487.1Z"/><rect class="cls-9" x="272.79" y="243.75" width="183.06" height="2.36"/><path class="cls-9" d="M457.81,251.61a6.68,6.68,0,1,1,6.68-6.68A6.68,6.68,0,0,1,457.81,251.61Z"/><path class="cls-9" d="M475.32,249.35a4.42,4.42,0,1,1,4.42-4.42A4.42,4.42,0,0,1,475.32,249.35Z"/><path class="cls-9" d="M487.1,247.69a2.76,2.76,0,1,1,2.77-2.76A2.76,2.76,0,0,1,487.1,247.69Z"/><rect class="cls-9" x="34.02" y="243.75" width="183.06" height="2.36"/><path class="cls-9" d="M32.05,238.25a6.68,6.68,0,1,1-6.67,6.68A6.68,6.68,0,0,1,32.05,238.25Z"/><path class="cls-9" d="M14.55,240.51a4.42,4.42,0,1,1-4.42,4.42A4.42,4.42,0,0,1,14.55,240.51Z"/><path class="cls-9" d="M2.76,242.17A2.76,2.76,0,1,1,0,244.93,2.76,2.76,0,0,1,2.76,242.17Z"/><path class="cls-9" d="M382.42,243c0-.23,0-.47,0-.7s0-.47,0-.71c0-1.52,0-3-.08-4.54h1.21A150.1,150.1,0,0,0,350,144.47h-8a136.7,136.7,0,0,0-192.5,0h-8A150.1,150.1,0,0,0,107.85,237h1.21c0,1.51-.08,3-.08,4.54,0,.24,0,.47,0,.71s0,.47,0,.7c0,1.52,0,3,.08,4.54h-1.21a150.08,150.08,0,0,0,33.56,92.55h8a136.7,136.7,0,0,0,192.5,0h8a150.08,150.08,0,0,0,33.56-92.55h-1.21C382.38,246,382.42,244.49,382.42,243Zm-4.93,4.54h-1.61a143.09,143.09,0,0,1-8.69,46.84,131.93,131.93,0,0,1-243,0,143.2,143.2,0,0,1-8.7-46.85h-1.6c0-1.51-.09-3-.09-4.54,0-.2,0-.4,0-.6h0a.38.38,0,0,1,0-.1.41.41,0,0,1,0-.11h0c0-.2,0-.4,0-.6,0-1.52,0-3,.09-4.54h1.6a143.1,143.1,0,0,1,8.7-46.84,131.93,131.93,0,0,1,243,0A143.09,143.09,0,0,1,375.88,237h1.61c.05,1.51.09,3,.09,4.54,0,.2,0,.4,0,.6h0v.21h0c0,.2,0,.4,0,.6C377.58,244.49,377.54,246,377.49,247.51Z"/><path class="cls-9" d="M295.14,291.06a7.85,7.85,0,0,1-5.29-2.05c-.17.18-.33.37-.51.55a61.79,61.79,0,0,1-86,1.23,8,8,0,0,1-2,.27h-5.41c.73.8,1.47,1.6,2.25,2.38a68.63,68.63,0,0,0,8,6.84l-5.87,5.88a75.57,75.57,0,0,0,90.74,0l-5.87-5.87a68.72,68.72,0,0,0,8-6.85c.77-.78,1.52-1.58,2.25-2.38Z"/><path class="cls-9" d="M200.33,185.68l5.87,5.87a67.77,67.77,0,0,0-8,6.85c-.78.78-1.52,1.57-2.25,2.38h5.41a8,8,0,0,1,2,.26,61.78,61.78,0,0,1,86,1.24l.52.54a7.79,7.79,0,0,1,5.28-2h.33c-.73-.81-1.47-1.6-2.25-2.38a67.77,67.77,0,0,0-8-6.85l5.87-5.87A75.54,75.54,0,0,0,200.33,185.68Z"/><circle class="cls-9" cx="244.79" cy="242.27" r="15.71"/><path class="cls-9" d="M199.29,339.67a110.89,110.89,0,0,1-68.22-102.52h1.75A109.15,109.15,0,0,0,200,338.06Z"/><path class="cls-9" d="M273.72,343.71l-.49-1.68c46.1-13.63,78.29-56.76,78.29-104.88h1.75a110.17,110.17,0,0,1-22.52,67.08A112.06,112.06,0,0,1,273.72,343.71Z"/><path class="cls-9" d="M156.6,169.05,155.23,168a111.1,111.1,0,0,1,168.58-6.17L322.53,163a109.36,109.36,0,0,0-165.93,6.07Z"/><path class="cls-10" d="M242.17,136.59A100.56,100.56,0,1,0,342.73,237.15,100.55,100.55,0,0,0,242.17,136.59Zm0,185.29a84.74,84.74,0,1,1,84.74-84.73A84.73,84.73,0,0,1,242.17,321.88Z"/><path class="cls-11" d="M238.44,220.07,204.38,111.79H280L245.9,220.07A3.91,3.91,0,0,1,238.44,220.07Z"/><path class="cls-11" d="M224.7,250.07,151,336.41l-40.12-64.06,109.86-28.61A3.91,3.91,0,0,1,224.7,250.07Z"/><path class="cls-11" d="M262.76,244.84,373.46,270l-38.09,65.29-76.37-84A3.91,3.91,0,0,1,262.76,244.84Z"/><path class="cls-9" d="M305.77,333.62A113.23,113.23,0,0,0,347.91,281l2.63,1a116,116,0,0,1-43.18,54Z"/><path class="cls-9" d="M145.82,298.2A113.37,113.37,0,0,0,196.21,343l-1.16,2.58a116.24,116.24,0,0,1-51.66-45.95Z"/><path class="cls-9" d="M229.18,353.93a117.2,117.2,0,0,1-23.12-5.15l.22-.67a116,116,0,0,0,41.06,5.83,112.48,112.48,0,0,0,40.41-9.24l.28.65a112.75,112.75,0,0,1-40.67,9.29A118.36,118.36,0,0,1,229.18,353.93Z"/><path class="cls-9" d="M286.21,345.75a2.19,2.19,0,0,1,1.14-2.85,2.23,2.23,0,0,1,2.88,1.11,2.13,2.13,0,0,1-1.15,2.86A2.15,2.15,0,0,1,286.21,345.75Z"/><path class="cls-9" d="M204.11,347.7a2.15,2.15,0,0,1,2.75-1.31,2.16,2.16,0,1,1-2.75,1.31Z"/><path class="cls-9" d="M195.05,345.61q-2,.7-4.08,1.38a118.78,118.78,0,0,1-29.81-20.5c-.1-1.75-.12-3.52-.14-5.23l1.11,1c.35.33.78.72,1.28,1.17l1.72,1.43c1.27,1.05,2.72,2.29,4.39,3.5l2.53,1.9,2.7,1.84a113.66,113.66,0,0,0,10.33,6.24c1.43.83,2.71,1.4,3.59,1.86a14.92,14.92,0,0,1,1.45.77l.88.91,1.68,1.56Z"/><path class="cls-9" d="M143.39,299.66l.05-.19.56-2.34.66-2.33a108,108,0,0,1-7.25-15.67s.3-.69.59-1.38a5,5,0,0,1,.65-1.24s.54,1.45,1.31,3.54c.36,1.06.93,2.23,1.46,3.51.27.64.56,1.3.84,2s.64,1.32,1,2c1.24,2.69,2.69,5.25,3.75,7.19.53,1,1.05,1.74,1.37,2.29l.53.87c-.37,1.48-.75,3-1,4.5Z"/><path class="cls-9" d="M343.29,291.27c-.6-1.83-1.27-3.63-1.93-5.38a110.09,110.09,0,0,0,6.45-17.81c1.11,1.76,2,3.52,3,5.36A111,111,0,0,1,344,290.5C343.79,290.76,343.56,291,343.29,291.27Z"/><polygon class="cls-9" points="134.29 260.29 134.87 263.04 126.44 264.84 125.81 261.87 134.29 260.29"/><polygon class="cls-9" points="351.62 255.68 352.02 252.89 360.58 253.9 360.15 256.9 351.62 255.68"/><path class="cls-9" d="M132.49,243.76l.16,2.81-8.61.5c-.05-1-.13-2-.17-3Z"/><polygon class="cls-9" points="133.19 227.14 132.93 229.94 124.35 229.15 124.63 226.14 133.19 227.14"/><path class="cls-9" d="M179.44,146.41a113.2,113.2,0,0,0-42.14,52.67l-2.63-1a116,116,0,0,1,43.18-54Z"/><path class="cls-9" d="M339.39,181.83A113.34,113.34,0,0,0,289,137l1.16-2.58a116.22,116.22,0,0,1,51.66,45.94Z"/><path class="cls-9" d="M197.46,135.33l-.28-.65a113.17,113.17,0,0,1,40.67-9.29,116.45,116.45,0,0,1,41.3,5.87l-.22.67a115.78,115.78,0,0,0-41.06-5.83A112.25,112.25,0,0,0,197.46,135.33Z"/><path class="cls-9" d="M199,134.29a2.2,2.2,0,0,1-1.14,2.85A2.25,2.25,0,0,1,195,136a2.12,2.12,0,0,1,1.15-2.85A2.15,2.15,0,0,1,199,134.29Z"/><path class="cls-9" d="M281.1,132.33a2.15,2.15,0,0,1-2.75,1.32,2.17,2.17,0,1,1,2.75-1.32Z"/><path class="cls-9" d="M290.16,134.43c1.34-.48,2.7-.94,4.08-1.39a118.81,118.81,0,0,1,29.81,20.51c.1,1.75.12,3.51.14,5.22l-1.11-1-1.28-1.16-1.72-1.44c-1.27-1-2.72-2.29-4.39-3.49l-2.53-1.9-2.7-1.85a118.43,118.43,0,0,0-10.33-6.24c-1.43-.83-2.71-1.39-3.59-1.85s-1.41-.73-1.45-.77l-.88-.92-1.68-1.55Z"/><path class="cls-9" d="M341.82,180.37l-.05.19-.56,2.34-.66,2.34a107.36,107.36,0,0,1,7.25,15.66l-.59,1.38a4.73,4.73,0,0,1-.65,1.24s-.54-1.45-1.31-3.54c-.36-1-.93-2.22-1.46-3.51-.28-.63-.56-1.29-.84-2s-.64-1.32-1-2c-1.24-2.68-2.69-5.25-3.75-7.19-.53-1-1.05-1.73-1.37-2.29l-.53-.86c.37-1.48.75-3,1-4.51Z"/><path class="cls-9" d="M141.92,188.77c.6,1.82,1.27,3.63,1.93,5.37A110.43,110.43,0,0,0,137.4,212c-1.11-1.75-2-3.51-3-5.36a111.85,111.85,0,0,1,6.79-17.06C141.42,189.27,141.65,189,141.92,188.77Z"/><polygon class="cls-9" points="350.92 219.75 350.34 217 358.77 215.19 359.4 218.16 350.92 219.75"/><polygon class="cls-9" points="133.59 224.36 133.19 227.14 124.63 226.14 125.06 223.14 133.59 224.36"/><path class="cls-9" d="M352.72,236.27l-.16-2.81,8.61-.5c.05,1,.13,2,.17,3Z"/><polygon class="cls-9" points="352.02 252.89 352.27 250.09 360.86 250.88 360.58 253.9 352.02 252.89"/><path class="cls-9" d="M244.34,437.13a.91.91,0,0,1-.91-.91V277.55a.91.91,0,0,1,1.81,0V436.22A.9.9,0,0,1,244.34,437.13Z"/><path class="cls-9" d="M244.34,209.05a.91.91,0,0,1-.91-.91V49.47a.91.91,0,1,1,1.81,0V208.14A.9.9,0,0,1,244.34,209.05Z"/><path class="cls-9" d="M437.71,243.75H279a.91.91,0,1,1,0-1.81H437.71a.91.91,0,1,1,0,1.81Z"/><path class="cls-9" d="M51,243.75a.91.91,0,1,1,0-1.81H209.63a.91.91,0,1,1,0,1.81Z"/><g class="cls-12"><path class="cls-9" d="M244.34,208.14A34.71,34.71,0,1,0,279,242.85,34.71,34.71,0,0,0,244.34,208.14Zm0,57.29a22.58,22.58,0,1,1,22.57-22.58A22.58,22.58,0,0,1,244.34,265.43Z"/></g><g class="cls-13"><g class="cls-14"><polygon class="cls-9" points="290.29 288.8 401.68 385.21 386.7 400.19 290.29 288.8"/></g><g class="cls-15"><polygon class="cls-9" points="198.39 196.9 87 100.48 101.97 85.51 198.39 196.9"/></g><g class="cls-16"><polygon class="cls-9" points="290.29 196.9 386.7 85.51 401.68 100.48 290.29 196.9"/></g><g class="cls-17"><polygon class="cls-9" points="198.39 288.8 101.97 400.19 87 385.21 198.39 288.8"/></g></g><path class="cls-9" d="M252.44,141.2a8.1,8.1,0,1,1-8.1-8.09A8.1,8.1,0,0,1,252.44,141.2Z"/><path class="cls-9" d="M252.44,103.69a8.1,8.1,0,1,1-8.1-8.1A8.1,8.1,0,0,1,252.44,103.69Z"/><path class="cls-9" d="M252.44,178.72a8.1,8.1,0,1,1-8.1-8.1A8.1,8.1,0,0,1,252.44,178.72Z"/><circle class="cls-9" cx="244.34" cy="344.49" r="8.1"/><path class="cls-9" d="M252.44,307a8.1,8.1,0,1,1-8.1-8.09A8.1,8.1,0,0,1,252.44,307Z"/><path class="cls-9" d="M252.44,382a8.1,8.1,0,1,1-8.1-8.1A8.1,8.1,0,0,1,252.44,382Z"/><path class="cls-9" d="M142.69,234.75a8.1,8.1,0,1,1-8.09,8.1A8.1,8.1,0,0,1,142.69,234.75Z"/><path class="cls-9" d="M105.18,234.75a8.1,8.1,0,1,1-8.1,8.1A8.1,8.1,0,0,1,105.18,234.75Z"/><path class="cls-9" d="M180.21,234.75a8.1,8.1,0,1,1-8.1,8.1A8.1,8.1,0,0,1,180.21,234.75Z"/><path class="cls-9" d="M346,234.75a8.1,8.1,0,1,1-8.1,8.1A8.1,8.1,0,0,1,346,234.75Z"/><path class="cls-9" d="M308.46,234.75a8.1,8.1,0,1,1-8.1,8.1A8.1,8.1,0,0,1,308.46,234.75Z"/><path class="cls-9" d="M383.5,234.75a8.1,8.1,0,1,1-8.1,8.1A8.1,8.1,0,0,1,383.5,234.75Z"/><rect class="cls-9" x="306.82" y="211.23" width="3.29" height="68.77"/><rect class="cls-9" x="344.5" y="217.62" width="2.97" height="55.98"/><rect class="cls-9" x="215.12" y="228.32" width="2.33" height="34.59"/></g></g></svg>