<svg xmlns="http://www.w3.org/2000/svg" xmlns:xlink="http://www.w3.org/1999/xlink" viewBox="0 0 486.71 486.71"><defs><style>.cls-1{fill:url(#New_Gradient_Swatch_7);}.cls-2{fill:url(#New_Gradient_Swatch_7-2);}.cls-3{fill:url(#New_Gradient_Swatch_7-3);}.cls-4{fill:url(#New_Gradient_Swatch_7-4);}.cls-5{fill:url(#New_Gradient_Swatch_7-5);}.cls-6{fill:url(#New_Gradient_Swatch_7-6);}.cls-7{fill:url(#New_Gradient_Swatch_7-7);}.cls-8{fill:url(#New_Gradient_Swatch_7-8);}.cls-9{fill:url(#New_Gradient_Swatch_7-9);}.cls-10{fill:url(#New_Gradient_Swatch_7-10);}.cls-11{fill:url(#New_Gradient_Swatch_7-11);}</style><linearGradient id="New_Gradient_Swatch_7" x1="70.41" y1="243.36" x2="416.3" y2="243.36" gradientUnits="userSpaceOnUse"><stop offset="0" stop-color="#fcdaff"/><stop offset="1" stop-color="#cf52fe"/></linearGradient><linearGradient id="New_Gradient_Swatch_7-2" x1="127.36" y1="243.36" x2="359.36" y2="243.36" xlink:href="#New_Gradient_Swatch_7"/><linearGradient id="New_Gradient_Swatch_7-3" x1="227.96" y1="243.36" x2="258.75" y2="243.36" xlink:href="#New_Gradient_Swatch_7"/><linearGradient id="New_Gradient_Swatch_7-4" x1="241.92" y1="211.82" x2="244.79" y2="211.82" xlink:href="#New_Gradient_Swatch_7"/><linearGradient id="New_Gradient_Swatch_7-5" x1="241.92" y1="274.89" x2="244.79" y2="274.89" xlink:href="#New_Gradient_Swatch_7"/><linearGradient id="New_Gradient_Swatch_7-6" x1="249.7" y1="243.36" x2="324.59" y2="243.36" xlink:href="#New_Gradient_Swatch_7"/><linearGradient id="New_Gradient_Swatch_7-7" x1="162.13" y1="243.36" x2="237.01" y2="243.36" xlink:href="#New_Gradient_Swatch_7"/><linearGradient id="New_Gradient_Swatch_7-8" x1="241.98" y1="48.44" x2="244.86" y2="48.44" xlink:href="#New_Gradient_Swatch_7"/><linearGradient id="New_Gradient_Swatch_7-9" x1="241.85" y1="438.27" x2="244.73" y2="438.27" xlink:href="#New_Gradient_Swatch_7"/><linearGradient id="New_Gradient_Swatch_7-10" x1="389.82" y1="243.36" x2="486.71" y2="243.36" xlink:href="#New_Gradient_Swatch_7"/><linearGradient id="New_Gradient_Swatch_7-11" x1="0" y1="243.36" x2="96.89" y2="243.36" xlink:href="#New_Gradient_Swatch_7"/></defs><title>circle_09_purple</title><g id="Layer_2" data-name="Layer 2"><g id="Layer_1-2" data-name="Layer 1"><path class="cls-1" d="M260.32,409.16l-11-11.05,8.29-8.29a4,4,0,0,0,.56-.69,157.64,157.64,0,0,0,131-131,4.63,4.63,0,0,0,.75-.59l8.29-8.29,11.05,11a4.18,4.18,0,1,0,5.92-5.91l-11.06-11,11.06-11.05a4.18,4.18,0,0,0-5.92-5.91l-11.05,11-8.29-8.3a4.38,4.38,0,0,0-.69-.55,157.63,157.63,0,0,0-131-131,4.63,4.63,0,0,0-.59-.75l-8.29-8.29,11-11a4.18,4.18,0,1,0-5.91-5.91l-11,11-11.05-11a4.18,4.18,0,1,0-5.92,5.91l11.06,11-8.3,8.29a4.08,4.08,0,0,0-.58.75,157.6,157.6,0,0,0-131,131,4,4,0,0,0-.7.55l-8.29,8.3-11-11a4.18,4.18,0,0,0-5.91,5.91l11,11.05-11,11a4.18,4.18,0,1,0,5.91,5.91l11-11,8.29,8.29a4.63,4.63,0,0,0,.75.59,157.63,157.63,0,0,0,131,131,4,4,0,0,0,.55.69l8.3,8.29-11.06,11.05a4.19,4.19,0,0,0,5.92,5.92L243.36,404l11,11.06a4.18,4.18,0,1,0,5.91-5.92Zm-17-26.43A149.51,149.51,0,0,1,104,242.91,149.5,149.5,0,0,1,243.36,104,149.51,149.51,0,0,1,382.7,242.91,149.49,149.49,0,0,1,243.36,382.73Z"/><path class="cls-2" d="M243.36,359.36a116,116,0,1,1,116-116A116.13,116.13,0,0,1,243.36,359.36Zm0-229.13A113.13,113.13,0,1,0,356.48,243.36,113.26,113.26,0,0,0,243.36,130.23Z"/><circle class="cls-3" cx="243.36" cy="243.36" r="15.39"/><path class="cls-4" d="M243.36,239.19a1.44,1.44,0,0,1-1.44-1.44V185.89a1.44,1.44,0,1,1,2.87,0v51.86A1.44,1.44,0,0,1,243.36,239.19Z"/><path class="cls-5" d="M243.36,302.26a1.43,1.43,0,0,1-1.44-1.44V249a1.44,1.44,0,0,1,2.87,0v51.86A1.43,1.43,0,0,1,243.36,302.26Z"/><path class="cls-6" d="M323.15,244.79h-72a1.44,1.44,0,1,1,0-2.87h72a1.44,1.44,0,1,1,0,2.87Z"/><path class="cls-7" d="M235.57,244.79h-72a1.44,1.44,0,0,1,0-2.87h72a1.44,1.44,0,1,1,0,2.87Z"/><path class="cls-8" d="M243.42,96.89A1.44,1.44,0,0,1,242,95.45v-94a1.44,1.44,0,1,1,2.88,0v94A1.43,1.43,0,0,1,243.42,96.89Z"/><path class="cls-9" d="M243.29,486.71a1.44,1.44,0,0,1-1.44-1.43v-94a1.44,1.44,0,0,1,2.88,0v94A1.44,1.44,0,0,1,243.29,486.71Z"/><path class="cls-10" d="M485.28,244.79h-94a1.44,1.44,0,1,1,0-2.87h94a1.44,1.44,0,0,1,0,2.87Z"/><path class="cls-11" d="M95.45,244.79h-94a1.44,1.44,0,1,1,0-2.87h94a1.44,1.44,0,1,1,0,2.87Z"/></g></g></svg>