<svg xmlns="http://www.w3.org/2000/svg" viewBox="0 0 484.06 484.06"><defs><style>.cls-1{fill:#11e5b3;}</style></defs><title>circle_10_green</title><g id="Layer_2" data-name="Layer 2"><g id="Layer_1-2" data-name="Layer 1"><path class="cls-1" d="M127,188.69a126.65,126.65,0,0,1,20.23-30.82l-5.68-5.68a134.27,134.27,0,0,0-22.06,33.54Z"/><path class="cls-1" d="M157.87,147.24A127,127,0,0,1,184.63,129l-3.22-7.4a134.6,134.6,0,0,0-29.22,20Z"/><path class="cls-1" d="M115.49,234.52a126.55,126.55,0,0,1,6-31.85L114,199.72a134.13,134.13,0,0,0-6.53,34.8Z"/><path class="cls-1" d="M123,285.65a126.34,126.34,0,0,1-7.47-36.1h-8a134,134,0,0,0,8.12,39.32Z"/><path class="cls-1" d="M342.51,152.19l-5.68,5.68a127.36,127.36,0,0,1,18.26,26.76l7.41-3.22A134.6,134.6,0,0,0,342.51,152.19Z"/><path class="cls-1" d="M295.38,127a126.65,126.65,0,0,1,30.82,20.23l5.68-5.68a134.32,134.32,0,0,0-33.55-22.06Z"/><path class="cls-1" d="M198.41,123a126.41,126.41,0,0,1,36.11-7.47v-8a134.66,134.66,0,0,0-39.32,8.12Z"/><path class="cls-1" d="M249.55,115.49a126,126,0,0,1,31.84,6l3-7.51a134.56,134.56,0,0,0-34.8-6.54Z"/><path class="cls-1" d="M234.52,368.58a126.11,126.11,0,0,1-31.85-6l-2.95,7.52a134.55,134.55,0,0,0,34.8,6.53Z"/><path class="cls-1" d="M368.58,249.55a126,126,0,0,1-6,31.84l7.52,3a134.55,134.55,0,0,0,6.53-34.8Z"/><path class="cls-1" d="M361.1,198.41a126.42,126.42,0,0,1,7.48,36.11h8a134.34,134.34,0,0,0-8.12-39.32Z"/><path class="cls-1" d="M147.24,326.19A126.77,126.77,0,0,1,129,299.43l-7.4,3.22a134.9,134.9,0,0,0,20,29.23Z"/><path class="cls-1" d="M357.06,295.38a126.92,126.92,0,0,1-20.24,30.81l5.69,5.69a134.32,134.32,0,0,0,22.06-33.55Z"/><path class="cls-1" d="M188.69,357.06a127,127,0,0,1-30.82-20.24l-5.68,5.69a134.27,134.27,0,0,0,33.54,22.06Z"/><path class="cls-1" d="M285.64,361.08a126,126,0,0,1-36.09,7.48v8.05a134.34,134.34,0,0,0,39.32-8.12Z"/><path class="cls-1" d="M326.19,336.82A127.58,127.58,0,0,1,314,346.37v.31h-.44a127.32,127.32,0,0,1-14.18,8.39l3.23,7.43a134.9,134.9,0,0,0,29.23-20Z"/><rect class="cls-1" x="269.71" y="240.71" width="204.69" height="2.64"/><rect class="cls-1" x="3.51" y="240.71" width="204.69" height="2.64"/><path class="cls-1" d="M476.6,249.5a7.47,7.47,0,1,1,7.46-7.47A7.46,7.46,0,0,1,476.6,249.5Z"/><path class="cls-1" d="M7.47,249.5A7.47,7.47,0,1,1,14.93,242,7.46,7.46,0,0,1,7.47,249.5Z"/><rect class="cls-1" x="240.71" y="269.71" width="2.64" height="204.7"/><rect class="cls-1" x="240.71" y="3.51" width="2.64" height="204.7"/><path class="cls-1" d="M234.56,476.6a7.47,7.47,0,1,1,7.47,7.46A7.47,7.47,0,0,1,234.56,476.6Z"/><path class="cls-1" d="M234.56,7.47A7.47,7.47,0,1,1,242,14.93,7.47,7.47,0,0,1,234.56,7.47Z"/><path class="cls-1" d="M242,257.85A15.82,15.82,0,1,1,257.85,242,15.83,15.83,0,0,1,242,257.85Zm0-29A13.18,13.18,0,1,0,255.21,242,13.2,13.2,0,0,0,242,228.85Z"/></g></g></svg>