<svg xmlns="http://www.w3.org/2000/svg" viewBox="0 0 484.44 484.44"><defs><style>.cls-1{fill:#00d0ff;}</style></defs><title>circle_punktir_blue</title><g id="Layer_2" data-name="Layer 2"><g id="Layer_1-2" data-name="Layer 1"><path class="cls-1" d="M35.19,146.2A228.63,228.63,0,0,1,71.61,90.74L61.38,80.51a242,242,0,0,0-39.71,60.37Z"/><path class="cls-1" d="M90.74,71.61a228.2,228.2,0,0,1,48.17-32.88l-5.8-13.33a242.66,242.66,0,0,0-52.6,36Z"/><path class="cls-1" d="M14.46,228.69a227.12,227.12,0,0,1,10.82-57.31l-13.52-5.32A242.41,242.41,0,0,0,0,228.69Z"/><path class="cls-1" d="M27.91,320.73a227.34,227.34,0,0,1-13.45-65H0a242.15,242.15,0,0,0,14.61,70.76Z"/><path class="cls-1" d="M423.06,80.51,412.83,90.74a228.2,228.2,0,0,1,32.88,48.17l13.33-5.8A242.66,242.66,0,0,0,423.06,80.51Z"/><path class="cls-1" d="M338.24,35.19A228.63,228.63,0,0,1,393.7,71.61l10.23-10.23a242,242,0,0,0-60.37-39.71Z"/><path class="cls-1" d="M163.71,27.91a227.34,227.34,0,0,1,65-13.45V0a242.15,242.15,0,0,0-70.76,14.61Z"/><path class="cls-1" d="M255.75,14.46a227.12,227.12,0,0,1,57.31,10.82l5.32-13.52A242.41,242.41,0,0,0,255.75,0Z"/><path class="cls-1" d="M228.69,470a227.12,227.12,0,0,1-57.31-10.82l-5.32,13.52a242.41,242.41,0,0,0,62.63,11.76Z"/><path class="cls-1" d="M470,255.75a227.12,227.12,0,0,1-10.82,57.31l13.52,5.32a242.41,242.41,0,0,0,11.76-62.63Z"/><path class="cls-1" d="M456.52,163.71a227,227,0,0,1,13.46,65h14.46a241.84,241.84,0,0,0-14.62-70.76Z"/><path class="cls-1" d="M71.61,393.7a228.2,228.2,0,0,1-32.88-48.17l-13.33,5.8a242.66,242.66,0,0,0,36,52.6Z"/><path class="cls-1" d="M449.25,338.24a228.63,228.63,0,0,1-36.42,55.46l10.23,10.23a242,242,0,0,0,39.71-60.37Z"/><path class="cls-1" d="M146.2,449.25a228.63,228.63,0,0,1-55.46-36.42L80.51,423.06a242,242,0,0,0,60.37,39.71Z"/><path class="cls-1" d="M320.71,456.49a226.81,226.81,0,0,1-65,13.46v14.49a241.84,241.84,0,0,0,70.76-14.62Z"/><path class="cls-1" d="M393.69,412.83A227.34,227.34,0,0,1,371.82,430v.56H371a228.79,228.79,0,0,1-25.52,15.1L351.33,459a242.66,242.66,0,0,0,52.6-36Z"/></g></g></svg>