<svg xmlns="http://www.w3.org/2000/svg" xmlns:xlink="http://www.w3.org/1999/xlink" viewBox="0 0 492.8 493.09"><defs><style>.cls-1{fill:url(#New_Gradient_Swatch_7);}.cls-2{fill:url(#New_Gradient_Swatch_7-2);}.cls-3{fill:url(#New_Gradient_Swatch_7-3);}.cls-4{fill:url(#New_Gradient_Swatch_7-4);}.cls-5{fill:url(#New_Gradient_Swatch_7-5);}.cls-6{fill:url(#New_Gradient_Swatch_7-6);}.cls-7{fill:url(#New_Gradient_Swatch_7-7);}</style><linearGradient id="New_Gradient_Swatch_7" x1="111.68" y1="246.76" x2="381.36" y2="246.76" gradientUnits="userSpaceOnUse"><stop offset="0" stop-color="#fcdaff"/><stop offset="1" stop-color="#cf52fe"/></linearGradient><linearGradient id="New_Gradient_Swatch_7-2" x1="91.62" y1="218.67" x2="345.15" y2="218.67" xlink:href="#New_Gradient_Swatch_7"/><linearGradient id="New_Gradient_Swatch_7-3" x1="154.76" y1="283.48" x2="401.4" y2="283.48" xlink:href="#New_Gradient_Swatch_7"/><linearGradient id="New_Gradient_Swatch_7-4" x1="236.74" y1="49.98" x2="256.32" y2="49.98" xlink:href="#New_Gradient_Swatch_7"/><linearGradient id="New_Gradient_Swatch_7-5" x1="236.73" y1="443.13" x2="256.31" y2="443.13" xlink:href="#New_Gradient_Swatch_7"/><linearGradient id="New_Gradient_Swatch_7-6" x1="393.13" y1="246.57" x2="492.8" y2="246.57" xlink:href="#New_Gradient_Swatch_7"/><linearGradient id="New_Gradient_Swatch_7-7" x1="0" y1="246.56" x2="99.92" y2="246.56" xlink:href="#New_Gradient_Swatch_7"/></defs><title>circle_size_selected</title><g id="Layer_2" data-name="Layer 2"><g id="Layer_1-2" data-name="Layer 1"><g id="Layer_2-2" data-name="Layer 2"><g id="Layer_1-2-2" data-name="Layer 1-2"><path class="cls-1" d="M246.52,381.6c-74.35,0-134.84-60.49-134.84-134.84s60.49-134.84,134.84-134.84,134.84,60.49,134.84,134.84S320.87,381.6,246.52,381.6Zm0-266.43A131.59,131.59,0,1,0,378.11,246.76,131.72,131.72,0,0,0,246.52,115.17Z"/><path class="cls-2" d="M229.31,114.69V109.2a139.5,139.5,0,0,1,34.65,0v5.5a132.74,132.74,0,0,1,72,33.4l9.15-9.15c-3-2.73-6.08-5.32-9.28-7.8l6.75-5.73a154.67,154.67,0,0,0-217.3,25q-4.29,5.38-8.07,11.14l7.72,4.06a147.47,147.47,0,0,0-12.51,22.79l-7.69-4a154.7,154.7,0,0,0,6.31,137.52l6.77-5.74a147.43,147.43,0,0,0,20.83,29.3l9.15-9.15a133.2,133.2,0,0,1,81.45-221.58Z"/><path class="cls-3" d="M390.09,304.82a154.66,154.66,0,0,0-5.56-128.3l-6.81,5.78a145.33,145.33,0,0,0-9.86-17l-9.36,9.36A133.15,133.15,0,0,1,264,378.8v5.49a139.5,139.5,0,0,1-34.65,0V378.8a132.46,132.46,0,0,1-54.95-20.06l-3.9,3.9c-1-.65-2-1.31-3-2l-12.74,10.8a154.69,154.69,0,0,0,216.31-32.63q3.85-5.24,7.26-10.77l-7.7-4a146.3,146.3,0,0,0,11.75-23.19Z"/><path class="cls-4" d="M244.9,98.46l-8.12-87.73a9.79,9.79,0,1,1,19.49,0l-8.12,87.73a1.63,1.63,0,0,1-3.25,0Z"/><path class="cls-5" d="M248.15,394.67l8.12,87.72a9.79,9.79,0,0,1-19.5,1.81h0a10.94,10.94,0,0,1,0-1.81l8.13-87.72a1.63,1.63,0,0,1,3.25,0Z"/><path class="cls-6" d="M394.63,244.94l87.72-8.12a9.79,9.79,0,0,1,1.81,19.49,10.94,10.94,0,0,1-1.81,0l-87.72-8.12a1.63,1.63,0,0,1,0-3.25Z"/><path class="cls-7" d="M98.42,248.19l-87.73,8.12a9.79,9.79,0,0,1-1.8-19.5h0a10.82,10.82,0,0,1,1.8,0l87.73,8.13a1.63,1.63,0,0,1,0,3.25Z"/></g></g></g></g></svg>