<svg xmlns="http://www.w3.org/2000/svg" xmlns:xlink="http://www.w3.org/1999/xlink" viewBox="0 0 493.05 493.05"><defs><style>.cls-1{fill:url(#New_Gradient_Swatch_7);}.cls-2{fill:url(#New_Gradient_Swatch_7-2);}.cls-3{fill:url(#New_Gradient_Swatch_7-3);}.cls-4{fill:url(#New_Gradient_Swatch_7-4);}.cls-5{fill:url(#New_Gradient_Swatch_7-5);}.cls-6{fill:url(#New_Gradient_Swatch_7-6);}.cls-7{fill:url(#New_Gradient_Swatch_7-7);}.cls-8{fill:url(#New_Gradient_Swatch_7-8);}.cls-9{fill:url(#New_Gradient_Swatch_7-9);}.cls-10{fill:url(#New_Gradient_Swatch_7-10);}.cls-11{fill:url(#New_Gradient_Swatch_7-11);}</style><linearGradient id="New_Gradient_Swatch_7" x1="111.68" y1="246.72" x2="381.36" y2="246.72" gradientUnits="userSpaceOnUse"><stop offset="0" stop-color="#fcdaff"/><stop offset="1" stop-color="#cf52fe"/></linearGradient><linearGradient id="New_Gradient_Swatch_7-2" x1="228.25" y1="246.72" x2="264.8" y2="246.72" xlink:href="#New_Gradient_Swatch_7"/><linearGradient id="New_Gradient_Swatch_7-3" x1="183.3" y1="246.72" x2="309.74" y2="246.72" xlink:href="#New_Gradient_Swatch_7"/><linearGradient id="New_Gradient_Swatch_7-4" x1="166.11" y1="246.72" x2="326.94" y2="246.72" xlink:href="#New_Gradient_Swatch_7"/><linearGradient id="New_Gradient_Swatch_7-5" x1="244.9" y1="246.72" x2="248.15" y2="246.72" xlink:href="#New_Gradient_Swatch_7"/><linearGradient id="New_Gradient_Swatch_7-6" x1="91.65" y1="218.61" x2="345.18" y2="218.61" xlink:href="#New_Gradient_Swatch_7"/><linearGradient id="New_Gradient_Swatch_7-7" x1="154.77" y1="283.42" x2="401.4" y2="283.42" xlink:href="#New_Gradient_Swatch_7"/><linearGradient id="New_Gradient_Swatch_7-8" x1="236.73" y1="49.95" x2="256.31" y2="49.95" xlink:href="#New_Gradient_Swatch_7"/><linearGradient id="New_Gradient_Swatch_7-9" x1="236.73" y1="443.1" x2="256.31" y2="443.1" xlink:href="#New_Gradient_Swatch_7"/><linearGradient id="New_Gradient_Swatch_7-10" x1="393.15" y1="246.52" x2="493.05" y2="246.52" xlink:href="#New_Gradient_Swatch_7"/><linearGradient id="New_Gradient_Swatch_7-11" x1="0" y1="246.52" x2="99.9" y2="246.52" xlink:href="#New_Gradient_Swatch_7"/></defs><title>circle_05_purple</title><g id="Layer_2" data-name="Layer 2"><g id="Layer_1-2" data-name="Layer 1"><path class="cls-1" d="M246.52,381.56c-74.35,0-134.84-60.49-134.84-134.84s60.49-134.84,134.84-134.84,134.84,60.49,134.84,134.84S320.87,381.56,246.52,381.56Zm0-266.43c-72.56,0-131.59,59-131.59,131.59s59,131.59,131.59,131.59,131.59-59,131.59-131.59S319.08,115.13,246.52,115.13Z"/><circle class="cls-2" cx="246.52" cy="246.72" r="18.28"/><path class="cls-3" d="M246.52,310a63.23,63.23,0,1,1,63.22-63.23A63.3,63.3,0,0,1,246.52,310Zm0-123.2a60,60,0,1,0,60,60A60,60,0,0,0,246.52,186.75Z"/><path class="cls-4" d="M325.31,248.35H167.73a1.63,1.63,0,0,1,0-3.25H325.31a1.63,1.63,0,1,1,0,3.25Z"/><path class="cls-5" d="M246.52,327.14a1.63,1.63,0,0,1-1.62-1.63V167.93a1.63,1.63,0,0,1,3.25,0V325.51A1.63,1.63,0,0,1,246.52,327.14Z"/><path class="cls-6" d="M229.31,114.65v-5.49a139.5,139.5,0,0,1,34.65,0v5.5A132.76,132.76,0,0,1,336,148.06l9.15-9.15c-3-2.73-6.08-5.32-9.28-7.8l6.75-5.73a154.67,154.67,0,0,0-225.37,36.11l7.72,4.06a146.76,146.76,0,0,0-12.51,22.79l-7.69-4a154.68,154.68,0,0,0,6.31,137.52l6.77-5.74a147.15,147.15,0,0,0,20.83,29.3l9.15-9.15a133.2,133.2,0,0,1,81.45-221.58Z"/><path class="cls-7" d="M390.09,304.78a154.67,154.67,0,0,0-5.56-128.3l-6.81,5.78a145.74,145.74,0,0,0-9.86-17l-9.36,9.36A133.15,133.15,0,0,1,264,378.76v5.49a138.87,138.87,0,0,1-34.65,0v-5.49A132.41,132.41,0,0,1,174.4,358.7l-3.9,3.9c-1-.65-2-1.31-3-2l-12.74,10.8A154.68,154.68,0,0,0,378.33,328l-7.7-4a146.25,146.25,0,0,0,11.75-23.19Z"/><path class="cls-8" d="M244.9,98.42l-8.12-87.73a9.79,9.79,0,1,1,19.49,0l-8.12,87.73a1.63,1.63,0,0,1-3.25,0Z"/><path class="cls-9" d="M248.15,394.63l8.12,87.72a9.79,9.79,0,0,1-19.5,1.81,10.94,10.94,0,0,1,0-1.81l8.13-87.72a1.63,1.63,0,0,1,3.25,0Z"/><path class="cls-10" d="M394.63,244.9l87.72-8.12a9.79,9.79,0,0,1,1.81,19.49,10,10,0,0,1-1.81,0l-87.72-8.12a1.63,1.63,0,0,1,0-3.25Z"/><path class="cls-11" d="M98.42,248.15l-87.73,8.12a9.79,9.79,0,0,1-1.8-19.5,12,12,0,0,1,1.8,0l87.73,8.13a1.63,1.63,0,0,1,0,3.25Z"/></g></g></svg>