<svg xmlns="http://www.w3.org/2000/svg" viewBox="0 0 493.64 493.59"><defs><style>.cls-1{fill:#00d0ff;}</style></defs><title>circle_number_blue_inner</title><g id="Layer_2" data-name="Layer 2"><g id="Layer_1-2" data-name="Layer 1"><path class="cls-1" d="M468.94,246.84a220.56,220.56,0,0,0-2.78-34.71h27.48a249.79,249.79,0,0,0-212-212V27.48a218.38,218.38,0,0,0-69.5,0V0A249.75,249.75,0,0,0,.05,212H27.48a222,222,0,0,0,0,69.51H0a249.75,249.75,0,0,0,212,212V466.11a222,222,0,0,0,69.51,0v27.48a249.74,249.74,0,0,0,212-212H466.11A220.52,220.52,0,0,0,468.94,246.84Zm-426,0C43,134.24,134.24,43,246.84,43s203.89,91.28,203.89,203.88S359.44,450.73,246.84,450.73h0C134.29,450.6,43.08,359.39,43,246.84Z"/></g></g></svg>