<svg xmlns="http://www.w3.org/2000/svg" xmlns:xlink="http://www.w3.org/1999/xlink" viewBox="0 0 495.52 495.52"><defs><style>.cls-1{mask:url(#mask);filter:url(#luminosity-noclip-6);}.cls-10,.cls-2,.cls-4,.cls-6,.cls-8{mix-blend-mode:multiply;}.cls-2{fill:url(#Безымянный_градиент_2);}.cls-3{mask:url(#mask-2);filter:url(#luminosity-noclip-7);}.cls-4{fill:url(#linear-gradient);}.cls-5{mask:url(#mask-3);filter:url(#luminosity-noclip-8);}.cls-6{fill:url(#linear-gradient-2);}.cls-7{mask:url(#mask-4);filter:url(#luminosity-noclip-9);}.cls-8{fill:url(#linear-gradient-3);}.cls-9{mask:url(#mask-5);filter:url(#luminosity-noclip-10);}.cls-10{fill:url(#linear-gradient-4);}.cls-11{opacity:0.5;}.cls-12{mask:url(#mask-6);}.cls-13{fill:url(#New_Gradient_Swatch_7);}.cls-14{opacity:0.45;fill:url(#New_Gradient_Swatch_7-2);}.cls-15{fill:url(#New_Gradient_Swatch_7-3);}.cls-16{fill:url(#New_Gradient_Swatch_7-4);}.cls-17{fill:url(#New_Gradient_Swatch_7-5);}.cls-18{fill:url(#New_Gradient_Swatch_7-6);}.cls-19{fill:url(#New_Gradient_Swatch_7-7);}.cls-20{fill:url(#New_Gradient_Swatch_7-8);}.cls-21{fill:url(#New_Gradient_Swatch_7-9);}.cls-22{fill:url(#New_Gradient_Swatch_7-10);}.cls-23{fill:url(#New_Gradient_Swatch_7-11);}.cls-24{fill:url(#New_Gradient_Swatch_7-12);}.cls-25{fill:url(#New_Gradient_Swatch_7-13);}.cls-26{fill:url(#New_Gradient_Swatch_7-14);}.cls-27{fill:url(#New_Gradient_Swatch_7-15);}.cls-28{fill:url(#New_Gradient_Swatch_7-16);}.cls-29{fill:url(#New_Gradient_Swatch_7-17);}.cls-30{fill:url(#New_Gradient_Swatch_7-18);}.cls-31{fill:url(#New_Gradient_Swatch_7-19);}.cls-32{fill:url(#New_Gradient_Swatch_7-20);}.cls-33{fill:url(#New_Gradient_Swatch_7-21);}.cls-34{fill:url(#New_Gradient_Swatch_7-22);}.cls-35{fill:url(#New_Gradient_Swatch_7-23);}.cls-36{fill:url(#New_Gradient_Swatch_7-24);}.cls-37{fill:url(#New_Gradient_Swatch_7-25);}.cls-38{fill:url(#New_Gradient_Swatch_7-26);}.cls-39{fill:url(#New_Gradient_Swatch_7-27);}.cls-40{fill:url(#New_Gradient_Swatch_7-28);}.cls-41{fill:url(#New_Gradient_Swatch_7-29);}.cls-42{fill:url(#New_Gradient_Swatch_7-30);}.cls-43{fill:url(#New_Gradient_Swatch_7-31);}.cls-44{fill:url(#New_Gradient_Swatch_7-32);}.cls-45{fill:url(#New_Gradient_Swatch_7-33);}.cls-46{fill:url(#New_Gradient_Swatch_7-34);}.cls-47{fill:url(#New_Gradient_Swatch_7-35);}.cls-48{fill:url(#New_Gradient_Swatch_7-36);}.cls-49{fill:url(#New_Gradient_Swatch_7-37);}.cls-50{fill:url(#New_Gradient_Swatch_7-38);}.cls-51,.cls-52,.cls-53,.cls-54{opacity:0.2;}.cls-51{fill:url(#New_Gradient_Swatch_7-39);}.cls-52{fill:url(#New_Gradient_Swatch_7-40);}.cls-53{fill:url(#New_Gradient_Swatch_7-41);}.cls-54{fill:url(#New_Gradient_Swatch_7-42);}.cls-55{fill:url(#New_Gradient_Swatch_7-43);}.cls-56{fill:url(#New_Gradient_Swatch_7-44);}.cls-57{fill:url(#New_Gradient_Swatch_7-45);}.cls-58{fill:url(#New_Gradient_Swatch_7-46);}.cls-59{fill:url(#New_Gradient_Swatch_7-47);}.cls-60{fill:url(#New_Gradient_Swatch_7-48);}.cls-61{fill:url(#New_Gradient_Swatch_7-49);}.cls-62{fill:url(#New_Gradient_Swatch_7-50);}.cls-63{fill:url(#New_Gradient_Swatch_7-51);}.cls-64{mask:url(#mask-7);}.cls-65{fill:url(#New_Gradient_Swatch_7-52);}.cls-66{mask:url(#mask-8);}.cls-67{fill:url(#New_Gradient_Swatch_7-53);}.cls-68{mask:url(#mask-9);}.cls-69{fill:url(#New_Gradient_Swatch_7-54);}.cls-70{mask:url(#mask-10);}.cls-71{fill:url(#New_Gradient_Swatch_7-55);}.cls-72{filter:url(#luminosity-noclip-5);}.cls-73{filter:url(#luminosity-noclip-4);}.cls-74{filter:url(#luminosity-noclip-3);}.cls-75{filter:url(#luminosity-noclip-2);}.cls-76{filter:url(#luminosity-noclip);}</style><filter id="luminosity-noclip" x="86.38" y="-8439.11" width="322.76" height="32766" filterUnits="userSpaceOnUse" color-interpolation-filters="sRGB"><feFlood flood-color="#fff" result="bg"/><feBlend in="SourceGraphic" in2="bg"/></filter><mask id="mask" x="86.38" y="-8439.11" width="322.76" height="32766" maskUnits="userSpaceOnUse"><g class="cls-76"/></mask><radialGradient id="Безымянный_градиент_2" cx="230.37" cy="346.24" r="182.89" gradientTransform="translate(44.48 -57.5) scale(0.88)" gradientUnits="userSpaceOnUse"><stop offset="0.59" stop-color="#fff"/><stop offset="0.81" stop-color="gray"/><stop offset="0.9" stop-color="#4d4d4d"/><stop offset="1"/></radialGradient><filter id="luminosity-noclip-2" x="269.9" y="-8439.11" width="63.02" height="32766" filterUnits="userSpaceOnUse" color-interpolation-filters="sRGB"><feFlood flood-color="#fff" result="bg"/><feBlend in="SourceGraphic" in2="bg"/></filter><mask id="mask-2" x="269.9" y="-8439.11" width="63.02" height="32766" maskUnits="userSpaceOnUse"><g class="cls-75"/></mask><linearGradient id="linear-gradient" x1="269.9" y1="292.51" x2="332.92" y2="292.51" gradientUnits="userSpaceOnUse"><stop offset="0" stop-color="#fff"/><stop offset="0.02" stop-color="#f2f2f2"/><stop offset="0.14" stop-color="#bababa"/><stop offset="0.25" stop-color="#888"/><stop offset="0.37" stop-color="#5e5e5e"/><stop offset="0.49" stop-color="#3c3c3c"/><stop offset="0.61" stop-color="#222"/><stop offset="0.74" stop-color="#0f0f0f"/><stop offset="0.86" stop-color="#040404"/><stop offset="1"/></linearGradient><filter id="luminosity-noclip-3" x="269.9" y="-8439.11" width="63.19" height="32766" filterUnits="userSpaceOnUse" color-interpolation-filters="sRGB"><feFlood flood-color="#fff" result="bg"/><feBlend in="SourceGraphic" in2="bg"/></filter><mask id="mask-3" x="269.9" y="-8439.11" width="63.19" height="32766" maskUnits="userSpaceOnUse"><g class="cls-74"/></mask><linearGradient id="linear-gradient-2" x1="269.9" y1="204.09" x2="333.08" y2="204.09" xlink:href="#linear-gradient"/><filter id="luminosity-noclip-4" x="162.43" y="-8439.11" width="63.56" height="32766" filterUnits="userSpaceOnUse" color-interpolation-filters="sRGB"><feFlood flood-color="#fff" result="bg"/><feBlend in="SourceGraphic" in2="bg"/></filter><mask id="mask-4" x="162.43" y="-8439.11" width="63.56" height="32766" maskUnits="userSpaceOnUse"><g class="cls-73"/></mask><linearGradient id="linear-gradient-3" x1="194.22" y1="165.1" x2="194.22" y2="242.98" xlink:href="#linear-gradient"/><filter id="luminosity-noclip-5" x="162.6" y="-8439.11" width="63.4" height="32766" filterUnits="userSpaceOnUse" color-interpolation-filters="sRGB"><feFlood flood-color="#fff" result="bg"/><feBlend in="SourceGraphic" in2="bg"/></filter><mask id="mask-5" x="162.6" y="-8439.11" width="63.4" height="32766" maskUnits="userSpaceOnUse"><g class="cls-72"/></mask><linearGradient id="linear-gradient-4" x1="194.3" y1="330.42" x2="194.3" y2="254.71" xlink:href="#linear-gradient"/><filter id="luminosity-noclip-6" x="86.38" y="86.64" width="322.76" height="322.76" filterUnits="userSpaceOnUse" color-interpolation-filters="sRGB"><feFlood flood-color="#fff" result="bg"/><feBlend in="SourceGraphic" in2="bg"/></filter><mask id="mask-6" x="86.38" y="86.64" width="322.76" height="322.76" maskUnits="userSpaceOnUse"><g class="cls-1"><path class="cls-2" d="M174.71,104.16A161.34,161.34,0,1,0,391.62,175,161.34,161.34,0,0,0,174.71,104.16ZM296.19,343.39a107,107,0,1,1,46.95-143.81A107,107,0,0,1,296.19,343.39Z"/></g></mask><linearGradient id="New_Gradient_Swatch_7" x1="86.38" y1="248.02" x2="409.14" y2="248.02" gradientUnits="userSpaceOnUse"><stop offset="0" stop-color="#fcdaff"/><stop offset="1" stop-color="#cf52fe"/></linearGradient><linearGradient id="New_Gradient_Swatch_7-2" x1="189.9" y1="248.02" x2="305.62" y2="248.02" gradientTransform="translate(293.18 -99.59) rotate(52.41)" xlink:href="#New_Gradient_Swatch_7"/><linearGradient id="New_Gradient_Swatch_7-3" x1="246.21" y1="248.02" x2="249.31" y2="248.02" gradientTransform="translate(495.12 -0.39) rotate(89.85)" xlink:href="#New_Gradient_Swatch_7"/><linearGradient id="New_Gradient_Swatch_7-4" x1="56.59" y1="248.02" x2="438.93" y2="248.02" gradientTransform="translate(495.12 -0.39) rotate(89.85)" xlink:href="#New_Gradient_Swatch_7"/><linearGradient id="New_Gradient_Swatch_7-5" x1="259.55" y1="202.99" x2="261.81" y2="202.99" gradientTransform="translate(462.98 -58.22) rotate(89.85)" xlink:href="#New_Gradient_Swatch_7"/><linearGradient id="New_Gradient_Swatch_7-6" x1="260.59" y1="235.33" x2="325.11" y2="235.33" gradientTransform="translate(527.41 -58.14) rotate(89.85)" xlink:href="#New_Gradient_Swatch_7"/><linearGradient id="New_Gradient_Swatch_7-7" x1="234.26" y1="203.24" x2="236.53" y2="203.24" gradientTransform="translate(438.05 -32.66) rotate(89.86)" xlink:href="#New_Gradient_Swatch_7"/><linearGradient id="New_Gradient_Swatch_7-8" x1="170.79" y1="235.42" x2="235.31" y2="235.42" gradientTransform="translate(437.93 31.75) rotate(89.85)" xlink:href="#New_Gradient_Swatch_7"/><linearGradient id="New_Gradient_Swatch_7-9" x1="259.31" y1="292.34" x2="261.58" y2="292.34" gradientTransform="translate(552.13 31.17) rotate(89.86)" xlink:href="#New_Gradient_Swatch_7"/><linearGradient id="New_Gradient_Swatch_7-10" x1="260.53" y1="260.17" x2="325.05" y2="260.17" gradientTransform="translate(552.18 -33.3) rotate(89.85)" xlink:href="#New_Gradient_Swatch_7"/><linearGradient id="New_Gradient_Swatch_7-11" x1="234.03" y1="291.96" x2="236.3" y2="291.96" gradientTransform="translate(526.5 56.03) rotate(89.85)" xlink:href="#New_Gradient_Swatch_7"/><linearGradient id="New_Gradient_Swatch_7-12" x1="170.73" y1="259.61" x2="235.25" y2="259.61" gradientTransform="translate(462.07 55.94) rotate(89.85)" xlink:href="#New_Gradient_Swatch_7"/><linearGradient id="New_Gradient_Swatch_7-13" x1="166.5" y1="104.16" x2="182.91" y2="104.16" gradientTransform="translate(66.09 -67.81) rotate(26.92)" xlink:href="#New_Gradient_Swatch_7"/><linearGradient id="New_Gradient_Swatch_7-14" x1="312.61" y1="391.87" x2="329.01" y2="391.87" gradientTransform="translate(212.2 -102.79) rotate(26.92)" xlink:href="#New_Gradient_Swatch_7"/><linearGradient id="New_Gradient_Swatch_7-15" x1="78.79" y1="197.95" x2="109.97" y2="197.95" gradientTransform="translate(253.27 46.8) rotate(71.92)" xlink:href="#New_Gradient_Swatch_7"/><linearGradient id="New_Gradient_Swatch_7-16" x1="385.55" y1="298.08" x2="416.72" y2="298.08" gradientTransform="translate(560.03 -175.75) rotate(71.92)" xlink:href="#New_Gradient_Swatch_7"/><linearGradient id="New_Gradient_Swatch_7-17" x1="89.11" y1="321.07" x2="118.69" y2="321.07" gradientTransform="translate(156.55 -12.26) rotate(26.91)" xlink:href="#New_Gradient_Swatch_7"/><linearGradient id="New_Gradient_Swatch_7-18" x1="376.83" y1="174.96" x2="406.41" y2="174.96" gradientTransform="translate(121.62 -158.32) rotate(26.91)" xlink:href="#New_Gradient_Swatch_7"/><linearGradient id="New_Gradient_Swatch_7-19" x1="191.71" y1="401.39" x2="203.67" y2="401.39" gradientTransform="translate(517.86 88.84) rotate(71.91)" xlink:href="#New_Gradient_Swatch_7"/><linearGradient id="New_Gradient_Swatch_7-20" x1="291.85" y1="94.64" x2="303.81" y2="94.64" gradientTransform="translate(295.29 -217.85) rotate(71.91)" xlink:href="#New_Gradient_Swatch_7"/><linearGradient id="New_Gradient_Swatch_7-21" x1="160.43" y1="180.52" x2="177.47" y2="180.52" gradientTransform="matrix(0.65, 0.76, -0.76, 0.65, 196.16, -65.23)" xlink:href="#New_Gradient_Swatch_7"/><linearGradient id="New_Gradient_Swatch_7-22" x1="318.05" y1="315.51" x2="335.09" y2="315.51" gradientTransform="translate(353.76 -137.76) rotate(49.42)" xlink:href="#New_Gradient_Swatch_7"/><linearGradient id="New_Gradient_Swatch_7-23" x1="133.93" y1="256.02" x2="154.68" y2="256.02" gradientTransform="translate(20.26 -10.41) rotate(4.44)" xlink:href="#New_Gradient_Swatch_7"/><linearGradient id="New_Gradient_Swatch_7-24" x1="340.84" y1="240.02" x2="361.59" y2="240.02" gradientTransform="translate(19.61 -26.43) rotate(4.43)" xlink:href="#New_Gradient_Swatch_7"/><linearGradient id="New_Gradient_Swatch_7-25" x1="172.75" y1="326.83" x2="187.77" y2="326.83" gradientTransform="translate(311.16 -22.71) rotate(49.41)" xlink:href="#New_Gradient_Swatch_7"/><linearGradient id="New_Gradient_Swatch_7-26" x1="307.74" y1="169.21" x2="322.77" y2="169.21" gradientTransform="translate(238.69 -180.3) rotate(49.42)" xlink:href="#New_Gradient_Swatch_7"/><linearGradient id="New_Gradient_Swatch_7-27" x1="253.92" y1="351.47" x2="257.6" y2="351.47" gradientTransform="translate(27.85 -18.67) rotate(4.42)" xlink:href="#New_Gradient_Swatch_7"/><linearGradient id="New_Gradient_Swatch_7-28" x1="237.92" y1="144.56" x2="241.6" y2="144.56" gradientTransform="translate(11.86 -18.05) rotate(4.42)" xlink:href="#New_Gradient_Swatch_7"/><linearGradient id="New_Gradient_Swatch_7-29" x1="254.46" y1="247.76" x2="259.74" y2="247.76" xlink:href="#New_Gradient_Swatch_7"/><linearGradient id="New_Gradient_Swatch_7-30" x1="235.77" y1="247.76" x2="241.06" y2="247.76" xlink:href="#New_Gradient_Swatch_7"/><linearGradient id="New_Gradient_Swatch_7-31" x1="254.46" y1="43.67" x2="259.74" y2="43.67" xlink:href="#New_Gradient_Swatch_7"/><linearGradient id="New_Gradient_Swatch_7-32" x1="235.77" y1="43.67" x2="241.06" y2="43.67" xlink:href="#New_Gradient_Swatch_7"/><linearGradient id="New_Gradient_Swatch_7-33" x1="254.46" y1="451.85" x2="259.74" y2="451.85" xlink:href="#New_Gradient_Swatch_7"/><linearGradient id="New_Gradient_Swatch_7-34" x1="235.77" y1="451.85" x2="241.06" y2="451.85" xlink:href="#New_Gradient_Swatch_7"/><linearGradient id="New_Gradient_Swatch_7-35" x1="444.02" y1="257.1" x2="459.67" y2="257.1" xlink:href="#New_Gradient_Swatch_7"/><linearGradient id="New_Gradient_Swatch_7-36" x1="444.02" y1="238.42" x2="459.67" y2="238.42" xlink:href="#New_Gradient_Swatch_7"/><linearGradient id="New_Gradient_Swatch_7-37" x1="35.85" y1="257.1" x2="51.5" y2="257.1" xlink:href="#New_Gradient_Swatch_7"/><linearGradient id="New_Gradient_Swatch_7-38" x1="35.85" y1="238.42" x2="51.5" y2="238.42" xlink:href="#New_Gradient_Swatch_7"/><linearGradient id="New_Gradient_Swatch_7-39" x1="272.56" y1="179.82" x2="380.5" y2="179.82" xlink:href="#New_Gradient_Swatch_7"/><linearGradient id="New_Gradient_Swatch_7-40" x1="115.02" y1="179.78" x2="223.38" y2="179.78" xlink:href="#New_Gradient_Swatch_7"/><linearGradient id="New_Gradient_Swatch_7-41" x1="115.13" y1="316.95" x2="223.38" y2="316.95" xlink:href="#New_Gradient_Swatch_7"/><linearGradient id="New_Gradient_Swatch_7-42" x1="272.56" y1="316.92" x2="380.39" y2="316.92" xlink:href="#New_Gradient_Swatch_7"/><linearGradient id="New_Gradient_Swatch_7-43" x1="234.68" y1="247.76" x2="260.84" y2="247.76" xlink:href="#New_Gradient_Swatch_7"/><linearGradient id="New_Gradient_Swatch_7-44" x1="0" y1="247.76" x2="205.34" y2="247.76" xlink:href="#New_Gradient_Swatch_7"/><linearGradient id="New_Gradient_Swatch_7-45" x1="290.17" y1="247.76" x2="495.52" y2="247.76" xlink:href="#New_Gradient_Swatch_7"/><linearGradient id="New_Gradient_Swatch_7-46" x1="0" y1="247.76" x2="205.34" y2="247.76" xlink:href="#New_Gradient_Swatch_7"/><linearGradient id="New_Gradient_Swatch_7-47" x1="290.17" y1="247.76" x2="495.52" y2="247.76" xlink:href="#New_Gradient_Swatch_7"/><linearGradient id="New_Gradient_Swatch_7-48" x1="245.89" y1="102.67" x2="249.63" y2="102.67" xlink:href="#New_Gradient_Swatch_7"/><linearGradient id="New_Gradient_Swatch_7-49" x1="245.89" y1="392.85" x2="249.63" y2="392.85" xlink:href="#New_Gradient_Swatch_7"/><linearGradient id="New_Gradient_Swatch_7-50" x1="196.9" y1="247.76" x2="298.62" y2="247.76" xlink:href="#New_Gradient_Swatch_7"/><linearGradient id="New_Gradient_Swatch_7-51" x1="79.88" y1="247.76" x2="415.64" y2="247.76" xlink:href="#New_Gradient_Swatch_7"/><filter id="luminosity-noclip-7" x="269.9" y="254.71" width="63.02" height="75.61" filterUnits="userSpaceOnUse" color-interpolation-filters="sRGB"><feFlood flood-color="#fff" result="bg"/><feBlend in="SourceGraphic" in2="bg"/></filter><mask id="mask-7" x="269.9" y="254.71" width="63.02" height="75.61" maskUnits="userSpaceOnUse"><g class="cls-3"><path class="cls-4" d="M269.9,315.21v15.1a85.51,85.51,0,0,0,63-75.6H318.4A71,71,0,0,1,269.9,315.21Z"/></g></mask><linearGradient id="New_Gradient_Swatch_7-52" x1="269.9" y1="292.51" x2="332.92" y2="292.51" xlink:href="#New_Gradient_Swatch_7"/><filter id="luminosity-noclip-8" x="269.9" y="165.21" width="63.19" height="77.78" filterUnits="userSpaceOnUse" color-interpolation-filters="sRGB"><feFlood flood-color="#fff" result="bg"/><feBlend in="SourceGraphic" in2="bg"/></filter><mask id="mask-8" x="269.9" y="165.21" width="63.19" height="77.78" maskUnits="userSpaceOnUse"><g class="cls-5"><path class="cls-6" d="M318.57,243h14.51a85.49,85.49,0,0,0-63.18-77.77v15.1A71,71,0,0,1,318.57,243Z"/></g></mask><linearGradient id="New_Gradient_Swatch_7-53" x1="269.9" y1="204.09" x2="333.08" y2="204.09" xlink:href="#New_Gradient_Swatch_7"/><filter id="luminosity-noclip-9" x="162.43" y="165.1" width="63.56" height="77.88" filterUnits="userSpaceOnUse" color-interpolation-filters="sRGB"><feFlood flood-color="#fff" result="bg"/><feBlend in="SourceGraphic" in2="bg"/></filter><mask id="mask-9" x="162.43" y="165.1" width="63.56" height="77.88" maskUnits="userSpaceOnUse"><g class="cls-7"><path class="cls-8" d="M226,180.18V165.1A85.5,85.5,0,0,0,162.43,243H177A71,71,0,0,1,226,180.18Z"/></g></mask><linearGradient id="New_Gradient_Swatch_7-54" x1="162.43" y1="204.04" x2="226" y2="204.04" xlink:href="#New_Gradient_Swatch_7"/><filter id="luminosity-noclip-10" x="162.6" y="254.71" width="63.4" height="75.71" filterUnits="userSpaceOnUse" color-interpolation-filters="sRGB"><feFlood flood-color="#fff" result="bg"/><feBlend in="SourceGraphic" in2="bg"/></filter><mask id="mask-10" x="162.6" y="254.71" width="63.4" height="75.71" maskUnits="userSpaceOnUse"><g class="cls-9"><path class="cls-10" d="M177.11,254.71H162.6A85.51,85.51,0,0,0,226,330.42V315.33A71.05,71.05,0,0,1,177.11,254.71Z"/></g></mask><linearGradient id="New_Gradient_Swatch_7-55" x1="162.6" y1="292.56" x2="226" y2="292.56" xlink:href="#New_Gradient_Swatch_7"/></defs><title>circle_17_purple</title><g id="Layer_2" data-name="Layer 2"><g id="Layer_1-2" data-name="Layer 1"><g class="cls-11"><g class="cls-12"><path class="cls-13" d="M174.71,104.16A161.34,161.34,0,1,0,391.62,175,161.34,161.34,0,0,0,174.71,104.16ZM296.19,343.39a107,107,0,1,1,46.95-143.81A107,107,0,0,1,296.19,343.39Z"/></g></g><circle class="cls-14" cx="247.76" cy="248.02" r="57.85" transform="translate(-99.9 293.08) rotate(-52.41)"/><rect class="cls-15" x="56.59" y="246.97" width="382.33" height="2.1" transform="translate(-0.91 495.12) rotate(-89.85)"/><rect class="cls-16" x="246.71" y="56.85" width="2.1" height="382.33" transform="translate(-0.91 495.12) rotate(-89.85)"/><rect class="cls-17" x="228.42" y="201.94" width="64.52" height="2.1" transform="translate(57.01 463.13) rotate(-89.85)"/><rect class="cls-18" x="291.8" y="203.07" width="2.1" height="64.52" transform="translate(56.75 527.57) rotate(-89.85)"/><rect class="cls-19" x="203.14" y="202.2" width="64.52" height="2.1" transform="translate(31.56 438.13) rotate(-89.86)"/><rect class="cls-20" x="202" y="203.16" width="2.1" height="64.52" transform="matrix(0, -1, 1, 0, -32.9, 437.85)"/><rect class="cls-21" x="228.18" y="291.29" width="64.52" height="2.1" transform="translate(-32.55 552.05) rotate(-89.86)"/><rect class="cls-22" x="291.74" y="227.91" width="2.1" height="64.52" transform="translate(31.85 552.27) rotate(-89.85)"/><rect class="cls-23" x="202.9" y="290.91" width="64.52" height="2.1" transform="translate(-57.41 526.35) rotate(-89.85)"/><rect class="cls-24" x="201.94" y="227.35" width="2.1" height="64.52" transform="translate(-57.16 461.92) rotate(-89.85)"/><rect class="cls-25" x="173.66" y="88.1" width="2.1" height="32.11" transform="translate(-28.23 90.39) rotate(-26.92)"/><rect class="cls-26" x="319.76" y="375.82" width="2.1" height="32.11" transform="translate(-142.66 187.73) rotate(-26.92)"/><rect class="cls-27" x="93.33" y="181.89" width="2.1" height="32.11" transform="translate(-123.08 226.24) rotate(-71.92)"/><rect class="cls-28" x="400.09" y="282.03" width="2.1" height="32.11" transform="translate(-6.71 586.92) rotate(-71.92)"/><rect class="cls-29" x="87.85" y="320.02" width="32.11" height="2.1" transform="translate(-134.05 81.78) rotate(-26.91)"/><rect class="cls-30" x="375.56" y="173.92" width="32.11" height="2.1" transform="translate(-36.78 196.22) rotate(-26.91)"/><rect class="cls-31" x="181.64" y="400.35" width="32.11" height="2.1" transform="translate(-245.25 464.67) rotate(-71.91)"/><rect class="cls-32" x="281.77" y="93.59" width="32.11" height="2.1" transform="translate(115.38 348.35) rotate(-71.91)"/><rect class="cls-33" x="167.9" y="170.19" width="2.1" height="20.65" transform="translate(-78.06 191.42) rotate(-49.42)"/><rect class="cls-34" x="325.52" y="305.19" width="2.1" height="20.65" transform="translate(-125.5 358.3) rotate(-49.42)"/><rect class="cls-35" x="133.98" y="254.97" width="20.65" height="2.1" transform="translate(-19.39 11.94) rotate(-4.44)"/><rect class="cls-36" x="340.89" y="238.97" width="20.65" height="2.1" transform="translate(-17.5 27.87) rotate(-4.43)"/><rect class="cls-37" x="169.94" y="325.78" width="20.65" height="2.1" transform="translate(-185.21 251.07) rotate(-49.41)"/><rect class="cls-38" x="304.93" y="168.16" width="20.65" height="2.1" transform="translate(-18.33 298.57) rotate(-49.42)"/><rect class="cls-39" x="254.71" y="341.15" width="2.1" height="20.65" transform="translate(-26.33 20.76) rotate(-4.42)"/><rect class="cls-40" x="238.71" y="134.24" width="2.1" height="20.65" transform="translate(-10.43 18.91) rotate(-4.42)"/><path class="cls-41" d="M257.1,239.93a2.78,2.78,0,0,0-2.64,2.9v9.86a2.65,2.65,0,1,0,5.28,0v-9.86A2.78,2.78,0,0,0,257.1,239.93Z"/><path class="cls-42" d="M238.42,239.93a2.79,2.79,0,0,0-2.65,2.9v9.86a2.66,2.66,0,1,0,5.29,0v-9.86A2.78,2.78,0,0,0,238.42,239.93Z"/><path class="cls-43" d="M257.1,35.85a2.77,2.77,0,0,0-2.64,2.89V48.6a2.65,2.65,0,1,0,5.28,0V38.74A2.77,2.77,0,0,0,257.1,35.85Z"/><path class="cls-44" d="M238.42,35.85a2.78,2.78,0,0,0-2.65,2.89V48.6a2.66,2.66,0,1,0,5.29,0V38.74A2.77,2.77,0,0,0,238.42,35.85Z"/><path class="cls-45" d="M257.1,444a2.78,2.78,0,0,0-2.64,2.9v9.85a2.65,2.65,0,1,0,5.28,0v-9.85A2.78,2.78,0,0,0,257.1,444Z"/><path class="cls-46" d="M238.42,444a2.79,2.79,0,0,0-2.65,2.9v9.85a2.66,2.66,0,1,0,5.29,0v-9.85A2.78,2.78,0,0,0,238.42,444Z"/><path class="cls-47" d="M459.67,257.1a2.78,2.78,0,0,0-2.9-2.64h-9.85a2.65,2.65,0,1,0,0,5.28h9.85A2.78,2.78,0,0,0,459.67,257.1Z"/><path class="cls-48" d="M459.67,238.42a2.79,2.79,0,0,0-2.9-2.65h-9.85a2.66,2.66,0,1,0,0,5.29h9.85A2.78,2.78,0,0,0,459.67,238.42Z"/><path class="cls-49" d="M51.5,257.1a2.78,2.78,0,0,0-2.9-2.64H38.74a2.65,2.65,0,1,0,0,5.28H48.6A2.78,2.78,0,0,0,51.5,257.1Z"/><path class="cls-50" d="M51.5,238.42a2.79,2.79,0,0,0-2.9-2.65H38.74a2.66,2.66,0,1,0,0,5.29H48.6A2.78,2.78,0,0,0,51.5,238.42Z"/><path class="cls-51" d="M353.82,242.41H380.5A132.89,132.89,0,0,0,272.56,117.23V144.5A106.23,106.23,0,0,1,353.82,242.41Z"/><path class="cls-52" d="M223.38,144.41V117.15A132.88,132.88,0,0,0,115,242.41H141.7A106.2,106.2,0,0,1,223.38,144.41Z"/><path class="cls-53" d="M141.88,255.54H115.13A132.88,132.88,0,0,0,223.38,378.36V351.11A106.22,106.22,0,0,1,141.88,255.54Z"/><path class="cls-54" d="M272.56,351v27.28A132.9,132.9,0,0,0,380.39,255.54H353.64A106.2,106.2,0,0,1,272.56,351Z"/><path class="cls-55" d="M260.84,247.76a13.08,13.08,0,1,1-13.08-13.08A13.08,13.08,0,0,1,260.84,247.76Z"/><path class="cls-56" d="M203.48,249.63H1.87a1.87,1.87,0,0,1,0-3.74H203.48a1.87,1.87,0,0,1,0,3.74Z"/><path class="cls-57" d="M493.65,249.63H292a1.87,1.87,0,1,1,0-3.74H493.65a1.87,1.87,0,0,1,0,3.74Z"/><path class="cls-58" d="M203.48,249.63H1.87a1.87,1.87,0,0,1,0-3.74H203.48a1.87,1.87,0,0,1,0,3.74Z"/><path class="cls-59" d="M493.65,249.63H292a1.87,1.87,0,1,1,0-3.74H493.65a1.87,1.87,0,0,1,0,3.74Z"/><path class="cls-60" d="M247.76,205.34a1.87,1.87,0,0,1-1.87-1.86V1.87a1.87,1.87,0,0,1,3.74,0V203.48A1.87,1.87,0,0,1,247.76,205.34Z"/><path class="cls-61" d="M247.76,495.52a1.87,1.87,0,0,1-1.87-1.87V292a1.87,1.87,0,1,1,3.74,0V493.65A1.87,1.87,0,0,1,247.76,495.52Z"/><path class="cls-62" d="M293.53,247.76a45.61,45.61,0,0,0-.57-7.16h5.66a51.45,51.45,0,0,0-43.7-43.7v5.65a46.85,46.85,0,0,0-7.16-.56,45.61,45.61,0,0,0-7.16.57V196.9a51.45,51.45,0,0,0-43.7,43.7h5.66a45.25,45.25,0,0,0,0,14.32H196.9a51.46,51.46,0,0,0,43.7,43.7V293a45.25,45.25,0,0,0,14.32,0v5.66a51.46,51.46,0,0,0,43.7-43.7H293A45.71,45.71,0,0,0,293.53,247.76Zm-87.8,0a42,42,0,1,1,42,42A42.07,42.07,0,0,1,205.73,247.76Z"/><path class="cls-63" d="M411.36,232.38l-43.14,2c-.1-.94-.22-1.88-.34-2.82l4.18-5.54a132.59,132.59,0,0,0-47.47-72.87l-.31.42c-2.4-1.95-4.87-3.82-7.4-5.57l.31-.42a133.15,133.15,0,0,0-41.92-20.48l9.29-39.45c.41-1.73,0-3.29-.82-3.49l-3.64-.86c-.87-.2-1.89,1-2.3,2.75l-9.26,39.31q-3-.7-6.13-1.26l-1.5-2c-4.31-.14-8.6,0-12.86.22a133.05,133.05,0,0,0-14-.26l-1.64,2.17q-2.55.47-5.07,1l-9.52-40c-.41-1.72-1.44-3-2.3-2.75l-3.64.87c-.86.2-1.23,1.76-.82,3.49l9.55,40.1a133.38,133.38,0,0,0-42.79,20.84l.23.3c-2.53,1.77-5,3.65-7.37,5.61l-.24-.32a132.53,132.53,0,0,0-47.3,73l4.16,5.5c-.08.64-.16,1.29-.23,1.94l-43.76-1.91c-1.77-.08-3.24.58-3.28,1.46l-.16,3.74c0,.88,1.36,1.66,3.13,1.74l43.53,1.9c-.09,1.67-.14,3.34-.16,5,0,.52,0,1,0,1.57s0,1.34,0,2c0,1.63.06,3.25.14,4.87l-43,2c-1.77.08-3.17.87-3.13,1.75l.17,3.74c0,.88,1.51,1.53,3.28,1.45l43.21-2c.09.85.2,1.7.3,2.55l-4.15,5.52a132.57,132.57,0,0,0,47.46,72.87l.24-.32c2.4,2,4.86,3.82,7.4,5.58l-.24.31a133.18,133.18,0,0,0,42.24,20.57L211,407.88c-.41,1.73,0,3.29.82,3.49l3.64.86c.86.2,1.89-1,2.3-2.75L227,370q2.82.65,5.67,1.17l1.64,2.16a133.23,133.23,0,0,0,14-.29c4.26.26,8.55.34,12.86.18l1.5-2c1.71-.32,3.42-.66,5.12-1l9.55,40.11c.41,1.72,1.44,2.95,2.3,2.75l3.64-.87c.86-.2,1.23-1.77.82-3.49l-9.57-40.21a133.06,133.06,0,0,0,42.86-20.86l-.31-.41c2.53-1.76,5-3.64,7.38-5.6l.32.42a132.62,132.62,0,0,0,47.3-73l-4.19-5.53c.08-.59.15-1.19.22-1.79l44.06,1.92c1.77.08,3.24-.58,3.27-1.46l.17-3.74c0-.89-1.37-1.66-3.14-1.74l-43.8-1.91c.09-1.66.15-3.32.17-5,0-.53,0-1.06,0-1.59,0-.71,0-1.42,0-2.13,0-1.59-.06-3.18-.14-4.76l42.94-2c1.77-.08,3.17-.86,3.13-1.74l-.17-3.74C414.6,233,413.13,232.3,411.36,232.38ZM349.08,305.5a126.29,126.29,0,0,1-28.36,31.09l.86,1.13c-1,.84-2.08,1.67-3.15,2.48l-.43.32h0l-.07.06-.08.05h0l-.42.33c-1.07.81-2.16,1.59-3.25,2.35l-.85-1.13A126.38,126.38,0,0,1,275.71,361a116,116,0,0,1-15.94,2.85c-.58.06-1.17.13-1.76.18l-1,.08A116.86,116.86,0,0,1,219.8,361a126.28,126.28,0,0,1-37.66-18.77l-.86,1.14c-1.09-.77-2.17-1.54-3.25-2.35l-.42-.33h0l-.07-.06-.07,0h0l-.43-.31c-1.08-.81-2.12-1.64-3.16-2.48l.86-1.13a126.43,126.43,0,0,1-28.44-31,115.27,115.27,0,0,1-.13-115.76,126.49,126.49,0,0,1,28.36-31.09l-.86-1.14c1-.84,2.08-1.67,3.15-2.48l.44-.31h0l.07-.05.07-.06h0l.42-.33c1.07-.81,2.15-1.59,3.24-2.36l.86,1.14a126.29,126.29,0,0,1,37.63-18.86,116.5,116.5,0,0,1,37.22-3.2l1,.08,1.75.17a114.83,114.83,0,0,1,15.95,2.81A126.45,126.45,0,0,1,313.12,153l.85-1.14c1.1.77,2.18,1.54,3.25,2.35l.42.33h0l.07.06.07,0h0l.43.31c1.07.81,2.12,1.64,3.15,2.48l-.85,1.13a126.37,126.37,0,0,1,28.43,31,115.5,115.5,0,0,1,.13,115.92Z"/><g class="cls-64"><path class="cls-65" d="M269.9,315.21v15.1a85.51,85.51,0,0,0,63-75.6H318.4A71,71,0,0,1,269.9,315.21Z"/></g><g class="cls-66"><path class="cls-67" d="M318.57,243h14.51a85.49,85.49,0,0,0-63.18-77.77v15.1A71,71,0,0,1,318.57,243Z"/></g><g class="cls-68"><path class="cls-69" d="M226,180.18V165.1A85.5,85.5,0,0,0,162.43,243H177A71,71,0,0,1,226,180.18Z"/></g><g class="cls-70"><path class="cls-71" d="M177.11,254.71H162.6A85.51,85.51,0,0,0,226,330.42V315.33A71.05,71.05,0,0,1,177.11,254.71Z"/></g></g></g></svg>