<svg xmlns="http://www.w3.org/2000/svg" xmlns:xlink="http://www.w3.org/1999/xlink" viewBox="0 0 458.95 490.62"><defs><style>.cls-1{mask:url(#mask);filter:url(#luminosity-noclip-8);}.cls-10,.cls-2,.cls-4,.cls-6,.cls-8{mix-blend-mode:multiply;}.cls-2{fill:url(#Безымянный_градиент_17);}.cls-11,.cls-3{mask:url(#mask-2);}.cls-4{fill:url(#linear-gradient);}.cls-12,.cls-5{mask:url(#mask-3);}.cls-6{fill:url(#linear-gradient-2);}.cls-7{mask:url(#mask-4);filter:url(#luminosity-noclip-9);}.cls-8{fill:url(#linear-gradient-3);}.cls-9{mask:url(#mask-5);filter:url(#luminosity-noclip-10);}.cls-10{fill:url(#linear-gradient-4);}.cls-11{filter:url(#luminosity-noclip-11);}.cls-12{filter:url(#luminosity-noclip-12);}.cls-13{fill:url(#New_Gradient_Swatch_5);}.cls-14{fill:url(#New_Gradient_Swatch_5-2);}.cls-15{opacity:0.55;}.cls-16{fill:url(#New_Gradient_Swatch_5-3);}.cls-17{fill:url(#New_Gradient_Swatch_5-4);}.cls-18,.cls-19,.cls-20,.cls-21,.cls-22,.cls-23,.cls-24,.cls-25,.cls-26,.cls-27,.cls-28,.cls-29,.cls-30,.cls-31,.cls-32,.cls-33{stroke:#8dd4d4;stroke-miterlimit:10;stroke-width:1.03px;}.cls-18{fill:url(#New_Gradient_Swatch_5-5);}.cls-19{fill:url(#New_Gradient_Swatch_5-6);}.cls-20{fill:url(#New_Gradient_Swatch_5-7);}.cls-21{fill:url(#New_Gradient_Swatch_5-8);}.cls-22{fill:url(#New_Gradient_Swatch_5-9);}.cls-23{fill:url(#New_Gradient_Swatch_5-10);}.cls-24{fill:url(#New_Gradient_Swatch_5-11);}.cls-25{fill:url(#New_Gradient_Swatch_5-12);}.cls-26{fill:url(#New_Gradient_Swatch_5-13);}.cls-27{fill:url(#New_Gradient_Swatch_5-14);}.cls-28{fill:url(#New_Gradient_Swatch_5-15);}.cls-29{fill:url(#New_Gradient_Swatch_5-16);}.cls-30{fill:url(#New_Gradient_Swatch_5-17);}.cls-31{fill:url(#New_Gradient_Swatch_5-18);}.cls-32{fill:url(#New_Gradient_Swatch_5-19);}.cls-33{fill:url(#New_Gradient_Swatch_5-20);}.cls-34{opacity:0.2;}.cls-35{mask:url(#mask-8);}.cls-36{fill:url(#New_Gradient_Swatch_5-21);}.cls-37{fill:url(#New_Gradient_Swatch_5-22);}.cls-38{fill:url(#New_Gradient_Swatch_5-23);}.cls-39{fill:url(#New_Gradient_Swatch_5-24);}.cls-40{fill:url(#New_Gradient_Swatch_5-25);}.cls-41{fill:url(#New_Gradient_Swatch_5-26);}.cls-42{fill:url(#New_Gradient_Swatch_5-27);}.cls-43{fill:url(#New_Gradient_Swatch_5-28);}.cls-44{fill:url(#New_Gradient_Swatch_5-29);}.cls-45{fill:url(#New_Gradient_Swatch_5-30);}.cls-46{fill:url(#New_Gradient_Swatch_5-31);}.cls-47{fill:url(#New_Gradient_Swatch_5-32);}.cls-48{fill:url(#New_Gradient_Swatch_5-33);}.cls-49{fill:url(#New_Gradient_Swatch_5-34);}.cls-50{fill:url(#New_Gradient_Swatch_5-35);}.cls-51{fill:url(#New_Gradient_Swatch_5-36);}.cls-52{fill:url(#New_Gradient_Swatch_5-37);}.cls-53{fill:url(#New_Gradient_Swatch_5-38);}.cls-54{fill:url(#New_Gradient_Swatch_5-39);}.cls-55{fill:url(#New_Gradient_Swatch_5-40);}.cls-56{fill:url(#New_Gradient_Swatch_5-41);}.cls-57{fill:url(#New_Gradient_Swatch_5-42);}.cls-58{fill:url(#New_Gradient_Swatch_5-43);}.cls-59{fill:url(#New_Gradient_Swatch_5-44);}.cls-60{fill:url(#New_Gradient_Swatch_5-45);}.cls-61{fill:url(#New_Gradient_Swatch_5-46);}.cls-62{fill:url(#New_Gradient_Swatch_5-47);}.cls-63{fill:url(#New_Gradient_Swatch_5-48);}.cls-64{fill:url(#New_Gradient_Swatch_5-49);}.cls-65{fill:url(#New_Gradient_Swatch_5-50);}.cls-66{fill:url(#New_Gradient_Swatch_5-51);}.cls-67{fill:url(#New_Gradient_Swatch_5-52);}.cls-68{fill:url(#New_Gradient_Swatch_5-53);}.cls-69{fill:url(#New_Gradient_Swatch_5-54);}.cls-70{fill:url(#New_Gradient_Swatch_5-55);}.cls-71{fill:url(#New_Gradient_Swatch_5-56);}.cls-72{fill:url(#New_Gradient_Swatch_5-57);}.cls-73{fill:url(#New_Gradient_Swatch_5-58);}.cls-74{fill:url(#New_Gradient_Swatch_5-59);}.cls-75{fill:url(#New_Gradient_Swatch_5-60);}.cls-76{fill:url(#New_Gradient_Swatch_5-61);}.cls-77{fill:url(#New_Gradient_Swatch_5-62);}.cls-78{fill:url(#New_Gradient_Swatch_5-63);}.cls-79{fill:url(#New_Gradient_Swatch_5-64);}.cls-80{fill:url(#New_Gradient_Swatch_5-65);}.cls-81{fill:url(#New_Gradient_Swatch_5-66);}.cls-82{fill:url(#New_Gradient_Swatch_5-67);}.cls-83{fill:url(#New_Gradient_Swatch_5-68);}.cls-84{fill:url(#New_Gradient_Swatch_5-69);}.cls-85{fill:url(#New_Gradient_Swatch_5-70);}.cls-86{fill:url(#New_Gradient_Swatch_5-71);}.cls-87{fill:url(#New_Gradient_Swatch_5-72);}.cls-88{fill:url(#New_Gradient_Swatch_5-73);}.cls-89{fill:url(#New_Gradient_Swatch_5-74);}.cls-90{fill:url(#New_Gradient_Swatch_5-75);}.cls-91{fill:url(#New_Gradient_Swatch_5-76);}.cls-92{fill:url(#New_Gradient_Swatch_5-77);}.cls-93{fill:url(#New_Gradient_Swatch_5-78);}.cls-94{fill:url(#New_Gradient_Swatch_5-79);}.cls-95{fill:url(#New_Gradient_Swatch_5-80);}.cls-96{fill:url(#New_Gradient_Swatch_5-81);}.cls-97{fill:url(#New_Gradient_Swatch_5-82);}.cls-98{fill:url(#New_Gradient_Swatch_5-83);}.cls-99{fill:url(#New_Gradient_Swatch_5-84);}.cls-100{fill:url(#New_Gradient_Swatch_5-85);}.cls-101{fill:url(#New_Gradient_Swatch_5-86);}.cls-102{fill:url(#New_Gradient_Swatch_5-87);}.cls-103{fill:url(#New_Gradient_Swatch_5-88);}.cls-104{fill:url(#New_Gradient_Swatch_5-89);}.cls-105{fill:url(#New_Gradient_Swatch_5-90);}.cls-106{fill:url(#New_Gradient_Swatch_5-91);}.cls-107{fill:url(#New_Gradient_Swatch_5-92);}.cls-108{fill:url(#New_Gradient_Swatch_5-93);}.cls-109{fill:url(#New_Gradient_Swatch_5-94);}.cls-110{fill:url(#New_Gradient_Swatch_5-95);}.cls-111{fill:url(#New_Gradient_Swatch_5-96);}.cls-112{opacity:0.1;fill:url(#New_Gradient_Swatch_5-97);}.cls-113{mask:url(#mask-9);}.cls-114{fill:url(#New_Gradient_Swatch_5-98);}.cls-115{mask:url(#mask-10);}.cls-116{fill:url(#New_Gradient_Swatch_5-99);}.cls-117{opacity:0.4;}.cls-118{mask:url(#mask-11);}.cls-119{fill:url(#New_Gradient_Swatch_5-100);}.cls-120{mask:url(#mask-12);}.cls-121{fill:url(#New_Gradient_Swatch_5-101);}.cls-122{filter:url(#luminosity-noclip-5);}.cls-123{filter:url(#luminosity-noclip-4);}.cls-124{filter:url(#luminosity-noclip-3);}.cls-125{filter:url(#luminosity-noclip-2);}.cls-126{filter:url(#luminosity-noclip);}</style><filter id="luminosity-noclip" x="34.94" y="-8436.77" width="391.41" height="32766" filterUnits="userSpaceOnUse" color-interpolation-filters="sRGB"><feFlood flood-color="#fff" result="bg"/><feBlend in="SourceGraphic" in2="bg"/></filter><mask id="mask" x="34.94" y="-8436.77" width="391.41" height="32766" maskUnits="userSpaceOnUse"><g class="cls-126"/></mask><radialGradient id="Безымянный_градиент_17" cx="230.64" cy="250.85" r="195.7" gradientUnits="userSpaceOnUse"><stop offset="0" stop-color="#fff"/><stop offset="0.12" stop-color="#fbfbfb"/><stop offset="0.25" stop-color="#eee"/><stop offset="0.37" stop-color="#dadada"/><stop offset="0.5" stop-color="#bcbcbc"/><stop offset="0.63" stop-color="#979797"/><stop offset="0.76" stop-color="#696969"/><stop offset="0.89" stop-color="#343434"/><stop offset="1"/></radialGradient><filter id="luminosity-noclip-2" x="250.15" y="-8436.77" width="93.62" height="32766" filterUnits="userSpaceOnUse" color-interpolation-filters="sRGB"><feFlood flood-color="#fff" result="bg"/><feBlend in="SourceGraphic" in2="bg"/></filter><mask id="mask-2" x="250.15" y="-8436.77" width="93.62" height="32766" maskUnits="userSpaceOnUse"><g class="cls-125"/></mask><linearGradient id="linear-gradient" x1="312.51" y1="162.27" x2="250.74" y2="224.05" gradientUnits="userSpaceOnUse"><stop offset="0" stop-color="#fff"/><stop offset="0.03" stop-color="#ededed"/><stop offset="0.14" stop-color="#b6b6b6"/><stop offset="0.26" stop-color="#868686"/><stop offset="0.37" stop-color="#5d5d5d"/><stop offset="0.49" stop-color="#3b3b3b"/><stop offset="0.61" stop-color="#212121"/><stop offset="0.73" stop-color="#0f0f0f"/><stop offset="0.86" stop-color="#040404"/><stop offset="1"/></linearGradient><filter id="luminosity-noclip-3" x="115.17" y="-8436.77" width="93.62" height="32766" filterUnits="userSpaceOnUse" color-interpolation-filters="sRGB"><feFlood flood-color="#fff" result="bg"/><feBlend in="SourceGraphic" in2="bg"/></filter><mask id="mask-3" x="115.17" y="-8436.77" width="93.62" height="32766" maskUnits="userSpaceOnUse"><g class="cls-124"/></mask><linearGradient id="linear-gradient-2" x1="-875.74" y1="-833.25" x2="-937.51" y2="-771.48" gradientTransform="translate(-729.3 -504.91) rotate(180)" xlink:href="#linear-gradient"/><filter id="luminosity-noclip-4" x="243.82" y="-8436.77" width="64.93" height="32766" filterUnits="userSpaceOnUse" color-interpolation-filters="sRGB"><feFlood flood-color="#fff" result="bg"/><feBlend in="SourceGraphic" in2="bg"/></filter><mask id="mask-4" x="243.82" y="-8436.77" width="64.93" height="32766" maskUnits="userSpaceOnUse"><g class="cls-123"/></mask><linearGradient id="linear-gradient-3" x1="287.06" y1="187.72" x2="244.22" y2="230.56" xlink:href="#linear-gradient"/><filter id="luminosity-noclip-5" x="150.2" y="-8436.77" width="64.93" height="32766" filterUnits="userSpaceOnUse" color-interpolation-filters="sRGB"><feFlood flood-color="#fff" result="bg"/><feBlend in="SourceGraphic" in2="bg"/></filter><mask id="mask-5" x="150.2" y="-8436.77" width="64.93" height="32766" maskUnits="userSpaceOnUse"><g class="cls-122"/></mask><linearGradient id="linear-gradient-4" x1="-901.19" y1="-807.8" x2="-944.03" y2="-764.96" gradientTransform="translate(-729.3 -504.91) rotate(180)" xlink:href="#linear-gradient"/><linearGradient id="New_Gradient_Swatch_5" x1="253.18" y1="177.07" x2="374.13" y2="177.07" gradientUnits="userSpaceOnUse"><stop offset="0" stop-color="#11e5b3"/><stop offset="0.14" stop-color="#15dcb8"/><stop offset="0.36" stop-color="#21c4c6"/><stop offset="0.64" stop-color="#359edc"/><stop offset="0.97" stop-color="#4f68fb"/><stop offset="1" stop-color="#5263fe"/></linearGradient><linearGradient id="New_Gradient_Swatch_5-2" x1="86.45" y1="332.24" x2="207.39" y2="332.24" xlink:href="#New_Gradient_Swatch_5"/><linearGradient id="New_Gradient_Swatch_5-3" x1="254.74" y1="188.38" x2="350.44" y2="188.38" xlink:href="#New_Gradient_Swatch_5"/><linearGradient id="New_Gradient_Swatch_5-4" x1="110.65" y1="320.92" x2="206.36" y2="320.92" xlink:href="#New_Gradient_Swatch_5"/><linearGradient id="New_Gradient_Swatch_5-5" x1="119.76" y1="187.56" x2="217.11" y2="187.56" xlink:href="#New_Gradient_Swatch_5"/><linearGradient id="New_Gradient_Swatch_5-6" x1="251.55" y1="319.35" x2="348.9" y2="319.35" xlink:href="#New_Gradient_Swatch_5"/><linearGradient id="New_Gradient_Swatch_5-7" x1="209.78" y1="214.62" x2="240.63" y2="214.62" xlink:href="#New_Gradient_Swatch_5"/><linearGradient id="New_Gradient_Swatch_5-8" x1="209.78" y1="199.71" x2="240.63" y2="199.71" xlink:href="#New_Gradient_Swatch_5"/><linearGradient id="New_Gradient_Swatch_5-9" x1="209.78" y1="184.8" x2="240.63" y2="184.8" xlink:href="#New_Gradient_Swatch_5"/><linearGradient id="New_Gradient_Swatch_5-10" x1="209.78" y1="169.88" x2="240.63" y2="169.88" xlink:href="#New_Gradient_Swatch_5"/><linearGradient id="New_Gradient_Swatch_5-11" x1="209.78" y1="154.97" x2="240.63" y2="154.97" xlink:href="#New_Gradient_Swatch_5"/><linearGradient id="New_Gradient_Swatch_5-12" x1="209.78" y1="140.06" x2="240.63" y2="140.06" xlink:href="#New_Gradient_Swatch_5"/><linearGradient id="New_Gradient_Swatch_5-13" x1="209.78" y1="125.15" x2="240.63" y2="125.15" xlink:href="#New_Gradient_Swatch_5"/><linearGradient id="New_Gradient_Swatch_5-14" x1="214.05" y1="379.11" x2="244.9" y2="379.11" xlink:href="#New_Gradient_Swatch_5"/><linearGradient id="New_Gradient_Swatch_5-15" x1="214.05" y1="364.2" x2="244.9" y2="364.2" xlink:href="#New_Gradient_Swatch_5"/><linearGradient id="New_Gradient_Swatch_5-16" x1="214.05" y1="349.29" x2="244.9" y2="349.29" xlink:href="#New_Gradient_Swatch_5"/><linearGradient id="New_Gradient_Swatch_5-17" x1="214.05" y1="334.37" x2="244.9" y2="334.37" xlink:href="#New_Gradient_Swatch_5"/><linearGradient id="New_Gradient_Swatch_5-18" x1="214.05" y1="319.46" x2="244.9" y2="319.46" xlink:href="#New_Gradient_Swatch_5"/><linearGradient id="New_Gradient_Swatch_5-19" x1="214.05" y1="304.55" x2="244.9" y2="304.55" xlink:href="#New_Gradient_Swatch_5"/><linearGradient id="New_Gradient_Swatch_5-20" x1="214.05" y1="289.64" x2="244.9" y2="289.64" xlink:href="#New_Gradient_Swatch_5"/><filter id="luminosity-noclip-8" x="34.94" y="55.14" width="391.41" height="391.41" filterUnits="userSpaceOnUse" color-interpolation-filters="sRGB"><feFlood flood-color="#fff" result="bg"/><feBlend in="SourceGraphic" in2="bg"/></filter><mask id="mask-8" x="34.94" y="55.14" width="391.41" height="391.41" maskUnits="userSpaceOnUse"><g class="cls-1"><circle class="cls-2" cx="230.64" cy="250.85" r="195.7"/></g></mask><linearGradient id="New_Gradient_Swatch_5-21" x1="34.94" y1="250.85" x2="426.34" y2="250.85" xlink:href="#New_Gradient_Swatch_5"/><linearGradient id="New_Gradient_Swatch_5-22" x1="34.11" y1="250.85" x2="427.18" y2="250.85" xlink:href="#New_Gradient_Swatch_5"/><linearGradient id="New_Gradient_Swatch_5-23" x1="117.66" y1="250.85" x2="343.62" y2="250.85" xlink:href="#New_Gradient_Swatch_5"/><linearGradient id="New_Gradient_Swatch_5-24" x1="91.01" y1="250.85" x2="370.27" y2="250.85" xlink:href="#New_Gradient_Swatch_5"/><linearGradient id="New_Gradient_Swatch_5-25" x1="16.9" y1="250.85" x2="38.52" y2="250.85" xlink:href="#New_Gradient_Swatch_5"/><linearGradient id="New_Gradient_Swatch_5-26" x1="423.04" y1="250.85" x2="444.67" y2="250.85" xlink:href="#New_Gradient_Swatch_5"/><linearGradient id="New_Gradient_Swatch_5-27" x1="193.31" y1="453.92" x2="268.26" y2="453.92" xlink:href="#New_Gradient_Swatch_5"/><linearGradient id="New_Gradient_Swatch_5-28" x1="193.31" y1="47.78" x2="268.26" y2="47.78" xlink:href="#New_Gradient_Swatch_5"/><linearGradient id="New_Gradient_Swatch_5-29" x1="63.25" y1="250.85" x2="83.24" y2="250.85" xlink:href="#New_Gradient_Swatch_5"/><linearGradient id="New_Gradient_Swatch_5-30" x1="112.29" y1="250.85" x2="141.35" y2="250.85" xlink:href="#New_Gradient_Swatch_5"/><linearGradient id="New_Gradient_Swatch_5-31" x1="170.4" y1="250.85" x2="190.39" y2="250.85" xlink:href="#New_Gradient_Swatch_5"/><linearGradient id="New_Gradient_Swatch_5-32" x1="271.88" y1="250.85" x2="291.86" y2="250.85" xlink:href="#New_Gradient_Swatch_5"/><linearGradient id="New_Gradient_Swatch_5-33" x1="320.92" y1="250.85" x2="349.97" y2="250.85" xlink:href="#New_Gradient_Swatch_5"/><linearGradient id="New_Gradient_Swatch_5-34" x1="379.03" y1="250.85" x2="399.01" y2="250.85" xlink:href="#New_Gradient_Swatch_5"/><linearGradient id="New_Gradient_Swatch_5-35" x1="230.3" y1="408.73" x2="231.97" y2="408.73" xlink:href="#New_Gradient_Swatch_5"/><linearGradient id="New_Gradient_Swatch_5-36" x1="230.3" y1="355.16" x2="231.97" y2="355.16" xlink:href="#New_Gradient_Swatch_5"/><linearGradient id="New_Gradient_Swatch_5-37" x1="230.3" y1="301.58" x2="231.97" y2="301.58" xlink:href="#New_Gradient_Swatch_5"/><linearGradient id="New_Gradient_Swatch_5-38" x1="230.3" y1="200.11" x2="231.97" y2="200.11" xlink:href="#New_Gradient_Swatch_5"/><linearGradient id="New_Gradient_Swatch_5-39" x1="230.3" y1="146.54" x2="231.97" y2="146.54" xlink:href="#New_Gradient_Swatch_5"/><linearGradient id="New_Gradient_Swatch_5-40" x1="230.3" y1="92.96" x2="231.97" y2="92.96" xlink:href="#New_Gradient_Swatch_5"/><linearGradient id="New_Gradient_Swatch_5-41" x1="345.82" y1="117" x2="383.15" y2="117" gradientTransform="translate(189.49 -223.46) rotate(45)" xlink:href="#New_Gradient_Swatch_5"/><linearGradient id="New_Gradient_Swatch_5-42" x1="78.13" y1="384.69" x2="115.47" y2="384.69" gradientTransform="translate(300.37 44.23) rotate(45)" xlink:href="#New_Gradient_Swatch_5"/><linearGradient id="New_Gradient_Swatch_5-43" x1="345.81" y1="384.69" x2="383.15" y2="384.69" gradientTransform="translate(378.78 -145.06) rotate(45)" xlink:href="#New_Gradient_Swatch_5"/><linearGradient id="New_Gradient_Swatch_5-44" x1="78.13" y1="117" x2="115.46" y2="117" gradientTransform="translate(111.08 -34.17) rotate(45)" xlink:href="#New_Gradient_Swatch_5"/><linearGradient id="New_Gradient_Swatch_5-45" x1="221.2" y1="250.85" x2="240.08" y2="250.85" xlink:href="#New_Gradient_Swatch_5"/><linearGradient id="New_Gradient_Swatch_5-46" x1="112.89" y1="391.59" x2="348.4" y2="391.59" xlink:href="#New_Gradient_Swatch_5"/><linearGradient id="New_Gradient_Swatch_5-47" x1="112.88" y1="110.11" x2="348.39" y2="110.11" xlink:href="#New_Gradient_Swatch_5"/><linearGradient id="New_Gradient_Swatch_5-48" x1="297.34" y1="159.12" x2="324.38" y2="159.12" xlink:href="#New_Gradient_Swatch_5"/><linearGradient id="New_Gradient_Swatch_5-49" x1="297.34" y1="356.36" x2="324.38" y2="356.36" xlink:href="#New_Gradient_Swatch_5"/><linearGradient id="New_Gradient_Swatch_5-50" x1="122.89" y1="356.36" x2="149.93" y2="356.36" xlink:href="#New_Gradient_Swatch_5"/><linearGradient id="New_Gradient_Swatch_5-51" x1="122.89" y1="159.12" x2="149.93" y2="159.12" xlink:href="#New_Gradient_Swatch_5"/><linearGradient id="New_Gradient_Swatch_5-52" x1="219.79" y1="0.85" x2="245.44" y2="0.85" xlink:href="#New_Gradient_Swatch_5"/><linearGradient id="New_Gradient_Swatch_5-53" x1="219.79" y1="27.55" x2="245.44" y2="27.55" xlink:href="#New_Gradient_Swatch_5"/><linearGradient id="New_Gradient_Swatch_5-54" x1="219.79" y1="49.74" x2="245.44" y2="49.74" xlink:href="#New_Gradient_Swatch_5"/><linearGradient id="New_Gradient_Swatch_5-55" x1="219.79" y1="74.19" x2="245.44" y2="74.19" xlink:href="#New_Gradient_Swatch_5"/><linearGradient id="New_Gradient_Swatch_5-56" x1="219.79" y1="98.63" x2="245.44" y2="98.63" xlink:href="#New_Gradient_Swatch_5"/><linearGradient id="New_Gradient_Swatch_5-57" x1="219.79" y1="123.08" x2="245.44" y2="123.08" xlink:href="#New_Gradient_Swatch_5"/><linearGradient id="New_Gradient_Swatch_5-58" x1="219.79" y1="147.53" x2="245.44" y2="147.53" xlink:href="#New_Gradient_Swatch_5"/><linearGradient id="New_Gradient_Swatch_5-59" x1="219.79" y1="171.97" x2="245.44" y2="171.97" xlink:href="#New_Gradient_Swatch_5"/><linearGradient id="New_Gradient_Swatch_5-60" x1="219.79" y1="196.42" x2="245.44" y2="196.42" xlink:href="#New_Gradient_Swatch_5"/><linearGradient id="New_Gradient_Swatch_5-61" x1="219.79" y1="220.86" x2="245.44" y2="220.86" xlink:href="#New_Gradient_Swatch_5"/><linearGradient id="New_Gradient_Swatch_5-62" x1="219.79" y1="245.31" x2="245.44" y2="245.31" xlink:href="#New_Gradient_Swatch_5"/><linearGradient id="New_Gradient_Swatch_5-63" x1="219.79" y1="269.75" x2="245.44" y2="269.75" xlink:href="#New_Gradient_Swatch_5"/><linearGradient id="New_Gradient_Swatch_5-64" x1="219.79" y1="294.2" x2="245.44" y2="294.2" xlink:href="#New_Gradient_Swatch_5"/><linearGradient id="New_Gradient_Swatch_5-65" x1="219.79" y1="318.65" x2="245.44" y2="318.65" xlink:href="#New_Gradient_Swatch_5"/><linearGradient id="New_Gradient_Swatch_5-66" x1="219.79" y1="343.09" x2="245.44" y2="343.09" xlink:href="#New_Gradient_Swatch_5"/><linearGradient id="New_Gradient_Swatch_5-67" x1="219.79" y1="367.54" x2="245.44" y2="367.54" xlink:href="#New_Gradient_Swatch_5"/><linearGradient id="New_Gradient_Swatch_5-68" x1="219.79" y1="391.98" x2="245.44" y2="391.98" xlink:href="#New_Gradient_Swatch_5"/><linearGradient id="New_Gradient_Swatch_5-69" x1="219.79" y1="416.43" x2="245.44" y2="416.43" xlink:href="#New_Gradient_Swatch_5"/><linearGradient id="New_Gradient_Swatch_5-70" x1="219.79" y1="440.87" x2="245.44" y2="440.87" xlink:href="#New_Gradient_Swatch_5"/><linearGradient id="New_Gradient_Swatch_5-71" x1="219.79" y1="465.32" x2="245.44" y2="465.32" xlink:href="#New_Gradient_Swatch_5"/><linearGradient id="New_Gradient_Swatch_5-72" x1="219.79" y1="489.77" x2="245.44" y2="489.77" xlink:href="#New_Gradient_Swatch_5"/><linearGradient id="New_Gradient_Swatch_5-73" x1="202.15" y1="160.58" x2="261.6" y2="160.58" xlink:href="#New_Gradient_Swatch_5"/><linearGradient id="New_Gradient_Swatch_5-74" x1="202.15" y1="353.84" x2="261.6" y2="353.84" xlink:href="#New_Gradient_Swatch_5"/><linearGradient id="New_Gradient_Swatch_5-75" x1="366.17" y1="70.18" x2="370.73" y2="70.18" xlink:href="#New_Gradient_Swatch_5"/><linearGradient id="New_Gradient_Swatch_5-76" x1="371.65" y1="70.18" x2="379.87" y2="70.18" xlink:href="#New_Gradient_Swatch_5"/><linearGradient id="New_Gradient_Swatch_5-77" x1="440.13" y1="185.14" x2="448.35" y2="185.14" xlink:href="#New_Gradient_Swatch_5"/><linearGradient id="New_Gradient_Swatch_5-78" x1="449.27" y1="185.14" x2="457.49" y2="185.14" xlink:href="#New_Gradient_Swatch_5"/><linearGradient id="New_Gradient_Swatch_5-79" x1="441.59" y1="315.95" x2="449.81" y2="315.95" xlink:href="#New_Gradient_Swatch_5"/><linearGradient id="New_Gradient_Swatch_5-80" x1="450.72" y1="315.95" x2="458.95" y2="315.95" xlink:href="#New_Gradient_Swatch_5"/><linearGradient id="New_Gradient_Swatch_5-81" x1="366.62" y1="426.82" x2="374.29" y2="426.82" xlink:href="#New_Gradient_Swatch_5"/><linearGradient id="New_Gradient_Swatch_5-82" x1="375.21" y1="426.82" x2="383.43" y2="426.82" xlink:href="#New_Gradient_Swatch_5"/><linearGradient id="New_Gradient_Swatch_5-83" x1="219.82" y1="480.47" x2="228.04" y2="480.47" xlink:href="#New_Gradient_Swatch_5"/><linearGradient id="New_Gradient_Swatch_5-84" x1="228.96" y1="480.47" x2="237.18" y2="480.47" xlink:href="#New_Gradient_Swatch_5"/><linearGradient id="New_Gradient_Swatch_5-85" x1="74.94" y1="426.82" x2="83.34" y2="426.82" xlink:href="#New_Gradient_Swatch_5"/><linearGradient id="New_Gradient_Swatch_5-86" x1="84.25" y1="426.82" x2="92.48" y2="426.82" xlink:href="#New_Gradient_Swatch_5"/><linearGradient id="New_Gradient_Swatch_5-87" x1="0" y1="315.95" x2="8.22" y2="315.95" xlink:href="#New_Gradient_Swatch_5"/><linearGradient id="New_Gradient_Swatch_5-88" x1="9.14" y1="315.95" x2="17.36" y2="315.95" xlink:href="#New_Gradient_Swatch_5"/><linearGradient id="New_Gradient_Swatch_5-89" x1="1.01" y1="185.14" x2="9.23" y2="185.14" xlink:href="#New_Gradient_Swatch_5"/><linearGradient id="New_Gradient_Swatch_5-90" x1="10.14" y1="185.14" x2="18.37" y2="185.14" xlink:href="#New_Gradient_Swatch_5"/><linearGradient id="New_Gradient_Swatch_5-91" x1="80.68" y1="70.18" x2="89.04" y2="70.18" xlink:href="#New_Gradient_Swatch_5"/><linearGradient id="New_Gradient_Swatch_5-92" x1="89.95" y1="70.18" x2="98.17" y2="70.18" xlink:href="#New_Gradient_Swatch_5"/><linearGradient id="New_Gradient_Swatch_5-93" x1="218.75" y1="21.21" x2="223.32" y2="21.21" xlink:href="#New_Gradient_Swatch_5"/><linearGradient id="New_Gradient_Swatch_5-94" x1="224.23" y1="21.21" x2="232.45" y2="21.21" xlink:href="#New_Gradient_Swatch_5"/><linearGradient id="New_Gradient_Swatch_5-95" x1="233.37" y1="21.21" x2="241.59" y2="21.21" xlink:href="#New_Gradient_Swatch_5"/><linearGradient id="New_Gradient_Swatch_5-96" x1="133.54" y1="245.31" x2="325.4" y2="245.31" xlink:href="#New_Gradient_Swatch_5"/><linearGradient id="New_Gradient_Swatch_5-97" x1="91.36" y1="245.31" x2="367.59" y2="245.31" xlink:href="#New_Gradient_Swatch_5"/><filter id="luminosity-noclip-9" x="243.82" y="166.84" width="64.93" height="63.32" filterUnits="userSpaceOnUse" color-interpolation-filters="sRGB"><feFlood flood-color="#fff" result="bg"/><feBlend in="SourceGraphic" in2="bg"/></filter><mask id="mask-9" x="243.82" y="166.84" width="64.93" height="63.32" maskUnits="userSpaceOnUse"><g class="cls-7"><path class="cls-8" d="M308.75,230.16a75.08,75.08,0,0,0-64.93-63.32v63.32Z"/></g></mask><linearGradient id="New_Gradient_Swatch_5-98" x1="243.82" y1="198.5" x2="308.75" y2="198.5" xlink:href="#New_Gradient_Swatch_5"/><filter id="luminosity-noclip-10" x="150.2" y="260.46" width="64.93" height="63.32" filterUnits="userSpaceOnUse" color-interpolation-filters="sRGB"><feFlood flood-color="#fff" result="bg"/><feBlend in="SourceGraphic" in2="bg"/></filter><mask id="mask-10" x="150.2" y="260.46" width="64.93" height="63.32" maskUnits="userSpaceOnUse"><g class="cls-9"><path class="cls-10" d="M150.2,260.46a75.09,75.09,0,0,0,64.93,63.32V260.46Z"/></g></mask><linearGradient id="New_Gradient_Swatch_5-99" x1="150.2" y1="292.12" x2="215.13" y2="292.12" xlink:href="#New_Gradient_Swatch_5"/><filter id="luminosity-noclip-11" x="250.15" y="132.16" width="93.62" height="91.3" filterUnits="userSpaceOnUse" color-interpolation-filters="sRGB"><feFlood flood-color="#fff" result="bg"/><feBlend in="SourceGraphic" in2="bg"/></filter><mask id="mask-11" x="250.15" y="132.16" width="93.62" height="91.3" maskUnits="userSpaceOnUse"><g class="cls-11"><path class="cls-4" d="M343.78,223.47a108.28,108.28,0,0,0-93.63-91.31v91.31Z"/></g></mask><linearGradient id="New_Gradient_Swatch_5-100" x1="250.15" y1="177.82" x2="343.78" y2="177.82" xlink:href="#New_Gradient_Swatch_5"/><filter id="luminosity-noclip-12" x="115.17" y="267.15" width="93.62" height="91.3" filterUnits="userSpaceOnUse" color-interpolation-filters="sRGB"><feFlood flood-color="#fff" result="bg"/><feBlend in="SourceGraphic" in2="bg"/></filter><mask id="mask-12" x="115.17" y="267.15" width="93.62" height="91.3" maskUnits="userSpaceOnUse"><g class="cls-12"><path class="cls-6" d="M115.17,267.15a108.26,108.26,0,0,0,93.62,91.3v-91.3Z"/></g></mask><linearGradient id="New_Gradient_Swatch_5-101" x1="115.17" y1="312.8" x2="208.79" y2="312.8" xlink:href="#New_Gradient_Swatch_5"/></defs><title>circle_11_green_blue</title><g id="Layer_2" data-name="Layer 2"><g id="Layer_1-2" data-name="Layer 1"><polygon class="cls-13" points="253.18 237.54 253.18 116.6 255.78 116.6 255.78 234.93 374.11 234.13 374.13 236.73 253.18 237.54"/><polygon class="cls-14" points="86.45 272.58 207.4 271.77 207.4 392.71 204.8 392.71 204.8 274.38 86.47 275.17 86.45 272.58"/><g class="cls-15"><polygon class="cls-16" points="254.74 140.53 254.74 236.23 350.44 236.23 254.74 140.53"/></g><g class="cls-15"><polygon class="cls-17" points="206.35 273.07 110.65 273.07 206.35 368.78 206.35 273.07"/></g><line class="cls-18" x1="217.11" y1="236.23" x2="119.76" y2="138.88"/><line class="cls-19" x1="348.9" y1="368.03" x2="251.55" y2="270.68"/><line class="cls-20" x1="209.78" y1="214.62" x2="240.63" y2="214.62"/><line class="cls-21" x1="209.78" y1="199.71" x2="240.63" y2="199.71"/><line class="cls-22" x1="209.78" y1="184.8" x2="240.63" y2="184.8"/><line class="cls-23" x1="209.78" y1="169.88" x2="240.63" y2="169.88"/><line class="cls-24" x1="209.78" y1="154.97" x2="240.63" y2="154.97"/><line class="cls-25" x1="209.78" y1="140.06" x2="240.63" y2="140.06"/><line class="cls-26" x1="209.78" y1="125.15" x2="240.63" y2="125.15"/><line class="cls-27" x1="214.05" y1="379.11" x2="244.9" y2="379.11"/><line class="cls-28" x1="214.05" y1="364.2" x2="244.9" y2="364.2"/><line class="cls-29" x1="214.05" y1="349.29" x2="244.9" y2="349.29"/><line class="cls-30" x1="214.05" y1="334.37" x2="244.9" y2="334.37"/><line class="cls-31" x1="214.05" y1="319.46" x2="244.9" y2="319.46"/><line class="cls-32" x1="214.05" y1="304.55" x2="244.9" y2="304.55"/><line class="cls-33" x1="214.05" y1="289.64" x2="244.9" y2="289.64"/><g class="cls-34"><g class="cls-35"><circle class="cls-36" cx="230.64" cy="250.85" r="195.7"/></g></g><path class="cls-37" d="M230.64,447.38c-108.37,0-196.53-88.16-196.53-196.53S122.27,54.31,230.64,54.31s196.54,88.17,196.54,196.54S339,447.38,230.64,447.38Zm0-391.4C123.19,56,35.77,143.4,35.77,250.85s87.42,194.87,194.87,194.87S425.51,358.3,425.51,250.85,338.09,56,230.64,56Z"/><path class="cls-38" d="M230.64,363.83a113,113,0,1,1,113-113A113.1,113.1,0,0,1,230.64,363.83Zm0-224.3A111.32,111.32,0,1,0,342,250.85,111.44,111.44,0,0,0,230.64,139.53Z"/><path class="cls-39" d="M230.64,390.48c-77,0-139.63-62.64-139.63-139.63s62.64-139.63,139.63-139.63,139.63,62.64,139.63,139.63S307.63,390.48,230.64,390.48Zm0-275.93c-75.15,0-136.3,61.14-136.3,136.3s61.15,136.3,136.3,136.3,136.3-61.15,136.3-136.3S305.8,114.55,230.64,114.55Z"/><path class="cls-40" d="M38.52,288.32l-21.62-10v-55l21.62-10a224.72,224.72,0,0,0-3.58,37.48A183.94,183.94,0,0,0,38.52,288.32Z"/><path class="cls-41" d="M423,288.32l21.63-10v-55l-21.63-10a224.72,224.72,0,0,1,3.58,37.48A183.94,183.94,0,0,1,423,288.32Z"/><path class="cls-42" d="M268.26,443.1l-10,21.63h-55l-10-21.63a223.92,223.92,0,0,0,37.47,3.59A184.52,184.52,0,0,0,268.26,443.1Z"/><path class="cls-43" d="M268.26,58.59,258.26,37h-55l-10,21.63A224.52,224.52,0,0,1,230.78,55,184.06,184.06,0,0,1,268.26,58.59Z"/><rect class="cls-44" x="63.25" y="250.01" width="19.99" height="1.67"/><rect class="cls-45" x="112.29" y="250.01" width="29.05" height="1.67"/><rect class="cls-46" x="170.4" y="250.01" width="19.99" height="1.67"/><rect class="cls-47" x="271.88" y="250.01" width="19.99" height="1.67"/><rect class="cls-48" x="320.92" y="250.01" width="29.05" height="1.67"/><rect class="cls-49" x="379.03" y="250.01" width="19.99" height="1.67"/><rect class="cls-50" x="230.3" y="398.74" width="1.67" height="19.99"/><rect class="cls-51" x="230.3" y="340.63" width="1.67" height="29.05"/><rect class="cls-52" x="230.3" y="291.59" width="1.67" height="19.99"/><rect class="cls-53" x="230.3" y="190.12" width="1.67" height="19.99"/><rect class="cls-54" x="230.3" y="132.01" width="1.67" height="29.05"/><rect class="cls-55" x="230.3" y="82.97" width="1.67" height="19.99"/><rect class="cls-56" x="339.75" y="115.34" width="49.47" height="3.33" transform="translate(24.02 292) rotate(-45)"/><rect class="cls-57" x="72.06" y="383.03" width="49.48" height="3.33" transform="translate(-243.67 181.12) rotate(-45)"/><rect class="cls-58" x="362.82" y="359.96" width="3.33" height="49.47" transform="translate(-165.26 370.41) rotate(-45)"/><rect class="cls-59" x="95.13" y="92.27" width="3.33" height="49.47" transform="translate(-54.38 102.71) rotate(-45)"/><path class="cls-60" d="M240.08,250.85a9.44,9.44,0,1,1-9.44-9.44A9.44,9.44,0,0,1,240.08,250.85Z"/><path class="cls-61" d="M230.64,417.38a165.44,165.44,0,0,1-117.75-48.77l2.81-2.81a162.56,162.56,0,0,0,229.89,0l2.81,2.81A165.46,165.46,0,0,1,230.64,417.38Z"/><path class="cls-62" d="M115.69,135.9l-2.81-2.81a166.53,166.53,0,0,1,235.51,0l-2.81,2.81a162.57,162.57,0,0,0-229.89,0Z"/><polygon class="cls-63" points="321.42 145.6 297.34 145.6 297.34 148.57 321.42 148.57 321.42 172.64 324.38 172.64 324.38 148.57 324.38 145.6 321.42 145.6"/><polygon class="cls-64" points="324.38 366.91 324.38 342.84 321.42 342.84 321.42 366.91 297.34 366.91 297.34 369.88 321.42 369.88 324.38 369.88 324.38 366.91"/><polygon class="cls-65" points="125.85 369.88 149.93 369.88 149.93 366.91 125.85 366.91 125.85 342.84 122.89 342.84 122.89 366.91 122.89 369.88 125.85 369.88"/><polygon class="cls-66" points="122.89 148.57 122.89 172.64 125.85 172.64 125.85 148.57 149.93 148.57 149.93 145.6 125.85 145.6 122.89 145.6 122.89 148.57"/><rect class="cls-67" x="219.79" width="25.65" height="1.7"/><rect class="cls-68" x="219.79" y="26.7" width="25.65" height="1.7"/><rect class="cls-69" x="219.79" y="48.89" width="25.65" height="1.7"/><rect class="cls-70" x="219.79" y="73.34" width="25.65" height="1.7"/><rect class="cls-71" x="219.79" y="97.78" width="25.65" height="1.7"/><rect class="cls-72" x="219.79" y="122.23" width="25.65" height="1.7"/><rect class="cls-73" x="219.79" y="146.67" width="25.65" height="1.7"/><rect class="cls-74" x="219.79" y="171.12" width="25.65" height="1.7"/><rect class="cls-75" x="219.79" y="195.57" width="25.65" height="1.7"/><rect class="cls-76" x="219.79" y="220.01" width="25.65" height="1.7"/><rect class="cls-77" x="219.79" y="244.46" width="25.65" height="1.7"/><rect class="cls-78" x="219.79" y="268.9" width="25.65" height="1.7"/><rect class="cls-79" x="219.79" y="293.35" width="25.65" height="1.7"/><rect class="cls-80" x="219.79" y="317.8" width="25.65" height="1.7"/><rect class="cls-81" x="219.79" y="342.24" width="25.65" height="1.7"/><rect class="cls-82" x="219.79" y="366.69" width="25.65" height="1.7"/><rect class="cls-83" x="219.79" y="391.13" width="25.65" height="1.7"/><rect class="cls-84" x="219.79" y="415.58" width="25.65" height="1.7"/><rect class="cls-85" x="219.79" y="440.02" width="25.65" height="1.7"/><rect class="cls-86" x="219.79" y="464.47" width="25.65" height="1.7"/><rect class="cls-87" x="219.79" y="488.92" width="25.65" height="1.7"/><rect class="cls-88" x="202.15" y="159.73" width="59.45" height="1.7"/><rect class="cls-89" x="202.15" y="352.99" width="59.45" height="1.7"/><path class="cls-90" d="M368.45,73.8v-5c0-.12,0-.19-.09-.22a.37.37,0,0,0-.18,0,1,1,0,0,0-.64.36l-.37.36-1-1.26a4.54,4.54,0,0,1,3.28-1.45h1.28V73.8Z"/><path class="cls-91" d="M374.57,73.8a3.76,3.76,0,0,1-2.1-.54,2,2,0,0,1-.82-1.81V68.91a2,2,0,0,1,.82-1.81,3.76,3.76,0,0,1,2.1-.54h2.37a3.78,3.78,0,0,1,2.11.54,2,2,0,0,1,.82,1.81v2.54a2,2,0,0,1-.82,1.81,3.78,3.78,0,0,1-2.11.54ZM376.94,72a.62.62,0,0,0,.42-.23.6.6,0,0,0,.22-.4V68.82a.8.8,0,0,0-.64-.63h-2.37a.62.62,0,0,0-.41.22.66.66,0,0,0-.23.41v2.54a.62.62,0,0,0,.23.4.6.6,0,0,0,.41.23Z"/><path class="cls-92" d="M440.13,188.76V186.5a1.47,1.47,0,0,1,1.46-1.54l4.39-.54q.36,0,.36-.36v-.19a.73.73,0,0,0-.18-.54.76.76,0,0,0-.55-.18h-5.48v-1.63h5.94a2.38,2.38,0,0,1,1.73.54,1.74,1.74,0,0,1,.55,1.27v.73c0,1.11-.79,1.78-2.37,2l-3.47.45c-.25,0-.37.15-.37.36v.27h6.21v1.63Z"/><path class="cls-93" d="M452.19,188.76a3.76,3.76,0,0,1-2.1-.54,2,2,0,0,1-.82-1.81v-2.54a2,2,0,0,1,.82-1.81,3.76,3.76,0,0,1,2.1-.54h2.37a3.78,3.78,0,0,1,2.11.54,2,2,0,0,1,.82,1.81v2.54a2,2,0,0,1-.82,1.81,3.78,3.78,0,0,1-2.11.54Zm2.37-1.81a.64.64,0,0,0,.42-.22.62.62,0,0,0,.22-.41v-2.54a.6.6,0,0,0-.22-.4.66.66,0,0,0-.42-.23h-2.37a.64.64,0,0,0-.41.23.62.62,0,0,0-.23.4v2.54a.64.64,0,0,0,.23.41.62.62,0,0,0,.41.22Z"/><path class="cls-94" d="M447.07,315.22a.37.37,0,0,0,.26-.1.35.35,0,0,0,.11-.26v-.54a.36.36,0,0,0-.11-.26.38.38,0,0,0-.26-.11h-5.48v-1.62h6.21a1.64,1.64,0,0,1,1.14.45,1.71,1.71,0,0,1,.51,1.36v.45a1.37,1.37,0,0,1-.35,1c-.23.24-.4.36-.52.37.82.12,1.23.66,1.23,1.63v.18a1.63,1.63,0,0,1-.59,1.36,2.6,2.6,0,0,1-1.6.45h-6v-1.63h5.66a.4.4,0,0,0,.26-.1.36.36,0,0,0,.11-.26V317a.38.38,0,0,0-.11-.25.36.36,0,0,0-.26-.11h-5.48v-1.45Z"/><path class="cls-95" d="M453.65,319.57a3.74,3.74,0,0,1-2.1-.54,2,2,0,0,1-.83-1.82v-2.53a2,2,0,0,1,.83-1.81,3.74,3.74,0,0,1,2.1-.54H456a3.72,3.72,0,0,1,2.1.54,2,2,0,0,1,.83,1.81v2.53a2,2,0,0,1-.83,1.82,3.72,3.72,0,0,1-2.1.54Zm2.37-1.81a.64.64,0,0,0,.41-.23.6.6,0,0,0,.23-.41v-2.53a.6.6,0,0,0-.23-.41A.64.64,0,0,0,456,314h-2.37a.64.64,0,0,0-.41.23.6.6,0,0,0-.23.41v2.53a.6.6,0,0,0,.23.41.64.64,0,0,0,.41.23Z"/><path class="cls-96" d="M372.19,430.44v-5.07a.24.24,0,0,0-.27-.27.64.64,0,0,0-.3.09L369,426.82c-.16.08-.23.17-.23.27a.24.24,0,0,0,.07.2s.12.07.25.07h2.65V429h-3.66a1.48,1.48,0,0,1-1-.41,1.32,1.32,0,0,1-.46-1v-.18a1.71,1.71,0,0,1,.73-1.45l3.2-2.08a3.91,3.91,0,0,1,2.1-.64h1.64v7.25Z"/><path class="cls-97" d="M378.13,430.44a3.69,3.69,0,0,1-2.1-.55,2,2,0,0,1-.82-1.81v-2.53a2,2,0,0,1,.82-1.81,3.77,3.77,0,0,1,2.1-.55h2.38a3.77,3.77,0,0,1,2.1.55,2,2,0,0,1,.82,1.81v2.53a2,2,0,0,1-.82,1.81,3.69,3.69,0,0,1-2.1.55Zm2.38-1.81a.87.87,0,0,0,.64-.64v-2.53a.87.87,0,0,0-.64-.64h-2.38a.87.87,0,0,0-.64.64V428a.87.87,0,0,0,.64.64Z"/><path class="cls-98" d="M219.82,484.09v-1.63H225a1,1,0,0,0,.75-.23.72.72,0,0,0,.21-.5v-.27a.83.83,0,0,0-1-.81H220.1a.33.33,0,0,1-.21-.07.31.31,0,0,1-.07-.21v-3.53h7.86v1.62h-5.57a.37.37,0,0,0-.27.11.39.39,0,0,0-.1.25v0a.4.4,0,0,0,.1.26.41.41,0,0,0,.27.1h3.56a2.56,2.56,0,0,1,1.78.54,2.35,2.35,0,0,1,.59,1.81v.36a2.11,2.11,0,0,1-.59,1.59,2.43,2.43,0,0,1-1.78.59Z"/><path class="cls-99" d="M231.88,484.09a3.69,3.69,0,0,1-2.1-.55,2,2,0,0,1-.82-1.81V479.2a2,2,0,0,1,.82-1.81,3.69,3.69,0,0,1,2.1-.55h2.38a3.69,3.69,0,0,1,2.1.55,2,2,0,0,1,.82,1.81v2.53a2,2,0,0,1-.82,1.81,3.69,3.69,0,0,1-2.1.55Zm2.38-1.81a.87.87,0,0,0,.64-.64v-2.53a.87.87,0,0,0-.64-.64h-2.38a.87.87,0,0,0-.64.64v2.53a.87.87,0,0,0,.64.64Z"/><path class="cls-100" d="M77.22,430.44a2.78,2.78,0,0,1-1.6-.46,1.5,1.5,0,0,1-.68-1.35V425a1.5,1.5,0,0,1,.68-1.36,2.86,2.86,0,0,1,1.6-.46H83v1.63H77.58a.36.36,0,0,0-.26.11.35.35,0,0,0-.1.26v3.44a.35.35,0,0,0,.1.26.4.4,0,0,0,.26.1H81a.4.4,0,0,0,.26-.1.36.36,0,0,0,.11-.26v-.91a.34.34,0,0,0-.11-.25.33.33,0,0,0-.26-.11H77.49v-1.45h3.84a2.22,2.22,0,0,1,1.46.45,1.65,1.65,0,0,1,.55,1.36v.91a1.63,1.63,0,0,1-.55,1.35,2.17,2.17,0,0,1-1.46.46Z"/><path class="cls-101" d="M87.18,430.44a3.64,3.64,0,0,1-2.1-.55,2,2,0,0,1-.83-1.81v-2.53a2,2,0,0,1,.83-1.81,3.72,3.72,0,0,1,2.1-.55h2.37a3.74,3.74,0,0,1,2.1.55,2,2,0,0,1,.83,1.81v2.53a2,2,0,0,1-.83,1.81,3.66,3.66,0,0,1-2.1.55Zm2.37-1.81a.64.64,0,0,0,.41-.23.6.6,0,0,0,.23-.41v-2.53a.6.6,0,0,0-.23-.41.64.64,0,0,0-.41-.23H87.18a.64.64,0,0,0-.41.23.6.6,0,0,0-.23.41V428a.6.6,0,0,0,.23.41.64.64,0,0,0,.41.23Z"/><path class="cls-102" d="M1.1,319.57l4.38-5.43H0v-1.81H8.22v.9a1.78,1.78,0,0,1-.36,1.27l-4.21,5.07Z"/><path class="cls-103" d="M12.06,319.57A3.76,3.76,0,0,1,10,319a2,2,0,0,1-.82-1.82v-2.53a2,2,0,0,1,.82-1.81,3.76,3.76,0,0,1,2.1-.54h2.37a3.78,3.78,0,0,1,2.11.54,2,2,0,0,1,.82,1.81v2.53a2,2,0,0,1-.82,1.82,3.78,3.78,0,0,1-2.11.54Zm2.37-1.81a.66.66,0,0,0,.42-.23.62.62,0,0,0,.22-.41v-2.53a.62.62,0,0,0-.22-.41.66.66,0,0,0-.42-.23H12.06a.87.87,0,0,0-.64.64v2.53a.87.87,0,0,0,.64.64Z"/><path class="cls-104" d="M2.47,188.76a1.42,1.42,0,0,1-1-.45A1.84,1.84,0,0,1,1,187v-.27a1.68,1.68,0,0,1,.35-1.07,1.17,1.17,0,0,1,.88-.47,1.32,1.32,0,0,1-.62-.36,1.25,1.25,0,0,1-.43-1v-.45a1.71,1.71,0,0,1,1.64-1.81H7.4a1.71,1.71,0,0,1,1.65,1.81v.45a1.23,1.23,0,0,1-.44,1,1.3,1.3,0,0,1-.61.36,1.17,1.17,0,0,1,.88.47,1.68,1.68,0,0,1,.35,1.07V187a1.81,1.81,0,0,1-.46,1.36,1.4,1.4,0,0,1-1,.45Zm4-4.34a.42.42,0,0,0,.26-.1.35.35,0,0,0,.1-.26v-.73a.33.33,0,0,0-.1-.25.38.38,0,0,0-.26-.11H3.66a.37.37,0,0,0-.27.11.37.37,0,0,0-.1.25v.73a.4.4,0,0,0,.1.26.41.41,0,0,0,.27.1Zm.18,2.9a.36.36,0,0,0,.26-.11A.33.33,0,0,0,7,187v-.72a.45.45,0,0,0-.12-.25.31.31,0,0,0-.25-.11h-3a.36.36,0,0,0-.27.1.42.42,0,0,0-.1.26V187a.36.36,0,0,0,.1.26.37.37,0,0,0,.27.11Z"/><path class="cls-105" d="M13.07,188.76a3.72,3.72,0,0,1-2.1-.54,2,2,0,0,1-.83-1.81v-2.54a2,2,0,0,1,.83-1.81,3.72,3.72,0,0,1,2.1-.54h2.37a3.76,3.76,0,0,1,2.1.54,2,2,0,0,1,.83,1.81v2.54a2,2,0,0,1-.83,1.81,3.76,3.76,0,0,1-2.1.54ZM15.44,187a.62.62,0,0,0,.41-.22.6.6,0,0,0,.23-.41v-2.54a.58.58,0,0,0-.23-.4.64.64,0,0,0-.41-.23H13.07a.62.62,0,0,0-.41.23.58.58,0,0,0-.23.4v2.54a.84.84,0,0,0,.64.63Z"/><path class="cls-106" d="M86.8,66.56a2.71,2.71,0,0,1,1.57.45A1.74,1.74,0,0,1,89,68.55V70.9a2.73,2.73,0,0,1-.8,2.31,2.89,2.89,0,0,1-1.72.59H81V72.17h4.75a1.48,1.48,0,0,0,.87-.18c.15-.12.23-.42.23-.9V68.73a.57.57,0,0,0-.19-.5.59.59,0,0,0-.36-.13H83.6a1.15,1.15,0,0,0-.59.13.47.47,0,0,0-.23.46v.4a.47.47,0,0,0,.23.38,1,1,0,0,0,.59.17h2.83v1.45H83a2.86,2.86,0,0,1-1.6-.46,1.5,1.5,0,0,1-.68-1.36v-.9A1.59,1.59,0,0,1,81.27,67,2.76,2.76,0,0,1,83,66.56Z"/><path class="cls-107" d="M92.87,73.8a3.76,3.76,0,0,1-2.1-.54A2,2,0,0,1,90,71.45V68.91a2,2,0,0,1,.82-1.81,3.76,3.76,0,0,1,2.1-.54h2.38a3.76,3.76,0,0,1,2.1.54,2,2,0,0,1,.82,1.81v2.54a2,2,0,0,1-.82,1.81,3.76,3.76,0,0,1-2.1.54ZM95.25,72a.6.6,0,0,0,.41-.23.62.62,0,0,0,.23-.4V68.82a.66.66,0,0,0-.23-.41.62.62,0,0,0-.41-.22H92.87a.62.62,0,0,0-.41.22.66.66,0,0,0-.23.41v2.54a.62.62,0,0,0,.23.4.6.6,0,0,0,.41.23Z"/><path class="cls-108" d="M221,24.83v-5c0-.12,0-.19-.08-.22a.41.41,0,0,0-.19-.05,1,1,0,0,0-.64.36l-.37.36-1-1.26A4.54,4.54,0,0,1,222,17.59h1.28v7.24Z"/><path class="cls-109" d="M227.15,24.83a3.76,3.76,0,0,1-2.1-.54,2,2,0,0,1-.82-1.81V19.94a2,2,0,0,1,.82-1.81,3.76,3.76,0,0,1,2.1-.54h2.38a3.76,3.76,0,0,1,2.1.54,2,2,0,0,1,.82,1.81v2.54a2,2,0,0,1-.82,1.81,3.76,3.76,0,0,1-2.1.54ZM229.53,23a.64.64,0,0,0,.41-.23.62.62,0,0,0,.23-.4V19.85a.66.66,0,0,0-.23-.41.62.62,0,0,0-.41-.22h-2.38a.62.62,0,0,0-.41.22.66.66,0,0,0-.23.41v2.54a.62.62,0,0,0,.23.4.64.64,0,0,0,.41.23Z"/><path class="cls-110" d="M236.29,24.83a3.76,3.76,0,0,1-2.1-.54,2,2,0,0,1-.82-1.81V19.94a2,2,0,0,1,.82-1.81,3.76,3.76,0,0,1,2.1-.54h2.37a3.78,3.78,0,0,1,2.11.54,2,2,0,0,1,.82,1.81v2.54a2,2,0,0,1-.82,1.81,3.78,3.78,0,0,1-2.11.54ZM238.66,23a.66.66,0,0,0,.42-.23.6.6,0,0,0,.22-.4V19.85a.8.8,0,0,0-.64-.63h-2.37a.62.62,0,0,0-.41.22.66.66,0,0,0-.23.41v2.54a.62.62,0,0,0,.23.4.64.64,0,0,0,.41.23Z"/><path class="cls-111" d="M229.47,341.24a95.93,95.93,0,1,1,95.93-95.93A96,96,0,0,1,229.47,341.24Zm0-189.55a93.62,93.62,0,1,0,93.62,93.62A93.73,93.73,0,0,0,229.47,151.69Z"/><path class="cls-112" d="M229.47,107.19A138.12,138.12,0,1,0,367.59,245.31,138.11,138.11,0,0,0,229.47,107.19Zm0,267A128.87,128.87,0,1,1,358.34,245.31,128.87,128.87,0,0,1,229.47,374.18Z"/><g class="cls-113"><path class="cls-114" d="M308.75,230.16a75.08,75.08,0,0,0-64.93-63.32v63.32Z"/></g><g class="cls-115"><path class="cls-116" d="M150.2,260.46a75.09,75.09,0,0,0,64.93,63.32V260.46Z"/></g><g class="cls-117"><g class="cls-118"><path class="cls-119" d="M343.78,223.47a108.28,108.28,0,0,0-93.63-91.31v91.31Z"/></g><g class="cls-120"><path class="cls-121" d="M115.17,267.15a108.26,108.26,0,0,0,93.62,91.3v-91.3Z"/></g></g><g class="cls-118"><path class="cls-119" d="M343.78,223.47a108.28,108.28,0,0,0-93.63-91.31v91.31Z"/></g><g class="cls-120"><path class="cls-121" d="M115.17,267.15a108.26,108.26,0,0,0,93.62,91.3v-91.3Z"/></g></g></g></svg>