<svg xmlns="http://www.w3.org/2000/svg" xmlns:xlink="http://www.w3.org/1999/xlink" viewBox="0 0 488.09 488.09"><defs><style>.cls-1{mask:url(#mask);filter:url(#luminosity-noclip-3);}.cls-2,.cls-4{mix-blend-mode:multiply;}.cls-2{fill:url(#radial-gradient);}.cls-3{mask:url(#mask-2);filter:url(#luminosity-noclip-4);}.cls-4{fill:url(#radial-gradient-2);}.cls-5{opacity:0.5;}.cls-6{fill:url(#New_Gradient_Swatch_1);}.cls-7{fill:url(#New_Gradient_Swatch_1-2);}.cls-8{fill:url(#New_Gradient_Swatch_1-3);}.cls-9{fill:url(#New_Gradient_Swatch_1-4);}.cls-10{fill:url(#New_Gradient_Swatch_1-5);}.cls-11{fill:url(#New_Gradient_Swatch_1-6);}.cls-12{mask:url(#mask-3);}.cls-13{fill:url(#New_Gradient_Swatch_1-7);}.cls-14{mask:url(#mask-4);}.cls-15{fill:url(#New_Gradient_Swatch_1-8);}.cls-16{fill:url(#New_Gradient_Swatch_1-9);}.cls-17{fill:url(#New_Gradient_Swatch_1-10);}.cls-18{fill:url(#New_Gradient_Swatch_1-11);}.cls-19{fill:url(#New_Gradient_Swatch_1-12);}.cls-20{fill:url(#New_Gradient_Swatch_1-13);}.cls-21{fill:url(#New_Gradient_Swatch_1-14);}.cls-22{fill:url(#New_Gradient_Swatch_1-15);}.cls-23{fill:url(#New_Gradient_Swatch_1-16);}.cls-24{fill:url(#New_Gradient_Swatch_1-17);}.cls-25{fill:url(#New_Gradient_Swatch_1-18);}.cls-26{fill:url(#New_Gradient_Swatch_1-19);}.cls-27{fill:url(#New_Gradient_Swatch_1-20);}.cls-28{fill:url(#New_Gradient_Swatch_1-21);}.cls-29{fill:url(#New_Gradient_Swatch_1-22);}.cls-30{fill:url(#New_Gradient_Swatch_1-23);}.cls-31{fill:url(#New_Gradient_Swatch_1-24);}.cls-32{fill:url(#New_Gradient_Swatch_1-25);}.cls-33,.cls-34{stroke:#99d4fe;stroke-linecap:round;stroke-linejoin:round;stroke-width:0.77px;}.cls-33{fill:url(#New_Gradient_Swatch_1-26);}.cls-34{fill:url(#New_Gradient_Swatch_1-27);}.cls-35{filter:url(#luminosity-noclip-2);}.cls-36{filter:url(#luminosity-noclip);}</style><filter id="luminosity-noclip" x="215.34" y="-8437.41" width="57.42" height="32766" filterUnits="userSpaceOnUse" color-interpolation-filters="sRGB"><feFlood flood-color="#fff" result="bg"/><feBlend in="SourceGraphic" in2="bg"/></filter><mask id="mask" x="215.34" y="-8437.41" width="57.42" height="32766" maskUnits="userSpaceOnUse"><g class="cls-36"/></mask><radialGradient id="radial-gradient" cx="244.04" cy="244.04" r="28.71" gradientUnits="userSpaceOnUse"><stop offset="0" stop-color="#fff"/><stop offset="0.5" stop-color="#fff"/><stop offset="0.56" stop-color="#d8d8d8"/><stop offset="0.68" stop-color="#8c8c8c"/><stop offset="0.79" stop-color="#505050"/><stop offset="0.89" stop-color="#252525"/><stop offset="0.96" stop-color="#0a0a0a"/><stop offset="1"/></radialGradient><filter id="luminosity-noclip-2" x="219.93" y="-8437.41" width="48.23" height="32766" filterUnits="userSpaceOnUse" color-interpolation-filters="sRGB"><feFlood flood-color="#fff" result="bg"/><feBlend in="SourceGraphic" in2="bg"/></filter><mask id="mask-2" x="219.93" y="-8437.41" width="48.23" height="32766" maskUnits="userSpaceOnUse"><g class="cls-35"/></mask><radialGradient id="radial-gradient-2" cx="244.04" cy="244.04" r="24.12" gradientUnits="userSpaceOnUse"><stop offset="0" stop-color="#fff"/><stop offset="0.57" stop-color="#fff"/><stop offset="0.62" stop-color="#fff"/><stop offset="0.67" stop-color="#d8d8d8"/><stop offset="0.76" stop-color="#8c8c8c"/><stop offset="0.84" stop-color="#505050"/><stop offset="0.91" stop-color="#252525"/><stop offset="0.97" stop-color="#0a0a0a"/><stop offset="1"/></radialGradient><linearGradient id="New_Gradient_Swatch_1" x1="169.74" y1="193.3" x2="233.71" y2="193.3" gradientUnits="userSpaceOnUse"><stop offset="0" stop-color="#cf52fe"/><stop offset="1" stop-color="#19dbb6"/></linearGradient><linearGradient id="New_Gradient_Swatch_1-2" x1="254.38" y1="193.3" x2="318.34" y2="193.3" xlink:href="#New_Gradient_Swatch_1"/><linearGradient id="New_Gradient_Swatch_1-3" x1="169.74" y1="294.79" x2="233.71" y2="294.79" xlink:href="#New_Gradient_Swatch_1"/><linearGradient id="New_Gradient_Swatch_1-4" x1="254.38" y1="294.79" x2="318.35" y2="294.79" xlink:href="#New_Gradient_Swatch_1"/><linearGradient id="New_Gradient_Swatch_1-5" x1="0" y1="244.04" x2="488.09" y2="244.04" xlink:href="#New_Gradient_Swatch_1"/><linearGradient id="New_Gradient_Swatch_1-6" x1="163.09" y1="244.04" x2="325" y2="244.04" xlink:href="#New_Gradient_Swatch_1"/><filter id="luminosity-noclip-3" x="215.34" y="215.34" width="57.42" height="57.42" filterUnits="userSpaceOnUse" color-interpolation-filters="sRGB"><feFlood flood-color="#fff" result="bg"/><feBlend in="SourceGraphic" in2="bg"/></filter><mask id="mask-3" x="215.34" y="215.34" width="57.42" height="57.42" maskUnits="userSpaceOnUse"><g class="cls-1"><path class="cls-2" d="M244,215.34A28.71,28.71,0,1,0,272.75,244,28.7,28.7,0,0,0,244,215.34Zm0,44.78A16.08,16.08,0,1,1,260.12,244,16.08,16.08,0,0,1,244,260.12Z"/></g></mask><linearGradient id="New_Gradient_Swatch_1-7" x1="215.34" y1="244.04" x2="272.75" y2="244.04" xlink:href="#New_Gradient_Swatch_1"/><filter id="luminosity-noclip-4" x="219.93" y="219.93" width="48.23" height="48.23" filterUnits="userSpaceOnUse" color-interpolation-filters="sRGB"><feFlood flood-color="#fff" result="bg"/><feBlend in="SourceGraphic" in2="bg"/></filter><mask id="mask-4" x="219.93" y="219.93" width="48.23" height="48.23" maskUnits="userSpaceOnUse"><g class="cls-3"><path class="cls-4" d="M244,219.93A24.12,24.12,0,1,0,268.16,244,24.12,24.12,0,0,0,244,219.93Zm0,37.62A13.51,13.51,0,1,1,257.55,244,13.51,13.51,0,0,1,244,257.55Z"/></g></mask><linearGradient id="New_Gradient_Swatch_1-8" x1="219.93" y1="244.04" x2="268.16" y2="244.04" xlink:href="#New_Gradient_Swatch_1"/><linearGradient id="New_Gradient_Swatch_1-9" x1="222.89" y1="95.73" x2="265.2" y2="95.73" xlink:href="#New_Gradient_Swatch_1"/><linearGradient id="New_Gradient_Swatch_1-10" x1="222.89" y1="392.36" x2="265.2" y2="392.36" xlink:href="#New_Gradient_Swatch_1"/><linearGradient id="New_Gradient_Swatch_1-11" x1="389.66" y1="244.04" x2="395.05" y2="244.04" xlink:href="#New_Gradient_Swatch_1"/><linearGradient id="New_Gradient_Swatch_1-12" x1="93.04" y1="244.04" x2="98.43" y2="244.04" xlink:href="#New_Gradient_Swatch_1"/><linearGradient id="New_Gradient_Swatch_1-13" x1="235.82" y1="186.04" x2="252.26" y2="186.04" xlink:href="#New_Gradient_Swatch_1"/><linearGradient id="New_Gradient_Swatch_1-14" x1="235.82" y1="302.05" x2="252.26" y2="302.05" xlink:href="#New_Gradient_Swatch_1"/><linearGradient id="New_Gradient_Swatch_1-15" x1="300.33" y1="244.04" x2="303.78" y2="244.04" xlink:href="#New_Gradient_Swatch_1"/><linearGradient id="New_Gradient_Swatch_1-16" x1="184.31" y1="244.04" x2="187.76" y2="244.04" xlink:href="#New_Gradient_Swatch_1"/><linearGradient id="New_Gradient_Swatch_1-17" x1="234.28" y1="244.04" x2="253.81" y2="244.04" xlink:href="#New_Gradient_Swatch_1"/><linearGradient id="New_Gradient_Swatch_1-18" x1="229.89" y1="151.49" x2="258.2" y2="151.49" xlink:href="#New_Gradient_Swatch_1"/><linearGradient id="New_Gradient_Swatch_1-19" x1="229.89" y1="337.12" x2="258.2" y2="337.12" xlink:href="#New_Gradient_Swatch_1"/><linearGradient id="New_Gradient_Swatch_1-20" x1="328.37" y1="244.04" x2="345.68" y2="244.04" xlink:href="#New_Gradient_Swatch_1"/><linearGradient id="New_Gradient_Swatch_1-21" x1="142.41" y1="244.04" x2="160.37" y2="244.04" xlink:href="#New_Gradient_Swatch_1"/><linearGradient id="New_Gradient_Swatch_1-22" x1="266.64" y1="217.61" x2="274.32" y2="217.61" xlink:href="#New_Gradient_Swatch_1"/><linearGradient id="New_Gradient_Swatch_1-23" x1="213.77" y1="270.48" x2="221.45" y2="270.48" xlink:href="#New_Gradient_Swatch_1"/><linearGradient id="New_Gradient_Swatch_1-24" x1="266.64" y1="270.48" x2="274.32" y2="270.48" xlink:href="#New_Gradient_Swatch_1"/><linearGradient id="New_Gradient_Swatch_1-25" x1="213.77" y1="217.61" x2="221.45" y2="217.61" xlink:href="#New_Gradient_Swatch_1"/><linearGradient id="New_Gradient_Swatch_1-26" x1="244.33" y1="173.13" x2="385.62" y2="173.13" xlink:href="#New_Gradient_Swatch_1"/><linearGradient id="New_Gradient_Swatch_1-27" x1="101.93" y1="173.13" x2="243.22" y2="173.13" xlink:href="#New_Gradient_Swatch_1"/></defs><title>circle_03_purple_green</title><g id="Layer_2" data-name="Layer 2"><g id="Layer_1-2" data-name="Layer 1"><g class="cls-5"><path class="cls-6" d="M231.41,166.25l-.38,0a79,79,0,0,0-61.15,51,2.29,2.29,0,0,0,2.16,3.08h8.6a2.29,2.29,0,0,0,2.13-1.42A65.92,65.92,0,0,1,231.83,179a2.31,2.31,0,0,0,1.88-2.26v-8.16a2.3,2.3,0,0,0-2.3-2.3Z"/><path class="cls-7" d="M256.25,179a65.93,65.93,0,0,1,49.07,39.95,2.29,2.29,0,0,0,2.12,1.42h8.61a2.29,2.29,0,0,0,1.88-1,2.33,2.33,0,0,0,.28-2.11,79,79,0,0,0-61.16-51,2.3,2.3,0,0,0-2.67,2.27v8.16A2.31,2.31,0,0,0,256.25,179Z"/><path class="cls-8" d="M231.83,309.12a65.9,65.9,0,0,1-49.06-39.95,2.29,2.29,0,0,0-2.13-1.42H172a2.29,2.29,0,0,0-2.16,3.08,79,79,0,0,0,61.15,51l.38,0a2.3,2.3,0,0,0,2.3-2.3v-8.16A2.31,2.31,0,0,0,231.83,309.12Z"/><path class="cls-9" d="M316.05,267.75h-8.61a2.29,2.29,0,0,0-2.12,1.42,65.93,65.93,0,0,1-49.07,39.95,2.31,2.31,0,0,0-1.87,2.26v8.16a2.3,2.3,0,0,0,2.67,2.27,79,79,0,0,0,61.12-50.88,2.36,2.36,0,0,0,.18-.89A2.29,2.29,0,0,0,316.05,267.75Z"/></g><path class="cls-10" d="M487.52,243.47H422.8a1.7,1.7,0,0,0-1.61-1.15H245.77V68.63A1.72,1.72,0,0,0,244.62,67V.57a.58.58,0,0,0-1.15,0V67a1.72,1.72,0,0,0-1.15,1.62V242.32H66.9a1.7,1.7,0,0,0-1.61,1.15H.57a.58.58,0,0,0,0,1.15H65.29a1.7,1.7,0,0,0,1.61,1.15H242.32V422.91a1.72,1.72,0,0,0,1.15,1.62v63a.58.58,0,0,0,1.15,0v-63a1.72,1.72,0,0,0,1.15-1.62V245.77H421.19a1.7,1.7,0,0,0,1.61-1.15h64.72a.58.58,0,0,0,0-1.15Z"/><path class="cls-11" d="M244,325a81,81,0,1,1,81-81A81,81,0,0,1,244,325Zm0-158.47A77.52,77.52,0,1,0,321.56,244,77.6,77.6,0,0,0,244,166.53Z"/><g class="cls-12"><path class="cls-13" d="M244,215.34A28.71,28.71,0,1,0,272.75,244,28.7,28.7,0,0,0,244,215.34Zm0,44.78A16.08,16.08,0,1,1,260.12,244,16.08,16.08,0,0,1,244,260.12Z"/></g><g class="cls-14"><path class="cls-15" d="M244,219.93A24.12,24.12,0,1,0,268.16,244,24.12,24.12,0,0,0,244,219.93Zm0,37.62A13.51,13.51,0,1,1,257.55,244,13.51,13.51,0,0,1,244,257.55Z"/></g><g class="cls-5"><path class="cls-16" d="M222.89,98.43a15.44,15.44,0,0,1,1.65-.93c.53-.28,1.19-.6,2-.92s1.65-.7,2.63-1A47,47,0,0,1,236,93.78l1.95-.29q1-.17,2-.24A40.16,40.16,0,0,1,244,93c.7,0,1.39,0,2.08,0l2,.13a35.75,35.75,0,0,1,4,.5,29.67,29.67,0,0,1,3.65.8c.58.16,1.14.29,1.67.44l1.53.56c1,.36,1.86.68,2.62,1s1.4.71,1.94,1c1.06.57,1.64.92,1.64.92s-.7-.08-1.87-.27c-.59-.1-1.3-.22-2.09-.38s-1.74-.22-2.72-.38L257,97.18,255.33,97c-1.13-.11-2.31-.25-3.55-.3s-2.49-.19-3.79-.19l-2-.06c-.65,0-1.31,0-2,0-1.32,0-2.63,0-3.92.1s-2.57.18-3.81.22-2.43.19-3.56.32l-3.21.37c-2,.24-3.66.48-4.83.66Z"/><path class="cls-17" d="M265.2,389.66a15.44,15.44,0,0,1-1.65.93c-.53.27-1.19.6-2,.92s-1.65.7-2.63,1a47,47,0,0,1-6.83,1.79l-1.95.29q-1,.16-2,.24a40.31,40.31,0,0,1-4.12.21c-.7,0-1.39,0-2.08,0l-2.05-.13a35.75,35.75,0,0,1-4-.5,29.67,29.67,0,0,1-3.65-.8c-.58-.16-1.14-.29-1.67-.44l-1.53-.56c-1-.36-1.86-.68-2.62-1s-1.4-.71-1.94-1c-1.06-.57-1.64-.92-1.64-.92s.7.07,1.87.27c.58.1,1.3.22,2.09.38s1.74.21,2.72.38l1.53.22,1.66.17c1.13.11,2.31.25,3.55.3s2.49.19,3.79.19l2,.06c.65,0,1.31,0,2,0,1.32,0,2.63-.05,3.92-.1s2.57-.18,3.81-.22,2.43-.19,3.56-.32l3.21-.37c2-.24,3.66-.48,4.83-.66Z"/><path class="cls-18" d="M389.66,222.89a15.44,15.44,0,0,1,.93,1.65c.27.53.6,1.19.92,2s.7,1.65,1,2.63a47,47,0,0,1,1.79,6.83c.09.64.19,1.29.29,1.95s.19,1.33.24,2a40.16,40.16,0,0,1,.21,4.12c0,.7,0,1.39,0,2.08s-.09,1.37-.13,2a35.75,35.75,0,0,1-.5,4,29.67,29.67,0,0,1-.8,3.65c-.16.58-.29,1.14-.44,1.67s-.38,1-.56,1.53c-.36,1-.68,1.86-1,2.62s-.71,1.4-1,1.94c-.57,1.06-.92,1.64-.92,1.64s.07-.7.27-1.87c.1-.59.22-1.3.38-2.09s.21-1.74.38-2.72c.07-.49.15-1,.22-1.53s.11-1.09.17-1.66c.11-1.13.25-2.31.3-3.55s.19-2.49.19-3.79l.06-2c0-.65,0-1.31,0-2,0-1.32-.05-2.63-.1-3.92s-.18-2.57-.22-3.81-.19-2.43-.32-3.56l-.37-3.21c-.24-2-.48-3.66-.66-4.83Z"/><path class="cls-19" d="M98.43,265.2a15.44,15.44,0,0,1-.93-1.65c-.28-.53-.6-1.19-.92-2s-.7-1.65-1-2.63a47,47,0,0,1-1.79-6.83c-.1-.64-.19-1.29-.29-1.95s-.19-1.33-.24-2a40.31,40.31,0,0,1-.21-4.12c0-.7,0-1.39,0-2.08s.09-1.37.13-2.05a35.75,35.75,0,0,1,.5-4,29.67,29.67,0,0,1,.8-3.65c.16-.58.29-1.14.44-1.67s.38-1,.56-1.53c.36-1,.68-1.86,1-2.62s.71-1.4,1-1.94c.57-1.06.92-1.64.92-1.64s-.08.7-.27,1.87c-.1.58-.22,1.3-.38,2.09s-.22,1.74-.38,2.72c-.07.49-.15,1-.22,1.53s-.11,1.09-.17,1.66c-.11,1.13-.25,2.31-.3,3.55s-.19,2.49-.19,3.79l-.06,2c0,.65,0,1.31,0,2,0,1.32,0,2.63.1,3.92s.18,2.57.22,3.81.19,2.43.32,3.56.25,2.22.37,3.21c.24,2,.48,3.66.66,4.83Z"/></g><path class="cls-20" d="M235.82,187.46a4.17,4.17,0,0,1,.58-.56,9.42,9.42,0,0,1,1.71-1.15,13.05,13.05,0,0,1,5.92-1.44,13.41,13.41,0,0,1,1.68.09,10.5,10.5,0,0,1,1.6.29,9.09,9.09,0,0,1,1.45.45,7.9,7.9,0,0,1,1.24.58,8.73,8.73,0,0,1,1.7,1.18,7.63,7.63,0,0,1,.56.56,6.46,6.46,0,0,1-.79.09,7.31,7.31,0,0,1-.86,0c-.33,0-.7.06-1.09.07l-1.23,0c-.44,0-.88,0-1.35,0l-2.87,0c-1,0-2,0-2.9,0s-1.82,0-2.61-.06-1.46-.09-1.95-.14Z"/><path class="cls-21" d="M252.26,300.63a4.34,4.34,0,0,1-.57.56,9.42,9.42,0,0,1-1.71,1.15,13.18,13.18,0,0,1-5.92,1.44,13.41,13.41,0,0,1-1.68-.09,10.5,10.5,0,0,1-1.6-.29,9.09,9.09,0,0,1-1.45-.45,7.5,7.5,0,0,1-1.24-.58,8.3,8.3,0,0,1-1.7-1.19c-.37-.33-.57-.55-.57-.55a6.85,6.85,0,0,1,.8-.09,7.31,7.31,0,0,1,.86,0c.33,0,.7-.06,1.09-.07l1.23,0c.44,0,.88,0,1.35,0l2.87,0c1,0,2,0,2.89,0s1.83,0,2.62.06,1.46.09,1.95.14Z"/><path class="cls-22" d="M300.63,235.82a5,5,0,0,1,.56.58,9.42,9.42,0,0,1,1.15,1.71,13.18,13.18,0,0,1,1.44,5.92,13.41,13.41,0,0,1-.09,1.68,10.5,10.5,0,0,1-.29,1.6,9.09,9.09,0,0,1-.45,1.45,7.9,7.9,0,0,1-.58,1.24,8.3,8.3,0,0,1-1.19,1.7,6.7,6.7,0,0,1-.55.56,6.46,6.46,0,0,1-.09-.79,7.31,7.31,0,0,1,0-.86c0-.33-.06-.7-.07-1.09s0-.8,0-1.23,0-.88,0-1.35c0-.92,0-1.9,0-2.87s0-2,0-2.9,0-1.82.06-2.61.09-1.46.14-1.95S300.63,235.82,300.63,235.82Z"/><path class="cls-23" d="M187.46,252.26a3.69,3.69,0,0,1-.56-.57,9.42,9.42,0,0,1-1.15-1.71,13.05,13.05,0,0,1-1.44-5.92,13.41,13.41,0,0,1,.09-1.68,10.5,10.5,0,0,1,.29-1.6,9.09,9.09,0,0,1,.45-1.45,7.5,7.5,0,0,1,.58-1.24,8.73,8.73,0,0,1,1.18-1.7c.34-.37.56-.57.56-.57a6.85,6.85,0,0,1,.09.8,7.31,7.31,0,0,1,0,.86c0,.33.06.7.07,1.09s0,.8,0,1.23,0,.88,0,1.35c0,.92,0,1.89,0,2.87s0,2,0,2.89,0,1.83-.06,2.62-.09,1.46-.14,1.95S187.46,252.26,187.46,252.26Z"/><circle class="cls-24" cx="244.04" cy="244.04" r="9.76"/><path class="cls-25" d="M255.87,145.1a17,17,0,0,0-1.74-.8l-1-.43-1.12-.35a19.22,19.22,0,0,0-2.46-.62,23.22,23.22,0,0,0-2.69-.38,23.66,23.66,0,0,0-2.8-.11,27.26,27.26,0,0,0-10,2,18.64,18.64,0,0,0-3,1.5,8.38,8.38,0,0,0-1.06.73l4.55-.32,2.93-.17L244,160.57,250.76,146l.76,0c.76,0,1.47.07,2.13.15s1.29.09,1.84.14,1,.11,1.43.15c.8.07,1.28.08,1.28.08s-.37-.29-1.06-.73C256.79,145.65,256.37,145.37,255.87,145.1Z"/><path class="cls-26" d="M250.26,342,244,328.56,237.8,342.1l-1.23-.08c-.76,0-1.47-.07-2.14-.15s-1.28-.09-1.83-.14-1-.11-1.43-.15c-.8-.07-1.28-.08-1.28-.08s.37.29,1.06.73c.35.21.77.49,1.27.76a17,17,0,0,0,1.74.8l1,.43,1.12.35a19.22,19.22,0,0,0,2.46.62,23.22,23.22,0,0,0,2.69.38,23.66,23.66,0,0,0,2.8.11,27.26,27.26,0,0,0,10-1.95,19.06,19.06,0,0,0,3-1.5,8.38,8.38,0,0,0,1.06-.73l-4.55.32Z"/><path class="cls-27" d="M343.73,234a18.64,18.64,0,0,0-1.5-3,8.38,8.38,0,0,0-.73-1.06s.13,1.82.32,4.55c.06,1,.12,2.11.2,3.3L328.37,244l13.73,6.34c0,.39-.06.77-.08,1.14,0,.76-.07,1.47-.15,2.14s-.09,1.28-.14,1.83-.11,1-.15,1.43c-.07.8-.08,1.28-.08,1.28s.29-.37.73-1.06c.21-.35.49-.77.76-1.27a17,17,0,0,0,.8-1.74l.43-1c.12-.36.23-.73.35-1.12a19.22,19.22,0,0,0,.62-2.46,23.22,23.22,0,0,0,.38-2.69,23.66,23.66,0,0,0,.11-2.8A27.26,27.26,0,0,0,343.73,234Z"/><path class="cls-28" d="M146,237.42l.06-.85c0-.76.07-1.47.15-2.14s.09-1.28.14-1.83.11-1,.15-1.43c.07-.8.08-1.28.08-1.28s-.29.37-.73,1.06c-.21.35-.49.77-.76,1.27a17,17,0,0,0-.8,1.74c-.14.32-.28.66-.43,1s-.23.73-.35,1.12a19.22,19.22,0,0,0-.62,2.46,23.22,23.22,0,0,0-.38,2.69,23.66,23.66,0,0,0-.11,2.8,27.26,27.26,0,0,0,2,10,18.64,18.64,0,0,0,1.5,3,8.38,8.38,0,0,0,.73,1.06s-.13-1.82-.32-4.55c-.05-.91-.11-1.93-.18-3l14.28-6.6Z"/><path class="cls-29" d="M274.09,220.42a5.53,5.53,0,0,0-.26-.69c-.05-.13-.1-.26-.16-.4l-.2-.39a6.72,6.72,0,0,0-.51-.84,8.14,8.14,0,0,0-.62-.83,9.11,9.11,0,0,0-.73-.79,10.49,10.49,0,0,0-3.25-2.2,7.86,7.86,0,0,0-1.24-.42,4.57,4.57,0,0,0-.48-.09l1.32,1.15.84.75-2.11,5.73,5.76-2.12.2.22c.19.21.38.42.53.62s.33.37.46.53.25.31.35.43.33.37.33.37,0-.18-.1-.48C274.19,220.82,274.15,220.63,274.09,220.42Z"/><path class="cls-30" d="M219.16,272.3l2-5.33-5.37,2-.31-.36c-.19-.21-.38-.42-.53-.62s-.33-.37-.46-.53-.25-.31-.35-.43-.33-.37-.33-.37l.09.48c0,.15.08.34.14.55a5.53,5.53,0,0,0,.26.69l.15.4.21.39a6.72,6.72,0,0,0,.51.84,8.14,8.14,0,0,0,.62.83,9.11,9.11,0,0,0,.73.79,10.67,10.67,0,0,0,3.25,2.2,7.8,7.8,0,0,0,1.23.42,5,5,0,0,0,.49.09l-1.32-1.15Z"/><path class="cls-31" d="M273.81,268.36a7.86,7.86,0,0,0,.42-1.24,4.57,4.57,0,0,0,.09-.48L273.17,268c-.26.28-.54.6-.84,1l-5.42-2,2,5.45-.33.29c-.21.19-.42.38-.62.53s-.37.33-.53.46L267,274c-.24.2-.37.33-.37.33l.48-.1c.15,0,.34-.07.55-.13a5.53,5.53,0,0,0,.69-.26l.39-.16.4-.2A7.54,7.54,0,0,0,270,273a8.14,8.14,0,0,0,.83-.62,9.11,9.11,0,0,0,.79-.73A10.67,10.67,0,0,0,273.81,268.36Z"/><path class="cls-32" d="M219.25,215.66l.25-.22c.21-.19.42-.38.62-.53s.37-.33.53-.46l.43-.35c.24-.2.37-.33.37-.33l-.48.09-.55.14a5.53,5.53,0,0,0-.69.26l-.4.16-.39.2a6.72,6.72,0,0,0-.84.51,8.14,8.14,0,0,0-.83.62,9.11,9.11,0,0,0-.79.73,10.49,10.49,0,0,0-2.2,3.25,8.16,8.16,0,0,0-.42,1.23,5,5,0,0,0-.09.49l1.15-1.32.77-.86,5.66,2.08Z"/><line class="cls-33" x1="244.33" y1="243.78" x2="385.62" y2="102.49"/><line class="cls-34" x1="243.22" y1="243.78" x2="101.93" y2="102.49"/><line class="cls-33" x1="244.33" y1="243.78" x2="385.62" y2="102.49"/><line class="cls-34" x1="243.22" y1="243.78" x2="101.93" y2="102.49"/></g></g></svg>