<svg xmlns="http://www.w3.org/2000/svg" xmlns:xlink="http://www.w3.org/1999/xlink" viewBox="0 0 493.01 469.96"><defs><style>.cls-1{mask:url(#mask);filter:url(#luminosity-noclip-8);}.cls-10,.cls-2,.cls-4,.cls-6,.cls-8{mix-blend-mode:multiply;}.cls-2{fill:url(#Безымянный_градиент_2);}.cls-11,.cls-3{mask:url(#mask-2);}.cls-4{fill:url(#linear-gradient);}.cls-12,.cls-5{mask:url(#mask-3);}.cls-6{fill:url(#linear-gradient-2);}.cls-7{mask:url(#mask-4);filter:url(#luminosity-noclip-9);}.cls-8{fill:url(#linear-gradient-3);}.cls-9{mask:url(#mask-5);filter:url(#luminosity-noclip-10);}.cls-10{fill:url(#linear-gradient-4);}.cls-11{filter:url(#luminosity-noclip-11);}.cls-12{filter:url(#luminosity-noclip-12);}.cls-13{opacity:0.5;}.cls-14{fill:url(#New_Gradient_Swatch_7);}.cls-15{mask:url(#mask-8);}.cls-16{fill:url(#New_Gradient_Swatch_7-2);}.cls-17{fill:url(#New_Gradient_Swatch_7-3);}.cls-18{fill:url(#New_Gradient_Swatch_7-4);}.cls-19{fill:url(#New_Gradient_Swatch_7-5);}.cls-20{fill:url(#New_Gradient_Swatch_7-6);}.cls-21{fill:url(#New_Gradient_Swatch_7-7);}.cls-22{fill:url(#New_Gradient_Swatch_7-8);}.cls-23{fill:url(#New_Gradient_Swatch_7-9);}.cls-24{fill:url(#New_Gradient_Swatch_7-10);}.cls-25{fill:url(#New_Gradient_Swatch_7-11);}.cls-26{fill:url(#New_Gradient_Swatch_7-12);}.cls-27{fill:url(#New_Gradient_Swatch_7-13);}.cls-28{fill:url(#New_Gradient_Swatch_7-14);}.cls-100,.cls-108,.cls-109,.cls-110,.cls-111,.cls-112,.cls-113,.cls-29,.cls-30,.cls-31,.cls-32,.cls-33,.cls-34,.cls-42,.cls-43,.cls-44,.cls-45,.cls-46,.cls-47,.cls-87,.cls-95,.cls-96,.cls-97,.cls-98,.cls-99{opacity:0.55;}.cls-29{fill:url(#New_Gradient_Swatch_7-15);}.cls-30{fill:url(#New_Gradient_Swatch_7-16);}.cls-31{fill:url(#New_Gradient_Swatch_7-17);}.cls-32{fill:url(#New_Gradient_Swatch_7-18);}.cls-33{fill:url(#New_Gradient_Swatch_7-19);}.cls-34{fill:url(#New_Gradient_Swatch_7-20);}.cls-35{fill:url(#New_Gradient_Swatch_7-21);}.cls-36{fill:url(#New_Gradient_Swatch_7-22);}.cls-37{fill:url(#New_Gradient_Swatch_7-23);}.cls-38{fill:url(#New_Gradient_Swatch_7-24);}.cls-39{fill:url(#New_Gradient_Swatch_7-25);}.cls-40{fill:url(#New_Gradient_Swatch_7-26);}.cls-41{fill:url(#New_Gradient_Swatch_7-27);}.cls-42{fill:url(#New_Gradient_Swatch_7-28);}.cls-43{fill:url(#New_Gradient_Swatch_7-29);}.cls-44{fill:url(#New_Gradient_Swatch_7-30);}.cls-45{fill:url(#New_Gradient_Swatch_7-31);}.cls-46{fill:url(#New_Gradient_Swatch_7-32);}.cls-47{fill:url(#New_Gradient_Swatch_7-33);}.cls-48{fill:url(#New_Gradient_Swatch_7-34);}.cls-49{fill:url(#New_Gradient_Swatch_7-35);}.cls-50{fill:url(#New_Gradient_Swatch_7-36);}.cls-51{fill:url(#New_Gradient_Swatch_7-37);}.cls-52{fill:url(#New_Gradient_Swatch_7-38);}.cls-53{fill:url(#New_Gradient_Swatch_7-39);}.cls-54{fill:url(#New_Gradient_Swatch_7-40);}.cls-55{fill:url(#New_Gradient_Swatch_7-41);}.cls-56{fill:url(#New_Gradient_Swatch_7-42);}.cls-57{fill:url(#New_Gradient_Swatch_7-43);}.cls-58{fill:url(#New_Gradient_Swatch_7-44);}.cls-59{fill:url(#New_Gradient_Swatch_7-45);}.cls-60{fill:url(#New_Gradient_Swatch_7-46);}.cls-127,.cls-128,.cls-129,.cls-130,.cls-61,.cls-62,.cls-63,.cls-64{opacity:0.68;}.cls-61{fill:url(#New_Gradient_Swatch_7-47);}.cls-62{fill:url(#New_Gradient_Swatch_7-48);}.cls-63{fill:url(#New_Gradient_Swatch_7-49);}.cls-64{fill:url(#New_Gradient_Swatch_7-50);}.cls-65{fill:url(#New_Gradient_Swatch_7-51);}.cls-66{fill:url(#New_Gradient_Swatch_7-52);}.cls-67{fill:url(#New_Gradient_Swatch_7-53);}.cls-68{fill:url(#New_Gradient_Swatch_7-54);}.cls-69{fill:url(#New_Gradient_Swatch_7-55);}.cls-70{fill:url(#New_Gradient_Swatch_7-56);}.cls-71{fill:url(#New_Gradient_Swatch_7-57);}.cls-72{fill:url(#New_Gradient_Swatch_7-58);}.cls-73{fill:url(#New_Gradient_Swatch_7-59);}.cls-74{fill:url(#New_Gradient_Swatch_7-60);}.cls-75{fill:url(#New_Gradient_Swatch_7-61);}.cls-76{fill:url(#New_Gradient_Swatch_7-62);}.cls-77{fill:url(#New_Gradient_Swatch_7-63);}.cls-78{fill:url(#New_Gradient_Swatch_7-64);}.cls-79{fill:url(#New_Gradient_Swatch_7-65);}.cls-80{fill:url(#New_Gradient_Swatch_7-66);}.cls-81{fill:url(#New_Gradient_Swatch_7-67);}.cls-82{fill:url(#New_Gradient_Swatch_7-68);}.cls-83{fill:url(#New_Gradient_Swatch_7-69);}.cls-84{fill:url(#New_Gradient_Swatch_7-70);}.cls-85{fill:url(#New_Gradient_Swatch_7-71);}.cls-86{fill:url(#New_Gradient_Swatch_7-72);}.cls-88{fill:url(#New_Gradient_Swatch_7-73);}.cls-89{fill:url(#New_Gradient_Swatch_7-74);}.cls-90{fill:url(#New_Gradient_Swatch_7-75);}.cls-91{fill:url(#New_Gradient_Swatch_7-76);}.cls-92{fill:url(#New_Gradient_Swatch_7-77);}.cls-93{fill:url(#New_Gradient_Swatch_7-78);}.cls-94{fill:url(#New_Gradient_Swatch_7-79);}.cls-95{fill:url(#New_Gradient_Swatch_7-80);}.cls-96{fill:url(#New_Gradient_Swatch_7-81);}.cls-97{fill:url(#New_Gradient_Swatch_7-82);}.cls-98{fill:url(#New_Gradient_Swatch_7-83);}.cls-99{fill:url(#New_Gradient_Swatch_7-84);}.cls-100{fill:url(#New_Gradient_Swatch_7-85);}.cls-101{fill:url(#New_Gradient_Swatch_7-86);}.cls-102{fill:url(#New_Gradient_Swatch_7-87);}.cls-103{fill:url(#New_Gradient_Swatch_7-88);}.cls-104{fill:url(#New_Gradient_Swatch_7-89);}.cls-105{fill:url(#New_Gradient_Swatch_7-90);}.cls-106{fill:url(#New_Gradient_Swatch_7-91);}.cls-107{fill:url(#New_Gradient_Swatch_7-92);}.cls-108{fill:url(#New_Gradient_Swatch_7-93);}.cls-109{fill:url(#New_Gradient_Swatch_7-94);}.cls-110{fill:url(#New_Gradient_Swatch_7-95);}.cls-111{fill:url(#New_Gradient_Swatch_7-96);}.cls-112{fill:url(#New_Gradient_Swatch_7-97);}.cls-113{fill:url(#New_Gradient_Swatch_7-98);}.cls-114{fill:url(#New_Gradient_Swatch_7-99);}.cls-115{fill:url(#New_Gradient_Swatch_7-100);}.cls-116{fill:url(#New_Gradient_Swatch_7-101);}.cls-117{fill:url(#New_Gradient_Swatch_7-102);}.cls-118{fill:url(#New_Gradient_Swatch_7-103);}.cls-119{fill:url(#New_Gradient_Swatch_7-104);}.cls-120{fill:url(#New_Gradient_Swatch_7-105);}.cls-121{fill:url(#New_Gradient_Swatch_7-106);}.cls-122{fill:url(#New_Gradient_Swatch_7-107);}.cls-123{fill:url(#New_Gradient_Swatch_7-108);}.cls-124{fill:url(#New_Gradient_Swatch_7-109);}.cls-125{fill:url(#New_Gradient_Swatch_7-110);}.cls-126{fill:url(#New_Gradient_Swatch_7-111);}.cls-127{fill:url(#New_Gradient_Swatch_7-112);}.cls-128{fill:url(#New_Gradient_Swatch_7-113);}.cls-129{fill:url(#New_Gradient_Swatch_7-114);}.cls-130{fill:url(#New_Gradient_Swatch_7-115);}.cls-131{fill:url(#New_Gradient_Swatch_7-116);}.cls-132{fill:url(#New_Gradient_Swatch_7-117);}.cls-133{fill:url(#New_Gradient_Swatch_7-118);}.cls-134{fill:url(#New_Gradient_Swatch_7-119);}.cls-135{fill:url(#New_Gradient_Swatch_7-120);}.cls-136{fill:url(#New_Gradient_Swatch_7-121);}.cls-137{fill:url(#New_Gradient_Swatch_7-122);}.cls-138{fill:url(#New_Gradient_Swatch_7-123);}.cls-139{fill:url(#New_Gradient_Swatch_7-124);}.cls-140{fill:url(#New_Gradient_Swatch_7-125);}.cls-141{fill:url(#New_Gradient_Swatch_7-126);}.cls-142{fill:url(#New_Gradient_Swatch_7-127);}.cls-143{fill:url(#New_Gradient_Swatch_7-128);}.cls-144{fill:url(#New_Gradient_Swatch_7-129);}.cls-145{fill:url(#New_Gradient_Swatch_7-130);}.cls-146{fill:url(#New_Gradient_Swatch_7-131);}.cls-147{fill:url(#New_Gradient_Swatch_7-132);}.cls-148{fill:url(#New_Gradient_Swatch_7-133);}.cls-149{fill:url(#New_Gradient_Swatch_7-134);}.cls-150{fill:url(#New_Gradient_Swatch_7-135);}.cls-151{fill:url(#New_Gradient_Swatch_7-136);}.cls-152{fill:url(#New_Gradient_Swatch_7-137);}.cls-153{fill:url(#New_Gradient_Swatch_7-138);}.cls-154{fill:url(#New_Gradient_Swatch_7-139);}.cls-155{fill:url(#New_Gradient_Swatch_7-140);}.cls-156{fill:url(#New_Gradient_Swatch_7-141);}.cls-157{fill:url(#New_Gradient_Swatch_7-142);}.cls-158{fill:url(#New_Gradient_Swatch_7-143);}.cls-159{fill:url(#New_Gradient_Swatch_7-144);}.cls-160{fill:url(#New_Gradient_Swatch_7-145);}.cls-161{fill:url(#New_Gradient_Swatch_7-146);}.cls-162{fill:url(#New_Gradient_Swatch_7-147);}.cls-163{fill:url(#New_Gradient_Swatch_7-148);}.cls-164{fill:url(#New_Gradient_Swatch_7-149);}.cls-165{fill:url(#New_Gradient_Swatch_7-150);}.cls-166{fill:url(#New_Gradient_Swatch_7-151);}.cls-167{fill:url(#New_Gradient_Swatch_7-153);}.cls-168,.cls-173,.cls-176,.cls-181{opacity:0.8;}.cls-168{fill:url(#New_Gradient_Swatch_7-155);}.cls-169,.cls-175,.cls-177,.cls-183{opacity:0.6;}.cls-169{fill:url(#New_Gradient_Swatch_7-156);}.cls-170{fill:url(#New_Gradient_Swatch_7-157);}.cls-171,.cls-174,.cls-179,.cls-182,.cls-190{opacity:0.4;}.cls-171{fill:url(#New_Gradient_Swatch_7-158);}.cls-172{fill:url(#New_Gradient_Swatch_7-159);}.cls-173{fill:url(#New_Gradient_Swatch_7-160);}.cls-174{fill:url(#New_Gradient_Swatch_7-161);}.cls-175{fill:url(#New_Gradient_Swatch_7-162);}.cls-176{fill:url(#New_Gradient_Swatch_7-163);}.cls-177{fill:url(#New_Gradient_Swatch_7-164);}.cls-178{fill:url(#New_Gradient_Swatch_7-165);}.cls-179{fill:url(#New_Gradient_Swatch_7-166);}.cls-180{fill:url(#New_Gradient_Swatch_7-167);}.cls-181{fill:url(#New_Gradient_Swatch_7-168);}.cls-182{fill:url(#New_Gradient_Swatch_7-169);}.cls-183{fill:url(#New_Gradient_Swatch_7-170);}.cls-184,.cls-185{opacity:0.1;}.cls-184{fill:url(#New_Gradient_Swatch_7-171);}.cls-185{fill:url(#New_Gradient_Swatch_7-172);}.cls-186{mask:url(#mask-9);}.cls-187{fill:url(#New_Gradient_Swatch_7-174);}.cls-188{mask:url(#mask-10);}.cls-189{fill:url(#New_Gradient_Swatch_7-175);}.cls-191{mask:url(#mask-11);}.cls-192{fill:url(#New_Gradient_Swatch_7-176);}.cls-193{mask:url(#mask-12);}.cls-194{fill:url(#New_Gradient_Swatch_7-177);}.cls-195{filter:url(#luminosity-noclip-5);}.cls-196{filter:url(#luminosity-noclip-4);}.cls-197{filter:url(#luminosity-noclip-3);}.cls-198{filter:url(#luminosity-noclip-2);}.cls-199{filter:url(#luminosity-noclip);}</style><filter id="luminosity-noclip" x="20.64" y="-8427.46" width="453.94" height="32766" filterUnits="userSpaceOnUse" color-interpolation-filters="sRGB"><feFlood flood-color="#fff" result="bg"/><feBlend in="SourceGraphic" in2="bg"/></filter><mask id="mask" x="20.64" y="-8427.46" width="453.94" height="32766" maskUnits="userSpaceOnUse"><g class="cls-199"/></mask><radialGradient id="Безымянный_градиент_2" cx="230.34" cy="332.72" r="257.22" gradientTransform="translate(44.36 -58.87) scale(0.88)" gradientUnits="userSpaceOnUse"><stop offset="0.59" stop-color="#fff"/><stop offset="0.81" stop-color="gray"/><stop offset="0.9" stop-color="#4d4d4d"/><stop offset="1"/></radialGradient><filter id="luminosity-noclip-2" x="268.98" y="-8427.46" width="95.52" height="32766" filterUnits="userSpaceOnUse" color-interpolation-filters="sRGB"><feFlood flood-color="#fff" result="bg"/><feBlend in="SourceGraphic" in2="bg"/></filter><mask id="mask-2" x="268.98" y="-8427.46" width="95.52" height="32766" maskUnits="userSpaceOnUse"><g class="cls-198"/></mask><linearGradient id="linear-gradient" x1="332.59" y1="149.31" x2="269.57" y2="212.33" gradientUnits="userSpaceOnUse"><stop offset="0" stop-color="#fff"/><stop offset="0.03" stop-color="#ededed"/><stop offset="0.14" stop-color="#b6b6b6"/><stop offset="0.26" stop-color="#868686"/><stop offset="0.37" stop-color="#5d5d5d"/><stop offset="0.49" stop-color="#3b3b3b"/><stop offset="0.61" stop-color="#212121"/><stop offset="0.73" stop-color="#0f0f0f"/><stop offset="0.86" stop-color="#040404"/><stop offset="1"/></linearGradient><filter id="luminosity-noclip-3" x="131.26" y="-8427.46" width="95.52" height="32766" filterUnits="userSpaceOnUse" color-interpolation-filters="sRGB"><feFlood flood-color="#fff" result="bg"/><feBlend in="SourceGraphic" in2="bg"/></filter><mask id="mask-3" x="131.26" y="-8427.46" width="95.52" height="32766" maskUnits="userSpaceOnUse"><g class="cls-197"/></mask><linearGradient id="linear-gradient-2" x1="-853.54" y1="-842.26" x2="-916.56" y2="-779.24" gradientTransform="translate(-690.38 -523.52) rotate(180)" xlink:href="#linear-gradient"/><filter id="luminosity-noclip-4" x="262.51" y="-8427.46" width="66.25" height="32766" filterUnits="userSpaceOnUse" color-interpolation-filters="sRGB"><feFlood flood-color="#fff" result="bg"/><feBlend in="SourceGraphic" in2="bg"/></filter><mask id="mask-4" x="262.51" y="-8427.46" width="66.25" height="32766" maskUnits="userSpaceOnUse"><g class="cls-196"/></mask><linearGradient id="linear-gradient-3" x1="306.63" y1="175.27" x2="262.92" y2="218.98" xlink:href="#linear-gradient"/><filter id="luminosity-noclip-5" x="167" y="-8427.46" width="66.25" height="32766" filterUnits="userSpaceOnUse" color-interpolation-filters="sRGB"><feFlood flood-color="#fff" result="bg"/><feBlend in="SourceGraphic" in2="bg"/></filter><mask id="mask-5" x="167" y="-8427.46" width="66.25" height="32766" maskUnits="userSpaceOnUse"><g class="cls-195"/></mask><linearGradient id="linear-gradient-4" x1="-879.5" y1="-816.3" x2="-923.21" y2="-772.59" gradientTransform="translate(-690.38 -523.52) rotate(180)" xlink:href="#linear-gradient"/><linearGradient id="New_Gradient_Swatch_7" x1="38.53" y1="234.72" x2="456.69" y2="234.72" gradientUnits="userSpaceOnUse"><stop offset="0" stop-color="#fcdaff"/><stop offset="1" stop-color="#cf52fe"/></linearGradient><filter id="luminosity-noclip-8" x="20.64" y="7.75" width="453.94" height="453.94" filterUnits="userSpaceOnUse" color-interpolation-filters="sRGB"><feFlood flood-color="#fff" result="bg"/><feBlend in="SourceGraphic" in2="bg"/></filter><mask id="mask-8" x="20.64" y="7.75" width="453.94" height="453.94" maskUnits="userSpaceOnUse"><g class="cls-1"><path class="cls-2" d="M474.58,234.72a227,227,0,0,0-227-227v52A174.94,174.94,0,0,1,422.54,234.72Zm-227,174.92A174.91,174.91,0,0,1,72.69,234.72h-52a227,227,0,0,0,227,227Z"/></g></mask><linearGradient id="New_Gradient_Swatch_7-2" x1="20.64" y1="234.72" x2="474.58" y2="234.72" xlink:href="#New_Gradient_Swatch_7"/><linearGradient id="New_Gradient_Swatch_7-3" x1="161.75" y1="234.72" x2="333.47" y2="234.72" xlink:href="#New_Gradient_Swatch_7"/><linearGradient id="New_Gradient_Swatch_7-4" x1="224.94" y1="234.72" x2="270.28" y2="234.72" xlink:href="#New_Gradient_Swatch_7"/><linearGradient id="New_Gradient_Swatch_7-5" x1="268.07" y1="275.47" x2="270.28" y2="275.47" xlink:href="#New_Gradient_Swatch_7"/><linearGradient id="New_Gradient_Swatch_7-6" x1="224.94" y1="193.72" x2="227.15" y2="193.72" xlink:href="#New_Gradient_Swatch_7"/><linearGradient id="New_Gradient_Swatch_7-7" x1="247.61" y1="213.15" x2="329.6" y2="213.15" xlink:href="#New_Gradient_Swatch_7"/><linearGradient id="New_Gradient_Swatch_7-8" x1="165.62" y1="256.28" x2="247.61" y2="256.28" xlink:href="#New_Gradient_Swatch_7"/><linearGradient id="New_Gradient_Swatch_7-9" x1="204.27" y1="278.72" x2="263.48" y2="278.72" gradientTransform="translate(265.58 -83.74) rotate(45)" xlink:href="#New_Gradient_Swatch_7"/><linearGradient id="New_Gradient_Swatch_7-10" x1="231.41" y1="190.41" x2="290.95" y2="190.41" gradientTransform="translate(211.14 -128.91) rotate(45)" xlink:href="#New_Gradient_Swatch_7"/><linearGradient id="New_Gradient_Swatch_7-11" x1="261.91" y1="248.39" x2="321.45" y2="248.39" gradientTransform="translate(261.07 -133.5) rotate(45)" xlink:href="#New_Gradient_Swatch_7"/><linearGradient id="New_Gradient_Swatch_7-12" x1="173.44" y1="220.91" x2="232.98" y2="220.91" gradientTransform="translate(215.72 -78.99) rotate(45)" xlink:href="#New_Gradient_Swatch_7"/><linearGradient id="New_Gradient_Swatch_7-13" x1="260.12" y1="385.47" x2="444.74" y2="385.47" xlink:href="#New_Gradient_Swatch_7"/><linearGradient id="New_Gradient_Swatch_7-14" x1="268.71" y1="440.06" x2="369.08" y2="440.06" xlink:href="#New_Gradient_Swatch_7"/><linearGradient id="New_Gradient_Swatch_7-15" x1="353.33" y1="426.33" x2="360.35" y2="426.33" xlink:href="#New_Gradient_Swatch_7"/><linearGradient id="New_Gradient_Swatch_7-16" x1="343.14" y1="431.73" x2="350.7" y2="431.73" xlink:href="#New_Gradient_Swatch_7"/><linearGradient id="New_Gradient_Swatch_7-17" x1="332.7" y1="436.61" x2="340.77" y2="436.61" xlink:href="#New_Gradient_Swatch_7"/><linearGradient id="New_Gradient_Swatch_7-18" x1="322.03" y1="440.95" x2="330.58" y2="440.95" xlink:href="#New_Gradient_Swatch_7"/><linearGradient id="New_Gradient_Swatch_7-19" x1="311.16" y1="444.75" x2="320.18" y2="444.75" xlink:href="#New_Gradient_Swatch_7"/><linearGradient id="New_Gradient_Swatch_7-20" x1="300.13" y1="448" x2="309.58" y2="448" xlink:href="#New_Gradient_Swatch_7"/><linearGradient id="New_Gradient_Swatch_7-21" x1="420.5" y1="334.27" x2="447.71" y2="334.27" xlink:href="#New_Gradient_Swatch_7"/><linearGradient id="New_Gradient_Swatch_7-22" x1="248.67" y1="454.05" x2="296.13" y2="454.05" xlink:href="#New_Gradient_Swatch_7"/><linearGradient id="New_Gradient_Swatch_7-23" x1="259.81" y1="411.16" x2="400.17" y2="411.16" xlink:href="#New_Gradient_Swatch_7"/><linearGradient id="New_Gradient_Swatch_7-24" x1="366.58" y1="404.84" x2="398.1" y2="404.84" xlink:href="#New_Gradient_Swatch_7"/><linearGradient id="New_Gradient_Swatch_7-25" x1="246.51" y1="448.68" x2="252.32" y2="448.68" xlink:href="#New_Gradient_Swatch_7"/><linearGradient id="New_Gradient_Swatch_7-26" x1="260.12" y1="84.49" x2="444.74" y2="84.49" xlink:href="#New_Gradient_Swatch_7"/><linearGradient id="New_Gradient_Swatch_7-27" x1="268.71" y1="29.91" x2="369.08" y2="29.91" xlink:href="#New_Gradient_Swatch_7"/><linearGradient id="New_Gradient_Swatch_7-28" x1="353.33" y1="43.63" x2="360.35" y2="43.63" xlink:href="#New_Gradient_Swatch_7"/><linearGradient id="New_Gradient_Swatch_7-29" x1="343.14" y1="38.23" x2="350.7" y2="38.23" xlink:href="#New_Gradient_Swatch_7"/><linearGradient id="New_Gradient_Swatch_7-30" x1="332.7" y1="33.35" x2="340.77" y2="33.35" xlink:href="#New_Gradient_Swatch_7"/><linearGradient id="New_Gradient_Swatch_7-31" x1="322.03" y1="29.01" x2="330.58" y2="29.01" xlink:href="#New_Gradient_Swatch_7"/><linearGradient id="New_Gradient_Swatch_7-32" x1="311.16" y1="25.21" x2="320.18" y2="25.21" xlink:href="#New_Gradient_Swatch_7"/><linearGradient id="New_Gradient_Swatch_7-33" x1="300.13" y1="21.96" x2="309.58" y2="21.96" xlink:href="#New_Gradient_Swatch_7"/><linearGradient id="New_Gradient_Swatch_7-34" x1="420.5" y1="135.7" x2="447.71" y2="135.7" xlink:href="#New_Gradient_Swatch_7"/><linearGradient id="New_Gradient_Swatch_7-35" x1="248.67" y1="15.91" x2="296.13" y2="15.91" xlink:href="#New_Gradient_Swatch_7"/><linearGradient id="New_Gradient_Swatch_7-36" x1="259.81" y1="58.8" x2="400.17" y2="58.8" xlink:href="#New_Gradient_Swatch_7"/><linearGradient id="New_Gradient_Swatch_7-37" x1="366.58" y1="65.12" x2="398.1" y2="65.12" xlink:href="#New_Gradient_Swatch_7"/><linearGradient id="New_Gradient_Swatch_7-38" x1="246.51" y1="21.28" x2="252.32" y2="21.28" xlink:href="#New_Gradient_Swatch_7"/><linearGradient id="New_Gradient_Swatch_7-39" x1="468.78" y1="232.21" x2="484.02" y2="232.21" xlink:href="#New_Gradient_Swatch_7"/><linearGradient id="New_Gradient_Swatch_7-40" x1="475.43" y1="223.51" x2="483.91" y2="223.51" xlink:href="#New_Gradient_Swatch_7"/><linearGradient id="New_Gradient_Swatch_7-41" x1="475.55" y1="241.35" x2="484.11" y2="241.35" xlink:href="#New_Gradient_Swatch_7"/><linearGradient id="New_Gradient_Swatch_7-42" x1="479.69" y1="232.2" x2="488.8" y2="232.2" xlink:href="#New_Gradient_Swatch_7"/><linearGradient id="New_Gradient_Swatch_7-43" x1="468.33" y1="251.39" x2="482.75" y2="251.39" xlink:href="#New_Gradient_Swatch_7"/><linearGradient id="New_Gradient_Swatch_7-44" x1="467.65" y1="259.92" x2="481.99" y2="259.92" xlink:href="#New_Gradient_Swatch_7"/><linearGradient id="New_Gradient_Swatch_7-45" x1="466.61" y1="268.43" x2="480.87" y2="268.43" xlink:href="#New_Gradient_Swatch_7"/><linearGradient id="New_Gradient_Swatch_7-46" x1="465.24" y1="276.89" x2="479.39" y2="276.89" xlink:href="#New_Gradient_Swatch_7"/><linearGradient id="New_Gradient_Swatch_7-47" x1="463.61" y1="285.3" x2="477.61" y2="285.3" xlink:href="#New_Gradient_Swatch_7"/><linearGradient id="New_Gradient_Swatch_7-48" x1="461.7" y1="293.62" x2="475.55" y2="293.62" xlink:href="#New_Gradient_Swatch_7"/><linearGradient id="New_Gradient_Swatch_7-49" x1="459.44" y1="301.87" x2="473.13" y2="301.87" xlink:href="#New_Gradient_Swatch_7"/><linearGradient id="New_Gradient_Swatch_7-50" x1="457" y1="309.61" x2="470.51" y2="309.61" xlink:href="#New_Gradient_Swatch_7"/><linearGradient id="New_Gradient_Swatch_7-51" x1="467.98" y1="213.81" x2="482.37" y2="213.81" xlink:href="#New_Gradient_Swatch_7"/><linearGradient id="New_Gradient_Swatch_7-52" x1="467.07" y1="205.29" x2="481.37" y2="205.29" xlink:href="#New_Gradient_Swatch_7"/><linearGradient id="New_Gradient_Swatch_7-53" x1="465.89" y1="196.81" x2="480.08" y2="196.81" xlink:href="#New_Gradient_Swatch_7"/><linearGradient id="New_Gradient_Swatch_7-54" x1="464.43" y1="188.39" x2="478.49" y2="188.39" xlink:href="#New_Gradient_Swatch_7"/><linearGradient id="New_Gradient_Swatch_7-55" x1="462.57" y1="180.02" x2="476.5" y2="180.02" xlink:href="#New_Gradient_Swatch_7"/><linearGradient id="New_Gradient_Swatch_7-56" x1="460.44" y1="171.72" x2="474.2" y2="171.72" xlink:href="#New_Gradient_Swatch_7"/><linearGradient id="New_Gradient_Swatch_7-57" x1="458.04" y1="163.53" x2="471.61" y2="163.53" xlink:href="#New_Gradient_Swatch_7"/><linearGradient id="New_Gradient_Swatch_7-58" x1="455.42" y1="155.58" x2="468.79" y2="155.58" xlink:href="#New_Gradient_Swatch_7"/><linearGradient id="New_Gradient_Swatch_7-59" x1="464.95" y1="287.05" x2="485.57" y2="287.05" xlink:href="#New_Gradient_Swatch_7"/><linearGradient id="New_Gradient_Swatch_7-60" x1="483.8" y1="259.47" x2="486.92" y2="259.47" xlink:href="#New_Gradient_Swatch_7"/><linearGradient id="New_Gradient_Swatch_7-61" x1="462.86" y1="177.7" x2="485.19" y2="177.7" xlink:href="#New_Gradient_Swatch_7"/><linearGradient id="New_Gradient_Swatch_7-62" x1="483.14" y1="205.53" x2="486.53" y2="205.53" xlink:href="#New_Gradient_Swatch_7"/><linearGradient id="New_Gradient_Swatch_7-63" x1="454.34" y1="167.68" x2="492.49" y2="167.68" xlink:href="#New_Gradient_Swatch_7"/><linearGradient id="New_Gradient_Swatch_7-64" x1="425.06" y1="101.78" x2="465.35" y2="101.78" xlink:href="#New_Gradient_Swatch_7"/><linearGradient id="New_Gradient_Swatch_7-65" x1="409.8" y1="109.11" x2="463.1" y2="109.11" xlink:href="#New_Gradient_Swatch_7"/><linearGradient id="New_Gradient_Swatch_7-66" x1="413.95" y1="101.16" x2="438.6" y2="101.16" xlink:href="#New_Gradient_Swatch_7"/><linearGradient id="New_Gradient_Swatch_7-67" x1="448.73" y1="146.83" x2="461.77" y2="146.83" xlink:href="#New_Gradient_Swatch_7"/><linearGradient id="New_Gradient_Swatch_7-68" x1="457.1" y1="296.46" x2="493.01" y2="296.46" xlink:href="#New_Gradient_Swatch_7"/><linearGradient id="New_Gradient_Swatch_7-69" x1="429.1" y1="363.02" x2="467.99" y2="363.02" xlink:href="#New_Gradient_Swatch_7"/><linearGradient id="New_Gradient_Swatch_7-70" x1="413.8" y1="355.95" x2="465.49" y2="355.95" xlink:href="#New_Gradient_Swatch_7"/><linearGradient id="New_Gradient_Swatch_7-71" x1="417.71" y1="364.11" x2="441.63" y2="364.11" xlink:href="#New_Gradient_Swatch_7"/><linearGradient id="New_Gradient_Swatch_7-72" x1="451.1" y1="317.84" x2="464.03" y2="317.84" xlink:href="#New_Gradient_Swatch_7"/><linearGradient id="New_Gradient_Swatch_7-73" x1="407" y1="227.84" x2="450.26" y2="227.84" xlink:href="#New_Gradient_Swatch_7"/><linearGradient id="New_Gradient_Swatch_7-74" x1="422.51" y1="271.87" x2="442.39" y2="271.87" xlink:href="#New_Gradient_Swatch_7"/><linearGradient id="New_Gradient_Swatch_7-75" x1="411.18" y1="174.19" x2="441.45" y2="174.19" xlink:href="#New_Gradient_Swatch_7"/><linearGradient id="New_Gradient_Swatch_7-76" x1="429.83" y1="220.99" x2="438.38" y2="220.99" xlink:href="#New_Gradient_Swatch_7"/><linearGradient id="New_Gradient_Swatch_7-77" x1="425.03" y1="223.05" x2="433.26" y2="223.05" xlink:href="#New_Gradient_Swatch_7"/><linearGradient id="New_Gradient_Swatch_7-78" x1="48.27" y1="84.49" x2="232.89" y2="84.49" xlink:href="#New_Gradient_Swatch_7"/><linearGradient id="New_Gradient_Swatch_7-79" x1="123.93" y1="29.91" x2="224.31" y2="29.91" xlink:href="#New_Gradient_Swatch_7"/><linearGradient id="New_Gradient_Swatch_7-80" x1="132.66" y1="43.63" x2="139.69" y2="43.63" xlink:href="#New_Gradient_Swatch_7"/><linearGradient id="New_Gradient_Swatch_7-81" x1="142.31" y1="38.23" x2="149.87" y2="38.23" xlink:href="#New_Gradient_Swatch_7"/><linearGradient id="New_Gradient_Swatch_7-82" x1="152.25" y1="33.35" x2="160.31" y2="33.35" xlink:href="#New_Gradient_Swatch_7"/><linearGradient id="New_Gradient_Swatch_7-83" x1="162.43" y1="29.01" x2="170.98" y2="29.01" xlink:href="#New_Gradient_Swatch_7"/><linearGradient id="New_Gradient_Swatch_7-84" x1="172.84" y1="25.21" x2="181.85" y2="25.21" xlink:href="#New_Gradient_Swatch_7"/><linearGradient id="New_Gradient_Swatch_7-85" x1="183.43" y1="21.96" x2="192.88" y2="21.96" xlink:href="#New_Gradient_Swatch_7"/><linearGradient id="New_Gradient_Swatch_7-86" x1="45.3" y1="135.7" x2="72.52" y2="135.7" xlink:href="#New_Gradient_Swatch_7"/><linearGradient id="New_Gradient_Swatch_7-87" x1="196.89" y1="15.91" x2="244.35" y2="15.91" xlink:href="#New_Gradient_Swatch_7"/><linearGradient id="New_Gradient_Swatch_7-88" x1="92.84" y1="58.8" x2="233.21" y2="58.8" xlink:href="#New_Gradient_Swatch_7"/><linearGradient id="New_Gradient_Swatch_7-89" x1="94.91" y1="65.12" x2="126.43" y2="65.12" xlink:href="#New_Gradient_Swatch_7"/><linearGradient id="New_Gradient_Swatch_7-90" x1="240.7" y1="21.28" x2="246.51" y2="21.28" xlink:href="#New_Gradient_Swatch_7"/><linearGradient id="New_Gradient_Swatch_7-91" x1="48.27" y1="385.47" x2="232.89" y2="385.47" xlink:href="#New_Gradient_Swatch_7"/><linearGradient id="New_Gradient_Swatch_7-92" x1="123.93" y1="440.06" x2="224.31" y2="440.06" xlink:href="#New_Gradient_Swatch_7"/><linearGradient id="New_Gradient_Swatch_7-93" x1="132.66" y1="426.33" x2="139.69" y2="426.33" xlink:href="#New_Gradient_Swatch_7"/><linearGradient id="New_Gradient_Swatch_7-94" x1="142.31" y1="431.73" x2="149.87" y2="431.73" xlink:href="#New_Gradient_Swatch_7"/><linearGradient id="New_Gradient_Swatch_7-95" x1="152.25" y1="436.61" x2="160.31" y2="436.61" xlink:href="#New_Gradient_Swatch_7"/><linearGradient id="New_Gradient_Swatch_7-96" x1="162.43" y1="440.95" x2="170.98" y2="440.95" xlink:href="#New_Gradient_Swatch_7"/><linearGradient id="New_Gradient_Swatch_7-97" x1="172.84" y1="444.75" x2="181.85" y2="444.75" xlink:href="#New_Gradient_Swatch_7"/><linearGradient id="New_Gradient_Swatch_7-98" x1="183.43" y1="448" x2="192.88" y2="448" xlink:href="#New_Gradient_Swatch_7"/><linearGradient id="New_Gradient_Swatch_7-99" x1="45.3" y1="334.27" x2="72.52" y2="334.27" xlink:href="#New_Gradient_Swatch_7"/><linearGradient id="New_Gradient_Swatch_7-100" x1="196.89" y1="454.05" x2="244.35" y2="454.05" xlink:href="#New_Gradient_Swatch_7"/><linearGradient id="New_Gradient_Swatch_7-101" x1="92.84" y1="411.16" x2="233.21" y2="411.16" xlink:href="#New_Gradient_Swatch_7"/><linearGradient id="New_Gradient_Swatch_7-102" x1="94.91" y1="404.84" x2="126.43" y2="404.84" xlink:href="#New_Gradient_Swatch_7"/><linearGradient id="New_Gradient_Swatch_7-103" x1="240.7" y1="448.68" x2="246.51" y2="448.68" xlink:href="#New_Gradient_Swatch_7"/><linearGradient id="New_Gradient_Swatch_7-104" x1="8.99" y1="237.75" x2="24.23" y2="237.75" xlink:href="#New_Gradient_Swatch_7"/><linearGradient id="New_Gradient_Swatch_7-105" x1="9.11" y1="246.45" x2="17.59" y2="246.45" xlink:href="#New_Gradient_Swatch_7"/><linearGradient id="New_Gradient_Swatch_7-106" x1="8.9" y1="228.61" x2="17.46" y2="228.61" xlink:href="#New_Gradient_Swatch_7"/><linearGradient id="New_Gradient_Swatch_7-107" x1="4.21" y1="237.76" x2="13.32" y2="237.76" xlink:href="#New_Gradient_Swatch_7"/><linearGradient id="New_Gradient_Swatch_7-108" x1="10.27" y1="218.57" x2="24.68" y2="218.57" xlink:href="#New_Gradient_Swatch_7"/><linearGradient id="New_Gradient_Swatch_7-109" x1="11.03" y1="210.04" x2="25.36" y2="210.04" xlink:href="#New_Gradient_Swatch_7"/><linearGradient id="New_Gradient_Swatch_7-110" x1="12.14" y1="201.53" x2="26.41" y2="201.53" xlink:href="#New_Gradient_Swatch_7"/><linearGradient id="New_Gradient_Swatch_7-111" x1="13.62" y1="193.07" x2="27.77" y2="193.07" xlink:href="#New_Gradient_Swatch_7"/><linearGradient id="New_Gradient_Swatch_7-112" x1="15.4" y1="184.66" x2="29.4" y2="184.66" xlink:href="#New_Gradient_Swatch_7"/><linearGradient id="New_Gradient_Swatch_7-113" x1="17.47" y1="176.34" x2="31.31" y2="176.34" xlink:href="#New_Gradient_Swatch_7"/><linearGradient id="New_Gradient_Swatch_7-114" x1="19.89" y1="168.09" x2="33.58" y2="168.09" xlink:href="#New_Gradient_Swatch_7"/><linearGradient id="New_Gradient_Swatch_7-115" x1="22.51" y1="160.35" x2="36.01" y2="160.35" xlink:href="#New_Gradient_Swatch_7"/><linearGradient id="New_Gradient_Swatch_7-116" x1="10.64" y1="256.15" x2="25.03" y2="256.15" xlink:href="#New_Gradient_Swatch_7"/><linearGradient id="New_Gradient_Swatch_7-117" x1="11.64" y1="264.67" x2="25.94" y2="264.67" xlink:href="#New_Gradient_Swatch_7"/><linearGradient id="New_Gradient_Swatch_7-118" x1="12.94" y1="273.15" x2="27.12" y2="273.15" xlink:href="#New_Gradient_Swatch_7"/><linearGradient id="New_Gradient_Swatch_7-119" x1="14.52" y1="281.58" x2="28.58" y2="281.58" xlink:href="#New_Gradient_Swatch_7"/><linearGradient id="New_Gradient_Swatch_7-120" x1="16.51" y1="289.94" x2="30.44" y2="289.94" xlink:href="#New_Gradient_Swatch_7"/><linearGradient id="New_Gradient_Swatch_7-121" x1="18.81" y1="298.24" x2="32.57" y2="298.24" xlink:href="#New_Gradient_Swatch_7"/><linearGradient id="New_Gradient_Swatch_7-122" x1="21.4" y1="306.44" x2="34.97" y2="306.44" xlink:href="#New_Gradient_Swatch_7"/><linearGradient id="New_Gradient_Swatch_7-123" x1="24.22" y1="314.38" x2="37.59" y2="314.38" xlink:href="#New_Gradient_Swatch_7"/><linearGradient id="New_Gradient_Swatch_7-124" x1="7.44" y1="182.91" x2="28.06" y2="182.91" xlink:href="#New_Gradient_Swatch_7"/><linearGradient id="New_Gradient_Swatch_7-125" x1="6.1" y1="210.5" x2="9.22" y2="210.5" xlink:href="#New_Gradient_Swatch_7"/><linearGradient id="New_Gradient_Swatch_7-126" x1="7.82" y1="292.26" x2="30.15" y2="292.26" xlink:href="#New_Gradient_Swatch_7"/><linearGradient id="New_Gradient_Swatch_7-127" x1="6.48" y1="264.43" x2="9.87" y2="264.43" xlink:href="#New_Gradient_Swatch_7"/><linearGradient id="New_Gradient_Swatch_7-128" x1="0.52" y1="302.28" x2="38.67" y2="302.28" xlink:href="#New_Gradient_Swatch_7"/><linearGradient id="New_Gradient_Swatch_7-129" x1="27.67" y1="368.19" x2="67.96" y2="368.19" xlink:href="#New_Gradient_Swatch_7"/><linearGradient id="New_Gradient_Swatch_7-130" x1="29.91" y1="360.85" x2="83.22" y2="360.85" xlink:href="#New_Gradient_Swatch_7"/><linearGradient id="New_Gradient_Swatch_7-131" x1="54.41" y1="368.81" x2="79.06" y2="368.81" xlink:href="#New_Gradient_Swatch_7"/><linearGradient id="New_Gradient_Swatch_7-132" x1="31.24" y1="323.13" x2="44.28" y2="323.13" xlink:href="#New_Gradient_Swatch_7"/><linearGradient id="New_Gradient_Swatch_7-133" x1="0" y1="173.5" x2="35.91" y2="173.5" xlink:href="#New_Gradient_Swatch_7"/><linearGradient id="New_Gradient_Swatch_7-134" x1="25.03" y1="106.94" x2="63.91" y2="106.94" xlink:href="#New_Gradient_Swatch_7"/><linearGradient id="New_Gradient_Swatch_7-135" x1="27.53" y1="114.02" x2="79.21" y2="114.02" xlink:href="#New_Gradient_Swatch_7"/><linearGradient id="New_Gradient_Swatch_7-136" x1="51.38" y1="105.86" x2="75.31" y2="105.86" xlink:href="#New_Gradient_Swatch_7"/><linearGradient id="New_Gradient_Swatch_7-137" x1="28.98" y1="152.12" x2="41.92" y2="152.12" xlink:href="#New_Gradient_Swatch_7"/><linearGradient id="New_Gradient_Swatch_7-138" x1="42.75" y1="242.13" x2="86.01" y2="242.13" xlink:href="#New_Gradient_Swatch_7"/><linearGradient id="New_Gradient_Swatch_7-139" x1="50.63" y1="198.09" x2="70.5" y2="198.09" xlink:href="#New_Gradient_Swatch_7"/><linearGradient id="New_Gradient_Swatch_7-140" x1="51.56" y1="295.77" x2="81.84" y2="295.77" xlink:href="#New_Gradient_Swatch_7"/><linearGradient id="New_Gradient_Swatch_7-141" x1="54.64" y1="248.98" x2="63.19" y2="248.98" xlink:href="#New_Gradient_Swatch_7"/><linearGradient id="New_Gradient_Swatch_7-142" x1="59.75" y1="246.91" x2="67.98" y2="246.91" xlink:href="#New_Gradient_Swatch_7"/><linearGradient id="New_Gradient_Swatch_7-143" x1="237.57" y1="361.2" x2="258.19" y2="361.2" xlink:href="#New_Gradient_Swatch_7"/><linearGradient id="New_Gradient_Swatch_7-144" x1="237.57" y1="112.4" x2="258.19" y2="112.4" xlink:href="#New_Gradient_Swatch_7"/><linearGradient id="New_Gradient_Swatch_7-145" x1="50.6" y1="233.26" x2="196.35" y2="233.26" xlink:href="#New_Gradient_Swatch_7"/><linearGradient id="New_Gradient_Swatch_7-146" x1="299.41" y1="233.26" x2="445.16" y2="233.26" xlink:href="#New_Gradient_Swatch_7"/><linearGradient id="New_Gradient_Swatch_7-147" x1="150" y1="234.02" x2="345.75" y2="234.02" xlink:href="#New_Gradient_Swatch_7"/><linearGradient id="New_Gradient_Swatch_7-148" x1="234.61" y1="234.02" x2="261.14" y2="234.02" xlink:href="#New_Gradient_Swatch_7"/><linearGradient id="New_Gradient_Swatch_7-149" x1="246.7" y1="234.02" x2="249.06" y2="234.02" xlink:href="#New_Gradient_Swatch_7"/><linearGradient id="New_Gradient_Swatch_7-150" x1="190.69" y1="234.02" x2="305.07" y2="234.02" xlink:href="#New_Gradient_Swatch_7"/><linearGradient id="New_Gradient_Swatch_7-151" x1="245.52" y1="234.02" x2="250.24" y2="234.02" xlink:href="#New_Gradient_Swatch_7"/><linearGradient id="New_Gradient_Swatch_7-153" x1="205.43" y1="234.02" x2="290.33" y2="234.02" xlink:href="#New_Gradient_Swatch_7"/><linearGradient id="New_Gradient_Swatch_7-155" x1="140.38" y1="171.21" x2="164.71" y2="171.21" xlink:href="#New_Gradient_Swatch_7"/><linearGradient id="New_Gradient_Swatch_7-156" x1="169.06" y1="139.6" x2="197.52" y2="139.6" xlink:href="#New_Gradient_Swatch_7"/><linearGradient id="New_Gradient_Swatch_7-157" x1="129.81" y1="212.16" x2="142.13" y2="212.16" xlink:href="#New_Gradient_Swatch_7"/><linearGradient id="New_Gradient_Swatch_7-158" x1="206.79" y1="122.76" x2="241.28" y2="122.76" xlink:href="#New_Gradient_Swatch_7"/><linearGradient id="New_Gradient_Swatch_7-159" x1="353.62" y1="255.88" x2="365.94" y2="255.88" xlink:href="#New_Gradient_Swatch_7"/><linearGradient id="New_Gradient_Swatch_7-160" x1="331.04" y1="296.84" x2="355.38" y2="296.84" xlink:href="#New_Gradient_Swatch_7"/><linearGradient id="New_Gradient_Swatch_7-161" x1="254.47" y1="345.28" x2="288.96" y2="345.28" xlink:href="#New_Gradient_Swatch_7"/><linearGradient id="New_Gradient_Swatch_7-162" x1="298.22" y1="328.44" x2="326.7" y2="328.44" xlink:href="#New_Gradient_Swatch_7"/><linearGradient id="New_Gradient_Swatch_7-163" x1="94.21" y1="144.24" x2="129" y2="144.24" xlink:href="#New_Gradient_Swatch_7"/><linearGradient id="New_Gradient_Swatch_7-164" x1="135.2" y1="99.05" x2="175.9" y2="99.05" xlink:href="#New_Gradient_Swatch_7"/><linearGradient id="New_Gradient_Swatch_7-165" x1="79.11" y1="202.78" x2="96.72" y2="202.78" xlink:href="#New_Gradient_Swatch_7"/><linearGradient id="New_Gradient_Swatch_7-166" x1="189.14" y1="74.98" x2="238.45" y2="74.98" xlink:href="#New_Gradient_Swatch_7"/><linearGradient id="New_Gradient_Swatch_7-167" x1="399.03" y1="265.27" x2="416.65" y2="265.27" xlink:href="#New_Gradient_Swatch_7"/><linearGradient id="New_Gradient_Swatch_7-168" x1="366.75" y1="323.81" x2="401.55" y2="323.81" xlink:href="#New_Gradient_Swatch_7"/><linearGradient id="New_Gradient_Swatch_7-169" x1="257.3" y1="393.06" x2="306.61" y2="393.06" xlink:href="#New_Gradient_Swatch_7"/><linearGradient id="New_Gradient_Swatch_7-170" x1="319.85" y1="369" x2="360.55" y2="369" xlink:href="#New_Gradient_Swatch_7"/><linearGradient id="New_Gradient_Swatch_7-171" x1="204.84" y1="234.02" x2="290.92" y2="234.02" xlink:href="#New_Gradient_Swatch_7"/><linearGradient id="New_Gradient_Swatch_7-172" x1="106.96" y1="234.02" x2="388.79" y2="234.02" xlink:href="#New_Gradient_Swatch_7"/><filter id="luminosity-noclip-9" x="262.51" y="153.97" width="66.25" height="64.6" filterUnits="userSpaceOnUse" color-interpolation-filters="sRGB"><feFlood flood-color="#fff" result="bg"/><feBlend in="SourceGraphic" in2="bg"/></filter><mask id="mask-9" x="262.51" y="153.97" width="66.25" height="64.6" maskUnits="userSpaceOnUse"><g class="cls-7"><path class="cls-8" d="M328.76,218.57A76.59,76.59,0,0,0,262.51,154v64.6Z"/></g></mask><linearGradient id="New_Gradient_Swatch_7-174" x1="262.51" y1="186.27" x2="328.76" y2="186.27" xlink:href="#New_Gradient_Swatch_7"/><filter id="luminosity-noclip-10" x="167" y="249.48" width="66.25" height="64.6" filterUnits="userSpaceOnUse" color-interpolation-filters="sRGB"><feFlood flood-color="#fff" result="bg"/><feBlend in="SourceGraphic" in2="bg"/></filter><mask id="mask-10" x="167" y="249.48" width="66.25" height="64.6" maskUnits="userSpaceOnUse"><g class="cls-9"><path class="cls-10" d="M167,249.48a76.59,76.59,0,0,0,66.24,64.6v-64.6Z"/></g></mask><linearGradient id="New_Gradient_Swatch_7-175" x1="167" y1="281.78" x2="233.24" y2="281.78" xlink:href="#New_Gradient_Swatch_7"/><filter id="luminosity-noclip-11" x="268.98" y="118.59" width="95.52" height="93.15" filterUnits="userSpaceOnUse" color-interpolation-filters="sRGB"><feFlood flood-color="#fff" result="bg"/><feBlend in="SourceGraphic" in2="bg"/></filter><mask id="mask-11" x="268.98" y="118.59" width="95.52" height="93.15" maskUnits="userSpaceOnUse"><g class="cls-11"><path class="cls-4" d="M364.5,211.74A110.46,110.46,0,0,0,269,118.59v93.15Z"/></g></mask><linearGradient id="New_Gradient_Swatch_7-176" x1="268.98" y1="165.16" x2="364.5" y2="165.16" xlink:href="#New_Gradient_Swatch_7"/><filter id="luminosity-noclip-12" x="131.26" y="256.31" width="95.52" height="93.15" filterUnits="userSpaceOnUse" color-interpolation-filters="sRGB"><feFlood flood-color="#fff" result="bg"/><feBlend in="SourceGraphic" in2="bg"/></filter><mask id="mask-12" x="131.26" y="256.31" width="95.52" height="93.15" maskUnits="userSpaceOnUse"><g class="cls-12"><path class="cls-6" d="M131.26,256.31a110.47,110.47,0,0,0,95.52,93.15V256.31Z"/></g></mask><linearGradient id="New_Gradient_Swatch_7-177" x1="131.26" y1="302.88" x2="226.78" y2="302.88" xlink:href="#New_Gradient_Swatch_7"/></defs><title>circle_13_purple</title><g id="Layer_2" data-name="Layer 2"><g id="Layer_1-2" data-name="Layer 1"><g class="cls-13"><path class="cls-14" d="M247.61,443.79C132.33,443.79,38.53,350,38.53,234.72S132.33,25.64,247.61,25.64s209.08,93.79,209.08,209.08S362.9,443.79,247.61,443.79Zm0-412.26c-112,0-203.18,91.15-203.18,203.19S135.57,437.9,247.61,437.9,450.8,346.75,450.8,234.72,359.65,31.53,247.61,31.53Z"/></g><g class="cls-13"><g class="cls-15"><path class="cls-16" d="M474.58,234.72a227,227,0,0,0-227-227v52A174.94,174.94,0,0,1,422.54,234.72Zm-227,174.92A174.91,174.91,0,0,1,72.69,234.72h-52a227,227,0,0,0,227,227Z"/></g></g><path class="cls-17" d="M247.61,320.58a85.87,85.87,0,1,1,85.86-85.86A86,86,0,0,1,247.61,320.58Zm0-169.52a83.66,83.66,0,1,0,83.66,83.66A83.75,83.75,0,0,0,247.61,151.06Z"/><path class="cls-18" d="M247.61,257.39a22.67,22.67,0,1,1,22.67-22.67A22.7,22.7,0,0,1,247.61,257.39Zm0-43.14a20.47,20.47,0,1,0,20.46,20.47A20.49,20.49,0,0,0,247.61,214.25Z"/><rect class="cls-19" x="268.07" y="234.72" width="2.21" height="81.52"/><rect class="cls-20" x="224.94" y="152.73" width="2.21" height="81.99"/><rect class="cls-21" x="247.61" y="212.05" width="81.99" height="2.21"/><rect class="cls-22" x="165.62" y="255.18" width="81.99" height="2.21"/><rect class="cls-23" x="193.11" y="277.61" width="81.52" height="2.21" transform="translate(-128.58 247.01) rotate(-45)"/><rect class="cls-24" x="220.19" y="189.31" width="81.99" height="2.21" transform="translate(-58.14 240.45) rotate(-45)"/><rect class="cls-25" x="290.58" y="207.39" width="2.21" height="81.99" transform="translate(-90.2 279) rotate(-45)"/><rect class="cls-26" x="202.1" y="179.91" width="2.21" height="81.99" transform="translate(-96.69 208.39) rotate(-45)"/><path class="cls-27" d="M260.12,448.28a213.92,213.92,0,0,0,182.42-128l2.2,1A216.27,216.27,0,0,1,260.27,450.67Z"/><path class="cls-28" d="M369.08,410.15c-.17,6.52-.79,12.88-1.57,19.5a234.6,234.6,0,0,1-30.71,16.06A246.4,246.4,0,0,1,304,456.93c-1.22,2.64-2.51,5.26-3.85,7.91A232.33,232.33,0,0,1,268.71,470c.82-1.19,1.64-2.35,2.44-3.6,4.16-.56,8.35-1,12.49-1.68s8.3-1.35,12.39-2.35q2.06-4.05,4-8.08a223.3,223.3,0,0,0,32.47-10.55A234.48,234.48,0,0,0,363,428.34c.66-5,1.11-10.08,1.45-15C366,412.37,367.54,411.24,369.08,410.15Z"/><path class="cls-29" d="M360.35,421.12c-.23,2.33-.55,4.57-.87,6.89l-6.15,3.53c.37-2.3.72-4.59,1-6.85C356.36,423.49,358.39,422.37,360.35,421.12Z"/><path class="cls-30" d="M350.7,426.72c-.37,2.27-.79,4.52-1.24,6.81l-6.32,3.22c.51-2.25,1-4.54,1.39-6.79Z"/><path class="cls-31" d="M340.77,431.8q-.75,3.34-1.59,6.74c-2.16,1-4.29,2-6.48,2.88.64-2.18,1.19-4.48,1.75-6.69Z"/><path class="cls-32" d="M330.58,436.35q-.91,3.31-1.93,6.67c-2.2.83-4.37,1.79-6.62,2.53.76-2.14,1.43-4.38,2.09-6.58Z"/><path class="cls-33" d="M320.18,440.38c-.72,2.18-1.48,4.36-2.27,6.56-2.25.73-4.46,1.59-6.75,2.18.87-2.1,1.67-4.26,2.44-6.44Z"/><path class="cls-34" d="M309.58,443.87q-1.24,3.21-2.6,6.44c-2.28.64-4.54,1.34-6.85,1.83,1-2.07,1.89-4.15,2.76-6.31Z"/><path class="cls-35" d="M421.8,359.34l-1.3-4.07a211.53,211.53,0,0,0,24.14-46.08l3.07,5c-1.11,2.88-2.24,5.75-3.56,8.53s-2.46,5.66-3.93,8.37A206.17,206.17,0,0,1,421.8,359.34Z"/><path class="cls-36" d="M249.49,448.12q4,5.14,8.45,10.28a231,231,0,0,0,37.84-5.22l.35,1.53A231.85,231.85,0,0,1,257.5,460q-4.63-5.36-8.83-10.73Z"/><path class="cls-37" d="M259.81,443.28a205.79,205.79,0,0,0,75.92-19.53A209.82,209.82,0,0,0,399,377.47l1.14,1.07a211.1,211.1,0,0,1-63.77,46.62,207.4,207.4,0,0,1-76.49,19.69Z"/><path class="cls-38" d="M367.47,420.85a223.59,223.59,0,0,0,30.63-24q-.36-4-.83-8a216.21,216.21,0,0,1-30.69,25Q367.06,417.34,367.47,420.85Z"/><path class="cls-39" d="M252.31,448.61c.07,2.12-1.21,3.87-2.85,3.91s-3-1.65-3-3.77,1.28-3.87,2.85-3.91S252.25,446.49,252.31,448.61Z"/><path class="cls-40" d="M260.12,21.69a213.88,213.88,0,0,1,182.42,128l2.2-1A216.27,216.27,0,0,0,260.27,19.29Z"/><path class="cls-41" d="M369.08,59.81c-.17-6.52-.79-12.88-1.57-19.5A235.82,235.82,0,0,0,336.8,24.25,246.4,246.4,0,0,0,304,13c-1.22-2.64-2.51-5.26-3.85-7.91A232.33,232.33,0,0,0,268.71,0c.82,1.19,1.64,2.36,2.44,3.6,4.16.56,8.35,1,12.49,1.68s8.3,1.35,12.39,2.35q2.06,4.05,4,8.08a222.13,222.13,0,0,1,32.47,10.56A234.42,234.42,0,0,1,363,41.62c.66,5,1.11,10.08,1.45,15C366,57.59,367.54,58.72,369.08,59.81Z"/><path class="cls-42" d="M360.35,48.84c-.23-2.33-.55-4.57-.87-6.88l-6.15-3.54q.56,3.45,1,6.86C356.36,46.47,358.39,47.6,360.35,48.84Z"/><path class="cls-43" d="M350.7,43.25c-.37-2.28-.79-4.53-1.24-6.82l-6.32-3.22c.51,2.26,1,4.55,1.39,6.79Z"/><path class="cls-44" d="M340.77,38.17q-.75-3.36-1.59-6.75c-2.16-1-4.29-2-6.48-2.88.64,2.18,1.19,4.48,1.75,6.69Z"/><path class="cls-45" d="M330.58,33.61q-.91-3.32-1.93-6.66c-2.2-.84-4.37-1.8-6.62-2.54.76,2.14,1.43,4.39,2.09,6.58Z"/><path class="cls-46" d="M320.18,29.58q-1.08-3.25-2.27-6.56c-2.25-.73-4.46-1.59-6.75-2.18.87,2.1,1.67,4.27,2.44,6.45Z"/><path class="cls-47" d="M309.58,26.09q-1.24-3.19-2.6-6.44c-2.28-.63-4.54-1.34-6.85-1.83,1,2.07,1.89,4.15,2.76,6.31Z"/><path class="cls-48" d="M421.8,110.62l-1.3,4.07a211.53,211.53,0,0,1,24.14,46.08l3.07-5c-1.11-2.88-2.24-5.74-3.56-8.53s-2.46-5.66-3.93-8.37A206.17,206.17,0,0,0,421.8,110.62Z"/><path class="cls-49" d="M249.49,21.84q4-5.14,8.45-10.28a232.14,232.14,0,0,1,37.84,5.22l.35-1.53A232.9,232.9,0,0,0,257.5,10q-4.63,5.36-8.83,10.73Z"/><path class="cls-50" d="M259.81,26.68a205.8,205.8,0,0,1,75.92,19.54A209.66,209.66,0,0,1,399,92.5l1.14-1.07A211.13,211.13,0,0,0,336.4,44.8a207.4,207.4,0,0,0-76.49-19.69Z"/><path class="cls-51" d="M367.47,49.11a223.59,223.59,0,0,1,30.63,24q-.36,4-.83,8a216.9,216.9,0,0,0-30.69-25Q367.06,52.63,367.47,49.11Z"/><path class="cls-52" d="M252.31,21.36c.07-2.12-1.21-3.88-2.85-3.92s-3,1.65-3,3.77,1.28,3.87,2.85,3.91S252.25,23.47,252.31,21.36Z"/><path class="cls-53" d="M484,246.54q-7.27-3.94-14.58-7.44c.21-4.48-.06-9-.13-13.45,4.91-2.45,9.58-5,14.33-7.77l.1-.45-.14-.05c-4.92,2.84-9.73,5.52-14.82,8.05.08,4.63.35,9.27.13,13.9q7.5,3.58,15,7.64l.13.07Z"/><path class="cls-54" d="M483.91,221.43c-2.7,1.53-5.54,3-8.33,4.46l-.15-.21c2.85-1.46,5.7-3,8.46-4.54Z"/><path class="cls-55" d="M484.1,243.64q-4.26-2.26-8.55-4.36l.16-.21q4.2,2.07,8.4,4.28Z"/><path class="cls-56" d="M488.8,234.38l-.1-4.45-4.56-2.09-4.45,2.27.11,4.29c1.53.71,3,1.43,4.48,2.17C485.79,235.85,487.34,235.12,488.8,234.38Z"/><path class="cls-57" d="M468.33,250.36c.14-2,.34-4,.35-6,4.82,2.42,9.4,5,14.07,7.66l-.49,6.36Q475.32,254.17,468.33,250.36Z"/><path class="cls-58" d="M467.65,258.63c.25-2,.33-4,.5-6,4.62,2.58,9.37,5.32,13.84,8.18l-.81,6.33Q474.45,262.7,467.65,258.63Z"/><path class="cls-59" d="M466.61,266.87l.75-5.94q6.78,4.14,13.51,8.7c-.24,2.11-.7,4.2-1.05,6.3C475.45,272.77,471.16,269.77,466.61,266.87Z"/><path class="cls-60" d="M465.24,275.07l1.06-5.9q6.58,4.38,13.09,9.19c-.39,2.09-.71,4.19-1.22,6.26C474,281.32,469.58,278.11,465.24,275.07Z"/><path class="cls-61" d="M463.61,283.21c.46-1.94.91-3.89,1.23-5.86,4.4,3.1,8.59,6.32,12.77,9.68l-1.44,6.22Q469.94,288,463.61,283.21Z"/><path class="cls-62" d="M461.7,291.3c.53-1.93.93-3.89,1.39-5.83,4.18,3.24,8.45,6.66,12.46,10.16l-1.75,6.15Q467.82,296.32,461.7,291.3Z"/><path class="cls-63" d="M459.44,299.29l1.63-5.76q6.09,5.1,12.06,10.62c-.57,2.06-1.33,4.05-2,6.07C467.29,306.44,463.5,302.83,459.44,299.29Z"/><path class="cls-64" d="M457,306.77l1.92-5.67q5.86,5.29,11.59,11c-.71,2-1.32,4.05-2.14,6C464.76,314.26,460.84,310.42,457,306.77Z"/><path class="cls-65" d="M468,215l.45,6q7-3.77,13.94-8c-.12-2.13-.43-4.23-.69-6.34C477.19,209.58,472.67,212.35,468,215Z"/><path class="cls-66" d="M467.07,206.74c.24,2,.52,4,.73,5.94,4.58-2.68,9.06-5.5,13.57-8.46-.29-2.11-.49-4.23-.86-6.32C476.13,201,471.57,203.93,467.07,206.74Z"/><path class="cls-67" d="M465.89,198.52c.39,2,.65,3.94.89,5.92q3.38-2.15,6.74-4.39c2.2-1.49,4.38-3,6.56-4.58L479,189.18Q472.47,194.07,465.89,198.52Z"/><path class="cls-68" d="M464.43,190.34l1.05,5.9c4.37-3,8.74-6.19,13-9.48l-1.43-6.22C472.88,183.94,468.69,187.21,464.43,190.34Z"/><path class="cls-69" d="M462.57,182.24l1.35,5.84q6.34-4.77,12.58-10c-.44-2.08-1-4.12-1.62-6.17C470.88,175.51,466.81,178.93,462.57,182.24Z"/><path class="cls-70" d="M460.44,174.21c.54,1.93,1.12,3.84,1.61,5.77,4.13-3.34,8.14-6.79,12.15-10.4-.6-2-1.12-4.11-1.8-6.12C468.54,167.15,464.47,170.77,460.44,174.21Z"/><path class="cls-71" d="M458,166.26c.67,1.88,1.24,3.8,1.77,5.72,2-1.75,4-3.53,6-5.35s3.87-3.64,5.79-5.51l-2.05-6.05Q463.88,160.86,458,166.26Z"/><path class="cls-72" d="M455.42,158.53l1.93,5.67c3.86-3.63,7.72-7.42,11.44-11.31L466.45,147Q461,152.94,455.42,158.53Z"/><path class="cls-73" d="M465,316.58l.4-.23,4.23,4.95a227.49,227.49,0,0,0,10.35-34.16,229.89,229.89,0,0,0,5.12-35.28l.52,0a238.25,238.25,0,0,1-15.8,70.36Q467.39,319.37,465,316.58Z"/><polygon class="cls-74" points="483.8 266.85 484.74 259.38 485.31 251.87 486.92 251.99 486.33 259.54 485.39 267.06 483.8 266.85"/><path class="cls-75" d="M462.86,148.06c1.6-1.9,3.18-3.84,4.75-5.8A249.94,249.94,0,0,1,479.13,177a242.79,242.79,0,0,1,6.06,36.09l-.52.05a238.68,238.68,0,0,0-6-35.61,243.94,243.94,0,0,0-11.28-34.33l-4.17,5.08Z"/><path class="cls-76" d="M483.14,198.18l1,7.46c.3,2.49.67,5,.81,7.48l1.6-.14c-.14-2.52-.51-5-.82-7.53l-1-7.52Z"/><path class="cls-77" d="M489.69,211.5c0-.08-.07-1.35-.37-3.5s-.66-5.17-1.12-8.79-1.33-7.78-2.12-12.25-2-9.16-3.17-13.84a256.31,256.31,0,0,0-8.12-25.24l-3.22-8.12-1.35-3q-5.52-1.68-10.92-3.1c-1.59-3.3-3.31-6.53-5-9.79q7.38,1.58,15,3.6a249.52,249.52,0,0,1,23.19,81.6C491.59,209.88,490.63,210.69,489.69,211.5Z"/><path class="cls-78" d="M465.35,128.24,460.61,119l-5.22-9.11c-2-3.29-4.23-6.69-6.42-10.13s-4.7-6.68-6.9-9.8-4.54-5.83-6.42-8.24-3.62-4.27-4.76-5.64L429.06,74l-4,.06a264.34,264.34,0,0,1,20.72,26.44,258.93,258.93,0,0,1,16.81,29.11Z"/><path class="cls-79" d="M450.43,136.85A227.61,227.61,0,0,0,409.8,78.44l.35-.34a228.12,228.12,0,0,1,40.65,58.38c4.07,1,8.16,2.05,12.3,3.24l-.2.41Q456.6,138.32,450.43,136.85Z"/><path class="cls-80" d="M438.6,115l-4.23-.45A214,214,0,0,0,414,87.5l4.23-.18A217.76,217.76,0,0,1,438.6,115Z"/><path class="cls-81" d="M461.77,143q-6.58-1.5-13-2.68l2.94,6.49c1,2.16,1.78,4.4,2.67,6.6C456.86,150,459.41,146.51,461.77,143Z"/><path class="cls-82" d="M490.17,252.21c0,.08-.1,1.35-.27,3.5-.08,1.08-.18,2.38-.3,3.87l-.6,4.95c-.47,3.62-.93,7.84-1.81,12.3L486,283.71c-.49,2.32-1.06,4.67-1.59,7A235.75,235.75,0,0,1,477,316.19c-1.1,3.44-2.32,6.2-3.06,8.17l-1.21,3.08c-3.56,1.24-7.25,2.34-10.88,3.36-1.51,3.33-3,6.69-4.7,9.91,5-1.12,9.9-2.48,14.84-4A241.76,241.76,0,0,0,493,254.58Z"/><path class="cls-83" d="M468,336.05s-.46,1-1.2,2.65-1.92,3.95-3.32,6.69-3,5.95-5,9.25-3.9,6.9-6.16,10.3-4.39,6.88-6.66,10-4.24,6.05-6.18,8.42l-4.56,5.8c-1.11,1.4-1.8,2.14-1.8,2.14h-4l2.75-3.18,2.61-3.3c1.72-2.21,3.49-4.38,5.15-6.63,3.26-4.57,6.57-9.09,9.51-13.86,3.12-4.67,5.8-9.6,8.61-14.45,2.54-5,5.26-9.91,7.47-15.07Z"/><path class="cls-84" d="M413.8,387.31a227,227,0,0,0,39-59.49c4.14-1.07,8.38-2.22,12.44-3.57l.22.4c-4,1.34-8.21,2.47-12.27,3.52a227.93,227.93,0,0,1-39.05,59.48Z"/><path class="cls-85" d="M441.63,350l-4.18.58a239,239,0,0,1-19.74,27.55c1.41.05,2.84.09,4.23.09A233.17,233.17,0,0,0,441.63,350Z"/><path class="cls-86" d="M464,321.41c-4.32,1.14-8.55,2.18-12.93,3,1-2.14,1.87-4.36,2.74-6.57s1.76-4.41,2.58-6.63C459,314.54,461.53,317.92,464,321.41Z"/><g class="cls-87"><path class="cls-88" d="M416.73,341.51a198.37,198.37,0,0,0,14.08-26.71,206.82,206.82,0,0,0,9.89-28.52,201.54,201.54,0,0,0,6.42-59.91A200.05,200.05,0,0,0,407,114.26c1.32-1,3.7.08,5.34,2.4a203.77,203.77,0,0,1,9.55,222C420.52,341.19,418.07,342.36,416.73,341.51Z"/><path class="cls-89" d="M442.31,229.5a194.54,194.54,0,0,1-16.6,84.74l-.91-.4c-1.7-.77-2.67-2.32-2.14-3.47A190.8,190.8,0,0,0,438,231.92c0-1.26,1.45-2.33,3.32-2.39Z"/><path class="cls-90" d="M414,133.21a197,197,0,0,1,27.47,81.84l-1,.1c-1.85.18-3.5-.69-3.66-1.94a191.1,191.1,0,0,0-25.42-75.74c-.63-1.1.17-2.78,1.75-3.75Z"/><path class="cls-91" d="M429.83,200.58l.72-.13c1.06,5.3,1.7,10.68,2.32,16.05l5.05,2.81c.15,2.11.35,4.21.46,6.32L433.71,229l.15,6.26-.16,6.26-.74,0,.17-6.33-.16-6.34,4.67-3.37-.44-5.88-5.05-2.8C431.54,211.35,430.89,205.93,429.83,200.58Z"/><polygon class="cls-92" points="425.03 220.87 432.86 220.25 433.26 225.45 425.41 225.84 425.03 220.87"/></g><path class="cls-93" d="M232.89,21.69a213.92,213.92,0,0,0-182.42,128l-2.2-1A216.3,216.3,0,0,1,232.74,19.29Z"/><path class="cls-94" d="M123.93,59.81c.17-6.52.79-12.88,1.57-19.5a235.82,235.82,0,0,1,30.71-16.06A246.89,246.89,0,0,1,189,13c1.23-2.64,2.51-5.26,3.85-7.91A232.47,232.47,0,0,1,224.31,0c-.83,1.19-1.65,2.36-2.45,3.6-4.16.56-8.34,1-12.49,1.68S201.07,6.63,197,7.63q-2.05,4.05-3.95,8.08a221.86,221.86,0,0,0-32.48,10.56,235.05,235.05,0,0,0-30.49,15.35c-.65,5-1.11,10.08-1.45,15C127,57.59,125.48,58.72,123.93,59.81Z"/><path class="cls-95" d="M132.66,48.84c.23-2.33.56-4.57.88-6.88l6.15-3.54q-.57,3.45-1,6.86C136.65,46.47,134.62,47.6,132.66,48.84Z"/><path class="cls-96" d="M142.31,43.25c.37-2.28.8-4.53,1.24-6.82l6.32-3.22c-.51,2.26-1,4.55-1.39,6.79Z"/><path class="cls-97" d="M152.25,38.17q.74-3.36,1.58-6.75c2.16-1,4.29-2,6.48-2.88-.64,2.18-1.19,4.48-1.74,6.69Z"/><path class="cls-98" d="M162.43,33.61q.91-3.32,1.93-6.66c2.21-.84,4.37-1.8,6.62-2.54-.75,2.14-1.43,4.39-2.09,6.58Z"/><path class="cls-99" d="M172.84,29.58q1.08-3.25,2.26-6.56c2.25-.73,4.46-1.59,6.75-2.18-.86,2.1-1.67,4.27-2.43,6.45Z"/><path class="cls-100" d="M183.43,26.09q1.24-3.19,2.6-6.44c2.28-.63,4.54-1.34,6.85-1.83-1,2.07-1.89,4.15-2.76,6.31Z"/><path class="cls-101" d="M71.21,110.62l1.31,4.07a211.56,211.56,0,0,0-24.15,46.08l-3.07-5c1.11-2.88,2.24-5.74,3.57-8.53s2.45-5.66,3.92-8.37A207.11,207.11,0,0,1,71.21,110.62Z"/><path class="cls-102" d="M243.52,21.84q-4-5.14-8.44-10.28a232.26,232.26,0,0,0-37.85,5.22l-.34-1.53A232.9,232.9,0,0,1,235.52,10q4.62,5.36,8.83,10.73Z"/><path class="cls-103" d="M233.21,26.68a205.8,205.8,0,0,0-75.93,19.54A209.49,209.49,0,0,0,94,92.5l-1.15-1.07A211.13,211.13,0,0,1,156.61,44.8a207.45,207.45,0,0,1,76.5-19.69Z"/><path class="cls-104" d="M125.54,49.11a224.2,224.2,0,0,0-30.63,24q.36,4,.84,8a216.25,216.25,0,0,1,30.68-25Q126,52.63,125.54,49.11Z"/><path class="cls-105" d="M240.7,21.36c-.06-2.12,1.21-3.88,2.85-3.92s3,1.65,3,3.77-1.29,3.87-2.86,3.91S240.76,23.47,240.7,21.36Z"/><path class="cls-106" d="M232.89,448.28a214,214,0,0,1-182.42-128l-2.2,1A216.3,216.3,0,0,0,232.74,450.67Z"/><path class="cls-107" d="M123.93,410.15c.17,6.52.79,12.88,1.57,19.5a234.6,234.6,0,0,0,30.71,16.06A246.89,246.89,0,0,0,189,456.93c1.23,2.64,2.51,5.26,3.85,7.91A232.47,232.47,0,0,0,224.31,470c-.83-1.19-1.65-2.35-2.45-3.6-4.16-.56-8.34-1-12.49-1.68s-8.3-1.35-12.39-2.35q-2.05-4.05-3.95-8.08a223,223,0,0,1-32.48-10.55,235.11,235.11,0,0,1-30.49-15.36c-.65-5-1.11-10.08-1.45-15C127,412.37,125.48,411.24,123.93,410.15Z"/><path class="cls-108" d="M132.66,421.12c.23,2.33.56,4.57.88,6.89l6.15,3.53c-.38-2.3-.73-4.59-1-6.85C136.65,423.49,134.62,422.37,132.66,421.12Z"/><path class="cls-109" d="M142.31,426.72c.37,2.27.8,4.52,1.24,6.81l6.32,3.22c-.51-2.25-1-4.54-1.39-6.79Z"/><path class="cls-110" d="M152.25,431.8q.74,3.34,1.58,6.74c2.16,1,4.29,2,6.48,2.88-.64-2.18-1.19-4.48-1.74-6.69Z"/><path class="cls-111" d="M162.43,436.35q.91,3.31,1.93,6.67c2.21.83,4.37,1.79,6.62,2.53-.75-2.14-1.43-4.38-2.09-6.58Z"/><path class="cls-112" d="M172.84,440.38c.72,2.18,1.47,4.36,2.26,6.56,2.25.73,4.46,1.59,6.75,2.18-.86-2.1-1.67-4.26-2.43-6.44Z"/><path class="cls-113" d="M183.43,443.87q1.24,3.21,2.6,6.44c2.28.64,4.54,1.34,6.85,1.83-1-2.07-1.89-4.15-2.76-6.31Z"/><path class="cls-114" d="M71.21,359.34l1.31-4.07a211.56,211.56,0,0,1-24.15-46.08l-3.07,5c1.11,2.88,2.24,5.75,3.57,8.53s2.45,5.66,3.92,8.37A207.11,207.11,0,0,0,71.21,359.34Z"/><path class="cls-115" d="M243.52,448.12q-4,5.14-8.44,10.28a231.17,231.17,0,0,1-37.85-5.22l-.34,1.53A231.85,231.85,0,0,0,235.52,460q4.62-5.36,8.83-10.73Z"/><path class="cls-116" d="M233.21,443.28a205.79,205.79,0,0,1-75.93-19.53A209.66,209.66,0,0,1,94,377.47l-1.15,1.07a211.1,211.1,0,0,0,63.77,46.62,207.45,207.45,0,0,0,76.5,19.69Z"/><path class="cls-117" d="M125.54,420.85a224.2,224.2,0,0,1-30.63-24q.36-4,.84-8a215.56,215.56,0,0,0,30.68,25Q126,417.34,125.54,420.85Z"/><path class="cls-118" d="M240.7,448.61c-.06,2.12,1.21,3.87,2.85,3.91s3-1.65,3-3.77-1.29-3.87-2.86-3.91S240.76,446.49,240.7,448.61Z"/><path class="cls-119" d="M9,223.43q7.28,3.93,14.58,7.43c-.21,4.49.06,9,.14,13.45-4.92,2.45-9.59,5-14.34,7.77l-.09.45.13.06c4.93-2.85,9.74-5.53,14.82-8.06-.08-4.63-.35-9.26-.13-13.9Q16.6,227,9.13,223L9,222.92Z"/><path class="cls-120" d="M9.11,248.53c2.7-1.53,5.53-3,8.32-4.45l.16.2c-2.85,1.46-5.71,3-8.46,4.54Z"/><path class="cls-121" d="M8.91,226.33q4.27,2.25,8.55,4.35l-.15.21q-4.21-2.07-8.41-4.28Z"/><path class="cls-122" d="M4.21,235.58l.1,4.45,4.56,2.1,4.45-2.28-.11-4.29c-1.53-.71-3-1.43-4.48-2.17C7.23,234.11,5.68,234.84,4.21,235.58Z"/><path class="cls-123" d="M24.68,219.6c-.14,2-.34,4-.35,6-4.82-2.42-9.4-5-14.06-7.66l.49-6.36Q17.69,215.79,24.68,219.6Z"/><path class="cls-124" d="M25.36,211.33c-.24,2-.33,4-.5,6-4.62-2.59-9.37-5.33-13.83-8.19l.8-6.33Q18.57,207.27,25.36,211.33Z"/><path class="cls-125" d="M26.41,203.09,25.65,209q-6.78-4.14-13.51-8.7c.24-2.11.71-4.19,1-6.29C17.56,197.2,21.85,200.2,26.41,203.09Z"/><path class="cls-126" d="M27.77,194.89l-1.05,5.9q-6.59-4.38-13.1-9.18c.4-2.09.71-4.2,1.23-6.27C19,188.64,23.43,191.85,27.77,194.89Z"/><path class="cls-127" d="M29.4,186.75c-.46,1.95-.91,3.89-1.22,5.86-4.4-3.1-8.59-6.31-12.78-9.67l1.44-6.22Q23.07,181.94,29.4,186.75Z"/><path class="cls-128" d="M31.31,178.66c-.52,1.93-.92,3.89-1.39,5.83-4.18-3.24-8.45-6.66-12.45-10.16l1.74-6.15Q25.2,173.64,31.31,178.66Z"/><path class="cls-129" d="M33.58,170.67l-1.64,5.77q-6.09-5.12-12-10.63c.56-2.05,1.32-4.05,2-6.07C25.72,163.52,29.51,167.13,33.58,170.67Z"/><path class="cls-130" d="M36,163.19l-1.92,5.68q-5.87-5.31-11.58-11c.7-2,1.31-4.06,2.13-6C28.26,155.71,32.18,159.54,36,163.19Z"/><path class="cls-131" d="M25,255l-.45-6q-7,3.76-13.94,8c.13,2.12.43,4.22.69,6.34C15.83,260.38,20.35,257.61,25,255Z"/><path class="cls-132" d="M25.94,263.22c-.24-2-.52-4-.73-5.94-4.57,2.68-9.06,5.5-13.57,8.46.29,2.11.5,4.23.87,6.32C16.88,269,21.45,266,25.94,263.22Z"/><path class="cls-133" d="M27.12,271.44c-.38-2-.65-3.94-.89-5.92q-3.37,2.14-6.74,4.39c-2.19,1.49-4.38,3-6.55,4.59l1.12,6.28Q20.54,275.9,27.12,271.44Z"/><path class="cls-134" d="M28.58,279.62l-1-5.9c-4.36,3-8.74,6.19-13,9.48L16,289.43Q22.22,284.31,28.58,279.62Z"/><path class="cls-135" d="M30.44,287.72l-1.35-5.84q-6.33,4.77-12.58,9.95c.44,2.08,1,4.13,1.63,6.17C22.14,294.45,26.21,291,30.44,287.72Z"/><path class="cls-136" d="M32.57,295.75C32,293.83,31.45,291.91,31,290c-4.13,3.34-8.14,6.79-12.15,10.4.6,2,1.12,4.11,1.8,6.13C24.47,302.81,28.55,299.19,32.57,295.75Z"/><path class="cls-137" d="M35,303.7c-.67-1.88-1.24-3.79-1.77-5.72-2,1.75-4,3.53-6,5.35s-3.87,3.64-5.79,5.52l2.05,6Q29.14,309.1,35,303.7Z"/><path class="cls-138" d="M37.59,311.43l-1.93-5.67c-3.86,3.63-7.72,7.42-11.44,11.31L26.56,323Q32,317,37.59,311.43Z"/><path class="cls-139" d="M28.06,153.38l-.4.23-4.23-5A237.88,237.88,0,0,0,8,218.11l-.52,0a230.94,230.94,0,0,1,5.22-35.76,227.91,227.91,0,0,1,10.58-34.59Q25.63,150.58,28.06,153.38Z"/><polygon class="cls-140" points="9.22 203.12 8.28 210.59 7.7 218.09 6.1 217.98 6.68 210.42 7.62 202.9 9.22 203.12"/><path class="cls-141" d="M30.15,321.9q-2.4,2.85-4.75,5.81A248.71,248.71,0,0,1,13.89,293a241.31,241.31,0,0,1-6.07-36.09l.52-.05a238.81,238.81,0,0,0,6,35.62,243.39,243.39,0,0,0,11.28,34.32l4.18-5.08Z"/><path class="cls-142" d="M9.87,271.78l-1-7.46c-.31-2.49-.68-5-.82-7.48l-1.6.14c.15,2.52.51,5,.82,7.53l1,7.52Z"/><path class="cls-143" d="M3.32,258.46c0,.08.08,1.35.37,3.5s.66,5.17,1.12,8.79S6.15,278.54,6.93,283s2,9.16,3.18,13.85a253.41,253.41,0,0,0,8.12,25.23c1.33,3.36,2.43,6.16,3.21,8.12l1.35,3q5.52,1.68,10.93,3.11c1.58,3.29,3.3,6.52,5,9.78q-7.38-1.58-15-3.59A249.65,249.65,0,0,1,.52,260.9C1.42,260.08,2.38,259.27,3.32,258.46Z"/><path class="cls-144" d="M27.67,341.72c0,.08,1.92,3.76,4.73,9.23l5.22,9.11c2,3.29,4.23,6.69,6.42,10.14s4.7,6.67,6.91,9.79,4.53,5.83,6.41,8.24,3.62,4.27,4.76,5.65L64,396l4-.06a263.3,263.3,0,0,1-20.73-26.44,260.48,260.48,0,0,1-16.81-29.11Z"/><path class="cls-145" d="M42.58,333.12a228,228,0,0,0,40.64,58.4l-.36.34a228,228,0,0,1-40.65-58.38c-4.07-1-8.15-2.05-12.3-3.24l.2-.4Q36.41,331.64,42.58,333.12Z"/><path class="cls-146" d="M54.41,355l4.23.44a213.29,213.29,0,0,0,20.42,27l-4.22.19A219.27,219.27,0,0,1,54.41,355Z"/><path class="cls-147" d="M31.24,327q6.59,1.51,13,2.68l-2.93-6.49c-1-2.15-1.78-4.4-2.68-6.59C36.16,320,33.61,323.45,31.24,327Z"/><path class="cls-148" d="M2.84,217.75c0-.08.11-1.35.27-3.5.08-1.08.19-2.38.3-3.86s.38-3.15.61-5c.46-3.62.92-7.84,1.8-12.29.4-2.24.81-4.54,1.24-6.88s1-4.68,1.58-7a238.74,238.74,0,0,1,7.42-25.45c1.1-3.44,2.32-6.2,3.06-8.17l1.22-3.07c3.55-1.25,7.24-2.35,10.88-3.37,1.51-3.33,3-6.68,4.69-9.91-5,1.12-9.9,2.48-14.84,4A242.37,242.37,0,0,0,0,215.38Z"/><path class="cls-149" d="M25,133.91s.45-1,1.2-2.65,1.91-3.94,3.31-6.69,3-5.95,5-9.25,3.9-6.89,6.16-10.29,4.39-6.89,6.66-10,4.25-6,6.18-8.41l4.57-5.81c1.1-1.4,1.79-2.14,1.79-2.14h4l-2.74,3.18-2.61,3.3c-1.72,2.21-3.49,4.38-5.16,6.63-3.25,4.57-6.57,9.09-9.51,13.87-3.11,4.66-5.8,9.59-8.6,14.44-2.55,5-5.26,9.91-7.48,15.07Z"/><path class="cls-150" d="M79.21,82.65a227.41,227.41,0,0,0-39,59.49c-4.13,1.07-8.37,2.22-12.44,3.57l-.21-.4c4-1.34,8.2-2.46,12.27-3.52a227.84,227.84,0,0,1,39-59.47Z"/><path class="cls-151" d="M51.38,120l4.18-.59A239.06,239.06,0,0,1,75.31,91.83c-1.42,0-2.85-.09-4.24-.08A231.61,231.61,0,0,0,51.38,120Z"/><path class="cls-152" d="M29,148.55c4.32-1.14,8.56-2.18,12.94-3-1,2.15-1.88,4.36-2.74,6.57s-1.77,4.41-2.59,6.63C34,155.42,31.48,152,29,148.55Z"/><g class="cls-87"><path class="cls-153" d="M76.28,128.45A199.52,199.52,0,0,0,62.2,155.16a206.82,206.82,0,0,0-9.89,28.52,201.1,201.1,0,0,0-6.41,59.91A200,200,0,0,0,86,355.7c-1.32,1-3.7-.08-5.34-2.39a203.76,203.76,0,0,1-9.54-222C72.49,128.78,74.94,127.61,76.28,128.45Z"/><path class="cls-154" d="M50.7,240.46a194.47,194.47,0,0,1,16.6-84.73l.91.4c1.71.76,2.67,2.31,2.15,3.46A190.83,190.83,0,0,0,55,238c0,1.26-1.46,2.33-3.33,2.39Z"/><path class="cls-155" d="M79,336.76a197.07,197.07,0,0,1-27.47-81.85l1-.09c1.85-.19,3.5.68,3.66,1.93a191.1,191.1,0,0,0,25.42,75.74c.63,1.1-.17,2.78-1.74,3.75Z"/><path class="cls-156" d="M63.19,269.38l-.73.13c-1.05-5.3-1.69-10.68-2.32-16l-5-2.81c-.14-2.11-.35-4.21-.45-6.32L59.3,241l-.15-6.26.17-6.25.73,0-.16,6.34.15,6.33-4.66,3.38.43,5.88,5,2.8C61.47,258.61,62.13,264,63.19,269.38Z"/><polygon class="cls-157" points="67.98 249.1 60.15 249.71 59.75 244.51 67.6 244.12 67.98 249.1"/></g><path class="cls-158" d="M257.76,421a1.18,1.18,0,0,0-1.66.17l-7,8.6V289.51a1.18,1.18,0,0,0-2.36,0V429.75l-7-8.6a1.18,1.18,0,1,0-1.83,1.49l9,11a1.18,1.18,0,0,0,.91.43H248a1.17,1.17,0,0,0,.91-.43l9-11A1.19,1.19,0,0,0,257.76,421Z"/><path class="cls-159" d="M238,52.61a1.18,1.18,0,0,0,1.66-.16l7-8.6V184.09a1.18,1.18,0,1,0,2.36,0V43.85l7,8.6a1.18,1.18,0,1,0,1.82-1.5l-9-11a1.17,1.17,0,0,0-.91-.43h-.25a1.18,1.18,0,0,0-.91.43l-9,11A1.18,1.18,0,0,0,238,52.61Z"/><path class="cls-160" d="M63.69,243.14a1.19,1.19,0,0,0-.16-1.66l-8.6-7H195.17a1.18,1.18,0,1,0,0-2.36H54.93l8.6-7a1.18,1.18,0,1,0-1.5-1.82l-11,9a1.2,1.2,0,0,0-.43.92v.25a1.2,1.2,0,0,0,.43.91l11,9A1.19,1.19,0,0,0,63.69,243.14Z"/><path class="cls-161" d="M432.06,223.38a1.18,1.18,0,0,0,.17,1.66l8.6,7H300.59a1.18,1.18,0,1,0,0,2.36H440.83l-8.6,7a1.18,1.18,0,1,0,1.49,1.83l11-9a1.18,1.18,0,0,0,.44-.91v-.25a1.18,1.18,0,0,0-.44-.92l-11-9A1.18,1.18,0,0,0,432.06,223.38Z"/><path class="cls-162" d="M247.88,331.9A97.88,97.88,0,1,1,345.75,234,98,98,0,0,1,247.88,331.9Zm0-193.39A95.52,95.52,0,1,0,343.39,234,95.63,95.63,0,0,0,247.88,138.51Z"/><circle class="cls-163" cx="247.88" cy="234.02" r="13.27"/><rect class="cls-164" x="246.7" y="176.83" width="2.36" height="114.38"/><rect class="cls-165" x="190.69" y="232.84" width="114.38" height="2.36"/><polygon class="cls-166" points="245.52 276.47 247.88 191.57 250.24 276.47 245.52 276.47"/><polygon class="cls-166" points="250.24 191.57 247.88 276.47 245.52 191.57 250.24 191.57"/><polygon class="cls-167" points="205.43 231.66 290.32 234.02 205.43 236.38 205.43 231.66"/><polygon class="cls-167" points="290.32 236.38 205.43 234.02 290.32 231.66 290.32 236.38"/><path class="cls-168" d="M147,187.22a111.4,111.4,0,0,1,17.74-27l-5-5a117.63,117.63,0,0,0-19.35,29.43Z"/><path class="cls-169" d="M174,150.86a111.26,111.26,0,0,1,23.48-16l-2.83-6.5a118.19,118.19,0,0,0-25.63,17.54Z"/><path class="cls-170" d="M136.86,227.43a111.26,111.26,0,0,1,5.27-27.94l-6.59-2.59a118.43,118.43,0,0,0-5.73,30.53Z"/><path class="cls-171" d="M209.61,129.56A110.55,110.55,0,0,1,241.28,123V116a118,118,0,0,0-34.49,7.12Z"/><path class="cls-172" d="M358.9,240.62a110.66,110.66,0,0,1-5.28,27.93l6.59,2.6a118,118,0,0,0,5.73-30.53Z"/><path class="cls-173" d="M348.79,280.83a111.44,111.44,0,0,1-17.75,27l5,5a117.94,117.94,0,0,0,19.36-29.43Z"/><path class="cls-174" d="M286.14,338.47A110.89,110.89,0,0,1,254.47,345v7.06A117.91,117.91,0,0,0,289,345Z"/><path class="cls-175" d="M321.71,317.18a112.25,112.25,0,0,1-10.66,8.38v.27h-.39a109,109,0,0,1-12.44,7.36l2.84,6.52a118.25,118.25,0,0,0,25.64-17.54Z"/><path class="cls-176" d="M103.63,167.12A158.91,158.91,0,0,1,129,128.48l-7.13-7.13a168.26,168.26,0,0,0-27.66,42.07Z"/><path class="cls-177" d="M142.33,115.15A159.15,159.15,0,0,1,175.9,92.24l-4-9.29A169,169,0,0,0,135.2,108Z"/><path class="cls-178" d="M89.18,224.6a158.38,158.38,0,0,1,7.54-39.94L87.3,181a168.59,168.59,0,0,0-8.19,43.64Z"/><path class="cls-179" d="M193.18,84.7a158.06,158.06,0,0,1,45.27-9.37V65.25a168.41,168.41,0,0,0-49.31,10.19Z"/><path class="cls-180" d="M406.57,243.45A158.3,158.3,0,0,1,399,283.38l9.43,3.71a169,169,0,0,0,8.19-43.64Z"/><path class="cls-181" d="M392.13,300.92a159.11,159.11,0,0,1-25.38,38.65l7.13,7.13a168.76,168.76,0,0,0,27.67-42.07Z"/><path class="cls-182" d="M302.57,383.32a158.48,158.48,0,0,1-45.27,9.38v10.09a168.33,168.33,0,0,0,49.31-10.18Z"/><path class="cls-183" d="M353.42,352.9a158.89,158.89,0,0,1-15.24,12v.39h-.55a160.67,160.67,0,0,1-17.78,10.52l4,9.31A168.9,168.9,0,0,0,360.55,360Z"/><circle class="cls-184" cx="247.88" cy="234.02" r="43.04"/><path class="cls-185" d="M247.88,93.11A140.92,140.92,0,1,0,388.79,234,140.92,140.92,0,0,0,247.88,93.11Zm0,272.39A131.48,131.48,0,1,1,379.36,234,131.47,131.47,0,0,1,247.88,365.5Z"/><path class="cls-162" d="M343.39,234a95.68,95.68,0,1,1-83.8-94.77v-2.37A97.86,97.86,0,1,0,345.75,234a97.35,97.35,0,0,0-1-14.06h-2.37A95.85,95.85,0,0,1,343.39,234Z"/><g class="cls-186"><path class="cls-187" d="M328.76,218.57A76.59,76.59,0,0,0,262.51,154v64.6Z"/></g><g class="cls-188"><path class="cls-189" d="M167,249.48a76.59,76.59,0,0,0,66.24,64.6v-64.6Z"/></g><g class="cls-190"><g class="cls-191"><path class="cls-192" d="M364.5,211.74A110.46,110.46,0,0,0,269,118.59v93.15Z"/></g><g class="cls-193"><path class="cls-194" d="M131.26,256.31a110.47,110.47,0,0,0,95.52,93.15V256.31Z"/></g></g><g class="cls-191"><path class="cls-192" d="M364.5,211.74A110.46,110.46,0,0,0,269,118.59v93.15Z"/></g><g class="cls-193"><path class="cls-194" d="M131.26,256.31a110.47,110.47,0,0,0,95.52,93.15V256.31Z"/></g></g></g></svg>