<svg xmlns="http://www.w3.org/2000/svg" xmlns:xlink="http://www.w3.org/1999/xlink" viewBox="0 0 484.05 484.05"><defs><style>.cls-1{fill:url(#New_Gradient_Swatch_5);}.cls-2{fill:url(#New_Gradient_Swatch_5-2);}.cls-3{fill:url(#New_Gradient_Swatch_5-3);}.cls-4{fill:url(#New_Gradient_Swatch_5-4);}.cls-5{fill:url(#New_Gradient_Swatch_5-5);}.cls-6{fill:url(#New_Gradient_Swatch_5-6);}.cls-7{fill:url(#New_Gradient_Swatch_5-7);}.cls-8{fill:url(#New_Gradient_Swatch_5-8);}.cls-9{fill:url(#New_Gradient_Swatch_5-9);}.cls-10{fill:url(#New_Gradient_Swatch_5-10);}.cls-11{fill:url(#New_Gradient_Swatch_5-11);}</style><linearGradient id="New_Gradient_Swatch_5" x1="233.82" y1="57.34" x2="250.23" y2="57.34" gradientUnits="userSpaceOnUse"><stop offset="0" stop-color="#11e5b3"/><stop offset="0.14" stop-color="#15dcb8"/><stop offset="0.36" stop-color="#21c4c6"/><stop offset="0.64" stop-color="#359edc"/><stop offset="0.97" stop-color="#4f68fb"/><stop offset="1" stop-color="#5263fe"/></linearGradient><linearGradient id="New_Gradient_Swatch_5-2" x1="233.82" y1="426.71" x2="250.23" y2="426.71" xlink:href="#New_Gradient_Swatch_5"/><linearGradient id="New_Gradient_Swatch_5-3" x1="369.37" y1="242.03" x2="484.05" y2="242.03" xlink:href="#New_Gradient_Swatch_5"/><linearGradient id="New_Gradient_Swatch_5-4" x1="0" y1="242.03" x2="114.68" y2="242.03" xlink:href="#New_Gradient_Swatch_5"/><linearGradient id="New_Gradient_Swatch_5-5" x1="126.6" y1="242.91" x2="358.6" y2="242.91" xlink:href="#New_Gradient_Swatch_5"/><linearGradient id="New_Gradient_Swatch_5-6" x1="228.73" y1="242.03" x2="255.84" y2="242.03" xlink:href="#New_Gradient_Swatch_5"/><linearGradient id="New_Gradient_Swatch_5-7" x1="217.26" y1="242.03" x2="267.31" y2="242.03" xlink:href="#New_Gradient_Swatch_5"/><linearGradient id="New_Gradient_Swatch_5-8" x1="241.01" y1="183.58" x2="243.55" y2="183.58" xlink:href="#New_Gradient_Swatch_5"/><linearGradient id="New_Gradient_Swatch_5-9" x1="241.01" y1="300.47" x2="243.55" y2="300.47" xlink:href="#New_Gradient_Swatch_5"/><linearGradient id="New_Gradient_Swatch_5-10" x1="262.73" y1="242.03" x2="338.73" y2="242.03" xlink:href="#New_Gradient_Swatch_5"/><linearGradient id="New_Gradient_Swatch_5-11" x1="145.84" y1="242.03" x2="221.84" y2="242.03" xlink:href="#New_Gradient_Swatch_5"/></defs><title>circle_06_green_blue</title><g id="Layer_2" data-name="Layer 2"><g id="Layer_1-2" data-name="Layer 1"><polygon class="cls-1" points="242.09 1.81 242.09 0 242.03 0.91 241.96 0 241.96 1.81 233.82 114.68 242 51.12 242 50.1 242.03 50.61 242.05 50.1 242.05 51.12 250.23 114.68 242.09 1.81"/><polygon class="cls-2" points="241.96 482.24 241.96 484.05 242.03 483.15 242.09 484.05 242.09 482.24 250.23 369.37 242.05 432.94 242.05 433.96 242.03 433.44 242 433.96 242 432.94 233.82 369.37 241.96 482.24"/><polygon class="cls-3" points="482.24 242.09 484.05 242.09 483.15 242.03 484.05 241.96 482.24 241.96 369.37 233.82 432.93 242 433.96 242 433.44 242.03 433.96 242.05 432.93 242.05 369.37 250.23 482.24 242.09"/><polygon class="cls-4" points="1.81 241.96 0 241.96 0.91 242.03 0 242.09 1.81 242.09 114.68 250.23 51.12 242.05 50.1 242.05 50.61 242.03 50.1 242 51.12 242 114.68 233.82 1.81 241.96"/><path class="cls-5" d="M242.6,126.91a116,116,0,1,0,116,116A116,116,0,0,0,242.6,126.91ZM346.74,249.25a104.28,104.28,0,0,1-47.34,81.2v5.11a107.79,107.79,0,0,1-36.17,14.05v-4.4a105.12,105.12,0,0,1-40.4.16v4.41a108.26,108.26,0,0,1-36.17-13.69V331a104.27,104.27,0,0,1-48.2-81.75h-4.34c-.12-2.1-.19-4.21-.19-6.34,0-2.78.11-5.55.32-8.28h4.35a104.25,104.25,0,0,1,48.06-79.81v-5.08a107.83,107.83,0,0,1,36.17-13.69v4.4a105.12,105.12,0,0,1,40.4.16v-4.4a108,108,0,0,1,36.17,14v5.12a104.26,104.26,0,0,1,47.2,79.25H351c.21,2.73.32,5.5.32,8.28,0,2.13-.07,4.24-.19,6.34Z"/><circle class="cls-6" cx="242.28" cy="242.03" r="13.55"/><path class="cls-7" d="M264.73,242a22.27,22.27,0,0,0-1.48-7.94h4.06a26.35,26.35,0,0,0-19.95-17.82v3.91a21.81,21.81,0,0,0-10.16,0v-3.91a26.34,26.34,0,0,0-19.94,17.82h4.05a22.18,22.18,0,0,0,0,15.88h-4.05a26.34,26.34,0,0,0,19.94,17.81v-3.91a21.81,21.81,0,0,0,10.16,0v3.91A26.35,26.35,0,0,0,267.31,250h-4.06A22.31,22.31,0,0,0,264.73,242Zm-42.35,0a19.91,19.91,0,1,1,19.9,19.9A19.93,19.93,0,0,1,222.38,242Z"/><path class="cls-8" d="M242.28,221.58a1.27,1.27,0,0,1-1.27-1.27V146.85a1.27,1.27,0,0,1,2.54,0v73.46A1.27,1.27,0,0,1,242.28,221.58Z"/><path class="cls-9" d="M242.28,338.47A1.27,1.27,0,0,1,241,337.2V263.74a1.27,1.27,0,0,1,2.54,0V337.2A1.27,1.27,0,0,1,242.28,338.47Z"/><path class="cls-10" d="M337.46,243.3H264a1.27,1.27,0,1,1,0-2.54h73.46a1.27,1.27,0,1,1,0,2.54Z"/><path class="cls-11" d="M220.57,243.3H147.11a1.27,1.27,0,0,1,0-2.54h73.46a1.27,1.27,0,0,1,0,2.54Z"/></g></g></svg>