<svg xmlns="http://www.w3.org/2000/svg" viewBox="0 0 486.61 486.62"><defs><style>.cls-1,.cls-3,.cls-4,.cls-5{fill:#11e5b3;}.cls-2,.cls-4{opacity:0.5;}.cls-3{stroke:#99d4fe;stroke-miterlimit:10;stroke-width:0.96px;}.cls-5{opacity:0.7;}</style></defs><title>circle_01_green</title><g id="Layer_2" data-name="Layer 2"><g id="Layer_1-2" data-name="Layer 1"><path class="cls-1" d="M243.31,359.28a116,116,0,1,1,116-116A116.1,116.1,0,0,1,243.31,359.28Zm0-229.07a113.1,113.1,0,1,0,113.1,113.1A113.22,113.22,0,0,0,243.31,130.21Z"/><path class="cls-1" d="M252,243.31a8.71,8.71,0,1,1-8.71-8.71A8.71,8.71,0,0,1,252,243.31Z"/><path class="cls-1" d="M243.31,114.23a2.24,2.24,0,1,0,2.24,2.24A2.24,2.24,0,0,0,243.31,114.23Z"/><path class="cls-1" d="M243.31,367.91a2.24,2.24,0,1,0,2.24,2.24A2.24,2.24,0,0,0,243.31,367.91Z"/><path class="cls-1" d="M370.15,241.07a2.24,2.24,0,1,0,2.24,2.24A2.24,2.24,0,0,0,370.15,241.07Z"/><path class="cls-1" d="M116.47,241.07a2.24,2.24,0,1,0,2.24,2.24A2.24,2.24,0,0,0,116.47,241.07Z"/><g class="cls-2"><path class="cls-1" d="M334.58,152a2.24,2.24,0,1,0,0,3.16A2.23,2.23,0,0,0,334.58,152Z"/><path class="cls-1" d="M155.2,331.41a2.24,2.24,0,1,0,0,3.17A2.25,2.25,0,0,0,155.2,331.41Z"/><path class="cls-1" d="M334.58,331.41a2.24,2.24,0,1,0,0,3.17A2.25,2.25,0,0,0,334.58,331.41Z"/><path class="cls-1" d="M155.2,152a2.24,2.24,0,1,0,0,3.16A2.22,2.22,0,0,0,155.2,152Z"/></g><path class="cls-3" d="M260.64,243.31A17.34,17.34,0,1,1,243.31,226,17.33,17.33,0,0,1,260.64,243.31Z"/><path class="cls-1" d="M243.31,239.14a1.43,1.43,0,0,1-1.44-1.44V185.85a1.44,1.44,0,1,1,2.88,0V237.7A1.44,1.44,0,0,1,243.31,239.14Z"/><path class="cls-1" d="M243.31,302.2a1.43,1.43,0,0,1-1.44-1.44V248.91a1.44,1.44,0,0,1,2.88,0v51.85A1.44,1.44,0,0,1,243.31,302.2Z"/><path class="cls-1" d="M323.08,244.75h-72a1.44,1.44,0,1,1,0-2.88h72a1.44,1.44,0,0,1,0,2.88Z"/><path class="cls-1" d="M235.52,244.75h-72a1.44,1.44,0,0,1,0-2.88h72a1.44,1.44,0,1,1,0,2.88Z"/><path class="cls-1" d="M243.37,96.87a1.43,1.43,0,0,1-1.43-1.44v-94a1.44,1.44,0,1,1,2.87,0v94A1.43,1.43,0,0,1,243.37,96.87Z"/><path class="cls-1" d="M243.24,486.62a1.45,1.45,0,0,1-1.44-1.44v-94a1.44,1.44,0,0,1,2.88,0v94A1.44,1.44,0,0,1,243.24,486.62Z"/><path class="cls-1" d="M485.18,244.75h-94a1.44,1.44,0,0,1,0-2.88h94a1.44,1.44,0,0,1,0,2.88Z"/><path class="cls-1" d="M95.43,244.75h-94a1.44,1.44,0,1,1,0-2.88h94a1.44,1.44,0,0,1,0,2.88Z"/><path class="cls-4" d="M243.84,303.58l3.58,3.57a1.55,1.55,0,0,0,2.19-2.2l-4.1-4.11,3.08-3.08a1.71,1.71,0,0,0,.21-.26,58.61,58.61,0,0,0,48.68-48.69l.28-.22,3.08-3.08,4.11,4.1a1.55,1.55,0,0,0,2.2-2.19l-3.55-3.55h29.65a.54.54,0,0,0,0-1.07h-29.7l3.6-3.6A1.56,1.56,0,0,0,305,237l-4.11,4.11L297.76,238a1.42,1.42,0,0,0-.28-.22,58.61,58.61,0,0,0-48.68-48.7,1.71,1.71,0,0,0-.21-.26l-3.08-3.08,4.1-4.11a1.55,1.55,0,0,0-2.19-2.19L243.84,183V153.37a.54.54,0,1,0-1.07,0V183l-3.57-3.57a1.55,1.55,0,0,0-2.2,2.19l4.11,4.11L238,188.85a1.79,1.79,0,0,0-.22.28,58.6,58.6,0,0,0-48.7,48.69,1.71,1.71,0,0,0-.26.21l-3.08,3.08L181.66,237a1.55,1.55,0,0,0-2.2,0,1.57,1.57,0,0,0,0,2.2l3.55,3.55H153.37a.54.54,0,1,0,0,1.07h29.69l-3.6,3.6a1.55,1.55,0,0,0,2.2,2.19l4.11-4.1,3.08,3.08a1.71,1.71,0,0,0,.26.21,58.61,58.61,0,0,0,48.7,48.68,1.42,1.42,0,0,0,.22.28l3.08,3.08L237,305a1.56,1.56,0,0,0,2.2,2.2l3.57-3.57v29.67a.54.54,0,0,0,1.07,0Zm-36.19-24.64a55.39,55.39,0,0,1-16.16-35.63,55.58,55.58,0,0,1,52-51.81,55.59,55.59,0,0,1,51.62,51.81,55.57,55.57,0,0,1-51.62,51.8A55.35,55.35,0,0,1,207.65,278.94Z"/><path class="cls-1" d="M278.53,243.31a35.63,35.63,0,0,0-.43-5.51h4.35a39.62,39.62,0,0,0-33.63-33.64v4.36a34.72,34.72,0,0,0-11,0v-4.36a39.63,39.63,0,0,0-33.64,33.64h4.36a34.72,34.72,0,0,0,0,11h-4.36a39.62,39.62,0,0,0,33.64,33.63V278.1a35.52,35.52,0,0,0,11,0v4.35a39.61,39.61,0,0,0,33.63-33.63H278.1A35.83,35.83,0,0,0,278.53,243.31Zm-67.57,0a32.35,32.35,0,1,1,32.35,32.35A32.38,32.38,0,0,1,211,243.31Z"/><path class="cls-1" d="M243.31,173.22a70.09,70.09,0,1,1-70.09,70.09,70.09,70.09,0,0,1,70.09-70.09m0-5.75a75.84,75.84,0,1,0,75.84,75.84,75.92,75.92,0,0,0-75.84-75.84Z"/><path class="cls-5" d="M243,163.15a80.18,80.18,0,0,0-13.68,1.2l.4,4.31A75.72,75.72,0,0,0,190,189.07L187,186a79.94,79.94,0,0,0-23.55,47.18h4.34a77.23,77.23,0,0,0-.7,10.15,75.6,75.6,0,0,0,22.25,53.61l-3,3.05a79.94,79.94,0,0,0,65.26,23l-.46-4.29a76,76,0,0,0,66-59.56c1.67-1.53,3.1-1.1,4.31.49A80.16,80.16,0,0,0,243,163.15Zm0,150.25a70.09,70.09,0,1,1,70.09-70.09A70.1,70.1,0,0,1,243,313.4Z"/></g></g></svg>