<svg xmlns="http://www.w3.org/2000/svg" xmlns:xlink="http://www.w3.org/1999/xlink" viewBox="0 0 484.69 484.69"><defs><style>.cls-1{fill:url(#New_Gradient_Swatch_2);}.cls-2{fill:url(#New_Gradient_Swatch_2-2);}.cls-3{fill:url(#New_Gradient_Swatch_2-3);}.cls-4{fill:url(#New_Gradient_Swatch_2-4);}.cls-5{opacity:0.5;}.cls-6{fill:url(#New_Gradient_Swatch_2-5);}.cls-7{fill:url(#New_Gradient_Swatch_2-6);}.cls-8{fill:url(#New_Gradient_Swatch_2-7);}.cls-9{fill:url(#New_Gradient_Swatch_2-8);}.cls-10{fill:url(#New_Gradient_Swatch_2-9);}.cls-11{opacity:0.7;}.cls-12{fill:url(#New_Gradient_Swatch_2-10);}.cls-13{opacity:0.3;}.cls-14{fill:url(#New_Gradient_Swatch_2-11);}.cls-15{fill:url(#New_Gradient_Swatch_2-12);}.cls-16{fill:url(#New_Gradient_Swatch_2-13);}.cls-17{fill:url(#New_Gradient_Swatch_2-14);}.cls-18{fill:url(#New_Gradient_Swatch_2-15);}.cls-19{fill:url(#New_Gradient_Swatch_2-16);}.cls-20{fill:url(#New_Gradient_Swatch_2-17);}.cls-21{fill:url(#New_Gradient_Swatch_2-18);}.cls-22{fill:url(#New_Gradient_Swatch_2-19);}.cls-23{fill:url(#New_Gradient_Swatch_2-20);}.cls-24{fill:url(#New_Gradient_Swatch_2-21);}.cls-25{fill:url(#New_Gradient_Swatch_2-22);}.cls-26{fill:url(#New_Gradient_Swatch_2-23);}</style><linearGradient id="New_Gradient_Swatch_2" x1="91.75" y1="242.34" x2="392.94" y2="242.34" gradientUnits="userSpaceOnUse"><stop offset="0" stop-color="#9541de"/><stop offset="1" stop-color="#3ab2c0"/></linearGradient><linearGradient id="New_Gradient_Swatch_2-2" x1="189.09" y1="242.34" x2="295.6" y2="242.34" xlink:href="#New_Gradient_Swatch_2"/><linearGradient id="New_Gradient_Swatch_2-3" x1="134.74" y1="242.34" x2="349.95" y2="242.34" xlink:href="#New_Gradient_Swatch_2"/><linearGradient id="New_Gradient_Swatch_2-4" x1="227.81" y1="242.34" x2="256.88" y2="242.34" xlink:href="#New_Gradient_Swatch_2"/><linearGradient id="New_Gradient_Swatch_2-5" x1="204.6" y1="242.34" x2="280.09" y2="242.34" xlink:href="#New_Gradient_Swatch_2"/><linearGradient id="New_Gradient_Swatch_2-6" x1="240.66" y1="242.34" x2="244.03" y2="242.34" xlink:href="#New_Gradient_Swatch_2"/><linearGradient id="New_Gradient_Swatch_2-7" x1="136.03" y1="242.34" x2="348.65" y2="242.34" xlink:href="#New_Gradient_Swatch_2"/><linearGradient id="New_Gradient_Swatch_2-8" x1="239.85" y1="22.58" x2="243.21" y2="22.58" xlink:href="#New_Gradient_Swatch_2"/><linearGradient id="New_Gradient_Swatch_2-9" x1="220.68" y1="42.81" x2="264.01" y2="42.81" xlink:href="#New_Gradient_Swatch_2"/><linearGradient id="New_Gradient_Swatch_2-10" x1="223.24" y1="59.15" x2="261.08" y2="59.15" xlink:href="#New_Gradient_Swatch_2"/><linearGradient id="New_Gradient_Swatch_2-11" x1="225.52" y1="73.65" x2="258.46" y2="73.65" xlink:href="#New_Gradient_Swatch_2"/><linearGradient id="New_Gradient_Swatch_2-12" x1="241.48" y1="462.11" x2="244.84" y2="462.11" xlink:href="#New_Gradient_Swatch_2"/><linearGradient id="New_Gradient_Swatch_2-13" x1="220.68" y1="441.88" x2="264.01" y2="441.88" xlink:href="#New_Gradient_Swatch_2"/><linearGradient id="New_Gradient_Swatch_2-14" x1="223.61" y1="425.54" x2="261.45" y2="425.54" xlink:href="#New_Gradient_Swatch_2"/><linearGradient id="New_Gradient_Swatch_2-15" x1="226.23" y1="411.04" x2="259.17" y2="411.04" xlink:href="#New_Gradient_Swatch_2"/><linearGradient id="New_Gradient_Swatch_2-16" x1="439.52" y1="241.53" x2="484.69" y2="241.53" xlink:href="#New_Gradient_Swatch_2"/><linearGradient id="New_Gradient_Swatch_2-17" x1="437.75" y1="242.34" x2="446.02" y2="242.34" xlink:href="#New_Gradient_Swatch_2"/><linearGradient id="New_Gradient_Swatch_2-18" x1="422.2" y1="242.16" x2="428.88" y2="242.16" xlink:href="#New_Gradient_Swatch_2"/><linearGradient id="New_Gradient_Swatch_2-19" x1="408.48" y1="241.99" x2="413.59" y2="241.99" xlink:href="#New_Gradient_Swatch_2"/><linearGradient id="New_Gradient_Swatch_2-20" x1="0" y1="243.16" x2="45.17" y2="243.16" xlink:href="#New_Gradient_Swatch_2"/><linearGradient id="New_Gradient_Swatch_2-21" x1="38.67" y1="242.34" x2="46.94" y2="242.34" xlink:href="#New_Gradient_Swatch_2"/><linearGradient id="New_Gradient_Swatch_2-22" x1="55.81" y1="242.53" x2="62.49" y2="242.53" xlink:href="#New_Gradient_Swatch_2"/><linearGradient id="New_Gradient_Swatch_2-23" x1="71.1" y1="242.7" x2="76.21" y2="242.7" xlink:href="#New_Gradient_Swatch_2"/></defs><title>circle_04_purple_blue</title><g id="Layer_2" data-name="Layer 2"><g id="Layer_1-2" data-name="Layer 1"><path class="cls-1" d="M241.57,392.16h1.55c1.66,0,3.32,0,5-.09v1.33a164.42,164.42,0,0,0,101.42-36.78v-8.8a149.79,149.79,0,0,0,0-210.95v-8.81A164.47,164.47,0,0,0,248.09,91.29v1.33c-1.65-.06-3.31-.09-5-.09h-1.55c-1.66,0-3.32,0-5,.09V91.29a164.47,164.47,0,0,0-101.42,36.77v8.81a149.79,149.79,0,0,0,0,211v8.8A164.42,164.42,0,0,0,236.6,393.4v-1.33C238.25,392.13,239.91,392.16,241.57,392.16Zm-5-5.39V385a156.48,156.48,0,0,1-51.33-9.52,144.58,144.58,0,0,1,0-266.27,156.54,156.54,0,0,1,51.34-9.52V97.92c1.65,0,3.31-.09,5-.09h1.55c1.66,0,3.32,0,5,.09v1.77a156.54,156.54,0,0,1,51.34,9.52,144.58,144.58,0,0,1,0,266.27A156.53,156.53,0,0,1,248.09,385v1.77c-1.65.05-3.31.09-5,.09h-1.55C239.91,386.86,238.25,386.82,236.6,386.77Z"/><path class="cls-2" d="M290.27,242.34a47.41,47.41,0,0,0-.6-7.49h5.93a53.9,53.9,0,0,0-45.76-45.76V195a47.11,47.11,0,0,0-15,0v-5.93a53.9,53.9,0,0,0-45.76,45.76H195a47.9,47.9,0,0,0,0,15h-5.93a53.9,53.9,0,0,0,45.76,45.76v-5.93a47.9,47.9,0,0,0,15,0v5.93a53.9,53.9,0,0,0,45.76-45.76h-5.93A47.54,47.54,0,0,0,290.27,242.34Zm-91.93,0a44,44,0,1,1,44,44A44.05,44.05,0,0,1,198.34,242.34Z"/><path class="cls-3" d="M242.35,350A107.61,107.61,0,1,1,350,242.34,107.73,107.73,0,0,1,242.35,350Zm0-211.85A104.24,104.24,0,1,0,346.58,242.34,104.37,104.37,0,0,0,242.35,138.1Z"/><circle class="cls-4" cx="242.34" cy="242.34" r="14.53"/><g class="cls-5"><path class="cls-6" d="M242.35,280.08a37.74,37.74,0,1,1,37.74-37.74A37.78,37.78,0,0,1,242.35,280.08Zm0-72.11a34.38,34.38,0,1,0,34.37,34.37A34.41,34.41,0,0,0,242.35,208Z"/></g><path class="cls-7" d="M242.35,348.65a1.69,1.69,0,0,1-1.69-1.68V137.72a1.69,1.69,0,0,1,3.37,0V347A1.68,1.68,0,0,1,242.35,348.65Z"/><path class="cls-8" d="M347,240.66H244V137.72a1.69,1.69,0,0,0-3.37,0V240.66H137.72a1.69,1.69,0,1,0,0,3.37H240.66V347a1.69,1.69,0,0,0,3.37,0V244H347a1.69,1.69,0,0,0,0-3.37Z"/><path class="cls-9" d="M241.53,45.17a1.68,1.68,0,0,1-1.68-1.68V1.68a1.68,1.68,0,0,1,3.36,0V43.49A1.68,1.68,0,0,1,241.53,45.17Z"/><path class="cls-10" d="M221.72,46.8a169.68,169.68,0,0,1,41.1.14L264,40.08a178,178,0,0,0-22.34-1.41,176.14,176.14,0,0,0-21,1.25Z"/><g class="cls-11"><path class="cls-12" d="M224.07,62.39a152.44,152.44,0,0,1,36.05.1l1-5.5a159.75,159.75,0,0,0-37.84-.11Z"/></g><g class="cls-13"><path class="cls-14" d="M226.14,76.14a139.27,139.27,0,0,1,31.61.06l.71-4.11A142.55,142.55,0,0,0,225.52,72Z"/></g><path class="cls-15" d="M243.16,484.69a1.68,1.68,0,0,1-1.68-1.68V441.2a1.68,1.68,0,0,1,3.36,0V483A1.68,1.68,0,0,1,243.16,484.69Z"/><path class="cls-16" d="M263,437.88a169,169,0,0,1-41.1-.13l-1.19,6.86A178,178,0,0,0,243,446a176.14,176.14,0,0,0,21-1.25Z"/><g class="cls-11"><path class="cls-17" d="M260.62,422.3a152.44,152.44,0,0,1-36.05-.1l-1,5.5a159.75,159.75,0,0,0,37.84.11Z"/></g><g class="cls-13"><path class="cls-18" d="M258.55,408.55a139.75,139.75,0,0,1-15.53.87,137.76,137.76,0,0,1-16.08-.94l-.71,4.11a141.09,141.09,0,0,0,16.79,1,143.54,143.54,0,0,0,16.15-.92Z"/></g><path class="cls-19" d="M483,243.21H441.2a1.68,1.68,0,0,1,0-3.36H483a1.68,1.68,0,0,1,0,3.36Z"/><path class="cls-20" d="M437.88,221.72a169,169,0,0,1-.13,41.1l6.86,1.19A178,178,0,0,0,446,241.67a176.14,176.14,0,0,0-1.25-21Z"/><g class="cls-11"><path class="cls-21" d="M422.3,224.07a152.44,152.44,0,0,1-.1,36.05l5.5,1a159.75,159.75,0,0,0,.11-37.84Z"/></g><g class="cls-13"><path class="cls-22" d="M408.55,226.14a139.75,139.75,0,0,1,.87,15.53,137.76,137.76,0,0,1-.94,16.08l4.11.71a141.09,141.09,0,0,0,1-16.79,143.54,143.54,0,0,0-.92-16.15Z"/></g><path class="cls-23" d="M43.49,244.84H1.68a1.68,1.68,0,0,1,0-3.36H43.49a1.68,1.68,0,0,1,0,3.36Z"/><path class="cls-24" d="M46.81,263a169,169,0,0,1,.13-41.1l-6.86-1.19A178,178,0,0,0,38.67,243a176.14,176.14,0,0,0,1.25,21Z"/><g class="cls-11"><path class="cls-25" d="M62.39,260.62a152.44,152.44,0,0,1,.1-36.05l-5.5-1a159.75,159.75,0,0,0-.11,37.84Z"/></g><g class="cls-13"><path class="cls-26" d="M76.14,258.55A139.75,139.75,0,0,1,75.27,243a137.76,137.76,0,0,1,.94-16.08l-4.12-.71A142.55,142.55,0,0,0,72,259.17Z"/></g></g></g></svg>