<svg xmlns="http://www.w3.org/2000/svg" viewBox="0 0 492.43 492.43"><defs><style>.cls-1{fill:#11e5b3;}</style></defs><title>circle_07_green</title><g id="Layer_2" data-name="Layer 2"><g id="Layer_1-2" data-name="Layer 1"><path class="cls-1" d="M263.85,246.05a17.64,17.64,0,1,1-17.8-17.47A17.64,17.64,0,0,1,263.85,246.05Z"/><path class="cls-1" d="M246.54,280.56a34.35,34.35,0,1,1,34-34.66A34.39,34.39,0,0,1,246.54,280.56Zm-.61-65a30.64,30.64,0,1,0,30.92,30.35A30.68,30.68,0,0,0,245.93,215.58Z"/><path class="cls-1" d="M246.64,291.7a45.49,45.49,0,1,1,45.06-45.91A45.55,45.55,0,0,1,246.64,291.7Zm-.81-87.25A41.77,41.77,0,1,0,288,245.83,41.8,41.8,0,0,0,245.83,204.45Z"/><path class="cls-1" d="M202.23,248.48,1.87,250.35a1.86,1.86,0,0,1,0-3.72l200.35-1.86a1.86,1.86,0,1,1,0,3.71Z"/><path class="cls-1" d="M490.59,245.8l-200.35,1.86a1.86,1.86,0,1,1,0-3.71l200.35-1.86a1.86,1.86,0,1,1,0,3.71Z"/><path class="cls-1" d="M245.82,204.07a1.87,1.87,0,0,1-1.87-1.84L242.09,1.87a1.86,1.86,0,1,1,3.71,0l1.86,200.35A1.86,1.86,0,0,1,245.82,204.07Z"/><path class="cls-1" d="M248.51,492.43a1.86,1.86,0,0,1-1.88-1.84l-1.86-200.35a1.86,1.86,0,1,1,3.71,0l1.87,200.35A1.86,1.86,0,0,1,248.51,492.43Z"/><path class="cls-1" d="M34.77,255.15A230.26,230.26,0,0,0,87.59,396.68l15.41-.15A219.52,219.52,0,0,1,46.53,255Z"/><path class="cls-1" d="M46.59,241.11A219.65,219.65,0,0,1,106,98.54l-15.9.14A230.28,230.28,0,0,0,34.82,241.22Z"/><path class="cls-1" d="M457.49,237.29A230.29,230.29,0,0,0,399.59,95.8L383.7,96a219.61,219.61,0,0,1,62,141.45Z"/><path class="cls-1" d="M446,251.32A219.45,219.45,0,0,1,392.2,393.84l15.42-.14a230.29,230.29,0,0,0,50.17-142.49Z"/><path class="cls-1" d="M413.93,251.62A167.8,167.8,0,0,1,262.62,413.2l.11,11.4A179.16,179.16,0,0,0,425.27,251.51Z"/><path class="cls-1" d="M232.92,413.48A167.81,167.81,0,0,1,78.63,254.74l-11.34.1A179.15,179.15,0,0,0,233,424.87Z"/><path class="cls-1" d="M229.7,67.83A179.16,179.16,0,0,0,67.16,240.92l11.34-.11A167.8,167.8,0,0,1,229.81,79.23Z"/><path class="cls-1" d="M259.41,67.56l.1,11.39A167.81,167.81,0,0,1,413.8,237.69l11.34-.1A179.15,179.15,0,0,0,259.41,67.56Z"/></g></g></svg>