<svg xmlns="http://www.w3.org/2000/svg" xmlns:xlink="http://www.w3.org/1999/xlink" viewBox="0 0 490.72 490.72"><defs><style>.cls-1{mask:url(#mask);filter:url(#luminosity-noclip-15);}.cls-10,.cls-12,.cls-14,.cls-16,.cls-18,.cls-2,.cls-20,.cls-22,.cls-24,.cls-26,.cls-28,.cls-4,.cls-6,.cls-8{mix-blend-mode:multiply;}.cls-2{fill:url(#Безымянный_градиент_17);}.cls-3,.cls-7{mask:url(#mask-2);}.cls-3{filter:url(#luminosity-noclip-20);}.cls-4{fill:url(#linear-gradient);}.cls-27,.cls-5{mask:url(#mask-3);}.cls-5{filter:url(#luminosity-noclip-21);}.cls-6{fill:url(#linear-gradient-2);}.cls-7{filter:url(#luminosity-noclip-22);}.cls-8{fill:url(#linear-gradient-3);}.cls-15,.cls-9{mask:url(#mask-5);}.cls-9{filter:url(#luminosity-noclip-23);}.cls-10{fill:url(#linear-gradient-4);}.cls-11,.cls-17{mask:url(#mask-6);}.cls-11{filter:url(#luminosity-noclip-24);}.cls-12{fill:url(#linear-gradient-5);}.cls-13{mask:url(#mask-7);filter:url(#luminosity-noclip-16);}.cls-14{fill:url(#Безымянный_градиент_17-2);}.cls-15{filter:url(#luminosity-noclip-25);}.cls-16{fill:url(#linear-gradient-6);}.cls-17{filter:url(#luminosity-noclip-26);}.cls-18{fill:url(#linear-gradient-7);}.cls-19,.cls-21{mask:url(#mask-10);}.cls-19{filter:url(#luminosity-noclip-27);}.cls-20{fill:url(#linear-gradient-8);}.cls-21{filter:url(#luminosity-noclip-28);}.cls-22{fill:url(#linear-gradient-9);}.cls-23,.cls-25{mask:url(#mask-12);}.cls-23{filter:url(#luminosity-noclip-17);}.cls-24{fill:url(#linear-gradient-10);}.cls-25{filter:url(#luminosity-noclip-18);}.cls-26{fill:url(#linear-gradient-11);}.cls-27{filter:url(#luminosity-noclip-19);}.cls-28{fill:url(#linear-gradient-12);}.cls-29{opacity:0.2;}.cls-30{mask:url(#mask-15);}.cls-31{fill:#17cffc;}.cls-32{mask:url(#mask-16);}.cls-33{mask:url(#mask-17);}.cls-34{mask:url(#mask-18);}.cls-35{mask:url(#mask-19);}.cls-36{mask:url(#mask-20);}.cls-37{mask:url(#mask-21);}.cls-38{mask:url(#mask-22);}.cls-39{mask:url(#mask-23);}.cls-40{mask:url(#mask-24);}.cls-41{mask:url(#mask-25);}.cls-42{mask:url(#mask-26);}.cls-43{opacity:0.4;}.cls-44{mask:url(#mask-27);}.cls-45{mask:url(#mask-28);}.cls-46{filter:url(#luminosity-noclip-12);}.cls-47{filter:url(#luminosity-noclip-10);}.cls-48{filter:url(#luminosity-noclip-7);}.cls-49{filter:url(#luminosity-noclip-6);}.cls-50{filter:url(#luminosity-noclip-5);}.cls-51{filter:url(#luminosity-noclip-3);}.cls-52{filter:url(#luminosity-noclip-2);}.cls-53{filter:url(#luminosity-noclip);}</style><filter id="luminosity-noclip" x="55.35" y="-8436.55" width="385.16" height="32766" filterUnits="userSpaceOnUse" color-interpolation-filters="sRGB"><feFlood flood-color="#fff" result="bg"/><feBlend in="SourceGraphic" in2="bg"/></filter><mask id="mask" x="55.35" y="-8436.55" width="385.16" height="32766" maskUnits="userSpaceOnUse"><g class="cls-53"/></mask><radialGradient id="Безымянный_градиент_17" cx="247.93" cy="245.36" r="192.58" gradientUnits="userSpaceOnUse"><stop offset="0" stop-color="#fff"/><stop offset="0.12" stop-color="#fbfbfb"/><stop offset="0.25" stop-color="#eee"/><stop offset="0.37" stop-color="#dadada"/><stop offset="0.5" stop-color="#bcbcbc"/><stop offset="0.63" stop-color="#979797"/><stop offset="0.76" stop-color="#696969"/><stop offset="0.89" stop-color="#343434"/><stop offset="1"/></radialGradient><filter id="luminosity-noclip-2" x="282.87" y="-8436.55" width="91.37" height="32766" filterUnits="userSpaceOnUse" color-interpolation-filters="sRGB"><feFlood flood-color="#fff" result="bg"/><feBlend in="SourceGraphic" in2="bg"/></filter><mask id="mask-2" x="282.87" y="-8436.55" width="91.37" height="32766" maskUnits="userSpaceOnUse"><g class="cls-52"/></mask><linearGradient id="linear-gradient" x1="353.68" y1="205.4" x2="304.6" y2="254.48" gradientUnits="userSpaceOnUse"><stop offset="0" stop-color="#fff"/><stop offset="0.03" stop-color="#ededed"/><stop offset="0.14" stop-color="#b6b6b6"/><stop offset="0.26" stop-color="#868686"/><stop offset="0.37" stop-color="#5d5d5d"/><stop offset="0.49" stop-color="#3b3b3b"/><stop offset="0.61" stop-color="#212121"/><stop offset="0.73" stop-color="#0f0f0f"/><stop offset="0.86" stop-color="#040404"/><stop offset="1"/></linearGradient><filter id="luminosity-noclip-3" x="251.92" y="-8436.55" width="16.61" height="32766" filterUnits="userSpaceOnUse" color-interpolation-filters="sRGB"><feFlood flood-color="#fff" result="bg"/><feBlend in="SourceGraphic" in2="bg"/></filter><mask id="mask-3" x="251.92" y="-8436.55" width="16.61" height="32766" maskUnits="userSpaceOnUse"><g class="cls-51"/></mask><linearGradient id="linear-gradient-2" x1="285.61" y1="724.79" x2="236.4" y2="774" gradientTransform="matrix(1, 0, 0, -1, 0, 1079.74)" xlink:href="#linear-gradient"/><linearGradient id="linear-gradient-3" x1="353.68" y1="793.34" x2="304.6" y2="842.42" gradientTransform="matrix(1, 0, 0, -1, 0, 1079.74)" xlink:href="#linear-gradient"/><filter id="luminosity-noclip-5" x="220.69" y="-8436.55" width="16.61" height="32766" filterUnits="userSpaceOnUse" color-interpolation-filters="sRGB"><feFlood flood-color="#fff" result="bg"/><feBlend in="SourceGraphic" in2="bg"/></filter><mask id="mask-5" x="220.69" y="-8436.55" width="16.61" height="32766" maskUnits="userSpaceOnUse"><g class="cls-50"/></mask><linearGradient id="linear-gradient-4" x1="-129.01" y1="136.86" x2="-178.22" y2="186.06" gradientTransform="matrix(-1, 0, 0, 1, 74.6, 0)" xlink:href="#linear-gradient"/><filter id="luminosity-noclip-6" x="114.98" y="-8436.55" width="91.37" height="32766" filterUnits="userSpaceOnUse" color-interpolation-filters="sRGB"><feFlood flood-color="#fff" result="bg"/><feBlend in="SourceGraphic" in2="bg"/></filter><mask id="mask-6" x="114.98" y="-8436.55" width="91.37" height="32766" maskUnits="userSpaceOnUse"><g class="cls-49"/></mask><linearGradient id="linear-gradient-5" x1="-60.94" y1="205.4" x2="-110.02" y2="254.48" gradientTransform="matrix(-1, 0, 0, 1, 74.6, 0)" xlink:href="#linear-gradient"/><filter id="luminosity-noclip-7" x="175.17" y="-8436.55" width="142.83" height="32766" filterUnits="userSpaceOnUse" color-interpolation-filters="sRGB"><feFlood flood-color="#fff" result="bg"/><feBlend in="SourceGraphic" in2="bg"/></filter><mask id="mask-7" x="175.17" y="-8436.55" width="142.83" height="32766" maskUnits="userSpaceOnUse"><g class="cls-48"/></mask><radialGradient id="Безымянный_градиент_17-2" cx="246.59" cy="245.36" r="71.42" gradientTransform="translate(56.77 -46.15) rotate(12.07)" xlink:href="#Безымянный_градиент_17"/><linearGradient id="linear-gradient-6" x1="-129.01" y1="724.79" x2="-178.22" y2="774" gradientTransform="translate(74.6 1079.74) rotate(180)" xlink:href="#linear-gradient"/><linearGradient id="linear-gradient-7" x1="-60.94" y1="793.34" x2="-110.02" y2="842.42" gradientTransform="translate(74.6 1079.74) rotate(180)" xlink:href="#linear-gradient"/><filter id="luminosity-noclip-10" x="140.11" y="-8436.55" width="205.41" height="32766" filterUnits="userSpaceOnUse" color-interpolation-filters="sRGB"><feFlood flood-color="#fff" result="bg"/><feBlend in="SourceGraphic" in2="bg"/></filter><mask id="mask-10" x="140.11" y="-8436.55" width="205.41" height="32766" maskUnits="userSpaceOnUse"><g class="cls-47"/></mask><linearGradient id="linear-gradient-8" x1="242.82" y1="120.8" x2="242.82" y2="64.74" gradientUnits="userSpaceOnUse"><stop offset="0" stop-color="#fff"/><stop offset="0.01" stop-color="#f6f6f6"/><stop offset="0.05" stop-color="#c8c8c8"/><stop offset="0.09" stop-color="#9d9d9d"/><stop offset="0.14" stop-color="#777"/><stop offset="0.2" stop-color="#575757"/><stop offset="0.25" stop-color="#3b3b3b"/><stop offset="0.32" stop-color="#252525"/><stop offset="0.4" stop-color="#141414"/><stop offset="0.49" stop-color="#090909"/><stop offset="0.63" stop-color="#020202"/><stop offset="1"/></linearGradient><linearGradient id="linear-gradient-9" x1="-216.1" y1="1084.18" x2="-216.1" y2="1028.11" gradientTransform="translate(26.72 1454.28) rotate(180)" xlink:href="#linear-gradient-8"/><filter id="luminosity-noclip-12" x="159.13" y="-8436.55" width="166.19" height="32766" filterUnits="userSpaceOnUse" color-interpolation-filters="sRGB"><feFlood flood-color="#fff" result="bg"/><feBlend in="SourceGraphic" in2="bg"/></filter><mask id="mask-12" x="159.13" y="-8436.55" width="166.19" height="32766" maskUnits="userSpaceOnUse"><g class="cls-46"/></mask><linearGradient id="linear-gradient-10" x1="159.13" y1="330.54" x2="325.32" y2="330.54" gradientUnits="userSpaceOnUse"><stop offset="0.03"/><stop offset="0.07" stop-color="#212121"/><stop offset="0.16" stop-color="#646464"/><stop offset="0.26" stop-color="#9b9b9b"/><stop offset="0.34" stop-color="#c6c6c6"/><stop offset="0.41" stop-color="#e5e5e5"/><stop offset="0.48" stop-color="#f8f8f8"/><stop offset="0.52" stop-color="#fff"/><stop offset="0.56" stop-color="#f8f8f8"/><stop offset="0.62" stop-color="#e6e6e6"/><stop offset="0.7" stop-color="#c8c8c8"/><stop offset="0.77" stop-color="#9e9e9e"/><stop offset="0.86" stop-color="#696969"/><stop offset="0.95" stop-color="#282828"/><stop offset="1"/></linearGradient><linearGradient id="linear-gradient-11" x1="159.13" y1="160.18" x2="325.32" y2="160.18" xlink:href="#linear-gradient-10"/><linearGradient id="linear-gradient-12" x1="285.61" y1="136.86" x2="236.4" y2="186.06" xlink:href="#linear-gradient"/><filter id="luminosity-noclip-15" x="55.35" y="52.78" width="385.16" height="385.16" filterUnits="userSpaceOnUse" color-interpolation-filters="sRGB"><feFlood flood-color="#fff" result="bg"/><feBlend in="SourceGraphic" in2="bg"/></filter><mask id="mask-15" x="55.35" y="52.78" width="385.16" height="385.16" maskUnits="userSpaceOnUse"><g class="cls-1"><circle class="cls-2" cx="247.93" cy="245.36" r="192.58"/></g></mask><filter id="luminosity-noclip-16" x="175.17" y="173.94" width="142.83" height="142.83" filterUnits="userSpaceOnUse" color-interpolation-filters="sRGB"><feFlood flood-color="#fff" result="bg"/><feBlend in="SourceGraphic" in2="bg"/></filter><mask id="mask-16" x="175.17" y="173.94" width="142.83" height="142.83" maskUnits="userSpaceOnUse"><g class="cls-13"><circle class="cls-14" cx="246.59" cy="245.36" r="71.4" transform="translate(-45.86 57) rotate(-12.07)"/></g></mask><filter id="luminosity-noclip-17" x="159.13" y="310.71" width="166.19" height="39.67" filterUnits="userSpaceOnUse" color-interpolation-filters="sRGB"><feFlood flood-color="#fff" result="bg"/><feBlend in="SourceGraphic" in2="bg"/></filter><mask id="mask-17" x="159.13" y="310.71" width="166.19" height="39.67" maskUnits="userSpaceOnUse"><g class="cls-23"><path class="cls-24" d="M319.44,312.6a109.38,109.38,0,0,1-154.4.09,3.05,3.05,0,0,0-5.91,1.07v26.13a3.06,3.06,0,0,0,6.12,0v-19a115.2,115.2,0,0,0,154-.05v19a3.06,3.06,0,0,0,6.11,0V313.76a3.06,3.06,0,0,0-5.88-1.16Z"/></g></mask><filter id="luminosity-noclip-18" x="159.13" y="140.34" width="166.19" height="39.67" filterUnits="userSpaceOnUse" color-interpolation-filters="sRGB"><feFlood flood-color="#fff" result="bg"/><feBlend in="SourceGraphic" in2="bg"/></filter><mask id="mask-18" x="159.13" y="140.34" width="166.19" height="39.67" maskUnits="userSpaceOnUse"><g class="cls-25"><path class="cls-26" d="M319.44,178.12A109.38,109.38,0,0,0,165,178a3.05,3.05,0,0,1-5.91-1.07V150.83a3.06,3.06,0,1,1,6.12,0v19a115.2,115.2,0,0,1,154,.05v-19a3.06,3.06,0,1,1,6.11,0V177a3.06,3.06,0,0,1-5.88,1.16Z"/></g></mask><filter id="luminosity-noclip-19" x="251.92" y="116.64" width="16.61" height="91.2" filterUnits="userSpaceOnUse" color-interpolation-filters="sRGB"><feFlood flood-color="#fff" result="bg"/><feBlend in="SourceGraphic" in2="bg"/></filter><mask id="mask-19" x="251.92" y="116.64" width="16.61" height="91.2" maskUnits="userSpaceOnUse"><g class="cls-27"><path class="cls-28" d="M268.53,207.84V119.78a137.92,137.92,0,0,0-16.61-3.14v84.94A42.61,42.61,0,0,1,268.53,207.84Z"/></g></mask><filter id="luminosity-noclip-20" x="282.87" y="222.83" width="91.37" height="15.39" filterUnits="userSpaceOnUse" color-interpolation-filters="sRGB"><feFlood flood-color="#fff" result="bg"/><feBlend in="SourceGraphic" in2="bg"/></filter><mask id="mask-20" x="282.87" y="222.83" width="91.37" height="15.39" maskUnits="userSpaceOnUse"><g class="cls-3"><path class="cls-4" d="M288.35,238.23h85.89a145.28,145.28,0,0,0-3.13-15.4H282.87A44.62,44.62,0,0,1,288.35,238.23Z"/></g></mask><filter id="luminosity-noclip-21" x="251.92" y="283.97" width="16.61" height="91.2" filterUnits="userSpaceOnUse" color-interpolation-filters="sRGB"><feFlood flood-color="#fff" result="bg"/><feBlend in="SourceGraphic" in2="bg"/></filter><mask id="mask-21" x="251.92" y="283.97" width="16.61" height="91.2" maskUnits="userSpaceOnUse"><g class="cls-5"><path class="cls-6" d="M268.53,284V372a137.92,137.92,0,0,1-16.61,3.14V290.23A42.76,42.76,0,0,0,268.53,284Z"/></g></mask><filter id="luminosity-noclip-22" x="282.87" y="253.58" width="91.37" height="15.39" filterUnits="userSpaceOnUse" color-interpolation-filters="sRGB"><feFlood flood-color="#fff" result="bg"/><feBlend in="SourceGraphic" in2="bg"/></filter><mask id="mask-22" x="282.87" y="253.58" width="91.37" height="15.39" maskUnits="userSpaceOnUse"><g class="cls-7"><path class="cls-8" d="M288.35,253.58h85.89A144.59,144.59,0,0,1,371.11,269H282.87A44.56,44.56,0,0,0,288.35,253.58Z"/></g></mask><filter id="luminosity-noclip-23" x="220.69" y="116.64" width="16.61" height="91.2" filterUnits="userSpaceOnUse" color-interpolation-filters="sRGB"><feFlood flood-color="#fff" result="bg"/><feBlend in="SourceGraphic" in2="bg"/></filter><mask id="mask-23" x="220.69" y="116.64" width="16.61" height="91.2" maskUnits="userSpaceOnUse"><g class="cls-9"><path class="cls-10" d="M220.69,207.84V119.78a137.92,137.92,0,0,1,16.61-3.14v84.94A42.49,42.49,0,0,0,220.69,207.84Z"/></g></mask><filter id="luminosity-noclip-24" x="114.98" y="222.83" width="91.37" height="15.39" filterUnits="userSpaceOnUse" color-interpolation-filters="sRGB"><feFlood flood-color="#fff" result="bg"/><feBlend in="SourceGraphic" in2="bg"/></filter><mask id="mask-24" x="114.98" y="222.83" width="91.37" height="15.39" maskUnits="userSpaceOnUse"><g class="cls-11"><path class="cls-12" d="M200.87,238.23H115a145.26,145.26,0,0,1,3.12-15.4h88.24A44.6,44.6,0,0,0,200.87,238.23Z"/></g></mask><filter id="luminosity-noclip-25" x="220.69" y="283.97" width="16.61" height="91.2" filterUnits="userSpaceOnUse" color-interpolation-filters="sRGB"><feFlood flood-color="#fff" result="bg"/><feBlend in="SourceGraphic" in2="bg"/></filter><mask id="mask-25" x="220.69" y="283.97" width="16.61" height="91.2" maskUnits="userSpaceOnUse"><g class="cls-15"><path class="cls-16" d="M220.69,284V372a137.92,137.92,0,0,0,16.61,3.14V290.23A42.65,42.65,0,0,1,220.69,284Z"/></g></mask><filter id="luminosity-noclip-26" x="114.98" y="253.58" width="91.37" height="15.39" filterUnits="userSpaceOnUse" color-interpolation-filters="sRGB"><feFlood flood-color="#fff" result="bg"/><feBlend in="SourceGraphic" in2="bg"/></filter><mask id="mask-26" x="114.98" y="253.58" width="91.37" height="15.39" maskUnits="userSpaceOnUse"><g class="cls-17"><path class="cls-18" d="M200.87,253.58H115A144.57,144.57,0,0,0,118.1,269h88.24A44.55,44.55,0,0,1,200.87,253.58Z"/></g></mask><filter id="luminosity-noclip-27" x="140.11" y="64.74" width="205.41" height="56.07" filterUnits="userSpaceOnUse" color-interpolation-filters="sRGB"><feFlood flood-color="#fff" result="bg"/><feBlend in="SourceGraphic" in2="bg"/></filter><mask id="mask-27" x="140.11" y="64.74" width="205.41" height="56.07" maskUnits="userSpaceOnUse"><g class="cls-19"><path class="cls-20" d="M140.9,90.9l-.79,29.9s96-71.62,205.42,0V88.54S247.15,33.44,140.9,90.9Z"/></g></mask><filter id="luminosity-noclip-28" x="140.11" y="370.1" width="205.41" height="56.07" filterUnits="userSpaceOnUse" color-interpolation-filters="sRGB"><feFlood flood-color="#fff" result="bg"/><feBlend in="SourceGraphic" in2="bg"/></filter><mask id="mask-28" x="140.11" y="370.1" width="205.41" height="56.07" maskUnits="userSpaceOnUse"><g class="cls-21"><path class="cls-22" d="M344.74,400l.79-29.91s-96,71.62-205.42,0v32.27S238.49,457.46,344.74,400Z"/></g></mask></defs><title>circle_12</title><g id="Layer_2" data-name="Layer 2"><g id="Layer_1-2" data-name="Layer 1"><g class="cls-29"><g class="cls-30"><circle class="cls-31" cx="247.93" cy="245.36" r="192.58"/></g></g><rect class="cls-31" x="355.3" y="112.01" width="48.68" height="3.28" transform="translate(30.83 301.73) rotate(-45)"/><rect class="cls-31" x="91.87" y="375.43" width="48.69" height="3.28" transform="translate(-232.6 192.64) rotate(-45)"/><rect class="cls-31" x="378" y="352.73" width="3.28" height="48.68" transform="translate(-155.44 378.88) rotate(-45)"/><rect class="cls-31" x="114.58" y="89.31" width="3.28" height="48.68" transform="translate(-46.32 115.46) rotate(-45)"/><path class="cls-31" d="M257.22,245.36a9.29,9.29,0,1,1-9.29-9.29A9.29,9.29,0,0,1,257.22,245.36Z"/><path class="cls-31" d="M247.93,409.24a162.83,162.83,0,0,1-115.88-48l2.77-2.77a160,160,0,0,0,226.22,0l2.77,2.77A162.82,162.82,0,0,1,247.93,409.24Z"/><path class="cls-31" d="M134.81,132.24l-2.76-2.76a163.88,163.88,0,0,1,231.75,0L361,132.24a160,160,0,0,0-226.23,0Z"/><path class="cls-31" d="M247.93,272a26.68,26.68,0,1,1,26.67-26.68A26.71,26.71,0,0,1,247.93,272Zm0-49.45a22.77,22.77,0,1,0,22.76,22.77A22.8,22.8,0,0,0,247.93,222.59Z"/><path class="cls-31" d="M266.57,276.63l-.84-1.4a34.93,34.93,0,0,0,17-29.83c0-.84,0-1.69-.09-2.54l1.63-.11c.07.88.1,1.77.1,2.65A36.58,36.58,0,0,1,266.57,276.63Zm-38.21-.58A36.07,36.07,0,0,1,211.62,248c-.06-.88-.09-1.77-.09-2.65,0-1.22.06-2.46.18-3.67l1.63.17c-.11,1.15-.17,2.33-.17,3.5,0,.84,0,1.69.09,2.54a34.46,34.46,0,0,0,16,26.81Zm43.05-56.32A34.64,34.64,0,0,0,248,210.6c-.85,0-1.7,0-2.54.09a34.53,34.53,0,0,0-9.87,2.17l-.58-1.53a36.74,36.74,0,0,1,10.33-2.28c.88-.06,1.77-.09,2.66-.09a36.24,36.24,0,0,1,24.54,9.56Z"/><rect class="cls-31" x="55.35" y="244.54" width="15.98" height="1.64"/><rect class="cls-31" x="424.53" y="244.54" width="15.98" height="1.64"/><rect class="cls-31" x="55.6" y="254.2" width="15.98" height="1.64" transform="translate(-13.13 3.64) rotate(-2.97)"/><rect class="cls-31" x="424.28" y="234.88" width="15.98" height="1.64" transform="translate(-11.66 22.78) rotate(-2.98)"/><rect class="cls-31" x="56.36" y="263.84" width="15.98" height="1.64" transform="translate(-27.43 8.22) rotate(-6.03)"/><rect class="cls-31" x="423.52" y="225.25" width="15.98" height="1.64" transform="translate(-21.32 46.49) rotate(-6.02)"/><rect class="cls-31" x="57.62" y="273.42" width="15.98" height="1.64" transform="translate(-42.19 13.68) rotate(-9.02)"/><rect class="cls-31" x="422.26" y="215.66" width="15.98" height="1.64" transform="translate(-28.62 70.13) rotate(-9.02)"/><rect class="cls-31" x="59.38" y="282.92" width="15.98" height="1.64" transform="translate(-57.38 20.14) rotate(-11.97)"/><rect class="cls-31" x="420.5" y="206.16" width="15.98" height="1.64" transform="translate(-33.63 93.44) rotate(-11.98)"/><rect class="cls-31" x="61.64" y="292.32" width="15.98" height="1.64" transform="translate(-73.62 28.08) rotate(-15.03)"/><rect class="cls-31" x="418.24" y="196.76" width="15.98" height="1.64" transform="translate(-36.66 117.33) rotate(-15.04)"/><rect class="cls-31" x="64.38" y="301.58" width="15.98" height="1.64" transform="translate(-89.86 37.13) rotate(-17.99)"/><rect class="cls-31" x="415.5" y="187.5" width="15.98" height="1.64" transform="translate(-37.46 140.02) rotate(-17.99)"/><rect class="cls-31" x="67.61" y="310.69" width="15.98" height="1.64" transform="translate(-106.56 47.75) rotate(-20.99)"/><rect class="cls-31" x="412.27" y="178.39" width="15.98" height="1.64" transform="translate(-36.31 162.42) rotate(-20.99)"/><rect class="cls-31" x="71.3" y="319.62" width="15.98" height="1.64" transform="translate(-123.39 59.89) rotate(-23.98)"/><rect class="cls-31" x="408.57" y="169.46" width="15.98" height="1.64" transform="translate(-33.25 184) rotate(-23.98)"/><rect class="cls-31" x="75.46" y="328.34" width="15.98" height="1.64" transform="translate(-140.17 73.61) rotate(-26.96)"/><rect class="cls-31" x="404.41" y="160.74" width="15.98" height="1.64" transform="translate(-28.42 204.63) rotate(-26.97)"/><rect class="cls-31" x="80.08" y="336.84" width="15.98" height="1.64" transform="translate(-157.12 89.36) rotate(-30.02)"/><rect class="cls-31" x="399.8" y="152.24" width="15.98" height="1.64" transform="translate(-21.86 224.62) rotate(-30.03)"/><rect class="cls-31" x="85.13" y="345.08" width="15.98" height="1.64" transform="translate(-173.45 106.61) rotate(-33.02)"/><rect class="cls-31" x="394.75" y="144" width="15.98" height="1.64" transform="translate(-13.88 242.82) rotate(-33.01)"/><rect class="cls-31" x="90.6" y="353.04" width="15.98" height="1.64" transform="translate(-189.08 125.42) rotate(-35.98)"/><rect class="cls-31" x="389.28" y="136.04" width="15.98" height="1.64" transform="translate(-4.62 259.49) rotate(-35.98)"/><rect class="cls-31" x="96.48" y="360.71" width="15.98" height="1.64" transform="translate(-204.24 146.32) rotate(-39)"/><rect class="cls-31" x="383.39" y="128.37" width="15.98" height="1.64" transform="translate(5.92 275.11) rotate(-39)"/><path class="cls-31" d="M247.93,315.19a69.91,69.91,0,0,1-69.84-69.83h1.64a68.2,68.2,0,1,0,136.39,0h1.64A69.91,69.91,0,0,1,247.93,315.19Z"/><g class="cls-29"><g class="cls-32"><circle class="cls-31" cx="246.59" cy="245.36" r="71.4" transform="translate(-45.86 57) rotate(-12.07)"/></g></g><rect class="cls-31" x="10.64" y="244.06" width="471.89" height="2.59" transform="translate(0.6 491.32) rotate(-89.85)"/><rect class="cls-31" x="245.3" y="9.41" width="2.59" height="471.89" transform="translate(0.58 491.3) rotate(-89.85)"/><rect class="cls-31" x="222.72" y="188.49" width="79.63" height="2.59" transform="translate(72.08 451.84) rotate(-89.85)"/><rect class="cls-31" x="300.95" y="189.89" width="2.59" height="79.63" transform="matrix(0, -1, 1, 0, 71.74, 531.34)"/><rect class="cls-31" x="191.51" y="188.8" width="79.63" height="2.59" transform="translate(40.64 420.94) rotate(-89.85)"/><rect class="cls-31" x="190.12" y="189.99" width="2.59" height="79.63" transform="translate(-38.9 420.61) rotate(-89.85)"/><rect class="cls-31" x="222.43" y="298.77" width="79.63" height="2.59" transform="translate(-38.49 561.55) rotate(-89.85)"/><rect class="cls-31" x="300.87" y="220.54" width="2.59" height="79.63" transform="translate(41.01 561.84) rotate(-89.85)"/><rect class="cls-31" x="191.23" y="298.3" width="79.63" height="2.59" transform="translate(-69.14 529.87) rotate(-89.85)"/><rect class="cls-31" x="190.04" y="219.85" width="2.59" height="79.63" transform="translate(-68.84 450.32) rotate(-89.85)"/><rect class="cls-31" x="155.13" y="47.99" width="2.59" height="39.63" transform="translate(-13.75 78.17) rotate(-26.92)"/><rect class="cls-31" x="335.46" y="403.1" width="2.59" height="39.63" transform="translate(-154.99 198.31) rotate(-26.92)"/><rect class="cls-31" x="55.99" y="163.75" width="2.59" height="39.63" transform="translate(-134.99 181.05) rotate(-71.92)"/><rect class="cls-31" x="434.6" y="287.34" width="2.59" height="39.63" transform="translate(8.64 626.22) rotate(-71.92)"/><rect class="cls-31" x="49.22" y="334.23" width="39.63" height="2.59" transform="translate(-144.4 67.59) rotate(-26.91)"/><rect class="cls-31" x="404.33" y="153.9" width="39.63" height="2.59" transform="translate(-24.31 208.8) rotate(-26.91)"/><rect class="cls-31" x="164.98" y="433.37" width="39.63" height="2.59" transform="translate(-285.76 475.41) rotate(-71.92)"/><rect class="cls-31" x="288.57" y="54.76" width="39.63" height="2.59" transform="translate(159.37 331.8) rotate(-71.91)"/><rect class="cls-31" x="148.03" y="149.31" width="2.59" height="25.49" transform="translate(-70.89 170.05) rotate(-49.42)"/><rect class="cls-31" x="342.57" y="315.92" width="2.59" height="25.49" transform="translate(-129.44 376.03) rotate(-49.42)"/><rect class="cls-31" x="106.16" y="253.94" width="25.49" height="2.59" transform="translate(-19.37 9.95) rotate(-4.43)"/><rect class="cls-31" x="361.53" y="234.19" width="25.49" height="2.59" transform="translate(-17.1 29.66) rotate(-4.44)"/><rect class="cls-31" x="150.54" y="341.33" width="25.49" height="2.59" transform="translate(-203.15 243.72) rotate(-49.41)"/><rect class="cls-31" x="317.15" y="146.79" width="25.49" height="2.59" transform="translate(2.85 302.37) rotate(-49.43)"/><rect class="cls-31" x="255.17" y="360.3" width="2.59" height="25.49" transform="translate(-28 20.88) rotate(-4.42)"/><rect class="cls-31" x="235.42" y="104.93" width="2.59" height="25.49" transform="translate(-8.37 18.6) rotate(-4.42)"/><path class="cls-31" d="M245.36,115.51A129.85,129.85,0,1,0,375.21,245.36,129.84,129.84,0,0,0,245.36,115.51Zm0,251.49A121.64,121.64,0,1,1,367,245.36,121.64,121.64,0,0,1,245.36,367Z"/><path class="cls-31" d="M132.9,150.15A154.87,154.87,0,0,1,351.52,150a4.32,4.32,0,0,0,8.37-1.53v-37a4.33,4.33,0,0,0-8.66,0v26.87a163.13,163.13,0,0,0-218,.08V111.51a4.33,4.33,0,0,0-8.66,0v37a4.33,4.33,0,0,0,8.33,1.65Z"/><path class="cls-31" d="M132.9,340.57a154.87,154.87,0,0,0,218.62.12,4.32,4.32,0,0,1,8.37,1.53v37a4.33,4.33,0,0,1-8.66,0V352.34a163.13,163.13,0,0,1-218-.08V379.2a4.33,4.33,0,1,1-8.66,0v-37a4.33,4.33,0,0,1,8.33-1.65Z"/><g class="cls-33"><path class="cls-31" d="M319.44,312.6a109.38,109.38,0,0,1-154.4.09,3.05,3.05,0,0,0-5.91,1.07v26.13a3.06,3.06,0,0,0,6.12,0v-19a115.2,115.2,0,0,0,154-.05v19a3.06,3.06,0,0,0,6.11,0V313.76a3.06,3.06,0,0,0-5.88-1.16Z"/></g><g class="cls-34"><path class="cls-31" d="M319.44,178.12A109.38,109.38,0,0,0,165,178a3.05,3.05,0,0,1-5.91-1.07V150.83a3.06,3.06,0,1,1,6.12,0v19a115.2,115.2,0,0,1,154,.05v-19a3.06,3.06,0,1,1,6.11,0V177a3.06,3.06,0,0,1-5.88,1.16Z"/></g><path class="cls-31" d="M256.58,245.36a11.22,11.22,0,1,1-11.22-11.22A11.22,11.22,0,0,1,256.58,245.36Z"/><path class="cls-31" d="M245.36,267.2a21.84,21.84,0,1,1,21.84-21.84A21.87,21.87,0,0,1,245.36,267.2Zm0-41.32a19.48,19.48,0,1,0,19.48,19.48A19.5,19.5,0,0,0,245.36,225.88Z"/><path class="cls-31" d="M245.36,274.28a28.92,28.92,0,1,1,28.92-28.92A28.95,28.95,0,0,1,245.36,274.28Zm0-55.48a26.56,26.56,0,1,0,26.56,26.56A26.58,26.58,0,0,0,245.36,218.8Z"/><g class="cls-35"><path class="cls-31" d="M268.53,207.84V119.78a137.92,137.92,0,0,0-16.61-3.14v84.94A42.61,42.61,0,0,1,268.53,207.84Z"/></g><g class="cls-36"><path class="cls-31" d="M288.35,238.23h85.89a145.28,145.28,0,0,0-3.13-15.4H282.87A44.62,44.62,0,0,1,288.35,238.23Z"/></g><g class="cls-37"><path class="cls-31" d="M268.53,284V372a137.92,137.92,0,0,1-16.61,3.14V290.23A42.76,42.76,0,0,0,268.53,284Z"/></g><g class="cls-38"><path class="cls-31" d="M288.35,253.58h85.89A144.59,144.59,0,0,1,371.11,269H282.87A44.56,44.56,0,0,0,288.35,253.58Z"/></g><g class="cls-39"><path class="cls-31" d="M220.69,207.84V119.78a137.92,137.92,0,0,1,16.61-3.14v84.94A42.49,42.49,0,0,0,220.69,207.84Z"/></g><g class="cls-40"><path class="cls-31" d="M200.87,238.23H115a145.26,145.26,0,0,1,3.12-15.4h88.24A44.6,44.6,0,0,0,200.87,238.23Z"/></g><g class="cls-41"><path class="cls-31" d="M220.69,284V372a137.92,137.92,0,0,0,16.61,3.14V290.23A42.65,42.65,0,0,1,220.69,284Z"/></g><g class="cls-42"><path class="cls-31" d="M200.87,253.58H115A144.57,144.57,0,0,0,118.1,269h88.24A44.55,44.55,0,0,1,200.87,253.58Z"/></g><g class="cls-43"><path class="cls-31" d="M368.64,142.52v16.69a150.44,150.44,0,0,1,0,172.3V348.2a160.52,160.52,0,0,0,0-205.68Z"/><path class="cls-31" d="M114.82,320.09a150.59,150.59,0,0,1,0-149.46V151.89a160.57,160.57,0,0,0,0,186.94Z"/></g><rect class="cls-31" x="244.18" y="34.08" width="2.36" height="183.38"/><path class="cls-31" d="M252.05,32.11a6.69,6.69,0,1,1-6.69-6.69A6.7,6.7,0,0,1,252.05,32.11Z"/><circle class="cls-31" cx="245.36" cy="14.57" r="4.43"/><path class="cls-31" d="M248.13,2.77A2.77,2.77,0,1,1,245.36,0,2.77,2.77,0,0,1,248.13,2.77Z"/><rect class="cls-31" x="244.18" y="273.27" width="2.36" height="183.38"/><path class="cls-31" d="M238.67,458.61a6.69,6.69,0,1,1,6.69,6.69A6.7,6.7,0,0,1,238.67,458.61Z"/><path class="cls-31" d="M240.93,476.15a4.43,4.43,0,1,1,4.43,4.42A4.43,4.43,0,0,1,240.93,476.15Z"/><path class="cls-31" d="M242.59,488a2.77,2.77,0,1,1,2.77,2.77A2.76,2.76,0,0,1,242.59,488Z"/><rect class="cls-31" x="273.27" y="244.18" width="183.38" height="2.36"/><path class="cls-31" d="M458.61,252.05a6.69,6.69,0,1,1,6.69-6.69A6.7,6.7,0,0,1,458.61,252.05Z"/><path class="cls-31" d="M476.15,249.79a4.43,4.43,0,1,1,4.42-4.43A4.43,4.43,0,0,1,476.15,249.79Z"/><path class="cls-31" d="M488,248.13a2.77,2.77,0,1,1,2.77-2.77A2.76,2.76,0,0,1,488,248.13Z"/><rect class="cls-31" x="34.08" y="244.18" width="183.38" height="2.36"/><path class="cls-31" d="M32.11,238.67a6.69,6.69,0,1,1-6.69,6.69A6.7,6.7,0,0,1,32.11,238.67Z"/><path class="cls-31" d="M14.57,240.93a4.43,4.43,0,1,1-4.42,4.43A4.43,4.43,0,0,1,14.57,240.93Z"/><path class="cls-31" d="M2.77,242.59A2.77,2.77,0,1,1,0,245.36,2.76,2.76,0,0,1,2.77,242.59Z"/><rect class="cls-31" x="244.18" y="34.08" width="2.36" height="183.38"/><path class="cls-31" d="M252.05,32.11a6.69,6.69,0,1,1-6.69-6.69A6.7,6.7,0,0,1,252.05,32.11Z"/><circle class="cls-31" cx="245.36" cy="14.57" r="4.43"/><path class="cls-31" d="M248.13,2.77A2.77,2.77,0,1,1,245.36,0,2.77,2.77,0,0,1,248.13,2.77Z"/><rect class="cls-31" x="244.18" y="273.27" width="2.36" height="183.38"/><path class="cls-31" d="M238.67,458.61a6.69,6.69,0,1,1,6.69,6.69A6.7,6.7,0,0,1,238.67,458.61Z"/><path class="cls-31" d="M240.93,476.15a4.43,4.43,0,1,1,4.43,4.42A4.43,4.43,0,0,1,240.93,476.15Z"/><path class="cls-31" d="M242.59,488a2.77,2.77,0,1,1,2.77,2.77A2.76,2.76,0,0,1,242.59,488Z"/><rect class="cls-31" x="273.27" y="244.18" width="183.38" height="2.36"/><path class="cls-31" d="M458.61,252.05a6.69,6.69,0,1,1,6.69-6.69A6.7,6.7,0,0,1,458.61,252.05Z"/><path class="cls-31" d="M476.15,249.79a4.43,4.43,0,1,1,4.42-4.43A4.43,4.43,0,0,1,476.15,249.79Z"/><path class="cls-31" d="M488,248.13a2.77,2.77,0,1,1,2.77-2.77A2.76,2.76,0,0,1,488,248.13Z"/><rect class="cls-31" x="34.08" y="244.18" width="183.38" height="2.36"/><path class="cls-31" d="M32.11,238.67a6.69,6.69,0,1,1-6.69,6.69A6.7,6.7,0,0,1,32.11,238.67Z"/><path class="cls-31" d="M14.57,240.93a4.43,4.43,0,1,1-4.42,4.43A4.43,4.43,0,0,1,14.57,240.93Z"/><path class="cls-31" d="M2.77,242.59A2.77,2.77,0,1,1,0,245.36,2.76,2.76,0,0,1,2.77,242.59Z"/><g class="cls-44"><path class="cls-31" d="M140.9,90.9l-.79,29.9s96-71.62,205.42,0V88.54S247.15,33.44,140.9,90.9Z"/></g><g class="cls-45"><path class="cls-31" d="M344.74,400l.79-29.91s-96,71.62-205.42,0v32.27S238.49,457.46,344.74,400Z"/></g></g></g></svg>