<svg xmlns="http://www.w3.org/2000/svg" viewBox="0 0 490.85 490.85"><defs><style>.cls-1{fill:#00d0ff;}</style></defs><title>colour_filter_blue</title><g id="Layer_2" data-name="Layer 2"><g id="Layer_1-2" data-name="Layer 1"><g id="Layer_2-2" data-name="Layer 2"><g id="Layer_1-2-2" data-name="Layer 1-2"><circle class="cls-1" cx="245.42" cy="245.42" r="17.56"/><path class="cls-1" d="M245.42,302a1.49,1.49,0,0,1-1.49-1.49V190.32a1.5,1.5,0,0,1,3,0V300.53A1.5,1.5,0,0,1,245.42,302Z"/><path class="cls-1" d="M245.42,0q.48,6.89.83,13.78l.63,13.77.49,13.78.38,13.77c.27,9.19.33,18.37.49,27.56l.1,13.77.07,13.78h-6l.07-13.78c0-4.59,0-9.18.09-13.77.16-9.19.22-18.37.5-27.56l.37-13.77L244,27.55l.64-13.77C244.84,9.18,245.09,4.59,245.42,0Zm0,0c.34,4.59.59,9.18.83,13.78l.64,13.77.49,13.78.37,13.77c.28,9.19.33,18.37.5,27.56.07,4.59.06,9.18.09,13.77l.07,13.78a3,3,0,1,1-6,0h0l.07-13.78.1-13.77c.16-9.19.22-18.37.49-27.56l.38-13.77L244,27.55l.63-13.77Q244.95,6.88,245.42,0Z"/><path class="cls-1" d="M245.42,490.85q-.46-6.89-.82-13.78L244,463.3l-.49-13.78-.38-13.77c-.27-9.19-.33-18.37-.49-27.56l-.1-13.77-.07-13.78h6l-.07,13.78c0,4.59,0,9.18-.09,13.77-.17,9.19-.22,18.37-.5,27.56l-.37,13.77L247,463.3l-.64,13.77C246,481.67,245.76,486.26,245.42,490.85Zm0,0c-.33-4.59-.58-9.18-.82-13.78L244,463.3l-.49-13.78-.37-13.77c-.28-9.19-.34-18.37-.5-27.56-.07-4.59-.06-9.18-.09-13.77l-.07-13.78a3,3,0,0,1,6,0h0l-.07,13.78-.1,13.77c-.16,9.19-.22,18.37-.49,27.56l-.38,13.77L247,463.3l-.63,13.77Q245.92,484,245.42,490.85Z"/><path class="cls-1" d="M490.85,245.42q-6.89.48-13.78.83l-13.77.63-13.78.49-13.77.38c-9.19.27-18.37.33-27.56.49l-13.77.1-13.78.07v-6l13.78.07c4.59,0,9.18,0,13.77.09,9.19.16,18.37.22,27.56.5l13.77.37,13.78.49,13.77.64C481.67,244.84,486.26,245.09,490.85,245.42Zm0,0c-4.59.34-9.18.59-13.78.83l-13.77.64-13.78.49-13.77.37c-9.19.28-18.37.34-27.56.5-4.59.07-9.18.06-13.77.09l-13.78.07a3,3,0,0,1,0-6h0l13.78.07,13.77.1c9.19.16,18.37.22,27.56.49l13.77.38,13.78.49,13.77.63Q484,244.95,490.85,245.42Z"/><path class="cls-1" d="M0,245.42q6.89-.46,13.78-.82l13.77-.6,13.78-.49,13.77-.38c9.19-.27,18.37-.33,27.56-.49l13.77-.1,13.78-.07v6l-13.78-.07c-4.59,0-9.18,0-13.77-.09-9.19-.16-18.37-.22-27.56-.5l-13.77-.37L27.55,247l-13.77-.64C9.18,246,4.59,245.76,0,245.42Zm0,0c4.59-.33,9.18-.58,13.78-.82l13.77-.6,13.78-.49,13.77-.37c9.19-.28,18.37-.34,27.56-.5,4.59-.07,9.18-.06,13.77-.09l13.78-.07a3,3,0,1,1,0,6h0l-13.78-.07-13.77-.1c-9.19-.16-18.37-.22-27.56-.49l-13.77-.38L27.55,247l-13.77-.63Q6.88,245.92,0,245.42Z"/><path class="cls-1" d="M300.53,246.92H190.32a1.5,1.5,0,0,1,0-3H300.53a1.5,1.5,0,0,1,0,3Z"/><path class="cls-1" d="M245.42,333.59a88.17,88.17,0,1,1,88.17-88.17h0A88.26,88.26,0,0,1,245.42,333.59Zm0-173.35a85.19,85.19,0,1,0,85.19,85.19h0a85.29,85.29,0,0,0-85.19-85.19Z"/><path class="cls-1" d="M245.42,276.87a31.45,31.45,0,1,1,31.45-31.45h0A31.48,31.48,0,0,1,245.42,276.87Zm0-59.9a28.46,28.46,0,1,0,28.46,28.46h0A28.48,28.48,0,0,0,245.42,217Z"/><path class="cls-1" d="M392.31,239.55v-1c-.09-1.86-.21-3.71-.36-5.56,0-.35-.07-.7-.1-1.06-.17-1.87-.36-3.73-.6-5.58l-.09-.59q-.36-2.7-.82-5.37a3.8,3.8,0,0,0-.1-.65c-.32-1.82-.68-3.62-1.07-5.42-.07-.34-.15-.67-.22-1-.4-1.78-.82-3.54-1.28-5.29-.07-.28-.15-.55-.22-.82-.49-1.81-1-3.62-1.55-5.4v-.05c-.56-1.8-1.16-3.58-1.78-5.35l-.29-.81q-.91-2.55-1.92-5l-.35-.84c-.7-1.71-1.42-3.41-2.18-5.08-.05-.1-.1-.2-.14-.3-.77-1.67-1.56-3.32-2.39-5l-.23-.47q-1.25-2.45-2.58-4.84l-.41-.73c-.9-1.59-1.82-3.17-2.77-4.72l-.3-.48q-3-4.84-6.35-9.43c-.13-.16-.25-.33-.37-.5q-1.65-2.22-3.37-4.38l-.39-.49q-3.61-4.5-7.58-8.71l-.17-.18q-1.95-2.07-4-4.05c-.12-.13-.25-.25-.38-.37-1.36-1.33-2.75-2.64-4.16-3.91l-.14-.12q-4.38-3.93-9-7.5l-.28-.21c-1.53-1.16-3.08-2.3-4.67-3.41l-.24-.16a147.89,147.89,0,0,0-15.27-9.32l-.25-.13a146,146,0,0,0-16.49-7.42l-.18-.07c-1.87-.71-3.77-1.38-5.68-2h-.12a147.82,147.82,0,0,0-80-3.35h0q-6,1.43-11.87,3.35h-.12c-1.91.63-3.81,1.3-5.68,2l-.19.07A145.64,145.64,0,0,0,177,115.28l-.26.14q-2.62,1.38-5.19,2.87h0q-5.18,3-10.07,6.43l-.24.16q-2.37,1.66-4.68,3.41l-.26.21q-4.68,3.57-9.06,7.5l-.14.12c-1.41,1.27-2.8,2.58-4.16,3.9l-.39.38c-1.33,1.33-2.67,2.68-4,4l-.17.18q-4,4.2-7.59,8.72l-.38.47c-1.15,1.44-2.27,2.91-3.37,4.39-.12.17-.24.34-.37.5q-3.35,4.59-6.35,9.43l-.3.48c-1,1.56-1.88,3.13-2.77,4.72l-.41.73q-1.34,2.4-2.58,4.84c-.08.16-.16.31-.23.47-.83,1.63-1.62,3.29-2.39,5,0,.1-.09.2-.14.3-.76,1.67-1.48,3.37-2.18,5.07-.12.28-.23.57-.35.85-.67,1.67-1.31,3.36-1.92,5.05l-.29.81c-.62,1.77-1.22,3.55-1.78,5.35v.05c-.55,1.79-1.06,3.59-1.55,5.4-.07.27-.15.54-.22.82-.46,1.75-.89,3.52-1.28,5.29-.08.34-.15.67-.22,1-.39,1.8-.75,3.6-1.07,5.42a3.53,3.53,0,0,1-.11.65q-.45,2.67-.81,5.37l-.09.59c-.24,1.85-.43,3.71-.6,5.58,0,.36-.07.71-.1,1.06-.15,1.85-.27,3.7-.36,5.56v1c-.08,2-.13,3.91-.13,5.87a146.47,146.47,0,0,0,23.16,79.25c1.27,2,2.6,3.94,4,5.86a149.25,149.25,0,0,0,11.07,13.75q3.56,3.92,7.39,7.57,2.55,2.43,5.22,4.74,5.34,4.62,11.11,8.73a146.3,146.3,0,0,0,41.39,20.51q3.45,1.08,7,2c1.18.31,2.36.59,3.54.87A148,148,0,0,0,296,383.52c1.13-.41,2.25-.84,3.36-1.28a147.44,147.44,0,0,0,44.95-28,149.49,149.49,0,0,0,12.31-12.61q3.47-4,6.64-8.25t6-8.72a146.38,146.38,0,0,0,23.16-79.25C392.44,243.46,392.39,241.5,392.31,239.55Zm-13.24,39.2A137.93,137.93,0,0,1,278.21,379.21a19.37,19.37,0,0,0-17.86-12.16H230.5a19.37,19.37,0,0,0-17.86,12.16l-1.63-.4a138,138,0,0,1-99.23-100.06,19.39,19.39,0,0,0,12.45-18V230.92a19.39,19.39,0,0,0-12.63-18c.19-.77.36-1.54.56-2.31a2.39,2.39,0,0,1,.17-.62c.43-1.63.89-3.24,1.38-4.85l.11-.38c.51-1.64,1.06-3.27,1.62-4.89.1-.27.19-.55.29-.82.57-1.59,1.16-3.16,1.79-4.73l.27-.66q2-4.89,4.33-9.59l.3-.6c.77-1.52,1.56-3,2.39-4.51l.33-.6c.86-1.53,1.74-3,2.65-4.54h0c.93-1.53,1.9-3,2.89-4.54l.21-.31q1.5-2.16,3-4.27l.35-.48q1.56-2.13,3.19-4.19a.64.64,0,0,1,.1-.13q3.39-4.28,7.11-8.25c.09-.11.19-.21.28-.31q1.83-2,3.73-3.83l.15-.15q3.91-3.86,8.13-7.39l.13-.11c1.4-1.17,2.82-2.32,4.26-3.43l.15-.12a139.51,139.51,0,0,1,13.84-9.38l.12-.07a140.37,140.37,0,0,1,15-7.69h0a137.08,137.08,0,0,1,21.69-7.35h.14a19.41,19.41,0,0,0,18.16,12.93h29.85a19.41,19.41,0,0,0,18.16-12.93h.14a137.54,137.54,0,0,1,21.7,7.35h0a138.43,138.43,0,0,1,15.05,7.7l.11.06a139.51,139.51,0,0,1,13.84,9.38l.15.12c1.44,1.11,2.86,2.26,4.26,3.43l.13.11q4.21,3.54,8.13,7.39l.15.15c1.27,1.25,2.52,2.53,3.73,3.83.09.1.19.2.28.31q3.7,4,7.1,8.24a.76.76,0,0,1,.11.14q1.63,2.06,3.19,4.19l.35.48q1.53,2.12,3,4.27l.21.32c1,1.49,2,3,2.89,4.53h0q1.37,2.24,2.64,4.54c.12.2.23.4.34.6.82,1.49,1.62,3,2.39,4.51l.3.6q2.34,4.69,4.33,9.58l.27.67q.93,2.34,1.79,4.73c.09.27.19.55.29.82.56,1.62,1.11,3.25,1.62,4.89a1.27,1.27,0,0,0,.11.38q.74,2.4,1.38,4.85c.06.21.12.41.17.62.2.77.37,1.54.55,2.31a19.4,19.4,0,0,0-12.62,18v29.86A19.38,19.38,0,0,0,379.07,278.75Z"/></g></g></g></g></svg>