<svg xmlns="http://www.w3.org/2000/svg" viewBox="0 0 489.63 348.25"><defs><style>.cls-1{fill:#00d0ff;}</style></defs><title>colour_filter_02</title><g id="Layer_2" data-name="Layer 2"><g id="Layer_1-2" data-name="Layer 1"><path class="cls-1" d="M0,184.43A266.55,266.55,0,0,0,61.14,348.25L79,348.08A254.1,254.1,0,0,1,13.61,184.3Z"/><path class="cls-1" d="M13.68,168.19A254.24,254.24,0,0,1,82.4,3.16L64,3.33a266.47,266.47,0,0,0-63.94,165Z"/><path class="cls-1" d="M489.28,163.76A266.52,266.52,0,0,0,422.27,0l-18.4.17a254.16,254.16,0,0,1,71.78,163.72Z"/><path class="cls-1" d="M476,180a254.12,254.12,0,0,1-62.31,165l17.85-.17a266.55,266.55,0,0,0,58.07-164.93Z"/></g></g></svg>