<svg xmlns="http://www.w3.org/2000/svg" viewBox="0 0 483.02 481.94"><defs><style>.cls-1{fill:#00d0ff;}</style></defs><title>colour_filter_01</title><g id="Layer_2" data-name="Layer 2"><g id="Layer_1-2" data-name="Layer 1"><path class="cls-1" d="M467.72,248.26c-3.59,114-91.64,207-204.08,217.94l.14,15.37c120.89-11.06,215.7-111,219.24-233.46Z"/><path class="cls-1" d="M223.57,466.57C111,457.74,21.18,366.38,15.47,252.47l-15.3.14C6,375,102.64,473.14,223.72,481.94Z"/><path class="cls-1" d="M219.24.37C98.34,11.43,3.54,111.38,0,233.83l15.29-.14c3.59-114,91.64-207,204.09-217.95Z"/><path class="cls-1" d="M259.3,0l.14,15.37c112.63,8.83,202.4,100.19,208.11,214.11l15.29-.15C477,107,380.38,8.81,259.3,0Z"/></g></g></svg>