<svg xmlns="http://www.w3.org/2000/svg" xmlns:xlink="http://www.w3.org/1999/xlink" viewBox="0 0 485.78 173.88"><defs><style>.cls-1{opacity:0.5;}.cls-2,.cls-3,.cls-4{fill:#17cffc;}.cls-3{opacity:0.45;}.cls-3,.cls-4{isolation:isolate;}.cls-4{opacity:0.2;}.cls-5{fill:#7312a0;}.cls-6{opacity:0.15;}.cls-7{fill:url(#New_Gradient_Swatch_6);}.cls-8{fill:url(#New_Gradient_Swatch_6-2);}.cls-9{fill:url(#New_Gradient_Swatch_6-3);}.cls-10{fill:url(#New_Gradient_Swatch_6-4);}.cls-11{fill:url(#New_Gradient_Swatch_6-5);}.cls-12{fill:url(#New_Gradient_Swatch_6-6);}.cls-13{fill:url(#New_Gradient_Swatch_6-7);}.cls-14{fill:url(#New_Gradient_Swatch_6-8);}.cls-15{fill:url(#New_Gradient_Swatch_6-9);}.cls-16{fill:url(#New_Gradient_Swatch_6-10);}.cls-17{fill:url(#New_Gradient_Swatch_6-11);}.cls-18{fill:url(#New_Gradient_Swatch_6-12);}.cls-19{fill:url(#New_Gradient_Swatch_6-13);}.cls-20{fill:url(#New_Gradient_Swatch_6-14);}</style><radialGradient id="New_Gradient_Swatch_6" cx="222.01" cy="80.39" r="9.95" gradientUnits="userSpaceOnUse"><stop offset="0" stop-color="#11e5b3"/><stop offset="0.28" stop-color="#12e2b4"/><stop offset="0.44" stop-color="#17dab9"/><stop offset="0.59" stop-color="#1ecbc2"/><stop offset="0.71" stop-color="#28b7ce"/><stop offset="0.83" stop-color="#359cdd"/><stop offset="0.93" stop-color="#457cef"/><stop offset="1" stop-color="#5263fe"/></radialGradient><radialGradient id="New_Gradient_Swatch_6-2" cx="235.92" cy="80.39" r="7.91" xlink:href="#New_Gradient_Swatch_6"/><radialGradient id="New_Gradient_Swatch_6-3" cx="248.21" cy="80.4" r="9.7" xlink:href="#New_Gradient_Swatch_6"/><radialGradient id="New_Gradient_Swatch_6-4" cx="265.64" cy="80.37" r="10.21" xlink:href="#New_Gradient_Swatch_6"/><radialGradient id="New_Gradient_Swatch_6-5" cx="282.66" cy="80.41" r="10.12" xlink:href="#New_Gradient_Swatch_6"/><radialGradient id="New_Gradient_Swatch_6-6" cx="301.79" cy="80.59" r="9.85" xlink:href="#New_Gradient_Swatch_6"/><radialGradient id="New_Gradient_Swatch_6-7" cx="318.8" cy="80.39" r="10.26" xlink:href="#New_Gradient_Swatch_6"/><radialGradient id="New_Gradient_Swatch_6-8" cx="337.35" cy="80.41" r="9.29" xlink:href="#New_Gradient_Swatch_6"/><radialGradient id="New_Gradient_Swatch_6-9" cx="361.2" cy="80.37" r="10.21" xlink:href="#New_Gradient_Swatch_6"/><radialGradient id="New_Gradient_Swatch_6-10" cx="378.22" cy="80.41" r="10.12" xlink:href="#New_Gradient_Swatch_6"/><radialGradient id="New_Gradient_Swatch_6-11" cx="396.96" cy="80.4" r="10.03" xlink:href="#New_Gradient_Swatch_6"/><radialGradient id="New_Gradient_Swatch_6-12" cx="410.42" cy="80.39" r="7.91" xlink:href="#New_Gradient_Swatch_6"/><radialGradient id="New_Gradient_Swatch_6-13" cx="421.86" cy="80.37" r="9.74" xlink:href="#New_Gradient_Swatch_6"/><radialGradient id="New_Gradient_Swatch_6-14" cx="438.09" cy="80.39" r="9.95" xlink:href="#New_Gradient_Swatch_6"/></defs><title>discount_copied_01</title><g id="Layer_2" data-name="Layer 2"><g id="Layer_1-2" data-name="Layer 1"><g id="Layer_2-2" data-name="Layer 2"><g id="Layer_1-2-2" data-name="Layer 1-2"><g class="cls-1"><path class="cls-2" d="M43.37,74.86a40.1,40.1,0,1,0,53.91,17.6A40.1,40.1,0,0,0,43.37,74.86Zm30.19,59.47A26.59,26.59,0,1,1,85.23,98.58a26.6,26.6,0,0,1-11.67,35.75Z"/></g><circle class="cls-3" cx="61.53" cy="110.63" r="14.38"/><rect class="cls-2" x="14" y="110.35" width="95.04" height="0.52" transform="translate(-49.25 171.84) rotate(-89.85)"/><rect class="cls-2" x="13.84" y="110.07" width="95.04" height="0.52"/><rect class="cls-2" x="64.31" y="91.14" width="0.52" height="16.04"/><rect class="cls-2" x="72.48" y="99.45" width="0.52" height="16.04" transform="matrix(0, -1, 1, 0, -34.92, 179.93)"/><rect class="cls-2" x="58.05" y="91.22" width="0.52" height="16.04"/><rect class="cls-2" x="50.15" y="99.47" width="0.52" height="16.04" transform="matrix(0, -1, 1, 0, -57.21, 157.62)"/><rect class="cls-2" x="56.66" y="121.37" width="16.04" height="0.52" transform="translate(-57.11 186.01) rotate(-89.86)"/><rect class="cls-2" x="72.46" y="105.62" width="0.52" height="16.04" transform="matrix(0, -1, 1, 0, -41.11, 186.06)"/><rect class="cls-2" x="50.37" y="121.28" width="16.04" height="0.52" transform="translate(-63.3 179.61) rotate(-89.85)"/><rect class="cls-2" x="50.13" y="105.48" width="0.52" height="16.04" transform="matrix(0, -1, 1, 0, -63.24, 163.59)"/><rect class="cls-2" x="43.11" y="70.88" width="0.52" height="7.98" transform="translate(-29.2 27.75) rotate(-26.92)"/><rect class="cls-2" x="79.42" y="142.4" width="0.52" height="7.98" transform="translate(-57.64 51.94) rotate(-26.92)"/><rect class="cls-2" x="23.14" y="94.18" width="0.52" height="7.98" transform="translate(-77.19 89.95) rotate(-71.92)"/><rect class="cls-2" x="99.39" y="119.07" width="0.52" height="7.98" transform="translate(-48.26 179.6) rotate(-71.92)"/><rect class="cls-2" x="21.79" y="128.52" width="7.98" height="0.52" transform="translate(-55.49 25.61) rotate(-26.91)"/><rect class="cls-2" x="93.29" y="92.21" width="7.98" height="0.52" transform="translate(-31.32 54.04) rotate(-26.91)"/><rect class="cls-2" x="45.09" y="148.48" width="7.98" height="0.52" transform="translate(-107.55 149.21) rotate(-71.91)"/><rect class="cls-2" x="69.98" y="72.23" width="7.98" height="0.52" transform="translate(-17.91 120.29) rotate(-71.91)"/><rect class="cls-2" x="41.67" y="91.29" width="0.52" height="5.13" transform="translate(-56.63 64.65) rotate(-49.42)"/><rect class="cls-2" x="80.85" y="124.84" width="0.52" height="5.13" transform="translate(-68.42 106.13) rotate(-49.42)"/><rect class="cls-2" x="33.24" y="112.36" width="5.13" height="0.52" transform="translate(-8.61 3.11) rotate(-4.44)"/><rect class="cls-2" x="84.66" y="108.37" width="5.13" height="0.52" transform="translate(-8.13 7.06) rotate(-4.43)"/><rect class="cls-2" x="42.18" y="129.96" width="5.13" height="0.52" transform="translate(-83.25 79.47) rotate(-49.41)"/><rect class="cls-2" x="75.74" y="90.77" width="5.13" height="0.52" transform="translate(-41.77 91.29) rotate(-49.42)"/><rect class="cls-2" x="63.25" y="133.78" width="0.52" height="5.13" transform="translate(-10.32 5.3) rotate(-4.42)"/><rect class="cls-2" x="59.28" y="82.34" width="0.52" height="5.13" transform="matrix(1, -0.08, 0.08, 1, -6.37, 4.84)"/><path class="cls-2" d="M63.85,108.61a.7.7,0,0,0-.66.72h0v2.45a.67.67,0,0,0,.58.74.66.66,0,0,0,.73-.58.43.43,0,0,0,0-.16v-2.45A.68.68,0,0,0,63.85,108.61Z"/><path class="cls-2" d="M59.2,108.61a.68.68,0,0,0-.65.72v2.45a.67.67,0,0,0,.58.74.66.66,0,0,0,.73-.58.43.43,0,0,0,0-.16v-2.45a.69.69,0,0,0-.66-.72Z"/><path class="cls-2" d="M63.85,57.88a.7.7,0,0,0-.66.72h0v2.45a.67.67,0,0,0,.58.74.66.66,0,0,0,.73-.58.43.43,0,0,0,0-.16V58.6A.68.68,0,0,0,63.85,57.88Z"/><path class="cls-2" d="M59.2,57.88a.68.68,0,0,0-.65.72v2.45a.67.67,0,0,0,.58.74.66.66,0,0,0,.73-.58.43.43,0,0,0,0-.16V58.6a.69.69,0,0,0-.66-.72Z"/><path class="cls-2" d="M63.85,159.34a.7.7,0,0,0-.66.72h0v2.45a.67.67,0,0,0,.58.74.66.66,0,0,0,.73-.58.43.43,0,0,0,0-.16v-2.45A.68.68,0,0,0,63.85,159.34Z"/><path class="cls-2" d="M59.2,159.34a.68.68,0,0,0-.65.72v2.45a.67.67,0,0,0,.58.74.66.66,0,0,0,.73-.58.43.43,0,0,0,0-.16v-2.45a.69.69,0,0,0-.66-.72Z"/><path class="cls-2" d="M114.2,112.88a.69.69,0,0,0-.72-.66H111a.66.66,0,0,0-.16,1.31.43.43,0,0,0,.16,0h2.45A.68.68,0,0,0,114.2,112.88Z"/><path class="cls-2" d="M114.2,108.23a.68.68,0,0,0-.72-.65H111a.66.66,0,0,0-.16,1.31.43.43,0,0,0,.16,0h2.45a.69.69,0,0,0,.72-.66Z"/><path class="cls-2" d="M12.74,112.88a.69.69,0,0,0-.72-.66H9.57a.66.66,0,0,0-.16,1.31.43.43,0,0,0,.16,0H12A.68.68,0,0,0,12.74,112.88Z"/><path class="cls-2" d="M12.74,108.23a.68.68,0,0,0-.72-.65H9.57a.66.66,0,0,0-.16,1.31.43.43,0,0,0,.16,0H12a.69.69,0,0,0,.72-.66Z"/><path class="cls-4" d="M87.94,109.23h6.63A33,33,0,0,0,67.69,78.11v6.78A26.4,26.4,0,0,1,87.94,109.23Z"/><path class="cls-4" d="M55.47,84.87V78.09a33,33,0,0,0-26.94,31.14h6.63A26.42,26.42,0,0,1,55.47,84.87Z"/><path class="cls-4" d="M35.21,112.49H28.56A33,33,0,0,0,55.47,143v-6.77A26.39,26.39,0,0,1,35.21,112.49Z"/><path class="cls-4" d="M67.69,136.22V143a33,33,0,0,0,26.8-30.51H87.84A26.38,26.38,0,0,1,67.69,136.22Z"/><path class="cls-2" d="M64.78,110.56a3.26,3.26,0,1,1-3.27-3.25h0A3.25,3.25,0,0,1,64.78,110.56Z"/><path class="cls-5" d="M50.52,111H.4a.46.46,0,0,1-.39-.53.47.47,0,0,1,.39-.4H50.52a.47.47,0,0,1,0,.93Z"/><path class="cls-5" d="M122.65,111H72.53a.47.47,0,0,1,0-.93h50.12a.47.47,0,0,1,0,.93Z"/><path class="cls-2" d="M50.52,111H.4a.46.46,0,0,1-.39-.53.47.47,0,0,1,.39-.4H50.52a.47.47,0,0,1,0,.93Z"/><path class="cls-2" d="M122.65,111H72.53a.47.47,0,0,1,0-.93h50.12a.47.47,0,0,1,0,.93Z"/><path class="cls-2" d="M61.53,100a.47.47,0,0,1-.47-.45h0V49.44a.46.46,0,0,1,.4-.53.46.46,0,0,1,.53.39.33.33,0,0,1,0,.14V99.55A.46.46,0,0,1,61.53,100Z"/><path class="cls-2" d="M61.53,172.14a.47.47,0,0,1-.47-.46V121.56a.48.48,0,0,1,.54-.4.47.47,0,0,1,.39.4v50.12A.47.47,0,0,1,61.53,172.14Z"/><path class="cls-2" d="M72.94,110.56a11.76,11.76,0,0,0-.14-1.78h1.41a12.8,12.8,0,0,0-10.9-10.87v1.41a11.39,11.39,0,0,0-3.56,0V97.91a12.82,12.82,0,0,0-10.87,10.87h1.41a11.8,11.8,0,0,0,0,3.56H48.88A12.81,12.81,0,0,0,59.75,123.2v-1.41a11.39,11.39,0,0,0,3.56,0v1.41a12.81,12.81,0,0,0,10.86-10.86H72.76A10.64,10.64,0,0,0,72.94,110.56Zm-21.82,0A10.45,10.45,0,1,1,61.58,121h0a10.45,10.45,0,0,1-10.45-10.44Z"/><path class="cls-2" d="M102.19,106.73l-10.72.5-.09-.7,1-1.38A33,33,0,0,0,80.62,87l-.08.1a16.87,16.87,0,0,0-1.83-1.38l.07-.11a33,33,0,0,0-10.42-5.09l2.31-9.81c.1-.42,0-.81-.2-.86l-.91-.22c-.21,0-.47.26-.57.69l-2.3,9.77c-.5-.12-1-.22-1.52-.32l-.38-.49c-1.07,0-2.13,0-3.19.06a33.68,33.68,0,0,0-3.48-.07l-.41.54c-.42.08-.84.16-1.26.26l-2.36-10c-.11-.42-.36-.73-.58-.68l-.9.22c-.21,0-.31.43-.2.86l2.37,10a33.44,33.44,0,0,0-10.64,5.24l.06.08c-.63.44-1.24.9-1.83,1.39l-.06-.08a32.93,32.93,0,0,0-11.76,18.14l1,1.37-.06.48-10.88-.47c-.44,0-.8.14-.81.36v.93c0,.22.33.41.77.43l10.82.47v3.4l-10.69.49c-.44,0-.79.22-.78.44l0,.86c0,.22.37.38.81.36l10.74-.5a4.48,4.48,0,0,0,.08.64l-1,1.37A33,33,0,0,0,42.36,134l.06-.08a18.13,18.13,0,0,0,1.84,1.39l-.06.08a33.26,33.26,0,0,0,10.5,5.11l-2.32,9.86c-.1.43,0,.81.2.86l.91.22c.21.05.47-.26.57-.69l2.31-9.82c.47.11.94.2,1.41.29l.41.54a31.1,31.1,0,0,0,3.48-.08,28.47,28.47,0,0,0,3.2,0l.37-.49,1.27-.26L68.94,151c.1.43.35.73.57.68l.9-.21c.22,0,.31-.44.21-.87l-2.38-10a33.14,33.14,0,0,0,10.65-5.18l-.08-.1c.63-.44,1.24-.91,1.84-1.4l.08.11a32.86,32.86,0,0,0,11.75-18.14l-1-1.38.06-.44,10.95.48c.44,0,.8-.15.81-.37v-.93c0-.22-.33-.41-.77-.43l-10.89-.47V109l10.67-.49c.44,0,.79-.22.78-.44v-.92A.86.86,0,0,0,102.19,106.73ZM86.71,124.91a31.24,31.24,0,0,1-7,7.73l.21.28c-.25.21-.51.41-.78.61l-.11.08h0l-.11.08-.8.59-.21-.28a31.26,31.26,0,0,1-9.36,4.68,28.38,28.38,0,0,1-4,.71h-.68a29.1,29.1,0,0,1-9.25-.77A31.36,31.36,0,0,1,45.21,134l-.21.29-.81-.59-.1-.08h0l-.1-.07-.79-.62.21-.28a31.71,31.71,0,0,1-7.1-7.65,28.69,28.69,0,0,1,0-28.78,31.84,31.84,0,0,1,7-7.73l-.21-.28.78-.62.11-.07h0a.39.39,0,0,1,.1-.08l.81-.59.21.28a31.44,31.44,0,0,1,9.35-4.68,29.18,29.18,0,0,1,9.26-.8h.67a28.36,28.36,0,0,1,4,.7A31.37,31.37,0,0,1,77.77,87l.21-.29c.28.19.54.39.81.59l.11.08h0l.11.07c.27.21.53.41.78.62l-.21.28a31.45,31.45,0,0,1,7.07,7.71,28.71,28.71,0,0,1,0,28.82Z"/><path class="cls-2" d="M67,127.32v3.76a21.25,21.25,0,0,0,15.66-18.8H79.08A17.64,17.64,0,0,1,67,127.32Z"/><path class="cls-2" d="M79.13,109.37h3.6A21.24,21.24,0,0,0,67,90v3.75A17.65,17.65,0,0,1,79.13,109.37Z"/><path class="cls-2" d="M56.12,93.76V90a21.23,21.23,0,0,0-15.8,19.36h3.62A17.66,17.66,0,0,1,56.12,93.76Z"/><path class="cls-2" d="M43.94,112.28H40.36A21.25,21.25,0,0,0,56.12,131.1v-3.75A17.63,17.63,0,0,1,43.94,112.28Z"/><polygon class="cls-2" points="76.66 125.25 76.02 125.88 98.68 148.54 264.51 148.54 264.51 147.64 99.05 147.64 76.66 125.25"/><path class="cls-2" d="M479.23,44.62l.14.13V165.06l-8.83,8.82h-195l-36-8.68H226l-10.81-10.81h48.66L280,139.08H217l-6.3-6.31H176.67V76.2L156.53,56.07l-.13-.14V19.49H454.1ZM157.3,55.56,177.44,75.7l.13.13v56h33.52l6.31,6.31h64.9l-18.07,17.11H217.4l9,9h13.54l36,8.75H470.17l8.29-8.3V45.12L453.73,20.39H157.3Z"/><path class="cls-2" d="M266.59,164.25H444.23l17-17V127L479,109.22v55.06s-9.18,8.63-8.91,8.9-194.31,0-194.31,0Z"/><rect class="cls-2" x="57.01" y="105.9" width="9.38" height="9.38"/><path class="cls-2" d="M72.59,121.47H50.82V99.7H72.59Zm-20.87-.9h20v-20h-20Z"/><polygon class="cls-2" points="156.85 26.77 460.81 26.77 454.23 20.19 156.85 20.19 156.85 26.77"/><polygon class="cls-2" points="222.01 160.55 229 160.55 233.18 164.74 226.22 164.74 222.01 160.55"/><polygon class="cls-2" points="177.12 106.8 182.22 111.9 182.22 125.94 197.32 125.94 203.4 132.02 177.12 132.02 177.12 106.8"/><polygon class="cls-2" points="273.27 155.75 290.39 138.63 305.85 138.63 288.81 155.67 273.27 155.75"/><polygon class="cls-2" points="297.09 155.75 314.2 138.63 329.67 138.63 312.63 155.67 297.09 155.75"/><polygon class="cls-2" points="320.9 155.75 338.02 138.63 353.49 138.63 336.44 155.67 320.9 155.75"/><polygon class="cls-2" points="344.72 155.75 361.84 138.63 377.3 138.63 360.26 155.67 344.72 155.75"/><polygon class="cls-2" points="368.54 155.75 385.65 138.63 401.12 138.63 384.08 155.67 368.54 155.75"/><polygon class="cls-2" points="392.36 155.75 409.47 138.63 424.94 138.63 407.9 155.67 392.36 155.75"/><polygon class="cls-2" points="416.17 155.75 433.29 138.63 448.75 138.63 431.71 155.67 416.17 155.75"/><polygon class="cls-2" points="459.55 138.63 459.36 144.76 448.39 155.71 439.99 155.75 457.1 138.63 459.55 138.63"/><path class="cls-2" d="M461.74,18.36,447.34,4H299.13l-9.49,9.48H182.83l-13.74,13.7-1-.1,14.45-14.45h106.8l9.49-9.49H447.67L462.55,18"/><polygon class="cls-2" points="296.75 13.78 303.43 7.11 316.75 7.11 309.99 13.87 296.75 13.78"/><polygon class="cls-2" points="317.02 13.78 323.69 7.11 337.01 7.11 330.25 13.87 317.02 13.78"/><polygon class="cls-2" points="337.28 13.78 343.95 7.11 357.27 7.11 350.51 13.87 337.28 13.78"/><polygon class="cls-2" points="357.54 13.78 364.22 7.11 377.53 7.11 370.77 13.87 357.54 13.78"/><polygon class="cls-2" points="377.81 13.78 384.48 7.11 397.8 7.11 391.04 13.87 377.81 13.78"/><polygon class="cls-2" points="398.07 13.78 404.74 7.11 418.06 7.11 411.3 13.87 398.07 13.78"/><polygon class="cls-2" points="418.33 13.78 425.01 7.11 438.32 7.11 431.56 13.87 418.33 13.78"/><polygon class="cls-2" points="437.17 13.78 443.85 7.11 446.79 7.11 452.94 13.87 437.17 13.78"/><polygon class="cls-2" points="294.02 4.79 293.44 4.21 297.65 0 316.83 0 316.83 0.81 297.99 0.81 294.02 4.79"/><g class="cls-6"><path class="cls-2" d="M167.15,33.16H451.7l19.69,19.68s1.4,53.09,0,53.09-14.45,14.41-14.45,14.41V132.8H219.76l-3.63-3.64h-9.8l-6.48-6.48h-14V106.8l-4.44-4.45V70.66L162.87,52.17v-13Z"/></g><polygon class="cls-2" points="481.58 49.84 481.58 88.87 485.78 93.07 485.78 127.41 478.83 134.36 479.02 44.47 481.58 49.84"/><polyline class="cls-2" points="165.9 55.21 165.9 54.94 165.9 44.07 169.23 40.75 240.66 40.75 243.1 38.3 243.1 35.68 240.34 32.92 198.12 32.92 195.53 30.33 168.78 30.33 164.22 34.89 164.22 37.25 162.87 39.13 162.87 51.96"/><path class="cls-2" d="M288,114.05h0a2.73,2.73,0,0,1,2.73,2.73h0a2.73,2.73,0,0,1-2.73,2.73h0a2.73,2.73,0,0,1-2.73-2.73h0a2.73,2.73,0,0,1,2.73-2.73Z"/><path class="cls-2" d="M293.94,122.66H282.13V110.9h11.81Zm-11-.84H293V111.74H282.94Z"/><path class="cls-2" d="M330,114.05h0a2.73,2.73,0,0,1,2.73,2.73h0a2.73,2.73,0,0,1-2.73,2.73h0a2.73,2.73,0,0,1-2.73-2.73h0a2.73,2.73,0,0,1,2.73-2.73Z"/><path class="cls-2" d="M335.94,122.66H324.16V110.9h11.78ZM325,121.82H335.1V111.74H325Z"/><path class="cls-2" d="M372.08,114.05h0a2.73,2.73,0,0,1,2.73,2.73h0a2.73,2.73,0,0,1-2.73,2.73h0a2.73,2.73,0,0,1-2.73-2.73h0a2.73,2.73,0,0,1,2.73-2.73Z"/><path class="cls-2" d="M377.94,122.66H366.2V110.9h11.74ZM367,121.82H377.1V111.74H367Z"/></g></g><path class="cls-7" d="M216.52,90.16v0h-3.58a.78.78,0,0,1-.28,0,.66.66,0,0,1-.64-.42,1.35,1.35,0,0,1,0-1,25.67,25.67,0,0,1,1.06-2.83c.45-1,1-2.13,1.74-3.41a1.46,1.46,0,0,0,.21-.61c0-.1-.11-.2-.3-.29l-.59-.28a1,1,0,0,1-.28-.14c-.09-.09-.08-.17,0-.22a3.25,3.25,0,0,1,.48-.17c.2-.08.58-.2,1.12-.37a1.15,1.15,0,0,0,.35-.14s0-.06,0-.08H213.5c-.06,0-.08,0-.08,0s0-.08.14-.14a3.71,3.71,0,0,1,.61-.22l.9-.25c.22-.08.4-.14.53-.2a.29.29,0,0,0,.17-.08c0-.06,0-.11-.09-.14a2.12,2.12,0,0,0-.44-.2l-.56-.22c-.17-.1-.26-.19-.27-.28a1,1,0,0,1,.21-.51c.09-.18.28-.51.56-1l.64-1.06a1.3,1.3,0,0,0,.21-.58c0-.1-.1-.19-.29-.26a1.91,1.91,0,0,0-.35-.14l-.43-.17-.26-.11s-.08-.08-.07-.13.06-.08.16-.1l.5-.14.56-.14c.24,0,.43-.1.56-.14a7.37,7.37,0,0,0,.9-.22l.67-.22a1,1,0,0,0,.31-.2s-.1-.06-.31-.06h-2.07a3.68,3.68,0,0,1-.45,0,.41.41,0,0,1-.39-.33,1.09,1.09,0,0,1,.08-.71,3,3,0,0,1,.81-1.15,1.46,1.46,0,0,1,1-.47h6.56a7.85,7.85,0,0,1,2.85.5A3.38,3.38,0,0,1,228,72.41a2.13,2.13,0,0,0,.79.78,1.55,1.55,0,0,0,.64.08h2.6c.1,0,.05.13-.14.26a2.49,2.49,0,0,1-.5.25c-.15,0-.44.14-.87.25l-.29.07-.34.08a1.55,1.55,0,0,1-.31.07l-.23.06c-.19.06-.29.11-.31.17s0,.11.17.17a6.15,6.15,0,0,1,.67.19,8.1,8.1,0,0,1,.78.28c.17.06.26.14.28.24a1.56,1.56,0,0,1-.05.52,12.27,12.27,0,0,1-.76,2,1.18,1.18,0,0,0-.17.56c0,.09.12.18.31.28a3,3,0,0,0,.36.14l.19.08a1.23,1.23,0,0,0,.26.08l.06,0,.1,0,.09,0s.06,0,.06.05v.09a1,1,0,0,1-.39.19c-.51.13-.91.24-1.21.34a4.27,4.27,0,0,0-.64.25c-.09,0-.14.07-.14.1s0,0,.11,0h2.13c.15,0,.21,0,.2.06s-.09.08-.26.14a1.31,1.31,0,0,1-.26.09l-.28.09-.3.1-.28.08-.47.17a.24.24,0,0,0-.14.14.12.12,0,0,0,0,.14l.17.07.18.1.19.08a4.43,4.43,0,0,1,.47.25q.19.17,0,.51a.37.37,0,0,0-.05.11,30.92,30.92,0,0,1-3.28,4.23,10.84,10.84,0,0,1-5.43,3.3,11,11,0,0,1-2.61.31Zm2.19-5.66c1.9,0,3,0,3.22,0a4.51,4.51,0,0,0,1.82-.5,5.48,5.48,0,0,0,2-1.71c.21-.26.23-.46.06-.59s-.18-.09-.42-.22a2.45,2.45,0,0,1-.42-.22c-.13-.08-.2-.13-.2-.17s.13-.15.31-.23l.35-.09.55-.17.42-.13.53-.19s-.05-.06-.14-.06h-2.18q-.45,0-.45-.06a1.85,1.85,0,0,1,.53-.22l.5-.14.65-.17.36-.08c.36-.1.54-.18.56-.25a.1.1,0,0,0-.07-.14,1.44,1.44,0,0,0-.35-.14,6,6,0,0,1-1-.4.45.45,0,0,1-.14-.47,1.33,1.33,0,0,0-.61-1.6,2.67,2.67,0,0,0-1.21-.25c-.37,0-.91,0-1.61,0h-1.44c-.11,0-.22.09-.33.25s-.24.45-.44.79l-.43.73a.79.79,0,0,0-.16.42c0,.09.08.16.21.22s.29.14.58.27l.49.21c.07,0,.09.08.05.14s0,.06-.14.08a4.67,4.67,0,0,1-.5.2,11.27,11.27,0,0,0-1.6.5c-.09,0-.14.07-.14.11s0,0,.12,0h2.12c.15,0,.23,0,.23,0s-.09.11-.25.17a5.48,5.48,0,0,1-.62.19l-.35.11-.41.14a.9.9,0,0,0-.3.12c-.12.07-.13.14,0,.19a1,1,0,0,0,.33.2l.62.31c.15.07.22.15.22.25a1.15,1.15,0,0,1-.16.45l-.26.49-.28.53c-.09.18-.17.33-.25.46a4.53,4.53,0,0,0-.22.45.59.59,0,0,0-.06.18s0,0,.14,0Z"/><path class="cls-8" d="M238.42,73.27h2.83l.07,0s0,0,0,.06a.15.15,0,0,1-.1,0,9.91,9.91,0,0,1-1,.31c-.34.09-.83.22-1.48.37l-.7.19a.27.27,0,0,0-.14.14c0,.06,0,.1.08.11a1.17,1.17,0,0,0,.25.12.59.59,0,0,1,.2.08,6,6,0,0,1,.67.28c.21.09.21.3,0,.62s-.57,1-1.15,2a1.09,1.09,0,0,0-.24.55c0,.1.11.2.3.29l.46.16.43.15c.19.07.28.14.28.2s-.15.14-.39.19c-.54.15-.9.25-1.06.31a3.84,3.84,0,0,0-1,.45c-.15.11-.21.18-.2.22s.06,0,.17,0h2.34s.07,0,.07.07-.05.08-.14.12a3.43,3.43,0,0,1-.48.19c-.16.06-.41.12-.72.2a4,4,0,0,0-.62.17.89.89,0,0,0-.36.11c-.12,0-.13.12,0,.19a.62.62,0,0,0,.19.12l.19,0,.21.07.19.07a1.44,1.44,0,0,1,.37.17c.15.07.22.15.23.24a1,1,0,0,1-.18.46l-1.29,2.49a35.53,35.53,0,0,0-1.54,3.78,3.52,3.52,0,0,1-.3.67,1.34,1.34,0,0,1-1.1.79c-1,0-1.85,0-2.54,0a.65.65,0,0,1-.63-.46,1.69,1.69,0,0,1,0-1.08,28,28,0,0,1,1.57-3.84c.07-.11.46-.87,1.17-2.27a.39.39,0,0,0,.09-.11.3.3,0,0,0,.05-.14c.11-.22.11-.37,0-.45a1.68,1.68,0,0,0-.39-.22,2,2,0,0,0-.33-.13l-.31-.09a.61.61,0,0,1-.23-.09c-.11-.07-.09-.15.06-.22a1.92,1.92,0,0,1,.36-.14,12,12,0,0,0,1.82-.59c.08,0,.12,0,.12-.08s0-.06-.06-.06h-2.35c-.17,0-.25,0-.25-.06a2.56,2.56,0,0,1,.36-.28,7.71,7.71,0,0,1,1.57-.56l.64-.16a.33.33,0,0,0,.2-.14.11.11,0,0,0,0-.07.2.2,0,0,0-.14-.07l-.92-.34a.6.6,0,0,1-.28-.17q-.18-.14,0-.42s.07-.14.17-.31l1.12-1.93a1,1,0,0,0,.18-.46q0-.12-.21-.24a4.78,4.78,0,0,0-.48-.19l-.42-.17c-.18-.08-.27-.15-.26-.21s.13-.14.37-.21l.76-.17.87-.2q.65-.17,1.26-.36c.11,0,.17-.08.17-.14s0,0-.12,0-.42,0-.64,0h-2.16a.36.36,0,0,1-.35-.21.81.81,0,0,1,0-.54,3.43,3.43,0,0,1,.85-1.39,1.57,1.57,0,0,1,1-.52h2.64a.57.57,0,0,1,.21.12.7.7,0,0,1,.15.19.71.71,0,0,1,.07.27.72.72,0,0,1,0,.32,3.75,3.75,0,0,1-.23.67,1.31,1.31,0,0,0-.16.76C238.07,73.18,238.2,73.29,238.42,73.27Z"/><path class="cls-9" d="M244.89,73.27h-2.66c-.11,0-.18,0-.2-.08s0-.13.06-.28a1.19,1.19,0,0,1,.45-.59l.64-.5a9.24,9.24,0,0,1,3.44-1.43,9.68,9.68,0,0,1,5,.28,3.73,3.73,0,0,1,2,1.62,2.21,2.21,0,0,0,.53.76.63.63,0,0,0,.5.22h2.61c.09,0,.14,0,.14.06s-.05.07-.14.11a11,11,0,0,1-1.38.39l-.63.16-.67.17-.32.07c-.13,0-.2.08-.2.14s0,.11.12.16l.33.16a1.3,1.3,0,0,1,.34.18.19.19,0,0,1,.08.2.55.55,0,0,1-.17.14,4.33,4.33,0,0,1-.42.22l-2.15,1a3.91,3.91,0,0,1-.62.14.38.38,0,0,1-.39-.25,1.29,1.29,0,0,0-.73-.68,5.13,5.13,0,0,0-3.05-.08l-.5.25a1.07,1.07,0,0,0-.34.25c-.3.38-.33.66-.08.84.07,0,.39.17.95.4a30.94,30.94,0,0,0,2.94,1c.46.13,1.33.33,2.6.61l.62.17c.11,0,.16.09.14.17s-.12.13-.31.22c-.45.19-.7.3-.76.34s-.27.23-.25.31.05.08.14.08h2.27a.89.89,0,0,1,.34,0c.05,0,.08,0,.08.07a.15.15,0,0,1-.08.12,2.18,2.18,0,0,1-.54.26,3.43,3.43,0,0,0-.43.12l-.55.18a1.44,1.44,0,0,1-.3.09c-.15,0-.17.13-.06.22a2.16,2.16,0,0,0,.31.11l.57.19a3.52,3.52,0,0,1,.46.15c.25.09.38.2.41.31a1.44,1.44,0,0,1-.18.7,16.93,16.93,0,0,1-2.75,4.59,9,9,0,0,1-4,2.77,8.67,8.67,0,0,1-2.21.48,10.15,10.15,0,0,1-4.37-.56,4.19,4.19,0,0,1-1.54-1,4,4,0,0,1-.87-1.52,1.72,1.72,0,0,1,.5-1.79,2.85,2.85,0,0,1,.68-.56c.78-.39,1.74-.85,2.88-1.37a1,1,0,0,1,.53-.11.36.36,0,0,1,.42.33,1.57,1.57,0,0,0,1.18,1.15,5.71,5.71,0,0,0,2.55.14,2.44,2.44,0,0,0,1.28-.61c.51-.51.57-.9.2-1.18a1.17,1.17,0,0,0-.45-.22c-2.28-.79-3.72-1.27-4.34-1.46a9.21,9.21,0,0,0-.92-.27L242,81.23a.08.08,0,0,1-.06-.12s0-.07.11-.11a4.15,4.15,0,0,1,.51-.19,4.89,4.89,0,0,0,.78-.37.18.18,0,0,0,.06-.14s0-.08-.09-.08-.09,0-.22,0h-2.19c-.15,0-.22,0-.22-.08s.2-.19.59-.4c.07,0,.4-.14,1-.36a1.07,1.07,0,0,0,.31-.17.09.09,0,0,0,0-.11.51.51,0,0,0-.22-.08c-.32-.1-.63-.21-1-.34a.91.91,0,0,1-.34-.17c-.17-.11-.19-.3-.08-.56a11.25,11.25,0,0,1,.59-1.15q.08-.17.72-1.17a1.1,1.1,0,0,0,.2-.45c0-.09-.07-.17-.2-.22a2.37,2.37,0,0,0-.39-.19,2.45,2.45,0,0,1-.36-.15.47.47,0,0,1-.23-.2c0-.09.13-.16.37-.22l.74-.15.88-.21c.71-.17,1.24-.3,1.6-.4.07,0,.11-.07.11-.09S245,73.27,244.89,73.27Z"/><path class="cls-10" d="M261.88,73.27H259.7c-.19,0-.28,0-.28-.16s.07-.28.25-.42a6.68,6.68,0,0,1,.59-.45,13.63,13.63,0,0,1,3.84-1.68,9.45,9.45,0,0,1,5.06,0,4.53,4.53,0,0,1,2.61,1.88l.1.15c0,.07.08.12.09.15a.8.8,0,0,0,.09.14.44.44,0,0,0,.1.12.3.3,0,0,1,.09.08.26.26,0,0,0,.13.08l.15.06a1.76,1.76,0,0,0,.62.08h2.49c.17,0,.25,0,.25.08s-.11.16-.33.25a7.6,7.6,0,0,1-1.65.53l-.21,0-.4.08-.29.07c-.22.06-.35.12-.36.2s0,.11.14.16l.08,0,.15.09.17,0,.16.06a1.52,1.52,0,0,1,.36.17c.15.07.22.15.22.22s-.1.18-.3.31l-.42.25-3.08,1.4a2,2,0,0,1-.56.14.36.36,0,0,1-.45-.2,1.85,1.85,0,0,0-1.43-1,7.1,7.1,0,0,0-3.53.22A6.08,6.08,0,0,0,262,77.64a4.73,4.73,0,0,0-.4.34c-.22.2-.34.36-.35.46s.08.2.27.29l.31.12.28.11a2,2,0,0,1,.39.17c.09.05.07.11-.06.16l-.44.14c-.3.1-.71.22-1.24.37a4,4,0,0,0-.64.28c-.09,0-.14.06-.14.08s0,0,.11,0h.31c1.05,0,1.69,0,1.93,0,.08,0,.11,0,.11,0s0,.06-.14.08a8,8,0,0,1-.78.28l-.81.25c-.17.08-.26.14-.28.2s0,.09.17.17c.56.26.88.41,1,.44s.26.33.16.65c0,.13-.06.26-.08.39a1.49,1.49,0,0,0,.28,1.23,1.77,1.77,0,0,0,1,.56,7.6,7.6,0,0,0,3.92-.19,8,8,0,0,0,1.34-.62,1.91,1.91,0,0,1,.65-.28.49.49,0,0,1,.56.14l1.48,1.37c.26.23.31.59.14,1.09a3,3,0,0,1-.9,1.29,13.75,13.75,0,0,1-4.31,2.63,10.34,10.34,0,0,1-3.95.59,7.25,7.25,0,0,1-3.16-.75,4.76,4.76,0,0,1-1.79-1.54,5,5,0,0,1-.65-3.7,10.17,10.17,0,0,1,.68-2.16.93.93,0,0,0,.11-.46.43.43,0,0,0-.23-.24,2.37,2.37,0,0,0-.56-.28,2.92,2.92,0,0,0-.42-.19.14.14,0,0,1,0-.14c0-.06,0-.1.11-.14l.47-.2.87-.28a.27.27,0,0,0,.14,0l.16-.06.12,0s.06,0,.06,0v0s0,0,0,0h-2.3s-.05,0-.05,0a.18.18,0,0,1,.05-.11,3.81,3.81,0,0,1,.48-.2c.15,0,.4-.13.76-.22l.32-.08.35-.09.25-.08c.09,0,.14-.09.14-.14s0-.1,0-.11l-.7-.28a2.7,2.7,0,0,1-.31-.17c-.14-.08-.22-.16-.22-.25a.84.84,0,0,1,.22-.42,27.09,27.09,0,0,1,1.8-2.16,1.87,1.87,0,0,0,.3-.31q.26-.27,0-.45a.49.49,0,0,0-.19-.14,1.92,1.92,0,0,1-.4-.14s0,0-.05,0-.24-.16-.21-.26.15-.15.38-.19q.87-.16,2.07-.45c1-.24,1.6-.39,1.73-.45s.12-.07.12-.11,0-.06-.09-.06Z"/><path class="cls-11" d="M279.44,73.27h-2.58c-.13,0-.2-.06-.22-.14s0-.18.17-.33a6.14,6.14,0,0,1,1-.77,11.64,11.64,0,0,1,1.21-.69,10.92,10.92,0,0,1,6-1,6,6,0,0,1,2,.59,3.51,3.51,0,0,1,1.4,1.18,3.56,3.56,0,0,0,.9,1,1.39,1.39,0,0,0,.75.22h2.63q.09,0,.06.09s-.05.08-.14.14a8.66,8.66,0,0,1-1.15.42l-.71.21-.55.15c-.11,0-.18.09-.19.14s.05.09.16.14a1.35,1.35,0,0,0,.37.14l.28.1.33.11.28.1a.63.63,0,0,1,.37.31,1.31,1.31,0,0,1-.06.61,9.55,9.55,0,0,1-.56,1.82c-.17.36-.13.58.11.68l.48.18c.21.06.33.11.36.12l.4.17c.05,0,.08.08.08.11a.21.21,0,0,1-.14.09,2.23,2.23,0,0,1-.48.17l-1,.25a2.69,2.69,0,0,0-.75.31c-.21.13-.3.23-.28.3s.05.06.16.06h2.22c.16,0,.26,0,.28.08s-.33.24-1,.48l-.89.27-.6.18a.11.11,0,0,0-.08.11.22.22,0,0,0,.05.14.66.66,0,0,1,.23.07l.39.15.31.12a1.17,1.17,0,0,1,.28.16c.09.1.08.23,0,.4a.55.55,0,0,1-.11.16A23.61,23.61,0,0,1,286,88.06a12,12,0,0,1-5.21,2.35,8.9,8.9,0,0,1-4.62-.34,4.67,4.67,0,0,1-2-1.4,4.6,4.6,0,0,1-.86-3.64,8,8,0,0,1,.67-2.29,1.85,1.85,0,0,0,.17-.65c0-.09-.14-.18-.37-.28l-.33-.14-.45-.15a1.14,1.14,0,0,1-.23-.1c-.07,0-.1-.08-.08-.14s0-.07.14-.11a5.58,5.58,0,0,1,.56-.17,10.49,10.49,0,0,0,1.57-.56c.17-.07.24-.14.22-.19s0-.06-.11-.06h-2.3c-.15,0-.22,0-.22-.06s.1-.13.36-.28a8.75,8.75,0,0,1,1.63-.56l.56-.16a.31.31,0,0,0,.14-.14.17.17,0,0,0-.06-.12l-.53-.19a4.13,4.13,0,0,1-.62-.28c-.13-.1-.13-.25,0-.48,0,0,.37-.41,1-1.13l1-1.16a1,1,0,0,0,.27-.42c0-.1-.07-.19-.24-.28l-.29-.16-.33-.15c-.07,0-.11-.09-.11-.14s.07-.1.2-.14l.68-.16,1.25-.28.92-.21a9.67,9.67,0,0,0,1-.28c.07,0,.11-.06.11-.08S279.51,73.27,279.44,73.27Zm-2.07,6.92h2.38c.11,0,.18,0,.19.06s-.06.09-.19.16a4.59,4.59,0,0,1-.81.34l-.52.15-.58.17a2.38,2.38,0,0,0-.3.1c-.12,0-.17.08-.17.14s0,.07.14.11l.12.07.24.09a2.29,2.29,0,0,1,.28.09l.3.12.21.08c.24.09.31.32.22.67a1.55,1.55,0,0,0,.28,1.49,1.53,1.53,0,0,0,.84.47,6.65,6.65,0,0,0,3.61-.11,5.83,5.83,0,0,0,2.21-1.29,9.23,9.23,0,0,0,.7-.7c.21-.22.22-.39,0-.5a3.87,3.87,0,0,0-.45-.23l-.29-.11a1.6,1.6,0,0,1-.29-.11c-.08,0-.11-.08-.09-.14a.27.27,0,0,1,.14-.14l.67-.2a7.11,7.11,0,0,0,1.68-.58c.08,0,.11-.09.09-.14l-.09-.06h-2.49c-.09,0-.1-.07,0-.17a2.3,2.3,0,0,1,1-.47l.35-.1.44-.13.38-.11.2-.08a.35.35,0,0,0,.14-.12.11.11,0,0,0-.09-.11l-.42-.17-.42-.14-.53-.19a.47.47,0,0,1-.25-.53,1.29,1.29,0,0,0-.45-1.21,1.78,1.78,0,0,0-.64-.33,5.92,5.92,0,0,0-3,0,6,6,0,0,0-2.63,1.26A2.25,2.25,0,0,0,279,78c-.22.22-.24.39-.05.5l.5.23.5.22c.13.08.12.14,0,.2l-.54.12-.81.24a4.34,4.34,0,0,0-1.17.48c-.12.09-.16.16-.14.19S277.31,80.19,277.37,80.19Z"/><path class="cls-12" d="M296.69,73.27h-2.58a.48.48,0,0,1-.39-.16,1.14,1.14,0,0,1-.06-.79,2.94,2.94,0,0,1,.73-1.15,1.68,1.68,0,0,1,1-.56c.78,0,1.66,0,2.63,0a.46.46,0,0,1,.46.34,1.25,1.25,0,0,1,0,.81,2.4,2.4,0,0,0-.11.23,1.39,1.39,0,0,0-.11,1,.27.27,0,0,0,.28.25h2.71c.08,0,.11,0,.11,0s-.08.1-.25.17a4.81,4.81,0,0,1-.61.2c-.32.07-.66.15-1,.25q-1,.22-1.32.33c-.11,0-.17.06-.17.12s0,.07.12.11l.33.17a1.6,1.6,0,0,1,.31.11l.42.17a.34.34,0,0,1,.21.25,1,1,0,0,1-.15.45c-.12.16-.51.84-1.18,2a.42.42,0,0,0-.08.13l-.09.15a.81.81,0,0,0-.15.42c0,.1.08.17.21.23a1.31,1.31,0,0,0,.26.12l.35.14.31.13c.09,0,.14.06.14.08s.1.08.09.11,0,.08-.12.12l-1.37.42a2.72,2.72,0,0,0-.76.28.5.5,0,0,0-.16.11s-.06.06-.06.08a.29.29,0,0,0,.17,0h2.27c.11,0,.16,0,.14.08s-.07.12-.2.17a5,5,0,0,1-.75.25L297,81c-.2.06-.3.11-.3.17s.07.11.22.17l.34.14.25.08c.31.11.5.19.56.22a.31.31,0,0,1,.18.2,1,1,0,0,1-.07.39,4.28,4.28,0,0,0-.14.51q-.26,1.17.48,1.56a2.42,2.42,0,0,0,1.37.23,4.87,4.87,0,0,0,3.55-2.21,1.09,1.09,0,0,0,.26-.49c0-.11-.1-.2-.28-.27l-.3-.13-.35-.12-.22-.09q-.26-.08-.24-.18c0-.06.11-.12.29-.18a1.2,1.2,0,0,1,.34-.11l.62-.17.47-.14a3.41,3.41,0,0,0,.7-.25.13.13,0,0,0,.07-.09s0,0-.07,0l-.11,0h-2.32q-.09,0-.09-.06s0-.07.11-.11a4.74,4.74,0,0,1,1.29-.47l.9-.26a.25.25,0,0,0,.17-.16s0-.08-.09-.12a1.85,1.85,0,0,1-.33-.14l-.7-.28c-.15-.07-.23-.15-.24-.25a1,1,0,0,1,.18-.47l.57-1,.63-1.1a1.39,1.39,0,0,0,.27-.63c0-.1-.13-.2-.35-.29l-.76-.31c-.16,0-.24-.12-.24-.19s.13-.14.36-.2c1.32-.32,2.24-.56,2.77-.73.13,0,.19-.07.19-.11s0-.06-.14-.06h-2.54c-.21,0-.34,0-.4-.16a1.13,1.13,0,0,1-.05-.79,2.74,2.74,0,0,1,.74-1.17,1.53,1.53,0,0,1,1.05-.54q1.2,0,2.49,0a.54.54,0,0,1,.55.37,1.35,1.35,0,0,1-.07.89l-.14.37a1.11,1.11,0,0,0-.07.59,1.07,1.07,0,0,0,.1.36c0,.06.14.08.28.08h2.52l.22,0c0,.06-.12.12-.31.2a3.68,3.68,0,0,1-.73.22l-.65.14-.66.14c-.3.08-.57.16-.81.25-.08,0-.13,0-.14.09a.16.16,0,0,0,.08.14l.34.17a5.58,5.58,0,0,1,.72.3c.13.06.2.13.21.23a.81.81,0,0,1-.15.42c-.09.17-.41.72-.95,1.65,0,.06-.09.14-.16.27a1.65,1.65,0,0,1-.15.26,1.26,1.26,0,0,0-.24.56c0,.1.12.19.32.28a2.43,2.43,0,0,0,.45.18,2.64,2.64,0,0,1,.39.16c.15.05.22.12.2.19a.8.8,0,0,1-.35.17c-.22.08-.47.15-.77.23a5,5,0,0,0-1.23.47c-.08.06-.11.1-.11.14s0,0,.07,0h2.47a.05.05,0,0,1,.06.06s0,.07-.08.11l-1,.36-.7.18-.51.16c-.15,0-.23.1-.25.14s.06.11.17.17l.33.14a3.87,3.87,0,0,1,.73.28c.23.09.24.29.06.58a26.83,26.83,0,0,1-4.79,5.74,8.89,8.89,0,0,1-5,2.41,5.87,5.87,0,0,1-3.87-.73,3.62,3.62,0,0,1-1.26-1.26q-1.17-1.95-.08-5.06l.42-1.07c.13-.3.1-.49-.08-.59,0,0-.29-.13-.82-.33l-.12,0-.13-.06-.1,0-.07,0a.12.12,0,0,1-.08-.11s.05-.08.14-.11a3.59,3.59,0,0,1,.48-.14c.22-.06.61-.18,1.17-.37a3.77,3.77,0,0,0,.62-.22c.05,0,.08-.08.08-.11s0-.06-.08-.06h-2.47s0,0,0-.06,0-.06.07-.08a10.31,10.31,0,0,1,1.33-.5l.51-.14.26-.09q.25-.07.27-.18c0-.07,0-.12-.16-.15l-.84-.34a1.08,1.08,0,0,1-.25-.17q-.16-.14,0-.42l.2-.33.55-.93c.25-.43.44-.76.57-1s.14-.24.2-.33.08-.36,0-.45a6.06,6.06,0,0,0-.87-.39l-.28-.11c-.08-.06-.11-.11-.11-.14s.09-.13.22-.17.33-.09.87-.21a10.42,10.42,0,0,0,1.06-.27,9.07,9.07,0,0,0,1-.31c.07,0,.11,0,.11-.08S296.74,73.27,296.69,73.27Z"/><path class="cls-13" d="M324.91,73.27h-2.38a.49.49,0,0,1-.49-.37,1.23,1.23,0,0,1,.13-.83,2.66,2.66,0,0,1,.77-1,1.55,1.55,0,0,1,1-.41h2a.64.64,0,0,1,.67.37,1.53,1.53,0,0,1-.14,1.06c-.2.45-.23.79-.08,1a.52.52,0,0,0,.44.22h2.61c.07,0,.11,0,.11.06s0,.07-.14.11-.41.14-.95.31c-.24.07-.89.23-1.93.48l-.28.08a.33.33,0,0,0-.12.11.12.12,0,0,0,.06.14,2.24,2.24,0,0,0,.52.24,4,4,0,0,1,.66.32q.13.15,0,.42a1.19,1.19,0,0,1-.2.34,4.5,4.5,0,0,1-.34.61l-.4.69-.35.6a1.19,1.19,0,0,0-.17.44c0,.08.07.15.2.21l.78.3a3.5,3.5,0,0,1,.42.2.06.06,0,0,1,0,.08.21.21,0,0,1-.1.12l-.44.14a12.68,12.68,0,0,0-1.6.47c-.37.17-.54.3-.5.39s.06.06.19.06h2.22a.46.46,0,0,1,.25.08c0,.08-.11.15-.25.23a4.41,4.41,0,0,1-.65.25l-.41.11-.43.11-.39.12a1.41,1.41,0,0,0-.48.16.11.11,0,0,0,.06.14,1.08,1.08,0,0,0,.22.12s.06,0,.06,0l.28.1.36.13.23.08c.15.1.23.18.24.27a1.35,1.35,0,0,1-.19.49c-.84,1.49-1.46,2.69-1.87,3.58-.11.26-.28.64-.49,1.14s-.38.85-.49,1.07a5.48,5.48,0,0,1-.42.76,1.71,1.71,0,0,1-1,.66.65.65,0,0,1-.75-.35,39.45,39.45,0,0,1-2.24-4.37c-.39-.93-.72-1.76-1-2.49a1,1,0,0,0-.73-.73,6.55,6.55,0,0,0-.68-.21l-.69-.18-.25-.11s-.06-.06-.05-.13a.16.16,0,0,1,.1-.13l.37-.16.4-.13c.24-.08.39-.14.46-.15a.12.12,0,0,1,.09,0l.15-.07.07,0a.12.12,0,0,0,0-.09c0-.07-.11-.08-.28,0a4.86,4.86,0,0,0-.67.2c-.79.22-1.25.36-1.4.42-.3.11-.45.2-.45.25a.16.16,0,0,0,0,.17.4.4,0,0,0,.21.08l.06,0,.33.11a3.32,3.32,0,0,0,.4.14.61.61,0,0,1,.22.12.39.39,0,0,1,0,.47c0,.06-.11.2-.23.42A47.37,47.37,0,0,0,313,87.47c-.15.34-.31.76-.5,1.26a2.86,2.86,0,0,1-.45.78,1.45,1.45,0,0,1-1.06.65h-2.21a.62.62,0,0,1-.64-.42,1.6,1.6,0,0,1,.07-1,40.64,40.64,0,0,1,2.66-5.54,2.12,2.12,0,0,1,.17-.32,2.93,2.93,0,0,0,.2-.38c.15-.26.14-.45,0-.56l-.21-.09-.32-.12-.34-.14-.22-.1c-.13,0-.19-.08-.18-.14s.1-.11.29-.17l.9-.31a7.47,7.47,0,0,0,1.23-.42c.09,0,.14-.08.14-.14s0-.08-.11-.08H310c-.1,0-.14,0-.14-.08s.23-.22.7-.42q.19-.09,1.56-.48c.23-.07.35-.15.37-.22s-.09-.1-.25-.17l-.46-.17a2.48,2.48,0,0,1-.5-.2c-.14-.07-.22-.15-.22-.25a1.22,1.22,0,0,1,.17-.45c.09-.15.19-.31.29-.49s.2-.33.28-.47.18-.3.28-.48l.27-.46a1.25,1.25,0,0,0,.24-.59c0-.11-.12-.21-.32-.31l-.73-.28-.26-.11a.15.15,0,0,1,0-.12s0-.09.13-.13a1.82,1.82,0,0,1,.36-.08l1.63-.4a7.53,7.53,0,0,0,1.23-.39c.07,0,.1-.07.08-.11s0,0-.08,0-1,0-2.55,0a.53.53,0,0,1-.56-.47.87.87,0,0,1,.11-.67,2.65,2.65,0,0,1,.66-.82,1.51,1.51,0,0,1,.8-.39.58.58,0,0,1,.64.31,4,4,0,0,1,.24.45q.15.3.24.45a2.07,2.07,0,0,0,.84,1,1.5,1.5,0,0,0,.78.19h2.38c.25,0,.37.06.37.12s-.16.18-.42.28a12.32,12.32,0,0,0-1.26.39c-.3.09-.49.16-.56.19s-.18.09-.19.14a.15.15,0,0,0,.1.14,1.83,1.83,0,0,0,.45.14c.36.12.68.21,1,.28a1.43,1.43,0,0,1,1,1c.08.18.19.48.35.89l.38,1a1,1,0,0,0,.61.68l.62.16a3.37,3.37,0,0,0,.56.14,6.19,6.19,0,0,1,.62.2.14.14,0,0,1,.08.17.4.4,0,0,1-.19.17c-.06,0-.28.09-.65.22l-.26.1a1.18,1.18,0,0,1-.27.07c-.21.07-.3.14-.3.21s.07.09.16.07.36-.1,1-.28l1.23-.37c.26-.09.41-.17.45-.25a.2.2,0,0,0-.06-.14.34.34,0,0,0-.19-.08l-.21-.09a2.85,2.85,0,0,1-.31-.12,1.3,1.3,0,0,0-.27-.1c-.2-.09-.31-.19-.32-.28a1.42,1.42,0,0,1,.24-.59c.5-.86.83-1.43,1-1.71l.22-.36q.15-.33,0-.48L322,74.62c-.13-.06-.19-.11-.17-.17s.1-.11.28-.17l.84-.22,1.85-.48c.28-.07.42-.15.42-.22S325.12,73.27,324.91,73.27Z"/><path class="cls-14" d="M330.68,70.61h12.09a.53.53,0,0,1,.48.34,1.15,1.15,0,0,1,0,.78l-.22.51a1.59,1.59,0,0,0,0,.6,1.27,1.27,0,0,0,.1.35c0,.06.13.08.28.08h2.69s.06,0,.06,0,0,.09-.12.14a3.3,3.3,0,0,1-.58.2l-.75.17-.85.19-.84.25c-.11,0-.17.06-.18.1s0,.09.1.13a5.06,5.06,0,0,0,.56.25A2.93,2.93,0,0,1,344,75c.14.11.12.26,0,.45a2.38,2.38,0,0,1-1.29.81h-3.61a.58.58,0,0,0-.21,0,.19.19,0,0,0-.11.08l-.16.25-.78,1.29c-.17.32-.16.53,0,.65l.75.3A2.48,2.48,0,0,0,339,79c.07,0,.1.09.09.14s-.07.11-.18.14l-.44.14c-.42.1-.76.19-1,.28a3,3,0,0,0-.59.23c-.15.09-.22.17-.22.22s0,0,.14,0h2.32c.08,0,.11,0,.11.08s0,.08-.11.12a6,6,0,0,1-1.12.39c-.69.18-1.05.29-1.09.31a.18.18,0,0,0-.17.11s0,.1.11.14l.32.12.3.1.59.25c.16.1.17.28,0,.56-.06.13-.2.41-.42.83l-.54,1a32,32,0,0,0-1.93,4.62,2.08,2.08,0,0,1-.39.75,1.27,1.27,0,0,1-1,.65q-1.87,0-2.52,0a.63.63,0,0,1-.63-.4,1.36,1.36,0,0,1,0-1,20.93,20.93,0,0,1,1.23-3.16c.26-.54.79-1.59,1.59-3.14a1,1,0,0,0,.19-.5c0-.09-.1-.18-.27-.25a2.45,2.45,0,0,0-.46-.18l-.44-.16c-.22-.09-.33-.16-.33-.19s.1-.14.31-.2c1.25-.37,2-.6,2.13-.67s.08-.08.08-.11,0,0-.07,0l-.24,0h-2.21a.12.12,0,0,1-.09,0s0-.07.09-.11.41-.18.61-.25.69-.24,1-.34l.59-.17c.11,0,.17-.08.18-.14s0-.1-.1-.14l-.25-.08s-.06-.05-.2-.1l-.3-.1a3.17,3.17,0,0,0-.37-.16c-.11-.08-.17-.16-.17-.24a1,1,0,0,1,.15-.41s.26-.41.72-1.23a1.14,1.14,0,0,0,.14-.25c.06-.1.05-.15,0-.17h-3.73c-.35,0-.49-.27-.42-.7s0-.55-.25-.64l-.27-.12-.29-.11-.25-.11a1.38,1.38,0,0,1-.24-.14.11.11,0,0,1,0-.14s.16-.09.42-.17q1.62-.36,1.68-.39c.3-.07.67-.19,1.12-.34.07,0,.1-.07.08-.11s0,0-.08,0h-2.58c-.24,0-.37,0-.39-.14a1.31,1.31,0,0,1,0-.95,3,3,0,0,1,.8-1.1A1.5,1.5,0,0,1,330.68,70.61Z"/><path class="cls-15" d="M357.45,73.27h-2.19c-.18,0-.28,0-.28-.16s.07-.28.25-.42a6.68,6.68,0,0,1,.59-.45,13.63,13.63,0,0,1,3.84-1.68,9.48,9.48,0,0,1,5.07,0,4.54,4.54,0,0,1,2.6,1.88l.1.15.1.15a.7.7,0,0,0,.08.14.44.44,0,0,0,.1.12.31.31,0,0,1,.1.08.23.23,0,0,0,.12.08l.16.06a1.7,1.7,0,0,0,.61.08h2.49c.17,0,.26,0,.26.08s-.12.16-.34.25a7.43,7.43,0,0,1-1.65.53l-.21,0-.39.08-.3.07c-.22.06-.34.12-.36.2s0,.11.14.16l.08,0,.16.09.16,0,.16.06a1.52,1.52,0,0,1,.36.17c.15.07.23.15.23.22s-.11.18-.31.31l-.42.25-3.08,1.4a2,2,0,0,1-.56.14.37.37,0,0,1-.45-.2,1.85,1.85,0,0,0-1.43-1,7.06,7.06,0,0,0-3.52.22,6,6,0,0,0-2.16,1.23,3.39,3.39,0,0,0-.39.34c-.23.2-.34.36-.35.46s.08.2.26.29a1.88,1.88,0,0,1,.31.12l.28.11a1.53,1.53,0,0,1,.39.17c.1.05.08.11-.05.16l-.45.14-1.23.37a3.75,3.75,0,0,0-.65.28c-.09,0-.14.06-.14.08s0,0,.11,0H356c1.05,0,1.69,0,1.93,0q.12,0,.12,0s-.05.06-.14.08-.34.13-.79.28l-.81.25c-.17.08-.26.14-.28.2s0,.09.17.17c.56.26.89.41,1,.44s.26.33.17.65a2.74,2.74,0,0,0-.09.39,1.49,1.49,0,0,0,.28,1.23,1.8,1.8,0,0,0,1,.56,7.6,7.6,0,0,0,3.92-.19,8,8,0,0,0,1.34-.62,2,2,0,0,1,.65-.28.49.49,0,0,1,.56.14l1.48,1.37c.26.23.31.59.14,1.09a2.87,2.87,0,0,1-.89,1.29,13.79,13.79,0,0,1-4.32,2.63,10.29,10.29,0,0,1-3.94.59,7.3,7.3,0,0,1-3.17-.75,4.84,4.84,0,0,1-1.79-1.54,5,5,0,0,1-.64-3.7,9.56,9.56,0,0,1,.67-2.16.93.93,0,0,0,.11-.46.44.44,0,0,0-.22-.24,14,14,0,0,0-1-.47.12.12,0,0,1,0-.14c0-.06,0-.1.11-.14l.48-.2.86-.28a.27.27,0,0,0,.14,0l.16-.06a.42.42,0,0,0,.12,0s.06,0,.06,0v0s0,0,0,0H351s-.06,0-.06,0a.15.15,0,0,1,.06-.11,2.9,2.9,0,0,1,.47-.2c.15,0,.4-.13.76-.22l.32-.08.35-.09.25-.08c.1,0,.14-.09.14-.14s0-.1,0-.11l-.7-.28a1.87,1.87,0,0,1-.3-.17c-.15-.08-.23-.16-.23-.25a.8.8,0,0,1,.23-.42,25,25,0,0,1,1.79-2.16,2.11,2.11,0,0,0,.31-.31c.16-.18.17-.33,0-.45a.43.43,0,0,0-.19-.14,1.71,1.71,0,0,1-.39-.14s0,0-.06,0-.24-.16-.21-.26.15-.15.38-.19q.87-.16,2.07-.45,1.54-.36,1.74-.45c.07,0,.11-.07.11-.11s0-.06-.09-.06Z"/><path class="cls-16" d="M375,73.27h-2.57c-.13,0-.21-.06-.23-.14s0-.18.17-.33a6.31,6.31,0,0,1,1-.77,10.69,10.69,0,0,1,1.2-.69,10.93,10.93,0,0,1,6-1,6,6,0,0,1,2,.59A3.51,3.51,0,0,1,384,72.1a3.56,3.56,0,0,0,.9,1,1.39,1.39,0,0,0,.75.22h2.64c.05,0,.07,0,.05.09s0,.08-.14.14a8.66,8.66,0,0,1-1.15.42l-.71.21-.55.15a.3.3,0,0,0-.19.14s.05.09.17.14a1.13,1.13,0,0,0,.36.14l.28.1.34.11.28.1a.63.63,0,0,1,.36.31,1.18,1.18,0,0,1-.06.61,9.55,9.55,0,0,1-.56,1.82c-.16.36-.13.58.12.68l.47.18.37.12.39.17c.05,0,.08.08.08.11a.19.19,0,0,1-.14.09,2.31,2.31,0,0,1-.47.17l-1,.25a2.82,2.82,0,0,0-.75.31c-.21.13-.3.23-.28.3s.05.06.17.06h2.21c.17,0,.26,0,.28.08s-.33.24-1,.48l-.88.27-.61.18a.11.11,0,0,0-.08.11.18.18,0,0,0,.06.14.7.7,0,0,1,.22.07l.39.15.31.12a1,1,0,0,1,.28.16c.09.1.08.23,0,.4a.55.55,0,0,1-.11.16,23.61,23.61,0,0,1-5.24,5.55,12,12,0,0,1-5.2,2.35,8.88,8.88,0,0,1-4.62-.34,4.4,4.4,0,0,1-2.83-5,8.38,8.38,0,0,1,.67-2.29,1.64,1.64,0,0,0,.17-.65c0-.09-.14-.18-.37-.28a2.08,2.08,0,0,0-.33-.14l-.45-.15a.94.94,0,0,1-.22-.1c-.08,0-.11-.08-.09-.14s.05-.07.14-.11A5.58,5.58,0,0,1,369,81a10.09,10.09,0,0,0,1.57-.56c.17-.07.24-.14.22-.19s0-.06-.11-.06h-2.29c-.15,0-.23,0-.23-.06s.11-.13.37-.28a8.35,8.35,0,0,1,1.62-.56l.56-.16a.27.27,0,0,0,.14-.14.17.17,0,0,0-.06-.12l-.53-.19a3.83,3.83,0,0,1-.61-.28c-.13-.1-.13-.25,0-.48l1-1.13c.61-.72.95-1.11,1-1.16a1,1,0,0,0,.27-.42c0-.1-.07-.19-.24-.28a2,2,0,0,0-.29-.16l-.32-.15c-.08,0-.12-.09-.12-.14s.07-.1.2-.14l.69-.16L373,73.9l.93-.21a9.11,9.11,0,0,0,1-.28c.08,0,.11-.06.11-.08S375.08,73.27,375,73.27Zm-2.07,6.92h2.38c.11,0,.18,0,.2.06s-.07.09-.2.16a4.59,4.59,0,0,1-.81.34l-.52.15-.57.17-.31.1c-.11,0-.17.08-.17.14s.05.07.14.11l.13.07.23.09a2.29,2.29,0,0,1,.28.09l.3.12.21.08c.24.09.32.32.22.67a1.57,1.57,0,0,0,.28,1.49,1.6,1.6,0,0,0,.84.47,6.65,6.65,0,0,0,3.61-.11,5.87,5.87,0,0,0,2.22-1.29c.22-.2.45-.44.7-.7s.21-.39,0-.5a4.34,4.34,0,0,0-.44-.23l-.3-.11a2,2,0,0,1-.29-.11c-.08,0-.1-.08-.09-.14a.27.27,0,0,1,.14-.14l.68-.2a7.49,7.49,0,0,0,1.68-.58c.07,0,.1-.09.08-.14l-.08-.06H381c-.09,0-.1-.07,0-.17a2.24,2.24,0,0,1,.95-.47l.35-.1.45-.13.37-.11.2-.08a.35.35,0,0,0,.14-.12.12.12,0,0,0-.08-.11l-.42-.17-.42-.14c-.23-.07-.41-.14-.54-.19a.47.47,0,0,1-.25-.53,1.29,1.29,0,0,0-.45-1.21,1.71,1.71,0,0,0-.64-.33,5.92,5.92,0,0,0-3,0A6,6,0,0,0,375,77.56a3,3,0,0,0-.45.39c-.22.22-.24.39-.05.5l.5.23.51.22c.13.08.12.14,0,.2l-.53.12-.82.24a4.49,4.49,0,0,0-1.17.48c-.11.09-.16.16-.14.19A.11.11,0,0,0,372.93,80.19Z"/><path class="cls-17" d="M398.55,84.28c-.34,0-2,0-4.9,0a.47.47,0,0,0-.25,0,1.25,1.25,0,0,0-.2.32,35,35,0,0,0-1.87,4.09,2.6,2.6,0,0,1-.56.89,1.25,1.25,0,0,1-.9.51h-2.58a.56.56,0,0,1-.57-.39,1.4,1.4,0,0,1,0-1c.26-.69.6-1.49,1-2.4s1.08-2.21,2-3.76a1.29,1.29,0,0,0,.21-.56c0-.09-.1-.17-.27-.25l-.86-.33h-.06c-.15-.06-.21-.13-.2-.21s.14-.16.37-.21l1-.26a3.06,3.06,0,0,0,1-.42c.08-.07.11-.12.11-.15s0-.05-.08-.07h-2.32c-.15,0-.24,0-.26-.08s.21-.18.62-.37a7.8,7.8,0,0,1,1.37-.45l.51-.14c.09,0,.14-.08.15-.14s0-.1-.13-.14l-.18-.08-.33-.13-.27-.09a3.15,3.15,0,0,1-.36-.17c-.15-.11-.16-.29,0-.53s.32-.54.56-.94.38-.65.42-.74a3.23,3.23,0,0,0,.33-.62q.19-.33,0-.48s-.39-.16-1.12-.5c-.07,0-.1-.06-.08-.13a.26.26,0,0,1,.17-.15l.53-.17a20.78,20.78,0,0,0,2.58-.7c.09,0,.14,0,.14-.11a.1.1,0,0,0-.09-.06h-2.63a.41.41,0,0,1-.42-.22,1.2,1.2,0,0,1,.14-1.18,2.08,2.08,0,0,1,1.62-1.23h7.84a6,6,0,0,1,2,.28,2.56,2.56,0,0,1,1.54,1.32,2.1,2.1,0,0,0,.56.81,1.21,1.21,0,0,0,.73.22h2.6q.09,0,.09.06c0,.06-.06.11-.17.17a8,8,0,0,1-1.32.45l-.6.15-.6.15c-.19.06-.29.13-.31.2s.09.11.2.17a4.31,4.31,0,0,1,.5.17,4,4,0,0,1,.51.19c.22.1.34.2.36.31a1.53,1.53,0,0,1-.2.67c-.05.13-.34.67-.86,1.63a1.15,1.15,0,0,0-.1.18l-.13.21c-.07.18-.06.32,0,.39a1,1,0,0,0,.34.17l.86.36c.13.08.14.14,0,.2a1.61,1.61,0,0,1-.39.11l-.36.1-.4.08-.39.1a5.82,5.82,0,0,0-.67.22,1.72,1.72,0,0,0-.42.23c-.13.09-.19.16-.17.19s.08.06.17.06h2.16c.18,0,.28,0,.28.08s-.11.13-.31.23l-1.12.33-.65.19-.57.15-.24.06c-.11,0-.13.12-.05.19l.22.14.24.1.29.13c.24.15.2.37-.14.67a7.36,7.36,0,0,1-1.87,1.17A8.16,8.16,0,0,1,398.55,84.28Zm1.18-8.15h-4.09a.74.74,0,0,0-.28,0,.39.39,0,0,0-.14.19l-.09.14c-.18.32-.43.73-.72,1.24a1.06,1.06,0,0,0-.2.47c0,.1.07.18.22.25a3,3,0,0,0,1.26.37h4.37c.09,0,.15,0,.16,0s0-.06-.07-.1,0,0-.09-.07a.27.27,0,0,1-.11-.1c-.13-.07-.2-.15-.2-.22a1,1,0,0,1,.2-.42l.48-.82c.22-.46.16-.75-.17-.86A1.7,1.7,0,0,0,399.73,76.13Z"/><path class="cls-18" d="M412.91,73.27h2.83l.07,0s0,0,0,.06,0,0-.1,0a9.09,9.09,0,0,1-1,.31c-.33.09-.83.22-1.48.37l-.7.19a.31.31,0,0,0-.14.14c0,.06,0,.1.08.11a1.07,1.07,0,0,0,.26.12.5.5,0,0,1,.19.08,5.14,5.14,0,0,1,.67.28c.21.09.22.3,0,.62l-1.15,2a1.14,1.14,0,0,0-.23.55c0,.1.1.2.29.29l.46.16.44.15c.18.07.28.14.28.2s-.15.14-.4.19c-.54.15-.89.25-1.06.31a4,4,0,0,0-1,.45c-.15.11-.21.18-.19.22s0,0,.17,0h2.33s.07,0,.07.07,0,.08-.14.12a3.29,3.29,0,0,1-.47.19c-.17.06-.41.12-.73.2a4.41,4.41,0,0,0-.62.17.89.89,0,0,0-.36.11c-.11,0-.12.12,0,.19a.58.58,0,0,0,.2.12l.18,0,.21.07.2.07a1.35,1.35,0,0,1,.36.17q.22.1.24.24a1,1,0,0,1-.18.46l-1.29,2.49a33.55,33.55,0,0,0-1.54,3.78,3.51,3.51,0,0,1-.31.67,1.32,1.32,0,0,1-1.09.79q-1.51,0-2.55,0a.65.65,0,0,1-.63-.46,1.76,1.76,0,0,1,0-1.08,29.29,29.29,0,0,1,1.57-3.84c.07-.11.47-.87,1.18-2.27l.08-.11a.24.24,0,0,0,.06-.14q.17-.33,0-.45a2.26,2.26,0,0,0-.39-.22l-.34-.13-.31-.09a.56.56,0,0,1-.22-.09c-.11-.07-.1-.15.05-.22a2.35,2.35,0,0,1,.37-.14,12.88,12.88,0,0,0,1.82-.59c.07,0,.11,0,.11-.08s0-.06-.06-.06h-2.35c-.17,0-.25,0-.25-.06a2.56,2.56,0,0,1,.36-.28,8.19,8.19,0,0,1,1.57-.56l.65-.16a.3.3,0,0,0,.19-.14.11.11,0,0,0,0-.07s-.06-.06-.14-.07l-.92-.34a.66.66,0,0,1-.28-.17q-.17-.14,0-.42l.17-.31,1.12-1.93a1,1,0,0,0,.18-.46q0-.12-.21-.24c-.11,0-.27-.12-.47-.19a4.18,4.18,0,0,1-.42-.17q-.28-.12-.27-.21c0-.07.14-.14.38-.21L409,74l.87-.2q.64-.17,1.26-.36c.11,0,.17-.08.17-.14s0,0-.11,0-.42,0-.65,0h-2.15a.35.35,0,0,1-.35-.21.81.81,0,0,1,0-.54,3.45,3.45,0,0,1,.86-1.39,1.53,1.53,0,0,1,1.05-.52h2.63a.57.57,0,0,1,.21.12.45.45,0,0,1,.15.19.57.57,0,0,1,.07.27.72.72,0,0,1,0,.32,3.48,3.48,0,0,1-.22.67,1.34,1.34,0,0,0-.17.76Q412.58,73.3,412.91,73.27Z"/><path class="cls-19" d="M431.56,73.33c0,.06-.07.11-.22.17l-.7.25-1.49.39c-.52.11-.85.2-1,.25s-.17.09-.17.14,0,.08.08.12l.28.11.17,0,.18.07.16.07.36.14q.42.19.06.54a1.74,1.74,0,0,1-1.15.39h-7.37a.4.4,0,0,0-.36.25l-.38.63c-.16.27-.26.46-.32.57s-.08.16-.07.19,0,0,.1,0h7.39a.43.43,0,0,1,.45.43.6.6,0,0,0,.39.55l.9.33,0,0c.17.06.25.12.25.2s-.14.12-.42.19l-.56.17-.75.23a4.1,4.1,0,0,0-.56.22c-.08,0-.11.07-.11.1s0,0,.05,0h2.27c.07,0,.11,0,.11.06s0,.06-.14.08l-.64.22-.62.2c-.11,0-.25.09-.42.17s-.17.08-.17.14,0,.11.12.17l.33.16.56.28c.23.13.21.34-.05.62a2,2,0,0,1-1.38.73h-7.08c-.15,0-.23,0-.25,0s-.15.06-.23.19c-.18.36-.41.81-.67,1.35-.05.11,0,.17.06.17h7.25a.61.61,0,0,1,.63.39,1.46,1.46,0,0,1-.13,1c-.33.82-.51,1.24-.53,1.26-.15.41-.31.87-.47,1.37-.32,1-.84,1.43-1.57,1.43H412.94a.68.68,0,0,1-.7-.44,1.74,1.74,0,0,1,0-1.1,26.5,26.5,0,0,1,1.43-3.5c.07-.15.51-1,1.31-2.58l.06-.07a.3.3,0,0,0,0-.1.59.59,0,0,1,0-.08c.17-.32.17-.51,0-.59l-.53-.28a4.48,4.48,0,0,1-.45-.22c-.09,0-.14-.09-.14-.14a.62.62,0,0,1,.23-.17,4.08,4.08,0,0,1,.45-.15l.79-.26.47-.15,0-.06a.05.05,0,0,0,0,0s0,0-.08,0h-2.19c-.09,0-.14,0-.14,0s.07-.07.2-.13a13.21,13.21,0,0,1,1.51-.47,4.71,4.71,0,0,1,.53-.2.24.24,0,0,0,.14-.14s0-.07-.11-.11a.9.9,0,0,0-.22-.11l-.31-.12-.37-.14a.62.62,0,0,1-.28-.16.34.34,0,0,1,0-.4c.07-.11.15-.23.22-.36s.29-.52.55-1,.44-.77.57-1l.17-.28q.13-.28,0-.39a1.72,1.72,0,0,0-.31-.17,6,6,0,0,0-.64-.25,3.66,3.66,0,0,1-.34-.14.11.11,0,0,1-.06-.11s0-.07.12-.09l.72-.22,1.43-.39a5.43,5.43,0,0,0,1.21-.4s.08,0,.08,0,0-.09-.06-.09h-2.54c-.3,0-.49-.1-.56-.3a.78.78,0,0,1,0-.54,4.19,4.19,0,0,1,.65-1.12,1.81,1.81,0,0,1,1.31-.72h10.67l.34,0a.55.55,0,0,1,.49.38,1.26,1.26,0,0,1-.07.86l-.06.12a.91.91,0,0,1-.07.14.24.24,0,0,0,0,.13,1.07,1.07,0,0,0-.1.66.45.45,0,0,0,.35.35,2.51,2.51,0,0,0,.37,0h2.29C431.52,73.27,431.56,73.29,431.56,73.33Z"/><path class="cls-20" d="M432.6,90.16v0H429a.81.81,0,0,1-.28,0,.67.67,0,0,1-.64-.42,1.35,1.35,0,0,1,0-1,27.88,27.88,0,0,1,1.06-2.83c.45-1,1-2.13,1.74-3.41a1.46,1.46,0,0,0,.21-.61c0-.1-.11-.2-.29-.29l-.59-.28a1,1,0,0,1-.28-.14c-.09-.09-.09-.17,0-.22a2.64,2.64,0,0,1,.47-.17c.21-.08.58-.2,1.12-.37a1,1,0,0,0,.35-.14s0-.06,0-.08h-2.33c-.05,0-.08,0-.08,0s.05-.08.14-.14a3.54,3.54,0,0,1,.62-.22l.89-.25c.23-.08.4-.14.53-.2a.26.26,0,0,0,.17-.08c0-.06,0-.11-.08-.14a2.86,2.86,0,0,0-.45-.2l-.56-.22c-.17-.1-.26-.19-.27-.28a1.13,1.13,0,0,1,.21-.51c.1-.18.28-.51.56-1l.65-1.06a1.3,1.3,0,0,0,.21-.58c0-.1-.11-.19-.3-.26a1.91,1.91,0,0,0-.35-.14l-.43-.17-.25-.11c-.06,0-.08-.08-.07-.13s.06-.08.15-.1l.51-.14.56-.14c.24,0,.43-.1.56-.14a7.7,7.7,0,0,0,.89-.22l.67-.22a1,1,0,0,0,.31-.2s-.1-.06-.31-.06H432l-.45,0a.42.42,0,0,1-.39-.33,1.1,1.1,0,0,1,.09-.71,2.84,2.84,0,0,1,.81-1.15,1.43,1.43,0,0,1,1-.47h6.55a8,8,0,0,1,2.86.5,3.47,3.47,0,0,1,1.68,1.32,2.13,2.13,0,0,0,.78.78,1.58,1.58,0,0,0,.64.08h2.61c.09,0,.05.13-.14.26a2.65,2.65,0,0,1-.51.25c-.14,0-.43.14-.86.25l-.3.07-.33.08a2,2,0,0,1-.31.07l-.24.06c-.19.06-.29.11-.31.17s0,.11.17.17a5.52,5.52,0,0,1,.67.19c.41.13.67.23.79.28s.26.14.28.24a1.64,1.64,0,0,1-.06.52,12.27,12.27,0,0,1-.76,2,1.12,1.12,0,0,0-.16.56c0,.09.12.18.3.28a2.73,2.73,0,0,0,.37.14l.18.08a1.14,1.14,0,0,0,.27.08l.05,0,.1,0,.1,0s.05,0,.05.05v.09a.82.82,0,0,1-.39.19c-.5.13-.9.24-1.2.34a4.41,4.41,0,0,0-.65.25c-.09,0-.14.07-.14.1s0,0,.12,0h2.12c.15,0,.22,0,.2.06s-.08.08-.25.14a1.42,1.42,0,0,1-.27.09l-.28.09-.29.1-.28.08-.48.17a.27.27,0,0,0-.14.14.11.11,0,0,0,.06.14l.17.07.18.1.18.08.48.25q.19.17,0,.51l-.06.11a30.15,30.15,0,0,1-3.28,4.23,10.62,10.62,0,0,1-8,3.61Zm2.18-5.66c1.91,0,3,0,3.22,0a4.51,4.51,0,0,0,1.82-.5,5.59,5.59,0,0,0,2-1.71c.2-.26.22-.46.05-.59l-.42-.22a2.45,2.45,0,0,1-.42-.22c-.13-.08-.19-.13-.19-.17s.12-.15.31-.23l.35-.09.54-.17.42-.13a4.85,4.85,0,0,0,.53-.19s0-.06-.14-.06h-2.18q-.45,0-.45-.06a2,2,0,0,1,.53-.22l.51-.14.64-.17.37-.08c.35-.1.54-.18.56-.25a.12.12,0,0,0-.07-.14,1.91,1.91,0,0,0-.35-.14,5.59,5.59,0,0,1-1-.4.43.43,0,0,1-.14-.47,1.33,1.33,0,0,0-.62-1.6,2.6,2.6,0,0,0-1.2-.25c-.38,0-.91,0-1.61,0h-1.44c-.12,0-.23.09-.34.25s-.24.45-.43.79-.34.58-.44.73a.76.76,0,0,0-.15.42c0,.09.08.16.21.22a5.56,5.56,0,0,0,.57.27l.49.21c.08,0,.1.08.06.14s-.05.06-.14.08-.38.16-.51.2a10.54,10.54,0,0,0-1.59.5c-.1,0-.14.07-.14.11s0,0,.11,0h2.13c.15,0,.22,0,.22,0s-.08.11-.25.17a5.48,5.48,0,0,1-.62.19l-.35.11-.4.14a1.1,1.1,0,0,0-.31.12c-.11.07-.12.14,0,.19a1,1,0,0,0,.34.2l.61.31c.15.07.23.15.23.25a1.22,1.22,0,0,1-.17.45c-.07.15-.16.31-.25.49s-.19.35-.28.53-.18.33-.25.46a4.86,4.86,0,0,0-.23.45.48.48,0,0,0-.05.18s0,0,.14,0Z"/></g></g></svg>