<svg xmlns="http://www.w3.org/2000/svg" xmlns:xlink="http://www.w3.org/1999/xlink" viewBox="0 0 494.63 149.01"><defs><style>.cls-1{fill:url(#New_Gradient_Swatch_2);}.cls-2{fill:url(#New_Gradient_Swatch_2-2);}.cls-3{fill:url(#New_Gradient_Swatch_2-3);}.cls-4{fill:url(#New_Gradient_Swatch_2-4);}.cls-5{fill:url(#New_Gradient_Swatch_2-5);}.cls-6{fill:url(#New_Gradient_Swatch_2-6);}.cls-7{fill:url(#New_Gradient_Swatch_2-7);}.cls-8{fill:url(#New_Gradient_Swatch_2-8);}.cls-9{fill:url(#New_Gradient_Swatch_2-9);}.cls-10{fill:url(#New_Gradient_Swatch_2-10);}.cls-11{fill:url(#New_Gradient_Swatch_2-11);}.cls-12{fill:url(#New_Gradient_Swatch_2-12);}.cls-13{fill:url(#New_Gradient_Swatch_2-13);}.cls-14{fill:url(#New_Gradient_Swatch_2-14);}.cls-15{fill:url(#New_Gradient_Swatch_2-15);}.cls-16{fill:url(#New_Gradient_Swatch_2-16);}.cls-17{fill:url(#New_Gradient_Swatch_2-17);}.cls-18{fill:url(#New_Gradient_Swatch_2-18);}.cls-19{fill:url(#New_Gradient_Swatch_2-19);}.cls-20{fill:url(#New_Gradient_Swatch_2-20);}.cls-21{opacity:0.15;}.cls-22{fill:url(#New_Gradient_Swatch_2-21);}.cls-23{fill:url(#New_Gradient_Swatch_2-22);}.cls-24{fill:url(#New_Gradient_Swatch_2-23);}.cls-25{fill:url(#New_Gradient_Swatch_2-24);}.cls-26{fill:url(#New_Gradient_Swatch_2-25);}.cls-27{fill:url(#New_Gradient_Swatch_2-26);}.cls-28{fill:url(#New_Gradient_Swatch_2-27);}.cls-29{fill:url(#New_Gradient_Swatch_2-28);}.cls-30{fill:#11e5b3;}.cls-31{fill:url(#New_Gradient_Swatch_2-29);}.cls-32{fill:url(#New_Gradient_Swatch_2-30);}.cls-33{fill:url(#New_Gradient_Swatch_2-31);}.cls-34{fill:url(#New_Gradient_Swatch_2-32);}.cls-35{fill:url(#New_Gradient_Swatch_2-33);}.cls-36{fill:url(#New_Gradient_Swatch_2-34);}.cls-37{fill:url(#New_Gradient_Swatch_2-35);}.cls-38{fill:url(#New_Gradient_Swatch_2-36);}.cls-39{fill:url(#New_Gradient_Swatch_2-37);}.cls-40{fill:url(#New_Gradient_Swatch_2-38);}.cls-41{fill:url(#New_Gradient_Swatch_2-39);}.cls-42{fill:url(#New_Gradient_Swatch_2-40);}.cls-43{fill:url(#New_Gradient_Swatch_2-41);}.cls-44{fill:url(#New_Gradient_Swatch_2-42);}.cls-45{fill:url(#New_Gradient_Swatch_2-43);}.cls-46{fill:url(#New_Gradient_Swatch_2-44);}.cls-47{fill:url(#New_Gradient_Swatch_2-45);}.cls-48{fill:url(#New_Gradient_Swatch_2-46);}.cls-49{fill:url(#New_Gradient_Swatch_2-47);}.cls-50{fill:url(#New_Gradient_Swatch_2-48);}.cls-51{fill:url(#New_Gradient_Swatch_2-49);}.cls-52{fill:url(#New_Gradient_Swatch_2-50);}.cls-53{fill:url(#New_Gradient_Swatch_2-51);}.cls-54{fill:url(#New_Gradient_Swatch_2-52);}.cls-55{fill:url(#New_Gradient_Swatch_2-53);}.cls-56{fill:url(#New_Gradient_Swatch_2-54);}.cls-57{fill:url(#New_Gradient_Swatch_2-55);}.cls-58{fill:url(#New_Gradient_Swatch_2-56);}.cls-59{fill:url(#New_Gradient_Swatch_2-57);}.cls-60{fill:url(#New_Gradient_Swatch_2-58);}.cls-61{fill:url(#New_Gradient_Swatch_2-59);}.cls-62{fill:url(#New_Gradient_Swatch_2-60);}.cls-63{fill:url(#New_Gradient_Swatch_2-61);}.cls-64{fill:url(#New_Gradient_Swatch_2-62);}.cls-65{fill:url(#New_Gradient_Swatch_2-63);}.cls-66{fill:url(#New_Gradient_Swatch_2-64);}.cls-67{fill:url(#New_Gradient_Swatch_2-65);}.cls-68{fill:url(#New_Gradient_Swatch_2-66);}.cls-69{fill:url(#New_Gradient_Swatch_2-67);}.cls-70{fill:url(#New_Gradient_Swatch_2-68);}.cls-71{fill:url(#New_Gradient_Swatch_2-69);}.cls-72{fill:url(#New_Gradient_Swatch_2-70);}.cls-73{fill:url(#New_Gradient_Swatch_2-71);}.cls-74{fill:url(#New_Gradient_Swatch_2-72);}.cls-75{fill:url(#New_Gradient_Swatch_2-73);}.cls-76{fill:url(#New_Gradient_Swatch_2-74);}.cls-77{fill:url(#New_Gradient_Swatch_2-75);}.cls-78{fill:url(#New_Gradient_Swatch_2-76);}.cls-79{fill:url(#New_Gradient_Swatch_2-77);}.cls-80{fill:url(#New_Gradient_Swatch_2-78);}.cls-81{fill:url(#New_Gradient_Swatch_2-79);}.cls-82{fill:url(#New_Gradient_Swatch_2-80);}.cls-83{fill:url(#New_Gradient_Swatch_2-81);}.cls-84{fill:url(#New_Gradient_Swatch_2-82);}.cls-85{fill:url(#New_Gradient_Swatch_2-83);}.cls-86{fill:url(#New_Gradient_Swatch_2-84);}.cls-87{fill:url(#New_Gradient_Swatch_2-85);}.cls-88{fill:url(#New_Gradient_Swatch_2-86);}.cls-89{fill:url(#New_Gradient_Swatch_2-87);}.cls-90{fill:url(#New_Gradient_Swatch_2-88);}.cls-91{fill:url(#New_Gradient_Swatch_2-89);}.cls-92{fill:url(#New_Gradient_Swatch_2-90);}.cls-93{fill:url(#New_Gradient_Swatch_2-91);}.cls-94{fill:url(#New_Gradient_Swatch_2-92);}.cls-95{fill:url(#New_Gradient_Swatch_2-93);}.cls-96{fill:url(#New_Gradient_Swatch_2-94);}.cls-97{fill:url(#New_Gradient_Swatch_2-95);}.cls-98{fill:url(#New_Gradient_Swatch_2-96);}.cls-99{fill:url(#New_Gradient_Swatch_2-97);}.cls-100{fill:url(#New_Gradient_Swatch_2-98);}.cls-101{fill:url(#New_Gradient_Swatch_2-99);}.cls-102{fill:url(#New_Gradient_Swatch_2-100);}.cls-103{fill:url(#New_Gradient_Swatch_2-101);}.cls-104{fill:url(#New_Gradient_Swatch_2-102);}.cls-105{fill:url(#New_Gradient_Swatch_2-103);}.cls-106{fill:url(#New_Gradient_Swatch_2-104);}.cls-107{fill:url(#New_Gradient_Swatch_2-105);}.cls-108{fill:url(#New_Gradient_Swatch_2-106);}</style><linearGradient id="New_Gradient_Swatch_2" x1="14.9" y1="43.55" x2="312.85" y2="43.55" gradientUnits="userSpaceOnUse"><stop offset="0" stop-color="#9541de"/><stop offset="1" stop-color="#3ab2c0"/></linearGradient><linearGradient id="New_Gradient_Swatch_2-2" x1="14.9" y1="133.89" x2="324.5" y2="133.89" xlink:href="#New_Gradient_Swatch_2"/><linearGradient id="New_Gradient_Swatch_2-3" x1="324.17" y1="70.23" x2="483.62" y2="70.23" xlink:href="#New_Gradient_Swatch_2"/><linearGradient id="New_Gradient_Swatch_2-4" x1="31.09" y1="23.33" x2="101.18" y2="23.33" xlink:href="#New_Gradient_Swatch_2"/><linearGradient id="New_Gradient_Swatch_2-5" x1="19.02" y1="125.05" x2="34.2" y2="125.05" xlink:href="#New_Gradient_Swatch_2"/><linearGradient id="New_Gradient_Swatch_2-6" x1="65.56" y1="137.69" x2="80.74" y2="137.69" xlink:href="#New_Gradient_Swatch_2"/><linearGradient id="New_Gradient_Swatch_2-7" x1="156.32" y1="36.82" x2="296.01" y2="36.82" xlink:href="#New_Gradient_Swatch_2"/><linearGradient id="New_Gradient_Swatch_2-8" x1="159.76" y1="31.71" x2="188.13" y2="31.71" xlink:href="#New_Gradient_Swatch_2"/><linearGradient id="New_Gradient_Swatch_2-9" x1="171.02" y1="31.81" x2="212.01" y2="31.81" xlink:href="#New_Gradient_Swatch_2"/><linearGradient id="New_Gradient_Swatch_2-10" x1="194.24" y1="31.81" x2="235.23" y2="31.81" xlink:href="#New_Gradient_Swatch_2"/><linearGradient id="New_Gradient_Swatch_2-11" x1="217.45" y1="31.81" x2="258.44" y2="31.81" xlink:href="#New_Gradient_Swatch_2"/><linearGradient id="New_Gradient_Swatch_2-12" x1="240.67" y1="31.81" x2="280.99" y2="31.81" xlink:href="#New_Gradient_Swatch_2"/><linearGradient id="New_Gradient_Swatch_2-13" x1="263.88" y1="33.67" x2="292.18" y2="33.67" xlink:href="#New_Gradient_Swatch_2"/><linearGradient id="New_Gradient_Swatch_2-14" x1="183.55" y1="145.74" x2="270.48" y2="145.74" xlink:href="#New_Gradient_Swatch_2"/><linearGradient id="New_Gradient_Swatch_2-15" x1="348.57" y1="81.1" x2="389.39" y2="81.1" xlink:href="#New_Gradient_Swatch_2"/><linearGradient id="New_Gradient_Swatch_2-16" x1="475.42" y1="79.62" x2="479.73" y2="79.62" xlink:href="#New_Gradient_Swatch_2"/><linearGradient id="New_Gradient_Swatch_2-17" x1="479.18" y1="11.34" x2="487.38" y2="11.34" xlink:href="#New_Gradient_Swatch_2"/><linearGradient id="New_Gradient_Swatch_2-18" x1="471.94" y1="11.34" x2="494.63" y2="11.34" xlink:href="#New_Gradient_Swatch_2"/><linearGradient id="New_Gradient_Swatch_2-19" x1="153.66" y1="43.29" x2="172.9" y2="43.29" xlink:href="#New_Gradient_Swatch_2"/><linearGradient id="New_Gradient_Swatch_2-20" x1="281.36" y1="46.33" x2="296.35" y2="46.33" xlink:href="#New_Gradient_Swatch_2"/><linearGradient id="New_Gradient_Swatch_2-21" x1="14.09" y1="51.27" x2="311.58" y2="51.27" xlink:href="#New_Gradient_Swatch_2"/><linearGradient id="New_Gradient_Swatch_2-22" x1="11.77" y1="71.05" x2="72.46" y2="71.05" xlink:href="#New_Gradient_Swatch_2"/><linearGradient id="New_Gradient_Swatch_2-23" x1="11.99" y1="82.73" x2="114.95" y2="82.73" xlink:href="#New_Gradient_Swatch_2"/><linearGradient id="New_Gradient_Swatch_2-24" x1="0" y1="112.71" x2="414.92" y2="112.71" xlink:href="#New_Gradient_Swatch_2"/><linearGradient id="New_Gradient_Swatch_2-25" x1="324.5" y1="134.42" x2="370.53" y2="134.42" xlink:href="#New_Gradient_Swatch_2"/><linearGradient id="New_Gradient_Swatch_2-26" x1="107.01" y1="86.64" x2="157.54" y2="86.64" xlink:href="#New_Gradient_Swatch_2"/><linearGradient id="New_Gradient_Swatch_2-27" x1="457.95" y1="104.78" x2="487.14" y2="104.78" xlink:href="#New_Gradient_Swatch_2"/><linearGradient id="New_Gradient_Swatch_2-28" x1="476.37" y1="110.91" x2="488.15" y2="110.91" xlink:href="#New_Gradient_Swatch_2"/><linearGradient id="New_Gradient_Swatch_2-29" x1="95.66" y1="99.7" x2="103.2" y2="99.7" xlink:href="#New_Gradient_Swatch_2"/><linearGradient id="New_Gradient_Swatch_2-30" x1="103.6" y1="99.7" x2="111.13" y2="99.7" xlink:href="#New_Gradient_Swatch_2"/><linearGradient id="New_Gradient_Swatch_2-31" x1="111.53" y1="99.7" x2="119.07" y2="99.7" xlink:href="#New_Gradient_Swatch_2"/><linearGradient id="New_Gradient_Swatch_2-32" x1="119.47" y1="100.07" x2="126.86" y2="100.07" xlink:href="#New_Gradient_Swatch_2"/><linearGradient id="New_Gradient_Swatch_2-33" x1="127.26" y1="99.7" x2="135.44" y2="99.7" xlink:href="#New_Gradient_Swatch_2"/><linearGradient id="New_Gradient_Swatch_2-34" x1="135.28" y1="99.7" x2="142.81" y2="99.7" xlink:href="#New_Gradient_Swatch_2"/><linearGradient id="New_Gradient_Swatch_2-35" x1="143.21" y1="99.7" x2="150.75" y2="99.7" xlink:href="#New_Gradient_Swatch_2"/><linearGradient id="New_Gradient_Swatch_2-36" x1="151.15" y1="99.7" x2="158.69" y2="99.7" xlink:href="#New_Gradient_Swatch_2"/><linearGradient id="New_Gradient_Swatch_2-37" x1="161.09" y1="99.7" x2="168.62" y2="99.7" xlink:href="#New_Gradient_Swatch_2"/><linearGradient id="New_Gradient_Swatch_2-38" x1="169.02" y1="99.7" x2="176.56" y2="99.7" xlink:href="#New_Gradient_Swatch_2"/><linearGradient id="New_Gradient_Swatch_2-39" x1="176.96" y1="99.7" x2="184.49" y2="99.7" xlink:href="#New_Gradient_Swatch_2"/><linearGradient id="New_Gradient_Swatch_2-40" x1="186.89" y1="99.7" x2="193.69" y2="99.7" xlink:href="#New_Gradient_Swatch_2"/><linearGradient id="New_Gradient_Swatch_2-41" x1="194.09" y1="99.7" x2="201.63" y2="99.7" xlink:href="#New_Gradient_Swatch_2"/><linearGradient id="New_Gradient_Swatch_2-42" x1="202.03" y1="99.7" x2="209.57" y2="99.7" xlink:href="#New_Gradient_Swatch_2"/><linearGradient id="New_Gradient_Swatch_2-43" x1="211.96" y1="99.7" x2="219.5" y2="99.7" xlink:href="#New_Gradient_Swatch_2"/><linearGradient id="New_Gradient_Swatch_2-44" x1="219.9" y1="99.7" x2="227.44" y2="99.7" xlink:href="#New_Gradient_Swatch_2"/><linearGradient id="New_Gradient_Swatch_2-45" x1="227.84" y1="99.7" x2="235.37" y2="99.7" xlink:href="#New_Gradient_Swatch_2"/><linearGradient id="New_Gradient_Swatch_2-46" x1="235.77" y1="99.69" x2="242.24" y2="99.69" xlink:href="#New_Gradient_Swatch_2"/><linearGradient id="New_Gradient_Swatch_2-47" x1="242.64" y1="99.7" x2="250.17" y2="99.7" xlink:href="#New_Gradient_Swatch_2"/><linearGradient id="New_Gradient_Swatch_2-48" x1="252.57" y1="99.7" x2="262.6" y2="99.7" xlink:href="#New_Gradient_Swatch_2"/><linearGradient id="New_Gradient_Swatch_2-49" x1="263" y1="99.7" x2="270.53" y2="99.7" xlink:href="#New_Gradient_Swatch_2"/><linearGradient id="New_Gradient_Swatch_2-50" x1="270.93" y1="99.7" x2="279.11" y2="99.7" xlink:href="#New_Gradient_Swatch_2"/><linearGradient id="New_Gradient_Swatch_2-51" x1="279.03" y1="99.7" x2="285.83" y2="99.7" xlink:href="#New_Gradient_Swatch_2"/><linearGradient id="New_Gradient_Swatch_2-52" x1="286.23" y1="99.7" x2="293.14" y2="99.7" xlink:href="#New_Gradient_Swatch_2"/><linearGradient id="New_Gradient_Swatch_2-53" x1="295.54" y1="100.07" x2="302.93" y2="100.07" xlink:href="#New_Gradient_Swatch_2"/><linearGradient id="New_Gradient_Swatch_2-54" x1="303.33" y1="99.7" x2="310.87" y2="99.7" xlink:href="#New_Gradient_Swatch_2"/><linearGradient id="New_Gradient_Swatch_2-55" x1="97.61" y1="111.98" x2="105.15" y2="111.98" xlink:href="#New_Gradient_Swatch_2"/><linearGradient id="New_Gradient_Swatch_2-56" x1="105.55" y1="111.98" x2="113.08" y2="111.98" xlink:href="#New_Gradient_Swatch_2"/><linearGradient id="New_Gradient_Swatch_2-57" x1="113.48" y1="111.98" x2="120.28" y2="111.98" xlink:href="#New_Gradient_Swatch_2"/><linearGradient id="New_Gradient_Swatch_2-58" x1="120.68" y1="111.98" x2="127.59" y2="111.98" xlink:href="#New_Gradient_Swatch_2"/><linearGradient id="New_Gradient_Swatch_2-59" x1="129.99" y1="111.98" x2="137.53" y2="111.98" xlink:href="#New_Gradient_Swatch_2"/><linearGradient id="New_Gradient_Swatch_2-60" x1="137.93" y1="111.98" x2="145.47" y2="111.98" xlink:href="#New_Gradient_Swatch_2"/><linearGradient id="New_Gradient_Swatch_2-61" x1="147.86" y1="111.98" x2="156.04" y2="111.98" xlink:href="#New_Gradient_Swatch_2"/><linearGradient id="New_Gradient_Swatch_2-62" x1="156.44" y1="111.98" x2="163.98" y2="111.98" xlink:href="#New_Gradient_Swatch_2"/><linearGradient id="New_Gradient_Swatch_2-63" x1="164.38" y1="111.98" x2="171.91" y2="111.98" xlink:href="#New_Gradient_Swatch_2"/><linearGradient id="New_Gradient_Swatch_2-64" x1="172.31" y1="111.98" x2="179.11" y2="111.98" xlink:href="#New_Gradient_Swatch_2"/><linearGradient id="New_Gradient_Swatch_2-65" x1="179.51" y1="111.98" x2="186.42" y2="111.98" xlink:href="#New_Gradient_Swatch_2"/><linearGradient id="New_Gradient_Swatch_2-66" x1="186.82" y1="111.98" x2="194.36" y2="111.98" xlink:href="#New_Gradient_Swatch_2"/><linearGradient id="New_Gradient_Swatch_2-67" x1="194.76" y1="111.98" x2="202.3" y2="111.98" xlink:href="#New_Gradient_Swatch_2"/><linearGradient id="New_Gradient_Swatch_2-68" x1="202.7" y1="111.97" x2="209.16" y2="111.97" xlink:href="#New_Gradient_Swatch_2"/><linearGradient id="New_Gradient_Swatch_2-69" x1="211.56" y1="111.98" x2="219.1" y2="111.98" xlink:href="#New_Gradient_Swatch_2"/><linearGradient id="New_Gradient_Swatch_2-70" x1="219.5" y1="111.97" x2="225.96" y2="111.97" xlink:href="#New_Gradient_Swatch_2"/><linearGradient id="New_Gradient_Swatch_2-71" x1="226.36" y1="111.98" x2="233.9" y2="111.98" xlink:href="#New_Gradient_Swatch_2"/><linearGradient id="New_Gradient_Swatch_2-72" x1="234.3" y1="112.35" x2="241.69" y2="112.35" xlink:href="#New_Gradient_Swatch_2"/><linearGradient id="New_Gradient_Swatch_2-73" x1="242.09" y1="111.98" x2="249" y2="111.98" xlink:href="#New_Gradient_Swatch_2"/><linearGradient id="New_Gradient_Swatch_2-74" x1="249.4" y1="111.98" x2="256.94" y2="111.98" xlink:href="#New_Gradient_Swatch_2"/><linearGradient id="New_Gradient_Swatch_2-75" x1="259.34" y1="111.98" x2="266.87" y2="111.98" xlink:href="#New_Gradient_Swatch_2"/><linearGradient id="New_Gradient_Swatch_2-76" x1="267.27" y1="111.98" x2="275.45" y2="111.98" xlink:href="#New_Gradient_Swatch_2"/><linearGradient id="New_Gradient_Swatch_2-77" x1="277.85" y1="111.97" x2="284.31" y2="111.97" xlink:href="#New_Gradient_Swatch_2"/><linearGradient id="New_Gradient_Swatch_2-78" x1="284.71" y1="111.98" x2="292.25" y2="111.98" xlink:href="#New_Gradient_Swatch_2"/><linearGradient id="New_Gradient_Swatch_2-79" x1="292.65" y1="111.98" x2="300.18" y2="111.98" xlink:href="#New_Gradient_Swatch_2"/><linearGradient id="New_Gradient_Swatch_2-80" x1="300.58" y1="111.98" x2="308.12" y2="111.98" xlink:href="#New_Gradient_Swatch_2"/><linearGradient id="New_Gradient_Swatch_2-81" x1="99.23" y1="126.58" x2="106.77" y2="126.58" xlink:href="#New_Gradient_Swatch_2"/><linearGradient id="New_Gradient_Swatch_2-82" x1="107.17" y1="126.58" x2="117.19" y2="126.58" xlink:href="#New_Gradient_Swatch_2"/><linearGradient id="New_Gradient_Swatch_2-83" x1="117.59" y1="126.58" x2="125.13" y2="126.58" xlink:href="#New_Gradient_Swatch_2"/><linearGradient id="New_Gradient_Swatch_2-84" x1="125.53" y1="126.58" x2="133.06" y2="126.58" xlink:href="#New_Gradient_Swatch_2"/><linearGradient id="New_Gradient_Swatch_2-85" x1="133.46" y1="126.58" x2="141" y2="126.58" xlink:href="#New_Gradient_Swatch_2"/><linearGradient id="New_Gradient_Swatch_2-86" x1="141.4" y1="126.58" x2="151.42" y2="126.58" xlink:href="#New_Gradient_Swatch_2"/><linearGradient id="New_Gradient_Swatch_2-87" x1="151.82" y1="126.58" x2="159.36" y2="126.58" xlink:href="#New_Gradient_Swatch_2"/><linearGradient id="New_Gradient_Swatch_2-88" x1="161.76" y1="126.58" x2="169.3" y2="126.58" xlink:href="#New_Gradient_Swatch_2"/><linearGradient id="New_Gradient_Swatch_2-89" x1="169.69" y1="126.58" x2="177.87" y2="126.58" xlink:href="#New_Gradient_Swatch_2"/><linearGradient id="New_Gradient_Swatch_2-90" x1="177.71" y1="126.95" x2="185.1" y2="126.95" xlink:href="#New_Gradient_Swatch_2"/><linearGradient id="New_Gradient_Swatch_2-91" x1="187.5" y1="126.58" x2="194.42" y2="126.58" xlink:href="#New_Gradient_Swatch_2"/><linearGradient id="New_Gradient_Swatch_2-92" x1="194.82" y1="126.58" x2="196.29" y2="126.58" xlink:href="#New_Gradient_Swatch_2"/><linearGradient id="New_Gradient_Swatch_2-93" x1="196.69" y1="126.58" x2="204.22" y2="126.58" xlink:href="#New_Gradient_Swatch_2"/><linearGradient id="New_Gradient_Swatch_2-94" x1="204.62" y1="126.58" x2="211.53" y2="126.58" xlink:href="#New_Gradient_Swatch_2"/><linearGradient id="New_Gradient_Swatch_2-95" x1="213.94" y1="127.23" x2="221.84" y2="127.23" xlink:href="#New_Gradient_Swatch_2"/><linearGradient id="New_Gradient_Swatch_2-96" x1="221.92" y1="126.58" x2="229.45" y2="126.58" xlink:href="#New_Gradient_Swatch_2"/><linearGradient id="New_Gradient_Swatch_2-97" x1="229.86" y1="126.58" x2="237.39" y2="126.58" xlink:href="#New_Gradient_Swatch_2"/><linearGradient id="New_Gradient_Swatch_2-98" x1="237.79" y1="126.57" x2="244.25" y2="126.57" xlink:href="#New_Gradient_Swatch_2"/><linearGradient id="New_Gradient_Swatch_2-99" x1="244.65" y1="126.58" x2="246.13" y2="126.58" xlink:href="#New_Gradient_Swatch_2"/><linearGradient id="New_Gradient_Swatch_2-100" x1="246.53" y1="126.95" x2="253.92" y2="126.95" xlink:href="#New_Gradient_Swatch_2"/><linearGradient id="New_Gradient_Swatch_2-101" x1="254.32" y1="126.58" x2="261.86" y2="126.58" xlink:href="#New_Gradient_Swatch_2"/><linearGradient id="New_Gradient_Swatch_2-102" x1="264.25" y1="126.58" x2="271.79" y2="126.58" xlink:href="#New_Gradient_Swatch_2"/><linearGradient id="New_Gradient_Swatch_2-103" x1="272.19" y1="126.58" x2="279.73" y2="126.58" xlink:href="#New_Gradient_Swatch_2"/><linearGradient id="New_Gradient_Swatch_2-104" x1="280.13" y1="126.58" x2="287.66" y2="126.58" xlink:href="#New_Gradient_Swatch_2"/><linearGradient id="New_Gradient_Swatch_2-105" x1="288.06" y1="126.58" x2="295.6" y2="126.58" xlink:href="#New_Gradient_Swatch_2"/><linearGradient id="New_Gradient_Swatch_2-106" x1="296" y1="126.58" x2="303.53" y2="126.58" xlink:href="#New_Gradient_Swatch_2"/></defs><title>divider_subtree_01</title><g id="Layer_2" data-name="Layer 2"><g id="Layer_1-2" data-name="Layer 1"><polygon class="cls-1" points="312.37 70.14 300.3 58.06 300.3 37.75 280.18 17.63 169.51 17.63 165.38 21.76 35.03 21.76 15.37 41.42 14.9 40.95 34.75 21.09 165.1 21.09 169.24 16.96 280.46 16.96 300.97 37.47 300.97 57.79 312.85 69.67 312.37 70.14"/><polygon class="cls-2" points="314.83 149.01 276.64 149.01 267.68 140.05 69.52 140.05 56.74 127.27 22.92 127.27 14.9 119.25 15.37 118.78 23.2 126.6 57.02 126.6 69.79 139.38 267.96 139.38 276.91 148.34 314.56 148.34 323.83 139.06 323.83 128.16 324.5 128.16 324.5 139.34 314.83 149.01"/><polygon class="cls-3" points="483.62 108.82 418.3 108.82 386.32 76.84 324.17 76.84 324.17 76.17 386.6 76.17 418.57 108.15 482.95 108.15 482.95 31.64 483.62 31.64 483.62 108.82"/><polygon class="cls-4" points="31.09 25.22 97.39 25.22 101.19 21.43 34.89 21.43 31.09 25.22"/><path class="cls-5" d="M19,122.9H30s4.72,4.16,4.16,4.16-10.78.31-11.09,0Z"/><path class="cls-6" d="M65.56,135.54h11s4.73,4.16,4.16,4.16-10.78.31-11.09,0Z"/><polygon class="cls-7" points="289.94 46.54 161.76 46.54 156.32 41.1 156.32 32.56 161.78 27.11 162.25 27.58 156.99 32.84 156.99 40.82 162.04 45.87 289.67 45.87 295.54 40 296.01 40.47 289.94 46.54"/><polygon class="cls-8" points="173.34 20.01 159.76 33.59 159.76 39.01 164.35 43.6 188.13 19.82 173.34 20.01"/><path class="cls-9" d="M171,43.6,194.61,20H212c-.11,0-23.52,23.52-23.52,23.52Z"/><path class="cls-10" d="M194.24,43.6,217.82,20h17.41c-.11,0-23.53,23.52-23.53,23.52Z"/><path class="cls-11" d="M217.45,43.6,241,20h17.4c-.11,0-23.52,23.52-23.52,23.52Z"/><path class="cls-12" d="M240.67,43.6,264.25,20H281c-.11,0-22.86,23.52-22.86,23.52Z"/><path class="cls-13" d="M283.74,23.74,263.88,43.6l17.47-.06s5.07-5.1,10.83-10.87Z"/><polyline class="cls-14" points="183.55 144.01 267.04 144.01 270.48 147.46"/><polyline class="cls-15" points="348.57 79.13 385.45 79.13 389.39 83.07"/><polyline class="cls-16" points="475.42 104.17 479.73 104.17 479.73 55.07"/><circle class="cls-17" cx="483.28" cy="11.34" r="4.1"/><path class="cls-18" d="M483.28,22.68a11.34,11.34,0,1,1,11.35-11.34A11.35,11.35,0,0,1,483.28,22.68Zm0-22A10.67,10.67,0,1,0,494,11.34,10.69,10.69,0,0,0,483.28.67Z"/><polygon class="cls-19" points="172.9 49.6 160.66 49.6 153.66 42.59 153.66 36.98 154.32 36.98 154.32 42.31 160.94 48.93 172.9 48.93 172.9 49.6"/><polygon class="cls-20" points="291.13 49.18 281.37 49.18 281.37 48.51 290.85 48.51 295.88 43.48 296.36 43.95 291.13 49.18"/><g class="cls-21"><polygon class="cls-22" points="14.1 48.88 34.49 28.48 99.45 28.48 103.81 24.13 159.94 24.13 153.18 30.89 151.58 30.89 151.58 44.13 159.42 51.96 179.06 51.96 181.85 49.17 277.81 49.17 281.54 52.9 292.87 52.9 296.49 49.28 298.35 49.28 298.35 59.18 311.58 72.41 305.58 78.42 60.51 78.42 55.25 73.16 14.1 73.16 14.1 48.88"/></g><polygon class="cls-23" points="13.91 63.64 11.77 65.78 11.77 75.99 57.82 75.99 60.28 78.46 72.46 78.46 70.17 76.17 61.38 76.17 56.07 70.85 43.48 70.85 41.53 68.91 19.54 68.91 17.49 66.86 15.63 66.86 15.63 64.59 13.91 63.64"/><polygon class="cls-24" points="11.99 79.84 58.42 79.84 60.84 82.25 80.94 82.25 84.74 78.46 114.95 78.46 112.6 80.81 112.6 84.03 109.63 87 50.77 87 48.29 84.52 16.23 84.52 11.99 79.84"/><g class="cls-21"><polygon class="cls-25" points="0 84.81 6.48 84.81 10.16 81.13 15.54 86.52 46.15 86.52 49 89.37 111.2 89.37 115.86 84.7 115.86 82.18 117.03 81.02 305.62 81.02 308.23 83.63 342.85 83.63 345.94 80.54 349.77 80.54 392.46 86.71 414.92 109.18 414.92 120.63 390.92 144.62 332.13 144.62 332.13 124.23 319.95 124.23 319.95 136.03 311.09 144.88 278.03 144.88 267.71 134.56 82.45 134.56 78.84 130.96 66.14 130.96 57.87 122.69 34.2 122.69 30.83 119.33 19.49 119.33 13.52 113.35 6.72 113.35 0.03 106.66 0 84.81"/></g><polygon class="cls-26" points="324.5 124.23 326.9 121.83 334.52 121.83 334.52 142.31 353.57 142.31 353.94 142.68 368.68 142.68 370.53 144.53 369.38 145.68 349.09 145.68 347.77 147 336.61 147 335.27 145.66 331.01 145.66 331.01 133.4 332.06 132.35 332.06 126.96 330.12 125.03 325.55 125.03 324.5 124.23"/><polygon class="cls-27" points="111.2 89.37 115.86 84.7 115.86 82.18 117.03 81.02 157.54 81.02 156.58 81.98 138.39 81.98 136.5 83.86 120.74 83.86 118.15 86.45 118.15 88.31 114.2 92.26 108.02 92.26 107.01 91.25 107.01 89.55 111.2 89.37"/><polygon class="cls-28" points="487.14 112.33 457.95 112.33 457.95 111.75 486.55 111.75 486.55 97.23 487.14 97.23 487.14 112.33"/><polygon class="cls-29" points="486.85 108.04 488.15 109.34 488.15 113.79 478.26 113.79 476.37 111.9 486.72 111.9 486.85 108.04"/><path class="cls-30" d="M43.27,56.89V58H59.18v9.26H39.4l3.87-3.92h12V61.93H39.4V53ZM59.18,53,55.3,56.89h-12V53Z"/><path class="cls-30" d="M64.1,53V63.34H76.15v3.92H64.1l-3.87-3.92V53Zm12.05,0H80v14.3l-3.87-3.92Z"/><path class="cls-30" d="M100.85,53v5l-2.54,2.56,2.54,1.37v5.33H87.13V63.34H97V61.93H85.45v5.33H81.07V58H97V56.89h-12L81.07,53Z"/><path class="cls-30" d="M119.73,67.26h-14l-3.86-3.92V53h15.91l1.94,3.93h-14v6.45h14Z"/><path class="cls-30" d="M120.8,53h19.78v14.3h-3.89V63.78h-11.5v3.48H120.8V59.18l4.39-2.29V63l2.33-3.13h9.17v-3h-11.5Z"/><path class="cls-30" d="M161,53l-3.86,3.93H141.63V53Zm-8.59,16.26L148,65.29v-8.4l4.47,2.64Z"/><path class="cls-30" d="M177.33,61.93H166v1.41h14.28v3.92H166l-3.87-3.92V53L166,56.89V58h14.3Zm4.54-9L178,56.89H166V53Z"/><path class="cls-30" d="M186.78,56.89v6.45h12.05v3.92H186.78l-3.87-3.92V53h15.92l1.94,3.93ZM202.7,58l0,0,0,9.26-3.87-3.92V61.93h-8.31V58Z"/><path class="cls-30" d="M219.66,67.26h-12l-3.86-3.92V53h15.91l3.85,3.93,0,10.37-3.87-3.92V56.89h-12v6.45h12Z"/><path class="cls-30" d="M229,61.93v5.33h-4.39V58h15.9V56.89h-12L224.58,53h19.76v9h-6.68L246,67.22h-6.55l-8.84-5.29Z"/><path class="cls-30" d="M251,53v14.3h-3.86V53Z"/><path class="cls-30" d="M267.25,61.93H255.87v1.41h14.28v3.92H255.87L252,63.34V53l3.87,3.93V58h14.3Zm4.54-9-3.89,3.93h-12V53Z"/><path class="cls-30" d="M276.7,56.89V58h15.92v9.26H272.84l3.86-3.92h12V61.93H272.84V53ZM292.62,53l-3.89,3.93h-12V53Z"/><path class="cls-31" d="M97.13,98.47v.42h6.07v3.53H95.66l1.47-1.49h4.59v-.54H95.66V97ZM103.2,97l-1.48,1.5H97.13V97Z"/><path class="cls-32" d="M105.07,97v4h4.59v1.49h-4.59l-1.47-1.49V97Zm4.59,0h1.47v5.45l-1.47-1.49Z"/><path class="cls-33" d="M119.07,97v1.92l-1,1,1,.52v2h-5.22v-1.49h3.74v-.54h-4.38v2h-1.68V98.89h6.06v-.42H113L111.53,97Z"/><path class="cls-34" d="M126.86,97l-1.47,1.5h-5.92V97Zm-3.27,6.2-1.7-1.5v-3.2l1.7,1Z"/><path class="cls-35" d="M128.93,100.39v2h-1.67V98.89h6.06v-.42h-4.59L127.26,97h7.53v3.42h-2.55l3.2,2h-2.5l-3.37-2Z"/><path class="cls-36" d="M141.09,100.39h-4.34v.54h5.44v1.49h-5.44l-1.47-1.49V97l1.47,1.5v.42h5.45ZM142.81,97l-1.48,1.5h-4.58V97Z"/><path class="cls-37" d="M149,100.39h-4.33v.54h5.44v1.49h-5.44l-1.48-1.49V97l1.48,1.5v.42h5.44ZM150.75,97l-1.48,1.5h-4.58V97Z"/><path class="cls-38" d="M152.62,98.47v.42h6.07v3.53h-7.54l1.47-1.49h4.58v-.54h-6V97Zm6.07-1.5-1.49,1.5h-4.58V97Z"/><path class="cls-39" d="M168.62,97v1.92l-1.48,1.32h-4.58l-1.47-1.32V97h1.47v1.92h4.58V97Zm-7.53,4h6v-.72h1.48v.72l-1.48,1.49h-6Z"/><path class="cls-40" d="M175.08,102.42h-4.59L169,100.93V97h6.06l1.47,1.5v4l-1.48-1.49V98.47h-4.59v2.46h4.59Z"/><path class="cls-41" d="M178.43,97v4H183v1.49h-4.59L177,100.93V97ZM183,97h1.47v5.45L183,100.93Z"/><path class="cls-42" d="M193.69,102.42h-5.33l-1.47-1.49V97H193l.73,1.5h-5.33v2.46h5.33Z"/><path class="cls-43" d="M194.09,97h7.54v5.45h-1.48v-1.33h-4.39v1.33h-1.67V99.34l1.67-.87v2.32l.89-1.19h3.5V98.47h-4.39Z"/><path class="cls-44" d="M202,102.42V97l1.47,1.5v4ZM208.09,97l1.48,1.5v4h-1.48v-4H203.5V97Z"/><path class="cls-45" d="M212,97h7.54v5.45H218v-1.33h-4.38v1.33H212V99.34l1.68-.87v2.32l.88-1.19H218V98.47h-4.38Z"/><path class="cls-46" d="M219.9,97H226v1.5h-4.59Zm0,5.45V98.89h1.67v3.53Zm6.06-4,1.48-1.5v3.42h-5.23v-1.5H226Z"/><path class="cls-47" d="M227.84,97h6v1.5h-4.58Zm0,5.45V98.89h1.67v3.53Zm6-4,1.48-1.5v3.42h-5.22v-1.5h3.74Z"/><path class="cls-48" d="M237.47,97v2.94l-1.7,1V97Zm-1.7,4h6.47l-1.48,1.49h-5Z"/><path class="cls-49" d="M250.17,97v1.92l-1.48,1.32h-4.58l-1.47-1.32V97h1.47v1.92h4.58V97Zm-7.53,4h6.05v-.72h1.48v.72l-1.48,1.49h-6.05Z"/><path class="cls-50" d="M252.57,102.42V97l1.48,1.5v4ZM254.05,97h2.8l1.47,1.5v4h-1.48v-4h-2.79Zm7.07,0,1.48,1.5v4h-1.48v-4h-2.8V97Z"/><path class="cls-51" d="M268.8,100.39h-4.33v.54h5.44v1.49h-5.44L263,100.93V97l1.47,1.5v.42h5.45ZM270.53,97l-1.48,1.5h-4.58V97Z"/><path class="cls-52" d="M272.6,100.39v2h-1.67V98.89H277v-.42H272.4L270.93,97h7.53v3.42h-2.54l3.19,2h-2.5l-3.37-2Z"/><path class="cls-53" d="M285.82,102.42H280.5L279,100.93V97h6.06l.74,1.5H280.5v2.46h5.32Z"/><path class="cls-54" d="M287.7,97v1.92h4l-1.11,1.5H287.7v2h-1.47V97Zm4,0h1.47v5.45h-1.47V97Z"/><path class="cls-55" d="M302.93,97l-1.47,1.5h-5.92V97Zm-3.27,6.2-1.7-1.5v-3.2l1.7,1Z"/><path class="cls-56" d="M309.4,102.42h-4.6l-1.47-1.49V97h6.07l1.46,1.5v4l-1.47-1.49V98.47h-4.6v2.46h4.6Z"/><path class="cls-57" d="M99.08,110.75v.43h6.07v3.52H97.61l1.47-1.49h4.59v-.54H97.61v-3.41Zm6.07-1.49-1.48,1.49H99.08v-1.49Z"/><path class="cls-58" d="M107,109.26v3.95h4.59v1.49H107l-1.47-1.49v-3.95Zm4.59,0h1.47v5.44l-1.47-1.49Z"/><path class="cls-59" d="M120.27,114.7H115l-1.47-1.49v-3.95h6.07l.73,1.49H115v2.46h5.32Z"/><path class="cls-60" d="M122.15,109.26v1.91h4l-1.11,1.5h-2.86v2h-1.47v-5.44Zm4,0h1.47v5.44h-1.47v-5.44Z"/><path class="cls-61" d="M130,109.26h7.54v5.44h-1.48v-1.32h-4.39v1.32H130v-3.08l1.67-.87v2.32l.89-1.19h3.5v-1.13h-4.39Z"/><path class="cls-62" d="M139.4,110.75v.43h6.07v3.52h-7.54l1.47-1.49H144v-.54h-6v-3.41Zm6.07-1.49L144,110.75H139.4v-1.49Z"/><path class="cls-63" d="M147.86,109.26h6.06v1.49h-4.58Zm0,5.44v-3.52h1.68v3.52Zm5-2,3.19,2h-2.5l-3.36-2v-1.49h3.74v-.43l1.47-1.49v3.41Z"/><path class="cls-64" d="M157.91,110.75v.43H164v3.52l-1.48-1.49v-.54h-6.06v-3.41Zm-1.47,4,1.47-1.49h4.59v1.49Zm7.54-5.44-1.48,1.49h-4.59v-1.49Z"/><path class="cls-65" d="M165.85,110.75v.43h6.06v3.52l-1.48-1.49v-.54h-6.05v-3.41Zm-1.47,4,1.47-1.49h4.58v1.49Zm7.53-5.44-1.48,1.49h-4.58v-1.49Z"/><path class="cls-66" d="M173.78,113.21h5.33l-.73,1.49h-4.6l-1.47-1.49v-3.95l1.47,1.49Zm5.33-3.95v1.49h-5.33v-1.49Z"/><path class="cls-67" d="M181,109.26v1.91h4l-1.11,1.5H181v2h-1.47v-5.44Zm4,0h1.47v5.44H185v-5.44Z"/><path class="cls-68" d="M192.89,109.26l1.47,1.49v4H188.3l-1.47-1.49v-3.95l1.48,1.49v2.46h4.59v-2.46H188.3v-1.49Z"/><path class="cls-69" d="M200.82,109.26l1.48,1.49v4h-6.07l-1.46-1.49v-3.95l1.47,1.49v2.46h4.59v-2.46h-4.59v-1.49Z"/><path class="cls-70" d="M204.39,109.26v2.93l-1.69,1v-3.94Zm-1.69,3.94h6.46l-1.47,1.49h-5Z"/><path class="cls-71" d="M213,110.75v.43h6.07v3.52h-7.54l1.47-1.49h4.59v-.54h-6.06v-3.41Zm6.07-1.49-1.48,1.49H213v-1.49Z"/><path class="cls-72" d="M221.19,109.26v2.93l-1.69,1v-3.94Zm-1.69,3.94H226l-1.47,1.49h-5Z"/><path class="cls-73" d="M232.42,114.7h-4.59l-1.47-1.49v-3.95h6.06l1.47,1.49v4l-1.48-1.49v-2.46h-4.59v2.46h4.59Z"/><path class="cls-74" d="M241.69,109.26l-1.47,1.49H234.3v-1.49Zm-3.27,6.19-1.71-1.5v-3.2l1.71,1Z"/><path class="cls-75" d="M243.56,109.26v1.91h4l-1.11,1.5h-2.86v2h-1.47v-5.44Zm4,0H249v5.44h-1.47v-5.44Z"/><path class="cls-76" d="M250.87,110.75v.43h6.07v3.52H249.4l1.47-1.49h4.59v-.54H249.4v-3.41Zm6.07-1.49-1.48,1.49h-4.59v-1.49Z"/><path class="cls-77" d="M265.4,114.7h-4.59l-1.47-1.49v-3.95h6.06l1.46,1.49v4l-1.47-1.49v-2.46h-4.59v2.46h4.59Z"/><path class="cls-78" d="M268.94,112.67v2h-1.67v-3.52h6.06v-.43h-4.59l-1.47-1.49h7.53v3.41h-2.54l3.19,2H273l-3.37-2Z"/><path class="cls-79" d="M279.54,109.26v2.93l-1.69,1v-3.94Zm-1.69,3.94h6.46l-1.47,1.49h-5Z"/><path class="cls-80" d="M290.78,114.7h-4.6l-1.47-1.49v-3.95h6.07l1.46,1.49v4l-1.47-1.49v-2.46h-4.6v2.46h4.6Z"/><path class="cls-81" d="M294.12,110.75v2.46h4.59v1.49h-4.59l-1.47-1.49v-3.95h6.06l.74,1.49Zm6.06.42h0v3.52l-1.47-1.49v-.54h-3.17v-1.5Z"/><path class="cls-82" d="M306.65,114.7h-4.59l-1.48-1.49v-3.95h6.07l1.46,1.49v4l-1.47-1.49v-2.46h-4.59v2.46h4.59Z"/><path class="cls-83" d="M99.23,123.86h7.54v5.45h-1.48V128H100.9v1.33H99.23v-3.08l1.67-.88v2.32l.89-1.19h3.5v-1.13H100.9Z"/><path class="cls-84" d="M108.65,123.86v4h2.8v1.5h-2.8l-1.48-1.5v-4Zm4.27,0v4h2.8v1.5h-2.81l-1.46-1.49v-4Zm2.8,0h1.47v5.45l-1.47-1.5Z"/><path class="cls-85" d="M123.4,127.27h-4.34v.54h5.44v1.5h-5.44l-1.47-1.5v-4l1.47,1.49v.42h5.45Zm1.73-3.41-1.48,1.49h-4.59v-1.49Z"/><path class="cls-86" d="M127,125.35v.43h6.06v3.53h-7.53l1.47-1.5h4.58v-.54h-6.05v-3.41Zm6.06-1.49-1.48,1.49H127v-1.49Z"/><path class="cls-87" d="M139.53,129.31h-4.59l-1.48-1.5v-4h6.07l1.46,1.49v4l-1.47-1.5v-2.46h-4.59v2.46h4.59Z"/><path class="cls-88" d="M141.4,129.31v-5.45l1.48,1.49v4Zm1.48-5.45h2.8l1.47,1.49v4h-1.48v-4h-2.79Zm7.07,0,1.47,1.49v4H150v-4h-2.8v-1.49Z"/><path class="cls-89" d="M157.63,127.27H153.3v.54h5.44v1.5H153.3l-1.48-1.5v-4l1.48,1.49v.42h5.44Zm1.73-3.41-1.48,1.49H153.3v-1.49Z"/><path class="cls-90" d="M161.76,123.86h7.54v5.45h-1.48V128h-4.39v1.33h-1.67v-3.08l1.67-.88v2.32l.89-1.19h3.5v-1.13h-4.39Z"/><path class="cls-91" d="M171.37,127.27v2h-1.68v-3.53h6.06v-.43h-4.58l-1.48-1.49h7.53v3.41h-2.54l3.19,2h-2.5l-3.36-2Z"/><path class="cls-92" d="M185.1,123.86l-1.47,1.49h-5.92v-1.49Zm-3.27,6.19-1.7-1.5v-3.2l1.7,1Z"/><path class="cls-93" d="M189,123.86v1.91h4l-1.11,1.5H189v2H187.5v-5.45Zm4,0h1.48v5.45h-1.48v-5.45Z"/><path class="cls-94" d="M196.29,123.86v5.45h-1.47v-5.45Z"/><path class="cls-95" d="M198.16,125.35v2.46h4.59v1.5h-4.59l-1.47-1.5v-4h6.06l.74,1.49Zm6.06.42h0v3.53l-1.47-1.5v-.54h-3.17v-1.5Z"/><path class="cls-96" d="M206.09,123.86v1.91h4l-1.11,1.5h-2.86v2h-1.47v-5.45Zm4,0h1.47v5.45h-1.47v-5.45Z"/><path class="cls-97" d="M219.09,127.81l2.75,2.8h-2.15l-1.39-1.3h-2.89l-1.47-1.5v-4H220l1.46,1.49v4l-1.47-1.5v-2.46h-4.59v2.46Z"/><path class="cls-98" d="M223.39,123.86v4H228v1.5h-4.59l-1.47-1.5v-4Zm4.59,0h1.47v5.45l-1.47-1.5Z"/><path class="cls-99" d="M229.86,123.86h7.53v5.45h-1.48V128h-4.38v1.33h-1.67v-3.08l1.67-.88v2.32l.88-1.19h3.5v-1.13h-4.38Z"/><path class="cls-100" d="M239.49,123.86v2.93l-1.7,1v-3.94Zm-1.7,3.94h6.46l-1.47,1.49h-5Z"/><path class="cls-101" d="M246.13,123.86v5.45h-1.48v-5.45Z"/><path class="cls-102" d="M253.92,123.86l-1.47,1.49h-5.92v-1.49Zm-3.27,6.19-1.71-1.5v-3.2l1.71,1Z"/><path class="cls-103" d="M261.86,123.86v1.92l-1.49,1.32h-4.58l-1.47-1.32v-1.92h1.47v1.92h4.58v-1.92Zm-7.54,4h6.05v-.71h1.49v.71l-1.49,1.5h-6.05Z"/><path class="cls-104" d="M265.73,125.35v.42h5.44l-1.11,1.5h-4.33v2l-1.48-1.5v-4Zm6.06-1.49-1.48,1.49h-4.58v-1.49Z"/><path class="cls-105" d="M273.66,123.86v4h4.59v1.5h-4.59l-1.47-1.5v-4Zm4.59,0h1.48v5.45l-1.48-1.5Z"/><path class="cls-106" d="M280.13,129.31v-5.45l1.47,1.49v4Zm6.06-5.45,1.47,1.49v4h-1.47v-4H281.6v-1.49Z"/><path class="cls-107" d="M288.06,129.31v-5.45l1.47,1.49v4Zm6.07-5.45,1.47,1.49v4h-1.47v-4h-4.6v-1.49Z"/><path class="cls-108" d="M303.53,123.86v1.92l-1.48,1.32h-4.58L296,125.78v-1.92h1.47v1.92h4.58v-1.92Zm-7.53,4h6.05v-.71h1.48v.71l-1.48,1.5H296Z"/></g></g></svg>