<svg xmlns="http://www.w3.org/2000/svg" xmlns:xlink="http://www.w3.org/1999/xlink" viewBox="0 0 494.63 149.01"><defs><style>.cls-1{fill:url(#New_Gradient_Swatch_1);}.cls-2{fill:url(#New_Gradient_Swatch_1-2);}.cls-3{fill:url(#New_Gradient_Swatch_1-3);}.cls-4{fill:url(#New_Gradient_Swatch_1-4);}.cls-5{fill:url(#New_Gradient_Swatch_1-5);}.cls-6{fill:url(#New_Gradient_Swatch_1-6);}.cls-7{fill:url(#New_Gradient_Swatch_1-7);}.cls-8{fill:url(#New_Gradient_Swatch_1-8);}.cls-9{fill:url(#New_Gradient_Swatch_1-9);}.cls-10{fill:url(#New_Gradient_Swatch_1-10);}.cls-11{fill:url(#New_Gradient_Swatch_1-11);}.cls-12{fill:url(#New_Gradient_Swatch_1-12);}.cls-13{fill:url(#New_Gradient_Swatch_1-13);}.cls-14{fill:url(#New_Gradient_Swatch_1-14);}.cls-15{fill:url(#New_Gradient_Swatch_1-15);}.cls-16{fill:url(#New_Gradient_Swatch_1-16);}.cls-17{fill:#11e5b3;}.cls-18{fill:url(#New_Gradient_Swatch_1-17);}.cls-19{fill:url(#New_Gradient_Swatch_1-18);}.cls-20{opacity:0.15;}.cls-21{fill:url(#New_Gradient_Swatch_1-19);}.cls-22{fill:url(#New_Gradient_Swatch_1-20);}.cls-23{fill:url(#New_Gradient_Swatch_1-21);}.cls-24{fill:url(#New_Gradient_Swatch_1-22);}.cls-25{fill:url(#New_Gradient_Swatch_1-23);}.cls-26{fill:url(#New_Gradient_Swatch_1-24);}.cls-27{fill:url(#New_Gradient_Swatch_1-25);}.cls-28{fill:url(#New_Gradient_Swatch_1-26);}.cls-29{fill:url(#New_Gradient_Swatch_1-27);}.cls-30{fill:url(#New_Gradient_Swatch_1-28);}.cls-31{fill:url(#New_Gradient_Swatch_1-29);}.cls-32{fill:url(#New_Gradient_Swatch_1-30);}.cls-33{fill:url(#New_Gradient_Swatch_1-31);}.cls-34{fill:url(#New_Gradient_Swatch_1-32);}.cls-35{fill:url(#New_Gradient_Swatch_1-33);}.cls-36{fill:url(#New_Gradient_Swatch_1-34);}.cls-37{fill:url(#New_Gradient_Swatch_1-35);}.cls-38{fill:url(#New_Gradient_Swatch_1-36);}.cls-39{fill:url(#New_Gradient_Swatch_1-37);}.cls-40{fill:url(#New_Gradient_Swatch_1-38);}.cls-41{fill:url(#New_Gradient_Swatch_1-39);}.cls-42{fill:url(#New_Gradient_Swatch_1-40);}.cls-43{fill:url(#New_Gradient_Swatch_1-41);}.cls-44{fill:url(#New_Gradient_Swatch_1-42);}.cls-45{fill:url(#New_Gradient_Swatch_1-43);}.cls-46{fill:url(#New_Gradient_Swatch_1-44);}.cls-47{fill:url(#New_Gradient_Swatch_1-45);}.cls-48{fill:url(#New_Gradient_Swatch_1-46);}.cls-49{fill:url(#New_Gradient_Swatch_1-47);}.cls-50{fill:url(#New_Gradient_Swatch_1-48);}.cls-51{fill:url(#New_Gradient_Swatch_1-49);}.cls-52{fill:url(#New_Gradient_Swatch_1-50);}.cls-53{fill:url(#New_Gradient_Swatch_1-51);}.cls-54{fill:url(#New_Gradient_Swatch_1-52);}.cls-55{fill:url(#New_Gradient_Swatch_1-53);}.cls-56{fill:url(#New_Gradient_Swatch_1-54);}.cls-57{fill:url(#New_Gradient_Swatch_1-55);}.cls-58{fill:url(#New_Gradient_Swatch_1-56);}.cls-59{fill:url(#New_Gradient_Swatch_1-57);}.cls-60{fill:url(#New_Gradient_Swatch_1-58);}.cls-61{fill:url(#New_Gradient_Swatch_1-59);}.cls-62{fill:url(#New_Gradient_Swatch_1-60);}.cls-63{fill:url(#New_Gradient_Swatch_1-61);}.cls-64{fill:url(#New_Gradient_Swatch_1-62);}.cls-65{fill:url(#New_Gradient_Swatch_1-63);}.cls-66{fill:url(#New_Gradient_Swatch_1-64);}.cls-67{fill:url(#New_Gradient_Swatch_1-65);}</style><linearGradient id="New_Gradient_Swatch_1" x1="14.9" y1="43.55" x2="312.85" y2="43.55" gradientUnits="userSpaceOnUse"><stop offset="0" stop-color="#cf52fe"/><stop offset="1" stop-color="#19dbb6"/></linearGradient><linearGradient id="New_Gradient_Swatch_1-2" x1="14.9" y1="133.89" x2="324.5" y2="133.89" xlink:href="#New_Gradient_Swatch_1"/><linearGradient id="New_Gradient_Swatch_1-3" x1="324.17" y1="70.23" x2="483.62" y2="70.23" xlink:href="#New_Gradient_Swatch_1"/><linearGradient id="New_Gradient_Swatch_1-4" x1="31.09" y1="23.33" x2="101.18" y2="23.33" xlink:href="#New_Gradient_Swatch_1"/><linearGradient id="New_Gradient_Swatch_1-5" x1="19.02" y1="125.05" x2="34.2" y2="125.05" xlink:href="#New_Gradient_Swatch_1"/><linearGradient id="New_Gradient_Swatch_1-6" x1="65.56" y1="137.69" x2="80.74" y2="137.69" xlink:href="#New_Gradient_Swatch_1"/><linearGradient id="New_Gradient_Swatch_1-7" x1="156.32" y1="36.82" x2="296.01" y2="36.82" xlink:href="#New_Gradient_Swatch_1"/><linearGradient id="New_Gradient_Swatch_1-8" x1="159.76" y1="31.71" x2="188.13" y2="31.71" xlink:href="#New_Gradient_Swatch_1"/><linearGradient id="New_Gradient_Swatch_1-9" x1="171.02" y1="31.81" x2="212.01" y2="31.81" xlink:href="#New_Gradient_Swatch_1"/><linearGradient id="New_Gradient_Swatch_1-10" x1="194.24" y1="31.81" x2="235.23" y2="31.81" xlink:href="#New_Gradient_Swatch_1"/><linearGradient id="New_Gradient_Swatch_1-11" x1="217.45" y1="31.81" x2="258.44" y2="31.81" xlink:href="#New_Gradient_Swatch_1"/><linearGradient id="New_Gradient_Swatch_1-12" x1="240.67" y1="31.81" x2="280.99" y2="31.81" xlink:href="#New_Gradient_Swatch_1"/><linearGradient id="New_Gradient_Swatch_1-13" x1="263.88" y1="33.67" x2="292.18" y2="33.67" xlink:href="#New_Gradient_Swatch_1"/><linearGradient id="New_Gradient_Swatch_1-14" x1="183.55" y1="145.74" x2="270.48" y2="145.74" xlink:href="#New_Gradient_Swatch_1"/><linearGradient id="New_Gradient_Swatch_1-15" x1="348.57" y1="81.1" x2="389.39" y2="81.1" xlink:href="#New_Gradient_Swatch_1"/><linearGradient id="New_Gradient_Swatch_1-16" x1="475.42" y1="79.62" x2="479.73" y2="79.62" xlink:href="#New_Gradient_Swatch_1"/><linearGradient id="New_Gradient_Swatch_1-17" x1="153.66" y1="43.29" x2="172.9" y2="43.29" xlink:href="#New_Gradient_Swatch_1"/><linearGradient id="New_Gradient_Swatch_1-18" x1="281.36" y1="46.33" x2="296.35" y2="46.33" xlink:href="#New_Gradient_Swatch_1"/><linearGradient id="New_Gradient_Swatch_1-19" x1="14.09" y1="51.27" x2="311.58" y2="51.27" xlink:href="#New_Gradient_Swatch_1"/><linearGradient id="New_Gradient_Swatch_1-20" x1="11.77" y1="71.05" x2="72.46" y2="71.05" xlink:href="#New_Gradient_Swatch_1"/><linearGradient id="New_Gradient_Swatch_1-21" x1="11.99" y1="82.73" x2="114.95" y2="82.73" xlink:href="#New_Gradient_Swatch_1"/><linearGradient id="New_Gradient_Swatch_1-22" x1="0" y1="112.71" x2="414.92" y2="112.71" xlink:href="#New_Gradient_Swatch_1"/><linearGradient id="New_Gradient_Swatch_1-23" x1="324.5" y1="134.42" x2="370.53" y2="134.42" xlink:href="#New_Gradient_Swatch_1"/><linearGradient id="New_Gradient_Swatch_1-24" x1="107.01" y1="86.64" x2="157.54" y2="86.64" xlink:href="#New_Gradient_Swatch_1"/><linearGradient id="New_Gradient_Swatch_1-25" x1="457.95" y1="104.78" x2="487.14" y2="104.78" xlink:href="#New_Gradient_Swatch_1"/><linearGradient id="New_Gradient_Swatch_1-26" x1="476.37" y1="110.91" x2="488.15" y2="110.91" xlink:href="#New_Gradient_Swatch_1"/><linearGradient id="New_Gradient_Swatch_1-27" x1="113.54" y1="107.9" x2="120.93" y2="107.9" xlink:href="#New_Gradient_Swatch_1"/><linearGradient id="New_Gradient_Swatch_1-28" x1="121.33" y1="107.52" x2="131.35" y2="107.52" xlink:href="#New_Gradient_Swatch_1"/><linearGradient id="New_Gradient_Swatch_1-29" x1="131.75" y1="107.52" x2="139.29" y2="107.52" xlink:href="#New_Gradient_Swatch_1"/><linearGradient id="New_Gradient_Swatch_1-30" x1="141.69" y1="107.52" x2="149.22" y2="107.52" xlink:href="#New_Gradient_Swatch_1"/><linearGradient id="New_Gradient_Swatch_1-31" x1="149.62" y1="107.52" x2="157.16" y2="107.52" xlink:href="#New_Gradient_Swatch_1"/><linearGradient id="New_Gradient_Swatch_1-32" x1="157.56" y1="107.52" x2="165.74" y2="107.52" xlink:href="#New_Gradient_Swatch_1"/><linearGradient id="New_Gradient_Swatch_1-33" x1="165.58" y1="107.9" x2="172.97" y2="107.9" xlink:href="#New_Gradient_Swatch_1"/><linearGradient id="New_Gradient_Swatch_1-34" x1="173.37" y1="107.52" x2="174.84" y2="107.52" xlink:href="#New_Gradient_Swatch_1"/><linearGradient id="New_Gradient_Swatch_1-35" x1="175.24" y1="107.52" x2="182.78" y2="107.52" xlink:href="#New_Gradient_Swatch_1"/><linearGradient id="New_Gradient_Swatch_1-36" x1="183.18" y1="107.52" x2="190.71" y2="107.52" xlink:href="#New_Gradient_Swatch_1"/><linearGradient id="New_Gradient_Swatch_1-37" x1="193.11" y1="107.52" x2="200.65" y2="107.52" xlink:href="#New_Gradient_Swatch_1"/><linearGradient id="New_Gradient_Swatch_1-38" x1="201.05" y1="107.52" x2="208.58" y2="107.52" xlink:href="#New_Gradient_Swatch_1"/><linearGradient id="New_Gradient_Swatch_1-39" x1="208.98" y1="107.52" x2="216.52" y2="107.52" xlink:href="#New_Gradient_Swatch_1"/><linearGradient id="New_Gradient_Swatch_1-40" x1="216.92" y1="107.9" x2="224.31" y2="107.9" xlink:href="#New_Gradient_Swatch_1"/><linearGradient id="New_Gradient_Swatch_1-41" x1="224.71" y1="107.52" x2="232.25" y2="107.52" xlink:href="#New_Gradient_Swatch_1"/><linearGradient id="New_Gradient_Swatch_1-42" x1="232.65" y1="107.52" x2="240.82" y2="107.52" xlink:href="#New_Gradient_Swatch_1"/><linearGradient id="New_Gradient_Swatch_1-43" x1="240.66" y1="107.52" x2="248.2" y2="107.52" xlink:href="#New_Gradient_Swatch_1"/><linearGradient id="New_Gradient_Swatch_1-44" x1="248.6" y1="107.52" x2="256.14" y2="107.52" xlink:href="#New_Gradient_Swatch_1"/><linearGradient id="New_Gradient_Swatch_1-45" x1="114.02" y1="118.04" x2="124.04" y2="118.04" xlink:href="#New_Gradient_Swatch_1"/><linearGradient id="New_Gradient_Swatch_1-46" x1="124.44" y1="118.04" x2="131.98" y2="118.04" xlink:href="#New_Gradient_Swatch_1"/><linearGradient id="New_Gradient_Swatch_1-47" x1="132.38" y1="118.04" x2="140.56" y2="118.04" xlink:href="#New_Gradient_Swatch_1"/><linearGradient id="New_Gradient_Swatch_1-48" x1="140.96" y1="118.04" x2="149.13" y2="118.04" xlink:href="#New_Gradient_Swatch_1"/><linearGradient id="New_Gradient_Swatch_1-49" x1="149.53" y1="118.04" x2="151" y2="118.04" xlink:href="#New_Gradient_Swatch_1"/><linearGradient id="New_Gradient_Swatch_1-50" x1="151.4" y1="118.04" x2="158.94" y2="118.04" xlink:href="#New_Gradient_Swatch_1"/><linearGradient id="New_Gradient_Swatch_1-51" x1="159.34" y1="118.04" x2="166.88" y2="118.04" xlink:href="#New_Gradient_Swatch_1"/><linearGradient id="New_Gradient_Swatch_1-52" x1="169.28" y1="118.04" x2="176.81" y2="118.04" xlink:href="#New_Gradient_Swatch_1"/><linearGradient id="New_Gradient_Swatch_1-53" x1="177.21" y1="118.04" x2="178.68" y2="118.04" xlink:href="#New_Gradient_Swatch_1"/><linearGradient id="New_Gradient_Swatch_1-54" x1="179.08" y1="118.04" x2="189.11" y2="118.04" xlink:href="#New_Gradient_Swatch_1"/><linearGradient id="New_Gradient_Swatch_1-55" x1="189.51" y1="118.04" x2="197.04" y2="118.04" xlink:href="#New_Gradient_Swatch_1"/><linearGradient id="New_Gradient_Swatch_1-56" x1="197.44" y1="118.04" x2="203.91" y2="118.04" xlink:href="#New_Gradient_Swatch_1"/><linearGradient id="New_Gradient_Swatch_1-57" x1="201.91" y1="118.42" x2="209.3" y2="118.42" xlink:href="#New_Gradient_Swatch_1"/><linearGradient id="New_Gradient_Swatch_1-58" x1="209.7" y1="118.04" x2="217.24" y2="118.04" xlink:href="#New_Gradient_Swatch_1"/><linearGradient id="New_Gradient_Swatch_1-59" x1="217.64" y1="118.04" x2="225.17" y2="118.04" xlink:href="#New_Gradient_Swatch_1"/><linearGradient id="New_Gradient_Swatch_1-60" x1="225.57" y1="118.04" x2="233.11" y2="118.04" xlink:href="#New_Gradient_Swatch_1"/><linearGradient id="New_Gradient_Swatch_1-61" x1="233.51" y1="118.04" x2="241.04" y2="118.04" xlink:href="#New_Gradient_Swatch_1"/><linearGradient id="New_Gradient_Swatch_1-62" x1="241.44" y1="118.04" x2="248.98" y2="118.04" xlink:href="#New_Gradient_Swatch_1"/><linearGradient id="New_Gradient_Swatch_1-63" x1="249.38" y1="118.04" x2="256.92" y2="118.04" xlink:href="#New_Gradient_Swatch_1"/><linearGradient id="New_Gradient_Swatch_1-64" x1="257.32" y1="118.04" x2="263.78" y2="118.04" xlink:href="#New_Gradient_Swatch_1"/><linearGradient id="New_Gradient_Swatch_1-65" x1="264.18" y1="118.04" x2="271.72" y2="118.04" xlink:href="#New_Gradient_Swatch_1"/></defs><title>divider_subtree_03</title><g id="Layer_2" data-name="Layer 2"><g id="Layer_1-2" data-name="Layer 1"><polygon class="cls-1" points="312.37 70.14 300.3 58.06 300.3 37.75 280.18 17.63 169.51 17.63 165.38 21.76 35.03 21.76 15.37 41.42 14.9 40.95 34.75 21.09 165.1 21.09 169.24 16.96 280.46 16.96 300.97 37.47 300.97 57.79 312.85 69.67 312.37 70.14"/><polygon class="cls-2" points="314.83 149.01 276.64 149.01 267.68 140.05 69.52 140.05 56.74 127.27 22.92 127.27 14.9 119.25 15.37 118.78 23.2 126.6 57.02 126.6 69.79 139.38 267.96 139.38 276.91 148.34 314.56 148.34 323.83 139.06 323.83 128.16 324.5 128.16 324.5 139.34 314.83 149.01"/><polygon class="cls-3" points="483.62 108.82 418.3 108.82 386.32 76.84 324.17 76.84 324.17 76.17 386.6 76.17 418.57 108.15 482.95 108.15 482.95 31.64 483.62 31.64 483.62 108.82"/><polygon class="cls-4" points="31.09 25.22 97.39 25.22 101.19 21.43 34.89 21.43 31.09 25.22"/><path class="cls-5" d="M19,122.9H30s4.72,4.16,4.16,4.16-10.78.31-11.09,0Z"/><path class="cls-6" d="M65.56,135.54h11s4.73,4.16,4.16,4.16-10.78.31-11.09,0Z"/><polygon class="cls-7" points="289.94 46.54 161.76 46.54 156.32 41.1 156.32 32.56 161.78 27.11 162.25 27.58 156.99 32.84 156.99 40.82 162.04 45.87 289.67 45.87 295.54 40 296.01 40.47 289.94 46.54"/><polygon class="cls-8" points="173.34 20.01 159.76 33.59 159.76 39.01 164.35 43.6 188.13 19.82 173.34 20.01"/><path class="cls-9" d="M171,43.6,194.61,20H212c-.11,0-23.52,23.52-23.52,23.52Z"/><path class="cls-10" d="M194.24,43.6,217.82,20h17.41c-.11,0-23.53,23.52-23.53,23.52Z"/><path class="cls-11" d="M217.45,43.6,241,20h17.4c-.11,0-23.52,23.52-23.52,23.52Z"/><path class="cls-12" d="M240.67,43.6,264.25,20H281c-.11,0-22.86,23.52-22.86,23.52Z"/><path class="cls-13" d="M283.74,23.74,263.88,43.6l17.47-.06s5.07-5.1,10.83-10.87Z"/><polyline class="cls-14" points="183.55 144.01 267.04 144.01 270.48 147.46"/><polyline class="cls-15" points="348.57 79.13 385.45 79.13 389.39 83.07"/><polyline class="cls-16" points="475.42 104.17 479.73 104.17 479.73 55.07"/><circle class="cls-17" cx="483.28" cy="11.34" r="4.1"/><path class="cls-17" d="M483.28,22.68a11.34,11.34,0,1,1,11.35-11.34A11.35,11.35,0,0,1,483.28,22.68Zm0-22A10.67,10.67,0,1,0,494,11.34,10.69,10.69,0,0,0,483.28.67Z"/><polygon class="cls-18" points="172.9 49.6 160.66 49.6 153.66 42.59 153.66 36.98 154.32 36.98 154.32 42.31 160.94 48.93 172.9 48.93 172.9 49.6"/><polygon class="cls-19" points="291.13 49.18 281.37 49.18 281.37 48.51 290.85 48.51 295.88 43.48 296.36 43.95 291.13 49.18"/><g class="cls-20"><polygon class="cls-21" points="14.1 48.88 34.49 28.48 99.45 28.48 103.81 24.13 159.94 24.13 153.18 30.89 151.58 30.89 151.58 44.13 159.42 51.96 179.06 51.96 181.85 49.17 277.81 49.17 281.54 52.9 292.87 52.9 296.49 49.28 298.35 49.28 298.35 59.18 311.58 72.41 305.58 78.42 60.51 78.42 55.25 73.16 14.1 73.16 14.1 48.88"/></g><polygon class="cls-22" points="13.91 63.64 11.77 65.78 11.77 75.99 57.82 75.99 60.28 78.46 72.46 78.46 70.17 76.17 61.38 76.17 56.07 70.85 43.48 70.85 41.53 68.91 19.54 68.91 17.49 66.86 15.63 66.86 15.63 64.59 13.91 63.64"/><polygon class="cls-23" points="11.99 79.84 58.42 79.84 60.84 82.25 80.94 82.25 84.74 78.46 114.95 78.46 112.6 80.81 112.6 84.03 109.63 87 50.77 87 48.29 84.52 16.23 84.52 11.99 79.84"/><g class="cls-20"><polygon class="cls-24" points="0 84.81 6.48 84.81 10.16 81.13 15.54 86.52 46.15 86.52 49 89.37 111.2 89.37 115.86 84.7 115.86 82.18 117.03 81.02 305.62 81.02 308.23 83.63 342.85 83.63 345.94 80.54 349.77 80.54 392.46 86.71 414.92 109.18 414.92 120.63 390.92 144.62 332.13 144.62 332.13 124.23 319.95 124.23 319.95 136.03 311.09 144.88 278.03 144.88 267.71 134.56 82.45 134.56 78.84 130.96 66.14 130.96 57.87 122.69 34.2 122.69 30.83 119.33 19.49 119.33 13.52 113.35 6.72 113.35 0.03 106.66 0 84.81"/></g><polygon class="cls-25" points="324.5 124.23 326.9 121.83 334.52 121.83 334.52 142.31 353.57 142.31 353.94 142.68 368.68 142.68 370.53 144.53 369.38 145.68 349.09 145.68 347.77 147 336.61 147 335.27 145.66 331.01 145.66 331.01 133.4 332.06 132.35 332.06 126.96 330.12 125.03 325.55 125.03 324.5 124.23"/><polygon class="cls-26" points="111.2 89.37 115.86 84.7 115.86 82.18 117.03 81.02 157.54 81.02 156.58 81.98 138.39 81.98 136.5 83.86 120.74 83.86 118.15 86.45 118.15 88.31 114.2 92.26 108.02 92.26 107.01 91.25 107.01 89.55 111.2 89.37"/><polygon class="cls-27" points="487.14 112.33 457.95 112.33 457.95 111.75 486.55 111.75 486.55 97.23 487.14 97.23 487.14 112.33"/><polygon class="cls-28" points="486.85 108.04 488.15 109.34 488.15 113.79 478.26 113.79 476.37 111.9 486.72 111.9 486.85 108.04"/><path class="cls-17" d="M50.17,56.47v1.12H66.09v9.26H46.3l3.87-3.93h12V61.51H46.3v-9Zm15.92-3.92L62.2,56.47h-12V52.55Z"/><path class="cls-17" d="M83.05,66.85H71l-3.86-3.93V52.55H83.05l3.85,3.92,0,10.38-3.87-3.93V56.47H71v6.45h12Z"/><path class="cls-17" d="M92.36,61.51v5.34H88V57.59h15.89V56.47h-12L88,52.55h19.76v9h-6.68l8.38,5.3h-6.55L94,61.51Z"/><path class="cls-17" d="M128.41,52.55l-3.86,3.92H109V52.55ZM119.82,68.8l-4.47-3.93v-8.4l4.47,2.65Z"/><path class="cls-17" d="M138.58,62.92h3.57V61.51h-7.44V52.57l3.87,3.9v1.12h3.57V56.47h-3.57v-3.9h3.57V49.06h1.51v3.51h1.87V49.06H147v3.51h7.46l-3.89,3.9H147v1.12h7.46v9.26l-3.89-3.93V61.51H147v1.41h3.57v3.93H147v3.48h-1.51V66.85h-1.87v3.48h-1.51V66.85h-7.44Zm5.08-6.45v1.12h1.87V56.47Zm0,5v1.41h1.87V61.51Z"/><path class="cls-17" d="M160.8,52.55h19.78v14.3h-3.89V63.36H165.18v3.49H160.8V58.76l4.38-2.29v6.09l2.34-3.12h9.17v-3H165.18Z"/><path class="cls-17" d="M181.63,66.85V52.55l3.86,3.92V66.85Zm15.92-14.3,3.86,3.92V66.85h-3.86V56.47H185.49V52.55Z"/><path class="cls-17" d="M204.66,66.85h-2.2V57.59h4.39v5.33h11.51V56.47h-12l-3.86-3.92h19.78V62.92l-3.88,3.93Z"/><path class="cls-17" d="M244.44,56.47l3.88-3.92v14.3h-3.88V63.36H232.93v3.49h-4.39V58.76l4.39-2.29v6.09l2.33-3.12h9.18Zm0-3.92v3.92H232.93l-4.39-3.92Z"/><path class="cls-17" d="M260.17,58.89v1.53h-10.8V58.89Z"/><path class="cls-17" d="M278.19,52.55l-3.51,3.92H261.22l3.52-3.92Zm-.59,9h-6.45l-8.42,5.34h-1.51V62.92l8.08-5.33h11.78Zm-6.83,1.41h10.88l-3.49,3.93H265Zm10.33-6.45h-5.23l3.62-3.92h1.61Z"/><path class="cls-29" d="M120.93,104.8l-1.47,1.5h-5.92v-1.5ZM117.66,111,116,109.5v-3.2l1.71,1Z"/><path class="cls-30" d="M122.81,104.8v4h2.8v1.5h-2.8l-1.48-1.5v-4Zm4.27,0v4h2.8v1.5h-2.81l-1.46-1.49v-4Zm2.8,0h1.47v5.45l-1.47-1.5Z"/><path class="cls-31" d="M137.82,110.25h-4.6l-1.47-1.5v-4h6.07l1.46,1.5v4l-1.47-1.5V106.3h-4.6v2.45h4.6Z"/><path class="cls-32" d="M143.16,106.3v.42h6.06v3.53h-7.53l1.47-1.5h4.58v-.53h-6.05V104.8Zm6.06-1.5-1.48,1.5h-4.58v-1.5Z"/><path class="cls-33" d="M155.69,110.25H151.1l-1.48-1.5v-4h6.07l1.46,1.5v4l-1.47-1.5V106.3H151.1v2.45h4.59Z"/><path class="cls-34" d="M159.23,108.22v2h-1.67v-3.53h6.06v-.42H159l-1.47-1.5h7.53v3.42h-2.55l3.2,2h-2.5l-3.37-2Z"/><path class="cls-35" d="M173,104.8l-1.47,1.5h-5.92v-1.5ZM169.7,111,168,109.5v-3.2l1.71,1Z"/><path class="cls-36" d="M174.84,104.8v5.45h-1.47V104.8Z"/><path class="cls-37" d="M175.24,110.25V104.8l1.47,1.5v4Zm6.06-5.45,1.48,1.5v4H181.3v-4h-4.59v-1.5Z"/><path class="cls-38" d="M184.65,106.3v2.45h4.59v1.5h-4.59l-1.47-1.5v-4h6.06l.74,1.5Zm6.06.41h0v3.53l-1.47-1.5v-.53h-3.17v-1.51Z"/><path class="cls-39" d="M194.58,106.3v.41H200l-1.11,1.51h-4.34v2l-1.47-1.5v-4Zm6.07-1.5-1.48,1.5h-4.59v-1.5Z"/><path class="cls-40" d="M206.86,108.22h-4.34v.53H208v1.5h-5.44l-1.47-1.5v-4l1.47,1.5v.41H208Zm1.72-3.42-1.48,1.5h-4.58v-1.5Z"/><path class="cls-41" d="M209,104.8h7.54v5.45H215v-1.33h-4.38v1.33H209v-3.08l1.68-.87v2.32l.88-1.2H215V106.3h-4.38Z"/><path class="cls-42" d="M224.31,104.8l-1.47,1.5h-5.92v-1.5ZM221,111l-1.7-1.49v-3.2l1.7,1Z"/><path class="cls-43" d="M226.18,104.8v4h4.6v1.5h-4.6l-1.47-1.5v-4Zm4.6,0h1.47v5.45l-1.47-1.5Z"/><path class="cls-44" d="M234.32,108.22v2h-1.67v-3.53h6v-.42h-4.58l-1.47-1.5h7.53v3.42h-2.55l3.19,2h-2.49l-3.37-2Z"/><path class="cls-45" d="M246.47,108.22h-4.33v.53h5.44v1.5h-5.44l-1.48-1.5v-4l1.48,1.5v.41h5.44Zm1.73-3.42-1.48,1.5h-4.58v-1.5Z"/><path class="cls-46" d="M250.07,106.3v.42h6.07v3.53H248.6l1.47-1.5h4.59v-.53H248.6V104.8Zm6.07-1.5-1.48,1.5h-4.59v-1.5Z"/><path class="cls-47" d="M115.5,115.32v4h2.8v1.5h-2.8l-1.48-1.5v-4Zm4.27,0v4h2.8v1.5h-2.81l-1.46-1.49v-4Zm2.8,0H124v5.45l-1.47-1.5Z"/><path class="cls-48" d="M130.51,120.77h-4.59l-1.48-1.5v-4h6.07l1.46,1.5v4l-1.47-1.5v-2.45h-4.59v2.45h4.59Z"/><path class="cls-49" d="M134.05,118.74v2h-1.67v-3.53h6.06v-.42h-4.59l-1.47-1.5h7.53v3.42h-2.55l3.2,2h-2.5l-3.37-2Z"/><path class="cls-50" d="M141,120.77v-5.45h1.67v5.45Zm5-2,3.19,2h-2.49l-3.37-2v-1.5H147v-1.92h1.47v3.42Z"/><path class="cls-51" d="M151,115.32v5.45h-1.47v-5.45Z"/><path class="cls-52" d="M151.4,120.77v-5.45l1.48,1.5v4Zm6.07-5.45,1.47,1.5v4h-1.47v-4h-4.59v-1.5Z"/><path class="cls-53" d="M160.81,116.82v2.45h4.59v1.5h-4.59l-1.47-1.5v-4h6.06l.74,1.5Zm6.07.41h0v3.53l-1.48-1.5v-.53h-3.16v-1.51Z"/><path class="cls-54" d="M170.75,116.82v.42h6.06v3.53h-7.53l1.47-1.5h4.58v-.53h-6.05v-3.42Zm6.06-1.5-1.48,1.5h-4.58v-1.5Z"/><path class="cls-55" d="M178.68,115.32v5.45h-1.47v-5.45Z"/><path class="cls-56" d="M179.08,120.77v-5.45l1.48,1.5v4Zm1.48-5.45h2.8l1.48,1.5v4h-1.48v-4h-2.8Zm7.08,0,1.47,1.5v4h-1.47v-4h-2.8v-1.5Z"/><path class="cls-57" d="M191,115.32v4h4.59v1.5H191l-1.47-1.5v-4Zm4.59,0H197v5.45l-1.47-1.5Z"/><path class="cls-58" d="M199.14,115.32v2.94l-1.7,1v-3.94Zm-1.7,3.94h6.47l-1.47,1.49h-5Z"/><path class="cls-59" d="M209.3,115.32l-1.47,1.5h-5.92v-1.5ZM206,121.51,204.32,120v-3.2l1.71,1Z"/><path class="cls-60" d="M209.7,115.32h7.54v5.45h-1.48v-1.33h-4.39v1.33H209.7v-3.08l1.67-.87v2.32l.89-1.2h3.5v-1.12h-4.39Z"/><path class="cls-61" d="M217.64,120.77v-5.45l1.47,1.5v4Zm6.06-5.45,1.47,1.5v4H223.7v-4h-4.59v-1.5Z"/><path class="cls-62" d="M231.38,118.74H227v.53h5.44v1.5H227l-1.47-1.5v-4l1.47,1.5v.41h5.45Zm1.73-3.42-1.48,1.5H227v-1.5Z"/><path class="cls-63" d="M239.57,120.77H235l-1.47-1.5v-4h6.06l1.47,1.5v4l-1.47-1.5v-2.45H235v2.45h4.59Z"/><path class="cls-64" d="M242.92,115.32v4h4.59v1.5h-4.59l-1.48-1.5v-4Zm4.59,0H249v5.45l-1.47-1.5Z"/><path class="cls-65" d="M250.85,116.82v.42h6.07v3.53h-7.54l1.47-1.5h4.59v-.53h-6.06v-3.42Zm6.07-1.5-1.48,1.5h-4.59v-1.5Z"/><path class="cls-66" d="M259,115.32v2.94l-1.69,1v-3.94Zm-1.69,3.94h6.46l-1.47,1.49h-5Z"/><path class="cls-67" d="M271.72,115.32v1.92l-1.48,1.32h-4.59l-1.47-1.32v-1.92h1.47v1.92h4.59v-1.92Zm-7.54,4h6.06v-.71h1.48v.71l-1.48,1.5h-6.06Z"/></g></g></svg>