<svg xmlns="http://www.w3.org/2000/svg" xmlns:xlink="http://www.w3.org/1999/xlink" viewBox="0 0 494.63 149.01"><defs><style>.cls-1{fill:url(#New_Gradient_Swatch_1);}.cls-2{fill:url(#New_Gradient_Swatch_1-2);}.cls-3{fill:url(#New_Gradient_Swatch_1-3);}.cls-4{fill:url(#New_Gradient_Swatch_1-4);}.cls-5{fill:url(#New_Gradient_Swatch_1-5);}.cls-6{fill:url(#New_Gradient_Swatch_1-6);}.cls-7{fill:url(#New_Gradient_Swatch_1-7);}.cls-8{fill:url(#New_Gradient_Swatch_1-8);}.cls-9{fill:url(#New_Gradient_Swatch_1-9);}.cls-10{fill:url(#New_Gradient_Swatch_1-10);}.cls-11{fill:url(#New_Gradient_Swatch_1-11);}.cls-12{fill:url(#New_Gradient_Swatch_1-12);}.cls-13{fill:url(#New_Gradient_Swatch_1-13);}.cls-14{fill:url(#New_Gradient_Swatch_1-14);}.cls-15{fill:url(#New_Gradient_Swatch_1-15);}.cls-16{fill:url(#New_Gradient_Swatch_1-16);}.cls-17{fill:#11e5b3;}.cls-18{fill:url(#New_Gradient_Swatch_1-17);}.cls-19{fill:url(#New_Gradient_Swatch_1-18);}.cls-20{opacity:0.15;}.cls-21{fill:url(#New_Gradient_Swatch_1-19);}.cls-22{fill:url(#New_Gradient_Swatch_1-20);}.cls-23{fill:url(#New_Gradient_Swatch_1-21);}.cls-24{fill:url(#New_Gradient_Swatch_1-22);}.cls-25{fill:url(#New_Gradient_Swatch_1-23);}.cls-26{fill:url(#New_Gradient_Swatch_1-24);}.cls-27{fill:url(#New_Gradient_Swatch_1-25);}.cls-28{fill:url(#New_Gradient_Swatch_1-26);}.cls-29{fill:url(#New_Gradient_Swatch_2);}.cls-30{fill:url(#New_Gradient_Swatch_2-2);}.cls-31{fill:url(#New_Gradient_Swatch_2-3);}.cls-32{fill:url(#New_Gradient_Swatch_2-4);}.cls-33{fill:url(#New_Gradient_Swatch_2-5);}.cls-34{fill:url(#New_Gradient_Swatch_2-6);}.cls-35{fill:url(#New_Gradient_Swatch_2-7);}.cls-36{fill:url(#New_Gradient_Swatch_2-8);}.cls-37{fill:url(#New_Gradient_Swatch_2-9);}.cls-38{fill:url(#New_Gradient_Swatch_2-10);}.cls-39{fill:url(#New_Gradient_Swatch_2-11);}.cls-40{fill:url(#New_Gradient_Swatch_2-12);}.cls-41{fill:url(#New_Gradient_Swatch_2-13);}.cls-42{fill:url(#New_Gradient_Swatch_2-14);}.cls-43{fill:url(#New_Gradient_Swatch_2-15);}.cls-44{fill:url(#New_Gradient_Swatch_2-16);}.cls-45{fill:url(#New_Gradient_Swatch_2-17);}.cls-46{fill:url(#New_Gradient_Swatch_2-18);}.cls-47{fill:url(#New_Gradient_Swatch_2-19);}.cls-48{fill:url(#New_Gradient_Swatch_2-20);}.cls-49{fill:url(#New_Gradient_Swatch_2-21);}.cls-50{fill:url(#New_Gradient_Swatch_2-22);}.cls-51{fill:url(#New_Gradient_Swatch_2-23);}.cls-52{fill:url(#New_Gradient_Swatch_2-24);}.cls-53{fill:url(#New_Gradient_Swatch_2-25);}.cls-54{fill:url(#New_Gradient_Swatch_2-26);}.cls-55{fill:url(#New_Gradient_Swatch_2-27);}.cls-56{fill:url(#New_Gradient_Swatch_2-28);}.cls-57{fill:url(#New_Gradient_Swatch_2-29);}</style><linearGradient id="New_Gradient_Swatch_1" x1="14.9" y1="43.55" x2="312.85" y2="43.55" gradientUnits="userSpaceOnUse"><stop offset="0" stop-color="#cf52fe"/><stop offset="1" stop-color="#19dbb6"/></linearGradient><linearGradient id="New_Gradient_Swatch_1-2" x1="14.9" y1="133.89" x2="324.5" y2="133.89" xlink:href="#New_Gradient_Swatch_1"/><linearGradient id="New_Gradient_Swatch_1-3" x1="324.17" y1="70.23" x2="483.62" y2="70.23" xlink:href="#New_Gradient_Swatch_1"/><linearGradient id="New_Gradient_Swatch_1-4" x1="31.09" y1="23.33" x2="101.18" y2="23.33" xlink:href="#New_Gradient_Swatch_1"/><linearGradient id="New_Gradient_Swatch_1-5" x1="19.02" y1="125.05" x2="34.2" y2="125.05" xlink:href="#New_Gradient_Swatch_1"/><linearGradient id="New_Gradient_Swatch_1-6" x1="65.56" y1="137.69" x2="80.74" y2="137.69" xlink:href="#New_Gradient_Swatch_1"/><linearGradient id="New_Gradient_Swatch_1-7" x1="156.32" y1="36.82" x2="296.01" y2="36.82" xlink:href="#New_Gradient_Swatch_1"/><linearGradient id="New_Gradient_Swatch_1-8" x1="159.76" y1="31.71" x2="188.13" y2="31.71" xlink:href="#New_Gradient_Swatch_1"/><linearGradient id="New_Gradient_Swatch_1-9" x1="171.02" y1="31.81" x2="212.01" y2="31.81" xlink:href="#New_Gradient_Swatch_1"/><linearGradient id="New_Gradient_Swatch_1-10" x1="194.24" y1="31.81" x2="235.23" y2="31.81" xlink:href="#New_Gradient_Swatch_1"/><linearGradient id="New_Gradient_Swatch_1-11" x1="217.45" y1="31.81" x2="258.44" y2="31.81" xlink:href="#New_Gradient_Swatch_1"/><linearGradient id="New_Gradient_Swatch_1-12" x1="240.67" y1="31.81" x2="280.99" y2="31.81" xlink:href="#New_Gradient_Swatch_1"/><linearGradient id="New_Gradient_Swatch_1-13" x1="263.88" y1="33.67" x2="292.18" y2="33.67" xlink:href="#New_Gradient_Swatch_1"/><linearGradient id="New_Gradient_Swatch_1-14" x1="183.55" y1="145.74" x2="270.48" y2="145.74" xlink:href="#New_Gradient_Swatch_1"/><linearGradient id="New_Gradient_Swatch_1-15" x1="348.57" y1="81.1" x2="389.39" y2="81.1" xlink:href="#New_Gradient_Swatch_1"/><linearGradient id="New_Gradient_Swatch_1-16" x1="475.42" y1="79.62" x2="479.73" y2="79.62" xlink:href="#New_Gradient_Swatch_1"/><linearGradient id="New_Gradient_Swatch_1-17" x1="153.66" y1="43.29" x2="172.9" y2="43.29" xlink:href="#New_Gradient_Swatch_1"/><linearGradient id="New_Gradient_Swatch_1-18" x1="281.36" y1="46.33" x2="296.35" y2="46.33" xlink:href="#New_Gradient_Swatch_1"/><linearGradient id="New_Gradient_Swatch_1-19" x1="14.09" y1="51.27" x2="311.58" y2="51.27" xlink:href="#New_Gradient_Swatch_1"/><linearGradient id="New_Gradient_Swatch_1-20" x1="11.77" y1="71.05" x2="72.46" y2="71.05" xlink:href="#New_Gradient_Swatch_1"/><linearGradient id="New_Gradient_Swatch_1-21" x1="11.99" y1="82.73" x2="114.95" y2="82.73" xlink:href="#New_Gradient_Swatch_1"/><linearGradient id="New_Gradient_Swatch_1-22" x1="0" y1="112.71" x2="414.92" y2="112.71" xlink:href="#New_Gradient_Swatch_1"/><linearGradient id="New_Gradient_Swatch_1-23" x1="324.5" y1="134.42" x2="370.53" y2="134.42" xlink:href="#New_Gradient_Swatch_1"/><linearGradient id="New_Gradient_Swatch_1-24" x1="107.01" y1="86.64" x2="157.54" y2="86.64" xlink:href="#New_Gradient_Swatch_1"/><linearGradient id="New_Gradient_Swatch_1-25" x1="457.95" y1="104.78" x2="487.14" y2="104.78" xlink:href="#New_Gradient_Swatch_1"/><linearGradient id="New_Gradient_Swatch_1-26" x1="476.37" y1="110.91" x2="488.15" y2="110.91" xlink:href="#New_Gradient_Swatch_1"/><linearGradient id="New_Gradient_Swatch_2" x1="83.71" y1="105.09" x2="96.68" y2="105.09" gradientUnits="userSpaceOnUse"><stop offset="0" stop-color="#9541de"/><stop offset="1" stop-color="#3ab2c0"/></linearGradient><linearGradient id="New_Gradient_Swatch_2-2" x1="97.43" y1="105.09" x2="111.56" y2="105.09" xlink:href="#New_Gradient_Swatch_2"/><linearGradient id="New_Gradient_Swatch_2-3" x1="112.31" y1="105.09" x2="127.65" y2="105.09" xlink:href="#New_Gradient_Swatch_2"/><linearGradient id="New_Gradient_Swatch_2-4" x1="127.35" y1="105.09" x2="141.49" y2="105.09" xlink:href="#New_Gradient_Swatch_2"/><linearGradient id="New_Gradient_Swatch_2-5" x1="145.99" y1="105.09" x2="160.12" y2="105.09" xlink:href="#New_Gradient_Swatch_2"/><linearGradient id="New_Gradient_Swatch_2-6" x1="160.87" y1="105.09" x2="175.01" y2="105.09" xlink:href="#New_Gradient_Swatch_2"/><linearGradient id="New_Gradient_Swatch_2-7" x1="175.76" y1="105.09" x2="189.89" y2="105.09" xlink:href="#New_Gradient_Swatch_2"/><linearGradient id="New_Gradient_Swatch_2-8" x1="194.4" y1="105.09" x2="207.15" y2="105.09" xlink:href="#New_Gradient_Swatch_2"/><linearGradient id="New_Gradient_Swatch_2-9" x1="207.9" y1="105.09" x2="222.04" y2="105.09" xlink:href="#New_Gradient_Swatch_2"/><linearGradient id="New_Gradient_Swatch_2-10" x1="222.79" y1="105.09" x2="236.92" y2="105.09" xlink:href="#New_Gradient_Swatch_2"/><linearGradient id="New_Gradient_Swatch_2-11" x1="241.42" y1="105.09" x2="255.56" y2="105.09" xlink:href="#New_Gradient_Swatch_2"/><linearGradient id="New_Gradient_Swatch_2-12" x1="256.31" y1="105.09" x2="259.07" y2="105.09" xlink:href="#New_Gradient_Swatch_2"/><linearGradient id="New_Gradient_Swatch_2-13" x1="259.82" y1="105.09" x2="272.57" y2="105.09" xlink:href="#New_Gradient_Swatch_2"/><linearGradient id="New_Gradient_Swatch_2-14" x1="273.32" y1="105.09" x2="288.66" y2="105.09" xlink:href="#New_Gradient_Swatch_2"/><linearGradient id="New_Gradient_Swatch_2-15" x1="83.71" y1="123.8" x2="97.58" y2="123.8" xlink:href="#New_Gradient_Swatch_2"/><linearGradient id="New_Gradient_Swatch_2-16" x1="98.33" y1="123.1" x2="111.29" y2="123.1" xlink:href="#New_Gradient_Swatch_2"/><linearGradient id="New_Gradient_Swatch_2-17" x1="112.05" y1="123.1" x2="126.18" y2="123.1" xlink:href="#New_Gradient_Swatch_2"/><linearGradient id="New_Gradient_Swatch_2-18" x1="130.68" y1="123.1" x2="144.82" y2="123.1" xlink:href="#New_Gradient_Swatch_2"/><linearGradient id="New_Gradient_Swatch_2-19" x1="145.57" y1="123.1" x2="148.33" y2="123.1" xlink:href="#New_Gradient_Swatch_2"/><linearGradient id="New_Gradient_Swatch_2-20" x1="149.08" y1="123.1" x2="163.68" y2="123.1" xlink:href="#New_Gradient_Swatch_2"/><linearGradient id="New_Gradient_Swatch_2-21" x1="164.43" y1="123.1" x2="178.56" y2="123.1" xlink:href="#New_Gradient_Swatch_2"/><linearGradient id="New_Gradient_Swatch_2-22" x1="183.07" y1="123.8" x2="196.93" y2="123.8" xlink:href="#New_Gradient_Swatch_2"/><linearGradient id="New_Gradient_Swatch_2-23" x1="197.68" y1="123.1" x2="211.82" y2="123.1" xlink:href="#New_Gradient_Swatch_2"/><linearGradient id="New_Gradient_Swatch_2-24" x1="216.32" y1="123.1" x2="230.45" y2="123.1" xlink:href="#New_Gradient_Swatch_2"/><linearGradient id="New_Gradient_Swatch_2-25" x1="231.2" y1="123.1" x2="245.34" y2="123.1" xlink:href="#New_Gradient_Swatch_2"/><linearGradient id="New_Gradient_Swatch_2-26" x1="246.09" y1="123.1" x2="261.43" y2="123.1" xlink:href="#New_Gradient_Swatch_2"/><linearGradient id="New_Gradient_Swatch_2-27" x1="261.13" y1="123.8" x2="274.99" y2="123.8" xlink:href="#New_Gradient_Swatch_2"/><linearGradient id="New_Gradient_Swatch_2-28" x1="279.49" y1="123.1" x2="293.63" y2="123.1" xlink:href="#New_Gradient_Swatch_2"/><linearGradient id="New_Gradient_Swatch_2-29" x1="294.38" y1="123.1" x2="308.51" y2="123.1" xlink:href="#New_Gradient_Swatch_2"/></defs><title>divider_subtree_07</title><g id="Layer_2" data-name="Layer 2"><g id="Layer_1-2" data-name="Layer 1"><polygon class="cls-1" points="312.37 70.14 300.3 58.06 300.3 37.75 280.18 17.63 169.51 17.63 165.38 21.76 35.03 21.76 15.37 41.42 14.9 40.95 34.75 21.09 165.1 21.09 169.24 16.96 280.46 16.96 300.97 37.47 300.97 57.79 312.85 69.67 312.37 70.14"/><polygon class="cls-2" points="314.83 149.01 276.64 149.01 267.68 140.05 69.52 140.05 56.74 127.27 22.92 127.27 14.9 119.25 15.37 118.78 23.2 126.6 57.02 126.6 69.79 139.38 267.96 139.38 276.91 148.34 314.56 148.34 323.83 139.06 323.83 128.16 324.5 128.16 324.5 139.34 314.83 149.01"/><polygon class="cls-3" points="483.62 108.82 418.3 108.82 386.32 76.84 324.17 76.84 324.17 76.17 386.6 76.17 418.57 108.15 482.95 108.15 482.95 31.64 483.62 31.64 483.62 108.82"/><polygon class="cls-4" points="31.09 25.22 97.39 25.22 101.19 21.43 34.89 21.43 31.09 25.22"/><path class="cls-5" d="M19,122.9H30s4.72,4.16,4.16,4.16-10.78.31-11.09,0Z"/><path class="cls-6" d="M65.56,135.54h11s4.73,4.16,4.16,4.16-10.78.31-11.09,0Z"/><polygon class="cls-7" points="289.94 46.54 161.76 46.54 156.32 41.1 156.32 32.56 161.78 27.11 162.25 27.58 156.99 32.84 156.99 40.82 162.04 45.87 289.67 45.87 295.54 40 296.01 40.47 289.94 46.54"/><polygon class="cls-8" points="173.34 20.01 159.76 33.59 159.76 39.01 164.35 43.6 188.13 19.82 173.34 20.01"/><path class="cls-9" d="M171,43.6,194.61,20H212c-.11,0-23.52,23.52-23.52,23.52Z"/><path class="cls-10" d="M194.24,43.6,217.82,20h17.41c-.11,0-23.53,23.52-23.53,23.52Z"/><path class="cls-11" d="M217.45,43.6,241,20h17.4c-.11,0-23.52,23.52-23.52,23.52Z"/><path class="cls-12" d="M240.67,43.6,264.25,20H281c-.11,0-22.86,23.52-22.86,23.52Z"/><path class="cls-13" d="M283.74,23.74,263.88,43.6l17.47-.06s5.07-5.1,10.83-10.87Z"/><polyline class="cls-14" points="183.55 144.01 267.04 144.01 270.48 147.46"/><polyline class="cls-15" points="348.57 79.13 385.45 79.13 389.39 83.07"/><polyline class="cls-16" points="475.42 104.17 479.73 104.17 479.73 55.07"/><circle class="cls-17" cx="483.28" cy="11.34" r="4.1"/><path class="cls-17" d="M483.28,22.68a11.34,11.34,0,1,1,11.35-11.34A11.35,11.35,0,0,1,483.28,22.68Zm0-22A10.67,10.67,0,1,0,494,11.34,10.69,10.69,0,0,0,483.28.67Z"/><polygon class="cls-18" points="172.9 49.6 160.66 49.6 153.66 42.59 153.66 36.98 154.32 36.98 154.32 42.31 160.94 48.93 172.9 48.93 172.9 49.6"/><polygon class="cls-19" points="291.13 49.18 281.37 49.18 281.37 48.51 290.85 48.51 295.88 43.48 296.36 43.95 291.13 49.18"/><g class="cls-20"><polygon class="cls-21" points="14.1 48.88 34.49 28.48 99.45 28.48 103.81 24.13 159.94 24.13 153.18 30.89 151.58 30.89 151.58 44.13 159.42 51.96 179.06 51.96 181.85 49.17 277.81 49.17 281.54 52.9 292.87 52.9 296.49 49.28 298.35 49.28 298.35 59.18 311.58 72.41 305.58 78.42 60.51 78.42 55.25 73.16 14.1 73.16 14.1 48.88"/></g><polygon class="cls-22" points="13.91 63.64 11.77 65.78 11.77 75.99 57.82 75.99 60.28 78.46 72.46 78.46 70.17 76.17 61.38 76.17 56.07 70.85 43.48 70.85 41.53 68.91 19.54 68.91 17.49 66.86 15.63 66.86 15.63 64.59 13.91 63.64"/><polygon class="cls-23" points="11.99 79.84 58.42 79.84 60.84 82.25 80.94 82.25 84.74 78.46 114.95 78.46 112.6 80.81 112.6 84.03 109.63 87 50.77 87 48.29 84.52 16.23 84.52 11.99 79.84"/><g class="cls-20"><polygon class="cls-24" points="0 84.81 6.48 84.81 10.16 81.13 15.54 86.52 46.15 86.52 49 89.37 111.2 89.37 115.86 84.7 115.86 82.18 117.03 81.02 305.62 81.02 308.23 83.63 342.85 83.63 345.94 80.54 349.77 80.54 392.46 86.71 414.92 109.18 414.92 120.63 390.92 144.62 332.13 144.62 332.13 124.23 319.95 124.23 319.95 136.03 311.09 144.88 278.03 144.88 267.71 134.56 82.45 134.56 78.84 130.96 66.14 130.96 57.87 122.69 34.2 122.69 30.83 119.33 19.49 119.33 13.52 113.35 6.72 113.35 0.03 106.66 0 84.81"/></g><polygon class="cls-25" points="324.5 124.23 326.9 121.83 334.52 121.83 334.52 142.31 353.57 142.31 353.94 142.68 368.68 142.68 370.53 144.53 369.38 145.68 349.09 145.68 347.77 147 336.61 147 335.27 145.66 331.01 145.66 331.01 133.4 332.06 132.35 332.06 126.96 330.12 125.03 325.55 125.03 324.5 124.23"/><polygon class="cls-26" points="111.2 89.37 115.86 84.7 115.86 82.18 117.03 81.02 157.54 81.02 156.58 81.98 138.39 81.98 136.5 83.86 120.74 83.86 118.15 86.45 118.15 88.31 114.2 92.26 108.02 92.26 107.01 91.25 107.01 89.55 111.2 89.37"/><polygon class="cls-27" points="487.14 112.33 457.95 112.33 457.95 111.75 486.55 111.75 486.55 97.23 487.14 97.23 487.14 112.33"/><polygon class="cls-28" points="486.85 108.04 488.15 109.34 488.15 113.79 478.26 113.79 476.37 111.9 486.72 111.9 486.85 108.04"/><path class="cls-29" d="M86.47,100v3.59h7.45l-2.09,2.82H86.47v3.81H83.71V100Zm7.45,0h2.76V110.2H93.92V100Z"/><path class="cls-30" d="M108.32,106.39h-8.13v1h10.2v2.81h-10.2l-2.76-2.81V100l2.76,2.81v.78h10.22Zm3.24-6.41-2.77,2.81h-8.6V100Z"/><path class="cls-31" d="M115.45,106.39v3.81h-3.14v-6.62h11.36v-.79h-8.6L112.31,100h14.12v6.41h-4.77l6,3.78H123l-6.32-3.78Z"/><path class="cls-32" d="M138.24,106.39h-8.13v1h10.2v2.81h-10.2l-2.76-2.81V100l2.76,2.81v.78h10.22Zm3.25-6.41-2.78,2.81h-8.6V100Z"/><path class="cls-33" d="M160.12,100v3.6l-2.77,2.48h-8.6L146,103.58V100h2.76v3.6h8.6V100ZM146,107.39h11.36v-1.33h2.77v1.33l-2.77,2.81H146Z"/><path class="cls-34" d="M172.25,110.2h-8.62l-2.76-2.81V100h11.38l2.74,2.81,0,7.41-2.76-2.81v-4.6h-8.62v4.6h8.62Z"/><path class="cls-35" d="M178.52,100v7.41h8.61v2.81h-8.61l-2.76-2.81V100Zm8.61,0h2.76V110.2l-2.76-2.81Z"/><path class="cls-36" d="M207.14,110.2h-10l-2.76-2.81V100h11.37l1.38,2.81h-10v4.6h10Z"/><path class="cls-37" d="M207.9,100H222V110.2h-2.78v-2.49H211v2.49H207.9v-5.78l3.14-1.63v4.35l1.66-2.24h6.56v-2.11H211Z"/><path class="cls-38" d="M222.79,110.2V100l2.76,2.81v7.41ZM234.16,100l2.76,2.81v7.41h-2.76v-7.41h-8.61V100Z"/><path class="cls-39" d="M241.42,100h11.36v2.81h-8.6Zm0,10.22v-6.62h3.14v6.62Zm11.36-7.41,2.78-2.81v6.41h-9.8v-2.81h7Z"/><path class="cls-40" d="M259.07,100V110.2h-2.76V100Z"/><path class="cls-41" d="M272.56,110.2h-10l-2.76-2.81V100h11.37l1.38,2.81h-10v4.6h10Z"/><path class="cls-42" d="M273.32,110.2V100h3.14V110.2Zm9.35-3.81,6,3.78H284l-6.32-3.78v-2.81h7V100h2.76v6.41Z"/><path class="cls-43" d="M97.58,118l-2.76,2.8H83.71V118ZM91.44,129.6l-3.19-2.8v-6l3.19,1.9Z"/><path class="cls-44" d="M101.09,118v3.58h7.44l-2.08,2.82h-5.36v3.82H98.33V118Zm7.44,0h2.76v10.22h-2.76V118Z"/><path class="cls-45" d="M122.94,124.39h-8.13v1H125v2.81h-10.2l-2.76-2.81V118l2.76,2.8v.78H125Zm3.24-6.4-2.78,2.8h-8.59V118Z"/><path class="cls-46" d="M133.44,120.79v.8h11.38v6.62H130.68l2.76-2.81H142v-1H130.68V118Zm11.38-2.8-2.78,2.8h-8.6V118Z"/><path class="cls-47" d="M148.33,118v10.22h-2.76V118Z"/><path class="cls-48" d="M163.29,118v2.8l-13.45,7.42h-.76V125.4l13-7.41Zm-2.93,0-4.89,2.8h-6.39l2.52-2.8Zm-3.64,7.41h7l-2.49,2.81h-9.38Z"/><path class="cls-49" d="M175.32,124.39h-8.13v1h10.2v2.81h-10.2l-2.76-2.81V118l2.76,2.8v.78h10.22Zm3.24-6.4-2.77,2.8h-8.6V118Z"/><path class="cls-50" d="M196.93,118l-2.76,2.8h-11.1V118Zm-6.14,11.61-3.19-2.8v-6l3.19,1.9Z"/><path class="cls-51" d="M209.06,128.21h-8.62l-2.76-2.81V118h11.38l2.74,2.8,0,7.42-2.76-2.81v-4.61h-8.62v4.61h8.62Z"/><path class="cls-52" d="M219.08,120.79v.8h11.37v6.62H216.32l2.76-2.81h8.6v-1H216.32V118Zm11.37-2.8-2.77,2.8h-8.6V118Z"/><path class="cls-53" d="M242.58,128.21H234l-2.76-2.81V118h11.38l2.74,2.8,0,7.42-2.76-2.81v-4.61H234v4.61h8.62Z"/><path class="cls-54" d="M249.23,124.39v3.82h-3.14v-6.62h11.36v-.8h-8.6l-2.76-2.8h14.12v6.4h-4.77l6,3.79h-4.69l-6.31-3.79Z"/><path class="cls-55" d="M275,118l-2.76,2.8h-11.1V118Zm-6.14,11.61-3.19-2.8v-6l3.19,1.9Z"/><path class="cls-56" d="M293.63,118v3.6l-1.82,1.83,1.82,1v3.82h-9.8V125.4h7v-1h-8.22v3.82h-3.14v-6.62h11.36v-.8h-8.6l-2.76-2.8Z"/><path class="cls-57" d="M308.51,118v3.6l-2.77,2.48h-8.6l-2.76-2.48V118h2.76v3.6h8.6V118Zm-14.13,7.41h11.36v-1.33h2.77v1.33l-2.77,2.81H294.38Z"/><path class="cls-17" d="M105,67.14c-.34,0-2,0-4.91,0a.47.47,0,0,0-.25,0,1.66,1.66,0,0,0-.19.32,35.19,35.19,0,0,0-1.88,4.09,2.5,2.5,0,0,1-.56.9,1.26,1.26,0,0,1-.89.5H93.69a.56.56,0,0,1-.57-.39,1.31,1.31,0,0,1,0-.95c.26-.69.59-1.5,1-2.41s1.09-2.2,2-3.75a1.33,1.33,0,0,0,.21-.56c0-.1-.09-.18-.26-.25s-.33-.14-.87-.34h-.06c-.14-.06-.21-.13-.19-.21s.14-.15.36-.21l1-.25a3.69,3.69,0,0,0,1-.42c.07-.08.11-.13.11-.16s0,0-.08-.07H95.06c-.15,0-.23,0-.25-.08s.2-.18.62-.36a7.52,7.52,0,0,1,1.37-.45l.5-.14c.09,0,.15-.09.16-.14s0-.11-.13-.14a.69.69,0,0,0-.18-.09l-.34-.12-.27-.1a2.46,2.46,0,0,1-.36-.17c-.15-.11-.16-.29,0-.53l.56-.94a5.61,5.61,0,0,0,.42-.74,3.74,3.74,0,0,0,.34-.62c.13-.22.13-.38,0-.47l-1.12-.51c-.08,0-.1-.06-.08-.12s.07-.12.16-.16L97,57a22.18,22.18,0,0,0,2.58-.7c.09,0,.14-.06.14-.12a.1.1,0,0,0-.08,0H97a.44.44,0,0,1-.42-.23,1.21,1.21,0,0,1,.14-1.17,2,2,0,0,1,1.63-1.23h7.84a5.8,5.8,0,0,1,2,.28,2.58,2.58,0,0,1,1.54,1.31,2,2,0,0,0,.56.81,1.17,1.17,0,0,0,.72.23h2.61c.05,0,.08,0,.08,0s-.05.12-.17.17a7.8,7.8,0,0,1-1.31.45l-.6.15-.61.16c-.18.05-.28.12-.3.19a.32.32,0,0,0,.19.17l.51.17a3.3,3.3,0,0,1,.5.2c.22.09.35.19.37.3a1.72,1.72,0,0,1-.2.68q-.09.2-.87,1.62l-.1.18a1.72,1.72,0,0,1-.12.21c-.08.19-.07.32,0,.39a1,1,0,0,0,.34.17l.87.37c.13.07.14.14,0,.19a1.45,1.45,0,0,1-.39.11l-.37.1-.39.09-.39.09a4.54,4.54,0,0,0-.68.23,2.12,2.12,0,0,0-.42.22c-.13.09-.18.16-.16.2s.07,0,.16,0h2.16c.19,0,.28,0,.28.09s-.1.13-.31.22-.58.19-1.12.34l-.64.18-.58.15-.23.06c-.12.06-.13.12-.06.2l.23.14.23.09.3.13c.24.15.19.37-.14.67a7.18,7.18,0,0,1-1.88,1.18A8.15,8.15,0,0,1,105,67.14ZM106.12,59H102a.78.78,0,0,0-.28,0,.68.68,0,0,0-.14.2l-.08.14c-.19.31-.43.73-.73,1.23a1.17,1.17,0,0,0-.2.48c0,.09.08.17.23.25a3.05,3.05,0,0,0,1.26.36h4.37c.09,0,.14,0,.15,0s0-.06-.07-.1,0,0-.08-.07-.1-.06-.11-.1-.2-.15-.2-.22a.91.91,0,0,1,.2-.42c.22-.37.38-.64.47-.81.22-.47.17-.76-.17-.87A1.7,1.7,0,0,0,106.12,59Z"/><path class="cls-17" d="M119.31,56.14h2.83l.07,0a0,0,0,0,1,0,0s0,0-.09.06-.47.16-1,.31l-1.49.36-.69.2a.2.2,0,0,0-.14.14c0,.05,0,.09.08.11l.25.11a.94.94,0,0,1,.2.08c.39.15.61.25.67.28s.21.3,0,.62-.57,1-1.15,2a1.1,1.1,0,0,0-.24.54q0,.15.3.3l.46.15.43.15c.19.08.28.14.28.2s-.15.14-.39.2c-.54.14-.9.25-1.07.3a3.89,3.89,0,0,0-1,.45c-.15.11-.22.19-.2.23s.06,0,.17,0h2.1l.24,0s.07,0,.07.07-.05.07-.14.11-.31.14-.48.2-.41.12-.73.19a6.06,6.06,0,0,0-.61.17,1.58,1.58,0,0,0-.37.11c-.11.06-.12.12,0,.2a.73.73,0,0,0,.19.11l.19.06a1.28,1.28,0,0,1,.21.07l.19.07a1.49,1.49,0,0,1,.37.16c.14.08.22.16.23.24a.93.93,0,0,1-.18.46c-.73,1.4-1.16,2.23-1.29,2.5A32.09,32.09,0,0,0,116,71.57a3.83,3.83,0,0,1-.3.67,1.34,1.34,0,0,1-1.1.78c-1,0-1.85,0-2.55,0a.65.65,0,0,1-.62-.46,1.69,1.69,0,0,1,0-1.08,28.54,28.54,0,0,1,1.56-3.83c.08-.12.47-.87,1.18-2.27l.09-.11a.39.39,0,0,0,0-.14q.16-.34,0-.45a1.67,1.67,0,0,0-.39-.23,2.46,2.46,0,0,0-.34-.12l-.3-.1a.87.87,0,0,1-.23-.08c-.11-.08-.09-.15.06-.23a3,3,0,0,1,.36-.14,12,12,0,0,0,1.82-.59c.08,0,.12,0,.12-.08s0-.06-.06-.06H113c-.17,0-.25,0-.25,0a1.89,1.89,0,0,1,.36-.28,7.15,7.15,0,0,1,1.57-.56l.64-.17c.11,0,.18-.08.2-.14a.13.13,0,0,0,0-.07.26.26,0,0,0-.14-.07l-.93-.34a.71.71,0,0,1-.28-.16c-.11-.1-.12-.24,0-.42s.07-.14.17-.31c.7-1.23,1.08-1.88,1.12-1.93a1,1,0,0,0,.18-.47c0-.08-.08-.16-.21-.23a3,3,0,0,0-.48-.2l-.42-.17c-.19-.07-.27-.14-.27-.21s.14-.13.38-.21a7.42,7.42,0,0,0,.76-.17c.37-.09.66-.16.87-.19.43-.11.85-.24,1.26-.37.11,0,.16-.08.16-.14s0,0-.11,0-.42,0-.64,0h-2.16a.36.36,0,0,1-.35-.21.84.84,0,0,1,0-.55,3.33,3.33,0,0,1,.85-1.38,1.48,1.48,0,0,1,1-.52H119a.53.53,0,0,1,.21.11.75.75,0,0,1,.15.2.66.66,0,0,1,.07.26.91.91,0,0,1,0,.32,3.77,3.77,0,0,1-.23.68,1.27,1.27,0,0,0-.16.75C119,56,119.08,56.16,119.31,56.14Z"/><path class="cls-17" d="M126.14,56.14H124c-.19,0-.28-.06-.28-.17s.06-.27.25-.42a5.48,5.48,0,0,1,.59-.45,13.57,13.57,0,0,1,3.83-1.68,9.68,9.68,0,0,1,5.07,0A4.53,4.53,0,0,1,136,55.27a.65.65,0,0,0,.09.15l.1.16.09.14a.35.35,0,0,0,.09.11l.1.08a.38.38,0,0,0,.13.09l.15,0a1.73,1.73,0,0,0,.62.09h1.48l.69,0h.32c.17,0,.25,0,.25.08s-.11.16-.33.26a8.09,8.09,0,0,1-1.66.53l-.21,0-.39.08-.29.07c-.23.06-.35.12-.37.2s0,.11.14.17l.09,0,.15.08.17.06.15,0a2.63,2.63,0,0,1,.37.17c.15.07.22.15.22.22s-.1.18-.31.31-.29.18-.42.25c-1.38.64-2.4,1.1-3.08,1.4a1.59,1.59,0,0,1-.56.14c-.22,0-.37,0-.44-.19a1.9,1.9,0,0,0-1.43-1,7.21,7.21,0,0,0-3.53.22,6.3,6.3,0,0,0-2.16,1.24,3.37,3.37,0,0,0-.39.33c-.22.21-.34.36-.35.46s.08.2.27.3a2,2,0,0,1,.3.11l.29.11a2.93,2.93,0,0,1,.39.17c.09.06.07.11-.06.17l-.45.14-1.23.36a4.59,4.59,0,0,0-.64.28c-.1,0-.14.07-.14.09s0,0,.11,0h.31c1,0,1.69,0,1.93,0,.07,0,.11,0,.11,0s0,.06-.14.08a8,8,0,0,1-.78.28l-.81.26c-.17.07-.27.14-.29.19s0,.1.17.17l1,.45c.21.11.26.32.17.64a2.7,2.7,0,0,0-.08.39,1.47,1.47,0,0,0,.28,1.24,1.82,1.82,0,0,0,1,.56,7.56,7.56,0,0,0,3.91-.2,7.75,7.75,0,0,0,1.35-.62,2,2,0,0,1,.64-.28.52.52,0,0,1,.56.14c.56.53,1.06,1,1.49,1.38.26.22.31.58.14,1.09a3.1,3.1,0,0,1-.9,1.29,14.06,14.06,0,0,1-4.31,2.63,10.57,10.57,0,0,1-4,.59,7.08,7.08,0,0,1-3.16-.76,4.71,4.71,0,0,1-1.8-1.54,5,5,0,0,1-.64-3.7,9.86,9.86,0,0,1,.67-2.15,1,1,0,0,0,.12-.46.41.41,0,0,0-.23-.24,2,2,0,0,0-.56-.28l-.42-.2a.12.12,0,0,1,0-.14c0-.05,0-.1.12-.14l.47-.19.87-.28a.34.34,0,0,0,.14-.05l.15,0,.13,0s.06,0,.06-.06v0s0,0,0,0h-2.3s-.06,0-.06,0a.17.17,0,0,1,.06-.12,4.53,4.53,0,0,1,.48-.19c.15-.06.4-.13.75-.23l.33-.08a2,2,0,0,1,.34-.08l.26-.09c.09,0,.14-.08.14-.14s0-.09,0-.11l-.7-.28a1.72,1.72,0,0,1-.31-.17c-.15-.07-.22-.16-.22-.25a.83.83,0,0,1,.22-.42,26.93,26.93,0,0,1,1.79-2.16,3.08,3.08,0,0,0,.31-.3q.25-.28,0-.45a.34.34,0,0,0-.2-.14l-.39-.14s0,0,0,0-.24-.16-.21-.25.15-.16.37-.2q.87-.16,2.07-.45c1-.24,1.61-.39,1.74-.44s.11-.08.11-.12,0,0-.08,0Z"/><path class="cls-17" d="M152.94,53.48h1.57a.53.53,0,0,1,.49.35,1.19,1.19,0,0,1-.05.82,3.18,3.18,0,0,1-.25.54l-.12.26-.16.27a1,1,0,0,0-.12.36s.08.06.23.06h2.63c.14,0,.2,0,.2,0s-.05.08-.17.12-.64.16-1.2.28l-2.16.44-.58.17a.12.12,0,0,0-.12.06.17.17,0,0,0,0,.14.09.09,0,0,0,.06.08.77.77,0,0,0,.24.11l.21.09c.17.09.25.19.25.31s-.14.25-.36.42-.62.45-.94.7l-1.09.81-.94.7a1.66,1.66,0,0,0-.37.31c-.18.14-.2.28-.05.39l.36.19a3.39,3.39,0,0,0,.39.2.15.15,0,0,1,.06.11.27.27,0,0,1-.14.11l-.28.09-.53.14-.65.17a4.15,4.15,0,0,0-.42.16.53.53,0,0,0-.22.2.81.81,0,0,0-.14.28c0,.06,0,.08,0,.08h.73c1.15,0,1.77,0,1.84,0a.05.05,0,0,1,.06.06.17.17,0,0,1-.06.11,3,3,0,0,1-.75.31l-1,.33c-.08,0-.11.08-.11.12s0,.07.08.11a.94.94,0,0,0,.2.08l.38.11.4.12.56.19a.65.65,0,0,1,.34.67c0,.51,0,1.11,0,1.82a22.93,22.93,0,0,0,.36,3.56A2.12,2.12,0,0,1,151.4,72c-.34.68-.77,1-1.29,1q-1,0-2.94,0c-.39,0-.64-.23-.76-.7a22.31,22.31,0,0,1-.64-4.42c0-.25,0-.61,0-1.09s0-.76,0-.82,0-.14,0-.15-.06,0-.14.07c-1.12.9-2,1.59-2.54,2.07a1,1,0,0,0-.26.37,26.63,26.63,0,0,0-1.28,3.22,3.14,3.14,0,0,1-.31.67,1.33,1.33,0,0,1-1.09.78q-1.47,0-2.52,0a.64.64,0,0,1-.65-.42,1.63,1.63,0,0,1,0-1,27,27,0,0,1,1.63-3.95c0-.11.42-.81,1.09-2.1a1.19,1.19,0,0,1,.1-.17,1.59,1.59,0,0,0,.09-.2c.13-.26.12-.43,0-.5a2.08,2.08,0,0,0-.42-.2l-.34-.12a1,1,0,0,0-.25-.07.63.63,0,0,1-.25-.14c-.12-.08-.11-.14,0-.2a.67.67,0,0,1,.2-.07l.43-.1a3.48,3.48,0,0,0,.46-.11,6.16,6.16,0,0,0,1-.39c.06,0,.09-.08.09-.11a.12.12,0,0,0-.12-.06h-1.61l-.6,0c-.15,0-.19,0-.11-.14l.14-.11a2.18,2.18,0,0,1,.7-.33c.39-.14.71-.24.95-.31l.65-.17.11-.06a.11.11,0,0,0,0-.14.2.2,0,0,0-.08-.08l-.17-.06-.17,0-.18-.07-.15-.07a3.81,3.81,0,0,1-.48-.2c-.13,0-.19-.12-.19-.21a1,1,0,0,1,.13-.4c.15-.23.36-.56.62-1s.45-.79.56-1a1.09,1.09,0,0,0,.24-.55c0-.1-.11-.2-.29-.29l-.51-.15-.47-.16a.23.23,0,0,1-.12-.08.13.13,0,0,1,0-.2.34.34,0,0,1,.17-.08c.13,0,.32-.09.57-.14l.52-.11c1.33-.34,2-.53,2.07-.56a.09.09,0,0,0,0-.09.09.09,0,0,0-.06-.07h-2.78a.37.37,0,0,1-.36-.21.75.75,0,0,1,0-.55,2.68,2.68,0,0,1,.56-1.1,2.28,2.28,0,0,1,.9-.72,1.32,1.32,0,0,1,.44-.08h2.58a.49.49,0,0,1,.39.32,1,1,0,0,1,0,.63,4.11,4.11,0,0,1-.22.59,2.28,2.28,0,0,0-.2.73.34.34,0,0,0,.42.39h2.58a.07.07,0,0,1,.08.08.11.11,0,0,1-.06.11l-.08.06-2,.53-.93.28c-.13.06-.13.12,0,.2a7.67,7.67,0,0,0,.73.28,2.54,2.54,0,0,1,.34.14c.14.09.22.18.23.28a1,1,0,0,1-.18.47l-1.06,1.82a.57.57,0,0,1-.07.13,1.26,1.26,0,0,0-.1.15c-.08.15-.11.23-.1.24s.08,0,.21-.12l3.14-2.38.22-.17q.31-.26.06-.42a1,1,0,0,0-.27-.18l-.26-.13-.12-.08c-.07-.08-.07-.14,0-.2a.34.34,0,0,1,.2-.08l.9-.19.89-.18c.45-.09,1.1-.25,2-.47.17,0,.26-.08.28-.12s-.05,0-.25,0h-1.88a2.85,2.85,0,0,1-.67,0,.29.29,0,0,1-.17,0,.15.15,0,0,1-.05-.17,1,1,0,0,1,.19-.36,1.86,1.86,0,0,1,.4-.39q.61-.54,1.62-1.35a1.47,1.47,0,0,1,.92-.36Z"/><path class="cls-17" d="M168.84,56.14h-2.66c-.11,0-.18,0-.2-.09a.57.57,0,0,1,.06-.28,1.18,1.18,0,0,1,.45-.58l.64-.51a9.39,9.39,0,0,1,3.45-1.43,9.76,9.76,0,0,1,5,.28,3.67,3.67,0,0,1,2,1.63,2.25,2.25,0,0,0,.53.75.64.64,0,0,0,.5.23h2.61c.09,0,.14,0,.14,0s-.05.08-.14.12c-.24.09-.7.22-1.37.39-.17,0-.38.09-.63.15l-.68.17-.32.07c-.13,0-.19.08-.19.14s0,.11.11.17l.33.15a2.6,2.6,0,0,1,.34.18.19.19,0,0,1,.08.2s-.07.08-.16.14a2.86,2.86,0,0,1-.42.22l-2.16,1a2.89,2.89,0,0,1-.62.14.38.38,0,0,1-.39-.25,1.28,1.28,0,0,0-.73-.67,5.05,5.05,0,0,0-3-.09,5,5,0,0,0-.5.26.91.91,0,0,0-.34.25c-.3.37-.32.65-.08.84l1,.39a28.3,28.3,0,0,0,2.94,1c.47.13,1.34.34,2.6.62l.62.16c.11,0,.16.1.14.17s-.12.13-.31.23a5.78,5.78,0,0,0-.75.33c-.19.13-.27.23-.26.31s0,.08.14.08h2.27a.89.89,0,0,1,.34,0s.08,0,.08.07a.17.17,0,0,1-.08.13,2.39,2.39,0,0,1-.53.25,3.47,3.47,0,0,0-.44.13l-.54.18a1.92,1.92,0,0,1-.31.08c-.15.06-.17.13-.06.23l.31.11.57.18c.22.06.37.12.47.15s.37.2.4.31a1.42,1.42,0,0,1-.18.7A16.92,16.92,0,0,1,176,70.19a9.21,9.21,0,0,1-4,2.78,8.16,8.16,0,0,1-2.21.47,10,10,0,0,1-4.37-.56,4.06,4.06,0,0,1-1.54-.95,4.11,4.11,0,0,1-.87-1.51,1.74,1.74,0,0,1,.51-1.79,2.45,2.45,0,0,1,.67-.56c.78-.4,1.74-.85,2.88-1.38a1,1,0,0,1,.53-.11.36.36,0,0,1,.42.34,1.57,1.57,0,0,0,1.18,1.15,5.88,5.88,0,0,0,2.55.14,2.52,2.52,0,0,0,1.29-.62c.5-.5.57-.9.19-1.18a1.34,1.34,0,0,0-.45-.22c-2.27-.78-3.72-1.27-4.34-1.46a7.5,7.5,0,0,0-.92-.26c-.43-.11-1-.23-1.65-.38-.06,0-.08-.06-.06-.11s0-.08.11-.11a3.18,3.18,0,0,1,.51-.2,6.52,6.52,0,0,0,.78-.36.2.2,0,0,0,.06-.14.08.08,0,0,0-.09-.09s-.09,0-.22,0h-2.18c-.15,0-.23,0-.23-.08s.2-.19.59-.39c.07,0,.4-.14,1-.37a1.55,1.55,0,0,0,.31-.16.1.1,0,0,0,0-.12,1,1,0,0,0-.23-.08,9.9,9.9,0,0,1-.95-.34,1,1,0,0,1-.34-.16c-.16-.12-.19-.3-.08-.56a11.19,11.19,0,0,1,.59-1.15c.05-.11.3-.51.73-1.18a1,1,0,0,0,.19-.45c0-.09-.06-.16-.19-.22a2.21,2.21,0,0,0-.4-.18l-.36-.16c-.13-.07-.21-.14-.22-.19s.12-.17.36-.23.36-.07.74-.15.68-.15.88-.21l1.6-.39c.07,0,.11-.07.11-.1S168.91,56.14,168.84,56.14Z"/><path class="cls-17" d="M186.59,56.14h2.83l.07,0s0,0,0,0,0,0-.1.06-.47.16-1,.31l-1.48.36-.7.2a.22.22,0,0,0-.14.14c0,.05,0,.09.08.11l.25.11a.74.74,0,0,1,.2.08c.39.15.62.25.67.28.21.1.22.3,0,.62s-.57,1-1.15,2a1.21,1.21,0,0,0-.24.54q0,.15.3.3l.46.15.43.15c.19.08.28.14.28.2s-.14.14-.39.2c-.54.14-.89.25-1.06.3a4,4,0,0,0-1,.45c-.15.11-.21.19-.19.23s.05,0,.16,0H187a1.1,1.1,0,0,1,.24,0c.05,0,.07,0,.07.07s0,.07-.14.11l-.47.2c-.17,0-.41.12-.73.19s-.52.13-.62.17a1.37,1.37,0,0,0-.36.11c-.11.06-.12.12,0,.2a.84.84,0,0,0,.2.11l.18.06a1.28,1.28,0,0,1,.21.07l.19.07a1.49,1.49,0,0,1,.37.16q.22.12.24.24a.88.88,0,0,1-.19.46c-.72,1.4-1.15,2.23-1.28,2.5a30.46,30.46,0,0,0-1.54,3.78,4.71,4.71,0,0,1-.31.67,1.33,1.33,0,0,1-1.09.78q-1.51,0-2.55,0a.65.65,0,0,1-.63-.46,1.76,1.76,0,0,1,0-1.08,27.35,27.35,0,0,1,1.57-3.83c.07-.12.46-.87,1.17-2.27l.09-.11a.26.26,0,0,0,0-.14c.12-.23.11-.38,0-.45a2,2,0,0,0-.4-.23,2.23,2.23,0,0,0-.33-.12l-.31-.1a.79.79,0,0,1-.22-.08c-.12-.08-.1-.15.05-.23l.37-.14a12.88,12.88,0,0,0,1.82-.59c.07,0,.11,0,.11-.08s0-.06-.06-.06h-2.35c-.17,0-.25,0-.25,0a1.89,1.89,0,0,1,.36-.28,7.35,7.35,0,0,1,1.57-.56l.64-.17c.12,0,.18-.08.2-.14a.13.13,0,0,0,0-.07s-.06-.05-.14-.07l-.92-.34a.64.64,0,0,1-.28-.16q-.16-.15,0-.42l.17-.31c.71-1.23,1.08-1.88,1.12-1.93a1,1,0,0,0,.18-.47c0-.08-.08-.16-.21-.23a3,3,0,0,0-.48-.2l-.42-.17c-.18-.07-.27-.14-.26-.21s.13-.13.38-.21a7.43,7.43,0,0,0,.75-.17c.38-.09.66-.16.87-.19.43-.11.85-.24,1.26-.37.11,0,.17-.08.17-.14s0,0-.11,0-.42,0-.65,0h-2.15a.35.35,0,0,1-.35-.21.83.83,0,0,1,0-.55,3.25,3.25,0,0,1,.86-1.38,1.45,1.45,0,0,1,1-.52h2.63a.53.53,0,0,1,.21.11.59.59,0,0,1,.15.2.66.66,0,0,1,.07.26.72.72,0,0,1,0,.32,3.51,3.51,0,0,1-.22.68,1.3,1.3,0,0,0-.17.75C186.25,56,186.37,56.16,186.59,56.14Z"/><path class="cls-17" d="M207,56.17a.09.09,0,0,1-.06.08,18.71,18.71,0,0,1-2.24.56,7,7,0,0,1-.71.15l-.74.16c-.21,0-.33.08-.35.14s0,.12.18.19l.05,0,.23.1.32.14.18.1c.1.11.08.23-.05.36a2.63,2.63,0,0,1-.37.34l-1.27,1.09c-.57.48-1,.84-1.28,1.06l-.36.34c-.13.13-.15.24-.06.34a1.43,1.43,0,0,0,.31.19.46.46,0,0,0,.2.11,1.08,1.08,0,0,1,.22.12c.08,0,.11.08.1.14s-.08.1-.21.14a4.54,4.54,0,0,1-.62.19c-.56.13-1,.24-1.28.34a7.52,7.52,0,0,0-.76.25c-.17.07-.25.13-.25.17s.05,0,.22,0h2.05c.16,0,.26,0,.28.06a.68.68,0,0,1-.34.17c-.15,0-.51.14-1.08.31s-.88.25-.94.25a4.53,4.53,0,0,0-.47.17c-.11.07-.13.14-.06.19a.9.9,0,0,0,.25.2s.05.06.14.12l.23.16q.17.16-.09.42a2.44,2.44,0,0,1-.33.33l-.66.58-.76.67c-.21.2-.36.33-.46.41s-.19.21-.18.25.08,0,.21,0h4.79a.54.54,0,0,1,.6.33,1.5,1.5,0,0,1-.1,1c-.05.11-.14.3-.25.57s-.2.47-.25.6-.18.5-.31.87-.23.65-.31.84a4.06,4.06,0,0,1-.28.62,1.4,1.4,0,0,1-1.15.78H186.79a1.45,1.45,0,0,1-.39,0,.79.79,0,0,1-.52-.84,1.92,1.92,0,0,1,.49-1.29,2.49,2.49,0,0,1,.39-.42c1.38-1.41,3.15-3.07,5.29-5l.45-.42c.17-.17.2-.31.08-.42a1.54,1.54,0,0,0-.25-.2l-.22-.14c-.13-.09-.2-.17-.2-.22s.11-.14.34-.2a3.35,3.35,0,0,1,.63-.18c.34-.08.61-.15.8-.21a8.17,8.17,0,0,0,1-.34c.06,0,.09-.07.09-.09s0-.05-.07-.05h-2.29c-.07,0-.11,0-.11,0s.1-.08.28-.17a3.13,3.13,0,0,1,.7-.28l1.29-.31.56-.17c.15,0,.23-.08.25-.14s0-.14-.14-.19l-.17-.1-.22-.1a1.13,1.13,0,0,1-.25-.17c-.11-.11-.09-.24.05-.39l.34-.31,1.51-1.26a2.92,2.92,0,0,0,.23-.19c.07-.08.05-.11-.06-.11h-5.15c-.34-.06-.48-.29-.42-.7s0-.52-.25-.59a3.82,3.82,0,0,0-.42-.17l-.48-.17c-.22-.09-.34-.18-.34-.25s.16-.12.48-.2l1.68-.42a6,6,0,0,0,1.12-.33c.09,0,.14-.07.14-.1s-.05,0-.14,0l-.14,0h-.2q-1.79,0-2.07,0c-.28,0-.46-.21-.56-.62a1,1,0,0,1,.06-.45,2.71,2.71,0,0,1,.75-1.12,1.62,1.62,0,0,1,1-.47c.13,0,.93,0,2.41,0h9.63a.91.91,0,0,1,.31,0,.49.49,0,0,1,.43.33,1,1,0,0,1,0,.73s-.07.2-.2.53a2.05,2.05,0,0,1-.17.4,1.06,1.06,0,0,0,0,.53c0,.07.15.11.36.11h1.13a9.45,9.45,0,0,1,1,0l.25,0A.05.05,0,0,1,207,56.17Z"/><path class="cls-17" d="M223.05,56.19c0,.06-.08.12-.23.17s-.36.14-.7.25-.81.23-1.48.4a8.31,8.31,0,0,0-1,.25c-.11,0-.17.08-.17.14s0,.07.09.11l.28.11.17.06.18.07.15.07a2.26,2.26,0,0,1,.37.14c.28.13.29.31.05.53a1.72,1.72,0,0,1-1.15.39h-7.36a.42.42,0,0,0-.36.25c-.1.15-.22.36-.38.63s-.27.47-.32.58-.08.15-.07.18,0,0,.09,0h7.4A.42.42,0,0,1,219,61a.57.57,0,0,0,.4.54c.41.15.71.26.89.34l.06,0c.17.05.25.12.25.19s-.14.12-.42.2l-.56.17-.76.22a4.69,4.69,0,0,0-.56.22c-.07,0-.11.07-.11.1s0,0,.06,0h2.27c.07,0,.11,0,.11.06s0,.06-.14.08l-.65.23c-.28.09-.48.16-.61.19l-.42.17c-.11,0-.17.09-.17.14s0,.11.11.17l.34.17.56.28c.22.13.2.33-.06.61a1.94,1.94,0,0,1-1.37.73h-7.08c-.15,0-.24,0-.26,0s-.15.07-.22.2c-.19.35-.41.8-.67,1.34-.06.11,0,.17.05.17h7.26A.64.64,0,0,1,218,68a1.46,1.46,0,0,1-.13,1c-.34.82-.51,1.24-.53,1.26-.15.41-.31.87-.48,1.37-.32,1-.84,1.43-1.57,1.43H204.43a.66.66,0,0,1-.7-.43,1.77,1.77,0,0,1,0-1.11,27,27,0,0,1,1.42-3.5l1.32-2.57.06-.07,0-.1a.19.19,0,0,1,0-.09c.17-.31.17-.51,0-.58s-.35-.19-.53-.28l-.45-.23c-.09,0-.14-.08-.14-.14a.67.67,0,0,1,.22-.17l.45-.15.8-.25.46-.16.06,0,0,0s0,0-.09-.05h-2.18c-.1,0-.14,0-.14,0s.06-.07.19-.12a11.78,11.78,0,0,1,1.52-.48c.13-.06.3-.12.53-.2a.24.24,0,0,0,.14-.14s0-.07-.11-.11a1.24,1.24,0,0,0-.23-.11l-.31-.11-.36-.14a.61.61,0,0,1-.28-.17.33.33,0,0,1,0-.39c.08-.11.15-.24.23-.37l.54-1c.25-.43.45-.76.58-1l.16-.28q.15-.27,0-.39a1.87,1.87,0,0,0-.3-.17s-.24-.1-.65-.25a1.9,1.9,0,0,1-.33-.14.11.11,0,0,1-.06-.11s0-.07.11-.08l.73-.23,1.43-.39a5.92,5.92,0,0,0,1.2-.39q.09,0,.09-.06s0-.08-.06-.08h-2.55c-.3,0-.48-.1-.56-.31a.81.81,0,0,1,0-.53,4,4,0,0,1,.64-1.12,1.79,1.79,0,0,1,1.32-.73h10.67a1.11,1.11,0,0,1,.33,0,.51.51,0,0,1,.49.38,1.18,1.18,0,0,1-.07.85,1.12,1.12,0,0,1,0,.13L220,55a.19.19,0,0,0,0,.12.94.94,0,0,0-.1.66.41.41,0,0,0,.35.35,1.32,1.32,0,0,0,.36,0h2.3C223,56.14,223.05,56.16,223.05,56.19Z"/></g></g></svg>