<svg xmlns="http://www.w3.org/2000/svg" viewBox="0 0 494.63 149.01"><defs><style>.cls-1{fill:#17cffc;}.cls-2{fill:#11e5b3;}.cls-3{opacity:0.15;}.cls-4{fill:#00d0ff;}</style></defs><title>divider_subtree</title><g id="Layer_2" data-name="Layer 2"><g id="Layer_1-2" data-name="Layer 1"><polygon class="cls-1" points="312.37 70.14 300.3 58.06 300.3 37.75 280.18 17.63 169.51 17.63 165.38 21.76 35.03 21.76 15.37 41.42 14.9 40.95 34.75 21.09 165.1 21.09 169.24 16.96 280.46 16.96 300.97 37.47 300.97 57.79 312.85 69.67 312.37 70.14"/><polygon class="cls-1" points="314.83 149.01 276.64 149.01 267.68 140.05 69.52 140.05 56.74 127.27 22.92 127.27 14.9 119.25 15.37 118.78 23.2 126.6 57.02 126.6 69.79 139.38 267.96 139.38 276.91 148.34 314.56 148.34 323.83 139.06 323.83 128.16 324.5 128.16 324.5 139.34 314.83 149.01"/><polygon class="cls-1" points="483.62 108.82 418.3 108.82 386.32 76.84 324.17 76.84 324.17 76.17 386.6 76.17 418.57 108.15 482.95 108.15 482.95 31.64 483.62 31.64 483.62 108.82"/><polygon class="cls-1" points="31.09 25.22 97.39 25.22 101.19 21.43 34.89 21.43 31.09 25.22"/><path class="cls-1" d="M19,122.9H30s4.72,4.16,4.16,4.16-10.78.31-11.09,0Z"/><path class="cls-1" d="M65.56,135.54h11s4.73,4.16,4.16,4.16-10.78.31-11.09,0Z"/><polygon class="cls-1" points="289.94 46.54 161.76 46.54 156.32 41.1 156.32 32.56 161.78 27.11 162.25 27.58 156.99 32.84 156.99 40.82 162.04 45.87 289.67 45.87 295.54 40 296.01 40.47 289.94 46.54"/><polygon class="cls-1" points="173.34 20.01 159.76 33.59 159.76 39.01 164.35 43.6 188.13 19.82 173.34 20.01"/><path class="cls-1" d="M171,43.6,194.61,20H212c-.11,0-23.52,23.52-23.52,23.52Z"/><path class="cls-1" d="M194.24,43.6,217.82,20h17.41c-.11,0-23.53,23.52-23.53,23.52Z"/><path class="cls-1" d="M217.45,43.6,241,20h17.4c-.11,0-23.52,23.52-23.52,23.52Z"/><path class="cls-1" d="M240.67,43.6,264.25,20H281c-.11,0-22.86,23.52-22.86,23.52Z"/><path class="cls-1" d="M283.74,23.74,263.88,43.6l17.47-.06s5.07-5.1,10.83-10.87Z"/><polyline class="cls-1" points="183.55 144.01 267.04 144.01 270.48 147.46"/><polyline class="cls-1" points="348.57 79.13 385.45 79.13 389.39 83.07"/><polyline class="cls-1" points="475.42 104.17 479.73 104.17 479.73 55.07"/><circle class="cls-2" cx="483.28" cy="11.34" r="4.1"/><path class="cls-2" d="M483.28,22.68a11.34,11.34,0,1,1,11.35-11.34A11.35,11.35,0,0,1,483.28,22.68Zm0-22A10.67,10.67,0,1,0,494,11.34,10.69,10.69,0,0,0,483.28.67Z"/><polygon class="cls-1" points="172.9 49.6 160.66 49.6 153.66 42.59 153.66 36.98 154.32 36.98 154.32 42.31 160.94 48.93 172.9 48.93 172.9 49.6"/><polygon class="cls-1" points="291.13 49.18 281.37 49.18 281.37 48.51 290.85 48.51 295.88 43.48 296.36 43.95 291.13 49.18"/><g class="cls-3"><polygon class="cls-1" points="14.1 48.88 34.49 28.48 99.45 28.48 103.81 24.13 159.94 24.13 153.18 30.89 151.58 30.89 151.58 44.13 159.42 51.96 179.06 51.96 181.85 49.17 277.81 49.17 281.54 52.9 292.87 52.9 296.49 49.28 298.35 49.28 298.35 59.18 311.58 72.41 305.58 78.42 60.51 78.42 55.25 73.16 14.1 73.16 14.1 48.88"/></g><polygon class="cls-1" points="13.91 63.64 11.77 65.78 11.77 75.99 57.82 75.99 60.28 78.46 72.46 78.46 70.17 76.17 61.38 76.17 56.07 70.85 43.48 70.85 41.53 68.91 19.54 68.91 17.49 66.86 15.63 66.86 15.63 64.59 13.91 63.64"/><polygon class="cls-1" points="11.99 79.84 58.42 79.84 60.84 82.25 80.94 82.25 84.74 78.46 114.95 78.46 112.6 80.81 112.6 84.03 109.63 87 50.77 87 48.29 84.52 16.23 84.52 11.99 79.84"/><g class="cls-3"><polygon class="cls-1" points="0 84.81 6.48 84.81 10.16 81.13 15.54 86.52 46.15 86.52 49 89.37 111.2 89.37 115.86 84.7 115.86 82.18 117.03 81.02 305.62 81.02 308.23 83.63 342.85 83.63 345.94 80.54 349.77 80.54 392.46 86.71 414.92 109.18 414.92 120.63 390.92 144.62 332.13 144.62 332.13 124.23 319.95 124.23 319.95 136.03 311.09 144.88 278.03 144.88 267.71 134.56 82.45 134.56 78.84 130.96 66.14 130.96 57.87 122.69 34.2 122.69 30.83 119.33 19.49 119.33 13.52 113.35 6.72 113.35 0.03 106.66 0 84.81"/></g><polygon class="cls-1" points="324.5 124.23 326.9 121.83 334.52 121.83 334.52 142.31 353.57 142.31 353.94 142.68 368.68 142.68 370.53 144.53 369.38 145.68 349.09 145.68 347.77 147 336.61 147 335.27 145.66 331.01 145.66 331.01 133.4 332.06 132.35 332.06 126.96 330.12 125.03 325.55 125.03 324.5 124.23"/><polygon class="cls-1" points="111.2 89.37 115.86 84.7 115.86 82.18 117.03 81.02 157.54 81.02 156.58 81.98 138.39 81.98 136.5 83.86 120.74 83.86 118.15 86.45 118.15 88.31 114.2 92.26 108.02 92.26 107.01 91.25 107.01 89.55 111.2 89.37"/><polygon class="cls-1" points="487.14 112.33 457.95 112.33 457.95 111.75 486.55 111.75 486.55 97.23 487.14 97.23 487.14 112.33"/><polygon class="cls-1" points="486.85 108.04 488.15 109.34 488.15 113.79 478.26 113.79 476.37 111.9 486.72 111.9 486.85 108.04"/><path class="cls-2" d="M43.27,56.89V58H59.18v9.26H39.4l3.87-3.92h12V61.93H39.4V53ZM59.18,53,55.3,56.89h-12V53Z"/><path class="cls-2" d="M64.1,53V63.34H76.15v3.92H64.1l-3.87-3.92V53Zm12.05,0H80v14.3l-3.87-3.92Z"/><path class="cls-2" d="M100.85,53v5l-2.54,2.56,2.54,1.37v5.33H87.13V63.34H97V61.93H85.45v5.33H81.07V58H97V56.89h-12L81.07,53Z"/><path class="cls-2" d="M119.73,67.26h-14l-3.86-3.92V53h15.91l1.94,3.93h-14v6.45h14Z"/><path class="cls-2" d="M120.8,53h19.78v14.3h-3.89V63.78h-11.5v3.48H120.8V59.18l4.39-2.29V63l2.33-3.13h9.17v-3h-11.5Z"/><path class="cls-2" d="M161,53l-3.86,3.93H141.63V53Zm-8.59,16.26L148,65.29v-8.4l4.47,2.64Z"/><path class="cls-2" d="M177.33,61.93H166v1.41h14.28v3.92H166l-3.87-3.92V53L166,56.89V58h14.3Zm4.54-9L178,56.89H166V53Z"/><path class="cls-2" d="M186.78,56.89v6.45h12.05v3.92H186.78l-3.87-3.92V53h15.92l1.94,3.93ZM202.7,58l0,0,0,9.26-3.87-3.92V61.93h-8.31V58Z"/><path class="cls-2" d="M219.66,67.26h-12l-3.86-3.92V53h15.91l3.85,3.93,0,10.37-3.87-3.92V56.89h-12v6.45h12Z"/><path class="cls-2" d="M229,61.93v5.33h-4.39V58h15.9V56.89h-12L224.58,53h19.76v9h-6.68L246,67.22h-6.55l-8.84-5.29Z"/><path class="cls-2" d="M251,53v14.3h-3.86V53Z"/><path class="cls-2" d="M267.25,61.93H255.87v1.41h14.28v3.92H255.87L252,63.34V53l3.87,3.93V58h14.3Zm4.54-9-3.89,3.93h-12V53Z"/><path class="cls-2" d="M276.7,56.89V58h15.92v9.26H272.84l3.86-3.92h12V61.93H272.84V53ZM292.62,53l-3.89,3.93h-12V53Z"/><path class="cls-4" d="M97.13,98.47v.42h6.07v3.53H95.66l1.47-1.49h4.59v-.54H95.66V97ZM103.2,97l-1.48,1.5H97.13V97Z"/><path class="cls-4" d="M105.07,97v4h4.59v1.49h-4.59l-1.47-1.49V97Zm4.59,0h1.47v5.45l-1.47-1.49Z"/><path class="cls-4" d="M119.07,97v1.92l-1,1,1,.52v2h-5.22v-1.49h3.74v-.54h-4.38v2h-1.68V98.89h6.06v-.42H113L111.53,97Z"/><path class="cls-4" d="M126.86,97l-1.47,1.5h-5.92V97Zm-3.27,6.2-1.7-1.5v-3.2l1.7,1Z"/><path class="cls-4" d="M128.93,100.39v2h-1.67V98.89h6.06v-.42h-4.59L127.26,97h7.53v3.42h-2.55l3.2,2h-2.5l-3.37-2Z"/><path class="cls-4" d="M141.09,100.39h-4.34v.54h5.44v1.49h-5.44l-1.47-1.49V97l1.47,1.5v.42h5.45ZM142.81,97l-1.48,1.5h-4.58V97Z"/><path class="cls-4" d="M149,100.39h-4.33v.54h5.44v1.49h-5.44l-1.48-1.49V97l1.48,1.5v.42h5.44ZM150.75,97l-1.48,1.5h-4.58V97Z"/><path class="cls-4" d="M152.62,98.47v.42h6.07v3.53h-7.54l1.47-1.49h4.58v-.54h-6V97Zm6.07-1.5-1.49,1.5h-4.58V97Z"/><path class="cls-4" d="M168.62,97v1.92l-1.48,1.32h-4.58l-1.47-1.32V97h1.47v1.92h4.58V97Zm-7.53,4h6v-.72h1.48v.72l-1.48,1.49h-6Z"/><path class="cls-4" d="M175.08,102.42h-4.59L169,100.93V97h6.06l1.47,1.5v4l-1.48-1.49V98.47h-4.59v2.46h4.59Z"/><path class="cls-4" d="M178.43,97v4H183v1.49h-4.59L177,100.93V97ZM183,97h1.47v5.45L183,100.93Z"/><path class="cls-4" d="M193.69,102.42h-5.33l-1.47-1.49V97H193l.73,1.5h-5.33v2.46h5.33Z"/><path class="cls-4" d="M194.09,97h7.54v5.45h-1.48v-1.33h-4.39v1.33h-1.67V99.34l1.67-.87v2.32l.89-1.19h3.5V98.47h-4.39Z"/><path class="cls-4" d="M202,102.42V97l1.47,1.5v4ZM208.09,97l1.48,1.5v4h-1.48v-4H203.5V97Z"/><path class="cls-4" d="M212,97h7.54v5.45H218v-1.33h-4.38v1.33H212V99.34l1.68-.87v2.32l.88-1.19H218V98.47h-4.38Z"/><path class="cls-4" d="M219.9,97H226v1.5h-4.59Zm0,5.45V98.89h1.67v3.53Zm6.06-4,1.48-1.5v3.42h-5.23v-1.5H226Z"/><path class="cls-4" d="M227.84,97h6v1.5h-4.58Zm0,5.45V98.89h1.67v3.53Zm6-4,1.48-1.5v3.42h-5.22v-1.5h3.74Z"/><path class="cls-4" d="M237.47,97v2.94l-1.7,1V97Zm-1.7,4h6.47l-1.48,1.49h-5Z"/><path class="cls-4" d="M250.17,97v1.92l-1.48,1.32h-4.58l-1.47-1.32V97h1.47v1.92h4.58V97Zm-7.53,4h6.05v-.72h1.48v.72l-1.48,1.49h-6.05Z"/><path class="cls-4" d="M252.57,102.42V97l1.48,1.5v4ZM254.05,97h2.8l1.47,1.5v4h-1.48v-4h-2.79Zm7.07,0,1.48,1.5v4h-1.48v-4h-2.8V97Z"/><path class="cls-4" d="M268.8,100.39h-4.33v.54h5.44v1.49h-5.44L263,100.93V97l1.47,1.5v.42h5.45ZM270.53,97l-1.48,1.5h-4.58V97Z"/><path class="cls-4" d="M272.6,100.39v2h-1.67V98.89H277v-.42H272.4L270.93,97h7.53v3.42h-2.54l3.19,2h-2.5l-3.37-2Z"/><path class="cls-4" d="M285.82,102.42H280.5L279,100.93V97h6.06l.74,1.5H280.5v2.46h5.32Z"/><path class="cls-4" d="M287.7,97v1.92h4l-1.11,1.5H287.7v2h-1.47V97Zm4,0h1.47v5.45h-1.47V97Z"/><path class="cls-4" d="M302.93,97l-1.47,1.5h-5.92V97Zm-3.27,6.2-1.7-1.5v-3.2l1.7,1Z"/><path class="cls-4" d="M309.4,102.42h-4.6l-1.47-1.49V97h6.07l1.46,1.5v4l-1.47-1.49V98.47h-4.6v2.46h4.6Z"/><path class="cls-4" d="M99.08,110.75v.43h6.07v3.52H97.61l1.47-1.49h4.59v-.54H97.61v-3.41Zm6.07-1.49-1.48,1.49H99.08v-1.49Z"/><path class="cls-4" d="M107,109.26v3.95h4.59v1.49H107l-1.47-1.49v-3.95Zm4.59,0h1.47v5.44l-1.47-1.49Z"/><path class="cls-4" d="M120.27,114.7H115l-1.47-1.49v-3.95h6.07l.73,1.49H115v2.46h5.32Z"/><path class="cls-4" d="M122.15,109.26v1.91h4l-1.11,1.5h-2.86v2h-1.47v-5.44Zm4,0h1.47v5.44h-1.47v-5.44Z"/><path class="cls-4" d="M130,109.26h7.54v5.44h-1.48v-1.32h-4.39v1.32H130v-3.08l1.67-.87v2.32l.89-1.19h3.5v-1.13h-4.39Z"/><path class="cls-4" d="M139.4,110.75v.43h6.07v3.52h-7.54l1.47-1.49H144v-.54h-6v-3.41Zm6.07-1.49L144,110.75H139.4v-1.49Z"/><path class="cls-4" d="M147.86,109.26h6.06v1.49h-4.58Zm0,5.44v-3.52h1.68v3.52Zm5-2,3.19,2h-2.5l-3.36-2v-1.49h3.74v-.43l1.47-1.49v3.41Z"/><path class="cls-4" d="M157.91,110.75v.43H164v3.52l-1.48-1.49v-.54h-6.06v-3.41Zm-1.47,4,1.47-1.49h4.59v1.49Zm7.54-5.44-1.48,1.49h-4.59v-1.49Z"/><path class="cls-4" d="M165.85,110.75v.43h6.06v3.52l-1.48-1.49v-.54h-6.05v-3.41Zm-1.47,4,1.47-1.49h4.58v1.49Zm7.53-5.44-1.48,1.49h-4.58v-1.49Z"/><path class="cls-4" d="M173.78,113.21h5.33l-.73,1.49h-4.6l-1.47-1.49v-3.95l1.47,1.49Zm5.33-3.95v1.49h-5.33v-1.49Z"/><path class="cls-4" d="M181,109.26v1.91h4l-1.11,1.5H181v2h-1.47v-5.44Zm4,0h1.47v5.44H185v-5.44Z"/><path class="cls-4" d="M192.89,109.26l1.47,1.49v4H188.3l-1.47-1.49v-3.95l1.48,1.49v2.46h4.59v-2.46H188.3v-1.49Z"/><path class="cls-4" d="M200.82,109.26l1.48,1.49v4h-6.07l-1.46-1.49v-3.95l1.47,1.49v2.46h4.59v-2.46h-4.59v-1.49Z"/><path class="cls-4" d="M204.39,109.26v2.93l-1.69,1v-3.94Zm-1.69,3.94h6.46l-1.47,1.49h-5Z"/><path class="cls-4" d="M213,110.75v.43h6.07v3.52h-7.54l1.47-1.49h4.59v-.54h-6.06v-3.41Zm6.07-1.49-1.48,1.49H213v-1.49Z"/><path class="cls-4" d="M221.19,109.26v2.93l-1.69,1v-3.94Zm-1.69,3.94H226l-1.47,1.49h-5Z"/><path class="cls-4" d="M232.42,114.7h-4.59l-1.47-1.49v-3.95h6.06l1.47,1.49v4l-1.48-1.49v-2.46h-4.59v2.46h4.59Z"/><path class="cls-4" d="M241.69,109.26l-1.47,1.49H234.3v-1.49Zm-3.27,6.19-1.71-1.5v-3.2l1.71,1Z"/><path class="cls-4" d="M243.56,109.26v1.91h4l-1.11,1.5h-2.86v2h-1.47v-5.44Zm4,0H249v5.44h-1.47v-5.44Z"/><path class="cls-4" d="M250.87,110.75v.43h6.07v3.52H249.4l1.47-1.49h4.59v-.54H249.4v-3.41Zm6.07-1.49-1.48,1.49h-4.59v-1.49Z"/><path class="cls-4" d="M265.4,114.7h-4.59l-1.47-1.49v-3.95h6.06l1.46,1.49v4l-1.47-1.49v-2.46h-4.59v2.46h4.59Z"/><path class="cls-4" d="M268.94,112.67v2h-1.67v-3.52h6.06v-.43h-4.59l-1.47-1.49h7.53v3.41h-2.54l3.19,2H273l-3.37-2Z"/><path class="cls-4" d="M279.54,109.26v2.93l-1.69,1v-3.94Zm-1.69,3.94h6.46l-1.47,1.49h-5Z"/><path class="cls-4" d="M290.78,114.7h-4.6l-1.47-1.49v-3.95h6.07l1.46,1.49v4l-1.47-1.49v-2.46h-4.6v2.46h4.6Z"/><path class="cls-4" d="M294.12,110.75v2.46h4.59v1.49h-4.59l-1.47-1.49v-3.95h6.06l.74,1.49Zm6.06.42h0v3.52l-1.47-1.49v-.54h-3.17v-1.5Z"/><path class="cls-4" d="M306.65,114.7h-4.59l-1.48-1.49v-3.95h6.07l1.46,1.49v4l-1.47-1.49v-2.46h-4.59v2.46h4.59Z"/><path class="cls-4" d="M99.23,123.86h7.54v5.45h-1.48V128H100.9v1.33H99.23v-3.08l1.67-.88v2.32l.89-1.19h3.5v-1.13H100.9Z"/><path class="cls-4" d="M108.65,123.86v4h2.8v1.5h-2.8l-1.48-1.5v-4Zm4.27,0v4h2.8v1.5h-2.81l-1.46-1.49v-4Zm2.8,0h1.47v5.45l-1.47-1.5Z"/><path class="cls-4" d="M123.4,127.27h-4.34v.54h5.44v1.5h-5.44l-1.47-1.5v-4l1.47,1.49v.42h5.45Zm1.73-3.41-1.48,1.49h-4.59v-1.49Z"/><path class="cls-4" d="M127,125.35v.43h6.06v3.53h-7.53l1.47-1.5h4.58v-.54h-6.05v-3.41Zm6.06-1.49-1.48,1.49H127v-1.49Z"/><path class="cls-4" d="M139.53,129.31h-4.59l-1.48-1.5v-4h6.07l1.46,1.49v4l-1.47-1.5v-2.46h-4.59v2.46h4.59Z"/><path class="cls-4" d="M141.4,129.31v-5.45l1.48,1.49v4Zm1.48-5.45h2.8l1.47,1.49v4h-1.48v-4h-2.79Zm7.07,0,1.47,1.49v4H150v-4h-2.8v-1.49Z"/><path class="cls-4" d="M157.63,127.27H153.3v.54h5.44v1.5H153.3l-1.48-1.5v-4l1.48,1.49v.42h5.44Zm1.73-3.41-1.48,1.49H153.3v-1.49Z"/><path class="cls-4" d="M161.76,123.86h7.54v5.45h-1.48V128h-4.39v1.33h-1.67v-3.08l1.67-.88v2.32l.89-1.19h3.5v-1.13h-4.39Z"/><path class="cls-4" d="M171.37,127.27v2h-1.68v-3.53h6.06v-.43h-4.58l-1.48-1.49h7.53v3.41h-2.54l3.19,2h-2.5l-3.36-2Z"/><path class="cls-4" d="M185.1,123.86l-1.47,1.49h-5.92v-1.49Zm-3.27,6.19-1.7-1.5v-3.2l1.7,1Z"/><path class="cls-4" d="M189,123.86v1.91h4l-1.11,1.5H189v2H187.5v-5.45Zm4,0h1.48v5.45h-1.48v-5.45Z"/><path class="cls-4" d="M196.29,123.86v5.45h-1.47v-5.45Z"/><path class="cls-4" d="M198.16,125.35v2.46h4.59v1.5h-4.59l-1.47-1.5v-4h6.06l.74,1.49Zm6.06.42h0v3.53l-1.47-1.5v-.54h-3.17v-1.5Z"/><path class="cls-4" d="M206.09,123.86v1.91h4l-1.11,1.5h-2.86v2h-1.47v-5.45Zm4,0h1.47v5.45h-1.47v-5.45Z"/><path class="cls-4" d="M219.09,127.81l2.75,2.8h-2.15l-1.39-1.3h-2.89l-1.47-1.5v-4H220l1.46,1.49v4l-1.47-1.5v-2.46h-4.59v2.46Z"/><path class="cls-4" d="M223.39,123.86v4H228v1.5h-4.59l-1.47-1.5v-4Zm4.59,0h1.47v5.45l-1.47-1.5Z"/><path class="cls-4" d="M229.86,123.86h7.53v5.45h-1.48V128h-4.38v1.33h-1.67v-3.08l1.67-.88v2.32l.88-1.19h3.5v-1.13h-4.38Z"/><path class="cls-4" d="M239.49,123.86v2.93l-1.7,1v-3.94Zm-1.7,3.94h6.46l-1.47,1.49h-5Z"/><path class="cls-4" d="M246.13,123.86v5.45h-1.48v-5.45Z"/><path class="cls-4" d="M253.92,123.86l-1.47,1.49h-5.92v-1.49Zm-3.27,6.19-1.71-1.5v-3.2l1.71,1Z"/><path class="cls-4" d="M261.86,123.86v1.92l-1.49,1.32h-4.58l-1.47-1.32v-1.92h1.47v1.92h4.58v-1.92Zm-7.54,4h6.05v-.71h1.49v.71l-1.49,1.5h-6.05Z"/><path class="cls-4" d="M265.73,125.35v.42h5.44l-1.11,1.5h-4.33v2l-1.48-1.5v-4Zm6.06-1.49-1.48,1.49h-4.58v-1.49Z"/><path class="cls-4" d="M273.66,123.86v4h4.59v1.5h-4.59l-1.47-1.5v-4Zm4.59,0h1.48v5.45l-1.48-1.5Z"/><path class="cls-4" d="M280.13,129.31v-5.45l1.47,1.49v4Zm6.06-5.45,1.47,1.49v4h-1.47v-4H281.6v-1.49Z"/><path class="cls-4" d="M288.06,129.31v-5.45l1.47,1.49v4Zm6.07-5.45,1.47,1.49v4h-1.47v-4h-4.6v-1.49Z"/><path class="cls-4" d="M303.53,123.86v1.92l-1.48,1.32h-4.58L296,125.78v-1.92h1.47v1.92h4.58v-1.92Zm-7.53,4h6.05v-.71h1.48v.71l-1.48,1.5H296Z"/></g></g></svg>