<svg xmlns="http://www.w3.org/2000/svg" viewBox="0 0 492.6 186.9"><defs><style>.cls-1{fill:#17cffc;}.cls-2{opacity:0.15;}.cls-3{fill:#00d0ff;}</style></defs><title>divider_subtrees</title><g id="Layer_2" data-name="Layer 2"><g id="Layer_1-2" data-name="Layer 1"><path class="cls-1" d="M218.44,174.68h-.23l-22.5-22.54-.17-.17.07-67.11L159.9,49.07l-.17-.16.05-46.43,101,.11H261l11.21,11.23c5.16.51,127.52.33,192.14.16H465l0,23.46,23.69,23.74.17.16-.1,96.71-28.38,0-16.93,16.9Zm269.11-17.75.1-95.12L464,38.07l-.16-.17,0-22.8c-5.54,0-50.7.13-95.38.17-96.27.07-96.57-.24-96.87-.53l-11-11-99.66-.1,0,44.83,35.71,35.79.17.17-.07,67.11,22,22.05,224.23.23,16.93-16.89Z"/><polygon class="cls-1" points="482.61 65.53 463.41 46.29 463.4 58.2 482.41 77.24 482.61 65.53"/><polygon class="cls-1" points="482.59 85.49 463.39 66.26 463.38 78.16 482.39 97.21 482.59 85.49"/><polygon class="cls-1" points="482.57 105.46 463.37 86.22 463.36 98.13 482.37 117.18 482.57 105.46"/><polygon class="cls-1" points="482.55 125.42 463.35 106.19 463.34 118.09 482.35 137.14 482.55 125.42"/><polygon class="cls-1" points="463.33 126.16 463.32 138.06 479.41 154.19 482.37 154.2 482.52 145.39 463.33 126.16"/><polygon class="cls-1" points="463.31 146.12 463.3 154.18 471.36 154.19 463.31 146.12"/><path class="cls-1" d="M479.74,53.08H487l5.62,5.63,0,32.9s-3.62,4.18-3.9,3.9,0-34.34,0-34.34Z"/><path class="cls-1" d="M472,157.75l-3.42,3.42s-8.3,0-8.35,0-9.52,9.51-9.52,9.51H446v-3.28l6-6h4.26l3.5-3.5Z"/><polygon class="cls-1" points="455.03 152.23 455.82 151.43 443.46 139.05 443.23 139.05 211.12 138.8 202.92 146.99 203.71 147.78 211.58 139.93 443 140.17 455.03 152.23"/><polygon class="cls-1" points="446.84 143.22 378.62 143.15 374.5 139.02 442.95 139.09 446.84 143.22"/><path class="cls-1" d="M266.35,8.71V5.31L261.08,0l-30.3,0s-3.22,2.66-2.94,2.94,33.41,0,33.41,0Z"/><polygon class="cls-1" points="441.99 183.59 441.99 182.47 212.2 182.23 187.52 157.5 187.59 90.3 187.43 90.13 153.98 56.61 153.74 56.61 109.72 56.56 109.56 56.73 72.21 93.99 38.49 93.96 38.49 95.08 72.68 95.12 72.84 94.95 110.19 57.69 153.51 57.73 186.47 90.76 186.4 157.97 186.56 158.13 211.73 183.35 211.96 183.35 441.99 183.59"/><rect class="cls-1" x="6.15" y="90.54" width="21.79" height="6.94" transform="translate(34 188.03) rotate(-179.94)"/><path class="cls-1" d="M0,102.8,0,85.17l34.08,0,0,17.63Zm1.62-16,0,14.43,30.88,0,0-14.42Z"/><path class="cls-1" d="M334.19,182.92l3.89,3.89,80.57.09s4.17-3.77,3.77-3.77Z"/><polygon class="cls-1" points="259.13 33.14 269.64 22.65 459.18 22.85 459.18 21.73 269.17 21.53 258.66 32.02 166.28 31.92 166.28 33.05 259.13 33.14"/><polygon class="cls-1" points="264.79 17.26 255.45 7.9 244.34 7.89 244.32 28.7 256.63 28.71 266.34 19.02 264.79 17.26"/><rect class="cls-1" x="224.74" y="7.87" width="13.17" height="20.81" transform="translate(462.64 36.8) rotate(-179.94)"/><rect class="cls-1" x="205.48" y="7.85" width="13.17" height="20.81" transform="translate(424.11 36.74) rotate(-179.94)"/><rect class="cls-1" x="186.22" y="7.83" width="13.17" height="20.81" transform="translate(385.58 36.68) rotate(-179.94)"/><rect class="cls-1" x="166.95" y="7.81" width="13.17" height="20.81" transform="translate(347.06 36.62) rotate(-179.94)"/><g class="cls-2"><polygon class="cls-1" points="207.31 152.36 215.02 144.65 372.9 144.65 376.71 148.47 444.2 148.47 450.27 154.53 450.27 157.71 443.69 164.29 443.69 167.31 441.04 169.97 218.96 169.97 204.41 155.42 207.31 152.36"/></g><polygon class="cls-1" points="107.67 67.89 114.2 61.35 151.27 61.35 161.62 71.7 161.62 74.65 159.14 74.65 159.14 71.27 150.88 63.01 129.39 63.01 128.05 64.34 115.93 64.34 113.02 67.26 107.67 67.89"/><path class="cls-1" d="M111.6,55.1l2.25-2.25h25.22l1-.94h9s3.34,3.4,3.4,3.4h-41.1Z"/><polyline class="cls-1" points="180.9 88.7 184.05 91.85 184.05 97 180.9 88.86"/><polygon class="cls-1" points="64.28 92.39 71.65 92.39 76.99 87.05 64.28 92.39"/><polygon class="cls-1" points="468.84 33.88 468.21 33.88 468.21 8.7 437.25 8.7 434.35 11.6 433.91 11.15 436.99 8.07 468.84 8.07 468.84 33.88"/><polygon class="cls-1" points="464.43 8.39 468.62 12.57 468.62 8.26 464.43 8.39"/><polygon class="cls-1" points="163.43 36.8 163.43 46.83 178.48 61.88 178.48 60.21 164.96 46.69 164.96 42.38 165.63 41.71 165.63 35.54 163.43 36.8"/><polygon class="cls-1" points="198.53 124.12 198.53 146.67 206.5 138.7 204.59 138.7 200.47 142.82 199.71 142.06 199.71 126.62 198.53 124.12"/><polygon class="cls-1" points="183.74 150.37 183.74 158.04 190.76 165.06 188.85 165.06 182.82 159.03 182.82 144.65 181.83 143.66 181.83 130.06 184.83 133.06 184.83 147.89 183.74 150.37"/><polygon class="cls-1" points="475.54 167.05 459.03 167.05 459.03 166.42 475.28 166.42 480.34 161.36 480.79 161.8 475.54 167.05"/><path class="cls-3" d="M205,50.49v1.12H220.9v9.26L217,56.94V55.53h-15.9v-9Zm-3.87,10.38L205,56.94h12v3.93Zm19.79-14.3L217,50.49H205V46.57Z"/><path class="cls-3" d="M225.81,46.57V56.94h12.05v3.93H225.81L222,56.94V46.57Zm12.05,0h3.87v14.3l-3.87-3.93Z"/><path class="cls-3" d="M242.78,46.57h15.89v3.92h-12Zm0,14.3V51.61h4.39v9.26Zm19.78-14.3v5l-3.89,3.92h-9.82V51.61h9.82V50.49ZM248.85,56.94h9.82V55.53h3.89v5.34H248.85Z"/><path class="cls-3" d="M267.47,56.94h14l-1.93,3.93H267.47l-3.86-3.93V46.57l3.86,3.92Zm14-10.37v3.92h-14V46.57Z"/><path class="cls-3" d="M298.41,50.49l3.88-3.92v14.3h-3.88V57.38H286.9v3.49h-4.39V52.78l4.39-2.29v6.09l2.33-3.12h9.18Zm0-3.92v3.92H286.9l-4.39-3.92Z"/><path class="cls-3" d="M322.74,46.57l-3.86,3.92H303.34V46.57Zm-8.59,16.25-4.47-3.93v-8.4l4.47,2.65Z"/><path class="cls-3" d="M327.66,50.49v6.45h14.28v3.93H327.66l-3.87-3.93V46.57Zm15.92-3.92-3.89,3.92h-12V46.57Zm-13.8,9V51.59H342L339,55.53Z"/><path class="cls-3" d="M348.49,50.49v6.45h12.05v3.93H348.49l-3.86-3.93V46.57l3.84,3.9,0-3.9h12.05l1.94,3.92Zm15.92,1.1,0,0,0,9.26-3.87-3.93V55.53h-8.31V51.59Z"/><path class="cls-3" d="M381.38,46.57l3.86,3.92V60.87H369.32l-3.84-3.93,0-10.37,3.86,3.92v6.45h12.06V50.49H369.32V46.57Z"/><path class="cls-3" d="M386.29,46.57h15.9v3.92h-12Zm0,14.3V51.61h4.39v9.26Zm13.08-5.34,8.38,5.3H401.2l-8.84-5.3V51.61h9.83V50.49l3.86-3.92v9Z"/><path class="cls-3" d="M412.67,46.57v14.3H408.8V46.57Z"/><path class="cls-3" d="M417.58,50.49v6.45h14.28v3.93H417.58l-3.86-3.93V46.57Zm15.92-3.92-3.89,3.92h-12V46.57Zm-13.8,9V51.59h12.18L429,55.53Z"/><path class="cls-3" d="M438.41,50.49v1.12h15.92v9.26l-3.89-3.93V55.53H434.55v-9Zm-3.86,10.38,3.86-3.93h12v3.93Zm19.78-14.3-3.89,3.92h-12V46.57Z"/><path class="cls-3" d="M218.49,91.87v.42h6.07v3.53H217l1.47-1.49h4.59v-.54H217V90.37Zm6.07-1.5-1.48,1.5h-4.59v-1.5Z"/><path class="cls-3" d="M226.43,90.37v4H231v1.49h-4.59L225,94.33v-4Zm4.59,0h1.47v5.45L231,94.33Z"/><path class="cls-3" d="M240.43,90.37v1.92l-1,1,1,.52v2h-5.22V94.33H239v-.54h-4.38v2h-1.68V92.29H239v-.42h-4.58l-1.48-1.5Z"/><path class="cls-3" d="M248.22,90.37l-1.47,1.5h-5.92v-1.5ZM245,96.57l-1.71-1.5v-3.2l1.71,1Z"/><path class="cls-3" d="M250.29,93.79v2h-1.67V92.29h6.06v-.42h-4.59l-1.47-1.5h7.53v3.42H253.6l3.2,2h-2.5l-3.37-2Z"/><path class="cls-3" d="M262.44,93.79h-4.33v.54h5.44v1.49h-5.44l-1.47-1.49v-4l1.47,1.5v.42h5.45Zm1.73-3.42-1.48,1.5h-4.58v-1.5Z"/><path class="cls-3" d="M270.38,93.79H266v.54h5.45v1.49H266l-1.47-1.49v-4l1.47,1.5v.42h5.45Zm1.73-3.42-1.48,1.5H266v-1.5Z"/><path class="cls-3" d="M274,91.87v.42H280v3.53h-7.53L274,94.33h4.58v-.54h-6.05V90.37Zm6.06-1.5-1.48,1.5H274v-1.5Z"/><path class="cls-3" d="M290,90.37v1.92l-1.48,1.32h-4.58l-1.48-1.32V90.37h1.48v1.92h4.58V90.37Zm-7.54,4h6.06v-.72H290v.72l-1.48,1.49h-6.06Z"/><path class="cls-3" d="M296.44,95.82h-4.59l-1.47-1.49v-4h6.06l1.47,1.5v3.95l-1.48-1.49V91.87h-4.59v2.46h4.59Z"/><path class="cls-3" d="M299.79,90.37v4h4.59v1.49h-4.59l-1.47-1.49v-4Zm4.59,0h1.47v5.45l-1.47-1.49Z"/><path class="cls-3" d="M315,95.82h-5.32l-1.47-1.49v-4h6.07l.73,1.5h-5.33v2.46H315Z"/><path class="cls-3" d="M315.45,90.37H323v5.45h-1.48V94.49h-4.39v1.33h-1.67V92.74l1.67-.87v2.32L318,93h3.5V91.87h-4.39Z"/><path class="cls-3" d="M323.39,95.82V90.37l1.47,1.5v3.95Zm6.06-5.45,1.47,1.5v3.95h-1.47V91.87h-4.59v-1.5Z"/><path class="cls-3" d="M333.32,90.37h7.54v5.45h-1.48V94.49H335v1.33h-1.68V92.74l1.68-.87v2.32l.88-1.19h3.5V91.87H335Z"/><path class="cls-3" d="M341.26,90.37h6.06v1.5h-4.59Zm0,5.45V92.29h1.67v3.53Zm6.06-3.95,1.48-1.5v3.42h-5.23v-1.5h3.75Z"/><path class="cls-3" d="M349.2,90.37h6.05v1.5h-4.58Zm0,5.45V92.29h1.67v3.53Zm6.05-3.95,1.48-1.5v3.42h-5.22v-1.5h3.74Z"/><path class="cls-3" d="M358.83,90.37v2.94l-1.7,1V90.37Zm-1.7,3.95h6.47l-1.48,1.49h-5Z"/><path class="cls-3" d="M371.53,90.37v1.92l-1.48,1.32h-4.58L364,92.29V90.37h1.47v1.92h4.58V90.37Zm-7.53,4h6.05v-.72h1.48v.72l-1.48,1.49H364Z"/><path class="cls-3" d="M373.93,95.82V90.37l1.48,1.5v3.95Zm1.48-5.45h2.8l1.47,1.5v3.95H378.2V91.87h-2.79Zm7.07,0,1.47,1.5v3.95h-1.47V91.87h-2.8v-1.5Z"/><path class="cls-3" d="M390.16,93.79h-4.33v.54h5.44v1.49h-5.44l-1.47-1.49v-4l1.47,1.5v.42h5.45Zm1.73-3.42-1.48,1.5h-4.58v-1.5Z"/><path class="cls-3" d="M394,93.79v2h-1.67V92.29h6.06v-.42h-4.59l-1.47-1.5h7.53v3.42h-2.54l3.19,2H398l-3.37-2Z"/><path class="cls-3" d="M407.18,95.82h-5.32l-1.47-1.49v-4h6.06l.74,1.5h-5.33v2.46h5.32Z"/><path class="cls-3" d="M409.06,90.37v1.92h4l-1.11,1.5h-2.86v2h-1.47V90.37Zm4,0h1.47v5.45H413V90.37Z"/><path class="cls-3" d="M424.29,90.37l-1.47,1.5H416.9v-1.5ZM421,96.57l-1.7-1.5v-3.2l1.7,1Z"/><path class="cls-3" d="M430.75,95.82h-4.59l-1.47-1.49v-4h6.06l1.47,1.5v3.95l-1.48-1.49V91.87h-4.59v2.46h4.59Z"/><path class="cls-3" d="M220.44,104.15v.43h6.06v3.52H219l1.47-1.49H225v-.54H219v-3.41Zm6.06-1.49L225,104.15h-4.58v-1.49Z"/><path class="cls-3" d="M228.38,102.66v4H233v1.49h-4.59l-1.48-1.49v-4Zm4.59,0h1.47v5.44L233,106.61Z"/><path class="cls-3" d="M241.63,108.1h-5.32l-1.47-1.49v-4h6.06l.74,1.49h-5.33v2.46h5.32Z"/><path class="cls-3" d="M243.51,102.66v1.91h4l-1.11,1.5h-2.86v2H242v-5.44Zm4,0H249v5.44h-1.47v-5.44Z"/><path class="cls-3" d="M251.35,102.66h7.54v5.44h-1.48v-1.32H253v1.32h-1.67V105l1.67-.87v2.32l.89-1.19h3.5v-1.13H253Z"/><path class="cls-3" d="M260.76,104.15v.43h6.06v3.52h-7.53l1.47-1.49h4.58v-.54h-6v-3.41Zm6.06-1.49-1.48,1.49h-4.58v-1.49Z"/><path class="cls-3" d="M269.22,102.66h6.06v1.49H270.7Zm0,5.44v-3.52h1.68v3.52Zm5-2,3.19,2h-2.5l-3.36-2v-1.49h3.74v-.43l1.47-1.49v3.41Z"/><path class="cls-3" d="M279.27,104.15v.43h6.07v3.52l-1.48-1.49v-.54H277.8v-3.41Zm-1.47,3.95,1.47-1.49h4.59v1.49Zm7.54-5.44-1.48,1.49h-4.59v-1.49Z"/><path class="cls-3" d="M287.21,104.15v.43h6.06v3.52l-1.48-1.49v-.54h-6.05v-3.41Zm-1.47,3.95,1.47-1.49h4.58v1.49Zm7.53-5.44-1.48,1.49h-4.58v-1.49Z"/><path class="cls-3" d="M295.14,106.61h5.33l-.73,1.49h-4.6l-1.47-1.49v-4l1.47,1.49Zm5.32-4v1.49h-5.32v-1.49Z"/><path class="cls-3" d="M302.34,102.66v1.91h4l-1.11,1.5h-2.86v2h-1.47v-5.44Zm4,0h1.47v5.44h-1.47v-5.44Z"/><path class="cls-3" d="M314.25,102.66l1.47,1.49v3.95h-6.06l-1.47-1.49v-4l1.48,1.49v2.46h4.59v-2.46h-4.59v-1.49Z"/><path class="cls-3" d="M322.18,102.66l1.48,1.49v3.95h-6.07l-1.46-1.49v-4l1.47,1.49v2.46h4.59v-2.46h-4.59v-1.49Z"/><path class="cls-3" d="M325.75,102.66v2.93l-1.69,1v-3.94Zm-1.69,3.94h6.46l-1.47,1.49h-5Z"/><path class="cls-3" d="M334.39,104.15v.43h6.07v3.52h-7.54l1.47-1.49H339v-.54h-6.06v-3.41Zm6.07-1.49L339,104.15h-4.59v-1.49Z"/><path class="cls-3" d="M342.55,102.66v2.93l-1.69,1v-3.94Zm-1.69,3.94h6.46l-1.47,1.49h-5Z"/><path class="cls-3" d="M353.78,108.1h-4.59l-1.47-1.49v-4h6.06l1.47,1.49v3.95l-1.48-1.49v-2.46h-4.59v2.46h4.59Z"/><path class="cls-3" d="M363.05,102.66l-1.47,1.49h-5.92v-1.49Zm-3.27,6.19-1.71-1.5v-3.2l1.71,1Z"/><path class="cls-3" d="M364.92,102.66v1.91h4l-1.11,1.5h-2.86v2h-1.47v-5.44Zm4,0h1.47v5.44h-1.47v-5.44Z"/><path class="cls-3" d="M372.23,104.15v.43h6.07v3.52h-7.54l1.47-1.49h4.59v-.54h-6.06v-3.41Zm6.07-1.49-1.48,1.49h-4.59v-1.49Z"/><path class="cls-3" d="M386.76,108.1h-4.59l-1.48-1.49v-4h6.07l1.46,1.49v3.95l-1.47-1.49v-2.46h-4.59v2.46h4.59Z"/><path class="cls-3" d="M390.3,106.07v2h-1.67v-3.52h6.06v-.43H390.1l-1.47-1.49h7.53v3.41h-2.55l3.2,2h-2.5l-3.37-2Z"/><path class="cls-3" d="M400.9,102.66v2.93l-1.69,1v-3.94Zm-1.69,3.94h6.46l-1.47,1.49h-5Z"/><path class="cls-3" d="M412.13,108.1h-4.59l-1.47-1.49v-4h6.06l1.47,1.49v3.95l-1.48-1.49v-2.46h-4.59v2.46h4.59Z"/><path class="cls-3" d="M415.48,104.15v2.46h4.59v1.49h-4.59L414,106.61v-4h6.06l.74,1.49Zm6.06.42h0v3.52l-1.47-1.49v-.54H416.9v-1.5Z"/><path class="cls-3" d="M428,108.1h-4.6l-1.47-1.49v-4H428l1.46,1.49v3.95L428,106.61v-2.46h-4.6v2.46H428Z"/><path class="cls-3" d="M220.59,117.26h7.54v5.45h-1.48v-1.33h-4.39v1.33h-1.67v-3.08l1.67-.87v2.32l.89-1.2h3.5v-1.12h-4.39Z"/><path class="cls-3" d="M230,117.26v3.95h2.8v1.5H230l-1.48-1.5v-3.95Zm4.27,0v3.95h2.8v1.5h-2.81l-1.46-1.49v-3.95Zm2.8,0h1.47v5.45l-1.47-1.5Z"/><path class="cls-3" d="M244.76,120.68h-4.34v.53h5.44v1.5h-5.44l-1.47-1.5v-3.95l1.47,1.5v.41h5.45Zm1.73-3.42-1.48,1.5h-4.59v-1.5Z"/><path class="cls-3" d="M248.36,118.76v.42h6.06v3.53h-7.53l1.47-1.5h4.58v-.53h-6.05v-3.42Zm6.06-1.5-1.48,1.5h-4.58v-1.5Z"/><path class="cls-3" d="M260.89,122.71h-4.6l-1.47-1.5v-3.95h6.07l1.46,1.5v3.95l-1.47-1.5v-2.45h-4.6v2.45h4.6Z"/><path class="cls-3" d="M262.76,122.71v-5.45l1.48,1.5v3.95Zm1.48-5.45H267l1.47,1.5v3.95H267v-3.95h-2.79Zm7.07,0,1.47,1.5v3.95h-1.47v-3.95h-2.8v-1.5Z"/><path class="cls-3" d="M279,120.68h-4.34v.53h5.45v1.5h-5.45l-1.47-1.5v-3.95l1.47,1.5v.41h5.45Zm1.73-3.42-1.48,1.5h-4.59v-1.5Z"/><path class="cls-3" d="M283.12,117.26h7.53v5.45h-1.48v-1.33h-4.38v1.33h-1.67v-3.08l1.67-.87v2.32l.89-1.2h3.49v-1.12h-4.38Z"/><path class="cls-3" d="M292.73,120.68v2h-1.68v-3.53h6.06v-.42h-4.58l-1.48-1.5h7.53v3.42H296l3.19,2h-2.5l-3.36-2Z"/><path class="cls-3" d="M306.46,117.26l-1.47,1.5h-5.92v-1.5Zm-3.27,6.19-1.7-1.49v-3.2l1.7,1Z"/><path class="cls-3" d="M310.33,117.26v1.91h4l-1.11,1.51h-2.86v2h-1.47v-5.45Zm4,0h1.48v5.45H314.3v-5.45Z"/><path class="cls-3" d="M317.65,117.26v5.45h-1.48v-5.45Z"/><path class="cls-3" d="M319.52,118.76v2.45h4.59v1.5h-4.59l-1.47-1.5v-3.95h6.06l.74,1.5Zm6.06.41h0v3.53l-1.47-1.5v-.53h-3.17v-1.51Z"/><path class="cls-3" d="M327.45,117.26v1.91h4l-1.11,1.51h-2.86v2H326v-5.45Zm4,0h1.47v5.45h-1.47v-5.45Z"/><path class="cls-3" d="M340.45,121.21l2.75,2.8h-2.15l-1.39-1.3h-2.89l-1.48-1.5v-3.95h6.07l1.46,1.5v3.95l-1.47-1.5v-2.45h-4.59v2.45Z"/><path class="cls-3" d="M344.75,117.26v3.95h4.59v1.5h-4.59l-1.47-1.5v-3.95Zm4.59,0h1.47v5.45l-1.47-1.5Z"/><path class="cls-3" d="M351.21,117.26h7.54v5.45h-1.48v-1.33h-4.38v1.33h-1.68v-3.08l1.68-.87v2.32l.88-1.2h3.5v-1.12h-4.38Z"/><path class="cls-3" d="M360.85,117.26v2.94l-1.7,1v-3.94Zm-1.7,3.94h6.46l-1.47,1.49h-5Z"/><path class="cls-3" d="M367.49,117.26v5.45H366v-5.45Z"/><path class="cls-3" d="M375.28,117.26l-1.47,1.5h-5.92v-1.5ZM372,123.45,370.3,122v-3.2l1.71,1Z"/><path class="cls-3" d="M383.21,117.26v1.92l-1.48,1.32h-4.58l-1.47-1.32v-1.92h1.47v1.92h4.58v-1.92Zm-7.53,3.95h6.05v-.71h1.48v.71l-1.48,1.5h-6.05Z"/><path class="cls-3" d="M387.09,118.76v.41h5.44l-1.11,1.51h-4.33v2l-1.48-1.5v-3.95Zm6.06-1.5-1.48,1.5h-4.58v-1.5Z"/><path class="cls-3" d="M395,117.26v3.95h4.59v1.5H395l-1.47-1.5v-3.95Zm4.59,0h1.48v5.45l-1.48-1.5Z"/><path class="cls-3" d="M401.49,122.71v-5.45l1.47,1.5v3.95Zm6.06-5.45,1.47,1.5v3.95h-1.47v-3.95H403v-1.5Z"/><path class="cls-3" d="M409.42,122.71v-5.45l1.47,1.5v3.95Zm6.07-5.45,1.47,1.5v3.95h-1.47v-3.95h-4.6v-1.5Z"/><path class="cls-3" d="M424.89,117.26v1.92l-1.48,1.32h-4.58l-1.47-1.32v-1.92h1.47v1.92h4.58v-1.92Zm-7.53,3.95h6.05v-.71h1.48v.71l-1.48,1.5h-6.05Z"/></g></g></svg>