<svg xmlns="http://www.w3.org/2000/svg" xmlns:xlink="http://www.w3.org/1999/xlink" viewBox="0 0 494.63 149.01"><defs><style>.cls-1{fill:url(#New_Gradient_Swatch_1);}.cls-2{fill:url(#New_Gradient_Swatch_1-2);}.cls-3{fill:url(#New_Gradient_Swatch_1-3);}.cls-4{fill:url(#New_Gradient_Swatch_1-4);}.cls-5{fill:url(#New_Gradient_Swatch_1-5);}.cls-6{fill:url(#New_Gradient_Swatch_1-6);}.cls-7{fill:url(#New_Gradient_Swatch_1-7);}.cls-8{fill:url(#New_Gradient_Swatch_1-8);}.cls-9{fill:url(#New_Gradient_Swatch_1-9);}.cls-10{fill:url(#New_Gradient_Swatch_1-10);}.cls-11{fill:url(#New_Gradient_Swatch_1-11);}.cls-12{fill:url(#New_Gradient_Swatch_1-12);}.cls-13{fill:url(#New_Gradient_Swatch_1-13);}.cls-14{fill:url(#New_Gradient_Swatch_1-14);}.cls-15{fill:url(#New_Gradient_Swatch_1-15);}.cls-16{fill:url(#New_Gradient_Swatch_1-16);}.cls-17{fill:#11e5b3;}.cls-18{fill:url(#New_Gradient_Swatch_1-17);}.cls-19{fill:url(#New_Gradient_Swatch_1-18);}.cls-20{opacity:0.15;}.cls-21{fill:url(#New_Gradient_Swatch_1-19);}.cls-22{fill:url(#New_Gradient_Swatch_1-20);}.cls-23{fill:url(#New_Gradient_Swatch_1-21);}.cls-24{fill:url(#New_Gradient_Swatch_1-22);}.cls-25{fill:url(#New_Gradient_Swatch_1-23);}.cls-26{fill:url(#New_Gradient_Swatch_1-24);}.cls-27{fill:url(#New_Gradient_Swatch_1-25);}.cls-28{fill:url(#New_Gradient_Swatch_1-26);}.cls-29{fill:url(#New_Gradient_Swatch_1-27);}.cls-30{fill:url(#New_Gradient_Swatch_1-28);}.cls-31{fill:url(#New_Gradient_Swatch_1-29);}.cls-32{fill:url(#New_Gradient_Swatch_1-30);}.cls-33{fill:url(#New_Gradient_Swatch_1-31);}.cls-34{fill:url(#New_Gradient_Swatch_1-32);}.cls-35{fill:url(#New_Gradient_Swatch_1-33);}.cls-36{fill:url(#New_Gradient_Swatch_1-34);}.cls-37{fill:url(#New_Gradient_Swatch_1-35);}.cls-38{fill:url(#New_Gradient_Swatch_1-36);}.cls-39{fill:url(#New_Gradient_Swatch_1-37);}.cls-40{fill:url(#New_Gradient_Swatch_1-38);}.cls-41{fill:url(#New_Gradient_Swatch_1-39);}.cls-42{fill:url(#New_Gradient_Swatch_1-40);}.cls-43{fill:url(#New_Gradient_Swatch_1-41);}.cls-44{fill:url(#New_Gradient_Swatch_1-42);}.cls-45{fill:url(#New_Gradient_Swatch_1-43);}.cls-46{fill:url(#New_Gradient_Swatch_1-44);}.cls-47{fill:url(#New_Gradient_Swatch_1-45);}.cls-48{fill:url(#New_Gradient_Swatch_1-46);}.cls-49{fill:url(#New_Gradient_Swatch_1-47);}.cls-50{fill:url(#New_Gradient_Swatch_1-48);}.cls-51{fill:url(#New_Gradient_Swatch_1-49);}.cls-52{fill:url(#New_Gradient_Swatch_1-50);}.cls-53{fill:url(#New_Gradient_Swatch_1-51);}.cls-54{fill:url(#New_Gradient_Swatch_1-52);}.cls-55{fill:url(#New_Gradient_Swatch_1-53);}.cls-56{fill:url(#New_Gradient_Swatch_1-54);}.cls-57{fill:url(#New_Gradient_Swatch_1-55);}.cls-58{fill:url(#New_Gradient_Swatch_1-56);}.cls-59{fill:url(#New_Gradient_Swatch_1-57);}</style><linearGradient id="New_Gradient_Swatch_1" x1="14.9" y1="43.55" x2="312.85" y2="43.55" gradientUnits="userSpaceOnUse"><stop offset="0" stop-color="#cf52fe"/><stop offset="1" stop-color="#19dbb6"/></linearGradient><linearGradient id="New_Gradient_Swatch_1-2" x1="14.9" y1="133.89" x2="324.5" y2="133.89" xlink:href="#New_Gradient_Swatch_1"/><linearGradient id="New_Gradient_Swatch_1-3" x1="324.17" y1="70.23" x2="483.62" y2="70.23" xlink:href="#New_Gradient_Swatch_1"/><linearGradient id="New_Gradient_Swatch_1-4" x1="31.09" y1="23.33" x2="101.18" y2="23.33" xlink:href="#New_Gradient_Swatch_1"/><linearGradient id="New_Gradient_Swatch_1-5" x1="19.02" y1="125.05" x2="34.2" y2="125.05" xlink:href="#New_Gradient_Swatch_1"/><linearGradient id="New_Gradient_Swatch_1-6" x1="65.56" y1="137.69" x2="80.74" y2="137.69" xlink:href="#New_Gradient_Swatch_1"/><linearGradient id="New_Gradient_Swatch_1-7" x1="156.32" y1="36.82" x2="296.01" y2="36.82" xlink:href="#New_Gradient_Swatch_1"/><linearGradient id="New_Gradient_Swatch_1-8" x1="159.76" y1="31.71" x2="188.13" y2="31.71" xlink:href="#New_Gradient_Swatch_1"/><linearGradient id="New_Gradient_Swatch_1-9" x1="171.02" y1="31.81" x2="212.01" y2="31.81" xlink:href="#New_Gradient_Swatch_1"/><linearGradient id="New_Gradient_Swatch_1-10" x1="194.24" y1="31.81" x2="235.23" y2="31.81" xlink:href="#New_Gradient_Swatch_1"/><linearGradient id="New_Gradient_Swatch_1-11" x1="217.45" y1="31.81" x2="258.44" y2="31.81" xlink:href="#New_Gradient_Swatch_1"/><linearGradient id="New_Gradient_Swatch_1-12" x1="240.67" y1="31.81" x2="280.99" y2="31.81" xlink:href="#New_Gradient_Swatch_1"/><linearGradient id="New_Gradient_Swatch_1-13" x1="263.88" y1="33.67" x2="292.18" y2="33.67" xlink:href="#New_Gradient_Swatch_1"/><linearGradient id="New_Gradient_Swatch_1-14" x1="183.55" y1="145.74" x2="270.48" y2="145.74" xlink:href="#New_Gradient_Swatch_1"/><linearGradient id="New_Gradient_Swatch_1-15" x1="348.57" y1="81.1" x2="389.39" y2="81.1" xlink:href="#New_Gradient_Swatch_1"/><linearGradient id="New_Gradient_Swatch_1-16" x1="475.42" y1="79.62" x2="479.73" y2="79.62" xlink:href="#New_Gradient_Swatch_1"/><linearGradient id="New_Gradient_Swatch_1-17" x1="153.66" y1="43.29" x2="172.9" y2="43.29" xlink:href="#New_Gradient_Swatch_1"/><linearGradient id="New_Gradient_Swatch_1-18" x1="281.36" y1="46.33" x2="296.35" y2="46.33" xlink:href="#New_Gradient_Swatch_1"/><linearGradient id="New_Gradient_Swatch_1-19" x1="14.09" y1="51.27" x2="311.58" y2="51.27" xlink:href="#New_Gradient_Swatch_1"/><linearGradient id="New_Gradient_Swatch_1-20" x1="11.77" y1="71.05" x2="72.46" y2="71.05" xlink:href="#New_Gradient_Swatch_1"/><linearGradient id="New_Gradient_Swatch_1-21" x1="11.99" y1="82.73" x2="114.95" y2="82.73" xlink:href="#New_Gradient_Swatch_1"/><linearGradient id="New_Gradient_Swatch_1-22" x1="0" y1="112.71" x2="414.92" y2="112.71" xlink:href="#New_Gradient_Swatch_1"/><linearGradient id="New_Gradient_Swatch_1-23" x1="324.5" y1="134.42" x2="370.53" y2="134.42" xlink:href="#New_Gradient_Swatch_1"/><linearGradient id="New_Gradient_Swatch_1-24" x1="107.01" y1="86.64" x2="157.54" y2="86.64" xlink:href="#New_Gradient_Swatch_1"/><linearGradient id="New_Gradient_Swatch_1-25" x1="457.95" y1="104.78" x2="487.14" y2="104.78" xlink:href="#New_Gradient_Swatch_1"/><linearGradient id="New_Gradient_Swatch_1-26" x1="476.37" y1="110.91" x2="488.15" y2="110.91" xlink:href="#New_Gradient_Swatch_1"/><linearGradient id="New_Gradient_Swatch_1-27" x1="124.06" y1="106.79" x2="130.97" y2="106.79" xlink:href="#New_Gradient_Swatch_1"/><linearGradient id="New_Gradient_Swatch_1-28" x1="131.37" y1="106.79" x2="138.9" y2="106.79" xlink:href="#New_Gradient_Swatch_1"/><linearGradient id="New_Gradient_Swatch_1-29" x1="139.3" y1="106.79" x2="147.48" y2="106.79" xlink:href="#New_Gradient_Swatch_1"/><linearGradient id="New_Gradient_Swatch_1-30" x1="147.32" y1="106.79" x2="154.86" y2="106.79" xlink:href="#New_Gradient_Swatch_1"/><linearGradient id="New_Gradient_Swatch_1-31" x1="157.26" y1="106.79" x2="164.79" y2="106.79" xlink:href="#New_Gradient_Swatch_1"/><linearGradient id="New_Gradient_Swatch_1-32" x1="165.19" y1="106.79" x2="172.73" y2="106.79" xlink:href="#New_Gradient_Swatch_1"/><linearGradient id="New_Gradient_Swatch_1-33" x1="173.13" y1="106.79" x2="180.66" y2="106.79" xlink:href="#New_Gradient_Swatch_1"/><linearGradient id="New_Gradient_Swatch_1-34" x1="183.06" y1="106.79" x2="189.86" y2="106.79" xlink:href="#New_Gradient_Swatch_1"/><linearGradient id="New_Gradient_Swatch_1-35" x1="190.26" y1="106.79" x2="197.8" y2="106.79" xlink:href="#New_Gradient_Swatch_1"/><linearGradient id="New_Gradient_Swatch_1-36" x1="198.2" y1="106.79" x2="205.73" y2="106.79" xlink:href="#New_Gradient_Swatch_1"/><linearGradient id="New_Gradient_Swatch_1-37" x1="208.14" y1="106.79" x2="215.67" y2="106.79" xlink:href="#New_Gradient_Swatch_1"/><linearGradient id="New_Gradient_Swatch_1-38" x1="216.07" y1="106.79" x2="217.54" y2="106.79" xlink:href="#New_Gradient_Swatch_1"/><linearGradient id="New_Gradient_Swatch_1-39" x1="217.94" y1="106.79" x2="224.74" y2="106.79" xlink:href="#New_Gradient_Swatch_1"/><linearGradient id="New_Gradient_Swatch_1-40" x1="225.14" y1="106.79" x2="233.32" y2="106.79" xlink:href="#New_Gradient_Swatch_1"/><linearGradient id="New_Gradient_Swatch_1-41" x1="124.06" y1="116.76" x2="131.45" y2="116.76" xlink:href="#New_Gradient_Swatch_1"/><linearGradient id="New_Gradient_Swatch_1-42" x1="131.85" y1="116.39" x2="138.76" y2="116.39" xlink:href="#New_Gradient_Swatch_1"/><linearGradient id="New_Gradient_Swatch_1-43" x1="139.16" y1="116.39" x2="146.7" y2="116.39" xlink:href="#New_Gradient_Swatch_1"/><linearGradient id="New_Gradient_Swatch_1-44" x1="149.1" y1="116.39" x2="155.9" y2="116.39" xlink:href="#New_Gradient_Swatch_1"/><linearGradient id="New_Gradient_Swatch_1-45" x1="156.3" y1="116.39" x2="163.83" y2="116.39" xlink:href="#New_Gradient_Swatch_1"/><linearGradient id="New_Gradient_Swatch_1-46" x1="164.23" y1="116.38" x2="170.7" y2="116.38" xlink:href="#New_Gradient_Swatch_1"/><linearGradient id="New_Gradient_Swatch_1-47" x1="171.1" y1="116.39" x2="178.63" y2="116.39" xlink:href="#New_Gradient_Swatch_1"/><linearGradient id="New_Gradient_Swatch_1-48" x1="179.03" y1="116.39" x2="186.57" y2="116.39" xlink:href="#New_Gradient_Swatch_1"/><linearGradient id="New_Gradient_Swatch_1-49" x1="186.97" y1="116.39" x2="195.14" y2="116.39" xlink:href="#New_Gradient_Swatch_1"/><linearGradient id="New_Gradient_Swatch_1-50" x1="197.54" y1="116.76" x2="204.94" y2="116.76" xlink:href="#New_Gradient_Swatch_1"/><linearGradient id="New_Gradient_Swatch_1-51" x1="205.34" y1="116.39" x2="212.87" y2="116.39" xlink:href="#New_Gradient_Swatch_1"/><linearGradient id="New_Gradient_Swatch_1-52" x1="215.27" y1="116.39" x2="222.81" y2="116.39" xlink:href="#New_Gradient_Swatch_1"/><linearGradient id="New_Gradient_Swatch_1-53" x1="223.21" y1="116.39" x2="230.74" y2="116.39" xlink:href="#New_Gradient_Swatch_1"/><linearGradient id="New_Gradient_Swatch_1-54" x1="231.14" y1="116.39" x2="239.32" y2="116.39" xlink:href="#New_Gradient_Swatch_1"/><linearGradient id="New_Gradient_Swatch_1-55" x1="239.16" y1="116.76" x2="246.55" y2="116.76" xlink:href="#New_Gradient_Swatch_1"/><linearGradient id="New_Gradient_Swatch_1-56" x1="248.95" y1="116.39" x2="256.49" y2="116.39" xlink:href="#New_Gradient_Swatch_1"/><linearGradient id="New_Gradient_Swatch_1-57" x1="256.89" y1="116.39" x2="264.42" y2="116.39" xlink:href="#New_Gradient_Swatch_1"/></defs><title>divider_subtree_04</title><g id="Layer_2" data-name="Layer 2"><g id="Layer_1-2" data-name="Layer 1"><polygon class="cls-1" points="312.37 70.14 300.3 58.06 300.3 37.75 280.18 17.63 169.51 17.63 165.38 21.76 35.03 21.76 15.37 41.42 14.9 40.95 34.75 21.09 165.1 21.09 169.24 16.96 280.46 16.96 300.97 37.47 300.97 57.79 312.85 69.67 312.37 70.14"/><polygon class="cls-2" points="314.83 149.01 276.64 149.01 267.68 140.05 69.52 140.05 56.74 127.27 22.92 127.27 14.9 119.25 15.37 118.78 23.2 126.6 57.02 126.6 69.79 139.38 267.96 139.38 276.91 148.34 314.56 148.34 323.83 139.06 323.83 128.16 324.5 128.16 324.5 139.34 314.83 149.01"/><polygon class="cls-3" points="483.62 108.82 418.3 108.82 386.32 76.84 324.17 76.84 324.17 76.17 386.6 76.17 418.57 108.15 482.95 108.15 482.95 31.64 483.62 31.64 483.62 108.82"/><polygon class="cls-4" points="31.09 25.22 97.39 25.22 101.19 21.43 34.89 21.43 31.09 25.22"/><path class="cls-5" d="M19,122.9H30s4.72,4.16,4.16,4.16-10.78.31-11.09,0Z"/><path class="cls-6" d="M65.56,135.54h11s4.73,4.16,4.16,4.16-10.78.31-11.09,0Z"/><polygon class="cls-7" points="289.94 46.54 161.76 46.54 156.32 41.1 156.32 32.56 161.78 27.11 162.25 27.58 156.99 32.84 156.99 40.82 162.04 45.87 289.67 45.87 295.54 40 296.01 40.47 289.94 46.54"/><polygon class="cls-8" points="173.34 20.01 159.76 33.59 159.76 39.01 164.35 43.6 188.13 19.82 173.34 20.01"/><path class="cls-9" d="M171,43.6,194.61,20H212c-.11,0-23.52,23.52-23.52,23.52Z"/><path class="cls-10" d="M194.24,43.6,217.82,20h17.41c-.11,0-23.53,23.52-23.53,23.52Z"/><path class="cls-11" d="M217.45,43.6,241,20h17.4c-.11,0-23.52,23.52-23.52,23.52Z"/><path class="cls-12" d="M240.67,43.6,264.25,20H281c-.11,0-22.86,23.52-22.86,23.52Z"/><path class="cls-13" d="M283.74,23.74,263.88,43.6l17.47-.06s5.07-5.1,10.83-10.87Z"/><polyline class="cls-14" points="183.55 144.01 267.04 144.01 270.48 147.46"/><polyline class="cls-15" points="348.57 79.13 385.45 79.13 389.39 83.07"/><polyline class="cls-16" points="475.42 104.17 479.73 104.17 479.73 55.07"/><circle class="cls-17" cx="483.28" cy="11.34" r="4.1"/><path class="cls-17" d="M483.28,22.68a11.34,11.34,0,1,1,11.35-11.34A11.35,11.35,0,0,1,483.28,22.68Zm0-22A10.67,10.67,0,1,0,494,11.34,10.69,10.69,0,0,0,483.28.67Z"/><polygon class="cls-18" points="172.9 49.6 160.66 49.6 153.66 42.59 153.66 36.98 154.32 36.98 154.32 42.31 160.94 48.93 172.9 48.93 172.9 49.6"/><polygon class="cls-19" points="291.13 49.18 281.37 49.18 281.37 48.51 290.85 48.51 295.88 43.48 296.36 43.95 291.13 49.18"/><g class="cls-20"><polygon class="cls-21" points="14.1 48.88 34.49 28.48 99.45 28.48 103.81 24.13 159.94 24.13 153.18 30.89 151.58 30.89 151.58 44.13 159.42 51.96 179.06 51.96 181.85 49.17 277.81 49.17 281.54 52.9 292.87 52.9 296.49 49.28 298.35 49.28 298.35 59.18 311.58 72.41 305.58 78.42 60.51 78.42 55.25 73.16 14.1 73.16 14.1 48.88"/></g><polygon class="cls-22" points="13.91 63.64 11.77 65.78 11.77 75.99 57.82 75.99 60.28 78.46 72.46 78.46 70.17 76.17 61.38 76.17 56.07 70.85 43.48 70.85 41.53 68.91 19.54 68.91 17.49 66.86 15.63 66.86 15.63 64.59 13.91 63.64"/><polygon class="cls-23" points="11.99 79.84 58.42 79.84 60.84 82.25 80.94 82.25 84.74 78.46 114.95 78.46 112.6 80.81 112.6 84.03 109.63 87 50.77 87 48.29 84.52 16.23 84.52 11.99 79.84"/><g class="cls-20"><polygon class="cls-24" points="0 84.81 6.48 84.81 10.16 81.13 15.54 86.52 46.15 86.52 49 89.37 111.2 89.37 115.86 84.7 115.86 82.18 117.03 81.02 305.62 81.02 308.23 83.63 342.85 83.63 345.94 80.54 349.77 80.54 392.46 86.71 414.92 109.18 414.92 120.63 390.92 144.62 332.13 144.62 332.13 124.23 319.95 124.23 319.95 136.03 311.09 144.88 278.03 144.88 267.71 134.56 82.45 134.56 78.84 130.96 66.14 130.96 57.87 122.69 34.2 122.69 30.83 119.33 19.49 119.33 13.52 113.35 6.72 113.35 0.03 106.66 0 84.81"/></g><polygon class="cls-25" points="324.5 124.23 326.9 121.83 334.52 121.83 334.52 142.31 353.57 142.31 353.94 142.68 368.68 142.68 370.53 144.53 369.38 145.68 349.09 145.68 347.77 147 336.61 147 335.27 145.66 331.01 145.66 331.01 133.4 332.06 132.35 332.06 126.96 330.12 125.03 325.55 125.03 324.5 124.23"/><polygon class="cls-26" points="111.2 89.37 115.86 84.7 115.86 82.18 117.03 81.02 157.54 81.02 156.58 81.98 138.39 81.98 136.5 83.86 120.74 83.86 118.15 86.45 118.15 88.31 114.2 92.26 108.02 92.26 107.01 91.25 107.01 89.55 111.2 89.37"/><polygon class="cls-27" points="487.14 112.33 457.95 112.33 457.95 111.75 486.55 111.75 486.55 97.23 487.14 97.23 487.14 112.33"/><polygon class="cls-28" points="486.85 108.04 488.15 109.34 488.15 113.79 478.26 113.79 476.37 111.9 486.72 111.9 486.85 108.04"/><path class="cls-17" d="M78.9,70.16h-14l-3.87-3.93V55.86H77l1.93,3.93h-14v6.44h14Z"/><path class="cls-17" d="M95.89,70.16h-12L80,66.23V55.86H95.89l3.84,3.93,0,10.37-3.86-3.93V59.79h-12v6.44h12Z"/><path class="cls-17" d="M105.25,55.86v7.71l-4.45,2.64V55.86ZM100.8,66.21h17l-3.86,3.91H100.8Z"/><path class="cls-17" d="M134.74,70.16H122.68l-3.86-3.93V55.86h15.92l3.84,3.93,0,10.37-3.86-3.93V59.79H122.68v6.44h12.06Z"/><path class="cls-17" d="M143.52,55.86V66.23h12v3.93h-12l-3.87-3.93V55.86Zm12,0h3.86v14.3l-3.86-3.93Z"/><path class="cls-17" d="M164.87,64.83v5.33h-4.39V60.9h15.9V59.79h-12l-3.87-3.93h19.77v9h-6.68L182,70.12h-6.56l-8.84-5.29Z"/><path class="cls-17" d="M188.25,66.3V55.92l3.86,3.93v1.09h14.3l-2.92,4H192.11V70.2Zm3.86-10.38h19.78V70.2H208V59.85h-15.9Z"/><path class="cls-17" d="M217.39,55.86v7.71l-4.45,2.64V55.86Zm-4.45,10.35h17l-3.86,3.91H212.94Z"/><path class="cls-17" d="M244.06,55.86l-3.86,3.93H224.66V55.86Zm-8.59,16.25L231,68.19v-8.4l4.47,2.64Z"/><path class="cls-17" d="M260.36,64.83H249v1.4h14.28v3.93H249l-3.87-3.93V55.86L249,59.79v1.09h14.3Zm4.54-9L261,59.79H249V55.86Z"/><path class="cls-17" d="M270.33,64.83v5.33H266V60.9h15.89V59.79h-12L266,55.86h19.76v9H279l8.38,5.29h-6.56L272,64.83Z"/><path class="cls-29" d="M125.53,104.07V106h4l-1.12,1.5h-2.85v2h-1.47v-5.45Zm4,0H131v5.45H129.5v-5.45Z"/><path class="cls-30" d="M137.18,107.48h-4.34V108h5.44v1.5h-5.44l-1.47-1.5v-4l1.47,1.49V106h5.45Zm1.72-3.41-1.48,1.49h-4.58v-1.49Z"/><path class="cls-31" d="M141,107.48v2H139.3V106h6.06v-.43h-4.58l-1.48-1.49h7.53v3.41h-2.54l3.19,2H145l-3.36-2Z"/><path class="cls-32" d="M153.13,107.48h-4.34V108h5.44v1.5h-5.44l-1.47-1.5v-4l1.47,1.49V106h5.45Zm1.73-3.41-1.48,1.49h-4.59v-1.49Z"/><path class="cls-33" d="M164.79,104.07V106l-1.48,1.32h-4.58L157.26,106v-1.92h1.47V106h4.58v-1.92Zm-7.53,4h6.05v-.71h1.48V108l-1.48,1.5h-6.05Z"/><path class="cls-34" d="M171.26,109.52h-4.6l-1.47-1.5v-4h6.07l1.46,1.49v4l-1.47-1.5v-2.46h-4.6V108h4.6Z"/><path class="cls-35" d="M174.6,104.07v4h4.59v1.5H174.6l-1.47-1.5v-4Zm4.59,0h1.47v5.45l-1.47-1.5Z"/><path class="cls-36" d="M189.86,109.52h-5.32l-1.48-1.5v-4h6.07l.73,1.49h-5.32V108h5.32Z"/><path class="cls-37" d="M190.26,104.07h7.54v5.45h-1.48v-1.33h-4.38v1.33h-1.68v-3.08l1.68-.88v2.32l.88-1.19h3.5v-1.13h-4.38Z"/><path class="cls-38" d="M198.2,109.52v-5.45l1.47,1.49v4Zm6.06-5.45,1.47,1.49v4h-1.47v-4h-4.59v-1.49Z"/><path class="cls-39" d="M208.14,104.07h6.05v1.49h-4.58Zm0,5.45V106h1.67v3.53Zm6.05-4,1.48-1.49v3.41h-5.22V106h3.74Z"/><path class="cls-40" d="M217.54,104.07v5.45h-1.47v-5.45Z"/><path class="cls-41" d="M224.74,109.52h-5.33l-1.47-1.5v-4H224l.73,1.49h-5.33V108h5.33Z"/><path class="cls-42" d="M225.14,109.52v-5.45h1.67v5.45Zm5-2,3.19,2h-2.5l-3.36-2V106h3.74v-1.92h1.47v3.41Z"/><path class="cls-43" d="M131.45,113.67,130,115.16h-5.92v-1.49Zm-3.27,6.19-1.71-1.5v-3.2l1.71,1Z"/><path class="cls-44" d="M133.32,113.67v1.91h4l-1.11,1.5h-2.86v2h-1.47v-5.45Zm4,0h1.47v5.45h-1.47v-5.45Z"/><path class="cls-45" d="M145,117.08h-4.34v.54h5.44v1.5h-5.44l-1.47-1.5v-4l1.47,1.49v.42h5.45Zm1.73-3.41-1.48,1.49h-4.59v-1.49Z"/><path class="cls-46" d="M155.89,119.12h-5.32l-1.47-1.5v-4h6.06l.74,1.49h-5.33v2.46h5.32Z"/><path class="cls-47" d="M162.36,119.12h-4.59l-1.47-1.5v-4h6.06l1.46,1.49v4l-1.47-1.5v-2.46h-4.59v2.46h4.59Z"/><path class="cls-48" d="M165.93,113.67v2.93l-1.7,1v-3.94Zm-1.7,3.94h6.47l-1.48,1.49h-5Z"/><path class="cls-49" d="M177.16,119.12h-4.59l-1.47-1.5v-4h6.06l1.46,1.49v4l-1.47-1.5v-2.46h-4.59v2.46h4.59Z"/><path class="cls-50" d="M180.5,113.67v4h4.6v1.5h-4.6l-1.47-1.5v-4Zm4.6,0h1.47v5.45l-1.47-1.5Z"/><path class="cls-51" d="M188.64,117.08v2H187v-3.53H193v-.43h-4.58L187,113.67h7.53v3.41H192l3.19,2h-2.49l-3.37-2Z"/><path class="cls-52" d="M204.94,113.67l-1.48,1.49h-5.92v-1.49Zm-3.28,6.19-1.7-1.5v-3.2l1.7,1Z"/><path class="cls-53" d="M211.4,119.12h-4.59l-1.47-1.5v-4h6.06l1.46,1.49v4l-1.47-1.5v-2.46h-4.59v2.46h4.59Z"/><path class="cls-54" d="M216.74,115.16v.43h6.07v3.53h-7.54l1.47-1.5h4.59v-.54h-6.06v-3.41Zm6.07-1.49-1.48,1.49h-4.59v-1.49Z"/><path class="cls-55" d="M229.27,119.12h-4.59l-1.47-1.5v-4h6.06l1.46,1.49v4l-1.47-1.5v-2.46h-4.59v2.46h4.59Z"/><path class="cls-56" d="M232.81,117.08v2h-1.67v-3.53h6.06v-.43h-4.59l-1.47-1.49h7.53v3.41h-2.54l3.19,2h-2.5l-3.36-2Z"/><path class="cls-57" d="M246.55,113.67l-1.47,1.49h-5.92v-1.49Zm-3.27,6.19-1.7-1.5v-3.2l1.7,1Z"/><path class="cls-58" d="M256.49,113.67v1.92l-1,1,1,.52v2h-5.23v-1.5H255v-.54h-4.39v2H249v-3.53H255v-.43h-4.59L249,113.67Z"/><path class="cls-59" d="M264.42,113.67v1.92l-1.48,1.32h-4.58l-1.47-1.32v-1.92h1.47v1.92h4.58v-1.92Zm-7.53,4h6.05v-.71h1.48v.71l-1.48,1.5h-6.05Z"/></g></g></svg>