<svg xmlns="http://www.w3.org/2000/svg" viewBox="0 0 490.41 152.31"><defs><style>.cls-1{fill:#17cffc;}.cls-2{opacity:0.22;}</style></defs><title>filter_category_blue</title><g id="Layer_2" data-name="Layer 2"><g id="Layer_1-2" data-name="Layer 1"><polygon class="cls-1" points="377.42 72.56 376.8 71.94 383.31 65.42 383.31 15.42 372.64 4.75 215.17 4.75 208.18 11.74 18.47 11.74 3.44 26.77 2.82 26.15 18.11 10.86 207.81 10.86 214.8 3.87 373.01 3.87 384.19 15.05 384.19 65.79 377.42 72.56"/><g class="cls-2"><path class="cls-1" d="M3.13,39.12,20.39,21.86h195l6.27-6.27h148l7.79,7.79V62.52L362.74,77.23H265l-7.57-7.57H62.81s-5.16-6.88-6.88-6.88H3.13Z"/></g><circle class="cls-1" cx="199.86" cy="3.13" r="3.13"/><path class="cls-1" d="M374.32,72.25a3.13,3.13,0,1,1,3.13,3.13A3.14,3.14,0,0,1,374.32,72.25Z"/><circle class="cls-1" cx="180.57" cy="3.13" r="3.13"/><circle class="cls-1" cx="161.29" cy="3.13" r="3.13"/><circle class="cls-1" cx="142.01" cy="3.13" r="3.13"/><circle class="cls-1" cx="122.73" cy="3.13" r="3.13"/><path class="cls-1" d="M100.31,3.13a3.14,3.14,0,1,1,3.14,3.13A3.14,3.14,0,0,1,100.31,3.13Z"/><path class="cls-1" d="M81,3.13a3.14,3.14,0,1,1,3.13,3.13A3.13,3.13,0,0,1,81,3.13Z"/><circle class="cls-1" cx="64.88" cy="3.13" r="3.13"/><circle class="cls-1" cx="45.6" cy="3.13" r="3.13"/><circle class="cls-1" cx="26.32" cy="3.13" r="3.13"/><circle class="cls-1" cx="3.13" cy="26.83" r="3.13"/><path class="cls-1" d="M3.13,58.1H56.52l4,4h8.94l6.29,6.3h114L191,69.62H151.53L148.16,73H77.4l-3.22-3.21H62.85S56,62.9,56,62.9,3,63.13,3,62.9,3.13,58.1,3.13,58.1Z"/><polygon class="cls-1" points="388.29 19.5 387.4 19.5 387.4 13.5 375.41 1.5 359.34 1.5 359.34 0.62 375.77 0.62 388.29 13.13 388.29 19.5"/><rect class="cls-1" x="154.72" y="74.88" width="99.05" height="0.88"/><polygon class="cls-1" points="466.61 134.92 242.4 134.92 242.27 134.79 202.55 95.08 202.55 80.03 203.43 80.03 203.43 94.71 242.76 134.04 466.24 134.04 480.98 119.31 481.6 119.93 466.61 134.92"/><path class="cls-1" d="M483.05,113.29a3.68,3.68,0,1,1,3.68,3.68A3.68,3.68,0,0,1,483.05,113.29Z"/><path class="cls-1" d="M203,88.71l1.71,1.71v4.25L216,105.94a14.89,14.89,0,0,1,0,1.89l-13-13Z"/><path class="cls-1" d="M238.53,130.43v2.14l4,4h30.72s2.65-2.65,2.27-2.26-32.95,0-32.95,0Z"/><path class="cls-1" d="M264.44,33.16v34c-2.69-2.66-5.59-5.53-7.39-7.36V33.16Z"/><rect class="cls-1" x="269.96" y="25.28" width="7.4" height="48.27"/><rect class="cls-1" x="282.88" y="57.81" width="7.4" height="15.75"/><rect class="cls-1" x="295.79" y="34.41" width="7.4" height="39.15"/><rect class="cls-1" x="308.7" y="46.41" width="7.4" height="27.15"/><rect class="cls-1" x="321.62" y="23.96" width="7.4" height="49.6"/><rect class="cls-1" x="334.53" y="26.9" width="7.4" height="46.65"/><rect class="cls-1" x="347.45" y="47.65" width="7.4" height="25.9"/><polygon class="cls-1" points="367.75 55.6 367.75 66.3 360.49 73.55 360.36 73.55 360.36 55.6 367.75 55.6"/><polygon class="cls-1" points="349.14 120.22 253.88 120.22 248.43 123.22 248.43 126.91 278.75 126.91 279.94 128.3 351.26 128.3 353.6 126.91 349.14 120.22"/><polygon class="cls-1" points="420.96 105.33 367.19 105.33 365.42 109.28 422.74 109.28 420.96 105.33"/><path class="cls-1" d="M443.74,130.18H310.39a.22.22,0,0,1-.21-.21.21.21,0,0,1,.21-.21H443.74a.21.21,0,0,1,.21.21A.22.22,0,0,1,443.74,130.18Z"/><path class="cls-1" d="M361.18,124.35h-6.45c-.13,0-.17-.1-.11-.23l5.52-9.89a.48.48,0,0,1,.36-.23H367c.13,0,.18.11.11.23l-5.52,9.89A.46.46,0,0,1,361.18,124.35Z"/><path class="cls-1" d="M370.76,124.35h-6.45c-.12,0-.17-.1-.1-.23l5.51-9.89a.48.48,0,0,1,.36-.23h6.45c.13,0,.18.11.11.23l-5.51,9.89A.47.47,0,0,1,370.76,124.35Z"/><path class="cls-1" d="M380.35,124.35H373.9c-.13,0-.18-.1-.11-.23l5.51-9.89a.48.48,0,0,1,.36-.23h6.45c.13,0,.18.11.11.23l-5.51,9.89A.47.47,0,0,1,380.35,124.35Z"/><path class="cls-1" d="M389.93,124.35h-6.45c-.13,0-.18-.1-.11-.23l5.51-9.89a.48.48,0,0,1,.36-.23h6.45c.13,0,.18.11.11.23l-5.51,9.89A.46.46,0,0,1,389.93,124.35Z"/><path class="cls-1" d="M399.51,124.35h-6.45c-.13,0-.18-.1-.11-.23l5.51-9.89a.5.5,0,0,1,.36-.23h6.45c.13,0,.18.11.11.23l-5.51,9.89A.46.46,0,0,1,399.51,124.35Z"/><path class="cls-1" d="M409.09,124.35h-6.45c-.13,0-.18-.1-.11-.23l5.51-9.89a.5.5,0,0,1,.37-.23h6.45c.12,0,.17.11.1.23l-5.51,9.89A.46.46,0,0,1,409.09,124.35Z"/><g class="cls-2"><path class="cls-1" d="M418.67,124.35h-6.45c-.13,0-.18-.1-.11-.23l5.52-9.89A.48.48,0,0,1,418,114h6.45c.13,0,.17.11.1.23L419,124.12A.46.46,0,0,1,418.67,124.35Z"/></g><g class="cls-2"><path class="cls-1" d="M428.25,124.35H421.8c-.13,0-.17-.1-.11-.23l5.52-9.89a.48.48,0,0,1,.36-.23H434c.13,0,.18.11.11.23l-5.52,9.89A.46.46,0,0,1,428.25,124.35Z"/></g><g class="cls-2"><path class="cls-1" d="M437.83,124.35h-6.45c-.12,0-.17-.1-.1-.23l5.51-9.89a.48.48,0,0,1,.36-.23h6.45c.13,0,.18.11.11.23l-5.52,9.89A.44.44,0,0,1,437.83,124.35Z"/></g><path class="cls-1" d="M439.78,127.43H286.06a.42.42,0,0,1-.42-.42.41.41,0,0,1,.42-.41h153.2l5.64-11.52a.42.42,0,0,1,.56-.19.42.42,0,0,1,.19.56Z"/><path class="cls-1" d="M443.32,124.76a.57.57,0,0,1-.18,0,.42.42,0,0,1-.2-.56l5.29-11.53H376.59a.42.42,0,0,1-.42-.42.41.41,0,0,1,.42-.41h72.94l-5.83,12.71A.43.43,0,0,1,443.32,124.76Z"/><path class="cls-1" d="M297.36,131.72h-37a.2.2,0,0,1-.2-.2.2.2,0,0,1,.2-.21h37a.21.21,0,0,1,.21.21A.2.2,0,0,1,297.36,131.72Z"/><path class="cls-1" d="M260.35,132.14h-16V121.61l12.26-8.23h20a.63.63,0,0,1,0,1.25H257l-11.39,7.65v8.61h14.71a.63.63,0,1,1,0,1.25Z"/><path class="cls-1" d="M348.51,114.21H276.68a.21.21,0,0,1-.21-.21.2.2,0,0,1,.21-.2h71.83a.2.2,0,0,1,.21.2A.21.21,0,0,1,348.51,114.21Z"/><path class="cls-1" d="M353.36,117.93H262a.63.63,0,0,1,0-1.25h90.63l5-8h72.86a.63.63,0,0,1,0,1.25H358.39Z"/><polygon class="cls-1" points="229.37 150.49 79.89 150.49 42.08 112.67 43.01 111.74 80.44 149.16 228.82 149.16 240.55 137.43 241.49 138.37 229.37 150.49"/><path class="cls-1" d="M34.38,107.6a3.68,3.68,0,1,1,3.68,3.68A3.68,3.68,0,0,1,34.38,107.6Z"/><path class="cls-1" d="M68.73,138.39h4.58s8.4,8.7,8.7,8.7h34.15l2.67,2.67H80.16Z"/><path class="cls-1" d="M84.3,149.76s2.38,2,2.38,2.38,61.35,0,61.35,0,2.54-2.27,2.26-2.27H85.68Z"/></g></g></svg>