<svg xmlns="http://www.w3.org/2000/svg" xmlns:xlink="http://www.w3.org/1999/xlink" viewBox="0 0 496.48 139.12"><defs><style>.cls-1,.cls-2,.cls-3,.cls-4,.cls-5,.cls-6,.cls-7{fill:#00d0ff;}.cls-2{opacity:0.7;}.cls-3{opacity:0.6;}.cls-4{opacity:0.8;}.cls-5{opacity:0.5;}.cls-6{opacity:0.3;}.cls-7{opacity:0.4;}.cls-8{clip-path:url(#clip-path);}</style><clipPath id="clip-path" transform="translate(0 5.64)"><path id="SVGID" class="cls-1" d="M463.31,116.93a.47.47,0,0,1-.32-.14.46.46,0,0,1,0-.65l32.56-32.57V.93H223.05a.47.47,0,0,1,0-.93H496a.47.47,0,0,1,.47.46v83.3a.45.45,0,0,1-.14.33l-32.7,32.7A.47.47,0,0,1,463.31,116.93Z"/></clipPath></defs><title>frame_empty_blue</title><g id="Layer_2" data-name="Layer 2"><g id="Layer_1-2" data-name="Layer 1"><polygon class="cls-2" points="118.12 139.12 142.52 139.12 154.29 123.34 129.89 123.34 118.12 139.12"/><polygon class="cls-3" points="87.02 139.12 111.42 139.12 123.18 123.34 98.78 123.34 87.02 139.12"/><polygon class="cls-4" points="185.4 123.34 161 123.34 149.23 139.12 173.63 139.12 185.4 123.34"/><polygon class="cls-5" points="55.91 139.12 80.31 139.12 92.08 123.34 67.68 123.34 55.91 139.12"/><polygon class="cls-6" points="4.47 123.34 4.47 139.12 18.09 139.12 29.86 123.34 4.47 123.34"/><polygon class="cls-1" points="180.34 139.12 201.69 139.12 213.1 123.34 192.1 123.34 180.34 139.12"/><polygon class="cls-7" points="24.8 139.12 49.2 139.12 60.97 123.34 36.57 123.34 24.8 139.12"/><polygon class="cls-2" points="118.12 139.12 142.52 139.12 154.29 123.34 129.89 123.34 118.12 139.12"/><polygon class="cls-3" points="87.02 139.12 111.42 139.12 123.18 123.34 98.78 123.34 87.02 139.12"/><polygon class="cls-4" points="185.4 123.34 161 123.34 149.23 139.12 173.63 139.12 185.4 123.34"/><polygon class="cls-5" points="55.91 139.12 80.31 139.12 92.08 123.34 67.68 123.34 55.91 139.12"/><polygon class="cls-6" points="4.47 123.34 4.47 139.12 18.09 139.12 29.86 123.34 4.47 123.34"/><polygon class="cls-7" points="24.8 139.12 49.2 139.12 60.97 123.34 36.57 123.34 24.8 139.12"/><polygon class="cls-2" points="260.98 10.14 251.18 10.14 246.45 6.55 256.25 6.55 260.98 10.14"/><polygon class="cls-3" points="273.47 10.14 263.67 10.14 258.95 6.55 268.74 6.55 273.47 10.14"/><polygon class="cls-4" points="233.96 6.55 243.76 6.55 248.48 10.14 238.69 10.14 233.96 6.55"/><polygon class="cls-5" points="285.96 10.14 276.17 10.14 271.44 6.55 281.24 6.55 285.96 10.14"/><polygon class="cls-1" points="235.99 10.14 227.42 10.14 222.83 6.55 231.26 6.55 235.99 10.14"/><polygon class="cls-7" points="298.46 10.14 288.66 10.14 283.93 6.55 293.73 6.55 298.46 10.14"/><polygon class="cls-2" points="260.98 10.14 251.18 10.14 246.45 6.55 256.25 6.55 260.98 10.14"/><polygon class="cls-3" points="273.47 10.14 263.67 10.14 258.95 6.55 268.74 6.55 273.47 10.14"/><polygon class="cls-4" points="233.96 6.55 243.76 6.55 248.48 10.14 238.69 10.14 233.96 6.55"/><polygon class="cls-5" points="285.96 10.14 276.17 10.14 271.44 6.55 281.24 6.55 285.96 10.14"/><polygon class="cls-7" points="298.46 10.14 288.66 10.14 283.93 6.55 293.73 6.55 298.46 10.14"/><path class="cls-1" d="M454.89,112.75H5.51a.93.93,0,0,1-.93-.92V9.6a.93.93,0,0,1,.93-.92H487.05a.93.93,0,0,1,.93.92V79.66a1,1,0,0,1-.27.66l-32.17,32.16A.89.89,0,0,1,454.89,112.75ZM6.43,110.9H454.5l31.63-31.62V10.53H6.43Z" transform="translate(0 5.64)"/><path id="SVGID-2" data-name="SVGID" class="cls-1" d="M463.31,116.93a.47.47,0,0,1-.32-.14.46.46,0,0,1,0-.65l32.56-32.57V.93H223.05a.47.47,0,0,1,0-.93H496a.47.47,0,0,1,.47.46v83.3a.45.45,0,0,1-.14.33l-32.7,32.7A.47.47,0,0,1,463.31,116.93Z" transform="translate(0 5.64)"/><g class="cls-8"><rect class="cls-1" x="222.59" y="5.64" width="273.89" height="116.93"/><path class="cls-1" d="M254.24,58.46a217.84,217.84,0,0,1,8.28-60.17v.78h194v-.78a217.84,217.84,0,0,1,8.27,60.17,217.91,217.91,0,0,1-8.27,60.18v-.79h-194v.79A217.91,217.91,0,0,1,254.24,58.46Z" transform="translate(0 5.64)"/><path class="cls-1" d="M306.89,58.46c0-21.34,5.89-40.67,15.42-54.66a64.49,64.49,0,0,1,7.79-9.44V-.93H389V-5.64a64.49,64.49,0,0,1,7.79,9.44c9.52,14,15.42,33.32,15.42,54.66s-5.9,40.67-15.42,54.66a64,64,0,0,1-7.79,9.44v-4.71H330.1v4.71a64,64,0,0,1-7.79-9.44C312.78,99.13,306.89,79.81,306.89,58.46Z" transform="translate(0 5.64)"/></g><polygon class="cls-5" points="5.51 90.43 11.7 82.17 11.7 20.9 83.99 20.9 95 14.7 5.51 15.24 5.51 90.43"/><polygon class="cls-5" points="480.18 15.05 480.18 82.17 452.3 110.57 360.39 110.57 352.65 117.28 454.89 117.28 487.05 85.3 487.05 15.24 480.18 15.05"/><polygon class="cls-1" points="4.47 79.07 2.41 73.91 2.41 36.05 0 30.19 0 9.2 28.23 9.2 25.13 11.95 80.89 11.95 79.17 14.7 4.47 14.7 4.47 79.07"/></g></g></svg>