<svg xmlns="http://www.w3.org/2000/svg" xmlns:xlink="http://www.w3.org/1999/xlink" viewBox="0 0 490.54 467.6"><defs><style>.cls-1{mask:url(#mask);filter:url(#luminosity-noclip-8);}.cls-10,.cls-2,.cls-4,.cls-6,.cls-8{mix-blend-mode:multiply;}.cls-2{fill:url(#Безымянный_градиент_2);}.cls-11,.cls-3{mask:url(#mask-2);}.cls-4{fill:url(#linear-gradient);}.cls-12,.cls-5{mask:url(#mask-3);}.cls-6{fill:url(#linear-gradient-2);}.cls-7{mask:url(#mask-4);filter:url(#luminosity-noclip-9);}.cls-8{fill:url(#linear-gradient-3);}.cls-9{mask:url(#mask-5);filter:url(#luminosity-noclip-10);}.cls-10{fill:url(#linear-gradient-4);}.cls-11{filter:url(#luminosity-noclip-11);}.cls-12{filter:url(#luminosity-noclip-12);}.cls-13{opacity:0.5;}.cls-14,.cls-16,.cls-17,.cls-19,.cls-20,.cls-21,.cls-22{fill:#11e5b3;}.cls-15{mask:url(#mask-8);}.cls-16,.cls-18{opacity:0.55;}.cls-17{opacity:0.68;}.cls-19{opacity:0.8;}.cls-20{opacity:0.6;}.cls-21,.cls-25{opacity:0.4;}.cls-22{opacity:0.1;}.cls-23{mask:url(#mask-9);}.cls-24{mask:url(#mask-10);}.cls-26{mask:url(#mask-11);}.cls-27{mask:url(#mask-12);}.cls-28{filter:url(#luminosity-noclip-5);}.cls-29{filter:url(#luminosity-noclip-4);}.cls-30{filter:url(#luminosity-noclip-3);}.cls-31{filter:url(#luminosity-noclip-2);}.cls-32{filter:url(#luminosity-noclip);}</style><filter id="luminosity-noclip" x="20.54" y="-8425.98" width="451.66" height="32766" filterUnits="userSpaceOnUse" color-interpolation-filters="sRGB"><feFlood flood-color="#fff" result="bg"/><feBlend in="SourceGraphic" in2="bg"/></filter><mask id="mask" x="20.54" y="-8425.98" width="451.66" height="32766" maskUnits="userSpaceOnUse"><g class="cls-32"/></mask><radialGradient id="Безымянный_градиент_2" cx="229.13" cy="331.58" r="255.93" gradientTransform="translate(44.19 -59.05) scale(0.88)" gradientUnits="userSpaceOnUse"><stop offset="0.59" stop-color="#fff"/><stop offset="0.81" stop-color="gray"/><stop offset="0.9" stop-color="#4d4d4d"/><stop offset="1"/></radialGradient><filter id="luminosity-noclip-2" x="267.63" y="-8425.98" width="95.04" height="32766" filterUnits="userSpaceOnUse" color-interpolation-filters="sRGB"><feFlood flood-color="#fff" result="bg"/><feBlend in="SourceGraphic" in2="bg"/></filter><mask id="mask-2" x="267.63" y="-8425.98" width="95.04" height="32766" maskUnits="userSpaceOnUse"><g class="cls-31"/></mask><linearGradient id="linear-gradient" x1="330.92" y1="148.56" x2="268.22" y2="211.27" gradientUnits="userSpaceOnUse"><stop offset="0" stop-color="#fff"/><stop offset="0.03" stop-color="#ededed"/><stop offset="0.14" stop-color="#b6b6b6"/><stop offset="0.26" stop-color="#868686"/><stop offset="0.37" stop-color="#5d5d5d"/><stop offset="0.49" stop-color="#3b3b3b"/><stop offset="0.61" stop-color="#212121"/><stop offset="0.73" stop-color="#0f0f0f"/><stop offset="0.86" stop-color="#040404"/><stop offset="1"/></linearGradient><filter id="luminosity-noclip-3" x="130.6" y="-8425.98" width="95.04" height="32766" filterUnits="userSpaceOnUse" color-interpolation-filters="sRGB"><feFlood flood-color="#fff" result="bg"/><feBlend in="SourceGraphic" in2="bg"/></filter><mask id="mask-3" x="130.6" y="-8425.98" width="95.04" height="32766" maskUnits="userSpaceOnUse"><g class="cls-30"/></mask><linearGradient id="linear-gradient-2" x1="-855.72" y1="-843.62" x2="-918.42" y2="-780.91" gradientTransform="translate(-693.37 -526.48) rotate(180)" xlink:href="#linear-gradient"/><filter id="luminosity-noclip-4" x="261.19" y="-8425.98" width="65.91" height="32766" filterUnits="userSpaceOnUse" color-interpolation-filters="sRGB"><feFlood flood-color="#fff" result="bg"/><feBlend in="SourceGraphic" in2="bg"/></filter><mask id="mask-4" x="261.19" y="-8425.98" width="65.91" height="32766" maskUnits="userSpaceOnUse"><g class="cls-29"/></mask><linearGradient id="linear-gradient-3" x1="305.09" y1="174.39" x2="261.6" y2="217.88" xlink:href="#linear-gradient"/><filter id="luminosity-noclip-5" x="166.16" y="-8425.98" width="65.91" height="32766" filterUnits="userSpaceOnUse" color-interpolation-filters="sRGB"><feFlood flood-color="#fff" result="bg"/><feBlend in="SourceGraphic" in2="bg"/></filter><mask id="mask-5" x="166.16" y="-8425.98" width="65.91" height="32766" maskUnits="userSpaceOnUse"><g class="cls-28"/></mask><linearGradient id="linear-gradient-4" x1="-881.55" y1="-817.79" x2="-925.04" y2="-774.3" gradientTransform="translate(-693.37 -526.48) rotate(180)" xlink:href="#linear-gradient"/><filter id="luminosity-noclip-8" x="20.54" y="7.71" width="451.66" height="451.66" filterUnits="userSpaceOnUse" color-interpolation-filters="sRGB"><feFlood flood-color="#fff" result="bg"/><feBlend in="SourceGraphic" in2="bg"/></filter><mask id="mask-8" x="20.54" y="7.71" width="451.66" height="451.66" maskUnits="userSpaceOnUse"><g class="cls-1"><path class="cls-2" d="M472.2,233.54A225.83,225.83,0,0,0,246.37,7.71V59.49a174,174,0,0,1,174,174Zm-225.83,174a174,174,0,0,1-174-174H20.54A225.83,225.83,0,0,0,246.37,459.37Z"/></g></mask><filter id="luminosity-noclip-9" x="261.19" y="153.19" width="65.91" height="64.28" filterUnits="userSpaceOnUse" color-interpolation-filters="sRGB"><feFlood flood-color="#fff" result="bg"/><feBlend in="SourceGraphic" in2="bg"/></filter><mask id="mask-9" x="261.19" y="153.19" width="65.91" height="64.28" maskUnits="userSpaceOnUse"><g class="cls-7"><path class="cls-8" d="M327.11,217.47a76.23,76.23,0,0,0-65.92-64.28v64.28Z"/></g></mask><filter id="luminosity-noclip-10" x="166.16" y="248.23" width="65.91" height="64.28" filterUnits="userSpaceOnUse" color-interpolation-filters="sRGB"><feFlood flood-color="#fff" result="bg"/><feBlend in="SourceGraphic" in2="bg"/></filter><mask id="mask-10" x="166.16" y="248.23" width="65.91" height="64.28" maskUnits="userSpaceOnUse"><g class="cls-9"><path class="cls-10" d="M166.16,248.23a76.23,76.23,0,0,0,65.91,64.28V248.23Z"/></g></mask><filter id="luminosity-noclip-11" x="267.63" y="117.99" width="95.04" height="92.68" filterUnits="userSpaceOnUse" color-interpolation-filters="sRGB"><feFlood flood-color="#fff" result="bg"/><feBlend in="SourceGraphic" in2="bg"/></filter><mask id="mask-11" x="267.63" y="117.99" width="95.04" height="92.68" maskUnits="userSpaceOnUse"><g class="cls-11"><path class="cls-4" d="M362.67,210.68a109.91,109.91,0,0,0-95-92.69v92.69Z"/></g></mask><filter id="luminosity-noclip-12" x="130.6" y="255.02" width="95.04" height="92.68" filterUnits="userSpaceOnUse" color-interpolation-filters="sRGB"><feFlood flood-color="#fff" result="bg"/><feBlend in="SourceGraphic" in2="bg"/></filter><mask id="mask-12" x="130.6" y="255.02" width="95.04" height="92.68" maskUnits="userSpaceOnUse"><g class="cls-12"><path class="cls-6" d="M130.6,255a109.9,109.9,0,0,0,95,92.68V255Z"/></g></mask></defs><title>header_ui_circle_02</title><g id="Layer_2" data-name="Layer 2"><g id="Layer_1-2" data-name="Layer 1"><g class="cls-13"><path class="cls-14" d="M246.37,441.57c-114.71,0-208-93.33-208-208s93.32-208,208-208,208,93.32,208,208S361.07,441.57,246.37,441.57Zm0-410.2C134.89,31.37,44.2,122.06,44.2,233.54S134.89,435.7,246.37,435.7,448.53,345,448.53,233.54,357.84,31.37,246.37,31.37Z"/></g><g class="cls-13"><g class="cls-15"><path class="cls-14" d="M472.2,233.54A225.83,225.83,0,0,0,246.37,7.71V59.49a174,174,0,0,1,174,174Zm-225.83,174a174,174,0,0,1-174-174H20.54A225.83,225.83,0,0,0,246.37,459.37Z"/></g></g><path class="cls-14" d="M246.37,319a85.44,85.44,0,1,1,85.43-85.43A85.53,85.53,0,0,1,246.37,319Zm0-168.67a83.24,83.24,0,1,0,83.23,83.24A83.33,83.33,0,0,0,246.37,150.3Z"/><path class="cls-14" d="M246.37,256.09a22.56,22.56,0,1,1,22.56-22.55A22.58,22.58,0,0,1,246.37,256.09Zm0-42.91a20.36,20.36,0,1,0,20.36,20.36A20.38,20.38,0,0,0,246.37,213.18Z"/><rect class="cls-14" x="266.73" y="233.54" width="2.2" height="81.11"/><rect class="cls-14" x="223.81" y="151.96" width="2.2" height="81.58"/><rect class="cls-14" x="246.37" y="210.98" width="81.58" height="2.2"/><rect class="cls-14" x="164.79" y="253.9" width="81.58" height="2.2"/><rect class="cls-14" x="192.14" y="276.22" width="81.11" height="2.2" transform="translate(-127.94 245.77) rotate(-45)"/><rect class="cls-14" x="219.08" y="188.36" width="81.58" height="2.2" transform="translate(-57.85 239.25) rotate(-45)"/><rect class="cls-14" x="289.12" y="206.35" width="2.2" height="81.58" transform="translate(-89.75 277.6) rotate(-45)"/><rect class="cls-14" x="201.09" y="179.01" width="2.2" height="81.58" transform="translate(-96.2 207.35) rotate(-45)"/><path class="cls-14" d="M258.81,446A212.83,212.83,0,0,0,440.32,318.66l2.19,1A215.21,215.21,0,0,1,259,448.41Z"/><path class="cls-14" d="M367.23,408.09c-.17,6.49-.79,12.81-1.56,19.4a234.79,234.79,0,0,1-30.56,16,245.45,245.45,0,0,1-32.65,11.17c-1.21,2.62-2.5,5.23-3.83,7.86a231.55,231.55,0,0,1-31.27,5.1c.82-1.19,1.63-2.34,2.43-3.58,4.14-.56,8.3-1,12.43-1.67s8.26-1.35,12.32-2.34q2.06-4,3.94-8a221.93,221.93,0,0,0,32.31-10.5,233.4,233.4,0,0,0,30.34-15.28c.65-5,1.1-10,1.44-14.9C364.18,410.3,365.69,409.18,367.23,408.09Z"/><path class="cls-16" d="M358.54,419c-.22,2.32-.55,4.54-.87,6.85l-6.12,3.51c.38-2.29.72-4.56,1-6.82C354.57,421.37,356.59,420.25,358.54,419Z"/><path class="cls-16" d="M348.94,424.57c-.37,2.26-.79,4.51-1.23,6.79l-6.29,3.19c.51-2.23.95-4.51,1.38-6.75Z"/><path class="cls-16" d="M339.06,429.63c-.5,2.22-1,4.46-1.58,6.71-2.15,1-4.27,2-6.45,2.86.64-2.16,1.19-4.45,1.74-6.65Z"/><path class="cls-16" d="M328.92,434.16q-.9,3.3-1.91,6.63c-2.2.84-4.36,1.79-6.6,2.52.76-2.12,1.43-4.36,2.09-6.54Z"/><path class="cls-16" d="M318.57,438.17q-1.08,3.24-2.25,6.53c-2.24.72-4.44,1.58-6.72,2.17.86-2.09,1.66-4.25,2.42-6.42Z"/><path class="cls-16" d="M308,441.64q-1.25,3.19-2.59,6.41c-2.27.63-4.51,1.34-6.82,1.82,1-2.06,1.88-4.13,2.75-6.27Z"/><path class="cls-14" d="M419.68,357.54l-1.3-4.05a210.79,210.79,0,0,0,24-45.85l3.06,5c-1.11,2.86-2.24,5.71-3.55,8.48s-2.45,5.63-3.91,8.33A205.68,205.68,0,0,1,419.68,357.54Z"/><path class="cls-14" d="M248.24,445.87q4,5.13,8.4,10.23a230.09,230.09,0,0,0,37.66-5.2l.34,1.53a230.61,230.61,0,0,1-38.44,5.24q-4.59-5.32-8.78-10.67Z"/><path class="cls-14" d="M258.5,441.06A204.92,204.92,0,0,0,334,421.62a208.37,208.37,0,0,0,63-46.05l1.14,1.07A210.1,210.1,0,0,1,334.71,423a206.33,206.33,0,0,1-76.11,19.59Z"/><path class="cls-14" d="M365.63,418.74a223.38,223.38,0,0,0,30.48-23.92c-.25-2.68-.53-5.32-.84-7.94a216,216,0,0,1-30.53,24.92Q365.22,415.25,365.63,418.74Z"/><path class="cls-14" d="M251.05,446.35c.06,2.11-1.21,3.86-2.84,3.9s-3-1.64-2.94-3.75,1.27-3.85,2.84-3.89S251,444.25,251.05,446.35Z"/><path class="cls-14" d="M258.81,21.58A212.84,212.84,0,0,1,440.32,148.94l2.19-1A215.21,215.21,0,0,0,259,19.19Z"/><path class="cls-14" d="M367.23,59.51c-.17-6.49-.79-12.81-1.56-19.4a234.79,234.79,0,0,0-30.56-16A244,244,0,0,0,302.46,13c-1.21-2.63-2.5-5.24-3.83-7.87A231.55,231.55,0,0,0,267.36,0c.82,1.19,1.63,2.34,2.43,3.59,4.14.55,8.3,1,12.43,1.66s8.26,1.35,12.32,2.34q2.06,4,3.94,8a221.93,221.93,0,0,1,32.31,10.5,234.67,234.67,0,0,1,30.34,15.28c.65,5,1.1,10,1.44,14.91C364.18,57.3,365.69,58.43,367.23,59.51Z"/><path class="cls-16" d="M358.54,48.6c-.22-2.33-.55-4.55-.87-6.86l-6.12-3.51c.38,2.29.72,4.56,1,6.82C354.57,46.23,356.59,47.36,358.54,48.6Z"/><path class="cls-16" d="M348.94,43c-.37-2.26-.79-4.51-1.23-6.78l-6.29-3.2c.51,2.24.95,4.52,1.38,6.75Z"/><path class="cls-16" d="M339.06,38c-.5-2.22-1-4.46-1.58-6.71-2.15-1-4.27-2-6.45-2.86.64,2.17,1.19,4.46,1.74,6.66Z"/><path class="cls-16" d="M328.92,33.44q-.9-3.3-1.91-6.63c-2.2-.83-4.36-1.79-6.6-2.52.76,2.13,1.43,4.36,2.09,6.55Z"/><path class="cls-16" d="M318.57,29.43q-1.08-3.24-2.25-6.53c-2.24-.72-4.44-1.57-6.72-2.17.86,2.09,1.66,4.25,2.42,6.42Z"/><path class="cls-16" d="M308,26q-1.25-3.18-2.59-6.41c-2.27-.63-4.51-1.33-6.82-1.82,1,2.06,1.88,4.13,2.75,6.28Z"/><path class="cls-14" d="M419.68,110.06l-1.3,4.06a210.33,210.33,0,0,1,24,45.85l3.06-5c-1.11-2.86-2.24-5.71-3.55-8.48s-2.45-5.63-3.91-8.33A205.68,205.68,0,0,0,419.68,110.06Z"/><path class="cls-14" d="M248.24,21.73q4-5.11,8.4-10.23a231.18,231.18,0,0,1,37.66,5.2l.34-1.52A230.63,230.63,0,0,0,256.2,9.93q-4.59,5.33-8.78,10.67Z"/><path class="cls-14" d="M258.5,26.54A204.92,204.92,0,0,1,334,46,208.53,208.53,0,0,1,397,92L398.16,91a210,210,0,0,0-63.45-46.4A206.51,206.51,0,0,0,258.6,25Z"/><path class="cls-14" d="M365.63,48.86a224.16,224.16,0,0,1,30.48,23.92q-.37,4-.84,7.94a215.9,215.9,0,0,0-30.53-24.91Q365.22,52.36,365.63,48.86Z"/><path class="cls-14" d="M251.05,21.25c.06-2.11-1.21-3.85-2.84-3.89s-3,1.63-2.94,3.74S246.54,25,248.11,25,251,23.36,251.05,21.25Z"/><path class="cls-14" d="M481.59,245.3q-7.23-3.92-14.51-7.4c.21-4.46-.05-8.92-.13-13.39,4.89-2.43,9.54-5,14.26-7.72l.1-.45-.13-.06c-4.91,2.83-9.69,5.5-14.75,8,.08,4.61.35,9.22.13,13.83q7.45,3.57,14.89,7.6l.13.07Z"/><path class="cls-14" d="M481.48,220.32c-2.69,1.52-5.51,3-8.29,4.43l-.15-.2c2.83-1.46,5.68-3,8.42-4.52Z"/><path class="cls-14" d="M481.67,242.41q-4.25-2.24-8.5-4.33l.15-.21q4.19,2.06,8.36,4.26Z"/><path class="cls-14" d="M486.35,233.2l-.1-4.43-4.54-2.08L477.29,229l.1,4.26c1.53.71,3,1.43,4.46,2.16C483.35,234.67,484.89,233.94,486.35,233.2Z"/><path class="cls-14" d="M466,249.1c.14-2,.34-4,.35-5.95,4.79,2.41,9.35,4.95,14,7.63l-.48,6.32Q472.93,252.89,466,249.1Z"/><path class="cls-14" d="M465.3,257.33c.25-2,.33-3.95.5-5.93,4.6,2.57,9.32,5.3,13.77,8.14l-.8,6.3Q472.07,261.37,465.3,257.33Z"/><path class="cls-14" d="M464.26,265.53l.76-5.91q6.75,4.11,13.44,8.66c-.24,2.1-.7,4.17-1,6.26C473.07,271.4,468.79,268.41,464.26,265.53Z"/><path class="cls-14" d="M462.91,273.69l1-5.87q6.56,4.35,13,9.14c-.39,2.08-.7,4.17-1.21,6.23C471.64,279.91,467.23,276.71,462.91,273.69Z"/><path class="cls-17" d="M461.28,281.79c.46-1.94.91-3.87,1.22-5.83,4.38,3.09,8.55,6.28,12.72,9.62l-1.44,6.19Q467.59,286.58,461.28,281.79Z"/><path class="cls-17" d="M459.39,289.83c.52-1.91.91-3.86,1.38-5.79,4.16,3.22,8.41,6.63,12.39,10.11l-1.73,6.11Q465.46,294.84,459.39,289.83Z"/><path class="cls-17" d="M457.13,297.79l1.63-5.74q6.06,5.08,12,10.58c-.56,2-1.32,4-2,6C465,304.9,461.18,301.31,457.13,297.79Z"/><path class="cls-17" d="M454.71,305.23l1.91-5.65q5.83,5.28,11.52,11c-.7,2-1.3,4-2.12,6C462.42,312.68,458.52,308.86,454.71,305.23Z"/><path class="cls-14" d="M465.63,213.91l.45,5.94q7-3.73,13.87-7.91c-.12-2.12-.43-4.21-.69-6.31C474.79,208.53,470.29,211.28,465.63,213.91Z"/><path class="cls-14" d="M464.73,205.7c.24,2,.52,3.94.72,5.92,4.55-2.67,9-5.48,13.5-8.43-.29-2.09-.49-4.2-.86-6.29C473.74,200,469.2,202.91,464.73,205.7Z"/><path class="cls-14" d="M463.55,197.52c.39,1.95.65,3.92.88,5.89,2.25-1.42,4.49-2.87,6.72-4.37s4.35-3,6.52-4.55l-1.12-6.26Q470.1,193.09,463.55,197.52Z"/><path class="cls-14" d="M462.1,189.38l1,5.87c4.34-3,8.69-6.15,12.94-9.43l-1.42-6.19Q468.43,184.72,462.1,189.38Z"/><path class="cls-14" d="M460.25,181.33l1.34,5.81q6.32-4.74,12.52-9.9c-.44-2.08-1-4.11-1.62-6.15C468.51,174.63,464.46,178,460.25,181.33Z"/><path class="cls-14" d="M458.13,173.34c.53,1.91,1.11,3.81,1.6,5.74,4.11-3.32,8.1-6.76,12.09-10.35-.6-2-1.11-4.09-1.79-6.09C466.19,166.32,462.13,169.91,458.13,173.34Z"/><path class="cls-14" d="M455.74,165.42c.67,1.88,1.24,3.78,1.76,5.7,2-1.74,4-3.52,6-5.33s3.85-3.62,5.76-5.48l-2-6Q461.55,160.07,455.74,165.42Z"/><path class="cls-14" d="M453.14,157.73l1.91,5.65c3.84-3.61,7.69-7.39,11.39-11.26l-2.33-5.91Q458.71,152.18,453.14,157.73Z"/><path class="cls-14" d="M462.62,315l.4-.24,4.21,4.93a237.31,237.31,0,0,0,15.39-69.1l.52,0a230,230,0,0,1-5.2,35.58,224.9,224.9,0,0,1-10.53,34.42Q465,317.77,462.62,315Z"/><polygon class="cls-14" points="481.37 265.51 482.3 258.07 482.88 250.61 484.47 250.72 483.89 258.23 482.95 265.72 481.37 265.51"/><path class="cls-14" d="M460.54,147.32c1.59-1.9,3.16-3.82,4.73-5.78a248.89,248.89,0,0,1,11.45,34.59,241.35,241.35,0,0,1,6,35.9l-.52.05a237.56,237.56,0,0,0-5.93-35.43,243.68,243.68,0,0,0-11.22-34.16l-4.16,5.06Z"/><path class="cls-14" d="M480.72,197.18l1,7.43c.3,2.48.66,4.95.81,7.44l1.59-.14c-.14-2.51-.51-5-.82-7.49l-1-7.48Z"/><path class="cls-14" d="M487.23,210.44c0-.08-.07-1.35-.37-3.48s-.65-5.15-1.11-8.75-1.33-7.74-2.11-12.19-2-9.11-3.16-13.77a253.64,253.64,0,0,0-8.08-25.11l-3.19-8.08-1.35-3Q462.37,134.39,457,133c-1.58-3.27-3.28-6.49-4.93-9.73q7.33,1.58,14.88,3.58A248.4,248.4,0,0,1,490,208C489.12,208.82,488.17,209.64,487.23,210.44Z"/><path class="cls-14" d="M463,127.59l-4.71-9.18c-1.52-2.66-3.3-5.75-5.2-9.06s-4.21-6.66-6.38-10.09-4.68-6.64-6.87-9.74-4.52-5.8-6.39-8.2-3.6-4.25-4.73-5.62l-1.82-2.1-4,.06A261.77,261.77,0,0,1,443.54,100a257.85,257.85,0,0,1,16.73,29Z"/><path class="cls-14" d="M448.17,136.16a226.4,226.4,0,0,0-40.43-58.11l.36-.34a227,227,0,0,1,40.44,58.09c4,1,8.11,2,12.23,3.22l-.19.4Q454.31,137.62,448.17,136.16Z"/><path class="cls-14" d="M436.4,114.42l-4.21-.45a213.43,213.43,0,0,0-20.31-26.91l4.2-.18A216.3,216.3,0,0,1,436.4,114.42Z"/><path class="cls-14" d="M459.46,142.26c-4.38-1-8.7-1.89-13-2.67L449.4,146c1,2.15,1.77,4.38,2.66,6.57C454.56,149.26,457.1,145.78,459.46,142.26Z"/><path class="cls-14" d="M487.71,251c0,.08-.1,1.34-.27,3.48-.08,1.07-.18,2.37-.3,3.84l-.6,4.93c-.46,3.6-.92,7.8-1.79,12.24l-1.23,6.84c-.48,2.32-1,4.66-1.58,7a236.33,236.33,0,0,1-7.38,25.32c-1.1,3.43-2.31,6.17-3.05,8.13l-1.21,3.06c-3.54,1.24-7.21,2.33-10.82,3.35-1.5,3.31-3,6.65-4.67,9.86,5-1.11,9.84-2.46,14.76-4a240.52,240.52,0,0,0,21-81.73Z"/><path class="cls-14" d="M465.64,334.37s-.45,1-1.2,2.63-1.9,3.93-3.29,6.66-3,5.92-4.94,9.2-3.88,6.86-6.13,10.24-4.36,6.86-6.62,9.92-4.23,6-6.16,8.37l-4.54,5.78c-1.09,1.39-1.79,2.13-1.79,2.13h-4l2.73-3.16,2.6-3.28c1.71-2.2,3.47-4.36,5.13-6.6,3.23-4.54,6.53-9,9.46-13.79,3.1-4.64,5.76-9.55,8.56-14.38,2.53-5,5.23-9.86,7.44-15Z"/><path class="cls-14" d="M411.73,385.37a226.37,226.37,0,0,0,38.83-59.19c4.11-1.07,8.33-2.21,12.37-3.56l.22.4c-4,1.33-8.16,2.45-12.21,3.51a226.83,226.83,0,0,1-38.85,59.17Z"/><path class="cls-14" d="M439.41,348.24l-4.15.58a239.93,239.93,0,0,1-19.65,27.41c1.41,0,2.83.09,4.21.09A231.63,231.63,0,0,0,439.41,348.24Z"/><path class="cls-14" d="M461.7,319.8c-4.3,1.13-8.51,2.17-12.87,3,1-2.13,1.87-4.34,2.73-6.53s1.75-4.39,2.57-6.6C456.73,313,459.21,316.32,461.7,319.8Z"/><g class="cls-18"><path class="cls-14" d="M414.64,339.79a198.61,198.61,0,0,0,14-26.57,206.11,206.11,0,0,0,9.84-28.38,200.41,200.41,0,0,0,6.38-59.61A199,199,0,0,0,405,113.69c1.31-1,3.68.08,5.31,2.38A202.75,202.75,0,0,1,419.77,337C418.41,339.47,416,340.64,414.64,339.79Z"/><path class="cls-14" d="M440.09,228.35a193.37,193.37,0,0,1-16.52,84.31l-.9-.4c-1.7-.76-2.66-2.3-2.14-3.44a189.84,189.84,0,0,0,15.27-78.06c0-1.26,1.45-2.33,3.31-2.38Z"/><path class="cls-14" d="M411.9,132.54A196,196,0,0,1,439.24,214l-1,.1c-1.84.18-3.48-.68-3.64-1.93a190.14,190.14,0,0,0-25.29-75.36c-.63-1.09.16-2.77,1.73-3.73Z"/><path class="cls-14" d="M427.67,199.58l.72-.14c1.05,5.28,1.69,10.63,2.31,16l5,2.79c.15,2.1.35,4.19.46,6.29l-4.65,3.36.15,6.23-.16,6.22-.73,0L431,234l-.16-6.3,4.65-3.36-.43-5.85-5-2.78C429.37,210.29,428.72,204.9,427.67,199.58Z"/><polygon class="cls-14" points="422.89 219.76 430.69 219.15 431.08 224.31 423.28 224.71 422.89 219.76"/></g><path class="cls-14" d="M231.72,21.58A212.85,212.85,0,0,0,50.22,148.94L48,148A215.21,215.21,0,0,1,231.57,19.19Z"/><path class="cls-14" d="M123.31,59.51c.17-6.49.79-12.81,1.56-19.4a233.52,233.52,0,0,1,30.56-16A243.84,243.84,0,0,1,188.07,13c1.22-2.63,2.5-5.24,3.83-7.87A232,232,0,0,1,223.18,0c-.82,1.19-1.64,2.34-2.43,3.59-4.14.55-8.31,1-12.43,1.66S200.06,6.6,196,7.59c-1.37,2.69-2.69,5.37-3.94,8a221.93,221.93,0,0,0-32.31,10.5,234.67,234.67,0,0,0-30.34,15.28c-.65,5-1.1,10-1.45,14.91C126.36,57.3,124.85,58.43,123.31,59.51Z"/><path class="cls-16" d="M132,48.6c.23-2.33.56-4.55.88-6.86L139,38.23c-.37,2.29-.72,4.56-1,6.82C136,46.23,133.94,47.36,132,48.6Z"/><path class="cls-16" d="M141.6,43c.37-2.26.79-4.51,1.23-6.78l6.29-3.2c-.51,2.24-1,4.52-1.39,6.75Z"/><path class="cls-16" d="M151.48,38q.74-3.33,1.58-6.71c2.15-1,4.27-2,6.45-2.86-.64,2.17-1.19,4.46-1.74,6.66Z"/><path class="cls-16" d="M161.61,33.44q.91-3.3,1.92-6.63c2.2-.83,4.36-1.79,6.59-2.52-.75,2.13-1.42,4.36-2.08,6.55Z"/><path class="cls-16" d="M172,29.43q1.08-3.24,2.25-6.53c2.24-.72,4.44-1.57,6.72-2.17-.86,2.09-1.66,4.25-2.42,6.42Z"/><path class="cls-16" d="M182.51,26q1.25-3.18,2.59-6.41c2.26-.63,4.51-1.33,6.82-1.82-1,2.06-1.89,4.13-2.75,6.28Z"/><path class="cls-14" d="M70.85,110.06l1.3,4.06a210.29,210.29,0,0,0-24,45.85l-3.06-5c1.11-2.86,2.24-5.71,3.55-8.48s2.45-5.63,3.91-8.33A205.62,205.62,0,0,1,70.85,110.06Z"/><path class="cls-14" d="M242.3,21.73q-4-5.11-8.4-10.23a230.88,230.88,0,0,0-37.66,5.2l-.34-1.52a230.65,230.65,0,0,1,38.43-5.25q4.6,5.33,8.79,10.67Z"/><path class="cls-14" d="M232,26.54A205,205,0,0,0,156.49,46,208.78,208.78,0,0,0,93.51,92L92.37,91a210,210,0,0,1,63.46-46.4A206.51,206.51,0,0,1,231.94,25Z"/><path class="cls-14" d="M124.91,48.86A223.55,223.55,0,0,0,94.43,72.78q.36,4,.84,7.94a215.25,215.25,0,0,1,30.52-24.91Q125.31,52.36,124.91,48.86Z"/><path class="cls-14" d="M239.49,21.25c-.06-2.11,1.21-3.85,2.84-3.89s2.94,1.63,2.94,3.74S244,25,242.43,25,239.55,23.36,239.49,21.25Z"/><path class="cls-14" d="M231.72,446A212.83,212.83,0,0,1,50.22,318.66l-2.19,1A215.21,215.21,0,0,0,231.57,448.41Z"/><path class="cls-14" d="M123.31,408.09c.17,6.49.79,12.81,1.56,19.4a233.52,233.52,0,0,0,30.56,16,245.31,245.31,0,0,0,32.64,11.17c1.22,2.62,2.5,5.23,3.83,7.86a232,232,0,0,0,31.28,5.1c-.82-1.19-1.64-2.34-2.43-3.58-4.14-.56-8.31-1-12.43-1.67S200.06,461,196,460c-1.37-2.69-2.69-5.37-3.94-8a221.93,221.93,0,0,1-32.31-10.5,233.4,233.4,0,0,1-30.34-15.28c-.65-5-1.1-10-1.45-14.9C126.36,410.3,124.85,409.18,123.31,408.09Z"/><path class="cls-16" d="M132,419c.23,2.32.56,4.54.88,6.85l6.11,3.51c-.37-2.29-.72-4.56-1-6.82C136,421.37,133.94,420.25,132,419Z"/><path class="cls-16" d="M141.6,424.57c.37,2.26.79,4.51,1.23,6.79l6.29,3.19c-.51-2.23-1-4.51-1.39-6.75Z"/><path class="cls-16" d="M151.48,429.63q.74,3.33,1.58,6.71c2.15,1,4.27,2,6.45,2.86-.64-2.16-1.19-4.45-1.74-6.65Z"/><path class="cls-16" d="M161.61,434.16q.91,3.3,1.92,6.63c2.2.84,4.36,1.79,6.59,2.52-.75-2.12-1.42-4.36-2.08-6.54Z"/><path class="cls-16" d="M172,438.17q1.08,3.24,2.25,6.53c2.24.72,4.44,1.58,6.72,2.17-.86-2.09-1.66-4.25-2.42-6.42Z"/><path class="cls-16" d="M182.51,441.64q1.25,3.19,2.59,6.41c2.26.63,4.51,1.34,6.82,1.82-1-2.06-1.89-4.13-2.75-6.27Z"/><path class="cls-14" d="M70.85,357.54l1.3-4.05a210.75,210.75,0,0,1-24-45.85l-3.06,5c1.11,2.86,2.24,5.71,3.55,8.48s2.45,5.63,3.91,8.33A205.62,205.62,0,0,0,70.85,357.54Z"/><path class="cls-14" d="M242.3,445.87q-4,5.13-8.4,10.23a229.8,229.8,0,0,1-37.66-5.2l-.34,1.53a230.64,230.64,0,0,0,38.43,5.24q4.6-5.32,8.79-10.67Z"/><path class="cls-14" d="M232,441.06a205,205,0,0,1-75.55-19.44,208.61,208.61,0,0,1-63-46.05l-1.14,1.07A210.15,210.15,0,0,0,155.83,423a206.33,206.33,0,0,0,76.11,19.59Z"/><path class="cls-14" d="M124.91,418.74a222.77,222.77,0,0,1-30.48-23.92c.24-2.68.52-5.32.84-7.94a215.32,215.32,0,0,0,30.52,24.92Q125.31,415.25,124.91,418.74Z"/><path class="cls-14" d="M239.49,446.35c-.06,2.11,1.21,3.86,2.84,3.9s2.94-1.64,2.94-3.75-1.28-3.85-2.84-3.89S239.55,444.25,239.49,446.35Z"/><path class="cls-14" d="M8.94,222.3q7.24,3.93,14.51,7.4c-.21,4.46.06,8.93.14,13.39-4.89,2.43-9.54,5-14.27,7.73l-.09.45.13,0c4.91-2.83,9.69-5.5,14.75-8-.08-4.61-.35-9.22-.13-13.82q-7.45-3.58-14.89-7.61L9,221.8Z"/><path class="cls-14" d="M9.06,247.29c2.69-1.53,5.51-3,8.29-4.44l.15.2c-2.84,1.46-5.68,3-8.42,4.52Z"/><path class="cls-14" d="M8.87,225.19q4.24,2.25,8.5,4.34l-.15.2q-4.18-2.05-8.36-4.25Z"/><path class="cls-14" d="M4.19,234.4l.1,4.43,4.54,2.08,4.42-2.27-.1-4.26c-1.53-.71-3-1.43-4.46-2.16C7.19,232.93,5.65,233.66,4.19,234.4Z"/><path class="cls-14" d="M24.56,218.5c-.14,2-.34,4-.35,5.95-4.8-2.41-9.35-4.94-14-7.63l.48-6.32Q17.62,214.72,24.56,218.5Z"/><path class="cls-14" d="M25.23,210.27c-.24,2-.33,4-.5,5.93-4.59-2.57-9.32-5.3-13.76-8.14l.8-6.3Q18.47,206.23,25.23,210.27Z"/><path class="cls-14" d="M26.27,202.07,25.52,208q-6.75-4.11-13.44-8.65c.24-2.11.7-4.18,1-6.27C17.47,196.21,21.74,199.19,26.27,202.07Z"/><path class="cls-14" d="M27.63,193.92l-1.05,5.87q-6.54-4.36-13-9.15c.39-2.08.7-4.17,1.21-6.23C18.9,187.7,23.31,190.89,27.63,193.92Z"/><path class="cls-17" d="M29.25,185.81c-.45,1.94-.9,3.87-1.22,5.84-4.37-3.09-8.54-6.29-12.71-9.63l1.43-6.19Q22.95,181,29.25,185.81Z"/><path class="cls-17" d="M31.15,177.77c-.52,1.92-.92,3.86-1.38,5.8-4.16-3.23-8.41-6.63-12.39-10.12l1.73-6.11Q25.07,172.76,31.15,177.77Z"/><path class="cls-17" d="M33.41,169.81l-1.63,5.74q-6.06-5.09-12-10.57c.56-2,1.31-4,2-6C25.59,162.7,29.36,166.29,33.41,169.81Z"/><path class="cls-17" d="M35.83,162.37,33.92,168q-5.84-5.28-11.52-11c.7-2,1.3-4,2.12-6C28.11,154.92,32,158.74,35.83,162.37Z"/><path class="cls-14" d="M24.91,253.69l-.45-5.94q-7,3.75-13.87,7.92c.12,2.11.43,4.2.69,6.3C15.75,259.07,20.24,256.32,24.91,253.69Z"/><path class="cls-14" d="M25.81,261.9c-.24-2-.52-3.94-.73-5.91-4.55,2.67-9,5.47-13.49,8.42.28,2.1.49,4.2.85,6.29C16.8,267.64,21.34,264.69,25.81,261.9Z"/><path class="cls-14" d="M27,270.08c-.39-1.95-.65-3.92-.89-5.89q-3.36,2.13-6.71,4.37t-6.52,4.56L14,279.37Q20.44,274.51,27,270.08Z"/><path class="cls-14" d="M28.44,278.22l-1.05-5.87c-4.34,3-8.7,6.15-12.94,9.43L15.87,288Q22.11,282.89,28.44,278.22Z"/><path class="cls-14" d="M30.29,286.28,29,280.47q-6.32,4.74-12.52,9.9c.44,2.07,1,4.1,1.62,6.14C22,293,26.07,289.57,30.29,286.28Z"/><path class="cls-14" d="M32.41,294.27c-.53-1.92-1.11-3.82-1.6-5.75-4.12,3.32-8.1,6.76-12.09,10.35.6,2,1.11,4.09,1.79,6.1C24.35,301.29,28.4,297.69,32.41,294.27Z"/><path class="cls-14" d="M34.8,302.18c-.67-1.87-1.24-3.78-1.76-5.7q-3,2.61-6,5.33c-1.93,1.79-3.86,3.62-5.77,5.48l2,6Q29,307.55,34.8,302.18Z"/><path class="cls-14" d="M37.4,309.87l-1.91-5.65c-3.84,3.62-7.69,7.39-11.39,11.26l2.33,5.91Q31.83,315.44,37.4,309.87Z"/><path class="cls-14" d="M27.92,152.61l-.4.23-4.21-4.92A236.29,236.29,0,0,0,7.92,217l-.52,0a230.14,230.14,0,0,1,5.2-35.59A226,226,0,0,1,23.12,147Q25.51,149.83,27.92,152.61Z"/><polygon class="cls-14" points="9.17 202.1 8.24 209.53 7.66 216.99 6.07 216.88 6.64 209.37 7.58 201.88 9.17 202.1"/><path class="cls-14" d="M30,320.28c-1.59,1.9-3.16,3.82-4.73,5.78a248.76,248.76,0,0,1-11.45-34.58,240.19,240.19,0,0,1-6-35.91l.52,0A237.69,237.69,0,0,0,14.23,291a242.68,242.68,0,0,0,11.22,34.15l4.16-5.06Z"/><path class="cls-14" d="M9.82,270.42l-1-7.43c-.3-2.48-.67-4.95-.81-7.44l-1.59.14c.14,2.51.51,5,.81,7.5l1,7.47Z"/><path class="cls-14" d="M3.31,257.17c0,.08.07,1.34.36,3.47s.66,5.15,1.12,8.76,1.32,7.74,2.1,12.18,2,9.11,3.16,13.78a255.37,255.37,0,0,0,8.08,25.11c1.33,3.34,2.43,6.12,3.2,8.07l1.35,3q5.47,1.66,10.87,3.09c1.57,3.28,3.28,6.49,4.93,9.73q-7.33-1.56-14.89-3.57A248.44,248.44,0,0,1,.52,259.59C1.41,258.78,2.37,258,3.31,257.17Z"/><path class="cls-14" d="M27.53,340c0,.07,1.91,3.73,4.71,9.18l5.19,9.06c2,3.28,4.21,6.66,6.39,10.09s4.67,6.64,6.87,9.74,4.52,5.8,6.39,8.2,3.6,4.25,4.73,5.62l1.82,2.1,4-.06A260.64,260.64,0,0,1,47,367.63a256.32,256.32,0,0,1-16.73-29Z"/><path class="cls-14" d="M42.36,331.44A226.69,226.69,0,0,0,82.8,389.55l-.36.34A226.83,226.83,0,0,1,42,331.8c-4-1-8.11-2-12.24-3.21l.2-.41Q36.23,330,42.36,331.44Z"/><path class="cls-14" d="M54.13,353.18l4.22.45a213.43,213.43,0,0,0,20.31,26.91l-4.2.19A218.16,218.16,0,0,1,54.13,353.18Z"/><path class="cls-14" d="M31.08,325.35q6.56,1.5,13,2.66l-2.92-6.45c-1-2.15-1.77-4.38-2.66-6.56C36,318.35,33.44,321.83,31.08,325.35Z"/><path class="cls-14" d="M2.83,216.66c0-.08.1-1.34.26-3.49.09-1.07.19-2.36.3-3.84s.39-3.13.61-4.93c.46-3.6.92-7.8,1.79-12.23L7,185.32c.48-2.32,1.05-4.65,1.58-7A234,234,0,0,1,16,153c1.1-3.42,2.31-6.17,3.05-8.13l1.21-3.06c3.53-1.24,7.2-2.33,10.82-3.35,1.5-3.31,2.95-6.65,4.67-9.86-5,1.11-9.85,2.47-14.76,4A240.68,240.68,0,0,0,0,214.3Z"/><path class="cls-14" d="M24.9,133.24l1.2-2.64c.7-1.66,1.9-3.92,3.29-6.65s3-5.93,4.94-9.21,3.88-6.86,6.13-10.24,4.36-6.85,6.62-9.92,4.23-6,6.15-8.37l4.55-5.77c1.09-1.4,1.78-2.14,1.78-2.14h4l-2.73,3.16-2.6,3.28c-1.71,2.2-3.47,4.36-5.13,6.6-3.23,4.54-6.53,9-9.46,13.8-3.1,4.64-5.77,9.54-8.56,14.37-2.53,5-5.23,9.86-7.44,15Z"/><path class="cls-14" d="M78.81,82.23A226.25,226.25,0,0,0,40,141.43c-4.11,1.06-8.33,2.2-12.38,3.55l-.21-.4c4-1.33,8.16-2.45,12.21-3.5A226.47,226.47,0,0,1,78.45,81.9Z"/><path class="cls-14" d="M51.13,119.36l4.15-.58A238.71,238.71,0,0,1,74.93,91.37c-1.41-.05-2.83-.09-4.22-.09A232.68,232.68,0,0,0,51.13,119.36Z"/><path class="cls-14" d="M28.84,147.8c4.29-1.13,8.51-2.17,12.86-3-1,2.13-1.86,4.34-2.72,6.54s-1.76,4.38-2.57,6.6C33.81,154.64,31.32,151.28,28.84,147.8Z"/><g class="cls-18"><path class="cls-14" d="M75.9,127.81a197.46,197.46,0,0,0-14,26.57,206.11,206.11,0,0,0-9.84,28.38,199.54,199.54,0,0,0-6.38,59.61A199,199,0,0,0,85.58,353.91c-1.31,1-3.68-.07-5.31-2.38a202.74,202.74,0,0,1-9.5-220.92C72.13,128.13,74.57,127,75.9,127.81Z"/><path class="cls-14" d="M50.45,239.25A193.37,193.37,0,0,1,67,154.94l.9.4c1.7.76,2.65,2.3,2.13,3.45a189.91,189.91,0,0,0-15.26,78.05c0,1.26-1.45,2.33-3.31,2.38Z"/><path class="cls-14" d="M78.63,335.07A196.22,196.22,0,0,1,51.3,253.64l1-.1c1.84-.18,3.48.68,3.64,1.93a190.1,190.1,0,0,0,25.29,75.35c.63,1.09-.16,2.77-1.74,3.73Z"/><path class="cls-14" d="M62.87,268l-.72.13c-1-5.28-1.69-10.63-2.31-16l-5-2.8c-.15-2.09-.35-4.18-.46-6.28L59,239.74l-.15-6.22.16-6.23.73,0-.16,6.31.15,6.3-4.64,3.36.43,5.85,5,2.78C61.16,257.31,61.81,262.7,62.87,268Z"/><polygon class="cls-14" points="67.64 247.85 59.85 248.45 59.45 243.29 67.26 242.9 67.64 247.85"/></g><path class="cls-14" d="M256.46,418.87a1.17,1.17,0,0,0-1.65.17l-7,8.55V288.05a1.18,1.18,0,0,0-2.35,0V427.59l-7-8.55a1.17,1.17,0,1,0-1.81,1.48l9,11a1.18,1.18,0,0,0,.91.43h.25a1.16,1.16,0,0,0,.9-.43l9-11A1.17,1.17,0,0,0,256.46,418.87Z"/><path class="cls-14" d="M236.8,52.35a1.17,1.17,0,0,0,1.65-.17l7-8.55V183.17a1.18,1.18,0,0,0,2.35,0V43.63l7,8.55a1.17,1.17,0,0,0,1.82-1.48l-9-11a1.16,1.16,0,0,0-.9-.43h-.25a1.18,1.18,0,0,0-.91.43l-9,11A1.17,1.17,0,0,0,236.8,52.35Z"/><path class="cls-14" d="M63.37,241.92a1.17,1.17,0,0,0-.16-1.65l-8.56-7H194.19a1.17,1.17,0,1,0,0-2.34H54.65l8.56-7a1.17,1.17,0,0,0-1.49-1.81l-10.95,9a1.17,1.17,0,0,0-.43.91v.24a1.17,1.17,0,0,0,.43.91l10.95,9A1.17,1.17,0,0,0,63.37,241.92Z"/><path class="cls-14" d="M429.89,222.26a1.17,1.17,0,0,0,.17,1.65l8.55,7H299.08a1.17,1.17,0,1,0,0,2.34H438.61l-8.55,7a1.17,1.17,0,1,0,1.48,1.81l10.95-9a1.17,1.17,0,0,0,.43-.91V232a1.17,1.17,0,0,0-.43-.91l-10.95-9A1.17,1.17,0,0,0,429.89,222.26Z"/><path class="cls-14" d="M246.63,330.23A97.38,97.38,0,1,1,344,232.85,97.49,97.49,0,0,1,246.63,330.23Zm0-192.42a95,95,0,1,0,95,95A95.15,95.15,0,0,0,246.63,137.81Z"/><circle class="cls-14" cx="246.63" cy="232.85" r="13.2"/><rect class="cls-14" x="245.46" y="175.95" width="2.35" height="113.81"/><rect class="cls-14" x="189.73" y="231.68" width="113.81" height="2.35"/><polygon class="cls-14" points="244.29 275.08 246.63 190.61 248.98 275.08 244.29 275.08"/><polygon class="cls-14" points="248.98 190.61 246.63 275.08 244.29 190.61 248.98 190.61"/><polygon class="cls-14" points="204.4 230.5 288.87 232.85 204.4 235.19 204.4 230.5"/><polygon class="cls-14" points="288.87 235.19 204.4 232.85 288.87 230.5 288.87 235.19"/><path class="cls-19" d="M146.23,186.28a110.84,110.84,0,0,1,17.66-26.9l-5-5a117,117,0,0,0-19.26,29.28Z"/><path class="cls-20" d="M173.17,150.1a110.88,110.88,0,0,1,23.36-15.94l-2.81-6.46a117.36,117.36,0,0,0-25.51,17.44Z"/><path class="cls-14" d="M136.17,226.29a110.6,110.6,0,0,1,5.25-27.8l-6.56-2.58a117.69,117.69,0,0,0-5.7,30.38Z"/><path class="cls-21" d="M208.56,128.91a110.11,110.11,0,0,1,31.51-6.52v-7a117.14,117.14,0,0,0-34.32,7.08Z"/><path class="cls-14" d="M357.09,239.41a110.15,110.15,0,0,1-5.24,27.8l6.55,2.58a117.35,117.35,0,0,0,5.7-30.38Z"/><path class="cls-19" d="M347,279.42a111.08,111.08,0,0,1-17.66,26.89l5,5A117.38,117.38,0,0,0,353.59,282Z"/><path class="cls-21" d="M284.7,336.77a110.39,110.39,0,0,1-31.51,6.53v7a117.15,117.15,0,0,0,34.32-7.09Z"/><path class="cls-20" d="M320.1,315.59a111.19,111.19,0,0,1-10.61,8.34v.26h-.39a108.75,108.75,0,0,1-12.37,7.33l2.82,6.48a117.05,117.05,0,0,0,25.51-17.45Z"/><path class="cls-19" d="M103.11,166.28a158.41,158.41,0,0,1,25.24-38.45l-7.09-7.09A167.59,167.59,0,0,0,93.74,162.6Z"/><path class="cls-20" d="M141.62,114.57A158.09,158.09,0,0,1,175,91.78l-4-9.24a167.2,167.2,0,0,0-36.46,24.94Z"/><path class="cls-14" d="M88.73,223.47a158.13,158.13,0,0,1,7.5-39.73l-9.37-3.69a168.16,168.16,0,0,0-8.15,43.42Z"/><path class="cls-21" d="M192.21,84.28a157.21,157.21,0,0,1,45-9.33v-10a167.41,167.41,0,0,0-49.06,10.13Z"/><path class="cls-14" d="M404.53,242.23A157.25,157.25,0,0,1,397,282l9.38,3.69a168.24,168.24,0,0,0,8.15-43.42Z"/><path class="cls-19" d="M390.16,299.41a158.15,158.15,0,0,1-25.25,38.45L372,345a167.53,167.53,0,0,0,27.53-41.86Z"/><path class="cls-21" d="M301.05,381.4a157.55,157.55,0,0,1-45,9.33v10a167.34,167.34,0,0,0,49.06-10.13Z"/><path class="cls-20" d="M351.65,351.13A160.23,160.23,0,0,1,336.48,363v.38h-.55a159.15,159.15,0,0,1-17.69,10.48l4,9.26a168.21,168.21,0,0,0,36.47-24.94Z"/><circle class="cls-22" cx="246.63" cy="232.85" r="42.82"/><path class="cls-22" d="M246.63,92.64A140.21,140.21,0,1,0,386.84,232.85,140.21,140.21,0,0,0,246.63,92.64Zm0,271A130.82,130.82,0,1,1,377.45,232.85,130.82,130.82,0,0,1,246.63,363.67Z"/><path class="cls-14" d="M341.67,232.85a95.23,95.23,0,1,1-83.38-94.3v-2.36A97.43,97.43,0,1,0,343,218.85h-2.36A95,95,0,0,1,341.67,232.85Z"/><g class="cls-23"><path class="cls-14" d="M327.11,217.47a76.23,76.23,0,0,0-65.92-64.28v64.28Z"/></g><g class="cls-24"><path class="cls-14" d="M166.16,248.23a76.23,76.23,0,0,0,65.91,64.28V248.23Z"/></g><g class="cls-25"><g class="cls-26"><path class="cls-14" d="M362.67,210.68a109.91,109.91,0,0,0-95-92.69v92.69Z"/></g><g class="cls-27"><path class="cls-14" d="M130.6,255a109.9,109.9,0,0,0,95,92.68V255Z"/></g></g><g class="cls-26"><path class="cls-14" d="M362.67,210.68a109.91,109.91,0,0,0-95-92.69v92.69Z"/></g><g class="cls-27"><path class="cls-14" d="M130.6,255a109.9,109.9,0,0,0,95,92.68V255Z"/></g></g></g></svg>