<svg xmlns="http://www.w3.org/2000/svg" xmlns:xlink="http://www.w3.org/1999/xlink" viewBox="0 0 1191.03 454.18"><defs><style>.cls-1{mask:url(#mask);filter:url(#luminosity-noclip-7);}.cls-10,.cls-12,.cls-2,.cls-4,.cls-6,.cls-8{mix-blend-mode:multiply;}.cls-2{fill:url(#Безымянный_градиент_93);}.cls-3{mask:url(#mask-2);filter:url(#luminosity-noclip-12);}.cls-4{fill:url(#Безымянный_градиент_91);}.cls-5{mask:url(#mask-3);filter:url(#luminosity-noclip-8);}.cls-6{fill:url(#Безымянный_градиент_93-2);}.cls-7{mask:url(#mask-4);filter:url(#luminosity-noclip-9);}.cls-8{fill:url(#Безымянный_градиент_93-3);}.cls-11,.cls-9{mask:url(#mask-5);}.cls-9{filter:url(#luminosity-noclip-10);}.cls-10{fill:url(#Безымянный_градиент_91-2);}.cls-11{filter:url(#luminosity-noclip-11);}.cls-12{fill:url(#Безымянный_градиент_91-3);}.cls-13,.cls-15,.cls-16,.cls-17,.cls-18,.cls-19,.cls-22,.cls-24{fill:#11e5b3;}.cls-14{opacity:0.15;}.cls-15{opacity:0.8;}.cls-16{opacity:0.6;}.cls-17{opacity:0.4;}.cls-18{opacity:0.2;}.cls-19{opacity:0.1;}.cls-20{mask:url(#mask-7);}.cls-21{mask:url(#mask-8);}.cls-22{opacity:0.5;}.cls-23{mask:url(#mask-9);}.cls-24{opacity:0.3;}.cls-25{mask:url(#mask-10);}.cls-26{mask:url(#mask-11);}.cls-27{mask:url(#mask-12);}.cls-28{fill:#fff;}.cls-29{filter:url(#luminosity-noclip-5);}.cls-30{filter:url(#luminosity-noclip-4);}.cls-31{filter:url(#luminosity-noclip-3);}.cls-32{filter:url(#luminosity-noclip-2);}.cls-33{filter:url(#luminosity-noclip);}</style><filter id="luminosity-noclip" x="151.38" y="-8421.17" width="5.73" height="32766" filterUnits="userSpaceOnUse" color-interpolation-filters="sRGB"><feFlood flood-color="#fff" result="bg"/><feBlend in="SourceGraphic" in2="bg"/></filter><mask id="mask" x="151.38" y="-8421.17" width="5.73" height="32766" maskUnits="userSpaceOnUse"><g class="cls-33"/></mask><linearGradient id="Безымянный_градиент_93" x1="154.25" y1="199.23" x2="154.25" y2="74.41" gradientUnits="userSpaceOnUse"><stop offset="0"/><stop offset="0.01" stop-color="#030303"/><stop offset="0.7" stop-color="#b7b7b7"/><stop offset="1" stop-color="#fff"/></linearGradient><filter id="luminosity-noclip-2" x="221.86" y="-8421.17" width="59.98" height="32766" filterUnits="userSpaceOnUse" color-interpolation-filters="sRGB"><feFlood flood-color="#fff" result="bg"/><feBlend in="SourceGraphic" in2="bg"/></filter><mask id="mask-2" x="221.86" y="-8421.17" width="59.98" height="32766" maskUnits="userSpaceOnUse"><g class="cls-32"/></mask><linearGradient id="Безымянный_градиент_91" x1="221.86" y1="164.98" x2="281.83" y2="164.98" gradientUnits="userSpaceOnUse"><stop offset="0" stop-color="#fff"/><stop offset="0.07" stop-color="#d8d8d8"/><stop offset="0.16" stop-color="#a6a6a6"/><stop offset="0.26" stop-color="#797979"/><stop offset="0.37" stop-color="#545454"/><stop offset="0.47" stop-color="#353535"/><stop offset="0.58" stop-color="#1e1e1e"/><stop offset="0.7" stop-color="#0d0d0d"/><stop offset="0.83" stop-color="#030303"/><stop offset="1"/></linearGradient><filter id="luminosity-noclip-3" x="158.66" y="-8421.17" width="1.98" height="32766" filterUnits="userSpaceOnUse" color-interpolation-filters="sRGB"><feFlood flood-color="#fff" result="bg"/><feBlend in="SourceGraphic" in2="bg"/></filter><mask id="mask-3" x="158.66" y="-8421.17" width="1.98" height="32766" maskUnits="userSpaceOnUse"><g class="cls-31"/></mask><linearGradient id="Безымянный_градиент_93-2" x1="159.65" y1="198.96" x2="159.65" y2="74.41" xlink:href="#Безымянный_градиент_93"/><filter id="luminosity-noclip-4" x="161.96" y="-8421.17" width="1.98" height="32766" filterUnits="userSpaceOnUse" color-interpolation-filters="sRGB"><feFlood flood-color="#fff" result="bg"/><feBlend in="SourceGraphic" in2="bg"/></filter><mask id="mask-4" x="161.96" y="-8421.17" width="1.98" height="32766" maskUnits="userSpaceOnUse"><g class="cls-30"/></mask><linearGradient id="Безымянный_градиент_93-3" x1="162.96" y1="199.25" x2="162.96" y2="74.69" xlink:href="#Безымянный_градиент_93"/><filter id="luminosity-noclip-5" x="221.87" y="-8421.17" width="59.98" height="32766" filterUnits="userSpaceOnUse" color-interpolation-filters="sRGB"><feFlood flood-color="#fff" result="bg"/><feBlend in="SourceGraphic" in2="bg"/></filter><mask id="mask-5" x="221.87" y="-8421.17" width="59.98" height="32766" maskUnits="userSpaceOnUse"><g class="cls-29"/></mask><linearGradient id="Безымянный_градиент_91-2" x1="221.87" y1="111.03" x2="281.85" y2="111.03" xlink:href="#Безымянный_градиент_91"/><linearGradient id="Безымянный_градиент_91-3" x1="221.87" y1="138.08" x2="281.85" y2="138.08" xlink:href="#Безымянный_градиент_91"/><filter id="luminosity-noclip-7" x="151.38" y="74.41" width="5.73" height="124.83" filterUnits="userSpaceOnUse" color-interpolation-filters="sRGB"><feFlood flood-color="#fff" result="bg"/><feBlend in="SourceGraphic" in2="bg"/></filter><mask id="mask-7" x="151.38" y="74.41" width="5.73" height="124.83" maskUnits="userSpaceOnUse"><g class="cls-1"><path class="cls-2" d="M157.11,74.41c-3.37,2.12-5.73,6.88-5.73,12.4v100c0,5.53,2.36,10.28,5.73,12.41Z"/></g></mask><filter id="luminosity-noclip-8" x="158.66" y="74.41" width="1.98" height="124.56" filterUnits="userSpaceOnUse" color-interpolation-filters="sRGB"><feFlood flood-color="#fff" result="bg"/><feBlend in="SourceGraphic" in2="bg"/></filter><mask id="mask-8" x="158.66" y="74.41" width="1.98" height="124.56" maskUnits="userSpaceOnUse"><g class="cls-5"><rect class="cls-6" x="158.66" y="74.41" width="1.98" height="124.56"/></g></mask><filter id="luminosity-noclip-9" x="161.96" y="74.69" width="1.98" height="124.56" filterUnits="userSpaceOnUse" color-interpolation-filters="sRGB"><feFlood flood-color="#fff" result="bg"/><feBlend in="SourceGraphic" in2="bg"/></filter><mask id="mask-9" x="161.96" y="74.69" width="1.98" height="124.56" maskUnits="userSpaceOnUse"><g class="cls-7"><rect class="cls-8" x="161.96" y="74.69" width="1.98" height="124.56"/></g></mask><filter id="luminosity-noclip-10" x="221.87" y="106.32" width="59.98" height="9.41" filterUnits="userSpaceOnUse" color-interpolation-filters="sRGB"><feFlood flood-color="#fff" result="bg"/><feBlend in="SourceGraphic" in2="bg"/></filter><mask id="mask-10" x="221.87" y="106.32" width="59.98" height="9.41" maskUnits="userSpaceOnUse"><g class="cls-9"><rect class="cls-10" x="221.87" y="106.32" width="59.98" height="9.41"/></g></mask><filter id="luminosity-noclip-11" x="221.87" y="133.37" width="59.98" height="9.41" filterUnits="userSpaceOnUse" color-interpolation-filters="sRGB"><feFlood flood-color="#fff" result="bg"/><feBlend in="SourceGraphic" in2="bg"/></filter><mask id="mask-11" x="221.87" y="133.37" width="59.98" height="9.41" maskUnits="userSpaceOnUse"><g class="cls-11"><rect class="cls-12" x="221.87" y="133.37" width="59.98" height="9.41"/></g></mask><filter id="luminosity-noclip-12" x="221.86" y="160.28" width="59.98" height="9.41" filterUnits="userSpaceOnUse" color-interpolation-filters="sRGB"><feFlood flood-color="#fff" result="bg"/><feBlend in="SourceGraphic" in2="bg"/></filter><mask id="mask-12" x="221.86" y="160.28" width="59.98" height="9.41" maskUnits="userSpaceOnUse"><g class="cls-3"><rect class="cls-4" x="221.86" y="160.28" width="59.98" height="9.41"/></g></mask></defs><title>header_first_plane_03</title><g id="Layer_2" data-name="Layer 2"><g id="Layer_1-2" data-name="Layer 1"><path class="cls-13" d="M1191,275.12l-2.25-.11a1.93,1.93,0,0,1-1.83-1.93V190.59a1.92,1.92,0,0,1,1.83-1.92l2.25-.11Z"/><polygon class="cls-13" points="468.83 227.51 469.7 227.5 469.7 222.47 468.83 222.46 468.83 227.51"/><polygon class="cls-13" points="463.21 227.54 464.1 227.54 464.1 222.43 463.21 222.42 463.21 227.54"/><polygon class="cls-13" points="457.42 227.58 458.34 227.57 458.34 222.39 457.42 222.39 457.42 227.58"/><polygon class="cls-13" points="451.47 227.62 452.42 227.61 452.42 222.36 451.47 222.35 451.47 227.62"/><polygon class="cls-13" points="445.35 227.66 446.32 227.65 446.32 222.32 445.35 222.31 445.35 227.66"/><polygon class="cls-13" points="439.04 227.7 440.05 227.69 440.05 222.28 439.04 222.27 439.04 227.7"/><polygon class="cls-13" points="432.54 227.74 433.58 227.73 433.58 222.24 432.54 222.23 432.54 227.74"/><polygon class="cls-13" points="425.85 227.78 426.92 227.77 426.92 222.2 425.85 222.19 425.85 227.78"/><polygon class="cls-13" points="418.94 227.82 420.05 227.82 420.05 222.15 418.94 222.15 418.94 227.82"/><polygon class="cls-13" points="411.82 227.87 412.96 227.86 412.96 222.11 411.82 222.1 411.82 227.87"/><polygon class="cls-13" points="404.47 227.91 405.65 227.91 405.65 222.06 404.47 222.06 404.47 227.91"/><polygon class="cls-13" points="396.88 227.96 398.1 227.95 398.1 222.01 396.88 222.01 396.88 227.96"/><polygon class="cls-13" points="389.05 228.01 390.3 228 390.3 221.97 389.05 221.96 389.05 228.01"/><polygon class="cls-13" points="380.94 228.06 382.24 228.05 382.24 221.91 380.94 221.91 380.94 228.06"/><polygon class="cls-13" points="372.56 228.11 373.9 228.11 373.9 221.86 372.56 221.85 372.56 228.11"/><polygon class="cls-13" points="363.89 228.17 365.27 228.16 365.27 221.81 363.89 221.8 363.89 228.17"/><polygon class="cls-13" points="354.91 228.22 356.34 228.22 356.34 221.75 354.91 221.74 354.91 228.22"/><polygon class="cls-13" points="345.6 228.28 347.09 228.28 347.09 221.69 345.6 221.69 345.6 228.28"/><polygon class="cls-13" points="335.96 228.34 337.5 228.34 337.5 221.63 335.96 221.62 335.96 228.34"/><polygon class="cls-13" points="325.95 228.41 327.55 228.4 327.55 221.57 325.95 221.56 325.95 228.41"/><polygon class="cls-13" points="315.56 228.47 317.22 228.46 317.22 221.51 315.56 221.5 315.56 228.47"/><polygon class="cls-13" points="304.76 228.54 306.49 228.53 306.49 221.44 304.76 221.43 304.76 228.54"/><polygon class="cls-13" points="293.54 228.61 295.34 228.6 295.34 221.37 293.54 221.36 293.54 228.61"/><polygon class="cls-13" points="281.87 228.68 283.74 228.67 283.74 221.3 281.87 221.28 281.87 228.68"/><polygon class="cls-13" points="269.71 228.76 271.66 228.75 271.66 221.22 269.71 221.21 269.71 228.76"/><polygon class="cls-13" points="257.04 228.84 259.07 228.83 259.07 221.14 257.04 221.13 257.04 228.84"/><polygon class="cls-13" points="243.82 228.92 245.94 228.91 245.94 221.06 243.82 221.04 243.82 228.92"/><polygon class="cls-13" points="230.02 229.01 232.23 229 232.23 220.97 230.02 220.96 230.02 229.01"/><polygon class="cls-13" points="215.6 229.1 217.91 229.09 217.91 220.88 215.6 220.87 215.6 229.1"/><polygon class="cls-13" points="200.51 229.2 202.94 229.18 202.94 220.79 200.51 220.77 200.51 229.2"/><polygon class="cls-13" points="184.72 229.29 187.25 229.28 187.25 220.69 184.72 220.67 184.72 229.29"/><polygon class="cls-13" points="168.16 229.4 170.82 229.38 170.82 220.59 168.16 220.57 168.16 229.4"/><polygon class="cls-13" points="150.78 229.51 153.57 229.49 153.57 220.48 150.78 220.46 150.78 229.51"/><polygon class="cls-13" points="132.52 229.62 135.46 229.6 135.46 220.36 132.52 220.34 132.52 229.62"/><polygon class="cls-13" points="113.31 229.74 116.4 229.72 116.4 220.24 113.31 220.22 113.31 229.74"/><polygon class="cls-13" points="93.07 229.87 96.33 229.85 96.33 220.12 93.07 220.1 93.07 229.87"/><polygon class="cls-13" points="71.72 230.01 75.16 229.98 75.16 219.99 71.72 219.96 71.72 230.01"/><polygon class="cls-13" points="49.16 230.15 52.8 230.13 52.8 219.84 49.16 219.82 49.16 230.15"/><polygon class="cls-13" points="25.3 230.3 29.15 230.27 29.15 219.69 25.3 219.67 25.3 230.3"/><polygon class="cls-13" points="0 268.26 4.09 268.06 4.09 181.91 0 181.7 0 268.26"/><polygon class="cls-13" points="762.11 51.57 761.72 50.94 840.64 1.87 875.37 36.6 1069.47 36.6 1069.47 37.34 875.06 37.34 874.95 37.23 840.53 2.81 762.11 51.57"/><path class="cls-13" d="M862.22,26.58,840.32,4.69l-22.8,14.17-1.95-3.14,24-14.95L840.86,0l24,24Z"/><polygon class="cls-13" points="877.87 40.21 941.79 40.21 945.02 43.45 1040.99 43.45 1036 48.44 937.63 48.44 932.37 53.7 909.09 53.7 900.41 45.02 881.1 45.02 876.31 40.23 877.87 40.21"/><polygon class="cls-13" points="1012.42 58.29 995.33 58.29 989.2 52.16 939.6 52.16 939.6 51.42 989.51 51.42 995.64 57.55 1012.11 57.55 1019.56 50.1 1020.08 50.63 1012.42 58.29"/><polygon class="cls-13" points="996.58 52.22 1012.77 52.22 1009.8 55.18 998.5 55.18 995.61 52.29 996.58 52.22"/><polygon class="cls-13" points="1170.14 156.06 1130.54 116.46 1130.54 86.35 1089.76 45.57 1053.5 45.57 1053.5 44.83 1090.07 44.83 1090.18 44.94 1131.28 86.04 1131.28 116.15 1170.67 155.54 1170.14 156.06"/><polygon class="cls-13" points="1089.92 49.51 1128.21 87.81 1128.21 98.04 1125.07 94.89 1125.07 89.66 1091.99 56.58 1089.92 49.51"/><polygon class="cls-13" points="1183.33 162.31 1169.8 162.31 1161.89 154.4 1162.41 153.88 1170.11 161.58 1183.33 161.58 1183.33 162.31"/><polygon class="cls-13" points="840.64 437.71 761.72 388.64 762.11 388.01 840.53 436.77 875.06 402.24 1069.47 402.24 1069.47 402.98 875.37 402.98 840.64 437.71"/><path class="cls-13" d="M840.86,439.58l-1.25-.77-24-14.95,1.95-3.14,22.8,14.17,21.9-21.9,2.61,2.62Z"/><polygon class="cls-13" points="877.87 399.37 941.79 399.37 945.02 396.13 1040.99 396.13 1036 391.14 937.63 391.14 932.37 385.88 909.09 385.88 900.41 394.56 881.1 394.56 876.31 399.35 877.87 399.37"/><polygon class="cls-13" points="1019.56 389.48 1012.11 382.03 995.64 382.03 989.51 388.16 939.6 388.16 939.6 387.42 989.2 387.42 995.33 381.29 1012.42 381.29 1020.08 388.95 1019.56 389.48"/><polygon class="cls-13" points="996.58 387.36 1012.77 387.36 1009.8 384.4 998.5 384.4 995.61 387.29 996.58 387.36"/><polygon class="cls-13" points="1090.07 394.75 1053.5 394.75 1053.5 394.01 1089.76 394.01 1130.54 353.23 1130.54 323.12 1130.65 323.01 1170.14 283.52 1170.67 284.04 1131.28 323.43 1131.28 353.54 1131.17 353.65 1090.07 394.75"/><polygon class="cls-13" points="1089.92 390.07 1128.21 351.77 1128.21 341.54 1125.07 344.69 1125.07 349.92 1091.99 383 1089.92 390.07"/><polygon class="cls-13" points="1162.41 285.7 1161.89 285.18 1169.8 277.26 1183.33 277.26 1183.33 278 1170.11 278 1162.41 285.7"/><polygon class="cls-13" points="440.45 51.57 362.03 2.81 327.51 37.34 133.09 37.34 133.09 36.6 327.2 36.6 361.93 1.87 362.17 2.03 440.85 50.94 440.45 51.57"/><path class="cls-13" d="M340.35,26.58,337.74,24l24-24L363,.77l24.05,15-2,3.14L362.25,4.69Z"/><polygon class="cls-13" points="324.7 40.21 260.78 40.21 257.55 43.45 161.57 43.45 166.56 48.44 264.94 48.44 270.2 53.7 293.48 53.7 302.16 45.02 321.46 45.02 326.25 40.23 324.7 40.21"/><polygon class="cls-13" points="207.24 58.29 190.15 58.29 182.49 50.63 183.01 50.1 190.46 57.55 206.93 57.55 213.06 51.42 262.96 51.42 262.96 52.16 213.36 52.16 207.24 58.29"/><polygon class="cls-13" points="205.98 52.22 189.79 52.22 192.76 55.18 204.06 55.18 206.96 52.29 205.98 52.22"/><polygon class="cls-13" points="32.42 156.06 31.9 155.54 71.29 116.15 71.29 86.04 112.5 44.83 149.06 44.83 149.06 45.57 112.8 45.57 72.03 86.35 72.03 116.46 32.42 156.06"/><polygon class="cls-13" points="112.65 49.51 74.35 87.81 74.35 98.04 77.5 94.89 77.5 89.66 110.58 56.58 112.65 49.51"/><polygon class="cls-13" points="32.76 162.31 19.23 162.31 19.23 161.58 32.46 161.58 40.16 153.88 40.68 154.4 32.76 162.31"/><polygon class="cls-13" points="361.93 437.71 361.72 437.5 327.2 402.98 133.09 402.98 133.09 402.24 327.51 402.24 327.61 402.35 362.03 436.77 440.45 388.01 440.85 388.64 361.93 437.71"/><path class="cls-13" d="M361.71,439.58l-24-24,2.61-2.62,21.9,21.9L385,420.72l2,3.14L363,438.81Z"/><polygon class="cls-13" points="324.7 399.37 260.78 399.37 257.55 396.13 161.57 396.13 166.56 391.14 264.94 391.14 270.2 385.88 293.48 385.88 302.16 394.56 321.46 394.56 326.25 399.35 324.7 399.37"/><polygon class="cls-13" points="183.01 389.48 182.49 388.95 190.15 381.29 207.24 381.29 213.36 387.42 262.96 387.42 262.96 388.16 213.06 388.16 206.93 382.03 190.46 382.03 183.01 389.48"/><polygon class="cls-13" points="205.98 387.36 189.79 387.36 192.76 384.4 204.06 384.4 206.96 387.29 205.98 387.36"/><polygon class="cls-13" points="149.06 394.75 112.5 394.75 112.39 394.64 71.29 353.54 71.29 323.43 31.9 284.04 32.42 283.52 72.03 323.12 72.03 353.23 112.8 394.01 149.06 394.01 149.06 394.75"/><polygon class="cls-13" points="112.65 390.07 74.35 351.77 74.35 341.54 77.5 344.69 77.5 349.92 110.58 383 112.65 390.07"/><polygon class="cls-13" points="40.16 285.7 32.46 278 19.23 278 19.23 277.26 32.76 277.26 40.68 285.18 40.16 285.7"/><path class="cls-13" d="M570.66,25.3l.1.17,4.86,8.43,6.06,10.48h22l6.06-10.48,5-8.6-.09-.16L603.71,6.22h-22ZM603.34,6.87,614,25.3l-5,8.6-5.68,9.83H582.06l-5.68-9.83-5-8.6L582.06,6.87Z"/><polygon class="cls-13" points="582.5 14.5 576.26 25.3 582.5 36.1 582.82 35.92 576.69 25.3 582.82 14.69 582.5 14.5"/><polygon class="cls-13" points="603.44 14.5 603.12 14.69 609.25 25.3 603.12 35.92 603.44 36.1 609.68 25.3 603.44 14.5"/><polygon class="cls-13" points="595.94 30.92 589.46 30.92 586.21 25.3 589.46 19.68 595.94 19.68 599.19 25.3 595.94 30.92"/><polygon class="cls-13" points="621.23 6.09 611.74 6.09 622.27 24.18 631.76 24.18 621.23 6.09"/><polygon class="cls-13" points="634.39 6.09 624.9 6.09 635.43 24.18 644.93 24.18 634.39 6.09"/><polygon class="cls-13" points="647.56 6.09 638.06 6.09 648.6 24.18 658.09 24.18 647.56 6.09"/><polygon class="cls-13" points="660.72 6.09 651.23 6.09 661.76 24.18 671.25 24.18 660.72 6.09"/><g class="cls-14"><polygon class="cls-13" points="673.88 6.09 664.39 6.09 674.92 24.18 684.42 24.18 673.88 6.09"/></g><g class="cls-14"><polygon class="cls-13" points="687.05 6.09 677.55 6.09 688.09 24.18 697.58 24.18 687.05 6.09"/></g><g class="cls-14"><polygon class="cls-13" points="700.21 6.09 690.72 6.09 701.25 24.18 710.75 24.18 700.21 6.09"/></g><g class="cls-14"><polygon class="cls-13" points="712.68 6.09 703.18 6.09 713.72 24.18 723.21 24.18 712.68 6.09"/></g><polygon class="cls-13" points="565.08 6.09 574.58 6.09 564.04 24.18 554.55 24.18 565.08 6.09"/><polygon class="cls-13" points="551.92 6.09 561.41 6.09 550.88 24.18 541.39 24.18 551.92 6.09"/><polygon class="cls-13" points="538.76 6.09 548.25 6.09 537.72 24.18 528.22 24.18 538.76 6.09"/><polygon class="cls-13" points="525.59 6.09 535.09 6.09 524.55 24.18 515.06 24.18 525.59 6.09"/><polygon class="cls-13" points="512.43 6.09 521.92 6.09 511.39 24.18 501.89 24.18 512.43 6.09"/><polygon class="cls-13" points="499.26 6.09 508.76 6.09 498.22 24.18 488.73 24.18 499.26 6.09"/><g class="cls-14"><polygon class="cls-13" points="486.1 6.09 495.59 6.09 485.06 24.18 475.57 24.18 486.1 6.09"/></g><g class="cls-14"><polygon class="cls-13" points="473.17 6.09 482.67 6.09 472.13 24.18 462.64 24.18 473.17 6.09"/></g><polygon class="cls-13" points="722.83 19.51 722.29 19.86 726.95 27.04 621.75 27.04 621.75 27.69 728.15 27.69 722.83 19.51"/><rect class="cls-13" x="621.75" y="27.36" width="22.17" height="2.01"/><polygon class="cls-13" points="462.19 19.51 456.87 27.69 564.56 27.69 564.56 27.04 458.07 27.04 462.73 19.86 462.19 19.51"/><rect class="cls-13" x="542.4" y="27.36" width="22.17" height="2.01" transform="translate(1106.96 56.73) rotate(180)"/><polygon class="cls-13" points="616.39 27.56 616.85 27.82 605.41 47.71 605.41 53.88 612.01 60.48 674.51 60.48 674.59 60.56 708.51 94.47 708.13 94.85 674.29 61.01 611.79 61.01 604.88 54.1 604.88 47.57 616.39 27.56"/><rect class="cls-13" x="713.63" y="100.11" width="5.46" height="5.46" transform="translate(1432.73 205.69) rotate(180)"/><path class="cls-13" d="M709.56,96h13.61v13.6H709.56Zm13.08.53H710.09v12.54h12.55Z"/><path class="cls-13" d="M675.91,62.25c-.52-.09-49.63,0-49.63,0l-1.18,1.19h-5.7s-.35-2.69,0-2.69h55Z"/><path class="cls-13" d="M606.42,55.26s.25-9.7,0-9.7-1.19,1.92-1.27,2-.06,6.47-.06,6.47Z"/><path class="cls-13" d="M682.18,68.52V66.26l-7.34-7.34H657.41l-1.9,1.91s19.09-.26,19.34,0S682.18,68.52,682.18,68.52Z"/><polygon class="cls-13" points="569.78 27.56 581.29 47.57 581.29 54.1 574.38 61.01 511.88 61.01 478.04 94.85 477.66 94.47 511.66 60.48 574.16 60.48 580.76 53.88 580.76 47.71 569.32 27.82 569.78 27.56"/><rect class="cls-13" x="467.08" y="100.11" width="5.46" height="5.46"/><path class="cls-13" d="M463,96h13.6v13.6H463Zm13.07.53H463.54v12.54h12.54Z"/><path class="cls-13" d="M510.26,62.25c.52-.09,49.63,0,49.63,0l1.18,1.19h5.7s.35-2.69,0-2.69h-55Z"/><path class="cls-13" d="M579.75,55.26s-.25-9.7,0-9.7,1.2,1.92,1.27,2,.06,6.47.06,6.47Z"/><path class="cls-13" d="M504,68.52V66.26l7.34-7.34h17.43l1.9,1.91s-19.09-.26-19.34,0S504,68.52,504,68.52Z"/><path class="cls-13" d="M570.22,435l.09-.17,4.87-8.43,6.05-10.49h22l6.06,10.49,5,8.6-.1.16-10.92,18.91h-22Zm32.67,18.42L613.54,435l-5-8.6-5.68-9.84H581.61l-5.68,9.84-5,8.6,10.64,18.42Z"/><polygon class="cls-13" points="582.05 445.77 575.82 434.97 582.05 424.17 582.38 424.36 576.25 434.97 582.38 445.59 582.05 445.77"/><polygon class="cls-13" points="602.99 445.77 602.67 445.59 608.8 434.97 602.67 424.36 602.99 424.17 609.23 434.97 602.99 445.77"/><polygon class="cls-13" points="595.5 429.36 589.01 429.36 585.77 434.97 589.01 440.59 595.5 440.59 598.74 434.97 595.5 429.36"/><polygon class="cls-13" points="620.78 454.18 611.29 454.18 621.82 436.09 631.32 436.09 620.78 454.18"/><polygon class="cls-13" points="633.95 454.18 624.45 454.18 634.99 436.09 644.48 436.09 633.95 454.18"/><polygon class="cls-13" points="647.11 454.18 637.62 454.18 648.15 436.09 657.64 436.09 647.11 454.18"/><polygon class="cls-13" points="660.27 454.18 650.78 454.18 661.32 436.09 670.81 436.09 660.27 454.18"/><g class="cls-14"><polygon class="cls-13" points="673.44 454.18 663.94 454.18 674.48 436.09 683.97 436.09 673.44 454.18"/></g><g class="cls-14"><polygon class="cls-13" points="686.6 454.18 677.11 454.18 687.64 436.09 697.14 436.09 686.6 454.18"/></g><g class="cls-14"><polygon class="cls-13" points="699.76 454.18 690.27 454.18 700.81 436.09 710.3 436.09 699.76 454.18"/></g><g class="cls-14"><polygon class="cls-13" points="712.23 454.18 702.74 454.18 713.27 436.09 722.77 436.09 712.23 454.18"/></g><polygon class="cls-13" points="564.64 454.18 574.13 454.18 563.6 436.09 554.1 436.09 564.64 454.18"/><polygon class="cls-13" points="551.47 454.18 560.97 454.18 550.43 436.09 540.94 436.09 551.47 454.18"/><polygon class="cls-13" points="538.31 454.18 547.8 454.18 537.27 436.09 527.77 436.09 538.31 454.18"/><polygon class="cls-13" points="525.15 454.18 534.64 454.18 524.11 436.09 514.61 436.09 525.15 454.18"/><polygon class="cls-13" points="511.98 454.18 521.48 454.18 510.94 436.09 501.45 436.09 511.98 454.18"/><polygon class="cls-13" points="498.82 454.18 508.31 454.18 497.78 436.09 488.28 436.09 498.82 454.18"/><g class="cls-14"><polygon class="cls-13" points="485.65 454.18 495.15 454.18 484.61 436.09 475.12 436.09 485.65 454.18"/></g><g class="cls-14"><polygon class="cls-13" points="472.73 454.18 482.22 454.18 471.69 436.09 462.19 436.09 472.73 454.18"/></g><polygon class="cls-13" points="722.39 440.77 721.84 440.41 726.5 433.24 621.3 433.24 621.3 432.59 727.7 432.59 722.39 440.77"/><rect class="cls-13" x="621.3" y="430.91" width="22.17" height="2.01"/><polygon class="cls-13" points="461.74 440.77 456.43 432.59 564.12 432.59 564.12 433.24 457.62 433.24 462.28 440.41 461.74 440.77"/><rect class="cls-13" x="541.95" y="430.91" width="22.17" height="2.01" transform="translate(1106.07 863.82) rotate(180)"/><polygon class="cls-13" points="615.95 432.72 616.4 432.46 604.97 412.56 604.97 406.39 611.56 399.8 674.07 399.8 674.14 399.72 708.06 365.8 707.69 365.43 673.85 399.27 611.34 399.27 604.44 406.17 604.44 412.71 615.95 432.72"/><rect class="cls-13" x="713.19" y="354.7" width="5.46" height="5.46" transform="translate(1431.84 714.87) rotate(180)"/><path class="cls-13" d="M709.12,364.23h13.6v-13.6h-13.6Zm13.07-.53H709.65V351.16h12.54Z"/><path class="cls-13" d="M675.47,398c-.52.1-49.63,0-49.63,0l-1.19-1.18H619s-.35,2.69,0,2.69h55Z"/><path class="cls-13" d="M606,405s.26,9.71,0,9.71-1.19-1.92-1.27-2-.05-6.46-.05-6.46Z"/><path class="cls-13" d="M681.74,391.75V394l-7.34,7.33H657l-1.91-1.9s19.09.25,19.35,0S681.74,391.75,681.74,391.75Z"/><polygon class="cls-13" points="569.33 432.72 580.84 412.71 580.84 406.17 573.93 399.27 511.43 399.27 477.59 365.43 477.22 365.8 511.21 399.8 573.72 399.8 580.31 406.39 580.31 412.56 568.88 432.46 569.33 432.72"/><rect class="cls-13" x="466.63" y="354.7" width="5.46" height="5.46"/><path class="cls-13" d="M462.56,364.23h13.6v-13.6h-13.6Zm13.07-.53H463.09V351.16h12.54Z"/><path class="cls-13" d="M509.81,398c.52.1,49.63,0,49.63,0l1.19-1.18h5.69s.36,2.69,0,2.69h-55Z"/><path class="cls-13" d="M579.31,405s-.26,9.71,0,9.71,1.19-1.92,1.27-2,0-6.46,0-6.46Z"/><path class="cls-13" d="M503.54,391.75V394l7.34,7.33h17.43l1.91-1.9s-19.09.25-19.35,0S503.54,391.75,503.54,391.75Z"/><rect class="cls-15" x="176.17" y="91.93" width="4.63" height="11.17" rx="0.54"/><rect class="cls-16" x="182.56" y="91.93" width="4.63" height="11.17" rx="0.54"/><rect class="cls-17" x="188.96" y="91.93" width="4.63" height="11.17" rx="0.54"/><rect class="cls-18" x="195.35" y="91.93" width="4.63" height="11.17" rx="0.54"/><rect class="cls-19" x="201.74" y="91.93" width="4.63" height="11.17" rx="0.54"/><rect class="cls-15" x="176.17" y="119.19" width="4.63" height="11.17" rx="0.54"/><rect class="cls-16" x="182.56" y="119.19" width="4.63" height="11.17" rx="0.54"/><rect class="cls-17" x="188.96" y="119.19" width="4.63" height="11.17" rx="0.54"/><rect class="cls-18" x="195.35" y="119.19" width="4.63" height="11.17" rx="0.54"/><rect class="cls-19" x="201.74" y="119.19" width="4.63" height="11.17" rx="0.54"/><rect class="cls-15" x="176.17" y="146.22" width="4.63" height="11.17" rx="0.54"/><rect class="cls-16" x="182.56" y="146.22" width="4.63" height="11.17" rx="0.54"/><rect class="cls-17" x="188.96" y="146.22" width="4.63" height="11.17" rx="0.54"/><rect class="cls-18" x="195.35" y="146.22" width="4.63" height="11.17" rx="0.54"/><rect class="cls-19" x="201.74" y="146.22" width="4.63" height="11.17" rx="0.54"/><path class="cls-13" d="M207.82,97.51a1.1,1.1,0,1,1-1.09-1.09A1.09,1.09,0,0,1,207.82,97.51Z"/><rect class="cls-13" x="167.15" y="85" width="7.5" height="18.08" rx="0.88"/><rect class="cls-13" x="167.2" y="112.34" width="7.5" height="18.08" rx="0.88"/><rect class="cls-13" x="167.2" y="139.37" width="7.5" height="18.08" rx="0.88"/><path class="cls-13" d="M172,84.84a1.1,1.1,0,1,1-1.09-1.1A1.09,1.09,0,0,1,172,84.84Z"/><path class="cls-13" d="M172,185.59A1.1,1.1,0,1,1,171,184.5,1.09,1.09,0,0,1,172,185.59Z"/><rect class="cls-13" x="207.82" y="97.36" width="13.24" height="0.3"/><path class="cls-13" d="M207.6,124.89a1.1,1.1,0,1,1-1.09-1.09A1.09,1.09,0,0,1,207.6,124.89Z"/><rect class="cls-13" x="207.6" y="124.74" width="13.24" height="0.3"/><path class="cls-13" d="M207.38,151.71a1.1,1.1,0,1,1-1.09-1.09A1.09,1.09,0,0,1,207.38,151.71Z"/><rect class="cls-13" x="207.38" y="151.56" width="13.24" height="0.3"/><path class="cls-13" d="M159.87,203.76c-6.1,0-11.07-6.48-11.07-14.44V84.61c0-8,5-14.44,11.07-14.44s11.07,6.47,11.07,14.44V189.32C170.94,197.28,166,203.76,159.87,203.76Zm0-133.2c-5.93,0-10.76,6.3-10.76,14V189.32c0,7.74,4.83,14,10.76,14s10.76-6.3,10.76-14V84.61C170.63,76.86,165.8,70.56,159.87,70.56Z"/><g class="cls-20"><path class="cls-13" d="M157.11,74.41c-3.37,2.12-5.73,6.88-5.73,12.4v100c0,5.53,2.36,10.28,5.73,12.41Z"/></g><g class="cls-21"><rect class="cls-22" x="158.66" y="74.41" width="1.98" height="124.56"/></g><g class="cls-23"><rect class="cls-24" x="161.96" y="74.69" width="1.98" height="124.56"/></g><g class="cls-25"><rect class="cls-22" x="221.87" y="106.32" width="59.98" height="9.41"/></g><g class="cls-26"><rect class="cls-24" x="221.87" y="133.37" width="59.98" height="9.41"/></g><rect class="cls-15" x="176.17" y="173.92" width="4.63" height="11.17" rx="0.54"/><rect class="cls-16" x="182.56" y="173.92" width="4.63" height="11.17" rx="0.54"/><rect class="cls-17" x="188.96" y="173.92" width="4.63" height="11.17" rx="0.54"/><rect class="cls-18" x="195.35" y="173.92" width="4.63" height="11.17" rx="0.54"/><rect class="cls-19" x="201.74" y="173.92" width="4.63" height="11.17" rx="0.54"/><rect class="cls-13" x="167.17" y="167.29" width="7.5" height="18.08" rx="0.88"/><g class="cls-27"><rect class="cls-24" x="221.86" y="160.28" width="59.98" height="9.41"/></g><path class="cls-13" d="M207.6,179.5a1.1,1.1,0,1,1-1.09-1.09A1.09,1.09,0,0,1,207.6,179.5Z"/><rect class="cls-13" x="207.6" y="179.35" width="13.24" height="0.3"/><rect class="cls-13" x="217.26" y="173.74" width="68.48" height="11.65" rx="5.56"/><path class="cls-28" d="M240.53,178.61l1.1-1.11v4.05h-1.1v-1h-3.25v1H236v-2.29l1.24-.65v1.73l.66-.89h2.59Zm0-1.11v1.11h-3.25L236,177.5Z"/><path class="cls-28" d="M251.29,177.52l-1.09,1.11H243v1.82H247v1.11H243l-1.1-1.11v-2.93Zm-2.43,4.6L247.59,181v-2.38l1.27.74Z"/><path class="cls-28" d="M252.68,177.5v4.05h-1.09V177.5Z"/><path class="cls-28" d="M253,177.5h1.43l4,4.05h-1.45Zm4.7,0h1.1v4.05l-1.1-1.11Z"/><path class="cls-28" d="M263.37,180h-3.22v.4h4v1.11h-4l-1.09-1.11V177.5l1.09,1.11v.31h4.05Zm1.28-2.54-1.09,1.11h-3.41V177.5Z"/><rect class="cls-13" x="217.44" y="91.84" width="68.48" height="11.65" rx="5.56"/><rect class="cls-13" x="217.3" y="119.53" width="68.48" height="11.65" rx="5.56"/><rect class="cls-13" x="217.21" y="146.04" width="68.48" height="11.65" rx="5.56"/><path class="cls-28" d="M233.27,98.81h3.95l-.54,1.11h-3.41l-1.09-1.11V95.87L233.27,97Zm3.95-2.94V97h-3.95V95.87Z"/><path class="cls-28" d="M238.78,95.87v2.18l-1.26.75V95.87Zm-1.26,2.93h4.79l-1.09,1.1h-3.7Z"/><path class="cls-28" d="M247.11,99.92H243.7l-1.09-1.11V95.87h4.5L248.19,97v2.94l-1.09-1.11V97H243.7v1.83h3.41Z"/><path class="cls-28" d="M254,95.87,252.89,97H248.5V95.87Zm-2.43,4.6-1.26-1.11V97l1.26.75Z"/><path class="cls-28" d="M255.37,95.87v1.42h2.94l-.82,1.12h-2.12v1.51h-1.09v-4Zm2.94,0h1.1v4h-1.1v-4Z"/><path class="cls-28" d="M264,98.41h-3.22v.4h4v1.11h-4l-1.09-1.11V95.87L260.79,97v.31h4Zm1.28-2.54L264.19,97h-3.4V95.87Z"/><path class="cls-28" d="M266.68,97v.32h4.5v2.62h-5.59l1.09-1.11h3.4v-.4h-4.49V95.87Zm4.5-1.11L270.08,97h-3.4V95.87Z"/><path class="cls-28" d="M225.57,124.58v.32h4.5v2.61L229,126.4V126h-4.49v-2.54Zm-1.09,2.93,1.09-1.11H229v1.11Zm5.59-4-1.1,1.11h-3.4v-1.11Z"/><path class="cls-28" d="M234.87,127.51h-3.41l-1.09-1.11v-2.93h4.5l1.08,1.11v2.93l-1.09-1.11v-1.82h-3.41v1.82h3.41Z"/><path class="cls-28" d="M237.35,123.47v2.93h3.4v1.11h-3.4l-1.09-1.11v-2.93Zm3.4,0h1.1v4l-1.1-1.11Z"/><path class="cls-28" d="M243.38,126v1.5h-1.24V124.9h4.5v-.32h-3.41l-1.09-1.11h5.59V126h-1.89l2.37,1.49h-1.85l-2.5-1.49Z"/><path class="cls-28" d="M248.09,123.47h1.43l4,4h-1.45Zm4.7,0h1.09v4l-1.09-1.11Z"/><path class="cls-28" d="M258.49,126h-3.22v.39h4v1.11h-4l-1.09-1.11v-2.93l1.09,1.11v.31h4Zm1.28-2.54-1.1,1.11h-3.4v-1.11Z"/><path class="cls-28" d="M260.07,127.51v-4l1.09,1.11v2.93Zm4.49-4,1.1,1.11v2.93h-1.1v-2.93h-3.4v-1.11Z"/><path class="cls-28" d="M267.05,123.47v4H266v-4Z"/><path class="cls-28" d="M268.58,126v1.5h-1.24V124.9h4.49v-.32h-3.4l-1.09-1.11h5.59V126H271l2.37,1.49h-1.85l-2.5-1.49Z"/><path class="cls-28" d="M274.68,124.58v.32h4.5v2.61h-5.59l1.09-1.11h3.4V126h-4.49v-2.54Zm4.5-1.11-1.1,1.11h-3.4v-1.11Z"/><path class="cls-28" d="M246,150.33h4.5v1.11h-3.4Zm0,4v-2.62h1.24v2.62Zm4.5-2.93,1.09-1.11v2.53H247.7v-1.11h2.78Z"/><path class="cls-28" d="M253,153.26h4l-.55,1.11H253l-1.09-1.11v-2.93l1.09,1.11Zm4-2.93v1.11h-4v-1.11Z"/></g></g></svg>