<svg xmlns="http://www.w3.org/2000/svg" xmlns:xlink="http://www.w3.org/1999/xlink" viewBox="0 0 490.54 467.6"><defs><style>.cls-1{mask:url(#mask);filter:url(#luminosity-noclip-8);}.cls-10,.cls-2,.cls-4,.cls-6,.cls-8{mix-blend-mode:multiply;}.cls-2{fill:url(#Безымянный_градиент_2);}.cls-11,.cls-3{mask:url(#mask-2);}.cls-4{fill:url(#linear-gradient);}.cls-12,.cls-5{mask:url(#mask-3);}.cls-6{fill:url(#linear-gradient-2);}.cls-7{mask:url(#mask-4);filter:url(#luminosity-noclip-9);}.cls-8{fill:url(#linear-gradient-3);}.cls-9{mask:url(#mask-5);filter:url(#luminosity-noclip-10);}.cls-10{fill:url(#linear-gradient-4);}.cls-11{filter:url(#luminosity-noclip-11);}.cls-12{filter:url(#luminosity-noclip-12);}.cls-13{opacity:0.5;}.cls-14{fill:url(#New_Gradient_Swatch_4);}.cls-15{mask:url(#mask-8);}.cls-16{fill:url(#New_Gradient_Swatch_4-2);}.cls-17{fill:url(#New_Gradient_Swatch_4-3);}.cls-18{fill:url(#New_Gradient_Swatch_4-4);}.cls-19{fill:url(#New_Gradient_Swatch_4-5);}.cls-20{fill:url(#New_Gradient_Swatch_4-6);}.cls-21{fill:url(#New_Gradient_Swatch_4-7);}.cls-22{fill:url(#New_Gradient_Swatch_4-8);}.cls-23{fill:url(#New_Gradient_Swatch_4-9);}.cls-24{fill:url(#New_Gradient_Swatch_4-10);}.cls-25{fill:url(#New_Gradient_Swatch_4-11);}.cls-26{fill:url(#New_Gradient_Swatch_4-12);}.cls-27{fill:url(#New_Gradient_Swatch_4-13);}.cls-28{fill:url(#New_Gradient_Swatch_4-14);}.cls-100,.cls-108,.cls-109,.cls-110,.cls-111,.cls-112,.cls-113,.cls-29,.cls-30,.cls-31,.cls-32,.cls-33,.cls-34,.cls-42,.cls-43,.cls-44,.cls-45,.cls-46,.cls-47,.cls-87,.cls-95,.cls-96,.cls-97,.cls-98,.cls-99{opacity:0.55;}.cls-29{fill:url(#New_Gradient_Swatch_4-15);}.cls-30{fill:url(#New_Gradient_Swatch_4-16);}.cls-31{fill:url(#New_Gradient_Swatch_4-17);}.cls-32{fill:url(#New_Gradient_Swatch_4-18);}.cls-33{fill:url(#New_Gradient_Swatch_4-19);}.cls-34{fill:url(#New_Gradient_Swatch_4-20);}.cls-35{fill:url(#New_Gradient_Swatch_4-21);}.cls-36{fill:url(#New_Gradient_Swatch_4-22);}.cls-37{fill:url(#New_Gradient_Swatch_4-23);}.cls-38{fill:url(#New_Gradient_Swatch_4-24);}.cls-39{fill:url(#New_Gradient_Swatch_4-25);}.cls-40{fill:url(#New_Gradient_Swatch_4-26);}.cls-41{fill:url(#New_Gradient_Swatch_4-27);}.cls-42{fill:url(#New_Gradient_Swatch_4-28);}.cls-43{fill:url(#New_Gradient_Swatch_4-29);}.cls-44{fill:url(#New_Gradient_Swatch_4-30);}.cls-45{fill:url(#New_Gradient_Swatch_4-31);}.cls-46{fill:url(#New_Gradient_Swatch_4-32);}.cls-47{fill:url(#New_Gradient_Swatch_4-33);}.cls-48{fill:url(#New_Gradient_Swatch_4-34);}.cls-49{fill:url(#New_Gradient_Swatch_4-35);}.cls-50{fill:url(#New_Gradient_Swatch_4-36);}.cls-51{fill:url(#New_Gradient_Swatch_4-37);}.cls-52{fill:url(#New_Gradient_Swatch_4-38);}.cls-53{fill:url(#New_Gradient_Swatch_4-39);}.cls-54{fill:url(#New_Gradient_Swatch_4-40);}.cls-55{fill:url(#New_Gradient_Swatch_4-41);}.cls-56{fill:url(#New_Gradient_Swatch_4-42);}.cls-57{fill:url(#New_Gradient_Swatch_4-43);}.cls-58{fill:url(#New_Gradient_Swatch_4-44);}.cls-59{fill:url(#New_Gradient_Swatch_4-45);}.cls-60{fill:url(#New_Gradient_Swatch_4-46);}.cls-127,.cls-128,.cls-129,.cls-130,.cls-61,.cls-62,.cls-63,.cls-64{opacity:0.68;}.cls-61{fill:url(#New_Gradient_Swatch_4-47);}.cls-62{fill:url(#New_Gradient_Swatch_4-48);}.cls-63{fill:url(#New_Gradient_Swatch_4-49);}.cls-64{fill:url(#New_Gradient_Swatch_4-50);}.cls-65{fill:url(#New_Gradient_Swatch_4-51);}.cls-66{fill:url(#New_Gradient_Swatch_4-52);}.cls-67{fill:url(#New_Gradient_Swatch_4-53);}.cls-68{fill:url(#New_Gradient_Swatch_4-54);}.cls-69{fill:url(#New_Gradient_Swatch_4-55);}.cls-70{fill:url(#New_Gradient_Swatch_4-56);}.cls-71{fill:url(#New_Gradient_Swatch_4-57);}.cls-72{fill:url(#New_Gradient_Swatch_4-58);}.cls-73{fill:url(#New_Gradient_Swatch_4-59);}.cls-74{fill:url(#New_Gradient_Swatch_4-60);}.cls-75{fill:url(#New_Gradient_Swatch_4-61);}.cls-76{fill:url(#New_Gradient_Swatch_4-62);}.cls-77{fill:url(#New_Gradient_Swatch_4-63);}.cls-78{fill:url(#New_Gradient_Swatch_4-64);}.cls-79{fill:url(#New_Gradient_Swatch_4-65);}.cls-80{fill:url(#New_Gradient_Swatch_4-66);}.cls-81{fill:url(#New_Gradient_Swatch_4-67);}.cls-82{fill:url(#New_Gradient_Swatch_4-68);}.cls-83{fill:url(#New_Gradient_Swatch_4-69);}.cls-84{fill:url(#New_Gradient_Swatch_4-70);}.cls-85{fill:url(#New_Gradient_Swatch_4-71);}.cls-86{fill:url(#New_Gradient_Swatch_4-72);}.cls-88{fill:url(#New_Gradient_Swatch_4-73);}.cls-89{fill:url(#New_Gradient_Swatch_4-74);}.cls-90{fill:url(#New_Gradient_Swatch_4-75);}.cls-91{fill:url(#New_Gradient_Swatch_4-76);}.cls-92{fill:url(#New_Gradient_Swatch_4-77);}.cls-93{fill:url(#New_Gradient_Swatch_4-78);}.cls-94{fill:url(#New_Gradient_Swatch_4-79);}.cls-95{fill:url(#New_Gradient_Swatch_4-80);}.cls-96{fill:url(#New_Gradient_Swatch_4-81);}.cls-97{fill:url(#New_Gradient_Swatch_4-82);}.cls-98{fill:url(#New_Gradient_Swatch_4-83);}.cls-99{fill:url(#New_Gradient_Swatch_4-84);}.cls-100{fill:url(#New_Gradient_Swatch_4-85);}.cls-101{fill:url(#New_Gradient_Swatch_4-86);}.cls-102{fill:url(#New_Gradient_Swatch_4-87);}.cls-103{fill:url(#New_Gradient_Swatch_4-88);}.cls-104{fill:url(#New_Gradient_Swatch_4-89);}.cls-105{fill:url(#New_Gradient_Swatch_4-90);}.cls-106{fill:url(#New_Gradient_Swatch_4-91);}.cls-107{fill:url(#New_Gradient_Swatch_4-92);}.cls-108{fill:url(#New_Gradient_Swatch_4-93);}.cls-109{fill:url(#New_Gradient_Swatch_4-94);}.cls-110{fill:url(#New_Gradient_Swatch_4-95);}.cls-111{fill:url(#New_Gradient_Swatch_4-96);}.cls-112{fill:url(#New_Gradient_Swatch_4-97);}.cls-113{fill:url(#New_Gradient_Swatch_4-98);}.cls-114{fill:url(#New_Gradient_Swatch_4-99);}.cls-115{fill:url(#New_Gradient_Swatch_4-100);}.cls-116{fill:url(#New_Gradient_Swatch_4-101);}.cls-117{fill:url(#New_Gradient_Swatch_4-102);}.cls-118{fill:url(#New_Gradient_Swatch_4-103);}.cls-119{fill:url(#New_Gradient_Swatch_4-104);}.cls-120{fill:url(#New_Gradient_Swatch_4-105);}.cls-121{fill:url(#New_Gradient_Swatch_4-106);}.cls-122{fill:url(#New_Gradient_Swatch_4-107);}.cls-123{fill:url(#New_Gradient_Swatch_4-108);}.cls-124{fill:url(#New_Gradient_Swatch_4-109);}.cls-125{fill:url(#New_Gradient_Swatch_4-110);}.cls-126{fill:url(#New_Gradient_Swatch_4-111);}.cls-127{fill:url(#New_Gradient_Swatch_4-112);}.cls-128{fill:url(#New_Gradient_Swatch_4-113);}.cls-129{fill:url(#New_Gradient_Swatch_4-114);}.cls-130{fill:url(#New_Gradient_Swatch_4-115);}.cls-131{fill:url(#New_Gradient_Swatch_4-116);}.cls-132{fill:url(#New_Gradient_Swatch_4-117);}.cls-133{fill:url(#New_Gradient_Swatch_4-118);}.cls-134{fill:url(#New_Gradient_Swatch_4-119);}.cls-135{fill:url(#New_Gradient_Swatch_4-120);}.cls-136{fill:url(#New_Gradient_Swatch_4-121);}.cls-137{fill:url(#New_Gradient_Swatch_4-122);}.cls-138{fill:url(#New_Gradient_Swatch_4-123);}.cls-139{fill:url(#New_Gradient_Swatch_4-124);}.cls-140{fill:url(#New_Gradient_Swatch_4-125);}.cls-141{fill:url(#New_Gradient_Swatch_4-126);}.cls-142{fill:url(#New_Gradient_Swatch_4-127);}.cls-143{fill:url(#New_Gradient_Swatch_4-128);}.cls-144{fill:url(#New_Gradient_Swatch_4-129);}.cls-145{fill:url(#New_Gradient_Swatch_4-130);}.cls-146{fill:url(#New_Gradient_Swatch_4-131);}.cls-147{fill:url(#New_Gradient_Swatch_4-132);}.cls-148{fill:url(#New_Gradient_Swatch_4-133);}.cls-149{fill:url(#New_Gradient_Swatch_4-134);}.cls-150{fill:url(#New_Gradient_Swatch_4-135);}.cls-151{fill:url(#New_Gradient_Swatch_4-136);}.cls-152{fill:url(#New_Gradient_Swatch_4-137);}.cls-153{fill:url(#New_Gradient_Swatch_4-138);}.cls-154{fill:url(#New_Gradient_Swatch_4-139);}.cls-155{fill:url(#New_Gradient_Swatch_4-140);}.cls-156{fill:url(#New_Gradient_Swatch_4-141);}.cls-157{fill:url(#New_Gradient_Swatch_4-142);}.cls-158{fill:url(#New_Gradient_Swatch_4-143);}.cls-159{fill:url(#New_Gradient_Swatch_4-144);}.cls-160{fill:url(#New_Gradient_Swatch_4-145);}.cls-161{fill:url(#New_Gradient_Swatch_4-146);}.cls-162{fill:url(#New_Gradient_Swatch_4-147);}.cls-163{fill:url(#New_Gradient_Swatch_4-148);}.cls-164{fill:url(#New_Gradient_Swatch_4-149);}.cls-165{fill:url(#New_Gradient_Swatch_4-151);}.cls-166{fill:url(#New_Gradient_Swatch_4-153);}.cls-167,.cls-172,.cls-175,.cls-180{opacity:0.8;}.cls-167{fill:url(#New_Gradient_Swatch_4-155);}.cls-168,.cls-174,.cls-176,.cls-182{opacity:0.6;}.cls-168{fill:url(#New_Gradient_Swatch_4-156);}.cls-169{fill:url(#New_Gradient_Swatch_4-157);}.cls-170,.cls-173,.cls-178,.cls-181,.cls-189{opacity:0.4;}.cls-170{fill:url(#New_Gradient_Swatch_4-158);}.cls-171{fill:url(#New_Gradient_Swatch_4-159);}.cls-172{fill:url(#New_Gradient_Swatch_4-160);}.cls-173{fill:url(#New_Gradient_Swatch_4-161);}.cls-174{fill:url(#New_Gradient_Swatch_4-162);}.cls-175{fill:url(#New_Gradient_Swatch_4-163);}.cls-176{fill:url(#New_Gradient_Swatch_4-164);}.cls-177{fill:url(#New_Gradient_Swatch_4-165);}.cls-178{fill:url(#New_Gradient_Swatch_4-166);}.cls-179{fill:url(#New_Gradient_Swatch_4-167);}.cls-180{fill:url(#New_Gradient_Swatch_4-168);}.cls-181{fill:url(#New_Gradient_Swatch_4-169);}.cls-182{fill:url(#New_Gradient_Swatch_4-170);}.cls-183,.cls-184{opacity:0.1;}.cls-183{fill:url(#New_Gradient_Swatch_4-171);}.cls-184{fill:url(#New_Gradient_Swatch_4-172);}.cls-185{mask:url(#mask-9);}.cls-186{fill:url(#New_Gradient_Swatch_4-174);}.cls-187{mask:url(#mask-10);}.cls-188{fill:url(#New_Gradient_Swatch_4-175);}.cls-190{mask:url(#mask-11);}.cls-191{fill:url(#New_Gradient_Swatch_4-176);}.cls-192{mask:url(#mask-12);}.cls-193{fill:url(#New_Gradient_Swatch_4-177);}.cls-194{filter:url(#luminosity-noclip-5);}.cls-195{filter:url(#luminosity-noclip-4);}.cls-196{filter:url(#luminosity-noclip-3);}.cls-197{filter:url(#luminosity-noclip-2);}.cls-198{filter:url(#luminosity-noclip);}</style><filter id="luminosity-noclip" x="20.54" y="-8425.98" width="451.66" height="32766" filterUnits="userSpaceOnUse" color-interpolation-filters="sRGB"><feFlood flood-color="#fff" result="bg"/><feBlend in="SourceGraphic" in2="bg"/></filter><mask id="mask" x="20.54" y="-8425.98" width="451.66" height="32766" maskUnits="userSpaceOnUse"><g class="cls-198"/></mask><radialGradient id="Безымянный_градиент_2" cx="229.13" cy="331.58" r="255.93" gradientTransform="translate(44.19 -59.05) scale(0.88)" gradientUnits="userSpaceOnUse"><stop offset="0.59" stop-color="#fff"/><stop offset="0.81" stop-color="gray"/><stop offset="0.9" stop-color="#4d4d4d"/><stop offset="1"/></radialGradient><filter id="luminosity-noclip-2" x="267.63" y="-8425.98" width="95.04" height="32766" filterUnits="userSpaceOnUse" color-interpolation-filters="sRGB"><feFlood flood-color="#fff" result="bg"/><feBlend in="SourceGraphic" in2="bg"/></filter><mask id="mask-2" x="267.63" y="-8425.98" width="95.04" height="32766" maskUnits="userSpaceOnUse"><g class="cls-197"/></mask><linearGradient id="linear-gradient" x1="330.92" y1="148.56" x2="268.22" y2="211.27" gradientUnits="userSpaceOnUse"><stop offset="0" stop-color="#fff"/><stop offset="0.03" stop-color="#ededed"/><stop offset="0.14" stop-color="#b6b6b6"/><stop offset="0.26" stop-color="#868686"/><stop offset="0.37" stop-color="#5d5d5d"/><stop offset="0.49" stop-color="#3b3b3b"/><stop offset="0.61" stop-color="#212121"/><stop offset="0.73" stop-color="#0f0f0f"/><stop offset="0.86" stop-color="#040404"/><stop offset="1"/></linearGradient><filter id="luminosity-noclip-3" x="130.6" y="-8425.98" width="95.04" height="32766" filterUnits="userSpaceOnUse" color-interpolation-filters="sRGB"><feFlood flood-color="#fff" result="bg"/><feBlend in="SourceGraphic" in2="bg"/></filter><mask id="mask-3" x="130.6" y="-8425.98" width="95.04" height="32766" maskUnits="userSpaceOnUse"><g class="cls-196"/></mask><linearGradient id="linear-gradient-2" x1="-855.72" y1="-843.62" x2="-918.42" y2="-780.91" gradientTransform="translate(-693.37 -526.48) rotate(180)" xlink:href="#linear-gradient"/><filter id="luminosity-noclip-4" x="261.19" y="-8425.98" width="65.91" height="32766" filterUnits="userSpaceOnUse" color-interpolation-filters="sRGB"><feFlood flood-color="#fff" result="bg"/><feBlend in="SourceGraphic" in2="bg"/></filter><mask id="mask-4" x="261.19" y="-8425.98" width="65.91" height="32766" maskUnits="userSpaceOnUse"><g class="cls-195"/></mask><linearGradient id="linear-gradient-3" x1="305.09" y1="174.39" x2="261.6" y2="217.88" xlink:href="#linear-gradient"/><filter id="luminosity-noclip-5" x="166.16" y="-8425.98" width="65.91" height="32766" filterUnits="userSpaceOnUse" color-interpolation-filters="sRGB"><feFlood flood-color="#fff" result="bg"/><feBlend in="SourceGraphic" in2="bg"/></filter><mask id="mask-5" x="166.16" y="-8425.98" width="65.91" height="32766" maskUnits="userSpaceOnUse"><g class="cls-194"/></mask><linearGradient id="linear-gradient-4" x1="-881.55" y1="-817.79" x2="-925.04" y2="-774.3" gradientTransform="translate(-693.37 -526.48) rotate(180)" xlink:href="#linear-gradient"/><radialGradient id="New_Gradient_Swatch_4" cx="246.37" cy="233.54" r="208.03" gradientUnits="userSpaceOnUse"><stop offset="0" stop-color="#3ab2c0"/><stop offset="0.23" stop-color="#3dafc1"/><stop offset="0.41" stop-color="#45a5c4"/><stop offset="0.58" stop-color="#5294c8"/><stop offset="0.74" stop-color="#667cce"/><stop offset="0.89" stop-color="#7e5dd7"/><stop offset="1" stop-color="#9541de"/></radialGradient><filter id="luminosity-noclip-8" x="20.54" y="7.71" width="451.66" height="451.66" filterUnits="userSpaceOnUse" color-interpolation-filters="sRGB"><feFlood flood-color="#fff" result="bg"/><feBlend in="SourceGraphic" in2="bg"/></filter><mask id="mask-8" x="20.54" y="7.71" width="451.66" height="451.66" maskUnits="userSpaceOnUse"><g class="cls-1"><path class="cls-2" d="M472.2,233.54A225.83,225.83,0,0,0,246.37,7.71V59.49a174,174,0,0,1,174,174Zm-225.83,174a174,174,0,0,1-174-174H20.54A225.83,225.83,0,0,0,246.37,459.37Z"/></g></mask><radialGradient id="New_Gradient_Swatch_4-2" cx="246.37" cy="233.54" r="225.83" xlink:href="#New_Gradient_Swatch_4"/><radialGradient id="New_Gradient_Swatch_4-3" cx="246.37" cy="233.54" r="85.43" xlink:href="#New_Gradient_Swatch_4"/><radialGradient id="New_Gradient_Swatch_4-4" cx="246.37" cy="233.54" r="22.56" xlink:href="#New_Gradient_Swatch_4"/><radialGradient id="New_Gradient_Swatch_4-5" cx="267.83" cy="274.09" r="28.69" xlink:href="#New_Gradient_Swatch_4"/><radialGradient id="New_Gradient_Swatch_4-6" cx="224.91" cy="192.75" r="28.85" xlink:href="#New_Gradient_Swatch_4"/><radialGradient id="New_Gradient_Swatch_4-7" cx="287.16" cy="212.08" r="28.85" xlink:href="#New_Gradient_Swatch_4"/><radialGradient id="New_Gradient_Swatch_4-8" cx="205.58" cy="255" r="28.85" xlink:href="#New_Gradient_Swatch_4"/><radialGradient id="New_Gradient_Swatch_4-9" cx="232.7" cy="277.32" r="29.45" gradientTransform="translate(264.25 -83.32) rotate(45)" xlink:href="#New_Gradient_Swatch_4"/><radialGradient id="New_Gradient_Swatch_4-10" cx="259.87" cy="189.45" r="29.62" gradientTransform="translate(210.08 -128.27) rotate(45)" xlink:href="#New_Gradient_Swatch_4"/><radialGradient id="New_Gradient_Swatch_4-11" cx="290.22" cy="247.14" r="29.62" gradientTransform="translate(259.76 -132.83) rotate(45)" xlink:href="#New_Gradient_Swatch_4"/><radialGradient id="New_Gradient_Swatch_4-12" cx="202.19" cy="219.8" r="29.62" gradientTransform="translate(214.64 -78.59) rotate(45)" xlink:href="#New_Gradient_Swatch_4"/><radialGradient id="New_Gradient_Swatch_4-13" cx="350.66" cy="383.54" r="79.51" xlink:href="#New_Gradient_Swatch_4"/><radialGradient id="New_Gradient_Swatch_4-14" cx="317.29" cy="437.85" r="41.1" xlink:href="#New_Gradient_Swatch_4"/><radialGradient id="New_Gradient_Swatch_4-15" cx="355.05" cy="424.19" r="4.42" xlink:href="#New_Gradient_Swatch_4"/><radialGradient id="New_Gradient_Swatch_4-16" cx="345.18" cy="429.56" r="4.42" xlink:href="#New_Gradient_Swatch_4"/><radialGradient id="New_Gradient_Swatch_4-17" cx="335.04" cy="434.42" r="4.42" xlink:href="#New_Gradient_Swatch_4"/><radialGradient id="New_Gradient_Swatch_4-18" cx="324.67" cy="438.74" r="4.42" xlink:href="#New_Gradient_Swatch_4"/><radialGradient id="New_Gradient_Swatch_4-19" cx="314.09" cy="442.52" r="4.42" xlink:href="#New_Gradient_Swatch_4"/><radialGradient id="New_Gradient_Swatch_4-20" cx="303.32" cy="445.75" r="4.42" xlink:href="#New_Gradient_Swatch_4"/><radialGradient id="New_Gradient_Swatch_4-21" cx="431.93" cy="332.59" r="20.07" xlink:href="#New_Gradient_Swatch_4"/><radialGradient id="New_Gradient_Swatch_4-22" cx="271.03" cy="451.77" r="17.21" xlink:href="#New_Gradient_Swatch_4"/><radialGradient id="New_Gradient_Swatch_4-23" cx="328.33" cy="409.09" r="54.77" xlink:href="#New_Gradient_Swatch_4"/><radialGradient id="New_Gradient_Swatch_4-24" cx="380.43" cy="402.81" r="15.81" xlink:href="#New_Gradient_Swatch_4"/><radialGradient id="New_Gradient_Swatch_4-25" cx="248.16" cy="446.43" r="3.39" xlink:href="#New_Gradient_Swatch_4"/><radialGradient id="New_Gradient_Swatch_4-26" cx="350.66" cy="84.07" r="79.51" xlink:href="#New_Gradient_Swatch_4"/><radialGradient id="New_Gradient_Swatch_4-27" cx="317.29" cy="29.75" r="41.1" xlink:href="#New_Gradient_Swatch_4"/><radialGradient id="New_Gradient_Swatch_4-28" cx="355.05" cy="43.41" r="4.42" xlink:href="#New_Gradient_Swatch_4"/><radialGradient id="New_Gradient_Swatch_4-29" cx="345.18" cy="38.04" r="4.42" xlink:href="#New_Gradient_Swatch_4"/><radialGradient id="New_Gradient_Swatch_4-30" cx="335.04" cy="33.19" r="4.42" xlink:href="#New_Gradient_Swatch_4"/><radialGradient id="New_Gradient_Swatch_4-31" cx="324.67" cy="28.87" r="4.42" xlink:href="#New_Gradient_Swatch_4"/><radialGradient id="New_Gradient_Swatch_4-32" cx="314.09" cy="25.08" r="4.42" xlink:href="#New_Gradient_Swatch_4"/><radialGradient id="New_Gradient_Swatch_4-33" cx="303.32" cy="21.85" r="4.42" xlink:href="#New_Gradient_Swatch_4"/><radialGradient id="New_Gradient_Swatch_4-34" cx="431.93" cy="135.01" r="20.07" xlink:href="#New_Gradient_Swatch_4"/><radialGradient id="New_Gradient_Swatch_4-35" cx="271.03" cy="15.83" r="17.21" xlink:href="#New_Gradient_Swatch_4"/><radialGradient id="New_Gradient_Swatch_4-36" cx="328.33" cy="58.51" r="54.77" xlink:href="#New_Gradient_Swatch_4"/><radialGradient id="New_Gradient_Swatch_4-37" cx="380.43" cy="64.79" r="15.81" xlink:href="#New_Gradient_Swatch_4"/><radialGradient id="New_Gradient_Swatch_4-38" cx="248.16" cy="21.18" r="3.39" xlink:href="#New_Gradient_Swatch_4"/><radialGradient id="New_Gradient_Swatch_4-39" cx="474.01" cy="231.04" r="11.73" xlink:href="#New_Gradient_Swatch_4"/><radialGradient id="New_Gradient_Swatch_4-40" cx="477.26" cy="222.39" r="3.42" xlink:href="#New_Gradient_Swatch_4"/><radialGradient id="New_Gradient_Swatch_4-41" cx="477.42" cy="240.14" r="3.41" xlink:href="#New_Gradient_Swatch_4"/><radialGradient id="New_Gradient_Swatch_4-42" cx="481.82" cy="231.04" r="4.44" xlink:href="#New_Gradient_Swatch_4"/><radialGradient id="New_Gradient_Swatch_4-43" cx="473.15" cy="250.13" r="7.07" xlink:href="#New_Gradient_Swatch_4"/><radialGradient id="New_Gradient_Swatch_4-44" cx="472.44" cy="258.62" r="7.18" xlink:href="#New_Gradient_Swatch_4"/><radialGradient id="New_Gradient_Swatch_4-45" cx="471.36" cy="267.08" r="7.28" xlink:href="#New_Gradient_Swatch_4"/><radialGradient id="New_Gradient_Swatch_4-46" cx="469.95" cy="275.5" r="7.37" xlink:href="#New_Gradient_Swatch_4"/><radialGradient id="New_Gradient_Swatch_4-47" cx="468.25" cy="283.86" r="7.45" xlink:href="#New_Gradient_Swatch_4"/><radialGradient id="New_Gradient_Swatch_4-48" cx="466.27" cy="292.15" r="7.52" xlink:href="#New_Gradient_Swatch_4"/><radialGradient id="New_Gradient_Swatch_4-49" cx="463.94" cy="300.36" r="7.6" xlink:href="#New_Gradient_Swatch_4"/><radialGradient id="New_Gradient_Swatch_4-50" cx="461.43" cy="308.06" r="7.65" xlink:href="#New_Gradient_Swatch_4"/><radialGradient id="New_Gradient_Swatch_4-51" cx="472.79" cy="212.74" r="7.14" xlink:href="#New_Gradient_Swatch_4"/><radialGradient id="New_Gradient_Swatch_4-52" cx="471.84" cy="204.26" r="7.24" xlink:href="#New_Gradient_Swatch_4"/><radialGradient id="New_Gradient_Swatch_4-53" cx="470.61" cy="195.82" r="7.33" xlink:href="#New_Gradient_Swatch_4"/><radialGradient id="New_Gradient_Swatch_4-54" cx="469.09" cy="187.44" r="7.41" xlink:href="#New_Gradient_Swatch_4"/><radialGradient id="New_Gradient_Swatch_4-55" cx="467.18" cy="179.11" r="7.5" xlink:href="#New_Gradient_Swatch_4"/><radialGradient id="New_Gradient_Swatch_4-56" cx="464.98" cy="170.86" r="7.57" xlink:href="#New_Gradient_Swatch_4"/><radialGradient id="New_Gradient_Swatch_4-57" cx="462.49" cy="162.7" r="7.63" xlink:href="#New_Gradient_Swatch_4"/><radialGradient id="New_Gradient_Swatch_4-58" cx="459.79" cy="154.8" r="7.68" xlink:href="#New_Gradient_Swatch_4"/><radialGradient id="New_Gradient_Swatch_4-59" cx="472.88" cy="285.61" r="25.8" xlink:href="#New_Gradient_Swatch_4"/><radialGradient id="New_Gradient_Swatch_4-60" cx="482.92" cy="258.16" r="5.45" xlink:href="#New_Gradient_Swatch_4"/><radialGradient id="New_Gradient_Swatch_4-61" cx="471.65" cy="176.81" r="26.15" xlink:href="#New_Gradient_Swatch_4"/><radialGradient id="New_Gradient_Swatch_4-62" cx="482.4" cy="204.5" r="5.48" xlink:href="#New_Gradient_Swatch_4"/><radialGradient id="New_Gradient_Swatch_4-63" cx="471.04" cy="166.84" r="33.62" xlink:href="#New_Gradient_Swatch_4"/><radialGradient id="New_Gradient_Swatch_4-64" cx="442.97" cy="101.27" r="24.16" xlink:href="#New_Gradient_Swatch_4"/><radialGradient id="New_Gradient_Swatch_4-65" cx="434.26" cy="108.56" r="28.77" xlink:href="#New_Gradient_Swatch_4"/><radialGradient id="New_Gradient_Swatch_4-66" cx="424.14" cy="100.65" r="13.04" xlink:href="#New_Gradient_Swatch_4"/><radialGradient id="New_Gradient_Swatch_4-67" cx="452.97" cy="146.1" r="6.5" xlink:href="#New_Gradient_Swatch_4"/><radialGradient id="New_Gradient_Swatch_4-68" cx="472.67" cy="294.97" r="33.6" xlink:href="#New_Gradient_Swatch_4"/><radialGradient id="New_Gradient_Swatch_4-69" cx="446.29" cy="361.2" r="24.12" xlink:href="#New_Gradient_Swatch_4"/><radialGradient id="New_Gradient_Swatch_4-70" cx="437.44" cy="354.16" r="28.77" xlink:href="#New_Gradient_Swatch_4"/><radialGradient id="New_Gradient_Swatch_4-71" cx="427.51" cy="362.28" r="13.01" xlink:href="#New_Gradient_Swatch_4"/><radialGradient id="New_Gradient_Swatch_4-72" cx="455.27" cy="316.24" r="6.5" xlink:href="#New_Gradient_Swatch_4"/><radialGradient id="New_Gradient_Swatch_4-73" cx="426.48" cy="226.69" r="81.6" xlink:href="#New_Gradient_Swatch_4"/><radialGradient id="New_Gradient_Swatch_4-74" cx="430.28" cy="270.51" r="30.62" xlink:href="#New_Gradient_Swatch_4"/><radialGradient id="New_Gradient_Swatch_4-75" cx="424.17" cy="173.31" r="30.74" xlink:href="#New_Gradient_Swatch_4"/><radialGradient id="New_Gradient_Swatch_4-76" cx="431.92" cy="219.88" r="14.76" xlink:href="#New_Gradient_Swatch_4"/><radialGradient id="New_Gradient_Swatch_4-77" cx="426.99" cy="221.93" r="3.5" xlink:href="#New_Gradient_Swatch_4"/><radialGradient id="New_Gradient_Swatch_4-78" cx="139.88" cy="84.07" r="79.51" xlink:href="#New_Gradient_Swatch_4"/><radialGradient id="New_Gradient_Swatch_4-79" cx="173.24" cy="29.75" r="41.1" xlink:href="#New_Gradient_Swatch_4"/><radialGradient id="New_Gradient_Swatch_4-80" cx="135.49" cy="43.41" r="4.42" xlink:href="#New_Gradient_Swatch_4"/><radialGradient id="New_Gradient_Swatch_4-81" cx="145.36" cy="38.04" r="4.42" xlink:href="#New_Gradient_Swatch_4"/><radialGradient id="New_Gradient_Swatch_4-82" cx="155.49" cy="33.19" r="4.42" xlink:href="#New_Gradient_Swatch_4"/><radialGradient id="New_Gradient_Swatch_4-83" cx="165.87" cy="28.87" r="4.42" xlink:href="#New_Gradient_Swatch_4"/><radialGradient id="New_Gradient_Swatch_4-84" cx="176.45" cy="25.08" r="4.42" xlink:href="#New_Gradient_Swatch_4"/><radialGradient id="New_Gradient_Swatch_4-85" cx="187.21" cy="21.85" r="4.42" xlink:href="#New_Gradient_Swatch_4"/><radialGradient id="New_Gradient_Swatch_4-86" cx="58.61" cy="135.01" r="20.07" xlink:href="#New_Gradient_Swatch_4"/><radialGradient id="New_Gradient_Swatch_4-87" cx="219.51" cy="15.83" r="17.21" xlink:href="#New_Gradient_Swatch_4"/><radialGradient id="New_Gradient_Swatch_4-88" cx="162.2" cy="58.51" r="54.77" xlink:href="#New_Gradient_Swatch_4"/><radialGradient id="New_Gradient_Swatch_4-89" cx="110.11" cy="64.79" r="15.81" xlink:href="#New_Gradient_Swatch_4"/><radialGradient id="New_Gradient_Swatch_4-90" cx="242.38" cy="21.18" r="3.39" xlink:href="#New_Gradient_Swatch_4"/><radialGradient id="New_Gradient_Swatch_4-91" cx="139.88" cy="383.54" r="79.51" xlink:href="#New_Gradient_Swatch_4"/><radialGradient id="New_Gradient_Swatch_4-92" cx="173.24" cy="437.85" r="41.1" xlink:href="#New_Gradient_Swatch_4"/><radialGradient id="New_Gradient_Swatch_4-93" cx="135.49" cy="424.19" r="4.42" xlink:href="#New_Gradient_Swatch_4"/><radialGradient id="New_Gradient_Swatch_4-94" cx="145.36" cy="429.56" r="4.42" xlink:href="#New_Gradient_Swatch_4"/><radialGradient id="New_Gradient_Swatch_4-95" cx="155.49" cy="434.42" r="4.42" xlink:href="#New_Gradient_Swatch_4"/><radialGradient id="New_Gradient_Swatch_4-96" cx="165.87" cy="438.74" r="4.42" xlink:href="#New_Gradient_Swatch_4"/><radialGradient id="New_Gradient_Swatch_4-97" cx="176.45" cy="442.52" r="4.42" xlink:href="#New_Gradient_Swatch_4"/><radialGradient id="New_Gradient_Swatch_4-98" cx="187.21" cy="445.75" r="4.42" xlink:href="#New_Gradient_Swatch_4"/><radialGradient id="New_Gradient_Swatch_4-99" cx="58.61" cy="332.59" r="20.07" xlink:href="#New_Gradient_Swatch_4"/><radialGradient id="New_Gradient_Swatch_4-100" cx="219.51" cy="451.77" r="17.21" xlink:href="#New_Gradient_Swatch_4"/><radialGradient id="New_Gradient_Swatch_4-101" cx="162.2" cy="409.09" r="54.77" xlink:href="#New_Gradient_Swatch_4"/><radialGradient id="New_Gradient_Swatch_4-102" cx="110.11" cy="402.81" r="15.81" xlink:href="#New_Gradient_Swatch_4"/><radialGradient id="New_Gradient_Swatch_4-103" cx="242.38" cy="446.43" r="3.39" xlink:href="#New_Gradient_Swatch_4"/><radialGradient id="New_Gradient_Swatch_4-104" cx="16.53" cy="236.56" r="11.73" xlink:href="#New_Gradient_Swatch_4"/><radialGradient id="New_Gradient_Swatch_4-105" cx="13.28" cy="245.21" r="3.42" xlink:href="#New_Gradient_Swatch_4"/><radialGradient id="New_Gradient_Swatch_4-106" cx="13.12" cy="227.46" r="3.41" xlink:href="#New_Gradient_Swatch_4"/><radialGradient id="New_Gradient_Swatch_4-107" cx="8.72" cy="236.56" r="4.44" xlink:href="#New_Gradient_Swatch_4"/><radialGradient id="New_Gradient_Swatch_4-108" cx="17.39" cy="217.47" r="7.07" xlink:href="#New_Gradient_Swatch_4"/><radialGradient id="New_Gradient_Swatch_4-109" cx="18.1" cy="208.98" r="7.18" xlink:href="#New_Gradient_Swatch_4"/><radialGradient id="New_Gradient_Swatch_4-110" cx="19.18" cy="200.52" r="7.28" xlink:href="#New_Gradient_Swatch_4"/><radialGradient id="New_Gradient_Swatch_4-111" cx="20.59" cy="192.1" r="7.37" xlink:href="#New_Gradient_Swatch_4"/><radialGradient id="New_Gradient_Swatch_4-112" cx="22.29" cy="183.74" r="7.45" xlink:href="#New_Gradient_Swatch_4"/><radialGradient id="New_Gradient_Swatch_4-113" cx="24.27" cy="175.45" r="7.53" xlink:href="#New_Gradient_Swatch_4"/><radialGradient id="New_Gradient_Swatch_4-114" cx="26.6" cy="167.24" r="7.6" xlink:href="#New_Gradient_Swatch_4"/><radialGradient id="New_Gradient_Swatch_4-115" cx="29.11" cy="159.54" r="7.65" xlink:href="#New_Gradient_Swatch_4"/><radialGradient id="New_Gradient_Swatch_4-116" cx="17.75" cy="254.86" r="7.14" xlink:href="#New_Gradient_Swatch_4"/><radialGradient id="New_Gradient_Swatch_4-117" cx="18.7" cy="263.34" r="7.24" xlink:href="#New_Gradient_Swatch_4"/><radialGradient id="New_Gradient_Swatch_4-118" cx="19.93" cy="271.78" r="7.33" xlink:href="#New_Gradient_Swatch_4"/><radialGradient id="New_Gradient_Swatch_4-119" cx="21.45" cy="280.16" r="7.41" xlink:href="#New_Gradient_Swatch_4"/><radialGradient id="New_Gradient_Swatch_4-120" cx="23.36" cy="288.49" r="7.5" xlink:href="#New_Gradient_Swatch_4"/><radialGradient id="New_Gradient_Swatch_4-121" cx="25.56" cy="296.74" r="7.57" xlink:href="#New_Gradient_Swatch_4"/><radialGradient id="New_Gradient_Swatch_4-122" cx="28.04" cy="304.9" r="7.63" xlink:href="#New_Gradient_Swatch_4"/><radialGradient id="New_Gradient_Swatch_4-123" cx="30.75" cy="312.81" r="7.68" xlink:href="#New_Gradient_Swatch_4"/><radialGradient id="New_Gradient_Swatch_4-124" cx="17.66" cy="181.99" r="25.8" xlink:href="#New_Gradient_Swatch_4"/><radialGradient id="New_Gradient_Swatch_4-125" cx="7.62" cy="209.44" r="5.45" xlink:href="#New_Gradient_Swatch_4"/><radialGradient id="New_Gradient_Swatch_4-126" cx="18.89" cy="290.79" r="26.15" xlink:href="#New_Gradient_Swatch_4"/><radialGradient id="New_Gradient_Swatch_4-127" cx="8.13" cy="263.11" r="5.48" xlink:href="#New_Gradient_Swatch_4"/><radialGradient id="New_Gradient_Swatch_4-128" cx="19.5" cy="300.76" r="33.62" xlink:href="#New_Gradient_Swatch_4"/><radialGradient id="New_Gradient_Swatch_4-129" cx="47.57" cy="366.34" r="24.16" xlink:href="#New_Gradient_Swatch_4"/><radialGradient id="New_Gradient_Swatch_4-130" cx="56.28" cy="359.04" r="28.77" xlink:href="#New_Gradient_Swatch_4"/><radialGradient id="New_Gradient_Swatch_4-131" cx="66.4" cy="366.95" r="13.04" xlink:href="#New_Gradient_Swatch_4"/><radialGradient id="New_Gradient_Swatch_4-132" cx="37.57" cy="321.51" r="6.5" xlink:href="#New_Gradient_Swatch_4"/><radialGradient id="New_Gradient_Swatch_4-133" cx="17.87" cy="172.63" r="33.6" xlink:href="#New_Gradient_Swatch_4"/><radialGradient id="New_Gradient_Swatch_4-134" cx="44.25" cy="106.4" r="24.12" xlink:href="#New_Gradient_Swatch_4"/><radialGradient id="New_Gradient_Swatch_4-135" cx="53.1" cy="113.44" r="28.77" xlink:href="#New_Gradient_Swatch_4"/><radialGradient id="New_Gradient_Swatch_4-136" cx="63.03" cy="105.32" r="13.01" xlink:href="#New_Gradient_Swatch_4"/><radialGradient id="New_Gradient_Swatch_4-137" cx="35.27" cy="151.36" r="6.5" xlink:href="#New_Gradient_Swatch_4"/><radialGradient id="New_Gradient_Swatch_4-138" cx="64.06" cy="240.91" r="81.6" xlink:href="#New_Gradient_Swatch_4"/><radialGradient id="New_Gradient_Swatch_4-139" cx="60.26" cy="197.1" r="30.62" xlink:href="#New_Gradient_Swatch_4"/><radialGradient id="New_Gradient_Swatch_4-140" cx="66.36" cy="294.29" r="30.74" xlink:href="#New_Gradient_Swatch_4"/><radialGradient id="New_Gradient_Swatch_4-141" cx="58.61" cy="247.73" r="14.76" xlink:href="#New_Gradient_Swatch_4"/><radialGradient id="New_Gradient_Swatch_4-142" cx="63.55" cy="245.67" r="3.5" xlink:href="#New_Gradient_Swatch_4"/><radialGradient id="New_Gradient_Swatch_4-143" cx="246.63" cy="359.39" r="51.78" xlink:href="#New_Gradient_Swatch_4"/><radialGradient id="New_Gradient_Swatch_4-144" cx="246.63" cy="111.83" r="51.78" xlink:href="#New_Gradient_Swatch_4"/><radialGradient id="New_Gradient_Swatch_4-145" cx="122.85" cy="232.09" r="51.78" xlink:href="#New_Gradient_Swatch_4"/><radialGradient id="New_Gradient_Swatch_4-146" cx="370.41" cy="232.09" r="51.78" xlink:href="#New_Gradient_Swatch_4"/><radialGradient id="New_Gradient_Swatch_4-147" cx="246.63" cy="232.85" r="97.38" xlink:href="#New_Gradient_Swatch_4"/><radialGradient id="New_Gradient_Swatch_4-148" cx="246.63" cy="232.85" r="13.2" xlink:href="#New_Gradient_Swatch_4"/><radialGradient id="New_Gradient_Swatch_4-149" cx="246.63" cy="232.85" r="40.25" xlink:href="#New_Gradient_Swatch_4"/><radialGradient id="New_Gradient_Swatch_4-151" cx="246.63" cy="232.85" r="29.91" xlink:href="#New_Gradient_Swatch_4"/><radialGradient id="New_Gradient_Swatch_4-153" cx="246.63" cy="232.85" r="29.91" xlink:href="#New_Gradient_Swatch_4"/><radialGradient id="New_Gradient_Swatch_4-155" cx="151.78" cy="170.35" r="14.15" xlink:href="#New_Gradient_Swatch_4"/><radialGradient id="New_Gradient_Swatch_4-156" cx="182.37" cy="138.9" r="12.77" xlink:href="#New_Gradient_Swatch_4"/><radialGradient id="New_Gradient_Swatch_4-157" cx="135.29" cy="211.1" r="11.58" xlink:href="#New_Gradient_Swatch_4"/><radialGradient id="New_Gradient_Swatch_4-158" cx="222.91" cy="122.15" r="13.04" xlink:href="#New_Gradient_Swatch_4"/><radialGradient id="New_Gradient_Swatch_4-159" cx="357.98" cy="254.6" r="11.58" xlink:href="#New_Gradient_Swatch_4"/><radialGradient id="New_Gradient_Swatch_4-160" cx="341.48" cy="295.35" r="14.15" xlink:href="#New_Gradient_Swatch_4"/><radialGradient id="New_Gradient_Swatch_4-161" cx="270.35" cy="343.54" r="13.05" xlink:href="#New_Gradient_Swatch_4"/><radialGradient id="New_Gradient_Swatch_4-162" cx="310.89" cy="326.8" r="12.77" xlink:href="#New_Gradient_Swatch_4"/><radialGradient id="New_Gradient_Swatch_4-163" cx="111.04" cy="143.51" r="20.23" xlink:href="#New_Gradient_Swatch_4"/><radialGradient id="New_Gradient_Swatch_4-164" cx="154.77" cy="98.55" r="18.25" xlink:href="#New_Gradient_Swatch_4"/><radialGradient id="New_Gradient_Swatch_4-165" cx="87.47" cy="201.76" r="16.56" xlink:href="#New_Gradient_Swatch_4"/><radialGradient id="New_Gradient_Swatch_4-166" cx="212.72" cy="74.6" r="18.65" xlink:href="#New_Gradient_Swatch_4"/><radialGradient id="New_Gradient_Swatch_4-167" cx="405.79" cy="263.94" r="16.56" xlink:href="#New_Gradient_Swatch_4"/><radialGradient id="New_Gradient_Swatch_4-168" cx="382.22" cy="322.19" r="20.23" xlink:href="#New_Gradient_Swatch_4"/><radialGradient id="New_Gradient_Swatch_4-169" cx="280.54" cy="391.08" r="18.65" xlink:href="#New_Gradient_Swatch_4"/><radialGradient id="New_Gradient_Swatch_4-170" cx="338.49" cy="367.14" r="18.26" xlink:href="#New_Gradient_Swatch_4"/><radialGradient id="New_Gradient_Swatch_4-171" cx="246.63" cy="232.85" r="42.82" xlink:href="#New_Gradient_Swatch_4"/><radialGradient id="New_Gradient_Swatch_4-172" cx="246.63" cy="232.85" r="140.21" xlink:href="#New_Gradient_Swatch_4"/><filter id="luminosity-noclip-9" x="261.19" y="153.19" width="65.91" height="64.28" filterUnits="userSpaceOnUse" color-interpolation-filters="sRGB"><feFlood flood-color="#fff" result="bg"/><feBlend in="SourceGraphic" in2="bg"/></filter><mask id="mask-9" x="261.19" y="153.19" width="65.91" height="64.28" maskUnits="userSpaceOnUse"><g class="cls-7"><path class="cls-8" d="M327.11,217.47a76.23,76.23,0,0,0-65.92-64.28v64.28Z"/></g></mask><radialGradient id="New_Gradient_Swatch_4-174" cx="294.15" cy="185.33" r="32.55" xlink:href="#New_Gradient_Swatch_4"/><filter id="luminosity-noclip-10" x="166.16" y="248.23" width="65.91" height="64.28" filterUnits="userSpaceOnUse" color-interpolation-filters="sRGB"><feFlood flood-color="#fff" result="bg"/><feBlend in="SourceGraphic" in2="bg"/></filter><mask id="mask-10" x="166.16" y="248.23" width="65.91" height="64.28" maskUnits="userSpaceOnUse"><g class="cls-9"><path class="cls-10" d="M166.16,248.23a76.23,76.23,0,0,0,65.91,64.28V248.23Z"/></g></mask><radialGradient id="New_Gradient_Swatch_4-175" cx="199.12" cy="280.37" r="32.55" xlink:href="#New_Gradient_Swatch_4"/><filter id="luminosity-noclip-11" x="267.63" y="117.99" width="95.04" height="92.68" filterUnits="userSpaceOnUse" color-interpolation-filters="sRGB"><feFlood flood-color="#fff" result="bg"/><feBlend in="SourceGraphic" in2="bg"/></filter><mask id="mask-11" x="267.63" y="117.99" width="95.04" height="92.68" maskUnits="userSpaceOnUse"><g class="cls-11"><path class="cls-4" d="M362.67,210.68a109.91,109.91,0,0,0-95-92.69v92.69Z"/></g></mask><radialGradient id="New_Gradient_Swatch_4-176" cx="315.15" cy="164.34" r="46.93" xlink:href="#New_Gradient_Swatch_4"/><filter id="luminosity-noclip-12" x="130.6" y="255.02" width="95.04" height="92.68" filterUnits="userSpaceOnUse" color-interpolation-filters="sRGB"><feFlood flood-color="#fff" result="bg"/><feBlend in="SourceGraphic" in2="bg"/></filter><mask id="mask-12" x="130.6" y="255.02" width="95.04" height="92.68" maskUnits="userSpaceOnUse"><g class="cls-12"><path class="cls-6" d="M130.6,255a109.9,109.9,0,0,0,95,92.68V255Z"/></g></mask><radialGradient id="New_Gradient_Swatch_4-177" cx="178.12" cy="301.36" r="46.93" xlink:href="#New_Gradient_Swatch_4"/></defs><title>header_ui_circle_04</title><g id="Layer_2" data-name="Layer 2"><g id="Layer_1-2" data-name="Layer 1"><g class="cls-13"><path class="cls-14" d="M246.37,441.57c-114.71,0-208-93.33-208-208s93.32-208,208-208,208,93.32,208,208S361.07,441.57,246.37,441.57Zm0-410.2C134.89,31.37,44.2,122.06,44.2,233.54S134.89,435.7,246.37,435.7,448.53,345,448.53,233.54,357.84,31.37,246.37,31.37Z"/></g><g class="cls-13"><g class="cls-15"><path class="cls-16" d="M472.2,233.54A225.83,225.83,0,0,0,246.37,7.71V59.49a174,174,0,0,1,174,174Zm-225.83,174a174,174,0,0,1-174-174H20.54A225.83,225.83,0,0,0,246.37,459.37Z"/></g></g><path class="cls-17" d="M246.37,319a85.44,85.44,0,1,1,85.43-85.43A85.53,85.53,0,0,1,246.37,319Zm0-168.67a83.24,83.24,0,1,0,83.23,83.24A83.33,83.33,0,0,0,246.37,150.3Z"/><path class="cls-18" d="M246.37,256.09a22.56,22.56,0,1,1,22.56-22.55A22.58,22.58,0,0,1,246.37,256.09Zm0-42.91a20.36,20.36,0,1,0,20.36,20.36A20.38,20.38,0,0,0,246.37,213.18Z"/><rect class="cls-19" x="266.73" y="233.54" width="2.2" height="81.11"/><rect class="cls-20" x="223.81" y="151.96" width="2.2" height="81.58"/><rect class="cls-21" x="246.37" y="210.98" width="81.58" height="2.2"/><rect class="cls-22" x="164.79" y="253.9" width="81.58" height="2.2"/><rect class="cls-23" x="192.14" y="276.22" width="81.11" height="2.2" transform="translate(-127.94 245.77) rotate(-45)"/><rect class="cls-24" x="219.08" y="188.36" width="81.58" height="2.2" transform="translate(-57.85 239.25) rotate(-45)"/><rect class="cls-25" x="289.12" y="206.35" width="2.2" height="81.58" transform="translate(-89.75 277.6) rotate(-45)"/><rect class="cls-26" x="201.09" y="179.01" width="2.2" height="81.58" transform="translate(-96.2 207.35) rotate(-45)"/><path class="cls-27" d="M258.81,446A212.83,212.83,0,0,0,440.32,318.66l2.19,1A215.21,215.21,0,0,1,259,448.41Z"/><path class="cls-28" d="M367.23,408.09c-.17,6.49-.79,12.81-1.56,19.4a234.79,234.79,0,0,1-30.56,16,245.45,245.45,0,0,1-32.65,11.17c-1.21,2.62-2.5,5.23-3.83,7.86a231.55,231.55,0,0,1-31.27,5.1c.82-1.19,1.63-2.34,2.43-3.58,4.14-.56,8.3-1,12.43-1.67s8.26-1.35,12.32-2.34q2.06-4,3.94-8a221.93,221.93,0,0,0,32.31-10.5,233.4,233.4,0,0,0,30.34-15.28c.65-5,1.1-10,1.44-14.9C364.18,410.3,365.69,409.18,367.23,408.09Z"/><path class="cls-29" d="M358.54,419c-.22,2.32-.55,4.54-.87,6.85l-6.12,3.51c.38-2.29.72-4.56,1-6.82C354.57,421.37,356.59,420.25,358.54,419Z"/><path class="cls-30" d="M348.94,424.57c-.37,2.26-.79,4.51-1.23,6.79l-6.29,3.19c.51-2.23.95-4.51,1.38-6.75Z"/><path class="cls-31" d="M339.06,429.63c-.5,2.22-1,4.46-1.58,6.71-2.15,1-4.27,2-6.45,2.86.64-2.16,1.19-4.45,1.74-6.65Z"/><path class="cls-32" d="M328.92,434.16q-.9,3.3-1.91,6.63c-2.2.84-4.36,1.79-6.6,2.52.76-2.12,1.43-4.36,2.09-6.54Z"/><path class="cls-33" d="M318.57,438.17q-1.08,3.24-2.25,6.53c-2.24.72-4.44,1.58-6.72,2.17.86-2.09,1.66-4.25,2.42-6.42Z"/><path class="cls-34" d="M308,441.64q-1.25,3.19-2.59,6.41c-2.27.63-4.51,1.34-6.82,1.82,1-2.06,1.88-4.13,2.75-6.27Z"/><path class="cls-35" d="M419.68,357.54l-1.3-4.05a210.79,210.79,0,0,0,24-45.85l3.06,5c-1.11,2.86-2.24,5.71-3.55,8.48s-2.45,5.63-3.91,8.33A205.68,205.68,0,0,1,419.68,357.54Z"/><path class="cls-36" d="M248.24,445.87q4,5.13,8.4,10.23a230.09,230.09,0,0,0,37.66-5.2l.34,1.53a230.61,230.61,0,0,1-38.44,5.24q-4.59-5.32-8.78-10.67Z"/><path class="cls-37" d="M258.5,441.06A204.92,204.92,0,0,0,334,421.62a208.37,208.37,0,0,0,63-46.05l1.14,1.07A210.1,210.1,0,0,1,334.71,423a206.33,206.33,0,0,1-76.11,19.59Z"/><path class="cls-38" d="M365.63,418.74a223.38,223.38,0,0,0,30.48-23.92c-.25-2.68-.53-5.32-.84-7.94a216,216,0,0,1-30.53,24.92Q365.22,415.25,365.63,418.74Z"/><path class="cls-39" d="M251.05,446.35c.06,2.11-1.21,3.86-2.84,3.9s-3-1.64-2.94-3.75,1.27-3.85,2.84-3.89S251,444.25,251.05,446.35Z"/><path class="cls-40" d="M258.81,21.58A212.84,212.84,0,0,1,440.32,148.94l2.19-1A215.21,215.21,0,0,0,259,19.19Z"/><path class="cls-41" d="M367.23,59.51c-.17-6.49-.79-12.81-1.56-19.4a234.79,234.79,0,0,0-30.56-16A244,244,0,0,0,302.46,13c-1.21-2.63-2.5-5.24-3.83-7.87A231.55,231.55,0,0,0,267.36,0c.82,1.19,1.63,2.34,2.43,3.59,4.14.55,8.3,1,12.43,1.66s8.26,1.35,12.32,2.34q2.06,4,3.94,8a221.93,221.93,0,0,1,32.31,10.5,234.67,234.67,0,0,1,30.34,15.28c.65,5,1.1,10,1.44,14.91C364.18,57.3,365.69,58.43,367.23,59.51Z"/><path class="cls-42" d="M358.54,48.6c-.22-2.33-.55-4.55-.87-6.86l-6.12-3.51c.38,2.29.72,4.56,1,6.82C354.57,46.23,356.59,47.36,358.54,48.6Z"/><path class="cls-43" d="M348.94,43c-.37-2.26-.79-4.51-1.23-6.78l-6.29-3.2c.51,2.24.95,4.52,1.38,6.75Z"/><path class="cls-44" d="M339.06,38c-.5-2.22-1-4.46-1.58-6.71-2.15-1-4.27-2-6.45-2.86.64,2.17,1.19,4.46,1.74,6.66Z"/><path class="cls-45" d="M328.92,33.44q-.9-3.3-1.91-6.63c-2.2-.83-4.36-1.79-6.6-2.52.76,2.13,1.43,4.36,2.09,6.55Z"/><path class="cls-46" d="M318.57,29.43q-1.08-3.24-2.25-6.53c-2.24-.72-4.44-1.57-6.72-2.17.86,2.09,1.66,4.25,2.42,6.42Z"/><path class="cls-47" d="M308,26q-1.25-3.18-2.59-6.41c-2.27-.63-4.51-1.33-6.82-1.82,1,2.06,1.88,4.13,2.75,6.28Z"/><path class="cls-48" d="M419.68,110.06l-1.3,4.06a210.33,210.33,0,0,1,24,45.85l3.06-5c-1.11-2.86-2.24-5.71-3.55-8.48s-2.45-5.63-3.91-8.33A205.68,205.68,0,0,0,419.68,110.06Z"/><path class="cls-49" d="M248.24,21.73q4-5.11,8.4-10.23a231.18,231.18,0,0,1,37.66,5.2l.34-1.52A230.63,230.63,0,0,0,256.2,9.93q-4.59,5.33-8.78,10.67Z"/><path class="cls-50" d="M258.5,26.54A204.92,204.92,0,0,1,334,46,208.53,208.53,0,0,1,397,92L398.16,91a210,210,0,0,0-63.45-46.4A206.51,206.51,0,0,0,258.6,25Z"/><path class="cls-51" d="M365.63,48.86a224.16,224.16,0,0,1,30.48,23.92q-.37,4-.84,7.94a215.9,215.9,0,0,0-30.53-24.91Q365.22,52.36,365.63,48.86Z"/><path class="cls-52" d="M251.05,21.25c.06-2.11-1.21-3.85-2.84-3.89s-3,1.63-2.94,3.74S246.54,25,248.11,25,251,23.36,251.05,21.25Z"/><path class="cls-53" d="M481.59,245.3q-7.23-3.92-14.51-7.4c.21-4.46-.05-8.92-.13-13.39,4.89-2.43,9.54-5,14.26-7.72l.1-.45-.13-.06c-4.91,2.83-9.69,5.5-14.75,8,.08,4.61.35,9.22.13,13.83q7.45,3.57,14.89,7.6l.13.07Z"/><path class="cls-54" d="M481.48,220.32c-2.69,1.52-5.51,3-8.29,4.43l-.15-.2c2.83-1.46,5.68-3,8.42-4.52Z"/><path class="cls-55" d="M481.67,242.41q-4.25-2.24-8.5-4.33l.15-.21q4.19,2.06,8.36,4.26Z"/><path class="cls-56" d="M486.35,233.2l-.1-4.43-4.54-2.08L477.29,229l.1,4.26c1.53.71,3,1.43,4.46,2.16C483.35,234.67,484.89,233.94,486.35,233.2Z"/><path class="cls-57" d="M466,249.1c.14-2,.34-4,.35-5.95,4.79,2.41,9.35,4.95,14,7.63l-.48,6.32Q472.93,252.89,466,249.1Z"/><path class="cls-58" d="M465.3,257.33c.25-2,.33-3.95.5-5.93,4.6,2.57,9.32,5.3,13.77,8.14l-.8,6.3Q472.07,261.37,465.3,257.33Z"/><path class="cls-59" d="M464.26,265.53l.76-5.91q6.75,4.11,13.44,8.66c-.24,2.1-.7,4.17-1,6.26C473.07,271.4,468.79,268.41,464.26,265.53Z"/><path class="cls-60" d="M462.91,273.69l1-5.87q6.56,4.35,13,9.14c-.39,2.08-.7,4.17-1.21,6.23C471.64,279.91,467.23,276.71,462.91,273.69Z"/><path class="cls-61" d="M461.28,281.79c.46-1.94.91-3.87,1.22-5.83,4.38,3.09,8.55,6.28,12.72,9.62l-1.44,6.19Q467.59,286.58,461.28,281.79Z"/><path class="cls-62" d="M459.39,289.83c.52-1.91.91-3.86,1.38-5.79,4.16,3.22,8.41,6.63,12.39,10.11l-1.73,6.11Q465.46,294.84,459.39,289.83Z"/><path class="cls-63" d="M457.13,297.79l1.63-5.74q6.06,5.08,12,10.58c-.56,2-1.32,4-2,6C465,304.9,461.18,301.31,457.13,297.79Z"/><path class="cls-64" d="M454.71,305.23l1.91-5.65q5.83,5.28,11.52,11c-.7,2-1.3,4-2.12,6C462.42,312.68,458.52,308.86,454.71,305.23Z"/><path class="cls-65" d="M465.63,213.91l.45,5.94q7-3.73,13.87-7.91c-.12-2.12-.43-4.21-.69-6.31C474.79,208.53,470.29,211.28,465.63,213.91Z"/><path class="cls-66" d="M464.73,205.7c.24,2,.52,3.94.72,5.92,4.55-2.67,9-5.48,13.5-8.43-.29-2.09-.49-4.2-.86-6.29C473.74,200,469.2,202.91,464.73,205.7Z"/><path class="cls-67" d="M463.55,197.52c.39,1.95.65,3.92.88,5.89,2.25-1.42,4.49-2.87,6.72-4.37s4.35-3,6.52-4.55l-1.12-6.26Q470.1,193.09,463.55,197.52Z"/><path class="cls-68" d="M462.1,189.38l1,5.87c4.34-3,8.69-6.15,12.94-9.43l-1.42-6.19Q468.43,184.72,462.1,189.38Z"/><path class="cls-69" d="M460.25,181.33l1.34,5.81q6.32-4.74,12.52-9.9c-.44-2.08-1-4.11-1.62-6.15C468.51,174.63,464.46,178,460.25,181.33Z"/><path class="cls-70" d="M458.13,173.34c.53,1.91,1.11,3.81,1.6,5.74,4.11-3.32,8.1-6.76,12.09-10.35-.6-2-1.11-4.09-1.79-6.09C466.19,166.32,462.13,169.91,458.13,173.34Z"/><path class="cls-71" d="M455.74,165.42c.67,1.88,1.24,3.78,1.76,5.7,2-1.74,4-3.52,6-5.33s3.85-3.62,5.76-5.48l-2-6Q461.55,160.07,455.74,165.42Z"/><path class="cls-72" d="M453.14,157.73l1.91,5.65c3.84-3.61,7.69-7.39,11.39-11.26l-2.33-5.91Q458.71,152.18,453.14,157.73Z"/><path class="cls-73" d="M462.62,315l.4-.24,4.21,4.93a237.31,237.31,0,0,0,15.39-69.1l.52,0a230,230,0,0,1-5.2,35.58,224.9,224.9,0,0,1-10.53,34.42Q465,317.77,462.62,315Z"/><polygon class="cls-74" points="481.37 265.51 482.3 258.07 482.88 250.61 484.47 250.72 483.89 258.23 482.95 265.72 481.37 265.51"/><path class="cls-75" d="M460.54,147.32c1.59-1.9,3.16-3.82,4.73-5.78a248.89,248.89,0,0,1,11.45,34.59,241.35,241.35,0,0,1,6,35.9l-.52.05a237.56,237.56,0,0,0-5.93-35.43,243.68,243.68,0,0,0-11.22-34.16l-4.16,5.06Z"/><path class="cls-76" d="M480.72,197.18l1,7.43c.3,2.48.66,4.95.81,7.44l1.59-.14c-.14-2.51-.51-5-.82-7.49l-1-7.48Z"/><path class="cls-77" d="M487.23,210.44c0-.08-.07-1.35-.37-3.48s-.65-5.15-1.11-8.75-1.33-7.74-2.11-12.19-2-9.11-3.16-13.77a253.64,253.64,0,0,0-8.08-25.11l-3.19-8.08-1.35-3Q462.37,134.39,457,133c-1.58-3.27-3.28-6.49-4.93-9.73q7.33,1.58,14.88,3.58A248.4,248.4,0,0,1,490,208C489.12,208.82,488.17,209.64,487.23,210.44Z"/><path class="cls-78" d="M463,127.59l-4.71-9.18c-1.52-2.66-3.3-5.75-5.2-9.06s-4.21-6.66-6.38-10.09-4.68-6.64-6.87-9.74-4.52-5.8-6.39-8.2-3.6-4.25-4.73-5.62l-1.82-2.1-4,.06A261.77,261.77,0,0,1,443.54,100a257.85,257.85,0,0,1,16.73,29Z"/><path class="cls-79" d="M448.17,136.16a226.4,226.4,0,0,0-40.43-58.11l.36-.34a227,227,0,0,1,40.44,58.09c4,1,8.11,2,12.23,3.22l-.19.4Q454.31,137.62,448.17,136.16Z"/><path class="cls-80" d="M436.4,114.42l-4.21-.45a213.43,213.43,0,0,0-20.31-26.91l4.2-.18A216.3,216.3,0,0,1,436.4,114.42Z"/><path class="cls-81" d="M459.46,142.26c-4.38-1-8.7-1.89-13-2.67L449.4,146c1,2.15,1.77,4.38,2.66,6.57C454.56,149.26,457.1,145.78,459.46,142.26Z"/><path class="cls-82" d="M487.71,251c0,.08-.1,1.34-.27,3.48-.08,1.07-.18,2.37-.3,3.84l-.6,4.93c-.46,3.6-.92,7.8-1.79,12.24l-1.23,6.84c-.48,2.32-1,4.66-1.58,7a236.33,236.33,0,0,1-7.38,25.32c-1.1,3.43-2.31,6.17-3.05,8.13l-1.21,3.06c-3.54,1.24-7.21,2.33-10.82,3.35-1.5,3.31-3,6.65-4.67,9.86,5-1.11,9.84-2.46,14.76-4a240.52,240.52,0,0,0,21-81.73Z"/><path class="cls-83" d="M465.64,334.37s-.45,1-1.2,2.63-1.9,3.93-3.29,6.66-3,5.92-4.94,9.2-3.88,6.86-6.13,10.24-4.36,6.86-6.62,9.92-4.23,6-6.16,8.37l-4.54,5.78c-1.09,1.39-1.79,2.13-1.79,2.13h-4l2.73-3.16,2.6-3.28c1.71-2.2,3.47-4.36,5.13-6.6,3.23-4.54,6.53-9,9.46-13.79,3.1-4.64,5.76-9.55,8.56-14.38,2.53-5,5.23-9.86,7.44-15Z"/><path class="cls-84" d="M411.73,385.37a226.37,226.37,0,0,0,38.83-59.19c4.11-1.07,8.33-2.21,12.37-3.56l.22.4c-4,1.33-8.16,2.45-12.21,3.51a226.83,226.83,0,0,1-38.85,59.17Z"/><path class="cls-85" d="M439.41,348.24l-4.15.58a239.93,239.93,0,0,1-19.65,27.41c1.41,0,2.83.09,4.21.09A231.63,231.63,0,0,0,439.41,348.24Z"/><path class="cls-86" d="M461.7,319.8c-4.3,1.13-8.51,2.17-12.87,3,1-2.13,1.87-4.34,2.73-6.53s1.75-4.39,2.57-6.6C456.73,313,459.21,316.32,461.7,319.8Z"/><g class="cls-87"><path class="cls-88" d="M414.64,339.79a198.61,198.61,0,0,0,14-26.57,206.11,206.11,0,0,0,9.84-28.38,200.41,200.41,0,0,0,6.38-59.61A199,199,0,0,0,405,113.69c1.31-1,3.68.08,5.31,2.38A202.75,202.75,0,0,1,419.77,337C418.41,339.47,416,340.64,414.64,339.79Z"/><path class="cls-89" d="M440.09,228.35a193.37,193.37,0,0,1-16.52,84.31l-.9-.4c-1.7-.76-2.66-2.3-2.14-3.44a189.84,189.84,0,0,0,15.27-78.06c0-1.26,1.45-2.33,3.31-2.38Z"/><path class="cls-90" d="M411.9,132.54A196,196,0,0,1,439.24,214l-1,.1c-1.84.18-3.48-.68-3.64-1.93a190.14,190.14,0,0,0-25.29-75.36c-.63-1.09.16-2.77,1.73-3.73Z"/><path class="cls-91" d="M427.67,199.58l.72-.14c1.05,5.28,1.69,10.63,2.31,16l5,2.79c.15,2.1.35,4.19.46,6.29l-4.65,3.36.15,6.23-.16,6.22-.73,0L431,234l-.16-6.3,4.65-3.36-.43-5.85-5-2.78C429.37,210.29,428.72,204.9,427.67,199.58Z"/><polygon class="cls-92" points="422.89 219.76 430.69 219.15 431.08 224.31 423.28 224.71 422.89 219.76"/></g><path class="cls-93" d="M231.72,21.58A212.85,212.85,0,0,0,50.22,148.94L48,148A215.21,215.21,0,0,1,231.57,19.19Z"/><path class="cls-94" d="M123.31,59.51c.17-6.49.79-12.81,1.56-19.4a233.52,233.52,0,0,1,30.56-16A243.84,243.84,0,0,1,188.07,13c1.22-2.63,2.5-5.24,3.83-7.87A232,232,0,0,1,223.18,0c-.82,1.19-1.64,2.34-2.43,3.59-4.14.55-8.31,1-12.43,1.66S200.06,6.6,196,7.59c-1.37,2.69-2.69,5.37-3.94,8a221.93,221.93,0,0,0-32.31,10.5,234.67,234.67,0,0,0-30.34,15.28c-.65,5-1.1,10-1.45,14.91C126.36,57.3,124.85,58.43,123.31,59.51Z"/><path class="cls-95" d="M132,48.6c.23-2.33.56-4.55.88-6.86L139,38.23c-.37,2.29-.72,4.56-1,6.82C136,46.23,133.94,47.36,132,48.6Z"/><path class="cls-96" d="M141.6,43c.37-2.26.79-4.51,1.23-6.78l6.29-3.2c-.51,2.24-1,4.52-1.39,6.75Z"/><path class="cls-97" d="M151.48,38q.74-3.33,1.58-6.71c2.15-1,4.27-2,6.45-2.86-.64,2.17-1.19,4.46-1.74,6.66Z"/><path class="cls-98" d="M161.61,33.44q.91-3.3,1.92-6.63c2.2-.83,4.36-1.79,6.59-2.52-.75,2.13-1.42,4.36-2.08,6.55Z"/><path class="cls-99" d="M172,29.43q1.08-3.24,2.25-6.53c2.24-.72,4.44-1.57,6.72-2.17-.86,2.09-1.66,4.25-2.42,6.42Z"/><path class="cls-100" d="M182.51,26q1.25-3.18,2.59-6.41c2.26-.63,4.51-1.33,6.82-1.82-1,2.06-1.89,4.13-2.75,6.28Z"/><path class="cls-101" d="M70.85,110.06l1.3,4.06a210.29,210.29,0,0,0-24,45.85l-3.06-5c1.11-2.86,2.24-5.71,3.55-8.48s2.45-5.63,3.91-8.33A205.62,205.62,0,0,1,70.85,110.06Z"/><path class="cls-102" d="M242.3,21.73q-4-5.11-8.4-10.23a230.88,230.88,0,0,0-37.66,5.2l-.34-1.52a230.65,230.65,0,0,1,38.43-5.25q4.6,5.33,8.79,10.67Z"/><path class="cls-103" d="M232,26.54A205,205,0,0,0,156.49,46,208.78,208.78,0,0,0,93.51,92L92.37,91a210,210,0,0,1,63.46-46.4A206.51,206.51,0,0,1,231.94,25Z"/><path class="cls-104" d="M124.91,48.86A223.55,223.55,0,0,0,94.43,72.78q.36,4,.84,7.94a215.25,215.25,0,0,1,30.52-24.91Q125.31,52.36,124.91,48.86Z"/><path class="cls-105" d="M239.49,21.25c-.06-2.11,1.21-3.85,2.84-3.89s2.94,1.63,2.94,3.74S244,25,242.43,25,239.55,23.36,239.49,21.25Z"/><path class="cls-106" d="M231.72,446A212.83,212.83,0,0,1,50.22,318.66l-2.19,1A215.21,215.21,0,0,0,231.57,448.41Z"/><path class="cls-107" d="M123.31,408.09c.17,6.49.79,12.81,1.56,19.4a233.52,233.52,0,0,0,30.56,16,245.31,245.31,0,0,0,32.64,11.17c1.22,2.62,2.5,5.23,3.83,7.86a232,232,0,0,0,31.28,5.1c-.82-1.19-1.64-2.34-2.43-3.58-4.14-.56-8.31-1-12.43-1.67S200.06,461,196,460c-1.37-2.69-2.69-5.37-3.94-8a221.93,221.93,0,0,1-32.31-10.5,233.4,233.4,0,0,1-30.34-15.28c-.65-5-1.1-10-1.45-14.9C126.36,410.3,124.85,409.18,123.31,408.09Z"/><path class="cls-108" d="M132,419c.23,2.32.56,4.54.88,6.85l6.11,3.51c-.37-2.29-.72-4.56-1-6.82C136,421.37,133.94,420.25,132,419Z"/><path class="cls-109" d="M141.6,424.57c.37,2.26.79,4.51,1.23,6.79l6.29,3.19c-.51-2.23-1-4.51-1.39-6.75Z"/><path class="cls-110" d="M151.48,429.63q.74,3.33,1.58,6.71c2.15,1,4.27,2,6.45,2.86-.64-2.16-1.19-4.45-1.74-6.65Z"/><path class="cls-111" d="M161.61,434.16q.91,3.3,1.92,6.63c2.2.84,4.36,1.79,6.59,2.52-.75-2.12-1.42-4.36-2.08-6.54Z"/><path class="cls-112" d="M172,438.17q1.08,3.24,2.25,6.53c2.24.72,4.44,1.58,6.72,2.17-.86-2.09-1.66-4.25-2.42-6.42Z"/><path class="cls-113" d="M182.51,441.64q1.25,3.19,2.59,6.41c2.26.63,4.51,1.34,6.82,1.82-1-2.06-1.89-4.13-2.75-6.27Z"/><path class="cls-114" d="M70.85,357.54l1.3-4.05a210.75,210.75,0,0,1-24-45.85l-3.06,5c1.11,2.86,2.24,5.71,3.55,8.48s2.45,5.63,3.91,8.33A205.62,205.62,0,0,0,70.85,357.54Z"/><path class="cls-115" d="M242.3,445.87q-4,5.13-8.4,10.23a229.8,229.8,0,0,1-37.66-5.2l-.34,1.53a230.64,230.64,0,0,0,38.43,5.24q4.6-5.32,8.79-10.67Z"/><path class="cls-116" d="M232,441.06a205,205,0,0,1-75.55-19.44,208.61,208.61,0,0,1-63-46.05l-1.14,1.07A210.15,210.15,0,0,0,155.83,423a206.33,206.33,0,0,0,76.11,19.59Z"/><path class="cls-117" d="M124.91,418.74a222.77,222.77,0,0,1-30.48-23.92c.24-2.68.52-5.32.84-7.94a215.32,215.32,0,0,0,30.52,24.92Q125.31,415.25,124.91,418.74Z"/><path class="cls-118" d="M239.49,446.35c-.06,2.11,1.21,3.86,2.84,3.9s2.94-1.64,2.94-3.75-1.28-3.85-2.84-3.89S239.55,444.25,239.49,446.35Z"/><path class="cls-119" d="M8.94,222.3q7.24,3.93,14.51,7.4c-.21,4.46.06,8.93.14,13.39-4.89,2.43-9.54,5-14.27,7.73l-.09.45.13,0c4.91-2.83,9.69-5.5,14.75-8-.08-4.61-.35-9.22-.13-13.82q-7.45-3.58-14.89-7.61L9,221.8Z"/><path class="cls-120" d="M9.06,247.29c2.69-1.53,5.51-3,8.29-4.44l.15.2c-2.84,1.46-5.68,3-8.42,4.52Z"/><path class="cls-121" d="M8.87,225.19q4.24,2.25,8.5,4.34l-.15.2q-4.18-2.05-8.36-4.25Z"/><path class="cls-122" d="M4.19,234.4l.1,4.43,4.54,2.08,4.42-2.27-.1-4.26c-1.53-.71-3-1.43-4.46-2.16C7.19,232.93,5.65,233.66,4.19,234.4Z"/><path class="cls-123" d="M24.56,218.5c-.14,2-.34,4-.35,5.95-4.8-2.41-9.35-4.94-14-7.63l.48-6.32Q17.62,214.72,24.56,218.5Z"/><path class="cls-124" d="M25.23,210.27c-.24,2-.33,4-.5,5.93-4.59-2.57-9.32-5.3-13.76-8.14l.8-6.3Q18.47,206.23,25.23,210.27Z"/><path class="cls-125" d="M26.27,202.07,25.52,208q-6.75-4.11-13.44-8.65c.24-2.11.7-4.18,1-6.27C17.47,196.21,21.74,199.19,26.27,202.07Z"/><path class="cls-126" d="M27.63,193.92l-1.05,5.87q-6.54-4.36-13-9.15c.39-2.08.7-4.17,1.21-6.23C18.9,187.7,23.31,190.89,27.63,193.92Z"/><path class="cls-127" d="M29.25,185.81c-.45,1.94-.9,3.87-1.22,5.84-4.37-3.09-8.54-6.29-12.71-9.63l1.43-6.19Q22.95,181,29.25,185.81Z"/><path class="cls-128" d="M31.15,177.77c-.52,1.92-.92,3.86-1.38,5.8-4.16-3.23-8.41-6.63-12.39-10.12l1.73-6.11Q25.07,172.76,31.15,177.77Z"/><path class="cls-129" d="M33.41,169.81l-1.63,5.74q-6.06-5.09-12-10.57c.56-2,1.31-4,2-6C25.59,162.7,29.36,166.29,33.41,169.81Z"/><path class="cls-130" d="M35.83,162.37,33.92,168q-5.84-5.28-11.52-11c.7-2,1.3-4,2.12-6C28.11,154.92,32,158.74,35.83,162.37Z"/><path class="cls-131" d="M24.91,253.69l-.45-5.94q-7,3.75-13.87,7.92c.12,2.11.43,4.2.69,6.3C15.75,259.07,20.24,256.32,24.91,253.69Z"/><path class="cls-132" d="M25.81,261.9c-.24-2-.52-3.94-.73-5.91-4.55,2.67-9,5.47-13.49,8.42.28,2.1.49,4.2.85,6.29C16.8,267.64,21.34,264.69,25.81,261.9Z"/><path class="cls-133" d="M27,270.08c-.39-1.95-.65-3.92-.89-5.89q-3.36,2.13-6.71,4.37t-6.52,4.56L14,279.37Q20.44,274.51,27,270.08Z"/><path class="cls-134" d="M28.44,278.22l-1.05-5.87c-4.34,3-8.7,6.15-12.94,9.43L15.87,288Q22.11,282.89,28.44,278.22Z"/><path class="cls-135" d="M30.29,286.28,29,280.47q-6.32,4.74-12.52,9.9c.44,2.07,1,4.1,1.62,6.14C22,293,26.07,289.57,30.29,286.28Z"/><path class="cls-136" d="M32.41,294.27c-.53-1.92-1.11-3.82-1.6-5.75-4.12,3.32-8.1,6.76-12.09,10.35.6,2,1.11,4.09,1.79,6.1C24.35,301.29,28.4,297.69,32.41,294.27Z"/><path class="cls-137" d="M34.8,302.18c-.67-1.87-1.24-3.78-1.76-5.7q-3,2.61-6,5.33c-1.93,1.79-3.86,3.62-5.77,5.48l2,6Q29,307.55,34.8,302.18Z"/><path class="cls-138" d="M37.4,309.87l-1.91-5.65c-3.84,3.62-7.69,7.39-11.39,11.26l2.33,5.91Q31.83,315.44,37.4,309.87Z"/><path class="cls-139" d="M27.92,152.61l-.4.23-4.21-4.92A236.29,236.29,0,0,0,7.92,217l-.52,0a230.14,230.14,0,0,1,5.2-35.59A226,226,0,0,1,23.12,147Q25.51,149.83,27.92,152.61Z"/><polygon class="cls-140" points="9.17 202.1 8.24 209.53 7.66 216.99 6.07 216.88 6.64 209.37 7.58 201.88 9.17 202.1"/><path class="cls-141" d="M30,320.28c-1.59,1.9-3.16,3.82-4.73,5.78a248.76,248.76,0,0,1-11.45-34.58,240.19,240.19,0,0,1-6-35.91l.52,0A237.69,237.69,0,0,0,14.23,291a242.68,242.68,0,0,0,11.22,34.15l4.16-5.06Z"/><path class="cls-142" d="M9.82,270.42l-1-7.43c-.3-2.48-.67-4.95-.81-7.44l-1.59.14c.14,2.51.51,5,.81,7.5l1,7.47Z"/><path class="cls-143" d="M3.31,257.17c0,.08.07,1.34.36,3.47s.66,5.15,1.12,8.76,1.32,7.74,2.1,12.18,2,9.11,3.16,13.78a255.37,255.37,0,0,0,8.08,25.11c1.33,3.34,2.43,6.12,3.2,8.07l1.35,3q5.47,1.66,10.87,3.09c1.57,3.28,3.28,6.49,4.93,9.73q-7.33-1.56-14.89-3.57A248.44,248.44,0,0,1,.52,259.59C1.41,258.78,2.37,258,3.31,257.17Z"/><path class="cls-144" d="M27.53,340c0,.07,1.91,3.73,4.71,9.18l5.19,9.06c2,3.28,4.21,6.66,6.39,10.09s4.67,6.64,6.87,9.74,4.52,5.8,6.39,8.2,3.6,4.25,4.73,5.62l1.82,2.1,4-.06A260.64,260.64,0,0,1,47,367.63a256.32,256.32,0,0,1-16.73-29Z"/><path class="cls-145" d="M42.36,331.44A226.69,226.69,0,0,0,82.8,389.55l-.36.34A226.83,226.83,0,0,1,42,331.8c-4-1-8.11-2-12.24-3.21l.2-.41Q36.23,330,42.36,331.44Z"/><path class="cls-146" d="M54.13,353.18l4.22.45a213.43,213.43,0,0,0,20.31,26.91l-4.2.19A218.16,218.16,0,0,1,54.13,353.18Z"/><path class="cls-147" d="M31.08,325.35q6.56,1.5,13,2.66l-2.92-6.45c-1-2.15-1.77-4.38-2.66-6.56C36,318.35,33.44,321.83,31.08,325.35Z"/><path class="cls-148" d="M2.83,216.66c0-.08.1-1.34.26-3.49.09-1.07.19-2.36.3-3.84s.39-3.13.61-4.93c.46-3.6.92-7.8,1.79-12.23L7,185.32c.48-2.32,1.05-4.65,1.58-7A234,234,0,0,1,16,153c1.1-3.42,2.31-6.17,3.05-8.13l1.21-3.06c3.53-1.24,7.2-2.33,10.82-3.35,1.5-3.31,2.95-6.65,4.67-9.86-5,1.11-9.85,2.47-14.76,4A240.68,240.68,0,0,0,0,214.3Z"/><path class="cls-149" d="M24.9,133.24l1.2-2.64c.7-1.66,1.9-3.92,3.29-6.65s3-5.93,4.94-9.21,3.88-6.86,6.13-10.24,4.36-6.85,6.62-9.92,4.23-6,6.15-8.37l4.55-5.77c1.09-1.4,1.78-2.14,1.78-2.14h4l-2.73,3.16-2.6,3.28c-1.71,2.2-3.47,4.36-5.13,6.6-3.23,4.54-6.53,9-9.46,13.8-3.1,4.64-5.77,9.54-8.56,14.37-2.53,5-5.23,9.86-7.44,15Z"/><path class="cls-150" d="M78.81,82.23A226.25,226.25,0,0,0,40,141.43c-4.11,1.06-8.33,2.2-12.38,3.55l-.21-.4c4-1.33,8.16-2.45,12.21-3.5A226.47,226.47,0,0,1,78.45,81.9Z"/><path class="cls-151" d="M51.13,119.36l4.15-.58A238.71,238.71,0,0,1,74.93,91.37c-1.41-.05-2.83-.09-4.22-.09A232.68,232.68,0,0,0,51.13,119.36Z"/><path class="cls-152" d="M28.84,147.8c4.29-1.13,8.51-2.17,12.86-3-1,2.13-1.86,4.34-2.72,6.54s-1.76,4.38-2.57,6.6C33.81,154.64,31.32,151.28,28.84,147.8Z"/><g class="cls-87"><path class="cls-153" d="M75.9,127.81a197.46,197.46,0,0,0-14,26.57,206.11,206.11,0,0,0-9.84,28.38,199.54,199.54,0,0,0-6.38,59.61A199,199,0,0,0,85.58,353.91c-1.31,1-3.68-.07-5.31-2.38a202.74,202.74,0,0,1-9.5-220.92C72.13,128.13,74.57,127,75.9,127.81Z"/><path class="cls-154" d="M50.45,239.25A193.37,193.37,0,0,1,67,154.94l.9.4c1.7.76,2.65,2.3,2.13,3.45a189.91,189.91,0,0,0-15.26,78.05c0,1.26-1.45,2.33-3.31,2.38Z"/><path class="cls-155" d="M78.63,335.07A196.22,196.22,0,0,1,51.3,253.64l1-.1c1.84-.18,3.48.68,3.64,1.93a190.1,190.1,0,0,0,25.29,75.35c.63,1.09-.16,2.77-1.74,3.73Z"/><path class="cls-156" d="M62.87,268l-.72.13c-1-5.28-1.69-10.63-2.31-16l-5-2.8c-.15-2.09-.35-4.18-.46-6.28L59,239.74l-.15-6.22.16-6.23.73,0-.16,6.31.15,6.3-4.64,3.36.43,5.85,5,2.78C61.16,257.31,61.81,262.7,62.87,268Z"/><polygon class="cls-157" points="67.64 247.85 59.85 248.45 59.45 243.29 67.26 242.9 67.64 247.85"/></g><path class="cls-158" d="M256.46,418.87a1.17,1.17,0,0,0-1.65.17l-7,8.55V288.05a1.18,1.18,0,0,0-2.35,0V427.59l-7-8.55a1.17,1.17,0,1,0-1.81,1.48l9,11a1.18,1.18,0,0,0,.91.43h.25a1.16,1.16,0,0,0,.9-.43l9-11A1.17,1.17,0,0,0,256.46,418.87Z"/><path class="cls-159" d="M236.8,52.35a1.17,1.17,0,0,0,1.65-.17l7-8.55V183.17a1.18,1.18,0,0,0,2.35,0V43.63l7,8.55a1.17,1.17,0,0,0,1.82-1.48l-9-11a1.16,1.16,0,0,0-.9-.43h-.25a1.18,1.18,0,0,0-.91.43l-9,11A1.17,1.17,0,0,0,236.8,52.35Z"/><path class="cls-160" d="M63.37,241.92a1.17,1.17,0,0,0-.16-1.65l-8.56-7H194.19a1.17,1.17,0,1,0,0-2.34H54.65l8.56-7a1.17,1.17,0,0,0-1.49-1.81l-10.95,9a1.17,1.17,0,0,0-.43.91v.24a1.17,1.17,0,0,0,.43.91l10.95,9A1.17,1.17,0,0,0,63.37,241.92Z"/><path class="cls-161" d="M429.89,222.26a1.17,1.17,0,0,0,.17,1.65l8.55,7H299.08a1.17,1.17,0,1,0,0,2.34H438.61l-8.55,7a1.17,1.17,0,1,0,1.48,1.81l10.95-9a1.17,1.17,0,0,0,.43-.91V232a1.17,1.17,0,0,0-.43-.91l-10.95-9A1.17,1.17,0,0,0,429.89,222.26Z"/><path class="cls-162" d="M246.63,330.23A97.38,97.38,0,1,1,344,232.85,97.49,97.49,0,0,1,246.63,330.23Zm0-192.42a95,95,0,1,0,95,95A95.15,95.15,0,0,0,246.63,137.81Z"/><circle class="cls-163" cx="246.63" cy="232.85" r="13.2"/><rect class="cls-164" x="245.46" y="175.95" width="2.35" height="113.81"/><rect class="cls-164" x="189.73" y="231.68" width="113.81" height="2.35"/><polygon class="cls-165" points="244.29 275.08 246.63 190.61 248.98 275.08 244.29 275.08"/><polygon class="cls-165" points="248.98 190.61 246.63 275.08 244.29 190.61 248.98 190.61"/><polygon class="cls-166" points="204.4 230.5 288.87 232.85 204.4 235.19 204.4 230.5"/><polygon class="cls-166" points="288.87 235.19 204.4 232.85 288.87 230.5 288.87 235.19"/><path class="cls-167" d="M146.23,186.28a110.84,110.84,0,0,1,17.66-26.9l-5-5a117,117,0,0,0-19.26,29.28Z"/><path class="cls-168" d="M173.17,150.1a110.88,110.88,0,0,1,23.36-15.94l-2.81-6.46a117.36,117.36,0,0,0-25.51,17.44Z"/><path class="cls-169" d="M136.17,226.29a110.6,110.6,0,0,1,5.25-27.8l-6.56-2.58a117.69,117.69,0,0,0-5.7,30.38Z"/><path class="cls-170" d="M208.56,128.91a110.11,110.11,0,0,1,31.51-6.52v-7a117.14,117.14,0,0,0-34.32,7.08Z"/><path class="cls-171" d="M357.09,239.41a110.15,110.15,0,0,1-5.24,27.8l6.55,2.58a117.35,117.35,0,0,0,5.7-30.38Z"/><path class="cls-172" d="M347,279.42a111.08,111.08,0,0,1-17.66,26.89l5,5A117.38,117.38,0,0,0,353.59,282Z"/><path class="cls-173" d="M284.7,336.77a110.39,110.39,0,0,1-31.51,6.53v7a117.15,117.15,0,0,0,34.32-7.09Z"/><path class="cls-174" d="M320.1,315.59a111.19,111.19,0,0,1-10.61,8.34v.26h-.39a108.75,108.75,0,0,1-12.37,7.33l2.82,6.48a117.05,117.05,0,0,0,25.51-17.45Z"/><path class="cls-175" d="M103.11,166.28a158.41,158.41,0,0,1,25.24-38.45l-7.09-7.09A167.59,167.59,0,0,0,93.74,162.6Z"/><path class="cls-176" d="M141.62,114.57A158.09,158.09,0,0,1,175,91.78l-4-9.24a167.2,167.2,0,0,0-36.46,24.94Z"/><path class="cls-177" d="M88.73,223.47a158.13,158.13,0,0,1,7.5-39.73l-9.37-3.69a168.16,168.16,0,0,0-8.15,43.42Z"/><path class="cls-178" d="M192.21,84.28a157.21,157.21,0,0,1,45-9.33v-10a167.41,167.41,0,0,0-49.06,10.13Z"/><path class="cls-179" d="M404.53,242.23A157.25,157.25,0,0,1,397,282l9.38,3.69a168.24,168.24,0,0,0,8.15-43.42Z"/><path class="cls-180" d="M390.16,299.41a158.15,158.15,0,0,1-25.25,38.45L372,345a167.53,167.53,0,0,0,27.53-41.86Z"/><path class="cls-181" d="M301.05,381.4a157.55,157.55,0,0,1-45,9.33v10a167.34,167.34,0,0,0,49.06-10.13Z"/><path class="cls-182" d="M351.65,351.13A160.23,160.23,0,0,1,336.48,363v.38h-.55a159.15,159.15,0,0,1-17.69,10.48l4,9.26a168.21,168.21,0,0,0,36.47-24.94Z"/><circle class="cls-183" cx="246.63" cy="232.85" r="42.82"/><path class="cls-184" d="M246.63,92.64A140.21,140.21,0,1,0,386.84,232.85,140.21,140.21,0,0,0,246.63,92.64Zm0,271A130.82,130.82,0,1,1,377.45,232.85,130.82,130.82,0,0,1,246.63,363.67Z"/><path class="cls-162" d="M341.67,232.85a95.23,95.23,0,1,1-83.38-94.3v-2.36A97.43,97.43,0,1,0,343,218.85h-2.36A95,95,0,0,1,341.67,232.85Z"/><g class="cls-185"><path class="cls-186" d="M327.11,217.47a76.23,76.23,0,0,0-65.92-64.28v64.28Z"/></g><g class="cls-187"><path class="cls-188" d="M166.16,248.23a76.23,76.23,0,0,0,65.91,64.28V248.23Z"/></g><g class="cls-189"><g class="cls-190"><path class="cls-191" d="M362.67,210.68a109.91,109.91,0,0,0-95-92.69v92.69Z"/></g><g class="cls-192"><path class="cls-193" d="M130.6,255a109.9,109.9,0,0,0,95,92.68V255Z"/></g></g><g class="cls-190"><path class="cls-191" d="M362.67,210.68a109.91,109.91,0,0,0-95-92.69v92.69Z"/></g><g class="cls-192"><path class="cls-193" d="M130.6,255a109.9,109.9,0,0,0,95,92.68V255Z"/></g></g></g></svg>