<svg xmlns="http://www.w3.org/2000/svg" xmlns:xlink="http://www.w3.org/1999/xlink" viewBox="0 0 494.51 177.5"><defs><style>.cls-1{mask:url(#mask);filter:url(#luminosity-noclip-2);}.cls-2{mix-blend-mode:multiply;fill:url(#Безымянный_градиент_42);}.cls-3{fill:url(#Безымянный_градиент_43);}.cls-4{fill:url(#Безымянный_градиент_175);}.cls-5{fill:url(#Безымянный_градиент_175-2);}.cls-6{fill:url(#Безымянный_градиент_175-3);}.cls-7{fill:url(#Безымянный_градиент_175-4);}.cls-8{fill:url(#Безымянный_градиент_175-5);}.cls-9{fill:url(#Безымянный_градиент_175-6);}.cls-10{fill:url(#Безымянный_градиент_175-7);}.cls-11{fill:url(#Безымянный_градиент_175-8);}.cls-12{fill:url(#Безымянный_градиент_175-9);}.cls-13{fill:url(#Безымянный_градиент_175-10);}.cls-14{fill:url(#Безымянный_градиент_175-11);}.cls-15{fill:url(#Безымянный_градиент_175-12);}.cls-16{fill:url(#Безымянный_градиент_175-13);}.cls-17{fill:url(#Безымянный_градиент_175-14);}.cls-18{fill:url(#Безымянный_градиент_175-15);}.cls-19{fill:url(#Безымянный_градиент_175-16);}.cls-20{fill:url(#Безымянный_градиент_175-17);}.cls-21{fill:url(#Безымянный_градиент_175-18);}.cls-22{fill:url(#Безымянный_градиент_175-19);}.cls-23{fill:url(#Безымянный_градиент_175-20);}.cls-24{fill:url(#Безымянный_градиент_175-21);}.cls-25{fill:url(#Безымянный_градиент_175-22);}.cls-26{fill:url(#Безымянный_градиент_175-23);}.cls-27{fill:url(#Безымянный_градиент_175-24);}.cls-28{fill:url(#Безымянный_градиент_175-25);}.cls-29{fill:url(#Безымянный_градиент_175-26);}.cls-30{fill:url(#Безымянный_градиент_175-27);}.cls-31{fill:url(#Безымянный_градиент_175-28);}.cls-32{fill:url(#Безымянный_градиент_175-29);}.cls-33{fill:url(#Безымянный_градиент_175-30);}.cls-34{fill:url(#Безымянный_градиент_175-31);}.cls-35{fill:url(#Безымянный_градиент_175-32);}.cls-36{fill:url(#Безымянный_градиент_175-33);}.cls-37{fill:url(#Безымянный_градиент_175-34);}.cls-38{fill:url(#Безымянный_градиент_175-35);}.cls-39{fill:url(#Безымянный_градиент_175-36);}.cls-40{fill:url(#Безымянный_градиент_175-37);}.cls-41{fill:url(#Безымянный_градиент_175-38);}.cls-42{fill:url(#Безымянный_градиент_175-39);}.cls-43{fill:url(#Безымянный_градиент_175-40);}.cls-44{fill:url(#Безымянный_градиент_175-41);}.cls-45{fill:url(#Безымянный_градиент_175-42);}.cls-46{fill:url(#Безымянный_градиент_175-43);}.cls-47{fill:url(#Безымянный_градиент_175-44);}.cls-48{fill:url(#Безымянный_градиент_175-45);}.cls-49{fill:url(#Безымянный_градиент_175-46);}.cls-50{fill:url(#Безымянный_градиент_175-47);}.cls-51{fill:url(#Безымянный_градиент_175-48);}.cls-52{fill:url(#Безымянный_градиент_175-49);}.cls-53{fill:url(#Безымянный_градиент_175-50);}.cls-54{fill:url(#Безымянный_градиент_175-51);}.cls-55{fill:url(#Безымянный_градиент_175-52);}.cls-56{fill:url(#Безымянный_градиент_175-53);}.cls-57{fill:url(#Безымянный_градиент_175-54);}.cls-58{fill:url(#Безымянный_градиент_175-55);}.cls-59{fill:url(#Безымянный_градиент_175-56);}.cls-60{fill:url(#Безымянный_градиент_175-57);}.cls-61{fill:url(#Безымянный_градиент_175-58);}.cls-62{fill:url(#Безымянный_градиент_175-59);}.cls-63{fill:url(#Безымянный_градиент_175-60);}.cls-64{fill:url(#Безымянный_градиент_175-61);}.cls-65{fill:url(#Безымянный_градиент_175-62);}.cls-66{fill:url(#Безымянный_градиент_175-63);}.cls-67{fill:url(#Безымянный_градиент_175-64);}.cls-68{fill:url(#Безымянный_градиент_175-65);}.cls-69{fill:url(#Безымянный_градиент_175-66);}.cls-70{fill:url(#Безымянный_градиент_175-67);}.cls-71{fill:url(#Безымянный_градиент_175-68);}.cls-72{fill:url(#Безымянный_градиент_175-69);}.cls-73{fill:url(#Безымянный_градиент_175-70);}.cls-74{fill:#00d0ff;}.cls-75{fill:url(#Безымянный_градиент_21);}.cls-76{fill:url(#Безымянный_градиент_21-2);}.cls-77{fill:url(#Безымянный_градиент_21-3);}.cls-78{fill:url(#Безымянный_градиент_21-4);}.cls-79{fill:url(#Безымянный_градиент_21-5);}.cls-80{fill:url(#Безымянный_градиент_21-6);}.cls-81{fill:url(#Безымянный_градиент_21-7);}.cls-82{fill:url(#Безымянный_градиент_21-8);}.cls-83{fill:url(#Безымянный_градиент_21-9);}.cls-84{fill:url(#Безымянный_градиент_21-10);}.cls-85{fill:url(#Безымянный_градиент_21-11);}.cls-86{fill:url(#Безымянный_градиент_21-12);}.cls-87{fill:url(#Безымянный_градиент_21-13);}.cls-88{fill:url(#Безымянный_градиент_21-14);}.cls-89{fill:url(#Безымянный_градиент_21-15);}.cls-90{fill:url(#Безымянный_градиент_21-16);}.cls-91{fill:url(#Безымянный_градиент_21-17);}.cls-92{fill:url(#Безымянный_градиент_21-18);}.cls-93{fill:url(#Безымянный_градиент_21-19);}.cls-94{mask:url(#mask-2);}.cls-95{fill:url(#Безымянный_градиент_38);}.cls-96{filter:url(#luminosity-noclip);}</style><filter id="luminosity-noclip" x="58.56" y="-8280.93" width="61.14" height="32766" filterUnits="userSpaceOnUse" color-interpolation-filters="sRGB"><feFlood flood-color="#fff" result="bg"/><feBlend in="SourceGraphic" in2="bg"/></filter><mask id="mask" x="58.56" y="-8280.93" width="61.14" height="32766" maskUnits="userSpaceOnUse"><g class="cls-96"/></mask><linearGradient id="Безымянный_градиент_42" x1="88.55" y1="48.49" x2="90.04" y2="156.4" gradientTransform="translate(121.77 -32.34) rotate(59.59)" gradientUnits="userSpaceOnUse"><stop offset="0" stop-color="#333"/><stop offset="0.27" stop-color="#717171"/><stop offset="0.62" stop-color="#bdbdbd"/><stop offset="0.87" stop-color="#ededed"/><stop offset="1" stop-color="#fff"/></linearGradient><linearGradient id="Безымянный_градиент_43" x1="182.48" y1="54.27" x2="484.54" y2="54.27" gradientUnits="userSpaceOnUse"><stop offset="0" stop-color="#00bdff"/><stop offset="0.16" stop-color="#00bafc"/><stop offset="0.3" stop-color="#01b2f1"/><stop offset="0.43" stop-color="#01a3e0"/><stop offset="0.55" stop-color="#028fc7"/><stop offset="0.67" stop-color="#0375a7"/><stop offset="0.79" stop-color="#055480"/><stop offset="0.9" stop-color="#062f53"/><stop offset="1" stop-color="#080823"/></linearGradient><linearGradient id="Безымянный_градиент_175" x1="498.84" y1="-37.95" x2="134.93" y2="-40.53" gradientTransform="matrix(0.94, -0.34, 0.34, 0.94, -241.16, 306.86)" gradientUnits="userSpaceOnUse"><stop offset="0" stop-color="#00bdff"/><stop offset="0.11" stop-color="#01a2de"/><stop offset="0.35" stop-color="#046c9c"/><stop offset="0.57" stop-color="#054168"/><stop offset="0.75" stop-color="#072242"/><stop offset="0.91" stop-color="#080f2b"/><stop offset="1" stop-color="#080823"/></linearGradient><linearGradient id="Безымянный_градиент_175-2" x1="498.81" y1="-33.61" x2="134.9" y2="-36.2" xlink:href="#Безымянный_градиент_175"/><linearGradient id="Безымянный_градиент_175-3" x1="498.79" y1="-29.65" x2="134.87" y2="-32.23" xlink:href="#Безымянный_градиент_175"/><linearGradient id="Безымянный_градиент_175-4" x1="498.76" y1="-26.06" x2="134.85" y2="-28.65" xlink:href="#Безымянный_градиент_175"/><linearGradient id="Безымянный_градиент_175-5" x1="498.74" y1="-22.9" x2="134.82" y2="-25.49" xlink:href="#Безымянный_градиент_175"/><linearGradient id="Безымянный_градиент_175-6" x1="498.72" y1="-20.18" x2="134.81" y2="-22.77" xlink:href="#Безымянный_градиент_175"/><linearGradient id="Безымянный_градиент_175-7" x1="498.7" y1="-17.92" x2="134.79" y2="-20.51" xlink:href="#Безымянный_градиент_175"/><linearGradient id="Безымянный_градиент_175-8" x1="498.69" y1="-16.12" x2="134.78" y2="-18.7" xlink:href="#Безымянный_градиент_175"/><linearGradient id="Безымянный_градиент_175-9" x1="498.68" y1="-14.81" x2="134.76" y2="-17.39" xlink:href="#Безымянный_градиент_175"/><linearGradient id="Безымянный_градиент_175-10" x1="498.68" y1="-13.98" x2="134.75" y2="-16.57" xlink:href="#Безымянный_градиент_175"/><linearGradient id="Безымянный_градиент_175-11" x1="498.67" y1="-13.64" x2="134.76" y2="-16.23" xlink:href="#Безымянный_градиент_175"/><linearGradient id="Безымянный_градиент_175-12" x1="498.66" y1="-13.8" x2="134.78" y2="-16.39" xlink:href="#Безымянный_градиент_175"/><linearGradient id="Безымянный_градиент_175-13" x1="498.67" y1="-14.43" x2="134.78" y2="-17.01" xlink:href="#Безымянный_градиент_175"/><linearGradient id="Безымянный_градиент_175-14" x1="498.68" y1="-15.57" x2="134.79" y2="-18.16" xlink:href="#Безымянный_градиент_175"/><linearGradient id="Безымянный_градиент_175-15" x1="498.69" y1="-17.18" x2="134.8" y2="-19.76" xlink:href="#Безымянный_градиент_175"/><linearGradient id="Безымянный_градиент_175-16" x1="498.7" y1="-19.27" x2="134.82" y2="-21.85" xlink:href="#Безымянный_градиент_175"/><linearGradient id="Безымянный_градиент_175-17" x1="498.72" y1="-21.82" x2="134.83" y2="-24.41" xlink:href="#Безымянный_градиент_175"/><linearGradient id="Безымянный_градиент_175-18" x1="498.75" y1="-24.82" x2="134.85" y2="-27.41" xlink:href="#Безымянный_градиент_175"/><linearGradient id="Безымянный_градиент_175-19" x1="498.77" y1="-28.24" x2="134.88" y2="-30.83" xlink:href="#Безымянный_градиент_175"/><linearGradient id="Безымянный_градиент_175-20" x1="498.8" y1="-32.06" x2="134.9" y2="-34.65" xlink:href="#Безымянный_градиент_175"/><linearGradient id="Безымянный_градиент_175-21" x1="498.83" y1="-36.27" x2="134.93" y2="-38.86" xlink:href="#Безымянный_градиент_175"/><linearGradient id="Безымянный_градиент_175-22" x1="498.86" y1="-40.82" x2="134.96" y2="-43.41" xlink:href="#Безымянный_градиент_175"/><linearGradient id="Безымянный_градиент_175-23" x1="498.89" y1="-45.7" x2="135" y2="-48.28" xlink:href="#Безымянный_градиент_175"/><linearGradient id="Безымянный_градиент_175-24" x1="498.93" y1="-50.87" x2="135.03" y2="-53.46" xlink:href="#Безымянный_градиент_175"/><linearGradient id="Безымянный_градиент_175-25" x1="498.97" y1="-56.3" x2="135.07" y2="-58.89" xlink:href="#Безымянный_градиент_175"/><linearGradient id="Безымянный_градиент_175-26" x1="499.01" y1="-61.96" x2="135.11" y2="-64.55" xlink:href="#Безымянный_градиент_175"/><linearGradient id="Безымянный_градиент_175-27" x1="499.05" y1="-67.82" x2="135.15" y2="-70.41" xlink:href="#Безымянный_градиент_175"/><linearGradient id="Безымянный_градиент_175-28" x1="499.09" y1="-73.83" x2="135.2" y2="-76.42" xlink:href="#Безымянный_градиент_175"/><linearGradient id="Безымянный_градиент_175-29" x1="499.14" y1="-79.97" x2="135.24" y2="-82.55" xlink:href="#Безымянный_градиент_175"/><linearGradient id="Безымянный_градиент_175-30" x1="499.18" y1="-86.18" x2="135.28" y2="-88.77" xlink:href="#Безымянный_градиент_175"/><linearGradient id="Безымянный_градиент_175-31" x1="499.23" y1="-92.68" x2="135.33" y2="-95.27" xlink:href="#Безымянный_градиент_175"/><linearGradient id="Безымянный_градиент_175-32" x1="499.27" y1="-99.1" x2="135.37" y2="-101.69" xlink:href="#Безымянный_градиент_175"/><linearGradient id="Безымянный_градиент_175-33" x1="499.32" y1="-105.31" x2="135.42" y2="-107.89" xlink:href="#Безымянный_градиент_175"/><linearGradient id="Безымянный_градиент_175-34" x1="499.36" y1="-111.42" x2="135.46" y2="-114.01" xlink:href="#Безымянный_градиент_175"/><linearGradient id="Безымянный_градиент_175-35" x1="499.41" y1="-117.42" x2="135.5" y2="-120.01" xlink:href="#Безымянный_градиент_175"/><linearGradient id="Безымянный_градиент_175-36" x1="499.45" y1="-123.25" x2="135.54" y2="-125.84" xlink:href="#Безымянный_градиент_175"/><linearGradient id="Безымянный_градиент_175-37" x1="499.49" y1="-128.88" x2="135.58" y2="-131.47" xlink:href="#Безымянный_градиент_175"/><linearGradient id="Безымянный_градиент_175-38" x1="499.53" y1="-134.29" x2="135.62" y2="-136.88" xlink:href="#Безымянный_градиент_175"/><linearGradient id="Безымянный_градиент_175-39" x1="499.56" y1="-139.41" x2="135.66" y2="-142" xlink:href="#Безымянный_градиент_175"/><linearGradient id="Безымянный_градиент_175-40" x1="499.6" y1="-144.25" x2="135.69" y2="-146.84" xlink:href="#Безымянный_градиент_175"/><linearGradient id="Безымянный_градиент_175-41" x1="499.63" y1="-148.77" x2="135.72" y2="-151.35" xlink:href="#Безымянный_градиент_175"/><linearGradient id="Безымянный_градиент_175-42" x1="499.66" y1="-152.91" x2="135.75" y2="-155.5" xlink:href="#Безымянный_градиент_175"/><linearGradient id="Безымянный_градиент_175-43" x1="499.69" y1="-156.69" x2="135.78" y2="-159.27" xlink:href="#Безымянный_градиент_175"/><linearGradient id="Безымянный_градиент_175-44" x1="499.71" y1="-160.06" x2="135.8" y2="-162.64" xlink:href="#Безымянный_градиент_175"/><linearGradient id="Безымянный_градиент_175-45" x1="499.73" y1="-163" x2="135.82" y2="-165.58" xlink:href="#Безымянный_градиент_175"/><linearGradient id="Безымянный_градиент_175-46" x1="499.75" y1="-165.49" x2="135.83" y2="-168.07" xlink:href="#Безымянный_градиент_175"/><linearGradient id="Безымянный_градиент_175-47" x1="499.77" y1="-167.51" x2="135.85" y2="-170.1" xlink:href="#Безымянный_градиент_175"/><linearGradient id="Безымянный_градиент_175-48" x1="499.78" y1="-169.07" x2="135.86" y2="-171.66" xlink:href="#Безымянный_градиент_175"/><linearGradient id="Безымянный_градиент_175-49" x1="499.79" y1="-170.12" x2="135.86" y2="-172.71" xlink:href="#Безымянный_градиент_175"/><linearGradient id="Безымянный_градиент_175-50" x1="499.78" y1="-170.71" x2="135.88" y2="-173.3" xlink:href="#Безымянный_градиент_175"/><linearGradient id="Безымянный_градиент_175-51" x1="499.78" y1="-170.78" x2="135.89" y2="-173.37" xlink:href="#Безымянный_градиент_175"/><linearGradient id="Безымянный_градиент_175-52" x1="499.77" y1="-170.39" x2="135.9" y2="-172.98" xlink:href="#Безымянный_градиент_175"/><linearGradient id="Безымянный_градиент_175-53" x1="499.77" y1="-169.5" x2="135.89" y2="-172.09" xlink:href="#Безымянный_градиент_175"/><linearGradient id="Безымянный_градиент_175-54" x1="499.76" y1="-168.12" x2="135.88" y2="-170.71" xlink:href="#Безымянный_градиент_175"/><linearGradient id="Безымянный_градиент_175-55" x1="499.75" y1="-166.27" x2="135.86" y2="-168.85" xlink:href="#Безымянный_градиент_175"/><linearGradient id="Безымянный_градиент_175-56" x1="499.73" y1="-163.93" x2="135.84" y2="-166.52" xlink:href="#Безымянный_градиент_175"/><linearGradient id="Безымянный_градиент_175-57" x1="499.71" y1="-161.15" x2="135.82" y2="-163.74" xlink:href="#Безымянный_градиент_175"/><linearGradient id="Безымянный_градиент_175-58" x1="499.69" y1="-157.93" x2="135.8" y2="-160.52" xlink:href="#Безымянный_градиент_175"/><linearGradient id="Безымянный_градиент_175-59" x1="499.66" y1="-154.31" x2="135.77" y2="-156.89" xlink:href="#Безымянный_градиент_175"/><linearGradient id="Безымянный_градиент_175-60" x1="499.64" y1="-150.28" x2="135.74" y2="-152.87" xlink:href="#Безымянный_градиент_175"/><linearGradient id="Безымянный_градиент_175-61" x1="499.61" y1="-145.9" x2="135.71" y2="-148.48" xlink:href="#Безымянный_градиент_175"/><linearGradient id="Безымянный_градиент_175-62" x1="499.57" y1="-141.18" x2="135.68" y2="-143.77" xlink:href="#Безымянный_градиент_175"/><linearGradient id="Безымянный_градиент_175-63" x1="499.54" y1="-136.14" x2="135.64" y2="-138.73" xlink:href="#Безымянный_градиент_175"/><linearGradient id="Безымянный_градиент_175-64" x1="499.5" y1="-130.83" x2="135.6" y2="-133.42" xlink:href="#Безымянный_градиент_175"/><linearGradient id="Безымянный_градиент_175-65" x1="499.46" y1="-125.29" x2="135.56" y2="-127.87" xlink:href="#Безымянный_градиент_175"/><linearGradient id="Безымянный_градиент_175-66" x1="499.42" y1="-119.51" x2="135.52" y2="-122.1" xlink:href="#Безымянный_градиент_175"/><linearGradient id="Безымянный_градиент_175-67" x1="499.38" y1="-113.58" x2="135.48" y2="-116.16" xlink:href="#Безымянный_градиент_175"/><linearGradient id="Безымянный_градиент_175-68" x1="499.33" y1="-107.5" x2="135.43" y2="-110.08" xlink:href="#Безымянный_градиент_175"/><linearGradient id="Безымянный_градиент_175-69" x1="499.29" y1="-101.32" x2="135.39" y2="-103.9" xlink:href="#Безымянный_градиент_175"/><linearGradient id="Безымянный_градиент_175-70" x1="499.25" y1="-95.08" x2="135.34" y2="-97.67" xlink:href="#Безымянный_градиент_175"/><linearGradient id="Безымянный_градиент_21" x1="478.55" y1="87.6" x2="140.83" y2="88.21" gradientUnits="userSpaceOnUse"><stop offset="0" stop-color="#00bdff"/><stop offset="0.25" stop-color="#0384ba"/><stop offset="0.51" stop-color="#054f7a"/><stop offset="0.73" stop-color="#07294b"/><stop offset="0.9" stop-color="#08112e"/><stop offset="1" stop-color="#080823"/></linearGradient><linearGradient id="Безымянный_градиент_21-2" x1="478.56" y1="87.58" x2="140.85" y2="88.18" xlink:href="#Безымянный_градиент_21"/><linearGradient id="Безымянный_градиент_21-3" x1="478.57" y1="87.55" x2="140.86" y2="88.15" xlink:href="#Безымянный_градиент_21"/><linearGradient id="Безымянный_градиент_21-4" x1="478.58" y1="87.52" x2="140.87" y2="88.12" xlink:href="#Безымянный_градиент_21"/><linearGradient id="Безымянный_градиент_21-5" x1="478.64" y1="87.38" x2="140.93" y2="87.98" xlink:href="#Безымянный_градиент_21"/><linearGradient id="Безымянный_градиент_21-6" x1="478.6" y1="87.49" x2="140.88" y2="88.1" xlink:href="#Безымянный_градиент_21"/><linearGradient id="Безымянный_градиент_21-7" x1="478.6" y1="87.46" x2="140.89" y2="88.07" xlink:href="#Безымянный_градиент_21"/><linearGradient id="Безымянный_градиент_21-8" x1="478.62" y1="87.43" x2="140.9" y2="88.04" xlink:href="#Безымянный_градиент_21"/><linearGradient id="Безымянный_градиент_21-9" x1="478.63" y1="87.4" x2="140.91" y2="88.01" xlink:href="#Безымянный_градиент_21"/><linearGradient id="Безымянный_градиент_21-10" x1="478.48" y1="87.78" x2="140.77" y2="88.38" xlink:href="#Безымянный_градиент_21"/><linearGradient id="Безымянный_градиент_21-11" x1="478.44" y1="87.89" x2="140.72" y2="88.5" xlink:href="#Безымянный_градиент_21"/><linearGradient id="Безымянный_градиент_21-12" x1="478.45" y1="87.86" x2="140.73" y2="88.47" xlink:href="#Безымянный_градиент_21"/><linearGradient id="Безымянный_градиент_21-13" x1="478.46" y1="87.83" x2="140.74" y2="88.44" xlink:href="#Безымянный_градиент_21"/><linearGradient id="Безымянный_градиент_21-14" x1="478.47" y1="87.8" x2="140.75" y2="88.41" xlink:href="#Безымянный_градиент_21"/><linearGradient id="Безымянный_градиент_21-15" x1="478.54" y1="87.63" x2="140.82" y2="88.24" xlink:href="#Безымянный_градиент_21"/><linearGradient id="Безымянный_градиент_21-16" x1="478.49" y1="87.75" x2="140.78" y2="88.35" xlink:href="#Безымянный_градиент_21"/><linearGradient id="Безымянный_градиент_21-17" x1="478.51" y1="87.72" x2="140.79" y2="88.32" xlink:href="#Безымянный_градиент_21"/><linearGradient id="Безымянный_градиент_21-18" x1="478.52" y1="87.69" x2="140.8" y2="88.3" xlink:href="#Безымянный_градиент_21"/><linearGradient id="Безымянный_градиент_21-19" x1="478.53" y1="87.66" x2="140.81" y2="88.27" xlink:href="#Безымянный_градиент_21"/><filter id="luminosity-noclip-2" x="58.56" y="59.6" width="61.14" height="61.14" filterUnits="userSpaceOnUse" color-interpolation-filters="sRGB"><feFlood flood-color="#fff" result="bg"/><feBlend in="SourceGraphic" in2="bg"/></filter><mask id="mask-2" x="58.56" y="59.6" width="61.14" height="61.14" maskUnits="userSpaceOnUse"><g class="cls-1"><circle class="cls-2" cx="89.13" cy="90.17" r="30.57" transform="translate(-33.76 121.39) rotate(-59.59)"/></g></mask><linearGradient id="Безымянный_градиент_38" x1="88.55" y1="48.49" x2="90.04" y2="156.4" gradientTransform="translate(121.77 -32.34) rotate(59.59)" gradientUnits="userSpaceOnUse"><stop offset="0" stop-color="#00bdff"/><stop offset="0.31" stop-color="#037db1"/><stop offset="0.64" stop-color="#063e65"/><stop offset="0.88" stop-color="#071735"/><stop offset="1" stop-color="#080823"/></linearGradient></defs><title>header_loading_14</title><g id="Layer_2" data-name="Layer 2"><g id="Layer_1-2" data-name="Layer 1"><rect class="cls-3" x="182.48" y="46.15" width="302.07" height="16.24"/><path class="cls-4" d="M151.21,116.73a2,2,0,0,1,2.67-.86l14.89,6.2a2.16,2.16,0,0,1,1,3,2.37,2.37,0,0,1-1.23,1.26,2,2,0,0,1-1.63,0l-14.55-7a2.19,2.19,0,0,1-1.09-1.12A1.74,1.74,0,0,1,151.21,116.73Z"/><path class="cls-5" d="M148.79,121.61a2,2,0,0,1,2.72-.65l14.35,7.35a2.16,2.16,0,0,1,.76,3,2.19,2.19,0,0,1-3,1l-13.95-8.11A2,2,0,0,1,148.79,121.61Z"/><path class="cls-6" d="M146,126.29a2,2,0,0,1,2.74-.44l13.73,8.47a2.3,2.3,0,0,1-2.52,3.84L146.7,129A2,2,0,0,1,146,126.29Z"/><path class="cls-7" d="M142.84,130.72a2,2,0,0,1,2.79-.21l13,9.53a2.17,2.17,0,0,1,.26,3.11,2.46,2.46,0,0,1-1.49.93,2,2,0,0,1-1.58-.41l-12.49-10.2a2.3,2.3,0,0,1-.81-1.35A1.73,1.73,0,0,1,142.84,130.72Z"/><path class="cls-8" d="M139.34,134.89a1.88,1.88,0,0,1,1.32-.55,2.21,2.21,0,0,1,1.46.56l12.22,10.53a2,2,0,0,1,.68,1.49,2.33,2.33,0,0,1-.65,1.64,2.2,2.2,0,0,1-3.12.27l-11.64-11.17A2,2,0,0,1,139.34,134.89Z"/><path class="cls-9" d="M135.53,138.77a2,2,0,0,1,2.77.22l11.33,11.48a2.3,2.3,0,0,1-3.35,3.13l-10.71-12.06A2,2,0,0,1,135.53,138.77Z"/><path class="cls-10" d="M131.4,142.31a2.06,2.06,0,0,1,2.77.47l10.38,12.35A2.31,2.31,0,0,1,141,158l-9.71-12.88A2.05,2.05,0,0,1,131.4,142.31Z"/><path class="cls-11" d="M127,145.54a2,2,0,0,1,2.69.66l9.36,13.14a2.18,2.18,0,0,1-.71,3,2.21,2.21,0,0,1-3.1-.49l-8.64-13.61A2,2,0,0,1,127,145.54Z"/><path class="cls-12" d="M122.39,148.39a2,2,0,0,1,2.65.89l8.28,13.84a2.19,2.19,0,0,1-1,3,2.16,2.16,0,0,1-3-.72l-7.53-14.27A2,2,0,0,1,122.39,148.39Z"/><path class="cls-13" d="M117.54,150.86a2,2,0,0,1,2.57,1.1l7.15,14.46a2.3,2.3,0,0,1-4.16,1.92l-6.38-14.81A2,2,0,0,1,117.54,150.86Z"/><path class="cls-14" d="M112.51,153a2,2,0,0,1,2.47,1.28l6,15a2.2,2.2,0,0,1-1.41,2.79,2.24,2.24,0,0,1-1.76,0,2,2,0,0,1-1.13-1.18l-5.2-15.27a2.22,2.22,0,0,1,0-1.57A1.88,1.88,0,0,1,112.51,153Z"/><path class="cls-15" d="M107.32,154.64a1.76,1.76,0,0,1,1.42.25,2.31,2.31,0,0,1,1,1.25l4.8,15.39a2,2,0,0,1-.21,1.62,2.47,2.47,0,0,1-1.42,1,2.18,2.18,0,0,1-2.79-1.4l-4-15.63A2,2,0,0,1,107.32,154.64Z"/><path class="cls-16" d="M102,155.94a2,2,0,0,1,2.23,1.64l3.57,15.73a2.3,2.3,0,0,1-4.5.9l-2.73-15.9A2,2,0,0,1,102,155.94Z"/><path class="cls-17" d="M96.65,156.77a2,2,0,0,1,2.1,1.85l2.31,16a2.31,2.31,0,0,1-4.57.53L95,159.05A2.05,2.05,0,0,1,96.65,156.77Z"/><path class="cls-18" d="M91.23,157.19a1.87,1.87,0,0,1,1.32.56,2.19,2.19,0,0,1,.62,1.43l1,16.1a2,2,0,0,1-.58,1.52,2.3,2.3,0,0,1-1.63.69,2.2,2.2,0,0,1-2.38-2l-.16-16.13A2,2,0,0,1,91.23,157.19Z"/><path class="cls-19" d="M85.8,157.17a2,2,0,0,1,1.77,2.15l-.27,16.12a2.19,2.19,0,0,1-2.39,2,2.52,2.52,0,0,1-.91-.2,2.4,2.4,0,0,1-.71-.5,2,2,0,0,1-.58-1.53l1.13-16.09a2.26,2.26,0,0,1,.64-1.43,1.92,1.92,0,0,1,1.32-.55Z"/><path class="cls-20" d="M80.38,156.71a1.75,1.75,0,0,1,1.2.78A2.22,2.22,0,0,1,82,159l-1.56,16.05a1.94,1.94,0,0,1-.82,1.41,2.48,2.48,0,0,1-1.72.4,2.17,2.17,0,0,1-2-2.37l2.42-15.95A2,2,0,0,1,80.38,156.71Z"/><path class="cls-21" d="M75,155.84a2,2,0,0,1,1.42,2.39l-2.84,15.88a2.3,2.3,0,0,1-4.49-.93l3.67-15.7A2,2,0,0,1,75,155.84Z"/><path class="cls-22" d="M69.72,154.52A2,2,0,0,1,70.94,157l-4.09,15.6a2.3,2.3,0,0,1-4.41-1.28L67.35,156A2,2,0,0,1,69.72,154.52Z"/><path class="cls-23" d="M64.56,152.79a1.78,1.78,0,0,1,1,1,2.28,2.28,0,0,1,0,1.57l-5.31,15.23a2,2,0,0,1-1.14,1.18,2.48,2.48,0,0,1-1.76,0A2.18,2.18,0,0,1,56,169l6.11-14.93A2,2,0,0,1,64.56,152.79Z"/><path class="cls-24" d="M59.53,150.68a2,2,0,0,1,.82,2.65l-6.5,14.76a2.3,2.3,0,0,1-4.15-2L57,151.73A2,2,0,0,1,59.53,150.68Z"/><path class="cls-25" d="M54.71,148.15a2,2,0,0,1,.59,2.73l-7.64,14.2a2.2,2.2,0,0,1-3,.7,2.17,2.17,0,0,1-.93-3L52.06,149A2,2,0,0,1,54.71,148.15Z"/><path class="cls-26" d="M50.09,145.25a1.78,1.78,0,0,1,.72,1.25,2.18,2.18,0,0,1-.34,1.52l-8.75,13.56a2,2,0,0,1-1.38.88,2.39,2.39,0,0,1-1.7-.43,2.17,2.17,0,0,1-.71-3l9.45-13.07A2,2,0,0,1,50.09,145.25Z"/><path class="cls-27" d="M45.71,142a2,2,0,0,1,.17,2.77l-9.79,12.82a2.3,2.3,0,0,1-3.57-2.89L43,142.44A2,2,0,0,1,45.71,142Z"/><path class="cls-28" d="M41.63,138.42a2,2,0,0,1-.08,2.8l-10.77,12a2.18,2.18,0,0,1-3.12-.05,2.35,2.35,0,0,1-.78-1.58,2,2,0,0,1,.57-1.54l11.4-11.41a2.31,2.31,0,0,1,1.41-.66A1.83,1.83,0,0,1,41.63,138.42Z"/><path class="cls-29" d="M37.83,134.53a2,2,0,0,1-.29,2.77l-11.7,11.1A2.31,2.31,0,0,1,22.76,145L35,134.53A2,2,0,0,1,37.83,134.53Z"/><path class="cls-30" d="M34.35,130.35a2,2,0,0,1-.5,2.73L21.3,143.21a2.3,2.3,0,0,1-2.79-3.65l13.08-9.45A2,2,0,0,1,34.35,130.35Z"/><path class="cls-31" d="M31.24,125.89a2,2,0,0,1-.75,2.7l-13.32,9.09a2.17,2.17,0,0,1-3-.79,2.15,2.15,0,0,1,.53-3.07l13.79-8.37A2,2,0,0,1,31.24,125.89Z"/><path class="cls-32" d="M28.47,121.21a2,2,0,0,1-.93,2.62l-14,8a2.18,2.18,0,0,1-3-1,2.2,2.2,0,0,1,.79-3l14.42-7.25A2,2,0,0,1,28.47,121.21Z"/><path class="cls-33" d="M26.1,116.31A2,2,0,0,1,25,118.85l-14.6,6.86a2.18,2.18,0,0,1-2.86-1.25,2.16,2.16,0,0,1,1-2.95l14.94-6.09A2.05,2.05,0,0,1,26.1,116.31Z"/><path class="cls-34" d="M24.11,111.23a2,2,0,0,1-1.34,2.45L7.68,119.36a2.16,2.16,0,0,1-2.76-1.46A2.19,2.19,0,0,1,6.17,115l15.37-4.89A2,2,0,0,1,24.11,111.23Z"/><path class="cls-35" d="M22.52,106A2,2,0,0,1,21,108.34L5.5,112.83a2.19,2.19,0,0,1-2.64-1.68,2.63,2.63,0,0,1-.08-.92,2.32,2.32,0,0,1,.27-.83,2,2,0,0,1,1.29-1l15.71-3.66a2.22,2.22,0,0,1,1.56.18,1.94,1.94,0,0,1,.56.46A1.74,1.74,0,0,1,22.52,106Z"/><path class="cls-36" d="M21.36,100.69a1.8,1.8,0,0,1-.39,1.39,2.29,2.29,0,0,1-1.33.82l-15.8,3.25a2,2,0,0,1-1.6-.37,2.46,2.46,0,0,1-.88-1.52A2.18,2.18,0,0,1,3,101.62l16-2.4A2,2,0,0,1,21.36,100.69Z"/><path class="cls-37" d="M20.6,95.31a2,2,0,0,1-1.86,2l-16,2a2.3,2.3,0,0,1-.44-4.57l16.09-1.12A2,2,0,0,1,20.6,95.31Z"/><path class="cls-38" d="M20.31,89.88a2,2,0,0,1-2,1.9l-16.12.69A2.18,2.18,0,0,1,0,90.2a2.45,2.45,0,0,1,.58-1.66,2,2,0,0,1,1.49-.67L18.2,88a2.24,2.24,0,0,1,1.47.56A1.72,1.72,0,0,1,20.31,89.88Z"/><path class="cls-39" d="M20.44,84.44a1.61,1.61,0,0,1-.23.7,1.73,1.73,0,0,1-.46.55,2.23,2.23,0,0,1-1.49.48l-16.12-.6a2,2,0,0,1-1.46-.74,2.3,2.3,0,0,1-.42-.77,2.51,2.51,0,0,1-.1-.92A2.2,2.2,0,0,1,2.43,81l16.06,1.47A2,2,0,0,1,20.44,84.44Z"/><path class="cls-40" d="M21,79a2,2,0,0,1-2.31,1.55l-16-1.89A2.19,2.19,0,0,1,.89,76.12a2.31,2.31,0,0,1,.87-1.55,2,2,0,0,1,1.57-.42l15.9,2.74a2.17,2.17,0,0,1,1.36.78A1.8,1.8,0,0,1,21,79Z"/><path class="cls-41" d="M22,73.68A2,2,0,0,1,19.55,75L3.74,71.88a2.16,2.16,0,0,1-1.55-2.7A2.17,2.17,0,0,1,4.75,67.4l15.63,4A2,2,0,0,1,22,73.68Z"/><path class="cls-42" d="M23.41,68.42a1.85,1.85,0,0,1-1,1.06,2.24,2.24,0,0,1-1.56.11L5.37,65.19a2,2,0,0,1-1.24-1.07A2.31,2.31,0,0,1,4,62.36,2.21,2.21,0,0,1,6.74,60.8L22,66A2,2,0,0,1,23.41,68.42Z"/><path class="cls-43" d="M25.24,63.29a2,2,0,0,1-2.61,1L7.51,58.64a2.2,2.2,0,0,1-1.12-2.93,2.35,2.35,0,0,1,1.2-1.29,2,2,0,0,1,1.63,0L24,60.79a2.25,2.25,0,0,1,1.14,1.07A1.87,1.87,0,0,1,25.24,63.29Z"/><path class="cls-44" d="M27.48,58.32a2,2,0,0,1-2.7.75l-14.63-6.8a2.15,2.15,0,0,1-.86-3,2.16,2.16,0,0,1,2.9-1.12l14.25,7.56A2,2,0,0,1,27.48,58.32Z"/><path class="cls-45" d="M30.08,53.54a2,2,0,0,1-2.72.54l-14-7.93a2.3,2.3,0,0,1,2.36-3.93l13.61,8.65A2,2,0,0,1,30.08,53.54Z"/><path class="cls-46" d="M33.07,49a2,2,0,0,1-2.77.33l-13.37-9a2.19,2.19,0,0,1-.4-3.1,2.59,2.59,0,0,1,.66-.66,2.25,2.25,0,0,1,.81-.32,2,2,0,0,1,1.6.34l12.88,9.71a2.24,2.24,0,0,1,.85,1.32,1.8,1.8,0,0,1,0,.73A1.64,1.64,0,0,1,33.07,49Z"/><path class="cls-47" d="M36.41,44.69a1.76,1.76,0,0,1-1.3.59,2.29,2.29,0,0,1-1.49-.5L21,34.73a2,2,0,0,1-.73-1.46,2.41,2.41,0,0,1,.59-1.66,2.18,2.18,0,0,1,3.09-.4L36,41.91A2,2,0,0,1,36.41,44.69Z"/><path class="cls-48" d="M40.07,40.65a2,2,0,0,1-2.78-.11l-11.77-11a2.3,2.3,0,0,1,3.22-3.27L39.92,37.88A2,2,0,0,1,40.07,40.65Z"/><path class="cls-49" d="M44.05,37a2,2,0,0,1-2.77-.35L30.42,24.67a2.18,2.18,0,0,1,.36-3.1,2.16,2.16,0,0,1,3.12.1L44.11,34.16A2,2,0,0,1,44.05,37Z"/><path class="cls-50" d="M48.3,33.56a1.78,1.78,0,0,1-1.4.27A2.27,2.27,0,0,1,45.57,33L35.7,20.24a2,2,0,0,1-.37-1.6,2.4,2.4,0,0,1,1-1.47,2.17,2.17,0,0,1,3.1.35l9.17,13.26A2,2,0,0,1,48.3,33.56Z"/><path class="cls-51" d="M52.81,30.52a2,2,0,0,1-2.67-.77L41.33,16.24a2.3,2.3,0,0,1,3.91-2.4l8.09,14A2,2,0,0,1,52.81,30.52Z"/><path class="cls-52" d="M57.56,27.87a2,2,0,0,1-2.61-1L47.24,12.69a2.16,2.16,0,0,1,1.09-2.91,2.15,2.15,0,0,1,3,.83l7,14.55A2.05,2.05,0,0,1,57.56,27.87Z"/><path class="cls-53" d="M62.5,25.57A2,2,0,0,1,60,24.39L53.43,9.66A2.3,2.3,0,0,1,57.67,7.9L63.45,23A2,2,0,0,1,62.5,25.57Z"/><path class="cls-54" d="M67.63,23.7a2,2,0,0,1-2.43-1.4L59.82,7.1a2.18,2.18,0,0,1,1.53-2.72,2.44,2.44,0,0,1,1.75.07,2,2,0,0,1,1.08,1.23l4.58,15.46a2.18,2.18,0,0,1-.09,1.56A1.79,1.79,0,0,1,67.63,23.7Z"/><path class="cls-55" d="M72.87,22.21a1.64,1.64,0,0,1-.73,0,2,2,0,0,1-.67-.28,2.28,2.28,0,0,1-.9-1.29L66.4,5.06a2,2,0,0,1,.27-1.61,2.43,2.43,0,0,1,.61-.63,2.33,2.33,0,0,1,.85-.36A2.2,2.2,0,0,1,70.86,4l3.35,15.78A2,2,0,0,1,72.87,22.21Z"/><path class="cls-56" d="M78.21,21.15A2,2,0,0,1,76,19.4L73.12,3.54a2.18,2.18,0,0,1,1.94-2.45,2.37,2.37,0,0,1,.92,0,2.1,2.1,0,0,1,.81.35,2,2,0,0,1,.87,1.38l2.07,16a2.22,2.22,0,0,1-.34,1.54,2.06,2.06,0,0,1-.51.51A1.6,1.6,0,0,1,78.21,21.15Z"/><path class="cls-57" d="M83.61,20.53A1.75,1.75,0,0,1,82.28,20a2.21,2.21,0,0,1-.69-1.41l-1.65-16A2,2,0,0,1,80.47,1a2.52,2.52,0,0,1,1.6-.73A2.17,2.17,0,0,1,84.52,2.2l.8,16.11A2,2,0,0,1,83.61,20.53Z"/><path class="cls-58" d="M89.05,20.31a2,2,0,0,1-1.86-2L86.83,2.14a2.3,2.3,0,0,1,4.59,0l-.5,16.12A2,2,0,0,1,89.05,20.31Z"/><path class="cls-59" d="M94.48,20.58a2,2,0,0,1-1.69-2.23l.94-16.11A2.16,2.16,0,0,1,96.19.34a2.39,2.39,0,0,1,1.6.74,2,2,0,0,1,.51,1.56l-1.79,16a2.21,2.21,0,0,1-.69,1.4A1.78,1.78,0,0,1,94.48,20.58Z"/><path class="cls-60" d="M99.88,21.25a2,2,0,0,1-1.51-2.35l2.22-16a2.16,2.16,0,0,1,2.61-1.72,2.19,2.19,0,0,1,1.92,2.46l-3.06,15.84A2,2,0,0,1,99.88,21.25Z"/><path class="cls-61" d="M105.21,22.34a2,2,0,0,1-1.32-2.44l3.48-15.75a2.3,2.3,0,0,1,4.46,1.11L107.52,20.8A2,2,0,0,1,105.21,22.34Z"/><path class="cls-62" d="M110.43,23.88a2,2,0,0,1-1.11-2.57L114,5.88a2.17,2.17,0,0,1,2.85-1.26,2.46,2.46,0,0,1,1.37,1.1,2,2,0,0,1,.13,1.63L112.87,22.5a2.21,2.21,0,0,1-1,1.2A1.72,1.72,0,0,1,110.43,23.88Z"/><path class="cls-63" d="M115.53,25.81a1.83,1.83,0,0,1-1-1.07,2.21,2.21,0,0,1,0-1.56l5.92-15A2,2,0,0,1,121.72,7a2.3,2.3,0,0,1,1.76.08A2.18,2.18,0,0,1,124.76,10l-6.7,14.67A2,2,0,0,1,115.53,25.81Z"/><path class="cls-64" d="M120.46,28.13a2,2,0,0,1-.71-2.69L126.84,11a2.3,2.3,0,0,1,4.07,2.13l-7.84,14.1A2,2,0,0,1,120.46,28.13Z"/><path class="cls-65" d="M125.18,30.85a2,2,0,0,1-.48-2.76l8.22-13.88a2.3,2.3,0,0,1,3.88,2.45l-8.93,13.43A2,2,0,0,1,125.18,30.85Z"/><path class="cls-66" d="M129.67,33.92a1.67,1.67,0,0,1-.46-.56,1.64,1.64,0,0,1-.21-.69,2.18,2.18,0,0,1,.41-1.52L138.69,18a1.94,1.94,0,0,1,1.42-.82,2.15,2.15,0,0,1,.87.06,2.29,2.29,0,0,1,.82.42,2.18,2.18,0,0,1,.58,3.07l-10,12.68A2,2,0,0,1,129.67,33.92Z"/><path class="cls-67" d="M133.91,37.34a2,2,0,0,1,0-2.78l10.31-12.41a2.2,2.2,0,0,1,3.13-.09,2.32,2.32,0,0,1,.82,1.57,2,2,0,0,1-.5,1.55L136.67,37a2.3,2.3,0,0,1-1.39.72A1.84,1.84,0,0,1,133.91,37.34Z"/><path class="cls-68" d="M137.85,41.1a2,2,0,0,1,.19-2.8L149.3,26.75a2.31,2.31,0,0,1,3.21,3.3L140.65,41A2.05,2.05,0,0,1,137.85,41.1Z"/><path class="cls-69" d="M141.49,45.14a2,2,0,0,1,.39-2.75L154,31.77A2.3,2.3,0,0,1,157,35.31l-12.69,9.95A2,2,0,0,1,141.49,45.14Z"/><path class="cls-70" d="M144.78,49.46a2,2,0,0,1,.62-2.71l13-9.61a2.2,2.2,0,0,1,3.06.67,2.17,2.17,0,0,1-.42,3.1l-13.46,8.9A2,2,0,0,1,144.78,49.46Z"/><path class="cls-71" d="M147.72,54a1.78,1.78,0,0,1-.12-1.43,2.23,2.23,0,0,1,1-1.23l13.69-8.54a2,2,0,0,1,1.62-.2,2.37,2.37,0,0,1,1.36,1.11,2.17,2.17,0,0,1-.65,3l-14.12,7.8A2,2,0,0,1,147.72,54Z"/><path class="cls-72" d="M150.3,58.83a2,2,0,0,1,1-2.57l14.32-7.42a2.3,2.3,0,0,1,2,4.13L153,59.62A2,2,0,0,1,150.3,58.83Z"/><path class="cls-73" d="M152.46,63.84a2.06,2.06,0,0,1,1.27-2.51l14.86-6.26a2.3,2.3,0,0,1,1.68,4.27L155.1,64.82A2.05,2.05,0,0,1,152.46,63.84Z"/><path class="cls-74" d="M136.87,77.86a50,50,0,0,0-4.62-11.55l-8.16,4.53a39,39,0,0,0-3.35-5.07l7.38-5.71A49.32,49.32,0,0,0,108.65,45L105,53.54a40.17,40.17,0,0,0-5.75-2l2.33-9a49.39,49.39,0,0,0-24.63,0l2.33,9a40.17,40.17,0,0,0-5.75,2L69.81,45A49.29,49.29,0,0,0,50.35,60.06l7.37,5.71a40,40,0,0,0-3.35,5.07l-8.16-4.53A50,50,0,0,0,41.6,77.86a49.39,49.39,0,0,0,0,24.63A49.87,49.87,0,0,0,46.21,114l8.16-4.53a40,40,0,0,0,3.35,5.07l-7.37,5.72a49.27,49.27,0,0,0,19.46,15.08l3.69-8.57a39,39,0,0,0,5.75,2l-2.33,9a49.7,49.7,0,0,0,24.63,0l-2.33-9a39,39,0,0,0,5.75-2l3.68,8.57a49.3,49.3,0,0,0,19.47-15.08l-7.38-5.72a39,39,0,0,0,3.35-5.07l8.16,4.53a49.9,49.9,0,0,0,4.62-11.54,49.7,49.7,0,0,0,0-24.63ZM89.23,129.63a39.46,39.46,0,1,1,39.46-39.46A39.46,39.46,0,0,1,89.23,129.63Z"/><polygon class="cls-75" points="302.05 105.89 288.29 105.89 297.16 69.96 310.92 69.96 302.05 105.89"/><polygon class="cls-76" points="286.1 105.89 272.33 105.89 281.2 69.96 294.97 69.96 286.1 105.89"/><polygon class="cls-77" points="270.15 105.89 256.38 105.89 265.25 69.96 279.01 69.96 270.15 105.89"/><polygon class="cls-78" points="254.19 105.89 240.43 105.89 249.29 69.96 263.06 69.96 254.19 105.89"/><polygon class="cls-79" points="174.42 105.89 160.65 105.89 169.52 69.96 183.29 69.96 174.42 105.89"/><polygon class="cls-80" points="238.24 105.89 224.47 105.89 233.34 69.96 247.1 69.96 238.24 105.89"/><polygon class="cls-81" points="222.28 105.89 208.52 105.89 217.38 69.96 231.15 69.96 222.28 105.89"/><polygon class="cls-82" points="206.33 105.89 192.56 105.89 201.43 69.96 215.19 69.96 206.33 105.89"/><polygon class="cls-83" points="190.37 105.89 176.61 105.89 185.47 69.96 199.24 69.96 190.37 105.89"/><polygon class="cls-84" points="397.78 105.89 384.02 105.89 392.88 69.96 406.65 69.96 397.78 105.89"/><polygon class="cls-85" points="461.6 105.89 447.83 105.89 456.7 69.96 470.47 69.96 461.6 105.89"/><polygon class="cls-86" points="445.64 105.89 431.88 105.89 440.75 69.96 454.51 69.96 445.64 105.89"/><polygon class="cls-87" points="429.69 105.89 415.93 105.89 424.79 69.96 438.56 69.96 429.69 105.89"/><polygon class="cls-88" points="413.74 105.89 399.97 105.89 408.84 69.96 422.6 69.96 413.74 105.89"/><polygon class="cls-89" points="318.01 105.89 304.24 105.89 313.11 69.96 326.88 69.96 318.01 105.89"/><polygon class="cls-90" points="381.83 105.89 368.06 105.89 376.93 69.96 390.69 69.96 381.83 105.89"/><polygon class="cls-91" points="365.87 105.89 352.11 105.89 360.98 69.96 374.74 69.96 365.87 105.89"/><polygon class="cls-92" points="349.92 105.89 336.15 105.89 345.02 69.96 358.79 69.96 349.92 105.89"/><polygon class="cls-93" points="333.96 105.89 320.2 105.89 329.07 69.96 342.83 69.96 333.96 105.89"/><path class="cls-74" d="M241.65,129.35H173.44a1.07,1.07,0,0,1,0-2.13h67.84l15.66-12.69a1.09,1.09,0,0,1,.67-.23H476.85l15.28-70.69H246.29a1.07,1.07,0,0,1-.57-.16l-22.6-14.34-62.59.27h0a1.06,1.06,0,1,1,0-2.12l62.9-.28a1,1,0,0,1,.57.17L246.6,41.49H493.45a1.06,1.06,0,0,1,1,1.29l-15.74,72.8a1.07,1.07,0,0,1-1,.84H258l-15.67,12.69A1.08,1.08,0,0,1,241.65,129.35Z"/><polygon class="cls-74" points="424.27 125.44 267.2 125.44 262.25 115.96 429.22 115.96 424.27 125.44"/><polygon class="cls-74" points="474.1 33.88 317.03 33.88 312.08 43.37 479.05 43.37 474.1 33.88"/><polygon class="cls-74" points="466.27 67.17 309.19 67.17 304.24 64.73 471.22 64.73 466.27 67.17"/><polygon class="cls-74" points="203.53 30.48 163.15 30.48 161.88 28.05 204.8 28.05 203.53 30.48"/><polygon class="cls-74" points="233.71 125.85 193.33 125.85 192.06 128.28 234.98 128.28 233.71 125.85"/><polygon class="cls-74" points="340.79 112.41 183.71 112.41 178.76 109.97 345.73 109.97 340.79 112.41"/><path class="cls-74" d="M473.4,111.18H171.16a.64.64,0,1,1,0-1.27H472.89l9.76-44.31H177.75a.64.64,0,0,1-.64-.64V47.83a.64.64,0,0,1,1.27,0V64.32H483.45a.63.63,0,0,1,.49.24.65.65,0,0,1,.13.54l-10,45.58A.64.64,0,0,1,473.4,111.18Z"/><path class="cls-74" d="M179.6,47.83A1.87,1.87,0,1,1,177.73,46,1.87,1.87,0,0,1,179.6,47.83Z"/><path class="cls-74" d="M173,110.55a1.87,1.87,0,1,1-1.87-1.87A1.87,1.87,0,0,1,173,110.55Z"/><path class="cls-74" d="M184.74,61.16a1.31,1.31,0,0,1-1.19-1.42v-11a1.21,1.21,0,1,1,2.39,0v11A1.32,1.32,0,0,1,184.74,61.16Z"/><path class="cls-74" d="M188.33,61.16a1.32,1.32,0,0,1-1.2-1.42v-11a1.21,1.21,0,1,1,2.39,0v11A1.31,1.31,0,0,1,188.33,61.16Z"/><path class="cls-74" d="M191.91,61.16a1.31,1.31,0,0,1-1.19-1.42v-11a1.21,1.21,0,1,1,2.38,0v11A1.31,1.31,0,0,1,191.91,61.16Z"/><path class="cls-74" d="M195.5,61.16a1.32,1.32,0,0,1-1.2-1.42v-11a1.21,1.21,0,1,1,2.39,0v11A1.32,1.32,0,0,1,195.5,61.16Z"/><path class="cls-74" d="M199.08,61.16a1.31,1.31,0,0,1-1.19-1.42v-11a1.21,1.21,0,1,1,2.38,0v11A1.31,1.31,0,0,1,199.08,61.16Z"/><path class="cls-74" d="M202.66,61.16a1.31,1.31,0,0,1-1.19-1.42v-11a1.21,1.21,0,1,1,2.39,0v11A1.32,1.32,0,0,1,202.66,61.16Z"/><path class="cls-74" d="M206.25,61.16a1.32,1.32,0,0,1-1.2-1.42v-11a1.21,1.21,0,1,1,2.39,0v11A1.31,1.31,0,0,1,206.25,61.16Z"/><path class="cls-74" d="M209.83,61.16a1.31,1.31,0,0,1-1.19-1.42v-11a1.21,1.21,0,1,1,2.38,0v11A1.31,1.31,0,0,1,209.83,61.16Z"/><path class="cls-74" d="M213.41,61.16a1.32,1.32,0,0,1-1.19-1.42v-11a1.21,1.21,0,1,1,2.39,0v11A1.32,1.32,0,0,1,213.41,61.16Z"/><path class="cls-74" d="M217,61.16a1.31,1.31,0,0,1-1.19-1.42v-11a1.21,1.21,0,1,1,2.38,0v11A1.31,1.31,0,0,1,217,61.16Z"/><path class="cls-74" d="M220.58,61.16a1.31,1.31,0,0,1-1.19-1.42v-11a1.21,1.21,0,1,1,2.39,0v11A1.32,1.32,0,0,1,220.58,61.16Z"/><path class="cls-74" d="M224.17,61.16a1.32,1.32,0,0,1-1.2-1.42v-11a1.21,1.21,0,1,1,2.39,0v11A1.31,1.31,0,0,1,224.17,61.16Z"/><path class="cls-74" d="M227.75,61.16a1.31,1.31,0,0,1-1.19-1.42v-11a1.21,1.21,0,1,1,2.38,0v11A1.31,1.31,0,0,1,227.75,61.16Z"/><path class="cls-74" d="M231.33,61.16a1.32,1.32,0,0,1-1.19-1.42v-11a1.21,1.21,0,1,1,2.39,0v11A1.32,1.32,0,0,1,231.33,61.16Z"/><path class="cls-74" d="M234.92,61.16a1.32,1.32,0,0,1-1.2-1.42v-11a1.21,1.21,0,1,1,2.39,0v11A1.31,1.31,0,0,1,234.92,61.16Z"/><path class="cls-74" d="M238.5,61.16a1.31,1.31,0,0,1-1.19-1.42v-11a1.21,1.21,0,1,1,2.39,0v11A1.32,1.32,0,0,1,238.5,61.16Z"/><path class="cls-74" d="M242.09,61.16a1.32,1.32,0,0,1-1.2-1.42v-11a1.21,1.21,0,1,1,2.39,0v11A1.32,1.32,0,0,1,242.09,61.16Z"/><path class="cls-74" d="M245.67,61.16a1.31,1.31,0,0,1-1.19-1.42v-11a1.21,1.21,0,1,1,2.38,0v11A1.31,1.31,0,0,1,245.67,61.16Z"/><path class="cls-74" d="M249.25,61.16a1.31,1.31,0,0,1-1.19-1.42v-11a1.21,1.21,0,1,1,2.39,0v11A1.32,1.32,0,0,1,249.25,61.16Z"/><path class="cls-74" d="M252.84,61.16a1.32,1.32,0,0,1-1.2-1.42v-11a1.21,1.21,0,1,1,2.39,0v11A1.31,1.31,0,0,1,252.84,61.16Z"/><path class="cls-74" d="M256.42,61.16a1.31,1.31,0,0,1-1.19-1.42v-11a1.21,1.21,0,1,1,2.39,0v11A1.32,1.32,0,0,1,256.42,61.16Z"/><path class="cls-74" d="M260,61.16a1.32,1.32,0,0,1-1.2-1.42v-11a1.21,1.21,0,1,1,2.39,0v11A1.32,1.32,0,0,1,260,61.16Z"/><path class="cls-74" d="M263.59,61.16a1.31,1.31,0,0,1-1.19-1.42v-11a1.21,1.21,0,1,1,2.38,0v11A1.31,1.31,0,0,1,263.59,61.16Z"/><path class="cls-74" d="M267.17,61.16A1.31,1.31,0,0,1,266,59.74v-11a1.21,1.21,0,1,1,2.39,0v11A1.32,1.32,0,0,1,267.17,61.16Z"/><path class="cls-74" d="M270.76,61.16a1.32,1.32,0,0,1-1.2-1.42v-11a1.21,1.21,0,1,1,2.39,0v11A1.31,1.31,0,0,1,270.76,61.16Z"/><path class="cls-74" d="M274.34,61.16a1.31,1.31,0,0,1-1.19-1.42v-11a1.21,1.21,0,1,1,2.38,0v11A1.31,1.31,0,0,1,274.34,61.16Z"/><path class="cls-74" d="M277.92,61.16a1.32,1.32,0,0,1-1.19-1.42v-11a1.21,1.21,0,1,1,2.39,0v11A1.32,1.32,0,0,1,277.92,61.16Z"/><path class="cls-74" d="M281.51,61.16a1.31,1.31,0,0,1-1.19-1.42v-11a1.21,1.21,0,1,1,2.38,0v11A1.31,1.31,0,0,1,281.51,61.16Z"/><path class="cls-74" d="M285.09,61.16a1.31,1.31,0,0,1-1.19-1.42v-11a1.21,1.21,0,1,1,2.39,0v11A1.32,1.32,0,0,1,285.09,61.16Z"/><path class="cls-74" d="M288.68,61.16a1.32,1.32,0,0,1-1.2-1.42v-11a1.21,1.21,0,1,1,2.39,0v11A1.31,1.31,0,0,1,288.68,61.16Z"/><path class="cls-74" d="M292.26,61.16a1.31,1.31,0,0,1-1.19-1.42v-11a1.21,1.21,0,1,1,2.38,0v11A1.31,1.31,0,0,1,292.26,61.16Z"/><path class="cls-74" d="M295.84,61.16a1.32,1.32,0,0,1-1.19-1.42v-11a1.21,1.21,0,1,1,2.39,0v11A1.32,1.32,0,0,1,295.84,61.16Z"/><path class="cls-74" d="M299.43,61.16a1.32,1.32,0,0,1-1.2-1.42v-11a1.21,1.21,0,1,1,2.39,0v11A1.31,1.31,0,0,1,299.43,61.16Z"/><path class="cls-74" d="M303,61.16a1.31,1.31,0,0,1-1.19-1.42v-11a1.21,1.21,0,1,1,2.39,0v11A1.32,1.32,0,0,1,303,61.16Z"/><path class="cls-74" d="M306.6,61.16a1.32,1.32,0,0,1-1.2-1.42v-11a1.21,1.21,0,1,1,2.39,0v11A1.31,1.31,0,0,1,306.6,61.16Z"/><path class="cls-74" d="M310.18,61.16A1.31,1.31,0,0,1,309,59.74v-11a1.21,1.21,0,1,1,2.38,0v11A1.31,1.31,0,0,1,310.18,61.16Z"/><path class="cls-74" d="M313.76,61.16a1.31,1.31,0,0,1-1.19-1.42v-11a1.21,1.21,0,1,1,2.39,0v11A1.32,1.32,0,0,1,313.76,61.16Z"/><path class="cls-74" d="M317.35,61.16a1.32,1.32,0,0,1-1.2-1.42v-11a1.21,1.21,0,1,1,2.39,0v11A1.31,1.31,0,0,1,317.35,61.16Z"/><path class="cls-74" d="M320.93,61.16a1.31,1.31,0,0,1-1.19-1.42v-11a1.21,1.21,0,1,1,2.39,0v11A1.32,1.32,0,0,1,320.93,61.16Z"/><path class="cls-74" d="M324.52,61.16a1.32,1.32,0,0,1-1.2-1.42v-11a1.21,1.21,0,1,1,2.39,0v11A1.31,1.31,0,0,1,324.52,61.16Z"/><path class="cls-74" d="M328.1,61.16a1.31,1.31,0,0,1-1.19-1.42v-11a1.21,1.21,0,1,1,2.38,0v11A1.31,1.31,0,0,1,328.1,61.16Z"/><path class="cls-74" d="M331.68,61.16a1.31,1.31,0,0,1-1.19-1.42v-11a1.21,1.21,0,1,1,2.39,0v11A1.32,1.32,0,0,1,331.68,61.16Z"/><path class="cls-74" d="M335.27,61.16a1.32,1.32,0,0,1-1.2-1.42v-11a1.21,1.21,0,1,1,2.39,0v11A1.31,1.31,0,0,1,335.27,61.16Z"/><path class="cls-74" d="M338.85,61.16a1.31,1.31,0,0,1-1.19-1.42v-11a1.21,1.21,0,1,1,2.38,0v11A1.31,1.31,0,0,1,338.85,61.16Z"/><path class="cls-74" d="M342.44,61.16a1.32,1.32,0,0,1-1.2-1.42v-11a1.21,1.21,0,1,1,2.39,0v11A1.32,1.32,0,0,1,342.44,61.16Z"/><path class="cls-74" d="M346,61.16a1.31,1.31,0,0,1-1.19-1.42v-11a1.21,1.21,0,1,1,2.38,0v11A1.31,1.31,0,0,1,346,61.16Z"/><path class="cls-74" d="M349.6,61.16a1.31,1.31,0,0,1-1.19-1.42v-11a1.21,1.21,0,1,1,2.39,0v11A1.32,1.32,0,0,1,349.6,61.16Z"/><path class="cls-74" d="M353.19,61.16a1.32,1.32,0,0,1-1.2-1.42v-11a1.21,1.21,0,1,1,2.39,0v11A1.31,1.31,0,0,1,353.19,61.16Z"/><path class="cls-74" d="M356.77,61.16a1.31,1.31,0,0,1-1.19-1.42v-11a1.21,1.21,0,1,1,2.38,0v11A1.31,1.31,0,0,1,356.77,61.16Z"/><path class="cls-74" d="M360.35,61.16a1.32,1.32,0,0,1-1.19-1.42v-11a1.21,1.21,0,1,1,2.39,0v11A1.32,1.32,0,0,1,360.35,61.16Z"/><path class="cls-74" d="M363.94,61.16a1.31,1.31,0,0,1-1.19-1.42v-11a1.21,1.21,0,1,1,2.38,0v11A1.31,1.31,0,0,1,363.94,61.16Z"/><path class="cls-74" d="M367.52,61.16a1.31,1.31,0,0,1-1.19-1.42v-11a1.21,1.21,0,1,1,2.39,0v11A1.32,1.32,0,0,1,367.52,61.16Z"/><path class="cls-74" d="M371.11,61.16a1.32,1.32,0,0,1-1.2-1.42v-11a1.21,1.21,0,1,1,2.39,0v11A1.31,1.31,0,0,1,371.11,61.16Z"/><path class="cls-74" d="M374.69,61.16a1.31,1.31,0,0,1-1.19-1.42v-11a1.21,1.21,0,1,1,2.38,0v11A1.31,1.31,0,0,1,374.69,61.16Z"/><path class="cls-74" d="M378.27,61.16a1.32,1.32,0,0,1-1.19-1.42v-11a1.21,1.21,0,1,1,2.39,0v11A1.32,1.32,0,0,1,378.27,61.16Z"/><path class="cls-74" d="M381.86,61.16a1.32,1.32,0,0,1-1.2-1.42v-11a1.21,1.21,0,1,1,2.39,0v11A1.31,1.31,0,0,1,381.86,61.16Z"/><path class="cls-74" d="M385.44,61.16a1.31,1.31,0,0,1-1.19-1.42v-11a1.21,1.21,0,1,1,2.39,0v11A1.32,1.32,0,0,1,385.44,61.16Z"/><path class="cls-74" d="M389,61.16a1.32,1.32,0,0,1-1.2-1.42v-11a1.21,1.21,0,1,1,2.39,0v11A1.31,1.31,0,0,1,389,61.16Z"/><path class="cls-74" d="M392.61,61.16a1.31,1.31,0,0,1-1.19-1.42v-11a1.21,1.21,0,1,1,2.38,0v11A1.31,1.31,0,0,1,392.61,61.16Z"/><path class="cls-74" d="M396.19,61.16A1.31,1.31,0,0,1,395,59.74v-11a1.21,1.21,0,1,1,2.39,0v11A1.32,1.32,0,0,1,396.19,61.16Z"/><path class="cls-74" d="M399.78,61.16a1.32,1.32,0,0,1-1.2-1.42v-11a1.21,1.21,0,1,1,2.39,0v11A1.31,1.31,0,0,1,399.78,61.16Z"/><path class="cls-74" d="M403.36,61.16a1.31,1.31,0,0,1-1.19-1.42v-11a1.21,1.21,0,1,1,2.39,0v11A1.32,1.32,0,0,1,403.36,61.16Z"/><path class="cls-74" d="M407,61.16a1.32,1.32,0,0,1-1.2-1.42v-11a1.21,1.21,0,1,1,2.39,0v11A1.32,1.32,0,0,1,407,61.16Z"/><path class="cls-74" d="M410.53,61.16a1.31,1.31,0,0,1-1.19-1.42v-11a1.21,1.21,0,1,1,2.38,0v11A1.31,1.31,0,0,1,410.53,61.16Z"/><path class="cls-74" d="M414.11,61.16a1.31,1.31,0,0,1-1.19-1.42v-11a1.21,1.21,0,1,1,2.39,0v11A1.32,1.32,0,0,1,414.11,61.16Z"/><path class="cls-74" d="M417.7,61.16a1.32,1.32,0,0,1-1.2-1.42v-11a1.21,1.21,0,1,1,2.39,0v11A1.31,1.31,0,0,1,417.7,61.16Z"/><path class="cls-74" d="M421.28,61.16a1.31,1.31,0,0,1-1.19-1.42v-11a1.21,1.21,0,1,1,2.38,0v11A1.31,1.31,0,0,1,421.28,61.16Z"/><path class="cls-74" d="M424.86,61.16a1.32,1.32,0,0,1-1.19-1.42v-11a1.21,1.21,0,1,1,2.39,0v11A1.32,1.32,0,0,1,424.86,61.16Z"/><path class="cls-74" d="M428.45,61.16a1.31,1.31,0,0,1-1.19-1.42v-11a1.21,1.21,0,1,1,2.38,0v11A1.31,1.31,0,0,1,428.45,61.16Z"/><path class="cls-74" d="M432,61.16a1.31,1.31,0,0,1-1.19-1.42v-11a1.21,1.21,0,1,1,2.39,0v11A1.32,1.32,0,0,1,432,61.16Z"/><path class="cls-74" d="M432,61.16a1.31,1.31,0,0,1-1.19-1.42v-11a1.21,1.21,0,1,1,2.39,0v11A1.32,1.32,0,0,1,432,61.16Z"/><g class="cls-94"><circle class="cls-95" cx="89.13" cy="90.17" r="30.57" transform="translate(-33.76 121.39) rotate(-59.59)"/></g><path class="cls-74" d="M435.56,61.16a1.32,1.32,0,0,1-1.2-1.42v-11a1.21,1.21,0,1,1,2.39,0v11A1.32,1.32,0,0,1,435.56,61.16Z"/></g></g></svg>