<svg xmlns="http://www.w3.org/2000/svg" viewBox="0 0 498.69 193.61"><defs><style>.cls-1{fill:#17cffc;}</style></defs><title>header_title_blue</title><g id="Layer_2" data-name="Layer 2"><g id="Layer_1-2" data-name="Layer 1"><polygon class="cls-1" points="318.42 84.92 357.33 84.92 357.33 87.01 320.51 87.01 320.51 118.94 320.14 119.25 289.63 144.98 225.74 144.98 225.74 142.89 288.86 142.89 318.42 117.97 318.42 84.92"/><rect class="cls-1" x="229.82" y="165.3" width="36.84" height="4.41" transform="translate(496.49 335.01) rotate(180)"/><rect class="cls-1" x="207.32" y="142.97" width="36.84" height="4.41" transform="translate(451.49 290.35) rotate(180)"/><polygon class="cls-1" points="293.44 132.17 294.37 133.21 286.64 140.1 274.91 140.1 274.91 138.72 286.11 138.72 293.44 132.17"/><polygon class="cls-1" points="314.96 106.63 316.35 106.72 315.66 117.06 307.28 125.27 306.3 124.28 314.31 116.43 314.96 106.63"/><polygon class="cls-1" points="318.92 125.41 319.38 125.93 291.82 150.23 207.32 150.23 207.32 149.53 291.56 149.53 318.92 125.41"/><path class="cls-1" d="M320.57,125.67a1.42,1.42,0,1,1-1.42-1.42A1.43,1.43,0,0,1,320.57,125.67Z"/><polygon class="cls-1" points="322.14 88.65 348.96 88.65 348.96 89.35 322.83 89.35 322.83 115.65 322.14 115.65 322.14 88.65"/><rect class="cls-1" x="320.95" y="82.86" width="36.38" height="0.7" transform="translate(678.29 166.41) rotate(180)"/><polygon class="cls-1" points="202.83 139.06 261.8 139.06 261.8 139.76 203.52 139.76 203.52 149.88 202.83 149.88 202.83 139.06"/><polygon class="cls-1" points="226.76 160.85 285.74 160.85 285.74 161.55 227.46 161.55 227.46 171.67 226.76 171.67 226.76 160.85"/><polygon class="cls-1" points="70.06 84.92 31.15 84.92 31.15 87.01 67.98 87.01 67.98 118.94 68.34 119.25 98.86 144.98 162.74 144.98 162.74 142.89 99.63 142.89 70.06 117.97 70.06 84.92"/><rect class="cls-1" x="121.82" y="165.3" width="36.84" height="4.41"/><rect class="cls-1" x="144.32" y="142.97" width="36.84" height="4.41"/><polygon class="cls-1" points="95.04 132.17 94.12 133.21 101.85 140.1 113.58 140.1 113.58 138.72 102.38 138.72 95.04 132.17"/><polygon class="cls-1" points="73.52 106.63 72.14 106.72 72.83 117.06 81.21 125.27 82.18 124.28 74.18 116.43 73.52 106.63"/><polygon class="cls-1" points="69.57 125.41 69.11 125.93 96.67 150.23 181.16 150.23 181.16 149.53 96.93 149.53 69.57 125.41"/><path class="cls-1" d="M67.92,125.67a1.42,1.42,0,1,0,1.42-1.42A1.42,1.42,0,0,0,67.92,125.67Z"/><polygon class="cls-1" points="66.35 88.65 39.53 88.65 39.53 89.35 65.66 89.35 65.66 115.65 66.35 115.65 66.35 88.65"/><rect class="cls-1" x="31.15" y="82.86" width="36.38" height="0.7"/><polygon class="cls-1" points="185.66 139.06 126.69 139.06 126.69 139.76 184.96 139.76 184.96 149.88 185.66 149.88 185.66 139.06"/><polygon class="cls-1" points="161.72 160.85 102.75 160.85 102.75 161.55 161.03 161.55 161.03 171.67 161.72 171.67 161.72 160.85"/><polyline class="cls-1" points="65.65 60.83 65.97 60.56 92.39 38.28 147.7 38.28 147.7 40.09 93.06 40.09 67.46 61.66"/><rect class="cls-1" x="131.75" y="36.35" width="31.9" height="3.82"/><polygon class="cls-1" points="70.09 71.82 68.89 71.74 69.48 62.8 76.74 55.68 77.58 56.54 70.66 63.33 70.09 71.82"/><polygon class="cls-1" points="88.48 48.88 87.68 47.98 94.37 42.01 104.53 42.01 104.53 43.21 94.83 43.21 88.48 48.88"/><polygon class="cls-1" points="67.03 55.61 66.63 55.16 90.49 34.12 163.65 34.12 163.65 34.72 90.72 34.72 67.03 55.61"/><path class="cls-1" d="M65.6,55.39a1.23,1.23,0,1,1,1.23,1.23A1.23,1.23,0,0,1,65.6,55.39Z"/><polygon class="cls-1" points="166.3 44.02 115.24 44.02 115.24 43.42 165.7 43.42 165.7 34.65 166.3 34.65 166.3 44.02"/><polyline class="cls-1" points="323.27 60.83 322.95 60.56 296.53 38.28 241.22 38.28 241.22 40.09 295.86 40.09 321.46 61.66"/><rect class="cls-1" x="225.27" y="36.35" width="31.9" height="3.82" transform="translate(482.43 76.52) rotate(180)"/><polygon class="cls-1" points="318.83 71.82 320.03 71.74 319.43 62.8 312.18 55.68 311.33 56.54 318.26 63.33 318.83 71.82"/><polygon class="cls-1" points="300.44 48.88 301.24 47.98 294.55 42.01 284.39 42.01 284.39 43.21 294.09 43.21 300.44 48.88"/><polygon class="cls-1" points="321.89 55.61 322.29 55.16 298.43 34.12 225.26 34.12 225.26 34.72 298.2 34.72 321.89 55.61"/><path class="cls-1" d="M323.32,55.39a1.23,1.23,0,1,0-1.23,1.23A1.23,1.23,0,0,0,323.32,55.39Z"/><line class="cls-1" x1="326.11" y1="79.81" x2="325.5" y2="79.81"/><polygon class="cls-1" points="222.62 44.02 273.68 44.02 273.68 43.42 223.22 43.42 223.22 34.65 222.62 34.65 222.62 44.02"/><polygon class="cls-1" points="327.15 94.66 361.45 94.66 370.77 85.34 388.86 85.34 388.86 95.95 374.63 110.18 343.8 110.18 310.36 143.62 310.36 139.06 330.12 119.3 327.46 116.64 327.15 94.66"/><polygon class="cls-1" points="203.87 165.3 217.63 165.3 221.88 169.55 221.88 175.89 257.17 175.89 261.2 179.93 256.94 184.19 217.63 184.19 208.78 175.33 204.01 175.33 203.87 165.3"/><polygon class="cls-1" points="61.71 94.66 27.41 94.66 18.09 85.34 0 85.34 0 95.95 14.23 110.18 45.06 110.18 78.5 143.62 78.5 139.06 58.74 119.3 61.4 116.64 61.71 94.66"/><polygon class="cls-1" points="184.99 165.3 171.23 165.3 166.98 169.55 166.98 175.89 131.7 175.89 127.66 179.93 131.92 184.19 171.23 184.19 180.09 175.33 184.85 175.33 184.99 165.3"/><polygon class="cls-1" points="94.12 30.36 154.53 30.36 159.1 25.8 164.86 25.8 164.86 18.02 159.9 18.02 155.94 14.06 118.73 14.06 112.64 20.15 101.98 20.15 94.12 30.36"/><polygon class="cls-1" points="292.57 30.36 232.16 30.36 227.59 25.8 221.83 25.8 221.83 18.02 226.79 18.02 230.75 14.06 267.96 14.06 274.05 20.15 284.71 20.15 292.57 30.36"/><polygon class="cls-1" points="197.77 44.02 196.63 44.02 196.63 19.74 216.37 0 382.39 0 407.91 25.52 471.42 25.52 471.42 26.66 407.44 26.66 381.92 1.15 216.84 1.15 197.77 20.22 197.77 44.02"/><rect class="cls-1" x="486.92" y="20.94" width="7.46" height="7.46"/><path class="cls-1" d="M498.69,32.71H482.62V16.63h16.07Zm-14.93-1.15h13.78V17.78H483.76Z"/><rect class="cls-1" x="460.23" y="96.04" width="7.46" height="7.46"/><path class="cls-1" d="M472,107.81H455.92V91.74H472Zm-14.92-1.15h13.78V92.89H457.07Z"/><polygon class="cls-1" points="316.59 193.61 217.28 193.61 210.23 186.56 199.78 186.56 193.89 180.67 193.89 139.06 195.04 139.06 195.04 180.19 200.26 185.41 210.71 185.41 217.75 192.46 316.11 192.46 370.46 138.11 424.69 138.11 453.33 109.47 454.14 110.28 425.16 139.26 370.93 139.26 316.59 193.61"/></g></g></svg>