<svg xmlns="http://www.w3.org/2000/svg" xmlns:xlink="http://www.w3.org/1999/xlink" viewBox="0 0 492.3 469.29"><defs><style>.cls-1{mask:url(#mask);filter:url(#luminosity-noclip-8);}.cls-10,.cls-2,.cls-4,.cls-6,.cls-8{mix-blend-mode:multiply;}.cls-2{fill:url(#Безымянный_градиент_2);}.cls-11,.cls-3{mask:url(#mask-2);}.cls-4{fill:url(#linear-gradient);}.cls-12,.cls-5{mask:url(#mask-3);}.cls-6{fill:url(#linear-gradient-2);}.cls-7{mask:url(#mask-4);filter:url(#luminosity-noclip-9);}.cls-8{fill:url(#linear-gradient-3);}.cls-9{mask:url(#mask-5);filter:url(#luminosity-noclip-10);}.cls-10{fill:url(#linear-gradient-4);}.cls-11{filter:url(#luminosity-noclip-11);}.cls-12{filter:url(#luminosity-noclip-12);}.cls-13{opacity:0.5;}.cls-14,.cls-16,.cls-17,.cls-19,.cls-20,.cls-21,.cls-22{fill:#00d0ff;}.cls-15{mask:url(#mask-8);}.cls-16,.cls-18{opacity:0.55;}.cls-17{opacity:0.68;}.cls-19{opacity:0.8;}.cls-20{opacity:0.6;}.cls-21,.cls-25{opacity:0.4;}.cls-22{opacity:0.1;}.cls-23{mask:url(#mask-9);}.cls-24{mask:url(#mask-10);}.cls-26{mask:url(#mask-11);}.cls-27{mask:url(#mask-12);}.cls-28{filter:url(#luminosity-noclip-5);}.cls-29{filter:url(#luminosity-noclip-4);}.cls-30{filter:url(#luminosity-noclip-3);}.cls-31{filter:url(#luminosity-noclip-2);}.cls-32{filter:url(#luminosity-noclip);}</style><filter id="luminosity-noclip" x="20.61" y="-8426.82" width="453.29" height="32766" filterUnits="userSpaceOnUse" color-interpolation-filters="sRGB"><feFlood flood-color="#fff" result="bg"/><feBlend in="SourceGraphic" in2="bg"/></filter><mask id="mask" x="20.61" y="-8426.82" width="453.29" height="32766" maskUnits="userSpaceOnUse"><g class="cls-32"/></mask><radialGradient id="Безымянный_градиент_2" cx="230.05" cy="332.42" r="256.85" gradientTransform="translate(44.26 -58.95) scale(0.88)" gradientUnits="userSpaceOnUse"><stop offset="0.59" stop-color="#fff"/><stop offset="0.81" stop-color="gray"/><stop offset="0.9" stop-color="#4d4d4d"/><stop offset="1"/></radialGradient><filter id="luminosity-noclip-2" x="268.59" y="-8426.82" width="95.38" height="32766" filterUnits="userSpaceOnUse" color-interpolation-filters="sRGB"><feFlood flood-color="#fff" result="bg"/><feBlend in="SourceGraphic" in2="bg"/></filter><mask id="mask-2" x="268.59" y="-8426.82" width="95.38" height="32766" maskUnits="userSpaceOnUse"><g class="cls-31"/></mask><linearGradient id="linear-gradient" x1="332.12" y1="149.09" x2="269.18" y2="212.03" gradientUnits="userSpaceOnUse"><stop offset="0" stop-color="#fff"/><stop offset="0.03" stop-color="#ededed"/><stop offset="0.14" stop-color="#b6b6b6"/><stop offset="0.26" stop-color="#868686"/><stop offset="0.37" stop-color="#5d5d5d"/><stop offset="0.49" stop-color="#3b3b3b"/><stop offset="0.61" stop-color="#212121"/><stop offset="0.73" stop-color="#0f0f0f"/><stop offset="0.86" stop-color="#040404"/><stop offset="1"/></linearGradient><filter id="luminosity-noclip-3" x="131.07" y="-8426.82" width="95.38" height="32766" filterUnits="userSpaceOnUse" color-interpolation-filters="sRGB"><feFlood flood-color="#fff" result="bg"/><feBlend in="SourceGraphic" in2="bg"/></filter><mask id="mask-3" x="131.07" y="-8426.82" width="95.38" height="32766" maskUnits="userSpaceOnUse"><g class="cls-30"/></mask><linearGradient id="linear-gradient-2" x1="-854.99" y1="-843.08" x2="-917.93" y2="-780.14" gradientTransform="translate(-692.07 -524.79) rotate(180)" xlink:href="#linear-gradient"/><filter id="luminosity-noclip-4" x="262.13" y="-8426.82" width="66.15" height="32766" filterUnits="userSpaceOnUse" color-interpolation-filters="sRGB"><feFlood flood-color="#fff" result="bg"/><feBlend in="SourceGraphic" in2="bg"/></filter><mask id="mask-4" x="262.13" y="-8426.82" width="66.15" height="32766" maskUnits="userSpaceOnUse"><g class="cls-29"/></mask><linearGradient id="linear-gradient-3" x1="306.19" y1="175.02" x2="262.54" y2="218.66" xlink:href="#linear-gradient"/><filter id="luminosity-noclip-5" x="166.76" y="-8426.82" width="66.15" height="32766" filterUnits="userSpaceOnUse" color-interpolation-filters="sRGB"><feFlood flood-color="#fff" result="bg"/><feBlend in="SourceGraphic" in2="bg"/></filter><mask id="mask-5" x="166.76" y="-8426.82" width="66.15" height="32766" maskUnits="userSpaceOnUse"><g class="cls-28"/></mask><linearGradient id="linear-gradient-4" x1="-880.92" y1="-817.15" x2="-924.57" y2="-773.5" gradientTransform="translate(-692.07 -524.79) rotate(180)" xlink:href="#linear-gradient"/><filter id="luminosity-noclip-8" x="20.61" y="7.74" width="453.29" height="453.29" filterUnits="userSpaceOnUse" color-interpolation-filters="sRGB"><feFlood flood-color="#fff" result="bg"/><feBlend in="SourceGraphic" in2="bg"/></filter><mask id="mask-8" x="20.61" y="7.74" width="453.29" height="453.29" maskUnits="userSpaceOnUse"><g class="cls-1"><path class="cls-2" d="M473.9,234.38A226.64,226.64,0,0,0,247.26,7.74v52A174.67,174.67,0,0,1,421.93,234.38ZM247.26,409.05A174.67,174.67,0,0,1,72.58,234.38h-52A226.64,226.64,0,0,0,247.26,461Z"/></g></mask><filter id="luminosity-noclip-9" x="262.13" y="153.74" width="66.15" height="64.51" filterUnits="userSpaceOnUse" color-interpolation-filters="sRGB"><feFlood flood-color="#fff" result="bg"/><feBlend in="SourceGraphic" in2="bg"/></filter><mask id="mask-9" x="262.13" y="153.74" width="66.15" height="64.51" maskUnits="userSpaceOnUse"><g class="cls-7"><path class="cls-8" d="M328.28,218.25a76.5,76.5,0,0,0-66.15-64.51v64.51Z"/></g></mask><filter id="luminosity-noclip-10" x="166.76" y="249.12" width="66.15" height="64.51" filterUnits="userSpaceOnUse" color-interpolation-filters="sRGB"><feFlood flood-color="#fff" result="bg"/><feBlend in="SourceGraphic" in2="bg"/></filter><mask id="mask-10" x="166.76" y="249.12" width="66.15" height="64.51" maskUnits="userSpaceOnUse"><g class="cls-9"><path class="cls-10" d="M166.76,249.12a76.49,76.49,0,0,0,66.15,64.51V249.12Z"/></g></mask><filter id="luminosity-noclip-11" x="268.59" y="118.42" width="95.38" height="93.01" filterUnits="userSpaceOnUse" color-interpolation-filters="sRGB"><feFlood flood-color="#fff" result="bg"/><feBlend in="SourceGraphic" in2="bg"/></filter><mask id="mask-11" x="268.59" y="118.42" width="95.38" height="93.01" maskUnits="userSpaceOnUse"><g class="cls-11"><path class="cls-4" d="M364,211.43a110.3,110.3,0,0,0-95.38-93v93Z"/></g></mask><filter id="luminosity-noclip-12" x="131.07" y="255.94" width="95.38" height="93.01" filterUnits="userSpaceOnUse" color-interpolation-filters="sRGB"><feFlood flood-color="#fff" result="bg"/><feBlend in="SourceGraphic" in2="bg"/></filter><mask id="mask-12" x="131.07" y="255.94" width="95.38" height="93.01" maskUnits="userSpaceOnUse"><g class="cls-12"><path class="cls-6" d="M131.07,255.94a110.3,110.3,0,0,0,95.38,93v-93Z"/></g></mask></defs><title>header_circle_blue</title><g id="Layer_2" data-name="Layer 2"><g id="Layer_1-2" data-name="Layer 1"><g class="cls-13"><path class="cls-14" d="M247.26,443.16c-115.12,0-208.78-93.66-208.78-208.78S132.14,25.6,247.26,25.6,456,119.26,456,234.38,362.38,443.16,247.26,443.16Zm0-411.67c-111.88,0-202.9,91-202.9,202.89s91,202.89,202.9,202.89,202.89-91,202.89-202.89S359.13,31.49,247.26,31.49Z"/></g><g class="cls-13"><g class="cls-15"><path class="cls-14" d="M473.9,234.38A226.64,226.64,0,0,0,247.26,7.74v52A174.67,174.67,0,0,1,421.93,234.38ZM247.26,409.05A174.67,174.67,0,0,1,72.58,234.38h-52A226.64,226.64,0,0,0,247.26,461Z"/></g></g><path class="cls-14" d="M247.26,320.12A85.74,85.74,0,1,1,333,234.38,85.84,85.84,0,0,1,247.26,320.12Zm0-169.28a83.54,83.54,0,1,0,83.53,83.54A83.63,83.63,0,0,0,247.26,150.84Z"/><path class="cls-14" d="M247.26,257a22.64,22.64,0,1,1,22.63-22.64A22.66,22.66,0,0,1,247.26,257Zm0-43.07a20.43,20.43,0,1,0,20.43,20.43A20.46,20.46,0,0,0,247.26,214Z"/><rect class="cls-14" x="267.69" y="234.38" width="2.21" height="81.4"/><rect class="cls-14" x="224.62" y="152.51" width="2.21" height="81.87"/><rect class="cls-14" x="247.26" y="211.74" width="81.87" height="2.21"/><rect class="cls-14" x="165.38" y="254.81" width="81.87" height="2.21"/><rect class="cls-14" x="192.84" y="277.21" width="81.4" height="2.21" transform="translate(-128.4 246.65) rotate(-45)"/><rect class="cls-14" x="219.87" y="189.03" width="81.87" height="2.21" transform="translate(-58.06 240.11) rotate(-45)"/><rect class="cls-14" x="290.16" y="207.09" width="2.21" height="81.87" transform="translate(-90.07 278.6) rotate(-45)"/><rect class="cls-14" x="201.81" y="179.66" width="2.21" height="81.87" transform="translate(-96.55 208.09) rotate(-45)"/><path class="cls-14" d="M259.75,447.63A213.53,213.53,0,0,0,441.9,319.81l2.2,1A216,216,0,0,1,259.9,450Z"/><path class="cls-14" d="M368.55,409.56c-.17,6.51-.79,12.86-1.56,19.47a234.12,234.12,0,0,1-30.68,16,245.63,245.63,0,0,1-32.76,11.2c-1.22,2.64-2.51,5.26-3.84,7.9a233.33,233.33,0,0,1-31.39,5.12c.83-1.2,1.64-2.36,2.44-3.6,4.16-.56,8.34-1,12.47-1.67s8.29-1.36,12.37-2.35c1.38-2.7,2.69-5.39,4-8.07A222.64,222.64,0,0,0,332,443.06a235.7,235.7,0,0,0,30.45-15.33c.65-5,1.11-10.07,1.45-15C365.49,411.78,367,410.65,368.55,409.56Z"/><path class="cls-16" d="M359.83,420.52c-.22,2.33-.55,4.56-.87,6.87l-6.14,3.53c.38-2.3.72-4.58,1-6.84C355.85,422.89,357.88,421.76,359.83,420.52Z"/><path class="cls-16" d="M350.2,426.1c-.37,2.27-.8,4.52-1.24,6.81l-6.31,3.21c.51-2.25,1-4.53,1.39-6.78Z"/><path class="cls-16" d="M340.28,431.18q-.75,3.35-1.59,6.73c-2.15,1-4.28,2-6.47,2.87.64-2.17,1.19-4.47,1.74-6.68Z"/><path class="cls-16" d="M330.11,435.73q-.92,3.3-1.93,6.65c-2.2.84-4.37,1.79-6.61,2.53.75-2.13,1.43-4.38,2.09-6.57Z"/><path class="cls-16" d="M319.72,439.75c-.72,2.17-1.48,4.36-2.26,6.55-2.25.73-4.46,1.58-6.74,2.18.86-2.1,1.66-4.26,2.43-6.44Z"/><path class="cls-16" d="M309.13,443.23c-.83,2.14-1.69,4.28-2.59,6.44-2.27.63-4.53,1.33-6.84,1.82,1-2.06,1.89-4.15,2.76-6.3Z"/><path class="cls-14" d="M421.19,358.83l-1.3-4.07a211.14,211.14,0,0,0,24.11-46l3.07,5c-1.11,2.87-2.24,5.74-3.56,8.52s-2.46,5.65-3.92,8.36A207.17,207.17,0,0,1,421.19,358.83Z"/><path class="cls-14" d="M249.13,447.48q4,5.13,8.44,10.26a231.52,231.52,0,0,0,37.79-5.21l.34,1.53a231.13,231.13,0,0,1-38.57,5.26q-4.62-5.34-8.82-10.71Z"/><path class="cls-14" d="M259.43,442.65a205.79,205.79,0,0,0,75.82-19.51,209.09,209.09,0,0,0,63.2-46.22L399.6,378a210.7,210.7,0,0,1-63.68,46.56,207.05,207.05,0,0,1-76.39,19.66Z"/><path class="cls-14" d="M366.94,420.25a223.79,223.79,0,0,0,30.59-24c-.24-2.69-.52-5.34-.83-8a216.83,216.83,0,0,1-30.64,25Q366.54,416.75,366.94,420.25Z"/><path class="cls-14" d="M252,448c.06,2.12-1.21,3.87-2.85,3.91s-2.95-1.64-2.95-3.76,1.28-3.87,2.85-3.91S251.89,445.85,252,448Z"/><path class="cls-14" d="M259.75,21.65A213.57,213.57,0,0,1,441.9,149.48l2.2-1A216,216,0,0,0,259.9,19.26Z"/><path class="cls-14" d="M368.55,59.72c-.17-6.51-.79-12.85-1.56-19.46a234.12,234.12,0,0,0-30.68-16A245.68,245.68,0,0,0,303.55,13c-1.22-2.63-2.51-5.25-3.84-7.89A231.75,231.75,0,0,0,268.32,0c.83,1.19,1.64,2.35,2.44,3.6,4.16.56,8.34,1,12.47,1.67s8.29,1.35,12.37,2.35c1.38,2.7,2.69,5.39,4,8.07A222.64,222.64,0,0,1,332,26.23a234.44,234.44,0,0,1,30.45,15.33c.65,5,1.11,10.06,1.45,15C365.49,57.51,367,58.64,368.55,59.72Z"/><path class="cls-16" d="M359.83,48.77c-.22-2.33-.55-4.56-.87-6.88l-6.14-3.52c.38,2.3.72,4.58,1,6.84C355.85,46.4,357.88,47.53,359.83,48.77Z"/><path class="cls-16" d="M350.2,43.18c-.37-2.26-.8-4.52-1.24-6.8l-6.31-3.21c.51,2.24,1,4.53,1.39,6.77Z"/><path class="cls-16" d="M340.28,38.11q-.75-3.34-1.59-6.73c-2.15-1-4.28-2-6.47-2.88.64,2.18,1.19,4.47,1.74,6.68Z"/><path class="cls-16" d="M330.11,33.56q-.92-3.3-1.93-6.65c-2.2-.84-4.37-1.8-6.61-2.53.75,2.13,1.43,4.37,2.09,6.57Z"/><path class="cls-16" d="M319.72,29.54c-.72-2.17-1.48-4.36-2.26-6.55-2.25-.73-4.46-1.59-6.74-2.18.86,2.09,1.66,4.26,2.43,6.44Z"/><path class="cls-16" d="M309.13,26.06q-1.25-3.21-2.59-6.44c-2.27-.63-4.53-1.34-6.84-1.82,1,2.06,1.89,4.14,2.76,6.29Z"/><path class="cls-14" d="M421.19,110.46l-1.3,4.07a211.14,211.14,0,0,1,24.11,46l3.07-5c-1.11-2.87-2.24-5.73-3.56-8.51s-2.46-5.65-3.92-8.36A206.56,206.56,0,0,0,421.19,110.46Z"/><path class="cls-14" d="M249.13,21.81q4-5.14,8.44-10.26a230.44,230.44,0,0,1,37.79,5.21l.34-1.53A231.13,231.13,0,0,0,257.13,10q-4.62,5.34-8.82,10.71Z"/><path class="cls-14" d="M259.43,26.64a205.6,205.6,0,0,1,75.82,19.51,209.22,209.22,0,0,1,63.2,46.21l1.15-1.07a210.87,210.87,0,0,0-63.68-46.56,207.24,207.24,0,0,0-76.39-19.65Z"/><path class="cls-14" d="M366.94,49a223.72,223.72,0,0,1,30.59,24q-.36,4-.83,8a216.76,216.76,0,0,0-30.64-25Q366.54,52.55,366.94,49Z"/><path class="cls-14" d="M252,21.32c.06-2.11-1.21-3.86-2.85-3.9s-2.95,1.64-2.95,3.76,1.28,3.86,2.85,3.9S251.89,23.44,252,21.32Z"/><path class="cls-14" d="M483.33,246.18q-7.27-3.93-14.56-7.42c.21-4.48-.06-9-.14-13.44,4.91-2.44,9.58-5,14.32-7.75l.09-.45-.13-.06c-4.92,2.84-9.72,5.52-14.8,8.05.08,4.62.35,9.25.13,13.88q7.49,3.58,14.95,7.63l.12.07Z"/><path class="cls-14" d="M483.21,221.11c-2.7,1.53-5.53,3-8.31,4.45l-.16-.2c2.85-1.46,5.7-3,8.45-4.54Z"/><path class="cls-14" d="M483.41,243.29q-4.28-2.25-8.54-4.36l.15-.2q4.2,2.06,8.39,4.27Z"/><path class="cls-14" d="M488.1,234l-.1-4.44-4.55-2.09L479,229.78l.1,4.28c1.53.71,3,1.44,4.47,2.17C485.09,235.52,486.64,234.78,488.1,234Z"/><path class="cls-14" d="M467.66,250c.14-2,.34-4,.35-6,4.81,2.41,9.39,5,14,7.65l-.49,6.35Q474.63,253.8,467.66,250Z"/><path class="cls-14" d="M467,258.26c.24-2,.33-4,.5-6,4.61,2.59,9.35,5.32,13.81,8.18l-.8,6.32Q473.77,262.32,467,258.26Z"/><path class="cls-14" d="M465.94,266.49l.75-5.93q6.78,4.13,13.49,8.68c-.24,2.11-.7,4.19-1.05,6.29C474.77,272.38,470.48,269.38,465.94,266.49Z"/><path class="cls-14" d="M464.58,274.67l1.05-5.89q6.57,4.38,13.07,9.18c-.39,2.08-.7,4.19-1.22,6.25C473.34,280.91,468.91,277.71,464.58,274.67Z"/><path class="cls-17" d="M463,282.8c.45-1.94.9-3.88,1.22-5.85,4.39,3.1,8.58,6.31,12.76,9.66l-1.44,6.22Q469.28,287.59,463,282.8Z"/><path class="cls-17" d="M461,290.88c.52-1.93.92-3.88,1.39-5.82,4.17,3.24,8.44,6.65,12.43,10.15l-1.74,6.13Q467.15,295.91,461,290.88Z"/><path class="cls-17" d="M458.78,298.86l1.63-5.76q6.07,5.1,12,10.62c-.57,2-1.32,4-2,6.06C466.62,306,462.84,302.4,458.78,298.86Z"/><path class="cls-17" d="M456.35,306.33l1.91-5.67q5.87,5.29,11.57,11c-.7,2-1.31,4-2.13,6C464.09,313.8,460.18,310,456.35,306.33Z"/><path class="cls-14" d="M467.31,214.68l.45,6q7-3.77,13.92-8c-.13-2.12-.43-4.22-.69-6.33C476.5,209.28,472,212,467.31,214.68Z"/><path class="cls-14" d="M466.4,206.44c.24,2,.52,4,.73,5.94,4.57-2.68,9.05-5.49,13.55-8.45-.29-2.11-.5-4.22-.86-6.32C475.45,200.69,470.89,203.64,466.4,206.44Z"/><path class="cls-14" d="M465.22,198.23c.39,2,.65,3.94.89,5.92q3.38-2.15,6.73-4.39t6.55-4.57l-1.13-6.28Q471.79,193.79,465.22,198.23Z"/><path class="cls-14" d="M463.76,190.07l1.06,5.89c4.35-3,8.72-6.18,13-9.47l-1.42-6.21C472.2,183.68,468,186.94,463.76,190.07Z"/><path class="cls-14" d="M461.91,182l1.34,5.83q6.33-4.76,12.57-9.94c-.44-2.08-1.05-4.11-1.63-6.16C470.2,175.26,466.14,178.67,461.91,182Z"/><path class="cls-14" d="M459.78,174c.53,1.92,1.12,3.83,1.6,5.77,4.14-3.34,8.13-6.79,12.14-10.39-.6-2-1.12-4.11-1.8-6.12C467.87,166.91,463.8,170.52,459.78,174Z"/><path class="cls-14" d="M457.38,166c.68,1.88,1.24,3.79,1.77,5.72q3-2.62,6-5.35t5.78-5.51l-2-6Q463.21,160.64,457.38,166Z"/><path class="cls-14" d="M454.77,158.3l1.92,5.67c3.86-3.63,7.72-7.41,11.43-11.3l-2.34-5.93Q460.37,152.72,454.77,158.3Z"/><path class="cls-14" d="M464.29,316.13l.39-.24,4.23,4.95a238.06,238.06,0,0,0,15.45-69.35l.52,0a230.31,230.31,0,0,1-5.22,35.71,226.45,226.45,0,0,1-10.56,34.54C467.51,319.87,465.9,318,464.29,316.13Z"/><polygon class="cls-14" points="483.1 266.46 484.04 259 484.62 251.51 486.22 251.62 485.64 259.17 484.69 266.68 483.1 266.46"/><path class="cls-14" d="M462.2,147.85c1.59-1.9,3.17-3.84,4.74-5.8a250.66,250.66,0,0,1,11.5,34.71,241.92,241.92,0,0,1,6.06,36l-.52,0a238.24,238.24,0,0,0-6-35.56A242.67,242.67,0,0,0,466.76,143l-4.17,5.07Z"/><path class="cls-14" d="M482.45,197.89l1,7.46c.31,2.49.67,5,.82,7.47l1.6-.15c-.15-2.51-.52-5-.82-7.52l-1-7.5Z"/><path class="cls-14" d="M489,211.19c0-.08-.08-1.34-.37-3.48s-.66-5.17-1.12-8.79-1.33-7.77-2.11-12.23-2-9.14-3.18-13.82a252,252,0,0,0-8.11-25.2c-1.32-3.36-2.43-6.15-3.2-8.11l-1.36-3q-5.49-1.67-10.9-3.1c-1.58-3.29-3.3-6.51-4.95-9.77q7.37,1.57,14.94,3.59a249.15,249.15,0,0,1,23.15,81.49C490.89,209.58,489.92,210.39,489,211.19Z"/><path class="cls-14" d="M464.68,128.05,460,118.84l-5.21-9.09c-2-3.3-4.23-6.69-6.42-10.13s-4.68-6.66-6.89-9.78S436.9,84,435,81.61s-3.61-4.26-4.75-5.63-1.83-2.11-1.83-2.11l-4,.06a261.29,261.29,0,0,1,20.69,26.4,259.79,259.79,0,0,1,16.79,29.07Z"/><path class="cls-14" d="M449.79,136.65a227.63,227.63,0,0,0-40.58-58.32l.36-.34a227.81,227.81,0,0,1,40.59,58.3c4.06,1,8.14,2,12.27,3.23l-.2.4Q455.95,138.12,449.79,136.65Z"/><path class="cls-14" d="M438,114.83l-4.23-.45a213.06,213.06,0,0,0-20.38-27l4.21-.18A217.66,217.66,0,0,1,438,114.83Z"/><path class="cls-14" d="M461.11,142.77q-6.58-1.52-13-2.68l2.93,6.48c1,2.15,1.77,4.39,2.67,6.59C456.2,149.79,458.75,146.3,461.11,142.77Z"/><path class="cls-14" d="M489.47,251.85c0,.08-.11,1.34-.27,3.5-.09,1.07-.19,2.37-.3,3.85l-.6,4.95c-.47,3.61-.93,7.83-1.81,12.28l-1.23,6.87c-.48,2.32-1.05,4.67-1.59,7a235.37,235.37,0,0,1-7.4,25.42c-1.1,3.43-2.32,6.19-3.06,8.15L472,327c-3.55,1.24-7.24,2.34-10.87,3.35-1.5,3.33-3,6.68-4.69,9.9,5-1.12,9.89-2.47,14.82-4a241.34,241.34,0,0,0,21-82Z"/><path class="cls-14" d="M467.31,335.57s-.45,1-1.2,2.64-1.91,3.94-3.3,6.68-3,5.95-5,9.24S454,361,451.7,364.41s-4.38,6.88-6.65,9.95-4.24,6-6.17,8.41l-4.56,5.79c-1.1,1.4-1.79,2.14-1.79,2.14h-4l2.75-3.18,2.6-3.29c1.72-2.21,3.49-4.38,5.15-6.62,3.25-4.56,6.56-9.08,9.5-13.85,3.11-4.65,5.78-9.58,8.59-14.42,2.54-5,5.25-9.9,7.46-15.05Z"/><path class="cls-14" d="M413.21,386.76a226.94,226.94,0,0,0,39-59.41c4.13-1.07,8.36-2.21,12.42-3.57l.22.41c-4,1.33-8.19,2.46-12.25,3.51a227.44,227.44,0,0,1-39,59.39Z"/><path class="cls-14" d="M441,349.49l-4.16.59a240.44,240.44,0,0,1-19.72,27.51c1.41.05,2.84.09,4.23.08A231.64,231.64,0,0,0,441,349.49Z"/><path class="cls-14" d="M463.36,321c-4.31,1.14-8.54,2.18-12.91,3,1-2.15,1.87-4.36,2.73-6.56s1.77-4.41,2.58-6.63C458.38,314.09,460.87,317.46,463.36,321Z"/><g class="cls-18"><path class="cls-14" d="M416.13,341a199.54,199.54,0,0,0,14.06-26.67,208.06,208.06,0,0,0,9.88-28.48,213.16,213.16,0,0,0,5.45-29.66,210.91,210.91,0,0,0,1-30.16,199.73,199.73,0,0,0-40.05-112c1.31-1,3.69.08,5.33,2.39a203.49,203.49,0,0,1,9.53,221.72C419.92,340.7,417.47,341.86,416.13,341Z"/><path class="cls-14" d="M441.68,229.17a194.43,194.43,0,0,1-16.58,84.62l-.91-.4c-1.7-.76-2.66-2.31-2.14-3.46a190.63,190.63,0,0,0,15.32-78.34c0-1.26,1.45-2.33,3.32-2.39Z"/><path class="cls-14" d="M413.39,133a196.83,196.83,0,0,1,27.43,81.73l-1,.1c-1.85.18-3.5-.69-3.66-1.94a190.81,190.81,0,0,0-25.38-75.63c-.63-1.09.17-2.78,1.74-3.74Z"/><path class="cls-14" d="M429.21,200.3l.72-.14c1.06,5.3,1.7,10.67,2.32,16l5,2.81c.15,2.1.35,4.2.46,6.3l-4.66,3.38.15,6.25-.17,6.25-.73,0,.16-6.32-.15-6.33,4.66-3.37-.44-5.87-5-2.79C430.92,211.05,430.27,205.64,429.21,200.3Z"/><polygon class="cls-14" points="424.42 220.55 432.24 219.94 432.64 225.12 424.8 225.51 424.42 220.55"/></g><path class="cls-14" d="M232.56,21.65A213.6,213.6,0,0,0,50.4,149.48l-2.2-1A216,216,0,0,1,232.41,19.26Z"/><path class="cls-14" d="M123.75,59.72c.17-6.51.79-12.85,1.57-19.46a234.63,234.63,0,0,1,30.67-16A245.68,245.68,0,0,1,188.75,13c1.22-2.63,2.51-5.25,3.84-7.89A231.64,231.64,0,0,1,224,0c-.83,1.19-1.65,2.35-2.44,3.6-4.16.56-8.34,1-12.48,1.67s-8.29,1.35-12.37,2.35q-2.05,4.05-3.95,8.07a222.37,222.37,0,0,0-32.43,10.54,234.44,234.44,0,0,0-30.45,15.33c-.65,5-1.1,10.06-1.44,15C126.81,57.51,125.3,58.64,123.75,59.72Z"/><path class="cls-16" d="M132.47,48.77c.23-2.33.56-4.56.88-6.88l6.14-3.52q-.57,3.45-1,6.84C136.46,46.4,134.43,47.53,132.47,48.77Z"/><path class="cls-16" d="M142.11,43.18c.37-2.26.79-4.52,1.23-6.8l6.32-3.21c-.51,2.24-1,4.53-1.39,6.77Z"/><path class="cls-16" d="M152,38.11q.74-3.34,1.58-6.73c2.16-1,4.29-2,6.47-2.88-.64,2.18-1.19,4.47-1.74,6.68Z"/><path class="cls-16" d="M162.2,33.56q.92-3.3,1.92-6.65c2.21-.84,4.37-1.8,6.62-2.53-.76,2.13-1.44,4.37-2.09,6.57Z"/><path class="cls-16" d="M172.59,29.54c.72-2.17,1.47-4.36,2.26-6.55,2.24-.73,4.45-1.59,6.74-2.18-.86,2.09-1.67,4.26-2.43,6.44Z"/><path class="cls-16" d="M183.17,26.06c.83-2.14,1.7-4.29,2.59-6.44,2.28-.63,4.53-1.34,6.85-1.82-1,2.06-1.89,4.14-2.76,6.29Z"/><path class="cls-14" d="M71.11,110.46l1.3,4.07a211.54,211.54,0,0,0-24.1,46l-3.08-5c1.12-2.87,2.25-5.73,3.57-8.51s2.45-5.65,3.92-8.36A205.56,205.56,0,0,1,71.11,110.46Z"/><path class="cls-14" d="M243.17,21.81q-4-5.14-8.43-10.26A230.29,230.29,0,0,0,197,16.76l-.35-1.53A231.39,231.39,0,0,1,235.18,10q4.62,5.34,8.81,10.71Z"/><path class="cls-14" d="M232.87,26.64a205.6,205.6,0,0,0-75.81,19.51A209.39,209.39,0,0,0,93.85,92.36l-1.14-1.07a210.87,210.87,0,0,1,63.68-46.56,207.19,207.19,0,0,1,76.38-19.65Z"/><path class="cls-14" d="M125.36,49A224.33,224.33,0,0,0,94.77,73q.38,4,.84,8a216.2,216.2,0,0,1,30.64-25Q125.77,52.55,125.36,49Z"/><path class="cls-14" d="M240.35,21.32c-.06-2.11,1.22-3.86,2.85-3.9s3,1.64,3,3.76-1.28,3.86-2.85,3.9S240.41,23.44,240.35,21.32Z"/><path class="cls-14" d="M232.56,447.63A213.56,213.56,0,0,1,50.4,319.81l-2.2,1A216,216,0,0,0,232.41,450Z"/><path class="cls-14" d="M123.75,409.56c.17,6.51.79,12.86,1.57,19.47a234.63,234.63,0,0,0,30.67,16,245.63,245.63,0,0,0,32.76,11.2c1.22,2.64,2.51,5.26,3.84,7.9a233.22,233.22,0,0,0,31.4,5.12c-.83-1.2-1.65-2.36-2.44-3.6-4.16-.56-8.34-1-12.48-1.67s-8.29-1.36-12.37-2.35q-2.05-4.05-3.95-8.07a222.37,222.37,0,0,1-32.43-10.54,235.7,235.7,0,0,1-30.45-15.33c-.65-5-1.1-10.07-1.44-15C126.81,411.78,125.3,410.65,123.75,409.56Z"/><path class="cls-16" d="M132.47,420.52c.23,2.33.56,4.56.88,6.87l6.14,3.53q-.57-3.45-1-6.84C136.46,422.89,134.43,421.76,132.47,420.52Z"/><path class="cls-16" d="M142.11,426.1c.37,2.27.79,4.52,1.23,6.81l6.32,3.21c-.51-2.25-1-4.53-1.39-6.78Z"/><path class="cls-16" d="M152,431.18q.74,3.35,1.58,6.73c2.16,1,4.29,2,6.47,2.87-.64-2.17-1.19-4.47-1.74-6.68Z"/><path class="cls-16" d="M162.2,435.73q.92,3.3,1.92,6.65c2.21.84,4.37,1.79,6.62,2.53-.76-2.13-1.44-4.38-2.09-6.57Z"/><path class="cls-16" d="M172.59,439.75c.72,2.17,1.47,4.36,2.26,6.55,2.24.73,4.45,1.58,6.74,2.18-.86-2.1-1.67-4.26-2.43-6.44Z"/><path class="cls-16" d="M183.17,443.23c.83,2.14,1.7,4.28,2.59,6.44,2.28.63,4.53,1.33,6.85,1.82-1-2.06-1.89-4.15-2.76-6.3Z"/><path class="cls-14" d="M71.11,358.83l1.3-4.07a211.54,211.54,0,0,1-24.1-46l-3.08,5c1.12,2.87,2.25,5.74,3.57,8.52s2.45,5.65,3.92,8.36A206.17,206.17,0,0,0,71.11,358.83Z"/><path class="cls-14" d="M243.17,447.48q-4,5.13-8.43,10.26A231.37,231.37,0,0,1,197,452.53l-.35,1.53a231.39,231.39,0,0,0,38.58,5.26Q239.8,454,244,448.61Z"/><path class="cls-14" d="M232.87,442.65a205.79,205.79,0,0,1-75.81-19.51,209.25,209.25,0,0,1-63.21-46.22L92.71,378a210.7,210.7,0,0,0,63.68,46.56,207,207,0,0,0,76.38,19.66Z"/><path class="cls-14" d="M125.36,420.25a224.4,224.4,0,0,1-30.59-24c.25-2.69.53-5.34.84-8a216.27,216.27,0,0,0,30.64,25Q125.77,416.75,125.36,420.25Z"/><path class="cls-14" d="M240.35,448c-.06,2.12,1.22,3.87,2.85,3.91s3-1.64,3-3.76-1.28-3.87-2.85-3.91S240.41,445.85,240.35,448Z"/><path class="cls-14" d="M9,223.1q7.26,3.94,14.56,7.43c-.21,4.48.06,9,.13,13.43-4.9,2.45-9.57,5-14.31,7.76l-.1.45.14.05c4.92-2.84,9.72-5.51,14.8-8-.08-4.63-.35-9.25-.13-13.88q-7.49-3.59-14.95-7.63L9,222.6Z"/><path class="cls-14" d="M9.09,248.18c2.7-1.53,5.53-3,8.32-4.45l.15.2c-2.84,1.46-5.7,3-8.45,4.53Z"/><path class="cls-14" d="M8.9,226q4.26,2.25,8.53,4.35l-.15.21q-4.2-2.07-8.39-4.27Z"/><path class="cls-14" d="M4.2,235.25l.11,4.44,4.55,2.09,4.44-2.28-.1-4.28c-1.54-.71-3-1.43-4.48-2.17C7.22,233.77,5.67,234.5,4.2,235.25Z"/><path class="cls-14" d="M24.65,219.29c-.14,2-.34,4-.35,6-4.82-2.42-9.39-5-14-7.66l.49-6.34Q17.67,215.49,24.65,219.29Z"/><path class="cls-14" d="M25.32,211c-.24,2-.33,4-.5,5.95-4.61-2.58-9.35-5.32-13.81-8.17l.8-6.32Q18.53,207,25.32,211Z"/><path class="cls-14" d="M26.37,202.8l-.76,5.93q-6.76-4.12-13.49-8.69c.25-2.11.71-4.19,1.05-6.28C17.53,196.91,21.82,199.91,26.37,202.8Z"/><path class="cls-14" d="M27.73,194.62l-1.05,5.89q-6.57-4.38-13.08-9.18c.4-2.09.71-4.19,1.23-6.25C19,188.37,23.4,191.58,27.73,194.62Z"/><path class="cls-17" d="M29.36,186.48c-.46,1.94-.91,3.89-1.22,5.86-4.4-3.1-8.58-6.31-12.76-9.67l1.44-6.21Q23,181.68,29.36,186.48Z"/><path class="cls-17" d="M31.26,178.41c-.52,1.92-.92,3.88-1.38,5.82-4.18-3.24-8.44-6.66-12.44-10.15l1.74-6.14Q25.17,173.39,31.26,178.41Z"/><path class="cls-17" d="M33.53,170.43l-1.64,5.75q-6.08-5.1-12-10.61c.56-2,1.32-4,2-6.06C25.68,163.29,29.47,166.89,33.53,170.43Z"/><path class="cls-17" d="M36,163,34,168.62q-5.85-5.3-11.56-11c.7-2,1.31-4.05,2.13-6C28.22,155.48,32.13,159.31,36,163Z"/><path class="cls-14" d="M25,254.6l-.46-6q-7,3.77-13.91,7.95c.12,2.12.43,4.22.69,6.33C15.8,260,20.32,257.24,25,254.6Z"/><path class="cls-14" d="M25.9,262.85c-.24-2-.52-4-.72-5.94-4.57,2.68-9,5.49-13.55,8.45.29,2.11.49,4.22.86,6.31C16.86,268.6,21.42,265.65,25.9,262.85Z"/><path class="cls-14" d="M27.08,271.05c-.38-1.95-.65-3.93-.88-5.91q-3.37,2.14-6.74,4.39t-6.54,4.57L14,280.38Q20.52,275.51,27.08,271.05Z"/><path class="cls-14" d="M28.54,279.22l-1.05-5.89c-4.36,3-8.73,6.18-13,9.47L15.93,289C20.1,285.61,24.29,282.35,28.54,279.22Z"/><path class="cls-14" d="M30.4,287.31l-1.35-5.83q-6.33,4.75-12.56,9.93c.44,2.08,1,4.12,1.62,6.17C22.1,294,26.17,290.62,30.4,287.31Z"/><path class="cls-14" d="M32.52,295.33c-.53-1.93-1.11-3.83-1.6-5.77-4.13,3.34-8.13,6.79-12.14,10.39.61,2,1.12,4.1,1.8,6.12C24.44,302.37,28.51,298.76,32.52,295.33Z"/><path class="cls-14" d="M34.92,303.27c-.67-1.88-1.24-3.79-1.76-5.72-2,1.75-4,3.53-6,5.35s-3.87,3.63-5.79,5.5l2.05,6Q29.09,308.65,34.92,303.27Z"/><path class="cls-14" d="M37.53,311l-1.92-5.66c-3.85,3.63-7.71,7.41-11.42,11.29l2.33,5.94Q32,316.57,37.53,311Z"/><path class="cls-14" d="M28,153.16l-.4.23-4.23-4.94A237.46,237.46,0,0,0,8,217.79l-.52,0A230.6,230.6,0,0,1,12.64,182,227.61,227.61,0,0,1,23.21,147.5C24.8,149.42,26.4,151.3,28,153.16Z"/><polygon class="cls-14" points="9.2 202.82 8.27 210.28 7.69 217.78 6.09 217.66 6.67 210.12 7.61 202.61 9.2 202.82"/><path class="cls-14" d="M30.11,321.44q-2.4,2.85-4.75,5.8a249.73,249.73,0,0,1-11.49-34.71,241.92,241.92,0,0,1-6.06-36l.52-.05A238.35,238.35,0,0,0,14.28,292a244.39,244.39,0,0,0,11.26,34.27l4.17-5.07Z"/><path class="cls-14" d="M9.86,271.39l-1-7.45c-.3-2.49-.67-5-.81-7.47l-1.6.14c.15,2.52.51,5,.82,7.52l1,7.51Z"/><path class="cls-14" d="M3.32,258.09c0,.08.07,1.35.37,3.49s.65,5.17,1.11,8.79,1.34,7.77,2.12,12.23,2,9.14,3.17,13.82a255.45,255.45,0,0,0,8.11,25.2c1.33,3.36,2.43,6.15,3.21,8.1l1.35,3q5.5,1.67,10.91,3.09c1.58,3.29,3.3,6.52,4.95,9.77Q31.26,344,23.68,342A249.36,249.36,0,0,1,.52,260.53C1.42,259.71,2.38,258.9,3.32,258.09Z"/><path class="cls-14" d="M27.63,341.23c0,.07,1.92,3.75,4.72,9.22l5.22,9.09c2,3.29,4.22,6.68,6.41,10.13s4.69,6.66,6.89,9.78,4.54,5.82,6.41,8.22,3.62,4.27,4.75,5.64l1.83,2.11,4-.06A262.11,262.11,0,0,1,47.17,369a259.86,259.86,0,0,1-16.8-29.07Z"/><path class="cls-14" d="M42.52,332.64A227.55,227.55,0,0,0,83.1,391l-.36.34A228,228,0,0,1,42.15,333c-4.06-1-8.14-2.05-12.28-3.23l.2-.41Q36.35,331.16,42.52,332.64Z"/><path class="cls-14" d="M54.33,354.46l4.23.44a212.66,212.66,0,0,0,20.39,27l-4.22.19A218.63,218.63,0,0,1,54.33,354.46Z"/><path class="cls-14" d="M31.19,326.52q6.58,1.5,13,2.68l-2.92-6.48c-1-2.15-1.78-4.4-2.68-6.59C36.1,319.49,33.56,323,31.19,326.52Z"/><path class="cls-14" d="M2.84,217.44c0-.08.1-1.35.27-3.5.08-1.08.18-2.37.3-3.86s.38-3.14.6-4.94c.47-3.62.93-7.83,1.8-12.28.4-2.23.81-4.53,1.24-6.87s1-4.67,1.58-7A235.21,235.21,0,0,1,16,153.55c1.1-3.44,2.32-6.19,3.05-8.16s1.22-3.07,1.22-3.07c3.55-1.25,7.23-2.34,10.86-3.36,1.51-3.32,3-6.67,4.69-9.9-5,1.12-9.88,2.48-14.82,4a242,242,0,0,0-21,82Z"/><path class="cls-14" d="M25,133.72l1.2-2.65c.71-1.67,1.91-3.94,3.31-6.68s3-5.94,5-9.23,3.9-6.89,6.16-10.28S45,98,47.25,94.92s4.24-6,6.17-8.4L58,80.73c1.1-1.4,1.8-2.15,1.8-2.15h4l-2.74,3.18L58.47,85c-1.72,2.21-3.48,4.38-5.15,6.63-3.24,4.56-6.55,9.07-9.49,13.84-3.11,4.66-5.79,9.59-8.59,14.43-2.54,5-5.26,9.9-7.47,15.05Z"/><path class="cls-14" d="M79.09,82.53a227,227,0,0,0-39,59.41C36,143,31.76,144.15,27.7,145.51l-.21-.41c4-1.33,8.19-2.46,12.25-3.52a227.35,227.35,0,0,1,39-59.38Z"/><path class="cls-14" d="M51.31,119.79l4.17-.58A240.44,240.44,0,0,1,75.2,91.7c-1.42,0-2.84-.09-4.23-.09A232.5,232.5,0,0,0,51.31,119.79Z"/><path class="cls-14" d="M28.94,148.34c4.31-1.14,8.54-2.18,12.92-3-1,2.14-1.87,4.36-2.74,6.56s-1.76,4.4-2.58,6.63C33.93,155.19,31.44,151.82,28.94,148.34Z"/><g class="cls-18"><path class="cls-14" d="M76.17,128.27a199.54,199.54,0,0,0-14.06,26.67,206.21,206.21,0,0,0-9.87,28.48,211.58,211.58,0,0,0-5.46,29.65,214,214,0,0,0-1,30.17,199.74,199.74,0,0,0,40.06,112c-1.32,1-3.7-.08-5.33-2.39A203.47,203.47,0,0,1,71,131.08C72.39,128.59,74.84,127.42,76.17,128.27Z"/><path class="cls-14" d="M50.63,240.11A194.13,194.13,0,0,1,67.21,155.5l.9.4c1.71.76,2.67,2.31,2.15,3.46A190.47,190.47,0,0,0,54.94,237.7c0,1.26-1.46,2.33-3.32,2.38Z"/><path class="cls-14" d="M78.92,336.27a196.6,196.6,0,0,1-27.43-81.72l1-.1c1.84-.18,3.49.68,3.65,1.94A190.71,190.71,0,0,0,81.5,332c.63,1.1-.16,2.78-1.74,3.75Z"/><path class="cls-14" d="M63.09,269l-.72.14c-1-5.3-1.69-10.67-2.31-16L55,250.29c-.14-2.1-.35-4.2-.45-6.31l4.66-3.37-.15-6.25.16-6.25.74,0-.17,6.33.16,6.32-4.66,3.37.43,5.88,5,2.79C61.39,258.24,62,263.65,63.09,269Z"/><polygon class="cls-14" points="67.89 248.74 60.06 249.35 59.67 244.16 67.5 243.77 67.89 248.74"/></g><path class="cls-14" d="M257.39,420.38a1.18,1.18,0,0,0-1.66.17l-7,8.58v-140a1.18,1.18,0,0,0-2.36,0v140l-7-8.58a1.18,1.18,0,1,0-1.82,1.49l9,11a1.14,1.14,0,0,0,.91.43h.25a1.17,1.17,0,0,0,.91-.43l9-11A1.18,1.18,0,0,0,257.39,420.38Z"/><path class="cls-14" d="M237.66,52.54a1.17,1.17,0,0,0,1.65-.17l7-8.58v140a1.18,1.18,0,0,0,2.36,0v-140l7,8.58a1.18,1.18,0,1,0,1.82-1.49l-9-11a1.18,1.18,0,0,0-.91-.44h-.25a1.15,1.15,0,0,0-.91.44l-9,11A1.18,1.18,0,0,0,237.66,52.54Z"/><path class="cls-14" d="M63.6,242.79a1.18,1.18,0,0,0-.17-1.66l-8.58-7h140a1.18,1.18,0,1,0,0-2.35h-140l8.58-7a1.18,1.18,0,1,0-1.49-1.82l-11,9a1.15,1.15,0,0,0-.43.91v.25A1.15,1.15,0,0,0,51,234l11,9A1.19,1.19,0,0,0,63.6,242.79Z"/><path class="cls-14" d="M431.44,223.06a1.18,1.18,0,0,0,.17,1.66l8.58,7h-140a1.18,1.18,0,0,0,0,2.35h140l-8.58,7A1.18,1.18,0,1,0,433.1,243l11-9a1.16,1.16,0,0,0,.44-.91v-.25a1.16,1.16,0,0,0-.44-.91l-11-9A1.18,1.18,0,0,0,431.44,223.06Z"/><path class="cls-14" d="M247.52,331.42a97.73,97.73,0,1,1,97.73-97.73A97.84,97.84,0,0,1,247.52,331.42Zm0-193.11a95.38,95.38,0,1,0,95.38,95.38A95.49,95.49,0,0,0,247.52,138.31Z"/><circle class="cls-14" cx="247.52" cy="233.69" r="13.25"/><rect class="cls-14" x="246.34" y="176.58" width="2.35" height="114.22"/><rect class="cls-14" x="190.41" y="232.51" width="114.22" height="2.35"/><polygon class="cls-14" points="245.17 276.07 247.52 191.3 249.88 276.07 245.17 276.07"/><polygon class="cls-14" points="249.88 191.3 247.52 276.07 245.17 191.3 249.88 191.3"/><polygon class="cls-14" points="205.13 231.33 289.91 233.69 205.13 236.04 205.13 231.33"/><polygon class="cls-14" points="289.91 236.04 205.13 233.69 289.91 231.33 289.91 236.04"/><path class="cls-19" d="M146.75,187a111.14,111.14,0,0,1,17.73-27l-5-5a117.83,117.83,0,0,0-19.33,29.38Z"/><path class="cls-20" d="M173.79,150.64a111.35,111.35,0,0,1,23.45-16l-2.82-6.48a117.69,117.69,0,0,0-25.61,17.51Z"/><path class="cls-14" d="M136.66,227.1a110.87,110.87,0,0,1,5.27-27.89l-6.58-2.59a117.7,117.7,0,0,0-5.72,30.48Z"/><path class="cls-21" d="M209.31,129.38a110.54,110.54,0,0,1,31.63-6.55v-7a117.65,117.65,0,0,0-34.45,7.12Z"/><path class="cls-14" d="M358.38,240.27a110.42,110.42,0,0,1-5.27,27.9l6.58,2.59a118.13,118.13,0,0,0,5.73-30.49Z"/><path class="cls-19" d="M348.29,280.42a111.19,111.19,0,0,1-17.73,27l5,5A117.61,117.61,0,0,0,354.87,283Z"/><path class="cls-21" d="M285.73,338a110.21,110.21,0,0,1-31.62,6.55v7.05a117.64,117.64,0,0,0,34.44-7.11Z"/><path class="cls-20" d="M321.25,316.73a111.92,111.92,0,0,1-10.65,8.36v.27h-.38a112,112,0,0,1-12.42,7.35l2.83,6.51a117.87,117.87,0,0,0,25.6-17.51Z"/><path class="cls-19" d="M103.48,166.88a159,159,0,0,1,25.33-38.59l-7.11-7.11a168,168,0,0,0-27.63,42Z"/><path class="cls-20" d="M142.13,115a158.58,158.58,0,0,1,33.51-22.87l-4-9.28a168.81,168.81,0,0,0-36.6,25Z"/><path class="cls-14" d="M89.05,224.27a158.35,158.35,0,0,1,7.53-39.87l-9.41-3.7A168.56,168.56,0,0,0,79,224.27Z"/><path class="cls-21" d="M192.9,84.58a158.05,158.05,0,0,1,45.21-9.36V65.16a168.25,168.25,0,0,0-49.24,10.17Z"/><path class="cls-14" d="M406,243.1A158,158,0,0,1,398.46,283l9.41,3.7a168.55,168.55,0,0,0,8.18-43.58Z"/><path class="cls-19" d="M391.56,300.49a158.51,158.51,0,0,1-25.34,38.59l7.12,7.12a168.28,168.28,0,0,0,27.63-42Z"/><path class="cls-21" d="M302.13,382.77a157.92,157.92,0,0,1-45.2,9.37v10.08a168.5,168.5,0,0,0,49.24-10.17Z"/><path class="cls-20" d="M352.91,352.39a160.13,160.13,0,0,1-15.22,12v.38h-.55a158.65,158.65,0,0,1-17.75,10.51l4,9.3a168.46,168.46,0,0,0,36.6-25Z"/><circle class="cls-22" cx="247.52" cy="233.69" r="42.98"/><path class="cls-22" d="M247.52,93A140.71,140.71,0,1,0,388.23,233.69,140.71,140.71,0,0,0,247.52,93Zm0,272A131.29,131.29,0,1,1,378.81,233.69,131.29,131.29,0,0,1,247.52,365Z"/><path class="cls-14" d="M342.9,233.69a95.55,95.55,0,1,1-83.68-94.64v-2.37a97.75,97.75,0,1,0,85,83h-2.37A95.81,95.81,0,0,1,342.9,233.69Z"/><g class="cls-23"><path class="cls-14" d="M328.28,218.25a76.5,76.5,0,0,0-66.15-64.51v64.51Z"/></g><g class="cls-24"><path class="cls-14" d="M166.76,249.12a76.49,76.49,0,0,0,66.15,64.51V249.12Z"/></g><g class="cls-25"><g class="cls-26"><path class="cls-14" d="M364,211.43a110.3,110.3,0,0,0-95.38-93v93Z"/></g><g class="cls-27"><path class="cls-14" d="M131.07,255.94a110.3,110.3,0,0,0,95.38,93v-93Z"/></g></g><g class="cls-26"><path class="cls-14" d="M364,211.43a110.3,110.3,0,0,0-95.38-93v93Z"/></g><g class="cls-27"><path class="cls-14" d="M131.07,255.94a110.3,110.3,0,0,0,95.38,93v-93Z"/></g></g></g></svg>