<svg xmlns="http://www.w3.org/2000/svg" xmlns:xlink="http://www.w3.org/1999/xlink" viewBox="0 0 494.27 158.72"><defs><style>.cls-1{mask:url(#mask);filter:url(#luminosity-noclip-2);}.cls-2{mix-blend-mode:multiply;fill:url(#Безымянный_градиент_44);}.cls-3{fill:url(#New_Gradient_Swatch_2);}.cls-4{fill:url(#New_Gradient_Swatch_2-2);}.cls-5{fill:url(#New_Gradient_Swatch_2-3);}.cls-6{fill:url(#New_Gradient_Swatch_2-4);}.cls-7{fill:url(#New_Gradient_Swatch_2-5);}.cls-8{fill:url(#New_Gradient_Swatch_2-6);}.cls-9{fill:url(#New_Gradient_Swatch_2-7);}.cls-10{fill:url(#New_Gradient_Swatch_2-8);}.cls-11{fill:url(#New_Gradient_Swatch_2-9);}.cls-12{fill:url(#New_Gradient_Swatch_2-10);}.cls-13{fill:url(#New_Gradient_Swatch_2-11);}.cls-14{fill:url(#New_Gradient_Swatch_2-12);}.cls-15{fill:url(#New_Gradient_Swatch_2-13);}.cls-16{fill:url(#New_Gradient_Swatch_2-14);}.cls-17{fill:url(#New_Gradient_Swatch_2-15);}.cls-18{fill:url(#New_Gradient_Swatch_2-16);}.cls-19{fill:url(#New_Gradient_Swatch_2-17);}.cls-20{fill:url(#New_Gradient_Swatch_2-18);}.cls-21{fill:url(#New_Gradient_Swatch_2-19);}.cls-22{fill:url(#New_Gradient_Swatch_2-20);}.cls-23{fill:url(#New_Gradient_Swatch_2-21);}.cls-24{mask:url(#mask-2);}.cls-25{fill:url(#New_Gradient_Swatch_2-22);}.cls-26{fill:url(#New_Gradient_Swatch_2-23);}.cls-27{fill:url(#New_Gradient_Swatch_2-24);}.cls-28{fill:url(#New_Gradient_Swatch_2-25);}.cls-29{fill:url(#New_Gradient_Swatch_2-26);}.cls-30{fill:url(#New_Gradient_Swatch_2-27);}.cls-31{fill:url(#New_Gradient_Swatch_2-28);}.cls-32{fill:url(#New_Gradient_Swatch_2-29);}.cls-33{fill:url(#New_Gradient_Swatch_2-30);}.cls-34{fill:url(#New_Gradient_Swatch_2-31);}.cls-35{fill:url(#New_Gradient_Swatch_2-32);}.cls-36{fill:url(#New_Gradient_Swatch_2-33);}.cls-37{fill:url(#New_Gradient_Swatch_2-34);}.cls-38{fill:url(#New_Gradient_Swatch_2-35);}.cls-39{fill:url(#New_Gradient_Swatch_2-36);}.cls-40{fill:url(#New_Gradient_Swatch_2-37);}.cls-41{fill:url(#New_Gradient_Swatch_2-38);}.cls-42{fill:url(#New_Gradient_Swatch_2-39);}.cls-43{fill:url(#New_Gradient_Swatch_2-40);}.cls-44{fill:url(#New_Gradient_Swatch_2-41);}.cls-45{fill:url(#New_Gradient_Swatch_2-42);}.cls-46{fill:url(#New_Gradient_Swatch_2-43);}.cls-47{fill:url(#New_Gradient_Swatch_2-44);}.cls-48{fill:url(#New_Gradient_Swatch_2-45);}.cls-49{fill:url(#New_Gradient_Swatch_2-46);}.cls-50{fill:url(#New_Gradient_Swatch_2-47);}.cls-51{fill:url(#New_Gradient_Swatch_2-48);}.cls-52{fill:url(#New_Gradient_Swatch_2-49);}.cls-53{fill:url(#New_Gradient_Swatch_2-50);}.cls-54{fill:url(#New_Gradient_Swatch_2-51);}.cls-55{fill:url(#New_Gradient_Swatch_2-52);}.cls-56{fill:url(#New_Gradient_Swatch_2-53);}.cls-57{fill:url(#New_Gradient_Swatch_2-54);}.cls-58{fill:url(#New_Gradient_Swatch_2-55);}.cls-59{fill:url(#New_Gradient_Swatch_2-56);}.cls-60{fill:url(#New_Gradient_Swatch_2-57);}.cls-61{fill:url(#New_Gradient_Swatch_2-58);}.cls-62{fill:url(#New_Gradient_Swatch_2-59);}.cls-63{fill:url(#New_Gradient_Swatch_2-60);}.cls-64{fill:url(#New_Gradient_Swatch_2-61);}.cls-65{fill:url(#New_Gradient_Swatch_2-62);}.cls-66{fill:url(#New_Gradient_Swatch_2-63);}.cls-67{fill:url(#New_Gradient_Swatch_2-64);}.cls-68{fill:url(#New_Gradient_Swatch_2-65);}.cls-69{fill:url(#New_Gradient_Swatch_2-66);}.cls-70{fill:url(#New_Gradient_Swatch_2-67);}.cls-71{fill:url(#New_Gradient_Swatch_2-68);}.cls-72{fill:url(#New_Gradient_Swatch_2-69);}.cls-73{fill:url(#New_Gradient_Swatch_2-70);}.cls-74{fill:url(#New_Gradient_Swatch_2-71);}.cls-75{fill:url(#New_Gradient_Swatch_2-72);}.cls-76{fill:url(#New_Gradient_Swatch_2-73);}.cls-77{fill:url(#New_Gradient_Swatch_2-74);}.cls-78{fill:url(#New_Gradient_Swatch_2-75);}.cls-79{fill:url(#New_Gradient_Swatch_2-76);}.cls-80{fill:url(#New_Gradient_Swatch_2-77);}.cls-81{fill:url(#New_Gradient_Swatch_2-78);}.cls-82{fill:url(#New_Gradient_Swatch_2-79);}.cls-83{fill:url(#New_Gradient_Swatch_2-80);}.cls-84{fill:url(#New_Gradient_Swatch_2-81);}.cls-85{fill:url(#New_Gradient_Swatch_2-82);}.cls-86{fill:url(#New_Gradient_Swatch_2-83);}.cls-87{fill:url(#New_Gradient_Swatch_2-84);}.cls-88{fill:url(#New_Gradient_Swatch_2-85);}.cls-89{fill:url(#New_Gradient_Swatch_2-86);}.cls-90{fill:url(#New_Gradient_Swatch_2-87);}.cls-91{fill:url(#New_Gradient_Swatch_2-88);}.cls-92{fill:url(#New_Gradient_Swatch_2-89);}.cls-93{fill:url(#New_Gradient_Swatch_2-90);}.cls-94{fill:url(#New_Gradient_Swatch_2-91);}.cls-95{fill:url(#New_Gradient_Swatch_2-92);}.cls-96{fill:url(#New_Gradient_Swatch_2-93);}.cls-97{fill:url(#New_Gradient_Swatch_2-94);}.cls-98{fill:url(#New_Gradient_Swatch_2-95);}.cls-99{fill:url(#New_Gradient_Swatch_2-96);}.cls-100{fill:url(#New_Gradient_Swatch_2-97);}.cls-101{fill:url(#New_Gradient_Swatch_2-98);}.cls-102{fill:url(#New_Gradient_Swatch_4);}.cls-103{filter:url(#luminosity-noclip);}</style><filter id="luminosity-noclip" x="171.24" y="-8265.63" width="312.35" height="32766" filterUnits="userSpaceOnUse" color-interpolation-filters="sRGB"><feFlood flood-color="#fff" result="bg"/><feBlend in="SourceGraphic" in2="bg"/></filter><mask id="mask" x="171.24" y="-8265.63" width="312.35" height="32766" maskUnits="userSpaceOnUse"><g class="cls-103"/></mask><linearGradient id="Безымянный_градиент_44" x1="171.24" y1="79.36" x2="483.59" y2="79.36" gradientUnits="userSpaceOnUse"><stop offset="0" stop-color="#1a1a1a"/><stop offset="1" stop-color="#1a1a1a"/></linearGradient><linearGradient id="New_Gradient_Swatch_2" x1="141.67" y1="67.67" x2="494.27" y2="67.67" gradientUnits="userSpaceOnUse"><stop offset="0" stop-color="#9541de"/><stop offset="1" stop-color="#3ab2c0"/></linearGradient><linearGradient id="New_Gradient_Swatch_2-2" x1="145.31" y1="17.04" x2="202.62" y2="17.04" xlink:href="#New_Gradient_Swatch_2"/><linearGradient id="New_Gradient_Swatch_2-3" x1="422.25" y1="118.29" x2="479.56" y2="118.29" xlink:href="#New_Gradient_Swatch_2"/><linearGradient id="New_Gradient_Swatch_2-4" x1="169.6" y1="105.27" x2="471.7" y2="105.27" xlink:href="#New_Gradient_Swatch_2"/><linearGradient id="New_Gradient_Swatch_2-5" x1="169.6" y1="111.84" x2="411.78" y2="111.84" xlink:href="#New_Gradient_Swatch_2"/><linearGradient id="New_Gradient_Swatch_2-6" x1="194.93" y1="79.36" x2="223.79" y2="79.36" xlink:href="#New_Gradient_Swatch_2"/><linearGradient id="New_Gradient_Swatch_2-7" x1="228.66" y1="79.36" x2="257.52" y2="79.36" xlink:href="#New_Gradient_Swatch_2"/><linearGradient id="New_Gradient_Swatch_2-8" x1="262.39" y1="79.36" x2="291.25" y2="79.36" xlink:href="#New_Gradient_Swatch_2"/><linearGradient id="New_Gradient_Swatch_2-9" x1="296.12" y1="79.36" x2="324.98" y2="79.36" xlink:href="#New_Gradient_Swatch_2"/><linearGradient id="New_Gradient_Swatch_2-10" x1="329.85" y1="79.36" x2="358.71" y2="79.36" xlink:href="#New_Gradient_Swatch_2"/><linearGradient id="New_Gradient_Swatch_2-11" x1="363.58" y1="79.36" x2="392.44" y2="79.36" xlink:href="#New_Gradient_Swatch_2"/><linearGradient id="New_Gradient_Swatch_2-12" x1="397.31" y1="79.36" x2="426.18" y2="79.36" xlink:href="#New_Gradient_Swatch_2"/><linearGradient id="New_Gradient_Swatch_2-13" x1="431.04" y1="79.36" x2="459.91" y2="79.36" xlink:href="#New_Gradient_Swatch_2"/><linearGradient id="New_Gradient_Swatch_2-14" x1="217.52" y1="31.68" x2="229.91" y2="31.68" xlink:href="#New_Gradient_Swatch_2"/><linearGradient id="New_Gradient_Swatch_2-15" x1="232" y1="31.68" x2="244.39" y2="31.68" xlink:href="#New_Gradient_Swatch_2"/><linearGradient id="New_Gradient_Swatch_2-16" x1="246.47" y1="31.68" x2="258.86" y2="31.68" xlink:href="#New_Gradient_Swatch_2"/><linearGradient id="New_Gradient_Swatch_2-17" x1="260.95" y1="31.68" x2="273.34" y2="31.68" xlink:href="#New_Gradient_Swatch_2"/><linearGradient id="New_Gradient_Swatch_2-18" x1="275.43" y1="31.68" x2="287.81" y2="31.68" xlink:href="#New_Gradient_Swatch_2"/><linearGradient id="New_Gradient_Swatch_2-19" x1="289.9" y1="31.68" x2="302.29" y2="31.68" xlink:href="#New_Gradient_Swatch_2"/><linearGradient id="New_Gradient_Swatch_2-20" x1="304.38" y1="31.68" x2="316.77" y2="31.68" xlink:href="#New_Gradient_Swatch_2"/><linearGradient id="New_Gradient_Swatch_2-21" x1="318.85" y1="31.68" x2="331.24" y2="31.68" xlink:href="#New_Gradient_Swatch_2"/><filter id="luminosity-noclip-2" x="171.24" y="59.01" width="312.35" height="40.71" filterUnits="userSpaceOnUse" color-interpolation-filters="sRGB"><feFlood flood-color="#fff" result="bg"/><feBlend in="SourceGraphic" in2="bg"/></filter><mask id="mask-2" x="171.24" y="59.01" width="312.35" height="40.71" maskUnits="userSpaceOnUse"><g class="cls-1"><rect class="cls-2" x="171.24" y="59.01" width="312.35" height="40.71" rx="6.08"/></g></mask><linearGradient id="New_Gradient_Swatch_2-22" x1="171.24" y1="79.36" x2="483.59" y2="79.36" xlink:href="#New_Gradient_Swatch_2"/><linearGradient id="New_Gradient_Swatch_2-23" x1="169.78" y1="79.36" x2="485.05" y2="79.36" xlink:href="#New_Gradient_Swatch_2"/><linearGradient id="New_Gradient_Swatch_2-24" x1="0" y1="79.36" x2="158.72" y2="79.36" xlink:href="#New_Gradient_Swatch_2"/><linearGradient id="New_Gradient_Swatch_2-25" x1="169.53" y1="123.64" x2="397.18" y2="123.64" xlink:href="#New_Gradient_Swatch_2"/><linearGradient id="New_Gradient_Swatch_2-26" x1="329.85" y1="37.81" x2="491.57" y2="37.81" xlink:href="#New_Gradient_Swatch_2"/><linearGradient id="New_Gradient_Swatch_2-27" x1="200.1" y1="50.09" x2="202.74" y2="50.09" xlink:href="#New_Gradient_Swatch_2"/><linearGradient id="New_Gradient_Swatch_2-28" x1="204.06" y1="50.09" x2="206.71" y2="50.09" xlink:href="#New_Gradient_Swatch_2"/><linearGradient id="New_Gradient_Swatch_2-29" x1="208.03" y1="50.09" x2="210.67" y2="50.09" xlink:href="#New_Gradient_Swatch_2"/><linearGradient id="New_Gradient_Swatch_2-30" x1="212" y1="50.09" x2="214.64" y2="50.09" xlink:href="#New_Gradient_Swatch_2"/><linearGradient id="New_Gradient_Swatch_2-31" x1="215.96" y1="50.09" x2="218.61" y2="50.09" xlink:href="#New_Gradient_Swatch_2"/><linearGradient id="New_Gradient_Swatch_2-32" x1="219.93" y1="50.09" x2="222.57" y2="50.09" xlink:href="#New_Gradient_Swatch_2"/><linearGradient id="New_Gradient_Swatch_2-33" x1="223.9" y1="50.09" x2="226.54" y2="50.09" xlink:href="#New_Gradient_Swatch_2"/><linearGradient id="New_Gradient_Swatch_2-34" x1="227.87" y1="50.09" x2="230.51" y2="50.09" xlink:href="#New_Gradient_Swatch_2"/><linearGradient id="New_Gradient_Swatch_2-35" x1="231.83" y1="50.09" x2="234.48" y2="50.09" xlink:href="#New_Gradient_Swatch_2"/><linearGradient id="New_Gradient_Swatch_2-36" x1="235.8" y1="50.09" x2="238.44" y2="50.09" xlink:href="#New_Gradient_Swatch_2"/><linearGradient id="New_Gradient_Swatch_2-37" x1="239.77" y1="50.09" x2="242.41" y2="50.09" xlink:href="#New_Gradient_Swatch_2"/><linearGradient id="New_Gradient_Swatch_2-38" x1="243.73" y1="50.09" x2="246.38" y2="50.09" xlink:href="#New_Gradient_Swatch_2"/><linearGradient id="New_Gradient_Swatch_2-39" x1="247.7" y1="50.09" x2="250.34" y2="50.09" xlink:href="#New_Gradient_Swatch_2"/><linearGradient id="New_Gradient_Swatch_2-40" x1="251.67" y1="50.09" x2="254.31" y2="50.09" xlink:href="#New_Gradient_Swatch_2"/><linearGradient id="New_Gradient_Swatch_2-41" x1="255.64" y1="50.09" x2="258.28" y2="50.09" xlink:href="#New_Gradient_Swatch_2"/><linearGradient id="New_Gradient_Swatch_2-42" x1="259.6" y1="50.09" x2="262.24" y2="50.09" xlink:href="#New_Gradient_Swatch_2"/><linearGradient id="New_Gradient_Swatch_2-43" x1="263.57" y1="50.09" x2="266.21" y2="50.09" xlink:href="#New_Gradient_Swatch_2"/><linearGradient id="New_Gradient_Swatch_2-44" x1="267.54" y1="50.09" x2="270.18" y2="50.09" xlink:href="#New_Gradient_Swatch_2"/><linearGradient id="New_Gradient_Swatch_2-45" x1="271.5" y1="50.09" x2="274.15" y2="50.09" xlink:href="#New_Gradient_Swatch_2"/><linearGradient id="New_Gradient_Swatch_2-46" x1="275.47" y1="50.09" x2="278.11" y2="50.09" xlink:href="#New_Gradient_Swatch_2"/><linearGradient id="New_Gradient_Swatch_2-47" x1="279.44" y1="50.09" x2="282.08" y2="50.09" xlink:href="#New_Gradient_Swatch_2"/><linearGradient id="New_Gradient_Swatch_2-48" x1="283.4" y1="50.09" x2="286.05" y2="50.09" xlink:href="#New_Gradient_Swatch_2"/><linearGradient id="New_Gradient_Swatch_2-49" x1="287.37" y1="50.09" x2="290.01" y2="50.09" xlink:href="#New_Gradient_Swatch_2"/><linearGradient id="New_Gradient_Swatch_2-50" x1="291.34" y1="50.09" x2="293.98" y2="50.09" xlink:href="#New_Gradient_Swatch_2"/><linearGradient id="New_Gradient_Swatch_2-51" x1="295.31" y1="50.09" x2="297.95" y2="50.09" xlink:href="#New_Gradient_Swatch_2"/><linearGradient id="New_Gradient_Swatch_2-52" x1="299.27" y1="50.09" x2="301.91" y2="50.09" xlink:href="#New_Gradient_Swatch_2"/><linearGradient id="New_Gradient_Swatch_2-53" x1="303.24" y1="50.09" x2="305.88" y2="50.09" xlink:href="#New_Gradient_Swatch_2"/><linearGradient id="New_Gradient_Swatch_2-54" x1="307.21" y1="50.09" x2="309.85" y2="50.09" xlink:href="#New_Gradient_Swatch_2"/><linearGradient id="New_Gradient_Swatch_2-55" x1="311.17" y1="50.09" x2="313.82" y2="50.09" xlink:href="#New_Gradient_Swatch_2"/><linearGradient id="New_Gradient_Swatch_2-56" x1="315.14" y1="50.09" x2="317.78" y2="50.09" xlink:href="#New_Gradient_Swatch_2"/><linearGradient id="New_Gradient_Swatch_2-57" x1="319.11" y1="50.09" x2="321.75" y2="50.09" xlink:href="#New_Gradient_Swatch_2"/><linearGradient id="New_Gradient_Swatch_2-58" x1="323.07" y1="50.09" x2="325.72" y2="50.09" xlink:href="#New_Gradient_Swatch_2"/><linearGradient id="New_Gradient_Swatch_2-59" x1="327.04" y1="50.09" x2="329.68" y2="50.09" xlink:href="#New_Gradient_Swatch_2"/><linearGradient id="New_Gradient_Swatch_2-60" x1="331.01" y1="50.09" x2="333.65" y2="50.09" xlink:href="#New_Gradient_Swatch_2"/><linearGradient id="New_Gradient_Swatch_2-61" x1="334.98" y1="50.09" x2="337.62" y2="50.09" xlink:href="#New_Gradient_Swatch_2"/><linearGradient id="New_Gradient_Swatch_2-62" x1="338.94" y1="50.09" x2="341.59" y2="50.09" xlink:href="#New_Gradient_Swatch_2"/><linearGradient id="New_Gradient_Swatch_2-63" x1="342.91" y1="50.09" x2="345.55" y2="50.09" xlink:href="#New_Gradient_Swatch_2"/><linearGradient id="New_Gradient_Swatch_2-64" x1="346.88" y1="50.09" x2="349.52" y2="50.09" xlink:href="#New_Gradient_Swatch_2"/><linearGradient id="New_Gradient_Swatch_2-65" x1="350.84" y1="50.09" x2="353.49" y2="50.09" xlink:href="#New_Gradient_Swatch_2"/><linearGradient id="New_Gradient_Swatch_2-66" x1="354.81" y1="50.09" x2="357.45" y2="50.09" xlink:href="#New_Gradient_Swatch_2"/><linearGradient id="New_Gradient_Swatch_2-67" x1="358.78" y1="50.09" x2="361.42" y2="50.09" xlink:href="#New_Gradient_Swatch_2"/><linearGradient id="New_Gradient_Swatch_2-68" x1="362.74" y1="50.09" x2="365.39" y2="50.09" xlink:href="#New_Gradient_Swatch_2"/><linearGradient id="New_Gradient_Swatch_2-69" x1="366.71" y1="50.09" x2="369.35" y2="50.09" xlink:href="#New_Gradient_Swatch_2"/><linearGradient id="New_Gradient_Swatch_2-70" x1="370.68" y1="50.09" x2="373.32" y2="50.09" xlink:href="#New_Gradient_Swatch_2"/><linearGradient id="New_Gradient_Swatch_2-71" x1="374.65" y1="50.09" x2="377.29" y2="50.09" xlink:href="#New_Gradient_Swatch_2"/><linearGradient id="New_Gradient_Swatch_2-72" x1="378.61" y1="50.09" x2="381.26" y2="50.09" xlink:href="#New_Gradient_Swatch_2"/><linearGradient id="New_Gradient_Swatch_2-73" x1="382.58" y1="50.09" x2="385.22" y2="50.09" xlink:href="#New_Gradient_Swatch_2"/><linearGradient id="New_Gradient_Swatch_2-74" x1="386.55" y1="50.09" x2="389.19" y2="50.09" xlink:href="#New_Gradient_Swatch_2"/><linearGradient id="New_Gradient_Swatch_2-75" x1="390.51" y1="50.09" x2="393.16" y2="50.09" xlink:href="#New_Gradient_Swatch_2"/><linearGradient id="New_Gradient_Swatch_2-76" x1="394.48" y1="50.09" x2="397.12" y2="50.09" xlink:href="#New_Gradient_Swatch_2"/><linearGradient id="New_Gradient_Swatch_2-77" x1="398.45" y1="50.09" x2="401.09" y2="50.09" xlink:href="#New_Gradient_Swatch_2"/><linearGradient id="New_Gradient_Swatch_2-78" x1="402.42" y1="50.09" x2="405.06" y2="50.09" xlink:href="#New_Gradient_Swatch_2"/><linearGradient id="New_Gradient_Swatch_2-79" x1="406.38" y1="50.09" x2="409.02" y2="50.09" xlink:href="#New_Gradient_Swatch_2"/><linearGradient id="New_Gradient_Swatch_2-80" x1="410.35" y1="50.09" x2="412.99" y2="50.09" xlink:href="#New_Gradient_Swatch_2"/><linearGradient id="New_Gradient_Swatch_2-81" x1="414.32" y1="50.09" x2="416.96" y2="50.09" xlink:href="#New_Gradient_Swatch_2"/><linearGradient id="New_Gradient_Swatch_2-82" x1="418.28" y1="50.09" x2="420.93" y2="50.09" xlink:href="#New_Gradient_Swatch_2"/><linearGradient id="New_Gradient_Swatch_2-83" x1="422.25" y1="50.09" x2="424.89" y2="50.09" xlink:href="#New_Gradient_Swatch_2"/><linearGradient id="New_Gradient_Swatch_2-84" x1="426.22" y1="50.09" x2="428.86" y2="50.09" xlink:href="#New_Gradient_Swatch_2"/><linearGradient id="New_Gradient_Swatch_2-85" x1="430.18" y1="50.09" x2="432.83" y2="50.09" xlink:href="#New_Gradient_Swatch_2"/><linearGradient id="New_Gradient_Swatch_2-86" x1="434.15" y1="50.09" x2="436.79" y2="50.09" xlink:href="#New_Gradient_Swatch_2"/><linearGradient id="New_Gradient_Swatch_2-87" x1="438.12" y1="50.09" x2="440.76" y2="50.09" xlink:href="#New_Gradient_Swatch_2"/><linearGradient id="New_Gradient_Swatch_2-88" x1="442.09" y1="50.09" x2="444.73" y2="50.09" xlink:href="#New_Gradient_Swatch_2"/><linearGradient id="New_Gradient_Swatch_2-89" x1="446.05" y1="50.09" x2="448.69" y2="50.09" xlink:href="#New_Gradient_Swatch_2"/><linearGradient id="New_Gradient_Swatch_2-90" x1="450.02" y1="50.09" x2="452.66" y2="50.09" xlink:href="#New_Gradient_Swatch_2"/><linearGradient id="New_Gradient_Swatch_2-91" x1="453.99" y1="50.09" x2="456.63" y2="50.09" xlink:href="#New_Gradient_Swatch_2"/><linearGradient id="New_Gradient_Swatch_2-92" x1="457.95" y1="50.09" x2="460.6" y2="50.09" xlink:href="#New_Gradient_Swatch_2"/><linearGradient id="New_Gradient_Swatch_2-93" x1="461.92" y1="50.09" x2="464.56" y2="50.09" xlink:href="#New_Gradient_Swatch_2"/><linearGradient id="New_Gradient_Swatch_2-94" x1="465.89" y1="50.09" x2="468.53" y2="50.09" xlink:href="#New_Gradient_Swatch_2"/><linearGradient id="New_Gradient_Swatch_2-95" x1="469.85" y1="50.09" x2="472.5" y2="50.09" xlink:href="#New_Gradient_Swatch_2"/><linearGradient id="New_Gradient_Swatch_2-96" x1="473.82" y1="50.09" x2="476.46" y2="50.09" xlink:href="#New_Gradient_Swatch_2"/><linearGradient id="New_Gradient_Swatch_2-97" x1="176.11" y1="132.83" x2="389.96" y2="132.83" xlink:href="#New_Gradient_Swatch_2"/><linearGradient id="New_Gradient_Swatch_2-98" x1="334.65" y1="30.35" x2="486.95" y2="30.35" xlink:href="#New_Gradient_Swatch_2"/><radialGradient id="New_Gradient_Swatch_4" cx="81.3" cy="78.58" r="56.82" gradientTransform="translate(77.35 -33.6) rotate(44.95)" gradientUnits="userSpaceOnUse"><stop offset="0" stop-color="#3ab2c0"/><stop offset="0.23" stop-color="#3dafc1"/><stop offset="0.41" stop-color="#45a5c4"/><stop offset="0.58" stop-color="#5294c8"/><stop offset="0.74" stop-color="#667cce"/><stop offset="0.89" stop-color="#7e5dd7"/><stop offset="1" stop-color="#9541de"/></radialGradient></defs><title>loading_09_purple_blue</title><g id="Layer_2" data-name="Layer 2"><g id="Layer_1-2" data-name="Layer 1"><path class="cls-3" d="M493.11,119.45H159.87a1.16,1.16,0,0,1,0-2.32H492V42.49H215.88a1.15,1.15,0,0,1-1.08-.74l-9.31-23.54H142.83a1.16,1.16,0,1,1,0-2.32h63.45a1.16,1.16,0,0,1,1.08.74l9.3,23.54H493.11a1.16,1.16,0,0,1,1.16,1.16v77A1.16,1.16,0,0,1,493.11,119.45Z"/><path class="cls-4" d="M199.53,20.14H148.41a3.1,3.1,0,1,1,0-6.19h51.12a3.1,3.1,0,0,1,0,6.19Z"/><path class="cls-5" d="M476.46,121.38H425.35a3.1,3.1,0,1,1,0-6.19h51.11a3.1,3.1,0,1,1,0,6.19Z"/><path class="cls-6" d="M470.06,106.91H171.24a1.65,1.65,0,0,1,0-3.29H470.06a1.65,1.65,0,0,1,0,3.29Z"/><path class="cls-7" d="M410.14,113.48H171.24a1.64,1.64,0,0,1,0-3.28h238.9a1.64,1.64,0,0,1,0,3.28Z"/><circle class="cls-8" cx="209.36" cy="79.36" r="14.43"/><circle class="cls-9" cx="243.09" cy="79.36" r="14.43"/><circle class="cls-10" cx="276.82" cy="79.36" r="14.43"/><circle class="cls-11" cx="310.55" cy="79.36" r="14.43"/><circle class="cls-12" cx="344.28" cy="79.36" r="14.43"/><circle class="cls-13" cx="378.01" cy="79.36" r="14.43"/><circle class="cls-14" cx="411.74" cy="79.36" r="14.43"/><circle class="cls-15" cx="445.47" cy="79.36" r="14.43"/><path class="cls-16" d="M229.91,31.68a6.2,6.2,0,1,1-6.19-6.19A6.19,6.19,0,0,1,229.91,31.68Z"/><path class="cls-17" d="M244.39,31.68a6.2,6.2,0,1,1-6.2-6.19A6.2,6.2,0,0,1,244.39,31.68Z"/><path class="cls-18" d="M258.86,31.68a6.2,6.2,0,1,1-6.19-6.19A6.19,6.19,0,0,1,258.86,31.68Z"/><path class="cls-19" d="M273.34,31.68a6.2,6.2,0,1,1-6.2-6.19A6.19,6.19,0,0,1,273.34,31.68Z"/><path class="cls-20" d="M287.81,31.68a6.19,6.19,0,1,1-6.19-6.19A6.19,6.19,0,0,1,287.81,31.68Z"/><path class="cls-21" d="M302.29,31.68a6.2,6.2,0,1,1-6.19-6.19A6.19,6.19,0,0,1,302.29,31.68Z"/><path class="cls-22" d="M316.77,31.68a6.2,6.2,0,1,1-6.2-6.19A6.2,6.2,0,0,1,316.77,31.68Z"/><path class="cls-23" d="M331.24,31.68a6.2,6.2,0,1,1-6.19-6.19A6.19,6.19,0,0,1,331.24,31.68Z"/><g class="cls-24"><rect class="cls-25" x="171.24" y="59.01" width="312.35" height="40.71" rx="6.08"/></g><path class="cls-26" d="M465.93,101.17h-277a19.14,19.14,0,0,1-19.12-19.12V76.67A19.14,19.14,0,0,1,188.9,57.55h277a19.14,19.14,0,0,1,19.12,19.12v5.38A19.14,19.14,0,0,1,465.93,101.17Zm-277-40.7a16.22,16.22,0,0,0-16.2,16.2v5.38a16.22,16.22,0,0,0,16.2,16.21h277a16.22,16.22,0,0,0,16.2-16.21V76.67a16.22,16.22,0,0,0-16.2-16.2Z"/><path class="cls-27" d="M79.36,158.72a79.36,79.36,0,1,1,79.36-79.36A79.45,79.45,0,0,1,79.36,158.72Zm0-141.87a62.51,62.51,0,1,0,62.51,62.51A62.58,62.58,0,0,0,79.36,16.85Z"/><polygon class="cls-28" points="390.43 130.11 176.28 130.11 169.53 117.18 397.18 117.18 390.43 130.11"/><polygon class="cls-29" points="486.77 33.3 334.64 33.3 329.85 42.32 491.57 42.32 486.77 33.3"/><path class="cls-30" d="M201.42,56.53a1.33,1.33,0,0,1-1.32-1.33V45a1.32,1.32,0,1,1,2.64,0V55.2A1.33,1.33,0,0,1,201.42,56.53Z"/><path class="cls-31" d="M205.38,56.53a1.33,1.33,0,0,1-1.32-1.33V45a1.33,1.33,0,1,1,2.65,0V55.2A1.34,1.34,0,0,1,205.38,56.53Z"/><path class="cls-32" d="M209.35,56.53A1.33,1.33,0,0,1,208,55.2V45a1.32,1.32,0,1,1,2.64,0V55.2A1.33,1.33,0,0,1,209.35,56.53Z"/><path class="cls-33" d="M213.32,56.53A1.33,1.33,0,0,1,212,55.2V45a1.32,1.32,0,1,1,2.64,0V55.2A1.33,1.33,0,0,1,213.32,56.53Z"/><path class="cls-34" d="M217.29,56.53A1.34,1.34,0,0,1,216,55.2V45a1.33,1.33,0,1,1,2.65,0V55.2A1.33,1.33,0,0,1,217.29,56.53Z"/><path class="cls-35" d="M221.25,56.53a1.33,1.33,0,0,1-1.32-1.33V45a1.32,1.32,0,1,1,2.64,0V55.2A1.33,1.33,0,0,1,221.25,56.53Z"/><path class="cls-36" d="M225.22,56.53a1.33,1.33,0,0,1-1.32-1.33V45a1.32,1.32,0,1,1,2.64,0V55.2A1.33,1.33,0,0,1,225.22,56.53Z"/><path class="cls-37" d="M229.19,56.53a1.33,1.33,0,0,1-1.32-1.33V45a1.32,1.32,0,1,1,2.64,0V55.2A1.33,1.33,0,0,1,229.19,56.53Z"/><path class="cls-38" d="M233.15,56.53a1.33,1.33,0,0,1-1.32-1.33V45a1.33,1.33,0,1,1,2.65,0V55.2A1.34,1.34,0,0,1,233.15,56.53Z"/><path class="cls-39" d="M237.12,56.53a1.33,1.33,0,0,1-1.32-1.33V45a1.32,1.32,0,1,1,2.64,0V55.2A1.33,1.33,0,0,1,237.12,56.53Z"/><path class="cls-40" d="M241.09,56.53a1.33,1.33,0,0,1-1.32-1.33V45a1.32,1.32,0,1,1,2.64,0V55.2A1.33,1.33,0,0,1,241.09,56.53Z"/><path class="cls-41" d="M245.06,56.53a1.34,1.34,0,0,1-1.33-1.33V45a1.33,1.33,0,1,1,2.65,0V55.2A1.33,1.33,0,0,1,245.06,56.53Z"/><path class="cls-42" d="M249,56.53a1.33,1.33,0,0,1-1.32-1.33V45a1.32,1.32,0,1,1,2.64,0V55.2A1.33,1.33,0,0,1,249,56.53Z"/><path class="cls-43" d="M253,56.53a1.33,1.33,0,0,1-1.32-1.33V45a1.32,1.32,0,1,1,2.64,0V55.2A1.33,1.33,0,0,1,253,56.53Z"/><path class="cls-44" d="M257,56.53a1.33,1.33,0,0,1-1.32-1.33V45a1.32,1.32,0,1,1,2.64,0V55.2A1.33,1.33,0,0,1,257,56.53Z"/><path class="cls-45" d="M260.92,56.53a1.33,1.33,0,0,1-1.32-1.33V45a1.32,1.32,0,1,1,2.64,0V55.2A1.33,1.33,0,0,1,260.92,56.53Z"/><path class="cls-46" d="M264.89,56.53a1.33,1.33,0,0,1-1.32-1.33V45a1.32,1.32,0,1,1,2.64,0V55.2A1.33,1.33,0,0,1,264.89,56.53Z"/><path class="cls-47" d="M268.86,56.53a1.33,1.33,0,0,1-1.32-1.33V45a1.32,1.32,0,1,1,2.64,0V55.2A1.33,1.33,0,0,1,268.86,56.53Z"/><path class="cls-48" d="M272.82,56.53a1.33,1.33,0,0,1-1.32-1.33V45a1.33,1.33,0,1,1,2.65,0V55.2A1.34,1.34,0,0,1,272.82,56.53Z"/><path class="cls-49" d="M276.79,56.53a1.33,1.33,0,0,1-1.32-1.33V45a1.32,1.32,0,1,1,2.64,0V55.2A1.33,1.33,0,0,1,276.79,56.53Z"/><path class="cls-50" d="M280.76,56.53a1.33,1.33,0,0,1-1.32-1.33V45a1.32,1.32,0,1,1,2.64,0V55.2A1.33,1.33,0,0,1,280.76,56.53Z"/><path class="cls-51" d="M284.73,56.53a1.34,1.34,0,0,1-1.33-1.33V45a1.33,1.33,0,1,1,2.65,0V55.2A1.33,1.33,0,0,1,284.73,56.53Z"/><path class="cls-52" d="M288.69,56.53a1.33,1.33,0,0,1-1.32-1.33V45A1.32,1.32,0,1,1,290,45V55.2A1.33,1.33,0,0,1,288.69,56.53Z"/><path class="cls-53" d="M292.66,56.53a1.33,1.33,0,0,1-1.32-1.33V45A1.32,1.32,0,1,1,294,45V55.2A1.33,1.33,0,0,1,292.66,56.53Z"/><path class="cls-54" d="M296.63,56.53a1.33,1.33,0,0,1-1.32-1.33V45A1.32,1.32,0,1,1,298,45V55.2A1.33,1.33,0,0,1,296.63,56.53Z"/><path class="cls-55" d="M300.59,56.53a1.33,1.33,0,0,1-1.32-1.33V45a1.32,1.32,0,1,1,2.64,0V55.2A1.33,1.33,0,0,1,300.59,56.53Z"/><path class="cls-56" d="M304.56,56.53a1.33,1.33,0,0,1-1.32-1.33V45a1.32,1.32,0,1,1,2.64,0V55.2A1.33,1.33,0,0,1,304.56,56.53Z"/><path class="cls-57" d="M308.53,56.53a1.33,1.33,0,0,1-1.32-1.33V45a1.32,1.32,0,1,1,2.64,0V55.2A1.33,1.33,0,0,1,308.53,56.53Z"/><path class="cls-58" d="M312.49,56.53a1.33,1.33,0,0,1-1.32-1.33V45a1.33,1.33,0,1,1,2.65,0V55.2A1.34,1.34,0,0,1,312.49,56.53Z"/><path class="cls-59" d="M316.46,56.53a1.33,1.33,0,0,1-1.32-1.33V45a1.32,1.32,0,1,1,2.64,0V55.2A1.33,1.33,0,0,1,316.46,56.53Z"/><path class="cls-60" d="M320.43,56.53a1.33,1.33,0,0,1-1.32-1.33V45a1.32,1.32,0,1,1,2.64,0V55.2A1.33,1.33,0,0,1,320.43,56.53Z"/><path class="cls-61" d="M324.4,56.53a1.34,1.34,0,0,1-1.33-1.33V45a1.33,1.33,0,1,1,2.65,0V55.2A1.33,1.33,0,0,1,324.4,56.53Z"/><path class="cls-62" d="M328.36,56.53A1.33,1.33,0,0,1,327,55.2V45a1.32,1.32,0,1,1,2.64,0V55.2A1.33,1.33,0,0,1,328.36,56.53Z"/><path class="cls-63" d="M332.33,56.53A1.33,1.33,0,0,1,331,55.2V45a1.32,1.32,0,1,1,2.64,0V55.2A1.33,1.33,0,0,1,332.33,56.53Z"/><path class="cls-64" d="M336.3,56.53A1.33,1.33,0,0,1,335,55.2V45a1.32,1.32,0,1,1,2.64,0V55.2A1.33,1.33,0,0,1,336.3,56.53Z"/><path class="cls-65" d="M340.26,56.53a1.33,1.33,0,0,1-1.32-1.33V45a1.33,1.33,0,1,1,2.65,0V55.2A1.34,1.34,0,0,1,340.26,56.53Z"/><path class="cls-66" d="M344.23,56.53a1.33,1.33,0,0,1-1.32-1.33V45a1.32,1.32,0,1,1,2.64,0V55.2A1.33,1.33,0,0,1,344.23,56.53Z"/><path class="cls-67" d="M348.2,56.53a1.33,1.33,0,0,1-1.32-1.33V45a1.32,1.32,0,1,1,2.64,0V55.2A1.33,1.33,0,0,1,348.2,56.53Z"/><path class="cls-68" d="M352.16,56.53a1.33,1.33,0,0,1-1.32-1.33V45a1.33,1.33,0,1,1,2.65,0V55.2A1.34,1.34,0,0,1,352.16,56.53Z"/><path class="cls-69" d="M356.13,56.53a1.33,1.33,0,0,1-1.32-1.33V45a1.32,1.32,0,1,1,2.64,0V55.2A1.33,1.33,0,0,1,356.13,56.53Z"/><path class="cls-70" d="M360.1,56.53a1.33,1.33,0,0,1-1.32-1.33V45a1.32,1.32,0,1,1,2.64,0V55.2A1.33,1.33,0,0,1,360.1,56.53Z"/><path class="cls-71" d="M364.07,56.53a1.34,1.34,0,0,1-1.33-1.33V45a1.33,1.33,0,1,1,2.65,0V55.2A1.33,1.33,0,0,1,364.07,56.53Z"/><path class="cls-72" d="M368,56.53a1.33,1.33,0,0,1-1.32-1.33V45a1.32,1.32,0,1,1,2.64,0V55.2A1.33,1.33,0,0,1,368,56.53Z"/><path class="cls-73" d="M372,56.53a1.33,1.33,0,0,1-1.32-1.33V45a1.32,1.32,0,1,1,2.64,0V55.2A1.33,1.33,0,0,1,372,56.53Z"/><path class="cls-74" d="M376,56.53a1.33,1.33,0,0,1-1.32-1.33V45a1.32,1.32,0,1,1,2.64,0V55.2A1.33,1.33,0,0,1,376,56.53Z"/><path class="cls-75" d="M379.93,56.53a1.33,1.33,0,0,1-1.32-1.33V45a1.33,1.33,0,1,1,2.65,0V55.2A1.34,1.34,0,0,1,379.93,56.53Z"/><path class="cls-76" d="M383.9,56.53a1.33,1.33,0,0,1-1.32-1.33V45a1.32,1.32,0,1,1,2.64,0V55.2A1.33,1.33,0,0,1,383.9,56.53Z"/><path class="cls-77" d="M387.87,56.53a1.33,1.33,0,0,1-1.32-1.33V45a1.32,1.32,0,1,1,2.64,0V55.2A1.33,1.33,0,0,1,387.87,56.53Z"/><path class="cls-78" d="M391.84,56.53a1.34,1.34,0,0,1-1.33-1.33V45a1.33,1.33,0,1,1,2.65,0V55.2A1.33,1.33,0,0,1,391.84,56.53Z"/><path class="cls-79" d="M395.8,56.53a1.33,1.33,0,0,1-1.32-1.33V45a1.32,1.32,0,1,1,2.64,0V55.2A1.33,1.33,0,0,1,395.8,56.53Z"/><path class="cls-80" d="M399.77,56.53a1.33,1.33,0,0,1-1.32-1.33V45a1.32,1.32,0,1,1,2.64,0V55.2A1.33,1.33,0,0,1,399.77,56.53Z"/><path class="cls-81" d="M403.74,56.53a1.33,1.33,0,0,1-1.32-1.33V45a1.32,1.32,0,1,1,2.64,0V55.2A1.33,1.33,0,0,1,403.74,56.53Z"/><path class="cls-82" d="M407.7,56.53a1.33,1.33,0,0,1-1.32-1.33V45A1.32,1.32,0,1,1,409,45V55.2A1.33,1.33,0,0,1,407.7,56.53Z"/><path class="cls-83" d="M411.67,56.53a1.33,1.33,0,0,1-1.32-1.33V45A1.32,1.32,0,1,1,413,45V55.2A1.33,1.33,0,0,1,411.67,56.53Z"/><path class="cls-84" d="M415.64,56.53a1.33,1.33,0,0,1-1.32-1.33V45A1.32,1.32,0,1,1,417,45V55.2A1.33,1.33,0,0,1,415.64,56.53Z"/><path class="cls-85" d="M419.6,56.53a1.33,1.33,0,0,1-1.32-1.33V45a1.33,1.33,0,1,1,2.65,0V55.2A1.34,1.34,0,0,1,419.6,56.53Z"/><path class="cls-86" d="M423.57,56.53a1.33,1.33,0,0,1-1.32-1.33V45a1.32,1.32,0,1,1,2.64,0V55.2A1.33,1.33,0,0,1,423.57,56.53Z"/><path class="cls-87" d="M427.54,56.53a1.33,1.33,0,0,1-1.32-1.33V45a1.32,1.32,0,1,1,2.64,0V55.2A1.33,1.33,0,0,1,427.54,56.53Z"/><path class="cls-88" d="M431.51,56.53a1.34,1.34,0,0,1-1.33-1.33V45a1.33,1.33,0,1,1,2.65,0V55.2A1.33,1.33,0,0,1,431.51,56.53Z"/><path class="cls-89" d="M435.47,56.53a1.33,1.33,0,0,1-1.32-1.33V45a1.32,1.32,0,1,1,2.64,0V55.2A1.33,1.33,0,0,1,435.47,56.53Z"/><path class="cls-90" d="M439.44,56.53a1.33,1.33,0,0,1-1.32-1.33V45a1.32,1.32,0,1,1,2.64,0V55.2A1.33,1.33,0,0,1,439.44,56.53Z"/><path class="cls-91" d="M443.41,56.53a1.33,1.33,0,0,1-1.32-1.33V45a1.32,1.32,0,1,1,2.64,0V55.2A1.33,1.33,0,0,1,443.41,56.53Z"/><path class="cls-92" d="M447.37,56.53a1.33,1.33,0,0,1-1.32-1.33V45a1.32,1.32,0,1,1,2.64,0V55.2A1.33,1.33,0,0,1,447.37,56.53Z"/><path class="cls-93" d="M451.34,56.53A1.33,1.33,0,0,1,450,55.2V45a1.32,1.32,0,1,1,2.64,0V55.2A1.33,1.33,0,0,1,451.34,56.53Z"/><path class="cls-94" d="M455.31,56.53A1.33,1.33,0,0,1,454,55.2V45a1.32,1.32,0,1,1,2.64,0V55.2A1.33,1.33,0,0,1,455.31,56.53Z"/><path class="cls-95" d="M459.27,56.53A1.33,1.33,0,0,1,458,55.2V45a1.33,1.33,0,1,1,2.65,0V55.2A1.34,1.34,0,0,1,459.27,56.53Z"/><path class="cls-96" d="M463.24,56.53a1.33,1.33,0,0,1-1.32-1.33V45a1.32,1.32,0,1,1,2.64,0V55.2A1.33,1.33,0,0,1,463.24,56.53Z"/><path class="cls-97" d="M467.21,56.53a1.33,1.33,0,0,1-1.32-1.33V45a1.32,1.32,0,1,1,2.64,0V55.2A1.33,1.33,0,0,1,467.21,56.53Z"/><path class="cls-98" d="M471.18,56.53a1.34,1.34,0,0,1-1.33-1.33V45a1.33,1.33,0,1,1,2.65,0V55.2A1.33,1.33,0,0,1,471.18,56.53Z"/><path class="cls-99" d="M475.14,56.53a1.33,1.33,0,0,1-1.32-1.33V45a1.32,1.32,0,1,1,2.64,0V55.2A1.33,1.33,0,0,1,475.14,56.53Z"/><path class="cls-100" d="M389.72,133.07H176.35a.25.25,0,0,1,0-.49H389.72a.24.24,0,0,1,.24.25A.24.24,0,0,1,389.72,133.07Z"/><path class="cls-101" d="M486.7,30.59H334.9a.25.25,0,1,1,0-.49H486.7a.25.25,0,1,1,0,.49Z"/><circle class="cls-102" cx="79.36" cy="79.46" r="56.82" transform="translate(-32.94 79.39) rotate(-45)"/></g></g></svg>