<svg xmlns="http://www.w3.org/2000/svg" xmlns:xlink="http://www.w3.org/1999/xlink" viewBox="0 0 495.33 114.06"><defs><style>.cls-1{mask:url(#mask);filter:url(#luminosity-noclip-2);}.cls-2{mix-blend-mode:multiply;fill:url(#Безымянный_градиент_50);}.cls-3{fill:url(#New_Gradient_Swatch_1);}.cls-4{fill:url(#New_Gradient_Swatch_1-2);}.cls-5{fill:url(#New_Gradient_Swatch_1-3);}.cls-6{fill:url(#New_Gradient_Swatch_1-4);}.cls-7{fill:url(#New_Gradient_Swatch_1-5);}.cls-8{fill:url(#New_Gradient_Swatch_1-6);}.cls-9{fill:url(#New_Gradient_Swatch_1-7);}.cls-10{fill:url(#New_Gradient_Swatch_1-8);}.cls-11{fill:url(#New_Gradient_Swatch_1-9);}.cls-12{fill:url(#New_Gradient_Swatch_1-10);}.cls-13{fill:url(#New_Gradient_Swatch_1-11);}.cls-14{fill:url(#New_Gradient_Swatch_1-12);}.cls-15{fill:url(#New_Gradient_Swatch_1-13);}.cls-16{fill:url(#New_Gradient_Swatch_1-14);}.cls-17{fill:url(#New_Gradient_Swatch_1-15);}.cls-18{fill:url(#New_Gradient_Swatch_1-16);}.cls-19{fill:url(#New_Gradient_Swatch_1-17);}.cls-20{fill:url(#New_Gradient_Swatch_1-18);}.cls-21{fill:url(#New_Gradient_Swatch_1-19);}.cls-22{fill:url(#New_Gradient_Swatch_1-20);}.cls-23{fill:url(#New_Gradient_Swatch_1-21);}.cls-24{fill:url(#New_Gradient_Swatch_1-22);}.cls-25{fill:url(#New_Gradient_Swatch_1-23);}.cls-26{fill:url(#New_Gradient_Swatch_1-24);}.cls-27{fill:url(#New_Gradient_Swatch_1-25);}.cls-28{fill:url(#New_Gradient_Swatch_1-26);}.cls-29{fill:url(#New_Gradient_Swatch_1-27);}.cls-30{fill:url(#New_Gradient_Swatch_1-28);}.cls-31{fill:url(#New_Gradient_Swatch_1-29);}.cls-32{fill:url(#New_Gradient_Swatch_1-30);}.cls-33{fill:url(#New_Gradient_Swatch_1-31);}.cls-34{fill:url(#New_Gradient_Swatch_1-32);}.cls-35{fill:url(#New_Gradient_Swatch_1-33);}.cls-36{fill:url(#New_Gradient_Swatch_1-34);}.cls-37{fill:url(#New_Gradient_Swatch_1-35);}.cls-38{fill:url(#New_Gradient_Swatch_1-36);}.cls-39{fill:url(#New_Gradient_Swatch_1-37);}.cls-40{fill:url(#New_Gradient_Swatch_1-38);}.cls-41{fill:url(#New_Gradient_Swatch_1-39);}.cls-42{fill:url(#New_Gradient_Swatch_1-40);}.cls-43{fill:url(#New_Gradient_Swatch_1-41);}.cls-44{fill:url(#New_Gradient_Swatch_1-42);}.cls-45{fill:url(#New_Gradient_Swatch_1-43);}.cls-46{fill:url(#New_Gradient_Swatch_1-44);}.cls-47{fill:url(#New_Gradient_Swatch_1-45);}.cls-48{fill:url(#New_Gradient_Swatch_1-46);}.cls-49{mask:url(#mask-2);}.cls-50{fill:url(#New_Gradient_Swatch_1-47);}.cls-51{fill:url(#New_Gradient_Swatch_1-48);}.cls-52{fill:url(#New_Gradient_Swatch_1-49);}.cls-53{fill:url(#New_Gradient_Swatch_1-50);}.cls-54{fill:url(#New_Gradient_Swatch_1-51);}.cls-55{fill:url(#New_Gradient_Swatch_1-52);}.cls-56{fill:url(#New_Gradient_Swatch_1-53);}.cls-57{fill:url(#New_Gradient_Swatch_1-54);}.cls-58{fill:url(#New_Gradient_Swatch_1-55);}.cls-59{fill:url(#New_Gradient_Swatch_1-56);}.cls-60{fill:url(#New_Gradient_Swatch_1-57);}.cls-61{fill:url(#New_Gradient_Swatch_1-58);}.cls-62{fill:url(#New_Gradient_Swatch_1-59);}.cls-63{fill:url(#New_Gradient_Swatch_1-60);}.cls-64{fill:url(#New_Gradient_Swatch_1-61);}.cls-65{fill:url(#New_Gradient_Swatch_1-62);}.cls-66{fill:url(#New_Gradient_Swatch_1-63);}.cls-67{fill:url(#New_Gradient_Swatch_1-64);}.cls-68{fill:url(#New_Gradient_Swatch_1-65);}.cls-69{fill:url(#New_Gradient_Swatch_1-66);}.cls-70{fill:url(#New_Gradient_Swatch_1-67);}.cls-71{fill:url(#New_Gradient_Swatch_1-68);}.cls-72{fill:url(#New_Gradient_Swatch_1-69);}.cls-73{fill:url(#New_Gradient_Swatch_1-70);}.cls-74{fill:url(#New_Gradient_Swatch_1-71);}.cls-75{fill:url(#New_Gradient_Swatch_1-72);}.cls-76{fill:url(#New_Gradient_Swatch_1-73);}.cls-77{fill:url(#New_Gradient_Swatch_1-74);}.cls-78{fill:url(#New_Gradient_Swatch_1-75);}.cls-79{fill:url(#New_Gradient_Swatch_1-76);}.cls-80{fill:url(#New_Gradient_Swatch_1-77);}.cls-81{fill:url(#New_Gradient_Swatch_1-78);}.cls-82{fill:url(#New_Gradient_Swatch_1-79);}.cls-83{fill:url(#New_Gradient_Swatch_1-80);}.cls-84{fill:url(#New_Gradient_Swatch_1-81);}.cls-85{fill:url(#New_Gradient_Swatch_1-82);}.cls-86{fill:url(#New_Gradient_Swatch_1-83);}.cls-87{fill:url(#New_Gradient_Swatch_1-84);}.cls-88{fill:url(#New_Gradient_Swatch_1-85);}.cls-89{fill:url(#New_Gradient_Swatch_1-86);}.cls-90{fill:url(#New_Gradient_Swatch_1-87);}.cls-91{fill:url(#New_Gradient_Swatch_1-88);}.cls-92{fill:url(#New_Gradient_Swatch_1-89);}.cls-93{fill:url(#New_Gradient_Swatch_1-90);}.cls-94{fill:url(#New_Gradient_Swatch_1-91);}.cls-95{fill:url(#New_Gradient_Swatch_1-92);}.cls-96{fill:url(#New_Gradient_Swatch_1-93);}.cls-97{fill:url(#New_Gradient_Swatch_1-94);}.cls-98{fill:url(#New_Gradient_Swatch_1-95);}.cls-99{fill:url(#New_Gradient_Swatch_1-96);}.cls-100{fill:url(#New_Gradient_Swatch_1-97);}.cls-101{filter:url(#luminosity-noclip);}</style><filter id="luminosity-noclip" x="8.61" y="-8236.2" width="62.9" height="32766" filterUnits="userSpaceOnUse" color-interpolation-filters="sRGB"><feFlood flood-color="#fff" result="bg"/><feBlend in="SourceGraphic" in2="bg"/></filter><mask id="mask" x="8.61" y="-8236.2" width="62.9" height="32766" maskUnits="userSpaceOnUse"><g class="cls-101"/></mask><radialGradient id="Безымянный_градиент_50" cx="42" cy="63.66" r="31.45" gradientTransform="translate(29.38 -10.95) rotate(25.36)" gradientUnits="userSpaceOnUse"><stop offset="0" stop-color="#fff"/><stop offset="0.12" stop-color="#f2f2f2"/><stop offset="0.34" stop-color="#d1d1d1"/><stop offset="0.63" stop-color="#9b9b9b"/><stop offset="0.98" stop-color="#515151"/><stop offset="1" stop-color="#4d4d4d"/></radialGradient><linearGradient id="New_Gradient_Swatch_1" x1="115.59" y1="77.91" x2="340.66" y2="77.91" gradientUnits="userSpaceOnUse"><stop offset="0" stop-color="#cf52fe"/><stop offset="1" stop-color="#19dbb6"/></linearGradient><linearGradient id="New_Gradient_Swatch_1-2" x1="103.34" y1="86.45" x2="110.82" y2="86.45" xlink:href="#New_Gradient_Swatch_1"/><linearGradient id="New_Gradient_Swatch_1-3" x1="108.23" y1="61.34" x2="301.1" y2="61.34" xlink:href="#New_Gradient_Swatch_1"/><linearGradient id="New_Gradient_Swatch_1-4" x1="298.85" y1="48.98" x2="477.91" y2="48.98" xlink:href="#New_Gradient_Swatch_1"/><linearGradient id="New_Gradient_Swatch_1-5" x1="67.84" y1="1.97" x2="205.82" y2="1.97" xlink:href="#New_Gradient_Swatch_1"/><linearGradient id="New_Gradient_Swatch_1-6" x1="203.51" y1="15.36" x2="482.25" y2="15.36" xlink:href="#New_Gradient_Swatch_1"/><linearGradient id="New_Gradient_Swatch_1-7" x1="108.64" y1="64.35" x2="490.23" y2="64.35" xlink:href="#New_Gradient_Swatch_1"/><linearGradient id="New_Gradient_Swatch_1-8" x1="446.88" y1="77.71" x2="477.36" y2="77.71" xlink:href="#New_Gradient_Swatch_1"/><linearGradient id="New_Gradient_Swatch_1-9" x1="419.48" y1="77.73" x2="449.96" y2="77.73" xlink:href="#New_Gradient_Swatch_1"/><linearGradient id="New_Gradient_Swatch_1-10" x1="392.08" y1="77.76" x2="422.56" y2="77.76" xlink:href="#New_Gradient_Swatch_1"/><linearGradient id="New_Gradient_Swatch_1-11" x1="364.68" y1="77.78" x2="395.16" y2="77.78" xlink:href="#New_Gradient_Swatch_1"/><linearGradient id="New_Gradient_Swatch_1-12" x1="337.28" y1="77.8" x2="367.76" y2="77.8" xlink:href="#New_Gradient_Swatch_1"/><linearGradient id="New_Gradient_Swatch_1-13" x1="99.78" y1="86.57" x2="495.33" y2="86.57" xlink:href="#New_Gradient_Swatch_1"/><linearGradient id="New_Gradient_Swatch_1-14" x1="111.86" y1="38.54" x2="319.81" y2="38.54" xlink:href="#New_Gradient_Swatch_1"/><linearGradient id="New_Gradient_Swatch_1-15" x1="377.65" y1="29.11" x2="396.72" y2="29.11" xlink:href="#New_Gradient_Swatch_1"/><linearGradient id="New_Gradient_Swatch_1-16" x1="318.06" y1="29.15" x2="337.13" y2="29.15" xlink:href="#New_Gradient_Swatch_1"/><linearGradient id="New_Gradient_Swatch_1-17" x1="332.95" y1="29.14" x2="352.03" y2="29.14" xlink:href="#New_Gradient_Swatch_1"/><linearGradient id="New_Gradient_Swatch_1-18" x1="347.85" y1="29.13" x2="366.93" y2="29.13" xlink:href="#New_Gradient_Swatch_1"/><linearGradient id="New_Gradient_Swatch_1-19" x1="362.75" y1="29.12" x2="381.82" y2="29.12" xlink:href="#New_Gradient_Swatch_1"/><linearGradient id="New_Gradient_Swatch_1-20" x1="452.14" y1="29.04" x2="471.21" y2="29.04" xlink:href="#New_Gradient_Swatch_1"/><linearGradient id="New_Gradient_Swatch_1-21" x1="392.55" y1="29.09" x2="411.62" y2="29.09" xlink:href="#New_Gradient_Swatch_1"/><linearGradient id="New_Gradient_Swatch_1-22" x1="407.44" y1="29.08" x2="426.52" y2="29.08" xlink:href="#New_Gradient_Swatch_1"/><linearGradient id="New_Gradient_Swatch_1-23" x1="422.34" y1="29.07" x2="441.42" y2="29.07" xlink:href="#New_Gradient_Swatch_1"/><linearGradient id="New_Gradient_Swatch_1-24" x1="437.24" y1="29.06" x2="456.31" y2="29.06" xlink:href="#New_Gradient_Swatch_1"/><linearGradient id="New_Gradient_Swatch_1-25" x1="236.91" y1="13.84" x2="249.49" y2="13.84" xlink:href="#New_Gradient_Swatch_1"/><linearGradient id="New_Gradient_Swatch_1-26" x1="189.15" y1="13.88" x2="201.73" y2="13.88" xlink:href="#New_Gradient_Swatch_1"/><linearGradient id="New_Gradient_Swatch_1-27" x1="201.09" y1="13.87" x2="213.67" y2="13.87" xlink:href="#New_Gradient_Swatch_1"/><linearGradient id="New_Gradient_Swatch_1-28" x1="213.03" y1="13.86" x2="225.61" y2="13.86" xlink:href="#New_Gradient_Swatch_1"/><linearGradient id="New_Gradient_Swatch_1-29" x1="224.97" y1="13.85" x2="237.55" y2="13.85" xlink:href="#New_Gradient_Swatch_1"/><linearGradient id="New_Gradient_Swatch_1-30" x1="296.62" y1="13.79" x2="309.2" y2="13.79" xlink:href="#New_Gradient_Swatch_1"/><linearGradient id="New_Gradient_Swatch_1-31" x1="248.86" y1="13.83" x2="261.43" y2="13.83" xlink:href="#New_Gradient_Swatch_1"/><linearGradient id="New_Gradient_Swatch_1-32" x1="260.8" y1="13.82" x2="273.38" y2="13.82" xlink:href="#New_Gradient_Swatch_1"/><linearGradient id="New_Gradient_Swatch_1-33" x1="272.74" y1="13.81" x2="285.32" y2="13.81" xlink:href="#New_Gradient_Swatch_1"/><linearGradient id="New_Gradient_Swatch_1-34" x1="284.68" y1="13.8" x2="297.26" y2="13.8" xlink:href="#New_Gradient_Swatch_1"/><linearGradient id="New_Gradient_Swatch_1-35" x1="117.5" y1="13.94" x2="130.07" y2="13.94" xlink:href="#New_Gradient_Swatch_1"/><linearGradient id="New_Gradient_Swatch_1-36" x1="69.73" y1="13.98" x2="82.31" y2="13.98" xlink:href="#New_Gradient_Swatch_1"/><linearGradient id="New_Gradient_Swatch_1-37" x1="81.67" y1="13.97" x2="94.25" y2="13.97" xlink:href="#New_Gradient_Swatch_1"/><linearGradient id="New_Gradient_Swatch_1-38" x1="93.61" y1="13.96" x2="106.19" y2="13.96" xlink:href="#New_Gradient_Swatch_1"/><linearGradient id="New_Gradient_Swatch_1-39" x1="105.56" y1="13.95" x2="118.13" y2="13.95" xlink:href="#New_Gradient_Swatch_1"/><linearGradient id="New_Gradient_Swatch_1-40" x1="177.21" y1="13.89" x2="189.78" y2="13.89" xlink:href="#New_Gradient_Swatch_1"/><linearGradient id="New_Gradient_Swatch_1-41" x1="129.44" y1="13.93" x2="142.02" y2="13.93" xlink:href="#New_Gradient_Swatch_1"/><linearGradient id="New_Gradient_Swatch_1-42" x1="141.38" y1="13.92" x2="153.96" y2="13.92" xlink:href="#New_Gradient_Swatch_1"/><linearGradient id="New_Gradient_Swatch_1-43" x1="153.32" y1="13.91" x2="165.9" y2="13.91" xlink:href="#New_Gradient_Swatch_1"/><linearGradient id="New_Gradient_Swatch_1-44" x1="165.26" y1="13.9" x2="177.84" y2="13.9" xlink:href="#New_Gradient_Swatch_1"/><linearGradient id="New_Gradient_Swatch_1-45" x1="104.22" y1="25.51" x2="478.7" y2="25.51" xlink:href="#New_Gradient_Swatch_1"/><linearGradient id="New_Gradient_Swatch_1-46" x1="22.39" y1="65.97" x2="97.2" y2="65.97" xlink:href="#New_Gradient_Swatch_1"/><filter id="luminosity-noclip-2" x="8.61" y="33.11" width="62.9" height="62.9" filterUnits="userSpaceOnUse" color-interpolation-filters="sRGB"><feFlood flood-color="#fff" result="bg"/><feBlend in="SourceGraphic" in2="bg"/></filter><mask id="mask-2" x="8.61" y="33.11" width="62.9" height="62.9" maskUnits="userSpaceOnUse"><g class="cls-1"><circle class="cls-2" cx="40.06" cy="64.56" r="31.45" transform="translate(-23.83 23.43) rotate(-25.41)"/></g></mask><linearGradient id="New_Gradient_Swatch_1-47" x1="8.61" y1="64.56" x2="71.52" y2="64.56" gradientTransform="translate(31.58 -10.95) rotate(25.41)" xlink:href="#New_Gradient_Swatch_1"/><linearGradient id="New_Gradient_Swatch_1-48" x1="76.33" y1="67.57" x2="80.07" y2="67.57" xlink:href="#New_Gradient_Swatch_1"/><linearGradient id="New_Gradient_Swatch_1-49" x1="69.83" y1="85.54" x2="74.36" y2="85.54" xlink:href="#New_Gradient_Swatch_1"/><linearGradient id="New_Gradient_Swatch_1-50" x1="72.28" y1="81.39" x2="76.68" y2="81.39" xlink:href="#New_Gradient_Swatch_1"/><linearGradient id="New_Gradient_Swatch_1-51" x1="74.16" y1="76.95" x2="78.43" y2="76.95" xlink:href="#New_Gradient_Swatch_1"/><linearGradient id="New_Gradient_Swatch_1-52" x1="75.51" y1="72.32" x2="79.55" y2="72.32" xlink:href="#New_Gradient_Swatch_1"/><linearGradient id="New_Gradient_Swatch_1-53" x1="66.9" y1="89.4" x2="71.51" y2="89.4" xlink:href="#New_Gradient_Swatch_1"/><linearGradient id="New_Gradient_Swatch_1-54" x1="51.53" y1="100.35" x2="55.89" y2="100.35" xlink:href="#New_Gradient_Swatch_1"/><linearGradient id="New_Gradient_Swatch_1-55" x1="55.82" y1="98.35" x2="60.32" y2="98.35" xlink:href="#New_Gradient_Swatch_1"/><linearGradient id="New_Gradient_Swatch_1-56" x1="59.86" y1="95.85" x2="64.44" y2="95.85" xlink:href="#New_Gradient_Swatch_1"/><linearGradient id="New_Gradient_Swatch_1-57" x1="63.59" y1="92.87" x2="68.21" y2="92.87" xlink:href="#New_Gradient_Swatch_1"/><linearGradient id="New_Gradient_Swatch_1-58" x1="47.01" y1="101.77" x2="51.18" y2="101.77" xlink:href="#New_Gradient_Swatch_1"/><linearGradient id="New_Gradient_Swatch_1-59" x1="27.87" y1="101.5" x2="32.09" y2="101.5" xlink:href="#New_Gradient_Swatch_1"/><linearGradient id="New_Gradient_Swatch_1-60" x1="32.69" y1="102.45" x2="36.68" y2="102.45" xlink:href="#New_Gradient_Swatch_1"/><linearGradient id="New_Gradient_Swatch_1-61" x1="37.61" y1="102.81" x2="41.41" y2="102.81" xlink:href="#New_Gradient_Swatch_1"/><linearGradient id="New_Gradient_Swatch_1-62" x1="42.4" y1="102.57" x2="46.34" y2="102.57" xlink:href="#New_Gradient_Swatch_1"/><linearGradient id="New_Gradient_Swatch_1-63" x1="23.22" y1="99.93" x2="27.62" y2="99.93" xlink:href="#New_Gradient_Swatch_1"/><linearGradient id="New_Gradient_Swatch_1-64" x1="7.94" y1="88.57" x2="12.53" y2="88.57" xlink:href="#New_Gradient_Swatch_1"/><linearGradient id="New_Gradient_Swatch_1-65" x1="11.15" y1="92.1" x2="15.78" y2="92.1" xlink:href="#New_Gradient_Swatch_1"/><linearGradient id="New_Gradient_Swatch_1-66" x1="14.79" y1="95.23" x2="19.39" y2="95.23" xlink:href="#New_Gradient_Swatch_1"/><linearGradient id="New_Gradient_Swatch_1-67" x1="18.85" y1="97.84" x2="23.37" y2="97.84" xlink:href="#New_Gradient_Swatch_1"/><linearGradient id="New_Gradient_Swatch_1-68" x1="5.18" y1="84.65" x2="9.68" y2="84.65" xlink:href="#New_Gradient_Swatch_1"/><linearGradient id="New_Gradient_Swatch_1-69" x1="0" y1="66.49" x2="3.72" y2="66.49" xlink:href="#New_Gradient_Swatch_1"/><linearGradient id="New_Gradient_Swatch_1-70" x1="0.41" y1="71.26" x2="4.36" y2="71.26" xlink:href="#New_Gradient_Swatch_1"/><linearGradient id="New_Gradient_Swatch_1-71" x1="1.41" y1="75.92" x2="5.62" y2="75.92" xlink:href="#New_Gradient_Swatch_1"/><linearGradient id="New_Gradient_Swatch_1-72" x1="3" y1="80.4" x2="7.4" y2="80.4" xlink:href="#New_Gradient_Swatch_1"/><linearGradient id="New_Gradient_Swatch_1-73" x1="0.06" y1="61.55" x2="3.8" y2="61.55" xlink:href="#New_Gradient_Swatch_1"/><linearGradient id="New_Gradient_Swatch_1-74" x1="5.77" y1="43.58" x2="10.3" y2="43.58" xlink:href="#New_Gradient_Swatch_1"/><linearGradient id="New_Gradient_Swatch_1-75" x1="3.45" y1="47.73" x2="7.85" y2="47.73" xlink:href="#New_Gradient_Swatch_1"/><linearGradient id="New_Gradient_Swatch_1-76" x1="1.7" y1="52.17" x2="5.97" y2="52.17" xlink:href="#New_Gradient_Swatch_1"/><linearGradient id="New_Gradient_Swatch_1-77" x1="0.58" y1="56.8" x2="4.62" y2="56.8" xlink:href="#New_Gradient_Swatch_1"/><linearGradient id="New_Gradient_Swatch_1-78" x1="8.62" y1="39.72" x2="13.23" y2="39.72" xlink:href="#New_Gradient_Swatch_1"/><linearGradient id="New_Gradient_Swatch_1-79" x1="24.24" y1="28.77" x2="28.6" y2="28.77" xlink:href="#New_Gradient_Swatch_1"/><linearGradient id="New_Gradient_Swatch_1-80" x1="19.81" y1="30.77" x2="24.31" y2="30.77" xlink:href="#New_Gradient_Swatch_1"/><linearGradient id="New_Gradient_Swatch_1-81" x1="15.69" y1="33.28" x2="20.27" y2="33.28" xlink:href="#New_Gradient_Swatch_1"/><linearGradient id="New_Gradient_Swatch_1-82" x1="11.92" y1="36.26" x2="16.54" y2="36.26" xlink:href="#New_Gradient_Swatch_1"/><linearGradient id="New_Gradient_Swatch_1-83" x1="28.95" y1="27.36" x2="33.11" y2="27.36" xlink:href="#New_Gradient_Swatch_1"/><linearGradient id="New_Gradient_Swatch_1-84" x1="48.04" y1="27.62" x2="52.25" y2="27.62" xlink:href="#New_Gradient_Swatch_1"/><linearGradient id="New_Gradient_Swatch_1-85" x1="43.45" y1="26.67" x2="47.44" y2="26.67" xlink:href="#New_Gradient_Swatch_1"/><linearGradient id="New_Gradient_Swatch_1-86" x1="38.72" y1="26.31" x2="42.52" y2="26.31" xlink:href="#New_Gradient_Swatch_1"/><linearGradient id="New_Gradient_Swatch_1-87" x1="33.79" y1="26.56" x2="37.72" y2="26.56" xlink:href="#New_Gradient_Swatch_1"/><linearGradient id="New_Gradient_Swatch_1-88" x1="52.51" y1="29.19" x2="56.9" y2="29.19" xlink:href="#New_Gradient_Swatch_1"/><linearGradient id="New_Gradient_Swatch_1-89" x1="67.6" y1="40.56" x2="72.19" y2="40.56" xlink:href="#New_Gradient_Swatch_1"/><linearGradient id="New_Gradient_Swatch_1-90" x1="64.35" y1="37.02" x2="68.98" y2="37.02" xlink:href="#New_Gradient_Swatch_1"/><linearGradient id="New_Gradient_Swatch_1-91" x1="60.74" y1="33.89" x2="65.34" y2="33.89" xlink:href="#New_Gradient_Swatch_1"/><linearGradient id="New_Gradient_Swatch_1-92" x1="56.75" y1="31.29" x2="61.28" y2="31.29" xlink:href="#New_Gradient_Swatch_1"/><linearGradient id="New_Gradient_Swatch_1-93" x1="70.44" y1="44.48" x2="74.95" y2="44.48" xlink:href="#New_Gradient_Swatch_1"/><linearGradient id="New_Gradient_Swatch_1-94" x1="76.41" y1="62.63" x2="80.13" y2="62.63" xlink:href="#New_Gradient_Swatch_1"/><linearGradient id="New_Gradient_Swatch_1-95" x1="75.77" y1="57.86" x2="79.72" y2="57.86" xlink:href="#New_Gradient_Swatch_1"/><linearGradient id="New_Gradient_Swatch_1-96" x1="74.51" y1="53.21" x2="78.71" y2="53.21" xlink:href="#New_Gradient_Swatch_1"/><linearGradient id="New_Gradient_Swatch_1-97" x1="72.73" y1="48.72" x2="77.13" y2="48.72" xlink:href="#New_Gradient_Swatch_1"/></defs><title>loading_01_purple_green</title><g id="Layer_2" data-name="Layer 2"><g id="Layer_1-2" data-name="Layer 1"><polygon class="cls-3" points="115.59 93.77 332.46 93.59 340.66 62.04 122.3 62.22 115.59 93.77"/><path class="cls-4" d="M104.24,100.58l-.19,0a.89.89,0,0,1-.69-1.07L109,73a.9.9,0,1,1,1.76.38l-5.68,26.45A.9.9,0,0,1,104.24,100.58Z"/><path class="cls-5" d="M109.92,74.92a1.45,1.45,0,0,1-.35,0,1.68,1.68,0,0,1-1.3-2l4.9-22.82a1.7,1.7,0,0,1,1.65-1.34l184.58-1h0a1.69,1.69,0,0,1,0,3.38l-183.23,1-4.62,21.5A1.69,1.69,0,0,1,109.92,74.92Z"/><path class="cls-6" d="M299.41,50a.56.56,0,0,1,0-1.12L477.34,48h0a.57.57,0,0,1,.57.56.57.57,0,0,1-.56.57L299.41,50Z"/><path class="cls-7" d="M205.25,2.47,68.4,2.59a.57.57,0,0,1,0-1.13l136.85-.11a.56.56,0,1,1,0,1.12Z"/><path class="cls-8" d="M480.56,30.72a1.69,1.69,0,0,1-1.6-1.14l-9-26.2L205.2,3.6a1.69,1.69,0,1,1,0-3.38l266-.22a1.7,1.7,0,0,1,1.6,1.14l9.38,27.34a1.7,1.7,0,0,1-1.05,2.15A1.81,1.81,0,0,1,480.56,30.72Z"/><path class="cls-9" d="M475.41,99.93l-366.2.31a.56.56,0,0,1-.45-.22.58.58,0,0,1-.1-.48l10.26-43.16a.57.57,0,0,1,.55-.44l359.82-.8h0a.57.57,0,0,1,.57.56.58.58,0,0,1-.57.57l-359.38.8-10,42L475,98.81l14.07-43.23L480,29.21a.56.56,0,0,1,.35-.71.55.55,0,0,1,.72.35L490.2,55.4a.53.53,0,0,1,0,.35L476,99.54A.56.56,0,0,1,475.41,99.93Z"/><polygon class="cls-10" points="446.88 93.5 468.46 93.48 477.36 61.92 455.77 61.94 446.88 93.5"/><polygon class="cls-11" points="419.48 93.52 441.06 93.5 449.96 61.95 428.37 61.96 419.48 93.52"/><polygon class="cls-12" points="392.08 93.55 413.67 93.53 422.56 61.97 400.97 61.99 392.08 93.55"/><polygon class="cls-13" points="364.68 93.57 386.27 93.55 395.16 61.99 373.57 62.01 364.68 93.57"/><polygon class="cls-14" points="337.28 93.59 358.87 93.57 367.76 62.01 346.17 62.03 337.28 93.59"/><path class="cls-15" d="M102.6,114.06a2.82,2.82,0,0,1,0-5.64l372.73-.66,14.5-46.69a2.82,2.82,0,1,1,5.38,1.68l-15.11,48.66a2.83,2.83,0,0,1-2.69,2l-374.8.67Z"/><path class="cls-16" d="M112.83,34.24l204.71-.17a1,1,0,0,1,.95.87l1.3,6.53a1.1,1.1,0,0,1-1,1.38L130.12,43a.8.8,0,0,1-.3-.06l-17.29-6.51C111.48,36,111.73,34.24,112.83,34.24Z"/><polygon class="cls-17" points="385.13 42.69 396.72 42.68 389.24 15.52 377.65 15.53 385.13 42.69"/><polygon class="cls-18" points="325.54 42.74 337.13 42.73 329.64 15.57 318.06 15.58 325.54 42.74"/><polygon class="cls-19" points="340.44 42.73 352.03 42.72 344.54 15.56 332.95 15.56 340.44 42.73"/><polygon class="cls-20" points="355.34 42.72 366.93 42.71 359.44 15.54 347.85 15.55 355.34 42.72"/><polygon class="cls-21" points="370.24 42.7 381.82 42.7 374.34 15.53 362.75 15.54 370.24 42.7"/><polygon class="cls-22" points="459.63 42.63 471.21 42.62 463.73 15.46 452.14 15.47 459.63 42.63"/><polygon class="cls-23" points="400.03 42.68 411.62 42.67 404.13 15.51 392.55 15.52 400.03 42.68"/><polygon class="cls-24" points="414.93 42.67 426.52 42.66 419.03 15.49 407.44 15.5 414.93 42.67"/><polygon class="cls-25" points="429.83 42.66 441.42 42.65 433.93 15.48 422.34 15.49 429.83 42.66"/><polygon class="cls-26" points="444.73 42.64 456.31 42.63 448.83 15.47 437.24 15.48 444.73 42.64"/><polygon class="cls-27" points="240.25 20.46 249.49 20.45 246.16 7.23 236.91 7.23 240.25 20.46"/><polygon class="cls-28" points="192.48 20.5 201.72 20.49 198.39 7.27 189.15 7.27 192.48 20.5"/><polygon class="cls-29" points="204.42 20.49 213.67 20.48 210.34 7.26 201.09 7.26 204.42 20.49"/><polygon class="cls-30" points="216.36 20.48 225.61 20.47 222.28 7.25 213.03 7.25 216.36 20.48"/><polygon class="cls-31" points="228.31 20.47 237.55 20.46 234.22 7.24 224.97 7.24 228.31 20.47"/><polygon class="cls-32" points="299.96 20.41 309.2 20.4 305.87 7.18 296.62 7.18 299.96 20.41"/><polygon class="cls-33" points="252.19 20.45 261.43 20.44 258.1 7.22 248.86 7.22 252.19 20.45"/><polygon class="cls-34" points="264.13 20.44 273.38 20.43 270.04 7.21 260.8 7.21 264.13 20.44"/><polygon class="cls-35" points="276.07 20.43 285.32 20.42 281.99 7.2 272.74 7.21 276.07 20.43"/><polygon class="cls-36" points="288.01 20.42 297.26 20.41 293.93 7.19 284.68 7.2 288.01 20.42"/><polygon class="cls-37" points="120.83 20.56 130.07 20.55 126.74 7.33 117.5 7.33 120.83 20.56"/><polygon class="cls-38" points="73.06 20.6 82.31 20.59 78.97 7.37 69.73 7.37 73.06 20.6"/><polygon class="cls-39" points="85 20.59 94.25 20.58 90.92 7.36 81.67 7.36 85 20.59"/><polygon class="cls-40" points="96.94 20.58 106.19 20.57 102.86 7.35 93.61 7.35 96.94 20.58"/><polygon class="cls-41" points="108.89 20.57 118.13 20.56 114.8 7.34 105.56 7.34 108.89 20.57"/><polygon class="cls-42" points="180.54 20.51 189.78 20.5 186.45 7.28 177.21 7.28 180.54 20.51"/><polygon class="cls-43" points="132.77 20.55 142.02 20.54 138.68 7.32 129.44 7.32 132.77 20.55"/><polygon class="cls-44" points="144.71 20.54 153.96 20.53 150.63 7.31 141.38 7.31 144.71 20.54"/><polygon class="cls-45" points="156.66 20.53 165.9 20.52 162.57 7.3 153.32 7.3 156.66 20.53"/><polygon class="cls-46" points="168.6 20.52 177.84 20.51 174.51 7.29 165.26 7.29 168.6 20.52"/><path class="cls-47" d="M477.34,44A1.35,1.35,0,0,1,476,43L466.94,9.76l-153.46.12,3.82,19A1.33,1.33,0,0,1,317,30a1.42,1.42,0,0,1-1,.5l-210.4-.26a1.35,1.35,0,1,1,0-2.7h0l208.75.25-3.82-19a1.35,1.35,0,0,1,1.33-1.62L468,7.05a1.34,1.34,0,0,1,1.3,1l9.37,34.22a1.36,1.36,0,0,1-.95,1.66A1.12,1.12,0,0,1,477.34,44Z"/><path class="cls-48" d="M84.4,106.6,23,106.65a.56.56,0,1,1,0-1.12l61,0L96,51.63,69.36,26.25a.56.56,0,0,1,0-.8.56.56,0,0,1,.79,0L97,51a.59.59,0,0,1,.16.54L85,106.16A.57.57,0,0,1,84.4,106.6Z"/><g class="cls-49"><circle class="cls-50" cx="40.06" cy="64.56" r="31.45" transform="translate(-23.83 23.43) rotate(-25.41)"/></g><path class="cls-51" d="M76.33,68.52c.09-.76.09-1.52.14-2.28a.65.65,0,0,1,.66-.6l2.34.07a.64.64,0,0,1,.6.69c0,.84-.06,1.68-.15,2.51a.69.69,0,0,1-.73.59l-2.32-.29A.62.62,0,0,1,76.33,68.52Z"/><path class="cls-52" d="M70,85.47a20.19,20.19,0,0,0,1.23-1.92.65.65,0,0,1,.87-.21l2,1.19a.65.65,0,0,1,.2.9,21.08,21.08,0,0,1-1.36,2.11.67.67,0,0,1-.92.17l-1.89-1.37A.62.62,0,0,1,70,85.47Z"/><path class="cls-53" d="M72.34,81.57l1-2.06a.66.66,0,0,1,.85-.3l2.15.92a.62.62,0,0,1,.28.86l-1.08,2.27a.63.63,0,0,1-.87.29l-2-1.13A.66.66,0,0,1,72.34,81.57Z"/><path class="cls-54" d="M74.19,77.39c.26-.71.54-1.42.77-2.15a.62.62,0,0,1,.76-.42l2.25.65a.67.67,0,0,1,.44.83c-.26.79-.56,1.57-.85,2.36a.63.63,0,0,1-.82.4l-2.17-.86A.65.65,0,0,1,74.19,77.39Z"/><path class="cls-55" d="M75.53,73l.29-1.1L76,70.79a.63.63,0,0,1,.72-.52l2.31.36a.66.66,0,0,1,.52.77l-.19,1.24L79,73.85a.65.65,0,0,1-.78.5L76,73.78A.63.63,0,0,1,75.53,73Z"/><path class="cls-56" d="M67.06,89.06c.49-.58,1.06-1.1,1.5-1.73a.6.6,0,0,1,.86-.1l1.86,1.43a.67.67,0,0,1,.09.92,24.66,24.66,0,0,1-1.65,1.9.63.63,0,0,1-.91.07L67.1,90A.64.64,0,0,1,67.06,89.06Z"/><path class="cls-57" d="M52,99l2.14-.79a.66.66,0,0,1,.82.33l.93,2.15a.64.64,0,0,1-.36.85l-2.36.86a.62.62,0,0,1-.83-.36l-.73-2.23A.66.66,0,0,1,52,99Z"/><path class="cls-58" d="M56.16,97.27a14.92,14.92,0,0,0,2-1.06.63.63,0,0,1,.85.22l1.2,2a.67.67,0,0,1-.25.9,20.41,20.41,0,0,1-2.22,1.17.65.65,0,0,1-.88-.28l-1-2.12A.64.64,0,0,1,56.16,97.27Z"/><path class="cls-59" d="M60.14,95c.66-.39,1.23-.9,1.85-1.34a.66.66,0,0,1,.89.13l1.44,1.84a.65.65,0,0,1-.16.91c-.68.48-1.31,1-2,1.47a.68.68,0,0,1-.92-.18l-1.26-2A.61.61,0,0,1,60.14,95Z"/><path class="cls-60" d="M63.79,92.26l1.69-1.54a.66.66,0,0,1,.9,0L68,92.4a.61.61,0,0,1-.05.9L66.13,95a.62.62,0,0,1-.9,0l-1.49-1.8A.66.66,0,0,1,63.79,92.26Z"/><path class="cls-61" d="M47.52,100.29l2.21-.57a.66.66,0,0,1,.77.45l.66,2.25a.63.63,0,0,1-.48.77l-2.43.63a.68.68,0,0,1-.79-.51L47,101A.61.61,0,0,1,47.52,100.29Z"/><path class="cls-62" d="M29.4,99.47l2.22.56a.67.67,0,0,1,.46.77l-.5,2.29a.64.64,0,0,1-.8.45l-2.43-.63a.65.65,0,0,1-.45-.81l.72-2.23A.62.62,0,0,1,29.4,99.47Z"/><path class="cls-63" d="M33.86,100.49l2.26.34a.64.64,0,0,1,.55.69l-.21,2.33a.64.64,0,0,1-.73.57L33.25,104a.62.62,0,0,1-.55-.72l.43-2.3A.67.67,0,0,1,33.86,100.49Z"/><path class="cls-64" d="M38.41,101a19.28,19.28,0,0,0,2.28,0,.62.62,0,0,1,.64.6l.08,2.34a.67.67,0,0,1-.66.67,20.87,20.87,0,0,1-2.5-.06.65.65,0,0,1-.64-.66l.14-2.34A.64.64,0,0,1,38.41,101Z"/><path class="cls-65" d="M43,100.91a15.63,15.63,0,0,0,2.27-.27.64.64,0,0,1,.71.53l.37,2.31a.66.66,0,0,1-.57.73,17.43,17.43,0,0,1-2.49.29.66.66,0,0,1-.72-.6l-.14-2.33A.61.61,0,0,1,43,100.91Z"/><path class="cls-66" d="M25.1,97.82a16.22,16.22,0,0,0,2.12.86.64.64,0,0,1,.36.81l-.79,2.2a.63.63,0,0,1-.84.36,17.45,17.45,0,0,1-2.33-.94.67.67,0,0,1-.34-.87l1-2.11A.62.62,0,0,1,25.1,97.82Z"/><path class="cls-67" d="M11,86.51a17.43,17.43,0,0,0,1.42,1.79.62.62,0,0,1-.06.87l-1.75,1.55a.67.67,0,0,1-.93-.08,22.72,22.72,0,0,1-1.56-2,.65.65,0,0,1,.11-.92l1.89-1.37A.63.63,0,0,1,11,86.51Z"/><path class="cls-68" d="M13.92,90a20.53,20.53,0,0,0,1.66,1.57.64.64,0,0,1,0,.89l-1.55,1.76a.64.64,0,0,1-.91,0,22.93,22.93,0,0,1-1.82-1.73.67.67,0,0,1,0-.93L13.05,90A.61.61,0,0,1,13.92,90Z"/><path class="cls-69" d="M17.31,93.07l1.83,1.36a.68.68,0,0,1,.14.9L18,97.26a.63.63,0,0,1-.9.12l-2-1.5a.63.63,0,0,1-.14-.9l1.5-1.8A.65.65,0,0,1,17.31,93.07Z"/><path class="cls-70" d="M21.06,95.68c.66.38,1.29.82,2,1.15a.62.62,0,0,1,.27.83l-1.06,2.08a.66.66,0,0,1-.9.27c-.75-.36-1.44-.84-2.17-1.26a.66.66,0,0,1-.24-.89l1.26-2A.64.64,0,0,1,21.06,95.68Z"/><path class="cls-71" d="M8.41,82.67l1.19,2a.68.68,0,0,1-.19.88L7.48,86.82a.63.63,0,0,1-.89-.21L5.28,84.46a.63.63,0,0,1,.2-.88l2.05-1.13A.66.66,0,0,1,8.41,82.67Z"/><path class="cls-72" d="M3.6,65.21l.12,2.28a.67.67,0,0,1-.6.68l-2.33.22a.62.62,0,0,1-.66-.61L0,65.27a.62.62,0,0,1,.6-.68H2.94A.67.67,0,0,1,3.6,65.21Z"/><path class="cls-73" d="M4,69.77,4.34,72a.62.62,0,0,1-.46.74l-2.29.51a.67.67,0,0,1-.78-.51L.42,70.28a.63.63,0,0,1,.52-.75l2.32-.29A.63.63,0,0,1,4,69.77Z"/><path class="cls-74" d="M4.91,74.24l.29,1.11c.11.36.25.72.38,1.07a.62.62,0,0,1-.38.8L3,78a.67.67,0,0,1-.83-.42c-.13-.4-.29-.79-.42-1.19L1.44,75.2a.64.64,0,0,1,.44-.81l2.27-.59A.63.63,0,0,1,4.91,74.24Z"/><path class="cls-75" d="M6.37,78.58c.29.7.65,1.37,1,2.06a.65.65,0,0,1-.29.85L5,82.56a.64.64,0,0,1-.86-.33C3.76,81.48,3.36,80.74,3,80a.68.68,0,0,1,.36-.87l2.17-.86A.61.61,0,0,1,6.37,78.58Z"/><path class="cls-76" d="M3.79,60.6c-.09.76-.08,1.53-.13,2.29a.65.65,0,0,1-.67.59L.66,63.42a.65.65,0,0,1-.6-.7c.05-.83.05-1.67.15-2.5a.68.68,0,0,1,.73-.59l2.32.29A.59.59,0,0,1,3.79,60.6Z"/><path class="cls-77" d="M10.18,43.65a20.28,20.28,0,0,0-1.24,1.92.64.64,0,0,1-.86.21l-2-1.19a.65.65,0,0,1-.19-.9,22.14,22.14,0,0,1,1.36-2.1.68.68,0,0,1,.92-.18L10,42.79A.61.61,0,0,1,10.18,43.65Z"/><path class="cls-78" d="M7.79,47.55l-1,2.06a.68.68,0,0,1-.85.31L3.8,49a.62.62,0,0,1-.29-.86L4.6,45.87a.63.63,0,0,1,.87-.3L7.52,46.7A.67.67,0,0,1,7.79,47.55Z"/><path class="cls-79" d="M5.94,51.73c-.26.72-.54,1.43-.78,2.15a.59.59,0,0,1-.75.42l-2.25-.64a.68.68,0,0,1-.44-.83c.26-.8.56-1.58.84-2.37a.64.64,0,0,1,.82-.4l2.18.86A.66.66,0,0,1,5.94,51.73Z"/><path class="cls-80" d="M4.6,56.1l-.29,1.11-.17,1.13a.63.63,0,0,1-.72.51l-2.31-.36a.65.65,0,0,1-.52-.76l.19-1.24.31-1.22a.66.66,0,0,1,.78-.5l2.27.58A.62.62,0,0,1,4.6,56.1Z"/><path class="cls-81" d="M13.07,40.07c-.49.58-1.06,1.09-1.5,1.72a.62.62,0,0,1-.87.11L8.85,40.47a.68.68,0,0,1-.09-.93c.48-.69,1.1-1.26,1.64-1.9a.65.65,0,0,1,.92-.06l1.7,1.6A.63.63,0,0,1,13.07,40.07Z"/><path class="cls-82" d="M28.18,30.09,26,30.87a.64.64,0,0,1-.82-.33l-.93-2.14a.64.64,0,0,1,.36-.85L27,26.68a.63.63,0,0,1,.83.37l.73,2.22A.67.67,0,0,1,28.18,30.09Z"/><path class="cls-83" d="M24,31.85a16.15,16.15,0,0,0-2,1.06.61.61,0,0,1-.85-.22l-1.2-2a.65.65,0,0,1,.25-.89,18.8,18.8,0,0,1,2.22-1.17.65.65,0,0,1,.88.27l1,2.12A.64.64,0,0,1,24,31.85Z"/><path class="cls-84" d="M20,34.1c-.66.39-1.23.9-1.85,1.34a.65.65,0,0,1-.89-.13l-1.44-1.84a.64.64,0,0,1,.16-.9c.68-.49,1.31-1,2-1.47a.66.66,0,0,1,.92.18l1.25,2A.6.6,0,0,1,20,34.1Z"/><path class="cls-85" d="M16.34,36.87,14.65,38.4a.67.67,0,0,1-.9,0l-1.66-1.65a.62.62,0,0,1,.05-.91L14,34.13a.63.63,0,0,1,.91,0L16.39,36A.68.68,0,0,1,16.34,36.87Z"/><path class="cls-86" d="M32.61,28.83l-2.21.57a.64.64,0,0,1-.77-.45L29,26.71a.63.63,0,0,1,.48-.78l2.43-.63a.68.68,0,0,1,.79.51l.43,2.3A.6.6,0,0,1,32.61,28.83Z"/><path class="cls-87" d="M50.73,29.66l-2.22-.57a.66.66,0,0,1-.46-.77l.5-2.28a.63.63,0,0,1,.8-.45l2.43.62a.66.66,0,0,1,.45.82l-.73,2.22A.63.63,0,0,1,50.73,29.66Z"/><path class="cls-88" d="M46.27,28.63,44,28.29a.65.65,0,0,1-.56-.68l.22-2.33a.63.63,0,0,1,.73-.57l2.48.37a.63.63,0,0,1,.55.73L47,28.11A.66.66,0,0,1,46.27,28.63Z"/><path class="cls-89" d="M41.72,28.15a19.28,19.28,0,0,0-2.28,0,.61.61,0,0,1-.64-.6l-.08-2.34a.67.67,0,0,1,.66-.66,23.18,23.18,0,0,1,2.5.05.65.65,0,0,1,.64.67l-.14,2.33A.64.64,0,0,1,41.72,28.15Z"/><path class="cls-90" d="M37.15,28.22a14.35,14.35,0,0,0-2.27.26.64.64,0,0,1-.71-.53l-.37-2.31a.65.65,0,0,1,.57-.73,19,19,0,0,1,2.49-.28.66.66,0,0,1,.72.59l.14,2.34A.62.62,0,0,1,37.15,28.22Z"/><path class="cls-91" d="M55,31.3a16.22,16.22,0,0,0-2.12-.86.64.64,0,0,1-.36-.81l.78-2.2a.65.65,0,0,1,.85-.36,19.62,19.62,0,0,1,2.33.95.66.66,0,0,1,.34.86l-1,2.12A.62.62,0,0,1,55,31.3Z"/><path class="cls-92" d="M69.17,42.62a18.91,18.91,0,0,0-1.42-1.79.63.63,0,0,1,.06-.88l1.75-1.55a.68.68,0,0,1,.93.08,22.86,22.86,0,0,1,1.56,2,.65.65,0,0,1-.11.91l-1.89,1.38A.64.64,0,0,1,69.17,42.62Z"/><path class="cls-93" d="M66.21,39.13a22.45,22.45,0,0,0-1.66-1.57.64.64,0,0,1,0-.89l1.54-1.76a.65.65,0,0,1,.92,0,24.79,24.79,0,0,1,1.82,1.73.67.67,0,0,1,0,.93l-1.71,1.61A.62.62,0,0,1,66.21,39.13Z"/><path class="cls-94" d="M62.82,36.06,61,34.69a.67.67,0,0,1-.14-.89l1.31-1.94a.63.63,0,0,1,.9-.12l2,1.5a.62.62,0,0,1,.13.9L63.71,36A.66.66,0,0,1,62.82,36.06Z"/><path class="cls-95" d="M59.06,33.45c-.66-.38-1.28-.83-2-1.16a.61.61,0,0,1-.27-.82l1.06-2.09a.68.68,0,0,1,.9-.27c.75.37,1.44.85,2.16,1.27a.63.63,0,0,1,.24.88l-1.25,2A.65.65,0,0,1,59.06,33.45Z"/><path class="cls-96" d="M71.72,46.45l-1.19-2a.67.67,0,0,1,.19-.87l1.93-1.32a.62.62,0,0,1,.89.21l1.31,2.14a.62.62,0,0,1-.21.88l-2,1.13A.65.65,0,0,1,71.72,46.45Z"/><path class="cls-97" d="M76.53,63.92l-.12-2.29A.65.65,0,0,1,77,61l2.33-.23a.62.62,0,0,1,.66.62l.13,2.5a.62.62,0,0,1-.6.68H77.19A.66.66,0,0,1,76.53,63.92Z"/><path class="cls-98" d="M76.14,59.36l-.35-2.26a.61.61,0,0,1,.46-.74l2.28-.51a.68.68,0,0,1,.79.52l.39,2.48a.62.62,0,0,1-.52.74l-2.33.3A.66.66,0,0,1,76.14,59.36Z"/><path class="cls-99" d="M75.22,54.88l-.29-1.11c-.11-.36-.25-.71-.38-1.07a.62.62,0,0,1,.38-.8l2.2-.79a.65.65,0,0,1,.82.42c.14.39.3.78.43,1.18l.31,1.22a.65.65,0,0,1-.44.81L76,55.32A.63.63,0,0,1,75.22,54.88Z"/><path class="cls-100" d="M73.76,50.55c-.29-.71-.65-1.38-1-2.07a.64.64,0,0,1,.29-.84l2.08-1.07a.64.64,0,0,1,.86.32c.35.76.75,1.5,1.06,2.27a.67.67,0,0,1-.35.87l-2.17.86A.61.61,0,0,1,73.76,50.55Z"/></g></g></svg>