<svg xmlns="http://www.w3.org/2000/svg" xmlns:xlink="http://www.w3.org/1999/xlink" viewBox="0 0 496.46 157.44"><defs><style>.cls-1{opacity:0.3;fill:url(#New_Gradient_Swatch_1);}.cls-2{fill:url(#New_Gradient_Swatch_1-2);}.cls-3{fill:url(#New_Gradient_Swatch_1-3);}.cls-4{fill:url(#New_Gradient_Swatch_1-4);}.cls-5{fill:url(#New_Gradient_Swatch_1-5);}.cls-6{fill:url(#New_Gradient_Swatch_1-6);}.cls-7{fill:url(#New_Gradient_Swatch_1-7);}.cls-8{fill:url(#New_Gradient_Swatch_1-8);}.cls-9{fill:url(#New_Gradient_Swatch_1-9);}.cls-10{fill:url(#New_Gradient_Swatch_1-10);}.cls-11{fill:url(#New_Gradient_Swatch_1-11);}.cls-12{fill:url(#New_Gradient_Swatch_1-12);}.cls-13{fill:url(#New_Gradient_Swatch_1-13);}.cls-14{fill:url(#New_Gradient_Swatch_1-14);}.cls-15{fill:url(#New_Gradient_Swatch_1-15);}.cls-16{fill:url(#New_Gradient_Swatch_1-16);}.cls-17{fill:url(#New_Gradient_Swatch_1-17);}.cls-18{fill:url(#New_Gradient_Swatch_1-18);}.cls-19{fill:url(#New_Gradient_Swatch_1-19);}.cls-20{fill:url(#New_Gradient_Swatch_1-20);}.cls-21{fill:url(#New_Gradient_Swatch_1-21);}.cls-22{fill:url(#New_Gradient_Swatch_1-22);}.cls-23{fill:url(#New_Gradient_Swatch_1-23);}.cls-24{fill:url(#New_Gradient_Swatch_1-24);}.cls-25{fill:url(#New_Gradient_Swatch_1-25);}.cls-26{fill:url(#New_Gradient_Swatch_1-26);}.cls-27{fill:url(#New_Gradient_Swatch_1-27);}.cls-28{fill:url(#New_Gradient_Swatch_1-28);}.cls-29{fill:url(#New_Gradient_Swatch_1-29);}.cls-30{fill:url(#New_Gradient_Swatch_1-30);}.cls-31{fill:url(#New_Gradient_Swatch_1-31);}.cls-32{fill:url(#New_Gradient_Swatch_1-32);}.cls-33{fill:url(#New_Gradient_Swatch_1-33);}.cls-34{fill:url(#New_Gradient_Swatch_1-34);}.cls-35{fill:url(#New_Gradient_Swatch_1-35);}.cls-36{fill:url(#New_Gradient_Swatch_1-36);}.cls-37{fill:url(#New_Gradient_Swatch_1-37);}.cls-38{fill:url(#New_Gradient_Swatch_1-38);}.cls-39{fill:url(#New_Gradient_Swatch_1-39);}</style><linearGradient id="New_Gradient_Swatch_1" x1="141.42" y1="89.31" x2="474.79" y2="89.31" gradientUnits="userSpaceOnUse"><stop offset="0" stop-color="#cf52fe"/><stop offset="1" stop-color="#19dbb6"/></linearGradient><linearGradient id="New_Gradient_Swatch_1-2" x1="10.23" y1="68.46" x2="126.69" y2="68.46" xlink:href="#New_Gradient_Swatch_1"/><linearGradient id="New_Gradient_Swatch_1-3" x1="35.46" y1="68.46" x2="101.46" y2="68.46" xlink:href="#New_Gradient_Swatch_1"/><linearGradient id="New_Gradient_Swatch_1-4" x1="1.82" y1="68.46" x2="135.1" y2="68.46" xlink:href="#New_Gradient_Swatch_1"/><linearGradient id="New_Gradient_Swatch_1-5" x1="28.36" y1="68.46" x2="108.57" y2="68.46" xlink:href="#New_Gradient_Swatch_1"/><linearGradient id="New_Gradient_Swatch_1-6" x1="31.71" y1="68.46" x2="105.21" y2="68.46" xlink:href="#New_Gradient_Swatch_1"/><linearGradient id="New_Gradient_Swatch_1-7" x1="0" y1="68.46" x2="136.92" y2="68.46" xlink:href="#New_Gradient_Swatch_1"/><linearGradient id="New_Gradient_Swatch_1-8" x1="47.3" y1="68.46" x2="89.63" y2="68.46" xlink:href="#New_Gradient_Swatch_1"/><linearGradient id="New_Gradient_Swatch_1-9" x1="146.44" y1="89.15" x2="549.43" y2="90.02" xlink:href="#New_Gradient_Swatch_1"/><linearGradient id="New_Gradient_Swatch_1-10" x1="146.33" y1="88.85" x2="549.32" y2="89.73" xlink:href="#New_Gradient_Swatch_1"/><linearGradient id="New_Gradient_Swatch_1-11" x1="146.36" y1="88.92" x2="549.35" y2="89.8" xlink:href="#New_Gradient_Swatch_1"/><linearGradient id="New_Gradient_Swatch_1-12" x1="146.38" y1="89" x2="549.38" y2="89.87" xlink:href="#New_Gradient_Swatch_1"/><linearGradient id="New_Gradient_Swatch_1-13" x1="146.41" y1="89.07" x2="549.41" y2="89.95" xlink:href="#New_Gradient_Swatch_1"/><linearGradient id="New_Gradient_Swatch_1-14" x1="146.3" y1="88.78" x2="549.29" y2="89.65" xlink:href="#New_Gradient_Swatch_1"/><linearGradient id="New_Gradient_Swatch_1-15" x1="146.18" y1="88.48" x2="549.18" y2="89.35" xlink:href="#New_Gradient_Swatch_1"/><linearGradient id="New_Gradient_Swatch_1-16" x1="146.21" y1="88.55" x2="549.2" y2="89.43" xlink:href="#New_Gradient_Swatch_1"/><linearGradient id="New_Gradient_Swatch_1-17" x1="146.24" y1="88.63" x2="549.23" y2="89.5" xlink:href="#New_Gradient_Swatch_1"/><linearGradient id="New_Gradient_Swatch_1-18" x1="146.27" y1="88.7" x2="549.26" y2="89.58" xlink:href="#New_Gradient_Swatch_1"/><linearGradient id="New_Gradient_Swatch_1-19" x1="138.99" y1="88.8" x2="485.98" y2="89.55" xlink:href="#New_Gradient_Swatch_1"/><linearGradient id="New_Gradient_Swatch_1-20" x1="78.7" y1="88.87" x2="496.56" y2="89.78" xlink:href="#New_Gradient_Swatch_1"/><linearGradient id="New_Gradient_Swatch_1-21" x1="138.62" y1="56.09" x2="312.5" y2="56.09" xlink:href="#New_Gradient_Swatch_1"/><linearGradient id="New_Gradient_Swatch_1-22" x1="394.75" y1="131.41" x2="104.8" y2="131.41" xlink:href="#New_Gradient_Swatch_1"/><linearGradient id="New_Gradient_Swatch_1-23" x1="394.76" y1="131.41" x2="104.8" y2="131.41" xlink:href="#New_Gradient_Swatch_1"/><linearGradient id="New_Gradient_Swatch_1-24" x1="393.29" y1="131.41" x2="103.33" y2="131.41" xlink:href="#New_Gradient_Swatch_1"/><linearGradient id="New_Gradient_Swatch_1-25" x1="98.56" y1="140.58" x2="363.81" y2="140.58" xlink:href="#New_Gradient_Swatch_1"/><linearGradient id="New_Gradient_Swatch_1-26" x1="90.89" y1="145.86" x2="355.25" y2="145.86" xlink:href="#New_Gradient_Swatch_1"/><linearGradient id="New_Gradient_Swatch_1-27" x1="136.31" y1="47.55" x2="472.79" y2="47.55" xlink:href="#New_Gradient_Swatch_1"/><linearGradient id="New_Gradient_Swatch_1-28" x1="134.85" y1="42.21" x2="431.35" y2="42.21" xlink:href="#New_Gradient_Swatch_1"/><linearGradient id="New_Gradient_Swatch_1-29" x1="133.45" y1="36.86" x2="429.04" y2="36.86" xlink:href="#New_Gradient_Swatch_1"/><linearGradient id="New_Gradient_Swatch_1-30" x1="294.45" y1="27.26" x2="306.64" y2="27.29" xlink:href="#New_Gradient_Swatch_1"/><linearGradient id="New_Gradient_Swatch_1-31" x1="135.4" y1="122.24" x2="142.95" y2="122.24" xlink:href="#New_Gradient_Swatch_1"/><linearGradient id="New_Gradient_Swatch_1-32" x1="467.66" y1="47.55" x2="475.21" y2="47.55" xlink:href="#New_Gradient_Swatch_1"/><linearGradient id="New_Gradient_Swatch_1-33" x1="74.5" y1="151.33" x2="86.69" y2="151.36" xlink:href="#New_Gradient_Swatch_1"/><linearGradient id="New_Gradient_Swatch_1-34" x1="412.16" y1="130.85" x2="424.09" y2="130.85" xlink:href="#New_Gradient_Swatch_1"/><linearGradient id="New_Gradient_Swatch_1-35" x1="426.31" y1="130.85" x2="438.24" y2="130.85" xlink:href="#New_Gradient_Swatch_1"/><linearGradient id="New_Gradient_Swatch_1-36" x1="440.46" y1="130.85" x2="452.38" y2="130.85" xlink:href="#New_Gradient_Swatch_1"/><linearGradient id="New_Gradient_Swatch_1-37" x1="134.45" y1="29.37" x2="146.37" y2="29.37" xlink:href="#New_Gradient_Swatch_1"/><linearGradient id="New_Gradient_Swatch_1-38" x1="148.6" y1="29.37" x2="160.52" y2="29.37" xlink:href="#New_Gradient_Swatch_1"/><linearGradient id="New_Gradient_Swatch_1-39" x1="162.75" y1="29.37" x2="174.67" y2="29.37" xlink:href="#New_Gradient_Swatch_1"/></defs><title>loading_05_purple_green</title><g id="Layer_2" data-name="Layer 2"><g id="Layer_1-2" data-name="Layer 1"><rect class="cls-1" x="141.42" y="71.07" width="333.36" height="36.49" rx="4.49"/><path class="cls-2" d="M68.48,126.69a59.39,59.39,0,0,1-14.58-1.84l-4.4-1.12v0l-4-1.74a58.35,58.35,0,0,1-23-17.87l-2.65-3.45h0l-.08-.14h0l-2.13-3.8a58.9,58.9,0,0,1-5.46-13.66,58.53,58.53,0,0,1,0-29.16,59.14,59.14,0,0,1,5.47-13.7l2.13-3.8h0l.08-.14h0l2.65-3.45A58.24,58.24,0,0,1,45.46,15l4-1.75v0l4.4-1.12a58.53,58.53,0,0,1,29.12,0l4.4,1.12v0l4,1.75a58.17,58.17,0,0,1,23,17.86l2.66,3.45h0l.08.14h0l2.13,3.8a59.08,59.08,0,0,1,5.46,13.66v0a58.21,58.21,0,0,1-5.47,42.82l-2.13,3.8h0l-.08.14h0l-2.66,3.45a58.28,58.28,0,0,1-23,17.87l-4,1.74v0L83,124.85A59.25,59.25,0,0,1,68.48,126.69ZM60.59,117a48.77,48.77,0,0,0,15.75,0l-2.49-9.65,4.38-1.13a39.29,39.29,0,0,0,5.62-1.93L88,102.51,92,111.66A49.29,49.29,0,0,0,104.41,102l-7.9-6.12,2.78-3.58a39.67,39.67,0,0,0,3.27-5l2.2-4,8.72,4.84a48.63,48.63,0,0,0,4.16-19.8,48.85,48.85,0,0,0-4.16-19.78l-8.72,4.85-2.2-4a39.67,39.67,0,0,0-3.27-5L96.51,41l7.9-6.12A49.29,49.29,0,0,0,92,25.26L88,34.42l-4.16-1.79a38.87,38.87,0,0,0-5.62-1.93l-4.38-1.13,2.49-9.65a48.77,48.77,0,0,0-15.75,0l2.48,9.65L58.69,30.7a39.29,39.29,0,0,0-5.62,1.93l-4.16,1.79L45,25.26A49.24,49.24,0,0,0,32.52,34.9L40.41,41,37.64,44.6a38.67,38.67,0,0,0-3.28,5l-2.2,4-8.72-4.85a51.83,51.83,0,0,0-2.61,7.5,49.5,49.5,0,0,0,0,24.62,51.71,51.71,0,0,0,2.6,7.46l8.72-4.84,2.2,4a38.67,38.67,0,0,0,3.28,5l2.77,3.58L32.52,102A49.28,49.28,0,0,0,45,111.67l3.94-9.16,4.16,1.78a39.29,39.29,0,0,0,5.62,1.93l4.38,1.13Z"/><path class="cls-3" d="M68.47,101.46a34.12,34.12,0,0,1-8.26-1l-2.5-.63v0l-2.29-1A33,33,0,0,1,42.37,88.66l-1.51-2h0l0-.08h0L39.6,84.47a33.48,33.48,0,0,1-3.09-7.73A33,33,0,0,1,39.6,52.45l1.21-2.16h0l0-.08h0l1.51-2A33,33,0,0,1,55.43,38.14l2.29-1h0l2.5-.64a33.24,33.24,0,0,1,16.5,0l2.5.64h0l2.28,1A33,33,0,0,1,94.55,48.26l1.51,2h0l1.25,2.24a33.38,33.38,0,0,1,3.09,7.74v0a33.24,33.24,0,0,1,0,16.5,33.64,33.64,0,0,1-3.1,7.76l-1.25,2.24h0l-1.51,2A33,33,0,0,1,81.49,98.78l-2.28,1v0l-2.5.63A34,34,0,0,1,68.47,101.46ZM64,96a27.81,27.81,0,0,0,8.92,0L71.51,90.5,74,89.86a22.12,22.12,0,0,0,3.18-1.09l2.36-1L81.77,93a27.92,27.92,0,0,0,7.06-5.47L84.36,84l1.57-2a22.76,22.76,0,0,0,1.86-2.81L89,76.93l5,2.75a29.16,29.16,0,0,0,1.47-4.25A27.84,27.84,0,0,0,94,57.25L89,60l-1.24-2.24a21.35,21.35,0,0,0-1.86-2.81l-1.57-2,4.47-3.47A27.88,27.88,0,0,0,81.77,44l-2.23,5.19-2.36-1A22.12,22.12,0,0,0,74,47.06l-2.49-.64L72.92,41A27.81,27.81,0,0,0,64,41l1.41,5.47-2.49.64a23.41,23.41,0,0,0-3.18,1.09l-2.36,1L55.15,44a27.88,27.88,0,0,0-7.06,5.46l4.47,3.47-1.57,2a22.4,22.4,0,0,0-1.86,2.81L47.89,60,43,57.25a27.81,27.81,0,0,0,0,22.43l4.94-2.75,1.24,2.24A23.26,23.26,0,0,0,51,82l1.57,2-4.47,3.47A27.92,27.92,0,0,0,55.15,93l2.23-5.2,2.36,1a22.12,22.12,0,0,0,3.18,1.09l2.49.64Z"/><path class="cls-4" d="M68.46,135.1A66.64,66.64,0,1,1,135.1,68.46,66.72,66.72,0,0,1,68.46,135.1Zm0-129.91a63.28,63.28,0,1,0,63.28,63.27A63.34,63.34,0,0,0,68.46,5.19Z"/><path class="cls-5" d="M68.46,108.57a40.11,40.11,0,1,1,40.11-40.11A40.16,40.16,0,0,1,68.46,108.57Zm0-78.19a38.08,38.08,0,1,0,38.08,38.08A38.12,38.12,0,0,0,68.46,30.38Z"/><path class="cls-6" d="M68.46,105.21a36.75,36.75,0,1,1,36.75-36.75A36.8,36.8,0,0,1,68.46,105.21Zm0-71.72a35,35,0,1,0,35,35A35,35,0,0,0,68.46,33.49Z"/><path class="cls-7" d="M68.46,136.92a68.46,68.46,0,1,1,68.46-68.46A68.54,68.54,0,0,1,68.46,136.92Zm0-136a67.59,67.59,0,1,0,67.59,67.59A67.67,67.67,0,0,0,68.46.87Z"/><path class="cls-8" d="M68.46,89.63A21.17,21.17,0,1,1,89.63,68.46,21.19,21.19,0,0,1,68.46,89.63Zm0-41.41A20.24,20.24,0,1,0,88.7,68.46,20.26,20.26,0,0,0,68.46,48.22Z"/><rect class="cls-9" x="141.42" y="71.07" width="26.27" height="36.2" rx="4.49"/><rect class="cls-10" x="278.17" y="71.07" width="26.27" height="36.2" rx="4.49"/><rect class="cls-11" x="243.98" y="71.07" width="26.27" height="36.2" rx="4.49"/><rect class="cls-12" x="209.8" y="71.07" width="26.27" height="36.2" rx="4.49"/><rect class="cls-13" x="175.61" y="71.07" width="26.27" height="36.2" rx="4.49"/><rect class="cls-14" x="311.77" y="71.07" width="26.27" height="36.2" rx="4.49"/><rect class="cls-15" x="448.52" y="71.07" width="26.27" height="36.2" rx="4.49"/><rect class="cls-16" x="414.33" y="71.07" width="26.27" height="36.2" rx="4.49"/><rect class="cls-17" x="380.14" y="71.07" width="26.27" height="36.2" rx="4.49"/><rect class="cls-18" x="345.96" y="71.07" width="26.27" height="36.2" rx="4.49"/><path class="cls-19" d="M475.79,123.6H140.42a1.36,1.36,0,0,1,0-2.71H475.79a7.44,7.44,0,0,0,7.44-7.43V64.87a7.44,7.44,0,0,0-7.44-7.43H140.42a1.36,1.36,0,0,1,0-2.71H475.79a10.15,10.15,0,0,1,10.14,10.14v48.59A10.15,10.15,0,0,1,475.79,123.6Z"/><path class="cls-20" d="M483.86,153.38H80.6a2,2,0,1,1,0-4.07H483.86c4.63,0,8.54-6.61,8.54-14.44V43.75c0-7.83-3.91-14.44-8.54-14.44H301.18a2,2,0,0,1,0-4.07H483.86c6.95,0,12.6,8.31,12.6,18.51v91.12C496.46,145.07,490.81,153.38,483.86,153.38Z"/><path class="cls-21" d="M307.15,61.44H144a5.37,5.37,0,0,1-5.36-5.35h0A5.37,5.37,0,0,1,144,50.73H307.15a5.37,5.37,0,0,1,5.35,5.36h0A5.37,5.37,0,0,1,307.15,61.44Z"/><path class="cls-22" d="M245.81,135.78H113.36a4.39,4.39,0,0,1-4.37-4.37h0a4.39,4.39,0,0,1,4.37-4.37H245.81a4.38,4.38,0,0,1,4.37,4.37h0A4.38,4.38,0,0,1,245.81,135.78Z"/><path class="cls-23" d="M322.81,135.78h-65a4.39,4.39,0,0,1-4.37-4.37h0a4.39,4.39,0,0,1,4.37-4.37h65a4.39,4.39,0,0,1,4.38,4.37h0A4.39,4.39,0,0,1,322.81,135.78Z"/><path class="cls-24" d="M366.65,135.78H334.29a4.39,4.39,0,0,1-4.37-4.37h0a4.39,4.39,0,0,1,4.37-4.37h32.36a4.39,4.39,0,0,1,4.38,4.37h0A4.39,4.39,0,0,1,366.65,135.78Z"/><path class="cls-25" d="M362.91,141.48H99.46a.9.9,0,1,1,0-1.8H362.91a.9.9,0,1,1,0,1.8Z"/><path class="cls-26" d="M354.79,146.31H91.34a.45.45,0,0,1,0-.9H354.79a.45.45,0,1,1,0,.9Z"/><path class="cls-27" d="M471.44,48.9H137.67a1.35,1.35,0,1,1,0-2.7H471.44a1.35,1.35,0,1,1,0,2.7Z"/><path class="cls-28" d="M430.45,43.11H135.75a.91.91,0,0,1,0-1.81h294.7a.91.91,0,0,1,0,1.81Z"/><path class="cls-29" d="M428.59,37.31H133.9a.45.45,0,0,1,0-.9H428.59a.45.45,0,0,1,0,.9Z"/><circle class="cls-30" cx="300.54" cy="27.28" r="6.1"/><path class="cls-31" d="M143,122.24a3.78,3.78,0,1,1-3.77-3.77A3.77,3.77,0,0,1,143,122.24Z"/><path class="cls-32" d="M475.21,47.55a3.78,3.78,0,1,1-3.77-3.77A3.77,3.77,0,0,1,475.21,47.55Z"/><path class="cls-33" d="M86.69,151.34a6.1,6.1,0,1,1-6.1-6.09A6.1,6.1,0,0,1,86.69,151.34Z"/><path class="cls-34" d="M417.17,135.69h0c-2.86,0-5.11-.46-5-1l1.5-7.62c.11-.56,2.55-1,5.41-1h0c2.86,0,5.12.46,5,1l-1.5,7.62C422.47,135.23,420,135.69,417.17,135.69Z"/><path class="cls-35" d="M431.32,135.69h0c-2.86,0-5.12-.46-5-1l1.5-7.62c.11-.56,2.54-1,5.41-1h0c2.86,0,5.11.46,5,1l-1.5,7.62C436.62,135.23,434.18,135.69,431.32,135.69Z"/><path class="cls-36" d="M445.47,135.69h0c-2.87,0-5.12-.46-5-1L442,127c.11-.56,2.54-1,5.41-1h0c2.86,0,5.11.46,5,1l-1.5,7.62C450.77,135.23,448.33,135.69,445.47,135.69Z"/><path class="cls-37" d="M139.46,34.21h0c-2.87,0-5.12-.47-5-1L136,25.56c.11-.57,2.54-1,5.4-1h0c2.87,0,5.12.46,5,1l-1.5,7.62C144.76,33.74,142.32,34.21,139.46,34.21Z"/><path class="cls-38" d="M153.61,34.21h0c-2.87,0-5.12-.47-5-1l1.5-7.62c.11-.57,2.55-1,5.41-1h0c2.87,0,5.12.46,5,1L159,33.18C158.9,33.74,156.47,34.21,153.61,34.21Z"/><path class="cls-39" d="M167.75,34.21h0c-2.86,0-5.11-.47-5-1l1.5-7.62c.11-.57,2.55-1,5.41-1h0c2.86,0,5.12.46,5,1l-1.5,7.62C173.05,33.74,170.62,34.21,167.75,34.21Z"/></g></g></svg>