<svg xmlns="http://www.w3.org/2000/svg" xmlns:xlink="http://www.w3.org/1999/xlink" viewBox="0 0 490.32 146.33"><defs><style>.cls-1{fill:#00d0ff;}.cls-2{fill:url(#Безымянный_градиент_172);}.cls-3{opacity:0.44;}</style><radialGradient id="Безымянный_градиент_172" cx="69.29" cy="66.45" r="46.64" gradientTransform="translate(65.26 -28.65) rotate(44.95)" gradientUnits="userSpaceOnUse"><stop offset="0" stop-color="#00bdff"/><stop offset="0.25" stop-color="#0384ba"/><stop offset="0.51" stop-color="#054f7a"/><stop offset="0.73" stop-color="#07294b"/><stop offset="0.9" stop-color="#08112e"/><stop offset="1" stop-color="#080823"/></radialGradient></defs><title>loading_07</title><g id="Layer_2" data-name="Layer 2"><g id="Layer_1-2" data-name="Layer 1"><path class="cls-1" d="M67.4,134.46a67.13,67.13,0,1,1,67.08-67.19A67.21,67.21,0,0,1,67.4,134.46ZM67.29,2.55a64.78,64.78,0,1,0,64.83,64.72A64.84,64.84,0,0,0,67.29,2.55Z"/><path class="cls-1" d="M156.21,108.5h0a8.79,8.79,0,0,1-8.77-8.76l-.06-65A8.79,8.79,0,0,1,156.14,26h0a8.8,8.8,0,0,1,8.78,8.76L165,99.72A8.79,8.79,0,0,1,156.21,108.5Z"/><path class="cls-1" d="M180,108.48h0a8.79,8.79,0,0,1-8.77-8.76l-.06-65A8.79,8.79,0,0,1,180,26h0a8.79,8.79,0,0,1,8.78,8.76l0,65A8.78,8.78,0,0,1,180,108.48Z"/><path class="cls-1" d="M203.86,108.86h0a8.79,8.79,0,0,1-8.78-8.76L195,35.15a8.79,8.79,0,0,1,8.76-8.78h0a8.79,8.79,0,0,1,8.77,8.76l.06,65A8.79,8.79,0,0,1,203.86,108.86Z"/><path class="cls-1" d="M227.68,108.84h0a8.79,8.79,0,0,1-8.78-8.76l-.05-64.95a8.79,8.79,0,0,1,8.76-8.78h0a8.79,8.79,0,0,1,8.77,8.76l.06,65A8.79,8.79,0,0,1,227.68,108.84Z"/><path class="cls-1" d="M251.5,108.82h0a8.79,8.79,0,0,1-8.78-8.76l-.05-64.95a8.8,8.8,0,0,1,8.76-8.78h0a8.79,8.79,0,0,1,8.77,8.76l.06,65A8.79,8.79,0,0,1,251.5,108.82Z"/><path class="cls-1" d="M275.32,108.8h0a8.78,8.78,0,0,1-8.77-8.76l-.06-64.95a8.8,8.8,0,0,1,8.76-8.78h0A8.81,8.81,0,0,1,284,35.07l.05,65A8.79,8.79,0,0,1,275.32,108.8Z"/><path class="cls-1" d="M299.14,108.38h0a8.79,8.79,0,0,1-8.77-8.76l-.06-65a8.79,8.79,0,0,1,8.76-8.77h0a8.8,8.8,0,0,1,8.78,8.76l0,65A8.79,8.79,0,0,1,299.14,108.38Z"/><path class="cls-1" d="M323,108.36h0a8.79,8.79,0,0,1-8.77-8.76l-.05-65a8.78,8.78,0,0,1,8.76-8.77h0a8.79,8.79,0,0,1,8.77,8.76l.05,65A8.78,8.78,0,0,1,323,108.36Z"/><path class="cls-1" d="M345.29,108.34h0a8.79,8.79,0,0,1-8.77-8.76l-.06-64.95a8.8,8.8,0,0,1,8.76-8.78h0A8.8,8.8,0,0,1,354,34.61l.05,65A8.79,8.79,0,0,1,345.29,108.34Z"/><path class="cls-1" d="M367.62,108.32h0a8.78,8.78,0,0,1-8.77-8.76l-.06-64.95a8.81,8.81,0,0,1,8.76-8.78h0a8.81,8.81,0,0,1,8.78,8.76l.05,65A8.79,8.79,0,0,1,367.62,108.32Z"/><path class="cls-1" d="M390,108.31h0a8.79,8.79,0,0,1-8.77-8.76l-.06-65a8.81,8.81,0,0,1,8.76-8.78h0a8.81,8.81,0,0,1,8.78,8.76l0,65A8.81,8.81,0,0,1,390,108.31Z"/><path class="cls-1" d="M411.39,108.29h0a8.81,8.81,0,0,1-8.78-8.76l-.05-65a8.79,8.79,0,0,1,8.76-8.77h0a8.78,8.78,0,0,1,8.77,8.76l.06,65A8.8,8.8,0,0,1,411.39,108.29Z"/><path class="cls-1" d="M432.87,108.27h0a8.79,8.79,0,0,1-8.77-8.76l-.06-65a8.79,8.79,0,0,1,8.76-8.77h0a8.8,8.8,0,0,1,8.78,8.76l.05,65A8.79,8.79,0,0,1,432.87,108.27Z"/><path class="cls-1" d="M456.27,108.25h0a8.79,8.79,0,0,1-8.77-8.76l-.06-65a8.79,8.79,0,0,1,8.76-8.77h0A8.8,8.8,0,0,1,465,34.52l0,65A8.79,8.79,0,0,1,456.27,108.25Z"/><path class="cls-1" d="M134.4,60.21h0a2.78,2.78,0,0,1-2.25,3.19l-18.1,1.08a2.26,2.26,0,0,1-2.54-1.86h0a2.25,2.25,0,0,1,2.1-2.35l17.92-2.71C132.86,57.35,134.16,58.54,134.4,60.21Z"/><path class="cls-1" d="M133,52.05h0a2.65,2.65,0,0,1-1.78,3.43l-17.83,3.29a2.43,2.43,0,0,1-2.82-1.52,2.33,2.33,0,0,1,1.85-2.6l17.46-4.9C131.16,49.38,132.57,50.41,133,52.05Z"/><path class="cls-1" d="M130.6,44.11h0c.58,1.59,0,3.21-1.29,3.61L112,53.18A2.41,2.41,0,0,1,109,52h0a2.42,2.42,0,0,1,1.58-2.83l16.71-7C128.52,41.66,130,42.52,130.6,44.11Z"/><path class="cls-1" d="M127.29,36.51h0c.74,1.52.33,3.22-.9,3.77l-16.48,7.56a2.33,2.33,0,0,1-3.09-.79h0a2.42,2.42,0,0,1,1.17-3l15.72-9A2.65,2.65,0,0,1,127.29,36.51Z"/><path class="cls-1" d="M123.08,29.38h0a2.75,2.75,0,0,1-.46,3.87l-15.43,9.53a2.29,2.29,0,0,1-3.13-.43h0a2.27,2.27,0,0,1,.75-3.07l14.5-10.88C120.38,27.58,122.08,28,123.08,29.38Z"/><path class="cls-1" d="M118,22.87a3.14,3.14,0,0,1,.87,2.06,2.26,2.26,0,0,1-.81,1.79L103.9,38.06a2.68,2.68,0,0,1-1.7.6,2,2,0,0,1-1.52-.6h0a2.36,2.36,0,0,1,.41-3.18l13.07-12.57C115.12,21.37,116.84,21.62,118,22.87Z"/><path class="cls-1" d="M112.14,17h0c1.25,1.13,1.5,2.84.55,3.8L100,33.79a2.39,2.39,0,0,1-3.2.41h0a2.47,2.47,0,0,1,0-3.24L108.31,16.9C109.17,15.82,110.9,15.87,112.14,17Z"/><path class="cls-1" d="M105.66,11.86h0c1.36,1,1.79,2.7,1,3.77l-11,14.43a2.3,2.3,0,0,1-3.09.74h0a2.36,2.36,0,0,1-.39-3.16l9.63-15.35A2.7,2.7,0,0,1,105.66,11.86Z"/><path class="cls-1" d="M98.57,7.58h0a3,3,0,0,1,1.54,1.66,2.25,2.25,0,0,1-.11,1.95L90.87,26.86A2.67,2.67,0,0,1,89.49,28a2.21,2.21,0,0,1-1.6-.05h0a2.31,2.31,0,0,1-.77-3.08L94.79,8.47C95.35,7.25,97.05,6.84,98.57,7.58Z"/><path class="cls-1" d="M91,4.23h0c1.58.58,2.44,2.07,1.88,3.34L85.75,24.23a2.45,2.45,0,0,1-2.84,1.56h0a2.4,2.4,0,0,1-1.12-3L87.37,5.52C87.77,4.23,89.41,3.65,91,4.23Z"/><path class="cls-1" d="M81.28,1.35h0c1.64.41,2.69,1.82,2.34,3.12L79.09,22A2.13,2.13,0,1,1,75,21.15L77.87,3.26A2.75,2.75,0,0,1,81.28,1.35Z"/><path class="cls-1" d="M73.08.17a3,3,0,0,1,2.06.93,2.25,2.25,0,0,1,.65,1.84l-2.34,18a2.7,2.7,0,0,1-.81,1.62,2.24,2.24,0,0,1-1.5.57h0a2.28,2.28,0,0,1-1.91-2.54l.71-18.11C70,1.12,71.4.08,73.08.17Z"/><path class="cls-1" d="M64.82,0h0a2.61,2.61,0,0,1,3,2.35L67.7,20.49a2.45,2.45,0,0,1-2,2.52,2.37,2.37,0,0,1-2.21-2.34L62,2.6C61.86,1.26,63.14.09,64.82,0Z"/><path class="cls-1" d="M56.59.82h0c1.67-.26,3.15.64,3.29,2L62,20.8a2.41,2.41,0,0,1-1.71,2.75h0a2.45,2.45,0,0,1-2.48-2.1L54.07,3.7C53.79,2.37,54.92,1.08,56.59.82Z"/><path class="cls-1" d="M48.5,2.61c1.63-.43,3.22.3,3.53,1.61l4.26,17.62a2.31,2.31,0,0,1-1.36,2.88h0A2.4,2.4,0,0,1,52.23,23L46.38,5.85A2.67,2.67,0,0,1,48.5,2.61Z"/><path class="cls-1" d="M40.69,5.39h0A2.74,2.74,0,0,1,44.4,6.58l6.41,17a2.3,2.3,0,0,1-1,3h0a2.27,2.27,0,0,1-2.88-1.32L39,8.91C38.4,7.7,39.16,6.11,40.69,5.39Z"/><path class="cls-1" d="M33.31,9.17h0a3.26,3.26,0,0,1,2.19-.48,2.3,2.3,0,0,1,1.61,1.14l8.44,16a2.59,2.59,0,0,1,.27,1.78A2,2,0,0,1,45,29h0a2.36,2.36,0,0,1-3-1L32,12.81C31.3,11.68,31.87,10,33.31,9.17Z"/><path class="cls-1" d="M26.45,13.79h0c1.35-1,3.08-.93,3.84.18L40.64,28.85a2.38,2.38,0,0,1-.21,3.22,2.45,2.45,0,0,1-3.17-.65L25.61,17.53C24.72,16.48,25.09,14.79,26.45,13.79Z"/><path class="cls-1" d="M20.17,19.18h0c1.24-1.15,3-1.25,3.88-.24L36.14,32.45a2.29,2.29,0,0,1,.14,3.17,2.34,2.34,0,0,1-3.17-.21L19.86,23.05A2.7,2.7,0,0,1,20.17,19.18Z"/><path class="cls-1" d="M14.63,25.32h0a2.94,2.94,0,0,1,1.92-1.19,2.22,2.22,0,0,1,1.89.48L32.09,36.54a2.67,2.67,0,0,1,.9,1.58,2.26,2.26,0,0,1-.36,1.56h0a2.31,2.31,0,0,1-3.18.17L14.79,29.2C13.69,28.42,13.62,26.67,14.63,25.32Z"/><path class="cls-1" d="M9,33.69H9c.87-1.44,2.51-2,3.64-1.29l15.28,9.76a2.36,2.36,0,0,1,1,3,2.45,2.45,0,0,1-3.15.63L9.65,37.49A2.64,2.64,0,0,1,9,33.69Z"/><path class="cls-1" d="M5.21,41.09h0c.72-1.53,2.31-2.29,3.52-1.7L25.09,47.2a2.12,2.12,0,1,1-1.65,3.89l-17-6.29C5.18,44.35,4.61,42.67,5.21,41.09Z"/><path class="cls-1" d="M2.51,48.93h0a2.65,2.65,0,0,1,3.21-2.15l17.2,5.74a2.41,2.41,0,0,1,1.74,2.68,2.35,2.35,0,0,1-2.88,1.39L4.13,52.45C2.82,52.15,2.08,50.56,2.51,48.93Z"/><path class="cls-1" d="M.77,57h0C1,55.36,2.32,54.22,3.64,54.5l17.77,3.56a2.43,2.43,0,0,1,2.11,2.47h0a2.42,2.42,0,0,1-2.74,1.72l-18-1.94C1.41,60.18.51,58.7.77,57Z"/><path class="cls-1" d="M0,65.26H0c.08-1.68,1.26-3,2.6-2.85l18.07,1.36A2.34,2.34,0,0,1,23,66h0a2,2,0,0,1-.79,1.42,2.63,2.63,0,0,1-1.7.63L2.4,68.27a2.29,2.29,0,0,1-1.77-.86A3.33,3.33,0,0,1,0,65.26Z"/><path class="cls-1" d="M.22,73.52c-.1-1.68.94-3.1,2.28-3.15l18.11-.84a2.29,2.29,0,0,1,2.54,1.9h0A2.34,2.34,0,0,1,21,73.75L3,76.21A2.71,2.71,0,0,1,.22,73.52Z"/><path class="cls-1" d="M1.48,81.71h0A2.71,2.71,0,0,1,3.35,78.3l17.87-3A2.35,2.35,0,0,1,24,76.82a2.28,2.28,0,0,1-1.86,2.56L4.6,84C3.3,84.4,1.89,83.35,1.48,81.71Z"/><path class="cls-1" d="M3.77,89.68a3.36,3.36,0,0,1,0-2.25,2.25,2.25,0,0,1,1.41-1.35l17.36-5.23a2.81,2.81,0,0,1,1.82.08A2,2,0,0,1,25.49,82a2.37,2.37,0,0,1-1.58,2.8L7.1,91.63C5.85,92.14,4.35,91.27,3.77,89.68Z"/><path class="cls-1" d="M7,97.31c-.74-1.52-.32-3.21.91-3.74l16.58-7.33a2.39,2.39,0,0,1,3.12.81h0a2.46,2.46,0,0,1-1.24,3l-15.85,8.8A2.62,2.62,0,0,1,7,97.31Z"/><path class="cls-1" d="M11.11,104.5h0c-.89-1.43-.66-3.18.5-3.86l15.55-9.31a2.29,2.29,0,0,1,3.14.46,2.33,2.33,0,0,1-.8,3.07L14.85,105.54A2.71,2.71,0,0,1,11.11,104.5Z"/><path class="cls-1" d="M17.33,112.47h0c-1.13-1.25-1.2-3-.14-3.82l14-11.54A2.44,2.44,0,0,1,34.42,97a2.4,2.4,0,0,1-.39,3.21L21.13,113C20.18,114,18.47,113.72,17.33,112.47Z"/><path class="cls-1" d="M23.23,118.27h0c-1.25-1.13-1.5-2.86-.57-3.82l12.48-13.16a2.33,2.33,0,0,1,3.17-.42h0a2.43,2.43,0,0,1,0,3.21L27.09,118.3A2.65,2.65,0,0,1,23.23,118.27Z"/><path class="cls-1" d="M29.78,123.33h0c-1.37-1-1.81-2.7-1-3.77L39.56,105a2.13,2.13,0,1,1,3.51,2.36l-9.42,15.49C33,124,31.22,124.22,29.78,123.33Z"/><path class="cls-1" d="M37,127.48h0a3.15,3.15,0,0,1-1.58-1.6,2.27,2.27,0,0,1,.09-2l8.91-15.79A2.61,2.61,0,0,1,45.73,107a2.07,2.07,0,0,1,1.62,0h0a2.37,2.37,0,0,1,.8,3.11l-7.44,16.53C40.16,127.8,38.47,128.21,37,127.48Z"/><path class="cls-1" d="M44.56,130.74h0c-1.58-.58-2.45-2.08-1.93-3.32l6.9-16.76a2.4,2.4,0,0,1,2.82-1.58,2.44,2.44,0,0,1,1.16,3l-5.35,17.32C47.77,130.73,46.16,131.32,44.56,130.74Z"/><path class="cls-1" d="M52.52,133.08h0c-1.64-.41-2.68-1.82-2.32-3.12L55,112.48a2.32,2.32,0,0,1,2.59-1.86h0a2.38,2.38,0,0,1,1.53,2.79l-3.16,17.85A2.66,2.66,0,0,1,52.52,133.08Z"/><path class="cls-1" d="M60.69,134.43A2.78,2.78,0,0,1,58,131.58l2.59-17.94a2.13,2.13,0,1,1,4.21.41l-1,18.1C63.8,133.5,62.37,134.53,60.69,134.43Z"/><path class="cls-1" d="M69,134.69h0a2.64,2.64,0,0,1-3-2.44l.39-18.12a2.4,2.4,0,0,1,2.06-2.45h0A2.33,2.33,0,0,1,70.59,114l1.24,18.09C71.93,133.44,70.64,134.61,69,134.69Z"/><path class="cls-1" d="M77.19,134h0c-1.67.25-3.14-.64-3.26-2l-1.82-18a2.44,2.44,0,0,1,1.74-2.74,2.4,2.4,0,0,1,2.45,2.11l3.44,17.79C80,132.42,78.86,133.72,77.19,134Z"/><path class="cls-1" d="M85.3,132.28h0c-1.64.43-3.21-.31-3.5-1.63l-4-17.67a2.35,2.35,0,0,1,1.4-2.89h0a2,2,0,0,1,1.58.34,2.67,2.67,0,0,1,1.1,1.44l5.61,17.23a2.26,2.26,0,0,1-.3,1.94A3.28,3.28,0,0,1,85.3,132.28Z"/><path class="cls-1" d="M94.84,128.87h0a2.66,2.66,0,0,1-3.71-1.1L84.49,110.9a2.38,2.38,0,0,1,1-3,2.3,2.3,0,0,1,2.9,1.31l8.15,16.19C97.11,126.56,96.37,128.14,94.84,128.87Z"/><path class="cls-1" d="M102.17,125c-1.45.88-3.15.61-3.78-.57l-8.67-15.93a2.14,2.14,0,1,1,3.62-2.2l10.07,15.07C104.17,122.49,103.61,124.13,102.17,125Z"/><path class="cls-1" d="M109,120.31c-1.34,1-3.09.94-3.86-.16L94.56,105.41a2.34,2.34,0,0,1,.19-3.19h0a2.42,2.42,0,0,1,3.15.58l11.84,13.73A2.64,2.64,0,0,1,109,120.31Z"/><path class="cls-1" d="M115.19,114.84a2.75,2.75,0,0,1-3.89.27L99,101.77a2.13,2.13,0,1,1,3-3L115.43,111C116.44,111.84,116.33,113.6,115.19,114.84Z"/><path class="cls-1" d="M120.61,108.6a3.24,3.24,0,0,1-1.86,1.25,2.34,2.34,0,0,1-1.91-.46L103,97.64a2.6,2.6,0,0,1-.9-1.56,2,2,0,0,1,.29-1.59h0a2.35,2.35,0,0,1,3.2-.2l14.82,10.45C121.54,105.51,121.63,107.25,120.61,108.6Z"/><path class="cls-1" d="M125.27,101.75c-.88,1.45-2.52,2-3.63,1.26L106.5,93a2.38,2.38,0,0,1-1-3.06,2.43,2.43,0,0,1,3.18-.57l16,8.56C125.88,98.61,126.14,100.31,125.27,101.75Z"/><path class="cls-1" d="M129.09,94.4h0c-.73,1.53-2.31,2.28-3.51,1.67l-16.25-8A2.29,2.29,0,0,1,108,85.15a2.11,2.11,0,0,1,1.21-1,2.64,2.64,0,0,1,1.81.06l16.91,6.52a2.26,2.26,0,0,1,1.31,1.45A3,3,0,0,1,129.09,94.4Z"/><path class="cls-1" d="M132,86.62h0a2.72,2.72,0,0,1-3.28,2.09l-17.12-6a2.33,2.33,0,0,1-1.66-2.7h0a2.27,2.27,0,0,1,2.86-1.35l17.59,4.38C131.65,83.39,132.38,85,132,86.62Z"/><path class="cls-1" d="M133.79,78.54a3.34,3.34,0,0,1-1,2,2.24,2.24,0,0,1-1.89.5l-17.73-3.81a2.67,2.67,0,0,1-1.54-1,1.94,1.94,0,0,1-.51-1.54h0A2.37,2.37,0,0,1,113.82,73l18,2.19C133.15,75.38,134,76.87,133.79,78.54Z"/><path class="cls-1" d="M134.64,70.31h0c-.08,1.69-1.25,3-2.59,2.83L114,71.53a2.41,2.41,0,0,1-2.35-2.23,2.45,2.45,0,0,1,2.57-2l18.12,0C133.68,67.26,134.73,68.63,134.64,70.31Z"/><circle class="cls-2" cx="67.35" cy="67.33" r="46.64" transform="translate(-27.88 67.34) rotate(-45)"/><g class="cls-3"><path class="cls-1" d="M479.72,126.51,150,126.78a1.18,1.18,0,1,1,0-2.36l329.68-.27a8.27,8.27,0,0,0,8.25-8.26l-.08-97a8.26,8.26,0,0,0-8.26-8.25l-329.69.27a1.18,1.18,0,0,1-1.18-1.18,1.19,1.19,0,0,1,1.18-1.18l329.69-.27a10.61,10.61,0,0,1,10.61,10.6l.08,97A10.62,10.62,0,0,1,479.72,126.51Z"/></g><g class="cls-3"><path class="cls-1" d="M472.13,116.49l-322.1.26a1,1,0,1,1,0-2l322.1-.27A6.92,6.92,0,0,0,479,107.6L479,26.38a6.92,6.92,0,0,0-6.92-6.91L150,19.74a1,1,0,0,1,0-2l322.1-.26a8.89,8.89,0,0,1,8.89,8.87L481,107.6A8.91,8.91,0,0,1,472.13,116.49Z"/></g><path class="cls-1" d="M475.52,133.93l-408.12.34a1,1,0,0,1,0-2L475.52,132a1,1,0,0,1,0,2Z"/><path class="cls-1" d="M475.53,140l-408.12.34a1,1,0,0,1,0-2L475.53,138a1,1,0,1,1,0,2Z"/><path class="cls-1" d="M475.53,146l-408.12.34a1,1,0,1,1,0-2L475.53,144a1,1,0,1,1,0,2Z"/><path class="cls-1" d="M475.41,2,67.29,2.36a1,1,0,1,1,0-2L475.41.05a1,1,0,1,1,0,2Z"/></g></g></svg>