<svg xmlns="http://www.w3.org/2000/svg" xmlns:xlink="http://www.w3.org/1999/xlink" viewBox="0 0 493.58 177.16"><defs><style>.cls-1{mask:url(#mask);filter:url(#luminosity-noclip-2);}.cls-2{mix-blend-mode:multiply;fill:url(#Безымянный_градиент_42);}.cls-3{fill:url(#Безымянный_градиент_43);}.cls-4{fill:url(#Безымянный_градиент_175);}.cls-5{fill:url(#Безымянный_градиент_175-2);}.cls-6{fill:url(#Безымянный_градиент_175-3);}.cls-7{fill:url(#Безымянный_градиент_175-4);}.cls-8{fill:url(#Безымянный_градиент_175-5);}.cls-9{fill:url(#Безымянный_градиент_175-6);}.cls-10{fill:url(#Безымянный_градиент_175-7);}.cls-11{fill:url(#Безымянный_градиент_175-8);}.cls-12{fill:url(#Безымянный_градиент_175-9);}.cls-13{fill:url(#Безымянный_градиент_175-10);}.cls-14{fill:url(#Безымянный_градиент_175-11);}.cls-15{fill:url(#Безымянный_градиент_175-12);}.cls-16{fill:url(#Безымянный_градиент_175-13);}.cls-17{fill:url(#Безымянный_градиент_175-14);}.cls-18{fill:url(#Безымянный_градиент_175-15);}.cls-19{fill:url(#Безымянный_градиент_175-16);}.cls-20{fill:url(#Безымянный_градиент_175-17);}.cls-21{fill:url(#Безымянный_градиент_175-18);}.cls-22{fill:url(#Безымянный_градиент_175-19);}.cls-23{fill:url(#Безымянный_градиент_175-20);}.cls-24{fill:url(#Безымянный_градиент_175-21);}.cls-25{fill:url(#Безымянный_градиент_175-22);}.cls-26{fill:url(#Безымянный_градиент_175-23);}.cls-27{fill:url(#Безымянный_градиент_175-24);}.cls-28{fill:url(#Безымянный_градиент_175-25);}.cls-29{fill:url(#Безымянный_градиент_175-26);}.cls-30{fill:url(#Безымянный_градиент_175-27);}.cls-31{fill:url(#Безымянный_градиент_175-28);}.cls-32{fill:url(#Безымянный_градиент_175-29);}.cls-33{fill:url(#Безымянный_градиент_175-30);}.cls-34{fill:url(#Безымянный_градиент_175-31);}.cls-35{fill:url(#Безымянный_градиент_175-32);}.cls-36{fill:url(#Безымянный_градиент_175-33);}.cls-37{fill:url(#Безымянный_градиент_175-34);}.cls-38{fill:url(#Безымянный_градиент_175-35);}.cls-39{fill:url(#Безымянный_градиент_175-36);}.cls-40{fill:url(#Безымянный_градиент_175-37);}.cls-41{fill:url(#Безымянный_градиент_175-38);}.cls-42{fill:url(#Безымянный_градиент_175-39);}.cls-43{fill:url(#Безымянный_градиент_175-40);}.cls-44{fill:url(#Безымянный_градиент_175-41);}.cls-45{fill:url(#Безымянный_градиент_175-42);}.cls-46{fill:url(#Безымянный_градиент_175-43);}.cls-47{fill:url(#Безымянный_градиент_175-44);}.cls-48{fill:url(#Безымянный_градиент_175-45);}.cls-49{fill:url(#Безымянный_градиент_175-46);}.cls-50{fill:url(#Безымянный_градиент_175-47);}.cls-51{fill:url(#Безымянный_градиент_175-48);}.cls-52{fill:url(#Безымянный_градиент_175-49);}.cls-53{fill:url(#Безымянный_градиент_175-50);}.cls-54{fill:url(#Безымянный_градиент_175-51);}.cls-55{fill:url(#Безымянный_градиент_175-52);}.cls-56{fill:url(#Безымянный_градиент_175-53);}.cls-57{fill:url(#Безымянный_градиент_175-54);}.cls-58{fill:url(#Безымянный_градиент_175-55);}.cls-59{fill:url(#Безымянный_градиент_175-56);}.cls-60{fill:url(#Безымянный_градиент_175-57);}.cls-61{fill:url(#Безымянный_градиент_175-58);}.cls-62{fill:url(#Безымянный_градиент_175-59);}.cls-63{fill:url(#Безымянный_градиент_175-60);}.cls-64{fill:url(#Безымянный_градиент_175-61);}.cls-65{fill:url(#Безымянный_градиент_175-62);}.cls-66{fill:url(#Безымянный_градиент_175-63);}.cls-67{fill:url(#Безымянный_градиент_175-64);}.cls-68{fill:url(#Безымянный_градиент_175-65);}.cls-69{fill:url(#Безымянный_градиент_175-66);}.cls-70{fill:url(#Безымянный_градиент_175-67);}.cls-71{fill:url(#Безымянный_градиент_175-68);}.cls-72{fill:url(#Безымянный_градиент_175-69);}.cls-73{fill:url(#Безымянный_градиент_175-70);}.cls-74{fill:#00d0ff;}.cls-75{fill:url(#Безымянный_градиент_21);}.cls-76{fill:url(#Безымянный_градиент_21-2);}.cls-77{fill:url(#Безымянный_градиент_21-3);}.cls-78{fill:url(#Безымянный_градиент_21-4);}.cls-79{fill:url(#Безымянный_градиент_21-5);}.cls-80{fill:url(#Безымянный_градиент_21-6);}.cls-81{fill:url(#Безымянный_градиент_21-7);}.cls-82{fill:url(#Безымянный_градиент_21-8);}.cls-83{fill:url(#Безымянный_градиент_21-9);}.cls-84{fill:url(#Безымянный_градиент_21-10);}.cls-85{fill:url(#Безымянный_градиент_21-11);}.cls-86{fill:url(#Безымянный_градиент_21-12);}.cls-87{fill:url(#Безымянный_градиент_21-13);}.cls-88{fill:url(#Безымянный_градиент_21-14);}.cls-89{fill:url(#Безымянный_градиент_21-15);}.cls-90{fill:url(#Безымянный_градиент_21-16);}.cls-91{fill:url(#Безымянный_градиент_21-17);}.cls-92{fill:url(#Безымянный_градиент_21-18);}.cls-93{fill:url(#Безымянный_градиент_21-19);}.cls-94{mask:url(#mask-2);}.cls-95{fill:url(#Безымянный_градиент_38);}.cls-96{filter:url(#luminosity-noclip);}</style><filter id="luminosity-noclip" x="58.45" y="-8274.86" width="61.03" height="32766" filterUnits="userSpaceOnUse" color-interpolation-filters="sRGB"><feFlood flood-color="#fff" result="bg"/><feBlend in="SourceGraphic" in2="bg"/></filter><mask id="mask" x="58.45" y="-8274.86" width="61.03" height="32766" maskUnits="userSpaceOnUse"><g class="cls-96"/></mask><linearGradient id="Безымянный_градиент_42" x1="88.39" y1="48.4" x2="89.87" y2="156.11" gradientTransform="translate(121.55 -32.28) rotate(59.59)" gradientUnits="userSpaceOnUse"><stop offset="0" stop-color="#333"/><stop offset="0.27" stop-color="#717171"/><stop offset="0.62" stop-color="#bdbdbd"/><stop offset="0.87" stop-color="#ededed"/><stop offset="1" stop-color="#fff"/></linearGradient><linearGradient id="Безымянный_градиент_43" x1="182.13" y1="54.16" x2="483.63" y2="54.16" gradientUnits="userSpaceOnUse"><stop offset="0" stop-color="#00bdff"/><stop offset="0.16" stop-color="#00bafc"/><stop offset="0.3" stop-color="#01b2f1"/><stop offset="0.43" stop-color="#01a3e0"/><stop offset="0.55" stop-color="#028fc7"/><stop offset="0.67" stop-color="#0375a7"/><stop offset="0.79" stop-color="#055480"/><stop offset="0.9" stop-color="#062f53"/><stop offset="1" stop-color="#080823"/></linearGradient><linearGradient id="Безымянный_градиент_175" x1="496.45" y1="-38.56" x2="133.23" y2="-41.14" gradientTransform="matrix(0.94, -0.34, 0.34, 0.94, -239.1, 306.43)" gradientUnits="userSpaceOnUse"><stop offset="0" stop-color="#00bdff"/><stop offset="0.11" stop-color="#01a2de"/><stop offset="0.35" stop-color="#046c9c"/><stop offset="0.57" stop-color="#054168"/><stop offset="0.75" stop-color="#072242"/><stop offset="0.91" stop-color="#080f2b"/><stop offset="1" stop-color="#080823"/></linearGradient><linearGradient id="Безымянный_градиент_175-2" x1="496.42" y1="-34.23" x2="133.19" y2="-36.81" xlink:href="#Безымянный_градиент_175"/><linearGradient id="Безымянный_градиент_175-3" x1="496.39" y1="-30.27" x2="133.17" y2="-32.85" xlink:href="#Безымянный_градиент_175"/><linearGradient id="Безымянный_градиент_175-4" x1="496.37" y1="-26.69" x2="133.14" y2="-29.27" xlink:href="#Безымянный_градиент_175"/><linearGradient id="Безымянный_градиент_175-5" x1="496.35" y1="-23.54" x2="133.12" y2="-26.12" xlink:href="#Безымянный_градиент_175"/><linearGradient id="Безымянный_градиент_175-6" x1="496.33" y1="-20.82" x2="133.1" y2="-23.4" xlink:href="#Безымянный_градиент_175"/><linearGradient id="Безымянный_градиент_175-7" x1="496.31" y1="-18.56" x2="133.08" y2="-21.15" xlink:href="#Безымянный_градиент_175"/><linearGradient id="Безымянный_градиент_175-8" x1="496.3" y1="-16.77" x2="133.07" y2="-19.35" xlink:href="#Безымянный_градиент_175"/><linearGradient id="Безымянный_градиент_175-9" x1="496.29" y1="-15.46" x2="133.06" y2="-18.04" xlink:href="#Безымянный_градиент_175"/><linearGradient id="Безымянный_градиент_175-10" x1="496.29" y1="-14.64" x2="133.04" y2="-17.22" xlink:href="#Безымянный_градиент_175"/><linearGradient id="Безымянный_градиент_175-11" x1="496.28" y1="-14.29" x2="133.05" y2="-16.88" xlink:href="#Безымянный_градиент_175"/><linearGradient id="Безымянный_градиент_175-12" x1="496.27" y1="-14.46" x2="133.07" y2="-17.04" xlink:href="#Безымянный_градиент_175"/><linearGradient id="Безымянный_градиент_175-13" x1="496.28" y1="-15.08" x2="133.08" y2="-17.66" xlink:href="#Безымянный_градиент_175"/><linearGradient id="Безымянный_градиент_175-14" x1="496.29" y1="-16.22" x2="133.08" y2="-18.8" xlink:href="#Безымянный_градиент_175"/><linearGradient id="Безымянный_градиент_175-15" x1="496.3" y1="-17.82" x2="133.1" y2="-20.4" xlink:href="#Безымянный_градиент_175"/><linearGradient id="Безымянный_градиент_175-16" x1="496.31" y1="-19.91" x2="133.11" y2="-22.49" xlink:href="#Безымянный_градиент_175"/><linearGradient id="Безымянный_градиент_175-17" x1="496.33" y1="-22.46" x2="133.12" y2="-25.04" xlink:href="#Безымянный_градиент_175"/><linearGradient id="Безымянный_градиент_175-18" x1="496.35" y1="-25.45" x2="133.14" y2="-28.03" xlink:href="#Безымянный_градиент_175"/><linearGradient id="Безымянный_градиент_175-19" x1="496.38" y1="-28.87" x2="133.17" y2="-31.45" xlink:href="#Безымянный_градиент_175"/><linearGradient id="Безымянный_градиент_175-20" x1="496.41" y1="-32.68" x2="133.2" y2="-35.26" xlink:href="#Безымянный_градиент_175"/><linearGradient id="Безымянный_градиент_175-21" x1="496.44" y1="-36.88" x2="133.22" y2="-39.47" xlink:href="#Безымянный_градиент_175"/><linearGradient id="Безымянный_градиент_175-22" x1="496.47" y1="-41.42" x2="133.26" y2="-44" xlink:href="#Безымянный_градиент_175"/><linearGradient id="Безымянный_градиент_175-23" x1="496.5" y1="-46.29" x2="133.29" y2="-48.87" xlink:href="#Безымянный_градиент_175"/><linearGradient id="Безымянный_градиент_175-24" x1="496.54" y1="-51.46" x2="133.33" y2="-54.04" xlink:href="#Безымянный_градиент_175"/><linearGradient id="Безымянный_градиент_175-25" x1="496.58" y1="-56.87" x2="133.36" y2="-59.46" xlink:href="#Безымянный_градиент_175"/><linearGradient id="Безымянный_градиент_175-26" x1="496.62" y1="-62.53" x2="133.4" y2="-65.11" xlink:href="#Безымянный_градиент_175"/><linearGradient id="Безымянный_градиент_175-27" x1="496.66" y1="-68.38" x2="133.44" y2="-70.96" xlink:href="#Безымянный_градиент_175"/><linearGradient id="Безымянный_градиент_175-28" x1="496.7" y1="-74.37" x2="133.49" y2="-76.95" xlink:href="#Безымянный_градиент_175"/><linearGradient id="Безымянный_градиент_175-29" x1="496.75" y1="-80.5" x2="133.53" y2="-83.08" xlink:href="#Безымянный_градиент_175"/><linearGradient id="Безымянный_градиент_175-30" x1="496.79" y1="-86.7" x2="133.57" y2="-89.28" xlink:href="#Безымянный_градиент_175"/><linearGradient id="Безымянный_градиент_175-31" x1="496.84" y1="-93.19" x2="133.62" y2="-95.77" xlink:href="#Безымянный_градиент_175"/><linearGradient id="Безымянный_градиент_175-32" x1="496.88" y1="-99.59" x2="133.66" y2="-102.17" xlink:href="#Безымянный_градиент_175"/><linearGradient id="Безымянный_градиент_175-33" x1="496.93" y1="-105.79" x2="133.71" y2="-108.37" xlink:href="#Безымянный_градиент_175"/><linearGradient id="Безымянный_градиент_175-34" x1="496.97" y1="-111.89" x2="133.75" y2="-114.47" xlink:href="#Безымянный_градиент_175"/><linearGradient id="Безымянный_градиент_175-35" x1="497.01" y1="-117.88" x2="133.79" y2="-120.46" xlink:href="#Безымянный_градиент_175"/><linearGradient id="Безымянный_градиент_175-36" x1="497.05" y1="-123.7" x2="133.83" y2="-126.28" xlink:href="#Безымянный_градиент_175"/><linearGradient id="Безымянный_градиент_175-37" x1="497.1" y1="-129.32" x2="133.87" y2="-131.9" xlink:href="#Безымянный_градиент_175"/><linearGradient id="Безымянный_градиент_175-38" x1="497.13" y1="-134.72" x2="133.91" y2="-137.3" xlink:href="#Безымянный_градиент_175"/><linearGradient id="Безымянный_градиент_175-39" x1="497.17" y1="-139.83" x2="133.95" y2="-142.41" xlink:href="#Безымянный_градиент_175"/><linearGradient id="Безымянный_градиент_175-40" x1="497.2" y1="-144.66" x2="133.98" y2="-147.24" xlink:href="#Безымянный_градиент_175"/><linearGradient id="Безымянный_градиент_175-41" x1="497.24" y1="-149.17" x2="134.01" y2="-151.75" xlink:href="#Безымянный_градиент_175"/><linearGradient id="Безымянный_градиент_175-42" x1="497.27" y1="-153.31" x2="134.04" y2="-155.89" xlink:href="#Безымянный_градиент_175"/><linearGradient id="Безымянный_градиент_175-43" x1="497.29" y1="-157.07" x2="134.07" y2="-159.65" xlink:href="#Безымянный_градиент_175"/><linearGradient id="Безымянный_градиент_175-44" x1="497.32" y1="-160.43" x2="134.09" y2="-163.02" xlink:href="#Безымянный_градиент_175"/><linearGradient id="Безымянный_градиент_175-45" x1="497.34" y1="-163.37" x2="134.11" y2="-165.95" xlink:href="#Безымянный_градиент_175"/><linearGradient id="Безымянный_градиент_175-46" x1="497.36" y1="-165.86" x2="134.12" y2="-168.44" xlink:href="#Безымянный_градиент_175"/><linearGradient id="Безымянный_градиент_175-47" x1="497.37" y1="-167.88" x2="134.14" y2="-170.46" xlink:href="#Безымянный_градиент_175"/><linearGradient id="Безымянный_градиент_175-48" x1="497.38" y1="-169.43" x2="134.15" y2="-172.01" xlink:href="#Безымянный_градиент_175"/><linearGradient id="Безымянный_градиент_175-49" x1="497.39" y1="-170.48" x2="134.15" y2="-173.06" xlink:href="#Безымянный_градиент_175"/><linearGradient id="Безымянный_градиент_175-50" x1="497.39" y1="-171.07" x2="134.17" y2="-173.65" xlink:href="#Безымянный_градиент_175"/><linearGradient id="Безымянный_градиент_175-51" x1="497.39" y1="-171.14" x2="134.18" y2="-173.72" xlink:href="#Безымянный_градиент_175"/><linearGradient id="Безымянный_градиент_175-52" x1="497.38" y1="-170.75" x2="134.19" y2="-173.33" xlink:href="#Безымянный_градиент_175"/><linearGradient id="Безымянный_градиент_175-53" x1="497.37" y1="-169.86" x2="134.18" y2="-172.44" xlink:href="#Безымянный_градиент_175"/><linearGradient id="Безымянный_градиент_175-54" x1="497.36" y1="-168.48" x2="134.17" y2="-171.06" xlink:href="#Безымянный_градиент_175"/><linearGradient id="Безымянный_градиент_175-55" x1="497.35" y1="-166.63" x2="134.15" y2="-169.21" xlink:href="#Безымянный_градиент_175"/><linearGradient id="Безымянный_градиент_175-56" x1="497.34" y1="-164.3" x2="134.13" y2="-166.89" xlink:href="#Безымянный_градиент_175"/><linearGradient id="Безымянный_градиент_175-57" x1="497.32" y1="-161.53" x2="134.11" y2="-164.11" xlink:href="#Безымянный_градиент_175"/><linearGradient id="Безымянный_градиент_175-58" x1="497.3" y1="-158.32" x2="134.09" y2="-160.9" xlink:href="#Безымянный_градиент_175"/><linearGradient id="Безымянный_градиент_175-59" x1="497.27" y1="-154.7" x2="134.06" y2="-157.28" xlink:href="#Безымянный_градиент_175"/><linearGradient id="Безымянный_градиент_175-60" x1="497.24" y1="-150.68" x2="134.03" y2="-153.26" xlink:href="#Безымянный_градиент_175"/><linearGradient id="Безымянный_градиент_175-61" x1="497.21" y1="-146.3" x2="134" y2="-148.88" xlink:href="#Безымянный_градиент_175"/><linearGradient id="Безымянный_градиент_175-62" x1="497.18" y1="-141.59" x2="133.97" y2="-144.18" xlink:href="#Безымянный_градиент_175"/><linearGradient id="Безымянный_градиент_175-63" x1="497.14" y1="-136.57" x2="133.93" y2="-139.15" xlink:href="#Безымянный_градиент_175"/><linearGradient id="Безымянный_градиент_175-64" x1="497.11" y1="-131.27" x2="133.89" y2="-133.85" xlink:href="#Безымянный_градиент_175"/><linearGradient id="Безымянный_градиент_175-65" x1="497.07" y1="-125.73" x2="133.85" y2="-128.31" xlink:href="#Безымянный_градиент_175"/><linearGradient id="Безымянный_градиент_175-66" x1="497.03" y1="-119.97" x2="133.81" y2="-122.55" xlink:href="#Безымянный_градиент_175"/><linearGradient id="Безымянный_градиент_175-67" x1="496.98" y1="-114.04" x2="133.77" y2="-116.62" xlink:href="#Безымянный_градиент_175"/><linearGradient id="Безымянный_градиент_175-68" x1="496.94" y1="-107.97" x2="133.73" y2="-110.55" xlink:href="#Безымянный_градиент_175"/><linearGradient id="Безымянный_градиент_175-69" x1="496.9" y1="-101.81" x2="133.68" y2="-104.39" xlink:href="#Безымянный_градиент_175"/><linearGradient id="Безымянный_градиент_175-70" x1="496.85" y1="-95.58" x2="133.64" y2="-98.16" xlink:href="#Безымянный_градиент_175"/><linearGradient id="Безымянный_градиент_21" x1="477.65" y1="87.44" x2="140.57" y2="88.04" gradientUnits="userSpaceOnUse"><stop offset="0" stop-color="#00bdff"/><stop offset="0.25" stop-color="#0384ba"/><stop offset="0.51" stop-color="#054f7a"/><stop offset="0.73" stop-color="#07294b"/><stop offset="0.9" stop-color="#08112e"/><stop offset="1" stop-color="#080823"/></linearGradient><linearGradient id="Безымянный_градиент_21-2" x1="477.66" y1="87.41" x2="140.58" y2="88.02" xlink:href="#Безымянный_градиент_21"/><linearGradient id="Безымянный_градиент_21-3" x1="477.67" y1="87.38" x2="140.59" y2="87.99" xlink:href="#Безымянный_градиент_21"/><linearGradient id="Безымянный_градиент_21-4" x1="477.68" y1="87.35" x2="140.6" y2="87.96" xlink:href="#Безымянный_градиент_21"/><linearGradient id="Безымянный_градиент_21-5" x1="477.74" y1="87.21" x2="140.66" y2="87.82" xlink:href="#Безымянный_градиент_21"/><linearGradient id="Безымянный_градиент_21-6" x1="477.7" y1="87.33" x2="140.62" y2="87.93" xlink:href="#Безымянный_градиент_21"/><linearGradient id="Безымянный_градиент_21-7" x1="477.7" y1="87.3" x2="140.63" y2="87.9" xlink:href="#Безымянный_градиент_21"/><linearGradient id="Безымянный_градиент_21-8" x1="477.72" y1="87.27" x2="140.64" y2="87.87" xlink:href="#Безымянный_градиент_21"/><linearGradient id="Безымянный_градиент_21-9" x1="477.73" y1="87.24" x2="140.65" y2="87.84" xlink:href="#Безымянный_градиент_21"/><linearGradient id="Безымянный_градиент_21-10" x1="477.58" y1="87.61" x2="140.5" y2="88.22" xlink:href="#Безымянный_градиент_21"/><linearGradient id="Безымянный_градиент_21-11" x1="477.54" y1="87.73" x2="140.46" y2="88.33" xlink:href="#Безымянный_градиент_21"/><linearGradient id="Безымянный_градиент_21-12" x1="477.55" y1="87.7" x2="140.47" y2="88.3" xlink:href="#Безымянный_градиент_21"/><linearGradient id="Безымянный_градиент_21-13" x1="477.56" y1="87.67" x2="140.48" y2="88.27" xlink:href="#Безымянный_градиент_21"/><linearGradient id="Безымянный_градиент_21-14" x1="477.57" y1="87.64" x2="140.49" y2="88.24" xlink:href="#Безымянный_градиент_21"/><linearGradient id="Безымянный_градиент_21-15" x1="477.64" y1="87.47" x2="140.56" y2="88.07" xlink:href="#Безымянный_градиент_21"/><linearGradient id="Безымянный_градиент_21-16" x1="477.59" y1="87.58" x2="140.51" y2="88.19" xlink:href="#Безымянный_градиент_21"/><linearGradient id="Безымянный_градиент_21-17" x1="477.61" y1="87.55" x2="140.52" y2="88.16" xlink:href="#Безымянный_градиент_21"/><linearGradient id="Безымянный_градиент_21-18" x1="477.62" y1="87.53" x2="140.54" y2="88.13" xlink:href="#Безымянный_градиент_21"/><linearGradient id="Безымянный_градиент_21-19" x1="477.63" y1="87.5" x2="140.55" y2="88.1" xlink:href="#Безымянный_градиент_21"/><filter id="luminosity-noclip-2" x="58.45" y="59.49" width="61.03" height="61.02" filterUnits="userSpaceOnUse" color-interpolation-filters="sRGB"><feFlood flood-color="#fff" result="bg"/><feBlend in="SourceGraphic" in2="bg"/></filter><mask id="mask-2" x="58.45" y="59.49" width="61.03" height="61.02" maskUnits="userSpaceOnUse"><g class="cls-1"><circle class="cls-2" cx="88.96" cy="90" r="30.51" transform="translate(-33.69 121.16) rotate(-59.59)"/></g></mask><linearGradient id="Безымянный_градиент_38" x1="88.39" y1="48.4" x2="89.87" y2="156.11" gradientTransform="translate(121.55 -32.28) rotate(59.59)" gradientUnits="userSpaceOnUse"><stop offset="0" stop-color="#00bdff"/><stop offset="0.31" stop-color="#037db1"/><stop offset="0.64" stop-color="#063e65"/><stop offset="0.88" stop-color="#071735"/><stop offset="1" stop-color="#080823"/></linearGradient></defs><title>loading_06</title><g id="Layer_2" data-name="Layer 2"><g id="Layer_1-2" data-name="Layer 1"><rect class="cls-3" x="182.13" y="46.06" width="301.5" height="16.21"/><path class="cls-4" d="M150.93,116.51a2,2,0,0,1,2.66-.86l14.86,6.19a2.16,2.16,0,0,1,1,3,2.42,2.42,0,0,1-1.22,1.26,2,2,0,0,1-1.64,0l-14.51-7a2.19,2.19,0,0,1-1.09-1.12A1.74,1.74,0,0,1,150.93,116.51Z"/><path class="cls-5" d="M148.51,121.38a2,2,0,0,1,2.71-.65l14.33,7.34a2.3,2.3,0,0,1-2.19,4L149.44,124A2,2,0,0,1,148.51,121.38Z"/><path class="cls-6" d="M145.73,126.05a2,2,0,0,1,2.74-.44l13.7,8.45a2.3,2.3,0,0,1-2.51,3.84l-13.24-9.17A2,2,0,0,1,145.73,126.05Z"/><path class="cls-7" d="M142.57,130.47a2,2,0,0,1,2.79-.2l13,9.51a2.16,2.16,0,0,1,.26,3.1,2.43,2.43,0,0,1-1.48.93,2,2,0,0,1-1.59-.41l-12.46-10.18a2.23,2.23,0,0,1-.8-1.35A1.7,1.7,0,0,1,142.57,130.47Z"/><path class="cls-8" d="M139.08,134.63a1.83,1.83,0,0,1,1.31-.54,2.25,2.25,0,0,1,1.47.55l12.19,10.51a2,2,0,0,1,.68,1.49,2.35,2.35,0,0,1-.65,1.64,2.19,2.19,0,0,1-3.11.27L139.35,137.4A2,2,0,0,1,139.08,134.63Z"/><path class="cls-9" d="M135.27,138.51a2,2,0,0,1,2.77.22l11.31,11.45a2.3,2.3,0,0,1-3.35,3.14l-10.69-12A2,2,0,0,1,135.27,138.51Z"/><path class="cls-10" d="M131.16,142.05a2,2,0,0,1,2.75.46l10.37,12.32a2.3,2.3,0,0,1-3.59,2.86L131,144.84A2,2,0,0,1,131.16,142.05Z"/><path class="cls-11" d="M126.79,145.27a2,2,0,0,1,2.69.66L138.82,159a2.3,2.3,0,0,1-3.8,2.56L126.39,148A2,2,0,0,1,126.79,145.27Z"/><path class="cls-12" d="M122.16,148.11a2,2,0,0,1,2.64.89l8.27,13.81a2.19,2.19,0,0,1-1,3,2.16,2.16,0,0,1-3-.72l-7.52-14.24A2,2,0,0,1,122.16,148.11Z"/><path class="cls-13" d="M117.32,150.58a2,2,0,0,1,2.56,1.09L127,166.1a2.3,2.3,0,0,1-4.15,1.93l-6.37-14.79A2,2,0,0,1,117.32,150.58Z"/><path class="cls-14" d="M112.3,152.67a2,2,0,0,1,2.46,1.28l6,15a2.19,2.19,0,0,1-1.4,2.79,2.35,2.35,0,0,1-1.77,0,2,2,0,0,1-1.12-1.18l-5.19-15.24a2.22,2.22,0,0,1,0-1.57A1.88,1.88,0,0,1,112.3,152.67Z"/><path class="cls-15" d="M107.12,154.35a1.73,1.73,0,0,1,1.41.25,2.19,2.19,0,0,1,1,1.24l4.79,15.37a2,2,0,0,1-.21,1.62,2.4,2.4,0,0,1-1.42,1,2.16,2.16,0,0,1-2.77-1.4l-4-15.6A2,2,0,0,1,107.12,154.35Z"/><path class="cls-16" d="M101.84,155.65a2,2,0,0,1,2.23,1.63l3.56,15.7a2.3,2.3,0,0,1-4.5.9L100.41,158A2,2,0,0,1,101.84,155.65Z"/><path class="cls-17" d="M96.47,156.47a2,2,0,0,1,2.1,1.86l2.3,15.93a2.3,2.3,0,0,1-4.56.53l-1.45-16A2.06,2.06,0,0,1,96.47,156.47Z"/><path class="cls-18" d="M91.06,156.9a1.84,1.84,0,0,1,1.31.55,2.25,2.25,0,0,1,.63,1.43L94,175a2,2,0,0,1-.59,1.52,2.29,2.29,0,0,1-1.63.69,2.19,2.19,0,0,1-2.37-2L89.28,159A2,2,0,0,1,91.06,156.9Z"/><path class="cls-19" d="M85.63,156.88A2,2,0,0,1,87.41,159l-.28,16.09a2.18,2.18,0,0,1-2.38,2,2.41,2.41,0,0,1-.9-.19,2.5,2.5,0,0,1-.72-.5,2,2,0,0,1-.58-1.53l1.13-16.06a2.26,2.26,0,0,1,.64-1.43,2,2,0,0,1,.6-.4A1.73,1.73,0,0,1,85.63,156.88Z"/><path class="cls-20" d="M80.23,156.42a1.73,1.73,0,0,1,1.2.77,2.24,2.24,0,0,1,.39,1.52l-1.56,16a2,2,0,0,1-.82,1.41,2.47,2.47,0,0,1-1.71.4,2.17,2.17,0,0,1-2-2.37l2.41-15.91A2,2,0,0,1,80.23,156.42Z"/><path class="cls-21" d="M74.86,155.55a2,2,0,0,1,1.42,2.38l-2.83,15.85a2.3,2.3,0,0,1-4.49-.92l3.66-15.68A2,2,0,0,1,74.86,155.55Z"/><path class="cls-22" d="M69.59,154.23a2,2,0,0,1,1.22,2.51l-4.08,15.57a2.19,2.19,0,0,1-2.8,1.39,2.15,2.15,0,0,1-1.6-2.67l4.89-15.34A2,2,0,0,1,69.59,154.23Z"/><path class="cls-23" d="M64.44,152.51a1.72,1.72,0,0,1,1,1,2.2,2.2,0,0,1,0,1.56l-5.3,15.21A2,2,0,0,1,59,171.48a2.4,2.4,0,0,1-1.75,0,2.17,2.17,0,0,1-1.4-2.78L62,153.79A2,2,0,0,1,64.44,152.51Z"/><path class="cls-24" d="M59.42,150.4a2,2,0,0,1,.82,2.64l-6.49,14.74a2.3,2.3,0,0,1-4.14-2l7.25-14.37A2,2,0,0,1,59.42,150.4Z"/><path class="cls-25" d="M54.61,147.87a2,2,0,0,1,.59,2.72l-7.63,14.18a2.3,2.3,0,0,1-4-2.28L52,148.73A2,2,0,0,1,54.61,147.87Z"/><path class="cls-26" d="M50,145a1.77,1.77,0,0,1,.72,1.24,2.19,2.19,0,0,1-.35,1.52l-8.72,13.53a2,2,0,0,1-1.38.88,2.38,2.38,0,0,1-1.71-.43,2.17,2.17,0,0,1-.7-3l9.43-13.05A2,2,0,0,1,50,145Z"/><path class="cls-27" d="M45.63,141.76a2,2,0,0,1,.17,2.76L36,157.31a2.29,2.29,0,0,1-3.56-2.88l10.43-12.26A2,2,0,0,1,45.63,141.76Z"/><path class="cls-28" d="M41.55,138.16a2,2,0,0,1-.07,2.79l-10.76,12a2.18,2.18,0,0,1-3.12-.05,2.36,2.36,0,0,1-.77-1.58,2,2,0,0,1,.56-1.53l11.38-11.39a2.31,2.31,0,0,1,1.42-.66A1.8,1.8,0,0,1,41.55,138.16Z"/><path class="cls-29" d="M37.76,134.28a2,2,0,0,1-.29,2.76L25.79,148.12a2.3,2.3,0,0,1-3.07-3.4L35,134.27A2,2,0,0,1,37.76,134.28Z"/><path class="cls-30" d="M34.29,130.11a2,2,0,0,1-.5,2.72L21.26,142.94a2.3,2.3,0,0,1-2.78-3.65l13.05-9.42A2,2,0,0,1,34.29,130.11Z"/><path class="cls-31" d="M31.18,125.65a2,2,0,0,1-.74,2.7l-13.3,9.07a2.3,2.3,0,0,1-2.48-3.85l13.76-8.36A2.05,2.05,0,0,1,31.18,125.65Z"/><path class="cls-32" d="M28.42,121a2,2,0,0,1-.93,2.61l-14,8a2.3,2.3,0,0,1-2.17-4l14.39-7.23A2,2,0,0,1,28.42,121Z"/><path class="cls-33" d="M26.05,116.09a2,2,0,0,1-1.15,2.54l-14.57,6.84a2.17,2.17,0,0,1-2.85-1.25,2.14,2.14,0,0,1,1-2.94l14.91-6.07A2,2,0,0,1,26.05,116.09Z"/><path class="cls-34" d="M24.06,111a2,2,0,0,1-1.33,2.44L7.66,119.14a2.16,2.16,0,0,1-2.75-1.47,2.18,2.18,0,0,1,1.25-2.85l15.34-4.89A2,2,0,0,1,24.06,111Z"/><path class="cls-35" d="M22.47,105.81A2,2,0,0,1,21,108.14L5.49,112.62a2.18,2.18,0,0,1-2.63-1.68,2.42,2.42,0,0,1-.08-.92,2.14,2.14,0,0,1,.27-.83,2,2,0,0,1,1.28-1L20,104.53a2.19,2.19,0,0,1,1.55.19,1.77,1.77,0,0,1,.56.45A1.49,1.49,0,0,1,22.47,105.81Z"/><path class="cls-36" d="M21.32,100.5a1.77,1.77,0,0,1-.39,1.38,2.16,2.16,0,0,1-1.33.82L3.83,106a2,2,0,0,1-1.59-.37,2.4,2.4,0,0,1-.89-1.52A2.18,2.18,0,0,1,3,101.43L18.94,99A2,2,0,0,1,21.32,100.5Z"/><path class="cls-37" d="M20.56,95.13a2,2,0,0,1-1.86,2.05l-16,2a2.3,2.3,0,0,1-.44-4.56l16.06-1.12A2,2,0,0,1,20.56,95.13Z"/><path class="cls-38" d="M20.27,89.71a2,2,0,0,1-2.05,1.9l-16.08.68A2.16,2.16,0,0,1,0,90a2.44,2.44,0,0,1,.58-1.65,2,2,0,0,1,1.49-.67l16.1.17a2.26,2.26,0,0,1,1.46.55A1.72,1.72,0,0,1,20.27,89.71Z"/><path class="cls-39" d="M20.4,84.28a1.69,1.69,0,0,1-.22.7,1.89,1.89,0,0,1-.47.55,2.24,2.24,0,0,1-1.49.48l-16.08-.6a2,2,0,0,1-1.46-.74,2.35,2.35,0,0,1-.42-.76A2.59,2.59,0,0,1,.16,83a2.19,2.19,0,0,1,2.26-2.15l16,1.46A2,2,0,0,1,20.4,84.28Z"/><path class="cls-40" d="M21,78.88a2,2,0,0,1-2.31,1.55l-16-1.88A2.2,2.2,0,0,1,.89,76a2.34,2.34,0,0,1,.86-1.54A2,2,0,0,1,3.33,74l15.86,2.73a2.22,2.22,0,0,1,1.36.78A1.81,1.81,0,0,1,21,78.88Z"/><path class="cls-41" d="M22,73.54a2,2,0,0,1-2.44,1.36L3.73,71.75a2.15,2.15,0,0,1-1.54-2.7,2.15,2.15,0,0,1,2.56-1.77l15.59,4A2,2,0,0,1,22,73.54Z"/><path class="cls-42" d="M23.36,68.29a1.84,1.84,0,0,1-.95,1.06,2.24,2.24,0,0,1-1.56.11L5.36,65.06A1.93,1.93,0,0,1,4.12,64,2.36,2.36,0,0,1,4,62.24a2.19,2.19,0,0,1,2.71-1.55L22,65.9A2,2,0,0,1,23.36,68.29Z"/><path class="cls-43" d="M25.19,63.17a2,2,0,0,1-2.61,1L7.49,58.53a2.2,2.2,0,0,1-1.11-2.92,2.25,2.25,0,0,1,1.2-1.29,2,2,0,0,1,1.63,0L24,60.67a2.27,2.27,0,0,1,1.14,1.08A1.84,1.84,0,0,1,25.19,63.17Z"/><path class="cls-44" d="M27.43,58.21a2.05,2.05,0,0,1-2.7.75l-14.6-6.78a2.16,2.16,0,0,1-.86-3,2.16,2.16,0,0,1,2.9-1.12l14.22,7.54A2,2,0,0,1,27.43,58.21Z"/><path class="cls-45" d="M30,53.44a2,2,0,0,1-2.72.54l-14-7.91a2.3,2.3,0,0,1,2.35-3.93l13.58,8.64A2,2,0,0,1,30,53.44Z"/><path class="cls-46" d="M33,48.89a2,2,0,0,1-2.76.32l-13.35-9a2.18,2.18,0,0,1-.4-3.09,2.59,2.59,0,0,1,.66-.66,2.25,2.25,0,0,1,.81-.32,2,2,0,0,1,1.59.35l12.86,9.69a2.19,2.19,0,0,1,.85,1.31,1.94,1.94,0,0,1,0,.72A1.62,1.62,0,0,1,33,48.89Z"/><path class="cls-47" d="M36.34,44.6a1.71,1.71,0,0,1-1.3.59,2.26,2.26,0,0,1-1.49-.5L21,34.66a1.93,1.93,0,0,1-.73-1.45,2.51,2.51,0,0,1,.59-1.66,2.16,2.16,0,0,1,3.08-.4L36,41.83A2,2,0,0,1,36.34,44.6Z"/><path class="cls-48" d="M40,40.58a2,2,0,0,1-2.77-.12l-11.75-11a2.3,2.3,0,0,1,3.22-3.26L39.84,37.81A2,2,0,0,1,40,40.58Z"/><path class="cls-49" d="M44,36.88a2,2,0,0,1-2.76-.35L30.36,24.62a2.3,2.3,0,0,1,3.48-3L44,34.1A2,2,0,0,1,44,36.88Z"/><path class="cls-50" d="M48.21,33.5a1.82,1.82,0,0,1-1.4.27,2.22,2.22,0,0,1-1.32-.84L35.64,20.2a2,2,0,0,1-.37-1.6,2.36,2.36,0,0,1,1-1.46,2.18,2.18,0,0,1,3.1.34l9.15,13.25A2,2,0,0,1,48.21,33.5Z"/><path class="cls-51" d="M52.71,30.46a2,2,0,0,1-2.66-.76l-8.8-13.49a2.3,2.3,0,0,1,3.91-2.4l8.06,13.93A2,2,0,0,1,52.71,30.46Z"/><path class="cls-52" d="M57.45,27.82a2,2,0,0,1-2.61-1L47.15,12.66a2.15,2.15,0,0,1,1.09-2.9,2.14,2.14,0,0,1,3,.83l6.94,14.52A2.05,2.05,0,0,1,57.45,27.82Z"/><path class="cls-53" d="M62.39,25.53a2,2,0,0,1-2.51-1.18L53.33,9.64a2.29,2.29,0,0,1,4.23-1.75l5.77,15A2,2,0,0,1,62.39,25.53Z"/><path class="cls-54" d="M67.5,23.65a2,2,0,0,1-2.42-1.39L59.71,7.08a2.16,2.16,0,0,1,1.52-2.71A2.44,2.44,0,0,1,63,4.44a2,2,0,0,1,1.08,1.23L68.64,21.1a2.23,2.23,0,0,1-.1,1.56A1.72,1.72,0,0,1,67.5,23.65Z"/><path class="cls-55" d="M72.73,22.17a1.59,1.59,0,0,1-.72,0,1.79,1.79,0,0,1-.67-.27,2.23,2.23,0,0,1-.9-1.29L66.27,5.05a1.93,1.93,0,0,1,.28-1.6,2.24,2.24,0,0,1,.6-.63A2.71,2.71,0,0,1,68,2.45,2.2,2.2,0,0,1,70.73,4l3.34,15.75A2,2,0,0,1,72.73,22.17Z"/><path class="cls-56" d="M78.06,21.11a2,2,0,0,1-2.16-1.74L73,3.53a2.19,2.19,0,0,1,1.94-2.45,2.83,2.83,0,0,1,.92,0,2.41,2.41,0,0,1,.8.35,2,2,0,0,1,.87,1.38l2.07,16a2.2,2.2,0,0,1-.34,1.53,1.9,1.9,0,0,1-.51.51A1.6,1.6,0,0,1,78.06,21.11Z"/><path class="cls-57" d="M83.45,20.49A1.75,1.75,0,0,1,82.12,20a2.25,2.25,0,0,1-.68-1.4l-1.65-16A2,2,0,0,1,80.32,1a2.49,2.49,0,0,1,1.6-.73A2.19,2.19,0,0,1,84.37,2.2l.79,16.08A2,2,0,0,1,83.45,20.49Z"/><path class="cls-58" d="M88.88,20.28A2,2,0,0,1,87,18.23l-.36-16.1a2.3,2.3,0,0,1,4.59,0l-.5,16.09A2,2,0,0,1,88.88,20.28Z"/><path class="cls-59" d="M94.3,20.54a2,2,0,0,1-1.68-2.23l.93-16.07A2.16,2.16,0,0,1,96,.34a2.36,2.36,0,0,1,1.59.74,2,2,0,0,1,.52,1.55l-1.79,16a2.23,2.23,0,0,1-.69,1.4A1.78,1.78,0,0,1,94.3,20.54Z"/><path class="cls-60" d="M99.69,21.21a2,2,0,0,1-1.5-2.34L100.4,2.92A2.16,2.16,0,0,1,103,1.21a2.17,2.17,0,0,1,1.91,2.46l-3,15.8A2,2,0,0,1,99.69,21.21Z"/><path class="cls-61" d="M105,22.3a2,2,0,0,1-1.31-2.44l3.47-15.72a2.3,2.3,0,0,1,4.45,1.11l-4.3,15.51A2,2,0,0,1,105,22.3Z"/><path class="cls-62" d="M110.23,23.83a2,2,0,0,1-1.11-2.56l4.71-15.4a2.16,2.16,0,0,1,2.84-1.26A2.46,2.46,0,0,1,118,5.71a2,2,0,0,1,.13,1.62l-5.51,15.13a2.28,2.28,0,0,1-1,1.2A1.74,1.74,0,0,1,110.23,23.83Z"/><path class="cls-63" d="M115.31,25.76a1.87,1.87,0,0,1-1-1.06,2.24,2.24,0,0,1,0-1.57l5.91-15A2,2,0,0,1,121.49,7a2.3,2.3,0,0,1,1.76.07A2.2,2.2,0,0,1,124.53,10l-6.69,14.64A2,2,0,0,1,115.31,25.76Z"/><path class="cls-64" d="M120.23,28.08a2,2,0,0,1-.7-2.69l7.07-14.46a2.3,2.3,0,0,1,4.06,2.13l-7.83,14.06A2,2,0,0,1,120.23,28.08Z"/><path class="cls-65" d="M124.94,30.8a2,2,0,0,1-.47-2.76l8.2-13.86a2.3,2.3,0,0,1,3.87,2.44L127.63,30A2,2,0,0,1,124.94,30.8Z"/><path class="cls-66" d="M129.43,33.86a1.65,1.65,0,0,1-.46-.56,1.86,1.86,0,0,1-.22-.69,2.25,2.25,0,0,1,.41-1.51l9.27-13.17a2,2,0,0,1,1.41-.82,2.34,2.34,0,0,1,.87.07,2.41,2.41,0,0,1,.83.42,2.18,2.18,0,0,1,.57,3.06l-10,12.66A2,2,0,0,1,129.43,33.86Z"/><path class="cls-67" d="M133.66,37.27a2,2,0,0,1,0-2.77l10.28-12.39A2.2,2.2,0,0,1,147,22a2.3,2.3,0,0,1,.82,1.56,2,2,0,0,1-.5,1.55L136.41,37a2.27,2.27,0,0,1-1.39.72A1.81,1.81,0,0,1,133.66,37.27Z"/><path class="cls-68" d="M137.59,41a2,2,0,0,1,.19-2.79L149,26.7a2.3,2.3,0,0,1,3.2,3.29L140.38,40.9A2,2,0,0,1,137.59,41Z"/><path class="cls-69" d="M141.22,45.05a2,2,0,0,1,.4-2.74l12.12-10.6a2.3,2.3,0,0,1,2.93,3.54L144,45.18A2,2,0,0,1,141.22,45.05Z"/><path class="cls-70" d="M144.51,49.37a2,2,0,0,1,.62-2.71l12.93-9.59a2.19,2.19,0,0,1,3.05.67,2.15,2.15,0,0,1-.42,3.09l-13.42,8.88A2,2,0,0,1,144.51,49.37Z"/><path class="cls-71" d="M147.44,53.94a1.78,1.78,0,0,1-.12-1.43,2.23,2.23,0,0,1,1-1.23l13.66-8.52a2,2,0,0,1,1.62-.2,2.37,2.37,0,0,1,1.36,1.11,2.17,2.17,0,0,1-.65,3l-14.1,7.79A2,2,0,0,1,147.44,53.94Z"/><path class="cls-72" d="M150,58.72a2,2,0,0,1,1-2.57l14.3-7.4a2.3,2.3,0,0,1,2,4.12l-14.67,6.64A2,2,0,0,1,150,58.72Z"/><path class="cls-73" d="M152.18,63.72a2,2,0,0,1,1.26-2.5L168.28,55A2.3,2.3,0,0,1,170,59.23L154.8,64.7A2,2,0,0,1,152.18,63.72Z"/><path class="cls-74" d="M136.61,77.71A49.72,49.72,0,0,0,132,66.19l-8.14,4.52a41.74,41.74,0,0,0-3.34-5.06l7.36-5.71a49.26,49.26,0,0,0-19.43-15l-3.68,8.55a40,40,0,0,0-5.74-2l2.33-9a49.23,49.23,0,0,0-24.59,0l2.33,9a39.62,39.62,0,0,0-5.74,2l-3.68-8.55a49.26,49.26,0,0,0-19.43,15l7.36,5.71a39.5,39.5,0,0,0-3.34,5.06l-8.14-4.52a49.29,49.29,0,0,0-4.61,11.52,49.5,49.5,0,0,0,0,24.58,49.36,49.36,0,0,0,4.61,11.53l8.14-4.53a38.15,38.15,0,0,0,3.34,5.06l-7.36,5.71a49.29,49.29,0,0,0,19.43,15.06l3.68-8.56a38.45,38.45,0,0,0,5.74,2l-2.33,9a49.54,49.54,0,0,0,24.59,0l-2.33-9a38.85,38.85,0,0,0,5.74-2l3.68,8.56a49.29,49.29,0,0,0,19.43-15.06l-7.36-5.71a40.23,40.23,0,0,0,3.34-5.06l8.14,4.53a49.8,49.8,0,0,0,4.61-11.53,49.5,49.5,0,0,0,0-24.58ZM89.06,129.38A39.38,39.38,0,1,1,128.45,90,39.38,39.38,0,0,1,89.06,129.38Z"/><polygon class="cls-75" points="301.49 105.69 287.75 105.69 296.6 69.83 310.34 69.83 301.49 105.69"/><polygon class="cls-76" points="285.56 105.69 271.82 105.69 280.67 69.83 294.41 69.83 285.56 105.69"/><polygon class="cls-77" points="269.64 105.69 255.9 105.69 264.75 69.83 278.49 69.83 269.64 105.69"/><polygon class="cls-78" points="253.71 105.69 239.97 105.69 248.82 69.83 262.56 69.83 253.71 105.69"/><polygon class="cls-79" points="174.09 105.69 160.35 105.69 169.2 69.83 182.94 69.83 174.09 105.69"/><polygon class="cls-80" points="237.79 105.69 224.05 105.69 232.9 69.83 246.64 69.83 237.79 105.69"/><polygon class="cls-81" points="221.86 105.69 208.13 105.69 216.97 69.83 230.71 69.83 221.86 105.69"/><polygon class="cls-82" points="205.94 105.69 192.2 105.69 201.05 69.83 214.79 69.83 205.94 105.69"/><polygon class="cls-83" points="190.01 105.69 176.28 105.69 185.13 69.83 198.87 69.83 190.01 105.69"/><polygon class="cls-84" points="397.03 105.69 383.29 105.69 392.14 69.83 405.88 69.83 397.03 105.69"/><polygon class="cls-85" points="460.73 105.69 446.99 105.69 455.84 69.83 469.58 69.83 460.73 105.69"/><polygon class="cls-86" points="444.81 105.69 431.07 105.69 439.92 69.83 453.66 69.83 444.81 105.69"/><polygon class="cls-87" points="428.88 105.69 415.14 105.69 423.99 69.83 437.73 69.83 428.88 105.69"/><polygon class="cls-88" points="412.96 105.69 399.22 105.69 408.07 69.83 421.81 69.83 412.96 105.69"/><polygon class="cls-89" points="317.41 105.69 303.67 105.69 312.52 69.83 326.26 69.83 317.41 105.69"/><polygon class="cls-90" points="381.11 105.69 367.37 105.69 376.22 69.83 389.96 69.83 381.11 105.69"/><polygon class="cls-91" points="365.18 105.69 351.44 105.69 360.3 69.83 374.04 69.83 365.18 105.69"/><polygon class="cls-92" points="349.26 105.69 335.52 105.69 344.37 69.83 358.11 69.83 349.26 105.69"/><polygon class="cls-93" points="333.33 105.69 319.6 105.69 328.45 69.83 342.19 69.83 333.33 105.69"/><path class="cls-74" d="M241.2,129.1H173.11a1.06,1.06,0,1,1,0-2.12h67.71l15.64-12.66a1,1,0,0,1,.67-.24H476l15.26-70.55H245.83a1.14,1.14,0,0,1-.57-.16L222.7,29.06l-62.47.27h0a1.08,1.08,0,0,1-1.07-1.06,1.05,1.05,0,0,1,1.06-1.06L223,26.93a1,1,0,0,1,.57.17l22.57,14.31H492.52a1.1,1.1,0,0,1,.83.39,1.06,1.06,0,0,1,.21.89l-15.71,72.67a1.07,1.07,0,0,1-1,.84H257.5l-15.63,12.67A1.09,1.09,0,0,1,241.2,129.1Z"/><polygon class="cls-74" points="423.47 125.21 266.7 125.21 261.75 115.75 428.41 115.75 423.47 125.21"/><polygon class="cls-74" points="473.21 33.82 316.43 33.82 311.49 43.28 478.15 43.28 473.21 33.82"/><polygon class="cls-74" points="465.39 67.05 308.61 67.05 303.67 64.61 470.33 64.61 465.39 67.05"/><polygon class="cls-74" points="203.15 30.43 162.85 30.43 161.58 27.99 204.42 27.99 203.15 30.43"/><polygon class="cls-74" points="233.27 125.61 192.97 125.61 191.69 128.04 234.54 128.04 233.27 125.61"/><polygon class="cls-74" points="340.14 112.2 183.37 112.2 178.43 109.77 345.08 109.77 340.14 112.2"/><path class="cls-74" d="M472.51,111H170.84a.64.64,0,0,1-.64-.63.64.64,0,0,1,.64-.64H472l9.74-44.23H177.41a.63.63,0,0,1-.63-.63V47.74a.63.63,0,0,1,.63-.63.64.64,0,0,1,.64.63V64.2H482.54a.63.63,0,0,1,.49.24.64.64,0,0,1,.13.53l-10,45.51A.62.62,0,0,1,472.51,111Z"/><path class="cls-74" d="M179.26,47.74a1.87,1.87,0,1,1-1.86-1.86A1.87,1.87,0,0,1,179.26,47.74Z"/><path class="cls-74" d="M172.7,110.34a1.87,1.87,0,1,1-1.86-1.87A1.86,1.86,0,0,1,172.7,110.34Z"/><path class="cls-74" d="M184.4,61.05a1.33,1.33,0,0,1-1.2-1.42V48.7a1.21,1.21,0,1,1,2.39,0V59.63A1.33,1.33,0,0,1,184.4,61.05Z"/><path class="cls-74" d="M188,61.05a1.33,1.33,0,0,1-1.19-1.42V48.7a1.21,1.21,0,1,1,2.38,0V59.63A1.32,1.32,0,0,1,188,61.05Z"/><path class="cls-74" d="M191.55,61.05a1.32,1.32,0,0,1-1.19-1.42V48.7a1.21,1.21,0,1,1,2.38,0V59.63A1.32,1.32,0,0,1,191.55,61.05Z"/><path class="cls-74" d="M195.13,61.05a1.32,1.32,0,0,1-1.19-1.42V48.7a1.21,1.21,0,1,1,2.38,0V59.63A1.32,1.32,0,0,1,195.13,61.05Z"/><path class="cls-74" d="M198.7,61.05a1.33,1.33,0,0,1-1.19-1.42V48.7a1.21,1.21,0,1,1,2.39,0V59.63A1.33,1.33,0,0,1,198.7,61.05Z"/><path class="cls-74" d="M202.28,61.05a1.32,1.32,0,0,1-1.19-1.42V48.7a1.21,1.21,0,1,1,2.38,0V59.63A1.32,1.32,0,0,1,202.28,61.05Z"/><path class="cls-74" d="M205.86,61.05a1.32,1.32,0,0,1-1.19-1.42V48.7a1.21,1.21,0,1,1,2.38,0V59.63A1.32,1.32,0,0,1,205.86,61.05Z"/><path class="cls-74" d="M209.44,61.05a1.33,1.33,0,0,1-1.2-1.42V48.7a1.21,1.21,0,1,1,2.39,0V59.63A1.33,1.33,0,0,1,209.44,61.05Z"/><path class="cls-74" d="M213,61.05a1.33,1.33,0,0,1-1.19-1.42V48.7a1.21,1.21,0,1,1,2.38,0V59.63A1.32,1.32,0,0,1,213,61.05Z"/><path class="cls-74" d="M216.59,61.05a1.32,1.32,0,0,1-1.19-1.42V48.7a1.21,1.21,0,1,1,2.38,0V59.63A1.32,1.32,0,0,1,216.59,61.05Z"/><path class="cls-74" d="M220.17,61.05A1.32,1.32,0,0,1,219,59.63V48.7a1.21,1.21,0,1,1,2.38,0V59.63A1.32,1.32,0,0,1,220.17,61.05Z"/><path class="cls-74" d="M223.74,61.05a1.33,1.33,0,0,1-1.19-1.42V48.7a1.21,1.21,0,1,1,2.39,0V59.63A1.33,1.33,0,0,1,223.74,61.05Z"/><path class="cls-74" d="M227.32,61.05a1.32,1.32,0,0,1-1.19-1.42V48.7a1.21,1.21,0,1,1,2.38,0V59.63A1.32,1.32,0,0,1,227.32,61.05Z"/><path class="cls-74" d="M230.9,61.05a1.32,1.32,0,0,1-1.19-1.42V48.7a1.21,1.21,0,1,1,2.38,0V59.63A1.32,1.32,0,0,1,230.9,61.05Z"/><path class="cls-74" d="M234.48,61.05a1.33,1.33,0,0,1-1.2-1.42V48.7a1.21,1.21,0,1,1,2.39,0V59.63A1.33,1.33,0,0,1,234.48,61.05Z"/><path class="cls-74" d="M238.05,61.05a1.33,1.33,0,0,1-1.19-1.42V48.7a1.21,1.21,0,1,1,2.38,0V59.63A1.32,1.32,0,0,1,238.05,61.05Z"/><path class="cls-74" d="M241.63,61.05a1.32,1.32,0,0,1-1.19-1.42V48.7a1.21,1.21,0,1,1,2.38,0V59.63A1.32,1.32,0,0,1,241.63,61.05Z"/><path class="cls-74" d="M245.21,61.05A1.32,1.32,0,0,1,244,59.63V48.7a1.21,1.21,0,1,1,2.38,0V59.63A1.32,1.32,0,0,1,245.21,61.05Z"/><path class="cls-74" d="M248.78,61.05a1.33,1.33,0,0,1-1.19-1.42V48.7a1.21,1.21,0,1,1,2.39,0V59.63A1.33,1.33,0,0,1,248.78,61.05Z"/><path class="cls-74" d="M252.36,61.05a1.32,1.32,0,0,1-1.19-1.42V48.7a1.21,1.21,0,1,1,2.38,0V59.63A1.32,1.32,0,0,1,252.36,61.05Z"/><path class="cls-74" d="M255.94,61.05a1.32,1.32,0,0,1-1.19-1.42V48.7a1.21,1.21,0,1,1,2.38,0V59.63A1.32,1.32,0,0,1,255.94,61.05Z"/><path class="cls-74" d="M259.52,61.05a1.32,1.32,0,0,1-1.19-1.42V48.7a1.21,1.21,0,1,1,2.38,0V59.63A1.33,1.33,0,0,1,259.52,61.05Z"/><path class="cls-74" d="M263.09,61.05a1.33,1.33,0,0,1-1.19-1.42V48.7a1.21,1.21,0,1,1,2.38,0V59.63A1.32,1.32,0,0,1,263.09,61.05Z"/><path class="cls-74" d="M266.67,61.05a1.32,1.32,0,0,1-1.19-1.42V48.7a1.21,1.21,0,1,1,2.38,0V59.63A1.32,1.32,0,0,1,266.67,61.05Z"/><path class="cls-74" d="M270.25,61.05a1.32,1.32,0,0,1-1.19-1.42V48.7a1.21,1.21,0,1,1,2.38,0V59.63A1.32,1.32,0,0,1,270.25,61.05Z"/><path class="cls-74" d="M273.83,61.05a1.33,1.33,0,0,1-1.2-1.42V48.7a1.21,1.21,0,1,1,2.39,0V59.63A1.33,1.33,0,0,1,273.83,61.05Z"/><path class="cls-74" d="M277.4,61.05a1.32,1.32,0,0,1-1.19-1.42V48.7a1.21,1.21,0,1,1,2.38,0V59.63A1.32,1.32,0,0,1,277.4,61.05Z"/><path class="cls-74" d="M281,61.05a1.32,1.32,0,0,1-1.19-1.42V48.7a1.21,1.21,0,1,1,2.38,0V59.63A1.32,1.32,0,0,1,281,61.05Z"/><path class="cls-74" d="M284.56,61.05a1.32,1.32,0,0,1-1.19-1.42V48.7a1.21,1.21,0,1,1,2.38,0V59.63A1.33,1.33,0,0,1,284.56,61.05Z"/><path class="cls-74" d="M288.13,61.05a1.33,1.33,0,0,1-1.19-1.42V48.7a1.21,1.21,0,1,1,2.38,0V59.63A1.32,1.32,0,0,1,288.13,61.05Z"/><path class="cls-74" d="M291.71,61.05a1.32,1.32,0,0,1-1.19-1.42V48.7a1.21,1.21,0,1,1,2.38,0V59.63A1.32,1.32,0,0,1,291.71,61.05Z"/><path class="cls-74" d="M295.29,61.05a1.32,1.32,0,0,1-1.19-1.42V48.7a1.21,1.21,0,1,1,2.38,0V59.63A1.32,1.32,0,0,1,295.29,61.05Z"/><path class="cls-74" d="M298.87,61.05a1.33,1.33,0,0,1-1.2-1.42V48.7a1.21,1.21,0,1,1,2.39,0V59.63A1.33,1.33,0,0,1,298.87,61.05Z"/><path class="cls-74" d="M302.44,61.05a1.32,1.32,0,0,1-1.19-1.42V48.7a1.21,1.21,0,1,1,2.38,0V59.63A1.32,1.32,0,0,1,302.44,61.05Z"/><path class="cls-74" d="M306,61.05a1.32,1.32,0,0,1-1.19-1.42V48.7a1.21,1.21,0,1,1,2.38,0V59.63A1.32,1.32,0,0,1,306,61.05Z"/><path class="cls-74" d="M309.6,61.05a1.32,1.32,0,0,1-1.19-1.42V48.7a1.21,1.21,0,1,1,2.38,0V59.63A1.33,1.33,0,0,1,309.6,61.05Z"/><path class="cls-74" d="M313.17,61.05A1.33,1.33,0,0,1,312,59.63V48.7a1.21,1.21,0,1,1,2.39,0V59.63A1.33,1.33,0,0,1,313.17,61.05Z"/><path class="cls-74" d="M316.75,61.05a1.32,1.32,0,0,1-1.19-1.42V48.7a1.21,1.21,0,1,1,2.38,0V59.63A1.32,1.32,0,0,1,316.75,61.05Z"/><path class="cls-74" d="M320.33,61.05a1.32,1.32,0,0,1-1.19-1.42V48.7a1.21,1.21,0,1,1,2.38,0V59.63A1.32,1.32,0,0,1,320.33,61.05Z"/><path class="cls-74" d="M323.91,61.05a1.33,1.33,0,0,1-1.2-1.42V48.7a1.21,1.21,0,1,1,2.39,0V59.63A1.33,1.33,0,0,1,323.91,61.05Z"/><path class="cls-74" d="M327.48,61.05a1.32,1.32,0,0,1-1.19-1.42V48.7a1.21,1.21,0,1,1,2.38,0V59.63A1.32,1.32,0,0,1,327.48,61.05Z"/><path class="cls-74" d="M331.06,61.05a1.32,1.32,0,0,1-1.19-1.42V48.7a1.21,1.21,0,1,1,2.38,0V59.63A1.32,1.32,0,0,1,331.06,61.05Z"/><path class="cls-74" d="M334.64,61.05a1.32,1.32,0,0,1-1.19-1.42V48.7a1.21,1.21,0,1,1,2.38,0V59.63A1.33,1.33,0,0,1,334.64,61.05Z"/><path class="cls-74" d="M338.21,61.05A1.33,1.33,0,0,1,337,59.63V48.7a1.21,1.21,0,1,1,2.39,0V59.63A1.33,1.33,0,0,1,338.21,61.05Z"/><path class="cls-74" d="M341.79,61.05a1.32,1.32,0,0,1-1.19-1.42V48.7a1.21,1.21,0,1,1,2.38,0V59.63A1.32,1.32,0,0,1,341.79,61.05Z"/><path class="cls-74" d="M345.37,61.05a1.32,1.32,0,0,1-1.19-1.42V48.7a1.21,1.21,0,1,1,2.38,0V59.63A1.32,1.32,0,0,1,345.37,61.05Z"/><path class="cls-74" d="M349,61.05a1.33,1.33,0,0,1-1.2-1.42V48.7a1.21,1.21,0,1,1,2.39,0V59.63A1.33,1.33,0,0,1,349,61.05Z"/><path class="cls-74" d="M352.52,61.05a1.32,1.32,0,0,1-1.19-1.42V48.7a1.21,1.21,0,1,1,2.38,0V59.63A1.32,1.32,0,0,1,352.52,61.05Z"/><path class="cls-74" d="M356.1,61.05a1.32,1.32,0,0,1-1.19-1.42V48.7a1.21,1.21,0,1,1,2.38,0V59.63A1.32,1.32,0,0,1,356.1,61.05Z"/><path class="cls-74" d="M359.68,61.05a1.32,1.32,0,0,1-1.19-1.42V48.7a1.21,1.21,0,1,1,2.38,0V59.63A1.33,1.33,0,0,1,359.68,61.05Z"/><path class="cls-74" d="M363.25,61.05a1.33,1.33,0,0,1-1.19-1.42V48.7a1.21,1.21,0,1,1,2.39,0V59.63A1.33,1.33,0,0,1,363.25,61.05Z"/><path class="cls-74" d="M366.83,61.05a1.32,1.32,0,0,1-1.19-1.42V48.7a1.21,1.21,0,1,1,2.38,0V59.63A1.32,1.32,0,0,1,366.83,61.05Z"/><path class="cls-74" d="M370.41,61.05a1.32,1.32,0,0,1-1.19-1.42V48.7a1.21,1.21,0,1,1,2.38,0V59.63A1.32,1.32,0,0,1,370.41,61.05Z"/><path class="cls-74" d="M374,61.05a1.33,1.33,0,0,1-1.2-1.42V48.7a1.21,1.21,0,1,1,2.39,0V59.63A1.33,1.33,0,0,1,374,61.05Z"/><path class="cls-74" d="M377.56,61.05a1.32,1.32,0,0,1-1.19-1.42V48.7a1.21,1.21,0,1,1,2.38,0V59.63A1.32,1.32,0,0,1,377.56,61.05Z"/><path class="cls-74" d="M381.14,61.05A1.32,1.32,0,0,1,380,59.63V48.7a1.21,1.21,0,1,1,2.38,0V59.63A1.32,1.32,0,0,1,381.14,61.05Z"/><path class="cls-74" d="M384.72,61.05a1.32,1.32,0,0,1-1.19-1.42V48.7a1.21,1.21,0,1,1,2.38,0V59.63A1.33,1.33,0,0,1,384.72,61.05Z"/><path class="cls-74" d="M388.29,61.05a1.33,1.33,0,0,1-1.19-1.42V48.7a1.21,1.21,0,1,1,2.39,0V59.63A1.33,1.33,0,0,1,388.29,61.05Z"/><path class="cls-74" d="M391.87,61.05a1.32,1.32,0,0,1-1.19-1.42V48.7a1.21,1.21,0,1,1,2.38,0V59.63A1.32,1.32,0,0,1,391.87,61.05Z"/><path class="cls-74" d="M395.45,61.05a1.32,1.32,0,0,1-1.19-1.42V48.7a1.21,1.21,0,1,1,2.38,0V59.63A1.32,1.32,0,0,1,395.45,61.05Z"/><path class="cls-74" d="M399,61.05a1.33,1.33,0,0,1-1.2-1.42V48.7a1.21,1.21,0,1,1,2.39,0V59.63A1.33,1.33,0,0,1,399,61.05Z"/><path class="cls-74" d="M402.6,61.05a1.32,1.32,0,0,1-1.19-1.42V48.7a1.21,1.21,0,1,1,2.38,0V59.63A1.32,1.32,0,0,1,402.6,61.05Z"/><path class="cls-74" d="M406.18,61.05A1.32,1.32,0,0,1,405,59.63V48.7a1.21,1.21,0,1,1,2.38,0V59.63A1.32,1.32,0,0,1,406.18,61.05Z"/><path class="cls-74" d="M409.76,61.05a1.32,1.32,0,0,1-1.19-1.42V48.7a1.21,1.21,0,1,1,2.38,0V59.63A1.32,1.32,0,0,1,409.76,61.05Z"/><path class="cls-74" d="M413.33,61.05a1.33,1.33,0,0,1-1.19-1.42V48.7a1.21,1.21,0,1,1,2.39,0V59.63A1.33,1.33,0,0,1,413.33,61.05Z"/><path class="cls-74" d="M416.91,61.05a1.32,1.32,0,0,1-1.19-1.42V48.7a1.21,1.21,0,1,1,2.38,0V59.63A1.32,1.32,0,0,1,416.91,61.05Z"/><path class="cls-74" d="M420.49,61.05a1.32,1.32,0,0,1-1.19-1.42V48.7a1.21,1.21,0,1,1,2.38,0V59.63A1.32,1.32,0,0,1,420.49,61.05Z"/><path class="cls-74" d="M424.07,61.05a1.33,1.33,0,0,1-1.2-1.42V48.7a1.21,1.21,0,1,1,2.39,0V59.63A1.33,1.33,0,0,1,424.07,61.05Z"/><path class="cls-74" d="M427.64,61.05a1.33,1.33,0,0,1-1.19-1.42V48.7a1.21,1.21,0,1,1,2.38,0V59.63A1.32,1.32,0,0,1,427.64,61.05Z"/><path class="cls-74" d="M431.22,61.05A1.32,1.32,0,0,1,430,59.63V48.7a1.21,1.21,0,1,1,2.38,0V59.63A1.32,1.32,0,0,1,431.22,61.05Z"/><g class="cls-94"><circle class="cls-95" cx="88.96" cy="90" r="30.51" transform="translate(-33.69 121.16) rotate(-59.59)"/></g></g></g></svg>