<svg xmlns="http://www.w3.org/2000/svg" xmlns:xlink="http://www.w3.org/1999/xlink" viewBox="0 0 495.37 159.07"><defs><style>.cls-1{mask:url(#mask);filter:url(#luminosity-noclip-2);}.cls-2{mix-blend-mode:multiply;fill:url(#Безымянный_градиент_44);}.cls-3{fill:url(#New_Gradient_Swatch_1);}.cls-4{fill:url(#New_Gradient_Swatch_1-2);}.cls-5{fill:url(#New_Gradient_Swatch_1-3);}.cls-6{fill:url(#New_Gradient_Swatch_1-4);}.cls-7{fill:url(#New_Gradient_Swatch_1-5);}.cls-8{fill:url(#New_Gradient_Swatch_1-6);}.cls-9{fill:url(#New_Gradient_Swatch_1-7);}.cls-10{fill:url(#New_Gradient_Swatch_1-8);}.cls-11{fill:url(#New_Gradient_Swatch_1-9);}.cls-12{fill:url(#New_Gradient_Swatch_1-10);}.cls-13{fill:url(#New_Gradient_Swatch_1-11);}.cls-14{fill:url(#New_Gradient_Swatch_1-12);}.cls-15{fill:url(#New_Gradient_Swatch_1-13);}.cls-16{fill:url(#New_Gradient_Swatch_1-14);}.cls-17{fill:url(#New_Gradient_Swatch_1-15);}.cls-18{fill:url(#New_Gradient_Swatch_1-16);}.cls-19{fill:url(#New_Gradient_Swatch_1-17);}.cls-20{fill:url(#New_Gradient_Swatch_1-18);}.cls-21{fill:url(#New_Gradient_Swatch_1-19);}.cls-22{fill:url(#New_Gradient_Swatch_1-20);}.cls-23{fill:url(#New_Gradient_Swatch_1-21);}.cls-24{mask:url(#mask-2);}.cls-25{fill:url(#New_Gradient_Swatch_1-22);}.cls-26{fill:url(#New_Gradient_Swatch_1-23);}.cls-27{fill:url(#New_Gradient_Swatch_1-24);}.cls-28{fill:url(#New_Gradient_Swatch_1-25);}.cls-29{fill:url(#New_Gradient_Swatch_1-26);}.cls-30{fill:url(#New_Gradient_Swatch_1-27);}.cls-31{fill:url(#New_Gradient_Swatch_1-28);}.cls-32{fill:url(#New_Gradient_Swatch_1-29);}.cls-33{fill:url(#New_Gradient_Swatch_1-30);}.cls-34{fill:url(#New_Gradient_Swatch_1-31);}.cls-35{fill:url(#New_Gradient_Swatch_1-32);}.cls-36{fill:url(#New_Gradient_Swatch_1-33);}.cls-37{fill:url(#New_Gradient_Swatch_1-34);}.cls-38{fill:url(#New_Gradient_Swatch_1-35);}.cls-39{fill:url(#New_Gradient_Swatch_1-36);}.cls-40{fill:url(#New_Gradient_Swatch_1-37);}.cls-41{fill:url(#New_Gradient_Swatch_1-38);}.cls-42{fill:url(#New_Gradient_Swatch_1-39);}.cls-43{fill:url(#New_Gradient_Swatch_1-40);}.cls-44{fill:url(#New_Gradient_Swatch_1-41);}.cls-45{fill:url(#New_Gradient_Swatch_1-42);}.cls-46{fill:url(#New_Gradient_Swatch_1-43);}.cls-47{fill:url(#New_Gradient_Swatch_1-44);}.cls-48{fill:url(#New_Gradient_Swatch_1-45);}.cls-49{fill:url(#New_Gradient_Swatch_1-46);}.cls-50{fill:url(#New_Gradient_Swatch_1-47);}.cls-51{fill:url(#New_Gradient_Swatch_1-48);}.cls-52{fill:url(#New_Gradient_Swatch_1-49);}.cls-53{fill:url(#New_Gradient_Swatch_1-50);}.cls-54{fill:url(#New_Gradient_Swatch_1-51);}.cls-55{fill:url(#New_Gradient_Swatch_1-52);}.cls-56{fill:url(#New_Gradient_Swatch_1-53);}.cls-57{fill:url(#New_Gradient_Swatch_1-54);}.cls-58{fill:url(#New_Gradient_Swatch_1-55);}.cls-59{fill:url(#New_Gradient_Swatch_1-56);}.cls-60{fill:url(#New_Gradient_Swatch_1-57);}.cls-61{fill:url(#New_Gradient_Swatch_1-58);}.cls-62{fill:url(#New_Gradient_Swatch_1-59);}.cls-63{fill:url(#New_Gradient_Swatch_1-60);}.cls-64{fill:url(#New_Gradient_Swatch_1-61);}.cls-65{fill:url(#New_Gradient_Swatch_1-62);}.cls-66{fill:url(#New_Gradient_Swatch_1-63);}.cls-67{fill:url(#New_Gradient_Swatch_1-64);}.cls-68{fill:url(#New_Gradient_Swatch_1-65);}.cls-69{fill:url(#New_Gradient_Swatch_1-66);}.cls-70{fill:url(#New_Gradient_Swatch_1-67);}.cls-71{fill:url(#New_Gradient_Swatch_1-68);}.cls-72{fill:url(#New_Gradient_Swatch_1-69);}.cls-73{fill:url(#New_Gradient_Swatch_1-70);}.cls-74{fill:url(#New_Gradient_Swatch_1-71);}.cls-75{fill:url(#New_Gradient_Swatch_1-72);}.cls-76{fill:url(#New_Gradient_Swatch_1-73);}.cls-77{fill:url(#New_Gradient_Swatch_1-74);}.cls-78{fill:url(#New_Gradient_Swatch_1-75);}.cls-79{fill:url(#New_Gradient_Swatch_1-76);}.cls-80{fill:url(#New_Gradient_Swatch_1-77);}.cls-81{fill:url(#New_Gradient_Swatch_1-78);}.cls-82{fill:url(#New_Gradient_Swatch_1-79);}.cls-83{fill:url(#New_Gradient_Swatch_1-80);}.cls-84{fill:url(#New_Gradient_Swatch_1-81);}.cls-85{fill:url(#New_Gradient_Swatch_1-82);}.cls-86{fill:url(#New_Gradient_Swatch_1-83);}.cls-87{fill:url(#New_Gradient_Swatch_1-84);}.cls-88{fill:url(#New_Gradient_Swatch_1-85);}.cls-89{fill:url(#New_Gradient_Swatch_1-86);}.cls-90{fill:url(#New_Gradient_Swatch_1-87);}.cls-91{fill:url(#New_Gradient_Swatch_1-88);}.cls-92{fill:url(#New_Gradient_Swatch_1-89);}.cls-93{fill:url(#New_Gradient_Swatch_1-90);}.cls-94{fill:url(#New_Gradient_Swatch_1-91);}.cls-95{fill:url(#New_Gradient_Swatch_1-92);}.cls-96{fill:url(#New_Gradient_Swatch_1-93);}.cls-97{fill:url(#New_Gradient_Swatch_1-94);}.cls-98{fill:url(#New_Gradient_Swatch_1-95);}.cls-99{fill:url(#New_Gradient_Swatch_1-96);}.cls-100{fill:url(#New_Gradient_Swatch_1-97);}.cls-101{fill:url(#New_Gradient_Swatch_1-98);}.cls-102{fill:url(#New_Gradient_Swatch_3);}.cls-103{fill:url(#New_Gradient_Swatch_3-2);}.cls-104{filter:url(#luminosity-noclip);}</style><filter id="luminosity-noclip" x="171.62" y="-8265.81" width="313.05" height="32766" filterUnits="userSpaceOnUse" color-interpolation-filters="sRGB"><feFlood flood-color="#fff" result="bg"/><feBlend in="SourceGraphic" in2="bg"/></filter><mask id="mask" x="171.62" y="-8265.81" width="313.05" height="32766" maskUnits="userSpaceOnUse"><g class="cls-104"/></mask><linearGradient id="Безымянный_градиент_44" x1="171.62" y1="79.54" x2="484.67" y2="79.54" gradientUnits="userSpaceOnUse"><stop offset="0" stop-color="#1a1a1a"/><stop offset="1" stop-color="#1a1a1a"/></linearGradient><linearGradient id="New_Gradient_Swatch_1" x1="141.99" y1="67.82" x2="495.37" y2="67.82" gradientUnits="userSpaceOnUse"><stop offset="0" stop-color="#cf52fe"/><stop offset="1" stop-color="#19dbb6"/></linearGradient><linearGradient id="New_Gradient_Swatch_1-2" x1="145.64" y1="17.08" x2="203.08" y2="17.08" xlink:href="#New_Gradient_Swatch_1"/><linearGradient id="New_Gradient_Swatch_1-3" x1="423.2" y1="118.55" x2="480.63" y2="118.55" xlink:href="#New_Gradient_Swatch_1"/><linearGradient id="New_Gradient_Swatch_1-4" x1="169.97" y1="105.5" x2="472.76" y2="105.5" xlink:href="#New_Gradient_Swatch_1"/><linearGradient id="New_Gradient_Swatch_1-5" x1="169.97" y1="112.09" x2="412.7" y2="112.09" xlink:href="#New_Gradient_Swatch_1"/><linearGradient id="New_Gradient_Swatch_1-6" x1="195.36" y1="79.54" x2="224.29" y2="79.54" xlink:href="#New_Gradient_Swatch_1"/><linearGradient id="New_Gradient_Swatch_1-7" x1="229.17" y1="79.54" x2="258.1" y2="79.54" xlink:href="#New_Gradient_Swatch_1"/><linearGradient id="New_Gradient_Swatch_1-8" x1="262.97" y1="79.54" x2="291.9" y2="79.54" xlink:href="#New_Gradient_Swatch_1"/><linearGradient id="New_Gradient_Swatch_1-9" x1="296.78" y1="79.54" x2="325.71" y2="79.54" xlink:href="#New_Gradient_Swatch_1"/><linearGradient id="New_Gradient_Swatch_1-10" x1="330.58" y1="79.54" x2="359.52" y2="79.54" xlink:href="#New_Gradient_Swatch_1"/><linearGradient id="New_Gradient_Swatch_1-11" x1="364.39" y1="79.54" x2="393.32" y2="79.54" xlink:href="#New_Gradient_Swatch_1"/><linearGradient id="New_Gradient_Swatch_1-12" x1="398.2" y1="79.54" x2="427.13" y2="79.54" xlink:href="#New_Gradient_Swatch_1"/><linearGradient id="New_Gradient_Swatch_1-13" x1="432" y1="79.54" x2="460.93" y2="79.54" xlink:href="#New_Gradient_Swatch_1"/><linearGradient id="New_Gradient_Swatch_1-14" x1="218.01" y1="31.75" x2="230.42" y2="31.75" xlink:href="#New_Gradient_Swatch_1"/><linearGradient id="New_Gradient_Swatch_1-15" x1="232.52" y1="31.75" x2="244.93" y2="31.75" xlink:href="#New_Gradient_Swatch_1"/><linearGradient id="New_Gradient_Swatch_1-16" x1="247.02" y1="31.75" x2="259.44" y2="31.75" xlink:href="#New_Gradient_Swatch_1"/><linearGradient id="New_Gradient_Swatch_1-17" x1="261.53" y1="31.75" x2="273.95" y2="31.75" xlink:href="#New_Gradient_Swatch_1"/><linearGradient id="New_Gradient_Swatch_1-18" x1="276.04" y1="31.75" x2="288.46" y2="31.75" xlink:href="#New_Gradient_Swatch_1"/><linearGradient id="New_Gradient_Swatch_1-19" x1="290.55" y1="31.75" x2="302.97" y2="31.75" xlink:href="#New_Gradient_Swatch_1"/><linearGradient id="New_Gradient_Swatch_1-20" x1="305.06" y1="31.75" x2="317.47" y2="31.75" xlink:href="#New_Gradient_Swatch_1"/><linearGradient id="New_Gradient_Swatch_1-21" x1="319.57" y1="31.75" x2="331.98" y2="31.75" xlink:href="#New_Gradient_Swatch_1"/><filter id="luminosity-noclip-2" x="171.62" y="59.14" width="313.05" height="40.8" filterUnits="userSpaceOnUse" color-interpolation-filters="sRGB"><feFlood flood-color="#fff" result="bg"/><feBlend in="SourceGraphic" in2="bg"/></filter><mask id="mask-2" x="171.62" y="59.14" width="313.05" height="40.8" maskUnits="userSpaceOnUse"><g class="cls-1"><rect class="cls-2" x="171.62" y="59.14" width="313.05" height="40.8" rx="6.08"/></g></mask><linearGradient id="New_Gradient_Swatch_1-22" x1="171.62" y1="79.54" x2="484.67" y2="79.54" xlink:href="#New_Gradient_Swatch_1"/><linearGradient id="New_Gradient_Swatch_1-23" x1="170.16" y1="79.54" x2="486.13" y2="79.54" xlink:href="#New_Gradient_Swatch_1"/><linearGradient id="New_Gradient_Swatch_1-24" x1="0" y1="79.54" x2="159.07" y2="79.54" xlink:href="#New_Gradient_Swatch_1"/><linearGradient id="New_Gradient_Swatch_1-25" x1="169.91" y1="123.92" x2="398.07" y2="123.92" xlink:href="#New_Gradient_Swatch_1"/><linearGradient id="New_Gradient_Swatch_1-26" x1="330.58" y1="37.9" x2="492.67" y2="37.9" xlink:href="#New_Gradient_Swatch_1"/><linearGradient id="New_Gradient_Swatch_1-27" x1="200.54" y1="50.2" x2="203.19" y2="50.2" xlink:href="#New_Gradient_Swatch_1"/><linearGradient id="New_Gradient_Swatch_1-28" x1="204.52" y1="50.2" x2="207.17" y2="50.2" xlink:href="#New_Gradient_Swatch_1"/><linearGradient id="New_Gradient_Swatch_1-29" x1="208.5" y1="50.2" x2="211.14" y2="50.2" xlink:href="#New_Gradient_Swatch_1"/><linearGradient id="New_Gradient_Swatch_1-30" x1="212.47" y1="50.2" x2="215.12" y2="50.2" xlink:href="#New_Gradient_Swatch_1"/><linearGradient id="New_Gradient_Swatch_1-31" x1="216.45" y1="50.2" x2="219.1" y2="50.2" xlink:href="#New_Gradient_Swatch_1"/><linearGradient id="New_Gradient_Swatch_1-32" x1="220.42" y1="50.2" x2="223.07" y2="50.2" xlink:href="#New_Gradient_Swatch_1"/><linearGradient id="New_Gradient_Swatch_1-33" x1="224.4" y1="50.2" x2="227.05" y2="50.2" xlink:href="#New_Gradient_Swatch_1"/><linearGradient id="New_Gradient_Swatch_1-34" x1="228.38" y1="50.2" x2="231.02" y2="50.2" xlink:href="#New_Gradient_Swatch_1"/><linearGradient id="New_Gradient_Swatch_1-35" x1="232.35" y1="50.2" x2="235" y2="50.2" xlink:href="#New_Gradient_Swatch_1"/><linearGradient id="New_Gradient_Swatch_1-36" x1="236.33" y1="50.2" x2="238.98" y2="50.2" xlink:href="#New_Gradient_Swatch_1"/><linearGradient id="New_Gradient_Swatch_1-37" x1="240.3" y1="50.2" x2="242.95" y2="50.2" xlink:href="#New_Gradient_Swatch_1"/><linearGradient id="New_Gradient_Swatch_1-38" x1="244.28" y1="50.2" x2="246.93" y2="50.2" xlink:href="#New_Gradient_Swatch_1"/><linearGradient id="New_Gradient_Swatch_1-39" x1="248.25" y1="50.2" x2="250.9" y2="50.2" xlink:href="#New_Gradient_Swatch_1"/><linearGradient id="New_Gradient_Swatch_1-40" x1="252.23" y1="50.2" x2="254.88" y2="50.2" xlink:href="#New_Gradient_Swatch_1"/><linearGradient id="New_Gradient_Swatch_1-41" x1="256.21" y1="50.2" x2="258.85" y2="50.2" xlink:href="#New_Gradient_Swatch_1"/><linearGradient id="New_Gradient_Swatch_1-42" x1="260.18" y1="50.2" x2="262.83" y2="50.2" xlink:href="#New_Gradient_Swatch_1"/><linearGradient id="New_Gradient_Swatch_1-43" x1="264.16" y1="50.2" x2="266.81" y2="50.2" xlink:href="#New_Gradient_Swatch_1"/><linearGradient id="New_Gradient_Swatch_1-44" x1="268.13" y1="50.2" x2="270.78" y2="50.2" xlink:href="#New_Gradient_Swatch_1"/><linearGradient id="New_Gradient_Swatch_1-45" x1="272.11" y1="50.2" x2="274.76" y2="50.2" xlink:href="#New_Gradient_Swatch_1"/><linearGradient id="New_Gradient_Swatch_1-46" x1="276.09" y1="50.2" x2="278.73" y2="50.2" xlink:href="#New_Gradient_Swatch_1"/><linearGradient id="New_Gradient_Swatch_1-47" x1="280.06" y1="50.2" x2="282.71" y2="50.2" xlink:href="#New_Gradient_Swatch_1"/><linearGradient id="New_Gradient_Swatch_1-48" x1="284.04" y1="50.2" x2="286.69" y2="50.2" xlink:href="#New_Gradient_Swatch_1"/><linearGradient id="New_Gradient_Swatch_1-49" x1="288.01" y1="50.2" x2="290.66" y2="50.2" xlink:href="#New_Gradient_Swatch_1"/><linearGradient id="New_Gradient_Swatch_1-50" x1="291.99" y1="50.2" x2="294.64" y2="50.2" xlink:href="#New_Gradient_Swatch_1"/><linearGradient id="New_Gradient_Swatch_1-51" x1="295.97" y1="50.2" x2="298.61" y2="50.2" xlink:href="#New_Gradient_Swatch_1"/><linearGradient id="New_Gradient_Swatch_1-52" x1="299.94" y1="50.2" x2="302.59" y2="50.2" xlink:href="#New_Gradient_Swatch_1"/><linearGradient id="New_Gradient_Swatch_1-53" x1="303.92" y1="50.2" x2="306.57" y2="50.2" xlink:href="#New_Gradient_Swatch_1"/><linearGradient id="New_Gradient_Swatch_1-54" x1="307.89" y1="50.2" x2="310.54" y2="50.2" xlink:href="#New_Gradient_Swatch_1"/><linearGradient id="New_Gradient_Swatch_1-55" x1="311.87" y1="50.2" x2="314.52" y2="50.2" xlink:href="#New_Gradient_Swatch_1"/><linearGradient id="New_Gradient_Swatch_1-56" x1="315.84" y1="50.2" x2="318.49" y2="50.2" xlink:href="#New_Gradient_Swatch_1"/><linearGradient id="New_Gradient_Swatch_1-57" x1="319.82" y1="50.2" x2="322.47" y2="50.2" xlink:href="#New_Gradient_Swatch_1"/><linearGradient id="New_Gradient_Swatch_1-58" x1="323.8" y1="50.2" x2="326.44" y2="50.2" xlink:href="#New_Gradient_Swatch_1"/><linearGradient id="New_Gradient_Swatch_1-59" x1="327.77" y1="50.2" x2="330.42" y2="50.2" xlink:href="#New_Gradient_Swatch_1"/><linearGradient id="New_Gradient_Swatch_1-60" x1="331.75" y1="50.2" x2="334.4" y2="50.2" xlink:href="#New_Gradient_Swatch_1"/><linearGradient id="New_Gradient_Swatch_1-61" x1="335.72" y1="50.2" x2="338.37" y2="50.2" xlink:href="#New_Gradient_Swatch_1"/><linearGradient id="New_Gradient_Swatch_1-62" x1="339.7" y1="50.2" x2="342.35" y2="50.2" xlink:href="#New_Gradient_Swatch_1"/><linearGradient id="New_Gradient_Swatch_1-63" x1="343.68" y1="50.2" x2="346.32" y2="50.2" xlink:href="#New_Gradient_Swatch_1"/><linearGradient id="New_Gradient_Swatch_1-64" x1="347.65" y1="50.2" x2="350.3" y2="50.2" xlink:href="#New_Gradient_Swatch_1"/><linearGradient id="New_Gradient_Swatch_1-65" x1="351.63" y1="50.2" x2="354.28" y2="50.2" xlink:href="#New_Gradient_Swatch_1"/><linearGradient id="New_Gradient_Swatch_1-66" x1="355.6" y1="50.2" x2="358.25" y2="50.2" xlink:href="#New_Gradient_Swatch_1"/><linearGradient id="New_Gradient_Swatch_1-67" x1="359.58" y1="50.2" x2="362.23" y2="50.2" xlink:href="#New_Gradient_Swatch_1"/><linearGradient id="New_Gradient_Swatch_1-68" x1="363.56" y1="50.2" x2="366.2" y2="50.2" xlink:href="#New_Gradient_Swatch_1"/><linearGradient id="New_Gradient_Swatch_1-69" x1="367.53" y1="50.2" x2="370.18" y2="50.2" xlink:href="#New_Gradient_Swatch_1"/><linearGradient id="New_Gradient_Swatch_1-70" x1="371.51" y1="50.2" x2="374.16" y2="50.2" xlink:href="#New_Gradient_Swatch_1"/><linearGradient id="New_Gradient_Swatch_1-71" x1="375.48" y1="50.2" x2="378.13" y2="50.2" xlink:href="#New_Gradient_Swatch_1"/><linearGradient id="New_Gradient_Swatch_1-72" x1="379.46" y1="50.2" x2="382.11" y2="50.2" xlink:href="#New_Gradient_Swatch_1"/><linearGradient id="New_Gradient_Swatch_1-73" x1="383.43" y1="50.2" x2="386.08" y2="50.2" xlink:href="#New_Gradient_Swatch_1"/><linearGradient id="New_Gradient_Swatch_1-74" x1="387.41" y1="50.2" x2="390.06" y2="50.2" xlink:href="#New_Gradient_Swatch_1"/><linearGradient id="New_Gradient_Swatch_1-75" x1="391.39" y1="50.2" x2="394.03" y2="50.2" xlink:href="#New_Gradient_Swatch_1"/><linearGradient id="New_Gradient_Swatch_1-76" x1="395.36" y1="50.2" x2="398.01" y2="50.2" xlink:href="#New_Gradient_Swatch_1"/><linearGradient id="New_Gradient_Swatch_1-77" x1="399.34" y1="50.2" x2="401.99" y2="50.2" xlink:href="#New_Gradient_Swatch_1"/><linearGradient id="New_Gradient_Swatch_1-78" x1="403.31" y1="50.2" x2="405.96" y2="50.2" xlink:href="#New_Gradient_Swatch_1"/><linearGradient id="New_Gradient_Swatch_1-79" x1="407.29" y1="50.2" x2="409.94" y2="50.2" xlink:href="#New_Gradient_Swatch_1"/><linearGradient id="New_Gradient_Swatch_1-80" x1="411.27" y1="50.2" x2="413.91" y2="50.2" xlink:href="#New_Gradient_Swatch_1"/><linearGradient id="New_Gradient_Swatch_1-81" x1="415.24" y1="50.2" x2="417.89" y2="50.2" xlink:href="#New_Gradient_Swatch_1"/><linearGradient id="New_Gradient_Swatch_1-82" x1="419.22" y1="50.2" x2="421.87" y2="50.2" xlink:href="#New_Gradient_Swatch_1"/><linearGradient id="New_Gradient_Swatch_1-83" x1="423.19" y1="50.2" x2="425.84" y2="50.2" xlink:href="#New_Gradient_Swatch_1"/><linearGradient id="New_Gradient_Swatch_1-84" x1="427.17" y1="50.2" x2="429.82" y2="50.2" xlink:href="#New_Gradient_Swatch_1"/><linearGradient id="New_Gradient_Swatch_1-85" x1="431.15" y1="50.2" x2="433.79" y2="50.2" xlink:href="#New_Gradient_Swatch_1"/><linearGradient id="New_Gradient_Swatch_1-86" x1="435.12" y1="50.2" x2="437.77" y2="50.2" xlink:href="#New_Gradient_Swatch_1"/><linearGradient id="New_Gradient_Swatch_1-87" x1="439.1" y1="50.2" x2="441.75" y2="50.2" xlink:href="#New_Gradient_Swatch_1"/><linearGradient id="New_Gradient_Swatch_1-88" x1="443.07" y1="50.2" x2="445.72" y2="50.2" xlink:href="#New_Gradient_Swatch_1"/><linearGradient id="New_Gradient_Swatch_1-89" x1="447.05" y1="50.2" x2="449.7" y2="50.2" xlink:href="#New_Gradient_Swatch_1"/><linearGradient id="New_Gradient_Swatch_1-90" x1="451.02" y1="50.2" x2="453.67" y2="50.2" xlink:href="#New_Gradient_Swatch_1"/><linearGradient id="New_Gradient_Swatch_1-91" x1="455" y1="50.2" x2="457.65" y2="50.2" xlink:href="#New_Gradient_Swatch_1"/><linearGradient id="New_Gradient_Swatch_1-92" x1="458.98" y1="50.2" x2="461.62" y2="50.2" xlink:href="#New_Gradient_Swatch_1"/><linearGradient id="New_Gradient_Swatch_1-93" x1="462.95" y1="50.2" x2="465.6" y2="50.2" xlink:href="#New_Gradient_Swatch_1"/><linearGradient id="New_Gradient_Swatch_1-94" x1="466.93" y1="50.2" x2="469.58" y2="50.2" xlink:href="#New_Gradient_Swatch_1"/><linearGradient id="New_Gradient_Swatch_1-95" x1="470.9" y1="50.2" x2="473.55" y2="50.2" xlink:href="#New_Gradient_Swatch_1"/><linearGradient id="New_Gradient_Swatch_1-96" x1="474.88" y1="50.2" x2="477.53" y2="50.2" xlink:href="#New_Gradient_Swatch_1"/><linearGradient id="New_Gradient_Swatch_1-97" x1="176.5" y1="133.12" x2="390.84" y2="133.12" xlink:href="#New_Gradient_Swatch_1"/><linearGradient id="New_Gradient_Swatch_1-98" x1="335.4" y1="30.41" x2="488.04" y2="30.41" xlink:href="#New_Gradient_Swatch_1"/><radialGradient id="New_Gradient_Swatch_3" cx="81.48" cy="78.95" r="55.64" gradientTransform="translate(77.66 -33.62) rotate(44.95)" gradientUnits="userSpaceOnUse"><stop offset="0" stop-color="#19dbb6"/><stop offset="0.13" stop-color="#1ed7b8"/><stop offset="0.28" stop-color="#2bcdbd"/><stop offset="0.44" stop-color="#42bcc6"/><stop offset="0.6" stop-color="#62a4d3"/><stop offset="0.77" stop-color="#8b85e3"/><stop offset="0.94" stop-color="#bd60f7"/><stop offset="1" stop-color="#cf52fe"/></radialGradient><radialGradient id="New_Gradient_Swatch_3-2" cx="183.57" cy="38.91" r="14.54" gradientTransform="translate(-2.01 0.94) rotate(-0.05)" xlink:href="#New_Gradient_Swatch_3"/></defs><title>loading_07_purple_green</title><g id="Layer_2" data-name="Layer 2"><g id="Layer_1-2" data-name="Layer 1"><path class="cls-3" d="M494.21,119.71h-334a1.16,1.16,0,1,1,0-2.32H493.05V42.58H216.36a1.15,1.15,0,0,1-1.08-.73L206,18.25h-62.8a1.16,1.16,0,1,1,0-2.32h63.59a1.15,1.15,0,0,1,1.08.73l9.33,23.6H494.21a1.16,1.16,0,0,1,1.16,1.16v77.13A1.16,1.16,0,0,1,494.21,119.71Z"/><path class="cls-4" d="M200,20.19H148.74a3.11,3.11,0,0,1,0-6.21H200a3.11,3.11,0,1,1,0,6.21Z"/><path class="cls-5" d="M477.53,121.66H426.3a3.11,3.11,0,0,1,0-6.21h51.23a3.11,3.11,0,0,1,0,6.21Z"/><path class="cls-6" d="M471.11,107.15H171.62a1.65,1.65,0,0,1,0-3.3H471.11a1.65,1.65,0,0,1,0,3.3Z"/><path class="cls-7" d="M411.05,113.74H171.62a1.65,1.65,0,0,1,0-3.3H411.05a1.65,1.65,0,0,1,0,3.3Z"/><circle class="cls-8" cx="209.83" cy="79.54" r="14.47"/><circle class="cls-9" cx="243.63" cy="79.54" r="14.47"/><circle class="cls-10" cx="277.44" cy="79.54" r="14.47"/><circle class="cls-11" cx="311.24" cy="79.54" r="14.47"/><circle class="cls-12" cx="345.05" cy="79.54" r="14.47"/><circle class="cls-13" cx="378.86" cy="79.54" r="14.47"/><circle class="cls-14" cx="412.66" cy="79.54" r="14.47"/><circle class="cls-15" cx="446.47" cy="79.54" r="14.47"/><path class="cls-16" d="M230.42,31.75a6.21,6.21,0,1,1-6.2-6.21A6.2,6.2,0,0,1,230.42,31.75Z"/><path class="cls-17" d="M244.93,31.75a6.21,6.21,0,1,1-6.21-6.21A6.21,6.21,0,0,1,244.93,31.75Z"/><path class="cls-18" d="M259.44,31.75a6.21,6.21,0,1,1-6.21-6.21A6.21,6.21,0,0,1,259.44,31.75Z"/><path class="cls-19" d="M274,31.75a6.21,6.21,0,1,1-6.21-6.21A6.21,6.21,0,0,1,274,31.75Z"/><path class="cls-20" d="M288.46,31.75a6.21,6.21,0,1,1-6.21-6.21A6.21,6.21,0,0,1,288.46,31.75Z"/><path class="cls-21" d="M303,31.75a6.21,6.21,0,1,1-6.21-6.21A6.21,6.21,0,0,1,303,31.75Z"/><path class="cls-22" d="M317.47,31.75a6.21,6.21,0,1,1-6.2-6.21A6.21,6.21,0,0,1,317.47,31.75Z"/><path class="cls-23" d="M332,31.75a6.21,6.21,0,1,1-6.21-6.21A6.21,6.21,0,0,1,332,31.75Z"/><g class="cls-24"><rect class="cls-25" x="171.62" y="59.14" width="313.05" height="40.8" rx="6.08"/></g><path class="cls-26" d="M467,101.4H189.33a19.19,19.19,0,0,1-19.17-19.17V76.84a19.19,19.19,0,0,1,19.17-19.17H467a19.18,19.18,0,0,1,19.16,19.17v5.39A19.18,19.18,0,0,1,467,101.4ZM189.33,60.6a16.26,16.26,0,0,0-16.24,16.24v5.39a16.25,16.25,0,0,0,16.24,16.24H467a16.26,16.26,0,0,0,16.24-16.24V76.84A16.26,16.26,0,0,0,467,60.6Z"/><path class="cls-27" d="M79.54,159.07a79.54,79.54,0,1,1,79.53-79.53A79.63,79.63,0,0,1,79.54,159.07Zm0-142.18a62.65,62.65,0,1,0,62.64,62.65A62.71,62.71,0,0,0,79.54,16.89Z"/><polygon class="cls-28" points="391.31 130.4 176.68 130.4 169.91 117.44 398.07 117.44 391.31 130.4"/><polygon class="cls-29" points="487.86 33.37 335.39 33.37 330.58 42.42 492.67 42.42 487.86 33.37"/><path class="cls-30" d="M201.87,56.65a1.33,1.33,0,0,1-1.33-1.33V45.07a1.33,1.33,0,1,1,2.65,0V55.32A1.32,1.32,0,0,1,201.87,56.65Z"/><path class="cls-31" d="M205.84,56.65a1.32,1.32,0,0,1-1.32-1.33V45.07a1.33,1.33,0,1,1,2.65,0V55.32A1.32,1.32,0,0,1,205.84,56.65Z"/><path class="cls-32" d="M209.82,56.65a1.32,1.32,0,0,1-1.32-1.33V45.07a1.32,1.32,0,1,1,2.64,0V55.32A1.32,1.32,0,0,1,209.82,56.65Z"/><path class="cls-33" d="M213.8,56.65a1.32,1.32,0,0,1-1.33-1.33V45.07a1.33,1.33,0,1,1,2.65,0V55.32A1.32,1.32,0,0,1,213.8,56.65Z"/><path class="cls-34" d="M217.77,56.65a1.32,1.32,0,0,1-1.32-1.33V45.07a1.33,1.33,0,1,1,2.65,0V55.32A1.33,1.33,0,0,1,217.77,56.65Z"/><path class="cls-35" d="M221.75,56.65a1.33,1.33,0,0,1-1.33-1.33V45.07a1.33,1.33,0,1,1,2.65,0V55.32A1.32,1.32,0,0,1,221.75,56.65Z"/><path class="cls-36" d="M225.72,56.65a1.32,1.32,0,0,1-1.32-1.33V45.07a1.33,1.33,0,1,1,2.65,0V55.32A1.33,1.33,0,0,1,225.72,56.65Z"/><path class="cls-37" d="M229.7,56.65a1.32,1.32,0,0,1-1.32-1.33V45.07a1.32,1.32,0,1,1,2.64,0V55.32A1.32,1.32,0,0,1,229.7,56.65Z"/><path class="cls-38" d="M233.67,56.65a1.32,1.32,0,0,1-1.32-1.33V45.07a1.33,1.33,0,1,1,2.65,0V55.32A1.32,1.32,0,0,1,233.67,56.65Z"/><path class="cls-39" d="M237.65,56.65a1.32,1.32,0,0,1-1.32-1.33V45.07a1.33,1.33,0,1,1,2.65,0V55.32A1.33,1.33,0,0,1,237.65,56.65Z"/><path class="cls-40" d="M241.63,56.65a1.33,1.33,0,0,1-1.33-1.33V45.07a1.33,1.33,0,1,1,2.65,0V55.32A1.32,1.32,0,0,1,241.63,56.65Z"/><path class="cls-41" d="M245.6,56.65a1.32,1.32,0,0,1-1.32-1.33V45.07a1.33,1.33,0,1,1,2.65,0V55.32A1.33,1.33,0,0,1,245.6,56.65Z"/><path class="cls-42" d="M249.58,56.65a1.33,1.33,0,0,1-1.33-1.33V45.07a1.33,1.33,0,1,1,2.65,0V55.32A1.32,1.32,0,0,1,249.58,56.65Z"/><path class="cls-43" d="M253.55,56.65a1.32,1.32,0,0,1-1.32-1.33V45.07a1.33,1.33,0,1,1,2.65,0V55.32A1.32,1.32,0,0,1,253.55,56.65Z"/><path class="cls-44" d="M257.53,56.65a1.32,1.32,0,0,1-1.32-1.33V45.07a1.32,1.32,0,1,1,2.64,0V55.32A1.32,1.32,0,0,1,257.53,56.65Z"/><path class="cls-45" d="M261.51,56.65a1.32,1.32,0,0,1-1.33-1.33V45.07a1.33,1.33,0,1,1,2.65,0V55.32A1.32,1.32,0,0,1,261.51,56.65Z"/><path class="cls-46" d="M265.48,56.65a1.32,1.32,0,0,1-1.32-1.33V45.07a1.33,1.33,0,1,1,2.65,0V55.32A1.33,1.33,0,0,1,265.48,56.65Z"/><path class="cls-47" d="M269.46,56.65a1.33,1.33,0,0,1-1.33-1.33V45.07a1.33,1.33,0,1,1,2.65,0V55.32A1.32,1.32,0,0,1,269.46,56.65Z"/><path class="cls-48" d="M273.43,56.65a1.32,1.32,0,0,1-1.32-1.33V45.07a1.33,1.33,0,1,1,2.65,0V55.32A1.32,1.32,0,0,1,273.43,56.65Z"/><path class="cls-49" d="M277.41,56.65a1.32,1.32,0,0,1-1.32-1.33V45.07a1.32,1.32,0,1,1,2.64,0V55.32A1.32,1.32,0,0,1,277.41,56.65Z"/><path class="cls-50" d="M281.39,56.65a1.32,1.32,0,0,1-1.33-1.33V45.07a1.33,1.33,0,1,1,2.65,0V55.32A1.32,1.32,0,0,1,281.39,56.65Z"/><path class="cls-51" d="M285.36,56.65A1.32,1.32,0,0,1,284,55.32V45.07a1.33,1.33,0,1,1,2.65,0V55.32A1.33,1.33,0,0,1,285.36,56.65Z"/><path class="cls-52" d="M289.34,56.65A1.33,1.33,0,0,1,288,55.32V45.07a1.33,1.33,0,1,1,2.65,0V55.32A1.32,1.32,0,0,1,289.34,56.65Z"/><path class="cls-53" d="M293.31,56.65A1.32,1.32,0,0,1,292,55.32V45.07a1.33,1.33,0,1,1,2.65,0V55.32A1.33,1.33,0,0,1,293.31,56.65Z"/><path class="cls-54" d="M297.29,56.65A1.32,1.32,0,0,1,296,55.32V45.07a1.32,1.32,0,1,1,2.64,0V55.32A1.32,1.32,0,0,1,297.29,56.65Z"/><path class="cls-55" d="M301.26,56.65a1.32,1.32,0,0,1-1.32-1.33V45.07a1.33,1.33,0,1,1,2.65,0V55.32A1.32,1.32,0,0,1,301.26,56.65Z"/><path class="cls-56" d="M305.24,56.65a1.32,1.32,0,0,1-1.32-1.33V45.07a1.33,1.33,0,1,1,2.65,0V55.32A1.33,1.33,0,0,1,305.24,56.65Z"/><path class="cls-57" d="M309.22,56.65a1.33,1.33,0,0,1-1.33-1.33V45.07a1.33,1.33,0,1,1,2.65,0V55.32A1.32,1.32,0,0,1,309.22,56.65Z"/><path class="cls-58" d="M313.19,56.65a1.32,1.32,0,0,1-1.32-1.33V45.07a1.33,1.33,0,1,1,2.65,0V55.32A1.33,1.33,0,0,1,313.19,56.65Z"/><path class="cls-59" d="M317.17,56.65a1.33,1.33,0,0,1-1.33-1.33V45.07a1.33,1.33,0,1,1,2.65,0V55.32A1.32,1.32,0,0,1,317.17,56.65Z"/><path class="cls-60" d="M321.14,56.65a1.32,1.32,0,0,1-1.32-1.33V45.07a1.33,1.33,0,1,1,2.65,0V55.32A1.32,1.32,0,0,1,321.14,56.65Z"/><path class="cls-61" d="M325.12,56.65a1.32,1.32,0,0,1-1.32-1.33V45.07a1.32,1.32,0,1,1,2.64,0V55.32A1.32,1.32,0,0,1,325.12,56.65Z"/><path class="cls-62" d="M329.1,56.65a1.32,1.32,0,0,1-1.33-1.33V45.07a1.33,1.33,0,1,1,2.65,0V55.32A1.32,1.32,0,0,1,329.1,56.65Z"/><path class="cls-63" d="M333.07,56.65a1.32,1.32,0,0,1-1.32-1.33V45.07a1.33,1.33,0,1,1,2.65,0V55.32A1.33,1.33,0,0,1,333.07,56.65Z"/><path class="cls-64" d="M337.05,56.65a1.33,1.33,0,0,1-1.33-1.33V45.07a1.33,1.33,0,1,1,2.65,0V55.32A1.32,1.32,0,0,1,337.05,56.65Z"/><path class="cls-65" d="M341,56.65a1.32,1.32,0,0,1-1.32-1.33V45.07a1.33,1.33,0,1,1,2.65,0V55.32A1.32,1.32,0,0,1,341,56.65Z"/><path class="cls-66" d="M345,56.65a1.32,1.32,0,0,1-1.32-1.33V45.07a1.32,1.32,0,1,1,2.64,0V55.32A1.32,1.32,0,0,1,345,56.65Z"/><path class="cls-67" d="M349,56.65a1.32,1.32,0,0,1-1.33-1.33V45.07a1.33,1.33,0,1,1,2.65,0V55.32A1.32,1.32,0,0,1,349,56.65Z"/><path class="cls-68" d="M353,56.65a1.32,1.32,0,0,1-1.32-1.33V45.07a1.33,1.33,0,1,1,2.65,0V55.32A1.33,1.33,0,0,1,353,56.65Z"/><path class="cls-69" d="M356.93,56.65a1.33,1.33,0,0,1-1.33-1.33V45.07a1.33,1.33,0,1,1,2.65,0V55.32A1.32,1.32,0,0,1,356.93,56.65Z"/><path class="cls-70" d="M360.9,56.65a1.32,1.32,0,0,1-1.32-1.33V45.07a1.33,1.33,0,1,1,2.65,0V55.32A1.33,1.33,0,0,1,360.9,56.65Z"/><path class="cls-71" d="M364.88,56.65a1.32,1.32,0,0,1-1.32-1.33V45.07a1.32,1.32,0,1,1,2.64,0V55.32A1.32,1.32,0,0,1,364.88,56.65Z"/><path class="cls-72" d="M368.86,56.65a1.32,1.32,0,0,1-1.33-1.33V45.07a1.33,1.33,0,1,1,2.65,0V55.32A1.32,1.32,0,0,1,368.86,56.65Z"/><path class="cls-73" d="M372.83,56.65a1.32,1.32,0,0,1-1.32-1.33V45.07a1.33,1.33,0,1,1,2.65,0V55.32A1.33,1.33,0,0,1,372.83,56.65Z"/><path class="cls-74" d="M376.81,56.65a1.33,1.33,0,0,1-1.33-1.33V45.07a1.33,1.33,0,1,1,2.65,0V55.32A1.32,1.32,0,0,1,376.81,56.65Z"/><path class="cls-75" d="M380.78,56.65a1.32,1.32,0,0,1-1.32-1.33V45.07a1.33,1.33,0,1,1,2.65,0V55.32A1.33,1.33,0,0,1,380.78,56.65Z"/><path class="cls-76" d="M384.76,56.65a1.33,1.33,0,0,1-1.33-1.33V45.07a1.33,1.33,0,1,1,2.65,0V55.32A1.32,1.32,0,0,1,384.76,56.65Z"/><path class="cls-77" d="M388.73,56.65a1.32,1.32,0,0,1-1.32-1.33V45.07a1.33,1.33,0,1,1,2.65,0V55.32A1.32,1.32,0,0,1,388.73,56.65Z"/><path class="cls-78" d="M392.71,56.65a1.32,1.32,0,0,1-1.32-1.33V45.07a1.32,1.32,0,1,1,2.64,0V55.32A1.32,1.32,0,0,1,392.71,56.65Z"/><path class="cls-79" d="M396.69,56.65a1.32,1.32,0,0,1-1.33-1.33V45.07a1.33,1.33,0,1,1,2.65,0V55.32A1.32,1.32,0,0,1,396.69,56.65Z"/><path class="cls-80" d="M400.66,56.65a1.32,1.32,0,0,1-1.32-1.33V45.07a1.33,1.33,0,1,1,2.65,0V55.32A1.33,1.33,0,0,1,400.66,56.65Z"/><path class="cls-81" d="M404.64,56.65a1.33,1.33,0,0,1-1.33-1.33V45.07a1.33,1.33,0,1,1,2.65,0V55.32A1.32,1.32,0,0,1,404.64,56.65Z"/><path class="cls-82" d="M408.61,56.65a1.32,1.32,0,0,1-1.32-1.33V45.07a1.33,1.33,0,1,1,2.65,0V55.32A1.32,1.32,0,0,1,408.61,56.65Z"/><path class="cls-83" d="M412.59,56.65a1.32,1.32,0,0,1-1.32-1.33V45.07a1.32,1.32,0,1,1,2.64,0V55.32A1.32,1.32,0,0,1,412.59,56.65Z"/><path class="cls-84" d="M416.57,56.65a1.32,1.32,0,0,1-1.33-1.33V45.07a1.33,1.33,0,1,1,2.65,0V55.32A1.32,1.32,0,0,1,416.57,56.65Z"/><path class="cls-85" d="M420.54,56.65a1.32,1.32,0,0,1-1.32-1.33V45.07a1.33,1.33,0,1,1,2.65,0V55.32A1.33,1.33,0,0,1,420.54,56.65Z"/><path class="cls-86" d="M424.52,56.65a1.33,1.33,0,0,1-1.33-1.33V45.07a1.33,1.33,0,1,1,2.65,0V55.32A1.32,1.32,0,0,1,424.52,56.65Z"/><path class="cls-87" d="M428.49,56.65a1.32,1.32,0,0,1-1.32-1.33V45.07a1.33,1.33,0,1,1,2.65,0V55.32A1.33,1.33,0,0,1,428.49,56.65Z"/><path class="cls-88" d="M432.47,56.65a1.32,1.32,0,0,1-1.32-1.33V45.07a1.32,1.32,0,1,1,2.64,0V55.32A1.32,1.32,0,0,1,432.47,56.65Z"/><path class="cls-89" d="M436.45,56.65a1.32,1.32,0,0,1-1.33-1.33V45.07a1.33,1.33,0,1,1,2.65,0V55.32A1.32,1.32,0,0,1,436.45,56.65Z"/><path class="cls-90" d="M440.42,56.65a1.32,1.32,0,0,1-1.32-1.33V45.07a1.33,1.33,0,1,1,2.65,0V55.32A1.33,1.33,0,0,1,440.42,56.65Z"/><path class="cls-91" d="M444.4,56.65a1.33,1.33,0,0,1-1.33-1.33V45.07a1.33,1.33,0,1,1,2.65,0V55.32A1.32,1.32,0,0,1,444.4,56.65Z"/><path class="cls-92" d="M448.37,56.65a1.32,1.32,0,0,1-1.32-1.33V45.07a1.33,1.33,0,1,1,2.65,0V55.32A1.33,1.33,0,0,1,448.37,56.65Z"/><path class="cls-93" d="M452.35,56.65A1.33,1.33,0,0,1,451,55.32V45.07a1.33,1.33,0,1,1,2.65,0V55.32A1.32,1.32,0,0,1,452.35,56.65Z"/><path class="cls-94" d="M456.32,56.65A1.32,1.32,0,0,1,455,55.32V45.07a1.33,1.33,0,1,1,2.65,0V55.32A1.32,1.32,0,0,1,456.32,56.65Z"/><path class="cls-95" d="M460.3,56.65A1.32,1.32,0,0,1,459,55.32V45.07a1.32,1.32,0,1,1,2.64,0V55.32A1.32,1.32,0,0,1,460.3,56.65Z"/><path class="cls-96" d="M464.28,56.65A1.32,1.32,0,0,1,463,55.32V45.07a1.33,1.33,0,1,1,2.65,0V55.32A1.32,1.32,0,0,1,464.28,56.65Z"/><path class="cls-97" d="M468.25,56.65a1.32,1.32,0,0,1-1.32-1.33V45.07a1.33,1.33,0,1,1,2.65,0V55.32A1.33,1.33,0,0,1,468.25,56.65Z"/><path class="cls-98" d="M472.23,56.65a1.33,1.33,0,0,1-1.33-1.33V45.07a1.33,1.33,0,1,1,2.65,0V55.32A1.32,1.32,0,0,1,472.23,56.65Z"/><path class="cls-99" d="M476.2,56.65a1.32,1.32,0,0,1-1.32-1.33V45.07a1.33,1.33,0,1,1,2.65,0V55.32A1.32,1.32,0,0,1,476.2,56.65Z"/><path class="cls-100" d="M390.59,133.37H176.75a.25.25,0,1,1,0-.49H390.59a.25.25,0,1,1,0,.49Z"/><path class="cls-101" d="M487.79,30.66H335.64a.25.25,0,0,1,0-.49H487.79a.25.25,0,1,1,0,.49Z"/><circle class="cls-102" cx="79.54" cy="79.82" r="55.64" transform="translate(-33.15 79.62) rotate(-45)"/><circle class="cls-103" cx="181.59" cy="39.7" r="14.54"/></g></g></svg>