<svg xmlns="http://www.w3.org/2000/svg" xmlns:xlink="http://www.w3.org/1999/xlink" viewBox="0 0 498.13 173.03"><defs><style>.cls-1{fill:url(#New_Gradient_Swatch_2);}.cls-2{fill:url(#New_Gradient_Swatch_2-2);}.cls-3{fill:url(#New_Gradient_Swatch_2-3);}.cls-4{fill:url(#New_Gradient_Swatch_2-4);}.cls-5{fill:url(#New_Gradient_Swatch_2-5);}.cls-6{fill:url(#New_Gradient_Swatch_2-6);}.cls-7{fill:url(#New_Gradient_Swatch_2-7);}.cls-8{fill:url(#New_Gradient_Swatch_2-8);}.cls-9{fill:url(#New_Gradient_Swatch_2-9);}.cls-10{fill:url(#New_Gradient_Swatch_2-10);}.cls-11{fill:url(#New_Gradient_Swatch_2-11);}.cls-12{fill:url(#New_Gradient_Swatch_2-12);}.cls-13{fill:url(#New_Gradient_Swatch_2-13);}.cls-14{fill:url(#New_Gradient_Swatch_2-14);}.cls-15{fill:url(#New_Gradient_Swatch_2-15);}.cls-16{fill:url(#New_Gradient_Swatch_2-16);}.cls-17{fill:url(#New_Gradient_Swatch_2-17);}.cls-18{fill:url(#New_Gradient_Swatch_2-18);}.cls-19{fill:url(#New_Gradient_Swatch_2-19);}.cls-20{fill:url(#New_Gradient_Swatch_2-20);}.cls-21{fill:url(#New_Gradient_Swatch_2-21);}.cls-22{fill:url(#New_Gradient_Swatch_2-22);}.cls-23{fill:url(#New_Gradient_Swatch_2-23);}.cls-24{fill:url(#New_Gradient_Swatch_2-24);}.cls-25{fill:url(#New_Gradient_Swatch_2-25);}.cls-26{fill:url(#New_Gradient_Swatch_2-26);}.cls-27{fill:url(#New_Gradient_Swatch_2-27);}.cls-28{fill:url(#New_Gradient_Swatch_2-28);}.cls-29{fill:url(#New_Gradient_Swatch_2-29);}.cls-30{fill:url(#New_Gradient_Swatch_2-30);}.cls-31{fill:url(#New_Gradient_Swatch_2-31);}.cls-32{fill:url(#New_Gradient_Swatch_2-32);}.cls-33{fill:url(#New_Gradient_Swatch_2-33);}.cls-34{fill:url(#New_Gradient_Swatch_2-34);}.cls-35{fill:url(#New_Gradient_Swatch_2-35);}.cls-36{fill:url(#New_Gradient_Swatch_2-36);}.cls-37{fill:url(#New_Gradient_Swatch_2-37);}.cls-38{fill:url(#New_Gradient_Swatch_2-38);}.cls-39{fill:url(#New_Gradient_Swatch_2-39);}.cls-40{fill:url(#New_Gradient_Swatch_2-40);}.cls-41{fill:url(#New_Gradient_Swatch_2-41);}.cls-42{fill:url(#New_Gradient_Swatch_2-42);}.cls-43{fill:url(#New_Gradient_Swatch_2-43);}.cls-44{fill:url(#New_Gradient_Swatch_2-44);}.cls-45{fill:url(#New_Gradient_Swatch_2-45);}.cls-46{fill:url(#New_Gradient_Swatch_2-46);}.cls-47{fill:url(#New_Gradient_Swatch_2-47);}.cls-48{fill:url(#New_Gradient_Swatch_2-48);}.cls-49{fill:url(#New_Gradient_Swatch_2-49);}.cls-50{fill:url(#New_Gradient_Swatch_2-50);}.cls-51{fill:url(#New_Gradient_Swatch_2-51);}.cls-52{fill:url(#New_Gradient_Swatch_2-52);}.cls-53{fill:url(#New_Gradient_Swatch_2-53);}.cls-54{fill:url(#New_Gradient_Swatch_2-54);}.cls-55{fill:url(#New_Gradient_Swatch_2-55);}.cls-56{fill:url(#New_Gradient_Swatch_2-56);}.cls-57{fill:url(#New_Gradient_Swatch_2-57);}.cls-58{fill:url(#New_Gradient_Swatch_2-58);}.cls-59{fill:url(#New_Gradient_Swatch_2-59);}.cls-60{fill:url(#New_Gradient_Swatch_2-60);}.cls-61{fill:url(#New_Gradient_Swatch_2-61);}.cls-62{fill:url(#New_Gradient_Swatch_2-62);}.cls-63{fill:url(#New_Gradient_Swatch_2-63);}.cls-64{fill:url(#New_Gradient_Swatch_2-64);}</style><linearGradient id="New_Gradient_Swatch_2" x1="46.73" y1="91.96" x2="470.33" y2="91.96" gradientUnits="userSpaceOnUse"><stop offset="0" stop-color="#9541de"/><stop offset="1" stop-color="#3ab2c0"/></linearGradient><linearGradient id="New_Gradient_Swatch_2-2" x1="37.73" y1="91.96" x2="479.32" y2="91.96" xlink:href="#New_Gradient_Swatch_2"/><linearGradient id="New_Gradient_Swatch_2-3" x1="25.44" y1="68.33" x2="155.47" y2="68.33" xlink:href="#New_Gradient_Swatch_2"/><linearGradient id="New_Gradient_Swatch_2-4" x1="27.39" y1="111.06" x2="249.21" y2="111.06" xlink:href="#New_Gradient_Swatch_2"/><linearGradient id="New_Gradient_Swatch_2-5" x1="243.47" y1="120.49" x2="491.89" y2="120.49" xlink:href="#New_Gradient_Swatch_2"/><linearGradient id="New_Gradient_Swatch_2-6" x1="378.54" y1="77.72" x2="491.86" y2="77.72" xlink:href="#New_Gradient_Swatch_2"/><linearGradient id="New_Gradient_Swatch_2-7" x1="149.72" y1="48.75" x2="384.29" y2="48.75" xlink:href="#New_Gradient_Swatch_2"/><linearGradient id="New_Gradient_Swatch_2-8" x1="0" y1="63.62" x2="12.98" y2="63.62" xlink:href="#New_Gradient_Swatch_2"/><linearGradient id="New_Gradient_Swatch_2-9" x1="10.11" y1="128.71" x2="128.54" y2="128.71" xlink:href="#New_Gradient_Swatch_2"/><linearGradient id="New_Gradient_Swatch_2-10" x1="125.68" y1="150.33" x2="389.64" y2="150.33" xlink:href="#New_Gradient_Swatch_2"/><linearGradient id="New_Gradient_Swatch_2-11" x1="388.49" y1="91.07" x2="498.13" y2="91.07" xlink:href="#New_Gradient_Swatch_2"/><linearGradient id="New_Gradient_Swatch_2-12" x1="107.86" y1="27.47" x2="473.43" y2="27.47" xlink:href="#New_Gradient_Swatch_2"/><linearGradient id="New_Gradient_Swatch_2-13" x1="10.6" y1="23.45" x2="110.15" y2="23.45" xlink:href="#New_Gradient_Swatch_2"/><linearGradient id="New_Gradient_Swatch_2-14" x1="269.04" y1="28.75" x2="374.05" y2="28.75" xlink:href="#New_Gradient_Swatch_2"/><linearGradient id="New_Gradient_Swatch_2-15" x1="206.58" y1="152.69" x2="311.6" y2="152.69" xlink:href="#New_Gradient_Swatch_2"/><linearGradient id="New_Gradient_Swatch_2-16" x1="195.34" y1="160.79" x2="276.46" y2="160.79" xlink:href="#New_Gradient_Swatch_2"/><linearGradient id="New_Gradient_Swatch_2-17" x1="20.46" y1="11" x2="62.89" y2="11" xlink:href="#New_Gradient_Swatch_2"/><linearGradient id="New_Gradient_Swatch_2-18" x1="164.93" y1="45.26" x2="269.95" y2="45.26" xlink:href="#New_Gradient_Swatch_2"/><linearGradient id="New_Gradient_Swatch_2-19" x1="23.1" y1="151.84" x2="191.93" y2="151.84" xlink:href="#New_Gradient_Swatch_2"/><linearGradient id="New_Gradient_Swatch_2-20" x1="23.1" y1="162.19" x2="273.02" y2="162.19" xlink:href="#New_Gradient_Swatch_2"/><linearGradient id="New_Gradient_Swatch_2-21" x1="326.06" y1="151.32" x2="340.73" y2="151.32" xlink:href="#New_Gradient_Swatch_2"/><linearGradient id="New_Gradient_Swatch_2-22" x1="343.48" y1="151.3" x2="358.16" y2="151.3" xlink:href="#New_Gradient_Swatch_2"/><linearGradient id="New_Gradient_Swatch_2-23" x1="360.91" y1="151.29" x2="375.58" y2="151.29" xlink:href="#New_Gradient_Swatch_2"/><linearGradient id="New_Gradient_Swatch_2-24" x1="378.33" y1="151.28" x2="393.01" y2="151.28" xlink:href="#New_Gradient_Swatch_2"/><linearGradient id="New_Gradient_Swatch_2-25" x1="395.76" y1="151.26" x2="410.43" y2="151.26" xlink:href="#New_Gradient_Swatch_2"/><linearGradient id="New_Gradient_Swatch_2-26" x1="413.18" y1="151.25" x2="427.86" y2="151.25" xlink:href="#New_Gradient_Swatch_2"/><linearGradient id="New_Gradient_Swatch_2-27" x1="430.61" y1="151.23" x2="445.29" y2="151.23" xlink:href="#New_Gradient_Swatch_2"/><linearGradient id="New_Gradient_Swatch_2-28" x1="448.03" y1="151.22" x2="462.71" y2="151.22" xlink:href="#New_Gradient_Swatch_2"/><linearGradient id="New_Gradient_Swatch_2-29" x1="465.46" y1="151.2" x2="480.14" y2="151.2" xlink:href="#New_Gradient_Swatch_2"/><linearGradient id="New_Gradient_Swatch_2-30" x1="482.88" y1="151.19" x2="497.56" y2="151.19" xlink:href="#New_Gradient_Swatch_2"/><linearGradient id="New_Gradient_Swatch_2-31" x1="181.69" y1="5.99" x2="196.37" y2="5.99" xlink:href="#New_Gradient_Swatch_2"/><linearGradient id="New_Gradient_Swatch_2-32" x1="199.12" y1="5.97" x2="213.79" y2="5.97" xlink:href="#New_Gradient_Swatch_2"/><linearGradient id="New_Gradient_Swatch_2-33" x1="216.54" y1="5.96" x2="231.22" y2="5.96" xlink:href="#New_Gradient_Swatch_2"/><linearGradient id="New_Gradient_Swatch_2-34" x1="81.65" y1="167.07" x2="96.33" y2="167.07" xlink:href="#New_Gradient_Swatch_2"/><linearGradient id="New_Gradient_Swatch_2-35" x1="99.07" y1="167.05" x2="113.75" y2="167.05" xlink:href="#New_Gradient_Swatch_2"/><linearGradient id="New_Gradient_Swatch_2-36" x1="116.5" y1="167.04" x2="131.18" y2="167.04" xlink:href="#New_Gradient_Swatch_2"/><linearGradient id="New_Gradient_Swatch_2-37" x1="414.46" y1="10.69" x2="429.13" y2="10.69" xlink:href="#New_Gradient_Swatch_2"/><linearGradient id="New_Gradient_Swatch_2-38" x1="431.88" y1="10.67" x2="446.56" y2="10.67" xlink:href="#New_Gradient_Swatch_2"/><linearGradient id="New_Gradient_Swatch_2-39" x1="449.31" y1="10.66" x2="463.98" y2="10.66" xlink:href="#New_Gradient_Swatch_2"/><linearGradient id="New_Gradient_Swatch_2-40" x1="25.29" y1="41.56" x2="29.91" y2="41.56" xlink:href="#New_Gradient_Swatch_2"/><linearGradient id="New_Gradient_Swatch_2-41" x1="30.78" y1="41.56" x2="35.41" y2="41.56" xlink:href="#New_Gradient_Swatch_2"/><linearGradient id="New_Gradient_Swatch_2-42" x1="36.28" y1="41.56" x2="40.9" y2="41.56" xlink:href="#New_Gradient_Swatch_2"/><linearGradient id="New_Gradient_Swatch_2-43" x1="41.77" y1="41.55" x2="46.4" y2="41.55" xlink:href="#New_Gradient_Swatch_2"/><linearGradient id="New_Gradient_Swatch_2-44" x1="47.27" y1="41.55" x2="51.89" y2="41.55" xlink:href="#New_Gradient_Swatch_2"/><linearGradient id="New_Gradient_Swatch_2-45" x1="52.76" y1="41.54" x2="57.39" y2="41.54" xlink:href="#New_Gradient_Swatch_2"/><linearGradient id="New_Gradient_Swatch_2-46" x1="58.26" y1="41.54" x2="62.89" y2="41.54" xlink:href="#New_Gradient_Swatch_2"/><linearGradient id="New_Gradient_Swatch_2-47" x1="63.75" y1="41.53" x2="68.38" y2="41.53" xlink:href="#New_Gradient_Swatch_2"/><linearGradient id="New_Gradient_Swatch_2-48" x1="69.25" y1="41.53" x2="73.88" y2="41.53" xlink:href="#New_Gradient_Swatch_2"/><linearGradient id="New_Gradient_Swatch_2-49" x1="74.74" y1="41.52" x2="79.37" y2="41.52" xlink:href="#New_Gradient_Swatch_2"/><linearGradient id="New_Gradient_Swatch_2-50" x1="403.7" y1="39.8" x2="411.19" y2="39.8" xlink:href="#New_Gradient_Swatch_2"/><linearGradient id="New_Gradient_Swatch_2-51" x1="412.59" y1="39.79" x2="420.07" y2="39.79" xlink:href="#New_Gradient_Swatch_2"/><linearGradient id="New_Gradient_Swatch_2-52" x1="421.47" y1="39.78" x2="428.96" y2="39.78" xlink:href="#New_Gradient_Swatch_2"/><linearGradient id="New_Gradient_Swatch_2-53" x1="430.36" y1="39.78" x2="437.84" y2="39.78" xlink:href="#New_Gradient_Swatch_2"/><linearGradient id="New_Gradient_Swatch_2-54" x1="439.25" y1="39.77" x2="446.73" y2="39.77" xlink:href="#New_Gradient_Swatch_2"/><linearGradient id="New_Gradient_Swatch_2-55" x1="448.13" y1="39.76" x2="455.62" y2="39.76" xlink:href="#New_Gradient_Swatch_2"/><linearGradient id="New_Gradient_Swatch_2-56" x1="457.02" y1="39.75" x2="464.5" y2="39.75" xlink:href="#New_Gradient_Swatch_2"/><linearGradient id="New_Gradient_Swatch_2-57" x1="465.9" y1="39.75" x2="473.39" y2="39.75" xlink:href="#New_Gradient_Swatch_2"/><linearGradient id="New_Gradient_Swatch_2-58" x1="474.79" y1="39.74" x2="482.27" y2="39.74" xlink:href="#New_Gradient_Swatch_2"/><linearGradient id="New_Gradient_Swatch_2-59" x1="483.67" y1="39.73" x2="491.16" y2="39.73" xlink:href="#New_Gradient_Swatch_2"/><linearGradient id="New_Gradient_Swatch_2-60" x1="11.9" y1="28.51" x2="106.73" y2="28.51" xlink:href="#New_Gradient_Swatch_2"/><linearGradient id="New_Gradient_Swatch_2-61" x1="14.8" y1="29.52" x2="79.51" y2="29.52" xlink:href="#New_Gradient_Swatch_2"/><linearGradient id="New_Gradient_Swatch_2-62" x1="22.42" y1="58.59" x2="61.14" y2="58.59" xlink:href="#New_Gradient_Swatch_2"/><linearGradient id="New_Gradient_Swatch_2-63" x1="19.9" y1="51.85" x2="46.97" y2="51.85" xlink:href="#New_Gradient_Swatch_2"/><linearGradient id="New_Gradient_Swatch_2-64" x1="108.82" y1="22.42" x2="251.2" y2="22.42" xlink:href="#New_Gradient_Swatch_2"/></defs><title>loading_03_purple_blue</title><g id="Layer_2" data-name="Layer 2"><g id="Layer_1-2" data-name="Layer 1"><rect class="cls-1" x="46.75" y="67.62" width="423.56" height="48.67"/><path class="cls-2" d="M479.32,122.24l-441.54.37-.05-60.94,441.54-.37Zm-440-1.13,438.54-.36-.05-57.95-438.54.37Z"/><path class="cls-3" d="M29.3,91.64a3.83,3.83,0,0,1-3.83-3.82l0-38.87a3.83,3.83,0,0,1,3.82-3.83L151.64,45a3.83,3.83,0,1,1,0,7.65l-118.54.1,0,35A3.83,3.83,0,0,1,29.3,91.64Z"/><path class="cls-4" d="M247.3,136l-218,.18a1.92,1.92,0,0,1-1.92-1.91l0-46.49a1.91,1.91,0,0,1,3.82,0l0,44.57,216.05-.18a1.92,1.92,0,0,1,0,3.83Z"/><path class="cls-5" d="M488.06,137.75,247.3,138a3.83,3.83,0,0,1,0-7.66l236.93-.2,0-23.22a3.83,3.83,0,0,1,7.65,0l0,27.05A3.84,3.84,0,0,1,488.06,137.75Z"/><path class="cls-6" d="M488,110.69a3.82,3.82,0,0,1-3.83-3.82l0-54.47-101.78.08a3.83,3.83,0,1,1,0-7.65L488,44.74a3.84,3.84,0,0,1,3.84,3.82l0,58.3A3.82,3.82,0,0,1,488,110.69Z"/><path class="cls-7" d="M382.37,50.57l-230.73.19a1.92,1.92,0,1,1,0-3.83l230.73-.19a1.92,1.92,0,1,1,0,3.83Z"/><path class="cls-8" d="M12.4,114.22a.56.56,0,0,1-.52-.35L.05,86.48a.59.59,0,0,1,0-.23L.18,27.76a.55.55,0,0,1,.13-.36L11.88,13.24a.57.57,0,0,1,.8-.08.56.56,0,0,1,.08.81L1.32,28,1.15,86.14l11.78,27.28a.57.57,0,0,1-.3.75A.86.86,0,0,1,12.4,114.22Z"/><path class="cls-9" d="M126.25,146l-101.44.09a2.3,2.3,0,0,1-2.12-1.42L10.28,114.51a2.29,2.29,0,1,1,4.24-1.74l11.83,28.71,99.9-.08a2.29,2.29,0,0,1,0,4.58Z"/><path class="cls-10" d="M322.23,157.86,193.59,158a.58.58,0,0,1-.56-.72l3.24-13-70,0a.56.56,0,0,1-.57-.57.57.57,0,0,1,.57-.57l70.75-.06a.58.58,0,0,1,.46.22.61.61,0,0,1,.1.49l-3.24,13,127.45-.11,3-13.5a.58.58,0,0,1,.56-.45l63.74-.06a.58.58,0,1,1,0,1.15l-63.28.06-3,13.5A.57.57,0,0,1,322.23,157.86Z"/><path class="cls-11" d="M389.06,143.85a.58.58,0,0,1,0-1.15L497,142.6l-.3-103.74a.58.58,0,0,1,.58-.57h0a.57.57,0,0,1,.57.57l.3,104.31a.6.6,0,0,1-.16.41.58.58,0,0,1-.41.17Z"/><path class="cls-12" d="M242.12,34.48a.58.58,0,0,1-.56-.73l3.28-11.95-72.24.06-3.17,11.57a.57.57,0,0,1-.55.42l-60.45,0a.58.58,0,0,1,0-1.15l60,0,3.17-11.56a.57.57,0,0,1,.55-.42l73.43-.06a.58.58,0,0,1,.46.22.6.6,0,0,1,.1.5l-3.28,12L401.71,33l3.35-12.06a.58.58,0,0,1,.55-.42l67.24-.05a.57.57,0,1,1,0,1.14l-66.8.06-3.35,12a.57.57,0,0,1-.55.42l-160,.34Z"/><path class="cls-13" d="M108.43,35l-23.83,0a1.76,1.76,0,0,1-1.22-.5L64.19,15.28l-51.87,0a1.72,1.72,0,1,1,0-3.43l52.59-.05a1.73,1.73,0,0,1,1.22.51L85.32,31.62h23.11a1.72,1.72,0,1,1,0,3.43Z"/><polygon class="cls-14" points="370.93 23.63 272.14 23.71 269.04 33.88 374.05 33.79 370.93 23.63"/><polygon class="cls-15" points="308.48 147.57 209.69 147.65 206.58 157.82 311.6 157.73 308.48 147.57"/><polygon class="cls-16" points="274.06 164.69 197.75 164.75 195.34 156.9 276.46 156.83 274.06 164.69"/><polygon class="cls-17" points="61.62 7.06 21.71 7.09 20.46 14.94 62.89 14.91 61.62 7.06"/><polygon class="cls-18" points="266.82 40.13 168.03 40.22 164.93 50.38 269.95 50.3 266.82 40.13"/><path class="cls-19" d="M191.36,152.35l-167.69.14a.58.58,0,0,1,0-1.15l167.69-.14a.58.58,0,0,1,0,1.15Z"/><path class="cls-20" d="M272.45,167.49l-78.36.06a.56.56,0,0,1-.55-.41L190.93,158l-167.25.14a.58.58,0,1,1,0-1.15l167.68-.14a.57.57,0,0,1,.55.42l2.62,9.17,77.92-.07a.58.58,0,0,1,0,1.15Z"/><path class="cls-21" d="M332.22,157.28h0c-3.52,0-6.3-.57-6.16-1.26l1.84-9.39c.14-.69,3.14-1.27,6.66-1.27h0c3.53,0,6.3.56,6.17,1.26L338.89,156C338.75,156.7,335.75,157.27,332.22,157.28Z"/><path class="cls-22" d="M349.65,157.26h0c-3.53,0-6.3-.56-6.16-1.26l1.84-9.38c.13-.7,3.13-1.27,6.66-1.27h0c3.53,0,6.3.56,6.16,1.26L356.31,156C356.18,156.69,353.18,157.26,349.65,157.26Z"/><path class="cls-23" d="M367.08,157.25h0c-3.53,0-6.31-.57-6.17-1.26l1.84-9.39c.14-.69,3.14-1.27,6.66-1.27h0c3.53,0,6.31.57,6.17,1.26L373.74,156C373.6,156.67,370.6,157.25,367.08,157.25Z"/><path class="cls-24" d="M384.5,157.23h0c-3.53,0-6.3-.56-6.16-1.26l1.84-9.38c.14-.7,3.13-1.27,6.66-1.27h0c3.53,0,6.3.56,6.16,1.26L391.16,156C391,156.66,388,157.23,384.5,157.23Z"/><path class="cls-25" d="M401.93,157.22h0c-3.53,0-6.3-.57-6.17-1.26l1.84-9.39c.14-.69,3.14-1.26,6.67-1.27h0c3.52,0,6.3.57,6.16,1.26L408.59,156C408.45,156.64,405.45,157.22,401.93,157.22Z"/><path class="cls-26" d="M419.35,157.21h0c-3.52,0-6.3-.57-6.16-1.27l1.84-9.38c.14-.7,3.13-1.27,6.66-1.27h0c3.53,0,6.3.56,6.17,1.26L426,155.93C425.88,156.63,422.88,157.2,419.35,157.21Z"/><path class="cls-27" d="M436.78,157.19h0c-3.53,0-6.3-.56-6.17-1.26l1.84-9.38c.14-.7,3.14-1.27,6.67-1.28h0c3.52,0,6.3.57,6.16,1.26l-1.84,9.39C443.3,156.62,440.3,157.19,436.78,157.19Z"/><path class="cls-28" d="M454.2,157.18h0c-3.52,0-6.3-.57-6.16-1.26l1.84-9.39c.14-.7,3.13-1.27,6.66-1.27h0c3.53,0,6.3.56,6.17,1.26l-1.85,9.38C460.73,156.6,457.73,157.17,454.2,157.18Z"/><path class="cls-29" d="M471.63,157.16h0c-3.53,0-6.3-.56-6.17-1.26l1.85-9.38c.13-.7,3.13-1.27,6.66-1.28h0c3.52,0,6.3.57,6.16,1.27l-1.84,9.38C478.15,156.59,475.16,157.16,471.63,157.16Z"/><path class="cls-30" d="M489.05,157.15h0c-3.52,0-6.3-.57-6.16-1.26l1.84-9.39c.14-.69,3.14-1.27,6.66-1.27h0c3.53,0,6.3.56,6.17,1.26l-1.84,9.39C495.58,156.57,492.58,157.14,489.05,157.15Z"/><path class="cls-31" d="M187.86,12h0c-3.53,0-6.3-.57-6.16-1.27l1.84-9.38C183.67.6,186.67,0,190.2,0h0c3.53,0,6.3.56,6.16,1.26l-1.84,9.38C194.38,11.37,191.39,11.94,187.86,12Z"/><path class="cls-32" d="M205.29,11.93h0c-3.53,0-6.31-.56-6.17-1.26L201,1.29C201.1.59,204.1,0,207.62,0h0c3.53,0,6.31.57,6.17,1.27L212,10.66C211.81,11.36,208.81,11.93,205.29,11.93Z"/><path class="cls-33" d="M222.71,11.92h0c-3.53,0-6.3-.57-6.16-1.26l1.84-9.39C218.52.58,221.52,0,225.05,0h0c3.53,0,6.3.56,6.16,1.26l-1.84,9.39C229.24,11.34,226.24,11.91,222.71,11.92Z"/><path class="cls-34" d="M87.82,173h0c-3.53,0-6.3-.57-6.17-1.26l1.84-9.39c.14-.69,3.14-1.27,6.67-1.27h0c3.52,0,6.3.57,6.16,1.26l-1.84,9.39C94.34,172.45,91.34,173,87.82,173Z"/><path class="cls-35" d="M105.24,173h0c-3.52,0-6.3-.56-6.16-1.26l1.84-9.38c.14-.7,3.13-1.27,6.66-1.27h0c3.53,0,6.3.56,6.17,1.26l-1.85,9.38C111.77,172.44,108.77,173,105.24,173Z"/><path class="cls-36" d="M122.67,173h0c-3.53,0-6.3-.57-6.17-1.26l1.85-9.39c.13-.69,3.13-1.27,6.66-1.27h0c3.52,0,6.3.57,6.16,1.26l-1.84,9.39C129.19,172.42,126.2,173,122.67,173Z"/><path class="cls-37" d="M420.63,16.64h0c-3.53,0-6.31-.56-6.17-1.26L416.3,6c.14-.7,3.14-1.27,6.66-1.27h0c3.53,0,6.31.56,6.17,1.26l-1.84,9.38C427.15,16.07,424.15,16.64,420.63,16.64Z"/><path class="cls-38" d="M438.05,16.63h0c-3.53,0-6.3-.56-6.16-1.26L433.73,6c.13-.69,3.13-1.26,6.66-1.27h0c3.53,0,6.3.57,6.16,1.26l-1.84,9.39C444.58,16.05,441.58,16.63,438.05,16.63Z"/><path class="cls-39" d="M455.48,16.62h0c-3.53,0-6.31-.57-6.17-1.27L451.15,6c.14-.7,3.14-1.27,6.66-1.27h0c3.53,0,6.31.56,6.17,1.26l-1.84,9.38C462,16,459,16.61,455.48,16.62Z"/><path class="cls-40" d="M27.23,43.44h0c-1.11,0-2-.17-1.94-.39l.58-3c0-.22,1-.4,2.1-.4h0c1.11,0,2,.17,1.94.39l-.58,3C29.29,43.26,28.34,43.44,27.23,43.44Z"/><path class="cls-41" d="M32.73,43.44h0c-1.12,0-2-.18-1.95-.4l.58-3c.05-.22,1-.4,2.1-.4h0c1.12,0,2,.18,1.95.4l-.58,3C34.78,43.26,33.84,43.44,32.73,43.44Z"/><path class="cls-42" d="M38.22,43.43h0c-1.11,0-2-.17-1.94-.39l.58-3c0-.22,1-.4,2.1-.4h0c1.11,0,2,.17,1.94.39l-.58,3C40.28,43.25,39.33,43.43,38.22,43.43Z"/><path class="cls-43" d="M43.72,43.43h0c-1.12,0-2-.18-1.95-.4l.58-3c0-.22,1-.4,2.1-.4h0c1.12,0,2,.18,1.95.4l-.58,3C45.77,43.25,44.83,43.43,43.72,43.43Z"/><path class="cls-44" d="M49.21,43.43h0c-1.11,0-2-.18-1.94-.4l.58-3c0-.22,1-.4,2.1-.4h0c1.11,0,2,.18,1.94.4l-.58,3C51.27,43.24,50.32,43.42,49.21,43.43Z"/><path class="cls-45" d="M54.71,43.42h0c-1.12,0-2-.18-2-.4l.58-3c0-.22,1-.4,2.1-.4h0c1.12,0,2,.18,2,.4l-.58,3C56.76,43.24,55.82,43.42,54.71,43.42Z"/><path class="cls-46" d="M60.2,43.42h0c-1.11,0-2-.18-1.94-.4l.58-3c0-.22,1-.4,2.1-.4h0c1.11,0,2,.18,1.94.4l-.58,3C62.26,43.23,61.31,43.42,60.2,43.42Z"/><path class="cls-47" d="M65.7,43.41h0c-1.12,0-2-.18-2-.4l.58-3c0-.21,1-.4,2.1-.4h0c1.12,0,2,.18,1.95.4l-.58,3C67.75,43.23,66.81,43.41,65.7,43.41Z"/><path class="cls-48" d="M71.19,43.41h0c-1.11,0-2-.18-1.94-.4l.58-3c0-.22,1-.4,2.1-.4h0c1.11,0,2,.18,1.94.4l-.58,3C73.25,43.23,72.3,43.41,71.19,43.41Z"/><path class="cls-49" d="M76.69,43.4h0c-1.11,0-2-.18-2-.4l.58-3c.05-.22,1-.4,2.11-.41h0c1.11,0,2,.18,1.94.4l-.58,3C78.75,43.22,77.8,43.4,76.69,43.4Z"/><path class="cls-50" d="M406.85,42.84h0c-1.8,0-3.21-.29-3.14-.65l.94-4.78c.07-.36,1.59-.65,3.39-.65h0c1.8,0,3.22.29,3.15.64l-.94,4.79C410.18,42.54,408.65,42.84,406.85,42.84Z"/><path class="cls-51" d="M415.74,42.83h0c-1.8,0-3.22-.29-3.15-.64l.94-4.79c.07-.35,1.6-.65,3.4-.65h0c1.8,0,3.21.29,3.14.65l-.94,4.78C419.06,42.54,417.53,42.83,415.74,42.83Z"/><path class="cls-52" d="M424.62,42.82h0c-1.8,0-3.21-.29-3.14-.64l.94-4.79c.07-.35,1.59-.64,3.39-.64h0c1.8,0,3.22.28,3.15.64L428,42.17C428,42.53,426.42,42.82,424.62,42.82Z"/><path class="cls-53" d="M433.51,42.81h0c-1.8,0-3.22-.28-3.15-.64l.94-4.78c.07-.36,1.6-.65,3.4-.65h0c1.8,0,3.21.29,3.14.64l-.94,4.79C436.83,42.52,435.3,42.81,433.51,42.81Z"/><path class="cls-54" d="M442.39,42.81h0c-1.8,0-3.21-.29-3.14-.65l.94-4.78c.07-.36,1.6-.65,3.39-.65h0c1.8,0,3.22.29,3.15.64l-.94,4.79C445.72,42.51,444.19,42.81,442.39,42.81Z"/><path class="cls-55" d="M451.28,42.8h0c-1.8,0-3.22-.29-3.15-.64l.94-4.79c.07-.35,1.6-.65,3.4-.65h0c1.8,0,3.21.29,3.14.65l-.94,4.78C454.6,42.51,453.08,42.8,451.28,42.8Z"/><path class="cls-56" d="M460.16,42.79h0c-1.8,0-3.21-.29-3.14-.64l.94-4.79c.07-.35,1.6-.64,3.4-.64h0c1.79,0,3.21.28,3.14.64l-.94,4.78C463.49,42.5,462,42.79,460.16,42.79Z"/><path class="cls-57" d="M469.05,42.79h0c-1.8,0-3.21-.29-3.15-.65l.94-4.78c.07-.36,1.6-.65,3.4-.65h0c1.8,0,3.21.29,3.14.64l-.93,4.79C472.38,42.49,470.85,42.78,469.05,42.79Z"/><path class="cls-58" d="M477.93,42.78h0c-1.79,0-3.21-.29-3.14-.65l.94-4.78c.07-.36,1.6-.65,3.4-.65h0c1.8,0,3.21.29,3.14.64l-.94,4.79C481.26,42.48,479.73,42.78,477.93,42.78Z"/><path class="cls-59" d="M486.82,42.77h0c-1.8,0-3.21-.29-3.14-.64l.94-4.79c.06-.35,1.59-.64,3.39-.65h0c1.8,0,3.22.29,3.15.65l-.94,4.78C490.15,42.48,488.62,42.77,486.82,42.77Z"/><path class="cls-60" d="M106.31,38.06l-24.71,0a.39.39,0,0,1-.3-.12L63.39,19.79l-51.06,0a.43.43,0,0,1-.43-.43.43.43,0,0,1,.43-.43l51.24,0a.46.46,0,0,1,.31.13l17.9,18.16,24.52,0a.43.43,0,0,1,.43.43A.42.42,0,0,1,106.31,38.06Z"/><path class="cls-61" d="M79.08,38.09a.43.43,0,0,1-.3-.13L62.71,21.81l-47.48,0a.43.43,0,0,1-.43-.43.43.43,0,0,1,.43-.43l47.66,0a.44.44,0,0,1,.31.13L79.39,37.35a.44.44,0,0,1,0,.61A.48.48,0,0,1,79.08,38.09Z"/><path class="cls-62" d="M23,80.08a.57.57,0,0,1-.57-.58l0-41.8a.58.58,0,0,1,.57-.57l37.58,0a.57.57,0,1,1,0,1.14l-37,0,0,41.22A.57.57,0,0,1,23,80.08Z"/><path class="cls-63" d="M20.5,69a.58.58,0,0,1-.57-.57l0-33.06a.58.58,0,0,1,.57-.57l25.93,0a.57.57,0,1,1,0,1.14l-25.35,0,0,32.49A.58.58,0,0,1,20.5,69Z"/><path class="cls-64" d="M164.91,29.46l-55.51,0a.58.58,0,0,1-.58-.57.59.59,0,0,1,.58-.58l55.07,0,3.46-12.48a.57.57,0,0,1,.55-.42l82.14-.07a.58.58,0,0,1,0,1.15l-81.71.06L165.46,29A.58.58,0,0,1,164.91,29.46Z"/></g></g></svg>