<svg xmlns="http://www.w3.org/2000/svg" xmlns:xlink="http://www.w3.org/1999/xlink" viewBox="0 0 495.96 155.19"><defs><style>.cls-1{fill:url(#New_Gradient_Swatch_1);}.cls-2{fill:url(#New_Gradient_Swatch_1-2);}.cls-3{fill:url(#New_Gradient_Swatch_1-3);}.cls-4{fill:url(#New_Gradient_Swatch_1-4);}.cls-5{fill:url(#New_Gradient_Swatch_1-5);}.cls-6{fill:url(#New_Gradient_Swatch_1-6);}.cls-7{fill:url(#New_Gradient_Swatch_1-7);}.cls-8{fill:url(#New_Gradient_Swatch_1-8);}.cls-9{fill:url(#New_Gradient_Swatch_1-9);}.cls-10{fill:url(#New_Gradient_Swatch_1-10);}.cls-11{fill:url(#New_Gradient_Swatch_1-11);}.cls-12{fill:url(#New_Gradient_Swatch_1-12);}.cls-13{fill:url(#New_Gradient_Swatch_1-13);}.cls-14{fill:url(#New_Gradient_Swatch_1-14);}.cls-15{fill:url(#New_Gradient_Swatch_1-15);}.cls-16{fill:url(#New_Gradient_Swatch_1-16);}.cls-17{fill:url(#New_Gradient_Swatch_1-17);}.cls-18{fill:url(#New_Gradient_Swatch_1-18);}.cls-19{fill:url(#New_Gradient_Swatch_1-19);}.cls-20{fill:url(#New_Gradient_Swatch_1-20);}.cls-21{fill:url(#New_Gradient_Swatch_1-21);}.cls-22{fill:url(#New_Gradient_Swatch_1-22);}.cls-23{fill:url(#New_Gradient_Swatch_1-23);}.cls-24{fill:url(#New_Gradient_Swatch_1-24);}.cls-25{fill:url(#New_Gradient_Swatch_1-25);}.cls-26{fill:url(#New_Gradient_Swatch_1-26);}.cls-27{fill:url(#New_Gradient_Swatch_1-27);}.cls-28{fill:url(#New_Gradient_Swatch_1-28);}.cls-29{fill:url(#New_Gradient_Swatch_1-29);}.cls-30{fill:url(#New_Gradient_Swatch_1-30);}.cls-31{fill:url(#New_Gradient_Swatch_1-31);}.cls-32{fill:url(#New_Gradient_Swatch_1-32);}.cls-33{fill:url(#New_Gradient_Swatch_1-33);}.cls-34{fill:url(#New_Gradient_Swatch_1-34);}.cls-35{fill:url(#New_Gradient_Swatch_1-35);}.cls-36{fill:url(#New_Gradient_Swatch_1-36);}.cls-37{fill:url(#New_Gradient_Swatch_1-37);}.cls-38{fill:url(#New_Gradient_Swatch_1-38);}.cls-39{fill:url(#New_Gradient_Swatch_1-39);}.cls-40{fill:url(#New_Gradient_Swatch_1-40);}.cls-41{fill:url(#New_Gradient_Swatch_1-41);}.cls-42{fill:url(#New_Gradient_Swatch_1-42);}.cls-43{fill:url(#New_Gradient_Swatch_1-43);}.cls-44{fill:url(#New_Gradient_Swatch_1-44);}.cls-45{fill:url(#New_Gradient_Swatch_1-45);}.cls-46{fill:url(#New_Gradient_Swatch_1-46);}</style><linearGradient id="New_Gradient_Swatch_1" x1="211.82" y1="89.71" x2="240" y2="89.71" gradientUnits="userSpaceOnUse"><stop offset="0" stop-color="#cf52fe"/><stop offset="1" stop-color="#19dbb6"/></linearGradient><linearGradient id="New_Gradient_Swatch_1-2" x1="191.96" y1="89.71" x2="220.14" y2="89.71" xlink:href="#New_Gradient_Swatch_1"/><linearGradient id="New_Gradient_Swatch_1-3" x1="172.1" y1="89.71" x2="200.27" y2="89.71" xlink:href="#New_Gradient_Swatch_1"/><linearGradient id="New_Gradient_Swatch_1-4" x1="152.24" y1="89.71" x2="180.41" y2="89.71" xlink:href="#New_Gradient_Swatch_1"/><linearGradient id="New_Gradient_Swatch_1-5" x1="52.92" y1="89.71" x2="81.1" y2="89.71" xlink:href="#New_Gradient_Swatch_1"/><linearGradient id="New_Gradient_Swatch_1-6" x1="132.37" y1="89.71" x2="160.55" y2="89.71" xlink:href="#New_Gradient_Swatch_1"/><linearGradient id="New_Gradient_Swatch_1-7" x1="112.51" y1="89.71" x2="140.69" y2="89.71" xlink:href="#New_Gradient_Swatch_1"/><linearGradient id="New_Gradient_Swatch_1-8" x1="92.65" y1="89.71" x2="120.82" y2="89.71" xlink:href="#New_Gradient_Swatch_1"/><linearGradient id="New_Gradient_Swatch_1-9" x1="72.78" y1="89.71" x2="100.96" y2="89.71" xlink:href="#New_Gradient_Swatch_1"/><linearGradient id="New_Gradient_Swatch_1-10" x1="331" y1="89.71" x2="359.18" y2="89.71" xlink:href="#New_Gradient_Swatch_1"/><linearGradient id="New_Gradient_Swatch_1-11" x1="410.45" y1="89.71" x2="438.63" y2="89.71" xlink:href="#New_Gradient_Swatch_1"/><linearGradient id="New_Gradient_Swatch_1-12" x1="390.59" y1="89.71" x2="418.77" y2="89.71" xlink:href="#New_Gradient_Swatch_1"/><linearGradient id="New_Gradient_Swatch_1-13" x1="370.73" y1="89.71" x2="398.9" y2="89.71" xlink:href="#New_Gradient_Swatch_1"/><linearGradient id="New_Gradient_Swatch_1-14" x1="350.86" y1="89.71" x2="379.04" y2="89.71" xlink:href="#New_Gradient_Swatch_1"/><linearGradient id="New_Gradient_Swatch_1-15" x1="231.69" y1="89.71" x2="259.86" y2="89.71" xlink:href="#New_Gradient_Swatch_1"/><linearGradient id="New_Gradient_Swatch_1-16" x1="311.14" y1="89.71" x2="339.31" y2="89.71" xlink:href="#New_Gradient_Swatch_1"/><linearGradient id="New_Gradient_Swatch_1-17" x1="291.28" y1="89.71" x2="319.45" y2="89.71" xlink:href="#New_Gradient_Swatch_1"/><linearGradient id="New_Gradient_Swatch_1-18" x1="271.41" y1="89.71" x2="299.59" y2="89.71" xlink:href="#New_Gradient_Swatch_1"/><linearGradient id="New_Gradient_Swatch_1-19" x1="251.55" y1="89.71" x2="279.73" y2="89.71" xlink:href="#New_Gradient_Swatch_1"/><linearGradient id="New_Gradient_Swatch_1-20" x1="77.08" y1="48.98" x2="107.7" y2="48.98" xlink:href="#New_Gradient_Swatch_1"/><linearGradient id="New_Gradient_Swatch_1-21" x1="0" y1="90.41" x2="167.29" y2="90.41" xlink:href="#New_Gradient_Swatch_1"/><linearGradient id="New_Gradient_Swatch_1-22" x1="136.56" y1="104.34" x2="494.85" y2="104.34" xlink:href="#New_Gradient_Swatch_1"/><linearGradient id="New_Gradient_Swatch_1-23" x1="104.91" y1="62.9" x2="495.96" y2="62.9" xlink:href="#New_Gradient_Swatch_1"/><linearGradient id="New_Gradient_Swatch_1-24" x1="120.63" y1="19.76" x2="139.6" y2="19.76" xlink:href="#New_Gradient_Swatch_1"/><linearGradient id="New_Gradient_Swatch_1-25" x1="148.39" y1="19.76" x2="167.36" y2="19.76" xlink:href="#New_Gradient_Swatch_1"/><linearGradient id="New_Gradient_Swatch_1-26" x1="176.14" y1="19.76" x2="195.12" y2="19.76" xlink:href="#New_Gradient_Swatch_1"/><linearGradient id="New_Gradient_Swatch_1-27" x1="203.9" y1="19.76" x2="222.88" y2="19.76" xlink:href="#New_Gradient_Swatch_1"/><linearGradient id="New_Gradient_Swatch_1-28" x1="231.66" y1="19.76" x2="250.64" y2="19.76" xlink:href="#New_Gradient_Swatch_1"/><linearGradient id="New_Gradient_Swatch_1-29" x1="259.42" y1="19.76" x2="278.4" y2="19.76" xlink:href="#New_Gradient_Swatch_1"/><linearGradient id="New_Gradient_Swatch_1-30" x1="287.18" y1="19.76" x2="306.16" y2="19.76" xlink:href="#New_Gradient_Swatch_1"/><linearGradient id="New_Gradient_Swatch_1-31" x1="314.94" y1="19.76" x2="333.92" y2="19.76" xlink:href="#New_Gradient_Swatch_1"/><linearGradient id="New_Gradient_Swatch_1-32" x1="342.7" y1="19.76" x2="361.68" y2="19.76" xlink:href="#New_Gradient_Swatch_1"/><linearGradient id="New_Gradient_Swatch_1-33" x1="92.87" y1="19.76" x2="111.84" y2="19.76" xlink:href="#New_Gradient_Swatch_1"/><linearGradient id="New_Gradient_Swatch_1-34" x1="370.46" y1="19.76" x2="389.44" y2="19.76" xlink:href="#New_Gradient_Swatch_1"/><linearGradient id="New_Gradient_Swatch_1-35" x1="58.91" y1="19.82" x2="423.39" y2="19.82" xlink:href="#New_Gradient_Swatch_1"/><linearGradient id="New_Gradient_Swatch_1-36" x1="26.95" y1="146.7" x2="464.6" y2="146.7" xlink:href="#New_Gradient_Swatch_1"/><linearGradient id="New_Gradient_Swatch_1-37" x1="137.67" y1="55.52" x2="368.07" y2="55.52" xlink:href="#New_Gradient_Swatch_1"/><linearGradient id="New_Gradient_Swatch_1-38" x1="173.01" y1="4.02" x2="309.29" y2="4.02" xlink:href="#New_Gradient_Swatch_1"/><linearGradient id="New_Gradient_Swatch_1-39" x1="50.01" y1="35.96" x2="432.3" y2="35.96" xlink:href="#New_Gradient_Swatch_1"/><linearGradient id="New_Gradient_Swatch_1-40" x1="45.05" y1="35.96" x2="57.19" y2="35.96" xlink:href="#New_Gradient_Swatch_1"/><linearGradient id="New_Gradient_Swatch_1-41" x1="425.11" y1="35.96" x2="437.25" y2="35.96" xlink:href="#New_Gradient_Swatch_1"/><linearGradient id="New_Gradient_Swatch_1-42" x1="279.49" y1="39.43" x2="415.77" y2="39.43" xlink:href="#New_Gradient_Swatch_1"/><linearGradient id="New_Gradient_Swatch_1-43" x1="30.35" y1="123.42" x2="42.49" y2="123.42" xlink:href="#New_Gradient_Swatch_1"/><linearGradient id="New_Gradient_Swatch_1-44" x1="442.6" y1="123.42" x2="454.74" y2="123.42" xlink:href="#New_Gradient_Swatch_1"/><linearGradient id="New_Gradient_Swatch_1-45" x1="35.31" y1="123.42" x2="449.79" y2="123.42" xlink:href="#New_Gradient_Swatch_1"/><linearGradient id="New_Gradient_Swatch_1-46" x1="190.25" y1="123.42" x2="425.35" y2="123.42" xlink:href="#New_Gradient_Swatch_1"/></defs><title>loading_12_purple_green</title><g id="Layer_2" data-name="Layer 2"><g id="Layer_1-2" data-name="Layer 1"><polygon class="cls-1" points="228.96 106.46 211.82 106.46 222.86 72.95 240 72.95 228.96 106.46"/><polygon class="cls-2" points="209.1 106.46 191.96 106.46 203 72.95 220.14 72.95 209.1 106.46"/><polygon class="cls-3" points="189.24 106.46 172.1 106.46 183.14 72.95 200.28 72.95 189.24 106.46"/><polygon class="cls-4" points="169.37 106.46 152.24 106.46 163.28 72.95 180.41 72.95 169.37 106.46"/><polygon class="cls-5" points="70.06 106.46 52.92 106.46 63.96 72.95 81.1 72.95 70.06 106.46"/><polygon class="cls-6" points="149.51 106.46 132.37 106.46 143.41 72.95 160.55 72.95 149.51 106.46"/><polygon class="cls-7" points="129.65 106.46 112.51 106.46 123.55 72.95 140.69 72.95 129.65 106.46"/><polygon class="cls-8" points="109.78 106.46 92.65 106.46 103.69 72.95 120.82 72.95 109.78 106.46"/><polygon class="cls-9" points="89.92 106.46 72.78 106.46 83.82 72.95 100.96 72.95 89.92 106.46"/><polygon class="cls-10" points="348.14 106.46 331 106.46 342.04 72.95 359.18 72.95 348.14 106.46"/><polygon class="cls-11" points="427.59 106.46 410.45 106.46 421.49 72.95 438.63 72.95 427.59 106.46"/><polygon class="cls-12" points="407.73 106.46 390.59 106.46 401.63 72.95 418.77 72.95 407.73 106.46"/><polygon class="cls-13" points="387.86 106.46 370.73 106.46 381.77 72.95 398.9 72.95 387.86 106.46"/><polygon class="cls-14" points="368 106.46 350.86 106.46 361.9 72.95 379.04 72.95 368 106.46"/><polygon class="cls-15" points="248.82 106.46 231.69 106.46 242.73 72.95 259.86 72.95 248.82 106.46"/><polygon class="cls-16" points="328.27 106.46 311.14 106.46 322.18 72.95 339.31 72.95 328.27 106.46"/><polygon class="cls-17" points="308.41 106.46 291.28 106.46 302.31 72.95 319.45 72.95 308.41 106.46"/><polygon class="cls-18" points="288.55 106.46 271.41 106.46 282.45 72.95 299.59 72.95 288.55 106.46"/><polygon class="cls-19" points="268.69 106.46 251.55 106.46 262.59 72.95 279.73 72.95 268.69 106.46"/><path class="cls-20" d="M107.14,49.53H77.63a.54.54,0,0,1-.55-.55.55.55,0,0,1,.55-.56h29.51a.56.56,0,0,1,.56.56A.55.55,0,0,1,107.14,49.53Z"/><path class="cls-21" d="M165.06,134.08H35.7C16,134.08,0,120.59,0,104V76.82C0,60.24,16,46.75,35.7,46.75H92.88a2.23,2.23,0,1,1,0,4.46H35.7C18.47,51.21,4.46,62.7,4.46,76.82V104c0,14.12,14,25.61,31.24,25.61H165.06a2.23,2.23,0,1,1,0,4.46Z"/><path class="cls-22" d="M465.89,133H137.67a1.11,1.11,0,1,1,0-2.22H465.89A26.77,26.77,0,0,0,492.62,104V76.82a1.12,1.12,0,0,1,2.23,0V104A29,29,0,0,1,465.89,133Z"/><path class="cls-23" d="M493.73,79.05a2.22,2.22,0,0,1-2.22-2.23,25.64,25.64,0,0,0-25.62-25.61H107.14a2.23,2.23,0,0,1,0-4.46H465.89A30.1,30.1,0,0,1,496,76.82,2.23,2.23,0,0,1,493.73,79.05Z"/><rect class="cls-24" x="120.63" y="11.6" width="18.97" height="16.33"/><rect class="cls-25" x="148.39" y="11.6" width="18.97" height="16.33"/><rect class="cls-26" x="176.14" y="11.6" width="18.97" height="16.33"/><rect class="cls-27" x="203.9" y="11.6" width="18.97" height="16.33"/><rect class="cls-28" x="231.66" y="11.6" width="18.97" height="16.33"/><rect class="cls-29" x="259.42" y="11.6" width="18.97" height="16.33"/><rect class="cls-30" x="287.18" y="11.6" width="18.97" height="16.33"/><rect class="cls-31" x="314.94" y="11.6" width="18.97" height="16.33"/><rect class="cls-32" x="342.7" y="11.6" width="18.97" height="16.33"/><rect class="cls-33" x="92.87" y="11.6" width="18.97" height="16.33"/><rect class="cls-34" x="370.46" y="11.6" width="18.97" height="16.33"/><path class="cls-35" d="M413.17,9.93a8,8,0,0,1,7.95,7.94v3.9a8,8,0,0,1-7.95,7.94h-344a8,8,0,0,1-7.94-7.94v-3.9a8,8,0,0,1,7.94-7.94h344m0-2.27h-344A10.24,10.24,0,0,0,58.91,17.87v3.9A10.25,10.25,0,0,0,69.13,32h344a10.25,10.25,0,0,0,10.22-10.21v-3.9A10.24,10.24,0,0,0,413.17,7.66Z"/><polygon class="cls-36" points="464.6 138.2 26.95 138.2 39.92 150.63 107.7 150.63 108.79 155.19 202.53 155.19 203.61 150.63 287.94 150.63 289.02 155.19 382.76 155.19 383.85 150.63 451.63 150.63 464.6 138.2"/><polygon class="cls-37" points="361.24 62.06 144.5 62.06 137.67 48.98 368.07 48.98 361.24 62.06"/><polygon class="cls-38" points="305.25 0 177.05 0 173.01 8.05 309.3 8.05 305.25 0"/><path class="cls-39" d="M431.18,37.07H51.12a1.11,1.11,0,0,1,0-2.22H431.18a1.11,1.11,0,1,1,0,2.22Z"/><path class="cls-40" d="M57.19,36a6.07,6.07,0,1,1-6.07-6.07A6.07,6.07,0,0,1,57.19,36Z"/><path class="cls-41" d="M437.25,36a6.07,6.07,0,1,1-6.07-6.07A6.07,6.07,0,0,1,437.25,36Z"/><polygon class="cls-42" points="411.73 43.3 283.53 43.3 279.49 35.56 415.77 35.56 411.73 43.3"/><circle class="cls-43" cx="36.42" cy="123.42" r="6.07"/><path class="cls-44" d="M454.74,123.42a6.07,6.07,0,1,1-6.07-6.07A6.07,6.07,0,0,1,454.74,123.42Z"/><path class="cls-45" d="M448.67,124.54H36.42a1.12,1.12,0,0,1,0-2.23H448.67a1.12,1.12,0,1,1,0,2.23Z"/><path class="cls-46" d="M421.12,127.66H194.49a4.26,4.26,0,0,1-4.24-4.24h0a4.25,4.25,0,0,1,4.24-4.23H421.12a4.24,4.24,0,0,1,4.23,4.23h0A4.25,4.25,0,0,1,421.12,127.66Z"/></g></g></svg>