<svg xmlns="http://www.w3.org/2000/svg" xmlns:xlink="http://www.w3.org/1999/xlink" viewBox="0 0 496.91 148.3"><defs><style>.cls-1{fill:#00d0ff;}.cls-2{fill:url(#Безымянный_градиент_172);}.cls-3{opacity:0.44;}</style><radialGradient id="Безымянный_градиент_172" cx="70.19" cy="67.35" r="47.26" gradientTransform="translate(66.16 -29.02) rotate(44.95)" gradientUnits="userSpaceOnUse"><stop offset="0" stop-color="#00bdff"/><stop offset="0.25" stop-color="#0384ba"/><stop offset="0.51" stop-color="#054f7a"/><stop offset="0.73" stop-color="#07294b"/><stop offset="0.9" stop-color="#08112e"/><stop offset="1" stop-color="#080823"/></radialGradient></defs><title>loading_02</title><g id="Layer_2" data-name="Layer 2"><g id="Layer_1-2" data-name="Layer 1"><path class="cls-1" d="M68.31,136.27a68,68,0,1,1,68-68.09A68.11,68.11,0,0,1,68.31,136.27ZM68.2,2.59a65.65,65.65,0,1,0,65.7,65.59A65.72,65.72,0,0,0,68.2,2.59Z"/><path class="cls-1" d="M158.31,110h0a8.91,8.91,0,0,1-8.89-8.88l-.06-65.83a8.91,8.91,0,0,1,8.88-8.89h0a8.9,8.9,0,0,1,8.89,8.88l.06,65.82A8.92,8.92,0,0,1,158.31,110Z"/><path class="cls-1" d="M182.45,109.94h0a8.91,8.91,0,0,1-8.89-8.88l-.05-65.83a8.9,8.9,0,0,1,8.87-8.89h0a8.92,8.92,0,0,1,8.9,8.88l.05,65.82A8.92,8.92,0,0,1,182.45,109.94Z"/><path class="cls-1" d="M206.59,110.33h0a8.93,8.93,0,0,1-8.89-8.88l0-65.83a8.9,8.9,0,0,1,8.88-8.89h0a8.91,8.91,0,0,1,8.89,8.87l.05,65.83A8.92,8.92,0,0,1,206.59,110.33Z"/><path class="cls-1" d="M230.74,110.31h0a8.93,8.93,0,0,1-8.9-8.88l-.05-65.83a8.91,8.91,0,0,1,8.88-8.89h0a8.9,8.9,0,0,1,8.89,8.87l.05,65.83A8.91,8.91,0,0,1,230.74,110.31Z"/><path class="cls-1" d="M254.88,110.29h0a8.91,8.91,0,0,1-8.89-8.88l-.06-65.83a8.91,8.91,0,0,1,8.88-8.89h0a8.9,8.9,0,0,1,8.89,8.87l.06,65.83A8.92,8.92,0,0,1,254.88,110.29Z"/><path class="cls-1" d="M279,110.27h0a8.91,8.91,0,0,1-8.89-8.88l-.06-65.83A8.91,8.91,0,0,1,279,26.67h0a8.9,8.9,0,0,1,8.89,8.87l.06,65.83A8.92,8.92,0,0,1,279,110.27Z"/><path class="cls-1" d="M303.16,109.84h0a8.91,8.91,0,0,1-8.89-8.88l0-65.83a8.9,8.9,0,0,1,8.87-8.89h0a8.92,8.92,0,0,1,8.9,8.88l.05,65.82A8.92,8.92,0,0,1,303.16,109.84Z"/><path class="cls-1" d="M327.3,109.82h0a8.92,8.92,0,0,1-8.89-8.88l-.05-65.83a8.9,8.9,0,0,1,8.87-8.89h0a8.92,8.92,0,0,1,8.9,8.88l.05,65.82A8.92,8.92,0,0,1,327.3,109.82Z"/><path class="cls-1" d="M349.93,109.8h0a8.91,8.91,0,0,1-8.89-8.88L341,35.09a8.9,8.9,0,0,1,8.87-8.89h0a8.92,8.92,0,0,1,8.9,8.88l.05,65.83A8.92,8.92,0,0,1,349.93,109.8Z"/><path class="cls-1" d="M372.56,109.78h0a8.91,8.91,0,0,1-8.89-8.88l-.06-65.83a8.92,8.92,0,0,1,8.88-8.89h0a8.91,8.91,0,0,1,8.89,8.88l.06,65.83A8.91,8.91,0,0,1,372.56,109.78Z"/><path class="cls-1" d="M395.19,109.76h0a8.91,8.91,0,0,1-8.89-8.88l-.06-65.83a8.92,8.92,0,0,1,8.88-8.89h0A8.91,8.91,0,0,1,404,35l.06,65.83A8.91,8.91,0,0,1,395.19,109.76Z"/><path class="cls-1" d="M416.92,109.74h0a8.9,8.9,0,0,1-8.89-8.87L408,35a8.92,8.92,0,0,1,8.88-8.9h0A8.91,8.91,0,0,1,425.74,35l.05,65.83A8.9,8.9,0,0,1,416.92,109.74Z"/><path class="cls-1" d="M438.69,109.72h0a8.9,8.9,0,0,1-8.89-8.87L429.74,35a8.91,8.91,0,0,1,8.88-8.89h0A8.9,8.9,0,0,1,447.51,35l.06,65.83A8.91,8.91,0,0,1,438.69,109.72Z"/><path class="cls-1" d="M462.4,109.71h0a8.93,8.93,0,0,1-8.89-8.88L453.46,35a8.9,8.9,0,0,1,8.88-8.89h0A8.91,8.91,0,0,1,471.23,35l0,65.83A8.92,8.92,0,0,1,462.4,109.71Z"/><path class="cls-1" d="M136.21,61h0a2.81,2.81,0,0,1-2.29,3.23l-18.34,1.1A2.3,2.3,0,0,1,113,63.46h0a2.3,2.3,0,0,1,2.13-2.38l18.17-2.75C134.65,58.12,136,59.33,136.21,61Z"/><path class="cls-1" d="M134.77,52.75h0a2.67,2.67,0,0,1-1.8,3.47L114.9,59.56A2.45,2.45,0,0,1,112.05,58a2.36,2.36,0,0,1,1.87-2.64l17.69-5C132.92,50,134.35,51.09,134.77,52.75Z"/><path class="cls-1" d="M132.36,44.7h0c.59,1.61,0,3.26-1.31,3.66L113.53,53.9a2.45,2.45,0,0,1-3.07-1.16h0a2.45,2.45,0,0,1,1.59-2.87L129,42.76C130.25,42.22,131.77,43.09,132.36,44.7Z"/><path class="cls-1" d="M129,37h0c.75,1.53.34,3.26-.91,3.81l-16.7,7.66a2.35,2.35,0,0,1-3.13-.79h0a2.45,2.45,0,0,1,1.18-3l15.93-9.15A2.69,2.69,0,0,1,129,37Z"/><path class="cls-1" d="M124.74,29.77h0a2.81,2.81,0,0,1-.47,3.93l-15.64,9.65a2.31,2.31,0,0,1-3.17-.43h0a2.29,2.29,0,0,1,.76-3.11l14.69-11C122,28,123.72,28.4,124.74,29.77Z"/><path class="cls-1" d="M119.56,23.18a3.24,3.24,0,0,1,.89,2.09,2.33,2.33,0,0,1-.82,1.81L105.3,38.57a2.71,2.71,0,0,1-1.73.61,2.07,2.07,0,0,1-1.53-.6h0a2.39,2.39,0,0,1,.41-3.23l13.24-12.74C116.67,21.66,118.42,21.91,119.56,23.18Z"/><path class="cls-1" d="M113.65,17.23h0c1.27,1.15,1.51,2.89.55,3.86L101.38,34.24a2.44,2.44,0,0,1-3.25.42h0a2.49,2.49,0,0,1,.05-3.28l11.59-14.26C110.64,16,112.39,16.08,113.65,17.23Z"/><path class="cls-1" d="M107.08,12h0c1.38,1,1.81,2.74,1,3.82L96.94,30.46a2.33,2.33,0,0,1-3.13.75h0a2.37,2.37,0,0,1-.4-3.19l9.76-15.57A2.74,2.74,0,0,1,107.08,12Z"/><path class="cls-1" d="M99.9,7.69h0a3,3,0,0,1,1.55,1.68,2.23,2.23,0,0,1-.11,2L92.09,27.22a2.67,2.67,0,0,1-1.4,1.19,2.23,2.23,0,0,1-1.61-.05h0a2.33,2.33,0,0,1-.79-3.13L96.06,8.59C96.63,7.35,98.36,6.93,99.9,7.69Z"/><path class="cls-1" d="M92.22,4.29h0c1.61.59,2.47,2.09,1.91,3.38L86.91,24.56A2.49,2.49,0,0,1,84,26.13h0a2.42,2.42,0,0,1-1.14-3.06L88.54,5.59C89,4.29,90.61,3.7,92.22,4.29Z"/><path class="cls-1" d="M82.37,1.37h0c1.66.41,2.73,1.84,2.38,3.16l-4.6,17.79a2.29,2.29,0,0,1-2.58,1.88A2.32,2.32,0,0,1,76,21.43l3-18.13A2.79,2.79,0,0,1,82.37,1.37Z"/><path class="cls-1" d="M74.06.18a2.94,2.94,0,0,1,2.09.93A2.32,2.32,0,0,1,76.81,3L74.44,21.2a2.72,2.72,0,0,1-.83,1.64,2.23,2.23,0,0,1-1.51.58h0a2.32,2.32,0,0,1-1.94-2.57l.72-18.36C70.93,1.13,72.36.08,74.06.18Z"/><path class="cls-1" d="M65.69,0h0A2.65,2.65,0,0,1,68.75,2.4l-.14,18.37a2.48,2.48,0,0,1-2,2.55A2.41,2.41,0,0,1,64.31,21L62.81,2.64C62.69,1.28,64,.09,65.69,0Z"/><path class="cls-1" d="M57.35.83h0c1.69-.26,3.19.65,3.34,2l2.09,18.25a2.42,2.42,0,0,1-1.73,2.78h0a2.47,2.47,0,0,1-2.51-2.12l-3.74-18C54.51,2.4,55.66,1.1,57.35.83Z"/><path class="cls-1" d="M49.15,2.65c1.66-.44,3.27.3,3.58,1.63l4.32,17.85a2.35,2.35,0,0,1-1.38,2.92h0a2.44,2.44,0,0,1-2.74-1.73L47,5.93A2.7,2.7,0,0,1,49.15,2.65Z"/><path class="cls-1" d="M41.23,5.46h0A2.79,2.79,0,0,1,45,6.67l6.49,17.18a2.33,2.33,0,0,1-1,3h0a2.3,2.3,0,0,1-2.91-1.34L39.53,9C38.92,7.8,39.69,6.19,41.23,5.46Z"/><path class="cls-1" d="M33.76,9.29h0A3.28,3.28,0,0,1,36,8.81,2.31,2.31,0,0,1,37.6,10l8.57,16.25A2.68,2.68,0,0,1,46.43,28a2,2,0,0,1-.87,1.4h0a2.4,2.4,0,0,1-3.09-1L32.47,13C31.72,11.84,32.3,10.18,33.76,9.29Z"/><path class="cls-1" d="M26.8,14h0c1.37-1,3.12-.94,3.89.19l10.5,15.08A2.42,2.42,0,0,1,41,32.5a2.48,2.48,0,0,1-3.21-.66L26,17.77C25.05,16.7,25.43,15,26.8,14Z"/><path class="cls-1" d="M20.44,19.43h0c1.26-1.15,3-1.26,3.93-.23L36.63,32.89a2.32,2.32,0,0,1,.14,3.21,2.37,2.37,0,0,1-3.21-.21L20.12,23.36A2.76,2.76,0,0,1,20.44,19.43Z"/><path class="cls-1" d="M14.83,25.66h0a3,3,0,0,1,1.94-1.21,2.29,2.29,0,0,1,1.92.49L32.52,37a2.68,2.68,0,0,1,.91,1.6,2.25,2.25,0,0,1-.36,1.58h0a2.34,2.34,0,0,1-3.22.18L15,29.59C13.88,28.8,13.8,27,14.83,25.66Z"/><path class="cls-1" d="M9.07,34.15h0c.88-1.47,2.55-2.06,3.69-1.31l15.48,9.89a2.38,2.38,0,0,1,1,3.08,2.47,2.47,0,0,1-3.19.63L9.78,38A2.67,2.67,0,0,1,9.07,34.15Z"/><path class="cls-1" d="M5.28,41.64h0c.73-1.55,2.34-2.32,3.57-1.72l16.58,7.91a2.15,2.15,0,1,1-1.67,4L6.53,45.4C5.25,44.94,4.67,43.24,5.28,41.64Z"/><path class="cls-1" d="M2.54,49.59h0A2.68,2.68,0,0,1,5.8,47.41l17.43,5.81A2.46,2.46,0,0,1,25,56a2.37,2.37,0,0,1-2.92,1.4L4.19,53.15C2.86,52.85,2.11,51.24,2.54,49.59Z"/><path class="cls-1" d="M.78,57.8h0C1,56.1,2.35,55,3.68,55.23l18,3.61a2.48,2.48,0,0,1,2.14,2.5h0a2.45,2.45,0,0,1-2.79,1.74l-18.26-2C1.43,61,.52,59.49.78,57.8Z"/><path class="cls-1" d="M0,66.14H0c.08-1.71,1.27-3,2.63-2.89L21,64.62a2.38,2.38,0,0,1,2.37,2.23h0a2,2,0,0,1-.81,1.44,2.66,2.66,0,0,1-1.71.63l-18.37.27a2.33,2.33,0,0,1-1.79-.87A3.38,3.38,0,0,1,0,66.14Z"/><path class="cls-1" d="M.22,74.51c-.1-1.7,1-3.14,2.31-3.19l18.36-.86a2.32,2.32,0,0,1,2.57,1.93h0a2.36,2.36,0,0,1-2.19,2.35l-18.2,2.5A2.76,2.76,0,0,1,.22,74.51Z"/><path class="cls-1" d="M1.5,82.81h0a2.74,2.74,0,0,1,1.89-3.46L21.5,76.26a2.38,2.38,0,0,1,2.8,1.59,2.32,2.32,0,0,1-1.88,2.6L4.66,85.17C3.35,85.53,1.92,84.47,1.5,82.81Z"/><path class="cls-1" d="M3.82,90.88a3.35,3.35,0,0,1,0-2.27A2.26,2.26,0,0,1,5.2,87.24l17.59-5.3a2.74,2.74,0,0,1,1.84.08,2,2,0,0,1,1.2,1.12A2.4,2.4,0,0,1,24.23,86l-17,6.88C5.93,93.38,4.41,92.49,3.82,90.88Z"/><path class="cls-1" d="M7.09,98.62c-.75-1.54-.32-3.25.93-3.79l16.8-7.43a2.42,2.42,0,0,1,3.16.82h0a2.5,2.5,0,0,1-1.26,3l-16.06,8.92C9.45,100.86,7.83,100.17,7.09,98.62Z"/><path class="cls-1" d="M11.25,105.91h0c-.9-1.46-.66-3.22.52-3.91l15.76-9.44a2.31,2.31,0,0,1,3.18.47,2.36,2.36,0,0,1-.82,3.11L15.05,107A2.75,2.75,0,0,1,11.25,105.91Z"/><path class="cls-1" d="M17.57,114h0c-1.15-1.27-1.22-3-.15-3.87L31.59,98.42a2.47,2.47,0,0,1,3.29-.08,2.44,2.44,0,0,1-.4,3.26L21.42,114.51C20.46,115.48,18.72,115.25,17.57,114Z"/><path class="cls-1" d="M23.55,119.86h0C22.27,118.71,22,117,23,116l12.65-13.33a2.36,2.36,0,0,1,3.21-.42h0a2.44,2.44,0,0,1,0,3.24L27.46,119.88A2.67,2.67,0,0,1,23.55,119.86Z"/><path class="cls-1" d="M30.18,125h0c-1.39-1-1.83-2.74-1-3.82l10.93-14.78a2.16,2.16,0,1,1,3.56,2.4L34.1,124.48C33.41,125.65,31.63,125.89,30.18,125Z"/><path class="cls-1" d="M37.45,129.19h0a3.13,3.13,0,0,1-1.61-1.62,2.32,2.32,0,0,1,.09-2l9-16a2.71,2.71,0,0,1,1.38-1.21,2.08,2.08,0,0,1,1.64,0h0a2.38,2.38,0,0,1,.82,3.14l-7.55,16.76C40.7,129.51,39,129.94,37.45,129.19Z"/><path class="cls-1" d="M45.16,132.5h0c-1.61-.59-2.49-2.11-2-3.36l7-17a2.43,2.43,0,0,1,2.85-1.61,2.49,2.49,0,0,1,1.18,3.08l-5.42,17.55C48.41,132.49,46.78,133.08,45.16,132.5Z"/><path class="cls-1" d="M53.22,134.87h0c-1.66-.42-2.71-1.85-2.34-3.16L55.72,114a2.36,2.36,0,0,1,2.62-1.89h0a2.44,2.44,0,0,1,1.56,2.84L56.69,133A2.7,2.7,0,0,1,53.22,134.87Z"/><path class="cls-1" d="M61.51,136.24a2.82,2.82,0,0,1-2.71-2.89l2.62-18.19a2.16,2.16,0,1,1,4.28.42l-1,18.35C64.66,135.29,63.21,136.34,61.51,136.24Z"/><path class="cls-1" d="M69.88,136.5h0a2.67,2.67,0,0,1-3-2.47l.39-18.37a2.45,2.45,0,0,1,2.09-2.48h0a2.35,2.35,0,0,1,2.21,2.36l1.25,18.33C72.9,135.23,71.58,136.42,69.88,136.5Z"/><path class="cls-1" d="M78.23,135.78h0c-1.7.25-3.18-.65-3.31-2l-1.84-18.27a2.5,2.5,0,0,1,1.76-2.79,2.43,2.43,0,0,1,2.48,2.14l3.49,18C81.08,134.2,79.92,135.52,78.23,135.78Z"/><path class="cls-1" d="M86.45,134.06h0c-1.66.43-3.26-.32-3.55-1.65l-4.08-17.92a2.39,2.39,0,0,1,1.42-2.92h0a2,2,0,0,1,1.61.35A2.63,2.63,0,0,1,83,113.37l5.69,17.47a2.26,2.26,0,0,1-.31,2A3.32,3.32,0,0,1,86.45,134.06Z"/><path class="cls-1" d="M96.11,130.6h0a2.69,2.69,0,0,1-3.76-1.12l-6.73-17.09a2.43,2.43,0,0,1,1-3.08,2.34,2.34,0,0,1,2.94,1.32l8.26,16.42C98.41,128.26,97.66,129.87,96.11,130.6Z"/><path class="cls-1" d="M103.54,126.69c-1.46.89-3.19.62-3.83-.58L90.92,110a2.17,2.17,0,1,1,3.67-2.23L104.8,123C105.57,124.14,105,125.8,103.54,126.69Z"/><path class="cls-1" d="M110.45,121.93c-1.37,1-3.13.95-3.92-.16l-10.7-14.94a2.38,2.38,0,0,1,.19-3.24h0a2.47,2.47,0,0,1,3.2.59l12,13.91A2.68,2.68,0,0,1,110.45,121.93Z"/><path class="cls-1" d="M116.74,116.39c-1.24,1.18-3,1.28-3.95.27l-12.44-13.52a2.16,2.16,0,1,1,3-3L117,112.44C118,113.35,117.89,115.13,116.74,116.39Z"/><path class="cls-1" d="M122.23,110.05a3.2,3.2,0,0,1-1.88,1.27,2.32,2.32,0,0,1-1.94-.46L104.42,99a2.66,2.66,0,0,1-.92-1.58,2,2,0,0,1,.3-1.61h0a2.38,2.38,0,0,1,3.24-.21l15,10.6C123.17,106.92,123.26,108.69,122.23,110.05Z"/><path class="cls-1" d="M127,103.12c-.88,1.46-2.55,2-3.68,1.28L107.93,94.29a2.43,2.43,0,0,1-1-3.11,2.49,2.49,0,0,1,3.23-.57l16.2,8.67C127.57,99.94,127.84,101.65,127,103.12Z"/><path class="cls-1" d="M130.82,95.67h0c-.73,1.55-2.34,2.31-3.56,1.69l-16.47-8.14a2.34,2.34,0,0,1-1.33-2.93,2.18,2.18,0,0,1,1.22-1.05,2.66,2.66,0,0,1,1.84.06l17.14,6.61A2.24,2.24,0,0,1,131,93.38,3,3,0,0,1,130.82,95.67Z"/><path class="cls-1" d="M133.72,87.78h0a2.74,2.74,0,0,1-3.32,2.12l-17.35-6.05a2.36,2.36,0,0,1-1.69-2.73h0a2.32,2.32,0,0,1,2.91-1.37l17.82,4.44C133.42,84.51,134.16,86.13,133.72,87.78Z"/><path class="cls-1" d="M135.58,79.59a3.32,3.32,0,0,1-1.05,2,2.28,2.28,0,0,1-1.91.51l-18-3.86a2.79,2.79,0,0,1-1.57-1,2,2,0,0,1-.51-1.57h0A2.41,2.41,0,0,1,115.34,74l18.24,2.22C134.94,76.39,135.85,77.9,135.58,79.59Z"/><path class="cls-1" d="M136.45,71.26h0c-.08,1.7-1.27,3-2.63,2.86l-18.3-1.63a2.44,2.44,0,0,1-2.38-2.26,2.49,2.49,0,0,1,2.6-2h18.37C135.48,68.17,136.54,69.55,136.45,71.26Z"/><circle class="cls-2" cx="68.25" cy="68.23" r="47.26" transform="translate(-28.26 68.25) rotate(-45)"/><g class="cls-3"><path class="cls-1" d="M486.17,128.21l-334.11.27a1.2,1.2,0,1,1,0-2.39l334.12-.27a8.37,8.37,0,0,0,8.35-8.37l-.08-98.32a8.38,8.38,0,0,0-8.37-8.36L152,11.05a1.2,1.2,0,1,1,0-2.39l334.11-.28a10.77,10.77,0,0,1,10.76,10.75l.08,98.31A10.77,10.77,0,0,1,486.17,128.21Z"/></g><g class="cls-3"><path class="cls-1" d="M478.48,118.05l-326.43.27a1,1,0,0,1,0-2l326.43-.27a7,7,0,0,0,7-7l-.06-82.31a7,7,0,0,0-7-7L152,20a1,1,0,1,1,0-2l326.44-.27a9,9,0,0,1,9,9l.06,82.31A9,9,0,0,1,478.48,118.05Z"/></g><path class="cls-1" d="M481.91,135.73l-413.6.34a1,1,0,0,1,0-2l413.6-.34a1,1,0,0,1,0,2Z"/><path class="cls-1" d="M481.92,141.84l-413.61.35a1,1,0,0,1,0-2l413.61-.35a1,1,0,0,1,0,2Z"/><path class="cls-1" d="M481.92,148l-413.6.34a1,1,0,0,1,0-2l413.6-.34a1,1,0,0,1,1,1A1,1,0,0,1,481.92,148Z"/><path class="cls-1" d="M481.8,2.05,68.2,2.39a1,1,0,1,1,0-2L481.8.05a1,1,0,1,1,0,2Z"/></g></g></svg>