<svg xmlns="http://www.w3.org/2000/svg" xmlns:xlink="http://www.w3.org/1999/xlink" viewBox="0 0 492.04 158"><defs><style>.cls-1{mask:url(#mask);filter:url(#luminosity-noclip-2);}.cls-2{mix-blend-mode:multiply;fill:url(#Безымянный_градиент_44);}.cls-3{fill:url(#New_Gradient_Swatch_5);}.cls-4{fill:url(#New_Gradient_Swatch_5-2);}.cls-5{fill:url(#New_Gradient_Swatch_5-3);}.cls-6{fill:url(#New_Gradient_Swatch_5-4);}.cls-7{fill:url(#New_Gradient_Swatch_5-5);}.cls-8{fill:url(#New_Gradient_Swatch_5-6);}.cls-9{fill:url(#New_Gradient_Swatch_5-7);}.cls-10{fill:url(#New_Gradient_Swatch_5-8);}.cls-11{fill:url(#New_Gradient_Swatch_5-9);}.cls-12{fill:url(#New_Gradient_Swatch_5-10);}.cls-13{fill:url(#New_Gradient_Swatch_5-11);}.cls-14{fill:url(#New_Gradient_Swatch_5-12);}.cls-15{fill:url(#New_Gradient_Swatch_5-13);}.cls-16{fill:url(#New_Gradient_Swatch_5-14);}.cls-17{fill:url(#New_Gradient_Swatch_5-15);}.cls-18{fill:url(#New_Gradient_Swatch_5-16);}.cls-19{fill:url(#New_Gradient_Swatch_5-17);}.cls-20{fill:url(#New_Gradient_Swatch_5-18);}.cls-21{fill:url(#New_Gradient_Swatch_5-19);}.cls-22{fill:url(#New_Gradient_Swatch_5-20);}.cls-23{fill:url(#New_Gradient_Swatch_5-21);}.cls-24{mask:url(#mask-2);}.cls-25{fill:url(#New_Gradient_Swatch_5-22);}.cls-26{fill:url(#New_Gradient_Swatch_5-23);}.cls-27{fill:url(#New_Gradient_Swatch_5-24);}.cls-28{fill:url(#New_Gradient_Swatch_5-25);}.cls-29{fill:url(#New_Gradient_Swatch_5-26);}.cls-30{fill:url(#New_Gradient_Swatch_5-27);}.cls-31{fill:url(#New_Gradient_Swatch_5-28);}.cls-32{fill:url(#New_Gradient_Swatch_5-29);}.cls-33{fill:url(#New_Gradient_Swatch_5-30);}.cls-34{fill:url(#New_Gradient_Swatch_5-31);}.cls-35{fill:url(#New_Gradient_Swatch_5-32);}.cls-36{fill:url(#New_Gradient_Swatch_5-33);}.cls-37{fill:url(#New_Gradient_Swatch_5-34);}.cls-38{fill:url(#New_Gradient_Swatch_5-35);}.cls-39{fill:url(#New_Gradient_Swatch_5-36);}.cls-40{fill:url(#New_Gradient_Swatch_5-37);}.cls-41{fill:url(#New_Gradient_Swatch_5-38);}.cls-42{fill:url(#New_Gradient_Swatch_5-39);}.cls-43{fill:url(#New_Gradient_Swatch_5-40);}.cls-44{fill:url(#New_Gradient_Swatch_5-41);}.cls-45{fill:url(#New_Gradient_Swatch_5-42);}.cls-46{fill:url(#New_Gradient_Swatch_5-43);}.cls-47{fill:url(#New_Gradient_Swatch_5-44);}.cls-48{fill:url(#New_Gradient_Swatch_5-45);}.cls-49{fill:url(#New_Gradient_Swatch_5-46);}.cls-50{fill:url(#New_Gradient_Swatch_5-47);}.cls-51{fill:url(#New_Gradient_Swatch_5-48);}.cls-52{fill:url(#New_Gradient_Swatch_5-49);}.cls-53{fill:url(#New_Gradient_Swatch_5-50);}.cls-54{fill:url(#New_Gradient_Swatch_5-51);}.cls-55{fill:url(#New_Gradient_Swatch_5-52);}.cls-56{fill:url(#New_Gradient_Swatch_5-53);}.cls-57{fill:url(#New_Gradient_Swatch_5-54);}.cls-58{fill:url(#New_Gradient_Swatch_5-55);}.cls-59{fill:url(#New_Gradient_Swatch_5-56);}.cls-60{fill:url(#New_Gradient_Swatch_5-57);}.cls-61{fill:url(#New_Gradient_Swatch_5-58);}.cls-62{fill:url(#New_Gradient_Swatch_5-59);}.cls-63{fill:url(#New_Gradient_Swatch_5-60);}.cls-64{fill:url(#New_Gradient_Swatch_5-61);}.cls-65{fill:url(#New_Gradient_Swatch_5-62);}.cls-66{fill:url(#New_Gradient_Swatch_5-63);}.cls-67{fill:url(#New_Gradient_Swatch_5-64);}.cls-68{fill:url(#New_Gradient_Swatch_5-65);}.cls-69{fill:url(#New_Gradient_Swatch_5-66);}.cls-70{fill:url(#New_Gradient_Swatch_5-67);}.cls-71{fill:url(#New_Gradient_Swatch_5-68);}.cls-72{fill:url(#New_Gradient_Swatch_5-69);}.cls-73{fill:url(#New_Gradient_Swatch_5-70);}.cls-74{fill:url(#New_Gradient_Swatch_5-71);}.cls-75{fill:url(#New_Gradient_Swatch_5-72);}.cls-76{fill:url(#New_Gradient_Swatch_5-73);}.cls-77{fill:url(#New_Gradient_Swatch_5-74);}.cls-78{fill:url(#New_Gradient_Swatch_5-75);}.cls-79{fill:url(#New_Gradient_Swatch_5-76);}.cls-80{fill:url(#New_Gradient_Swatch_5-77);}.cls-81{fill:url(#New_Gradient_Swatch_5-78);}.cls-82{fill:url(#New_Gradient_Swatch_5-79);}.cls-83{fill:url(#New_Gradient_Swatch_5-80);}.cls-84{fill:url(#New_Gradient_Swatch_5-81);}.cls-85{fill:url(#New_Gradient_Swatch_5-82);}.cls-86{fill:url(#New_Gradient_Swatch_5-83);}.cls-87{fill:url(#New_Gradient_Swatch_5-84);}.cls-88{fill:url(#New_Gradient_Swatch_5-85);}.cls-89{fill:url(#New_Gradient_Swatch_5-86);}.cls-90{fill:url(#New_Gradient_Swatch_5-87);}.cls-91{fill:url(#New_Gradient_Swatch_5-88);}.cls-92{fill:url(#New_Gradient_Swatch_5-89);}.cls-93{fill:url(#New_Gradient_Swatch_5-90);}.cls-94{fill:url(#New_Gradient_Swatch_5-91);}.cls-95{fill:url(#New_Gradient_Swatch_5-92);}.cls-96{fill:url(#New_Gradient_Swatch_5-93);}.cls-97{fill:url(#New_Gradient_Swatch_5-94);}.cls-98{fill:url(#New_Gradient_Swatch_5-95);}.cls-99{fill:url(#New_Gradient_Swatch_5-96);}.cls-100{fill:url(#New_Gradient_Swatch_5-97);}.cls-101{fill:url(#New_Gradient_Swatch_5-98);}.cls-102{fill:url(#New_Gradient_Swatch_6);}.cls-103{fill:url(#New_Gradient_Swatch_6-2);}.cls-104{filter:url(#luminosity-noclip);}</style><filter id="luminosity-noclip" x="170.47" y="-8265.27" width="310.94" height="32766" filterUnits="userSpaceOnUse" color-interpolation-filters="sRGB"><feFlood flood-color="#fff" result="bg"/><feBlend in="SourceGraphic" in2="bg"/></filter><mask id="mask" x="170.47" y="-8265.27" width="310.94" height="32766" maskUnits="userSpaceOnUse"><g class="cls-104"/></mask><linearGradient id="Безымянный_градиент_44" x1="170.47" y1="79" x2="481.41" y2="79" gradientUnits="userSpaceOnUse"><stop offset="0" stop-color="#1a1a1a"/><stop offset="1" stop-color="#1a1a1a"/></linearGradient><linearGradient id="New_Gradient_Swatch_5" x1="141.03" y1="67.36" x2="492.04" y2="67.36" gradientUnits="userSpaceOnUse"><stop offset="0" stop-color="#11e5b3"/><stop offset="0.14" stop-color="#15dcb8"/><stop offset="0.36" stop-color="#21c4c6"/><stop offset="0.64" stop-color="#359edc"/><stop offset="0.97" stop-color="#4f68fb"/><stop offset="1" stop-color="#5263fe"/></linearGradient><linearGradient id="New_Gradient_Swatch_5-2" x1="144.66" y1="16.97" x2="201.71" y2="16.97" xlink:href="#New_Gradient_Swatch_5"/><linearGradient id="New_Gradient_Swatch_5-3" x1="420.35" y1="117.75" x2="477.4" y2="117.75" xlink:href="#New_Gradient_Swatch_5"/><linearGradient id="New_Gradient_Swatch_5-4" x1="168.83" y1="104.79" x2="469.57" y2="104.79" xlink:href="#New_Gradient_Swatch_5"/><linearGradient id="New_Gradient_Swatch_5-5" x1="168.83" y1="111.33" x2="409.92" y2="111.33" xlink:href="#New_Gradient_Swatch_5"/><linearGradient id="New_Gradient_Swatch_5-6" x1="194.04" y1="79" x2="222.78" y2="79" xlink:href="#New_Gradient_Swatch_5"/><linearGradient id="New_Gradient_Swatch_5-7" x1="227.62" y1="79" x2="256.36" y2="79" xlink:href="#New_Gradient_Swatch_5"/><linearGradient id="New_Gradient_Swatch_5-8" x1="261.2" y1="79" x2="289.94" y2="79" xlink:href="#New_Gradient_Swatch_5"/><linearGradient id="New_Gradient_Swatch_5-9" x1="294.78" y1="79" x2="323.52" y2="79" xlink:href="#New_Gradient_Swatch_5"/><linearGradient id="New_Gradient_Swatch_5-10" x1="328.36" y1="79" x2="357.09" y2="79" xlink:href="#New_Gradient_Swatch_5"/><linearGradient id="New_Gradient_Swatch_5-11" x1="361.94" y1="79" x2="390.67" y2="79" xlink:href="#New_Gradient_Swatch_5"/><linearGradient id="New_Gradient_Swatch_5-12" x1="395.51" y1="79" x2="424.25" y2="79" xlink:href="#New_Gradient_Swatch_5"/><linearGradient id="New_Gradient_Swatch_5-13" x1="429.09" y1="79" x2="457.83" y2="79" xlink:href="#New_Gradient_Swatch_5"/><linearGradient id="New_Gradient_Swatch_5-14" x1="216.54" y1="31.54" x2="228.87" y2="31.54" xlink:href="#New_Gradient_Swatch_5"/><linearGradient id="New_Gradient_Swatch_5-15" x1="230.95" y1="31.54" x2="243.28" y2="31.54" xlink:href="#New_Gradient_Swatch_5"/><linearGradient id="New_Gradient_Swatch_5-16" x1="245.36" y1="31.54" x2="257.69" y2="31.54" xlink:href="#New_Gradient_Swatch_5"/><linearGradient id="New_Gradient_Swatch_5-17" x1="259.77" y1="31.54" x2="272.1" y2="31.54" xlink:href="#New_Gradient_Swatch_5"/><linearGradient id="New_Gradient_Swatch_5-18" x1="274.18" y1="31.54" x2="286.52" y2="31.54" xlink:href="#New_Gradient_Swatch_5"/><linearGradient id="New_Gradient_Swatch_5-19" x1="288.59" y1="31.54" x2="300.93" y2="31.54" xlink:href="#New_Gradient_Swatch_5"/><linearGradient id="New_Gradient_Swatch_5-20" x1="303" y1="31.54" x2="315.34" y2="31.54" xlink:href="#New_Gradient_Swatch_5"/><linearGradient id="New_Gradient_Swatch_5-21" x1="317.41" y1="31.54" x2="329.75" y2="31.54" xlink:href="#New_Gradient_Swatch_5"/><filter id="luminosity-noclip-2" x="170.47" y="58.74" width="310.94" height="40.53" filterUnits="userSpaceOnUse" color-interpolation-filters="sRGB"><feFlood flood-color="#fff" result="bg"/><feBlend in="SourceGraphic" in2="bg"/></filter><mask id="mask-2" x="170.47" y="58.74" width="310.94" height="40.53" maskUnits="userSpaceOnUse"><g class="cls-1"><rect class="cls-2" x="170.47" y="58.74" width="310.94" height="40.53" rx="6.08"/></g></mask><linearGradient id="New_Gradient_Swatch_5-22" x1="170.47" y1="79" x2="481.41" y2="79" xlink:href="#New_Gradient_Swatch_5"/><linearGradient id="New_Gradient_Swatch_5-23" x1="169.01" y1="79" x2="482.86" y2="79" xlink:href="#New_Gradient_Swatch_5"/><linearGradient id="New_Gradient_Swatch_5-24" x1="0" y1="79" x2="158" y2="79" xlink:href="#New_Gradient_Swatch_5"/><linearGradient id="New_Gradient_Swatch_5-25" x1="168.77" y1="123.09" x2="395.39" y2="123.09" xlink:href="#New_Gradient_Swatch_5"/><linearGradient id="New_Gradient_Swatch_5-26" x1="328.36" y1="37.64" x2="489.35" y2="37.64" xlink:href="#New_Gradient_Swatch_5"/><linearGradient id="New_Gradient_Swatch_5-27" x1="199.19" y1="49.86" x2="201.82" y2="49.86" xlink:href="#New_Gradient_Swatch_5"/><linearGradient id="New_Gradient_Swatch_5-28" x1="203.14" y1="49.86" x2="205.77" y2="49.86" xlink:href="#New_Gradient_Swatch_5"/><linearGradient id="New_Gradient_Swatch_5-29" x1="207.09" y1="49.86" x2="209.72" y2="49.86" xlink:href="#New_Gradient_Swatch_5"/><linearGradient id="New_Gradient_Swatch_5-30" x1="211.04" y1="49.86" x2="213.67" y2="49.86" xlink:href="#New_Gradient_Swatch_5"/><linearGradient id="New_Gradient_Swatch_5-31" x1="214.99" y1="49.86" x2="217.62" y2="49.86" xlink:href="#New_Gradient_Swatch_5"/><linearGradient id="New_Gradient_Swatch_5-32" x1="218.94" y1="49.86" x2="221.57" y2="49.86" xlink:href="#New_Gradient_Swatch_5"/><linearGradient id="New_Gradient_Swatch_5-33" x1="222.89" y1="49.86" x2="225.52" y2="49.86" xlink:href="#New_Gradient_Swatch_5"/><linearGradient id="New_Gradient_Swatch_5-34" x1="226.84" y1="49.86" x2="229.47" y2="49.86" xlink:href="#New_Gradient_Swatch_5"/><linearGradient id="New_Gradient_Swatch_5-35" x1="230.79" y1="49.86" x2="233.42" y2="49.86" xlink:href="#New_Gradient_Swatch_5"/><linearGradient id="New_Gradient_Swatch_5-36" x1="234.74" y1="49.86" x2="237.37" y2="49.86" xlink:href="#New_Gradient_Swatch_5"/><linearGradient id="New_Gradient_Swatch_5-37" x1="238.68" y1="49.86" x2="241.31" y2="49.86" xlink:href="#New_Gradient_Swatch_5"/><linearGradient id="New_Gradient_Swatch_5-38" x1="242.63" y1="49.86" x2="245.26" y2="49.86" xlink:href="#New_Gradient_Swatch_5"/><linearGradient id="New_Gradient_Swatch_5-39" x1="246.58" y1="49.86" x2="249.21" y2="49.86" xlink:href="#New_Gradient_Swatch_5"/><linearGradient id="New_Gradient_Swatch_5-40" x1="250.53" y1="49.86" x2="253.16" y2="49.86" xlink:href="#New_Gradient_Swatch_5"/><linearGradient id="New_Gradient_Swatch_5-41" x1="254.48" y1="49.86" x2="257.11" y2="49.86" xlink:href="#New_Gradient_Swatch_5"/><linearGradient id="New_Gradient_Swatch_5-42" x1="258.43" y1="49.86" x2="261.06" y2="49.86" xlink:href="#New_Gradient_Swatch_5"/><linearGradient id="New_Gradient_Swatch_5-43" x1="262.38" y1="49.86" x2="265.01" y2="49.86" xlink:href="#New_Gradient_Swatch_5"/><linearGradient id="New_Gradient_Swatch_5-44" x1="266.33" y1="49.86" x2="268.96" y2="49.86" xlink:href="#New_Gradient_Swatch_5"/><linearGradient id="New_Gradient_Swatch_5-45" x1="270.28" y1="49.86" x2="272.91" y2="49.86" xlink:href="#New_Gradient_Swatch_5"/><linearGradient id="New_Gradient_Swatch_5-46" x1="274.23" y1="49.86" x2="276.86" y2="49.86" xlink:href="#New_Gradient_Swatch_5"/><linearGradient id="New_Gradient_Swatch_5-47" x1="278.18" y1="49.86" x2="280.81" y2="49.86" xlink:href="#New_Gradient_Swatch_5"/><linearGradient id="New_Gradient_Swatch_5-48" x1="282.12" y1="49.86" x2="284.76" y2="49.86" xlink:href="#New_Gradient_Swatch_5"/><linearGradient id="New_Gradient_Swatch_5-49" x1="286.07" y1="49.86" x2="288.7" y2="49.86" xlink:href="#New_Gradient_Swatch_5"/><linearGradient id="New_Gradient_Swatch_5-50" x1="290.02" y1="49.86" x2="292.65" y2="49.86" xlink:href="#New_Gradient_Swatch_5"/><linearGradient id="New_Gradient_Swatch_5-51" x1="293.97" y1="49.86" x2="296.6" y2="49.86" xlink:href="#New_Gradient_Swatch_5"/><linearGradient id="New_Gradient_Swatch_5-52" x1="297.92" y1="49.86" x2="300.55" y2="49.86" xlink:href="#New_Gradient_Swatch_5"/><linearGradient id="New_Gradient_Swatch_5-53" x1="301.87" y1="49.86" x2="304.5" y2="49.86" xlink:href="#New_Gradient_Swatch_5"/><linearGradient id="New_Gradient_Swatch_5-54" x1="305.82" y1="49.86" x2="308.45" y2="49.86" xlink:href="#New_Gradient_Swatch_5"/><linearGradient id="New_Gradient_Swatch_5-55" x1="309.77" y1="49.86" x2="312.4" y2="49.86" xlink:href="#New_Gradient_Swatch_5"/><linearGradient id="New_Gradient_Swatch_5-56" x1="313.72" y1="49.86" x2="316.35" y2="49.86" xlink:href="#New_Gradient_Swatch_5"/><linearGradient id="New_Gradient_Swatch_5-57" x1="317.67" y1="49.86" x2="320.3" y2="49.86" xlink:href="#New_Gradient_Swatch_5"/><linearGradient id="New_Gradient_Swatch_5-58" x1="321.62" y1="49.86" x2="324.25" y2="49.86" xlink:href="#New_Gradient_Swatch_5"/><linearGradient id="New_Gradient_Swatch_5-59" x1="325.56" y1="49.86" x2="328.2" y2="49.86" xlink:href="#New_Gradient_Swatch_5"/><linearGradient id="New_Gradient_Swatch_5-60" x1="329.51" y1="49.86" x2="332.14" y2="49.86" xlink:href="#New_Gradient_Swatch_5"/><linearGradient id="New_Gradient_Swatch_5-61" x1="333.46" y1="49.86" x2="336.09" y2="49.86" xlink:href="#New_Gradient_Swatch_5"/><linearGradient id="New_Gradient_Swatch_5-62" x1="337.41" y1="49.86" x2="340.04" y2="49.86" xlink:href="#New_Gradient_Swatch_5"/><linearGradient id="New_Gradient_Swatch_5-63" x1="341.36" y1="49.86" x2="343.99" y2="49.86" xlink:href="#New_Gradient_Swatch_5"/><linearGradient id="New_Gradient_Swatch_5-64" x1="345.31" y1="49.86" x2="347.94" y2="49.86" xlink:href="#New_Gradient_Swatch_5"/><linearGradient id="New_Gradient_Swatch_5-65" x1="349.26" y1="49.86" x2="351.89" y2="49.86" xlink:href="#New_Gradient_Swatch_5"/><linearGradient id="New_Gradient_Swatch_5-66" x1="353.21" y1="49.86" x2="355.84" y2="49.86" xlink:href="#New_Gradient_Swatch_5"/><linearGradient id="New_Gradient_Swatch_5-67" x1="357.16" y1="49.86" x2="359.79" y2="49.86" xlink:href="#New_Gradient_Swatch_5"/><linearGradient id="New_Gradient_Swatch_5-68" x1="361.11" y1="49.86" x2="363.74" y2="49.86" xlink:href="#New_Gradient_Swatch_5"/><linearGradient id="New_Gradient_Swatch_5-69" x1="365.06" y1="49.86" x2="367.69" y2="49.86" xlink:href="#New_Gradient_Swatch_5"/><linearGradient id="New_Gradient_Swatch_5-70" x1="369.01" y1="49.86" x2="371.64" y2="49.86" xlink:href="#New_Gradient_Swatch_5"/><linearGradient id="New_Gradient_Swatch_5-71" x1="372.95" y1="49.86" x2="375.58" y2="49.86" xlink:href="#New_Gradient_Swatch_5"/><linearGradient id="New_Gradient_Swatch_5-72" x1="376.9" y1="49.86" x2="379.53" y2="49.86" xlink:href="#New_Gradient_Swatch_5"/><linearGradient id="New_Gradient_Swatch_5-73" x1="380.85" y1="49.86" x2="383.48" y2="49.86" xlink:href="#New_Gradient_Swatch_5"/><linearGradient id="New_Gradient_Swatch_5-74" x1="384.8" y1="49.86" x2="387.43" y2="49.86" xlink:href="#New_Gradient_Swatch_5"/><linearGradient id="New_Gradient_Swatch_5-75" x1="388.75" y1="49.86" x2="391.38" y2="49.86" xlink:href="#New_Gradient_Swatch_5"/><linearGradient id="New_Gradient_Swatch_5-76" x1="392.7" y1="49.86" x2="395.33" y2="49.86" xlink:href="#New_Gradient_Swatch_5"/><linearGradient id="New_Gradient_Swatch_5-77" x1="396.65" y1="49.86" x2="399.28" y2="49.86" xlink:href="#New_Gradient_Swatch_5"/><linearGradient id="New_Gradient_Swatch_5-78" x1="400.6" y1="49.86" x2="403.23" y2="49.86" xlink:href="#New_Gradient_Swatch_5"/><linearGradient id="New_Gradient_Swatch_5-79" x1="404.55" y1="49.86" x2="407.18" y2="49.86" xlink:href="#New_Gradient_Swatch_5"/><linearGradient id="New_Gradient_Swatch_5-80" x1="408.5" y1="49.86" x2="411.13" y2="49.86" xlink:href="#New_Gradient_Swatch_5"/><linearGradient id="New_Gradient_Swatch_5-81" x1="412.45" y1="49.86" x2="415.08" y2="49.86" xlink:href="#New_Gradient_Swatch_5"/><linearGradient id="New_Gradient_Swatch_5-82" x1="416.39" y1="49.86" x2="419.03" y2="49.86" xlink:href="#New_Gradient_Swatch_5"/><linearGradient id="New_Gradient_Swatch_5-83" x1="420.34" y1="49.86" x2="422.97" y2="49.86" xlink:href="#New_Gradient_Swatch_5"/><linearGradient id="New_Gradient_Swatch_5-84" x1="424.29" y1="49.86" x2="426.92" y2="49.86" xlink:href="#New_Gradient_Swatch_5"/><linearGradient id="New_Gradient_Swatch_5-85" x1="428.24" y1="49.86" x2="430.87" y2="49.86" xlink:href="#New_Gradient_Swatch_5"/><linearGradient id="New_Gradient_Swatch_5-86" x1="432.19" y1="49.86" x2="434.82" y2="49.86" xlink:href="#New_Gradient_Swatch_5"/><linearGradient id="New_Gradient_Swatch_5-87" x1="436.14" y1="49.86" x2="438.77" y2="49.86" xlink:href="#New_Gradient_Swatch_5"/><linearGradient id="New_Gradient_Swatch_5-88" x1="440.09" y1="49.86" x2="442.72" y2="49.86" xlink:href="#New_Gradient_Swatch_5"/><linearGradient id="New_Gradient_Swatch_5-89" x1="444.04" y1="49.86" x2="446.67" y2="49.86" xlink:href="#New_Gradient_Swatch_5"/><linearGradient id="New_Gradient_Swatch_5-90" x1="447.99" y1="49.86" x2="450.62" y2="49.86" xlink:href="#New_Gradient_Swatch_5"/><linearGradient id="New_Gradient_Swatch_5-91" x1="451.94" y1="49.86" x2="454.57" y2="49.86" xlink:href="#New_Gradient_Swatch_5"/><linearGradient id="New_Gradient_Swatch_5-92" x1="455.89" y1="49.86" x2="458.52" y2="49.86" xlink:href="#New_Gradient_Swatch_5"/><linearGradient id="New_Gradient_Swatch_5-93" x1="459.83" y1="49.86" x2="462.47" y2="49.86" xlink:href="#New_Gradient_Swatch_5"/><linearGradient id="New_Gradient_Swatch_5-94" x1="463.78" y1="49.86" x2="466.41" y2="49.86" xlink:href="#New_Gradient_Swatch_5"/><linearGradient id="New_Gradient_Swatch_5-95" x1="467.73" y1="49.86" x2="470.36" y2="49.86" xlink:href="#New_Gradient_Swatch_5"/><linearGradient id="New_Gradient_Swatch_5-96" x1="471.68" y1="49.86" x2="474.31" y2="49.86" xlink:href="#New_Gradient_Swatch_5"/><linearGradient id="New_Gradient_Swatch_5-97" x1="175.31" y1="132.23" x2="388.2" y2="132.23" xlink:href="#New_Gradient_Swatch_5"/><linearGradient id="New_Gradient_Swatch_5-98" x1="333.14" y1="30.21" x2="484.75" y2="30.21" xlink:href="#New_Gradient_Swatch_5"/><radialGradient id="New_Gradient_Swatch_6" cx="80.78" cy="70.19" r="56.82" gradientTransform="matrix(1, 0, 0, -1, -1.72, 149.26)" gradientUnits="userSpaceOnUse"><stop offset="0" stop-color="#11e5b3"/><stop offset="0.28" stop-color="#12e2b4"/><stop offset="0.44" stop-color="#17dab9"/><stop offset="0.59" stop-color="#1ecbc2"/><stop offset="0.71" stop-color="#28b7ce"/><stop offset="0.83" stop-color="#359cdd"/><stop offset="0.93" stop-color="#457cef"/><stop offset="1" stop-color="#5263fe"/></radialGradient><radialGradient id="New_Gradient_Swatch_6-2" cx="178.41" cy="109.82" r="15.46" xlink:href="#New_Gradient_Swatch_6"/></defs><title>loading_10_green_blue</title><g id="Layer_2" data-name="Layer 2"><g id="Layer_1-2" data-name="Layer 1"><path class="cls-3" d="M490.88,118.91H159.15a1.16,1.16,0,0,1,0-2.31H489.73V42.29H214.9a1.15,1.15,0,0,1-1.07-.73l-9.26-23.43H142.19a1.16,1.16,0,1,1,0-2.31h63.16a1.15,1.15,0,0,1,1.07.73L215.69,40H490.88A1.15,1.15,0,0,1,492,41.14v76.61A1.16,1.16,0,0,1,490.88,118.91Z"/><path class="cls-4" d="M198.62,20.05H147.74a3.09,3.09,0,0,1,0-6.17h50.88a3.09,3.09,0,1,1,0,6.17Z"/><path class="cls-5" d="M474.31,120.84H423.43a3.09,3.09,0,0,1,0-6.17h50.88a3.09,3.09,0,1,1,0,6.17Z"/><path class="cls-6" d="M467.94,106.43H170.47a1.64,1.64,0,1,1,0-3.27H467.94a1.64,1.64,0,0,1,0,3.27Z"/><path class="cls-7" d="M408.28,113H170.47a1.64,1.64,0,1,1,0-3.27H408.28a1.64,1.64,0,1,1,0,3.27Z"/><circle class="cls-8" cx="208.41" cy="79" r="14.37"/><circle class="cls-9" cx="241.99" cy="79" r="14.37"/><circle class="cls-10" cx="275.57" cy="79" r="14.37"/><circle class="cls-11" cx="309.15" cy="79" r="14.37"/><circle class="cls-12" cx="342.73" cy="79" r="14.37"/><circle class="cls-13" cx="376.3" cy="79" r="14.37"/><circle class="cls-14" cx="409.88" cy="79" r="14.37"/><circle class="cls-15" cx="443.46" cy="79" r="14.37"/><path class="cls-16" d="M228.87,31.54a6.17,6.17,0,1,1-6.16-6.17A6.16,6.16,0,0,1,228.87,31.54Z"/><path class="cls-17" d="M243.28,31.54a6.17,6.17,0,1,1-6.16-6.17A6.16,6.16,0,0,1,243.28,31.54Z"/><path class="cls-18" d="M257.69,31.54a6.17,6.17,0,1,1-6.16-6.17A6.16,6.16,0,0,1,257.69,31.54Z"/><path class="cls-19" d="M272.1,31.54a6.17,6.17,0,1,1-6.16-6.17A6.16,6.16,0,0,1,272.1,31.54Z"/><path class="cls-20" d="M286.52,31.54a6.17,6.17,0,1,1-6.17-6.17A6.17,6.17,0,0,1,286.52,31.54Z"/><path class="cls-21" d="M300.93,31.54a6.17,6.17,0,1,1-6.17-6.17A6.16,6.16,0,0,1,300.93,31.54Z"/><path class="cls-22" d="M315.34,31.54a6.17,6.17,0,1,1-6.17-6.17A6.16,6.16,0,0,1,315.34,31.54Z"/><path class="cls-23" d="M329.75,31.54a6.17,6.17,0,1,1-6.17-6.17A6.16,6.16,0,0,1,329.75,31.54Z"/><g class="cls-24"><rect class="cls-25" x="170.47" y="58.74" width="310.94" height="40.53" rx="6.08"/></g><path class="cls-26" d="M463.82,100.72H188.05a19.06,19.06,0,0,1-19-19V76.32a19.06,19.06,0,0,1,19-19H463.82a19.06,19.06,0,0,1,19,19v5.36A19.06,19.06,0,0,1,463.82,100.72ZM188.05,60.19a16.15,16.15,0,0,0-16.13,16.13v5.36a16.15,16.15,0,0,0,16.13,16.13H463.82A16.15,16.15,0,0,0,480,81.68V76.32a16.15,16.15,0,0,0-16.13-16.13Z"/><path class="cls-27" d="M79,158a79,79,0,1,1,79-79A79.09,79.09,0,0,1,79,158ZM79,16.78A62.22,62.22,0,1,0,141.22,79,62.29,62.29,0,0,0,79,16.78Z"/><polygon class="cls-28" points="388.67 129.52 175.49 129.52 168.77 116.65 395.39 116.65 388.67 129.52"/><polygon class="cls-29" points="484.58 33.15 333.13 33.15 328.36 42.13 489.35 42.13 484.58 33.15"/><path class="cls-30" d="M200.51,56.27A1.32,1.32,0,0,1,199.19,55V44.77a1.32,1.32,0,1,1,2.63,0V55A1.32,1.32,0,0,1,200.51,56.27Z"/><path class="cls-31" d="M204.46,56.27A1.32,1.32,0,0,1,203.14,55V44.77a1.32,1.32,0,1,1,2.63,0V55A1.32,1.32,0,0,1,204.46,56.27Z"/><path class="cls-32" d="M208.41,56.27A1.32,1.32,0,0,1,207.09,55V44.77a1.32,1.32,0,1,1,2.63,0V55A1.32,1.32,0,0,1,208.41,56.27Z"/><path class="cls-33" d="M212.36,56.27A1.32,1.32,0,0,1,211,55V44.77a1.32,1.32,0,1,1,2.63,0V55A1.32,1.32,0,0,1,212.36,56.27Z"/><path class="cls-34" d="M216.31,56.27A1.32,1.32,0,0,1,215,55V44.77a1.32,1.32,0,1,1,2.63,0V55A1.32,1.32,0,0,1,216.31,56.27Z"/><path class="cls-35" d="M220.25,56.27A1.32,1.32,0,0,1,218.94,55V44.77a1.32,1.32,0,1,1,2.63,0V55A1.32,1.32,0,0,1,220.25,56.27Z"/><path class="cls-36" d="M224.2,56.27A1.32,1.32,0,0,1,222.89,55V44.77a1.32,1.32,0,1,1,2.63,0V55A1.32,1.32,0,0,1,224.2,56.27Z"/><path class="cls-37" d="M228.15,56.27A1.32,1.32,0,0,1,226.84,55V44.77a1.32,1.32,0,1,1,2.63,0V55A1.32,1.32,0,0,1,228.15,56.27Z"/><path class="cls-38" d="M232.1,56.27A1.31,1.31,0,0,1,230.79,55V44.77a1.32,1.32,0,1,1,2.63,0V55A1.32,1.32,0,0,1,232.1,56.27Z"/><path class="cls-39" d="M236.05,56.27A1.31,1.31,0,0,1,234.74,55V44.77a1.32,1.32,0,1,1,2.63,0V55A1.32,1.32,0,0,1,236.05,56.27Z"/><path class="cls-40" d="M240,56.27A1.32,1.32,0,0,1,238.68,55V44.77a1.32,1.32,0,1,1,2.63,0V55A1.31,1.31,0,0,1,240,56.27Z"/><path class="cls-41" d="M244,56.27A1.32,1.32,0,0,1,242.63,55V44.77a1.32,1.32,0,1,1,2.63,0V55A1.31,1.31,0,0,1,244,56.27Z"/><path class="cls-42" d="M247.9,56.27A1.32,1.32,0,0,1,246.58,55V44.77a1.32,1.32,0,1,1,2.63,0V55A1.32,1.32,0,0,1,247.9,56.27Z"/><path class="cls-43" d="M251.85,56.27A1.32,1.32,0,0,1,250.53,55V44.77a1.32,1.32,0,1,1,2.63,0V55A1.32,1.32,0,0,1,251.85,56.27Z"/><path class="cls-44" d="M255.8,56.27A1.32,1.32,0,0,1,254.48,55V44.77a1.32,1.32,0,1,1,2.63,0V55A1.32,1.32,0,0,1,255.8,56.27Z"/><path class="cls-45" d="M259.75,56.27A1.32,1.32,0,0,1,258.43,55V44.77a1.32,1.32,0,1,1,2.63,0V55A1.32,1.32,0,0,1,259.75,56.27Z"/><path class="cls-46" d="M263.69,56.27A1.32,1.32,0,0,1,262.38,55V44.77a1.32,1.32,0,1,1,2.63,0V55A1.32,1.32,0,0,1,263.69,56.27Z"/><path class="cls-47" d="M267.64,56.27A1.32,1.32,0,0,1,266.33,55V44.77a1.32,1.32,0,1,1,2.63,0V55A1.32,1.32,0,0,1,267.64,56.27Z"/><path class="cls-48" d="M271.59,56.27A1.32,1.32,0,0,1,270.28,55V44.77a1.32,1.32,0,1,1,2.63,0V55A1.32,1.32,0,0,1,271.59,56.27Z"/><path class="cls-49" d="M275.54,56.27A1.32,1.32,0,0,1,274.23,55V44.77a1.32,1.32,0,1,1,2.63,0V55A1.32,1.32,0,0,1,275.54,56.27Z"/><path class="cls-50" d="M279.49,56.27A1.31,1.31,0,0,1,278.18,55V44.77a1.32,1.32,0,1,1,2.63,0V55A1.32,1.32,0,0,1,279.49,56.27Z"/><path class="cls-51" d="M283.44,56.27A1.32,1.32,0,0,1,282.12,55V44.77a1.32,1.32,0,0,1,2.64,0V55A1.32,1.32,0,0,1,283.44,56.27Z"/><path class="cls-52" d="M287.39,56.27A1.32,1.32,0,0,1,286.07,55V44.77a1.32,1.32,0,1,1,2.63,0V55A1.31,1.31,0,0,1,287.39,56.27Z"/><path class="cls-53" d="M291.34,56.27A1.32,1.32,0,0,1,290,55V44.77a1.32,1.32,0,1,1,2.63,0V55A1.32,1.32,0,0,1,291.34,56.27Z"/><path class="cls-54" d="M295.29,56.27A1.32,1.32,0,0,1,294,55V44.77a1.32,1.32,0,1,1,2.63,0V55A1.32,1.32,0,0,1,295.29,56.27Z"/><path class="cls-55" d="M299.24,56.27A1.32,1.32,0,0,1,297.92,55V44.77a1.32,1.32,0,1,1,2.63,0V55A1.32,1.32,0,0,1,299.24,56.27Z"/><path class="cls-56" d="M303.19,56.27A1.32,1.32,0,0,1,301.87,55V44.77a1.32,1.32,0,1,1,2.63,0V55A1.32,1.32,0,0,1,303.19,56.27Z"/><path class="cls-57" d="M307.13,56.27A1.32,1.32,0,0,1,305.82,55V44.77a1.32,1.32,0,1,1,2.63,0V55A1.32,1.32,0,0,1,307.13,56.27Z"/><path class="cls-58" d="M311.08,56.27A1.32,1.32,0,0,1,309.77,55V44.77a1.32,1.32,0,1,1,2.63,0V55A1.32,1.32,0,0,1,311.08,56.27Z"/><path class="cls-59" d="M315,56.27A1.32,1.32,0,0,1,313.72,55V44.77a1.32,1.32,0,1,1,2.63,0V55A1.32,1.32,0,0,1,315,56.27Z"/><path class="cls-60" d="M319,56.27A1.32,1.32,0,0,1,317.67,55V44.77a1.32,1.32,0,1,1,2.63,0V55A1.32,1.32,0,0,1,319,56.27Z"/><path class="cls-61" d="M322.93,56.27A1.31,1.31,0,0,1,321.62,55V44.77a1.32,1.32,0,1,1,2.63,0V55A1.32,1.32,0,0,1,322.93,56.27Z"/><path class="cls-62" d="M326.88,56.27A1.32,1.32,0,0,1,325.56,55V44.77a1.32,1.32,0,1,1,2.64,0V55A1.32,1.32,0,0,1,326.88,56.27Z"/><path class="cls-63" d="M330.83,56.27A1.32,1.32,0,0,1,329.51,55V44.77a1.32,1.32,0,1,1,2.63,0V55A1.31,1.31,0,0,1,330.83,56.27Z"/><path class="cls-64" d="M334.78,56.27A1.32,1.32,0,0,1,333.46,55V44.77a1.32,1.32,0,1,1,2.63,0V55A1.32,1.32,0,0,1,334.78,56.27Z"/><path class="cls-65" d="M338.73,56.27A1.32,1.32,0,0,1,337.41,55V44.77a1.32,1.32,0,1,1,2.63,0V55A1.32,1.32,0,0,1,338.73,56.27Z"/><path class="cls-66" d="M342.68,56.27A1.32,1.32,0,0,1,341.36,55V44.77a1.32,1.32,0,1,1,2.63,0V55A1.32,1.32,0,0,1,342.68,56.27Z"/><path class="cls-67" d="M346.63,56.27A1.32,1.32,0,0,1,345.31,55V44.77a1.32,1.32,0,1,1,2.63,0V55A1.32,1.32,0,0,1,346.63,56.27Z"/><path class="cls-68" d="M350.57,56.27A1.32,1.32,0,0,1,349.26,55V44.77a1.32,1.32,0,1,1,2.63,0V55A1.32,1.32,0,0,1,350.57,56.27Z"/><path class="cls-69" d="M354.52,56.27A1.32,1.32,0,0,1,353.21,55V44.77a1.32,1.32,0,1,1,2.63,0V55A1.32,1.32,0,0,1,354.52,56.27Z"/><path class="cls-70" d="M358.47,56.27A1.32,1.32,0,0,1,357.16,55V44.77a1.32,1.32,0,1,1,2.63,0V55A1.32,1.32,0,0,1,358.47,56.27Z"/><path class="cls-71" d="M362.42,56.27A1.32,1.32,0,0,1,361.11,55V44.77a1.32,1.32,0,1,1,2.63,0V55A1.32,1.32,0,0,1,362.42,56.27Z"/><path class="cls-72" d="M366.37,56.27A1.31,1.31,0,0,1,365.06,55V44.77a1.32,1.32,0,1,1,2.63,0V55A1.32,1.32,0,0,1,366.37,56.27Z"/><path class="cls-73" d="M370.32,56.27A1.31,1.31,0,0,1,369,55V44.77a1.32,1.32,0,1,1,2.63,0V55A1.32,1.32,0,0,1,370.32,56.27Z"/><path class="cls-74" d="M374.27,56.27A1.32,1.32,0,0,1,373,55V44.77a1.32,1.32,0,1,1,2.63,0V55A1.31,1.31,0,0,1,374.27,56.27Z"/><path class="cls-75" d="M378.22,56.27A1.32,1.32,0,0,1,376.9,55V44.77a1.32,1.32,0,1,1,2.63,0V55A1.32,1.32,0,0,1,378.22,56.27Z"/><path class="cls-76" d="M382.17,56.27A1.32,1.32,0,0,1,380.85,55V44.77a1.32,1.32,0,1,1,2.63,0V55A1.32,1.32,0,0,1,382.17,56.27Z"/><path class="cls-77" d="M386.12,56.27A1.32,1.32,0,0,1,384.8,55V44.77a1.32,1.32,0,1,1,2.63,0V55A1.32,1.32,0,0,1,386.12,56.27Z"/><path class="cls-78" d="M390.07,56.27A1.32,1.32,0,0,1,388.75,55V44.77a1.32,1.32,0,1,1,2.63,0V55A1.32,1.32,0,0,1,390.07,56.27Z"/><path class="cls-79" d="M394,56.27A1.32,1.32,0,0,1,392.7,55V44.77a1.32,1.32,0,1,1,2.63,0V55A1.32,1.32,0,0,1,394,56.27Z"/><path class="cls-80" d="M398,56.27A1.32,1.32,0,0,1,396.65,55V44.77a1.32,1.32,0,1,1,2.63,0V55A1.32,1.32,0,0,1,398,56.27Z"/><path class="cls-81" d="M401.91,56.27A1.32,1.32,0,0,1,400.6,55V44.77a1.32,1.32,0,1,1,2.63,0V55A1.32,1.32,0,0,1,401.91,56.27Z"/><path class="cls-82" d="M405.86,56.27A1.32,1.32,0,0,1,404.55,55V44.77a1.32,1.32,0,1,1,2.63,0V55A1.32,1.32,0,0,1,405.86,56.27Z"/><path class="cls-83" d="M409.81,56.27A1.32,1.32,0,0,1,408.5,55V44.77a1.32,1.32,0,1,1,2.63,0V55A1.32,1.32,0,0,1,409.81,56.27Z"/><path class="cls-84" d="M413.76,56.27A1.31,1.31,0,0,1,412.45,55V44.77a1.32,1.32,0,1,1,2.63,0V55A1.32,1.32,0,0,1,413.76,56.27Z"/><path class="cls-85" d="M417.71,56.27A1.32,1.32,0,0,1,416.39,55V44.77a1.32,1.32,0,0,1,2.64,0V55A1.32,1.32,0,0,1,417.71,56.27Z"/><path class="cls-86" d="M421.66,56.27A1.32,1.32,0,0,1,420.34,55V44.77a1.32,1.32,0,1,1,2.63,0V55A1.31,1.31,0,0,1,421.66,56.27Z"/><path class="cls-87" d="M425.61,56.27A1.32,1.32,0,0,1,424.29,55V44.77a1.32,1.32,0,1,1,2.63,0V55A1.32,1.32,0,0,1,425.61,56.27Z"/><path class="cls-88" d="M429.56,56.27A1.32,1.32,0,0,1,428.24,55V44.77a1.32,1.32,0,1,1,2.63,0V55A1.32,1.32,0,0,1,429.56,56.27Z"/><path class="cls-89" d="M433.51,56.27A1.32,1.32,0,0,1,432.19,55V44.77a1.32,1.32,0,1,1,2.63,0V55A1.32,1.32,0,0,1,433.51,56.27Z"/><path class="cls-90" d="M437.46,56.27A1.32,1.32,0,0,1,436.14,55V44.77a1.32,1.32,0,1,1,2.63,0V55A1.32,1.32,0,0,1,437.46,56.27Z"/><path class="cls-91" d="M441.4,56.27A1.32,1.32,0,0,1,440.09,55V44.77a1.32,1.32,0,1,1,2.63,0V55A1.32,1.32,0,0,1,441.4,56.27Z"/><path class="cls-92" d="M445.35,56.27A1.32,1.32,0,0,1,444,55V44.77a1.32,1.32,0,1,1,2.63,0V55A1.32,1.32,0,0,1,445.35,56.27Z"/><path class="cls-93" d="M449.3,56.27A1.32,1.32,0,0,1,448,55V44.77a1.32,1.32,0,1,1,2.63,0V55A1.32,1.32,0,0,1,449.3,56.27Z"/><path class="cls-94" d="M453.25,56.27A1.32,1.32,0,0,1,451.94,55V44.77a1.32,1.32,0,1,1,2.63,0V55A1.32,1.32,0,0,1,453.25,56.27Z"/><path class="cls-95" d="M457.2,56.27A1.31,1.31,0,0,1,455.89,55V44.77a1.32,1.32,0,1,1,2.63,0V55A1.32,1.32,0,0,1,457.2,56.27Z"/><path class="cls-96" d="M461.15,56.27A1.32,1.32,0,0,1,459.83,55V44.77a1.32,1.32,0,1,1,2.64,0V55A1.32,1.32,0,0,1,461.15,56.27Z"/><path class="cls-97" d="M465.1,56.27A1.32,1.32,0,0,1,463.78,55V44.77a1.32,1.32,0,1,1,2.63,0V55A1.31,1.31,0,0,1,465.1,56.27Z"/><path class="cls-98" d="M469.05,56.27A1.32,1.32,0,0,1,467.73,55V44.77a1.32,1.32,0,1,1,2.63,0V55A1.32,1.32,0,0,1,469.05,56.27Z"/><path class="cls-99" d="M473,56.27A1.32,1.32,0,0,1,471.68,55V44.77a1.32,1.32,0,1,1,2.63,0V55A1.32,1.32,0,0,1,473,56.27Z"/><path class="cls-100" d="M388,132.47H175.56a.25.25,0,1,1,0-.49H388a.24.24,0,0,1,.24.25A.24.24,0,0,1,388,132.47Z"/><path class="cls-101" d="M484.51,30.45H333.38a.24.24,0,0,1-.24-.24.24.24,0,0,1,.24-.24H484.51a.24.24,0,0,1,.24.24A.24.24,0,0,1,484.51,30.45Z"/><circle class="cls-102" cx="79" cy="79" r="56.82"/><circle class="cls-103" cx="176.59" cy="39.28" r="15.46"/></g></g></svg>