<svg xmlns="http://www.w3.org/2000/svg" xmlns:xlink="http://www.w3.org/1999/xlink" viewBox="0 0 490.32 146.33"><defs><style>.cls-1{fill:url(#New_Gradient_Swatch_5);}.cls-2{fill:url(#New_Gradient_Swatch_5-2);}.cls-3{fill:url(#New_Gradient_Swatch_5-3);}.cls-4{fill:url(#New_Gradient_Swatch_5-4);}.cls-5{fill:url(#New_Gradient_Swatch_5-5);}.cls-6{fill:url(#New_Gradient_Swatch_5-6);}.cls-7{fill:url(#New_Gradient_Swatch_5-7);}.cls-8{fill:url(#New_Gradient_Swatch_5-8);}.cls-9{fill:url(#New_Gradient_Swatch_5-9);}.cls-10{fill:url(#New_Gradient_Swatch_5-10);}.cls-11{fill:url(#New_Gradient_Swatch_5-11);}.cls-12{fill:url(#New_Gradient_Swatch_5-12);}.cls-13{fill:url(#New_Gradient_Swatch_5-13);}.cls-14{fill:url(#New_Gradient_Swatch_5-14);}.cls-15{fill:url(#New_Gradient_Swatch_5-15);}.cls-16{fill:url(#New_Gradient_Swatch_5-16);}.cls-17{fill:url(#New_Gradient_Swatch_5-17);}.cls-18{fill:url(#New_Gradient_Swatch_5-18);}.cls-19{fill:url(#New_Gradient_Swatch_5-19);}.cls-20{fill:url(#New_Gradient_Swatch_5-20);}.cls-21{fill:url(#New_Gradient_Swatch_5-21);}.cls-22{fill:url(#New_Gradient_Swatch_5-22);}.cls-23{fill:url(#New_Gradient_Swatch_5-23);}.cls-24{fill:url(#New_Gradient_Swatch_5-24);}.cls-25{fill:url(#New_Gradient_Swatch_5-25);}.cls-26{fill:url(#New_Gradient_Swatch_5-26);}.cls-27{fill:url(#New_Gradient_Swatch_5-27);}.cls-28{fill:url(#New_Gradient_Swatch_5-28);}.cls-29{fill:url(#New_Gradient_Swatch_5-29);}.cls-30{fill:url(#New_Gradient_Swatch_5-30);}.cls-31{fill:url(#New_Gradient_Swatch_5-31);}.cls-32{fill:url(#New_Gradient_Swatch_5-32);}.cls-33{fill:url(#New_Gradient_Swatch_5-33);}.cls-34{fill:url(#New_Gradient_Swatch_5-34);}.cls-35{fill:url(#New_Gradient_Swatch_5-35);}.cls-36{fill:url(#New_Gradient_Swatch_5-36);}.cls-37{fill:url(#New_Gradient_Swatch_5-37);}.cls-38{fill:url(#New_Gradient_Swatch_5-38);}.cls-39{fill:url(#New_Gradient_Swatch_5-39);}.cls-40{fill:url(#New_Gradient_Swatch_5-40);}.cls-41{fill:url(#New_Gradient_Swatch_5-41);}.cls-42{fill:url(#New_Gradient_Swatch_5-42);}.cls-43{fill:url(#New_Gradient_Swatch_5-43);}.cls-44{fill:url(#New_Gradient_Swatch_5-44);}.cls-45{fill:url(#New_Gradient_Swatch_5-45);}.cls-46{fill:url(#New_Gradient_Swatch_5-46);}.cls-47{fill:url(#New_Gradient_Swatch_5-47);}.cls-48{fill:url(#New_Gradient_Swatch_5-48);}.cls-49{fill:url(#New_Gradient_Swatch_5-49);}.cls-50{fill:url(#New_Gradient_Swatch_5-50);}.cls-51{fill:url(#New_Gradient_Swatch_5-51);}.cls-52{fill:url(#New_Gradient_Swatch_5-52);}.cls-53{fill:url(#New_Gradient_Swatch_5-53);}.cls-54{fill:url(#New_Gradient_Swatch_5-54);}.cls-55{fill:url(#New_Gradient_Swatch_5-55);}.cls-56{fill:url(#New_Gradient_Swatch_5-56);}.cls-57{fill:url(#New_Gradient_Swatch_5-57);}.cls-58{fill:url(#New_Gradient_Swatch_5-58);}.cls-59{fill:url(#New_Gradient_Swatch_5-59);}.cls-60{fill:url(#New_Gradient_Swatch_5-60);}.cls-61{fill:url(#New_Gradient_Swatch_5-61);}.cls-62{fill:url(#New_Gradient_Swatch_5-62);}.cls-63{fill:url(#New_Gradient_Swatch_5-63);}.cls-64{fill:url(#New_Gradient_Swatch_5-64);}.cls-65{fill:url(#New_Gradient_Swatch_5-65);}.cls-66{fill:url(#New_Gradient_Swatch_6);}.cls-67{opacity:0.44;}.cls-68{fill:url(#New_Gradient_Swatch_5-66);}.cls-69{fill:url(#New_Gradient_Swatch_5-67);}.cls-70{fill:url(#New_Gradient_Swatch_5-68);}.cls-71{fill:url(#New_Gradient_Swatch_5-69);}.cls-72{fill:url(#New_Gradient_Swatch_5-70);}.cls-73{fill:url(#New_Gradient_Swatch_5-71);}</style><linearGradient id="New_Gradient_Swatch_5" x1="0.21" y1="67.33" x2="134.48" y2="67.33" gradientUnits="userSpaceOnUse"><stop offset="0" stop-color="#11e5b3"/><stop offset="0.14" stop-color="#15dcb8"/><stop offset="0.36" stop-color="#21c4c6"/><stop offset="0.64" stop-color="#359edc"/><stop offset="0.97" stop-color="#4f68fb"/><stop offset="1" stop-color="#5263fe"/></linearGradient><linearGradient id="New_Gradient_Swatch_5-2" x1="147.38" y1="67.25" x2="164.97" y2="67.25" xlink:href="#New_Gradient_Swatch_5"/><linearGradient id="New_Gradient_Swatch_5-3" x1="171.2" y1="67.23" x2="188.79" y2="67.23" xlink:href="#New_Gradient_Swatch_5"/><linearGradient id="New_Gradient_Swatch_5-4" x1="195.03" y1="67.62" x2="212.62" y2="67.62" xlink:href="#New_Gradient_Swatch_5"/><linearGradient id="New_Gradient_Swatch_5-5" x1="218.85" y1="67.6" x2="236.44" y2="67.6" xlink:href="#New_Gradient_Swatch_5"/><linearGradient id="New_Gradient_Swatch_5-6" x1="242.67" y1="67.58" x2="260.26" y2="67.58" xlink:href="#New_Gradient_Swatch_5"/><linearGradient id="New_Gradient_Swatch_5-7" x1="266.49" y1="67.56" x2="284.08" y2="67.56" xlink:href="#New_Gradient_Swatch_5"/><linearGradient id="New_Gradient_Swatch_5-8" x1="290.31" y1="67.14" x2="307.9" y2="67.14" xlink:href="#New_Gradient_Swatch_5"/><linearGradient id="New_Gradient_Swatch_5-9" x1="314.14" y1="67.12" x2="331.72" y2="67.12" xlink:href="#New_Gradient_Swatch_5"/><linearGradient id="New_Gradient_Swatch_5-10" x1="336.46" y1="67.1" x2="354.05" y2="67.1" xlink:href="#New_Gradient_Swatch_5"/><linearGradient id="New_Gradient_Swatch_5-11" x1="358.79" y1="67.08" x2="376.38" y2="67.08" xlink:href="#New_Gradient_Swatch_5"/><linearGradient id="New_Gradient_Swatch_5-12" x1="381.12" y1="67.06" x2="398.71" y2="67.06" xlink:href="#New_Gradient_Swatch_5"/><linearGradient id="New_Gradient_Swatch_5-13" x1="402.56" y1="67.04" x2="420.15" y2="67.04" xlink:href="#New_Gradient_Swatch_5"/><linearGradient id="New_Gradient_Swatch_5-14" x1="424.04" y1="67.02" x2="441.63" y2="67.02" xlink:href="#New_Gradient_Swatch_5"/><linearGradient id="New_Gradient_Swatch_5-15" x1="447.44" y1="67" x2="465.03" y2="67" xlink:href="#New_Gradient_Swatch_5"/><linearGradient id="New_Gradient_Swatch_5-16" x1="111.48" y1="61.01" x2="134.41" y2="61.01" xlink:href="#New_Gradient_Swatch_5"/><linearGradient id="New_Gradient_Swatch_5-17" x1="110.51" y1="54.24" x2="133.11" y2="54.24" xlink:href="#New_Gradient_Swatch_5"/><linearGradient id="New_Gradient_Swatch_5-18" x1="108.89" y1="47.68" x2="130.83" y2="47.68" xlink:href="#New_Gradient_Swatch_5"/><linearGradient id="New_Gradient_Swatch_5-19" x1="106.66" y1="41.44" x2="127.66" y2="41.44" xlink:href="#New_Gradient_Swatch_5"/><linearGradient id="New_Gradient_Swatch_5-20" x1="103.72" y1="35.59" x2="123.65" y2="35.59" xlink:href="#New_Gradient_Swatch_5"/><linearGradient id="New_Gradient_Swatch_5-21" x1="100.23" y1="30.2" x2="118.85" y2="30.2" xlink:href="#New_Gradient_Swatch_5"/><linearGradient id="New_Gradient_Swatch_5-22" x1="96.24" y1="25.38" x2="113.27" y2="25.38" xlink:href="#New_Gradient_Swatch_5"/><linearGradient id="New_Gradient_Swatch_5-23" x1="91.74" y1="21.2" x2="107.04" y2="21.2" xlink:href="#New_Gradient_Swatch_5"/><linearGradient id="New_Gradient_Swatch_5-24" x1="86.85" y1="17.69" x2="100.28" y2="17.69" xlink:href="#New_Gradient_Swatch_5"/><linearGradient id="New_Gradient_Swatch_5-25" x1="81.65" y1="14.94" x2="93.05" y2="14.94" xlink:href="#New_Gradient_Swatch_5"/><linearGradient id="New_Gradient_Swatch_5-26" x1="74.92" y1="12.61" x2="83.69" y2="12.61" xlink:href="#New_Gradient_Swatch_5"/><linearGradient id="New_Gradient_Swatch_5-27" x1="69.22" y1="11.64" x2="75.81" y2="11.64" xlink:href="#New_Gradient_Swatch_5"/><linearGradient id="New_Gradient_Swatch_5-28" x1="61.97" y1="11.51" x2="67.84" y2="11.51" xlink:href="#New_Gradient_Swatch_5"/><linearGradient id="New_Gradient_Swatch_5-29" x1="54.03" y1="12.17" x2="61.96" y2="12.17" xlink:href="#New_Gradient_Swatch_5"/><linearGradient id="New_Gradient_Swatch_5-30" x1="46.27" y1="13.62" x2="56.37" y2="13.62" xlink:href="#New_Gradient_Swatch_5"/><linearGradient id="New_Gradient_Swatch_5-31" x1="38.8" y1="15.91" x2="50.99" y2="15.91" xlink:href="#New_Gradient_Swatch_5"/><linearGradient id="New_Gradient_Swatch_5-32" x1="31.72" y1="18.96" x2="45.87" y2="18.96" xlink:href="#New_Gradient_Swatch_5"/><linearGradient id="New_Gradient_Swatch_5-33" x1="25.13" y1="22.75" x2="41.15" y2="22.75" xlink:href="#New_Gradient_Swatch_5"/><linearGradient id="New_Gradient_Swatch_5-34" x1="19.18" y1="27.2" x2="36.86" y2="27.2" xlink:href="#New_Gradient_Swatch_5"/><linearGradient id="New_Gradient_Swatch_5-35" x1="13.92" y1="32.24" x2="33.01" y2="32.24" xlink:href="#New_Gradient_Swatch_5"/><linearGradient id="New_Gradient_Swatch_5-36" x1="8.45" y1="39.11" x2="29.13" y2="39.11" xlink:href="#New_Gradient_Swatch_5"/><linearGradient id="New_Gradient_Swatch_5-37" x1="4.97" y1="45.23" x2="26.58" y2="45.23" xlink:href="#New_Gradient_Swatch_5"/><linearGradient id="New_Gradient_Swatch_5-38" x1="2.39" y1="51.67" x2="24.7" y2="51.67" xlink:href="#New_Gradient_Swatch_5"/><linearGradient id="New_Gradient_Swatch_5-39" x1="0.72" y1="58.36" x2="23.54" y2="58.36" xlink:href="#New_Gradient_Swatch_5"/><linearGradient id="New_Gradient_Swatch_5-40" x1="0" y1="65.33" x2="23.02" y2="65.33" xlink:href="#New_Gradient_Swatch_5"/><linearGradient id="New_Gradient_Swatch_5-41" x1="0.21" y1="72.88" x2="23.15" y2="72.88" xlink:href="#New_Gradient_Swatch_5"/><linearGradient id="New_Gradient_Swatch_5-42" x1="1.39" y1="79.66" x2="24.03" y2="79.66" xlink:href="#New_Gradient_Swatch_5"/><linearGradient id="New_Gradient_Swatch_5-43" x1="3.55" y1="86.25" x2="25.59" y2="86.25" xlink:href="#New_Gradient_Swatch_5"/><linearGradient id="New_Gradient_Swatch_5-44" x1="6.63" y1="92.55" x2="27.77" y2="92.55" xlink:href="#New_Gradient_Swatch_5"/><linearGradient id="New_Gradient_Swatch_5-45" x1="10.57" y1="98.43" x2="30.6" y2="98.43" xlink:href="#New_Gradient_Swatch_5"/><linearGradient id="New_Gradient_Swatch_5-46" x1="16.44" y1="105.02" x2="34.87" y2="105.02" xlink:href="#New_Gradient_Swatch_5"/><linearGradient id="New_Gradient_Swatch_5-47" x1="22.1" y1="109.77" x2="38.93" y2="109.77" xlink:href="#New_Gradient_Swatch_5"/><linearGradient id="New_Gradient_Swatch_5-48" x1="28.37" y1="113.88" x2="43.48" y2="113.88" xlink:href="#New_Gradient_Swatch_5"/><linearGradient id="New_Gradient_Swatch_5-49" x1="35.19" y1="117.31" x2="48.4" y2="117.31" xlink:href="#New_Gradient_Swatch_5"/><linearGradient id="New_Gradient_Swatch_5-50" x1="42.48" y1="119.97" x2="53.63" y2="119.97" xlink:href="#New_Gradient_Swatch_5"/><linearGradient id="New_Gradient_Swatch_5-51" x1="50.13" y1="121.88" x2="59.15" y2="121.88" xlink:href="#New_Gradient_Swatch_5"/><linearGradient id="New_Gradient_Swatch_5-52" x1="58" y1="122.97" x2="64.83" y2="122.97" xlink:href="#New_Gradient_Swatch_5"/><linearGradient id="New_Gradient_Swatch_5-53" x1="65.96" y1="123.19" x2="71.83" y2="123.19" xlink:href="#New_Gradient_Swatch_5"/><linearGradient id="New_Gradient_Swatch_5-54" x1="72.1" y1="122.6" x2="79.78" y2="122.6" xlink:href="#New_Gradient_Swatch_5"/><linearGradient id="New_Gradient_Swatch_5-55" x1="77.71" y1="121.22" x2="87.57" y2="121.22" xlink:href="#New_Gradient_Swatch_5"/><linearGradient id="New_Gradient_Swatch_5-56" x1="84.29" y1="118.45" x2="96.71" y2="118.45" xlink:href="#New_Gradient_Swatch_5"/><linearGradient id="New_Gradient_Swatch_5-57" x1="89.36" y1="115.3" x2="103.75" y2="115.3" xlink:href="#New_Gradient_Swatch_5"/><linearGradient id="New_Gradient_Swatch_5-58" x1="94.03" y1="111.45" x2="110.25" y2="111.45" xlink:href="#New_Gradient_Swatch_5"/><linearGradient id="New_Gradient_Swatch_5-59" x1="98.29" y1="106.92" x2="116.12" y2="106.92" xlink:href="#New_Gradient_Swatch_5"/><linearGradient id="New_Gradient_Swatch_5-60" x1="102.08" y1="101.83" x2="121.32" y2="101.83" xlink:href="#New_Gradient_Swatch_5"/><linearGradient id="New_Gradient_Swatch_5-61" x1="105.24" y1="96.21" x2="125.78" y2="96.21" xlink:href="#New_Gradient_Swatch_5"/><linearGradient id="New_Gradient_Swatch_5-62" x1="107.84" y1="90.13" x2="129.4" y2="90.13" xlink:href="#New_Gradient_Swatch_5"/><linearGradient id="New_Gradient_Swatch_5-63" x1="109.82" y1="83.71" x2="132.07" y2="83.71" xlink:href="#New_Gradient_Swatch_5"/><linearGradient id="New_Gradient_Swatch_5-64" x1="111.06" y1="77.05" x2="133.83" y2="77.05" xlink:href="#New_Gradient_Swatch_5"/><linearGradient id="New_Gradient_Swatch_5-65" x1="111.64" y1="70.21" x2="134.65" y2="70.21" xlink:href="#New_Gradient_Swatch_5"/><radialGradient id="New_Gradient_Swatch_6" cx="69.29" cy="66.45" r="46.64" gradientTransform="translate(65.26 -28.65) rotate(44.95)" gradientUnits="userSpaceOnUse"><stop offset="0" stop-color="#11e5b3"/><stop offset="0.28" stop-color="#12e2b4"/><stop offset="0.44" stop-color="#17dab9"/><stop offset="0.59" stop-color="#1ecbc2"/><stop offset="0.71" stop-color="#28b7ce"/><stop offset="0.83" stop-color="#359cdd"/><stop offset="0.93" stop-color="#457cef"/><stop offset="1" stop-color="#5263fe"/></radialGradient><linearGradient id="New_Gradient_Swatch_5-66" x1="148.76" y1="67.53" x2="490.32" y2="67.53" xlink:href="#New_Gradient_Swatch_5"/><linearGradient id="New_Gradient_Swatch_5-67" x1="148.96" y1="67.13" x2="481.01" y2="67.13" xlink:href="#New_Gradient_Swatch_5"/><linearGradient id="New_Gradient_Swatch_5-68" x1="66.41" y1="133.11" x2="476.51" y2="133.11" xlink:href="#New_Gradient_Swatch_5"/><linearGradient id="New_Gradient_Swatch_5-69" x1="66.42" y1="139.14" x2="476.52" y2="139.14" xlink:href="#New_Gradient_Swatch_5"/><linearGradient id="New_Gradient_Swatch_5-70" x1="66.42" y1="145.18" x2="476.52" y2="145.18" xlink:href="#New_Gradient_Swatch_5"/><linearGradient id="New_Gradient_Swatch_5-71" x1="66.3" y1="1.21" x2="476.4" y2="1.21" xlink:href="#New_Gradient_Swatch_5"/></defs><title>loading_07_green_blue</title><g id="Layer_2" data-name="Layer 2"><g id="Layer_1-2" data-name="Layer 1"><path class="cls-1" d="M67.4,134.46a67.13,67.13,0,1,1,67.08-67.19A67.21,67.21,0,0,1,67.4,134.46ZM67.29,2.55a64.78,64.78,0,1,0,64.83,64.72A64.84,64.84,0,0,0,67.29,2.55Z"/><path class="cls-2" d="M156.21,108.5h0a8.79,8.79,0,0,1-8.77-8.76l-.06-65A8.79,8.79,0,0,1,156.14,26h0a8.8,8.8,0,0,1,8.78,8.76L165,99.72A8.79,8.79,0,0,1,156.21,108.5Z"/><path class="cls-3" d="M180,108.48h0a8.79,8.79,0,0,1-8.77-8.76l-.06-65A8.79,8.79,0,0,1,180,26h0a8.79,8.79,0,0,1,8.78,8.76l0,65A8.78,8.78,0,0,1,180,108.48Z"/><path class="cls-4" d="M203.86,108.86h0a8.79,8.79,0,0,1-8.78-8.76L195,35.15a8.79,8.79,0,0,1,8.76-8.78h0a8.79,8.79,0,0,1,8.77,8.76l.06,65A8.79,8.79,0,0,1,203.86,108.86Z"/><path class="cls-5" d="M227.68,108.84h0a8.79,8.79,0,0,1-8.78-8.76l-.05-64.95a8.79,8.79,0,0,1,8.76-8.78h0a8.79,8.79,0,0,1,8.77,8.76l.06,65A8.79,8.79,0,0,1,227.68,108.84Z"/><path class="cls-6" d="M251.5,108.82h0a8.79,8.79,0,0,1-8.78-8.76l-.05-64.95a8.8,8.8,0,0,1,8.76-8.78h0a8.79,8.79,0,0,1,8.77,8.76l.06,65A8.79,8.79,0,0,1,251.5,108.82Z"/><path class="cls-7" d="M275.32,108.8h0a8.78,8.78,0,0,1-8.77-8.76l-.06-64.95a8.8,8.8,0,0,1,8.76-8.78h0A8.81,8.81,0,0,1,284,35.07l.05,65A8.79,8.79,0,0,1,275.32,108.8Z"/><path class="cls-8" d="M299.14,108.38h0a8.79,8.79,0,0,1-8.77-8.76l-.06-65a8.79,8.79,0,0,1,8.76-8.77h0a8.8,8.8,0,0,1,8.78,8.76l0,65A8.79,8.79,0,0,1,299.14,108.38Z"/><path class="cls-9" d="M323,108.36h0a8.79,8.79,0,0,1-8.77-8.76l-.05-65a8.78,8.78,0,0,1,8.76-8.77h0a8.79,8.79,0,0,1,8.77,8.76l.05,65A8.78,8.78,0,0,1,323,108.36Z"/><path class="cls-10" d="M345.29,108.34h0a8.79,8.79,0,0,1-8.77-8.76l-.06-64.95a8.8,8.8,0,0,1,8.76-8.78h0A8.8,8.8,0,0,1,354,34.61l.05,65A8.79,8.79,0,0,1,345.29,108.34Z"/><path class="cls-11" d="M367.62,108.32h0a8.78,8.78,0,0,1-8.77-8.76l-.06-64.95a8.81,8.81,0,0,1,8.76-8.78h0a8.81,8.81,0,0,1,8.78,8.76l.05,65A8.79,8.79,0,0,1,367.62,108.32Z"/><path class="cls-12" d="M390,108.31h0a8.79,8.79,0,0,1-8.77-8.76l-.06-65a8.81,8.81,0,0,1,8.76-8.78h0a8.81,8.81,0,0,1,8.78,8.76l0,65A8.81,8.81,0,0,1,390,108.31Z"/><path class="cls-13" d="M411.39,108.29h0a8.81,8.81,0,0,1-8.78-8.76l-.05-65a8.79,8.79,0,0,1,8.76-8.77h0a8.78,8.78,0,0,1,8.77,8.76l.06,65A8.8,8.8,0,0,1,411.39,108.29Z"/><path class="cls-14" d="M432.87,108.27h0a8.79,8.79,0,0,1-8.77-8.76l-.06-65a8.79,8.79,0,0,1,8.76-8.77h0a8.8,8.8,0,0,1,8.78,8.76l.05,65A8.79,8.79,0,0,1,432.87,108.27Z"/><path class="cls-15" d="M456.27,108.25h0a8.79,8.79,0,0,1-8.77-8.76l-.06-65a8.79,8.79,0,0,1,8.76-8.77h0A8.8,8.8,0,0,1,465,34.52l0,65A8.79,8.79,0,0,1,456.27,108.25Z"/><path class="cls-16" d="M134.4,60.21h0a2.78,2.78,0,0,1-2.25,3.19l-18.1,1.08a2.26,2.26,0,0,1-2.54-1.86h0a2.25,2.25,0,0,1,2.1-2.35l17.92-2.71C132.86,57.35,134.16,58.54,134.4,60.21Z"/><path class="cls-17" d="M133,52.05h0a2.65,2.65,0,0,1-1.78,3.43l-17.83,3.29a2.43,2.43,0,0,1-2.82-1.52,2.33,2.33,0,0,1,1.85-2.6l17.46-4.9C131.16,49.38,132.57,50.41,133,52.05Z"/><path class="cls-18" d="M130.6,44.11h0c.58,1.59,0,3.21-1.29,3.61L112,53.18A2.41,2.41,0,0,1,109,52h0a2.42,2.42,0,0,1,1.58-2.83l16.71-7C128.52,41.66,130,42.52,130.6,44.11Z"/><path class="cls-19" d="M127.29,36.51h0c.74,1.52.33,3.22-.9,3.77l-16.48,7.56a2.33,2.33,0,0,1-3.09-.79h0a2.42,2.42,0,0,1,1.17-3l15.72-9A2.65,2.65,0,0,1,127.29,36.51Z"/><path class="cls-20" d="M123.08,29.38h0a2.75,2.75,0,0,1-.46,3.87l-15.43,9.53a2.29,2.29,0,0,1-3.13-.43h0a2.27,2.27,0,0,1,.75-3.07l14.5-10.88C120.38,27.58,122.08,28,123.08,29.38Z"/><path class="cls-21" d="M118,22.87a3.14,3.14,0,0,1,.87,2.06,2.26,2.26,0,0,1-.81,1.79L103.9,38.06a2.68,2.68,0,0,1-1.7.6,2,2,0,0,1-1.52-.6h0a2.36,2.36,0,0,1,.41-3.18l13.07-12.57C115.12,21.37,116.84,21.62,118,22.87Z"/><path class="cls-22" d="M112.14,17h0c1.25,1.13,1.5,2.84.55,3.8L100,33.79a2.39,2.39,0,0,1-3.2.41h0a2.47,2.47,0,0,1,0-3.24L108.31,16.9C109.17,15.82,110.9,15.87,112.14,17Z"/><path class="cls-23" d="M105.66,11.86h0c1.36,1,1.79,2.7,1,3.77l-11,14.43a2.3,2.3,0,0,1-3.09.74h0a2.36,2.36,0,0,1-.39-3.16l9.63-15.35A2.7,2.7,0,0,1,105.66,11.86Z"/><path class="cls-24" d="M98.57,7.58h0a3,3,0,0,1,1.54,1.66,2.25,2.25,0,0,1-.11,1.95L90.87,26.86A2.67,2.67,0,0,1,89.49,28a2.21,2.21,0,0,1-1.6-.05h0a2.31,2.31,0,0,1-.77-3.08L94.79,8.47C95.35,7.25,97.05,6.84,98.57,7.58Z"/><path class="cls-25" d="M91,4.23h0c1.58.58,2.44,2.07,1.88,3.34L85.75,24.23a2.45,2.45,0,0,1-2.84,1.56h0a2.4,2.4,0,0,1-1.12-3L87.37,5.52C87.77,4.23,89.41,3.65,91,4.23Z"/><path class="cls-26" d="M81.28,1.35h0c1.64.41,2.69,1.82,2.34,3.12L79.09,22A2.13,2.13,0,1,1,75,21.15L77.87,3.26A2.75,2.75,0,0,1,81.28,1.35Z"/><path class="cls-27" d="M73.08.17a3,3,0,0,1,2.06.93,2.25,2.25,0,0,1,.65,1.84l-2.34,18a2.7,2.7,0,0,1-.81,1.62,2.24,2.24,0,0,1-1.5.57h0a2.28,2.28,0,0,1-1.91-2.54l.71-18.11C70,1.12,71.4.08,73.08.17Z"/><path class="cls-28" d="M64.82,0h0a2.61,2.61,0,0,1,3,2.35L67.7,20.49a2.45,2.45,0,0,1-2,2.52,2.37,2.37,0,0,1-2.21-2.34L62,2.6C61.86,1.26,63.14.09,64.82,0Z"/><path class="cls-29" d="M56.59.82h0c1.67-.26,3.15.64,3.29,2L62,20.8a2.41,2.41,0,0,1-1.71,2.75h0a2.45,2.45,0,0,1-2.48-2.1L54.07,3.7C53.79,2.37,54.92,1.08,56.59.82Z"/><path class="cls-30" d="M48.5,2.61c1.63-.43,3.22.3,3.53,1.61l4.26,17.62a2.31,2.31,0,0,1-1.36,2.88h0A2.4,2.4,0,0,1,52.23,23L46.38,5.85A2.67,2.67,0,0,1,48.5,2.61Z"/><path class="cls-31" d="M40.69,5.39h0A2.74,2.74,0,0,1,44.4,6.58l6.41,17a2.3,2.3,0,0,1-1,3h0a2.27,2.27,0,0,1-2.88-1.32L39,8.91C38.4,7.7,39.16,6.11,40.69,5.39Z"/><path class="cls-32" d="M33.31,9.17h0a3.26,3.26,0,0,1,2.19-.48,2.3,2.3,0,0,1,1.61,1.14l8.44,16a2.59,2.59,0,0,1,.27,1.78A2,2,0,0,1,45,29h0a2.36,2.36,0,0,1-3-1L32,12.81C31.3,11.68,31.87,10,33.31,9.17Z"/><path class="cls-33" d="M26.45,13.79h0c1.35-1,3.08-.93,3.84.18L40.64,28.85a2.38,2.38,0,0,1-.21,3.22,2.45,2.45,0,0,1-3.17-.65L25.61,17.53C24.72,16.48,25.09,14.79,26.45,13.79Z"/><path class="cls-34" d="M20.17,19.18h0c1.24-1.15,3-1.25,3.88-.24L36.14,32.45a2.29,2.29,0,0,1,.14,3.17,2.34,2.34,0,0,1-3.17-.21L19.86,23.05A2.7,2.7,0,0,1,20.17,19.18Z"/><path class="cls-35" d="M14.63,25.32h0a2.94,2.94,0,0,1,1.92-1.19,2.22,2.22,0,0,1,1.89.48L32.09,36.54a2.67,2.67,0,0,1,.9,1.58,2.26,2.26,0,0,1-.36,1.56h0a2.31,2.31,0,0,1-3.18.17L14.79,29.2C13.69,28.42,13.62,26.67,14.63,25.32Z"/><path class="cls-36" d="M9,33.69H9c.87-1.44,2.51-2,3.64-1.29l15.28,9.76a2.36,2.36,0,0,1,1,3,2.45,2.45,0,0,1-3.15.63L9.65,37.49A2.64,2.64,0,0,1,9,33.69Z"/><path class="cls-37" d="M5.21,41.09h0c.72-1.53,2.31-2.29,3.52-1.7L25.09,47.2a2.12,2.12,0,1,1-1.65,3.89l-17-6.29C5.18,44.35,4.61,42.67,5.21,41.09Z"/><path class="cls-38" d="M2.51,48.93h0a2.65,2.65,0,0,1,3.21-2.15l17.2,5.74a2.41,2.41,0,0,1,1.74,2.68,2.35,2.35,0,0,1-2.88,1.39L4.13,52.45C2.82,52.15,2.08,50.56,2.51,48.93Z"/><path class="cls-39" d="M.77,57h0C1,55.36,2.32,54.22,3.64,54.5l17.77,3.56a2.43,2.43,0,0,1,2.11,2.47h0a2.42,2.42,0,0,1-2.74,1.72l-18-1.94C1.41,60.18.51,58.7.77,57Z"/><path class="cls-40" d="M0,65.26H0c.08-1.68,1.26-3,2.6-2.85l18.07,1.36A2.34,2.34,0,0,1,23,66h0a2,2,0,0,1-.79,1.42,2.63,2.63,0,0,1-1.7.63L2.4,68.27a2.29,2.29,0,0,1-1.77-.86A3.33,3.33,0,0,1,0,65.26Z"/><path class="cls-41" d="M.22,73.52c-.1-1.68.94-3.1,2.28-3.15l18.11-.84a2.29,2.29,0,0,1,2.54,1.9h0A2.34,2.34,0,0,1,21,73.75L3,76.21A2.71,2.71,0,0,1,.22,73.52Z"/><path class="cls-42" d="M1.48,81.71h0A2.71,2.71,0,0,1,3.35,78.3l17.87-3A2.35,2.35,0,0,1,24,76.82a2.28,2.28,0,0,1-1.86,2.56L4.6,84C3.3,84.4,1.89,83.35,1.48,81.71Z"/><path class="cls-43" d="M3.77,89.68a3.36,3.36,0,0,1,0-2.25,2.25,2.25,0,0,1,1.41-1.35l17.36-5.23a2.81,2.81,0,0,1,1.82.08A2,2,0,0,1,25.49,82a2.37,2.37,0,0,1-1.58,2.8L7.1,91.63C5.85,92.14,4.35,91.27,3.77,89.68Z"/><path class="cls-44" d="M7,97.31c-.74-1.52-.32-3.21.91-3.74l16.58-7.33a2.39,2.39,0,0,1,3.12.81h0a2.46,2.46,0,0,1-1.24,3l-15.85,8.8A2.62,2.62,0,0,1,7,97.31Z"/><path class="cls-45" d="M11.11,104.5h0c-.89-1.43-.66-3.18.5-3.86l15.55-9.31a2.29,2.29,0,0,1,3.14.46,2.33,2.33,0,0,1-.8,3.07L14.85,105.54A2.71,2.71,0,0,1,11.11,104.5Z"/><path class="cls-46" d="M17.33,112.47h0c-1.13-1.25-1.2-3-.14-3.82l14-11.54A2.44,2.44,0,0,1,34.42,97a2.4,2.4,0,0,1-.39,3.21L21.13,113C20.18,114,18.47,113.72,17.33,112.47Z"/><path class="cls-47" d="M23.23,118.27h0c-1.25-1.13-1.5-2.86-.57-3.82l12.48-13.16a2.33,2.33,0,0,1,3.17-.42h0a2.43,2.43,0,0,1,0,3.21L27.09,118.3A2.65,2.65,0,0,1,23.23,118.27Z"/><path class="cls-48" d="M29.78,123.33h0c-1.37-1-1.81-2.7-1-3.77L39.56,105a2.13,2.13,0,1,1,3.51,2.36l-9.42,15.49C33,124,31.22,124.22,29.78,123.33Z"/><path class="cls-49" d="M37,127.48h0a3.15,3.15,0,0,1-1.58-1.6,2.27,2.27,0,0,1,.09-2l8.91-15.79A2.61,2.61,0,0,1,45.73,107a2.07,2.07,0,0,1,1.62,0h0a2.37,2.37,0,0,1,.8,3.11l-7.44,16.53C40.16,127.8,38.47,128.21,37,127.48Z"/><path class="cls-50" d="M44.56,130.74h0c-1.58-.58-2.45-2.08-1.93-3.32l6.9-16.76a2.4,2.4,0,0,1,2.82-1.58,2.44,2.44,0,0,1,1.16,3l-5.35,17.32C47.77,130.73,46.16,131.32,44.56,130.74Z"/><path class="cls-51" d="M52.52,133.08h0c-1.64-.41-2.68-1.82-2.32-3.12L55,112.48a2.32,2.32,0,0,1,2.59-1.86h0a2.38,2.38,0,0,1,1.53,2.79l-3.16,17.85A2.66,2.66,0,0,1,52.52,133.08Z"/><path class="cls-52" d="M60.69,134.43A2.78,2.78,0,0,1,58,131.58l2.59-17.94a2.13,2.13,0,1,1,4.21.41l-1,18.1C63.8,133.5,62.37,134.53,60.69,134.43Z"/><path class="cls-53" d="M69,134.69h0a2.64,2.64,0,0,1-3-2.44l.39-18.12a2.4,2.4,0,0,1,2.06-2.45h0A2.33,2.33,0,0,1,70.59,114l1.24,18.09C71.93,133.44,70.64,134.61,69,134.69Z"/><path class="cls-54" d="M77.19,134h0c-1.67.25-3.14-.64-3.26-2l-1.82-18a2.44,2.44,0,0,1,1.74-2.74,2.4,2.4,0,0,1,2.45,2.11l3.44,17.79C80,132.42,78.86,133.72,77.19,134Z"/><path class="cls-55" d="M85.3,132.28h0c-1.64.43-3.21-.31-3.5-1.63l-4-17.67a2.35,2.35,0,0,1,1.4-2.89h0a2,2,0,0,1,1.58.34,2.67,2.67,0,0,1,1.1,1.44l5.61,17.23a2.26,2.26,0,0,1-.3,1.94A3.28,3.28,0,0,1,85.3,132.28Z"/><path class="cls-56" d="M94.84,128.87h0a2.66,2.66,0,0,1-3.71-1.1L84.49,110.9a2.38,2.38,0,0,1,1-3,2.3,2.3,0,0,1,2.9,1.31l8.15,16.19C97.11,126.56,96.37,128.14,94.84,128.87Z"/><path class="cls-57" d="M102.17,125c-1.45.88-3.15.61-3.78-.57l-8.67-15.93a2.14,2.14,0,1,1,3.62-2.2l10.07,15.07C104.17,122.49,103.61,124.13,102.17,125Z"/><path class="cls-58" d="M109,120.31c-1.34,1-3.09.94-3.86-.16L94.56,105.41a2.34,2.34,0,0,1,.19-3.19h0a2.42,2.42,0,0,1,3.15.58l11.84,13.73A2.64,2.64,0,0,1,109,120.31Z"/><path class="cls-59" d="M115.19,114.84a2.75,2.75,0,0,1-3.89.27L99,101.77a2.13,2.13,0,1,1,3-3L115.43,111C116.44,111.84,116.33,113.6,115.19,114.84Z"/><path class="cls-60" d="M120.61,108.6a3.24,3.24,0,0,1-1.86,1.25,2.34,2.34,0,0,1-1.91-.46L103,97.64a2.6,2.6,0,0,1-.9-1.56,2,2,0,0,1,.29-1.59h0a2.35,2.35,0,0,1,3.2-.2l14.82,10.45C121.54,105.51,121.63,107.25,120.61,108.6Z"/><path class="cls-61" d="M125.27,101.75c-.88,1.45-2.52,2-3.63,1.26L106.5,93a2.38,2.38,0,0,1-1-3.06,2.43,2.43,0,0,1,3.18-.57l16,8.56C125.88,98.61,126.14,100.31,125.27,101.75Z"/><path class="cls-62" d="M129.09,94.4h0c-.73,1.53-2.31,2.28-3.51,1.67l-16.25-8A2.29,2.29,0,0,1,108,85.15a2.11,2.11,0,0,1,1.21-1,2.64,2.64,0,0,1,1.81.06l16.91,6.52a2.26,2.26,0,0,1,1.31,1.45A3,3,0,0,1,129.09,94.4Z"/><path class="cls-63" d="M132,86.62h0a2.72,2.72,0,0,1-3.28,2.09l-17.12-6a2.33,2.33,0,0,1-1.66-2.7h0a2.27,2.27,0,0,1,2.86-1.35l17.59,4.38C131.65,83.39,132.38,85,132,86.62Z"/><path class="cls-64" d="M133.79,78.54a3.34,3.34,0,0,1-1,2,2.24,2.24,0,0,1-1.89.5l-17.73-3.81a2.67,2.67,0,0,1-1.54-1,1.94,1.94,0,0,1-.51-1.54h0A2.37,2.37,0,0,1,113.82,73l18,2.19C133.15,75.38,134,76.87,133.79,78.54Z"/><path class="cls-65" d="M134.64,70.31h0c-.08,1.69-1.25,3-2.59,2.83L114,71.53a2.41,2.41,0,0,1-2.35-2.23,2.45,2.45,0,0,1,2.57-2l18.12,0C133.68,67.26,134.73,68.63,134.64,70.31Z"/><circle class="cls-66" cx="67.35" cy="67.33" r="46.64" transform="translate(-27.88 67.34) rotate(-45)"/><g class="cls-67"><path class="cls-68" d="M479.72,126.51,150,126.78a1.18,1.18,0,1,1,0-2.36l329.68-.27a8.27,8.27,0,0,0,8.25-8.26l-.08-97a8.26,8.26,0,0,0-8.26-8.25l-329.69.27a1.18,1.18,0,0,1-1.18-1.18,1.19,1.19,0,0,1,1.18-1.18l329.69-.27a10.61,10.61,0,0,1,10.61,10.6l.08,97A10.62,10.62,0,0,1,479.72,126.51Z"/></g><g class="cls-67"><path class="cls-69" d="M472.13,116.49l-322.1.26a1,1,0,1,1,0-2l322.1-.27A6.92,6.92,0,0,0,479,107.6L479,26.38a6.92,6.92,0,0,0-6.92-6.91L150,19.74a1,1,0,0,1,0-2l322.1-.26a8.89,8.89,0,0,1,8.89,8.87L481,107.6A8.91,8.91,0,0,1,472.13,116.49Z"/></g><path class="cls-70" d="M475.52,133.93l-408.12.34a1,1,0,0,1,0-2L475.52,132a1,1,0,0,1,0,2Z"/><path class="cls-71" d="M475.53,140l-408.12.34a1,1,0,0,1,0-2L475.53,138a1,1,0,1,1,0,2Z"/><path class="cls-72" d="M475.53,146l-408.12.34a1,1,0,1,1,0-2L475.53,144a1,1,0,1,1,0,2Z"/><path class="cls-73" d="M475.41,2,67.29,2.36a1,1,0,1,1,0-2L475.41.05a1,1,0,1,1,0,2Z"/></g></g></svg>