<svg xmlns="http://www.w3.org/2000/svg" xmlns:xlink="http://www.w3.org/1999/xlink" viewBox="0 0 495 147.73"><defs><style>.cls-1{fill:#00d0ff;}.cls-2{fill:url(#Безымянный_градиент_172);}.cls-3{opacity:0.44;}</style><radialGradient id="Безымянный_градиент_172" cx="69.94" cy="67.09" r="47.08" gradientTransform="translate(65.89 -28.92) rotate(44.95)" gradientUnits="userSpaceOnUse"><stop offset="0" stop-color="#00bdff"/><stop offset="0.25" stop-color="#0384ba"/><stop offset="0.51" stop-color="#054f7a"/><stop offset="0.73" stop-color="#07294b"/><stop offset="0.9" stop-color="#08112e"/><stop offset="1" stop-color="#080823"/></radialGradient></defs><title>loading_02</title><g id="Layer_2" data-name="Layer 2"><g id="Layer_1-2" data-name="Layer 1"><path class="cls-1" d="M68,135.74a67.77,67.77,0,1,1,67.72-67.83A67.84,67.84,0,0,1,68,135.74ZM67.93,2.58a65.39,65.39,0,1,0,65.45,65.34A65.46,65.46,0,0,0,67.93,2.58Z"/><path class="cls-1" d="M157.7,109.53h0a8.87,8.87,0,0,1-8.86-8.84l-.05-65.58a8.88,8.88,0,0,1,8.84-8.85h0a8.87,8.87,0,0,1,8.86,8.84l.06,65.58A8.88,8.88,0,0,1,157.7,109.53Z"/><path class="cls-1" d="M181.75,109.51h0a8.87,8.87,0,0,1-8.86-8.84l0-65.58a8.86,8.86,0,0,1,8.84-8.85h0a8.87,8.87,0,0,1,8.86,8.84l.05,65.58A8.86,8.86,0,0,1,181.75,109.51Z"/><path class="cls-1" d="M205.8,109.9h0a8.87,8.87,0,0,1-8.86-8.84l-.05-65.58a8.87,8.87,0,0,1,8.84-8.86h0a8.88,8.88,0,0,1,8.86,8.85l0,65.57A8.87,8.87,0,0,1,205.8,109.9Z"/><path class="cls-1" d="M229.85,109.88h0A8.87,8.87,0,0,1,221,101l-.05-65.58a8.87,8.87,0,0,1,8.84-8.86h0a8.89,8.89,0,0,1,8.86,8.85l.05,65.57A8.87,8.87,0,0,1,229.85,109.88Z"/><path class="cls-1" d="M253.9,109.86h0A8.87,8.87,0,0,1,245,101l0-65.58a8.87,8.87,0,0,1,8.84-8.86h0a8.89,8.89,0,0,1,8.86,8.85l.05,65.57A8.87,8.87,0,0,1,253.9,109.86Z"/><path class="cls-1" d="M278,109.84h0a8.87,8.87,0,0,1-8.86-8.84l0-65.58a8.87,8.87,0,0,1,8.84-8.86h0a8.89,8.89,0,0,1,8.86,8.85l.05,65.57A8.87,8.87,0,0,1,278,109.84Z"/><path class="cls-1" d="M302,109.42h0a8.88,8.88,0,0,1-8.86-8.85L293.08,35a8.88,8.88,0,0,1,8.85-8.85h0A8.87,8.87,0,0,1,310.79,35l0,65.58A8.89,8.89,0,0,1,302,109.42Z"/><path class="cls-1" d="M326.05,109.39h0a8.87,8.87,0,0,1-8.86-8.84L317.13,35A8.88,8.88,0,0,1,326,26.12h0A8.87,8.87,0,0,1,334.84,35l.05,65.58A8.88,8.88,0,0,1,326.05,109.39Z"/><path class="cls-1" d="M348.59,109.38h0a8.88,8.88,0,0,1-8.86-8.85L339.68,35a8.87,8.87,0,0,1,8.84-8.86h0a8.87,8.87,0,0,1,8.86,8.84l.05,65.58A8.87,8.87,0,0,1,348.59,109.38Z"/><path class="cls-1" d="M371.13,109.36h0a8.89,8.89,0,0,1-8.86-8.85l0-65.57a8.87,8.87,0,0,1,8.84-8.86h0a8.89,8.89,0,0,1,8.86,8.84L380,100.5A8.87,8.87,0,0,1,371.13,109.36Z"/><path class="cls-1" d="M393.67,109.34h0a8.89,8.89,0,0,1-8.86-8.84l-.05-65.58a8.87,8.87,0,0,1,8.84-8.86h0a8.88,8.88,0,0,1,8.86,8.84l.05,65.58A8.87,8.87,0,0,1,393.67,109.34Z"/><path class="cls-1" d="M415.32,109.32h0a8.87,8.87,0,0,1-8.86-8.84L406.4,34.9A8.89,8.89,0,0,1,415.25,26h0a8.88,8.88,0,0,1,8.85,8.85l.06,65.57A8.88,8.88,0,0,1,415.32,109.32Z"/><path class="cls-1" d="M437,109.3h0a8.87,8.87,0,0,1-8.86-8.84l-.05-65.58A8.88,8.88,0,0,1,436.93,26h0a8.87,8.87,0,0,1,8.86,8.84l.06,65.57A8.88,8.88,0,0,1,437,109.3Z"/><path class="cls-1" d="M460.63,109.28h0a8.87,8.87,0,0,1-8.86-8.84l-.06-65.58A8.88,8.88,0,0,1,460.56,26h0a8.87,8.87,0,0,1,8.86,8.84l.05,65.58A8.87,8.87,0,0,1,460.63,109.28Z"/><path class="cls-1" d="M135.68,60.79h0A2.78,2.78,0,0,1,133.41,64l-18.27,1.1a2.29,2.29,0,0,1-2.57-1.88h0a2.27,2.27,0,0,1,2.12-2.37l18.1-2.74C134.13,57.9,135.44,59.1,135.68,60.79Z"/><path class="cls-1" d="M134.25,52.55h0A2.67,2.67,0,0,1,132.46,56l-18,3.32a2.46,2.46,0,0,1-2.85-1.53,2.36,2.36,0,0,1,1.88-2.63l17.62-4.94C132.41,49.85,133.84,50.89,134.25,52.55Z"/><path class="cls-1" d="M131.85,44.53h0c.59,1.6,0,3.25-1.31,3.64l-17.45,5.52A2.45,2.45,0,0,1,110,52.54h0a2.45,2.45,0,0,1,1.59-2.86L128.5,42.6C129.75,42.06,131.26,42.93,131.85,44.53Z"/><path class="cls-1" d="M128.5,36.86h0c.75,1.54.34,3.25-.9,3.81L111,48.3a2.35,2.35,0,0,1-3.12-.8h0a2.44,2.44,0,0,1,1.18-3l15.87-9.1A2.67,2.67,0,0,1,128.5,36.86Z"/><path class="cls-1" d="M124.26,29.66h0a2.79,2.79,0,0,1-.47,3.91l-15.57,9.62a2.31,2.31,0,0,1-3.16-.44h0a2.28,2.28,0,0,1,.75-3.1l14.64-11C121.53,27.85,123.25,28.29,124.26,29.66Z"/><path class="cls-1" d="M119.1,23.09a3.22,3.22,0,0,1,.89,2.08,2.29,2.29,0,0,1-.82,1.8L104.89,38.42a2.6,2.6,0,0,1-1.72.6,2,2,0,0,1-1.53-.59h0a2.4,2.4,0,0,1,.42-3.22l13.19-12.68C116.22,21.58,118,21.82,119.1,23.09Z"/><path class="cls-1" d="M113.21,17.17h0c1.27,1.14,1.51,2.87.55,3.84L101,34.11a2.4,2.4,0,0,1-3.23.41h0a2.45,2.45,0,0,1,0-3.26l11.54-14.2C110.22,16,112,16,113.21,17.17Z"/><path class="cls-1" d="M106.67,12h0c1.37,1,1.81,2.72,1,3.8L96.56,30.34a2.3,2.3,0,0,1-3.11.75h0a2.35,2.35,0,0,1-.4-3.18l9.72-15.51A2.73,2.73,0,0,1,106.67,12Z"/><path class="cls-1" d="M99.51,7.66h0a2.93,2.93,0,0,1,1.55,1.67,2.26,2.26,0,0,1-.11,2L91.74,27.11a2.67,2.67,0,0,1-1.4,1.19,2.24,2.24,0,0,1-1.61-.05h0A2.34,2.34,0,0,1,88,25.14L95.69,8.55C96.26,7.32,98,6.91,99.51,7.66Z"/><path class="cls-1" d="M91.86,4.27h0c1.61.59,2.47,2.09,1.91,3.37l-7.2,16.82A2.47,2.47,0,0,1,83.7,26h0A2.41,2.41,0,0,1,82.57,23L88.2,5.57C88.61,4.27,90.26,3.68,91.86,4.27Z"/><path class="cls-1" d="M82.05,1.37h0c1.66.41,2.72,1.83,2.37,3.14L79.84,22.23a2.29,2.29,0,0,1-2.57,1.88,2.32,2.32,0,0,1-1.6-2.76l3-18.06A2.75,2.75,0,0,1,82.05,1.37Z"/><path class="cls-1" d="M73.78.17a2.94,2.94,0,0,1,2.07.94A2.27,2.27,0,0,1,76.51,3L74.15,21.12a2.69,2.69,0,0,1-.82,1.63,2.23,2.23,0,0,1-1.51.58h0a2.3,2.3,0,0,1-1.93-2.56l.72-18.29C70.65,1.13,72.08.08,73.78.17Z"/><path class="cls-1" d="M65.44,0h0c1.7-.1,3.07,1,3,2.38l-.14,18.3a2.48,2.48,0,0,1-2,2.54,2.4,2.4,0,0,1-2.23-2.36L62.57,2.63C62.45,1.28,63.74.09,65.44,0Z"/><path class="cls-1" d="M57.13.83h0c1.68-.26,3.18.64,3.33,2L62.54,21a2.42,2.42,0,0,1-1.72,2.77h0a2.48,2.48,0,0,1-2.51-2.11L54.59,3.74C54.3,2.39,55.44,1.09,57.13.83Z"/><path class="cls-1" d="M49,2.64c1.65-.44,3.26.3,3.57,1.62l4.3,17.79A2.33,2.33,0,0,1,55.45,25h0a2.41,2.41,0,0,1-2.72-1.72L46.82,5.91A2.69,2.69,0,0,1,49,2.64Z"/><path class="cls-1" d="M41.07,5.44h0a2.77,2.77,0,0,1,3.75,1.2l6.47,17.12a2.3,2.3,0,0,1-1,3h0a2.29,2.29,0,0,1-2.9-1.33L39.37,9C38.77,7.77,39.53,6.17,41.07,5.44Z"/><path class="cls-1" d="M33.63,9.25h0a3.37,3.37,0,0,1,2.21-.48,2.33,2.33,0,0,1,1.62,1.15L46,26.11a2.66,2.66,0,0,1,.27,1.8,2,2,0,0,1-.88,1.39h0a2.37,2.37,0,0,1-3.07-1l-10-15.35C31.6,11.8,32.17,10.14,33.63,9.25Z"/><path class="cls-1" d="M26.7,13.92h0c1.36-1,3.11-.94,3.88.19L41,29.13a2.42,2.42,0,0,1-.21,3.25,2.48,2.48,0,0,1-3.2-.66l-11.76-14C25,16.64,25.33,14.93,26.7,13.92Z"/><path class="cls-1" d="M20.36,19.36h0c1.26-1.15,3-1.26,3.92-.24L36.49,32.76a2.31,2.31,0,0,1,.14,3.2,2.35,2.35,0,0,1-3.2-.21L20.05,23.27A2.73,2.73,0,0,1,20.36,19.36Z"/><path class="cls-1" d="M14.77,25.56h0a3,3,0,0,1,1.94-1.2,2.29,2.29,0,0,1,1.91.48L32.4,36.89a2.72,2.72,0,0,1,.9,1.59,2.26,2.26,0,0,1-.36,1.58h0a2.34,2.34,0,0,1-3.21.18L14.93,29.48C13.82,28.69,13.75,26.92,14.77,25.56Z"/><path class="cls-1" d="M9,34H9c.88-1.47,2.54-2.05,3.68-1.31l15.42,9.86a2.36,2.36,0,0,1,1,3.06,2.44,2.44,0,0,1-3.17.63L9.74,37.85A2.67,2.67,0,0,1,9,34Z"/><path class="cls-1" d="M5.26,41.48h0c.73-1.54,2.33-2.31,3.55-1.72l16.52,7.89a2.14,2.14,0,1,1-1.66,3.93L6.5,45.23C5.23,44.77,4.66,43.08,5.26,41.48Z"/><path class="cls-1" d="M2.53,49.4h0a2.67,2.67,0,0,1,3.25-2.17L23.14,53a2.44,2.44,0,0,1,1.75,2.71,2.35,2.35,0,0,1-2.9,1.4L4.17,53C2.85,52.65,2.1,51.05,2.53,49.4Z"/><path class="cls-1" d="M.77,57.57h0C1,55.89,2.34,54.74,3.67,55l17.94,3.59a2.45,2.45,0,0,1,2.13,2.49h0A2.42,2.42,0,0,1,21,62.84l-18.19-2C1.43,60.75.52,59.26.77,57.57Z"/><path class="cls-1" d="M0,65.89H0c.08-1.7,1.27-3,2.62-2.89l18.25,1.37a2.38,2.38,0,0,1,2.36,2.22h0a2,2,0,0,1-.8,1.44,2.68,2.68,0,0,1-1.71.63l-18.3.26a2.31,2.31,0,0,1-1.78-.87A3.32,3.32,0,0,1,0,65.89Z"/><path class="cls-1" d="M.22,74.23c-.1-1.7,1-3.14,2.3-3.19l18.29-.85a2.31,2.31,0,0,1,2.56,1.92h0a2.34,2.34,0,0,1-2.18,2.34L3.05,76.94A2.74,2.74,0,0,1,.22,74.23Z"/><path class="cls-1" d="M1.49,82.49h0a2.73,2.73,0,0,1,1.89-3.44l18-3.08a2.35,2.35,0,0,1,2.78,1.58,2.3,2.3,0,0,1-1.87,2.59L4.64,84.84C3.33,85.2,1.91,84.14,1.49,82.49Z"/><path class="cls-1" d="M3.81,90.53a3.32,3.32,0,0,1-.05-2.26A2.27,2.27,0,0,1,5.18,86.9l17.53-5.27a2.78,2.78,0,0,1,1.83.07,2,2,0,0,1,1.19,1.12,2.39,2.39,0,0,1-1.59,2.83l-17,6.85C5.91,93,4.39,92.14,3.81,90.53Z"/><path class="cls-1" d="M7.07,98.24C6.32,96.7,6.74,95,8,94.46l16.74-7.4a2.4,2.4,0,0,1,3.14.82h0a2.48,2.48,0,0,1-1.25,3l-16,8.89C9.41,100.47,7.8,99.78,7.07,98.24Z"/><path class="cls-1" d="M11.21,105.5h0c-.89-1.45-.66-3.21.51-3.9l15.7-9.4a2.31,2.31,0,0,1,3.17.47,2.36,2.36,0,0,1-.81,3.1L15,106.55A2.75,2.75,0,0,1,11.21,105.5Z"/><path class="cls-1" d="M17.5,113.54h0c-1.14-1.26-1.22-3-.15-3.86L31.47,98A2.46,2.46,0,0,1,34.75,98a2.43,2.43,0,0,1-.4,3.24l-13,12.86C20.38,115,18.65,114.8,17.5,113.54Z"/><path class="cls-1" d="M23.45,119.4h0c-1.26-1.14-1.52-2.89-.57-3.86l12.59-13.28a2.37,2.37,0,0,1,3.21-.43h0a2.46,2.46,0,0,1,0,3.24L27.35,119.42A2.67,2.67,0,0,1,23.45,119.4Z"/><path class="cls-1" d="M30.06,124.51h0a2.81,2.81,0,0,1-1-3.81L39.93,106a2.29,2.29,0,0,1,3.09-.76,2.27,2.27,0,0,1,.46,3.15L34,124C33.28,125.17,31.51,125.4,30.06,124.51Z"/><path class="cls-1" d="M37.3,128.69h0a3.15,3.15,0,0,1-1.59-1.61,2.32,2.32,0,0,1,.08-2l9-15.93a2.67,2.67,0,0,1,1.37-1.2,2.08,2.08,0,0,1,1.64,0h0a2.37,2.37,0,0,1,.81,3.13l-7.52,16.68C40.55,129,38.84,129.44,37.3,128.69Z"/><path class="cls-1" d="M45,132h0c-1.6-.58-2.48-2.1-2-3.35l7-16.92a2.43,2.43,0,0,1,2.85-1.6A2.47,2.47,0,0,1,54,113.18l-5.4,17.49C48.23,132,46.6,132.57,45,132Z"/><path class="cls-1" d="M53,134.35h0c-1.66-.42-2.71-1.84-2.34-3.15l4.83-17.65a2.33,2.33,0,0,1,2.61-1.88h0a2.43,2.43,0,0,1,1.55,2.82l-3.2,18A2.69,2.69,0,0,1,53,134.35Z"/><path class="cls-1" d="M61.27,135.71a2.8,2.8,0,0,1-2.7-2.87l2.62-18.12a2.15,2.15,0,1,1,4.25.42l-1,18.27C64.41,134.77,63,135.81,61.27,135.71Z"/><path class="cls-1" d="M69.61,136h0a2.67,2.67,0,0,1-3-2.47L67,115.22a2.45,2.45,0,0,1,2.08-2.48h0a2.35,2.35,0,0,1,2.2,2.36l1.25,18.26C72.61,134.71,71.31,135.9,69.61,136Z"/><path class="cls-1" d="M77.93,135.26h0c-1.69.25-3.17-.65-3.3-2L72.8,115a2.47,2.47,0,0,1,1.75-2.77A2.42,2.42,0,0,1,77,114.39l3.47,18C80.77,133.69,79.61,135,77.93,135.26Z"/><path class="cls-1" d="M86.11,133.54h0c-1.65.43-3.24-.31-3.53-1.64l-4.06-17.85a2.38,2.38,0,0,1,1.41-2.91h0a2,2,0,0,1,1.6.34,2.7,2.7,0,0,1,1.11,1.45l5.67,17.41a2.28,2.28,0,0,1-.31,1.95A3.31,3.31,0,0,1,86.11,133.54Z"/><path class="cls-1" d="M95.74,130.1h0A2.69,2.69,0,0,1,92,129l-6.71-17a2.41,2.41,0,0,1,1-3.07,2.33,2.33,0,0,1,2.93,1.32l8.22,16.35C98,127.77,97.29,129.37,95.74,130.1Z"/><path class="cls-1" d="M103.14,126.2c-1.45.89-3.18.62-3.82-.58l-8.75-16.07a2.17,2.17,0,1,1,3.66-2.23l10.17,15.22C105.16,123.66,104.6,125.32,103.14,126.2Z"/><path class="cls-1" d="M110,121.46c-1.36,1-3.12,1-3.9-.16L95.47,106.42a2.34,2.34,0,0,1,.18-3.22h0a2.43,2.43,0,0,1,3.18.58l12,13.86A2.68,2.68,0,0,1,110,121.46Z"/><path class="cls-1" d="M116.29,115.94a2.8,2.8,0,0,1-3.93.27L100,102.74a2.15,2.15,0,1,1,3-3L116.53,112C117.55,112.91,117.44,114.69,116.29,115.94Z"/><path class="cls-1" d="M121.76,109.63a3.18,3.18,0,0,1-1.88,1.26,2.28,2.28,0,0,1-1.92-.46L104,98.57A2.63,2.63,0,0,1,103.1,97a2,2,0,0,1,.3-1.61h0a2.37,2.37,0,0,1,3.23-.2l15,10.55C122.7,106.51,122.79,108.27,121.76,109.63Z"/><path class="cls-1" d="M126.46,102.72c-.88,1.46-2.53,2-3.66,1.27L107.51,93.93a2.42,2.42,0,0,1-1-3.1,2.49,2.49,0,0,1,3.22-.57l16.13,8.64C127.08,99.55,127.34,101.26,126.46,102.72Z"/><path class="cls-1" d="M130.32,95.3h0c-.73,1.54-2.33,2.3-3.55,1.69l-16.4-8.11A2.33,2.33,0,0,1,109,86a2.22,2.22,0,0,1,1.22-1,2.76,2.76,0,0,1,1.83.06l17.07,6.59A2.24,2.24,0,0,1,130.48,93,3,3,0,0,1,130.32,95.3Z"/><path class="cls-1" d="M133.21,87.45h0a2.74,2.74,0,0,1-3.32,2.1l-17.28-6a2.36,2.36,0,0,1-1.67-2.73h0a2.3,2.3,0,0,1,2.89-1.36l17.76,4.43C132.91,84.18,133.64,85.8,133.21,87.45Z"/><path class="cls-1" d="M135.06,79.29a3.27,3.27,0,0,1-1.05,2,2.24,2.24,0,0,1-1.9.51L114.21,78a2.73,2.73,0,0,1-1.56-1,2,2,0,0,1-.51-1.56h0a2.38,2.38,0,0,1,2.76-1.7l18.17,2.2C134.42,76.1,135.32,77.6,135.06,79.29Z"/><path class="cls-1" d="M135.93,71h0c-.08,1.7-1.27,3-2.62,2.85l-18.23-1.62A2.42,2.42,0,0,1,112.71,70a2.48,2.48,0,0,1,2.59-2h18.3C135,67.9,136,69.28,135.93,71Z"/><circle class="cls-2" cx="67.99" cy="67.97" r="47.08" transform="translate(-28.15 67.98) rotate(-45)"/><g class="cls-3"><path class="cls-1" d="M484.3,127.71,151.47,128a1.19,1.19,0,0,1,0-2.38l332.83-.28a8.33,8.33,0,0,0,8.32-8.34l-.08-97.93a8.34,8.34,0,0,0-8.34-8.33L151.37,11a1.2,1.2,0,0,1-1.19-1.19,1.19,1.19,0,0,1,1.19-1.19L484.2,8.35a10.72,10.72,0,0,1,10.72,10.7L495,117A10.71,10.71,0,0,1,484.3,127.71Z"/></g><g class="cls-3"><path class="cls-1" d="M476.64,117.6l-325.18.27a1,1,0,0,1,0-2l325.18-.27a7,7,0,0,0,7-7l-.07-82a7,7,0,0,0-7-7l-325.18.27a1,1,0,0,1,0-2l325.18-.27a9,9,0,0,1,9,9l.07,82A9,9,0,0,1,476.64,117.6Z"/></g><path class="cls-1" d="M480.06,135.21l-412,.34a1,1,0,0,1,0-2l412-.35a1,1,0,0,1,0,2Z"/><path class="cls-1" d="M480.07,141.3l-412,.34a1,1,0,1,1,0-2l412-.35a1,1,0,0,1,0,2Z"/><path class="cls-1" d="M480.07,147.39l-412,.34a1,1,0,0,1,0-2l412-.35a1,1,0,1,1,0,2Z"/><path class="cls-1" d="M480,2l-412,.34a1,1,0,0,1,0-2L480,.05a1,1,0,1,1,0,2Z"/></g></g></svg>