<svg xmlns="http://www.w3.org/2000/svg" viewBox="0 0 495.96 155.19"><defs><style>.cls-1{fill:#11e5b3;}</style></defs><title>loading_12_green</title><g id="Layer_2" data-name="Layer 2"><g id="Layer_1-2" data-name="Layer 1"><polygon class="cls-1" points="228.96 106.46 211.82 106.46 222.86 72.95 240 72.95 228.96 106.46"/><polygon class="cls-1" points="209.1 106.46 191.96 106.46 203 72.95 220.14 72.95 209.1 106.46"/><polygon class="cls-1" points="189.24 106.46 172.1 106.46 183.14 72.95 200.28 72.95 189.24 106.46"/><polygon class="cls-1" points="169.37 106.46 152.24 106.46 163.28 72.95 180.41 72.95 169.37 106.46"/><polygon class="cls-1" points="70.06 106.46 52.92 106.46 63.96 72.95 81.1 72.95 70.06 106.46"/><polygon class="cls-1" points="149.51 106.46 132.37 106.46 143.41 72.95 160.55 72.95 149.51 106.46"/><polygon class="cls-1" points="129.65 106.46 112.51 106.46 123.55 72.95 140.69 72.95 129.65 106.46"/><polygon class="cls-1" points="109.78 106.46 92.65 106.46 103.69 72.95 120.82 72.95 109.78 106.46"/><polygon class="cls-1" points="89.92 106.46 72.78 106.46 83.82 72.95 100.96 72.95 89.92 106.46"/><polygon class="cls-1" points="348.14 106.46 331 106.46 342.04 72.95 359.18 72.95 348.14 106.46"/><polygon class="cls-1" points="427.59 106.46 410.45 106.46 421.49 72.95 438.63 72.95 427.59 106.46"/><polygon class="cls-1" points="407.73 106.46 390.59 106.46 401.63 72.95 418.77 72.95 407.73 106.46"/><polygon class="cls-1" points="387.86 106.46 370.73 106.46 381.77 72.95 398.9 72.95 387.86 106.46"/><polygon class="cls-1" points="368 106.46 350.86 106.46 361.9 72.95 379.04 72.95 368 106.46"/><polygon class="cls-1" points="248.82 106.46 231.69 106.46 242.73 72.95 259.86 72.95 248.82 106.46"/><polygon class="cls-1" points="328.27 106.46 311.14 106.46 322.18 72.95 339.31 72.95 328.27 106.46"/><polygon class="cls-1" points="308.41 106.46 291.28 106.46 302.31 72.95 319.45 72.95 308.41 106.46"/><polygon class="cls-1" points="288.55 106.46 271.41 106.46 282.45 72.95 299.59 72.95 288.55 106.46"/><polygon class="cls-1" points="268.69 106.46 251.55 106.46 262.59 72.95 279.73 72.95 268.69 106.46"/><path class="cls-1" d="M107.14,49.53H77.63a.54.54,0,0,1-.55-.55.55.55,0,0,1,.55-.56h29.51a.56.56,0,0,1,.56.56A.55.55,0,0,1,107.14,49.53Z"/><path class="cls-1" d="M165.06,134.08H35.7C16,134.08,0,120.59,0,104V76.82C0,60.24,16,46.75,35.7,46.75H92.88a2.23,2.23,0,1,1,0,4.46H35.7C18.47,51.21,4.46,62.7,4.46,76.82V104c0,14.12,14,25.61,31.24,25.61H165.06a2.23,2.23,0,1,1,0,4.46Z"/><path class="cls-1" d="M465.89,133H137.67a1.11,1.11,0,1,1,0-2.22H465.89A26.77,26.77,0,0,0,492.62,104V76.82a1.12,1.12,0,0,1,2.23,0V104A29,29,0,0,1,465.89,133Z"/><path class="cls-1" d="M493.73,79.05a2.22,2.22,0,0,1-2.22-2.23,25.64,25.64,0,0,0-25.62-25.61H107.14a2.23,2.23,0,0,1,0-4.46H465.89A30.1,30.1,0,0,1,496,76.82,2.23,2.23,0,0,1,493.73,79.05Z"/><rect class="cls-1" x="120.63" y="11.6" width="18.97" height="16.33"/><rect class="cls-1" x="148.39" y="11.6" width="18.97" height="16.33"/><rect class="cls-1" x="176.14" y="11.6" width="18.97" height="16.33"/><rect class="cls-1" x="203.9" y="11.6" width="18.97" height="16.33"/><rect class="cls-1" x="231.66" y="11.6" width="18.97" height="16.33"/><rect class="cls-1" x="259.42" y="11.6" width="18.97" height="16.33"/><rect class="cls-1" x="287.18" y="11.6" width="18.97" height="16.33"/><rect class="cls-1" x="314.94" y="11.6" width="18.97" height="16.33"/><rect class="cls-1" x="342.7" y="11.6" width="18.97" height="16.33"/><rect class="cls-1" x="92.87" y="11.6" width="18.97" height="16.33"/><rect class="cls-1" x="370.46" y="11.6" width="18.97" height="16.33"/><path class="cls-1" d="M413.17,9.93a8,8,0,0,1,7.95,7.94v3.9a8,8,0,0,1-7.95,7.94h-344a8,8,0,0,1-7.94-7.94v-3.9a8,8,0,0,1,7.94-7.94h344m0-2.27h-344A10.24,10.24,0,0,0,58.91,17.87v3.9A10.25,10.25,0,0,0,69.13,32h344a10.25,10.25,0,0,0,10.22-10.21v-3.9A10.24,10.24,0,0,0,413.17,7.66Z"/><polygon class="cls-1" points="464.6 138.2 26.95 138.2 39.92 150.63 107.7 150.63 108.79 155.19 202.53 155.19 203.61 150.63 287.94 150.63 289.02 155.19 382.76 155.19 383.85 150.63 451.63 150.63 464.6 138.2"/><polygon class="cls-1" points="361.24 62.06 144.5 62.06 137.67 48.98 368.07 48.98 361.24 62.06"/><polygon class="cls-1" points="305.25 0 177.05 0 173.01 8.05 309.3 8.05 305.25 0"/><path class="cls-1" d="M431.18,37.07H51.12a1.11,1.11,0,0,1,0-2.22H431.18a1.11,1.11,0,1,1,0,2.22Z"/><path class="cls-1" d="M57.19,36a6.07,6.07,0,1,1-6.07-6.07A6.07,6.07,0,0,1,57.19,36Z"/><path class="cls-1" d="M437.25,36a6.07,6.07,0,1,1-6.07-6.07A6.07,6.07,0,0,1,437.25,36Z"/><polygon class="cls-1" points="411.73 43.3 283.53 43.3 279.49 35.56 415.77 35.56 411.73 43.3"/><circle class="cls-1" cx="36.42" cy="123.42" r="6.07"/><path class="cls-1" d="M454.74,123.42a6.07,6.07,0,1,1-6.07-6.07A6.07,6.07,0,0,1,454.74,123.42Z"/><path class="cls-1" d="M448.67,124.54H36.42a1.12,1.12,0,0,1,0-2.23H448.67a1.12,1.12,0,1,1,0,2.23Z"/><path class="cls-1" d="M421.12,127.66H194.49a4.26,4.26,0,0,1-4.24-4.24h0a4.25,4.25,0,0,1,4.24-4.23H421.12a4.24,4.24,0,0,1,4.23,4.23h0A4.25,4.25,0,0,1,421.12,127.66Z"/></g></g></svg>