<svg xmlns="http://www.w3.org/2000/svg" xmlns:xlink="http://www.w3.org/1999/xlink" viewBox="0 0 499.1 103.9"><defs><style>.cls-1,.cls-2{fill:none;}.cls-2{clip-path:url(#clip-path);}.cls-10,.cls-11,.cls-12,.cls-13,.cls-14,.cls-15,.cls-16,.cls-3,.cls-5,.cls-6,.cls-7,.cls-8,.cls-9{fill:#00d0ff;}.cls-4{clip-path:url(#clip-path-3);}.cls-5{opacity:0.6;}.cls-10,.cls-11,.cls-12,.cls-13,.cls-14,.cls-15,.cls-16,.cls-5,.cls-6,.cls-7,.cls-8,.cls-9{isolation:isolate;}.cls-6{opacity:0.2;}.cls-7{opacity:0.7;}.cls-8{opacity:0.4;}.cls-9{opacity:0.3;}.cls-10{opacity:0.9;}.cls-11{opacity:0.8;}.cls-12{opacity:0.5;}.cls-13{opacity:0.03;}.cls-14{opacity:0.09;}.cls-15{opacity:0.1;}.cls-16{opacity:0.05;}.cls-17{opacity:0.8;}</style><clipPath id="clip-path"><polygon class="cls-1" points="3 3 4 3 3 4 3 3"/></clipPath><clipPath id="clip-path-3"><polygon class="cls-2" points="1 1 0 1 1 0 1 1"/></clipPath></defs><title>main_offer</title><g id="Layer_2" data-name="Layer 2"><g id="Layer_1-2" data-name="Layer 1"><polygon id="SVGID" class="cls-3" points="3 3 4 3 3 4 3 3"/><polygon id="SVGID-2" data-name="SVGID" class="cls-3" points="1 1 0 1 1 0 1 1"/><g class="cls-4"><polygon class="cls-3" points="383.2 12 57.2 12 5 64.1 331.1 64.1 383.2 12"/></g><polygon class="cls-5" points="383.2 12 57.2 12 5 64.1 331.1 64.1 383.2 12"/><polygon class="cls-6" points="390.3 25 64.2 25 12.1 77.2 338.2 77.2 390.3 25"/><polygon id="SVGID-3" data-name="SVGID" class="cls-3" points="3 3 4 3 3 4 3 3"/><polygon id="SVGID-4" data-name="SVGID" class="cls-3" points="1 1 0 1 1 0 1 1"/><g class="cls-4"><polygon class="cls-3" points="374.1 56.5 285.8 56.5 271.7 70.7 360 70.7 374.1 56.5"/></g><polygon class="cls-5" points="374.1 56.5 285.8 56.5 271.7 70.7 360 70.7 374.1 56.5"/><path class="cls-3" d="M338.2,77.9H12.1a.75.75,0,0,1-.7-.5.63.63,0,0,1,.2-.8L63.7,24.5a.76.76,0,0,1,.5-.2H390.3a.75.75,0,0,1,.7.5.63.63,0,0,1-.2.8L338.7,77.7A.76.76,0,0,1,338.2,77.9ZM13.9,76.4h324l50.7-50.7H64.6Z"/><path class="cls-3" d="M492,89H214a1,1,0,0,1-.7-.4.75.75,0,0,1,.1-.8l8.7-10.9a.71.71,0,1,1,1.1.9l-7.7,9.7H492a.68.68,0,0,1,.7.7A.71.71,0,0,1,492,89Z"/><path class="cls-3" d="M499.1,88.9a4.1,4.1,0,1,1-4.1-4.1A4.12,4.12,0,0,1,499.1,88.9Z"/><polygon class="cls-7" points="290.4 92.4 279 92.4 267.5 103.9 278.9 103.9 290.4 92.4"/><polygon class="cls-5" points="312.5 92.4 301 92.4 289.5 103.9 301 103.9 312.5 92.4"/><polygon class="cls-8" points="356.6 92.4 345.2 92.4 333.7 103.9 345.1 103.9 356.6 92.4"/><polygon class="cls-9" points="378.7 92.4 367.2 92.4 355.7 103.9 367.2 103.9 378.7 92.4"/><polygon class="cls-10" points="246.3 92.4 234.8 92.4 223.3 103.9 234.8 103.9 246.3 92.4"/><polygon class="cls-3" points="201.3 103.9 212.7 103.9 224.2 92.4 212.8 92.4 201.3 103.9"/><polygon class="cls-11" points="268.3 92.4 256.9 92.4 245.4 103.9 256.8 103.9 268.3 92.4"/><polygon class="cls-12" points="334.5 92.4 323.1 92.4 311.6 103.9 323 103.9 334.5 92.4"/><polygon class="cls-13" points="489 92.4 477.6 92.4 466.1 103.9 477.5 103.9 489 92.4"/><polygon class="cls-14" points="444.9 92.4 433.4 92.4 421.9 103.9 433.4 103.9 444.9 92.4"/><polygon class="cls-15" points="422.8 92.4 411.4 92.4 399.9 103.9 411.3 103.9 422.8 92.4"/><polygon class="cls-16" points="466.9 92.4 455.5 92.4 444 103.9 455.4 103.9 466.9 92.4"/><polygon class="cls-6" points="400.7 92.4 389.3 92.4 377.8 103.9 389.2 103.9 400.7 92.4"/><polygon class="cls-7" points="112.3 6.6 100.8 6.6 89.3 18.1 100.8 18.1 112.3 6.6"/><polygon class="cls-5" points="134.3 6.6 122.9 6.6 111.4 18.1 122.8 18.1 134.3 6.6"/><polygon class="cls-8" points="178.5 6.6 167 6.6 155.5 18.1 167 18.1 178.5 6.6"/><polygon class="cls-9" points="200.5 6.6 189.1 6.6 177.6 18.1 189 18.1 200.5 6.6"/><polygon class="cls-10" points="68.1 6.6 56.7 6.6 45.2 18.1 56.6 18.1 68.1 6.6"/><polygon class="cls-3" points="23.1 18.1 34.6 18.1 46.1 6.6 34.6 6.6 23.1 18.1"/><polygon class="cls-11" points="90.2 6.6 78.8 6.6 67.3 18.1 78.7 18.1 90.2 6.6"/><polygon class="cls-12" points="156.4 6.6 145 6.6 133.5 18.1 144.9 18.1 156.4 6.6"/><polygon class="cls-13" points="310.9 6.6 299.4 6.6 287.9 18.1 299.4 18.1 310.9 6.6"/><polygon class="cls-14" points="266.8 6.6 255.3 6.6 243.8 18.1 255.2 18.1 266.8 6.6"/><polygon class="cls-15" points="244.7 6.6 233.2 6.6 221.7 18.1 233.2 18.1 244.7 6.6"/><polygon class="cls-16" points="288.8 6.6 277.4 6.6 265.9 18.1 277.3 18.1 288.8 6.6"/><polygon class="cls-6" points="222.6 6.6 211.2 6.6 199.7 18.1 211.1 18.1 222.6 6.6"/><g class="cls-17"><path class="cls-3" d="M374.54,70.11v4.46h9.21l-2.59,3.51h-6.62v4.76h-3.42V70.11Zm9.21,0h3.41V82.84h-3.41V70.11Z"/><path class="cls-3" d="M402.17,70.11l3.42,3.52v9.21H391.51l-3.41-3.51V70.11l3.41,3.52v5.7h10.66v-5.7H391.51V70.11Z"/><path class="cls-3" d="M423.8,70.11l-3.42,3.52H406.62V70.11ZM416.14,84.5,412.21,81V73.53l3.93,2.38Z"/></g></g></g></svg>