<svg xmlns="http://www.w3.org/2000/svg" xmlns:xlink="http://www.w3.org/1999/xlink" viewBox="0 0 493.22 147.4"><defs><style>.cls-1{mask:url(#mask);filter:url(#luminosity-noclip-6);}.cls-10,.cls-2,.cls-4,.cls-6,.cls-8{mix-blend-mode:multiply;}.cls-2{fill:url(#Безымянный_градиент_109);}.cls-3{mask:url(#mask-2);filter:url(#luminosity-noclip-7);}.cls-4{fill:url(#Безымянный_градиент_110);}.cls-5{mask:url(#mask-3);filter:url(#luminosity-noclip-8);}.cls-6{fill:url(#Безымянный_градиент_110-2);}.cls-7{mask:url(#mask-4);filter:url(#luminosity-noclip-9);}.cls-8{fill:url(#Безымянный_градиент_110-3);}.cls-9{mask:url(#mask-5);filter:url(#luminosity-noclip-10);}.cls-10{fill:url(#Безымянный_градиент_109-2);}.cls-11,.cls-12,.cls-13,.cls-14,.cls-15,.cls-16,.cls-17,.cls-18,.cls-19,.cls-20,.cls-21{fill:#00d0ff;}.cls-11{opacity:0.2;}.cls-13{opacity:0.9;}.cls-14{opacity:0.8;}.cls-15{opacity:0.7;}.cls-16{opacity:0.6;}.cls-17{opacity:0.5;}.cls-18{opacity:0.4;}.cls-19{opacity:0.3;}.cls-20{opacity:0.1;}.cls-21{opacity:0.05;}.cls-22{mask:url(#mask-6);}.cls-23{fill:url(#Безымянный_градиент_4);}.cls-24{mask:url(#mask-7);}.cls-25{fill:url(#Безымянный_градиент_33);}.cls-26{mask:url(#mask-8);}.cls-27{fill:url(#Безымянный_градиент_33-2);}.cls-28{mask:url(#mask-9);}.cls-29{fill:url(#Безымянный_градиент_33-3);}.cls-30{mask:url(#mask-10);}.cls-31{fill:url(#Безымянный_градиент_4-2);}.cls-32{filter:url(#luminosity-noclip-5);}.cls-33{filter:url(#luminosity-noclip-4);}.cls-34{filter:url(#luminosity-noclip-3);}.cls-35{filter:url(#luminosity-noclip-2);}.cls-36{filter:url(#luminosity-noclip);}</style><filter id="luminosity-noclip" x="243.09" y="-8262.17" width="57.38" height="32766" filterUnits="userSpaceOnUse" color-interpolation-filters="sRGB"><feFlood flood-color="#fff" result="bg"/><feBlend in="SourceGraphic" in2="bg"/></filter><mask id="mask" x="243.09" y="-8262.17" width="57.38" height="32766" maskUnits="userSpaceOnUse"><g class="cls-36"/></mask><linearGradient id="Безымянный_градиент_109" x1="243.09" y1="136.96" x2="300.46" y2="136.96" gradientUnits="userSpaceOnUse"><stop offset="0" stop-color="#fff"/><stop offset="0.07" stop-color="#d8d8d8"/><stop offset="0.16" stop-color="#a6a6a6"/><stop offset="0.26" stop-color="#797979"/><stop offset="0.37" stop-color="#545454"/><stop offset="0.47" stop-color="#353535"/><stop offset="0.58" stop-color="#1e1e1e"/><stop offset="0.7" stop-color="#0d0d0d"/><stop offset="0.83" stop-color="#030303"/><stop offset="1"/></linearGradient><filter id="luminosity-noclip-2" x="144.95" y="-8262.17" width="97.14" height="32766" filterUnits="userSpaceOnUse" color-interpolation-filters="sRGB"><feFlood flood-color="#fff" result="bg"/><feBlend in="SourceGraphic" in2="bg"/></filter><mask id="mask-2" x="144.95" y="-8262.17" width="97.14" height="32766" maskUnits="userSpaceOnUse"><g class="cls-35"/></mask><linearGradient id="Безымянный_градиент_110" x1="144.95" y1="125.13" x2="242.08" y2="125.13" gradientUnits="userSpaceOnUse"><stop offset="0"/><stop offset="0.01" stop-color="#030303"/><stop offset="0.7" stop-color="#b7b7b7"/><stop offset="1" stop-color="#fff"/></linearGradient><filter id="luminosity-noclip-3" x="55.87" y="-8262.17" width="70.46" height="32766" filterUnits="userSpaceOnUse" color-interpolation-filters="sRGB"><feFlood flood-color="#fff" result="bg"/><feBlend in="SourceGraphic" in2="bg"/></filter><mask id="mask-3" x="55.87" y="-8262.17" width="70.46" height="32766" maskUnits="userSpaceOnUse"><g class="cls-34"/></mask><linearGradient id="Безымянный_градиент_110-2" x1="-2398.65" y1="-1634.24" x2="-2328.19" y2="-1634.24" gradientTransform="translate(-2272.33 -1518.16) rotate(180)" xlink:href="#Безымянный_градиент_110"/><filter id="luminosity-noclip-4" x="363.38" y="-8262.17" width="70.46" height="32766" filterUnits="userSpaceOnUse" color-interpolation-filters="sRGB"><feFlood flood-color="#fff" result="bg"/><feBlend in="SourceGraphic" in2="bg"/></filter><mask id="mask-4" x="363.38" y="-8262.17" width="70.46" height="32766" maskUnits="userSpaceOnUse"><g class="cls-33"/></mask><linearGradient id="Безымянный_градиент_110-3" x1="-201.62" y1="-1634.24" x2="-131.16" y2="-1634.24" gradientTransform="matrix(1, 0, 0, -1, 565, -1518.16)" xlink:href="#Безымянный_градиент_110"/><filter id="luminosity-noclip-5" x="199.05" y="-8262.17" width="232.27" height="32766" filterUnits="userSpaceOnUse" color-interpolation-filters="sRGB"><feFlood flood-color="#fff" result="bg"/><feBlend in="SourceGraphic" in2="bg"/></filter><mask id="mask-5" x="199.05" y="-8262.17" width="232.27" height="32766" maskUnits="userSpaceOnUse"><g class="cls-32"/></mask><linearGradient id="Безымянный_градиент_109-2" x1="198.3" y1="6.1" x2="431.32" y2="6.1" xlink:href="#Безымянный_градиент_109"/><filter id="luminosity-noclip-6" x="243.09" y="130.42" width="57.38" height="13.09" filterUnits="userSpaceOnUse" color-interpolation-filters="sRGB"><feFlood flood-color="#fff" result="bg"/><feBlend in="SourceGraphic" in2="bg"/></filter><mask id="mask-6" x="243.09" y="130.42" width="57.38" height="13.09" maskUnits="userSpaceOnUse"><g class="cls-1"><polygon class="cls-2" points="251.14 130.42 251.14 137.46 243.09 137.46 243.09 143.5 300.46 143.5 300.46 138.47 251.14 130.42"/></g></mask><linearGradient id="Безымянный_градиент_4" x1="243.09" y1="136.96" x2="300.46" y2="136.96" gradientUnits="userSpaceOnUse"><stop offset="0" stop-color="#00d0ff"/><stop offset="0.05" stop-color="#02ccf4"/><stop offset="0.21" stop-color="#06c3d5"/><stop offset="0.38" stop-color="#0abcbe"/><stop offset="0.56" stop-color="#0cb7ad"/><stop offset="0.75" stop-color="#0eb4a3"/><stop offset="1" stop-color="#0eb3a0"/></linearGradient><filter id="luminosity-noclip-7" x="144.95" y="121.86" width="97.14" height="6.54" filterUnits="userSpaceOnUse" color-interpolation-filters="sRGB"><feFlood flood-color="#fff" result="bg"/><feBlend in="SourceGraphic" in2="bg"/></filter><mask id="mask-7" x="144.95" y="121.86" width="97.14" height="6.54" maskUnits="userSpaceOnUse"><g class="cls-3"><rect class="cls-4" x="144.95" y="121.86" width="97.14" height="6.54"/></g></mask><linearGradient id="Безымянный_градиент_33" x1="144.95" y1="125.13" x2="242.08" y2="125.13" gradientUnits="userSpaceOnUse"><stop offset="0" stop-color="#0eb3a0"/><stop offset="0.24" stop-color="#0bbab8"/><stop offset="1" stop-color="#00d0ff"/></linearGradient><filter id="luminosity-noclip-8" x="55.87" y="112.06" width="70.46" height="8.02" filterUnits="userSpaceOnUse" color-interpolation-filters="sRGB"><feFlood flood-color="#fff" result="bg"/><feBlend in="SourceGraphic" in2="bg"/></filter><mask id="mask-8" x="55.87" y="112.06" width="70.46" height="8.02" maskUnits="userSpaceOnUse"><g class="cls-5"><polygon class="cls-6" points="59.89 112.06 126.33 112.06 126.33 120.08 55.87 120.08 59.89 112.06"/></g></mask><linearGradient id="Безымянный_градиент_33-2" x1="-2398.65" y1="-1634.24" x2="-2328.19" y2="-1634.24" gradientTransform="translate(-2272.33 -1518.16) rotate(180)" xlink:href="#Безымянный_градиент_33"/><filter id="luminosity-noclip-9" x="363.38" y="112.06" width="70.46" height="8.02" filterUnits="userSpaceOnUse" color-interpolation-filters="sRGB"><feFlood flood-color="#fff" result="bg"/><feBlend in="SourceGraphic" in2="bg"/></filter><mask id="mask-9" x="363.38" y="112.06" width="70.46" height="8.02" maskUnits="userSpaceOnUse"><g class="cls-7"><polygon class="cls-8" points="429.81 112.06 363.38 112.06 363.38 120.08 433.84 120.08 429.81 112.06"/></g></mask><linearGradient id="Безымянный_градиент_33-3" x1="-201.62" y1="-1634.24" x2="-131.16" y2="-1634.24" gradientTransform="matrix(1, 0, 0, -1, 565, -1518.16)" xlink:href="#Безымянный_градиент_33"/><filter id="luminosity-noclip-10" x="199.05" y="4.23" width="232.27" height="3.74" filterUnits="userSpaceOnUse" color-interpolation-filters="sRGB"><feFlood flood-color="#fff" result="bg"/><feBlend in="SourceGraphic" in2="bg"/></filter><mask id="mask-10" x="199.05" y="4.23" width="232.27" height="3.74" maskUnits="userSpaceOnUse"><g class="cls-9"><polygon class="cls-10" points="199.05 4.23 200.81 7.98 424.27 7.98 431.32 4.77 199.05 4.23"/></g></mask><linearGradient id="Безымянный_градиент_4-2" x1="198.3" y1="6.1" x2="431.32" y2="6.1" xlink:href="#Безымянный_градиент_4"/></defs><title>main_discount_02</title><g id="Layer_2" data-name="Layer 2"><g id="Layer_1-2" data-name="Layer 1"><rect class="cls-11" x="34.56" y="19.64" width="420.42" height="84.89"/><path class="cls-12" d="M455,105.28H34.56a.76.76,0,0,1-.76-.75V19.64a.76.76,0,0,1,.76-.76H455a.76.76,0,0,1,.76.76v84.89A.76.76,0,0,1,455,105.28ZM35.31,103.77H454.22V20.39H35.31Z"/><polygon class="cls-12" points="53.01 8.06 23.49 8.06 23.49 112.08 53.68 112.08 49.66 120.13 17.45 120.13 17.45 4.04 48.99 4.04 53.01 8.06"/><polygon class="cls-12" points="436.86 8.06 466.38 8.06 466.38 112.08 436.19 112.08 440.21 120.13 472.42 120.13 472.42 4.04 440.88 4.04 436.86 8.06"/><path class="cls-12" d="M246.28,135H6a.76.76,0,0,1-.76-.75v-53a.76.76,0,0,1,1.52,0v52.26H245.52V106.09a.76.76,0,0,1,1.51,0v28.19A.76.76,0,0,1,246.28,135Z"/><circle class="cls-12" cx="6.04" cy="80.59" r="6.04"/><circle class="cls-12" cx="45.55" cy="29" r="3.77"/><circle class="cls-13" cx="54.98" cy="29" r="3.77"/><circle class="cls-14" cx="64.42" cy="29" r="3.77"/><circle class="cls-15" cx="73.86" cy="29" r="3.77"/><circle class="cls-16" cx="83.29" cy="29" r="3.77"/><circle class="cls-17" cx="92.73" cy="29" r="3.77"/><circle class="cls-18" cx="102.17" cy="29" r="3.77"/><circle class="cls-19" cx="111.6" cy="29" r="3.77"/><circle class="cls-11" cx="121.04" cy="29" r="3.77"/><circle class="cls-20" cx="130.48" cy="29" r="3.77"/><circle class="cls-21" cx="139.91" cy="29" r="3.77"/><path class="cls-12" d="M493.22,39a6,6,0,1,1-6-6A6,6,0,0,1,493.22,39Z"/><path class="cls-12" d="M487.19,134.65H314.72a.37.37,0,0,1-.37-.37v-7H247a.38.38,0,1,1,0-.75h67.77a.38.38,0,0,1,.38.37v7H486.81V41a.38.38,0,1,1,.75,0v93.28A.37.37,0,0,1,487.19,134.65Z"/><polygon class="cls-12" points="305.71 147.4 238.52 147.4 238.52 135.62 239.27 135.62 239.27 146.65 304.95 146.65 304.95 136.29 305.71 136.29 305.71 147.4"/><path class="cls-12" d="M307.34,135a2,2,0,1,1-2-2A2,2,0,0,1,307.34,135Z"/><path class="cls-12" d="M138.91,127.4a2,2,0,1,1-2-2A2,2,0,0,1,138.91,127.4Z"/><polygon class="cls-12" points="137.27 125.55 136.52 125.55 136.52 117.12 246.95 117.12 246.95 117.88 137.27 117.88 137.27 125.55"/><g class="cls-22"><polygon class="cls-23" points="251.14 130.42 251.14 137.46 243.09 137.46 243.09 143.5 300.46 143.5 300.46 138.47 251.14 130.42"/></g><g class="cls-24"><rect class="cls-25" x="144.95" y="121.86" width="97.14" height="6.54"/></g><g class="cls-26"><polygon class="cls-27" points="59.89 112.06 126.33 112.06 126.33 120.08 55.87 120.08 59.89 112.06"/></g><g class="cls-28"><polygon class="cls-29" points="429.81 112.06 363.38 112.06 363.38 120.08 433.84 120.08 429.81 112.06"/></g><g class="cls-30"><polygon class="cls-31" points="199.05 4.23 200.81 7.98 424.27 7.98 431.32 4.77 199.05 4.23"/></g><path class="cls-12" d="M75.74,10.9H65.1l-2.94-3V0H74.29l1.47,3H65.1V7.9H75.74Z"/><path class="cls-12" d="M88.69,10.9H79.5l-2.94-3V0H88.69l2.93,3V10.9l-2.94-3V3H79.5V7.9h9.19Z"/><path class="cls-12" d="M92.43,0h12.11V3H95.38Zm0,10.9V3.84h3.35V10.9ZM104.54,3l3-3V6.83H97.06v-3h7.48Z"/><path class="cls-12" d="M123.38,0V3.84l-3,2.64h-9.17l-3-2.64V0h3V3.84h9.17V0ZM108.3,7.9h12.12V6.48h3V7.9l-3,3H108.3Z"/><path class="cls-12" d="M141.76,10.9H131.12l-3-3V0H140.3l1.47,3H131.12V7.9h10.64Z"/><path class="cls-12" d="M154.7,10.9h-9.18l-3-3V0H154.7l2.93,3,0,7.91-3-3V3h-9.18V7.9h9.18Z"/><path class="cls-12" d="M160.13,10.9h-1.68V3.84h3.34V7.9h8.77V3h-9.17l-2.94-3h15.07V7.9l-3,3Z"/><path class="cls-12" d="M185.93,6.83h-8.67V7.9h10.88v3H177.26l-2.94-3V0l2.94,3v.83h10.9ZM189.39,0l-3,3h-9.17V0Z"/></g></g></svg>