<svg xmlns="http://www.w3.org/2000/svg" xmlns:xlink="http://www.w3.org/1999/xlink" viewBox="0 0 491.33 129.81"><defs><style>.cls-1{mask:url(#mask);filter:url(#luminosity-noclip-3);}.cls-2,.cls-4{mix-blend-mode:multiply;}.cls-2{fill:url(#Безымянный_градиент_70);}.cls-3{mask:url(#mask-2);filter:url(#luminosity-noclip-4);}.cls-4{fill:url(#Безымянный_градиент_70-2);}.cls-5{fill:#00d0ff;}.cls-6{mask:url(#mask-3);}.cls-7{fill:url(#Безымянный_градиент_10);}.cls-8{mask:url(#mask-4);}.cls-9{fill:url(#Безымянный_градиент_10-2);}.cls-10{filter:url(#luminosity-noclip-2);}.cls-11{filter:url(#luminosity-noclip);}</style><filter id="luminosity-noclip" x="267.53" y="-8257.08" width="202.4" height="32766" filterUnits="userSpaceOnUse" color-interpolation-filters="sRGB"><feFlood flood-color="#fff" result="bg"/><feBlend in="SourceGraphic" in2="bg"/></filter><mask id="mask" x="267.53" y="-8257.08" width="202.4" height="32766" maskUnits="userSpaceOnUse"><g class="cls-11"/></mask><linearGradient id="Безымянный_градиент_70" x1="267.53" y1="68.34" x2="469.93" y2="68.34" gradientUnits="userSpaceOnUse"><stop offset="0" stop-color="#fff"/><stop offset="0.01" stop-color="#f6f6f6"/><stop offset="0.05" stop-color="#c8c8c8"/><stop offset="0.09" stop-color="#9d9d9d"/><stop offset="0.14" stop-color="#777"/><stop offset="0.2" stop-color="#575757"/><stop offset="0.25" stop-color="#3b3b3b"/><stop offset="0.32" stop-color="#252525"/><stop offset="0.4" stop-color="#141414"/><stop offset="0.49" stop-color="#090909"/><stop offset="0.63" stop-color="#020202"/><stop offset="1"/></linearGradient><filter id="luminosity-noclip-2" x="21.42" y="-8257.08" width="202.4" height="32766" filterUnits="userSpaceOnUse" color-interpolation-filters="sRGB"><feFlood flood-color="#fff" result="bg"/><feBlend in="SourceGraphic" in2="bg"/></filter><mask id="mask-2" x="21.42" y="-8257.08" width="202.4" height="32766" maskUnits="userSpaceOnUse"><g class="cls-10"/></mask><linearGradient id="Безымянный_градиент_70-2" x1="534.74" y1="-2930.84" x2="737.15" y2="-2930.84" gradientTransform="translate(758.57 -2862.5) rotate(180)" xlink:href="#Безымянный_градиент_70"/><filter id="luminosity-noclip-3" x="267.53" y="47.64" width="202.4" height="41.4" filterUnits="userSpaceOnUse" color-interpolation-filters="sRGB"><feFlood flood-color="#fff" result="bg"/><feBlend in="SourceGraphic" in2="bg"/></filter><mask id="mask-3" x="267.53" y="47.64" width="202.4" height="41.4" maskUnits="userSpaceOnUse"><g class="cls-1"><rect class="cls-2" x="267.53" y="47.64" width="202.4" height="41.4"/></g></mask><linearGradient id="Безымянный_градиент_10" x1="267.53" y1="68.34" x2="469.93" y2="68.34" gradientUnits="userSpaceOnUse"><stop offset="0" stop-color="#00d0ff"/><stop offset="0.02" stop-color="#01cdf6"/><stop offset="0.09" stop-color="#05c5db"/><stop offset="0.17" stop-color="#08bec5"/><stop offset="0.27" stop-color="#0bb9b4"/><stop offset="0.38" stop-color="#0db6a9"/><stop offset="0.55" stop-color="#0eb4a2"/><stop offset="1" stop-color="#0eb3a0"/></linearGradient><filter id="luminosity-noclip-4" x="21.42" y="47.64" width="202.4" height="41.4" filterUnits="userSpaceOnUse" color-interpolation-filters="sRGB"><feFlood flood-color="#fff" result="bg"/><feBlend in="SourceGraphic" in2="bg"/></filter><mask id="mask-4" x="21.42" y="47.64" width="202.4" height="41.4" maskUnits="userSpaceOnUse"><g class="cls-3"><rect class="cls-4" x="21.42" y="47.64" width="202.4" height="41.4"/></g></mask><linearGradient id="Безымянный_градиент_10-2" x1="534.74" y1="-2930.84" x2="737.15" y2="-2930.84" gradientTransform="translate(758.57 -2862.5) rotate(180)" xlink:href="#Безымянный_градиент_10"/></defs><title>main_profile_buttons</title><g id="Layer_2" data-name="Layer 2"><g id="Layer_1-2" data-name="Layer 1"><path class="cls-5" d="M145.72,41.36h-1.6"/><polygon class="cls-5" points="284.64 97.04 259.37 97.04 259.37 39.64 284.64 39.64 292.54 29.11 259.37 29.11 248.84 29.11 248.84 39.64 248.84 97.04 248.84 107.57 259.37 107.57 292.54 107.57 284.64 97.04"/><polygon class="cls-5" points="206.71 39.64 231.99 39.64 231.99 97.04 206.71 97.04 198.81 107.57 231.99 107.57 242.52 107.57 242.52 97.04 242.52 39.64 242.52 29.11 231.99 29.11 198.81 29.11 206.71 39.64"/><polygon class="cls-5" points="19.27 97.04 14.7 97.04 14.7 39.64 39.98 39.64 47.87 29.11 14.7 29.11 4.17 29.11 4.17 39.64 4.17 97.04 4.17 107.57 3.88 107.57 19.27 97.04"/><polygon class="cls-5" points="470.64 39.64 476.94 39.64 476.94 97.04 451.67 97.04 443.77 107.57 476.94 107.57 487.47 107.57 487.47 97.04 487.47 39.64 487.47 29.11 487.76 29.11 470.64 39.64"/><g class="cls-6"><rect class="cls-7" x="267.53" y="47.64" width="202.4" height="41.4"/></g><g class="cls-8"><rect class="cls-9" x="21.42" y="47.64" width="202.4" height="41.4"/></g><path class="cls-5" d="M470.32,89.43H267.14V47.25H470.32Zm-202.4-.78H469.54V48H267.92Z"/><path class="cls-5" d="M224.22,89.43H21V47.25H224.22ZM21.81,88.65H223.44V48H21.81Z"/><path class="cls-5" d="M241.65,127.18a.39.39,0,0,1-.39-.39V111.65H189.47a.37.37,0,0,1-.35-.22.37.37,0,0,1,0-.41l10.27-12.73H24.85L7.7,109.86a.39.39,0,0,1-.44-.64L24.51,97.57a.43.43,0,0,1,.22-.06H200.25a.37.37,0,0,1,.35.22.38.38,0,0,1,0,.41l-10.27,12.74h51.36a.38.38,0,0,1,.39.38v15.53A.38.38,0,0,1,241.65,127.18Z"/><path class="cls-5" d="M464.18,39.2H289.52a.38.38,0,0,1-.31-.62l9-12.31H249a.4.4,0,0,1-.39-.39V.43A.4.4,0,0,1,249,0a.39.39,0,0,1,.39.39V25.49H299a.39.39,0,0,1,.35.21.4.4,0,0,1,0,.41l-9,12.31H464.07l18-11.58a.38.38,0,0,1,.53.12.39.39,0,0,1-.11.54L464.39,39.14A.37.37,0,0,1,464.18,39.2Z"/><polygon class="cls-5" points="249.25 11.8 244.96 14.66 244.96 2.86 249.25 0 249.25 11.8"/><polygon class="cls-5" points="313.51 34.51 316.38 38.8 328.18 38.8 325.32 34.51 313.51 34.51"/><polygon class="cls-5" points="330.33 34.51 333.2 38.8 345 38.8 342.14 34.51 330.33 34.51"/><polygon class="cls-5" points="347.15 34.51 350.01 38.8 361.82 38.8 358.96 34.51 347.15 34.51"/><polygon class="cls-5" points="363.97 34.51 366.83 38.8 378.64 38.8 375.77 34.51 363.97 34.51"/><polygon class="cls-5" points="392.59 34.51 380.79 34.51 383.65 38.8 395.45 38.8 392.59 34.51"/><polygon class="cls-5" points="357.07 88.85 359.93 93.14 371.74 93.14 368.88 88.85 357.07 88.85"/><polygon class="cls-5" points="373.89 88.85 376.75 93.14 388.56 93.14 385.69 88.85 373.89 88.85"/><polygon class="cls-5" points="390.71 88.85 393.57 93.14 405.37 93.14 402.51 88.85 390.71 88.85"/><polygon class="cls-5" points="407.53 88.85 410.39 93.14 422.19 93.14 419.33 88.85 407.53 88.85"/><polygon class="cls-5" points="436.15 88.85 424.35 88.85 427.21 93.14 439.01 93.14 436.15 88.85"/><polygon class="cls-5" points="4.29 29.33 0 32.14 0 43.76 4.29 40.94 4.29 29.33"/><polygon class="cls-5" points="4.29 45.88 0 48.7 0 60.31 4.29 57.49 4.29 45.88"/><polygon class="cls-5" points="4.29 62.43 0 65.25 0 76.86 4.29 74.05 4.29 62.43"/><polygon class="cls-5" points="4.29 78.99 0 81.8 0 93.42 4.29 90.6 4.29 78.99"/><polygon class="cls-5" points="4.29 107.16 4.29 95.54 0 98.36 0 109.97 4.29 107.16"/><polygon class="cls-5" points="487.04 107.1 491.33 104.28 491.33 92.67 487.04 95.48 487.04 107.1"/><polygon class="cls-5" points="487.04 90.54 491.33 87.73 491.33 76.11 487.04 78.93 487.04 90.54"/><polygon class="cls-5" points="487.04 73.99 491.33 71.17 491.33 59.56 487.04 62.37 487.04 73.99"/><polygon class="cls-5" points="487.04 57.44 491.33 54.62 491.33 43 487.04 45.82 487.04 57.44"/><polygon class="cls-5" points="487.04 29.27 487.04 40.88 491.33 38.07 491.33 26.45 487.04 29.27"/><polygon class="cls-5" points="241.64 126.95 237.35 129.81 237.35 118.01 241.64 115.15 241.64 126.95"/><path class="cls-5" d="M60.2,31.76v4.3h8v2.6h-8l-2.6-2.6v-6.9l2.6,2.6v-2.6h8l1.3,2.6Zm10.6.7h0v6.2l-2.6-2.6v-.9H62.7v-2.6h8.1Z"/><path class="cls-5" d="M74,31.76v4.3h9.5v2.6H74l-2.6-2.6v-6.9Zm10.7-2.7-2.6,2.6h-8v-2.6Zm-9.2,6v-2.6h8.1l-1.9,2.6Z"/><polygon class="cls-5" points="98.3 29.06 95.7 31.66 89.6 31.66 85.4 31.66 85.4 29.06 98.3 29.06"/><polyline class="cls-5" points="92.6 39.96 89.6 37.36 89.6 31.76 92.6 33.56 92.6 39.96"/><path class="cls-5" d="M105.1,29.06v9.5h-2.6v-9.5Z"/><path class="cls-5" d="M109.1,29.06l8.2,9.5h-3.5l-8.1-9.5Zm-3.3,9.6v-7.8l2.6,3v4.8Zm11.6-9.6v7.8l-2.6-3v-4.8Z"/><polygon class="cls-5" points="134.5 29.06 131.9 31.66 125.8 31.66 121.6 31.66 121.6 29.06 134.5 29.06"/><polyline class="cls-5" points="128.8 39.96 125.8 37.36 125.8 31.76 128.8 33.56 128.8 39.96"/><path class="cls-5" d="M145.8,29.06l2.6,2.6v6.9H137.8L135.2,36v-6.9l2.6,2.6V36h8v-4.3h-8v-2.6Z"/><path class="cls-5" d="M151.7,29.06V36h8v2.6h-8L149.1,36v-6.9Zm8,0h2.6v9.5L159.7,36Z"/><path class="cls-5" d="M165.6,36.06h9.3l-1.3,2.6h-8l-2.6-2.6v-6.9l2.6,2.6Zm9.3-7v2.6h-9.3v-2.6Z"/><path class="cls-5" d="M178.2,29.06v3.3h6.9L183.2,35h-5v3.6h-2.6v-9.5Zm6.9,0h2.6v9.5h-2.6v-9.5Z"/></g></g></svg>