<svg xmlns="http://www.w3.org/2000/svg" xmlns:xlink="http://www.w3.org/1999/xlink" viewBox="0 0 496.75 97.87"><defs><style>.cls-1{mask:url(#mask);filter:url(#luminosity-noclip-3);}.cls-2,.cls-4{mix-blend-mode:multiply;}.cls-2{fill:url(#Безымянный_градиент_107);}.cls-3{mask:url(#mask-2);filter:url(#luminosity-noclip-4);}.cls-4{fill:url(#Безымянный_градиент_107-2);}.cls-5{mask:url(#mask-3);}.cls-10,.cls-11,.cls-12,.cls-13,.cls-14,.cls-15,.cls-16,.cls-17,.cls-18,.cls-19,.cls-6,.cls-7,.cls-9{fill:#11e5b3;}.cls-6{opacity:0.6;}.cls-7{opacity:0.2;}.cls-8{mask:url(#mask-4);}.cls-10{opacity:0.7;}.cls-11{opacity:0.4;}.cls-12{opacity:0.3;}.cls-13{opacity:0.9;}.cls-14{opacity:0.8;}.cls-15{opacity:0.5;}.cls-16{opacity:0.03;}.cls-17{opacity:0.09;}.cls-18{opacity:0.1;}.cls-19{opacity:0.05;}.cls-20{filter:url(#luminosity-noclip-2);}.cls-21{filter:url(#luminosity-noclip);}</style><filter id="luminosity-noclip" x="0" y="-8241.12" width="380.29" height="32766" filterUnits="userSpaceOnUse" color-interpolation-filters="sRGB"><feFlood flood-color="#fff" result="bg"/><feBlend in="SourceGraphic" in2="bg"/></filter><mask id="mask" x="0" y="-8241.12" width="380.29" height="32766" maskUnits="userSpaceOnUse"><g class="cls-21"/></mask><linearGradient id="Безымянный_градиент_107" y1="31.67" x2="380.29" y2="31.67" gradientUnits="userSpaceOnUse"><stop offset="0" stop-color="#fff"/><stop offset="0.15" stop-color="#cecece"/><stop offset="0.38" stop-color="#868686"/><stop offset="0.59" stop-color="#4c4c4c"/><stop offset="0.77" stop-color="#232323"/><stop offset="0.92" stop-color="#090909"/><stop offset="1"/></linearGradient><filter id="luminosity-noclip-2" x="268.11" y="-8241.12" width="103" height="32766" filterUnits="userSpaceOnUse" color-interpolation-filters="sRGB"><feFlood flood-color="#fff" result="bg"/><feBlend in="SourceGraphic" in2="bg"/></filter><mask id="mask-2" x="268.11" y="-8241.12" width="103" height="32766" maskUnits="userSpaceOnUse"><g class="cls-20"/></mask><linearGradient id="Безымянный_градиент_107-2" x1="268.11" y1="57.33" x2="371.1" y2="57.33" xlink:href="#Безымянный_градиент_107"/><filter id="luminosity-noclip-3" x="0" y="5.46" width="380.29" height="52.42" filterUnits="userSpaceOnUse" color-interpolation-filters="sRGB"><feFlood flood-color="#fff" result="bg"/><feBlend in="SourceGraphic" in2="bg"/></filter><mask id="mask-3" x="0" y="5.46" width="380.29" height="52.42" maskUnits="userSpaceOnUse"><g class="cls-1"><polygon class="cls-2" points="380.29 5.46 52.42 5.46 0 57.88 327.87 57.88 380.29 5.46"/></g></mask><filter id="luminosity-noclip-4" x="268.11" y="50.24" width="103" height="14.2" filterUnits="userSpaceOnUse" color-interpolation-filters="sRGB"><feFlood flood-color="#fff" result="bg"/><feBlend in="SourceGraphic" in2="bg"/></filter><mask id="mask-4" x="268.11" y="50.24" width="103" height="14.2" maskUnits="userSpaceOnUse"><g class="cls-3"><polygon class="cls-4" points="371.1 50.24 282.3 50.24 268.11 64.43 356.9 64.43 371.1 50.24"/></g></mask></defs><title>main_offer_slide_green_2</title><g id="Layer_2" data-name="Layer 2"><g id="Layer_1-2" data-name="Layer 1"><g class="cls-5"><polygon class="cls-6" points="380.29 5.46 52.42 5.46 0 57.88 327.87 57.88 380.29 5.46"/></g><polygon class="cls-7" points="387.39 18.57 59.52 18.57 7.1 70.98 334.97 70.98 387.39 18.57"/><g class="cls-8"><polygon class="cls-6" points="371.1 50.24 282.3 50.24 268.11 64.43 356.9 64.43 371.1 50.24"/></g><path class="cls-9" d="M335,71.73H7.1a.74.74,0,0,1-.53-1.27L59,18a.75.75,0,0,1,.53-.22H387.39a.73.73,0,0,1,.68.46.74.74,0,0,1-.16.81L335.49,71.51A.73.73,0,0,1,335,71.73ZM8.89,70.25H334.66L385.6,19.31H59.83Z"/><path class="cls-9" d="M489.65,82.92H210.08a.74.74,0,0,1-.58-1.2l8.73-10.92a.75.75,0,0,1,1-.12.74.74,0,0,1,.12,1l-7.77,9.72h278a.74.74,0,1,1,0,1.48Z"/><path class="cls-9" d="M496.75,82.73a4.1,4.1,0,1,1-4.1-4.1A4.1,4.1,0,0,1,496.75,82.73Z"/><polygon class="cls-10" points="286.94 86.28 275.44 86.28 263.87 97.87 275.37 97.87 286.94 86.28"/><polygon class="cls-6" points="309.13 86.28 297.62 86.28 286.06 97.87 297.56 97.87 309.13 86.28"/><polygon class="cls-11" points="353.51 86.28 342 86.28 330.43 97.87 341.94 97.87 353.51 86.28"/><polygon class="cls-12" points="375.7 86.28 364.19 86.28 352.62 97.87 364.13 97.87 375.7 86.28"/><polygon class="cls-13" points="242.56 86.28 231.06 86.28 219.49 97.87 230.99 97.87 242.56 86.28"/><polygon class="cls-9" points="197.3 97.87 208.8 97.87 220.37 86.28 208.87 86.28 197.3 97.87"/><polygon class="cls-14" points="264.75 86.28 253.25 86.28 241.68 97.87 253.18 97.87 264.75 86.28"/><polygon class="cls-15" points="331.32 86.28 319.81 86.28 308.24 97.87 319.75 97.87 331.32 86.28"/><polygon class="cls-16" points="486.64 86.28 475.13 86.28 463.57 97.87 475.07 97.87 486.64 86.28"/><polygon class="cls-17" points="442.26 86.28 430.76 86.28 419.19 97.87 430.69 97.87 442.26 86.28"/><polygon class="cls-18" points="420.07 86.28 408.57 86.28 397 97.87 408.5 97.87 420.07 86.28"/><polygon class="cls-19" points="464.45 86.28 452.95 86.28 441.38 97.87 452.88 97.87 464.45 86.28"/><polygon class="cls-7" points="397.88 86.28 386.38 86.28 374.81 97.87 386.31 97.87 397.88 86.28"/><polygon class="cls-10" points="107.84 0 96.33 0 84.76 11.6 96.27 11.6 107.84 0"/><polygon class="cls-6" points="130.03 0 118.52 0 106.95 11.6 118.46 11.6 130.03 0"/><polygon class="cls-11" points="174.41 0 162.9 0 151.33 11.6 162.84 11.6 174.41 0"/><polygon class="cls-12" points="196.59 0 185.09 0 173.52 11.6 185.03 11.6 196.59 0"/><polygon class="cls-13" points="63.46 0 51.96 0 40.39 11.6 51.89 11.6 63.46 0"/><polygon class="cls-9" points="18.2 11.6 29.7 11.6 41.27 0 29.77 0 18.2 11.6"/><polygon class="cls-14" points="85.65 0 74.14 0 62.58 11.6 74.08 11.6 85.65 0"/><polygon class="cls-15" points="152.22 0 140.71 0 129.14 11.6 140.65 11.6 152.22 0"/><polygon class="cls-16" points="307.54 0 296.03 0 284.46 11.6 295.97 11.6 307.54 0"/><polygon class="cls-17" points="263.16 0 251.66 0 240.09 11.6 251.59 11.6 263.16 0"/><polygon class="cls-18" points="240.97 0 229.47 0 217.9 11.6 229.4 11.6 240.97 0"/><polygon class="cls-19" points="285.35 0 273.85 0 262.28 11.6 273.78 11.6 285.35 0"/><polygon class="cls-7" points="218.78 0 207.28 0 195.71 11.6 207.21 11.6 218.78 0"/><path class="cls-9" d="M347,67.59v3.88h8.05l-2.25,3H347v4.13h-3V67.59Zm8.05,0h3V78.65h-3V67.59Z"/><path class="cls-9" d="M371.16,67.59l3,3v8h-12.3l-3-3,0-8,3,3v5h9.31v-5h-9.31v-3Z"/><path class="cls-9" d="M390,67.59l-3,3H375v-3Zm-6.64,12.57-3.46-3V70.63l3.46,2Z"/></g></g></svg>