<svg xmlns="http://www.w3.org/2000/svg" viewBox="0 0 494.71 168.63"><defs><style>.cls-1,.cls-2{fill:#00d0ff;}.cls-1{opacity:0.2;}</style></defs><title>main_advertisment_1</title><g id="Layer_2" data-name="Layer 2"><g id="Layer_1-2" data-name="Layer 1"><path class="cls-1" d="M14.3,157.72H470.38v-72l10.32-15v-48a12.39,12.39,0,0,0-12.39-12.38h-13.7L425,42.91H128.84L111.3,26.41H49.39l-9.14-16h-27A12.38,12.38,0,0,0,.89,22.79v51.3L14.3,83.67Z"/><path class="cls-2" d="M470.38,158.61H14.3a.89.89,0,0,1-.89-.89V84.13l-13-9.31A.91.91,0,0,1,0,74.09V22.79A13.29,13.29,0,0,1,13.27,9.52h27A.88.88,0,0,1,41,10L49.9,25.52h61.4a.89.89,0,0,1,.61.24L129.19,42H424.58L454,9.81a.92.92,0,0,1,.66-.29h13.7a13.3,13.3,0,0,1,13.28,13.27v48a.93.93,0,0,1-.16.51L471.27,86v71.71A.89.89,0,0,1,470.38,158.61ZM15.19,156.83h454.3V85.74a.92.92,0,0,1,.15-.51L479.81,70.5V22.79a11.51,11.51,0,0,0-11.5-11.49H455L425.63,43.51a.86.86,0,0,1-.65.29H128.84a.85.85,0,0,1-.61-.24L110.94,27.3H49.39a.92.92,0,0,1-.78-.45L39.73,11.3H13.27A11.51,11.51,0,0,0,1.78,22.79V73.63l13,9.32a.86.86,0,0,1,.37.72Z"/><polygon class="cls-2" points="115.42 30.53 129.28 30.53 137.53 37.29 189.13 37.29 197.38 39.54 252.59 39.54 258.26 42.91 129.28 42.91 115.42 30.53"/><path class="cls-2" d="M21,157.28V79l-15-11.35V23.83s3.09-10.32,16.51-9.29H36.49L46.81,33.63h9.8l2.58-6.19-9.8-1h0l-9.14-16h-27A12.34,12.34,0,0,0,4,14.66a15.47,15.47,0,0,0-2.84,5.83,12.45,12.45,0,0,0-.22,2.3V74c2.51.82,13.41,9.7,13.41,9.7v73.61H14L2.64,168.63H13l6.71-6.19H64.55l10.83-5.16Z"/><path class="cls-2" d="M491.9,158.27H475.05V79l5.65-8.19.51-42.3c0-19.61-12.9-18.06-12.9-18.06h-13.7L425,42.91H365.13l5.16,4.65h56.23l29.41-30.44h11.35c10.32.51,7.22,11.35,7.22,11.35V69.74l-4.12,7.74v8.26l.18-.27v72.8H303.15l6.75,3.21h66.84l7.87,2.41h110.1Z"/><path class="cls-2" d="M162,27.3H111.72a.89.89,0,0,1,0-1.78h50l13.8-10.91a.84.84,0,0,1,.55-.19H380.54a.89.89,0,0,1,0,1.78H176.37l-13.8,10.9A.87.87,0,0,1,162,27.3Z"/><polygon class="cls-2" points="342.62 14.88 352.73 10.39 379.13 10.39 380.54 14.88 342.62 14.88"/><polygon class="cls-2" points="287 152.51 297.12 148.02 323.52 148.02 324.92 152.51 287 152.51"/><polygon class="cls-2" points="28.9 147.32 28.01 147.32 28.01 77.87 12 64.38 12 42.27 12.89 42.27 12.89 63.97 28.9 77.45 28.9 147.32"/><polygon class="cls-2" points="428.61 53.95 413.82 53.95 413.82 53.06 428.24 53.06 457.32 23.98 457.95 24.61 428.61 53.95"/><polygon class="cls-2" points="465.38 153.38 287.43 153.38 287.43 152.49 464.5 152.49 464.5 107.43 465.38 107.43 465.38 153.38"/><polygon class="cls-2" points="273.38 51.14 126.59 51.14 105.25 32.04 78.45 32.04 78.45 31.15 105.59 31.15 126.94 50.25 273.38 50.25 273.38 51.14"/><path class="cls-2" d="M181.67,8.89h12L192,12.26H181.67l-3.31-3.37V0l3.31,3.37Zm12-8.89V3.37h-12V0Z"/><path class="cls-2" d="M197.87,0V8.89H208.2v3.37H197.87l-3.31-3.37V0ZM208.2,0h3.31V12.26L208.2,8.89Z"/><path class="cls-2" d="M215.72,3.37v1h13.65v7.94L226,8.89V7.69H212.41V0Zm-3.31,8.89,3.31-3.37H226v3.37ZM229.37,0,226,3.37H215.72V0Z"/><path class="cls-2" d="M246.9,0l-3.31,3.37H230.27V0Zm-7.36,13.93-3.84-3.36V3.37l3.84,2.26Z"/><path class="cls-2" d="M261.44,0l3.32,3.37v8.89H251.11l-3.29-3.37,0-8.89,3.31,3.37V8.89h10.33V3.37H251.11V0Z"/><path class="cls-2" d="M275,8V2.27l3.35,4.64v5.35h-4.19L265.66,0h3.79Zm-9.35,4.25v-10l3.76,5.15v4.84ZM279.14,0l8.51,12.26h-4.12L275,0Z"/><path class="cls-2" d="M291.86,0V12.26h-3.31V0Z"/><path class="cls-2" d="M307.31,0l-3,3.37H292.76l3-3.37Zm-.51,7.69h-5.52l-7.22,4.57h-1.3V8.89l6.93-4.57h10.1ZM301,8.89h9.33l-3,3.37H296Zm8.86-5.52h-4.48L308.42,0h1.39Z"/><path class="cls-2" d="M314.49,3.37V8.89h12.24v3.37H314.49l-3.31-3.37V0ZM328.13,0,324.8,3.37H314.49V0ZM316.31,7.69V4.3h10.44l-2.51,3.39Z"/></g></g></svg>