<svg xmlns="http://www.w3.org/2000/svg" xmlns:xlink="http://www.w3.org/1999/xlink" viewBox="0 0 491.98 203.1"><defs><style>.cls-1{mask:url(#mask);filter:url(#luminosity-noclip-6);}.cls-10,.cls-2,.cls-4,.cls-6,.cls-8{mix-blend-mode:multiply;}.cls-2{fill:url(#Безымянный_градиент_90);}.cls-3{mask:url(#mask-2);filter:url(#luminosity-noclip-7);}.cls-4{fill:url(#Безымянный_градиент_86);}.cls-5{mask:url(#mask-3);filter:url(#luminosity-noclip-8);}.cls-6{fill:url(#Безымянный_градиент_86-2);}.cls-7{mask:url(#mask-4);filter:url(#luminosity-noclip-9);}.cls-8{fill:url(#Безымянный_градиент_86-3);}.cls-9{mask:url(#mask-5);filter:url(#luminosity-noclip-10);}.cls-10{fill:url(#Безымянный_градиент_86-4);}.cls-11{fill:#00d0ff;}.cls-12{mask:url(#mask-6);}.cls-13,.cls-19{opacity:0.6;}.cls-13{fill:url(#Безымянный_градиент_4);}.cls-14{mask:url(#mask-7);}.cls-15{opacity:0.2;fill:url(#Безымянный_градиент_7);}.cls-16{mask:url(#mask-8);}.cls-17{opacity:0.4;fill:url(#Безымянный_градиент_7-2);}.cls-18{mask:url(#mask-9);}.cls-19{fill:url(#Безымянный_градиент_7-3);}.cls-20{mask:url(#mask-10);}.cls-21{opacity:0.1;fill:url(#Безымянный_градиент_7-4);}.cls-22{filter:url(#luminosity-noclip-5);}.cls-23{filter:url(#luminosity-noclip-4);}.cls-24{filter:url(#luminosity-noclip-3);}.cls-25{filter:url(#luminosity-noclip-2);}.cls-26{filter:url(#luminosity-noclip);}</style><filter id="luminosity-noclip" x="0.91" y="-8290.68" width="475.12" height="32766" filterUnits="userSpaceOnUse" color-interpolation-filters="sRGB"><feFlood flood-color="#fff" result="bg"/><feBlend in="SourceGraphic" in2="bg"/></filter><mask id="mask" x="0.91" y="-8290.68" width="475.12" height="32766" maskUnits="userSpaceOnUse"><g class="cls-26"/></mask><linearGradient id="Безымянный_градиент_90" x1="238.47" y1="136.63" x2="238.47" y2="20.59" gradientUnits="userSpaceOnUse"><stop offset="0" stop-color="#fff"/><stop offset="0.07" stop-color="#d8d8d8"/><stop offset="0.16" stop-color="#a6a6a6"/><stop offset="0.26" stop-color="#797979"/><stop offset="0.37" stop-color="#545454"/><stop offset="0.47" stop-color="#353535"/><stop offset="0.58" stop-color="#1e1e1e"/><stop offset="0.7" stop-color="#0d0d0d"/><stop offset="0.83" stop-color="#030303"/><stop offset="1"/></linearGradient><filter id="luminosity-noclip-2" x="33.04" y="-8290.68" width="138.75" height="32766" filterUnits="userSpaceOnUse" color-interpolation-filters="sRGB"><feFlood flood-color="#fff" result="bg"/><feBlend in="SourceGraphic" in2="bg"/></filter><mask id="mask-2" x="33.04" y="-8290.68" width="138.75" height="32766" maskUnits="userSpaceOnUse"><g class="cls-25"/></mask><linearGradient id="Безымянный_градиент_86" x1="31.62" y1="181.26" x2="384.05" y2="181.26" gradientUnits="userSpaceOnUse"><stop offset="0" stop-color="#fff"/><stop offset="0.01" stop-color="#f6f6f6"/><stop offset="0.05" stop-color="#c8c8c8"/><stop offset="0.09" stop-color="#9d9d9d"/><stop offset="0.14" stop-color="#777"/><stop offset="0.2" stop-color="#575757"/><stop offset="0.25" stop-color="#3b3b3b"/><stop offset="0.32" stop-color="#252525"/><stop offset="0.4" stop-color="#141414"/><stop offset="0.49" stop-color="#090909"/><stop offset="0.63" stop-color="#020202"/><stop offset="1"/></linearGradient><filter id="luminosity-noclip-3" x="16.67" y="-8290.68" width="137.54" height="32766" filterUnits="userSpaceOnUse" color-interpolation-filters="sRGB"><feFlood flood-color="#fff" result="bg"/><feBlend in="SourceGraphic" in2="bg"/></filter><mask id="mask-3" x="16.67" y="-8290.68" width="137.54" height="32766" maskUnits="userSpaceOnUse"><g class="cls-24"/></mask><linearGradient id="Безымянный_градиент_86-2" x1="15.26" y1="165.88" x2="364.62" y2="165.88" xlink:href="#Безымянный_градиент_86"/><filter id="luminosity-noclip-4" x="0.91" y="-8290.68" width="135.72" height="32766" filterUnits="userSpaceOnUse" color-interpolation-filters="sRGB"><feFlood flood-color="#fff" result="bg"/><feBlend in="SourceGraphic" in2="bg"/></filter><mask id="mask-4" x="0.91" y="-8290.68" width="135.72" height="32766" maskUnits="userSpaceOnUse"><g class="cls-23"/></mask><linearGradient id="Безымянный_градиент_86-3" x1="-0.48" y1="150.78" x2="344.26" y2="150.78" xlink:href="#Безымянный_градиент_86"/><filter id="luminosity-noclip-5" x="49.41" y="-8290.68" width="139.31" height="32766" filterUnits="userSpaceOnUse" color-interpolation-filters="sRGB"><feFlood flood-color="#fff" result="bg"/><feBlend in="SourceGraphic" in2="bg"/></filter><mask id="mask-5" x="49.41" y="-8290.68" width="139.31" height="32766" maskUnits="userSpaceOnUse"><g class="cls-22"/></mask><linearGradient id="Безымянный_градиент_86-4" x1="47.98" y1="196.36" x2="401.83" y2="196.36" xlink:href="#Безымянный_градиент_86"/><filter id="luminosity-noclip-6" x="0.91" y="20.59" width="475.12" height="115.57" filterUnits="userSpaceOnUse" color-interpolation-filters="sRGB"><feFlood flood-color="#fff" result="bg"/><feBlend in="SourceGraphic" in2="bg"/></filter><mask id="mask-6" x="0.91" y="20.59" width="475.12" height="115.57" maskUnits="userSpaceOnUse"><g class="cls-1"><polygon class="cls-2" points="121.23 136.16 199.13 67.99 476.03 67.99 476.03 20.59 123.89 20.59 0.91 136.16 121.23 136.16"/></g></mask><linearGradient id="Безымянный_градиент_4" x1="238.47" y1="136.63" x2="238.47" y2="20.59" gradientUnits="userSpaceOnUse"><stop offset="0" stop-color="#00d0ff"/><stop offset="0.05" stop-color="#02ccf4"/><stop offset="0.21" stop-color="#06c3d5"/><stop offset="0.38" stop-color="#0abcbe"/><stop offset="0.56" stop-color="#0cb7ad"/><stop offset="0.75" stop-color="#0eb4a3"/><stop offset="1" stop-color="#0eb3a0"/></linearGradient><filter id="luminosity-noclip-7" x="33.04" y="174.24" width="138.75" height="14.05" filterUnits="userSpaceOnUse" color-interpolation-filters="sRGB"><feFlood flood-color="#fff" result="bg"/><feBlend in="SourceGraphic" in2="bg"/></filter><mask id="mask-7" x="33.04" y="174.24" width="138.75" height="14.05" maskUnits="userSpaceOnUse"><g class="cls-3"><polygon class="cls-4" points="155.74 174.24 33.04 174.24 47.99 188.28 171.79 188.28 155.74 174.24"/></g></mask><linearGradient id="Безымянный_градиент_7" x1="31.62" y1="181.26" x2="384.05" y2="181.26" gradientUnits="userSpaceOnUse"><stop offset="0" stop-color="#00d0ff"/><stop offset="0.02" stop-color="#01cdf6"/><stop offset="0.09" stop-color="#05c5db"/><stop offset="0.17" stop-color="#08bec5"/><stop offset="0.27" stop-color="#0bb9b4"/><stop offset="0.38" stop-color="#0db6a9"/><stop offset="0.55" stop-color="#0eb4a2"/><stop offset="1" stop-color="#0eb3a0"/></linearGradient><filter id="luminosity-noclip-8" x="16.67" y="158.85" width="137.54" height="14.05" filterUnits="userSpaceOnUse" color-interpolation-filters="sRGB"><feFlood flood-color="#fff" result="bg"/><feBlend in="SourceGraphic" in2="bg"/></filter><mask id="mask-8" x="16.67" y="158.85" width="137.54" height="14.05" maskUnits="userSpaceOnUse"><g class="cls-5"><polygon class="cls-6" points="31.62 172.9 154.21 172.9 138.16 158.85 16.67 158.85 31.62 172.9"/></g></mask><linearGradient id="Безымянный_градиент_7-2" x1="15.26" y1="165.88" x2="364.62" y2="165.88" xlink:href="#Безымянный_градиент_7"/><filter id="luminosity-noclip-9" x="0.91" y="144.04" width="135.72" height="13.47" filterUnits="userSpaceOnUse" color-interpolation-filters="sRGB"><feFlood flood-color="#fff" result="bg"/><feBlend in="SourceGraphic" in2="bg"/></filter><mask id="mask-9" x="0.91" y="144.04" width="135.72" height="13.47" maskUnits="userSpaceOnUse"><g class="cls-7"><polygon class="cls-8" points="136.63 157.51 121.23 144.04 0.91 144.04 15.24 157.51 136.63 157.51"/></g></mask><linearGradient id="Безымянный_градиент_7-3" x1="-0.48" y1="150.78" x2="344.26" y2="150.78" xlink:href="#Безымянный_градиент_7"/><filter id="luminosity-noclip-10" x="49.41" y="189.62" width="139.31" height="13.47" filterUnits="userSpaceOnUse" color-interpolation-filters="sRGB"><feFlood flood-color="#fff" result="bg"/><feBlend in="SourceGraphic" in2="bg"/></filter><mask id="mask-10" x="49.41" y="189.62" width="139.31" height="13.47" maskUnits="userSpaceOnUse"><g class="cls-9"><polygon class="cls-10" points="173.32 189.62 49.41 189.62 63.75 203.1 188.72 203.1 173.32 189.62"/></g></mask><linearGradient id="Безымянный_градиент_7-4" x1="47.98" y1="196.36" x2="401.83" y2="196.36" xlink:href="#Безымянный_градиент_7"/></defs><title>menu_07</title><g id="Layer_2" data-name="Layer 2"><g id="Layer_1-2" data-name="Layer 1"><path class="cls-11" d="M241.16,14.82h-9.31V.1h2v13h7.35Z"/><path class="cls-11" d="M252.38,9.3A6.25,6.25,0,0,1,251,13.57a5.2,5.2,0,0,1-7.43,0,6.25,6.25,0,0,1-1.38-4.27A6.2,6.2,0,0,1,243.57,5,5.18,5.18,0,0,1,251,5,6.2,6.2,0,0,1,252.38,9.3Zm-1.91,0a5,5,0,0,0-.84-3.18,3.14,3.14,0,0,0-4.69,0,5.06,5.06,0,0,0-.83,3.18,5,5,0,0,0,.84,3.15,3.07,3.07,0,0,0,4.67,0A5,5,0,0,0,250.47,9.3Z"/><path class="cls-11" d="M262.15,5.8h-.1a7.9,7.9,0,0,0-.8-.14,8.38,8.38,0,0,0-.93,0,3.76,3.76,0,0,0-1.66.38,7.81,7.81,0,0,0-1.54,1v7.84h-1.86v-11h1.86V5.41a9.49,9.49,0,0,1,1.95-1.26,4.24,4.24,0,0,1,1.73-.37l.7,0,.65.1Z"/><path class="cls-11" d="M273.15,9.49H265a4.64,4.64,0,0,0,.31,1.78,3.32,3.32,0,0,0,.84,1.24,3.44,3.44,0,0,0,1.22.71,4.82,4.82,0,0,0,1.56.24,6.2,6.2,0,0,0,2.27-.45,5.51,5.51,0,0,0,1.62-.89h.1v2a16.1,16.1,0,0,1-1.92.66,7.68,7.68,0,0,1-2.05.27,5.91,5.91,0,0,1-4.29-1.49,5.6,5.6,0,0,1-1.55-4.23,6.1,6.1,0,0,1,1.48-4.3,5.07,5.07,0,0,1,3.89-1.59,4.48,4.48,0,0,1,3.45,1.31,5.27,5.27,0,0,1,1.21,3.7Zm-1.81-1.42a3.3,3.3,0,0,0-.74-2.27,2.84,2.84,0,0,0-2.21-.8,3.26,3.26,0,0,0-2.38.88,3.44,3.44,0,0,0-1,2.19Z"/><path class="cls-11" d="M292.08,14.82h-1.86V8.53c0-.47,0-.93-.06-1.37a2.82,2.82,0,0,0-.27-1.06,1.49,1.49,0,0,0-.65-.64A2.73,2.73,0,0,0,288,5.24a3.46,3.46,0,0,0-1.56.39,9.64,9.64,0,0,0-1.56,1c0,.16,0,.33,0,.53s0,.4,0,.6v7.07H283.1V8.53c0-.48,0-.95-.07-1.39a2.82,2.82,0,0,0-.27-1,1.49,1.49,0,0,0-.65-.64,2.9,2.9,0,0,0-1.23-.21,3.46,3.46,0,0,0-1.53.38,8.73,8.73,0,0,0-1.52,1v8.24H276v-11h1.86V5a8.05,8.05,0,0,1,1.73-1.12,4.3,4.3,0,0,1,1.84-.41,3.62,3.62,0,0,1,1.92.48,2.92,2.92,0,0,1,1.17,1.31,9.26,9.26,0,0,1,2.06-1.37,4.75,4.75,0,0,1,2-.42,3.22,3.22,0,0,1,2.69,1.1,4.93,4.93,0,0,1,.86,3.08Z"/><path class="cls-11" d="M304.78,1.93h-2.1V0h2.1Zm-.12,12.89H302.8v-11h1.86Z"/><path class="cls-11" d="M316.23,11.64A3,3,0,0,1,315,14.12a5.43,5.43,0,0,1-3.42,1,8.34,8.34,0,0,1-2.25-.29,10.51,10.51,0,0,1-1.71-.64V12.07h.1a7.34,7.34,0,0,0,1.95,1.06,6.09,6.09,0,0,0,2.07.39,3.92,3.92,0,0,0,1.92-.4,1.33,1.33,0,0,0,.69-1.25,1.21,1.21,0,0,0-.38-1,3.31,3.31,0,0,0-1.44-.58c-.26-.06-.61-.13-1-.2s-.81-.17-1.16-.26a4,4,0,0,1-2.07-1.13,2.85,2.85,0,0,1-.6-1.84,3,3,0,0,1,.28-1.28,3.11,3.11,0,0,1,.85-1.08,4.09,4.09,0,0,1,1.41-.74,6.36,6.36,0,0,1,1.92-.27,8.74,8.74,0,0,1,2,.24,7.41,7.41,0,0,1,1.68.59v2h-.1A6.53,6.53,0,0,0,314,5.44a5.9,5.9,0,0,0-2-.36,3.47,3.47,0,0,0-1.72.39,1.26,1.26,0,0,0-.71,1.16,1.26,1.26,0,0,0,.43,1,3.39,3.39,0,0,0,1.34.57c.35.08.73.15,1.16.23l1.06.22a4,4,0,0,1,2,1A2.71,2.71,0,0,1,316.23,11.64Z"/><path class="cls-11" d="M328.61,9.17a7.36,7.36,0,0,1-.39,2.45,5.33,5.33,0,0,1-1.09,1.89,4.62,4.62,0,0,1-1.53,1.13,4.47,4.47,0,0,1-1.88.4,5.72,5.72,0,0,1-1.55-.19,6.25,6.25,0,0,1-1.42-.58V18.9h-1.86V3.78h1.86V4.93a7.39,7.39,0,0,1,1.66-1,4.75,4.75,0,0,1,2-.42A3.65,3.65,0,0,1,327.5,5,6.93,6.93,0,0,1,328.61,9.17Zm-1.92.05a5.33,5.33,0,0,0-.68-3,2.39,2.39,0,0,0-2.1-1,4.1,4.1,0,0,0-1.61.35,7,7,0,0,0-1.55.91v6.25a7.39,7.39,0,0,0,1.36.49,5.63,5.63,0,0,0,1.29.13,3,3,0,0,0,2.42-1A4.75,4.75,0,0,0,326.69,9.22Z"/><path class="cls-11" d="M340.66,14.82H338.8V13.6a8.68,8.68,0,0,1-1.8,1.13,4.37,4.37,0,0,1-1.9.4,3.52,3.52,0,0,1-2.71-1.06,4.52,4.52,0,0,1-1-3.12V3.78h1.85v6.29a11.43,11.43,0,0,0,.08,1.43,2.84,2.84,0,0,0,.34,1,1.6,1.6,0,0,0,.69.63,3.1,3.1,0,0,0,1.24.2,4,4,0,0,0,1.58-.38,7.16,7.16,0,0,0,1.59-1V3.78h1.86Z"/><path class="cls-11" d="M360.44,14.82h-1.86V8.53a12.19,12.19,0,0,0-.07-1.37,2.82,2.82,0,0,0-.27-1.06,1.49,1.49,0,0,0-.65-.64,2.68,2.68,0,0,0-1.23-.22,3.46,3.46,0,0,0-1.56.39,9.64,9.64,0,0,0-1.56,1c0,.16,0,.33.05.53s0,.4,0,.6v7.07h-1.86V8.53a12.43,12.43,0,0,0-.07-1.39,2.82,2.82,0,0,0-.27-1,1.49,1.49,0,0,0-.65-.64,2.83,2.83,0,0,0-1.23-.21,3.45,3.45,0,0,0-1.52.38,9.18,9.18,0,0,0-1.53,1v8.24h-1.86v-11h1.86V5a8.3,8.3,0,0,1,1.73-1.12,4.31,4.31,0,0,1,1.85-.41,3.59,3.59,0,0,1,1.91.48,2.86,2.86,0,0,1,1.17,1.31,9.26,9.26,0,0,1,2.06-1.37,4.77,4.77,0,0,1,2-.42,3.21,3.21,0,0,1,2.68,1.1,4.86,4.86,0,0,1,.87,3.08Z"/><g class="cls-12"><polygon class="cls-13" points="121.23 136.16 199.13 67.99 476.03 67.99 476.03 20.59 123.89 20.59 0.91 136.16 121.23 136.16"/></g><path class="cls-11" d="M121.23,137.07H.91a.91.91,0,0,1-.85-.58.9.9,0,0,1,.23-1l123-115.57a.9.9,0,0,1,.62-.25H476a.91.91,0,0,1,.91.91V68a.91.91,0,0,1-.91.91H199.47l-77.64,67.94A.9.9,0,0,1,121.23,137.07Zm-118-1.82H120.89l77.65-67.94a.86.86,0,0,1,.59-.23h276V21.49H124.25Z"/><path class="cls-11" d="M423.76,202.33H199a.43.43,0,0,1-.31-.12L132.49,142a.45.45,0,0,1-.11-.49.43.43,0,0,1,.42-.29H364.56a.44.44,0,0,1,.43.31.46.46,0,0,1-.16.51L347.1,154.92a.44.44,0,0,1-.27.09H251.19a.46.46,0,0,1-.46-.46.45.45,0,0,1,.46-.45h95.5l16.47-12H134l65.22,59.29H423.61l12.93-8.95a.5.5,0,0,1,.26-.08H491a.46.46,0,0,1,.45.46.45.45,0,0,1-.45.45h-54L424,202.25A.44.44,0,0,1,423.76,202.33Z"/><g class="cls-14"><polygon class="cls-15" points="155.74 174.24 33.04 174.24 47.99 188.28 171.79 188.28 155.74 174.24"/></g><g class="cls-16"><polygon class="cls-17" points="31.62 172.9 154.21 172.9 138.16 158.85 16.67 158.85 31.62 172.9"/></g><g class="cls-18"><polygon class="cls-19" points="136.63 157.51 121.23 144.04 0.91 144.04 15.24 157.51 136.63 157.51"/></g><g class="cls-20"><polygon class="cls-21" points="173.32 189.62 49.41 189.62 63.75 203.1 188.72 203.1 173.32 189.62"/></g><polygon class="cls-11" points="354.99 148.53 367.33 148.53 379.61 137.16 324.76 137.16 314.06 141.85 364.56 141.68 354.99 148.53"/><path class="cls-11" d="M190.32,193.35h56.85l4,4.68h105l8.69,4L199,201.88S189.65,190.67,190.32,193.35Z"/><polygon class="cls-11" points="136.81 123.12 154.87 117.77 172.26 103.05 181.62 100.38 204.37 75.63 251.19 75.63 262.56 68.27 199.13 67.99 136.81 123.12"/><polygon class="cls-11" points="26.45 112.42 30.46 103.05 72.6 60.91 78.62 58.91 105.37 32.15 115.41 6.74 164.9 6.74 164.9 20.45 130.79 20.11 26.45 112.42"/><rect class="cls-11" x="168.92" y="6.74" width="8.03" height="14.71"/><rect class="cls-11" x="180.95" y="6.74" width="8.03" height="14.71"/><rect class="cls-11" x="192.99" y="6.74" width="8.03" height="14.71"/><rect class="cls-11" x="275.26" y="135.16" width="8.03" height="6.69"/><rect class="cls-11" x="287.3" y="135.16" width="8.03" height="6.69"/><rect class="cls-11" x="299.34" y="135.16" width="8.03" height="6.69"/><rect class="cls-11" x="459.87" y="186.66" width="8.03" height="6.69"/><rect class="cls-11" x="471.91" y="186.66" width="8.03" height="6.69"/><rect class="cls-11" x="483.95" y="186.66" width="8.03" height="6.69"/><polygon class="cls-11" points="476.59 44.86 476.59 36.83 491.31 27.8 491.31 44.86 476.59 44.86"/><rect class="cls-11" x="476.59" y="48.87" width="14.71" height="8.03"/><rect class="cls-11" x="476.59" y="60.91" width="14.71" height="8.03"/><polygon class="cls-11" points="376.26 20.11 387.63 14.76 427.1 14.76 441.14 10.08 489.97 10.08 489.97 21.45 475.25 31.48 475.25 20.59 376.26 20.11"/><polygon class="cls-11" points="225.77 141.85 219.08 149.87 195.67 149.87 183.63 145.19 147.51 145.19 166.24 163.92 169.58 175.96 132.8 141.68 225.77 141.85"/></g></g></svg>