<svg xmlns="http://www.w3.org/2000/svg" xmlns:xlink="http://www.w3.org/1999/xlink" viewBox="0 0 493.11 187.66"><defs><style>.cls-1{mask:url(#mask);filter:url(#luminosity-noclip-3);}.cls-2,.cls-4{mix-blend-mode:multiply;}.cls-2{fill:url(#Безымянный_градиент_73);}.cls-3{mask:url(#mask-2);filter:url(#luminosity-noclip-4);}.cls-4{fill:url(#Безымянный_градиент_72);}.cls-11,.cls-12,.cls-13,.cls-14,.cls-15,.cls-16,.cls-17,.cls-18,.cls-19,.cls-5,.cls-8{fill:#00d0ff;}.cls-6{mask:url(#mask-3);}.cls-7{fill:url(#Безымянный_градиент_30);}.cls-8{opacity:0.2;}.cls-9{mask:url(#mask-4);}.cls-10{fill:url(#Безымянный_градиент_10);}.cls-11{opacity:0.9;}.cls-12{opacity:0.8;}.cls-13{opacity:0.7;}.cls-14{opacity:0.6;}.cls-15{opacity:0.5;}.cls-16{opacity:0.4;}.cls-17{opacity:0.3;}.cls-18{opacity:0.1;}.cls-19{opacity:0.05;}.cls-20{filter:url(#luminosity-noclip-2);}.cls-21{filter:url(#luminosity-noclip);}</style><filter id="luminosity-noclip" x="66.93" y="-8291" width="397" height="32766" filterUnits="userSpaceOnUse" color-interpolation-filters="sRGB"><feFlood flood-color="#fff" result="bg"/><feBlend in="SourceGraphic" in2="bg"/></filter><mask id="mask" x="66.93" y="-8291" width="397" height="32766" maskUnits="userSpaceOnUse"><g class="cls-21"/></mask><linearGradient id="Безымянный_градиент_73" x1="265.43" y1="135.67" x2="265.43" y2="45.22" gradientUnits="userSpaceOnUse"><stop offset="0" stop-color="#fff"/><stop offset="0" stop-color="#f6f6f6"/><stop offset="0.02" stop-color="#c8c8c8"/><stop offset="0.04" stop-color="#9d9d9d"/><stop offset="0.06" stop-color="#777"/><stop offset="0.08" stop-color="#575757"/><stop offset="0.11" stop-color="#3b3b3b"/><stop offset="0.14" stop-color="#252525"/><stop offset="0.17" stop-color="#141414"/><stop offset="0.21" stop-color="#090909"/><stop offset="0.27" stop-color="#020202"/><stop offset="0.43"/><stop offset="0.64" stop-color="#020202"/><stop offset="0.72" stop-color="#090909"/><stop offset="0.77" stop-color="#141414"/><stop offset="0.82" stop-color="#252525"/><stop offset="0.86" stop-color="#3b3b3b"/><stop offset="0.89" stop-color="#575757"/><stop offset="0.92" stop-color="#777"/><stop offset="0.95" stop-color="#9d9d9d"/><stop offset="0.97" stop-color="#c8c8c8"/><stop offset="1" stop-color="#f6f6f6"/><stop offset="1" stop-color="#fff"/></linearGradient><filter id="luminosity-noclip-2" x="5.98" y="-8291" width="146.93" height="32766" filterUnits="userSpaceOnUse" color-interpolation-filters="sRGB"><feFlood flood-color="#fff" result="bg"/><feBlend in="SourceGraphic" in2="bg"/></filter><mask id="mask-2" x="5.98" y="-8291" width="146.93" height="32766" maskUnits="userSpaceOnUse"><g class="cls-20"/></mask><linearGradient id="Безымянный_градиент_72" x1="5.98" y1="142.44" x2="401.08" y2="142.44" gradientUnits="userSpaceOnUse"><stop offset="0" stop-color="#fff"/><stop offset="0.01" stop-color="#f6f6f6"/><stop offset="0.05" stop-color="#c8c8c8"/><stop offset="0.09" stop-color="#9d9d9d"/><stop offset="0.14" stop-color="#777"/><stop offset="0.2" stop-color="#575757"/><stop offset="0.25" stop-color="#3b3b3b"/><stop offset="0.32" stop-color="#252525"/><stop offset="0.4" stop-color="#141414"/><stop offset="0.49" stop-color="#090909"/><stop offset="0.63" stop-color="#020202"/><stop offset="1"/></linearGradient><filter id="luminosity-noclip-3" x="66.93" y="45.22" width="397" height="90.44" filterUnits="userSpaceOnUse" color-interpolation-filters="sRGB"><feFlood flood-color="#fff" result="bg"/><feBlend in="SourceGraphic" in2="bg"/></filter><mask id="mask-3" x="66.93" y="45.22" width="397" height="90.44" maskUnits="userSpaceOnUse"><g class="cls-1"><path class="cls-2" d="M463.93,121.38a14.32,14.32,0,0,1-14.35,14.29H81.28a14.32,14.32,0,0,1-14.35-14.29V59.5A14.31,14.31,0,0,1,81.28,45.22h368.3A14.31,14.31,0,0,1,463.93,59.5Z"/></g></mask><linearGradient id="Безымянный_градиент_30" x1="265.43" y1="135.67" x2="265.43" y2="45.22" gradientUnits="userSpaceOnUse"><stop offset="0" stop-color="#00d0ff"/><stop offset="0.01" stop-color="#01cdf6"/><stop offset="0.04" stop-color="#05c5db"/><stop offset="0.07" stop-color="#08bec5"/><stop offset="0.11" stop-color="#0bb9b4"/><stop offset="0.16" stop-color="#0db6a9"/><stop offset="0.23" stop-color="#0eb4a2"/><stop offset="0.43" stop-color="#0eb3a0"/><stop offset="0.69" stop-color="#0eb4a2"/><stop offset="0.78" stop-color="#0db6a9"/><stop offset="0.85" stop-color="#0bb9b4"/><stop offset="0.9" stop-color="#08bec5"/><stop offset="0.95" stop-color="#05c5db"/><stop offset="0.99" stop-color="#01cdf6"/><stop offset="1" stop-color="#00d0ff"/></linearGradient><filter id="luminosity-noclip-4" x="5.98" y="97.21" width="146.93" height="90.44" filterUnits="userSpaceOnUse" color-interpolation-filters="sRGB"><feFlood flood-color="#fff" result="bg"/><feBlend in="SourceGraphic" in2="bg"/></filter><mask id="mask-4" x="5.98" y="97.21" width="146.93" height="90.44" maskUnits="userSpaceOnUse"><g class="cls-3"><path class="cls-4" d="M152.92,160.1H76.13a27.64,27.64,0,0,1-27.61-27.61V97.21H20.26A14.29,14.29,0,0,0,6,111.49v61.89a14.29,14.29,0,0,0,14.28,14.28H152.92Z"/></g></mask><linearGradient id="Безымянный_градиент_10" x1="5.98" y1="142.44" x2="401.08" y2="142.44" gradientUnits="userSpaceOnUse"><stop offset="0" stop-color="#00d0ff"/><stop offset="0.02" stop-color="#01cdf6"/><stop offset="0.09" stop-color="#05c5db"/><stop offset="0.17" stop-color="#08bec5"/><stop offset="0.27" stop-color="#0bb9b4"/><stop offset="0.38" stop-color="#0db6a9"/><stop offset="0.55" stop-color="#0eb4a2"/><stop offset="1" stop-color="#0eb3a0"/></linearGradient></defs><title>menu_04</title><g id="Layer_2" data-name="Layer 2"><g id="Layer_1-2" data-name="Layer 1"><path class="cls-5" d="M204.61,17.24H195.1v-15h2V15.46h7.51Z"/><path class="cls-5" d="M216.07,11.61A6.28,6.28,0,0,1,214.65,16a5.31,5.31,0,0,1-7.58,0,6.32,6.32,0,0,1-1.41-4.35,6.37,6.37,0,0,1,1.41-4.36,5.29,5.29,0,0,1,7.58,0A6.32,6.32,0,0,1,216.07,11.61Zm-2,0a5.16,5.16,0,0,0-.86-3.26,3.22,3.22,0,0,0-4.78,0,5.17,5.17,0,0,0-.85,3.26,5.08,5.08,0,0,0,.86,3.21,3.14,3.14,0,0,0,4.77,0A5.11,5.11,0,0,0,214.11,11.61Z"/><path class="cls-5" d="M226,8h-.1a6.48,6.48,0,0,0-.82-.15,8.66,8.66,0,0,0-1,0,3.87,3.87,0,0,0-1.69.39,8,8,0,0,0-1.58,1v8H219V6h1.9V7.63a9.4,9.4,0,0,1,2-1.28A4.28,4.28,0,0,1,224.66,6l.71,0,.67.1Z"/><path class="cls-5" d="M237.26,11.8H229a4.76,4.76,0,0,0,.31,1.81,3.32,3.32,0,0,0,.86,1.27,3.57,3.57,0,0,0,1.24.73,5,5,0,0,0,1.59.24,6.23,6.23,0,0,0,2.32-.46,5.92,5.92,0,0,0,1.66-.9h.1v2.06a15.14,15.14,0,0,1-2,.68,8,8,0,0,1-2.1.27A6,6,0,0,1,228.6,16,5.7,5.7,0,0,1,227,11.67a6.18,6.18,0,0,1,1.51-4.39,5.17,5.17,0,0,1,4-1.63A4.57,4.57,0,0,1,236,7a5.36,5.36,0,0,1,1.23,3.78Zm-1.84-1.45A3.33,3.33,0,0,0,234.66,8a2.86,2.86,0,0,0-2.25-.82,3.28,3.28,0,0,0-2.43.9,3.49,3.49,0,0,0-1,2.23Z"/><path class="cls-5" d="M256.59,17.24h-1.9V10.82c0-.48,0-1-.06-1.4a3.13,3.13,0,0,0-.28-1.08,1.58,1.58,0,0,0-.67-.66,2.92,2.92,0,0,0-1.25-.22,3.47,3.47,0,0,0-1.59.4,10.09,10.09,0,0,0-1.6,1c0,.16,0,.34,0,.54s0,.41,0,.61v7.22h-1.89V10.82c0-.5,0-1-.07-1.42a2.92,2.92,0,0,0-.28-1.07,1.43,1.43,0,0,0-.66-.65,2.82,2.82,0,0,0-1.26-.22,3.57,3.57,0,0,0-1.55.38,9.39,9.39,0,0,0-1.56,1v8.42h-1.9V6H242V7.22a8.07,8.07,0,0,1,1.77-1.15,4.31,4.31,0,0,1,1.88-.42,3.71,3.71,0,0,1,1.95.49,2.94,2.94,0,0,1,1.2,1.34,9.9,9.9,0,0,1,2.1-1.4,5,5,0,0,1,2-.43,3.28,3.28,0,0,1,2.74,1.13,5,5,0,0,1,.88,3.14Z"/><path class="cls-5" d="M269.55,4.08h-2.14v-2h2.14Zm-.12,13.16h-1.9V6h1.9Z"/><path class="cls-5" d="M281.24,14A3.06,3.06,0,0,1,280,16.52a5.55,5.55,0,0,1-3.49,1,8.64,8.64,0,0,1-2.29-.29,9.79,9.79,0,0,1-1.75-.66V14.44h.1a7.67,7.67,0,0,0,2,1.07,6,6,0,0,0,2.1.4,4.07,4.07,0,0,0,2-.4,1.38,1.38,0,0,0,.71-1.28,1.31,1.31,0,0,0-.38-1,3.61,3.61,0,0,0-1.48-.58l-1.05-.21c-.44-.08-.83-.17-1.19-.27A3.88,3.88,0,0,1,273.1,11a2.83,2.83,0,0,1-.62-1.87,3.1,3.1,0,0,1,.28-1.32,3.37,3.37,0,0,1,.88-1.1A4.25,4.25,0,0,1,275.08,6,6.56,6.56,0,0,1,277,5.69a9,9,0,0,1,2,.25,8.12,8.12,0,0,1,1.72.6v2h-.1a6.46,6.46,0,0,0-1.76-.9,6,6,0,0,0-2-.37,3.52,3.52,0,0,0-1.76.4,1.27,1.27,0,0,0-.72,1.18,1.26,1.26,0,0,0,.44,1,3.34,3.34,0,0,0,1.37.58l1.18.24,1.08.22a4.11,4.11,0,0,1,2,1A2.74,2.74,0,0,1,281.24,14Z"/><path class="cls-5" d="M293.87,11.47a7.73,7.73,0,0,1-.39,2.51,5.51,5.51,0,0,1-1.11,1.92,4.56,4.56,0,0,1-1.57,1.15,4.46,4.46,0,0,1-1.91.41,6,6,0,0,1-1.59-.19,6.51,6.51,0,0,1-1.45-.59V21.4H284V6h1.9V7.15a7.2,7.2,0,0,1,1.7-1.07,4.9,4.9,0,0,1,2-.43,3.75,3.75,0,0,1,3.18,1.54A7.07,7.07,0,0,1,293.87,11.47Zm-1.95,0a5.43,5.43,0,0,0-.7-3,2.44,2.44,0,0,0-2.14-1,4.29,4.29,0,0,0-1.65.35,7.7,7.7,0,0,0-1.58.93v6.39a8,8,0,0,0,1.39.5,6.38,6.38,0,0,0,1.31.13A3.05,3.05,0,0,0,291,14.69,4.89,4.89,0,0,0,291.92,11.52Z"/><path class="cls-5" d="M306.18,17.24h-1.9V16a9.39,9.39,0,0,1-1.84,1.16,4.55,4.55,0,0,1-1.94.4,3.56,3.56,0,0,1-2.76-1.08,4.58,4.58,0,0,1-1-3.19V6h1.9v6.42a10.24,10.24,0,0,0,.08,1.46,2.71,2.71,0,0,0,.34,1.05,1.64,1.64,0,0,0,.71.65,3.18,3.18,0,0,0,1.26.2,4,4,0,0,0,1.61-.39,7.35,7.35,0,0,0,1.63-1V6h1.9Z"/><path class="cls-5" d="M326.36,17.24h-1.89V10.82c0-.48,0-1-.07-1.4a2.92,2.92,0,0,0-.28-1.08,1.5,1.5,0,0,0-.66-.66,3,3,0,0,0-1.26-.22,3.47,3.47,0,0,0-1.59.4,10,10,0,0,0-1.59,1c0,.16,0,.34.05.54s0,.41,0,.61v7.22h-1.9V10.82a12.86,12.86,0,0,0-.07-1.42,2.93,2.93,0,0,0-.27-1.07,1.5,1.5,0,0,0-.67-.65,2.8,2.8,0,0,0-1.25-.22,3.58,3.58,0,0,0-1.56.38,10.29,10.29,0,0,0-1.56,1v8.42h-1.9V6h1.9V7.22a8.07,8.07,0,0,1,1.77-1.15,4.34,4.34,0,0,1,1.88-.42,3.77,3.77,0,0,1,2,.49,3,3,0,0,1,1.19,1.34,9.9,9.9,0,0,1,2.1-1.4,5,5,0,0,1,2-.43,3.27,3.27,0,0,1,2.74,1.13,5,5,0,0,1,.88,3.14Z"/><polygon class="cls-5" points="491.44 14.98 491.44 13.38 491.91 13.38 491.44 13.02 491.44 3.13 488.45 0.58 487.77 0 487.77 10.23 484.88 8.04 450.92 8.04 448.31 9.71 436.47 9.71 433.92 12.7 433.33 13.38 487.77 13.38 487.77 58.58 493.11 51.55 493.11 17.59 491.44 14.98"/><polygon class="cls-5" points="43.33 8.69 41.74 8.69 41.74 8.21 41.38 8.69 31.49 8.69 28.94 11.68 28.36 12.36 38.59 12.36 36.4 15.25 36.4 49.21 38.06 51.82 38.06 63.66 41.05 66.21 41.74 66.8 41.74 12.36 86.94 12.36 79.9 7.02 45.95 7.02 43.33 8.69"/><g class="cls-6"><path class="cls-7" d="M463.93,121.38a14.32,14.32,0,0,1-14.35,14.29H81.28a14.32,14.32,0,0,1-14.35-14.29V59.5A14.31,14.31,0,0,1,81.28,45.22h368.3A14.31,14.31,0,0,1,463.93,59.5Z"/></g><path class="cls-5" d="M447.75,45.22A14.28,14.28,0,0,1,462,59.5v61.88a14.29,14.29,0,0,1-14.28,14.29H81.21a14.28,14.28,0,0,1-14.28-14.29V59.5A14.28,14.28,0,0,1,81.21,45.22H447.75m0-4.3H81.21A18.6,18.6,0,0,0,62.62,59.5v61.88A18.61,18.61,0,0,0,81.21,140H447.75a18.61,18.61,0,0,0,18.58-18.59V59.5a18.6,18.6,0,0,0-18.58-18.58Z"/><path class="cls-8" d="M86.92,129h325V93.72a14.28,14.28,0,0,0-14.28-14.28H72.64v35.28A14.28,14.28,0,0,0,86.92,129Z"/><g class="cls-9"><path class="cls-10" d="M152.92,160.1H76.13a27.64,27.64,0,0,1-27.61-27.61V97.21H20.26A14.29,14.29,0,0,0,6,111.49v61.89a14.29,14.29,0,0,0,14.28,14.28H152.92Z"/></g><path class="cls-5" d="M64.07,78.29a5.87,5.87,0,0,0-1.59-.22A5.94,5.94,0,0,0,56.54,84V96.88a5.94,5.94,0,0,0,5.94,5.94,5.87,5.87,0,0,0,1.59-.22Z"/><path class="cls-5" d="M465.29,78.29A5.93,5.93,0,0,1,472.82,84V96.88a5.93,5.93,0,0,1-7.53,5.72Z"/><path class="cls-5" d="M58.68,92.68H42.17a.87.87,0,0,1-.86-.86V12.48a.86.86,0,0,1,.86-.86H146.9a.86.86,0,1,1,0,1.72H43V91H58.68a.86.86,0,0,1,0,1.72Z"/><path class="cls-5" d="M487.73,92.68h-16.5a.86.86,0,0,1,0-1.72h15.64V13.34H383a.86.86,0,0,1,0-1.72H487.73a.85.85,0,0,1,.86.86V91.82A.86.86,0,0,1,487.73,92.68Z"/><path class="cls-5" d="M81.53,72.14a4.45,4.45,0,0,1-4.45,4.45h0a4.44,4.44,0,0,1-4.44-4.45V55.64a4.44,4.44,0,0,1,4.44-4.44h0a4.44,4.44,0,0,1,4.45,4.44Z"/><path class="cls-11" d="M94.52,72.14a4.44,4.44,0,0,1-4.44,4.45h0a4.44,4.44,0,0,1-4.44-4.45V55.64a4.44,4.44,0,0,1,4.44-4.44h0a4.44,4.44,0,0,1,4.44,4.44Z"/><path class="cls-12" d="M107.52,72.14a4.44,4.44,0,0,1-4.44,4.45h0a4.44,4.44,0,0,1-4.44-4.45V55.64a4.44,4.44,0,0,1,4.44-4.44h0a4.44,4.44,0,0,1,4.44,4.44Z"/><path class="cls-13" d="M120.52,72.14a4.44,4.44,0,0,1-4.44,4.45h0a4.44,4.44,0,0,1-4.44-4.45V55.64a4.44,4.44,0,0,1,4.44-4.44h0a4.44,4.44,0,0,1,4.44,4.44Z"/><path class="cls-14" d="M133.52,72.14a4.44,4.44,0,0,1-4.44,4.45h0a4.45,4.45,0,0,1-4.45-4.45V55.64a4.44,4.44,0,0,1,4.45-4.44h0a4.44,4.44,0,0,1,4.44,4.44Z"/><path class="cls-15" d="M146.52,72.14a4.44,4.44,0,0,1-4.44,4.45h0a4.45,4.45,0,0,1-4.45-4.45V55.64a4.44,4.44,0,0,1,4.45-4.44h0a4.44,4.44,0,0,1,4.44,4.44Z"/><path class="cls-16" d="M159.52,72.14a4.45,4.45,0,0,1-4.45,4.45h0a4.44,4.44,0,0,1-4.44-4.45V55.64a4.44,4.44,0,0,1,4.44-4.44h0a4.44,4.44,0,0,1,4.45,4.44Z"/><path class="cls-17" d="M172.52,72.14a4.45,4.45,0,0,1-4.45,4.45h0a4.44,4.44,0,0,1-4.44-4.45V55.64a4.44,4.44,0,0,1,4.44-4.44h0a4.44,4.44,0,0,1,4.45,4.44Z"/><path class="cls-8" d="M185.51,72.14a4.44,4.44,0,0,1-4.44,4.45h0a4.44,4.44,0,0,1-4.44-4.45V55.64a4.44,4.44,0,0,1,4.44-4.44h0a4.44,4.44,0,0,1,4.44,4.44Z"/><path class="cls-18" d="M198.61,72.14a4.44,4.44,0,0,1-4.44,4.45h0a4.44,4.44,0,0,1-4.44-4.45V55.64a4.44,4.44,0,0,1,4.44-4.44h0a4.44,4.44,0,0,1,4.44,4.44Z"/><path class="cls-19" d="M211.72,72.14a4.45,4.45,0,0,1-4.45,4.45h0a4.44,4.44,0,0,1-4.44-4.45V55.64a4.44,4.44,0,0,1,4.44-4.44h0a4.44,4.44,0,0,1,4.45,4.44Z"/><path class="cls-5" d="M166.58,182a4.44,4.44,0,0,1-4.45,4.44h0a4.44,4.44,0,0,1-4.44-4.44V165.44a4.44,4.44,0,0,1,4.44-4.44h0a4.44,4.44,0,0,1,4.45,4.44Z"/><path class="cls-11" d="M179.57,182a4.44,4.44,0,0,1-4.44,4.44h0a4.44,4.44,0,0,1-4.44-4.44V165.44a4.44,4.44,0,0,1,4.44-4.44h0a4.44,4.44,0,0,1,4.44,4.44Z"/><path class="cls-12" d="M192.57,182a4.44,4.44,0,0,1-4.44,4.44h0a4.44,4.44,0,0,1-4.44-4.44V165.44a4.44,4.44,0,0,1,4.44-4.44h0a4.44,4.44,0,0,1,4.44,4.44Z"/><path class="cls-13" d="M205.57,182a4.44,4.44,0,0,1-4.44,4.44h0a4.44,4.44,0,0,1-4.44-4.44V165.44a4.44,4.44,0,0,1,4.44-4.44h0a4.44,4.44,0,0,1,4.44,4.44Z"/><path class="cls-14" d="M218.57,182a4.44,4.44,0,0,1-4.44,4.44h0a4.44,4.44,0,0,1-4.45-4.44V165.44a4.44,4.44,0,0,1,4.45-4.44h0a4.44,4.44,0,0,1,4.44,4.44Z"/><path class="cls-15" d="M231.57,182a4.44,4.44,0,0,1-4.44,4.44h0a4.44,4.44,0,0,1-4.45-4.44V165.44a4.44,4.44,0,0,1,4.45-4.44h0a4.44,4.44,0,0,1,4.44,4.44Z"/><path class="cls-16" d="M244.57,182a4.44,4.44,0,0,1-4.45,4.44h0a4.44,4.44,0,0,1-4.44-4.44V165.44a4.44,4.44,0,0,1,4.44-4.44h0a4.44,4.44,0,0,1,4.45,4.44Z"/><path class="cls-17" d="M257.56,182a4.44,4.44,0,0,1-4.44,4.44h0a4.44,4.44,0,0,1-4.44-4.44V165.44a4.44,4.44,0,0,1,4.44-4.44h0a4.44,4.44,0,0,1,4.44,4.44Z"/><path class="cls-8" d="M270.56,182a4.44,4.44,0,0,1-4.44,4.44h0a4.44,4.44,0,0,1-4.44-4.44V165.44a4.44,4.44,0,0,1,4.44-4.44h0a4.44,4.44,0,0,1,4.44,4.44Z"/><path class="cls-18" d="M283.66,182a4.44,4.44,0,0,1-4.44,4.44h0a4.44,4.44,0,0,1-4.44-4.44V165.44a4.44,4.44,0,0,1,4.44-4.44h0a4.44,4.44,0,0,1,4.44,4.44Z"/><path class="cls-19" d="M296.77,182a4.44,4.44,0,0,1-4.45,4.44h0a4.44,4.44,0,0,1-4.44-4.44V165.44a4.44,4.44,0,0,1,4.44-4.44h0a4.44,4.44,0,0,1,4.45,4.44Z"/><path class="cls-5" d="M.43,171.74a.43.43,0,0,1-.43-.43V107.53A15.9,15.9,0,0,1,5.5,96.14c6.7-5.65,16.91-4.79,17.34-4.75h7.1a.43.43,0,0,1,0,.86H22.8c-.14,0-10.33-.86-16.75,4.55A15,15,0,0,0,.86,107.56v63.75A.43.43,0,0,1,.43,171.74Z"/><path class="cls-5" d="M409.33,147.47a.44.44,0,0,1-.43-.43.43.43,0,0,1,.43-.43h43.32c.66,0,16.79-1.16,19.09-18.67V110.86a.43.43,0,0,1,.86,0V128c-2.4,18.28-19.75,19.46-19.92,19.47Z"/></g></g></svg>