<svg xmlns="http://www.w3.org/2000/svg" xmlns:xlink="http://www.w3.org/1999/xlink" viewBox="0 0 497.06 116.5"><defs><style>.cls-1{mask:url(#mask);filter:url(#luminosity-noclip-8);}.cls-10,.cls-2,.cls-4,.cls-6,.cls-8{mix-blend-mode:multiply;}.cls-2{fill:url(#linear-gradient);}.cls-3{mask:url(#mask-2);filter:url(#luminosity-noclip-13);}.cls-4{fill:url(#linear-gradient-2);}.cls-5{mask:url(#mask-3);filter:url(#luminosity-noclip-14);}.cls-6{fill:url(#linear-gradient-3);}.cls-11,.cls-7{mask:url(#mask-4);}.cls-7{filter:url(#luminosity-noclip-9);}.cls-8{fill:url(#linear-gradient-4);}.cls-12,.cls-9{mask:url(#mask-5);}.cls-9{filter:url(#luminosity-noclip-10);}.cls-10{fill:url(#linear-gradient-5);}.cls-13{fill:url(#New_Gradient_Swatch_5);}.cls-14{fill:url(#New_Gradient_Swatch_5-2);}.cls-15{fill:url(#New_Gradient_Swatch_5-3);}.cls-16{fill:url(#New_Gradient_Swatch_5-4);}.cls-17{fill:url(#New_Gradient_Swatch_5-7);}.cls-18{fill:url(#New_Gradient_Swatch_5-8);}.cls-19{fill:url(#New_Gradient_Swatch_5-9);}.cls-20{fill:url(#New_Gradient_Swatch_5-10);}.cls-21{fill:url(#New_Gradient_Swatch_5-11);}.cls-22{fill:url(#New_Gradient_Swatch_5-12);}.cls-23{fill:url(#New_Gradient_Swatch_5-13);}.cls-24{fill:url(#New_Gradient_Swatch_5-14);}.cls-25{fill:url(#New_Gradient_Swatch_5-15);}.cls-26{fill:url(#New_Gradient_Swatch_5-16);}.cls-27{fill:url(#New_Gradient_Swatch_5-17);}.cls-28{fill:url(#New_Gradient_Swatch_5-18);}.cls-29{fill:url(#New_Gradient_Swatch_5-19);}.cls-30{fill:url(#New_Gradient_Swatch_5-20);}.cls-31{fill:url(#New_Gradient_Swatch_5-21);}.cls-32{fill:url(#New_Gradient_Swatch_5-22);}.cls-33{fill:url(#New_Gradient_Swatch_5-23);}.cls-34{fill:url(#New_Gradient_Swatch_5-24);}.cls-35{fill:url(#New_Gradient_Swatch_5-25);}.cls-36{fill:url(#New_Gradient_Swatch_5-26);}.cls-37{mask:url(#mask-8);}.cls-38{fill:url(#New_Gradient_Swatch_5-27);}.cls-39{mask:url(#mask-9);}.cls-40{fill:url(#New_Gradient_Swatch_5-28);}.cls-41{mask:url(#mask-10);}.cls-42{fill:url(#New_Gradient_Swatch_5-29);}.cls-43{mask:url(#mask-13);}.cls-44{fill:url(#New_Gradient_Swatch_5-32);}.cls-45{mask:url(#mask-14);}.cls-46{fill:url(#New_Gradient_Swatch_5-33);}.cls-47{filter:url(#luminosity-noclip-5);}.cls-48{filter:url(#luminosity-noclip-4);}.cls-49{filter:url(#luminosity-noclip-3);}.cls-50{filter:url(#luminosity-noclip-2);}.cls-51{filter:url(#luminosity-noclip);}</style><filter id="luminosity-noclip" x="239.77" y="-8256.3" width="161.31" height="32766" filterUnits="userSpaceOnUse" color-interpolation-filters="sRGB"><feFlood flood-color="#fff" result="bg"/><feBlend in="SourceGraphic" in2="bg"/></filter><mask id="mask" x="239.77" y="-8256.3" width="161.31" height="32766" maskUnits="userSpaceOnUse"><g class="cls-51"/></mask><linearGradient id="linear-gradient" x1="238.69" y1="94.12" x2="401.07" y2="94.12" gradientUnits="userSpaceOnUse"><stop offset="0" stop-color="#fff"/><stop offset="0.07" stop-color="#e9e9e9"/><stop offset="0.42" stop-color="#878787"/><stop offset="0.7" stop-color="#3e3e3e"/><stop offset="0.9" stop-color="#111"/><stop offset="1"/></linearGradient><filter id="luminosity-noclip-2" x="65.56" y="-8256.3" width="25.38" height="32766" filterUnits="userSpaceOnUse" color-interpolation-filters="sRGB"><feFlood flood-color="#fff" result="bg"/><feBlend in="SourceGraphic" in2="bg"/></filter><mask id="mask-2" x="65.56" y="-8256.3" width="25.38" height="32766" maskUnits="userSpaceOnUse"><g class="cls-50"/></mask><linearGradient id="linear-gradient-2" x1="1029.8" y1="-2636.17" x2="1029.8" y2="-2583.73" gradientTransform="translate(-2518.17 -980.11) rotate(90)" xlink:href="#linear-gradient"/><filter id="luminosity-noclip-3" x="20.64" y="-8256.3" width="25.38" height="32766" filterUnits="userSpaceOnUse" color-interpolation-filters="sRGB"><feFlood flood-color="#fff" result="bg"/><feBlend in="SourceGraphic" in2="bg"/></filter><mask id="mask-3" x="20.64" y="-8256.3" width="25.38" height="32766" maskUnits="userSpaceOnUse"><g class="cls-49"/></mask><linearGradient id="linear-gradient-3" x1="-2560.76" y1="-960.03" x2="-2560.76" y2="-907.58" gradientTransform="translate(953.61 -2498.34) rotate(-90)" xlink:href="#linear-gradient"/><filter id="luminosity-noclip-4" x="46.96" y="-8256.3" width="4.93" height="32766" filterUnits="userSpaceOnUse" color-interpolation-filters="sRGB"><feFlood flood-color="#fff" result="bg"/><feBlend in="SourceGraphic" in2="bg"/></filter><mask id="mask-4" x="46.96" y="-8256.3" width="4.93" height="32766" maskUnits="userSpaceOnUse"><g class="cls-48"/></mask><linearGradient id="linear-gradient-4" x1="49.43" y1="-6.15" x2="49.43" y2="46.29" xlink:href="#linear-gradient"/><filter id="luminosity-noclip-5" x="59.68" y="-8256.3" width="4.93" height="32766" filterUnits="userSpaceOnUse" color-interpolation-filters="sRGB"><feFlood flood-color="#fff" result="bg"/><feBlend in="SourceGraphic" in2="bg"/></filter><mask id="mask-5" x="59.68" y="-8256.3" width="4.93" height="32766" maskUnits="userSpaceOnUse"><g class="cls-47"/></mask><linearGradient id="linear-gradient-5" x1="-1580.38" y1="-3590.04" x2="-1580.38" y2="-3537.6" gradientTransform="translate(-1518.23 -3471.78) rotate(180)" xlink:href="#linear-gradient"/><linearGradient id="New_Gradient_Swatch_5" x1="384.49" y1="81.87" x2="497.06" y2="81.87" gradientUnits="userSpaceOnUse"><stop offset="0" stop-color="#11e5b3"/><stop offset="0.14" stop-color="#15dcb8"/><stop offset="0.36" stop-color="#21c4c6"/><stop offset="0.64" stop-color="#359edc"/><stop offset="0.97" stop-color="#4f68fb"/><stop offset="1" stop-color="#5263fe"/></linearGradient><linearGradient id="New_Gradient_Swatch_5-2" x1="52.93" y1="55.88" x2="58.83" y2="55.88" xlink:href="#New_Gradient_Swatch_5"/><linearGradient id="New_Gradient_Swatch_5-3" x1="0" y1="55.88" x2="46.31" y2="55.88" xlink:href="#New_Gradient_Swatch_5"/><linearGradient id="New_Gradient_Swatch_5-4" x1="65.45" y1="55.88" x2="111.76" y2="55.88" xlink:href="#New_Gradient_Swatch_5"/><linearGradient id="New_Gradient_Swatch_5-7" x1="55.46" y1="23.16" x2="56.3" y2="23.16" xlink:href="#New_Gradient_Swatch_5"/><linearGradient id="New_Gradient_Swatch_5-8" x1="55.46" y1="88.6" x2="56.3" y2="88.6" xlink:href="#New_Gradient_Swatch_5"/><linearGradient id="New_Gradient_Swatch_5-9" x1="59.25" y1="76.93" x2="96.5" y2="76.93" xlink:href="#New_Gradient_Swatch_5"/><linearGradient id="New_Gradient_Swatch_5-10" x1="15.26" y1="76.93" x2="52.51" y2="76.93" xlink:href="#New_Gradient_Swatch_5"/><linearGradient id="New_Gradient_Swatch_5-11" x1="15.26" y1="34.83" x2="52.51" y2="34.83" xlink:href="#New_Gradient_Swatch_5"/><linearGradient id="New_Gradient_Swatch_5-12" x1="59.25" y1="34.83" x2="96.5" y2="34.83" xlink:href="#New_Gradient_Swatch_5"/><linearGradient id="New_Gradient_Swatch_5-13" x1="8.02" y1="55.88" x2="103.74" y2="55.88" xlink:href="#New_Gradient_Swatch_5"/><linearGradient id="New_Gradient_Swatch_5-14" x1="44.41" y1="55.88" x2="67.35" y2="55.88" xlink:href="#New_Gradient_Swatch_5"/><linearGradient id="New_Gradient_Swatch_5-15" x1="233.01" y1="105.03" x2="238.91" y2="105.03" xlink:href="#New_Gradient_Swatch_5"/><linearGradient id="New_Gradient_Swatch_5-16" x1="224.49" y1="105.03" x2="247.43" y2="105.03" xlink:href="#New_Gradient_Swatch_5"/><linearGradient id="New_Gradient_Swatch_5-17" x1="106.48" y1="67.13" x2="449.04" y2="67.13" xlink:href="#New_Gradient_Swatch_5"/><linearGradient id="New_Gradient_Swatch_5-18" x1="185.54" y1="71.34" x2="192.89" y2="71.34" xlink:href="#New_Gradient_Swatch_5"/><linearGradient id="New_Gradient_Swatch_5-19" x1="196.35" y1="71.22" x2="205.55" y2="71.22" xlink:href="#New_Gradient_Swatch_5"/><linearGradient id="New_Gradient_Swatch_5-20" x1="209.92" y1="73.06" x2="212.1" y2="73.06" xlink:href="#New_Gradient_Swatch_5"/><linearGradient id="New_Gradient_Swatch_5-21" x1="216.5" y1="71.37" x2="225.9" y2="71.37" xlink:href="#New_Gradient_Swatch_5"/><linearGradient id="New_Gradient_Swatch_5-22" x1="228.39" y1="71.37" x2="237.79" y2="71.37" xlink:href="#New_Gradient_Swatch_5"/><linearGradient id="New_Gradient_Swatch_5-23" x1="242.18" y1="73.06" x2="244.36" y2="73.06" xlink:href="#New_Gradient_Swatch_5"/><linearGradient id="New_Gradient_Swatch_5-24" x1="248.21" y1="71.36" x2="258.49" y2="71.36" xlink:href="#New_Gradient_Swatch_5"/><linearGradient id="New_Gradient_Swatch_5-25" x1="261.1" y1="71.5" x2="269.95" y2="71.5" xlink:href="#New_Gradient_Swatch_5"/><linearGradient id="New_Gradient_Swatch_5-26" x1="247.62" y1="96.66" x2="496.5" y2="96.66" xlink:href="#New_Gradient_Swatch_5"/><filter id="luminosity-noclip-8" x="239.77" y="87.89" width="161.31" height="12.46" filterUnits="userSpaceOnUse" color-interpolation-filters="sRGB"><feFlood flood-color="#fff" result="bg"/><feBlend in="SourceGraphic" in2="bg"/></filter><mask id="mask-8" x="239.77" y="87.89" width="161.31" height="12.46" maskUnits="userSpaceOnUse"><g class="cls-1"><path class="cls-2" d="M250.37,100.36H388.61l12.46-12.47H239.77C242.35,88.94,248.82,92.3,250.37,100.36Z"/></g></mask><linearGradient id="New_Gradient_Swatch_5-27" x1="239.77" y1="94.12" x2="401.07" y2="94.12" xlink:href="#New_Gradient_Swatch_5"/><filter id="luminosity-noclip-9" x="46.96" y="20.91" width="4.93" height="25.38" filterUnits="userSpaceOnUse" color-interpolation-filters="sRGB"><feFlood flood-color="#fff" result="bg"/><feBlend in="SourceGraphic" in2="bg"/></filter><mask id="mask-9" x="46.96" y="20.91" width="4.93" height="25.38" maskUnits="userSpaceOnUse"><g class="cls-7"><path class="cls-8" d="M47,21.47V46.29a19.92,19.92,0,0,1,4.93-4.35v-21A23,23,0,0,0,47,21.47Z"/></g></mask><linearGradient id="New_Gradient_Swatch_5-28" x1="46.96" y1="33.6" x2="51.89" y2="33.6" xlink:href="#New_Gradient_Swatch_5"/><filter id="luminosity-noclip-10" x="59.68" y="65.83" width="4.93" height="25.38" filterUnits="userSpaceOnUse" color-interpolation-filters="sRGB"><feFlood flood-color="#fff" result="bg"/><feBlend in="SourceGraphic" in2="bg"/></filter><mask id="mask-10" x="59.68" y="65.83" width="4.93" height="25.38" maskUnits="userSpaceOnUse"><g class="cls-9"><path class="cls-10" d="M64.62,90.65V65.83a19.87,19.87,0,0,1-4.94,4.35v21A23,23,0,0,0,64.62,90.65Z"/></g></mask><linearGradient id="New_Gradient_Swatch_5-29" x1="59.68" y1="78.52" x2="64.62" y2="78.52" xlink:href="#New_Gradient_Swatch_5"/><filter id="luminosity-noclip-13" x="65.56" y="47.23" width="25.38" height="4.93" filterUnits="userSpaceOnUse" color-interpolation-filters="sRGB"><feFlood flood-color="#fff" result="bg"/><feBlend in="SourceGraphic" in2="bg"/></filter><mask id="mask-13" x="65.56" y="47.23" width="25.38" height="4.93" maskUnits="userSpaceOnUse"><g class="cls-3"><path class="cls-4" d="M90.38,47.23H65.56a19.87,19.87,0,0,1,4.35,4.94h21A23,23,0,0,0,90.38,47.23Z"/></g></mask><linearGradient id="New_Gradient_Swatch_5-32" x1="65.56" y1="49.7" x2="90.93" y2="49.7" xlink:href="#New_Gradient_Swatch_5"/><filter id="luminosity-noclip-14" x="20.64" y="59.95" width="25.38" height="4.93" filterUnits="userSpaceOnUse" color-interpolation-filters="sRGB"><feFlood flood-color="#fff" result="bg"/><feBlend in="SourceGraphic" in2="bg"/></filter><mask id="mask-14" x="20.64" y="59.95" width="25.38" height="4.93" maskUnits="userSpaceOnUse"><g class="cls-5"><path class="cls-6" d="M21.2,64.89H46A19.87,19.87,0,0,1,41.67,60h-21A23,23,0,0,0,21.2,64.89Z"/></g></mask><linearGradient id="New_Gradient_Swatch_5-33" x1="20.64" y1="62.42" x2="46.02" y2="62.42" xlink:href="#New_Gradient_Swatch_5"/></defs><title>menu_14_green_blue</title><g id="Layer_2" data-name="Layer 2"><g id="Layer_1-2" data-name="Layer 1"><path class="cls-13" d="M496.54,83.22l-4.73-2.81a1,1,0,0,0-.54-.15H445.46l-6.13-1.67a.86.86,0,0,0-.28,0h-53.5a1.06,1.06,0,0,0-.8,1.75l3.93,4.52a1.06,1.06,0,0,0,.8.37H496a1.06,1.06,0,0,0,.55-2Z"/><path class="cls-14" d="M58.83,55.88a3,3,0,1,1-2.95-3A2.95,2.95,0,0,1,58.83,55.88Z"/><path class="cls-15" d="M45.89,56.3H.42a.42.42,0,0,1,0-.84H45.89a.42.42,0,0,1,0,.84Z"/><path class="cls-16" d="M111.34,56.3H65.87a.42.42,0,0,1,0-.84h45.47a.42.42,0,1,1,0,.84Z"/><path class="cls-15" d="M45.89,56.3H.42a.42.42,0,0,1,0-.84H45.89a.42.42,0,0,1,0,.84Z"/><path class="cls-16" d="M111.34,56.3H65.87a.42.42,0,0,1,0-.84h45.47a.42.42,0,1,1,0,.84Z"/><path class="cls-17" d="M55.88,46.31a.42.42,0,0,1-.42-.42V.42a.42.42,0,0,1,.84,0V45.89A.42.42,0,0,1,55.88,46.31Z"/><path class="cls-18" d="M55.88,111.76a.42.42,0,0,1-.42-.42V65.87a.42.42,0,1,1,.84,0v45.47A.42.42,0,0,1,55.88,111.76Z"/><path class="cls-19" d="M93.93,57.46A38.07,38.07,0,0,1,59.25,93.81V96.4A40.66,40.66,0,0,0,96.5,57.46Z"/><path class="cls-20" d="M52.51,93.81A38.07,38.07,0,0,1,17.83,57.46H15.26A40.66,40.66,0,0,0,52.51,96.4Z"/><path class="cls-21" d="M52.51,15.36A40.66,40.66,0,0,0,15.26,54.3h2.57A38.07,38.07,0,0,1,52.51,18Z"/><path class="cls-22" d="M59.25,15.36V18A38.07,38.07,0,0,1,93.93,54.3H96.5A40.66,40.66,0,0,0,59.25,15.36Z"/><path class="cls-23" d="M55.63,103.49h.5l1.58,0v.42A52.3,52.3,0,0,0,89.94,92.2V89.4a47.61,47.61,0,0,0,0-67v-2.8A52.3,52.3,0,0,0,57.71,7.88V8.3l-1.58,0h-.5l-1.58,0V7.88A52.3,52.3,0,0,0,21.82,19.56v2.8a47.61,47.61,0,0,0,0,67v2.8a52.3,52.3,0,0,0,32.23,11.68v-.42Zm-1.58-1.71v-.57a49.57,49.57,0,0,1-16.31-3,45.95,45.95,0,0,1,0-84.62,49.57,49.57,0,0,1,16.31-3V10c.53,0,1.05,0,1.58,0h.5c.53,0,1,0,1.58,0v.56a49.57,49.57,0,0,1,16.31,3,45.95,45.95,0,0,1,0,84.62,49.57,49.57,0,0,1-16.31,3v.57l-1.58,0h-.5Z"/><path class="cls-24" d="M66.2,55.88a10.84,10.84,0,0,0-.12-1.62h1.27a11.6,11.6,0,0,0-9.85-9.85v1.27a10.84,10.84,0,0,0-1.62-.12,10.61,10.61,0,0,0-1.61.12V44.41a11.6,11.6,0,0,0-9.86,9.85h1.27a11,11,0,0,0,0,3.24H44.41a11.6,11.6,0,0,0,9.86,9.85V66.08a10.61,10.61,0,0,0,1.61.12,10.84,10.84,0,0,0,1.62-.12v1.27a11.6,11.6,0,0,0,9.85-9.85H66.08A10.84,10.84,0,0,0,66.2,55.88Zm-19.8,0a9.48,9.48,0,1,1,9.48,9.48A9.49,9.49,0,0,1,46.4,55.88Z"/><circle class="cls-25" cx="235.96" cy="105.03" r="2.95"/><path class="cls-26" d="M246.28,105a10.84,10.84,0,0,0-.12-1.62h1.27a11.59,11.59,0,0,0-9.86-9.85v1.27a10.61,10.61,0,0,0-1.61-.12,10.84,10.84,0,0,0-1.62.12V93.56a11.59,11.59,0,0,0-9.85,9.85h1.27a10.84,10.84,0,0,0-.12,1.62,10.61,10.61,0,0,0,.12,1.61h-1.27a11.6,11.6,0,0,0,9.85,9.86v-1.28a9.66,9.66,0,0,0,1.62.13,9.46,9.46,0,0,0,1.61-.13v1.28a11.6,11.6,0,0,0,9.86-9.86h-1.27A10.61,10.61,0,0,0,246.28,105Zm-19.8,0a9.48,9.48,0,1,1,9.48,9.48A9.49,9.49,0,0,1,226.48,105Z"/><path class="cls-27" d="M448.58,84.71H180.66a.43.43,0,0,1-.37-.2c-11-16.47-23.68-34-25.59-34.07H106.93a.45.45,0,1,1,0-.9H154.7c3.16,0,22.07,28.07,26.2,34.27H448.58a.45.45,0,1,1,0,.9Z"/><path class="cls-28" d="M192.89,78.16h-7.35V76.77h2.83V67.66h-2.83V66.42a9.14,9.14,0,0,0,1.23-.09,3.22,3.22,0,0,0,1-.28,2,2,0,0,0,.66-.58,1.75,1.75,0,0,0,.28-1h1.42V76.77h2.77Z"/><path class="cls-29" d="M205.55,78.16h-9.2V76.25l1.92-1.64c.64-.55,1.24-1.09,1.8-1.64a18.78,18.78,0,0,0,2.4-2.69,3.92,3.92,0,0,0,.64-2.16,2.08,2.08,0,0,0-.69-1.66,2.92,2.92,0,0,0-1.95-.6,6.05,6.05,0,0,0-1.8.3,7.06,7.06,0,0,0-1.89.89h-.09V65.13a9.11,9.11,0,0,1,1.73-.58,8.6,8.6,0,0,1,2.09-.26,4.91,4.91,0,0,1,3.28,1A3.43,3.43,0,0,1,205,68a5.11,5.11,0,0,1-.2,1.44,4.76,4.76,0,0,1-.58,1.28,10.33,10.33,0,0,1-.83,1.11c-.32.37-.71.77-1.17,1.21-.65.64-1.32,1.26-2,1.86l-1.94,1.67h7.31Z"/><path class="cls-30" d="M212.1,70.56h-2.18V68h2.18Zm0,7.6h-2.18v-2.6h2.18Z"/><path class="cls-31" d="M225.9,71.36a9.88,9.88,0,0,1-1.14,5.37,4.55,4.55,0,0,1-7.13,0,10,10,0,0,1-1.13-5.33A9.94,9.94,0,0,1,217.64,66a4,4,0,0,1,3.56-1.73,3.94,3.94,0,0,1,3.58,1.76A10,10,0,0,1,225.9,71.36Zm-2.4,4.14a6,6,0,0,0,.44-1.74,23.09,23.09,0,0,0,.11-2.4,23.73,23.73,0,0,0-.11-2.41,6,6,0,0,0-.44-1.73,2.4,2.4,0,0,0-.88-1.06,3,3,0,0,0-2.83,0,2.27,2.27,0,0,0-.89,1.07,5.73,5.73,0,0,0-.43,1.76,22.07,22.07,0,0,0-.11,2.39,22.61,22.61,0,0,0,.1,2.38,5.64,5.64,0,0,0,.43,1.72,2.38,2.38,0,0,0,.85,1.08,2.57,2.57,0,0,0,1.46.38,2.62,2.62,0,0,0,1.43-.36A2.26,2.26,0,0,0,223.5,75.5Z"/><path class="cls-32" d="M237.79,71.36a9.78,9.78,0,0,1-1.15,5.37,4.55,4.55,0,0,1-7.13,0,10,10,0,0,1-1.12-5.33A9.94,9.94,0,0,1,229.53,66a4.51,4.51,0,0,1,7.13,0A10,10,0,0,1,237.79,71.36Zm-2.4,4.14a6,6,0,0,0,.43-1.74,20.37,20.37,0,0,0,.12-2.4,20.91,20.91,0,0,0-.12-2.41,5.4,5.4,0,0,0-.44-1.73,2.32,2.32,0,0,0-.87-1.06,3,3,0,0,0-2.84,0,2.33,2.33,0,0,0-.89,1.07,5.73,5.73,0,0,0-.43,1.76c-.07.73-.11,1.52-.11,2.39a22.61,22.61,0,0,0,.1,2.38,5.94,5.94,0,0,0,.43,1.72,2.38,2.38,0,0,0,.85,1.08,3,3,0,0,0,2.89,0A2.33,2.33,0,0,0,235.39,75.5Z"/><path class="cls-33" d="M244.36,70.56h-2.18V68h2.18Zm0,7.6h-2.18v-2.6h2.18Z"/><path class="cls-34" d="M258.49,74.33h-2v3.83h-1.75V74.33h-6.51V72.24l6.58-7.67h1.68v8.3h2Zm-3.77-1.46V66.74l-5.27,6.13Z"/><path class="cls-35" d="M270,73.84a4.9,4.9,0,0,1-.34,1.82,4.39,4.39,0,0,1-.95,1.46,4.59,4.59,0,0,1-1.57,1,5.89,5.89,0,0,1-2.1.34,10,10,0,0,1-2.15-.23,8.91,8.91,0,0,1-1.74-.56V75.72h.13a7.66,7.66,0,0,0,1.75.81,6.31,6.31,0,0,0,2,.33,4.46,4.46,0,0,0,1.26-.18,2.61,2.61,0,0,0,1.08-.64,2.49,2.49,0,0,0,.6-.94,3.52,3.52,0,0,0,.21-1.27,2.61,2.61,0,0,0-.24-1.18,2,2,0,0,0-.67-.78,3.06,3.06,0,0,0-1.16-.49,7.79,7.79,0,0,0-1.52-.14,10.94,10.94,0,0,0-1.54.11c-.5.07-.93.15-1.29.22v-7h8.18v1.6h-6.42v3.61l.81,0c.27,0,.51,0,.71,0a9.12,9.12,0,0,1,1.93.18,4.38,4.38,0,0,1,1.53.67,3.35,3.35,0,0,1,1.13,1.29A4.35,4.35,0,0,1,270,73.84Z"/><path class="cls-36" d="M391,105.44H248a.42.42,0,0,1-.41-.41.41.41,0,0,1,.41-.41H390.78L407.8,88a.42.42,0,0,1,.28-.12h88a.41.41,0,0,1,.41.41.41.41,0,0,1-.41.41H408.25l-17,16.63A.36.36,0,0,1,391,105.44Z"/><g class="cls-37"><path class="cls-38" d="M250.37,100.36H388.61l12.46-12.47H239.77C242.35,88.94,248.82,92.3,250.37,100.36Z"/></g><g class="cls-39"><path class="cls-40" d="M47,21.47V46.29a19.92,19.92,0,0,1,4.93-4.35v-21A23,23,0,0,0,47,21.47Z"/></g><g class="cls-41"><path class="cls-42" d="M64.62,90.65V65.83a19.87,19.87,0,0,1-4.94,4.35v21A23,23,0,0,0,64.62,90.65Z"/></g><g class="cls-39"><path class="cls-40" d="M47,21.47V46.29a19.92,19.92,0,0,1,4.93-4.35v-21A23,23,0,0,0,47,21.47Z"/></g><g class="cls-41"><path class="cls-42" d="M64.62,90.65V65.83a19.87,19.87,0,0,1-4.94,4.35v21A23,23,0,0,0,64.62,90.65Z"/></g><g class="cls-43"><path class="cls-44" d="M90.38,47.23H65.56a19.87,19.87,0,0,1,4.35,4.94h21A23,23,0,0,0,90.38,47.23Z"/></g><g class="cls-45"><path class="cls-46" d="M21.2,64.89H46A19.87,19.87,0,0,1,41.67,60h-21A23,23,0,0,0,21.2,64.89Z"/></g></g></g></svg>