<svg xmlns="http://www.w3.org/2000/svg" viewBox="0 0 495.12 171.21"><defs><style>.cls-1,.cls-2{fill:#11e5b3;}.cls-1{opacity:0.2;}</style></defs><title>menu_16_green</title><g id="Layer_2" data-name="Layer 2"><g id="Layer_1-2" data-name="Layer 1"><path class="cls-1" d="M14.32,160.29H470.76v-72l10.33-15v-48a12.4,12.4,0,0,0-12.39-12.4H455L425.32,45.39H128.94L111.39,28.87h-62l-9.15-16h-27A12.4,12.4,0,0,0,.89,25.26V76.59l13.43,9.59Z"/><path class="cls-2" d="M470.76,161.18H14.32a.89.89,0,0,1-.89-.89V86.64L.37,77.32A.91.91,0,0,1,0,76.59V25.26A13.3,13.3,0,0,1,13.28,12h27a.87.87,0,0,1,.77.45L49.94,28h61.45a.92.92,0,0,1,.61.24L129.3,44.5H424.93l29.39-32.24A.92.92,0,0,1,455,12H468.7A13.3,13.3,0,0,1,482,25.26v48a.84.84,0,0,1-.16.51L471.65,88.53v71.76A.89.89,0,0,1,470.76,161.18ZM15.21,159.4H469.87V88.25a.93.93,0,0,1,.16-.51L480.2,73V25.26a11.52,11.52,0,0,0-11.5-11.51H455.38L426,46a.88.88,0,0,1-.66.29H128.94a.89.89,0,0,1-.61-.24L111,29.76H49.43a.9.9,0,0,1-.78-.45L39.76,13.75H13.28A11.52,11.52,0,0,0,1.78,25.26V76.14l13.05,9.32a.89.89,0,0,1,.38.72Z"/><polygon class="cls-2" points="115.52 33 129.39 33 137.65 39.76 189.28 39.76 197.54 42.01 252.79 42.01 258.47 45.39 129.39 45.39 115.52 33"/><path class="cls-2" d="M21,159.85V81.54l-15-11.36V26.29S9.15,16,22.58,17H36.52L46.85,36.1h9.81l2.58-6.2-9.81-1h0l-9.15-16h-27A12.34,12.34,0,0,0,4,17.11,15.53,15.53,0,0,0,1.11,23a12.56,12.56,0,0,0-.22,2.31V76.47c2.51.82,13.43,9.71,13.43,9.71v73.67H14L2.64,171.21H13l6.72-6.2H64.6l10.84-5.16Z"/><path class="cls-2" d="M185.64,12.46h-7.83V.08h1.64V11h6.19Z"/><path class="cls-2" d="M195.07,7.82a5.18,5.18,0,0,1-1.17,3.58,4.35,4.35,0,0,1-6.24,0,5.23,5.23,0,0,1-1.16-3.58,5.27,5.27,0,0,1,1.16-3.59,4.37,4.37,0,0,1,6.24,0A5.22,5.22,0,0,1,195.07,7.82Zm-1.61,0a4.23,4.23,0,0,0-.71-2.68,2.65,2.65,0,0,0-3.94,0,4.29,4.29,0,0,0-.7,2.68,4.25,4.25,0,0,0,.71,2.65,2.36,2.36,0,0,0,2,.9,2.39,2.39,0,0,0,2-.89A4.24,4.24,0,0,0,193.46,7.82Z"/><path class="cls-2" d="M203.28,4.88h-.08a4.43,4.43,0,0,0-.68-.12,5.94,5.94,0,0,0-.78,0,3.21,3.21,0,0,0-1.39.32,6.33,6.33,0,0,0-1.3.83v6.59h-1.56V3.17h1.56V4.55a7.39,7.39,0,0,1,1.64-1.06,3.55,3.55,0,0,1,1.45-.32,4.07,4.07,0,0,1,.59,0l.55.07Z"/><path class="cls-2" d="M212.52,8h-6.84a4,4,0,0,0,.26,1.49,2.79,2.79,0,0,0,.71,1,2.68,2.68,0,0,0,1,.6,4.19,4.19,0,0,0,1.31.2,5,5,0,0,0,1.91-.38,4.89,4.89,0,0,0,1.37-.74h.08v1.7a14,14,0,0,1-1.61.56,6.56,6.56,0,0,1-1.73.22,5,5,0,0,1-3.61-1.25,4.7,4.7,0,0,1-1.3-3.55,5.08,5.08,0,0,1,1.25-3.61,4.23,4.23,0,0,1,3.27-1.34A3.75,3.75,0,0,1,211.5,4a4.43,4.43,0,0,1,1,3.12ZM211,6.78a2.72,2.72,0,0,0-.62-1.9,2.38,2.38,0,0,0-1.86-.67,2.66,2.66,0,0,0-2,.74,2.86,2.86,0,0,0-.85,1.83Z"/><path class="cls-2" d="M228.44,12.46h-1.57V7.17A10.71,10.71,0,0,0,226.82,6a2.45,2.45,0,0,0-.23-.89,1.25,1.25,0,0,0-.55-.54,2.3,2.3,0,0,0-1-.19,2.92,2.92,0,0,0-1.31.33,7.6,7.6,0,0,0-1.31.84c0,.13,0,.27,0,.44s0,.34,0,.51v5.94h-1.56V7.17c0-.41,0-.8,0-1.17a2.44,2.44,0,0,0-.23-.88,1.25,1.25,0,0,0-.55-.54,2.35,2.35,0,0,0-1-.18,2.88,2.88,0,0,0-1.28.32,7.62,7.62,0,0,0-1.29.81v6.93h-1.56V3.17h1.56v1a7,7,0,0,1,1.46-1,3.58,3.58,0,0,1,1.55-.34,3,3,0,0,1,1.61.4,2.38,2.38,0,0,1,1,1.1,8.18,8.18,0,0,1,1.73-1.15,4.1,4.1,0,0,1,1.67-.35,2.71,2.71,0,0,1,2.26.92,4.13,4.13,0,0,1,.73,2.59Z"/><path class="cls-2" d="M239.11,1.62h-1.76V0h1.76ZM239,12.46h-1.56V3.17H239Z"/><path class="cls-2" d="M248.73,9.78a2.53,2.53,0,0,1-1,2.09,4.6,4.6,0,0,1-2.87.81,7,7,0,0,1-1.89-.24,8.28,8.28,0,0,1-1.44-.54V10.15h.08a6.21,6.21,0,0,0,1.65.88,5,5,0,0,0,1.73.33,3.32,3.32,0,0,0,1.62-.33,1.13,1.13,0,0,0,.58-1,1.07,1.07,0,0,0-.32-.83,2.76,2.76,0,0,0-1.21-.48l-.87-.18c-.36-.06-.68-.13-1-.21A3.33,3.33,0,0,1,242,7.33a2.39,2.39,0,0,1-.51-1.55,2.53,2.53,0,0,1,.95-2,3.43,3.43,0,0,1,1.19-.62A5.35,5.35,0,0,1,245.27,3a7.55,7.55,0,0,1,1.68.2,6.29,6.29,0,0,1,1.42.5V5.32h-.09a5.63,5.63,0,0,0-1.45-.74,4.83,4.83,0,0,0-1.68-.31,3,3,0,0,0-1.45.33,1.06,1.06,0,0,0-.59,1,1,1,0,0,0,.36.86,2.81,2.81,0,0,0,1.13.47c.29.07.61.14,1,.2s.66.13.89.19a3.26,3.26,0,0,1,1.68.85A2.24,2.24,0,0,1,248.73,9.78Z"/><path class="cls-2" d="M259.14,7.7a6.16,6.16,0,0,1-.33,2.07,4.46,4.46,0,0,1-.91,1.58,3.86,3.86,0,0,1-1.29,1,3.71,3.71,0,0,1-1.58.34,4.85,4.85,0,0,1-1.31-.16,5.35,5.35,0,0,1-1.19-.49v3.89H251V3.17h1.56v1a6.25,6.25,0,0,1,1.4-.88,4.05,4.05,0,0,1,1.66-.35,3.06,3.06,0,0,1,2.61,1.26A5.8,5.8,0,0,1,259.14,7.7Zm-1.61,0A4.45,4.45,0,0,0,257,5.24a2,2,0,0,0-1.76-.84,3.3,3.3,0,0,0-1.35.3,5.79,5.79,0,0,0-1.31.76v5.26a6,6,0,0,0,1.14.41,5.08,5.08,0,0,0,1.09.11,2.5,2.5,0,0,0,2-.88A4,4,0,0,0,257.53,7.75Z"/><path class="cls-2" d="M269.27,12.46h-1.56v-1a7.66,7.66,0,0,1-1.52,1,3.63,3.63,0,0,1-1.59.34,2.91,2.91,0,0,1-2.28-.9,3.77,3.77,0,0,1-.81-2.62v-6h1.56V8.46a8.49,8.49,0,0,0,.07,1.21,2,2,0,0,0,.28.86,1.34,1.34,0,0,0,.58.53,2.55,2.55,0,0,0,1,.17,3.3,3.3,0,0,0,1.32-.32,6.58,6.58,0,0,0,1.35-.8V3.17h1.56Z"/><path class="cls-2" d="M285.89,12.46h-1.56V7.17A10.65,10.65,0,0,0,284.27,6a2.46,2.46,0,0,0-.22-.89,1.25,1.25,0,0,0-.55-.54,2.33,2.33,0,0,0-1-.19,2.93,2.93,0,0,0-1.32.33,8.45,8.45,0,0,0-1.31.84c0,.13,0,.27,0,.44s0,.34,0,.51v5.94h-1.56V7.17A10.9,10.9,0,0,0,278.28,6a2.26,2.26,0,0,0-.23-.88,1.23,1.23,0,0,0-.54-.54,2.4,2.4,0,0,0-1-.18,2.92,2.92,0,0,0-1.28.32,7.18,7.18,0,0,0-1.28.81v6.93h-1.57V3.17h1.57v1a6.49,6.49,0,0,1,1.46-1,3.55,3.55,0,0,1,1.55-.34,3,3,0,0,1,1.6.4,2.46,2.46,0,0,1,1,1.1,7.93,7.93,0,0,1,1.73-1.15,4.06,4.06,0,0,1,1.67-.35,2.69,2.69,0,0,1,2.25.92,4.07,4.07,0,0,1,.73,2.59Z"/><path class="cls-2" d="M492.31,160.84H475.44V81.46l5.65-8.18.52-42.35c0-19.62-12.91-18.07-12.91-18.07H455L425.32,45.39H365.43L370.59,50h56.28L456.3,19.58h11.36c10.33.51,7.23,11.35,7.23,11.35V72.24L470.76,80v8.26l.18-.26v72.85H303.4l6.75,3.22h66.9l7.87,2.41h110.2Z"/><path class="cls-2" d="M162.15,29.76H111.81a.89.89,0,0,1,0-1.78h50l13.81-10.92a.92.92,0,0,1,.55-.19H380.85a.89.89,0,0,1,0,1.78H176.51L162.7,29.57A.92.92,0,0,1,162.15,29.76Z"/><polygon class="cls-2" points="342.9 17.34 353.02 12.84 379.44 12.84 380.85 17.34 342.9 17.34"/><polygon class="cls-2" points="287.24 155.08 297.36 150.58 323.78 150.58 325.19 155.08 287.24 155.08"/><polygon class="cls-2" points="28.93 149.88 28.04 149.88 28.04 80.37 12.01 66.88 12.01 44.75 12.9 44.75 12.9 66.47 28.93 79.96 28.93 149.88"/><polygon class="cls-2" points="428.96 56.44 414.16 56.44 414.16 55.55 428.59 55.55 457.7 26.44 458.33 27.07 428.96 56.44"/><polygon class="cls-2" points="465.77 155.95 287.66 155.95 287.66 155.06 464.88 155.06 464.88 109.96 465.77 109.96 465.77 155.95"/><polygon class="cls-2" points="273.61 53.63 126.7 53.63 105.33 34.51 78.52 34.51 78.52 33.62 105.67 33.62 127.04 52.73 273.61 52.73 273.61 53.63"/></g></g></svg>