<svg xmlns="http://www.w3.org/2000/svg" xmlns:xlink="http://www.w3.org/1999/xlink" viewBox="0 0 491.15 191.57"><defs><style>.cls-1{mask:url(#mask);filter:url(#luminosity-noclip-3);}.cls-2,.cls-4{mix-blend-mode:multiply;}.cls-2{fill:url(#linear-gradient);}.cls-3{mask:url(#mask-2);filter:url(#luminosity-noclip-4);}.cls-4{fill:url(#linear-gradient-2);}.cls-5{fill:#11e5b3;}.cls-6{mask:url(#mask-3);}.cls-7{mask:url(#mask-4);}.cls-8{filter:url(#luminosity-noclip-2);}.cls-9{filter:url(#luminosity-noclip);}</style><filter id="luminosity-noclip" x="25.52" y="-8295.13" width="56.21" height="32766" filterUnits="userSpaceOnUse" color-interpolation-filters="sRGB"><feFlood flood-color="#fff" result="bg"/><feBlend in="SourceGraphic" in2="bg"/></filter><mask id="mask" x="25.52" y="-8295.13" width="56.21" height="32766" maskUnits="userSpaceOnUse"><g class="cls-9"/></mask><linearGradient id="linear-gradient" x1="53.62" y1="96.24" x2="53.62" y2="163.59" gradientUnits="userSpaceOnUse"><stop offset="0" stop-color="#fff"/><stop offset="0.07" stop-color="#d8d8d8"/><stop offset="0.16" stop-color="#a6a6a6"/><stop offset="0.26" stop-color="#797979"/><stop offset="0.37" stop-color="#545454"/><stop offset="0.47" stop-color="#353535"/><stop offset="0.58" stop-color="#1e1e1e"/><stop offset="0.7" stop-color="#0d0d0d"/><stop offset="0.83" stop-color="#030303"/><stop offset="1"/></linearGradient><filter id="luminosity-noclip-2" x="424.93" y="-8295.13" width="60.73" height="32766" filterUnits="userSpaceOnUse" color-interpolation-filters="sRGB"><feFlood flood-color="#fff" result="bg"/><feBlend in="SourceGraphic" in2="bg"/></filter><mask id="mask-2" x="424.93" y="-8295.13" width="60.73" height="32766" maskUnits="userSpaceOnUse"><g class="cls-8"/></mask><linearGradient id="linear-gradient-2" x1="424.93" y1="54.57" x2="485.66" y2="54.57" xlink:href="#linear-gradient"/><filter id="luminosity-noclip-3" x="25.52" y="96.24" width="56.21" height="67.35" filterUnits="userSpaceOnUse" color-interpolation-filters="sRGB"><feFlood flood-color="#fff" result="bg"/><feBlend in="SourceGraphic" in2="bg"/></filter><mask id="mask-3" x="25.52" y="96.24" width="56.21" height="67.35" maskUnits="userSpaceOnUse"><g class="cls-1"><path class="cls-2" d="M49.75,96.24s14.53,8.24,30.52,9.21l1.45,58.14H54.11s-4.36-8.24-12.6,0c0,0-10.18,0-16-3.39Z"/></g></mask><filter id="luminosity-noclip-4" x="424.93" y="43.59" width="60.73" height="21.97" filterUnits="userSpaceOnUse" color-interpolation-filters="sRGB"><feFlood flood-color="#fff" result="bg"/><feBlend in="SourceGraphic" in2="bg"/></filter><mask id="mask-4" x="424.93" y="43.59" width="60.73" height="21.97" maskUnits="userSpaceOnUse"><g class="cls-3"><polygon class="cls-4" points="424.93 43.59 485.66 43.59 485.66 65.55 448.19 64.91 424.93 43.59"/></g></mask></defs><title>menu_13_green</title><g id="Layer_2" data-name="Layer 2"><g id="Layer_1-2" data-name="Layer 1"><polygon class="cls-5" points="187.3 159.09 432.85 159.09 456.18 135.76 462.85 91.31 453.35 96.41 446.68 131.22 424.45 151.97 351.12 151.97 338.53 146.04 243.71 146.78 231.12 154.19 194.08 154.19 183.71 160.86 184.08 161 187.3 159.09"/><polygon class="cls-5" points="14.07 122.34 0 114.93 0 183.82 91.85 183.82 85.19 176.41 13.97 175.76 14.07 122.34"/><polygon class="cls-5" points="166.31 188.25 103.95 188.25 103.95 187.28 166.04 187.28 191.6 171.55 192.11 172.38 166.31 188.25"/><polygon class="cls-5" points="157.42 168.5 51.61 168.5 51.61 167.53 157.15 167.53 176.79 155.75 177.29 156.58 157.42 168.5"/><path class="cls-5" d="M153.36,71.39h-6.45V61.2h1.36v9h5.09Z"/><path class="cls-5" d="M161.13,67.57a4.28,4.28,0,0,1-1,3,3.24,3.24,0,0,1-2.56,1.08A3.28,3.28,0,0,1,155,70.52a5.06,5.06,0,0,1,0-5.9,3.25,3.25,0,0,1,2.58-1.09,3.21,3.21,0,0,1,2.56,1.09A4.28,4.28,0,0,1,161.13,67.57Zm-1.32,0a3.47,3.47,0,0,0-.59-2.21,1.94,1.94,0,0,0-1.61-.72,2,2,0,0,0-1.63.72,3.54,3.54,0,0,0-.58,2.21,3.47,3.47,0,0,0,.59,2.18,2.14,2.14,0,0,0,3.23,0A3.47,3.47,0,0,0,159.81,67.57Z"/><path class="cls-5" d="M167.9,65.15h-.07a3.89,3.89,0,0,0-.56-.1,5.85,5.85,0,0,0-.64,0,2.58,2.58,0,0,0-1.15.26,5.35,5.35,0,0,0-1.07.68v5.43h-1.28V63.74h1.28v1.13a6.24,6.24,0,0,1,1.35-.87,3,3,0,0,1,1.2-.26l.49,0,.45.06Z"/><path class="cls-5" d="M175.51,67.7h-5.63a3.3,3.3,0,0,0,.21,1.23,2.29,2.29,0,0,0,.58.86,2.35,2.35,0,0,0,.84.49,3.4,3.4,0,0,0,1.08.16,4.18,4.18,0,0,0,1.57-.31,3.67,3.67,0,0,0,1.13-.61h.07v1.4a9.1,9.1,0,0,1-1.33.46,5.12,5.12,0,0,1-1.42.19,4.12,4.12,0,0,1-3-1,3.87,3.87,0,0,1-1.07-2.93,4.23,4.23,0,0,1,1-3,3.51,3.51,0,0,1,2.69-1.1,3.1,3.1,0,0,1,2.39.9,3.65,3.65,0,0,1,.84,2.57Zm-1.25-1a2.32,2.32,0,0,0-.51-1.56,2,2,0,0,0-1.53-.56,2.23,2.23,0,0,0-1.65.61,2.34,2.34,0,0,0-.69,1.51Z"/><path class="cls-5" d="M188.62,71.39h-1.29V67c0-.33,0-.65,0-1a2.14,2.14,0,0,0-.19-.73,1.06,1.06,0,0,0-.45-.44,1.93,1.93,0,0,0-.85-.15,2.4,2.4,0,0,0-1.08.27,7.75,7.75,0,0,0-1.09.68,3.5,3.5,0,0,1,0,.37c0,.14,0,.28,0,.41v4.9H182.4V67c0-.34,0-.66-.05-1a2,2,0,0,0-.19-.73,1,1,0,0,0-.45-.44,1.92,1.92,0,0,0-.85-.14,2.33,2.33,0,0,0-1.06.26,6.07,6.07,0,0,0-1.05.66v5.71h-1.29V63.74h1.29v.85a5.83,5.83,0,0,1,1.2-.78,2.92,2.92,0,0,1,1.28-.28,2.49,2.49,0,0,1,1.32.33,2,2,0,0,1,.81.91,6.73,6.73,0,0,1,1.42-.95,3.38,3.38,0,0,1,1.38-.29,2.22,2.22,0,0,1,1.86.76,3.38,3.38,0,0,1,.6,2.14Z"/><path class="cls-5" d="M197.41,62.46H196V61.13h1.45Zm-.08,8.93H196V63.74h1.29Z"/><path class="cls-5" d="M205.34,69.18a2.07,2.07,0,0,1-.87,1.72,3.77,3.77,0,0,1-2.37.67,5.44,5.44,0,0,1-1.55-.2,6.39,6.39,0,0,1-1.19-.44V69.49h.07a5.65,5.65,0,0,0,1.35.73,4.24,4.24,0,0,0,1.43.27,2.71,2.71,0,0,0,1.33-.28.92.92,0,0,0,.48-.86.9.9,0,0,0-.26-.69,2.43,2.43,0,0,0-1-.39l-.71-.15c-.3-.05-.57-.11-.81-.17a2.7,2.7,0,0,1-1.43-.79,1.94,1.94,0,0,1-.42-1.27,2.1,2.1,0,0,1,.2-.89,2.17,2.17,0,0,1,.59-.74,2.67,2.67,0,0,1,1-.51,4.17,4.17,0,0,1,1.32-.19,5.57,5.57,0,0,1,1.39.17,5,5,0,0,1,1.16.4v1.38H205a4.5,4.5,0,0,0-1.2-.61,4,4,0,0,0-1.38-.25,2.47,2.47,0,0,0-1.2.27,1,1,0,0,0-.19,1.51,2.27,2.27,0,0,0,.93.39l.8.17c.3.05.54.1.74.15a2.78,2.78,0,0,1,1.38.7A1.89,1.89,0,0,1,205.34,69.18Z"/><path class="cls-5" d="M213.91,67.47a5.09,5.09,0,0,1-.27,1.7,3.81,3.81,0,0,1-.75,1.31,3.2,3.2,0,0,1-2.37,1.06,4,4,0,0,1-1.07-.13,4.78,4.78,0,0,1-1-.4v3.2h-1.28V63.74h1.28v.8a5.66,5.66,0,0,1,1.16-.72,3.29,3.29,0,0,1,1.36-.29,2.54,2.54,0,0,1,2.16,1A4.85,4.85,0,0,1,213.91,67.47Zm-1.33,0a3.73,3.73,0,0,0-.47-2.07,1.64,1.64,0,0,0-1.46-.68,2.81,2.81,0,0,0-1.11.24,4.75,4.75,0,0,0-1.08.63V70a5.43,5.43,0,0,0,.95.33,4,4,0,0,0,.89.09,2.08,2.08,0,0,0,1.68-.72A3.32,3.32,0,0,0,212.58,67.51Z"/><path class="cls-5" d="M222.25,71.39H221v-.85a6.07,6.07,0,0,1-1.24.79,3.18,3.18,0,0,1-1.32.27,2.4,2.4,0,0,1-1.87-.73,3.11,3.11,0,0,1-.67-2.16v-5h1.28V68.1a7,7,0,0,0,.06,1,1.86,1.86,0,0,0,.23.71,1.12,1.12,0,0,0,.48.44,2.13,2.13,0,0,0,.86.14,2.82,2.82,0,0,0,1.09-.26,5.39,5.39,0,0,0,1.1-.67V63.74h1.29Z"/><path class="cls-5" d="M235.94,71.39h-1.28V67c0-.33,0-.65,0-1a1.94,1.94,0,0,0-.19-.73,1,1,0,0,0-.45-.44,1.93,1.93,0,0,0-.85-.15A2.4,2.4,0,0,0,232,65a7.14,7.14,0,0,0-1.08.68c0,.11,0,.23,0,.37s0,.28,0,.41v4.9h-1.29V67c0-.34,0-.66,0-1a2.21,2.21,0,0,0-.19-.73,1.12,1.12,0,0,0-.45-.44,2,2,0,0,0-.85-.14,2.3,2.3,0,0,0-1.06.26,6.13,6.13,0,0,0-1.06.66v5.71h-1.29V63.74h1.29v.85a5.83,5.83,0,0,1,1.2-.78,3,3,0,0,1,1.28-.28,2.49,2.49,0,0,1,1.32.33,2,2,0,0,1,.82.91,6.49,6.49,0,0,1,1.42-.95,3.37,3.37,0,0,1,1.37-.29,2.22,2.22,0,0,1,1.86.76,3.38,3.38,0,0,1,.6,2.14Z"/><path class="cls-5" d="M82.5,4.61a34.61,34.61,0,1,0,34.61,34.61A34.62,34.62,0,0,0,82.5,4.61Zm0,66.88a32.27,32.27,0,1,1,32.27-32.27A32.3,32.3,0,0,1,82.5,71.49Z"/><path class="cls-5" d="M49,23.67a37.17,37.17,0,0,1,5.89-9L53.22,13a38.89,38.89,0,0,0-6.43,9.77Z"/><path class="cls-5" d="M58,11.59a37.33,37.33,0,0,1,7.8-5.32l-.94-2.16a39.32,39.32,0,0,0-8.51,5.83Z"/><path class="cls-5" d="M45.62,37a37,37,0,0,1,1.75-9.28l-2.19-.86A39.19,39.19,0,0,0,43.28,37Z"/><path class="cls-5" d="M47.8,51.93a37,37,0,0,1-2.18-10.52H43.28a39.19,39.19,0,0,0,2.37,11.46Z"/><path class="cls-5" d="M111.78,13l-1.66,1.65a37,37,0,0,1,5.33,7.8l2.16-.94A39.67,39.67,0,0,0,111.78,13Z"/><path class="cls-5" d="M98.05,5.7a37.17,37.17,0,0,1,9,5.89l1.65-1.65a38.89,38.89,0,0,0-9.77-6.43Z"/><path class="cls-5" d="M69.79,4.52A37,37,0,0,1,80.31,2.34V0A39.19,39.19,0,0,0,68.85,2.37Z"/><path class="cls-5" d="M84.69,2.34A37,37,0,0,1,94,4.09l.86-2.19A39.19,39.19,0,0,0,84.69,0Z"/><path class="cls-5" d="M80.31,76.1A37,37,0,0,1,71,74.35l-.86,2.19a39.19,39.19,0,0,0,10.14,1.9Z"/><path class="cls-5" d="M119.38,41.41a37,37,0,0,1-1.75,9.28l2.19.86a39.19,39.19,0,0,0,1.9-10.14Z"/><path class="cls-5" d="M117.2,26.51A37,37,0,0,1,119.38,37h2.34a39.19,39.19,0,0,0-2.37-11.46Z"/><path class="cls-5" d="M54.87,63.75A37,37,0,0,1,49.55,56l-2.16.94a39.32,39.32,0,0,0,5.83,8.51Z"/><path class="cls-5" d="M116,54.77a37.2,37.2,0,0,1-5.9,9l1.66,1.65a38.89,38.89,0,0,0,6.43-9.77Z"/><path class="cls-5" d="M67,72.74a37.17,37.17,0,0,1-9-5.89L56.32,68.5a38.89,38.89,0,0,0,9.77,6.43Z"/><path class="cls-5" d="M95.21,73.91a36.35,36.35,0,0,1-10.52,2.18v2.35a39.26,39.26,0,0,0,11.46-2.37Z"/><path class="cls-5" d="M107,66.84a38.2,38.2,0,0,1-3.55,2.79v.09h-.12a37.16,37.16,0,0,1-4.14,2.44l1,2.17a39.32,39.32,0,0,0,8.51-5.83Z"/><path class="cls-5" d="M82.5,47.24a8,8,0,1,1,8-8A8,8,0,0,1,82.5,47.24Zm0-15.34a7.32,7.32,0,1,0,7.32,7.32A7.33,7.33,0,0,0,82.5,31.9Z"/><path class="cls-5" d="M83.37,50.17l-.43,18.4h-.88l.44-18.4Zm-.87,0,.44,18.4h-.88l-.44-18.4Z"/><path class="cls-5" d="M81.62,28.27l.44-18.4h.88l-.44,18.4Zm.88,0-.44-18.4h.88l.43,18.4Z"/><path class="cls-5" d="M71.55,40.09l-18.4-.43v-.88l18.4.44Zm0-.87-18.4.44v-.88l18.4-.43Z"/><path class="cls-5" d="M93.45,38.35l18.4.43v.88l-18.4-.44Zm0,.87,18.4-.44v.88l-18.4.43Z"/><path class="cls-5" d="M159.42,176.73H13V37.13H33.61v1a49.42,49.42,0,1,0,98.84,0v-1l1,0H491.15v33.2L490.27,72,463.75,91.85l-6.66,44.37-23.84,23.84H187.57ZM14.94,174.79h144L187,158.12H432.45l22.82-22.82L462,90.78l26.81-20.11.45-.83V39.06H134.38a51.36,51.36,0,0,1-102.7,0H14.94Z"/><polygon class="cls-5" points="13.4 55.22 5.01 46.82 5.01 31.96 32.14 31.96 32.64 38.14 13.97 38.14 13.4 55.22"/><polygon class="cls-5" points="133.42 38.1 140.03 31.96 239.52 31.96 249.21 26.14 408.78 26.14 424.29 37.77 133.42 38.1"/><path class="cls-5" d="M81.24,100.72V91.39s42.15,2.91,53.3-41.18h9.52a63,63,0,0,0,1.12-11.14H133.55C133.2,66.71,110.94,89,83.5,89s-49.7-22.3-50-49.94H21.82a62.88,62.88,0,0,0,1.24,11.8l3.43-1.15s3.87,24.72,28.59,36.83L51.92,92A60.88,60.88,0,0,0,81.24,100.72Z"/><path class="cls-5" d="M90.89,97.79c-1.51,0-2.39-.1-2.44-.1l.12-1c.24,0,24.16,2.58,41.7-20.65l.15-.19H303.64v1H130.9C116.36,96,97.53,97.79,90.89,97.79Z"/><path class="cls-5" d="M84.68,39.22A2.18,2.18,0,1,1,82.5,37,2.19,2.19,0,0,1,84.68,39.22Z"/><path class="cls-5" d="M311.15,84.87a8,8,0,1,1,8-8A8,8,0,0,1,311.15,84.87Zm0-15.33a7.32,7.32,0,1,0,7.32,7.32A7.32,7.32,0,0,0,311.15,69.54Z"/><path class="cls-5" d="M313.33,76.86a2.18,2.18,0,1,1-2.18-2.18A2.19,2.19,0,0,1,313.33,76.86Z"/><path class="cls-5" d="M180.08,157.55a4.14,4.14,0,1,1,4.14-4.14A4.14,4.14,0,0,1,180.08,157.55Zm0-7.91a3.78,3.78,0,1,0,3.78,3.77A3.78,3.78,0,0,0,180.08,149.64Z"/><path class="cls-5" d="M181.21,153.41a1.13,1.13,0,1,1-1.13-1.12A1.12,1.12,0,0,1,181.21,153.41Z"/><path class="cls-5" d="M195.1,174.36a4.14,4.14,0,1,1,4.14-4.14A4.15,4.15,0,0,1,195.1,174.36Zm0-7.92a3.78,3.78,0,1,0,3.78,3.78A3.77,3.77,0,0,0,195.1,166.44Z"/><path class="cls-5" d="M196.23,170.22a1.13,1.13,0,1,1-1.13-1.13A1.12,1.12,0,0,1,196.23,170.22Z"/><path class="cls-5" d="M47.81,171.93A4.14,4.14,0,1,1,52,167.79,4.14,4.14,0,0,1,47.81,171.93Zm0-7.92a3.78,3.78,0,1,0,3.78,3.78A3.78,3.78,0,0,0,47.81,164Z"/><path class="cls-5" d="M48.93,167.79a1.13,1.13,0,1,1-1.12-1.12A1.13,1.13,0,0,1,48.93,167.79Z"/><path class="cls-5" d="M99.65,191.57a4.14,4.14,0,1,1,4.14-4.14A4.15,4.15,0,0,1,99.65,191.57Zm0-7.92a3.78,3.78,0,1,0,3.78,3.78A3.78,3.78,0,0,0,99.65,183.65Z"/><path class="cls-5" d="M100.78,187.43a1.13,1.13,0,1,1-1.13-1.13A1.13,1.13,0,0,1,100.78,187.43Z"/><g class="cls-6"><path class="cls-5" d="M49.75,96.24s14.53,8.24,30.52,9.21l1.45,58.14H54.11s-4.36-8.24-12.6,0c0,0-10.18,0-16-3.39Z"/></g><g class="cls-7"><polygon class="cls-5" points="424.93 43.59 485.66 43.59 485.66 65.55 448.19 64.91 424.93 43.59"/></g></g></g></svg>