<svg xmlns="http://www.w3.org/2000/svg" xmlns:xlink="http://www.w3.org/1999/xlink" viewBox="0 0 485.89 118.54"><defs><style>.cls-1{mask:url(#mask);filter:url(#luminosity-noclip-7);}.cls-10,.cls-12,.cls-2,.cls-4,.cls-6,.cls-8{mix-blend-mode:multiply;}.cls-2{fill:url(#Безымянный_градиент_67);}.cls-3{mask:url(#mask-2);filter:url(#luminosity-noclip-12);}.cls-4{fill:url(#Безымянный_градиент_62);}.cls-5{mask:url(#mask-3);filter:url(#luminosity-noclip-8);}.cls-6{fill:url(#Безымянный_градиент_62-2);}.cls-7{mask:url(#mask-4);filter:url(#luminosity-noclip-9);}.cls-8{fill:url(#Безымянный_градиент_62-3);}.cls-9{mask:url(#mask-5);filter:url(#luminosity-noclip-10);}.cls-10{fill:url(#Безымянный_градиент_62-4);}.cls-11{mask:url(#mask-6);filter:url(#luminosity-noclip-11);}.cls-12{fill:url(#Безымянный_градиент_62-5);}.cls-13,.cls-14,.cls-15,.cls-16,.cls-17,.cls-18,.cls-19,.cls-20,.cls-21,.cls-22,.cls-23,.cls-24,.cls-25{fill:#00d0ff;}.cls-14{opacity:0.2;}.cls-15{opacity:0.7;}.cls-16{opacity:0.6;}.cls-17{opacity:0.4;}.cls-18{opacity:0.3;}.cls-19{opacity:0.9;}.cls-20{opacity:0.8;}.cls-21{opacity:0.5;}.cls-22{opacity:0.03;}.cls-23{opacity:0.09;}.cls-24{opacity:0.1;}.cls-25{opacity:0.05;}.cls-26{mask:url(#mask-7);}.cls-27{fill:url(#Безымянный_градиент_33);}.cls-28{mask:url(#mask-8);}.cls-29{fill:url(#Безымянный_градиент_4);}.cls-30{mask:url(#mask-9);}.cls-31{fill:url(#Безымянный_градиент_4-2);}.cls-32{mask:url(#mask-10);}.cls-33{fill:url(#Безымянный_градиент_4-3);}.cls-34{mask:url(#mask-11);}.cls-35{fill:url(#Безымянный_градиент_4-4);}.cls-36{mask:url(#mask-12);}.cls-37{fill:url(#Безымянный_градиент_4-5);}.cls-38{filter:url(#luminosity-noclip-6);}.cls-39{filter:url(#luminosity-noclip-5);}.cls-40{filter:url(#luminosity-noclip-4);}.cls-41{filter:url(#luminosity-noclip-3);}.cls-42{filter:url(#luminosity-noclip-2);}.cls-43{filter:url(#luminosity-noclip);}</style><filter id="luminosity-noclip" x="98.68" y="-8251.27" width="115.06" height="32766" filterUnits="userSpaceOnUse" color-interpolation-filters="sRGB"><feFlood flood-color="#fff" result="bg"/><feBlend in="SourceGraphic" in2="bg"/></filter><mask id="mask" x="98.68" y="-8251.27" width="115.06" height="32766" maskUnits="userSpaceOnUse"><g class="cls-43"/></mask><linearGradient id="Безымянный_градиент_67" x1="98.68" y1="51.34" x2="213.74" y2="51.34" gradientUnits="userSpaceOnUse"><stop offset="0"/><stop offset="0.01" stop-color="#030303"/><stop offset="0.7" stop-color="#b7b7b7"/><stop offset="1" stop-color="#fff"/></linearGradient><filter id="luminosity-noclip-2" x="220.57" y="-8251.27" width="200.43" height="32766" filterUnits="userSpaceOnUse" color-interpolation-filters="sRGB"><feFlood flood-color="#fff" result="bg"/><feBlend in="SourceGraphic" in2="bg"/></filter><mask id="mask-2" x="220.57" y="-8251.27" width="200.43" height="32766" maskUnits="userSpaceOnUse"><g class="cls-42"/></mask><linearGradient id="Безымянный_градиент_62" x1="220.57" y1="91.05" x2="421" y2="91.05" gradientUnits="userSpaceOnUse"><stop offset="0" stop-color="#fff"/><stop offset="0.07" stop-color="#d8d8d8"/><stop offset="0.16" stop-color="#a6a6a6"/><stop offset="0.26" stop-color="#797979"/><stop offset="0.37" stop-color="#545454"/><stop offset="0.47" stop-color="#353535"/><stop offset="0.58" stop-color="#1e1e1e"/><stop offset="0.7" stop-color="#0d0d0d"/><stop offset="0.83" stop-color="#030303"/><stop offset="1"/></linearGradient><filter id="luminosity-noclip-3" x="226.12" y="-8251.27" width="99.96" height="32766" filterUnits="userSpaceOnUse" color-interpolation-filters="sRGB"><feFlood flood-color="#fff" result="bg"/><feBlend in="SourceGraphic" in2="bg"/></filter><mask id="mask-3" x="226.12" y="-8251.27" width="99.96" height="32766" maskUnits="userSpaceOnUse"><g class="cls-41"/></mask><linearGradient id="Безымянный_градиент_62-2" x1="226.12" y1="50.84" x2="326.08" y2="50.84" xlink:href="#Безымянный_градиент_62"/><filter id="luminosity-noclip-4" x="110.16" y="-8251.27" width="200.78" height="32766" filterUnits="userSpaceOnUse" color-interpolation-filters="sRGB"><feFlood flood-color="#fff" result="bg"/><feBlend in="SourceGraphic" in2="bg"/></filter><mask id="mask-4" x="110.16" y="-8251.27" width="200.78" height="32766" maskUnits="userSpaceOnUse"><g class="cls-40"/></mask><linearGradient id="Безымянный_градиент_62-3" x1="110.16" y1="15.42" x2="310.94" y2="15.42" xlink:href="#Безымянный_градиент_62"/><filter id="luminosity-noclip-5" x="117.13" y="-8251.27" width="200.43" height="32766" filterUnits="userSpaceOnUse" color-interpolation-filters="sRGB"><feFlood flood-color="#fff" result="bg"/><feBlend in="SourceGraphic" in2="bg"/></filter><mask id="mask-5" x="117.13" y="-8251.27" width="200.43" height="32766" maskUnits="userSpaceOnUse"><g class="cls-39"/></mask><linearGradient id="Безымянный_градиент_62-4" x1="117.13" y1="8.22" x2="317.56" y2="8.22" xlink:href="#Безымянный_градиент_62"/><filter id="luminosity-noclip-6" x="213.59" y="-8251.27" width="200.78" height="32766" filterUnits="userSpaceOnUse" color-interpolation-filters="sRGB"><feFlood flood-color="#fff" result="bg"/><feBlend in="SourceGraphic" in2="bg"/></filter><mask id="mask-6" x="213.59" y="-8251.27" width="200.78" height="32766" maskUnits="userSpaceOnUse"><g class="cls-38"/></mask><linearGradient id="Безымянный_градиент_62-5" x1="213.59" y1="98.26" x2="414.37" y2="98.26" xlink:href="#Безымянный_градиент_62"/><filter id="luminosity-noclip-7" x="98.68" y="47.83" width="115.06" height="7" filterUnits="userSpaceOnUse" color-interpolation-filters="sRGB"><feFlood flood-color="#fff" result="bg"/><feBlend in="SourceGraphic" in2="bg"/></filter><mask id="mask-7" x="98.68" y="47.83" width="115.06" height="7" maskUnits="userSpaceOnUse"><g class="cls-1"><polygon class="cls-2" points="100.78 47.83 98.68 54.84 208.05 54.84 213.74 47.83 100.78 47.83"/></g></mask><linearGradient id="Безымянный_градиент_33" x1="98.68" y1="51.34" x2="213.74" y2="51.34" gradientUnits="userSpaceOnUse"><stop offset="0" stop-color="#0eb3a0"/><stop offset="0.24" stop-color="#0bbab8"/><stop offset="1" stop-color="#00d0ff"/></linearGradient><filter id="luminosity-noclip-8" x="226.12" y="47.33" width="99.96" height="7" filterUnits="userSpaceOnUse" color-interpolation-filters="sRGB"><feFlood flood-color="#fff" result="bg"/><feBlend in="SourceGraphic" in2="bg"/></filter><mask id="mask-8" x="226.12" y="47.33" width="99.96" height="7" maskUnits="userSpaceOnUse"><g class="cls-5"><polygon class="cls-6" points="230.97 47.33 226.12 54.34 323.83 54.34 326.08 47.33 230.97 47.33"/></g></mask><linearGradient id="Безымянный_градиент_4" x1="226.12" y1="50.84" x2="326.08" y2="50.84" gradientUnits="userSpaceOnUse"><stop offset="0" stop-color="#00d0ff"/><stop offset="0.05" stop-color="#02ccf4"/><stop offset="0.21" stop-color="#06c3d5"/><stop offset="0.38" stop-color="#0abcbe"/><stop offset="0.56" stop-color="#0cb7ad"/><stop offset="0.75" stop-color="#0eb4a3"/><stop offset="1" stop-color="#0eb3a0"/></linearGradient><filter id="luminosity-noclip-9" x="110.16" y="13.02" width="200.78" height="4.81" filterUnits="userSpaceOnUse" color-interpolation-filters="sRGB"><feFlood flood-color="#fff" result="bg"/><feBlend in="SourceGraphic" in2="bg"/></filter><mask id="mask-9" x="110.16" y="13.02" width="200.78" height="4.81" maskUnits="userSpaceOnUse"><g class="cls-7"><polygon class="cls-8" points="114.81 13.02 110.16 17.83 306.68 17.83 310.94 13.02 114.81 13.02"/></g></mask><linearGradient id="Безымянный_градиент_4-2" x1="110.16" y1="15.42" x2="310.94" y2="15.42" xlink:href="#Безымянный_градиент_4"/><filter id="luminosity-noclip-10" x="117.13" y="5.81" width="200.43" height="4.81" filterUnits="userSpaceOnUse" color-interpolation-filters="sRGB"><feFlood flood-color="#fff" result="bg"/><feBlend in="SourceGraphic" in2="bg"/></filter><mask id="mask-10" x="117.13" y="5.81" width="200.43" height="4.81" maskUnits="userSpaceOnUse"><g class="cls-9"><polygon class="cls-10" points="121.78 5.81 117.13 10.62 313.31 10.62 317.56 5.81 121.78 5.81"/></g></mask><linearGradient id="Безымянный_градиент_4-3" x1="117.13" y1="8.22" x2="317.56" y2="8.22" xlink:href="#Безымянный_градиент_4"/><filter id="luminosity-noclip-11" x="213.59" y="95.86" width="200.78" height="4.81" filterUnits="userSpaceOnUse" color-interpolation-filters="sRGB"><feFlood flood-color="#fff" result="bg"/><feBlend in="SourceGraphic" in2="bg"/></filter><mask id="mask-11" x="213.59" y="95.86" width="200.78" height="4.81" maskUnits="userSpaceOnUse"><g class="cls-11"><polygon class="cls-12" points="218.24 95.86 213.59 100.66 410.12 100.66 414.37 95.86 218.24 95.86"/></g></mask><linearGradient id="Безымянный_градиент_4-4" x1="213.59" y1="98.26" x2="414.37" y2="98.26" xlink:href="#Безымянный_градиент_4"/><filter id="luminosity-noclip-12" x="220.57" y="88.65" width="200.43" height="4.81" filterUnits="userSpaceOnUse" color-interpolation-filters="sRGB"><feFlood flood-color="#fff" result="bg"/><feBlend in="SourceGraphic" in2="bg"/></filter><mask id="mask-12" x="220.57" y="88.65" width="200.43" height="4.81" maskUnits="userSpaceOnUse"><g class="cls-3"><polygon class="cls-4" points="225.22 88.65 220.57 93.45 416.74 93.45 421 88.65 225.22 88.65"/></g></mask><linearGradient id="Безымянный_градиент_4-5" x1="220.57" y1="91.05" x2="421" y2="91.05" xlink:href="#Безымянный_градиент_4"/></defs><title>menu_01</title><g id="Layer_2" data-name="Layer 2"><g id="Layer_1-2" data-name="Layer 1"><path class="cls-13" d="M377.13,78.41h-6.38V68.34h1.34v8.88h5Z"/><path class="cls-13" d="M384.81,74.64a4.23,4.23,0,0,1-.95,2.91,3.56,3.56,0,0,1-5.09,0,5,5,0,0,1,0-5.83,3.56,3.56,0,0,1,5.09,0A4.26,4.26,0,0,1,384.81,74.64Zm-1.32,0a3.44,3.44,0,0,0-.57-2.18,2.15,2.15,0,0,0-3.21,0,3.44,3.44,0,0,0-.57,2.18,3.38,3.38,0,0,0,.58,2.15,2.1,2.1,0,0,0,3.19,0A3.41,3.41,0,0,0,383.49,74.64Z"/><path class="cls-13" d="M391.49,72.24h-.07l-.55-.09a3.92,3.92,0,0,0-.63,0,2.58,2.58,0,0,0-1.14.27,4.77,4.77,0,0,0-1.05.67v5.36h-1.28V70.86h1.28V72a6.48,6.48,0,0,1,1.33-.86,2.91,2.91,0,0,1,1.18-.25H391l.45.07Z"/><path class="cls-13" d="M399,74.77h-5.56a3.2,3.2,0,0,0,.2,1.21,2.29,2.29,0,0,0,.58.85,2.19,2.19,0,0,0,.84.49,3.23,3.23,0,0,0,1.06.16,4.08,4.08,0,0,0,1.55-.31,4,4,0,0,0,1.12-.6h.06V78a11.26,11.26,0,0,1-1.31.46,5.34,5.34,0,0,1-1.41.18,4,4,0,0,1-2.93-1,3.81,3.81,0,0,1-1.06-2.89,4.15,4.15,0,0,1,1-2.94,3.48,3.48,0,0,1,2.67-1.09,3,3,0,0,1,2.35.89,3.55,3.55,0,0,1,.83,2.54Zm-1.23-1a2.29,2.29,0,0,0-.51-1.55,2,2,0,0,0-1.51-.54,2.23,2.23,0,0,0-1.63.6,2.32,2.32,0,0,0-.68,1.49Z"/><path class="cls-13" d="M412,78.41H410.7v-4.3c0-.32,0-.64-.05-.94a2.1,2.1,0,0,0-.18-.72A1.06,1.06,0,0,0,410,72a1.85,1.85,0,0,0-.84-.15,2.51,2.51,0,0,0-1.07.26,7.59,7.59,0,0,0-1.07.68,3.5,3.5,0,0,1,0,.37c0,.13,0,.27,0,.41v4.83h-1.27v-4.3c0-.33,0-.65,0-1a2.08,2.08,0,0,0-.19-.72,1,1,0,0,0-.45-.44,2,2,0,0,0-.84-.14,2.37,2.37,0,0,0-1,.25,6.74,6.74,0,0,0-1.05.66v5.64h-1.27V70.86h1.27v.84a6.06,6.06,0,0,1,1.19-.78,3,3,0,0,1,1.26-.27A2.45,2.45,0,0,1,406,71a2,2,0,0,1,.8.9,7,7,0,0,1,1.41-.94,3.28,3.28,0,0,1,1.36-.28,2.21,2.21,0,0,1,1.84.75,3.37,3.37,0,0,1,.59,2.11Z"/><path class="cls-13" d="M420.66,69.59h-1.44V68.27h1.44Zm-.09,8.82H419.3V70.86h1.27Z"/><path class="cls-13" d="M428.49,76.23a2,2,0,0,1-.86,1.7,3.73,3.73,0,0,1-2.33.67,5.69,5.69,0,0,1-1.54-.2,7.4,7.4,0,0,1-1.18-.44V76.53h.07a5.23,5.23,0,0,0,1.34.72,4.1,4.1,0,0,0,1.42.27,2.69,2.69,0,0,0,1.31-.27.91.91,0,0,0,.47-.85.83.83,0,0,0-.26-.68,2.38,2.38,0,0,0-1-.39l-.71-.14-.8-.18a2.69,2.69,0,0,1-1.41-.77,2,2,0,0,1-.41-1.26,2.05,2.05,0,0,1,.19-.88,2.15,2.15,0,0,1,.59-.74,2.72,2.72,0,0,1,1-.5,4.45,4.45,0,0,1,1.31-.19,5.91,5.91,0,0,1,1.37.17,4.94,4.94,0,0,1,1.15.4V72.6h-.06a4.42,4.42,0,0,0-1.19-.6,3.94,3.94,0,0,0-1.37-.25,2.35,2.35,0,0,0-1.17.27.94.94,0,0,0-.19,1.5,2.37,2.37,0,0,0,.92.38l.79.16.72.15a2.74,2.74,0,0,1,1.37.7A1.82,1.82,0,0,1,428.49,76.23Z"/><path class="cls-13" d="M437,74.54a5.2,5.2,0,0,1-.26,1.68,3.72,3.72,0,0,1-.75,1.29,3,3,0,0,1-1.05.78,3.09,3.09,0,0,1-1.28.27,4,4,0,0,1-1.07-.13,4.34,4.34,0,0,1-1-.4V81.2h-1.27V70.86h1.27v.79a5.12,5.12,0,0,1,1.14-.72,3.23,3.23,0,0,1,1.35-.28,2.49,2.49,0,0,1,2.13,1A4.72,4.72,0,0,1,437,74.54Zm-1.31,0a3.68,3.68,0,0,0-.47-2,1.62,1.62,0,0,0-1.43-.67,2.94,2.94,0,0,0-1.11.23,5,5,0,0,0-1.06.63V77a5.3,5.3,0,0,0,.93.33,4,4,0,0,0,.89.09,2,2,0,0,0,1.65-.72A3.23,3.23,0,0,0,435.65,74.58Z"/><path class="cls-13" d="M445.21,78.41h-1.27v-.84a6,6,0,0,1-1.24.78,3,3,0,0,1-1.29.27,2.4,2.4,0,0,1-1.86-.72,3.1,3.1,0,0,1-.66-2.14v-4.9h1.27v4.3a6.85,6.85,0,0,0,.06,1,1.61,1.61,0,0,0,.23.7,1,1,0,0,0,.47.44,2,2,0,0,0,.84.13,2.57,2.57,0,0,0,1.08-.26,5.31,5.31,0,0,0,1.1-.65V70.86h1.27Z"/><path class="cls-13" d="M458.74,78.41h-1.27v-4.3c0-.32,0-.64-.05-.94a2.1,2.1,0,0,0-.18-.72,1.06,1.06,0,0,0-.45-.44,1.85,1.85,0,0,0-.84-.15,2.51,2.51,0,0,0-1.07.26,7.59,7.59,0,0,0-1.07.68,3.5,3.5,0,0,1,0,.37c0,.13,0,.27,0,.41v4.83h-1.27v-4.3c0-.33,0-.65,0-1a2.08,2.08,0,0,0-.19-.72,1,1,0,0,0-.45-.44,2,2,0,0,0-.84-.14,2.37,2.37,0,0,0-1,.25,6.74,6.74,0,0,0-1,.66v5.64h-1.27V70.86H449v.84a6.06,6.06,0,0,1,1.19-.78,3,3,0,0,1,1.26-.27,2.45,2.45,0,0,1,1.31.32,2,2,0,0,1,.8.9,7,7,0,0,1,1.41-.94,3.28,3.28,0,0,1,1.36-.28,2.21,2.21,0,0,1,1.84.75,3.37,3.37,0,0,1,.59,2.11Z"/><polygon class="cls-14" points="376.45 30.6 101.64 30.6 57.7 74.53 332.51 74.53 376.45 30.6"/><path class="cls-13" d="M332.51,75.15H57.71a.62.62,0,0,1-.58-.38.64.64,0,0,1,.14-.68L101.2,30.16a.62.62,0,0,1,.44-.18H376.45a.62.62,0,0,1,.43,1.06L333,75A.6.6,0,0,1,332.51,75.15ZM59.2,73.91H332.25L375,31.22h-273Z"/><path class="cls-13" d="M462.16,84.54H227.83a.62.62,0,0,1-.48-1l7.32-9.16a.62.62,0,0,1,1,.78l-6.52,8.14h233a.63.63,0,0,1,0,1.25Z"/><path class="cls-13" d="M468.11,84.37a3.44,3.44,0,1,1-3.44-3.43A3.44,3.44,0,0,1,468.11,84.37Z"/><circle class="cls-13" cx="82.84" cy="18.08" r="3.43"/><polygon class="cls-15" points="182.34 0 180.01 2.33 189.65 2.33 191.98 0 182.34 0"/><polygon class="cls-16" points="200.93 0 198.61 2.33 208.25 2.33 210.58 0 200.93 0"/><polygon class="cls-17" points="238.13 0 235.8 2.33 245.44 2.33 247.77 0 238.13 0"/><polygon class="cls-18" points="256.73 0 254.4 2.33 264.04 2.33 266.37 0 256.73 0"/><polygon class="cls-19" points="145.14 0 142.81 2.33 152.46 2.33 154.78 0 145.14 0"/><polygon class="cls-13" points="126.54 0 124.22 2.33 133.86 2.33 136.19 0 126.54 0"/><polygon class="cls-20" points="163.74 0 161.41 2.33 171.05 2.33 173.38 0 163.74 0"/><polygon class="cls-21" points="219.53 0 217.21 2.33 226.85 2.33 229.17 0 219.53 0"/><polygon class="cls-22" points="349.71 0 347.39 2.33 357.03 2.33 359.36 0 349.71 0"/><polygon class="cls-23" points="312.52 0 310.19 2.33 319.84 2.33 322.16 0 312.52 0"/><polygon class="cls-24" points="293.92 0 291.6 2.33 301.24 2.33 303.56 0 293.92 0"/><polygon class="cls-25" points="331.12 0 328.79 2.33 338.43 2.33 340.76 0 331.12 0"/><polygon class="cls-14" points="275.32 0 273 2.33 282.64 2.33 284.97 0 275.32 0"/><polygon class="cls-15" points="276.63 106.18 278.52 104.28 268.88 104.28 266.99 106.18 276.63 106.18"/><polygon class="cls-16" points="295.23 106.18 297.12 104.28 287.48 104.28 285.59 106.18 295.23 106.18"/><polygon class="cls-17" points="332.43 106.18 334.32 104.28 324.68 104.28 322.78 106.18 332.43 106.18"/><polygon class="cls-18" points="351.02 106.18 352.92 104.28 343.27 104.28 341.38 106.18 351.02 106.18"/><polygon class="cls-19" points="239.44 106.18 241.33 104.28 231.69 104.28 229.79 106.18 239.44 106.18"/><polygon class="cls-13" points="220.84 106.18 222.73 104.28 213.09 104.28 211.2 106.18 220.84 106.18"/><polygon class="cls-20" points="258.04 106.18 259.93 104.28 250.28 104.28 248.39 106.18 258.04 106.18"/><polygon class="cls-21" points="313.83 106.18 315.72 104.28 306.08 104.28 304.19 106.18 313.83 106.18"/><polygon class="cls-22" points="444.01 106.18 445.9 104.28 436.26 104.28 434.37 106.18 444.01 106.18"/><polygon class="cls-23" points="406.82 106.18 408.71 104.28 399.07 104.28 397.17 106.18 406.82 106.18"/><polygon class="cls-24" points="388.22 106.18 390.11 104.28 380.47 104.28 378.58 106.18 388.22 106.18"/><polygon class="cls-25" points="425.41 106.18 427.31 104.28 417.66 104.28 415.77 106.18 425.41 106.18"/><polygon class="cls-14" points="369.62 106.18 371.51 104.28 361.87 104.28 359.98 106.18 369.62 106.18"/><g class="cls-26"><polygon class="cls-27" points="100.78 47.83 98.68 54.84 208.05 54.84 213.74 47.83 100.78 47.83"/></g><g class="cls-28"><polygon class="cls-29" points="230.97 47.33 226.12 54.34 323.83 54.34 326.08 47.33 230.97 47.33"/></g><path class="cls-13" d="M304.82,67.16H210.31A.3.3,0,0,1,210,67a.31.31,0,0,1,0-.32l17.13-27.54h-43a.31.31,0,1,1,0-.62h43.51a.3.3,0,0,1,.27.16.29.29,0,0,1,0,.31L210.87,66.54h93.95a.31.31,0,0,1,0,.62Z"/><g class="cls-30"><polygon class="cls-31" points="114.81 13.02 110.16 17.83 306.68 17.83 310.94 13.02 114.81 13.02"/></g><g class="cls-32"><polygon class="cls-33" points="121.78 5.81 117.13 10.62 313.31 10.62 317.56 5.81 121.78 5.81"/></g><g class="cls-34"><polygon class="cls-35" points="218.24 95.86 213.59 100.66 410.12 100.66 414.37 95.86 218.24 95.86"/></g><g class="cls-36"><polygon class="cls-37" points="225.22 88.65 220.57 93.45 416.74 93.45 421 88.65 225.22 88.65"/></g><path class="cls-13" d="M71.62,54.31a.35.35,0,0,1-.22-.09.31.31,0,0,1,0-.44L99.55,25.87a.31.31,0,0,1,.22-.09h58.12a.31.31,0,1,1,0,.62h-58L71.84,54.22A.31.31,0,0,1,71.62,54.31Z"/><polygon class="cls-13" points="103.78 22.87 101.72 18.54 71.85 48.05 76.66 48.74 99.77 26.09 101.37 25.98 101.37 26.22 139.47 26.22 142.22 22.87 103.78 22.87"/><path class="cls-13" d="M457.44,111.29H399.31A.31.31,0,0,1,399,111a.31.31,0,0,1,.31-.31h58l28.05-27.82a.31.31,0,1,1,.44.44L457.66,111.2A.31.31,0,0,1,457.44,111.29Z"/><polygon class="cls-13" points="453.43 114.2 455.49 118.53 485.36 89.02 480.55 88.33 457.44 110.98 455.83 111.09 455.83 110.86 417.74 110.86 414.99 114.2 453.43 114.2"/><path class="cls-13" d="M365.68,53.86a.32.32,0,0,1-.21-.08.3.3,0,0,1,0-.43l24.74-29.24H335a.31.31,0,0,1,0-.62h55.84a.31.31,0,0,1,.23.51L365.91,53.75A.31.31,0,0,1,365.68,53.86Z"/><polygon class="cls-13" points="383.98 15.56 372.08 21.51 347.37 21.51 342.79 23.34 362.47 23.8 390.85 23.8 369.79 48.97 381.69 43.94 397.71 23.8 400.32 23.8 407.32 15.56 383.98 15.56"/><polygon class="cls-13" points="23.34 101.6 35.24 95.65 59.95 95.65 64.53 93.82 44.85 93.36 16.48 93.36 37.53 68.19 25.63 73.23 9.61 93.36 7 93.36 0 101.6 23.34 101.6"/><path class="cls-13" d="M212.36,94H16a.62.62,0,0,1-.57-.36.61.61,0,0,1,.11-.67L82.83,17.89a.62.62,0,0,1,.93.83l-66.35,74H212.05l13.55-17.6a.61.61,0,0,1,.87-.12.62.62,0,0,1,.11.87L212.85,93.74A.6.6,0,0,1,212.36,94Z"/></g></g></svg>