<svg xmlns="http://www.w3.org/2000/svg" xmlns:xlink="http://www.w3.org/1999/xlink" viewBox="0 0 494.47 130.64"><defs><style>.cls-1{mask:url(#mask);filter:url(#luminosity-noclip-3);}.cls-2,.cls-4{mix-blend-mode:multiply;}.cls-2{fill:url(#Безымянный_градиент_70);}.cls-3{mask:url(#mask-2);filter:url(#luminosity-noclip-4);}.cls-4{fill:url(#Безымянный_градиент_70-2);}.cls-5{fill:url(#New_Gradient_Swatch_7);}.cls-6{fill:url(#New_Gradient_Swatch_7-2);}.cls-7{fill:url(#New_Gradient_Swatch_7-3);}.cls-8{fill:url(#New_Gradient_Swatch_7-4);}.cls-9{fill:url(#New_Gradient_Swatch_7-5);}.cls-10{fill:url(#New_Gradient_Swatch_7-6);}.cls-11{fill:url(#New_Gradient_Swatch_7-7);}.cls-12{fill:url(#New_Gradient_Swatch_7-8);}.cls-13{fill:url(#New_Gradient_Swatch_7-9);}.cls-14{fill:url(#New_Gradient_Swatch_7-10);}.cls-15{fill:url(#New_Gradient_Swatch_7-11);}.cls-16{fill:url(#New_Gradient_Swatch_7-12);}.cls-17{fill:url(#New_Gradient_Swatch_7-13);}.cls-18{fill:url(#New_Gradient_Swatch_7-14);}.cls-19{mask:url(#mask-3);}.cls-20{fill:url(#New_Gradient_Swatch_7-15);}.cls-21{mask:url(#mask-4);}.cls-22{fill:url(#New_Gradient_Swatch_7-16);}.cls-23{fill:url(#New_Gradient_Swatch_7-17);}.cls-24{fill:url(#New_Gradient_Swatch_7-18);}.cls-25{fill:url(#New_Gradient_Swatch_7-19);}.cls-26{fill:url(#New_Gradient_Swatch_7-20);}.cls-27{fill:url(#New_Gradient_Swatch_7-21);}.cls-28{fill:url(#New_Gradient_Swatch_7-22);}.cls-29{fill:url(#New_Gradient_Swatch_7-23);}.cls-30{fill:url(#New_Gradient_Swatch_7-24);}.cls-31{fill:url(#New_Gradient_Swatch_7-25);}.cls-32{fill:url(#New_Gradient_Swatch_7-26);}.cls-33{fill:url(#New_Gradient_Swatch_7-27);}.cls-34{fill:url(#New_Gradient_Swatch_7-28);}.cls-35{fill:url(#New_Gradient_Swatch_7-29);}.cls-36{fill:url(#New_Gradient_Swatch_7-30);}.cls-37{fill:url(#New_Gradient_Swatch_7-31);}.cls-38{fill:url(#New_Gradient_Swatch_7-32);}.cls-39{fill:url(#New_Gradient_Swatch_7-33);}.cls-40{fill:url(#New_Gradient_Swatch_7-34);}.cls-41{fill:url(#New_Gradient_Swatch_7-35);}.cls-42{fill:url(#New_Gradient_Swatch_7-36);}.cls-43{fill:url(#New_Gradient_Swatch_7-37);}.cls-44{fill:url(#New_Gradient_Swatch_7-38);}.cls-45{fill:url(#New_Gradient_Swatch_7-39);}.cls-46{fill:url(#New_Gradient_Swatch_7-40);}.cls-47{fill:url(#New_Gradient_Swatch_7-41);}.cls-48{fill:url(#New_Gradient_Swatch_7-42);}.cls-49{filter:url(#luminosity-noclip-2);}.cls-50{filter:url(#luminosity-noclip);}</style><filter id="luminosity-noclip" x="269.24" y="-8266.84" width="203.7" height="32766" filterUnits="userSpaceOnUse" color-interpolation-filters="sRGB"><feFlood flood-color="#fff" result="bg"/><feBlend in="SourceGraphic" in2="bg"/></filter><mask id="mask" x="269.24" y="-8266.84" width="203.7" height="32766" maskUnits="userSpaceOnUse"><g class="cls-50"/></mask><linearGradient id="Безымянный_градиент_70" x1="269.24" y1="68.78" x2="472.94" y2="68.78" gradientUnits="userSpaceOnUse"><stop offset="0" stop-color="#fff"/><stop offset="0.01" stop-color="#f6f6f6"/><stop offset="0.05" stop-color="#c8c8c8"/><stop offset="0.09" stop-color="#9d9d9d"/><stop offset="0.14" stop-color="#777"/><stop offset="0.2" stop-color="#575757"/><stop offset="0.25" stop-color="#3b3b3b"/><stop offset="0.32" stop-color="#252525"/><stop offset="0.4" stop-color="#141414"/><stop offset="0.49" stop-color="#090909"/><stop offset="0.63" stop-color="#020202"/><stop offset="1"/></linearGradient><filter id="luminosity-noclip-2" x="21.56" y="-8266.84" width="203.7" height="32766" filterUnits="userSpaceOnUse" color-interpolation-filters="sRGB"><feFlood flood-color="#fff" result="bg"/><feBlend in="SourceGraphic" in2="bg"/></filter><mask id="mask-2" x="21.56" y="-8266.84" width="203.7" height="32766" maskUnits="userSpaceOnUse"><g class="cls-49"/></mask><linearGradient id="Безымянный_градиент_70-2" x1="535.28" y1="-2911.76" x2="738.98" y2="-2911.76" gradientTransform="translate(760.54 -2842.98) rotate(180)" xlink:href="#Безымянный_градиент_70"/><linearGradient id="New_Gradient_Swatch_7" x1="69.74" y1="31.73" x2="77.79" y2="31.73" gradientUnits="userSpaceOnUse"><stop offset="0" stop-color="#fcdaff"/><stop offset="1" stop-color="#cf52fe"/></linearGradient><linearGradient id="New_Gradient_Swatch_7-2" x1="78.68" y1="33.32" x2="87.5" y2="33.32" xlink:href="#New_Gradient_Swatch_7"/><linearGradient id="New_Gradient_Swatch_7-3" x1="89.99" y1="33.32" x2="95.96" y2="33.32" xlink:href="#New_Gradient_Swatch_7"/><linearGradient id="New_Gradient_Swatch_7-4" x1="96.79" y1="33.3" x2="105.47" y2="33.3" xlink:href="#New_Gradient_Swatch_7"/><linearGradient id="New_Gradient_Swatch_7-5" x1="107.91" y1="33.19" x2="121.85" y2="33.19" xlink:href="#New_Gradient_Swatch_7"/><linearGradient id="New_Gradient_Swatch_7-6" x1="131.02" y1="31.69" x2="132.83" y2="31.69" xlink:href="#New_Gradient_Swatch_7"/><linearGradient id="New_Gradient_Swatch_7-7" x1="135.27" y1="33.32" x2="142.74" y2="33.32" xlink:href="#New_Gradient_Swatch_7"/><linearGradient id="New_Gradient_Swatch_7-8" x1="145.04" y1="34.95" x2="153.45" y2="34.95" xlink:href="#New_Gradient_Swatch_7"/><linearGradient id="New_Gradient_Swatch_7-9" x1="155.89" y1="33.46" x2="163.88" y2="33.46" xlink:href="#New_Gradient_Swatch_7"/><linearGradient id="New_Gradient_Swatch_7-10" x1="167.04" y1="33.19" x2="180.99" y2="33.19" xlink:href="#New_Gradient_Swatch_7"/><linearGradient id="New_Gradient_Swatch_7-11" x1="250.43" y1="68.78" x2="294.41" y2="68.78" xlink:href="#New_Gradient_Swatch_7"/><linearGradient id="New_Gradient_Swatch_7-12" x1="200.09" y1="68.78" x2="244.07" y2="68.78" xlink:href="#New_Gradient_Swatch_7"/><linearGradient id="New_Gradient_Swatch_7-13" x1="3.91" y1="68.78" x2="48.18" y2="68.78" xlink:href="#New_Gradient_Swatch_7"/><linearGradient id="New_Gradient_Swatch_7-14" x1="446.61" y1="68.78" x2="490.88" y2="68.78" xlink:href="#New_Gradient_Swatch_7"/><filter id="luminosity-noclip-3" x="269.24" y="47.94" width="203.7" height="41.67" filterUnits="userSpaceOnUse" color-interpolation-filters="sRGB"><feFlood flood-color="#fff" result="bg"/><feBlend in="SourceGraphic" in2="bg"/></filter><mask id="mask-3" x="269.24" y="47.94" width="203.7" height="41.67" maskUnits="userSpaceOnUse"><g class="cls-1"><rect class="cls-2" x="269.24" y="47.94" width="203.7" height="41.67"/></g></mask><linearGradient id="New_Gradient_Swatch_7-15" x1="269.24" y1="68.78" x2="472.94" y2="68.78" xlink:href="#New_Gradient_Swatch_7"/><filter id="luminosity-noclip-4" x="21.56" y="47.94" width="203.7" height="41.67" filterUnits="userSpaceOnUse" color-interpolation-filters="sRGB"><feFlood flood-color="#fff" result="bg"/><feBlend in="SourceGraphic" in2="bg"/></filter><mask id="mask-4" x="21.56" y="47.94" width="203.7" height="41.67" maskUnits="userSpaceOnUse"><g class="cls-3"><rect class="cls-4" x="21.56" y="47.94" width="203.7" height="41.67"/></g></mask><linearGradient id="New_Gradient_Swatch_7-16" x1="21.56" y1="68.78" x2="225.26" y2="68.78" xlink:href="#New_Gradient_Swatch_7"/><linearGradient id="New_Gradient_Swatch_7-17" x1="268.85" y1="68.78" x2="473.33" y2="68.78" xlink:href="#New_Gradient_Swatch_7"/><linearGradient id="New_Gradient_Swatch_7-18" x1="21.17" y1="68.78" x2="225.65" y2="68.78" xlink:href="#New_Gradient_Swatch_7"/><linearGradient id="New_Gradient_Swatch_7-19" x1="7.13" y1="113.06" x2="243.59" y2="113.06" xlink:href="#New_Gradient_Swatch_7"/><linearGradient id="New_Gradient_Swatch_7-20" x1="250.18" y1="19.75" x2="485.77" y2="19.75" xlink:href="#New_Gradient_Swatch_7"/><linearGradient id="New_Gradient_Swatch_7-21" x1="246.52" y1="7.38" x2="250.84" y2="7.38" xlink:href="#New_Gradient_Swatch_7"/><linearGradient id="New_Gradient_Swatch_7-22" x1="315.52" y1="36.89" x2="330.28" y2="36.89" xlink:href="#New_Gradient_Swatch_7"/><linearGradient id="New_Gradient_Swatch_7-23" x1="332.45" y1="36.89" x2="347.2" y2="36.89" xlink:href="#New_Gradient_Swatch_7"/><linearGradient id="New_Gradient_Swatch_7-24" x1="349.37" y1="36.89" x2="364.13" y2="36.89" xlink:href="#New_Gradient_Swatch_7"/><linearGradient id="New_Gradient_Swatch_7-25" x1="366.3" y1="36.89" x2="381.06" y2="36.89" xlink:href="#New_Gradient_Swatch_7"/><linearGradient id="New_Gradient_Swatch_7-26" x1="383.23" y1="36.89" x2="397.98" y2="36.89" xlink:href="#New_Gradient_Swatch_7"/><linearGradient id="New_Gradient_Swatch_7-27" x1="359.36" y1="91.58" x2="374.11" y2="91.58" xlink:href="#New_Gradient_Swatch_7"/><linearGradient id="New_Gradient_Swatch_7-28" x1="376.28" y1="91.58" x2="391.04" y2="91.58" xlink:href="#New_Gradient_Swatch_7"/><linearGradient id="New_Gradient_Swatch_7-29" x1="393.21" y1="91.58" x2="407.97" y2="91.58" xlink:href="#New_Gradient_Swatch_7"/><linearGradient id="New_Gradient_Swatch_7-30" x1="410.14" y1="91.58" x2="424.89" y2="91.58" xlink:href="#New_Gradient_Swatch_7"/><linearGradient id="New_Gradient_Swatch_7-31" x1="427.06" y1="91.58" x2="441.82" y2="91.58" xlink:href="#New_Gradient_Swatch_7"/><linearGradient id="New_Gradient_Swatch_7-32" x1="0" y1="36.78" x2="4.32" y2="36.78" xlink:href="#New_Gradient_Swatch_7"/><linearGradient id="New_Gradient_Swatch_7-33" x1="0" y1="53.43" x2="4.32" y2="53.43" xlink:href="#New_Gradient_Swatch_7"/><linearGradient id="New_Gradient_Swatch_7-34" x1="0" y1="70.09" x2="4.32" y2="70.09" xlink:href="#New_Gradient_Swatch_7"/><linearGradient id="New_Gradient_Swatch_7-35" x1="0" y1="86.75" x2="4.32" y2="86.75" xlink:href="#New_Gradient_Swatch_7"/><linearGradient id="New_Gradient_Swatch_7-36" x1="0" y1="103.41" x2="4.32" y2="103.41" xlink:href="#New_Gradient_Swatch_7"/><linearGradient id="New_Gradient_Swatch_7-37" x1="490.15" y1="100.52" x2="494.47" y2="100.52" xlink:href="#New_Gradient_Swatch_7"/><linearGradient id="New_Gradient_Swatch_7-38" x1="490.15" y1="83.86" x2="494.47" y2="83.86" xlink:href="#New_Gradient_Swatch_7"/><linearGradient id="New_Gradient_Swatch_7-39" x1="490.15" y1="67.2" x2="494.47" y2="67.2" xlink:href="#New_Gradient_Swatch_7"/><linearGradient id="New_Gradient_Swatch_7-40" x1="490.15" y1="50.54" x2="494.47" y2="50.54" xlink:href="#New_Gradient_Swatch_7"/><linearGradient id="New_Gradient_Swatch_7-41" x1="490.15" y1="33.88" x2="494.47" y2="33.88" xlink:href="#New_Gradient_Swatch_7"/><linearGradient id="New_Gradient_Swatch_7-42" x1="238.87" y1="123.26" x2="243.19" y2="123.26" xlink:href="#New_Gradient_Swatch_7"/></defs><title>menu_03_purple</title><g id="Layer_2" data-name="Layer 2"><g id="Layer_1-2" data-name="Layer 1"><path class="cls-5" d="M77.79,38.1H69.74V25.36h1.69V36.6h6.36Z"/><path class="cls-6" d="M87.5,33.33A5.39,5.39,0,0,1,86.31,37a4.48,4.48,0,0,1-6.43,0,5.35,5.35,0,0,1-1.2-3.68,5.36,5.36,0,0,1,1.2-3.69,4.48,4.48,0,0,1,6.43,0A5.4,5.4,0,0,1,87.5,33.33Zm-1.66,0a4.38,4.38,0,0,0-.72-2.76,2.73,2.73,0,0,0-4.05,0,4.31,4.31,0,0,0-.73,2.76,4.39,4.39,0,0,0,.73,2.72,2.67,2.67,0,0,0,4,0A4.3,4.3,0,0,0,85.84,33.33Z"/><path class="cls-7" d="M96,30.3h-.09a6.11,6.11,0,0,0-.7-.13c-.22,0-.49,0-.8,0a3.29,3.29,0,0,0-1.43.33,6.42,6.42,0,0,0-1.34.85V38.1H90V28.55H91.6V30a7.47,7.47,0,0,1,1.69-1.09,3.6,3.6,0,0,1,1.49-.32,4.74,4.74,0,0,1,.61,0l.57.08Z"/><path class="cls-8" d="M105.47,33.49h-7A4.24,4.24,0,0,0,98.69,35a3,3,0,0,0,.73,1.07,2.86,2.86,0,0,0,1.06.61,4.05,4.05,0,0,0,1.34.21,5.36,5.36,0,0,0,2-.39,4.68,4.68,0,0,0,1.4-.76h.09v1.75a12,12,0,0,1-1.66.57,6.48,6.48,0,0,1-1.78.23A5.16,5.16,0,0,1,98.13,37a4.86,4.86,0,0,1-1.34-3.66,5.27,5.27,0,0,1,1.28-3.72,4.4,4.4,0,0,1,3.37-1.38,3.87,3.87,0,0,1,3,1.13,4.53,4.53,0,0,1,1,3.21Zm-1.57-1.23a2.85,2.85,0,0,0-.63-2,2.47,2.47,0,0,0-1.92-.69,2.76,2.76,0,0,0-2,.76,3,3,0,0,0-.87,1.89Z"/><path class="cls-9" d="M121.85,38.1h-1.61V32.66c0-.41,0-.81,0-1.19a2.49,2.49,0,0,0-.24-.91,1.32,1.32,0,0,0-.56-.56,2.34,2.34,0,0,0-1.06-.19,3,3,0,0,0-1.36.34,7.8,7.8,0,0,0-1.35.86c0,.13,0,.28,0,.46s0,.34,0,.51V38.1h-1.61V32.66a11.55,11.55,0,0,0,0-1.2,2.55,2.55,0,0,0-.24-.91,1.24,1.24,0,0,0-.56-.55,2.34,2.34,0,0,0-1.06-.19,2.93,2.93,0,0,0-1.32.33,7.1,7.1,0,0,0-1.33.83V38.1h-1.6V28.55h1.6v1.06a7,7,0,0,1,1.51-1,3.76,3.76,0,0,1,1.59-.35,3.22,3.22,0,0,1,1.66.41,2.49,2.49,0,0,1,1,1.14,8.09,8.09,0,0,1,1.78-1.19,4.18,4.18,0,0,1,1.72-.36,2.78,2.78,0,0,1,2.32.95,4.24,4.24,0,0,1,.75,2.67Z"/><path class="cls-10" d="M132.83,27H131V25.28h1.81Zm-.1,11.15h-1.61V28.55h1.61Z"/><path class="cls-11" d="M142.74,35.35a2.59,2.59,0,0,1-1.08,2.14,4.71,4.71,0,0,1-3,.84,7,7,0,0,1-1.94-.25,8.91,8.91,0,0,1-1.49-.55V35.72h.09a6.4,6.4,0,0,0,1.69.91,5.14,5.14,0,0,0,1.79.34,3.34,3.34,0,0,0,1.66-.34,1.16,1.16,0,0,0,.6-1.08,1.07,1.07,0,0,0-.33-.85,2.83,2.83,0,0,0-1.25-.5l-.89-.18c-.37-.07-.7-.14-1-.22a3.35,3.35,0,0,1-1.78-1,2.43,2.43,0,0,1-.52-1.59,2.64,2.64,0,0,1,.24-1.11,2.61,2.61,0,0,1,.74-.93,3.52,3.52,0,0,1,1.22-.64,5.3,5.3,0,0,1,1.65-.24,7.52,7.52,0,0,1,1.74.21,6.38,6.38,0,0,1,1.45.51v1.72h-.08a5.54,5.54,0,0,0-1.5-.76,5.12,5.12,0,0,0-1.73-.32,3.05,3.05,0,0,0-1.48.34,1.09,1.09,0,0,0-.61,1,1.07,1.07,0,0,0,.37.89,2.76,2.76,0,0,0,1.16.48l1,.21.92.19a3.35,3.35,0,0,1,1.72.88A2.3,2.3,0,0,1,142.74,35.35Z"/><path class="cls-12" d="M153.45,33.21a6.5,6.5,0,0,1-.33,2.12,4.82,4.82,0,0,1-.94,1.63,4,4,0,0,1-1.33,1,3.9,3.9,0,0,1-1.62.35,5.55,5.55,0,0,1-1.35-.16,5.74,5.74,0,0,1-1.23-.51v4H145V28.55h1.61v1a6.63,6.63,0,0,1,1.44-.91,4.1,4.1,0,0,1,1.71-.36,3.15,3.15,0,0,1,2.69,1.3A6,6,0,0,1,153.45,33.21Zm-1.66,0a4.6,4.6,0,0,0-.59-2.58,2.05,2.05,0,0,0-1.81-.86,3.57,3.57,0,0,0-1.4.3,6.36,6.36,0,0,0-1.34.79v5.41a5.88,5.88,0,0,0,1.18.42,4.69,4.69,0,0,0,1.11.11,2.58,2.58,0,0,0,2.1-.9A4.15,4.15,0,0,0,151.79,33.25Z"/><path class="cls-13" d="M163.88,38.1h-1.61V37a7.23,7.23,0,0,1-1.56,1,3.83,3.83,0,0,1-1.64.35,3,3,0,0,1-2.34-.92,3.9,3.9,0,0,1-.84-2.7v-6.2h1.61V34a8.84,8.84,0,0,0,.07,1.24,2.17,2.17,0,0,0,.29.89,1.3,1.3,0,0,0,.6.54,2.49,2.49,0,0,0,1.06.17,3.35,3.35,0,0,0,1.37-.32,6.49,6.49,0,0,0,1.38-.83V28.55h1.61Z"/><path class="cls-14" d="M181,38.1h-1.61V32.66a11.42,11.42,0,0,0-.06-1.19,2.32,2.32,0,0,0-.23-.91,1.29,1.29,0,0,0-.57-.56,2.28,2.28,0,0,0-1.06-.19,2.94,2.94,0,0,0-1.35.34,7.8,7.8,0,0,0-1.35.86c0,.13,0,.28,0,.46s0,.34,0,.51V38.1h-1.61V32.66c0-.42,0-.82-.05-1.2a2.55,2.55,0,0,0-.24-.91,1.24,1.24,0,0,0-.56-.55,2.34,2.34,0,0,0-1.06-.19,3,3,0,0,0-1.33.33,7.38,7.38,0,0,0-1.32.83V38.1H167V28.55h1.61v1.06a6.74,6.74,0,0,1,1.5-1,3.78,3.78,0,0,1,1.6-.35,3.15,3.15,0,0,1,1.65.41,2.46,2.46,0,0,1,1,1.14,8.09,8.09,0,0,1,1.78-1.19,4.14,4.14,0,0,1,1.72-.36,2.78,2.78,0,0,1,2.32.95A4.24,4.24,0,0,1,181,31.9Z"/><polygon class="cls-15" points="286.46 97.66 261.03 97.66 261.03 39.9 286.46 39.9 294.41 29.3 261.03 29.3 250.43 29.3 250.43 39.9 250.43 97.66 250.43 108.26 261.03 108.26 294.41 108.26 286.46 97.66"/><polygon class="cls-16" points="208.03 39.9 233.47 39.9 233.47 97.66 208.03 97.66 200.09 108.26 233.47 108.26 244.07 108.26 244.07 97.66 244.07 39.9 244.07 29.3 233.47 29.3 200.09 29.3 208.03 39.9"/><polygon class="cls-17" points="19.4 97.66 14.79 97.66 14.79 39.9 40.23 39.9 48.18 29.3 14.79 29.3 4.2 29.3 4.2 39.9 4.2 97.66 4.2 108.26 3.91 108.26 19.4 97.66"/><polygon class="cls-18" points="473.65 39.9 479.99 39.9 479.99 97.66 454.56 97.66 446.61 108.26 479.99 108.26 490.59 108.26 490.59 97.66 490.59 39.9 490.59 29.3 490.88 29.3 473.65 39.9"/><g class="cls-19"><rect class="cls-20" x="269.24" y="47.94" width="203.7" height="41.67"/></g><g class="cls-21"><rect class="cls-22" x="21.56" y="47.94" width="203.7" height="41.67"/></g><path class="cls-23" d="M473.33,90H268.85V47.55H473.33Zm-203.7-.78H472.55V48.34H269.63Z"/><path class="cls-24" d="M225.65,90H21.17V47.55H225.65ZM22,89.22H224.87V48.34H22Z"/><path class="cls-25" d="M243.2,128a.38.38,0,0,1-.39-.39V112.37H190.68a.39.39,0,0,1-.35-.22.38.38,0,0,1,0-.42l10.33-12.82H25L7.75,110.57a.4.4,0,0,1-.55-.11.39.39,0,0,1,.11-.54L24.67,98.2a.34.34,0,0,1,.22-.07H201.53a.42.42,0,0,1,.36.22.42.42,0,0,1,0,.42L191.5,111.58h51.7a.39.39,0,0,1,.39.4V127.6A.38.38,0,0,1,243.2,128Z"/><path class="cls-26" d="M467.15,39.45H291.37a.38.38,0,0,1-.31-.62l9.09-12.4H250.58a.39.39,0,0,1-.4-.39V.43a.4.4,0,0,1,.79,0V25.65h50a.39.39,0,0,1,.32.62l-9.09,12.4H467L485.17,27a.39.39,0,0,1,.54.12.38.38,0,0,1-.12.54L467.36,39.39A.37.37,0,0,1,467.15,39.45Z"/><polygon class="cls-27" points="250.84 11.88 246.52 14.76 246.52 2.88 250.84 0 250.84 11.88"/><polygon class="cls-28" points="315.52 34.73 318.4 39.05 330.28 39.05 327.4 34.73 315.52 34.73"/><polygon class="cls-29" points="332.45 34.73 335.33 39.05 347.2 39.05 344.32 34.73 332.45 34.73"/><polygon class="cls-30" points="349.37 34.73 352.25 39.05 364.13 39.05 361.25 34.73 349.37 34.73"/><polygon class="cls-31" points="366.3 34.73 369.18 39.05 381.06 39.05 378.18 34.73 366.3 34.73"/><polygon class="cls-32" points="395.11 34.73 383.23 34.73 386.11 39.05 397.98 39.05 395.11 34.73"/><polygon class="cls-33" points="359.36 89.42 362.24 93.74 374.11 93.74 371.23 89.42 359.36 89.42"/><polygon class="cls-34" points="376.28 89.42 379.16 93.74 391.04 93.74 388.16 89.42 376.28 89.42"/><polygon class="cls-35" points="393.21 89.42 396.09 93.74 407.97 93.74 405.09 89.42 393.21 89.42"/><polygon class="cls-36" points="410.14 89.42 413.02 93.74 424.89 93.74 422.01 89.42 410.14 89.42"/><polygon class="cls-37" points="438.94 89.42 427.06 89.42 429.94 93.74 441.82 93.74 438.94 89.42"/><polygon class="cls-38" points="4.32 29.51 0 32.35 0 44.04 4.32 41.2 4.32 29.51"/><polygon class="cls-39" points="4.32 46.17 0 49.01 0 60.7 4.32 57.86 4.32 46.17"/><polygon class="cls-40" points="4.32 62.83 0 65.67 0 77.36 4.32 74.52 4.32 62.83"/><polygon class="cls-41" points="4.32 79.49 0 82.33 0 94.02 4.32 91.18 4.32 79.49"/><polygon class="cls-42" points="4.32 107.84 4.32 96.15 0 98.98 0 110.67 4.32 107.84"/><polygon class="cls-43" points="490.15 107.78 494.47 104.95 494.47 93.26 490.15 96.09 490.15 107.78"/><polygon class="cls-44" points="490.15 91.12 494.47 88.29 494.47 76.6 490.15 79.43 490.15 91.12"/><polygon class="cls-45" points="490.15 74.46 494.47 71.63 494.47 59.94 490.15 62.77 490.15 74.46"/><polygon class="cls-46" points="490.15 57.8 494.47 54.97 494.47 43.28 490.15 46.11 490.15 57.8"/><polygon class="cls-47" points="490.15 29.45 490.15 41.14 494.47 38.31 494.47 26.62 490.15 29.45"/><polygon class="cls-48" points="243.19 127.76 238.87 130.64 238.87 118.76 243.19 115.88 243.19 127.76"/></g></g></svg>