<svg xmlns="http://www.w3.org/2000/svg" xmlns:xlink="http://www.w3.org/1999/xlink" viewBox="0 0 494.03 162.62"><defs><style>.cls-1{mask:url(#mask);filter:url(#luminosity-noclip-2);}.cls-2{mix-blend-mode:multiply;fill:url(#linear-gradient);}.cls-3{mask:url(#mask-2);}.cls-28,.cls-4,.cls-9{opacity:0.6;}.cls-4{fill:url(#New_Gradient_Swatch_7);}.cls-5{fill:url(#New_Gradient_Swatch_7-2);}.cls-13,.cls-32,.cls-6{opacity:0.5;}.cls-6{fill:url(#New_Gradient_Swatch_7-3);}.cls-7{fill:url(#New_Gradient_Swatch_7-4);}.cls-27,.cls-8{opacity:0.9;}.cls-8{fill:url(#New_Gradient_Swatch_7-5);}.cls-9{fill:url(#New_Gradient_Swatch_7-6);}.cls-10,.cls-29{opacity:0.7;}.cls-10{fill:url(#New_Gradient_Swatch_7-7);}.cls-11,.cls-30{opacity:0.8;}.cls-11{fill:url(#New_Gradient_Swatch_7-8);}.cls-12{fill:url(#New_Gradient_Swatch_7-9);}.cls-13{fill:url(#New_Gradient_Swatch_7-10);}.cls-14,.cls-33{opacity:0.2;}.cls-14{fill:url(#New_Gradient_Swatch_7-11);}.cls-15,.cls-34{opacity:0.4;}.cls-15{fill:url(#New_Gradient_Swatch_7-12);}.cls-16,.cls-35{opacity:0.3;}.cls-16{fill:url(#New_Gradient_Swatch_7-13);}.cls-17{fill:url(#New_Gradient_Swatch_7-14);}.cls-18{fill:url(#New_Gradient_Swatch_7-15);}.cls-19{fill:url(#New_Gradient_Swatch_7-16);}.cls-20{fill:url(#New_Gradient_Swatch_7-17);}.cls-21{fill:url(#New_Gradient_Swatch_7-18);}.cls-22{fill:url(#New_Gradient_Swatch_7-19);}.cls-23{fill:url(#New_Gradient_Swatch_7-20);}.cls-24{fill:url(#New_Gradient_Swatch_7-21);}.cls-25{fill:url(#New_Gradient_Swatch_7-22);}.cls-26{fill:url(#New_Gradient_Swatch_7-23);}.cls-27{fill:url(#New_Gradient_Swatch_7-24);}.cls-28{fill:url(#New_Gradient_Swatch_7-25);}.cls-29{fill:url(#New_Gradient_Swatch_7-26);}.cls-30{fill:url(#New_Gradient_Swatch_7-27);}.cls-31{fill:url(#New_Gradient_Swatch_7-28);}.cls-32{fill:url(#New_Gradient_Swatch_7-29);}.cls-33{fill:url(#New_Gradient_Swatch_7-30);}.cls-34{fill:url(#New_Gradient_Swatch_7-31);}.cls-35{fill:url(#New_Gradient_Swatch_7-32);}.cls-36{fill:url(#New_Gradient_Swatch_7-33);}.cls-37{fill:url(#New_Gradient_Swatch_7-34);}.cls-38{fill:url(#New_Gradient_Swatch_7-35);}.cls-39{fill:url(#New_Gradient_Swatch_7-36);}.cls-40{fill:url(#New_Gradient_Swatch_7-37);}.cls-41{fill:url(#New_Gradient_Swatch_7-38);}.cls-42{fill:url(#New_Gradient_Swatch_7-39);}.cls-43{fill:url(#New_Gradient_Swatch_7-40);}.cls-44{fill:url(#New_Gradient_Swatch_7-41);}.cls-45{fill:url(#New_Gradient_Swatch_7-42);}.cls-46{fill:url(#New_Gradient_Swatch_7-43);}.cls-47{fill:url(#New_Gradient_Swatch_7-44);}.cls-48{fill:url(#New_Gradient_Swatch_7-45);}.cls-49{fill:url(#New_Gradient_Swatch_7-46);}.cls-50{fill:url(#New_Gradient_Swatch_7-47);}.cls-51{filter:url(#luminosity-noclip);}</style><filter id="luminosity-noclip" x="16.42" y="-8281.48" width="468.81" height="32766" filterUnits="userSpaceOnUse" color-interpolation-filters="sRGB"><feFlood flood-color="#fff" result="bg"/><feBlend in="SourceGraphic" in2="bg"/></filter><mask id="mask" x="16.42" y="-8281.48" width="468.81" height="32766" maskUnits="userSpaceOnUse"><g class="cls-51"/></mask><linearGradient id="linear-gradient" x1="16.42" y1="70.55" x2="485.23" y2="70.55" gradientUnits="userSpaceOnUse"><stop offset="0" stop-color="#fff"/><stop offset="0.07" stop-color="#d8d8d8"/><stop offset="0.16" stop-color="#a6a6a6"/><stop offset="0.26" stop-color="#797979"/><stop offset="0.37" stop-color="#545454"/><stop offset="0.47" stop-color="#353535"/><stop offset="0.58" stop-color="#1e1e1e"/><stop offset="0.7" stop-color="#0d0d0d"/><stop offset="0.83" stop-color="#030303"/><stop offset="1"/></linearGradient><filter id="luminosity-noclip-2" x="16.42" y="22.96" width="468.81" height="95.19" filterUnits="userSpaceOnUse" color-interpolation-filters="sRGB"><feFlood flood-color="#fff" result="bg"/><feBlend in="SourceGraphic" in2="bg"/></filter><mask id="mask-2" x="16.42" y="22.96" width="468.81" height="95.19" maskUnits="userSpaceOnUse"><g class="cls-1"><path class="cls-2" d="M470.38,23H419.2v17.6H86.85L69.24,23H48.32L16.42,42.31v75.83H485.23V58.46ZM194,67.22l-9-8.5h19.09l9,8.5Zm26,0-9-8.5h19.08l9,8.5Zm26,0-9-8.5H256.2l9,8.5Zm26,0-9-8.5h19.08l9,8.5Zm26,0-9-8.5h19.09l9,8.5Zm26,0-9-8.5H334.3l9,8.5Zm26,0-9-8.5h19.09l9,8.5Zm26,0-9-8.5h19.08l9,8.5Zm26,0-9-8.5H410l9,8.5Z"/></g></mask><linearGradient id="New_Gradient_Swatch_7" x1="16.42" y1="70.55" x2="485.23" y2="70.55" gradientUnits="userSpaceOnUse"><stop offset="0" stop-color="#fcdaff"/><stop offset="1" stop-color="#cf52fe"/></linearGradient><linearGradient id="New_Gradient_Swatch_7-2" x1="15.49" y1="70.55" x2="486.16" y2="70.55" xlink:href="#New_Gradient_Swatch_7"/><linearGradient id="New_Gradient_Swatch_7-3" x1="418.1" y1="83.21" x2="494.03" y2="83.21" xlink:href="#New_Gradient_Swatch_7"/><linearGradient id="New_Gradient_Swatch_7-4" x1="84.1" y1="44.14" x2="322.91" y2="44.14" xlink:href="#New_Gradient_Swatch_7"/><linearGradient id="New_Gradient_Swatch_7-5" x1="115.03" y1="30.11" x2="153.76" y2="30.11" xlink:href="#New_Gradient_Swatch_7"/><linearGradient id="New_Gradient_Swatch_7-6" x1="222.88" y1="30.11" x2="261.61" y2="30.11" xlink:href="#New_Gradient_Swatch_7"/><linearGradient id="New_Gradient_Swatch_7-7" x1="186.93" y1="30.11" x2="225.66" y2="30.11" xlink:href="#New_Gradient_Swatch_7"/><linearGradient id="New_Gradient_Swatch_7-8" x1="150.98" y1="30.11" x2="189.71" y2="30.11" xlink:href="#New_Gradient_Swatch_7"/><linearGradient id="New_Gradient_Swatch_7-9" x1="82.33" y1="30.11" x2="117.81" y2="30.11" xlink:href="#New_Gradient_Swatch_7"/><linearGradient id="New_Gradient_Swatch_7-10" x1="258.83" y1="30.11" x2="297.56" y2="30.11" xlink:href="#New_Gradient_Swatch_7"/><linearGradient id="New_Gradient_Swatch_7-11" x1="366.67" y1="30.11" x2="405.41" y2="30.11" xlink:href="#New_Gradient_Swatch_7"/><linearGradient id="New_Gradient_Swatch_7-12" x1="294.77" y1="30.11" x2="333.51" y2="30.11" xlink:href="#New_Gradient_Swatch_7"/><linearGradient id="New_Gradient_Swatch_7-13" x1="330.72" y1="30.11" x2="369.46" y2="30.11" xlink:href="#New_Gradient_Swatch_7"/><linearGradient id="New_Gradient_Swatch_7-14" x1="463.58" y1="158.62" x2="487.76" y2="158.62" xlink:href="#New_Gradient_Swatch_7"/><linearGradient id="New_Gradient_Swatch_7-15" x1="473.05" y1="99.78" x2="477.06" y2="99.78" xlink:href="#New_Gradient_Swatch_7"/><linearGradient id="New_Gradient_Swatch_7-16" x1="43.58" y1="2.93" x2="55.67" y2="2.93" xlink:href="#New_Gradient_Swatch_7"/><linearGradient id="New_Gradient_Swatch_7-17" x1="56.55" y1="2.46" x2="68.65" y2="2.46" xlink:href="#New_Gradient_Swatch_7"/><linearGradient id="New_Gradient_Swatch_7-18" x1="69.53" y1="2" x2="81.62" y2="2" xlink:href="#New_Gradient_Swatch_7"/><linearGradient id="New_Gradient_Swatch_7-19" x1="82.51" y1="2" x2="94.6" y2="2" xlink:href="#New_Gradient_Swatch_7"/><linearGradient id="New_Gradient_Swatch_7-20" x1="95.48" y1="2" x2="107.57" y2="2" xlink:href="#New_Gradient_Swatch_7"/><linearGradient id="New_Gradient_Swatch_7-21" x1="108.46" y1="2" x2="120.55" y2="2" xlink:href="#New_Gradient_Swatch_7"/><linearGradient id="New_Gradient_Swatch_7-22" x1="121.43" y1="2" x2="133.53" y2="2" xlink:href="#New_Gradient_Swatch_7"/><linearGradient id="New_Gradient_Swatch_7-23" x1="329.05" y1="51.12" x2="341.14" y2="51.12" xlink:href="#New_Gradient_Swatch_7"/><linearGradient id="New_Gradient_Swatch_7-24" x1="23" y1="54.47" x2="28.42" y2="54.47" xlink:href="#New_Gradient_Swatch_7"/><linearGradient id="New_Gradient_Swatch_7-25" x1="23" y1="78.08" x2="28.42" y2="78.08" xlink:href="#New_Gradient_Swatch_7"/><linearGradient id="New_Gradient_Swatch_7-26" x1="23" y1="70.21" x2="28.42" y2="70.21" xlink:href="#New_Gradient_Swatch_7"/><linearGradient id="New_Gradient_Swatch_7-27" x1="23" y1="62.34" x2="28.42" y2="62.34" xlink:href="#New_Gradient_Swatch_7"/><linearGradient id="New_Gradient_Swatch_7-28" x1="23" y1="46.96" x2="28.42" y2="46.96" xlink:href="#New_Gradient_Swatch_7"/><linearGradient id="New_Gradient_Swatch_7-29" x1="23" y1="85.95" x2="28.42" y2="85.95" xlink:href="#New_Gradient_Swatch_7"/><linearGradient id="New_Gradient_Swatch_7-30" x1="23" y1="109.56" x2="28.42" y2="109.56" xlink:href="#New_Gradient_Swatch_7"/><linearGradient id="New_Gradient_Swatch_7-31" x1="23" y1="93.82" x2="28.42" y2="93.82" xlink:href="#New_Gradient_Swatch_7"/><linearGradient id="New_Gradient_Swatch_7-32" x1="23" y1="101.69" x2="28.42" y2="101.69" xlink:href="#New_Gradient_Swatch_7"/><linearGradient id="New_Gradient_Swatch_7-33" x1="66.39" y1="45.88" x2="340.24" y2="45.88" xlink:href="#New_Gradient_Swatch_7"/><linearGradient id="New_Gradient_Swatch_7-34" x1="443.5" y1="65.01" x2="477.44" y2="65.01" xlink:href="#New_Gradient_Swatch_7"/><linearGradient id="New_Gradient_Swatch_7-35" x1="116.01" y1="141.23" x2="123.56" y2="141.23" xlink:href="#New_Gradient_Swatch_7"/><linearGradient id="New_Gradient_Swatch_7-36" x1="124.4" y1="142.73" x2="132.67" y2="142.73" xlink:href="#New_Gradient_Swatch_7"/><linearGradient id="New_Gradient_Swatch_7-37" x1="135" y1="142.73" x2="140.59" y2="142.73" xlink:href="#New_Gradient_Swatch_7"/><linearGradient id="New_Gradient_Swatch_7-38" x1="141.38" y1="142.71" x2="149.51" y2="142.71" xlink:href="#New_Gradient_Swatch_7"/><linearGradient id="New_Gradient_Swatch_7-39" x1="151.8" y1="142.6" x2="164.87" y2="142.6" xlink:href="#New_Gradient_Swatch_7"/><linearGradient id="New_Gradient_Swatch_7-40" x1="173.47" y1="141.19" x2="175.17" y2="141.19" xlink:href="#New_Gradient_Swatch_7"/><linearGradient id="New_Gradient_Swatch_7-41" x1="177.45" y1="142.73" x2="184.46" y2="142.73" xlink:href="#New_Gradient_Swatch_7"/><linearGradient id="New_Gradient_Swatch_7-42" x1="186.61" y1="144.25" x2="194.5" y2="144.25" xlink:href="#New_Gradient_Swatch_7"/><linearGradient id="New_Gradient_Swatch_7-43" x1="196.78" y1="142.85" x2="204.27" y2="142.85" xlink:href="#New_Gradient_Swatch_7"/><linearGradient id="New_Gradient_Swatch_7-44" x1="207.24" y1="142.6" x2="220.32" y2="142.6" xlink:href="#New_Gradient_Swatch_7"/><linearGradient id="New_Gradient_Swatch_7-45" x1="1.01" y1="73.58" x2="97.24" y2="73.58" xlink:href="#New_Gradient_Swatch_7"/><linearGradient id="New_Gradient_Swatch_7-46" x1="13.83" y1="141.02" x2="479.73" y2="141.02" xlink:href="#New_Gradient_Swatch_7"/><linearGradient id="New_Gradient_Swatch_7-47" x1="0" y1="18.34" x2="220.68" y2="18.34" xlink:href="#New_Gradient_Swatch_7"/></defs><title>menu_12_purple</title><g id="Layer_2" data-name="Layer 2"><g id="Layer_1-2" data-name="Layer 1"><g class="cls-3"><path class="cls-4" d="M470.38,23H419.2v17.6H86.85L69.24,23H48.32L16.42,42.31v75.83H485.23V58.46ZM194,67.22l-9-8.5h19.09l9,8.5Zm26,0-9-8.5h19.08l9,8.5Zm26,0-9-8.5H256.2l9,8.5Zm26,0-9-8.5h19.08l9,8.5Zm26,0-9-8.5h19.09l9,8.5Zm26,0-9-8.5H334.3l9,8.5Zm26,0-9-8.5h19.09l9,8.5Zm26,0-9-8.5h19.08l9,8.5Zm26,0-9-8.5H410l9,8.5Z"/></g><path class="cls-5" d="M485.23,119.07H16.42a.92.92,0,0,1-.93-.93V42.31a.94.94,0,0,1,.44-.79L47.84,22.16a1,1,0,0,1,.48-.13H69.24a1,1,0,0,1,.66.27L87.23,39.64h331V23a.93.93,0,0,1,.93-.93h51.18a.93.93,0,0,1,.86.57l14.85,35.5a1.1,1.1,0,0,1,.07.36v59.68A.93.93,0,0,1,485.23,119.07ZM17.34,117.22h467V58.64L469.77,23.88H420.13V40.56a.93.93,0,0,1-.93.93H86.85a1,1,0,0,1-.66-.27L68.86,23.88H48.58l-31.24,19Z"/><polygon class="cls-6" points="477.66 18.42 483.03 13.05 429.65 13.6 418.1 22.96 470.95 24.3 485.23 58.46 484.68 153.37 491.83 144.56 491.83 106.59 494.04 96.69 494.04 54.87 477.66 18.42"/><polygon class="cls-7" points="84.1 39.46 92.35 48.82 171.04 48.82 178.19 45.52 312.45 45.52 322.91 41.11 84.1 39.46"/><polygon class="cls-8" points="127.41 35.98 153.76 35.98 141.38 24.24 115.03 24.24 127.41 35.98"/><polygon class="cls-9" points="249.23 24.24 222.88 24.24 235.26 35.98 261.61 35.98 249.23 24.24"/><polygon class="cls-10" points="213.28 24.24 186.93 24.24 199.31 35.98 225.66 35.98 213.28 24.24"/><polygon class="cls-11" points="177.33 24.24 150.98 24.24 163.36 35.98 189.71 35.98 177.33 24.24"/><polygon class="cls-12" points="105.43 24.24 82.33 24.24 94.73 35.98 117.81 35.98 105.43 24.24"/><polygon class="cls-13" points="285.18 24.24 258.82 24.24 271.21 35.98 297.56 35.98 285.18 24.24"/><polygon class="cls-14" points="393.03 24.24 366.68 24.24 379.06 35.98 405.41 35.98 393.03 24.24"/><polygon class="cls-15" points="321.13 24.24 294.77 24.24 307.16 35.98 333.51 35.98 321.13 24.24"/><polygon class="cls-16" points="357.08 24.24 330.73 24.24 343.11 35.98 369.46 35.98 357.08 24.24"/><polygon class="cls-17" points="479.33 154.62 463.58 154.62 472.04 162.62 487.76 162.62 479.33 154.62"/><polygon class="cls-18" points="477.06 101.61 477.06 93.74 473.05 97.97 473.05 105.83 477.06 101.61"/><polygon class="cls-19" points="47.8 4.93 55.67 4.93 51.44 0.93 43.58 0.93 47.8 4.93"/><polygon class="cls-20" points="60.77 4.46 68.64 4.46 64.42 0.46 56.55 0.46 60.77 4.46"/><polygon class="cls-21" points="73.75 4 81.62 4 77.39 0 69.53 0 73.75 4"/><polygon class="cls-22" points="86.72 4 94.6 4 90.37 0 82.5 0 86.72 4"/><polygon class="cls-23" points="99.7 4 107.57 4 103.35 0 95.48 0 99.7 4"/><polygon class="cls-24" points="112.68 4 120.55 4 116.32 0 108.46 0 112.68 4"/><polygon class="cls-25" points="125.65 4 133.53 4 129.3 0 121.43 0 125.65 4"/><polygon class="cls-26" points="336.92 49.12 329.05 49.12 333.28 53.13 341.14 53.13 336.92 49.12"/><polygon class="cls-27" points="23 52.94 23 58.71 28.42 56 28.42 50.23 23 52.94"/><polygon class="cls-28" points="28.42 79.61 28.42 73.84 23 76.55 23 82.32 28.42 79.61"/><polygon class="cls-29" points="28.42 71.74 28.42 65.97 23 68.68 23 74.45 28.42 71.74"/><polygon class="cls-30" points="28.42 63.87 28.42 58.1 23 60.81 23 66.58 28.42 63.87"/><polygon class="cls-31" points="28.42 48.13 28.42 43.07 23 45.79 23 50.84 28.42 48.13"/><polygon class="cls-32" points="28.42 87.48 28.42 81.71 23 84.42 23 90.19 28.42 87.48"/><polygon class="cls-33" points="28.42 111.09 28.42 105.32 23 108.03 23 113.8 28.42 111.09"/><polygon class="cls-34" points="28.42 95.35 28.42 89.58 23 92.29 23 98.06 28.42 95.35"/><polygon class="cls-35" points="28.42 103.22 28.42 97.45 23 100.16 23 105.93 28.42 103.22"/><path class="cls-36" d="M174.7,60.65H91.8a.48.48,0,0,1-.35-.16L66.51,31.88a.46.46,0,0,1,.69-.61L92,59.73h82.53l8.67-7.23a.48.48,0,0,1,.3-.11H339.78a.47.47,0,0,1,0,.93H183.68L175,60.55A.51.51,0,0,1,174.7,60.65Z"/><path class="cls-37" d="M477,101.85a.47.47,0,0,1-.47-.46V61.74L464.18,29.11H444a.47.47,0,0,1,0-.93H464.5a.47.47,0,0,1,.44.3l12.47,33a.51.51,0,0,1,0,.17v39.73A.47.47,0,0,1,477,101.85Z"/><path class="cls-38" d="M123.56,147.21H116v-12h1.59v10.53h6Z"/><path class="cls-39" d="M132.67,142.73a5,5,0,0,1-1.13,3.46,4.23,4.23,0,0,1-6,0,5.9,5.9,0,0,1,0-6.92,4.2,4.2,0,0,1,6,0A5,5,0,0,1,132.67,142.73Zm-1.56,0a4.13,4.13,0,0,0-.68-2.59,2.57,2.57,0,0,0-3.8,0,4.13,4.13,0,0,0-.68,2.59,4,4,0,0,0,.69,2.55,2.51,2.51,0,0,0,3.79,0A4.09,4.09,0,0,0,131.11,142.73Z"/><path class="cls-40" d="M140.59,139.89h-.08l-.65-.12q-.31,0-.75,0a3,3,0,0,0-1.35.31,5.86,5.86,0,0,0-1.25.8v6.36H135v-9h1.51v1.32a7.6,7.6,0,0,1,1.58-1,3.49,3.49,0,0,1,1.4-.3,4.21,4.21,0,0,1,.57,0l.53.07Z"/><path class="cls-41" d="M149.51,142.88h-6.6a3.74,3.74,0,0,0,.25,1.44,2.61,2.61,0,0,0,.68,1,2.73,2.73,0,0,0,1,.58,4.16,4.16,0,0,0,1.26.19,4.83,4.83,0,0,0,1.84-.37,4.54,4.54,0,0,0,1.32-.71h.08v1.64a13.51,13.51,0,0,1-1.55.54,6.53,6.53,0,0,1-1.67.21,4.81,4.81,0,0,1-3.48-1.2,4.53,4.53,0,0,1-1.25-3.43,4.92,4.92,0,0,1,1.2-3.49,4.1,4.1,0,0,1,3.15-1.29,3.63,3.63,0,0,1,2.8,1.06,4.25,4.25,0,0,1,1,3ZM148,141.73a2.61,2.61,0,0,0-.6-1.84,2.31,2.31,0,0,0-1.79-.65,2.6,2.6,0,0,0-1.93.72,2.71,2.71,0,0,0-.81,1.77Z"/><path class="cls-42" d="M164.87,147.21h-1.51V142.1c0-.38,0-.75-.05-1.11a2.56,2.56,0,0,0-.22-.86,1.21,1.21,0,0,0-.53-.52,2.2,2.2,0,0,0-1-.18,2.8,2.8,0,0,0-1.26.32,7.49,7.49,0,0,0-1.27.81,4.23,4.23,0,0,1,0,.43c0,.16,0,.32,0,.48v5.74h-1.51V142.1c0-.39,0-.77-.05-1.12a2.56,2.56,0,0,0-.22-.86,1.19,1.19,0,0,0-.53-.51,2.2,2.2,0,0,0-1-.18,2.87,2.87,0,0,0-1.24.31,7.44,7.44,0,0,0-1.24.78v6.69h-1.5v-9h1.5v1a6.59,6.59,0,0,1,1.41-.91,3.5,3.5,0,0,1,1.5-.33,3,3,0,0,1,1.55.38,2.46,2.46,0,0,1,1,1.07,7.75,7.75,0,0,1,1.67-1.11A3.81,3.81,0,0,1,162,138a2.63,2.63,0,0,1,2.18.89,4,4,0,0,1,.7,2.5Z"/><path class="cls-43" d="M175.17,136.75h-1.7v-1.57h1.7Zm-.1,10.46h-1.51v-9h1.51Z"/><path class="cls-44" d="M184.46,144.62a2.45,2.45,0,0,1-1,2,4.45,4.45,0,0,1-2.77.78,6.92,6.92,0,0,1-1.82-.23,8.15,8.15,0,0,1-1.4-.52V145h.08a6.38,6.38,0,0,0,1.59.85,4.94,4.94,0,0,0,1.68.32,3.17,3.17,0,0,0,1.55-.32,1.08,1.08,0,0,0,.57-1,1.05,1.05,0,0,0-.31-.81,2.76,2.76,0,0,0-1.17-.46c-.21-.05-.49-.11-.84-.17a9.47,9.47,0,0,1-.94-.21,3.08,3.08,0,0,1-1.67-.92,2.27,2.27,0,0,1-.5-1.49,2.39,2.39,0,0,1,.93-1.91,3.41,3.41,0,0,1,1.14-.6,5,5,0,0,1,1.55-.22,7.06,7.06,0,0,1,1.63.2,6.49,6.49,0,0,1,1.36.47v1.62H184a5,5,0,0,0-1.4-.72,4.7,4.7,0,0,0-1.62-.29,2.87,2.87,0,0,0-1.4.31,1.11,1.11,0,0,0-.22,1.78,2.67,2.67,0,0,0,1.09.46l.93.19.87.17a3.28,3.28,0,0,1,1.62.83A2.18,2.18,0,0,1,184.46,144.62Z"/><path class="cls-45" d="M194.5,142.62a6,6,0,0,1-.32,2,4.27,4.27,0,0,1-.88,1.53,3.79,3.79,0,0,1-1.25.92,3.69,3.69,0,0,1-1.51.32,5,5,0,0,1-1.27-.15,5.26,5.26,0,0,1-1.15-.47v3.75h-1.51V138.25h1.51v.93a6.14,6.14,0,0,1,1.35-.84,3.8,3.8,0,0,1,1.6-.34,3,3,0,0,1,2.52,1.22A5.58,5.58,0,0,1,194.5,142.62Zm-1.56,0a4.27,4.27,0,0,0-.55-2.42,1.92,1.92,0,0,0-1.7-.81,3.43,3.43,0,0,0-1.31.28,6.2,6.2,0,0,0-1.26.74v5.08a6.46,6.46,0,0,0,1.1.39,4.77,4.77,0,0,0,1.05.11,2.46,2.46,0,0,0,2-.85A3.88,3.88,0,0,0,192.94,142.66Z"/><path class="cls-46" d="M204.27,147.21h-1.5v-1a7.4,7.4,0,0,1-1.46.92,3.57,3.57,0,0,1-1.54.32,2.81,2.81,0,0,1-2.2-.86,3.65,3.65,0,0,1-.79-2.53v-5.81h1.51v5.1a7.76,7.76,0,0,0,.07,1.16,2,2,0,0,0,.27.83,1.27,1.27,0,0,0,.56.52,2.39,2.39,0,0,0,1,.16,3.1,3.1,0,0,0,1.28-.31,6.1,6.1,0,0,0,1.3-.77v-6.69h1.5Z"/><path class="cls-47" d="M220.32,147.21h-1.51V142.1c0-.38,0-.75-.05-1.11a2.33,2.33,0,0,0-.23-.86,1.19,1.19,0,0,0-.52-.52,2.23,2.23,0,0,0-1-.18,2.88,2.88,0,0,0-1.27.32,7.42,7.42,0,0,0-1.26.81c0,.12,0,.26,0,.43s0,.32,0,.48v5.74H213V142.1A10,10,0,0,0,213,141a2.34,2.34,0,0,0-.22-.86,1.14,1.14,0,0,0-.53-.51,2.19,2.19,0,0,0-1-.18,2.84,2.84,0,0,0-1.24.31,6.71,6.71,0,0,0-1.24.78v6.69h-1.51v-9h1.51v1a6.59,6.59,0,0,1,1.41-.91,3.45,3.45,0,0,1,1.49-.33,3.05,3.05,0,0,1,1.56.38,2.46,2.46,0,0,1,.95,1.07,7.71,7.71,0,0,1,1.66-1.11,3.86,3.86,0,0,1,1.62-.34,2.59,2.59,0,0,1,2.17.89,4,4,0,0,1,.71,2.5Z"/><polygon class="cls-48" points="97.25 118.16 16.42 118.16 16.42 42.86 47.78 24.01 47.78 10.53 1.01 38.64 1.01 52.13 10.36 46.5 10.36 136.63 16.42 131.13 16.42 123.1 83.03 123.1 97.25 118.16"/><polygon class="cls-49" points="479.73 155.08 110.02 155.08 84.07 127.89 13.83 127.89 13.83 126.97 84.47 126.97 110.42 154.15 479.73 154.15 479.73 155.08"/><polygon class="cls-50" points="0.47 32.67 0 31.87 47.84 4 198.3 4 220.68 24.51 220.05 25.2 197.94 4.93 48.09 4.93 0.47 32.67"/></g></g></svg>