<svg xmlns="http://www.w3.org/2000/svg" viewBox="0 0 495.89 145.24"><defs><style>.cls-1,.cls-10,.cls-2,.cls-3,.cls-4,.cls-5,.cls-6,.cls-7,.cls-8,.cls-9{fill:#11e5b3;}.cls-2{opacity:0.2;}.cls-3{opacity:0.5;}.cls-4{opacity:0.4;}.cls-5{opacity:0.6;}.cls-6{opacity:0.7;}.cls-7{opacity:0.8;}.cls-8{opacity:0.9;}.cls-9{opacity:0.3;}.cls-10{opacity:0.1;}</style></defs><title>menu_05_green</title><g id="Layer_2" data-name="Layer 2"><g id="Layer_1-2" data-name="Layer 1"><path class="cls-1" d="M312.11,25h-8.89v-14h1.87V23.29h7Z"/><path class="cls-1" d="M322.81,19.68a5.93,5.93,0,0,1-1.32,4.07,5,5,0,0,1-7.09,0,5.93,5.93,0,0,1-1.31-4.07,6,6,0,0,1,1.31-4.07,5,5,0,0,1,7.09,0A6,6,0,0,1,322.81,19.68Zm-1.83,0a4.84,4.84,0,0,0-.8-3,3,3,0,0,0-4.47,0,4.85,4.85,0,0,0-.79,3,4.78,4.78,0,0,0,.8,3,2.95,2.95,0,0,0,4.45,0A4.77,4.77,0,0,0,321,19.68Z"/><path class="cls-1" d="M332.13,16.35H332a5.44,5.44,0,0,0-.77-.14,7.56,7.56,0,0,0-.88,0,3.65,3.65,0,0,0-1.58.36,6.89,6.89,0,0,0-1.47.94V25h-1.78V14.41h1.78V16a8.15,8.15,0,0,1,1.86-1.2,4,4,0,0,1,1.64-.36,5.25,5.25,0,0,1,.67,0q.21,0,.63.09Z"/><path class="cls-1" d="M342.61,19.86h-7.76a4.65,4.65,0,0,0,.29,1.7,3.12,3.12,0,0,0,2,1.86,4.64,4.64,0,0,0,1.48.22,6,6,0,0,0,2.17-.42,5.43,5.43,0,0,0,1.55-.85h.09V24.3a12.78,12.78,0,0,1-1.83.64,7.36,7.36,0,0,1-2,.25,5.64,5.64,0,0,1-4.09-1.42,5.33,5.33,0,0,1-1.47-4,5.78,5.78,0,0,1,1.41-4.1,4.84,4.84,0,0,1,3.71-1.52,4.3,4.3,0,0,1,3.29,1.24,5,5,0,0,1,1.15,3.54Zm-1.72-1.35a3.13,3.13,0,0,0-.71-2.16,2.69,2.69,0,0,0-2.1-.77,3.07,3.07,0,0,0-2.27.84,3.26,3.26,0,0,0-1,2.09Z"/><path class="cls-1" d="M360.67,25H358.9V19a11.14,11.14,0,0,0-.07-1.31,2.81,2.81,0,0,0-.25-1A1.43,1.43,0,0,0,358,16a2.6,2.6,0,0,0-1.17-.21,3.31,3.31,0,0,0-1.49.37,9.25,9.25,0,0,0-1.49.95c0,.14,0,.31.05.5s0,.38,0,.57V25H352.1V19c0-.47,0-.91-.06-1.33a2.79,2.79,0,0,0-.26-1,1.48,1.48,0,0,0-.63-.61,2.75,2.75,0,0,0-1.16-.2,3.28,3.28,0,0,0-1.46.36,9,9,0,0,0-1.46.91V25H345.3V14.41h1.77v1.17a7.39,7.39,0,0,1,1.66-1.07,4,4,0,0,1,1.75-.39,3.5,3.5,0,0,1,1.83.45,2.8,2.8,0,0,1,1.12,1.26,8.55,8.55,0,0,1,2-1.31,4.48,4.48,0,0,1,1.89-.4,3.05,3.05,0,0,1,2.56,1.05,4.65,4.65,0,0,1,.83,2.94Z"/><path class="cls-1" d="M372.78,12.65h-2V10.81h2ZM372.66,25h-1.77V14.41h1.77Z"/><path class="cls-1" d="M383.7,21.91a2.87,2.87,0,0,1-1.2,2.37,5.21,5.21,0,0,1-3.25.92,7.67,7.67,0,0,1-2.15-.28,9.18,9.18,0,0,1-1.64-.61v-2h.1a6.88,6.88,0,0,0,1.87,1,5.7,5.7,0,0,0,2,.37,3.61,3.61,0,0,0,1.83-.38,1.26,1.26,0,0,0,.66-1.18,1.21,1.21,0,0,0-.36-.95,3.3,3.3,0,0,0-1.38-.54c-.25-.06-.58-.13-1-.2s-.78-.16-1.11-.25a3.62,3.62,0,0,1-2-1.08,2.69,2.69,0,0,1-.58-1.75,2.82,2.82,0,0,1,.27-1.22,2.86,2.86,0,0,1,.82-1,3.78,3.78,0,0,1,1.34-.7,5.76,5.76,0,0,1,1.82-.26,7.85,7.85,0,0,1,1.91.23,7,7,0,0,1,1.61.56v1.9h-.09a6.39,6.39,0,0,0-1.65-.85,5.71,5.71,0,0,0-1.91-.34A3.34,3.34,0,0,0,378,16a1.21,1.21,0,0,0-.67,1.11,1.2,1.2,0,0,0,.41,1,3.16,3.16,0,0,0,1.28.54c.33.07.69.15,1.1.22l1,.21a3.76,3.76,0,0,1,1.91,1A2.59,2.59,0,0,1,383.7,21.91Z"/><path class="cls-1" d="M395.5,19.55a7.29,7.29,0,0,1-.36,2.35,5.34,5.34,0,0,1-1,1.79,4.31,4.31,0,0,1-1.47,1.08,4.2,4.2,0,0,1-1.79.38,5.66,5.66,0,0,1-1.48-.18,6.29,6.29,0,0,1-1.35-.55v4.41h-1.78V14.41H388v1.11a6.79,6.79,0,0,1,1.59-1,4.41,4.41,0,0,1,1.88-.4,3.45,3.45,0,0,1,3,1.44A6.59,6.59,0,0,1,395.5,19.55Zm-1.83.05a5,5,0,0,0-.65-2.85,2.25,2.25,0,0,0-2-.94,3.84,3.84,0,0,0-1.53.33A6.75,6.75,0,0,0,388,17v6a6.71,6.71,0,0,0,1.29.47,5.7,5.7,0,0,0,1.23.12,2.82,2.82,0,0,0,2.31-1A4.5,4.5,0,0,0,393.67,19.6Z"/><path class="cls-1" d="M407,25h-1.77V23.78a8.61,8.61,0,0,1-1.72,1.08,4.31,4.31,0,0,1-1.81.38,3.32,3.32,0,0,1-2.59-1,4.28,4.28,0,0,1-.92-3V14.41H400v6a10.64,10.64,0,0,0,.08,1.37,2.57,2.57,0,0,0,.32,1,1.52,1.52,0,0,0,.66.6,2.81,2.81,0,0,0,1.18.19,3.72,3.72,0,0,0,1.5-.36,7.19,7.19,0,0,0,1.53-.91V14.41H407Z"/><path class="cls-1" d="M425.86,25h-1.78V19c0-.45,0-.89-.06-1.31a2.6,2.6,0,0,0-.26-1,1.36,1.36,0,0,0-.62-.61,2.6,2.6,0,0,0-1.17-.21,3.31,3.31,0,0,0-1.49.37,9.25,9.25,0,0,0-1.49.95c0,.14,0,.31.05.5s0,.38,0,.57V25h-1.77V19a11.25,11.25,0,0,0-.07-1.33,2.81,2.81,0,0,0-.25-1,1.48,1.48,0,0,0-.63-.61,2.77,2.77,0,0,0-1.17-.2,3.24,3.24,0,0,0-1.45.36,8.55,8.55,0,0,0-1.46.91V25h-1.77V14.41h1.77v1.17a7.34,7.34,0,0,1,1.65-1.07,4.08,4.08,0,0,1,1.76-.39,3.5,3.5,0,0,1,1.83.45,2.8,2.8,0,0,1,1.12,1.26,8.55,8.55,0,0,1,2-1.31,4.48,4.48,0,0,1,1.89-.4A3.05,3.05,0,0,1,425,15.17a4.65,4.65,0,0,1,.83,2.94Z"/><path class="cls-1" d="M101.9,109.36a.38.38,0,0,1-.38-.38V92.51L4.18,58.15a.38.38,0,0,1-.25-.36V19.52a.38.38,0,1,1,.76,0v38L102,91.88a.38.38,0,0,1,.25.36V109A.38.38,0,0,1,101.9,109.36Z"/><path class="cls-1" d="M8.13,19.28a4.07,4.07,0,1,1-4.06-4.07A4.07,4.07,0,0,1,8.13,19.28Z"/><circle class="cls-1" cx="356.19" cy="134.34" r="3.11"/><path class="cls-1" d="M288,22.39a3.11,3.11,0,1,1-3.11-3.11A3.11,3.11,0,0,1,288,22.39Z"/><path class="cls-1" d="M450,30.52a3.11,3.11,0,1,1-3.11-3.11A3.11,3.11,0,0,1,450,30.52Z"/><circle class="cls-1" cx="492.78" cy="70.71" r="3.11"/><path class="cls-1" d="M440.15,134.72H356a.38.38,0,0,1,0-.76h84l25.14-26.09V91.28a.38.38,0,1,1,.76,0V108a.36.36,0,0,1-.11.26L440.42,134.6A.36.36,0,0,1,440.15,134.72Z"/><polygon class="cls-2" points="205.24 25.74 198.07 18.56 120.56 18.56 19.26 25.74 19.26 52.91 115.58 85.44 115.58 128.18 436.29 128.18 458.98 105.48 458.98 85.44 479.96 85.44 479.96 59.61 205.24 25.74"/><path class="cls-1" d="M198.07,18.56l7.17,7.18L480,59.61V85.44H459v20l-22.69,22.7H115.58V85.44L19.26,52.91V25.74l101.3-7.18h77.51m0-1.52H120.46L19.15,24.22a1.53,1.53,0,0,0-1.41,1.52V52.91a1.52,1.52,0,0,0,1,1.44l95.29,32.18v41.65a1.52,1.52,0,0,0,1.52,1.52H436.29a1.49,1.49,0,0,0,1.07-.45l22.7-22.69a1.55,1.55,0,0,0,.44-1.08V87H480a1.52,1.52,0,0,0,1.52-1.52V59.61a1.54,1.54,0,0,0-1.34-1.51L206,24.29l-6.81-6.8a1.49,1.49,0,0,0-1.07-.45Z"/><polygon class="cls-1" points="99.51 19.04 104.3 14.73 122 12.82 128.22 8.51 203.33 8.51 213.86 18.08 221.51 16.17 291.84 30.52 294.71 35.3 205.24 25.74 198.07 18.56 99.51 19.04"/><polygon class="cls-1" points="170.2 134.82 182.76 129.08 115.58 128.18 114.34 111.85 107.17 119.51 107.17 134.82 170.2 134.82"/><polygon class="cls-1" points="486.08 78.34 486.08 53.41 447.33 47.27 432.43 51.82 430.1 52.53 479.96 59.61 479.96 85.44 486.08 78.34"/><polygon class="cls-1" points="219.6 129.08 227.25 134.34 318.15 134.34 324.37 130.03 219.6 129.08"/><polygon class="cls-1" points="40.67 22.39 33.97 18.56 13.4 21.91 12.92 44.4 17.7 49.66 18.18 25.74 40.67 22.39"/><path class="cls-1" d="M321.5,141.42H228.21a.36.36,0,0,1-.2-.06l-11-6.7a.38.38,0,1,1,.39-.65l10.92,6.65H321.5a.38.38,0,0,1,0,.76Z"/><path class="cls-1" d="M325.33,145.24H277a.38.38,0,0,1-.38-.38.37.37,0,0,1,.38-.37h48.17l10.41-10a.38.38,0,0,1,.53.55l-10.53,10A.35.35,0,0,1,325.33,145.24Z"/><path class="cls-1" d="M446.37,30.9H300.45a.39.39,0,0,1-.33-.19l-3.26-5.59-11.79-2.36a.38.38,0,1,1,.15-.74l12,2.39a.37.37,0,0,1,.25.18l3.24,5.55h145.7a.38.38,0,0,1,0,.76Z"/><path class="cls-1" d="M214.33,12.72a.38.38,0,0,1-.26-.11l-7.55-7.54H127.84L119.31,9.8a.38.38,0,0,1-.37-.66l8.62-4.79a.34.34,0,0,1,.18,0h78.94a.39.39,0,0,1,.27.11l7.65,7.65a.38.38,0,0,1,0,.54A.39.39,0,0,1,214.33,12.72Z"/><path class="cls-1" d="M275.57,21.81h-.08L220,9.36a.44.44,0,0,1-.18-.09l-9-8.51H189.46a.38.38,0,1,1,0-.76H211a.42.42,0,0,1,.26.1l9,8.54,55.4,12.42a.38.38,0,0,1-.09.75Z"/><path class="cls-1" d="M492.78,70.13a.38.38,0,0,1-.38-.38V49l-11.21-3.27a.38.38,0,0,1-.26-.47.37.37,0,0,1,.47-.26l11.48,3.35a.36.36,0,0,1,.28.36v21A.38.38,0,0,1,492.78,70.13Z"/><rect class="cls-3" x="187.54" y="110.42" width="11.48" height="13.4"/><rect class="cls-4" x="201.42" y="110.42" width="11.48" height="13.4"/><rect class="cls-5" x="173.67" y="110.42" width="11.48" height="13.4"/><rect class="cls-6" x="159.79" y="110.42" width="11.48" height="13.4"/><rect class="cls-7" x="145.92" y="110.42" width="11.48" height="13.4"/><rect class="cls-8" x="132.05" y="110.42" width="11.48" height="13.4"/><rect class="cls-2" x="229.17" y="110.42" width="11.48" height="13.4"/><rect class="cls-9" x="215.29" y="110.42" width="11.48" height="13.4"/><polygon class="cls-6" points="326.29 110.42 326.29 122.86 338.73 110.42 326.29 110.42"/><rect class="cls-10" x="243.04" y="110.42" width="11.48" height="13.4"/><rect class="cls-5" x="312.41" y="110.42" width="11.48" height="13.4"/><rect class="cls-1" x="119.13" y="110.42" width="10.53" height="13.4"/><rect class="cls-3" x="298.54" y="110.42" width="11.48" height="13.4"/><rect class="cls-2" x="256.91" y="110.42" width="11.48" height="13.4"/><rect class="cls-4" x="284.66" y="110.42" width="11.48" height="13.4"/><rect class="cls-9" x="270.79" y="110.42" width="11.48" height="13.4"/></g></g></svg>