<svg xmlns="http://www.w3.org/2000/svg" xmlns:xlink="http://www.w3.org/1999/xlink" viewBox="0 0 496.4 194.04"><defs><style>.cls-1{mask:url(#mask);filter:url(#luminosity-noclip-10);}.cls-10,.cls-12,.cls-14,.cls-16,.cls-18,.cls-2,.cls-4,.cls-6,.cls-8{mix-blend-mode:multiply;}.cls-2{fill:url(#Безымянный_градиент_76);}.cls-3{mask:url(#mask-2);filter:url(#luminosity-noclip-15);}.cls-4{fill:url(#Безымянный_градиент_77);}.cls-5{mask:url(#mask-3);filter:url(#luminosity-noclip-16);}.cls-6{fill:url(#Безымянный_градиент_77-2);}.cls-7{mask:url(#mask-4);filter:url(#luminosity-noclip-17);}.cls-8{fill:url(#Безымянный_градиент_77-3);}.cls-9{mask:url(#mask-5);filter:url(#luminosity-noclip-18);}.cls-10{fill:url(#Безымянный_градиент_76-2);}.cls-11{mask:url(#mask-6);filter:url(#luminosity-noclip-11);}.cls-12{fill:url(#Безымянный_градиент_76-3);}.cls-13{mask:url(#mask-7);filter:url(#luminosity-noclip-12);}.cls-14{fill:url(#Безымянный_градиент_76-4);}.cls-15{mask:url(#mask-8);filter:url(#luminosity-noclip-13);}.cls-16{fill:url(#linear-gradient);}.cls-17{mask:url(#mask-9);filter:url(#luminosity-noclip-14);}.cls-18{fill:url(#Безымянный_градиент_76-5);}.cls-19{fill:url(#New_Gradient_Swatch_2);}.cls-20{fill:url(#New_Gradient_Swatch_2-2);}.cls-21{fill:url(#New_Gradient_Swatch_2-3);}.cls-22{fill:url(#New_Gradient_Swatch_2-4);}.cls-23{fill:url(#New_Gradient_Swatch_2-5);}.cls-24{fill:url(#New_Gradient_Swatch_2-6);}.cls-25{fill:url(#New_Gradient_Swatch_2-7);}.cls-26{fill:url(#New_Gradient_Swatch_2-8);}.cls-27{fill:url(#New_Gradient_Swatch_2-9);}.cls-28{fill:url(#New_Gradient_Swatch_2-10);}.cls-29{opacity:0.2;}.cls-29,.cls-30{fill:url(#New_Gradient_Swatch_2-11);}.cls-30{opacity:0.1;}.cls-31{fill:url(#New_Gradient_Swatch_2-13);}.cls-32{fill:url(#New_Gradient_Swatch_2-14);}.cls-33{fill:url(#New_Gradient_Swatch_2-15);}.cls-34{fill:url(#New_Gradient_Swatch_2-16);}.cls-35{fill:url(#New_Gradient_Swatch_2-17);}.cls-36{fill:url(#New_Gradient_Swatch_2-18);}.cls-37{mask:url(#mask-10);}.cls-38{fill:url(#New_Gradient_Swatch_2-19);}.cls-39{mask:url(#mask-11);}.cls-40{fill:url(#New_Gradient_Swatch_2-20);}.cls-41{mask:url(#mask-12);}.cls-42{fill:url(#New_Gradient_Swatch_2-21);}.cls-43{mask:url(#mask-13);}.cls-44{fill:url(#New_Gradient_Swatch_2-22);}.cls-45{mask:url(#mask-14);}.cls-46{fill:url(#New_Gradient_Swatch_2-23);}.cls-47{mask:url(#mask-15);}.cls-48{fill:url(#New_Gradient_Swatch_2-24);}.cls-49{fill:url(#New_Gradient_Swatch_2-25);}.cls-50{fill:url(#New_Gradient_Swatch_2-26);}.cls-51{fill:url(#New_Gradient_Swatch_2-27);}.cls-52{mask:url(#mask-16);}.cls-53{fill:url(#New_Gradient_Swatch_2-28);}.cls-54{mask:url(#mask-17);}.cls-55{fill:url(#New_Gradient_Swatch_2-29);}.cls-56{fill:url(#New_Gradient_Swatch_2-30);}.cls-57{fill:url(#New_Gradient_Swatch_2-31);}.cls-58{mask:url(#mask-18);}.cls-59{fill:url(#New_Gradient_Swatch_2-32);}.cls-60{filter:url(#luminosity-noclip-9);}.cls-61{filter:url(#luminosity-noclip-8);}.cls-62{filter:url(#luminosity-noclip-7);}.cls-63{filter:url(#luminosity-noclip-6);}.cls-64{filter:url(#luminosity-noclip-5);}.cls-65{filter:url(#luminosity-noclip-4);}.cls-66{filter:url(#luminosity-noclip-3);}.cls-67{filter:url(#luminosity-noclip-2);}.cls-68{filter:url(#luminosity-noclip);}</style><filter id="luminosity-noclip" x="69.56" y="-8290.68" width="96.73" height="32766" filterUnits="userSpaceOnUse" color-interpolation-filters="sRGB"><feFlood flood-color="#fff" result="bg"/><feBlend in="SourceGraphic" in2="bg"/></filter><mask id="mask" x="69.56" y="-8290.68" width="96.73" height="32766" maskUnits="userSpaceOnUse"><g class="cls-68"/></mask><linearGradient id="Безымянный_градиент_76" x1="69.56" y1="147.67" x2="166.29" y2="147.67" gradientUnits="userSpaceOnUse"><stop offset="0" stop-color="#fff"/><stop offset="0.07" stop-color="#d8d8d8"/><stop offset="0.16" stop-color="#a6a6a6"/><stop offset="0.26" stop-color="#797979"/><stop offset="0.37" stop-color="#545454"/><stop offset="0.47" stop-color="#353535"/><stop offset="0.58" stop-color="#1e1e1e"/><stop offset="0.7" stop-color="#0d0d0d"/><stop offset="0.83" stop-color="#030303"/><stop offset="1"/></linearGradient><filter id="luminosity-noclip-2" x="8.87" y="-8290.68" width="42.93" height="32766" filterUnits="userSpaceOnUse" color-interpolation-filters="sRGB"><feFlood flood-color="#fff" result="bg"/><feBlend in="SourceGraphic" in2="bg"/></filter><mask id="mask-2" x="8.87" y="-8290.68" width="42.93" height="32766" maskUnits="userSpaceOnUse"><g class="cls-67"/></mask><linearGradient id="Безымянный_градиент_77" x1="8.87" y1="115.86" x2="51.8" y2="115.86" gradientUnits="userSpaceOnUse"><stop offset="0"/><stop offset="0.15" stop-color="#040404"/><stop offset="0.29" stop-color="#0e0e0e"/><stop offset="0.42" stop-color="#202020"/><stop offset="0.54" stop-color="#3a3a3a"/><stop offset="0.66" stop-color="#5b5b5b"/><stop offset="0.78" stop-color="#838383"/><stop offset="0.9" stop-color="#b2b2b2"/><stop offset="1" stop-color="#e3e3e3"/></linearGradient><filter id="luminosity-noclip-3" x="6.27" y="-8290.68" width="42.02" height="32766" filterUnits="userSpaceOnUse" color-interpolation-filters="sRGB"><feFlood flood-color="#fff" result="bg"/><feBlend in="SourceGraphic" in2="bg"/></filter><mask id="mask-3" x="6.27" y="-8290.68" width="42.02" height="32766" maskUnits="userSpaceOnUse"><g class="cls-66"/></mask><linearGradient id="Безымянный_градиент_77-2" x1="6.27" y1="100.76" x2="48.29" y2="100.76" xlink:href="#Безымянный_градиент_77"/><filter id="luminosity-noclip-4" x="0" y="-8290.68" width="44.65" height="32766" filterUnits="userSpaceOnUse" color-interpolation-filters="sRGB"><feFlood flood-color="#fff" result="bg"/><feBlend in="SourceGraphic" in2="bg"/></filter><mask id="mask-4" x="0" y="-8290.68" width="44.65" height="32766" maskUnits="userSpaceOnUse"><g class="cls-65"/></mask><linearGradient id="Безымянный_градиент_77-3" x1="0" y1="85.13" x2="44.65" y2="85.13" xlink:href="#Безымянный_градиент_77"/><filter id="luminosity-noclip-5" x="66" y="-8290.68" width="278.76" height="32766" filterUnits="userSpaceOnUse" color-interpolation-filters="sRGB"><feFlood flood-color="#fff" result="bg"/><feBlend in="SourceGraphic" in2="bg"/></filter><mask id="mask-5" x="66" y="-8290.68" width="278.76" height="32766" maskUnits="userSpaceOnUse"><g class="cls-64"/></mask><linearGradient id="Безымянный_градиент_76-2" x1="66" y1="134.19" x2="344.76" y2="134.19" xlink:href="#Безымянный_градиент_76"/><filter id="luminosity-noclip-6" x="234.55" y="-8290.68" width="96.73" height="32766" filterUnits="userSpaceOnUse" color-interpolation-filters="sRGB"><feFlood flood-color="#fff" result="bg"/><feBlend in="SourceGraphic" in2="bg"/></filter><mask id="mask-6" x="234.55" y="-8290.68" width="96.73" height="32766" maskUnits="userSpaceOnUse"><g class="cls-63"/></mask><linearGradient id="Безымянный_градиент_76-3" x1="-79.85" y1="-929.87" x2="-176.59" y2="-929.87" gradientTransform="translate(154.7 -884.64) rotate(180)" xlink:href="#Безымянный_градиент_76"/><filter id="luminosity-noclip-7" x="440.52" y="-8290.68" width="47" height="32766" filterUnits="userSpaceOnUse" color-interpolation-filters="sRGB"><feFlood flood-color="#fff" result="bg"/><feBlend in="SourceGraphic" in2="bg"/></filter><mask id="mask-7" x="440.52" y="-8290.68" width="47" height="32766" maskUnits="userSpaceOnUse"><g class="cls-62"/></mask><linearGradient id="Безымянный_градиент_76-4" x1="440.52" y1="60.86" x2="487.52" y2="60.86" xlink:href="#Безымянный_градиент_76"/><filter id="luminosity-noclip-8" x="449.15" y="-8290.68" width="47.25" height="32766" filterUnits="userSpaceOnUse" color-interpolation-filters="sRGB"><feFlood flood-color="#fff" result="bg"/><feBlend in="SourceGraphic" in2="bg"/></filter><mask id="mask-8" x="449.15" y="-8290.68" width="47.25" height="32766" maskUnits="userSpaceOnUse"><g class="cls-61"/></mask><linearGradient id="linear-gradient" x1="449.15" y1="91.6" x2="496.4" y2="91.6" gradientUnits="userSpaceOnUse"><stop offset="0.01" stop-color="#fff"/><stop offset="0.08" stop-color="#d8d8d8"/><stop offset="0.17" stop-color="#a6a6a6"/><stop offset="0.27" stop-color="#797979"/><stop offset="0.37" stop-color="#545454"/><stop offset="0.48" stop-color="#353535"/><stop offset="0.59" stop-color="#1e1e1e"/><stop offset="0.71" stop-color="#0d0d0d"/><stop offset="0.84" stop-color="#030303"/><stop offset="1"/></linearGradient><filter id="luminosity-noclip-9" x="444.83" y="-8290.68" width="45.3" height="32766" filterUnits="userSpaceOnUse" color-interpolation-filters="sRGB"><feFlood flood-color="#fff" result="bg"/><feBlend in="SourceGraphic" in2="bg"/></filter><mask id="mask-9" x="444.83" y="-8290.68" width="45.3" height="32766" maskUnits="userSpaceOnUse"><g class="cls-60"/></mask><linearGradient id="Безымянный_градиент_76-5" x1="444.83" y1="75.96" x2="490.13" y2="75.96" xlink:href="#Безымянный_градиент_76"/><linearGradient id="New_Gradient_Swatch_2" x1="272.5" y1="8.02" x2="282.51" y2="8.02" gradientUnits="userSpaceOnUse"><stop offset="0" stop-color="#9541de"/><stop offset="1" stop-color="#3ab2c0"/></linearGradient><linearGradient id="New_Gradient_Swatch_2-2" x1="283.61" y1="10" x2="294.57" y2="10" xlink:href="#New_Gradient_Swatch_2"/><linearGradient id="New_Gradient_Swatch_2-3" x1="297.66" y1="10" x2="305.07" y2="10" xlink:href="#New_Gradient_Swatch_2"/><linearGradient id="New_Gradient_Swatch_2-4" x1="306.11" y1="9.97" x2="316.89" y2="9.97" xlink:href="#New_Gradient_Swatch_2"/><linearGradient id="New_Gradient_Swatch_2-5" x1="319.92" y1="9.83" x2="337.24" y2="9.83" xlink:href="#New_Gradient_Swatch_2"/><linearGradient id="New_Gradient_Swatch_2-6" x1="348.63" y1="7.97" x2="350.89" y2="7.97" xlink:href="#New_Gradient_Swatch_2"/><linearGradient id="New_Gradient_Swatch_2-7" x1="353.91" y1="10" x2="363.19" y2="10" xlink:href="#New_Gradient_Swatch_2"/><linearGradient id="New_Gradient_Swatch_2-8" x1="366.05" y1="12.02" x2="376.5" y2="12.02" xlink:href="#New_Gradient_Swatch_2"/><linearGradient id="New_Gradient_Swatch_2-9" x1="379.53" y1="10.16" x2="389.45" y2="10.16" xlink:href="#New_Gradient_Swatch_2"/><linearGradient id="New_Gradient_Swatch_2-10" x1="393.39" y1="9.83" x2="410.71" y2="9.83" xlink:href="#New_Gradient_Swatch_2"/><linearGradient id="New_Gradient_Swatch_2-11" x1="44.55" y1="103.59" x2="461.86" y2="103.59" xlink:href="#New_Gradient_Swatch_2"/><linearGradient id="New_Gradient_Swatch_2-13" x1="43.81" y1="103.59" x2="462.6" y2="103.59" xlink:href="#New_Gradient_Swatch_2"/><linearGradient id="New_Gradient_Swatch_2-14" x1="38.58" y1="50.79" x2="124.23" y2="50.79" xlink:href="#New_Gradient_Swatch_2"/><linearGradient id="New_Gradient_Swatch_2-15" x1="407.31" y1="144.24" x2="471.09" y2="144.24" xlink:href="#New_Gradient_Swatch_2"/><linearGradient id="New_Gradient_Swatch_2-16" x1="167.91" y1="30.4" x2="259.64" y2="30.4" xlink:href="#New_Gradient_Swatch_2"/><linearGradient id="New_Gradient_Swatch_2-17" x1="304.32" y1="177.06" x2="396.06" y2="177.06" xlink:href="#New_Gradient_Swatch_2"/><linearGradient id="New_Gradient_Swatch_2-18" x1="244.76" y1="15.71" x2="432.36" y2="15.71" xlink:href="#New_Gradient_Swatch_2"/><filter id="luminosity-noclip-10" x="69.56" y="142.28" width="96.73" height="10.78" filterUnits="userSpaceOnUse" color-interpolation-filters="sRGB"><feFlood flood-color="#fff" result="bg"/><feBlend in="SourceGraphic" in2="bg"/></filter><mask id="mask-10" x="69.56" y="142.28" width="96.73" height="10.78" maskUnits="userSpaceOnUse"><g class="cls-1"><path class="cls-2" d="M69.56,142.28C71,146.59,75,153.07,85.41,153.07h80.88l-5.39-10.79Z"/></g></mask><linearGradient id="New_Gradient_Swatch_2-19" x1="69.56" y1="147.67" x2="166.29" y2="147.67" xlink:href="#New_Gradient_Swatch_2"/><filter id="luminosity-noclip-11" x="234.55" y="39.84" width="96.73" height="10.78" filterUnits="userSpaceOnUse" color-interpolation-filters="sRGB"><feFlood flood-color="#fff" result="bg"/><feBlend in="SourceGraphic" in2="bg"/></filter><mask id="mask-11" x="234.55" y="39.84" width="96.73" height="10.78" maskUnits="userSpaceOnUse"><g class="cls-11"><path class="cls-12" d="M331.28,50.62c-1.48-4.31-5.42-10.78-15.85-10.78H234.55l5.39,10.78Z"/></g></mask><linearGradient id="New_Gradient_Swatch_2-20" x1="234.55" y1="45.23" x2="331.28" y2="45.23" xlink:href="#New_Gradient_Swatch_2"/><filter id="luminosity-noclip-12" x="440.52" y="55.47" width="47" height="10.78" filterUnits="userSpaceOnUse" color-interpolation-filters="sRGB"><feFlood flood-color="#fff" result="bg"/><feBlend in="SourceGraphic" in2="bg"/></filter><mask id="mask-12" x="440.52" y="55.47" width="47" height="10.78" maskUnits="userSpaceOnUse"><g class="cls-13"><polygon class="cls-14" points="484.3 55.47 440.52 55.47 443.75 66.26 487.52 66.26 484.3 55.47"/></g></mask><linearGradient id="New_Gradient_Swatch_2-21" x1="440.52" y1="60.86" x2="487.52" y2="60.86" xlink:href="#New_Gradient_Swatch_2"/><filter id="luminosity-noclip-13" x="449.15" y="86.21" width="47.25" height="10.78" filterUnits="userSpaceOnUse" color-interpolation-filters="sRGB"><feFlood flood-color="#fff" result="bg"/><feBlend in="SourceGraphic" in2="bg"/></filter><mask id="mask-13" x="449.15" y="86.21" width="47.25" height="10.78" maskUnits="userSpaceOnUse"><g class="cls-15"><polygon class="cls-16" points="493.17 86.21 449.15 86.21 452.38 96.99 496.4 96.99 493.17 86.21"/></g></mask><linearGradient id="New_Gradient_Swatch_2-22" x1="449.15" y1="91.6" x2="496.4" y2="91.6" xlink:href="#New_Gradient_Swatch_2"/><filter id="luminosity-noclip-14" x="444.83" y="70.57" width="45.3" height="10.78" filterUnits="userSpaceOnUse" color-interpolation-filters="sRGB"><feFlood flood-color="#fff" result="bg"/><feBlend in="SourceGraphic" in2="bg"/></filter><mask id="mask-14" x="444.83" y="70.57" width="45.3" height="10.78" maskUnits="userSpaceOnUse"><g class="cls-17"><path class="cls-18" d="M487.23,70.57h-42.4l3.24,10.78h42.06C489.1,77.63,488.11,73.94,487.23,70.57Z"/></g></mask><linearGradient id="New_Gradient_Swatch_2-23" x1="444.83" y1="75.96" x2="490.13" y2="75.96" xlink:href="#New_Gradient_Swatch_2"/><filter id="luminosity-noclip-15" x="8.87" y="110.47" width="42.93" height="10.78" filterUnits="userSpaceOnUse" color-interpolation-filters="sRGB"><feFlood flood-color="#fff" result="bg"/><feBlend in="SourceGraphic" in2="bg"/></filter><mask id="mask-15" x="8.87" y="110.47" width="42.93" height="10.78" maskUnits="userSpaceOnUse"><g class="cls-3"><polygon class="cls-4" points="49.3 110.47 8.87 110.47 12.1 121.25 51.8 121.25 49.3 110.47"/></g></mask><linearGradient id="New_Gradient_Swatch_2-24" x1="8.87" y1="115.86" x2="51.8" y2="115.86" xlink:href="#New_Gradient_Swatch_2"/><linearGradient id="New_Gradient_Swatch_2-25" x1="325.92" y1="191.35" x2="340.81" y2="191.35" xlink:href="#New_Gradient_Swatch_2"/><linearGradient id="New_Gradient_Swatch_2-26" x1="454.78" y1="108.85" x2="465.95" y2="108.85" xlink:href="#New_Gradient_Swatch_2"/><linearGradient id="New_Gradient_Swatch_2-27" x1="457.07" y1="117.07" x2="468.24" y2="117.07" xlink:href="#New_Gradient_Swatch_2"/><filter id="luminosity-noclip-16" x="6.27" y="95.37" width="42.02" height="10.78" filterUnits="userSpaceOnUse" color-interpolation-filters="sRGB"><feFlood flood-color="#fff" result="bg"/><feBlend in="SourceGraphic" in2="bg"/></filter><mask id="mask-16" x="6.27" y="95.37" width="42.02" height="10.78" maskUnits="userSpaceOnUse"><g class="cls-5"><path class="cls-6" d="M45.78,95.37H6.27c1,3.73,2,7.41,2.89,10.79H48.29Z"/></g></mask><linearGradient id="New_Gradient_Swatch_2-28" x1="6.27" y1="100.76" x2="48.29" y2="100.76" xlink:href="#New_Gradient_Swatch_2"/><filter id="luminosity-noclip-17" x="0" y="79.74" width="44.65" height="10.78" filterUnits="userSpaceOnUse" color-interpolation-filters="sRGB"><feFlood flood-color="#fff" result="bg"/><feBlend in="SourceGraphic" in2="bg"/></filter><mask id="mask-17" x="0" y="79.74" width="44.65" height="10.78" maskUnits="userSpaceOnUse"><g class="cls-7"><polygon class="cls-8" points="42.14 79.73 0 79.73 3.23 90.52 44.65 90.52 42.14 79.73"/></g></mask><linearGradient id="New_Gradient_Swatch_2-29" x1="0" y1="85.13" x2="44.65" y2="85.13" xlink:href="#New_Gradient_Swatch_2"/><linearGradient id="New_Gradient_Swatch_2-30" x1="54.67" y1="165.74" x2="341.18" y2="165.74" xlink:href="#New_Gradient_Swatch_2"/><linearGradient id="New_Gradient_Swatch_2-31" x1="75.87" y1="25.28" x2="151.02" y2="25.28" xlink:href="#New_Gradient_Swatch_2"/><filter id="luminosity-noclip-18" x="66" y="130.96" width="278.76" height="6.47" filterUnits="userSpaceOnUse" color-interpolation-filters="sRGB"><feFlood flood-color="#fff" result="bg"/><feBlend in="SourceGraphic" in2="bg"/></filter><mask id="mask-18" x="66" y="130.96" width="278.76" height="6.47" maskUnits="userSpaceOnUse"><g class="cls-9"><polygon class="cls-10" points="68.69 137.43 66 130.96 342.06 130.96 344.76 137.43 68.69 137.43"/></g></mask><linearGradient id="New_Gradient_Swatch_2-32" x1="66" y1="134.19" x2="344.76" y2="134.19" xlink:href="#New_Gradient_Swatch_2"/></defs><title>menu_06_purple_blue</title><g id="Layer_2" data-name="Layer 2"><g id="Layer_1-2" data-name="Layer 1"><path class="cls-19" d="M282.51,15.93h-10V.11h2.1v14h7.91Z"/><path class="cls-20" d="M294.57,10a6.68,6.68,0,0,1-1.49,4.58,5.58,5.58,0,0,1-8,0A6.68,6.68,0,0,1,283.61,10a6.72,6.72,0,0,1,1.49-4.59,5.58,5.58,0,0,1,8,0A6.72,6.72,0,0,1,294.57,10Zm-2.06,0a5.36,5.36,0,0,0-.91-3.43,3,3,0,0,0-2.5-1.12,3.08,3.08,0,0,0-2.53,1.12,5.43,5.43,0,0,0-.9,3.43,5.44,5.44,0,0,0,.91,3.39,3.32,3.32,0,0,0,5,0A5.39,5.39,0,0,0,292.51,10Z"/><path class="cls-21" d="M305.07,6.24H305c-.29-.07-.58-.12-.86-.16a9.66,9.66,0,0,0-1,0,4,4,0,0,0-1.78.41,8,8,0,0,0-1.66,1v8.43h-2V4.06h2V5.81a9.65,9.65,0,0,1,2.1-1.35,4.5,4.5,0,0,1,1.85-.4,6.78,6.78,0,0,1,.76,0c.15,0,.39,0,.7.1Z"/><path class="cls-22" d="M316.89,10.2h-8.75a5.06,5.06,0,0,0,.33,1.91,3.56,3.56,0,0,0,.9,1.33,3.62,3.62,0,0,0,1.32.77,5.18,5.18,0,0,0,1.67.25A6.66,6.66,0,0,0,314.8,14a6,6,0,0,0,1.75-1h.1v2.18a16.7,16.7,0,0,1-2.06.71,8.42,8.42,0,0,1-2.21.29,6.38,6.38,0,0,1-4.61-1.6,6,6,0,0,1-1.66-4.55,6.52,6.52,0,0,1,1.59-4.62,5.44,5.44,0,0,1,4.18-1.71,4.84,4.84,0,0,1,3.71,1.4,5.7,5.7,0,0,1,1.3,4Zm-1.95-1.53a3.48,3.48,0,0,0-.79-2.43,3,3,0,0,0-2.37-.86,3.47,3.47,0,0,0-2.56.94,3.73,3.73,0,0,0-1.08,2.35Z"/><path class="cls-23" d="M337.24,15.93h-2V9.17a14.25,14.25,0,0,0-.07-1.48,3,3,0,0,0-.29-1.13,1.56,1.56,0,0,0-.7-.69,2.91,2.91,0,0,0-1.32-.24,3.73,3.73,0,0,0-1.68.42,10.47,10.47,0,0,0-1.68,1.07q0,.24.06.57c0,.22,0,.43,0,.64v7.6h-2V9.17a14.19,14.19,0,0,0-.07-1.49,3.14,3.14,0,0,0-.29-1.13,1.56,1.56,0,0,0-.7-.69,3.1,3.1,0,0,0-1.32-.23,3.68,3.68,0,0,0-1.64.41,9.93,9.93,0,0,0-1.65,1v8.86h-2V4.06h2V5.38a8.83,8.83,0,0,1,1.87-1.21,4.62,4.62,0,0,1,2-.44,3.91,3.91,0,0,1,2.06.51,3.19,3.19,0,0,1,1.26,1.41,9.79,9.79,0,0,1,2.21-1.47,5.12,5.12,0,0,1,2.13-.45,3.45,3.45,0,0,1,2.89,1.19,5.23,5.23,0,0,1,.93,3.31Z"/><path class="cls-24" d="M350.89,2.07h-2.26V0h2.26Zm-.13,13.86h-2V4.06h2Z"/><path class="cls-25" d="M363.19,12.51a3.26,3.26,0,0,1-1.34,2.67,5.88,5.88,0,0,1-3.67,1,8.75,8.75,0,0,1-2.42-.32,10.22,10.22,0,0,1-1.85-.68V13H354a8.06,8.06,0,0,0,2.11,1.13,6.49,6.49,0,0,0,2.22.42,4.13,4.13,0,0,0,2.06-.43,1.44,1.44,0,0,0,.74-1.34,1.35,1.35,0,0,0-.4-1.06,3.67,3.67,0,0,0-1.55-.62l-1.11-.22c-.46-.08-.88-.18-1.25-.27a4.25,4.25,0,0,1-2.22-1.22,3.05,3.05,0,0,1-.65-2,3.2,3.2,0,0,1,1.22-2.54,4.41,4.41,0,0,1,1.51-.8,7,7,0,0,1,2.06-.29,9.36,9.36,0,0,1,2.15.26,8.2,8.2,0,0,1,1.81.64V6.8h-.1a7.36,7.36,0,0,0-1.86-1,6.4,6.4,0,0,0-2.15-.39,3.78,3.78,0,0,0-1.85.42A1.35,1.35,0,0,0,356,7.13a1.34,1.34,0,0,0,.46,1.11,3.5,3.5,0,0,0,1.44.6c.37.09.78.17,1.24.26s.84.16,1.14.23a4.23,4.23,0,0,1,2.15,1.1A2.87,2.87,0,0,1,363.19,12.51Z"/><path class="cls-26" d="M376.5,9.85a7.86,7.86,0,0,1-.42,2.64,5.64,5.64,0,0,1-1.17,2,4.9,4.9,0,0,1-3.66,1.64,6.24,6.24,0,0,1-1.68-.2,6.86,6.86,0,0,1-1.52-.62v5h-2V4.06h2V5.3a8,8,0,0,1,1.79-1.12A5.07,5.07,0,0,1,372,3.73a3.9,3.9,0,0,1,3.34,1.62A7.43,7.43,0,0,1,376.5,9.85Zm-2.06.05a5.62,5.62,0,0,0-.74-3.2,2.55,2.55,0,0,0-2.25-1.07,4.53,4.53,0,0,0-1.73.37,8.11,8.11,0,0,0-1.67,1v6.73a8.19,8.19,0,0,0,1.46.52,6.47,6.47,0,0,0,1.39.14,3.19,3.19,0,0,0,2.6-1.13A5.14,5.14,0,0,0,374.44,9.9Z"/><path class="cls-27" d="M389.45,15.93h-2V14.61a9.74,9.74,0,0,1-1.94,1.22,4.75,4.75,0,0,1-2,.43,3.73,3.73,0,0,1-2.91-1.14,4.8,4.8,0,0,1-1-3.36V4.06h2v6.76a11.46,11.46,0,0,0,.09,1.55,3,3,0,0,0,.36,1.1,1.75,1.75,0,0,0,.75.68,3.24,3.24,0,0,0,1.32.21,4.25,4.25,0,0,0,1.7-.41,8.17,8.17,0,0,0,1.72-1V4.06h2Z"/><path class="cls-28" d="M410.71,15.93h-2V9.17a14.25,14.25,0,0,0-.07-1.48,3.14,3.14,0,0,0-.29-1.13,1.56,1.56,0,0,0-.7-.69,2.93,2.93,0,0,0-1.32-.24,3.73,3.73,0,0,0-1.68.42A10.47,10.47,0,0,0,403,7.12c0,.16,0,.35,0,.57s0,.43,0,.64v7.6h-2V9.17c0-.52,0-1-.07-1.49a3.14,3.14,0,0,0-.29-1.13,1.61,1.61,0,0,0-.7-.69,3.1,3.1,0,0,0-1.32-.23A3.65,3.65,0,0,0,397,6a9.93,9.93,0,0,0-1.65,1v8.86h-2V4.06h2V5.38a8.83,8.83,0,0,1,1.87-1.21,4.62,4.62,0,0,1,2-.44,3.93,3.93,0,0,1,2.06.51,3.19,3.19,0,0,1,1.26,1.41,9.58,9.58,0,0,1,2.21-1.47,5.09,5.09,0,0,1,2.13-.45,3.45,3.45,0,0,1,2.89,1.19,5.23,5.23,0,0,1,.93,3.31Z"/><path class="cls-29" d="M436,68a16.17,16.17,0,0,0-16.17-16.17H337.32V50.21A16.18,16.18,0,0,0,321.14,34H60.73A16.18,16.18,0,0,0,44.55,50.21v4.85C44.55,64,64,142.4,64,142.4a16.17,16.17,0,0,0,16.18,16.18h89a16.18,16.18,0,0,0,16.09,14.56H445.69A16.17,16.17,0,0,0,461.86,157v-4.85C461.86,143.18,436,68,436,68Z"/><path class="cls-30" d="M436,68a16.17,16.17,0,0,0-16.17-16.17H337.32V50.21A16.18,16.18,0,0,0,321.14,34H60.73A16.18,16.18,0,0,0,44.55,50.21v4.85C44.55,64,64,142.4,64,142.4a16.17,16.17,0,0,0,16.18,16.18h89a16.18,16.18,0,0,0,16.09,14.56H445.69A16.17,16.17,0,0,0,461.86,157v-4.85C461.86,143.18,436,68,436,68Z"/><path class="cls-31" d="M445.69,173.88H185.27a16.86,16.86,0,0,1-16.75-14.56H80.14A16.94,16.94,0,0,1,63.22,142.5c-1-4.27-19.41-78.59-19.41-87.44V50.21A16.93,16.93,0,0,1,60.73,33.3H321.14a16.93,16.93,0,0,1,16.92,16.91v.88h81.75a16.94,16.94,0,0,1,16.91,16.79c1.52,4.42,25.88,75.37,25.88,84.23V157A16.93,16.93,0,0,1,445.69,173.88ZM60.73,34.77A15.46,15.46,0,0,0,45.29,50.21v4.85c0,8.74,19.19,86.38,19.39,87.17a1.1,1.1,0,0,1,0,.18,15.45,15.45,0,0,0,15.44,15.43h89a.73.73,0,0,1,.73.67,15.38,15.38,0,0,0,15.36,13.89H445.69A15.46,15.46,0,0,0,461.13,157v-4.85c0-8.71-25.58-83.12-25.84-83.87a.64.64,0,0,1,0-.24,15.46,15.46,0,0,0-15.44-15.44H337.32a.74.74,0,0,1-.74-.73V50.21a15.46,15.46,0,0,0-15.44-15.44Z"/><path class="cls-32" d="M47.67,73.8H42.81L39,52.24s-4.31-21,13.48-23.19C68.84,27.07,118.3,28,118.3,28l5.93,5.39-57.15.54s-22.41-.82-22.53,16.31Z"/><path class="cls-33" d="M407.31,173.55l6.47,7c16.14,0,54.79,8.15,57.15-17.78,1.09-12-3.68-24.2-6.77-35.62-.39-1.45-4.75-20.47-5.63-20.47h-9.71l11.33,36.67s7.55,18.87-4.32,25.34c0,0-4.31,7-23.18,4.85Z"/><polygon class="cls-34" points="171.5 33.37 259.64 33.37 250.94 27.43 190.01 27.43 191.63 30.67 167.91 30.67 171.5 33.37"/><polygon class="cls-35" points="392.46 174.09 304.32 174.09 313.02 180.03 373.95 180.03 372.33 176.79 396.06 176.79 392.46 174.09"/><path class="cls-36" d="M432.35,25.83c-24.68-.29-45.63-.29-65.88-.29-30.8,0-59.89,0-99.36-1H267l-.1-.06c-10.58-7.41-11.82-8.59-21.51-17.77l-.63-.6.5-.53.63.6c9.63,9.12,10.89,10.31,21.35,17.63,39.4,1,68.46,1,99.23,1,20.25,0,41.2,0,65.89.29Z"/><g class="cls-37"><path class="cls-38" d="M69.56,142.28C71,146.59,75,153.07,85.41,153.07h80.88l-5.39-10.79Z"/></g><g class="cls-39"><path class="cls-40" d="M331.28,50.62c-1.48-4.31-5.42-10.78-15.85-10.78H234.55l5.39,10.78Z"/></g><g class="cls-41"><polygon class="cls-42" points="484.3 55.47 440.52 55.47 443.75 66.26 487.52 66.26 484.3 55.47"/></g><g class="cls-43"><polygon class="cls-44" points="493.17 86.21 449.15 86.21 452.38 96.99 496.4 96.99 493.17 86.21"/></g><g class="cls-45"><path class="cls-46" d="M487.23,70.57h-42.4l3.24,10.78h42.06C489.1,77.63,488.11,73.94,487.23,70.57Z"/></g><g class="cls-47"><polygon class="cls-48" points="49.3 110.47 8.87 110.47 12.1 121.25 51.8 121.25 49.3 110.47"/></g><polygon class="cls-49" points="338.93 188.65 325.92 188.65 328.04 194.04 340.81 194.04 338.93 188.65"/><polygon class="cls-50" points="464.54 106.83 454.79 106.83 456.37 110.87 465.95 110.87 464.54 106.83"/><polygon class="cls-51" points="466.82 115.05 457.06 115.05 458.65 119.1 468.24 119.1 466.82 115.05"/><g class="cls-52"><path class="cls-53" d="M45.78,95.37H6.27c1,3.73,2,7.41,2.89,10.79H48.29Z"/></g><g class="cls-54"><polygon class="cls-55" points="42.14 79.73 0 79.73 3.23 90.52 44.65 90.52 42.14 79.73"/></g><path class="cls-56" d="M340.81,189H309.54a.36.36,0,0,1-.24-.09l-6.37-5.3H189.84c-18.09,0-24.7-12.68-25.58-14.56l-80.64.54C62.56,168.53,56.9,151.19,56.84,151l-2.16-8.1a.39.39,0,0,1,.26-.46.39.39,0,0,1,.46.27l2.15,8.08c.05.16,5.57,17,26.09,18.06l80.85-.54h0a.37.37,0,0,1,.34.23c.06.15,6.07,14.33,25,14.33H303.07a.33.33,0,0,1,.23.09l6.37,5.3h31.14a.38.38,0,0,1,.37.37A.37.37,0,0,1,340.81,189Z"/><path class="cls-57" d="M150.65,28.34H126.93a.37.37,0,0,1-.29-.14L122.44,23H76.24a.37.37,0,0,1,0-.74h46.37a.36.36,0,0,1,.29.14l4.2,5.25h23.55A.37.37,0,0,1,151,28,.36.36,0,0,1,150.65,28.34Z"/><g class="cls-58"><polygon class="cls-59" points="68.69 137.43 66 130.96 342.06 130.96 344.76 137.43 68.69 137.43"/></g></g></g></svg>