<svg xmlns="http://www.w3.org/2000/svg" xmlns:xlink="http://www.w3.org/1999/xlink" viewBox="0 0 497.71 138.6"><defs><style>.cls-1{mask:url(#mask);filter:url(#luminosity-noclip-3);}.cls-2,.cls-4{mix-blend-mode:multiply;}.cls-2{fill:url(#Безымянный_градиент_68);}.cls-3{mask:url(#mask-2);filter:url(#luminosity-noclip-4);}.cls-4{fill:url(#Безымянный_градиент_68-2);}.cls-5{fill:url(#New_Gradient_Swatch_7);}.cls-6{fill:url(#New_Gradient_Swatch_7-2);}.cls-7{fill:url(#New_Gradient_Swatch_7-3);}.cls-8{fill:url(#New_Gradient_Swatch_7-4);}.cls-9{fill:url(#New_Gradient_Swatch_7-5);}.cls-10{fill:url(#New_Gradient_Swatch_7-6);}.cls-11{fill:url(#New_Gradient_Swatch_7-7);}.cls-12{fill:url(#New_Gradient_Swatch_7-8);}.cls-13{fill:url(#New_Gradient_Swatch_7-9);}.cls-14{fill:url(#New_Gradient_Swatch_7-10);}.cls-15{fill:url(#New_Gradient_Swatch_7-11);}.cls-16{fill:url(#New_Gradient_Swatch_7-12);}.cls-17{mask:url(#mask-3);}.cls-18{fill:url(#New_Gradient_Swatch_7-13);}.cls-19{fill:url(#New_Gradient_Swatch_7-14);}.cls-20{fill:url(#New_Gradient_Swatch_7-15);}.cls-21{fill:url(#New_Gradient_Swatch_7-16);}.cls-22{mask:url(#mask-4);}.cls-23{fill:url(#New_Gradient_Swatch_7-17);}.cls-24{fill:url(#New_Gradient_Swatch_7-18);}.cls-25{fill:url(#New_Gradient_Swatch_7-19);}.cls-26{fill:url(#New_Gradient_Swatch_7-20);}.cls-27{fill:url(#New_Gradient_Swatch_7-21);}.cls-28{fill:url(#New_Gradient_Swatch_7-22);}.cls-29{fill:url(#New_Gradient_Swatch_7-23);}.cls-30{fill:url(#New_Gradient_Swatch_7-24);}.cls-31{fill:url(#New_Gradient_Swatch_7-25);}.cls-32{fill:url(#New_Gradient_Swatch_7-26);}.cls-33{fill:url(#New_Gradient_Swatch_7-27);}.cls-34,.cls-45{opacity:0.9;}.cls-34{fill:url(#New_Gradient_Swatch_7-28);}.cls-35,.cls-46{opacity:0.8;}.cls-35{fill:url(#New_Gradient_Swatch_7-29);}.cls-36,.cls-47{opacity:0.7;}.cls-36{fill:url(#New_Gradient_Swatch_7-30);}.cls-37,.cls-48{opacity:0.6;}.cls-37{fill:url(#New_Gradient_Swatch_7-31);}.cls-38,.cls-49{opacity:0.5;}.cls-38{fill:url(#New_Gradient_Swatch_7-32);}.cls-39,.cls-50{opacity:0.4;}.cls-39{fill:url(#New_Gradient_Swatch_7-33);}.cls-40,.cls-51{opacity:0.3;}.cls-40{fill:url(#New_Gradient_Swatch_7-34);}.cls-41,.cls-52{opacity:0.2;}.cls-41{fill:url(#New_Gradient_Swatch_7-35);}.cls-42,.cls-53{opacity:0.1;}.cls-42{fill:url(#New_Gradient_Swatch_7-36);}.cls-43,.cls-54{opacity:0.05;}.cls-43{fill:url(#New_Gradient_Swatch_7-37);}.cls-44{fill:url(#New_Gradient_Swatch_7-38);}.cls-45{fill:url(#New_Gradient_Swatch_7-39);}.cls-46{fill:url(#New_Gradient_Swatch_7-40);}.cls-47{fill:url(#New_Gradient_Swatch_7-41);}.cls-48{fill:url(#New_Gradient_Swatch_7-42);}.cls-49{fill:url(#New_Gradient_Swatch_7-43);}.cls-50{fill:url(#New_Gradient_Swatch_7-44);}.cls-51{fill:url(#New_Gradient_Swatch_7-45);}.cls-52{fill:url(#New_Gradient_Swatch_7-46);}.cls-53{fill:url(#New_Gradient_Swatch_7-47);}.cls-54{fill:url(#New_Gradient_Swatch_7-48);}.cls-55{filter:url(#luminosity-noclip-2);}.cls-56{filter:url(#luminosity-noclip);}</style><filter id="luminosity-noclip" x="21.89" y="-8272.95" width="194.68" height="32766" filterUnits="userSpaceOnUse" color-interpolation-filters="sRGB"><feFlood flood-color="#fff" result="bg"/><feBlend in="SourceGraphic" in2="bg"/></filter><mask id="mask" x="21.89" y="-8272.95" width="194.68" height="32766" maskUnits="userSpaceOnUse"><g class="cls-56"/></mask><linearGradient id="Безымянный_градиент_68" x1="119.23" y1="105.04" x2="119.23" y2="65.41" gradientUnits="userSpaceOnUse"><stop offset="0" stop-color="#fff"/><stop offset="0.04" stop-color="#d3d3d3"/><stop offset="0.1" stop-color="#9c9c9c"/><stop offset="0.16" stop-color="#6c6c6c"/><stop offset="0.21" stop-color="#454545"/><stop offset="0.27" stop-color="#272727"/><stop offset="0.33" stop-color="#111"/><stop offset="0.38" stop-color="#040404"/><stop offset="0.43"/><stop offset="0.56" stop-color="#030303"/><stop offset="0.63" stop-color="#0b0b0b"/><stop offset="0.7" stop-color="#191919"/><stop offset="0.76" stop-color="#2e2e2e"/><stop offset="0.81" stop-color="#484848"/><stop offset="0.86" stop-color="#696969"/><stop offset="0.9" stop-color="#8f8f8f"/><stop offset="0.95" stop-color="#bcbcbc"/><stop offset="0.99" stop-color="#ededed"/><stop offset="1" stop-color="#fff"/></linearGradient><filter id="luminosity-noclip-2" x="269.15" y="-8272.95" width="194.68" height="32766" filterUnits="userSpaceOnUse" color-interpolation-filters="sRGB"><feFlood flood-color="#fff" result="bg"/><feBlend in="SourceGraphic" in2="bg"/></filter><mask id="mask-2" x="269.15" y="-8272.95" width="194.68" height="32766" maskUnits="userSpaceOnUse"><g class="cls-55"/></mask><linearGradient id="Безымянный_градиент_68-2" x1="724.69" y1="-2403.97" x2="724.69" y2="-2443.6" gradientTransform="translate(1091.19 -2336.63) rotate(180)" xlink:href="#Безымянный_градиент_68"/><linearGradient id="New_Gradient_Swatch_7" x1="120.8" y1="17.33" x2="128.79" y2="17.33" gradientUnits="userSpaceOnUse"><stop offset="0" stop-color="#fcdaff"/><stop offset="1" stop-color="#cf52fe"/></linearGradient><linearGradient id="New_Gradient_Swatch_7-2" x1="129.68" y1="18.91" x2="138.43" y2="18.91" xlink:href="#New_Gradient_Swatch_7"/><linearGradient id="New_Gradient_Swatch_7-3" x1="140.9" y1="18.91" x2="146.82" y2="18.91" xlink:href="#New_Gradient_Swatch_7"/><linearGradient id="New_Gradient_Swatch_7-4" x1="147.65" y1="18.88" x2="156.26" y2="18.88" xlink:href="#New_Gradient_Swatch_7"/><linearGradient id="New_Gradient_Swatch_7-5" x1="158.68" y1="18.77" x2="172.51" y2="18.77" xlink:href="#New_Gradient_Swatch_7"/><linearGradient id="New_Gradient_Swatch_7-6" x1="181.62" y1="17.28" x2="183.41" y2="17.28" xlink:href="#New_Gradient_Swatch_7"/><linearGradient id="New_Gradient_Swatch_7-7" x1="185.83" y1="18.91" x2="193.25" y2="18.91" xlink:href="#New_Gradient_Swatch_7"/><linearGradient id="New_Gradient_Swatch_7-8" x1="195.53" y1="20.52" x2="203.87" y2="20.52" xlink:href="#New_Gradient_Swatch_7"/><linearGradient id="New_Gradient_Swatch_7-9" x1="206.29" y1="19.04" x2="214.22" y2="19.04" xlink:href="#New_Gradient_Swatch_7"/><linearGradient id="New_Gradient_Swatch_7-10" x1="217.36" y1="18.77" x2="231.2" y2="18.77" xlink:href="#New_Gradient_Swatch_7"/><linearGradient id="New_Gradient_Swatch_7-11" x1="0" y1="85.23" x2="43.93" y2="85.23" xlink:href="#New_Gradient_Swatch_7"/><linearGradient id="New_Gradient_Swatch_7-12" x1="194.54" y1="85.66" x2="238.47" y2="85.66" xlink:href="#New_Gradient_Swatch_7"/><filter id="luminosity-noclip-3" x="21.89" y="65.41" width="194.68" height="39.62" filterUnits="userSpaceOnUse" color-interpolation-filters="sRGB"><feFlood flood-color="#fff" result="bg"/><feBlend in="SourceGraphic" in2="bg"/></filter><mask id="mask-3" x="21.89" y="65.41" width="194.68" height="39.62" maskUnits="userSpaceOnUse"><g class="cls-1"><rect class="cls-2" x="21.89" y="65.41" width="194.68" height="39.62" rx="12.92"/></g></mask><linearGradient id="New_Gradient_Swatch_7-13" x1="21.89" y1="85.23" x2="216.57" y2="85.23" xlink:href="#New_Gradient_Swatch_7"/><linearGradient id="New_Gradient_Swatch_7-14" x1="113.42" y1="63.7" x2="125.05" y2="63.7" xlink:href="#New_Gradient_Swatch_7"/><linearGradient id="New_Gradient_Swatch_7-15" x1="441.79" y1="87.16" x2="485.73" y2="87.16" xlink:href="#New_Gradient_Swatch_7"/><linearGradient id="New_Gradient_Swatch_7-16" x1="247.26" y1="86.73" x2="291.19" y2="86.73" xlink:href="#New_Gradient_Swatch_7"/><filter id="luminosity-noclip-4" x="269.15" y="67.35" width="194.68" height="39.62" filterUnits="userSpaceOnUse" color-interpolation-filters="sRGB"><feFlood flood-color="#fff" result="bg"/><feBlend in="SourceGraphic" in2="bg"/></filter><mask id="mask-4" x="269.15" y="67.35" width="194.68" height="39.62" maskUnits="userSpaceOnUse"><g class="cls-3"><rect class="cls-4" x="269.15" y="67.35" width="194.68" height="39.62" rx="12.92"/></g></mask><linearGradient id="New_Gradient_Swatch_7-17" x1="269.15" y1="87.16" x2="463.83" y2="87.16" xlink:href="#New_Gradient_Swatch_7"/><linearGradient id="New_Gradient_Swatch_7-18" x1="21.12" y1="85.23" x2="217.35" y2="85.23" xlink:href="#New_Gradient_Swatch_7"/><linearGradient id="New_Gradient_Swatch_7-19" x1="268.37" y1="87.16" x2="464.61" y2="87.16" xlink:href="#New_Gradient_Swatch_7"/><linearGradient id="New_Gradient_Swatch_7-20" x1="360.68" y1="108.68" x2="372.31" y2="108.68" xlink:href="#New_Gradient_Swatch_7"/><linearGradient id="New_Gradient_Swatch_7-21" x1="119.63" y1="86.1" x2="497.71" y2="86.1" xlink:href="#New_Gradient_Swatch_7"/><linearGradient id="New_Gradient_Swatch_7-22" x1="248.09" y1="29.39" x2="497.32" y2="29.39" xlink:href="#New_Gradient_Swatch_7"/><linearGradient id="New_Gradient_Swatch_7-23" x1="303.8" y1="21.58" x2="419.22" y2="21.58" xlink:href="#New_Gradient_Swatch_7"/><linearGradient id="New_Gradient_Swatch_7-24" x1="416.92" y1="18.19" x2="422.67" y2="18.19" xlink:href="#New_Gradient_Swatch_7"/><linearGradient id="New_Gradient_Swatch_7-25" x1="105.67" y1="50.92" x2="111.41" y2="50.92" xlink:href="#New_Gradient_Swatch_7"/><linearGradient id="New_Gradient_Swatch_7-26" x1="108.15" y1="25.18" x2="307.54" y2="25.18" xlink:href="#New_Gradient_Swatch_7"/><linearGradient id="New_Gradient_Swatch_7-27" x1="30.58" y1="84.81" x2="41.13" y2="84.81" xlink:href="#New_Gradient_Swatch_7"/><linearGradient id="New_Gradient_Swatch_7-28" x1="38.62" y1="84.81" x2="49.17" y2="84.81" xlink:href="#New_Gradient_Swatch_7"/><linearGradient id="New_Gradient_Swatch_7-29" x1="46.66" y1="84.81" x2="57.21" y2="84.81" xlink:href="#New_Gradient_Swatch_7"/><linearGradient id="New_Gradient_Swatch_7-30" x1="54.7" y1="84.81" x2="65.25" y2="84.81" xlink:href="#New_Gradient_Swatch_7"/><linearGradient id="New_Gradient_Swatch_7-31" x1="62.74" y1="84.81" x2="73.29" y2="84.81" xlink:href="#New_Gradient_Swatch_7"/><linearGradient id="New_Gradient_Swatch_7-32" x1="70.78" y1="84.81" x2="81.33" y2="84.81" xlink:href="#New_Gradient_Swatch_7"/><linearGradient id="New_Gradient_Swatch_7-33" x1="78.82" y1="84.81" x2="89.37" y2="84.81" xlink:href="#New_Gradient_Swatch_7"/><linearGradient id="New_Gradient_Swatch_7-34" x1="86.86" y1="84.81" x2="97.41" y2="84.81" xlink:href="#New_Gradient_Swatch_7"/><linearGradient id="New_Gradient_Swatch_7-35" x1="94.9" y1="84.81" x2="105.45" y2="84.81" xlink:href="#New_Gradient_Swatch_7"/><linearGradient id="New_Gradient_Swatch_7-36" x1="102.94" y1="84.81" x2="113.49" y2="84.81" xlink:href="#New_Gradient_Swatch_7"/><linearGradient id="New_Gradient_Swatch_7-37" x1="110.98" y1="84.81" x2="121.53" y2="84.81" xlink:href="#New_Gradient_Swatch_7"/><linearGradient id="New_Gradient_Swatch_7-38" x1="368.68" y1="87.39" x2="379.23" y2="87.39" xlink:href="#New_Gradient_Swatch_7"/><linearGradient id="New_Gradient_Swatch_7-39" x1="376.72" y1="87.39" x2="387.27" y2="87.39" xlink:href="#New_Gradient_Swatch_7"/><linearGradient id="New_Gradient_Swatch_7-40" x1="384.76" y1="87.39" x2="395.31" y2="87.39" xlink:href="#New_Gradient_Swatch_7"/><linearGradient id="New_Gradient_Swatch_7-41" x1="392.8" y1="87.39" x2="403.35" y2="87.39" xlink:href="#New_Gradient_Swatch_7"/><linearGradient id="New_Gradient_Swatch_7-42" x1="400.84" y1="87.39" x2="411.39" y2="87.39" xlink:href="#New_Gradient_Swatch_7"/><linearGradient id="New_Gradient_Swatch_7-43" x1="408.88" y1="87.39" x2="419.43" y2="87.39" xlink:href="#New_Gradient_Swatch_7"/><linearGradient id="New_Gradient_Swatch_7-44" x1="416.92" y1="87.39" x2="427.47" y2="87.39" xlink:href="#New_Gradient_Swatch_7"/><linearGradient id="New_Gradient_Swatch_7-45" x1="424.96" y1="87.39" x2="435.51" y2="87.39" xlink:href="#New_Gradient_Swatch_7"/><linearGradient id="New_Gradient_Swatch_7-46" x1="433" y1="87.39" x2="443.55" y2="87.39" xlink:href="#New_Gradient_Swatch_7"/><linearGradient id="New_Gradient_Swatch_7-47" x1="441.04" y1="87.39" x2="451.59" y2="87.39" xlink:href="#New_Gradient_Swatch_7"/><linearGradient id="New_Gradient_Swatch_7-48" x1="449.08" y1="87.39" x2="459.63" y2="87.39" xlink:href="#New_Gradient_Swatch_7"/></defs><title>menu_02_purple</title><g id="Layer_2" data-name="Layer 2"><g id="Layer_1-2" data-name="Layer 1"><path class="cls-5" d="M128.79,23.65h-8V11h1.68V22.15h6.31Z"/><path class="cls-6" d="M138.43,18.91a5.34,5.34,0,0,1-1.19,3.66,4.47,4.47,0,0,1-6.38,0,5.33,5.33,0,0,1-1.18-3.66,5.33,5.33,0,0,1,1.18-3.66,4.44,4.44,0,0,1,6.38,0A5.34,5.34,0,0,1,138.43,18.91Zm-1.65,0a4.33,4.33,0,0,0-.72-2.74,2.71,2.71,0,0,0-4,0,4.33,4.33,0,0,0-.72,2.74,4.3,4.3,0,0,0,.73,2.7,2.4,2.4,0,0,0,2,.93,2.42,2.42,0,0,0,2-.92A4.32,4.32,0,0,0,136.78,18.91Z"/><path class="cls-7" d="M146.82,15.9h-.09l-.69-.12c-.22,0-.49,0-.79,0a3.26,3.26,0,0,0-1.43.33,6.3,6.3,0,0,0-1.32.85v6.73h-1.6V14.16h1.6v1.41a8.18,8.18,0,0,1,1.67-1.09,3.72,3.72,0,0,1,1.48-.32,4.4,4.4,0,0,1,.61,0l.56.08Z"/><path class="cls-8" d="M156.26,19.07h-7a4.23,4.23,0,0,0,.26,1.53,2.91,2.91,0,0,0,.73,1.06,2.78,2.78,0,0,0,1,.61,4.09,4.09,0,0,0,1.34.21,5.22,5.22,0,0,0,2-.39,5,5,0,0,0,1.4-.76h.08v1.74a12.38,12.38,0,0,1-1.65.57,6.74,6.74,0,0,1-1.76.23A5.11,5.11,0,0,1,149,22.59,4.81,4.81,0,0,1,147.65,19a5.19,5.19,0,0,1,1.27-3.69,4.34,4.34,0,0,1,3.34-1.37,3.84,3.84,0,0,1,3,1.12,4.54,4.54,0,0,1,1,3.19Zm-1.56-1.22a2.79,2.79,0,0,0-.63-2,2.46,2.46,0,0,0-1.9-.68,2.79,2.79,0,0,0-2,.75,3,3,0,0,0-.86,1.88Z"/><path class="cls-9" d="M172.51,23.65h-1.59v-5.4a11.22,11.22,0,0,0-.06-1.18,2.37,2.37,0,0,0-.23-.91,1.29,1.29,0,0,0-.56-.55,2.26,2.26,0,0,0-1-.19,2.87,2.87,0,0,0-1.34.34,7.72,7.72,0,0,0-1.35.85c0,.13,0,.28,0,.45s0,.35,0,.52v6.07H164.8v-5.4a11.14,11.14,0,0,0-.06-1.19,2.37,2.37,0,0,0-.23-.91,1.35,1.35,0,0,0-.56-.55,2.45,2.45,0,0,0-1-.18,3,3,0,0,0-1.32.32,8.36,8.36,0,0,0-1.31.83v7.08h-1.59V14.16h1.59v1.06a6.87,6.87,0,0,1,1.49-1,3.76,3.76,0,0,1,1.59-.35,3.14,3.14,0,0,1,1.64.41,2.5,2.5,0,0,1,1,1.13,7.85,7.85,0,0,1,1.77-1.18,4.1,4.1,0,0,1,1.71-.36,2.74,2.74,0,0,1,2.3.95,4.15,4.15,0,0,1,.74,2.64Z"/><path class="cls-10" d="M183.41,12.58h-1.79V10.92h1.79Zm-.1,11.07h-1.59V14.16h1.59Z"/><path class="cls-11" d="M193.25,20.91A2.56,2.56,0,0,1,192.17,23a4.62,4.62,0,0,1-2.93.84,7.27,7.27,0,0,1-1.93-.25,8.77,8.77,0,0,1-1.48-.55V21.29h.09a6.16,6.16,0,0,0,1.68.9,5.32,5.32,0,0,0,1.77.34,3.38,3.38,0,0,0,1.65-.34,1.15,1.15,0,0,0,.6-1.07,1.06,1.06,0,0,0-.33-.85,2.85,2.85,0,0,0-1.24-.49l-.88-.18c-.37-.07-.7-.14-1-.22a3.31,3.31,0,0,1-1.77-1,2.38,2.38,0,0,1-.52-1.57,2.58,2.58,0,0,1,1-2,3.55,3.55,0,0,1,1.21-.63,5.31,5.31,0,0,1,1.65-.23,7.25,7.25,0,0,1,1.71.2,6.38,6.38,0,0,1,1.45.51v1.7h-.08a5.61,5.61,0,0,0-1.49-.75,5,5,0,0,0-1.71-.31,3,3,0,0,0-1.48.33,1.18,1.18,0,0,0-.24,1.88A2.76,2.76,0,0,0,189,18l1,.21.91.19a3.38,3.38,0,0,1,1.71.87A2.31,2.31,0,0,1,193.25,20.91Z"/><path class="cls-12" d="M203.87,18.79a6.44,6.44,0,0,1-.33,2.11,4.59,4.59,0,0,1-.93,1.62,3.89,3.89,0,0,1-2.93,1.31,5.08,5.08,0,0,1-1.34-.16,5.61,5.61,0,0,1-1.22-.5v4h-1.59v-13h1.59v1a6.24,6.24,0,0,1,1.44-.9,4,4,0,0,1,1.69-.36,3.12,3.12,0,0,1,2.67,1.3A5.91,5.91,0,0,1,203.87,18.79Zm-1.64,0a4.55,4.55,0,0,0-.59-2.56,2,2,0,0,0-1.8-.85,3.44,3.44,0,0,0-1.38.3,6.49,6.49,0,0,0-1.34.78v5.37a6,6,0,0,0,1.17.42,5.35,5.35,0,0,0,1.11.11,2.56,2.56,0,0,0,2.08-.9A4.09,4.09,0,0,0,202.23,18.83Z"/><path class="cls-13" d="M214.22,23.65h-1.59V22.59a7.87,7.87,0,0,1-1.55,1,3.78,3.78,0,0,1-1.63.34,3,3,0,0,1-2.32-.91,3.83,3.83,0,0,1-.84-2.68V14.16h1.6v5.4A8.84,8.84,0,0,0,208,20.8a2.18,2.18,0,0,0,.29.88,1.33,1.33,0,0,0,.59.54,2.65,2.65,0,0,0,1.06.17,3.52,3.52,0,0,0,1.36-.32,6.68,6.68,0,0,0,1.37-.83V14.16h1.59Z"/><path class="cls-14" d="M231.2,23.65h-1.6v-5.4a11.28,11.28,0,0,0,0-1.18,2.56,2.56,0,0,0-.23-.91,1.29,1.29,0,0,0-.56-.55,2.34,2.34,0,0,0-1.06-.19,2.93,2.93,0,0,0-1.34.34,7.66,7.66,0,0,0-1.34.85c0,.13,0,.28,0,.45s0,.35,0,.52v6.07h-1.6v-5.4a11.24,11.24,0,0,0,0-1.19,2.8,2.8,0,0,0-.23-.91,1.35,1.35,0,0,0-.56-.55,2.5,2.5,0,0,0-1.06-.18,3,3,0,0,0-1.31.32,7.92,7.92,0,0,0-1.31.83v7.08h-1.6V14.16H219v1.06a6.63,6.63,0,0,1,1.49-1A3.69,3.69,0,0,1,222,13.9a3.15,3.15,0,0,1,1.65.41,2.55,2.55,0,0,1,1,1.13,7.63,7.63,0,0,1,1.77-1.18,4.08,4.08,0,0,1,1.7-.36,2.77,2.77,0,0,1,2.31.95,4.21,4.21,0,0,1,.74,2.64Z"/><polygon class="cls-15" points="15.37 113.89 10.8 113.89 10.8 56.56 36.04 56.56 43.93 46.05 10.8 46.05 0.28 46.05 0.28 56.56 0.28 113.89 0.28 124.4 0 124.4 15.37 113.89"/><polygon class="cls-16" points="221.38 57 227.67 57 227.67 114.32 202.42 114.32 194.54 124.83 227.67 124.83 238.18 124.83 238.18 114.32 238.18 57 238.18 46.48 238.47 46.48 221.38 57"/><g class="cls-17"><rect class="cls-18" x="21.89" y="65.41" width="194.68" height="39.62" rx="12.92"/></g><path class="cls-19" d="M125.05,63.7a5.82,5.82,0,1,1-5.82-5.81A5.82,5.82,0,0,1,125.05,63.7Z"/><polygon class="cls-20" points="470.36 58.5 474.92 58.5 474.92 115.82 449.68 115.82 441.79 126.33 474.92 126.33 485.44 126.33 485.44 115.82 485.44 58.5 485.44 47.98 485.73 47.98 470.36 58.5"/><polygon class="cls-21" points="264.35 115.39 258.06 115.39 258.06 58.07 283.3 58.07 291.19 47.55 258.06 47.55 247.54 47.55 247.54 58.07 247.54 115.39 247.54 125.9 247.26 125.9 264.35 115.39"/><g class="cls-22"><rect class="cls-23" x="269.15" y="67.35" width="194.68" height="39.62" rx="12.92"/></g><path class="cls-24" d="M203.65,65.41a12.92,12.92,0,0,1,12.92,12.92V92.12A12.92,12.92,0,0,1,203.65,105H34.82A12.93,12.93,0,0,1,21.89,92.12V78.33A12.93,12.93,0,0,1,34.82,65.41H203.65m0-.78H34.82a13.71,13.71,0,0,0-13.7,13.7V92.12a13.71,13.71,0,0,0,13.7,13.7H203.65a13.71,13.71,0,0,0,13.7-13.7V78.33a13.71,13.71,0,0,0-13.7-13.7Z"/><path class="cls-25" d="M450.91,67.35a12.91,12.91,0,0,1,12.92,12.92V94.05A12.92,12.92,0,0,1,450.91,107H282.07a12.93,12.93,0,0,1-12.92-12.92V80.27a12.92,12.92,0,0,1,12.92-12.92H450.91m0-.78H282.07a13.71,13.71,0,0,0-13.7,13.7V94.05a13.72,13.72,0,0,0,13.7,13.7H450.91a13.72,13.72,0,0,0,13.7-13.7V80.27a13.71,13.71,0,0,0-13.7-13.7Z"/><path class="cls-26" d="M360.68,108.68a5.82,5.82,0,1,1,5.81,5.81A5.81,5.81,0,0,1,360.68,108.68Z"/><polygon class="cls-27" points="497.71 138.6 366 138.6 366 114.5 366.78 114.5 366.78 137.82 496.93 137.82 496.93 34.37 120.41 34.37 120.41 60.69 119.64 60.69 119.64 33.59 497.71 33.59 497.71 138.6"/><polygon class="cls-28" points="248.09 34.27 255.55 29.68 306.66 29.68 312.4 24.51 405.44 24.51 412.9 30.82 490.43 30.82 497.32 33.98 248.09 34.27"/><polygon class="cls-29" points="304.36 25.35 303.8 24.81 310.52 17.8 419.22 17.8 419.22 18.58 310.85 18.58 304.36 25.35"/><path class="cls-30" d="M422.67,18.19a2.88,2.88,0,1,1-2.88-2.87A2.87,2.87,0,0,1,422.67,18.19Z"/><circle class="cls-31" cx="108.54" cy="50.92" r="2.87"/><polygon class="cls-32" points="108.93 50.35 108.15 50.35 108.15 0 247.08 0 254.55 6.32 307.54 6.32 291.16 24.48 290.58 23.96 305.79 7.09 254.26 7.09 246.79 0.78 108.93 0.78 108.93 50.35"/><polygon class="cls-33" points="34.13 98.88 41.13 70.74 37.58 70.74 30.58 98.88 34.13 98.88"/><polygon class="cls-34" points="42.17 98.88 49.17 70.74 45.62 70.74 38.62 98.88 42.17 98.88"/><polygon class="cls-35" points="50.21 98.88 57.21 70.74 53.66 70.74 46.66 98.88 50.21 98.88"/><polygon class="cls-36" points="58.25 98.88 65.25 70.74 61.7 70.74 54.7 98.88 58.25 98.88"/><polygon class="cls-37" points="66.29 98.88 73.29 70.74 69.74 70.74 62.74 98.88 66.29 98.88"/><polygon class="cls-38" points="74.33 98.88 81.33 70.74 77.78 70.74 70.78 98.88 74.33 98.88"/><polygon class="cls-39" points="82.37 98.88 89.37 70.74 85.82 70.74 78.82 98.88 82.37 98.88"/><polygon class="cls-40" points="90.41 98.88 97.41 70.74 93.86 70.74 86.86 98.88 90.41 98.88"/><polygon class="cls-41" points="98.45 98.88 105.45 70.74 101.9 70.74 94.89 98.88 98.45 98.88"/><polygon class="cls-42" points="106.49 98.88 113.49 70.74 109.94 70.74 102.94 98.88 106.49 98.88"/><polygon class="cls-43" points="114.53 98.88 121.53 70.74 117.98 70.74 110.97 98.88 114.53 98.88"/><polygon class="cls-44" points="372.23 101.46 379.23 73.32 375.68 73.32 368.68 101.46 372.23 101.46"/><polygon class="cls-45" points="380.27 101.46 387.27 73.32 383.72 73.32 376.72 101.46 380.27 101.46"/><polygon class="cls-46" points="388.31 101.46 395.31 73.32 391.76 73.32 384.76 101.46 388.31 101.46"/><polygon class="cls-47" points="396.35 101.46 403.35 73.32 399.8 73.32 392.8 101.46 396.35 101.46"/><polygon class="cls-48" points="404.39 101.46 411.39 73.32 407.84 73.32 400.84 101.46 404.39 101.46"/><polygon class="cls-49" points="412.43 101.46 419.43 73.32 415.88 73.32 408.88 101.46 412.43 101.46"/><polygon class="cls-50" points="420.47 101.46 427.47 73.32 423.92 73.32 416.92 101.46 420.47 101.46"/><polygon class="cls-51" points="428.51 101.46 435.51 73.32 431.96 73.32 424.96 101.46 428.51 101.46"/><polygon class="cls-52" points="436.55 101.46 443.55 73.32 440 73.32 433 101.46 436.55 101.46"/><polygon class="cls-53" points="444.59 101.46 451.59 73.32 448.04 73.32 441.04 101.46 444.59 101.46"/><polygon class="cls-54" points="452.63 101.46 459.63 73.32 456.08 73.32 449.08 101.46 452.63 101.46"/></g></g></svg>