<svg xmlns="http://www.w3.org/2000/svg" xmlns:xlink="http://www.w3.org/1999/xlink" viewBox="0 0 492.77 368.67"><defs><style>.cls-1{mask:url(#mask);filter:url(#luminosity-noclip-6);}.cls-10,.cls-2,.cls-4,.cls-6,.cls-8{mix-blend-mode:multiply;}.cls-2{fill:url(#Безымянный_градиент_93);}.cls-3{mask:url(#mask-2);filter:url(#luminosity-noclip-7);}.cls-4{fill:url(#Безымянный_градиент_93-2);}.cls-5{mask:url(#mask-3);filter:url(#luminosity-noclip-8);}.cls-6{fill:url(#Безымянный_градиент_93-3);}.cls-7,.cls-9{mask:url(#mask-4);}.cls-7{filter:url(#luminosity-noclip-9);}.cls-8{fill:url(#Безымянный_градиент_91);}.cls-9{filter:url(#luminosity-noclip-10);}.cls-10{fill:url(#Безымянный_градиент_91-2);}.cls-11,.cls-12,.cls-13,.cls-14,.cls-15,.cls-16{fill:#00d0ff;}.cls-11{opacity:0.8;}.cls-12{opacity:0.6;}.cls-13{opacity:0.4;}.cls-14{opacity:0.2;}.cls-15{opacity:0.1;}.cls-17{mask:url(#mask-6);}.cls-18{fill:url(#Безымянный_градиент_33);}.cls-19{mask:url(#mask-7);}.cls-20,.cls-24{opacity:0.5;}.cls-20{fill:url(#Безымянный_градиент_33-2);}.cls-21{mask:url(#mask-8);}.cls-22,.cls-26{opacity:0.3;}.cls-22{fill:url(#Безымянный_градиент_33-3);}.cls-23{mask:url(#mask-9);}.cls-24{fill:url(#Безымянный_градиент_4);}.cls-25{mask:url(#mask-10);}.cls-26{fill:url(#Безымянный_градиент_4-2);}.cls-27{filter:url(#luminosity-noclip-4);}.cls-28{filter:url(#luminosity-noclip-3);}.cls-29{filter:url(#luminosity-noclip-2);}.cls-30{filter:url(#luminosity-noclip);}</style><filter id="luminosity-noclip" x="9.28" y="-8379.99" width="20.64" height="32766" filterUnits="userSpaceOnUse" color-interpolation-filters="sRGB"><feFlood flood-color="#fff" result="bg"/><feBlend in="SourceGraphic" in2="bg"/></filter><mask id="mask" x="9.28" y="-8379.99" width="20.64" height="32766" maskUnits="userSpaceOnUse"><g class="cls-30"/></mask><linearGradient id="Безымянный_градиент_93" x1="19.6" y1="356.18" x2="19.6" y2="11.7" gradientUnits="userSpaceOnUse"><stop offset="0"/><stop offset="0.01" stop-color="#030303"/><stop offset="0.7" stop-color="#b7b7b7"/><stop offset="1" stop-color="#fff"/></linearGradient><filter id="luminosity-noclip-2" x="35.48" y="-8379.99" width="7.15" height="32766" filterUnits="userSpaceOnUse" color-interpolation-filters="sRGB"><feFlood flood-color="#fff" result="bg"/><feBlend in="SourceGraphic" in2="bg"/></filter><mask id="mask-2" x="35.48" y="-8379.99" width="7.15" height="32766" maskUnits="userSpaceOnUse"><g class="cls-29"/></mask><linearGradient id="Безымянный_градиент_93-2" x1="39.05" y1="355.44" x2="39.05" y2="11.7" xlink:href="#Безымянный_градиент_93"/><filter id="luminosity-noclip-3" x="47.39" y="-8379.99" width="7.15" height="32766" filterUnits="userSpaceOnUse" color-interpolation-filters="sRGB"><feFlood flood-color="#fff" result="bg"/><feBlend in="SourceGraphic" in2="bg"/></filter><mask id="mask-3" x="47.39" y="-8379.99" width="7.15" height="32766" maskUnits="userSpaceOnUse"><g class="cls-28"/></mask><linearGradient id="Безымянный_градиент_93-3" x1="50.96" y1="356.23" x2="50.96" y2="12.49" xlink:href="#Безымянный_градиент_93"/><filter id="luminosity-noclip-4" x="263.07" y="-8379.99" width="215.94" height="32766" filterUnits="userSpaceOnUse" color-interpolation-filters="sRGB"><feFlood flood-color="#fff" result="bg"/><feBlend in="SourceGraphic" in2="bg"/></filter><mask id="mask-4" x="263.07" y="-8379.99" width="215.94" height="32766" maskUnits="userSpaceOnUse"><g class="cls-27"/></mask><linearGradient id="Безымянный_градиент_91" x1="263.07" y1="147.12" x2="479.01" y2="147.12" gradientUnits="userSpaceOnUse"><stop offset="0" stop-color="#fff"/><stop offset="0.07" stop-color="#d8d8d8"/><stop offset="0.16" stop-color="#a6a6a6"/><stop offset="0.26" stop-color="#797979"/><stop offset="0.37" stop-color="#545454"/><stop offset="0.47" stop-color="#353535"/><stop offset="0.58" stop-color="#1e1e1e"/><stop offset="0.7" stop-color="#0d0d0d"/><stop offset="0.83" stop-color="#030303"/><stop offset="1"/></linearGradient><linearGradient id="Безымянный_градиент_91-2" x1="263.07" y1="244.5" x2="479.01" y2="244.5" xlink:href="#Безымянный_градиент_91"/><filter id="luminosity-noclip-6" x="9.28" y="11.7" width="20.64" height="344.48" filterUnits="userSpaceOnUse" color-interpolation-filters="sRGB"><feFlood flood-color="#fff" result="bg"/><feBlend in="SourceGraphic" in2="bg"/></filter><mask id="mask-6" x="9.28" y="11.7" width="20.64" height="344.48" maskUnits="userSpaceOnUse"><g class="cls-1"><path class="cls-2" d="M29.92,11.7c-12.16,5.87-20.64,19-20.64,34.24v276c0,15.25,8.48,28.37,20.64,34.24Z"/></g></mask><linearGradient id="Безымянный_градиент_33" x1="19.6" y1="356.18" x2="19.6" y2="11.7" gradientUnits="userSpaceOnUse"><stop offset="0" stop-color="#0eb3a0"/><stop offset="0.24" stop-color="#0bbab8"/><stop offset="1" stop-color="#00d0ff"/></linearGradient><filter id="luminosity-noclip-7" x="35.48" y="11.7" width="7.15" height="343.74" filterUnits="userSpaceOnUse" color-interpolation-filters="sRGB"><feFlood flood-color="#fff" result="bg"/><feBlend in="SourceGraphic" in2="bg"/></filter><mask id="mask-7" x="35.48" y="11.7" width="7.15" height="343.74" maskUnits="userSpaceOnUse"><g class="cls-3"><rect class="cls-4" x="35.48" y="11.7" width="7.15" height="343.74"/></g></mask><linearGradient id="Безымянный_градиент_33-2" x1="39.05" y1="355.44" x2="39.05" y2="11.7" xlink:href="#Безымянный_градиент_33"/><filter id="luminosity-noclip-8" x="47.39" y="12.49" width="7.15" height="343.74" filterUnits="userSpaceOnUse" color-interpolation-filters="sRGB"><feFlood flood-color="#fff" result="bg"/><feBlend in="SourceGraphic" in2="bg"/></filter><mask id="mask-8" x="47.39" y="12.49" width="7.15" height="343.74" maskUnits="userSpaceOnUse"><g class="cls-5"><rect class="cls-6" x="47.39" y="12.49" width="7.15" height="343.74"/></g></mask><linearGradient id="Безымянный_градиент_33-3" x1="50.96" y1="356.23" x2="50.96" y2="12.49" xlink:href="#Безымянный_градиент_33"/><filter id="luminosity-noclip-9" x="263.07" y="130.18" width="215.94" height="33.87" filterUnits="userSpaceOnUse" color-interpolation-filters="sRGB"><feFlood flood-color="#fff" result="bg"/><feBlend in="SourceGraphic" in2="bg"/></filter><mask id="mask-9" x="263.07" y="130.18" width="215.94" height="33.87" maskUnits="userSpaceOnUse"><g class="cls-7"><rect class="cls-8" x="263.07" y="130.18" width="215.94" height="33.87"/></g></mask><linearGradient id="Безымянный_градиент_4" x1="263.07" y1="147.12" x2="479.01" y2="147.12" gradientUnits="userSpaceOnUse"><stop offset="0" stop-color="#00d0ff"/><stop offset="0.05" stop-color="#02ccf4"/><stop offset="0.21" stop-color="#06c3d5"/><stop offset="0.38" stop-color="#0abcbe"/><stop offset="0.56" stop-color="#0cb7ad"/><stop offset="0.75" stop-color="#0eb4a3"/><stop offset="1" stop-color="#0eb3a0"/></linearGradient><filter id="luminosity-noclip-10" x="263.07" y="227.57" width="215.94" height="33.87" filterUnits="userSpaceOnUse" color-interpolation-filters="sRGB"><feFlood flood-color="#fff" result="bg"/><feBlend in="SourceGraphic" in2="bg"/></filter><mask id="mask-10" x="263.07" y="227.57" width="215.94" height="33.87" maskUnits="userSpaceOnUse"><g class="cls-9"><rect class="cls-10" x="263.07" y="227.57" width="215.94" height="33.87"/></g></mask><linearGradient id="Безымянный_градиент_4-2" x1="263.07" y1="244.5" x2="479.01" y2="244.5" xlink:href="#Безымянный_градиент_4"/></defs><title>menu_08</title><g id="Layer_2" data-name="Layer 2"><g id="Layer_1-2" data-name="Layer 1"><rect class="cls-11" x="98.52" y="78.34" width="16.67" height="40.21" rx="1.96"/><rect class="cls-12" x="121.54" y="78.34" width="16.67" height="40.21" rx="1.96"/><rect class="cls-13" x="144.56" y="78.34" width="16.67" height="40.21" rx="1.96"/><rect class="cls-14" x="167.59" y="78.34" width="16.67" height="40.21" rx="1.96"/><rect class="cls-15" x="190.61" y="78.34" width="16.67" height="40.21" rx="1.96"/><rect class="cls-11" x="98.52" y="176.51" width="16.67" height="40.21" rx="1.96"/><rect class="cls-12" x="121.54" y="176.51" width="16.67" height="40.21" rx="1.96"/><rect class="cls-13" x="144.56" y="176.51" width="16.67" height="40.21" rx="1.96"/><rect class="cls-14" x="167.59" y="176.51" width="16.67" height="40.21" rx="1.96"/><rect class="cls-15" x="190.61" y="176.51" width="16.67" height="40.21" rx="1.96"/><rect class="cls-11" x="98.52" y="273.84" width="16.67" height="40.21" rx="1.96"/><rect class="cls-12" x="121.54" y="273.84" width="16.67" height="40.21" rx="1.96"/><rect class="cls-13" x="144.56" y="273.84" width="16.67" height="40.21" rx="1.96"/><rect class="cls-14" x="167.59" y="273.84" width="16.67" height="40.21" rx="1.96"/><rect class="cls-15" x="190.61" y="273.84" width="16.67" height="40.21" rx="1.96"/><path class="cls-16" d="M212.49,98.44a3.94,3.94,0,1,1-3.94-3.93A3.94,3.94,0,0,1,212.49,98.44Z"/><rect class="cls-16" x="66.05" y="53.4" width="26.99" height="65.1" rx="3.18"/><rect class="cls-16" x="66.23" y="151.84" width="26.99" height="65.1" rx="3.18"/><rect class="cls-16" x="66.23" y="249.17" width="26.99" height="65.1" rx="3.18"/><path class="cls-16" d="M83.49,52.81a3.94,3.94,0,1,1-3.94-3.93A3.93,3.93,0,0,1,83.49,52.81Z"/><path class="cls-16" d="M83.66,315.86a3.94,3.94,0,1,1-3.93-3.94A3.94,3.94,0,0,1,83.66,315.86Z"/><path class="cls-16" d="M331.79,93.27a4.46,4.46,0,0,0-3.31,1.22,4.74,4.74,0,0,0-1.39,3h8.79a4.57,4.57,0,0,0-1-3.14A4,4,0,0,0,331.79,93.27Z"/><path class="cls-16" d="M408.94,93.6a5.65,5.65,0,0,0-2.24.48,10.3,10.3,0,0,0-2.16,1.26V104a10.15,10.15,0,0,0,1.89.67,8.09,8.09,0,0,0,1.79.18,4.15,4.15,0,0,0,3.37-1.46,6.65,6.65,0,0,0,1.21-4.31,7.38,7.38,0,0,0-.95-4.15A3.28,3.28,0,0,0,408.94,93.6Z"/><path class="cls-16" d="M302.47,93.36a4,4,0,0,0-3.27,1.45A7,7,0,0,0,298,99.24a7,7,0,0,0,1.17,4.38,4.29,4.29,0,0,0,6.49,0,7,7,0,0,0,1.18-4.39,7,7,0,0,0-1.17-4.43A4,4,0,0,0,302.47,93.36Z"/><path class="cls-16" d="M471.73,77.41h-204a21,21,0,1,0,0,42.07h204a21,21,0,1,0,0-42.07ZM294,106.91H281V86.45h2.72v18H294Zm13.67-1.75a7.21,7.21,0,0,1-10.33,0,10.14,10.14,0,0,1,0-11.85,7.23,7.23,0,0,1,10.33,0,10.1,10.1,0,0,1,0,11.85Zm15.5-10.78H323a9.82,9.82,0,0,0-1.12-.2,11.9,11.9,0,0,0-1.29-.06,5.2,5.2,0,0,0-2.3.53A10.33,10.33,0,0,0,316.12,96v10.9h-2.58V91.56h2.58v2.27a12.26,12.26,0,0,1,2.72-1.75,5.79,5.79,0,0,1,2.39-.52,7.7,7.7,0,0,1,1,0c.2,0,.5.06.91.13ZM338.4,99.5H327.09a6.62,6.62,0,0,0,.42,2.47,4.57,4.57,0,0,0,2.87,2.71,6.71,6.71,0,0,0,2.16.33,8.7,8.7,0,0,0,3.16-.62,8,8,0,0,0,2.26-1.23h.13V106a23.23,23.23,0,0,1-2.66.92,11.15,11.15,0,0,1-2.86.37,8.22,8.22,0,0,1-6-2.07,7.79,7.79,0,0,1-2.15-5.87,8.44,8.44,0,0,1,2.06-6,7,7,0,0,1,5.4-2.21A6.21,6.21,0,0,1,336.71,93a7.31,7.31,0,0,1,1.69,5.15Zm26.31,7.41h-2.59V98.17c0-.66,0-1.3-.09-1.91a3.94,3.94,0,0,0-.37-1.47,2.11,2.11,0,0,0-.91-.89,3.83,3.83,0,0,0-1.7-.3,4.8,4.8,0,0,0-2.17.54,13.15,13.15,0,0,0-2.18,1.38c0,.21.05.45.07.73s0,.56,0,.84v9.82h-2.58V98.17c0-.68,0-1.32-.09-1.93a4,4,0,0,0-.38-1.46,2,2,0,0,0-.91-.89,3.85,3.85,0,0,0-1.7-.29,4.73,4.73,0,0,0-2.12.52,13.06,13.06,0,0,0-2.13,1.33v11.46h-2.58V91.56h2.58v1.71a11.43,11.43,0,0,1,2.42-1.57,5.87,5.87,0,0,1,2.56-.56,5.07,5.07,0,0,1,2.66.66,4,4,0,0,1,1.62,1.82,12.91,12.91,0,0,1,2.86-1.9,6.6,6.6,0,0,1,2.76-.58,4.48,4.48,0,0,1,3.74,1.53,6.79,6.79,0,0,1,1.2,4.28Zm17.47,0H379.6V91.56h2.58ZM382.35,89h-2.91V86.31h2.91Zm14.17,16.94a7.54,7.54,0,0,1-4.74,1.35,11.41,11.41,0,0,1-3.13-.4,14.67,14.67,0,0,1-2.38-.89v-2.9h.13a10.46,10.46,0,0,0,2.72,1.46,8.51,8.51,0,0,0,2.87.55,5.48,5.48,0,0,0,2.67-.55,1.87,1.87,0,0,0,1-1.74,1.74,1.74,0,0,0-.52-1.37,4.75,4.75,0,0,0-2-.8l-1.43-.28q-.89-.17-1.62-.36a5.39,5.39,0,0,1-2.86-1.57,4,4,0,0,1-.85-2.55,4,4,0,0,1,.4-1.79,4.29,4.29,0,0,1,1.18-1.5,5.76,5.76,0,0,1,2-1,8.81,8.81,0,0,1,2.66-.38,11.62,11.62,0,0,1,2.78.34,10,10,0,0,1,2.35.82v2.76h-.14a8.92,8.92,0,0,0-2.41-1.23,8.08,8.08,0,0,0-2.77-.5,4.85,4.85,0,0,0-2.39.54,1.9,1.9,0,0,0-.39,3,4.65,4.65,0,0,0,1.87.78c.48.12,1,.22,1.6.33s1.09.22,1.48.31a5.4,5.4,0,0,1,2.77,1.41,3.75,3.75,0,0,1,1,2.7A4.15,4.15,0,0,1,396.52,105.93Zm18.41-3.47a7.4,7.4,0,0,1-1.51,2.62,6.51,6.51,0,0,1-2.14,1.58,6.27,6.27,0,0,1-2.61.55,8.53,8.53,0,0,1-2.16-.26,8.73,8.73,0,0,1-2-.81v6.43H402v-21h2.58v1.61a10.13,10.13,0,0,1,2.31-1.45,6.55,6.55,0,0,1,2.75-.58,5,5,0,0,1,4.32,2.09,9.65,9.65,0,0,1,1.54,5.82A10.51,10.51,0,0,1,414.93,102.46Zm17.28,4.45h-2.58v-1.7a13.29,13.29,0,0,1-2.5,1.58,6.36,6.36,0,0,1-2.64.55,4.87,4.87,0,0,1-3.77-1.48,6.28,6.28,0,0,1-1.34-4.34v-10H422v8.74a16.11,16.11,0,0,0,.11,2,3.55,3.55,0,0,0,.47,1.42,2.25,2.25,0,0,0,1,.88,4.26,4.26,0,0,0,1.72.28,5.46,5.46,0,0,0,2.19-.53,10.05,10.05,0,0,0,2.22-1.33V91.56h2.58Zm27.48,0h-2.58V98.17c0-.66,0-1.3-.09-1.91a4.13,4.13,0,0,0-.38-1.47,2.06,2.06,0,0,0-.91-.89,3.83,3.83,0,0,0-1.7-.3,4.83,4.83,0,0,0-2.17.54,13.08,13.08,0,0,0-2.17,1.38c0,.21.05.45.07.73s0,.56,0,.84v9.82H447.2V98.17c0-.68,0-1.32-.09-1.93a3.82,3.82,0,0,0-.38-1.46,2,2,0,0,0-.9-.89,3.9,3.9,0,0,0-1.71-.29,4.76,4.76,0,0,0-2.12.52,12.58,12.58,0,0,0-2.12,1.33v11.46H437.3V91.56h2.58v1.71a11.38,11.38,0,0,1,2.41-1.57,5.9,5.9,0,0,1,2.56-.56,5,5,0,0,1,2.66.66,4.05,4.05,0,0,1,1.63,1.82,12.69,12.69,0,0,1,2.86-1.9,6.6,6.6,0,0,1,2.76-.58,4.46,4.46,0,0,1,3.73,1.53,6.79,6.79,0,0,1,1.2,4.28Z"/><path class="cls-16" d="M267.7,218.06h204a21,21,0,1,0,0-42.07h-204a21,21,0,1,0,0,42.07ZM381.55,205H379V189.63h2.58Zm55.11-15.35h2.58v1.71a11.63,11.63,0,0,1,2.41-1.57,6.1,6.1,0,0,1,2.57-.56,5.07,5.07,0,0,1,2.66.66,4.06,4.06,0,0,1,1.62,1.83,13,13,0,0,1,2.86-1.91,6.6,6.6,0,0,1,2.76-.58,4.44,4.44,0,0,1,3.73,1.53,6.73,6.73,0,0,1,1.21,4.28v10h-2.59v-8.74c0-.66,0-1.29-.09-1.91a4.14,4.14,0,0,0-.37-1.47,2.11,2.11,0,0,0-.91-.89,3.83,3.83,0,0,0-1.7-.3,4.8,4.8,0,0,0-2.17.54,13.15,13.15,0,0,0-2.18,1.38c0,.21.05.46.07.74s0,.55,0,.83V205h-2.58v-8.74c0-.67,0-1.32-.09-1.93a4.07,4.07,0,0,0-.38-1.46,2.06,2.06,0,0,0-.91-.89,4,4,0,0,0-1.7-.29,4.73,4.73,0,0,0-2.12.52,13.06,13.06,0,0,0-2.13,1.33V205h-2.58Zm-17.92,0h2.59v8.74a14.37,14.37,0,0,0,.11,2,3.66,3.66,0,0,0,.46,1.42,2.16,2.16,0,0,0,1,.88,4,4,0,0,0,1.71.28,5.61,5.61,0,0,0,2.19-.52,10,10,0,0,0,2.22-1.34V189.63h2.59V205H429v-1.7a12.51,12.51,0,0,1-2.5,1.58,6.13,6.13,0,0,1-2.63.55,4.82,4.82,0,0,1-3.77-1.48,6.21,6.21,0,0,1-1.35-4.33Zm-17.42,0h2.58v1.61a10.32,10.32,0,0,1,2.32-1.45,6.54,6.54,0,0,1,2.74-.58,5.07,5.07,0,0,1,4.32,2.09,9.65,9.65,0,0,1,1.55,5.82,10.31,10.31,0,0,1-.54,3.42,7.44,7.44,0,0,1-1.51,2.61,6.27,6.27,0,0,1-4.74,2.13,8,8,0,0,1-2.16-.26,8.62,8.62,0,0,1-2-.81v6.43h-2.58Zm-15.69,11.53h.14a10.33,10.33,0,0,0,2.72,1.47,8.44,8.44,0,0,0,2.87.54,5.39,5.39,0,0,0,2.67-.55,1.85,1.85,0,0,0,1-1.73,1.79,1.79,0,0,0-.52-1.38,4.77,4.77,0,0,0-2-.79c-.37-.09-.85-.18-1.44-.29s-1.13-.23-1.61-.36a5.42,5.42,0,0,1-2.87-1.57,3.92,3.92,0,0,1-.84-2.55,4.11,4.11,0,0,1,1.58-3.28,5.52,5.52,0,0,1,2-1,8.81,8.81,0,0,1,2.66-.38,12.21,12.21,0,0,1,2.78.34,10.21,10.21,0,0,1,2.34.82v2.76h-.14a9,9,0,0,0-2.4-1.23,8.38,8.38,0,0,0-2.78-.5,4.88,4.88,0,0,0-2.39.54,1.74,1.74,0,0,0-1,1.62,1.7,1.7,0,0,0,.59,1.42,4.45,4.45,0,0,0,1.87.79c.47.11,1,.22,1.6.33s1.08.21,1.47.3a5.51,5.51,0,0,1,2.78,1.41,3.75,3.75,0,0,1,1,2.7,4.18,4.18,0,0,1-1.74,3.45,7.62,7.62,0,0,1-4.75,1.34A11.41,11.41,0,0,1,388,205a14.11,14.11,0,0,1-2.38-.89Zm-6.83-16.77h2.92v2.68H378.8Zm-37.12,5.24h2.58v1.71a11.63,11.63,0,0,1,2.41-1.57,6.05,6.05,0,0,1,2.56-.56,5,5,0,0,1,2.66.66,4.08,4.08,0,0,1,1.63,1.83,12.77,12.77,0,0,1,2.86-1.91,6.6,6.6,0,0,1,2.76-.58,4.44,4.44,0,0,1,3.73,1.53,6.79,6.79,0,0,1,1.2,4.28v10h-2.58v-8.74c0-.66,0-1.29-.09-1.91a4.13,4.13,0,0,0-.38-1.47,2.09,2.09,0,0,0-.9-.89,3.91,3.91,0,0,0-1.71-.3,4.83,4.83,0,0,0-2.17.54,13.08,13.08,0,0,0-2.17,1.38c0,.21.05.46.07.74s0,.55,0,.83V205h-2.59v-8.74c0-.67,0-1.32-.09-1.93a4.08,4.08,0,0,0-.37-1.46,2.11,2.11,0,0,0-.91-.89,4,4,0,0,0-1.7-.29,4.77,4.77,0,0,0-2.13.52,13,13,0,0,0-2.12,1.33V205h-2.58Zm-15.8,1.79a7,7,0,0,1,5.41-2.21,6.21,6.21,0,0,1,4.79,1.81,7.32,7.32,0,0,1,1.68,5.16v1.4H326.45a6.4,6.4,0,0,0,.43,2.46,4.57,4.57,0,0,0,2.86,2.72,6.81,6.81,0,0,0,2.17.33,8.5,8.5,0,0,0,3.15-.63,7.9,7.9,0,0,0,2.26-1.23h.14v2.82a22.74,22.74,0,0,1-2.67.92,10.66,10.66,0,0,1-2.85.37,8.24,8.24,0,0,1-6-2.07,7.77,7.77,0,0,1-2.14-5.87A8.45,8.45,0,0,1,325.88,191.42Zm-13-1.79h2.58v2.27a12.61,12.61,0,0,1,2.71-1.75,6,6,0,0,1,2.4-.52c.45,0,.77,0,1,0l.9.13v2.65h-.14a9.1,9.1,0,0,0-1.12-.2,11.83,11.83,0,0,0-1.28-.06,5.35,5.35,0,0,0-2.31.53,10.59,10.59,0,0,0-2.14,1.37V205h-2.58Zm-16.25,1.76a7.2,7.2,0,0,1,10.32,0,10.06,10.06,0,0,1,0,11.85,7.22,7.22,0,0,1-10.32,0,10.1,10.1,0,0,1,0-11.85Zm-16.29-6.87h2.72v18h10.22V205H280.37Z"/><path class="cls-16" d="M301.83,203.18a3.94,3.94,0,0,0,3.24-1.47,8.91,8.91,0,0,0,0-8.83,4.37,4.37,0,0,0-6.5,0,8.94,8.94,0,0,0,0,8.81A3.9,3.9,0,0,0,301.83,203.18Z"/><path class="cls-16" d="M334.22,192.45a3.93,3.93,0,0,0-3.07-1.11,4.49,4.49,0,0,0-3.3,1.22,4.77,4.77,0,0,0-1.4,3h8.8A4.54,4.54,0,0,0,334.22,192.45Z"/><path class="cls-16" d="M407.59,203a4.11,4.11,0,0,0,3.36-1.45,6.62,6.62,0,0,0,1.21-4.32,7.3,7.3,0,0,0-1-4.15,3.3,3.3,0,0,0-2.91-1.37,5.68,5.68,0,0,0-2.24.48,10.3,10.3,0,0,0-2.16,1.26v8.7a10.68,10.68,0,0,0,1.89.67A8.18,8.18,0,0,0,407.59,203Z"/><path class="cls-16" d="M331.15,288.19a4.46,4.46,0,0,0-3.3,1.23,4.72,4.72,0,0,0-1.4,3h8.8a4.53,4.53,0,0,0-1-3.14A3.94,3.94,0,0,0,331.15,288.19Z"/><path class="cls-16" d="M408.3,288.52a5.7,5.7,0,0,0-2.24.49,10.3,10.3,0,0,0-2.16,1.26V299a10.68,10.68,0,0,0,1.89.67,8.18,8.18,0,0,0,1.8.18,4.12,4.12,0,0,0,3.36-1.46,6.59,6.59,0,0,0,1.21-4.31,7.28,7.28,0,0,0-1-4.15A3.28,3.28,0,0,0,408.3,288.52Z"/><path class="cls-16" d="M471.73,272.55h-204a21,21,0,0,0,0,42.08h204a21,21,0,0,0,0-42.08ZM293.31,301.84H280.37V281.38h2.72v18h10.22ZM307,300.09a7.22,7.22,0,0,1-10.32,0,10.1,10.1,0,0,1,0-11.85,7.22,7.22,0,0,1,10.32,0,10.06,10.06,0,0,1,0,11.85Zm15.5-10.78h-.14a9.1,9.1,0,0,0-1.12-.2,11.83,11.83,0,0,0-1.28-.06,5.21,5.21,0,0,0-2.31.53,10.54,10.54,0,0,0-2.14,1.36v10.9h-2.58V286.49h2.58v2.27A12.23,12.23,0,0,1,318.2,287a5.83,5.83,0,0,1,2.4-.52,7.8,7.8,0,0,1,1,0c.2,0,.5.06.9.13Zm15.28,5.12H326.45a6.42,6.42,0,0,0,.43,2.47,4.53,4.53,0,0,0,1.17,1.72,4.61,4.61,0,0,0,1.69,1,6.81,6.81,0,0,0,2.17.33,8.69,8.69,0,0,0,3.15-.62,7.9,7.9,0,0,0,2.26-1.23h.14v2.81a19.58,19.58,0,0,1-2.67.92,10.66,10.66,0,0,1-2.85.38,8.24,8.24,0,0,1-6-2.07,7.79,7.79,0,0,1-2.14-5.88,8.41,8.41,0,0,1,2.05-6,7,7,0,0,1,5.41-2.21,6.21,6.21,0,0,1,4.79,1.81,7.31,7.31,0,0,1,1.68,5.15Zm26.31,7.41h-2.58V293.1c0-.66,0-1.3-.09-1.91a4.13,4.13,0,0,0-.38-1.47,2.09,2.09,0,0,0-.9-.89,3.9,3.9,0,0,0-1.71-.31,4.85,4.85,0,0,0-2.17.55,13.08,13.08,0,0,0-2.17,1.38c0,.21.05.45.07.73s0,.56,0,.83v9.83h-2.59V293.1c0-.68,0-1.32-.09-1.93a4,4,0,0,0-.37-1.46,2.06,2.06,0,0,0-.91-.89,3.83,3.83,0,0,0-1.7-.3,4.79,4.79,0,0,0-2.13.53,12.34,12.34,0,0,0-2.12,1.33v11.46h-2.58V286.49h2.58v1.7a11.57,11.57,0,0,1,2.41-1.56,5.9,5.9,0,0,1,2.56-.56,5,5,0,0,1,2.66.65,4.08,4.08,0,0,1,1.63,1.83,12.69,12.69,0,0,1,2.86-1.9,6.6,6.6,0,0,1,2.76-.58,4.44,4.44,0,0,1,3.73,1.53,6.79,6.79,0,0,1,1.2,4.28Zm17.48,0H379V286.49h2.58Zm.17-17.92H378.8v-2.68h2.92Zm14.17,16.94a7.56,7.56,0,0,1-4.75,1.35,11.4,11.4,0,0,1-3.13-.41,14.16,14.16,0,0,1-2.38-.88V298h.14a10.3,10.3,0,0,0,2.72,1.46,8.44,8.44,0,0,0,2.87.54,5.51,5.51,0,0,0,2.67-.54,1.87,1.87,0,0,0,1-1.74,1.77,1.77,0,0,0-.52-1.37,4.75,4.75,0,0,0-2-.8l-1.44-.29c-.59-.11-1.13-.22-1.61-.35a5.36,5.36,0,0,1-2.87-1.58,3.91,3.91,0,0,1-.84-2.54,4.18,4.18,0,0,1,.39-1.79,4.32,4.32,0,0,1,1.19-1.5,5.67,5.67,0,0,1,2-1,8.81,8.81,0,0,1,2.66-.38,11.68,11.68,0,0,1,2.78.34,10.23,10.23,0,0,1,2.34.81V290h-.14a9,9,0,0,0-2.4-1.23,8.15,8.15,0,0,0-2.78-.51,4.88,4.88,0,0,0-2.39.55,1.91,1.91,0,0,0-.38,3,4.59,4.59,0,0,0,1.87.78c.47.11,1,.22,1.6.33s1.08.21,1.47.31a5.43,5.43,0,0,1,2.78,1.41,3.74,3.74,0,0,1,1,2.69A4.16,4.16,0,0,1,395.89,300.86Zm18.4-3.47a7.48,7.48,0,0,1-1.51,2.62,6.25,6.25,0,0,1-2.14,1.57,6.08,6.08,0,0,1-2.6.56,8.41,8.41,0,0,1-2.16-.26,8.62,8.62,0,0,1-2-.81v6.43h-2.58v-21h2.58v1.61a10,10,0,0,1,2.32-1.45,6.54,6.54,0,0,1,2.74-.58,5,5,0,0,1,4.32,2.09,9.65,9.65,0,0,1,1.55,5.82A10.29,10.29,0,0,1,414.29,297.39Zm17.29,4.45H429v-1.71a12.59,12.59,0,0,1-2.5,1.59,6.28,6.28,0,0,1-2.63.54,4.85,4.85,0,0,1-3.77-1.47,6.23,6.23,0,0,1-1.35-4.34v-10h2.59v8.74a14.47,14.47,0,0,0,.11,2,3.71,3.71,0,0,0,.46,1.42,2.22,2.22,0,0,0,1,.88,4.23,4.23,0,0,0,1.71.27,5.43,5.43,0,0,0,2.19-.52A10,10,0,0,0,429,298V286.49h2.59Zm27.48,0h-2.59V293.1c0-.66,0-1.3-.09-1.91a4.14,4.14,0,0,0-.37-1.47,2.11,2.11,0,0,0-.91-.89,3.82,3.82,0,0,0-1.7-.31,4.82,4.82,0,0,0-2.17.55,13.15,13.15,0,0,0-2.18,1.38c0,.21.05.45.07.73s0,.56,0,.83v9.83h-2.58V293.1c0-.68,0-1.32-.09-1.93a4,4,0,0,0-.38-1.46,2,2,0,0,0-.91-.89,3.83,3.83,0,0,0-1.7-.3,4.75,4.75,0,0,0-2.12.53,12.41,12.41,0,0,0-2.13,1.33v11.46h-2.58V286.49h2.58v1.7a11.57,11.57,0,0,1,2.41-1.56,6,6,0,0,1,2.57-.56,5.07,5.07,0,0,1,2.66.65,4.06,4.06,0,0,1,1.62,1.83,12.91,12.91,0,0,1,2.86-1.9,6.6,6.6,0,0,1,2.76-.58,4.44,4.44,0,0,1,3.73,1.53,6.73,6.73,0,0,1,1.21,4.28Z"/><path class="cls-16" d="M301.83,288.29a3.92,3.92,0,0,0-3.26,1.45,7,7,0,0,0-1.16,4.43,7.06,7.06,0,0,0,1.16,4.38,4.3,4.3,0,0,0,6.5,0,8.9,8.9,0,0,0,0-8.82A3.92,3.92,0,0,0,301.83,288.29Z"/><rect class="cls-16" x="212.49" y="97.9" width="47.67" height="1.09"/><path class="cls-16" d="M211.69,197a3.94,3.94,0,1,1-3.93-3.93A3.93,3.93,0,0,1,211.69,197Z"/><rect class="cls-16" x="211.69" y="196.48" width="47.67" height="1.09"/><path class="cls-16" d="M210.9,293.59a3.94,3.94,0,1,1-3.94-3.94A3.93,3.93,0,0,1,210.9,293.59Z"/><rect class="cls-16" x="210.9" y="293.04" width="47.67" height="1.09"/><path class="cls-16" d="M39.85,368.67A39.88,39.88,0,0,1,0,328.83v-289a39.85,39.85,0,1,1,79.69,0v289A39.88,39.88,0,0,1,39.85,368.67Zm0-367.58A38.81,38.81,0,0,0,1.09,39.85v289a38.76,38.76,0,0,0,77.51,0v-289A38.8,38.8,0,0,0,39.85,1.09Z"/><g class="cls-17"><path class="cls-18" d="M29.92,11.7c-12.16,5.87-20.64,19-20.64,34.24v276c0,15.25,8.48,28.37,20.64,34.24Z"/></g><g class="cls-19"><rect class="cls-20" x="35.48" y="11.7" width="7.15" height="343.74"/></g><g class="cls-21"><rect class="cls-22" x="47.39" y="12.49" width="7.15" height="343.74"/></g><g class="cls-23"><rect class="cls-24" x="263.07" y="130.18" width="215.94" height="33.87"/></g><g class="cls-25"><rect class="cls-26" x="263.07" y="227.57" width="215.94" height="33.87"/></g></g></g></svg>