<svg xmlns="http://www.w3.org/2000/svg" xmlns:xlink="http://www.w3.org/1999/xlink" viewBox="0 0 488.03 146.66"><defs><style>.cls-1{fill:url(#New_Gradient_Swatch_5);}.cls-2{opacity:0.2;fill:url(#New_Gradient_Swatch_5-2);}.cls-10,.cls-3{opacity:0.7;}.cls-3{fill:url(#New_Gradient_Swatch_5-3);}.cls-11,.cls-4{opacity:0.6;}.cls-4{fill:url(#New_Gradient_Swatch_5-4);}.cls-12,.cls-5{opacity:0.8;}.cls-5{fill:url(#New_Gradient_Swatch_5-5);}.cls-13,.cls-30,.cls-31,.cls-6{opacity:0.5;}.cls-6{fill:url(#New_Gradient_Swatch_5-6);}.cls-7{opacity:0.3;fill:url(#New_Gradient_Swatch_5-7);}.cls-8{fill:url(#New_Gradient_Swatch_5-8);}.cls-15,.cls-9{opacity:0.4;}.cls-9{fill:url(#New_Gradient_Swatch_5-9);}.cls-10{fill:url(#New_Gradient_Swatch_5-16);}.cls-11{fill:url(#New_Gradient_Swatch_5-17);}.cls-12{fill:url(#New_Gradient_Swatch_5-18);}.cls-13{fill:url(#New_Gradient_Swatch_5-19);}.cls-14{fill:url(#New_Gradient_Swatch_5-20);}.cls-15{fill:url(#New_Gradient_Swatch_5-21);}.cls-16{fill:url(#New_Gradient_Swatch_5-27);}.cls-17{clip-path:url(#clip-path);}.cls-18{fill:url(#New_Gradient_Swatch_5-30);}.cls-19{fill:url(#New_Gradient_Swatch_5-31);}.cls-20{fill:url(#New_Gradient_Swatch_5-32);}.cls-21{fill:url(#New_Gradient_Swatch_5-33);}.cls-22{fill:url(#New_Gradient_Swatch_5-34);}.cls-23{fill:url(#New_Gradient_Swatch_5-35);}.cls-24{fill:url(#New_Gradient_Swatch_5-36);}.cls-25{fill:url(#New_Gradient_Swatch_5-37);}.cls-26{fill:url(#New_Gradient_Swatch_5-38);}.cls-27{fill:url(#New_Gradient_Swatch_5-39);}.cls-28{fill:url(#New_Gradient_Swatch_5-40);}.cls-29{fill:url(#New_Gradient_Swatch_5-41);}.cls-30{fill:url(#New_Gradient_Swatch_5-42);}.cls-31{fill:url(#New_Gradient_Swatch_5-43);}.cls-32{fill:url(#New_Gradient_Swatch_5-44);}</style><linearGradient id="New_Gradient_Swatch_5" x1="218.8" y1="72.92" x2="488.03" y2="72.92" gradientUnits="userSpaceOnUse"><stop offset="0" stop-color="#11e5b3"/><stop offset="0.14" stop-color="#15dcb8"/><stop offset="0.36" stop-color="#21c4c6"/><stop offset="0.64" stop-color="#359edc"/><stop offset="0.97" stop-color="#4f68fb"/><stop offset="1" stop-color="#5263fe"/></linearGradient><linearGradient id="New_Gradient_Swatch_5-2" x1="5.41" y1="75.13" x2="478.76" y2="75.13" xlink:href="#New_Gradient_Swatch_5"/><linearGradient id="New_Gradient_Swatch_5-3" x1="116.11" y1="138.91" x2="151.66" y2="138.91" xlink:href="#New_Gradient_Swatch_5"/><linearGradient id="New_Gradient_Swatch_5-4" x1="85.54" y1="138.91" x2="121.09" y2="138.91" xlink:href="#New_Gradient_Swatch_5"/><linearGradient id="New_Gradient_Swatch_5-5" x1="146.69" y1="138.91" x2="182.24" y2="138.91" xlink:href="#New_Gradient_Swatch_5"/><linearGradient id="New_Gradient_Swatch_5-6" x1="54.96" y1="138.91" x2="90.51" y2="138.91" xlink:href="#New_Gradient_Swatch_5"/><linearGradient id="New_Gradient_Swatch_5-7" x1="4.4" y1="138.91" x2="29.35" y2="138.91" xlink:href="#New_Gradient_Swatch_5"/><linearGradient id="New_Gradient_Swatch_5-8" x1="177.27" y1="138.91" x2="209.47" y2="138.91" xlink:href="#New_Gradient_Swatch_5"/><linearGradient id="New_Gradient_Swatch_5-9" x1="24.38" y1="138.91" x2="59.93" y2="138.91" xlink:href="#New_Gradient_Swatch_5"/><linearGradient id="New_Gradient_Swatch_5-16" x1="242.26" y1="18.12" x2="256.54" y2="18.12" xlink:href="#New_Gradient_Swatch_5"/><linearGradient id="New_Gradient_Swatch_5-17" x1="254.54" y1="18.12" x2="268.82" y2="18.12" xlink:href="#New_Gradient_Swatch_5"/><linearGradient id="New_Gradient_Swatch_5-18" x1="229.98" y1="18.12" x2="244.25" y2="18.12" xlink:href="#New_Gradient_Swatch_5"/><linearGradient id="New_Gradient_Swatch_5-19" x1="266.82" y1="18.12" x2="281.1" y2="18.12" xlink:href="#New_Gradient_Swatch_5"/><linearGradient id="New_Gradient_Swatch_5-20" x1="219.04" y1="18.12" x2="231.97" y2="18.12" xlink:href="#New_Gradient_Swatch_5"/><linearGradient id="New_Gradient_Swatch_5-21" x1="279.1" y1="18.12" x2="293.38" y2="18.12" xlink:href="#New_Gradient_Swatch_5"/><linearGradient id="New_Gradient_Swatch_5-27" x1="4.5" y1="75.13" x2="479.67" y2="75.13" xlink:href="#New_Gradient_Swatch_5"/><clipPath id="clip-path"><path id="SVGID" class="cls-1" d="M455.43,130.39a.46.46,0,0,1-.32-.78l32-32V16.36H219.26a.46.46,0,1,1,0-.91H487.57a.46.46,0,0,1,.46.46V97.79a.45.45,0,0,1-.14.32l-32.14,32.14A.47.47,0,0,1,455.43,130.39Z"/></clipPath><linearGradient id="New_Gradient_Swatch_5-30" x1="249.92" y1="72.92" x2="456.91" y2="72.92" xlink:href="#New_Gradient_Swatch_5"/><linearGradient id="New_Gradient_Swatch_5-31" x1="301.67" y1="72.92" x2="405.16" y2="72.92" xlink:href="#New_Gradient_Swatch_5"/><linearGradient id="New_Gradient_Swatch_5-32" x1="220.38" y1="5.35" x2="227.06" y2="5.35" xlink:href="#New_Gradient_Swatch_5"/><linearGradient id="New_Gradient_Swatch_5-33" x1="227.8" y1="6.67" x2="235.11" y2="6.67" xlink:href="#New_Gradient_Swatch_5"/><linearGradient id="New_Gradient_Swatch_5-34" x1="237.17" y1="6.67" x2="242.12" y2="6.67" xlink:href="#New_Gradient_Swatch_5"/><linearGradient id="New_Gradient_Swatch_5-35" x1="242.81" y1="6.65" x2="250" y2="6.65" xlink:href="#New_Gradient_Swatch_5"/><linearGradient id="New_Gradient_Swatch_5-36" x1="252.02" y1="6.56" x2="263.59" y2="6.56" xlink:href="#New_Gradient_Swatch_5"/><linearGradient id="New_Gradient_Swatch_5-37" x1="271.19" y1="5.32" x2="272.69" y2="5.32" xlink:href="#New_Gradient_Swatch_5"/><linearGradient id="New_Gradient_Swatch_5-38" x1="274.71" y1="6.67" x2="280.91" y2="6.67" xlink:href="#New_Gradient_Swatch_5"/><linearGradient id="New_Gradient_Swatch_5-39" x1="282.81" y1="8.02" x2="289.79" y2="8.02" xlink:href="#New_Gradient_Swatch_5"/><linearGradient id="New_Gradient_Swatch_5-40" x1="291.81" y1="6.78" x2="298.43" y2="6.78" xlink:href="#New_Gradient_Swatch_5"/><linearGradient id="New_Gradient_Swatch_5-41" x1="301.05" y1="6.56" x2="312.62" y2="6.56" xlink:href="#New_Gradient_Swatch_5"/><linearGradient id="New_Gradient_Swatch_5-42" x1="5.41" y1="61.58" x2="93.39" y2="61.58" xlink:href="#New_Gradient_Swatch_5"/><linearGradient id="New_Gradient_Swatch_5-43" x1="346.65" y1="74.95" x2="478.76" y2="74.95" xlink:href="#New_Gradient_Swatch_5"/><linearGradient id="New_Gradient_Swatch_5-44" x1="0" y1="53.29" x2="79.51" y2="53.29" xlink:href="#New_Gradient_Swatch_5"/></defs><title>menu_20_green_blue</title><g id="Layer_2" data-name="Layer 2"><g id="Layer_1-2" data-name="Layer 1"><polygon class="cls-2" points="478.76 24.89 5.41 24.89 5.41 125.38 447.14 125.38 478.76 93.76 478.76 24.89"/><polygon class="cls-3" points="116.11 146.66 140.1 146.66 151.66 131.15 127.68 131.15 116.11 146.66"/><polygon class="cls-4" points="85.54 146.66 109.52 146.66 121.08 131.15 97.1 131.15 85.54 146.66"/><polygon class="cls-5" points="182.24 131.15 158.26 131.15 146.69 146.66 170.67 146.66 182.24 131.15"/><polygon class="cls-6" points="54.96 146.66 78.94 146.66 90.51 131.15 66.53 131.15 54.96 146.66"/><polygon class="cls-7" points="4.4 131.15 4.4 146.66 17.79 146.66 29.35 131.15 4.4 131.15"/><polygon class="cls-8" points="177.27 146.66 198.26 146.66 209.47 131.15 188.84 131.15 177.27 146.66"/><polygon class="cls-9" points="24.38 146.66 48.36 146.66 59.93 131.15 35.95 131.15 24.38 146.66"/><polygon class="cls-3" points="116.11 146.66 140.1 146.66 151.66 131.15 127.68 131.15 116.11 146.66"/><polygon class="cls-4" points="85.54 146.66 109.52 146.66 121.08 131.15 97.1 131.15 85.54 146.66"/><polygon class="cls-5" points="182.24 131.15 158.26 131.15 146.69 146.66 170.67 146.66 182.24 131.15"/><polygon class="cls-6" points="54.96 146.66 78.94 146.66 90.51 131.15 66.53 131.15 54.96 146.66"/><polygon class="cls-7" points="4.4 131.15 4.4 146.66 17.79 146.66 29.35 131.15 4.4 131.15"/><polygon class="cls-9" points="24.38 146.66 48.36 146.66 59.93 131.15 35.95 131.15 24.38 146.66"/><polygon class="cls-10" points="256.54 19.88 246.9 19.88 242.26 16.35 251.89 16.35 256.54 19.88"/><polygon class="cls-11" points="268.82 19.88 259.18 19.88 254.54 16.35 264.17 16.35 268.82 19.88"/><polygon class="cls-12" points="229.98 16.35 239.61 16.35 244.25 19.88 234.62 19.88 229.98 16.35"/><polygon class="cls-13" points="281.1 19.88 271.46 19.88 266.82 16.35 276.45 16.35 281.1 19.88"/><polygon class="cls-14" points="231.97 19.88 223.55 19.88 219.04 16.35 227.33 16.35 231.97 19.88"/><polygon class="cls-15" points="293.38 19.88 283.75 19.88 279.1 16.35 288.73 16.35 293.38 19.88"/><polygon class="cls-10" points="256.54 19.88 246.9 19.88 242.26 16.35 251.89 16.35 256.54 19.88"/><polygon class="cls-11" points="268.82 19.88 259.18 19.88 254.54 16.35 264.17 16.35 268.82 19.88"/><polygon class="cls-12" points="229.98 16.35 239.61 16.35 244.25 19.88 234.62 19.88 229.98 16.35"/><polygon class="cls-13" points="281.1 19.88 271.46 19.88 266.82 16.35 276.45 16.35 281.1 19.88"/><polygon class="cls-15" points="293.38 19.88 283.75 19.88 279.1 16.35 288.73 16.35 293.38 19.88"/><path class="cls-16" d="M447.15,126.29H5.41a.91.91,0,0,1-.91-.91V24.89A.91.91,0,0,1,5.41,24H478.76a.91.91,0,0,1,.91.91V93.76a.9.9,0,0,1-.26.64L447.79,126A.91.91,0,0,1,447.15,126.29ZM6.32,124.47H446.77l31.08-31.09V25.8H6.32Z"/><path id="SVGID-2" data-name="SVGID" class="cls-1" d="M455.43,130.39a.46.46,0,0,1-.32-.78l32-32V16.36H219.26a.46.46,0,1,1,0-.91H487.57a.46.46,0,0,1,.46.46V97.79a.45.45,0,0,1-.14.32l-32.14,32.14A.47.47,0,0,1,455.43,130.39Z"/><g class="cls-17"><rect class="cls-1" x="218.8" y="15.45" width="269.23" height="114.94"/><path class="cls-18" d="M249.92,72.92a214.14,214.14,0,0,1,8.13-59.15v.77H448.78v-.77a214.14,214.14,0,0,1,8.13,59.15,214.14,214.14,0,0,1-8.13,59.15v-.77H258.05v.77A214.14,214.14,0,0,1,249.92,72.92Z"/><path class="cls-19" d="M301.67,72.92c0-21,5.79-40,15.15-53.73a63,63,0,0,1,7.66-9.28v4.63h57.87V9.91A63.59,63.59,0,0,1,390,19.19c9.36,13.75,15.15,32.75,15.15,53.73s-5.79,40-15.15,53.73a64.13,64.13,0,0,1-7.66,9.28V131.3H324.48v4.63a63.48,63.48,0,0,1-7.66-9.28C307.46,112.9,301.67,93.9,301.67,72.92Z"/></g><path class="cls-20" d="M227.06,10.63h-6.68V.07h1.4V9.38h5.28Z"/><path class="cls-21" d="M235.11,6.67a4.47,4.47,0,0,1-1,3.06,3.73,3.73,0,0,1-5.33,0,4.47,4.47,0,0,1-1-3.06,4.47,4.47,0,0,1,1-3.06,3.73,3.73,0,0,1,5.33,0A4.47,4.47,0,0,1,235.11,6.67Zm-1.38,0a3.61,3.61,0,0,0-.6-2.28,2.26,2.26,0,0,0-3.36,0,3.61,3.61,0,0,0-.6,2.28,3.54,3.54,0,0,0,.61,2.26,2,2,0,0,0,1.68.77,2,2,0,0,0,1.67-.76A3.62,3.62,0,0,0,233.73,6.67Z"/><path class="cls-22" d="M242.12,4.16h-.07c-.2,0-.4-.08-.58-.1a6.45,6.45,0,0,0-.67,0,2.79,2.79,0,0,0-1.19.27,5.28,5.28,0,0,0-1.1.71v5.62h-1.34V2.71h1.34V3.88a6,6,0,0,1,1.4-.9,3,3,0,0,1,1.23-.27l.51,0,.47.06Z"/><path class="cls-23" d="M250,6.81h-5.83a3.28,3.28,0,0,0,.22,1.27A2.26,2.26,0,0,0,245,9a2.34,2.34,0,0,0,.88.51,3.27,3.27,0,0,0,1.11.17,4.34,4.34,0,0,0,1.63-.32,4.18,4.18,0,0,0,1.17-.63h.07v1.45a9.76,9.76,0,0,1-1.38.47,5.49,5.49,0,0,1-1.47.2,4.26,4.26,0,0,1-3.08-1.07,4,4,0,0,1-1.11-3,4.39,4.39,0,0,1,1.06-3.09,3.64,3.64,0,0,1,2.79-1.14,3.17,3.17,0,0,1,2.47.94A3.76,3.76,0,0,1,250,6.09Zm-1.29-1a2.45,2.45,0,0,0-.53-1.63,2.06,2.06,0,0,0-1.59-.57,2.3,2.3,0,0,0-1.7.63,2.38,2.38,0,0,0-.72,1.57Z"/><path class="cls-24" d="M263.59,10.63h-1.34V6.12c0-.34,0-.67,0-1a2,2,0,0,0-.2-.75,1,1,0,0,0-.47-.46,1.87,1.87,0,0,0-.88-.16,2.47,2.47,0,0,0-1.12.28,7.42,7.42,0,0,0-1.12.71,3.71,3.71,0,0,1,0,.38c0,.15,0,.29,0,.43v5.07h-1.33V6.12c0-.35,0-.68-.05-1a2,2,0,0,0-.19-.75,1.1,1.1,0,0,0-.47-.46,2,2,0,0,0-.88-.15,2.51,2.51,0,0,0-1.1.27,6.57,6.57,0,0,0-1.09.69v5.91H252V2.71h1.34v.88a5.47,5.47,0,0,1,1.24-.81,3.18,3.18,0,0,1,1.33-.29,2.6,2.6,0,0,1,1.37.34,2.19,2.19,0,0,1,.84.94,6.79,6.79,0,0,1,1.47-1,3.46,3.46,0,0,1,1.43-.3,2.31,2.31,0,0,1,1.93.79,3.52,3.52,0,0,1,.62,2.21Z"/><path class="cls-25" d="M272.69,1.38h-1.5V0h1.5Zm-.08,9.25h-1.34V2.71h1.34Z"/><path class="cls-26" d="M280.91,8.35a2.17,2.17,0,0,1-.9,1.78,3.94,3.94,0,0,1-2.45.69,5.88,5.88,0,0,1-1.62-.21,7.71,7.71,0,0,1-1.23-.45V8.66h.07a5.47,5.47,0,0,0,1.41.76,4.49,4.49,0,0,0,1.48.28,2.78,2.78,0,0,0,1.38-.29,1,1,0,0,0,.49-.89.91.91,0,0,0-.27-.71,2.37,2.37,0,0,0-1-.41c-.19-.05-.44-.09-.74-.15s-.59-.12-.84-.19a2.71,2.71,0,0,1-1.47-.81,1.94,1.94,0,0,1-.44-1.31A2.25,2.25,0,0,1,275,4a2.44,2.44,0,0,1,.61-.77,3.07,3.07,0,0,1,1-.53A4.45,4.45,0,0,1,278,2.52a6.42,6.42,0,0,1,1.43.17,5.82,5.82,0,0,1,1.21.42V4.54h-.07a5,5,0,0,0-1.24-.64,4.31,4.31,0,0,0-1.43-.25,2.5,2.5,0,0,0-1.24.28.89.89,0,0,0-.5.83.88.88,0,0,0,.31.74,2.36,2.36,0,0,0,1,.4l.83.17.76.16A2.74,2.74,0,0,1,280.4,7,1.9,1.9,0,0,1,280.91,8.35Z"/><path class="cls-27" d="M289.79,6.57a5.48,5.48,0,0,1-.28,1.77,4.06,4.06,0,0,1-.78,1.35,3.24,3.24,0,0,1-1.1.81,3.31,3.31,0,0,1-1.35.29,4.35,4.35,0,0,1-1.12-.14,4.52,4.52,0,0,1-1-.42v3.32h-1.34V2.71h1.34v.83a5,5,0,0,1,1.19-.75,3.41,3.41,0,0,1,1.42-.3A2.62,2.62,0,0,1,289,3.57,5,5,0,0,1,289.79,6.57Zm-1.38,0a3.76,3.76,0,0,0-.49-2.14,1.71,1.71,0,0,0-1.5-.71,2.85,2.85,0,0,0-1.16.25,4.81,4.81,0,0,0-1.11.65V9.15a5.06,5.06,0,0,0,1,.35,4.31,4.31,0,0,0,.93.09,2.12,2.12,0,0,0,1.73-.75A3.41,3.41,0,0,0,288.41,6.61Z"/><path class="cls-28" d="M298.43,10.63H297.1V9.75a6.38,6.38,0,0,1-1.29.82,3.23,3.23,0,0,1-1.37.28,2.48,2.48,0,0,1-1.94-.76,3.25,3.25,0,0,1-.69-2.24V2.71h1.33V7.22a7.52,7.52,0,0,0,.06,1,1.7,1.7,0,0,0,.24.74,1.17,1.17,0,0,0,.49.45,2.29,2.29,0,0,0,.89.14A2.81,2.81,0,0,0,296,9.31a5.4,5.4,0,0,0,1.15-.69V2.71h1.33Z"/><path class="cls-29" d="M312.62,10.63h-1.34V6.12c0-.34,0-.67,0-1a2,2,0,0,0-.2-.75,1,1,0,0,0-.47-.46,1.87,1.87,0,0,0-.88-.16,2.47,2.47,0,0,0-1.12.28,7.42,7.42,0,0,0-1.12.71,3.71,3.71,0,0,1,0,.38c0,.15,0,.29,0,.43v5.07h-1.33V6.12c0-.35,0-.68-.05-1a2,2,0,0,0-.19-.75,1.1,1.1,0,0,0-.47-.46,2,2,0,0,0-.88-.15,2.51,2.51,0,0,0-1.1.27,6.57,6.57,0,0,0-1.09.69v5.91h-1.34V2.71h1.34v.88a5.47,5.47,0,0,1,1.24-.81A3.18,3.18,0,0,1,305,2.49a2.6,2.6,0,0,1,1.37.34,2.19,2.19,0,0,1,.84.94,6.79,6.79,0,0,1,1.47-1,3.46,3.46,0,0,1,1.43-.3,2.31,2.31,0,0,1,1.93.79,3.52,3.52,0,0,1,.62,2.21Z"/><polygon class="cls-30" points="5.41 98.8 11.5 90.68 11.5 30.45 82.56 30.45 93.39 24.36 5.41 24.89 5.41 98.8"/><polygon class="cls-31" points="472.01 24.7 472.01 90.68 444.6 118.6 354.26 118.6 346.65 125.19 447.14 125.19 478.76 93.76 478.76 24.89 472.01 24.7"/><polygon class="cls-32" points="4.4 87.64 2.37 82.56 2.37 45.34 0 39.59 0 18.95 27.75 18.95 24.7 21.66 79.51 21.66 77.82 24.36 4.4 24.36 4.4 87.64"/></g></g></svg>