<svg xmlns="http://www.w3.org/2000/svg" xmlns:xlink="http://www.w3.org/1999/xlink" viewBox="0 0 487.15 152.92"><defs><style>.cls-1{mask:url(#mask);filter:url(#luminosity-noclip-6);}.cls-10,.cls-2,.cls-4,.cls-6,.cls-8{mix-blend-mode:multiply;}.cls-2{fill:url(#Безымянный_градиент_109);}.cls-3{mask:url(#mask-2);filter:url(#luminosity-noclip-7);}.cls-4{fill:url(#Безымянный_градиент_110);}.cls-5{mask:url(#mask-3);filter:url(#luminosity-noclip-8);}.cls-6{fill:url(#Безымянный_градиент_110-2);}.cls-7{mask:url(#mask-4);filter:url(#luminosity-noclip-9);}.cls-8{fill:url(#Безымянный_градиент_110-3);}.cls-9{mask:url(#mask-5);filter:url(#luminosity-noclip-10);}.cls-10{fill:url(#Безымянный_градиент_109-2);}.cls-11{fill:url(#New_Gradient_Swatch_2);}.cls-12{fill:url(#New_Gradient_Swatch_2-2);}.cls-13{fill:url(#New_Gradient_Swatch_2-3);}.cls-14{fill:url(#New_Gradient_Swatch_2-4);}.cls-15{fill:url(#New_Gradient_Swatch_2-5);}.cls-16{fill:url(#New_Gradient_Swatch_2-6);}.cls-17{fill:url(#New_Gradient_Swatch_2-7);}.cls-18{fill:url(#New_Gradient_Swatch_2-8);}.cls-19{fill:url(#New_Gradient_Swatch_2-9);}.cls-20{fill:url(#New_Gradient_Swatch_2-10);}.cls-21,.cls-35{opacity:0.2;}.cls-21{fill:url(#New_Gradient_Swatch_2-11);}.cls-22{fill:url(#New_Gradient_Swatch_2-12);}.cls-23{fill:url(#New_Gradient_Swatch_2-13);}.cls-24{fill:url(#New_Gradient_Swatch_2-14);}.cls-25{fill:url(#New_Gradient_Swatch_2-15);}.cls-26{fill:url(#New_Gradient_Swatch_2-16);}.cls-27{fill:url(#New_Gradient_Swatch_2-17);}.cls-28{opacity:0.9;fill:url(#New_Gradient_Swatch_2-18);}.cls-29{opacity:0.8;fill:url(#New_Gradient_Swatch_2-19);}.cls-30{opacity:0.7;fill:url(#New_Gradient_Swatch_2-20);}.cls-31{opacity:0.6;fill:url(#New_Gradient_Swatch_2-21);}.cls-32{opacity:0.5;fill:url(#New_Gradient_Swatch_2-22);}.cls-33{opacity:0.4;fill:url(#New_Gradient_Swatch_2-23);}.cls-34{opacity:0.3;fill:url(#New_Gradient_Swatch_2-24);}.cls-35{fill:url(#New_Gradient_Swatch_2-25);}.cls-36{opacity:0.1;fill:url(#New_Gradient_Swatch_2-26);}.cls-37{opacity:0.05;fill:url(#New_Gradient_Swatch_2-27);}.cls-38{fill:url(#New_Gradient_Swatch_2-28);}.cls-39{fill:url(#New_Gradient_Swatch_2-29);}.cls-40{fill:url(#New_Gradient_Swatch_2-30);}.cls-41{fill:url(#New_Gradient_Swatch_2-31);}.cls-42{fill:url(#New_Gradient_Swatch_2-32);}.cls-43{fill:url(#New_Gradient_Swatch_2-33);}.cls-44{mask:url(#mask-6);}.cls-45{fill:url(#New_Gradient_Swatch_2-34);}.cls-46{mask:url(#mask-7);}.cls-47{fill:url(#New_Gradient_Swatch_2-35);}.cls-48{mask:url(#mask-8);}.cls-49{fill:url(#New_Gradient_Swatch_2-36);}.cls-50{mask:url(#mask-9);}.cls-51{fill:url(#New_Gradient_Swatch_2-37);}.cls-52{mask:url(#mask-10);}.cls-53{fill:url(#New_Gradient_Swatch_2-38);}.cls-54{filter:url(#luminosity-noclip-5);}.cls-55{filter:url(#luminosity-noclip-4);}.cls-56{filter:url(#luminosity-noclip-3);}.cls-57{filter:url(#luminosity-noclip-2);}.cls-58{filter:url(#luminosity-noclip);}</style><filter id="luminosity-noclip" x="240.1" y="-8272.7" width="56.67" height="32766" filterUnits="userSpaceOnUse" color-interpolation-filters="sRGB"><feFlood flood-color="#fff" result="bg"/><feBlend in="SourceGraphic" in2="bg"/></filter><mask id="mask" x="240.1" y="-8272.7" width="56.67" height="32766" maskUnits="userSpaceOnUse"><g class="cls-58"/></mask><linearGradient id="Безымянный_градиент_109" x1="240.1" y1="142.61" x2="296.77" y2="142.61" gradientUnits="userSpaceOnUse"><stop offset="0" stop-color="#fff"/><stop offset="0.07" stop-color="#d8d8d8"/><stop offset="0.16" stop-color="#a6a6a6"/><stop offset="0.26" stop-color="#797979"/><stop offset="0.37" stop-color="#545454"/><stop offset="0.47" stop-color="#353535"/><stop offset="0.58" stop-color="#1e1e1e"/><stop offset="0.7" stop-color="#0d0d0d"/><stop offset="0.83" stop-color="#030303"/><stop offset="1"/></linearGradient><filter id="luminosity-noclip-2" x="143.16" y="-8272.7" width="95.94" height="32766" filterUnits="userSpaceOnUse" color-interpolation-filters="sRGB"><feFlood flood-color="#fff" result="bg"/><feBlend in="SourceGraphic" in2="bg"/></filter><mask id="mask-2" x="143.16" y="-8272.7" width="95.94" height="32766" maskUnits="userSpaceOnUse"><g class="cls-57"/></mask><linearGradient id="Безымянный_градиент_110" x1="143.16" y1="130.92" x2="239.1" y2="130.92" gradientUnits="userSpaceOnUse"><stop offset="0"/><stop offset="0.01" stop-color="#030303"/><stop offset="0.7" stop-color="#b7b7b7"/><stop offset="1" stop-color="#fff"/></linearGradient><filter id="luminosity-noclip-3" x="55.18" y="-8272.7" width="69.59" height="32766" filterUnits="userSpaceOnUse" color-interpolation-filters="sRGB"><feFlood flood-color="#fff" result="bg"/><feBlend in="SourceGraphic" in2="bg"/></filter><mask id="mask-3" x="55.18" y="-8272.7" width="69.59" height="32766" maskUnits="userSpaceOnUse"><g class="cls-56"/></mask><linearGradient id="Безымянный_градиент_110-2" x1="-2402.62" y1="-1619.08" x2="-2333.02" y2="-1619.08" gradientTransform="translate(-2277.85 -1497.11) rotate(180)" xlink:href="#Безымянный_градиент_110"/><filter id="luminosity-noclip-4" x="358.9" y="-8272.7" width="69.59" height="32766" filterUnits="userSpaceOnUse" color-interpolation-filters="sRGB"><feFlood flood-color="#fff" result="bg"/><feBlend in="SourceGraphic" in2="bg"/></filter><mask id="mask-4" x="358.9" y="-8272.7" width="69.59" height="32766" maskUnits="userSpaceOnUse"><g class="cls-55"/></mask><linearGradient id="Безымянный_градиент_110-3" x1="-206.1" y1="-1619.08" x2="-136.5" y2="-1619.08" gradientTransform="matrix(1, 0, 0, -1, 565, -1497.11)" xlink:href="#Безымянный_градиент_110"/><filter id="luminosity-noclip-5" x="196.6" y="-8272.7" width="229.41" height="32766" filterUnits="userSpaceOnUse" color-interpolation-filters="sRGB"><feFlood flood-color="#fff" result="bg"/><feBlend in="SourceGraphic" in2="bg"/></filter><mask id="mask-5" x="196.6" y="-8272.7" width="229.41" height="32766" maskUnits="userSpaceOnUse"><g class="cls-54"/></mask><linearGradient id="Безымянный_градиент_109-2" x1="195.86" y1="13.36" x2="426.01" y2="13.36" xlink:href="#Безымянный_градиент_109"/><linearGradient id="New_Gradient_Swatch_2" x1="60.92" y1="7.39" x2="70.15" y2="7.39" gradientUnits="userSpaceOnUse"><stop offset="0" stop-color="#9541de"/><stop offset="1" stop-color="#3ab2c0"/></linearGradient><linearGradient id="New_Gradient_Swatch_2-2" x1="71.17" y1="9.21" x2="81.27" y2="9.21" xlink:href="#New_Gradient_Swatch_2"/><linearGradient id="New_Gradient_Swatch_2-3" x1="84.12" y1="9.21" x2="90.95" y2="9.21" xlink:href="#New_Gradient_Swatch_2"/><linearGradient id="New_Gradient_Swatch_2-4" x1="91.91" y1="9.19" x2="101.85" y2="9.19" xlink:href="#New_Gradient_Swatch_2"/><linearGradient id="New_Gradient_Swatch_2-5" x1="104.64" y1="9.06" x2="120.61" y2="9.06" xlink:href="#New_Gradient_Swatch_2"/><linearGradient id="New_Gradient_Swatch_2-6" x1="131.12" y1="7.34" x2="133.19" y2="7.34" xlink:href="#New_Gradient_Swatch_2"/><linearGradient id="New_Gradient_Swatch_2-7" x1="135.98" y1="9.21" x2="144.54" y2="9.21" xlink:href="#New_Gradient_Swatch_2"/><linearGradient id="New_Gradient_Swatch_2-8" x1="147.17" y1="11.08" x2="156.81" y2="11.08" xlink:href="#New_Gradient_Swatch_2"/><linearGradient id="New_Gradient_Swatch_2-9" x1="159.6" y1="9.37" x2="168.75" y2="9.37" xlink:href="#New_Gradient_Swatch_2"/><linearGradient id="New_Gradient_Swatch_2-10" x1="172.37" y1="9.06" x2="188.34" y2="9.06" xlink:href="#New_Gradient_Swatch_2"/><linearGradient id="New_Gradient_Swatch_2-11" x1="34.13" y1="68.65" x2="449.37" y2="68.65" xlink:href="#New_Gradient_Swatch_2"/><linearGradient id="New_Gradient_Swatch_2-12" x1="33.39" y1="68.65" x2="450.12" y2="68.65" xlink:href="#New_Gradient_Swatch_2"/><linearGradient id="New_Gradient_Swatch_2-13" x1="17.23" y1="68.65" x2="53.02" y2="68.65" xlink:href="#New_Gradient_Swatch_2"/><linearGradient id="New_Gradient_Swatch_2-14" x1="430.82" y1="68.65" x2="466.61" y2="68.65" xlink:href="#New_Gradient_Swatch_2"/><linearGradient id="New_Gradient_Swatch_2-15" x1="5.22" y1="113.77" x2="243.99" y2="113.77" xlink:href="#New_Gradient_Swatch_2"/><linearGradient id="New_Gradient_Swatch_2-16" x1="0" y1="86.93" x2="11.93" y2="86.93" xlink:href="#New_Gradient_Swatch_2"/><linearGradient id="New_Gradient_Swatch_2-17" x1="41.26" y1="35.98" x2="48.72" y2="35.98" xlink:href="#New_Gradient_Swatch_2"/><linearGradient id="New_Gradient_Swatch_2-18" x1="50.58" y1="35.98" x2="58.04" y2="35.98" xlink:href="#New_Gradient_Swatch_2"/><linearGradient id="New_Gradient_Swatch_2-19" x1="59.9" y1="35.98" x2="67.36" y2="35.98" xlink:href="#New_Gradient_Swatch_2"/><linearGradient id="New_Gradient_Swatch_2-20" x1="69.22" y1="35.98" x2="76.68" y2="35.98" xlink:href="#New_Gradient_Swatch_2"/><linearGradient id="New_Gradient_Swatch_2-21" x1="78.54" y1="35.98" x2="86" y2="35.98" xlink:href="#New_Gradient_Swatch_2"/><linearGradient id="New_Gradient_Swatch_2-22" x1="87.86" y1="35.98" x2="95.32" y2="35.98" xlink:href="#New_Gradient_Swatch_2"/><linearGradient id="New_Gradient_Swatch_2-23" x1="97.18" y1="35.98" x2="104.64" y2="35.98" xlink:href="#New_Gradient_Swatch_2"/><linearGradient id="New_Gradient_Swatch_2-24" x1="106.5" y1="35.98" x2="113.96" y2="35.98" xlink:href="#New_Gradient_Swatch_2"/><linearGradient id="New_Gradient_Swatch_2-25" x1="115.82" y1="35.98" x2="123.28" y2="35.98" xlink:href="#New_Gradient_Swatch_2"/><linearGradient id="New_Gradient_Swatch_2-26" x1="125.14" y1="35.98" x2="132.6" y2="35.98" xlink:href="#New_Gradient_Swatch_2"/><linearGradient id="New_Gradient_Swatch_2-27" x1="134.46" y1="35.98" x2="141.92" y2="35.98" xlink:href="#New_Gradient_Swatch_2"/><linearGradient id="New_Gradient_Swatch_2-28" x1="475.22" y1="45.84" x2="487.15" y2="45.84" xlink:href="#New_Gradient_Swatch_2"/><linearGradient id="New_Gradient_Swatch_2-29" x1="243.53" y1="93.89" x2="481.56" y2="93.89" xlink:href="#New_Gradient_Swatch_2"/><linearGradient id="New_Gradient_Swatch_2-30" x1="235.58" y1="147.1" x2="301.94" y2="147.1" xlink:href="#New_Gradient_Swatch_2"/><linearGradient id="New_Gradient_Swatch_2-31" x1="299.58" y1="140.62" x2="303.56" y2="140.62" xlink:href="#New_Gradient_Swatch_2"/><linearGradient id="New_Gradient_Swatch_2-32" x1="133.22" y1="133.16" x2="137.2" y2="133.16" xlink:href="#New_Gradient_Swatch_2"/><linearGradient id="New_Gradient_Swatch_2-33" x1="134.84" y1="127.18" x2="243.91" y2="127.18" xlink:href="#New_Gradient_Swatch_2"/><filter id="luminosity-noclip-6" x="240.1" y="136.14" width="56.67" height="12.92" filterUnits="userSpaceOnUse" color-interpolation-filters="sRGB"><feFlood flood-color="#fff" result="bg"/><feBlend in="SourceGraphic" in2="bg"/></filter><mask id="mask-6" x="240.1" y="136.14" width="56.67" height="12.92" maskUnits="userSpaceOnUse"><g class="cls-1"><polygon class="cls-2" points="248.05 136.14 248.05 143.1 240.1 143.1 240.1 149.07 296.77 149.07 296.77 144.1 248.05 136.14"/></g></mask><linearGradient id="New_Gradient_Swatch_2-34" x1="240.1" y1="142.61" x2="296.77" y2="142.61" xlink:href="#New_Gradient_Swatch_2"/><filter id="luminosity-noclip-7" x="143.16" y="127.69" width="95.94" height="6.46" filterUnits="userSpaceOnUse" color-interpolation-filters="sRGB"><feFlood flood-color="#fff" result="bg"/><feBlend in="SourceGraphic" in2="bg"/></filter><mask id="mask-7" x="143.16" y="127.69" width="95.94" height="6.46" maskUnits="userSpaceOnUse"><g class="cls-3"><rect class="cls-4" x="143.16" y="127.69" width="95.94" height="6.46"/></g></mask><linearGradient id="New_Gradient_Swatch_2-35" x1="143.16" y1="130.92" x2="239.1" y2="130.92" xlink:href="#New_Gradient_Swatch_2"/><filter id="luminosity-noclip-8" x="55.18" y="118.02" width="69.59" height="7.92" filterUnits="userSpaceOnUse" color-interpolation-filters="sRGB"><feFlood flood-color="#fff" result="bg"/><feBlend in="SourceGraphic" in2="bg"/></filter><mask id="mask-8" x="55.18" y="118.02" width="69.59" height="7.92" maskUnits="userSpaceOnUse"><g class="cls-5"><polygon class="cls-6" points="59.15 118.02 124.77 118.02 124.77 125.94 55.18 125.94 59.15 118.02"/></g></mask><linearGradient id="New_Gradient_Swatch_2-36" x1="55.18" y1="121.98" x2="124.77" y2="121.98" xlink:href="#New_Gradient_Swatch_2"/><filter id="luminosity-noclip-9" x="358.9" y="118.02" width="69.59" height="7.92" filterUnits="userSpaceOnUse" color-interpolation-filters="sRGB"><feFlood flood-color="#fff" result="bg"/><feBlend in="SourceGraphic" in2="bg"/></filter><mask id="mask-9" x="358.9" y="118.02" width="69.59" height="7.92" maskUnits="userSpaceOnUse"><g class="cls-7"><polygon class="cls-8" points="424.52 118.02 358.9 118.02 358.9 125.94 428.5 125.94 424.52 118.02"/></g></mask><linearGradient id="New_Gradient_Swatch_2-37" x1="358.9" y1="121.98" x2="428.5" y2="121.98" xlink:href="#New_Gradient_Swatch_2"/><filter id="luminosity-noclip-10" x="196.6" y="11.51" width="229.41" height="3.7" filterUnits="userSpaceOnUse" color-interpolation-filters="sRGB"><feFlood flood-color="#fff" result="bg"/><feBlend in="SourceGraphic" in2="bg"/></filter><mask id="mask-10" x="196.6" y="11.51" width="229.41" height="3.7" maskUnits="userSpaceOnUse"><g class="cls-9"><polygon class="cls-10" points="196.6 11.51 198.34 15.21 419.05 15.21 426.01 12.04 196.6 11.51"/></g></mask><linearGradient id="New_Gradient_Swatch_2-38" x1="196.6" y1="13.36" x2="426.01" y2="13.36" xlink:href="#New_Gradient_Swatch_2"/></defs><title>menu_10_purple_blue</title><g id="Layer_2" data-name="Layer 2"><g id="Layer_1-2" data-name="Layer 1"><path class="cls-11" d="M70.15,14.69H60.92V.1h1.94V13h7.29Z"/><path class="cls-12" d="M81.27,9.22a6.11,6.11,0,0,1-1.37,4.22,5.14,5.14,0,0,1-7.36,0,6.16,6.16,0,0,1-1.37-4.22A6.2,6.2,0,0,1,72.54,5,5.14,5.14,0,0,1,79.9,5,6.15,6.15,0,0,1,81.27,9.22Zm-1.9,0a5,5,0,0,0-.83-3.16,3.13,3.13,0,0,0-4.64,0,5,5,0,0,0-.83,3.16,5,5,0,0,0,.84,3.12,3.07,3.07,0,0,0,4.63,0A5,5,0,0,0,79.37,9.22Z"/><path class="cls-13" d="M91,5.75h-.09c-.28-.06-.54-.11-.8-.14a8.09,8.09,0,0,0-.92-.05,3.75,3.75,0,0,0-1.64.38,7.47,7.47,0,0,0-1.53,1v7.77H84.12V3.74H86V5.36A9.07,9.07,0,0,1,87.9,4.11a4.32,4.32,0,0,1,1.71-.37,5.81,5.81,0,0,1,.7,0c.14,0,.36,0,.64.09Z"/><path class="cls-14" d="M101.85,9.41H93.79a4.68,4.68,0,0,0,.3,1.75,3.3,3.3,0,0,0,.83,1.23,3.34,3.34,0,0,0,1.21.71,4.76,4.76,0,0,0,1.55.23,6,6,0,0,0,2.24-.44,5.53,5.53,0,0,0,1.62-.88h.09v2a15.8,15.8,0,0,1-1.9.66,7.9,7.9,0,0,1-2,.26,5.9,5.9,0,0,1-4.26-1.47,5.56,5.56,0,0,1-1.53-4.19A6,6,0,0,1,93.38,5a5,5,0,0,1,3.85-1.58,4.44,4.44,0,0,1,3.42,1.29,5.21,5.21,0,0,1,1.2,3.68ZM100.06,8a3.29,3.29,0,0,0-.73-2.25A2.81,2.81,0,0,0,97.14,5a3.19,3.19,0,0,0-2.36.87,3.35,3.35,0,0,0-1,2.17Z"/><path class="cls-15" d="M120.61,14.69h-1.84V8.46c0-.47,0-.93-.06-1.37a3.19,3.19,0,0,0-.27-1,1.44,1.44,0,0,0-.65-.64,2.64,2.64,0,0,0-1.21-.22,3.39,3.39,0,0,0-1.55.39,10.21,10.21,0,0,0-1.55,1c0,.15,0,.33,0,.53s0,.4,0,.59v7h-1.84V8.46c0-.49,0-1-.07-1.38a2.71,2.71,0,0,0-.27-1,1.42,1.42,0,0,0-.64-.64,2.82,2.82,0,0,0-1.22-.21,3.5,3.5,0,0,0-1.51.37,9.11,9.11,0,0,0-1.52,1v8.17h-1.84V3.74h1.84V5a8.25,8.25,0,0,1,1.72-1.12,4.22,4.22,0,0,1,1.83-.4,3.64,3.64,0,0,1,1.9.47,2.93,2.93,0,0,1,1.16,1.3,8.81,8.81,0,0,1,2-1.35,4.66,4.66,0,0,1,2-.42,3.19,3.19,0,0,1,2.67,1.09,4.85,4.85,0,0,1,.85,3.05Z"/><path class="cls-16" d="M133.19,1.91h-2.07V0h2.07Zm-.11,12.78h-1.85V3.74h1.85Z"/><path class="cls-17" d="M144.54,11.53A3,3,0,0,1,143.3,14a5.42,5.42,0,0,1-3.39,1,8.12,8.12,0,0,1-2.22-.29A9.71,9.71,0,0,1,136,14V12h.1A7.41,7.41,0,0,0,138,13a6.2,6.2,0,0,0,2,.38A3.87,3.87,0,0,0,142,13a1.31,1.31,0,0,0,.69-1.23,1.27,1.27,0,0,0-.37-1,3.46,3.46,0,0,0-1.44-.57l-1-.21c-.42-.08-.8-.16-1.15-.25a3.87,3.87,0,0,1-2-1.12A2.76,2.76,0,0,1,136,6.82a3,3,0,0,1,.28-1.27,3.08,3.08,0,0,1,.85-1.07,4,4,0,0,1,1.4-.73,6.16,6.16,0,0,1,1.89-.27,8.52,8.52,0,0,1,2,.24,7.51,7.51,0,0,1,1.67.58v2H144a6.45,6.45,0,0,0-1.72-.88,6.07,6.07,0,0,0-2-.35,3.54,3.54,0,0,0-1.71.38,1.24,1.24,0,0,0-.69,1.15,1.24,1.24,0,0,0,.42,1,3.2,3.2,0,0,0,1.33.56l1.14.24,1.05.21a3.88,3.88,0,0,1,2,1A2.65,2.65,0,0,1,144.54,11.53Z"/><path class="cls-18" d="M156.81,9.08a7.3,7.3,0,0,1-.39,2.44,5.31,5.31,0,0,1-1.07,1.86,4.58,4.58,0,0,1-1.53,1.13,4.48,4.48,0,0,1-1.85.39,6.17,6.17,0,0,1-1.55-.18,6.6,6.6,0,0,1-1.4-.58v4.58h-1.85v-15H149V4.89a7,7,0,0,1,1.65-1,4.62,4.62,0,0,1,2-.42,3.61,3.61,0,0,1,3.08,1.49A6.84,6.84,0,0,1,156.81,9.08Zm-1.91.05a5.27,5.27,0,0,0-.67-3,2.36,2.36,0,0,0-2.08-1,4.06,4.06,0,0,0-1.6.35,6.67,6.67,0,0,0-1.53.9v6.2a8.25,8.25,0,0,0,1.34.48,6.22,6.22,0,0,0,1.28.13,2.94,2.94,0,0,0,2.4-1A4.7,4.7,0,0,0,154.9,9.13Z"/><path class="cls-19" d="M168.75,14.69h-1.84V13.47a8.9,8.9,0,0,1-1.79,1.13,4.42,4.42,0,0,1-1.88.39,3.44,3.44,0,0,1-2.68-1.05,4.45,4.45,0,0,1-1-3.09V3.74h1.84V10a11.55,11.55,0,0,0,.08,1.43,2.56,2.56,0,0,0,.33,1,1.6,1.6,0,0,0,.69.63,3,3,0,0,0,1.22.2,3.86,3.86,0,0,0,1.56-.38,6.77,6.77,0,0,0,1.59-.95V3.74h1.84Z"/><path class="cls-20" d="M188.34,14.69H186.5V8.46c0-.47,0-.93-.06-1.37a2.76,2.76,0,0,0-.27-1,1.44,1.44,0,0,0-.65-.64,2.61,2.61,0,0,0-1.21-.22,3.42,3.42,0,0,0-1.55.39,10.21,10.21,0,0,0-1.55,1c0,.15,0,.33,0,.53s0,.4,0,.59v7h-1.84V8.46a12,12,0,0,0-.07-1.38,2.92,2.92,0,0,0-.26-1,1.44,1.44,0,0,0-.65-.64,2.82,2.82,0,0,0-1.22-.21,3.53,3.53,0,0,0-1.51.37,8.66,8.66,0,0,0-1.51,1v8.17h-1.85V3.74h1.85V5a7.76,7.76,0,0,1,1.72-1.12,4.2,4.2,0,0,1,1.82-.4,3.64,3.64,0,0,1,1.9.47,2.87,2.87,0,0,1,1.16,1.3,8.81,8.81,0,0,1,2-1.35,4.68,4.68,0,0,1,2-.42,3.17,3.17,0,0,1,2.66,1.09,4.85,4.85,0,0,1,.85,3.05Z"/><rect class="cls-21" x="34.13" y="26.73" width="415.24" height="83.84"/><path class="cls-22" d="M449.37,111.32H34.13a.75.75,0,0,1-.74-.75V26.73a.75.75,0,0,1,.74-.75H449.37a.75.75,0,0,1,.75.75v83.84A.75.75,0,0,1,449.37,111.32Zm-414.49-1.5H448.63V27.47H34.88Z"/><polygon class="cls-23" points="52.36 15.29 23.2 15.29 23.2 118.03 53.02 118.03 49.05 125.98 17.23 125.98 17.23 11.32 48.38 11.32 52.36 15.29"/><polygon class="cls-24" points="431.48 15.29 460.64 15.29 460.64 118.03 430.82 118.03 434.79 125.98 466.61 125.98 466.61 11.32 435.46 11.32 431.48 15.29"/><path class="cls-25" d="M243.25,140.7H6a.74.74,0,0,1-.75-.74V87.59a.75.75,0,0,1,1.49,0v51.62H242.5V112.12a.75.75,0,1,1,1.49,0V140A.74.74,0,0,1,243.25,140.7Z"/><circle class="cls-26" cx="5.97" cy="86.93" r="5.97"/><circle class="cls-27" cx="44.99" cy="35.98" r="3.73"/><circle class="cls-28" cx="54.31" cy="35.98" r="3.73"/><circle class="cls-29" cx="63.63" cy="35.98" r="3.73"/><circle class="cls-30" cx="72.95" cy="35.98" r="3.73"/><circle class="cls-31" cx="82.27" cy="35.98" r="3.73"/><circle class="cls-32" cx="91.59" cy="35.98" r="3.73"/><circle class="cls-33" cx="100.91" cy="35.98" r="3.73"/><circle class="cls-34" cx="110.23" cy="35.98" r="3.73"/><circle class="cls-35" cx="119.55" cy="35.98" r="3.73"/><circle class="cls-36" cx="128.87" cy="35.98" r="3.73"/><circle class="cls-37" cx="138.19" cy="35.98" r="3.73"/><path class="cls-38" d="M487.15,45.84a6,6,0,1,1-6-6A6,6,0,0,1,487.15,45.84Z"/><path class="cls-39" d="M481.19,140.33H310.85a.37.37,0,0,1-.37-.37V133H243.91a.38.38,0,1,1,0-.75h66.94a.37.37,0,0,1,.37.37v6.92h169.6V47.83a.37.37,0,0,1,.37-.38.38.38,0,0,1,.37.38V140A.38.38,0,0,1,481.19,140.33Z"/><polygon class="cls-40" points="301.94 152.92 235.58 152.92 235.58 141.28 236.33 141.28 236.33 152.18 301.2 152.18 301.2 141.94 301.94 141.94 301.94 152.92"/><path class="cls-41" d="M303.56,140.62a2,2,0,1,1-2-2A2,2,0,0,1,303.56,140.62Z"/><path class="cls-42" d="M137.2,133.16a2,2,0,1,1-2-2A2,2,0,0,1,137.2,133.16Z"/><polygon class="cls-43" points="135.58 131.34 134.84 131.34 134.84 123.01 243.91 123.01 243.91 123.76 135.58 123.76 135.58 131.34"/><g class="cls-44"><polygon class="cls-45" points="248.05 136.14 248.05 143.1 240.1 143.1 240.1 149.07 296.77 149.07 296.77 144.1 248.05 136.14"/></g><g class="cls-46"><rect class="cls-47" x="143.16" y="127.69" width="95.94" height="6.46"/></g><g class="cls-48"><polygon class="cls-49" points="59.15 118.02 124.77 118.02 124.77 125.94 55.18 125.94 59.15 118.02"/></g><g class="cls-50"><polygon class="cls-51" points="424.52 118.02 358.9 118.02 358.9 125.94 428.5 125.94 424.52 118.02"/></g><g class="cls-52"><polygon class="cls-53" points="196.6 11.51 198.34 15.21 419.05 15.21 426.01 12.04 196.6 11.51"/></g></g></g></svg>