<svg xmlns="http://www.w3.org/2000/svg" xmlns:xlink="http://www.w3.org/1999/xlink" viewBox="0 0 495.64 255.74"><defs><style>.cls-1,.cls-2,.cls-3,.cls-4,.cls-5,.cls-6,.cls-7,.cls-8{fill:#11e5b3;}.cls-2{opacity:0.2;}.cls-3{opacity:0.7;}.cls-4{opacity:0.6;}.cls-5{opacity:0.8;}.cls-6{opacity:0.5;}.cls-7{opacity:0.3;}.cls-8{opacity:0.4;}.cls-9{clip-path:url(#clip-path);}</style><clipPath id="clip-path"><path id="SVGID" class="cls-1" d="M462.53,239.21a.46.46,0,0,1-.33-.13.47.47,0,0,1,0-.66l32.51-32.51V16.62h-272a.47.47,0,0,1,0-.93h272.5a.47.47,0,0,1,.47.46v190a.44.44,0,0,1-.14.33l-32.64,32.65A.46.46,0,0,1,462.53,239.21Z"/></clipPath></defs><title>menu_19_green</title><g id="Layer_2" data-name="Layer 2"><g id="Layer_1-2" data-name="Layer 1"><polygon class="cls-2" points="486.23 25.28 5.5 25.28 5.5 234.12 454.12 234.12 486.23 202.01 486.23 25.28"/><polygon class="cls-3" points="117.92 255.74 142.28 255.74 154.03 239.99 129.67 239.99 117.92 255.74"/><polygon class="cls-4" points="86.87 255.74 111.23 255.74 122.97 239.99 98.62 239.99 86.87 255.74"/><polygon class="cls-5" points="185.08 239.99 160.73 239.99 148.98 255.74 173.34 255.74 185.08 239.99"/><polygon class="cls-6" points="55.82 255.74 80.17 255.74 91.92 239.99 67.56 239.99 55.82 255.74"/><polygon class="cls-7" points="4.47 239.99 4.47 255.74 18.06 255.74 29.81 239.99 4.47 239.99"/><polygon class="cls-1" points="180.03 255.74 201.35 255.74 212.74 239.99 191.78 239.99 180.03 255.74"/><polygon class="cls-8" points="24.76 255.74 49.12 255.74 60.87 239.99 36.51 239.99 24.76 255.74"/><polygon class="cls-3" points="117.92 255.74 142.28 255.74 154.03 239.99 129.67 239.99 117.92 255.74"/><polygon class="cls-4" points="86.87 255.74 111.23 255.74 122.97 239.99 98.62 239.99 86.87 255.74"/><polygon class="cls-5" points="185.08 239.99 160.73 239.99 148.98 255.74 173.34 255.74 185.08 239.99"/><polygon class="cls-6" points="55.82 255.74 80.17 255.74 91.92 239.99 67.56 239.99 55.82 255.74"/><polygon class="cls-7" points="4.47 239.99 4.47 255.74 18.06 255.74 29.81 239.99 4.47 239.99"/><polygon class="cls-8" points="24.76 255.74 49.12 255.74 60.87 239.99 36.51 239.99 24.76 255.74"/><polygon class="cls-3" points="260.54 20.19 250.75 20.19 246.04 16.61 255.82 16.61 260.54 20.19"/><polygon class="cls-4" points="273.01 20.19 263.23 20.19 258.51 16.61 268.29 16.61 273.01 20.19"/><polygon class="cls-5" points="233.56 16.61 243.35 16.61 248.06 20.19 238.28 20.19 233.56 16.61"/><polygon class="cls-6" points="285.48 20.19 275.7 20.19 270.98 16.61 280.76 16.61 285.48 20.19"/><polygon class="cls-1" points="235.59 20.19 227.03 20.19 222.46 16.61 230.87 16.61 235.59 20.19"/><polygon class="cls-8" points="297.95 20.19 288.17 20.19 283.45 16.61 293.23 16.61 297.95 20.19"/><polygon class="cls-3" points="260.54 20.19 250.75 20.19 246.04 16.61 255.82 16.61 260.54 20.19"/><polygon class="cls-4" points="273.01 20.19 263.23 20.19 258.51 16.61 268.29 16.61 273.01 20.19"/><polygon class="cls-5" points="233.56 16.61 243.35 16.61 248.06 20.19 238.28 20.19 233.56 16.61"/><polygon class="cls-6" points="285.48 20.19 275.7 20.19 270.98 16.61 280.76 16.61 285.48 20.19"/><polygon class="cls-8" points="297.95 20.19 288.17 20.19 283.45 16.61 293.23 16.61 297.95 20.19"/><path class="cls-1" d="M454.12,235.05H5.5a.93.93,0,0,1-.93-.93V25.28a.93.93,0,0,1,.93-.93H486.23a.93.93,0,0,1,.92.93V202a1,1,0,0,1-.27.66l-32.11,32.11A.93.93,0,0,1,454.12,235.05ZM6.42,233.2H453.73l31.57-31.57V26.2H6.42Z"/><path id="SVGID-2" data-name="SVGID" class="cls-1" d="M462.53,239.21a.46.46,0,0,1-.33-.13.47.47,0,0,1,0-.66l32.51-32.51V16.62h-272a.47.47,0,0,1,0-.93h272.5a.47.47,0,0,1,.47.46v190a.44.44,0,0,1-.14.33l-32.64,32.65A.46.46,0,0,1,462.53,239.21Z"/><g class="cls-9"><rect class="cls-1" x="222.21" y="15.69" width="273.42" height="223.52"/><path class="cls-1" d="M253.81,180.85c0-21.31,2.94-148.41,8.26-166.87v.79H455.78V14C461.09,32.44,464,159.54,464,180.85a217.87,217.87,0,0,1-8.26,60.07v-.78H262.07v.78A217.5,217.5,0,0,1,253.81,180.85Z"/><path class="cls-1" d="M306.37,180.85c0-21.31,5.88-147.4,15.39-161.36a63.73,63.73,0,0,1,7.78-9.42v4.7h58.77v-4.7a64.36,64.36,0,0,1,7.78,9.42c9.51,14,15.39,140,15.39,161.36s-5.88,40.6-15.39,54.57a64.89,64.89,0,0,1-7.78,9.42v-4.7H329.54v4.7a64.25,64.25,0,0,1-7.78-9.42C312.25,221.45,306.37,202.16,306.37,180.85Z"/></g><path class="cls-1" d="M230.6,10.8h-6.79V.07h1.43V9.53h5.36Z"/><path class="cls-1" d="M238.78,6.78a4.52,4.52,0,0,1-1,3.1,3.79,3.79,0,0,1-5.42,0,4.51,4.51,0,0,1-1-3.1,4.54,4.54,0,0,1,1-3.11,3.79,3.79,0,0,1,5.42,0A4.55,4.55,0,0,1,238.78,6.78Zm-1.4,0a3.7,3.7,0,0,0-.61-2.32,2.29,2.29,0,0,0-3.41,0,3.64,3.64,0,0,0-.61,2.32,3.64,3.64,0,0,0,.61,2.29,2.06,2.06,0,0,0,1.71.78,2,2,0,0,0,1.69-.77A3.65,3.65,0,0,0,237.38,6.78Z"/><path class="cls-1" d="M245.89,4.23h-.07c-.2-.05-.4-.08-.59-.11a6.45,6.45,0,0,0-.67,0,2.72,2.72,0,0,0-1.21.28,5.06,5.06,0,0,0-1.12.72V10.8h-1.36v-8h1.36V3.94A6.56,6.56,0,0,1,243.65,3a3.11,3.11,0,0,1,1.26-.27l.51,0,.47.07Z"/><path class="cls-1" d="M253.9,6.91H248a3.43,3.43,0,0,0,.23,1.3,2.35,2.35,0,0,0,.61.9,2.4,2.4,0,0,0,.89.52,3.39,3.39,0,0,0,1.13.17,4.7,4.7,0,0,0,1.66-.32,4.08,4.08,0,0,0,1.18-.65h.07v1.48a11.41,11.41,0,0,1-1.39.48,5.71,5.71,0,0,1-1.5.19,4.33,4.33,0,0,1-3.13-1.08,4.07,4.07,0,0,1-1.12-3.08,4.45,4.45,0,0,1,1.07-3.13,3.68,3.68,0,0,1,2.84-1.16,3.28,3.28,0,0,1,2.51,1,3.8,3.8,0,0,1,.88,2.7Zm-1.32-1a2.39,2.39,0,0,0-.53-1.65,2.08,2.08,0,0,0-1.61-.59,2.35,2.35,0,0,0-1.74.65A2.51,2.51,0,0,0,248,5.88Z"/><path class="cls-1" d="M267.7,10.8h-1.36V6.22a8.07,8.07,0,0,0,0-1,2.17,2.17,0,0,0-.19-.78,1.07,1.07,0,0,0-.48-.46,1.94,1.94,0,0,0-.89-.16,2.52,2.52,0,0,0-1.14.28,6.6,6.6,0,0,0-1.14.73,3.71,3.71,0,0,1,0,.38c0,.15,0,.29,0,.44V10.8h-1.35V6.22c0-.36,0-.7,0-1a2,2,0,0,0-.2-.76,1.12,1.12,0,0,0-.47-.47,2.15,2.15,0,0,0-.9-.15,2.52,2.52,0,0,0-1.11.27,6.8,6.8,0,0,0-1.11.7v6H256v-8h1.36v.89a6,6,0,0,1,1.26-.82,3.24,3.24,0,0,1,1.35-.29,2.65,2.65,0,0,1,1.39.34,2.09,2.09,0,0,1,.85,1,7.07,7.07,0,0,1,1.5-1,3.55,3.55,0,0,1,1.45-.3,2.36,2.36,0,0,1,2,.8,3.56,3.56,0,0,1,.63,2.25Z"/><path class="cls-1" d="M276.94,1.4h-1.52V0h1.52Zm-.08,9.4H275.5v-8h1.36Z"/><path class="cls-1" d="M285.29,8.48a2.2,2.2,0,0,1-.92,1.81,3.93,3.93,0,0,1-2.48.7,6,6,0,0,1-1.64-.21,6.73,6.73,0,0,1-1.25-.47V8.79h.07a5.18,5.18,0,0,0,1.43.77,4.38,4.38,0,0,0,1.5.29,2.86,2.86,0,0,0,1.4-.29,1,1,0,0,0,.5-.91.91.91,0,0,0-.27-.72,2.54,2.54,0,0,0-1.05-.42l-.76-.15c-.31-.06-.59-.12-.84-.19a2.74,2.74,0,0,1-1.5-.82A2,2,0,0,1,279,5a2.11,2.11,0,0,1,.21-.93,2.22,2.22,0,0,1,.62-.79,3,3,0,0,1,1-.53,4.32,4.32,0,0,1,1.39-.2,6.68,6.68,0,0,1,1.46.17,5.64,5.64,0,0,1,1.23.43V4.61h-.07A5,5,0,0,0,283.64,4a4.27,4.27,0,0,0-1.46-.27,2.54,2.54,0,0,0-1.25.29.91.91,0,0,0-.51.84.91.91,0,0,0,.31.75,2.26,2.26,0,0,0,1,.41l.83.18.78.15a2.9,2.9,0,0,1,1.45.75A1.94,1.94,0,0,1,285.29,8.48Z"/><path class="cls-1" d="M294.3,6.68A5.38,5.38,0,0,1,294,8.47a3.85,3.85,0,0,1-.79,1.37,3.35,3.35,0,0,1-1.12.82,3.18,3.18,0,0,1-1.36.3,4.45,4.45,0,0,1-1.14-.14,4.27,4.27,0,0,1-1-.43v3.38h-1.36v-11h1.36v.84a5.51,5.51,0,0,1,1.21-.76,3.51,3.51,0,0,1,1.44-.3,2.63,2.63,0,0,1,2.26,1.1A5,5,0,0,1,294.3,6.68Zm-1.39,0a3.84,3.84,0,0,0-.5-2.17,1.73,1.73,0,0,0-1.53-.72,2.9,2.9,0,0,0-1.17.25,5.38,5.38,0,0,0-1.13.66V9.29a5.19,5.19,0,0,0,1,.35,3.82,3.82,0,0,0,.94.1A2.18,2.18,0,0,0,292.27,9,3.45,3.45,0,0,0,292.91,6.71Z"/><path class="cls-1" d="M303.08,10.8h-1.35V9.9a6.56,6.56,0,0,1-1.31.83A3.31,3.31,0,0,1,299,11a2.56,2.56,0,0,1-2-.77,3.29,3.29,0,0,1-.7-2.28V2.75h1.35V7.33a7.83,7.83,0,0,0,.06,1.05,2.07,2.07,0,0,0,.24.75,1.19,1.19,0,0,0,.51.46,2.28,2.28,0,0,0,.9.14,2.94,2.94,0,0,0,1.15-.27,5.51,5.51,0,0,0,1.16-.7v-6h1.35Z"/><path class="cls-1" d="M317.49,10.8h-1.35V6.22c0-.35,0-.68-.05-1a2.16,2.16,0,0,0-.2-.78,1.1,1.1,0,0,0-.47-.46,2,2,0,0,0-.9-.16,2.52,2.52,0,0,0-1.14.28,6.94,6.94,0,0,0-1.13.73c0,.11,0,.24,0,.38s0,.29,0,.44V10.8h-1.36V6.22c0-.36,0-.7,0-1a2.25,2.25,0,0,0-.2-.76,1.09,1.09,0,0,0-.48-.47,2.07,2.07,0,0,0-.89-.15,2.52,2.52,0,0,0-1.11.27,6.47,6.47,0,0,0-1.12.7v6h-1.35v-8h1.35v.89a6.33,6.33,0,0,1,1.27-.82,3.23,3.23,0,0,1,1.34-.29,2.63,2.63,0,0,1,1.39.34,2.11,2.11,0,0,1,.86,1,7.07,7.07,0,0,1,1.5-1,3.51,3.51,0,0,1,1.44-.3,2.35,2.35,0,0,1,2,.8,3.56,3.56,0,0,1,.63,2.25Z"/><polygon class="cls-6" points="5.5 207.14 11.68 198.89 11.68 30.93 83.85 30.93 94.84 24.74 5.5 25.28 5.5 207.14"/><polygon class="cls-6" points="479.37 25.09 479.37 198.89 451.53 227.24 359.78 227.24 352.05 233.94 454.12 233.94 486.23 202.01 486.23 25.28 479.37 25.09"/><polygon class="cls-1" points="4.47 195.8 2.4 190.64 2.4 46.05 0 40.21 0 19.25 28.18 19.25 25.09 22 80.75 22 79.03 24.74 4.47 24.74 4.47 195.8"/></g></g></svg>