<svg xmlns="http://www.w3.org/2000/svg" xmlns:xlink="http://www.w3.org/1999/xlink" viewBox="0 0 496.79 97.88"><defs><style>.cls-1{mask:url(#mask);filter:url(#luminosity-noclip-3);}.cls-2,.cls-4{mix-blend-mode:multiply;}.cls-2{fill:url(#Безымянный_градиент_107);}.cls-3{mask:url(#mask-2);filter:url(#luminosity-noclip-4);}.cls-4{fill:url(#Безымянный_градиент_107-2);}.cls-5{fill:url(#New_Gradient_Swatch_5);}.cls-6{fill:url(#New_Gradient_Swatch_5-2);}.cls-7{fill:url(#New_Gradient_Swatch_5-3);}.cls-8{fill:url(#New_Gradient_Swatch_5-4);}.cls-9{fill:url(#New_Gradient_Swatch_5-5);}.cls-10{fill:url(#New_Gradient_Swatch_5-6);}.cls-11{fill:url(#New_Gradient_Swatch_5-7);}.cls-12{fill:url(#New_Gradient_Swatch_5-8);}.cls-13{fill:url(#New_Gradient_Swatch_5-9);}.cls-14{fill:url(#New_Gradient_Swatch_5-10);}.cls-15{mask:url(#mask-3);}.cls-16,.cls-19,.cls-24,.cls-37{opacity:0.6;}.cls-16{fill:url(#New_Gradient_Swatch_5-11);}.cls-17,.cls-35,.cls-48{opacity:0.2;}.cls-17{fill:url(#New_Gradient_Swatch_5-12);}.cls-18{mask:url(#mask-4);}.cls-19{fill:url(#New_Gradient_Swatch_5-13);}.cls-20{fill:url(#New_Gradient_Swatch_5-14);}.cls-21{fill:url(#New_Gradient_Swatch_5-15);}.cls-22{fill:url(#New_Gradient_Swatch_5-16);}.cls-23,.cls-36{opacity:0.7;}.cls-23{fill:url(#New_Gradient_Swatch_5-17);}.cls-24{fill:url(#New_Gradient_Swatch_5-18);}.cls-25,.cls-38{opacity:0.4;}.cls-25{fill:url(#New_Gradient_Swatch_5-19);}.cls-26,.cls-39{opacity:0.3;}.cls-26{fill:url(#New_Gradient_Swatch_5-20);}.cls-27,.cls-40{opacity:0.9;}.cls-27{fill:url(#New_Gradient_Swatch_5-21);}.cls-28{fill:url(#New_Gradient_Swatch_5-22);}.cls-29,.cls-42{opacity:0.8;}.cls-29{fill:url(#New_Gradient_Swatch_5-23);}.cls-30,.cls-43{opacity:0.5;}.cls-30{fill:url(#New_Gradient_Swatch_5-24);}.cls-31,.cls-44{opacity:0.03;}.cls-31{fill:url(#New_Gradient_Swatch_5-25);}.cls-32,.cls-45{opacity:0.09;}.cls-32{fill:url(#New_Gradient_Swatch_5-26);}.cls-33,.cls-46{opacity:0.1;}.cls-33{fill:url(#New_Gradient_Swatch_5-27);}.cls-34,.cls-47{opacity:0.05;}.cls-34{fill:url(#New_Gradient_Swatch_5-28);}.cls-35{fill:url(#New_Gradient_Swatch_5-29);}.cls-36{fill:url(#New_Gradient_Swatch_5-30);}.cls-37{fill:url(#New_Gradient_Swatch_5-31);}.cls-38{fill:url(#New_Gradient_Swatch_5-32);}.cls-39{fill:url(#New_Gradient_Swatch_5-33);}.cls-40{fill:url(#New_Gradient_Swatch_5-34);}.cls-41{fill:url(#New_Gradient_Swatch_5-35);}.cls-42{fill:url(#New_Gradient_Swatch_5-36);}.cls-43{fill:url(#New_Gradient_Swatch_5-37);}.cls-44{fill:url(#New_Gradient_Swatch_5-38);}.cls-45{fill:url(#New_Gradient_Swatch_5-39);}.cls-46{fill:url(#New_Gradient_Swatch_5-40);}.cls-47{fill:url(#New_Gradient_Swatch_5-41);}.cls-48{fill:url(#New_Gradient_Swatch_5-42);}.cls-49{filter:url(#luminosity-noclip-2);}.cls-50{filter:url(#luminosity-noclip);}</style><filter id="luminosity-noclip" x="0" y="-8243.27" width="380.32" height="32766" filterUnits="userSpaceOnUse" color-interpolation-filters="sRGB"><feFlood flood-color="#fff" result="bg"/><feBlend in="SourceGraphic" in2="bg"/></filter><mask id="mask" x="0" y="-8243.27" width="380.32" height="32766" maskUnits="userSpaceOnUse"><g class="cls-50"/></mask><linearGradient id="Безымянный_градиент_107" y1="31.67" x2="380.32" y2="31.67" gradientUnits="userSpaceOnUse"><stop offset="0" stop-color="#fff"/><stop offset="0.15" stop-color="#cecece"/><stop offset="0.38" stop-color="#868686"/><stop offset="0.59" stop-color="#4c4c4c"/><stop offset="0.77" stop-color="#232323"/><stop offset="0.92" stop-color="#090909"/><stop offset="1"/></linearGradient><filter id="luminosity-noclip-2" x="268.13" y="-8243.27" width="103" height="32766" filterUnits="userSpaceOnUse" color-interpolation-filters="sRGB"><feFlood flood-color="#fff" result="bg"/><feBlend in="SourceGraphic" in2="bg"/></filter><mask id="mask-2" x="268.13" y="-8243.27" width="103" height="32766" maskUnits="userSpaceOnUse"><g class="cls-49"/></mask><linearGradient id="Безымянный_градиент_107-2" x1="268.13" y1="57.34" x2="371.13" y2="57.34" xlink:href="#Безымянный_градиент_107"/><linearGradient id="New_Gradient_Swatch_5" x1="380.63" y1="69.61" x2="388.23" y2="69.61" gradientUnits="userSpaceOnUse"><stop offset="0" stop-color="#11e5b3"/><stop offset="0.14" stop-color="#15dcb8"/><stop offset="0.36" stop-color="#21c4c6"/><stop offset="0.64" stop-color="#359edc"/><stop offset="0.97" stop-color="#4f68fb"/><stop offset="1" stop-color="#5263fe"/></linearGradient><linearGradient id="New_Gradient_Swatch_5-2" x1="389.07" y1="71.11" x2="397.39" y2="71.11" xlink:href="#New_Gradient_Swatch_5"/><linearGradient id="New_Gradient_Swatch_5-3" x1="399.74" y1="71.11" x2="405.37" y2="71.11" xlink:href="#New_Gradient_Swatch_5"/><linearGradient id="New_Gradient_Swatch_5-4" x1="406.16" y1="71.09" x2="414.35" y2="71.09" xlink:href="#New_Gradient_Swatch_5"/><linearGradient id="New_Gradient_Swatch_5-5" x1="416.65" y1="70.99" x2="429.8" y2="70.99" xlink:href="#New_Gradient_Swatch_5"/><linearGradient id="New_Gradient_Swatch_5-6" x1="438.46" y1="69.57" x2="440.17" y2="69.57" xlink:href="#New_Gradient_Swatch_5"/><linearGradient id="New_Gradient_Swatch_5-7" x1="442.47" y1="71.11" x2="449.52" y2="71.11" xlink:href="#New_Gradient_Swatch_5"/><linearGradient id="New_Gradient_Swatch_5-8" x1="451.69" y1="72.65" x2="459.62" y2="72.65" xlink:href="#New_Gradient_Swatch_5"/><linearGradient id="New_Gradient_Swatch_5-9" x1="461.92" y1="71.24" x2="469.46" y2="71.24" xlink:href="#New_Gradient_Swatch_5"/><linearGradient id="New_Gradient_Swatch_5-10" x1="472.45" y1="70.99" x2="485.61" y2="70.99" xlink:href="#New_Gradient_Swatch_5"/><filter id="luminosity-noclip-3" x="0" y="5.46" width="380.32" height="52.42" filterUnits="userSpaceOnUse" color-interpolation-filters="sRGB"><feFlood flood-color="#fff" result="bg"/><feBlend in="SourceGraphic" in2="bg"/></filter><mask id="mask-3" x="0" y="5.46" width="380.32" height="52.42" maskUnits="userSpaceOnUse"><g class="cls-1"><polygon class="cls-2" points="380.32 5.46 52.42 5.46 0 57.88 327.9 57.88 380.32 5.46"/></g></mask><linearGradient id="New_Gradient_Swatch_5-11" x1="0" y1="31.67" x2="380.32" y2="31.67" xlink:href="#New_Gradient_Swatch_5"/><linearGradient id="New_Gradient_Swatch_5-12" x1="7.1" y1="44.78" x2="387.42" y2="44.78" xlink:href="#New_Gradient_Swatch_5"/><filter id="luminosity-noclip-4" x="268.13" y="50.24" width="103" height="14.2" filterUnits="userSpaceOnUse" color-interpolation-filters="sRGB"><feFlood flood-color="#fff" result="bg"/><feBlend in="SourceGraphic" in2="bg"/></filter><mask id="mask-4" x="268.13" y="50.24" width="103" height="14.2" maskUnits="userSpaceOnUse"><g class="cls-3"><polygon class="cls-4" points="371.13 50.24 282.33 50.24 268.13 64.44 356.93 64.44 371.13 50.24"/></g></mask><linearGradient id="New_Gradient_Swatch_5-13" x1="268.13" y1="57.34" x2="371.13" y2="57.34" xlink:href="#New_Gradient_Swatch_5"/><linearGradient id="New_Gradient_Swatch_5-14" x1="6.36" y1="44.78" x2="388.16" y2="44.78" xlink:href="#New_Gradient_Swatch_5"/><linearGradient id="New_Gradient_Swatch_5-15" x1="209.35" y1="76.73" x2="490.43" y2="76.73" xlink:href="#New_Gradient_Swatch_5"/><linearGradient id="New_Gradient_Swatch_5-16" x1="488.59" y1="82.73" x2="496.79" y2="82.73" xlink:href="#New_Gradient_Swatch_5"/><linearGradient id="New_Gradient_Swatch_5-17" x1="263.89" y1="92.08" x2="286.96" y2="92.08" xlink:href="#New_Gradient_Swatch_5"/><linearGradient id="New_Gradient_Swatch_5-18" x1="286.08" y1="92.08" x2="309.15" y2="92.08" xlink:href="#New_Gradient_Swatch_5"/><linearGradient id="New_Gradient_Swatch_5-19" x1="330.46" y1="92.08" x2="353.53" y2="92.08" xlink:href="#New_Gradient_Swatch_5"/><linearGradient id="New_Gradient_Swatch_5-20" x1="352.65" y1="92.08" x2="375.72" y2="92.08" xlink:href="#New_Gradient_Swatch_5"/><linearGradient id="New_Gradient_Swatch_5-21" x1="219.51" y1="92.08" x2="242.58" y2="92.08" xlink:href="#New_Gradient_Swatch_5"/><linearGradient id="New_Gradient_Swatch_5-22" x1="197.31" y1="92.08" x2="220.39" y2="92.08" xlink:href="#New_Gradient_Swatch_5"/><linearGradient id="New_Gradient_Swatch_5-23" x1="241.7" y1="92.08" x2="264.77" y2="92.08" xlink:href="#New_Gradient_Swatch_5"/><linearGradient id="New_Gradient_Swatch_5-24" x1="308.27" y1="92.08" x2="331.34" y2="92.08" xlink:href="#New_Gradient_Swatch_5"/><linearGradient id="New_Gradient_Swatch_5-25" x1="463.6" y1="92.08" x2="486.68" y2="92.08" xlink:href="#New_Gradient_Swatch_5"/><linearGradient id="New_Gradient_Swatch_5-26" x1="419.22" y1="92.08" x2="442.3" y2="92.08" xlink:href="#New_Gradient_Swatch_5"/><linearGradient id="New_Gradient_Swatch_5-27" x1="397.03" y1="92.08" x2="420.11" y2="92.08" xlink:href="#New_Gradient_Swatch_5"/><linearGradient id="New_Gradient_Swatch_5-28" x1="441.41" y1="92.08" x2="464.49" y2="92.08" xlink:href="#New_Gradient_Swatch_5"/><linearGradient id="New_Gradient_Swatch_5-29" x1="374.84" y1="92.08" x2="397.91" y2="92.08" xlink:href="#New_Gradient_Swatch_5"/><linearGradient id="New_Gradient_Swatch_5-30" x1="84.77" y1="5.8" x2="107.85" y2="5.8" xlink:href="#New_Gradient_Swatch_5"/><linearGradient id="New_Gradient_Swatch_5-31" x1="106.96" y1="5.8" x2="130.04" y2="5.8" xlink:href="#New_Gradient_Swatch_5"/><linearGradient id="New_Gradient_Swatch_5-32" x1="151.34" y1="5.8" x2="174.42" y2="5.8" xlink:href="#New_Gradient_Swatch_5"/><linearGradient id="New_Gradient_Swatch_5-33" x1="173.53" y1="5.8" x2="196.61" y2="5.8" xlink:href="#New_Gradient_Swatch_5"/><linearGradient id="New_Gradient_Swatch_5-34" x1="40.39" y1="5.8" x2="63.47" y2="5.8" xlink:href="#New_Gradient_Swatch_5"/><linearGradient id="New_Gradient_Swatch_5-35" x1="18.2" y1="5.8" x2="41.27" y2="5.8" xlink:href="#New_Gradient_Swatch_5"/><linearGradient id="New_Gradient_Swatch_5-36" x1="62.58" y1="5.8" x2="85.66" y2="5.8" xlink:href="#New_Gradient_Swatch_5"/><linearGradient id="New_Gradient_Swatch_5-37" x1="129.15" y1="5.8" x2="152.23" y2="5.8" xlink:href="#New_Gradient_Swatch_5"/><linearGradient id="New_Gradient_Swatch_5-38" x1="284.49" y1="5.8" x2="307.56" y2="5.8" xlink:href="#New_Gradient_Swatch_5"/><linearGradient id="New_Gradient_Swatch_5-39" x1="240.11" y1="5.8" x2="263.18" y2="5.8" xlink:href="#New_Gradient_Swatch_5"/><linearGradient id="New_Gradient_Swatch_5-40" x1="217.91" y1="5.8" x2="240.99" y2="5.8" xlink:href="#New_Gradient_Swatch_5"/><linearGradient id="New_Gradient_Swatch_5-41" x1="262.3" y1="5.8" x2="285.37" y2="5.8" xlink:href="#New_Gradient_Swatch_5"/><linearGradient id="New_Gradient_Swatch_5-42" x1="195.72" y1="5.8" x2="218.8" y2="5.8" xlink:href="#New_Gradient_Swatch_5"/></defs><title>menu_09_green_blue</title><g id="Layer_2" data-name="Layer 2"><g id="Layer_1-2" data-name="Layer 1"><path class="cls-5" d="M388.23,75.62h-7.6v-12h1.59V74.2h6Z"/><path class="cls-6" d="M397.39,71.12a5,5,0,0,1-1.13,3.48,4.25,4.25,0,0,1-6.06,0,5.94,5.94,0,0,1,0-7,4.23,4.23,0,0,1,6.06,0A5.07,5.07,0,0,1,397.39,71.12Zm-1.56,0a4.11,4.11,0,0,0-.69-2.61,2.57,2.57,0,0,0-3.82,0,5.27,5.27,0,0,0,0,5.18,2.54,2.54,0,0,0,3.82,0A4.09,4.09,0,0,0,395.83,71.12Z"/><path class="cls-7" d="M405.37,68.26h-.08l-.66-.12c-.21,0-.46,0-.76,0a3.06,3.06,0,0,0-1.35.31,5.68,5.68,0,0,0-1.26.8v6.4h-1.52v-9h1.52v1.34a7.1,7.1,0,0,1,1.59-1,3.52,3.52,0,0,1,1.41-.31l.58,0,.53.08Z"/><path class="cls-8" d="M414.35,71.27H407.7a3.8,3.8,0,0,0,.25,1.45,2.71,2.71,0,0,0,1.68,1.59,4,4,0,0,0,1.28.2,5.13,5.13,0,0,0,1.85-.37,5,5,0,0,0,1.33-.72h.08v1.65a11.2,11.2,0,0,1-1.57.54,6.14,6.14,0,0,1-1.68.22,4.84,4.84,0,0,1-3.5-1.21,4.58,4.58,0,0,1-1.26-3.46,4.94,4.94,0,0,1,1.21-3.51,4.14,4.14,0,0,1,3.17-1.3,3.66,3.66,0,0,1,2.82,1.07,4.29,4.29,0,0,1,1,3Zm-1.48-1.16a2.72,2.72,0,0,0-.6-1.85,2.32,2.32,0,0,0-1.81-.66,2.63,2.63,0,0,0-1.94.72,2.85,2.85,0,0,0-.82,1.79Z"/><path class="cls-9" d="M429.8,75.62h-1.51V70.49a10.42,10.42,0,0,0-.06-1.13,2.34,2.34,0,0,0-.22-.86,1.16,1.16,0,0,0-.53-.52,2.23,2.23,0,0,0-1-.18,2.76,2.76,0,0,0-1.28.32,7.49,7.49,0,0,0-1.27.81c0,.12,0,.27,0,.43s0,.33,0,.49v5.77h-1.51V70.49a10.33,10.33,0,0,0-.06-1.14,2.34,2.34,0,0,0-.22-.86,1.21,1.21,0,0,0-.53-.52,2.4,2.4,0,0,0-1-.17,2.75,2.75,0,0,0-1.25.31,7.12,7.12,0,0,0-1.25.78v6.73h-1.51v-9h1.51v1a7.42,7.42,0,0,1,1.42-.92,3.51,3.51,0,0,1,1.51-.33,3,3,0,0,1,1.56.39,2.4,2.4,0,0,1,1,1.07,8,8,0,0,1,1.68-1.11,3.91,3.91,0,0,1,1.63-.35,2.61,2.61,0,0,1,2.19.9,4,4,0,0,1,.7,2.52Z"/><path class="cls-10" d="M440.17,65.09h-1.71V63.52h1.71Zm-.1,10.53h-1.52v-9h1.52Z"/><path class="cls-11" d="M449.52,73a2.46,2.46,0,0,1-1,2,4.43,4.43,0,0,1-2.79.79,6.66,6.66,0,0,1-1.84-.24,8.15,8.15,0,0,1-1.4-.52v-1.7h.08a6.3,6.3,0,0,0,1.6.86,5,5,0,0,0,1.69.32,3.09,3.09,0,0,0,1.56-.33,1.07,1.07,0,0,0,.57-1,1,1,0,0,0-.31-.81,2.8,2.8,0,0,0-1.18-.47c-.21,0-.49-.11-.84-.17a9.7,9.7,0,0,1-.95-.21,3.18,3.18,0,0,1-1.68-.92,2.32,2.32,0,0,1-.5-1.5,2.43,2.43,0,0,1,.93-1.93,3.37,3.37,0,0,1,1.15-.6,5.07,5.07,0,0,1,1.56-.22,7.19,7.19,0,0,1,1.64.19,7,7,0,0,1,1.37.48v1.63h-.08a5.49,5.49,0,0,0-1.41-.73,5.06,5.06,0,0,0-1.63-.29,2.91,2.91,0,0,0-1.41.32,1.12,1.12,0,0,0-.22,1.79,2.8,2.8,0,0,0,1.1.46c.28.06.59.13.94.19s.63.12.86.18a3.19,3.19,0,0,1,1.63.83A2.17,2.17,0,0,1,449.52,73Z"/><path class="cls-12" d="M459.62,71a6.1,6.1,0,0,1-.31,2,4.49,4.49,0,0,1-.89,1.54,3.66,3.66,0,0,1-1.25.92,3.7,3.7,0,0,1-1.53.33,5.05,5.05,0,0,1-1.28-.15,6.13,6.13,0,0,1-1.15-.48V79h-1.52V66.6h1.52v1a5.68,5.68,0,0,1,1.36-.85,3.82,3.82,0,0,1,1.61-.35,3,3,0,0,1,2.54,1.23A5.74,5.74,0,0,1,459.62,71Zm-1.56,0a4.3,4.3,0,0,0-.56-2.43,1.93,1.93,0,0,0-1.71-.81,3.33,3.33,0,0,0-1.32.28,6.2,6.2,0,0,0-1.26.74v5.11a5.64,5.64,0,0,0,1.11.4,4.8,4.8,0,0,0,1.05.1,2.45,2.45,0,0,0,2-.85A3.92,3.92,0,0,0,458.06,71Z"/><path class="cls-13" d="M469.46,75.62H468v-1a7.72,7.72,0,0,1-1.47.93,3.77,3.77,0,0,1-1.55.32,2.82,2.82,0,0,1-2.21-.87,3.63,3.63,0,0,1-.8-2.54V66.6h1.52v5.14a7.81,7.81,0,0,0,.07,1.17,2.08,2.08,0,0,0,.27.84,1.33,1.33,0,0,0,.57.51,2.39,2.39,0,0,0,1,.17,3.27,3.27,0,0,0,1.28-.31,6.21,6.21,0,0,0,1.31-.78V66.6h1.51Z"/><path class="cls-14" d="M485.61,75.62h-1.52V70.49c0-.39,0-.76,0-1.13a2.56,2.56,0,0,0-.22-.86,1.18,1.18,0,0,0-.54-.52,2.2,2.2,0,0,0-1-.18,2.72,2.72,0,0,0-1.27.32,7.55,7.55,0,0,0-1.28.81c0,.12,0,.27,0,.43s0,.33,0,.49v5.77h-1.52V70.49c0-.4,0-.78,0-1.14a2.56,2.56,0,0,0-.22-.86,1.23,1.23,0,0,0-.54-.52,2.37,2.37,0,0,0-1-.17,2.71,2.71,0,0,0-1.24.31,6.77,6.77,0,0,0-1.25.78v6.73h-1.52v-9H474v1a6.85,6.85,0,0,1,1.42-.92,3.5,3.5,0,0,1,1.5-.33,2.94,2.94,0,0,1,1.56.39,2.42,2.42,0,0,1,1,1.07,7.55,7.55,0,0,1,1.68-1.11,3.87,3.87,0,0,1,1.62-.35,2.61,2.61,0,0,1,2.19.9,4,4,0,0,1,.71,2.52Z"/><g class="cls-15"><polygon class="cls-16" points="380.32 5.46 52.42 5.46 0 57.88 327.9 57.88 380.32 5.46"/></g><polygon class="cls-17" points="387.42 18.57 59.52 18.57 7.1 70.99 335 70.99 387.42 18.57"/><g class="cls-18"><polygon class="cls-19" points="371.13 50.24 282.33 50.24 268.13 64.44 356.93 64.44 371.13 50.24"/></g><path class="cls-20" d="M335,71.73H7.1a.75.75,0,0,1-.69-.46.73.73,0,0,1,.17-.8L59,18a.73.73,0,0,1,.52-.21h327.9a.74.74,0,0,1,.52,1.26L335.52,71.51A.75.75,0,0,1,335,71.73ZM8.89,70.25h325.8l50.94-50.94H59.83Z"/><path class="cls-21" d="M489.69,82.93H210.09a.77.77,0,0,1-.67-.42.78.78,0,0,1,.09-.79l8.74-10.92a.73.73,0,0,1,1-.11.74.74,0,0,1,.12,1l-7.78,9.72H489.69a.74.74,0,1,1,0,1.48Z"/><path class="cls-22" d="M496.79,82.73a4.1,4.1,0,1,1-4.1-4.09A4.11,4.11,0,0,1,496.79,82.73Z"/><polygon class="cls-23" points="286.96 86.28 275.46 86.28 263.89 97.88 275.39 97.88 286.96 86.28"/><polygon class="cls-24" points="309.15 86.28 297.65 86.28 286.08 97.88 297.58 97.88 309.15 86.28"/><polygon class="cls-25" points="353.53 86.28 342.03 86.28 330.46 97.88 341.96 97.88 353.53 86.28"/><polygon class="cls-26" points="375.72 86.28 364.22 86.28 352.65 97.88 364.15 97.88 375.72 86.28"/><polygon class="cls-27" points="242.58 86.28 231.07 86.28 219.5 97.88 231.01 97.88 242.58 86.28"/><polygon class="cls-28" points="197.31 97.88 208.82 97.88 220.39 86.28 208.88 86.28 197.31 97.88"/><polygon class="cls-29" points="264.77 86.28 253.27 86.28 241.7 97.88 253.2 97.88 264.77 86.28"/><polygon class="cls-30" points="331.34 86.28 319.84 86.28 308.27 97.88 319.77 97.88 331.34 86.28"/><polygon class="cls-31" points="486.68 86.28 475.17 86.28 463.6 97.88 475.11 97.88 486.68 86.28"/><polygon class="cls-32" points="442.3 86.28 430.79 86.28 419.22 97.88 430.73 97.88 442.3 86.28"/><polygon class="cls-33" points="420.11 86.28 408.6 86.28 397.03 97.88 408.54 97.88 420.11 86.28"/><polygon class="cls-34" points="464.49 86.28 452.98 86.28 441.41 97.88 452.92 97.88 464.49 86.28"/><polygon class="cls-35" points="397.92 86.28 386.41 86.28 374.84 97.88 386.35 97.88 397.92 86.28"/><polygon class="cls-36" points="107.85 0 96.34 0 84.77 11.6 96.28 11.6 107.85 0"/><polygon class="cls-37" points="130.04 0 118.53 0 106.96 11.6 118.47 11.6 130.04 0"/><polygon class="cls-38" points="174.42 0 162.91 0 151.34 11.6 162.85 11.6 174.42 0"/><polygon class="cls-39" points="196.61 0 185.1 0 173.53 11.6 185.04 11.6 196.61 0"/><polygon class="cls-40" points="63.47 0 51.96 0 40.39 11.6 51.9 11.6 63.47 0"/><polygon class="cls-41" points="18.2 11.6 29.7 11.6 41.27 0 29.77 0 18.2 11.6"/><polygon class="cls-42" points="85.66 0 74.15 0 62.58 11.6 74.09 11.6 85.66 0"/><polygon class="cls-43" points="152.23 0 140.72 0 129.15 11.6 140.66 11.6 152.23 0"/><polygon class="cls-44" points="307.56 0 296.06 0 284.49 11.6 295.99 11.6 307.56 0"/><polygon class="cls-45" points="263.18 0 251.68 0 240.1 11.6 251.61 11.6 263.18 0"/><polygon class="cls-46" points="240.99 0 229.48 0 217.91 11.6 229.42 11.6 240.99 0"/><polygon class="cls-47" points="285.37 0 273.87 0 262.3 11.6 273.8 11.6 285.37 0"/><polygon class="cls-48" points="218.8 0 207.29 0 195.72 11.6 207.23 11.6 218.8 0"/></g></g></svg>