<svg xmlns="http://www.w3.org/2000/svg" xmlns:xlink="http://www.w3.org/1999/xlink" viewBox="0 0 492.35 158.53"><defs><style>.cls-1{mask:url(#mask);filter:url(#luminosity-noclip-2);}.cls-2{mix-blend-mode:multiply;fill:url(#linear-gradient);}.cls-3{fill:url(#New_Gradient_Swatch_5);}.cls-4{mask:url(#mask-2);}.cls-5{opacity:0.2;fill:url(#New_Gradient_Swatch_5-2);}.cls-6{fill:url(#New_Gradient_Swatch_5-3);}.cls-7{fill:url(#New_Gradient_Swatch_5-4);}.cls-8{fill:url(#New_Gradient_Swatch_5-5);}.cls-9{fill:url(#New_Gradient_Swatch_5-6);}.cls-10{fill:url(#New_Gradient_Swatch_5-7);}.cls-11{fill:url(#New_Gradient_Swatch_5-8);}.cls-12{fill:url(#New_Gradient_Swatch_5-9);}.cls-13{fill:url(#New_Gradient_Swatch_5-10);}.cls-14{fill:url(#New_Gradient_Swatch_5-11);}.cls-15{fill:url(#New_Gradient_Swatch_5-12);}.cls-16{fill:url(#New_Gradient_Swatch_5-13);}.cls-17{filter:url(#luminosity-noclip);}</style><filter id="luminosity-noclip" x="0.92" y="-8281.46" width="479.49" height="32766" filterUnits="userSpaceOnUse" color-interpolation-filters="sRGB"><feFlood flood-color="#fff" result="bg"/><feBlend in="SourceGraphic" in2="bg"/></filter><mask id="mask" x="0.92" y="-8281.46" width="479.49" height="32766" maskUnits="userSpaceOnUse"><g class="cls-17"/></mask><linearGradient id="linear-gradient" x1="0.92" y1="74.9" x2="480.41" y2="74.9" gradientUnits="userSpaceOnUse"><stop offset="0" stop-color="#fff"/><stop offset="0.51" stop-color="#fff"/><stop offset="0.53" stop-color="#fff"/><stop offset="0.58" stop-color="#fafafa"/><stop offset="0.64" stop-color="#ebebeb"/><stop offset="0.7" stop-color="#d2d2d2"/><stop offset="0.77" stop-color="#afafaf"/><stop offset="0.84" stop-color="#838383"/><stop offset="0.91" stop-color="#4d4d4d"/><stop offset="0.99" stop-color="#0e0e0e"/><stop offset="1"/></linearGradient><linearGradient id="New_Gradient_Swatch_5" x1="63.68" y1="17.46" x2="322.38" y2="17.46" gradientUnits="userSpaceOnUse"><stop offset="0" stop-color="#11e5b3"/><stop offset="0.14" stop-color="#15dcb8"/><stop offset="0.36" stop-color="#21c4c6"/><stop offset="0.64" stop-color="#359edc"/><stop offset="0.97" stop-color="#4f68fb"/><stop offset="1" stop-color="#5263fe"/></linearGradient><filter id="luminosity-noclip-2" x="0.92" y="14.86" width="479.49" height="120.08" filterUnits="userSpaceOnUse" color-interpolation-filters="sRGB"><feFlood flood-color="#fff" result="bg"/><feBlend in="SourceGraphic" in2="bg"/></filter><mask id="mask-2" x="0.92" y="14.86" width="479.49" height="120.08" maskUnits="userSpaceOnUse"><g class="cls-1"><path class="cls-2" d="M60.88,14.86l-60,60L61,134.94H480.41V14.86Zm395,55.29H286.19V36.45H455.9Z"/></g></mask><linearGradient id="New_Gradient_Swatch_5-2" x1="0.92" y1="74.9" x2="480.41" y2="74.9" xlink:href="#New_Gradient_Swatch_5"/><linearGradient id="New_Gradient_Swatch_5-3" x1="0" y1="74.9" x2="481.33" y2="74.9" xlink:href="#New_Gradient_Swatch_5"/><linearGradient id="New_Gradient_Swatch_5-4" x1="278.53" y1="46.64" x2="312.54" y2="46.64" xlink:href="#New_Gradient_Swatch_5"/><linearGradient id="New_Gradient_Swatch_5-5" x1="435.22" y1="59.73" x2="460.5" y2="59.73" xlink:href="#New_Gradient_Swatch_5"/><linearGradient id="New_Gradient_Swatch_5-6" x1="232.58" y1="3.68" x2="301.05" y2="3.68" xlink:href="#New_Gradient_Swatch_5"/><linearGradient id="New_Gradient_Swatch_5-7" x1="449.01" y1="41.13" x2="488.53" y2="41.13" xlink:href="#New_Gradient_Swatch_5"/><linearGradient id="New_Gradient_Swatch_5-8" x1="470.3" y1="20.68" x2="492.35" y2="20.68" xlink:href="#New_Gradient_Swatch_5"/><linearGradient id="New_Gradient_Swatch_5-9" x1="11.56" y1="76.97" x2="227.99" y2="76.97" xlink:href="#New_Gradient_Swatch_5"/><linearGradient id="New_Gradient_Swatch_5-10" x1="102.7" y1="126.82" x2="219.41" y2="126.82" xlink:href="#New_Gradient_Swatch_5"/><linearGradient id="New_Gradient_Swatch_5-11" x1="29.79" y1="42.58" x2="57.97" y2="42.58" xlink:href="#New_Gradient_Swatch_5"/><linearGradient id="New_Gradient_Swatch_5-12" x1="228.45" y1="122.23" x2="488.53" y2="122.23" xlink:href="#New_Gradient_Swatch_5"/><linearGradient id="New_Gradient_Swatch_5-13" x1="267.4" y1="147.58" x2="359.91" y2="147.58" xlink:href="#New_Gradient_Swatch_5"/></defs><title>menu_17_green_blue</title><g id="Layer_2" data-name="Layer 2"><g id="Layer_1-2" data-name="Layer 1"><path class="cls-3" d="M64.14,28.49a.45.45,0,0,1-.32-.14.46.46,0,0,1,0-.65L85.42,6.56a.48.48,0,0,1,.32-.13H321.92a.46.46,0,0,1,.46.46.45.45,0,0,1-.46.46h-236l-21.46,21A.46.46,0,0,1,64.14,28.49Z"/><g class="cls-4"><path class="cls-5" d="M60.88,14.86l-60,60L61,134.94H480.41V14.86Zm395,55.29H286.19V36.45H455.9Z"/></g><path class="cls-6" d="M480.41,135.86H61a.91.91,0,0,1-.65-.27L.27,75.47a.92.92,0,0,1,0-1.3l60-60a.91.91,0,0,1,.65-.27H480.41a.92.92,0,0,1,.92.92V134.94A.92.92,0,0,1,480.41,135.86ZM61.42,134H479.49V15.78H61.26l-59,59Zm394.48-63H286.19a.92.92,0,0,1-.92-.92V36.45a.92.92,0,0,1,.92-.92H455.9a.92.92,0,0,1,.92.92v33.7A.92.92,0,0,1,455.9,71.07ZM287.11,69.23H455V37.37H287.11Z"/><polygon class="cls-7" points="312.54 36.76 304.27 30.79 278.53 30.79 278.53 55.14 285.89 62.49 285.89 36.76 312.54 36.76"/><polygon class="cls-8" points="435.22 70.76 438.44 74.44 460.5 74.44 460.5 45.03 456.36 51.46 456.36 70.3 435.22 70.76"/><polygon class="cls-9" points="232.58 6.89 238.1 4.59 256.94 4.59 265.21 0 301.05 0 292.93 7.35 232.58 6.89"/><path class="cls-10" d="M488.07,75.36a.46.46,0,0,1-.46-.46V7.81H449.47a.45.45,0,0,1-.46-.46.46.46,0,0,1,.46-.46h38.6a.47.47,0,0,1,.46.46V74.9A.47.47,0,0,1,488.07,75.36Z"/><polygon class="cls-11" points="470.3 7.05 475.2 4.59 482.86 4.59 486.53 1.84 492.36 1.84 492.36 31.86 488.07 39.52 488.07 7.35 470.3 7.05"/><path class="cls-12" d="M227.53,129.12H66.24a.48.48,0,0,1-.32-.13L11.7,75.22a.45.45,0,0,1,0-.64L60.4,25a.47.47,0,0,1,.65,0,.46.46,0,0,1,0,.65L12.67,74.89,66.43,128.2h161.1a.46.46,0,0,1,0,.92Z"/><polygon class="cls-13" points="102.7 128.35 106.07 126.95 122.92 126.95 133.03 125.29 204.09 125.29 219.41 128.35 102.7 128.35"/><polygon class="cls-14" points="57.97 28.18 54.91 28.49 40.82 42.27 39.98 45.21 39.75 45.23 30.59 54.19 29.79 56.98 41.74 45.03 41.06 45.1 57.97 28.18"/><path class="cls-15" d="M228.91,158.53a.47.47,0,0,1-.33-.14.46.46,0,0,1,0-.65l13.33-13.32a.43.43,0,0,1,.32-.14H487.61V86.39a.45.45,0,0,1,.46-.46.46.46,0,0,1,.46.46v58.35a.46.46,0,0,1-.46.46H242.42l-13.19,13.19A.45.45,0,0,1,228.91,158.53Z"/><polygon class="cls-16" points="267.4 148.88 270.92 144.74 359.91 144.74 355.93 147.96 334.48 147.96 330.81 150.41 283.94 150.41 275.97 147.35 267.4 148.88"/></g></g></svg>