<svg xmlns="http://www.w3.org/2000/svg" xmlns:xlink="http://www.w3.org/1999/xlink" viewBox="0 0 490.54 180.84"><defs><style>.cls-1,.cls-3{mask:url(#mask);}.cls-1{filter:url(#luminosity-noclip-3);}.cls-2,.cls-4{mix-blend-mode:multiply;}.cls-2{fill:url(#linear-gradient);}.cls-3{filter:url(#luminosity-noclip-4);}.cls-4{fill:url(#linear-gradient-2);}.cls-5{fill:url(#New_Gradient_Swatch_5);}.cls-6{fill:url(#New_Gradient_Swatch_5-2);}.cls-7{fill:url(#New_Gradient_Swatch_5-3);}.cls-8{fill:url(#New_Gradient_Swatch_5-4);}.cls-9{fill:url(#New_Gradient_Swatch_5-5);}.cls-10{fill:url(#New_Gradient_Swatch_5-6);}.cls-11{fill:url(#New_Gradient_Swatch_5-7);}.cls-12{fill:url(#New_Gradient_Swatch_5-8);}.cls-13{fill:url(#New_Gradient_Swatch_5-9);}.cls-14{fill:url(#New_Gradient_Swatch_5-10);}.cls-15{fill:url(#New_Gradient_Swatch_5-11);}.cls-16{fill:url(#New_Gradient_Swatch_5-12);}.cls-17{mask:url(#mask-3);}.cls-18{fill:url(#New_Gradient_Swatch_5-13);}.cls-19{mask:url(#mask-4);}.cls-20{fill:url(#New_Gradient_Swatch_5-14);}.cls-21,.cls-34{opacity:0.4;}.cls-21{fill:url(#New_Gradient_Swatch_5-15);}.cls-22,.cls-35{opacity:0.6;}.cls-22{fill:url(#New_Gradient_Swatch_5-16);}.cls-23,.cls-36{opacity:0.5;}.cls-23{fill:url(#New_Gradient_Swatch_5-17);}.cls-24,.cls-37{opacity:0.03;}.cls-24{fill:url(#New_Gradient_Swatch_5-18);}.cls-25,.cls-38{opacity:0.9;}.cls-25{fill:url(#New_Gradient_Swatch_5-19);}.cls-26,.cls-39{opacity:0.8;}.cls-26{fill:url(#New_Gradient_Swatch_5-20);}.cls-27,.cls-40{opacity:0.7;}.cls-27{fill:url(#New_Gradient_Swatch_5-21);}.cls-28,.cls-41{opacity:0.3;}.cls-28{fill:url(#New_Gradient_Swatch_5-22);}.cls-29,.cls-42{opacity:0.05;}.cls-29{fill:url(#New_Gradient_Swatch_5-23);}.cls-30{fill:url(#New_Gradient_Swatch_5-24);}.cls-31,.cls-44{opacity:0.09;}.cls-31{fill:url(#New_Gradient_Swatch_5-25);}.cls-32,.cls-45{opacity:0.2;}.cls-32{fill:url(#New_Gradient_Swatch_5-26);}.cls-33,.cls-46{opacity:0.1;}.cls-33{fill:url(#New_Gradient_Swatch_5-27);}.cls-34{fill:url(#New_Gradient_Swatch_5-28);}.cls-35{fill:url(#New_Gradient_Swatch_5-29);}.cls-36{fill:url(#New_Gradient_Swatch_5-30);}.cls-37{fill:url(#New_Gradient_Swatch_5-31);}.cls-38{fill:url(#New_Gradient_Swatch_5-32);}.cls-39{fill:url(#New_Gradient_Swatch_5-33);}.cls-40{fill:url(#New_Gradient_Swatch_5-34);}.cls-41{fill:url(#New_Gradient_Swatch_5-35);}.cls-42{fill:url(#New_Gradient_Swatch_5-36);}.cls-43{fill:url(#New_Gradient_Swatch_5-37);}.cls-44{fill:url(#New_Gradient_Swatch_5-38);}.cls-45{fill:url(#New_Gradient_Swatch_5-39);}.cls-46{fill:url(#New_Gradient_Swatch_5-40);}.cls-47{fill:url(#New_Gradient_Swatch_5-41);}.cls-48{fill:url(#New_Gradient_Swatch_5-42);}.cls-49{fill:url(#New_Gradient_Swatch_5-43);}.cls-50{fill:url(#New_Gradient_Swatch_5-44);}.cls-51{fill:url(#New_Gradient_Swatch_5-45);}.cls-52{filter:url(#luminosity-noclip);}</style><filter id="luminosity-noclip" x="15.83" y="-8296.2" width="460.69" height="32766" filterUnits="userSpaceOnUse" color-interpolation-filters="sRGB"><feFlood flood-color="#fff" result="bg"/><feBlend in="SourceGraphic" in2="bg"/></filter><mask id="mask" x="15.83" y="-8296.2" width="460.69" height="32766" maskUnits="userSpaceOnUse"><g class="cls-52"/></mask><linearGradient id="linear-gradient" x1="15.83" y1="45.42" x2="476.52" y2="45.42" gradientUnits="userSpaceOnUse"><stop offset="0" stop-color="#fff"/><stop offset="0.19" stop-color="#bebebe"/><stop offset="0.41" stop-color="#7b7b7b"/><stop offset="0.61" stop-color="#464646"/><stop offset="0.78" stop-color="#202020"/><stop offset="0.91" stop-color="#090909"/><stop offset="1"/></linearGradient><linearGradient id="linear-gradient-2" x1="15.83" y1="116.13" x2="476.52" y2="116.13" xlink:href="#linear-gradient"/><linearGradient id="New_Gradient_Swatch_5" x1="75.95" y1="6.4" x2="83.94" y2="6.4" gradientUnits="userSpaceOnUse"><stop offset="0" stop-color="#11e5b3"/><stop offset="0.14" stop-color="#15dcb8"/><stop offset="0.36" stop-color="#21c4c6"/><stop offset="0.64" stop-color="#359edc"/><stop offset="0.97" stop-color="#4f68fb"/><stop offset="1" stop-color="#5263fe"/></linearGradient><linearGradient id="New_Gradient_Swatch_5-2" x1="84.82" y1="7.98" x2="93.57" y2="7.98" xlink:href="#New_Gradient_Swatch_5"/><linearGradient id="New_Gradient_Swatch_5-3" x1="96.04" y1="7.98" x2="101.95" y2="7.98" xlink:href="#New_Gradient_Swatch_5"/><linearGradient id="New_Gradient_Swatch_5-4" x1="102.79" y1="7.96" x2="111.39" y2="7.96" xlink:href="#New_Gradient_Swatch_5"/><linearGradient id="New_Gradient_Swatch_5-5" x1="113.81" y1="7.85" x2="127.64" y2="7.85" xlink:href="#New_Gradient_Swatch_5"/><linearGradient id="New_Gradient_Swatch_5-6" x1="136.74" y1="6.36" x2="138.53" y2="6.36" xlink:href="#New_Gradient_Swatch_5"/><linearGradient id="New_Gradient_Swatch_5-7" x1="140.95" y1="7.98" x2="148.36" y2="7.98" xlink:href="#New_Gradient_Swatch_5"/><linearGradient id="New_Gradient_Swatch_5-8" x1="150.64" y1="9.6" x2="158.99" y2="9.6" xlink:href="#New_Gradient_Swatch_5"/><linearGradient id="New_Gradient_Swatch_5-9" x1="161.4" y1="8.11" x2="169.33" y2="8.11" xlink:href="#New_Gradient_Swatch_5"/><linearGradient id="New_Gradient_Swatch_5-10" x1="172.47" y1="7.85" x2="186.3" y2="7.85" xlink:href="#New_Gradient_Swatch_5"/><linearGradient id="New_Gradient_Swatch_5-11" x1="7.65" y1="23.8" x2="284.16" y2="23.8" xlink:href="#New_Gradient_Swatch_5"/><linearGradient id="New_Gradient_Swatch_5-12" x1="244.51" y1="15.41" x2="283.25" y2="15.41" xlink:href="#New_Gradient_Swatch_5"/><filter id="luminosity-noclip-3" x="15.83" y="38.65" width="460.69" height="13.54" filterUnits="userSpaceOnUse" color-interpolation-filters="sRGB"><feFlood flood-color="#fff" result="bg"/><feBlend in="SourceGraphic" in2="bg"/></filter><mask id="mask-3" x="15.83" y="38.65" width="460.69" height="13.54" maskUnits="userSpaceOnUse"><g class="cls-1"><polygon class="cls-2" points="476.52 52.19 15.83 52.19 15.83 38.65 459 38.65 476.52 52.19"/></g></mask><linearGradient id="New_Gradient_Swatch_5-13" x1="15.83" y1="45.42" x2="476.52" y2="45.42" xlink:href="#New_Gradient_Swatch_5"/><filter id="luminosity-noclip-4" x="15.83" y="102.99" width="460.69" height="26.28" filterUnits="userSpaceOnUse" color-interpolation-filters="sRGB"><feFlood flood-color="#fff" result="bg"/><feBlend in="SourceGraphic" in2="bg"/></filter><mask id="mask-4" x="15.83" y="102.99" width="460.69" height="26.28" maskUnits="userSpaceOnUse"><g class="cls-3"><rect class="cls-4" x="15.83" y="102.99" width="460.69" height="26.28"/></g></mask><linearGradient id="New_Gradient_Swatch_5-14" x1="15.83" y1="116.13" x2="476.52" y2="116.13" xlink:href="#New_Gradient_Swatch_5"/><linearGradient id="New_Gradient_Swatch_5-15" x1="223.17" y1="77.59" x2="267.01" y2="77.59" xlink:href="#New_Gradient_Swatch_5"/><linearGradient id="New_Gradient_Swatch_5-16" x1="148.36" y1="77.59" x2="192.2" y2="77.59" xlink:href="#New_Gradient_Swatch_5"/><linearGradient id="New_Gradient_Swatch_5-17" x1="185.77" y1="77.59" x2="229.6" y2="77.59" xlink:href="#New_Gradient_Swatch_5"/><linearGradient id="New_Gradient_Swatch_5-18" x1="447.59" y1="77.59" x2="476.52" y2="77.59" xlink:href="#New_Gradient_Swatch_5"/><linearGradient id="New_Gradient_Swatch_5-19" x1="36.15" y1="77.59" x2="79.98" y2="77.59" xlink:href="#New_Gradient_Swatch_5"/><linearGradient id="New_Gradient_Swatch_5-20" x1="73.55" y1="77.59" x2="117.39" y2="77.59" xlink:href="#New_Gradient_Swatch_5"/><linearGradient id="New_Gradient_Swatch_5-21" x1="110.96" y1="77.59" x2="154.79" y2="77.59" xlink:href="#New_Gradient_Swatch_5"/><linearGradient id="New_Gradient_Swatch_5-22" x1="260.57" y1="77.59" x2="304.41" y2="77.59" xlink:href="#New_Gradient_Swatch_5"/><linearGradient id="New_Gradient_Swatch_5-23" x1="410.19" y1="77.59" x2="454.03" y2="77.59" xlink:href="#New_Gradient_Swatch_5"/><linearGradient id="New_Gradient_Swatch_5-24" x1="15.83" y1="77.59" x2="42.58" y2="77.59" xlink:href="#New_Gradient_Swatch_5"/><linearGradient id="New_Gradient_Swatch_5-25" x1="372.79" y1="77.59" x2="416.62" y2="77.59" xlink:href="#New_Gradient_Swatch_5"/><linearGradient id="New_Gradient_Swatch_5-26" x1="297.98" y1="77.59" x2="341.81" y2="77.59" xlink:href="#New_Gradient_Swatch_5"/><linearGradient id="New_Gradient_Swatch_5-27" x1="335.38" y1="77.59" x2="379.22" y2="77.59" xlink:href="#New_Gradient_Swatch_5"/><linearGradient id="New_Gradient_Swatch_5-28" x1="223.17" y1="152.17" x2="267.01" y2="152.17" xlink:href="#New_Gradient_Swatch_5"/><linearGradient id="New_Gradient_Swatch_5-29" x1="148.36" y1="152.17" x2="192.2" y2="152.17" xlink:href="#New_Gradient_Swatch_5"/><linearGradient id="New_Gradient_Swatch_5-30" x1="185.77" y1="152.17" x2="229.6" y2="152.17" xlink:href="#New_Gradient_Swatch_5"/><linearGradient id="New_Gradient_Swatch_5-31" x1="447.59" y1="152.17" x2="476.52" y2="152.17" xlink:href="#New_Gradient_Swatch_5"/><linearGradient id="New_Gradient_Swatch_5-32" x1="36.15" y1="152.17" x2="79.98" y2="152.17" xlink:href="#New_Gradient_Swatch_5"/><linearGradient id="New_Gradient_Swatch_5-33" x1="73.55" y1="152.17" x2="117.39" y2="152.17" xlink:href="#New_Gradient_Swatch_5"/><linearGradient id="New_Gradient_Swatch_5-34" x1="110.96" y1="152.17" x2="154.79" y2="152.17" xlink:href="#New_Gradient_Swatch_5"/><linearGradient id="New_Gradient_Swatch_5-35" x1="260.57" y1="152.17" x2="304.41" y2="152.17" xlink:href="#New_Gradient_Swatch_5"/><linearGradient id="New_Gradient_Swatch_5-36" x1="410.19" y1="152.17" x2="454.03" y2="152.17" xlink:href="#New_Gradient_Swatch_5"/><linearGradient id="New_Gradient_Swatch_5-37" x1="15.83" y1="152.17" x2="42.58" y2="152.17" xlink:href="#New_Gradient_Swatch_5"/><linearGradient id="New_Gradient_Swatch_5-38" x1="372.79" y1="152.17" x2="416.62" y2="152.17" xlink:href="#New_Gradient_Swatch_5"/><linearGradient id="New_Gradient_Swatch_5-39" x1="297.98" y1="152.17" x2="341.81" y2="152.17" xlink:href="#New_Gradient_Swatch_5"/><linearGradient id="New_Gradient_Swatch_5-40" x1="335.38" y1="152.17" x2="379.22" y2="152.17" xlink:href="#New_Gradient_Swatch_5"/><linearGradient id="New_Gradient_Swatch_5-41" x1="7.43" y1="94.13" x2="482.2" y2="94.13" xlink:href="#New_Gradient_Swatch_5"/><linearGradient id="New_Gradient_Swatch_5-42" x1="296.2" y1="93.22" x2="490.54" y2="93.22" xlink:href="#New_Gradient_Swatch_5"/><linearGradient id="New_Gradient_Swatch_5-43" x1="421.41" y1="10.15" x2="489.93" y2="10.15" xlink:href="#New_Gradient_Swatch_5"/><linearGradient id="New_Gradient_Swatch_5-44" x1="40.02" y1="177.8" x2="132.18" y2="177.8" xlink:href="#New_Gradient_Swatch_5"/><linearGradient id="New_Gradient_Swatch_5-45" x1="0" y1="102.31" x2="7.88" y2="102.31" xlink:href="#New_Gradient_Swatch_5"/></defs><title>menu_15_green_blue</title><g id="Layer_2" data-name="Layer 2"><g id="Layer_1-2" data-name="Layer 1"><path class="cls-5" d="M83.94,12.72H76V.08h1.68V11.23h6.31Z"/><path class="cls-6" d="M93.57,8a5.32,5.32,0,0,1-1.19,3.66,4.46,4.46,0,0,1-6.37,0A5.32,5.32,0,0,1,84.82,8,5.36,5.36,0,0,1,86,4.32a4.46,4.46,0,0,1,6.37,0A5.36,5.36,0,0,1,93.57,8ZM91.92,8a4.32,4.32,0,0,0-.72-2.73,2.69,2.69,0,0,0-4,0A4.39,4.39,0,0,0,86.47,8a4.36,4.36,0,0,0,.72,2.71,2.42,2.42,0,0,0,2,.92,2.44,2.44,0,0,0,2-.91A4.35,4.35,0,0,0,91.92,8Z"/><path class="cls-7" d="M102,5h-.08a4.55,4.55,0,0,0-.69-.12,6.27,6.27,0,0,0-.8,0A3.25,3.25,0,0,0,99,5.15,6.57,6.57,0,0,0,97.63,6v6.73H96V3.24h1.59v1.4a8,8,0,0,1,1.68-1.08,3.69,3.69,0,0,1,1.48-.32l.6,0,.56.08Z"/><path class="cls-8" d="M111.39,8.15h-7a3.94,3.94,0,0,0,.26,1.52,2.81,2.81,0,0,0,.72,1.06,2.76,2.76,0,0,0,1,.62,4.31,4.31,0,0,0,1.33.2,5.22,5.22,0,0,0,2-.39,4.59,4.59,0,0,0,1.4-.76h.08v1.74a11.78,11.78,0,0,1-1.64.57,6.81,6.81,0,0,1-1.77.23,5.08,5.08,0,0,1-3.68-1.28A4.8,4.8,0,0,1,102.79,8a5.27,5.27,0,0,1,1.26-3.7A4.35,4.35,0,0,1,107.39,3a3.82,3.82,0,0,1,3,1.12,4.53,4.53,0,0,1,1,3.18Zm-1.55-1.23A2.83,2.83,0,0,0,109.2,5a2.4,2.4,0,0,0-1.89-.69,2.76,2.76,0,0,0-2,.76,2.87,2.87,0,0,0-.86,1.87Z"/><path class="cls-9" d="M127.64,12.72H126V7.32A11.4,11.4,0,0,0,126,6.14a2.66,2.66,0,0,0-.23-.9,1.32,1.32,0,0,0-.56-.56,2.5,2.5,0,0,0-1.06-.18,3,3,0,0,0-1.34.33,8.85,8.85,0,0,0-1.34.86c0,.13,0,.28,0,.45a4.35,4.35,0,0,1,0,.51v6.07h-1.59V7.32a11.28,11.28,0,0,0-.06-1.19,2.45,2.45,0,0,0-.23-.9,1.24,1.24,0,0,0-.56-.55,2.48,2.48,0,0,0-1-.18,2.91,2.91,0,0,0-1.32.32,8.27,8.27,0,0,0-1.31.82v7.08h-1.59V3.24h1.59v1a7.19,7.19,0,0,1,1.49-1A3.62,3.62,0,0,1,118.48,3a3.05,3.05,0,0,1,1.64.41,2.47,2.47,0,0,1,1,1.12,8.11,8.11,0,0,1,1.77-1.17,4.08,4.08,0,0,1,1.7-.36,2.77,2.77,0,0,1,2.31.94,4.26,4.26,0,0,1,.74,2.65Z"/><path class="cls-10" d="M138.53,1.65h-1.79V0h1.79Zm-.1,11.07h-1.59V3.24h1.59Z"/><path class="cls-11" d="M148.36,10a2.61,2.61,0,0,1-1.07,2.13,4.72,4.72,0,0,1-2.93.83,6.84,6.84,0,0,1-1.93-.25,8.77,8.77,0,0,1-1.48-.55V10.36H141a6.16,6.16,0,0,0,1.68.9,5,5,0,0,0,1.77.34,3.32,3.32,0,0,0,1.65-.34,1.15,1.15,0,0,0,.59-1.07,1.12,1.12,0,0,0-.32-.85,3,3,0,0,0-1.24-.49l-.89-.18c-.36-.07-.69-.14-1-.22a3.31,3.31,0,0,1-1.77-1A2.4,2.4,0,0,1,141,5.91a2.55,2.55,0,0,1,1-2,3.38,3.38,0,0,1,1.21-.63A5.28,5.28,0,0,1,144.82,3a7.29,7.29,0,0,1,1.72.21,6.57,6.57,0,0,1,1.45.51v1.7h-.09a5.7,5.7,0,0,0-1.48-.76,5,5,0,0,0-1.72-.31,2.91,2.91,0,0,0-1.47.34,1.06,1.06,0,0,0-.6,1,1.1,1.1,0,0,0,.36.89,2.91,2.91,0,0,0,1.15.48c.3.07.63.14,1,.2l.91.19a3.38,3.38,0,0,1,1.72.87A2.33,2.33,0,0,1,148.36,10Z"/><path class="cls-12" d="M159,7.87a6.33,6.33,0,0,1-.34,2.1,4.59,4.59,0,0,1-.93,1.62,3.94,3.94,0,0,1-2.93,1.32,4.83,4.83,0,0,1-2.55-.67v4h-1.6v-13h1.6v1a6.27,6.27,0,0,1,1.43-.89A4,4,0,0,1,155.36,3,3.14,3.14,0,0,1,158,4.27,6,6,0,0,1,159,7.87Zm-1.65,0a4.52,4.52,0,0,0-.59-2.56A2,2,0,0,0,155,4.5a3.68,3.68,0,0,0-1.38.29,6.06,6.06,0,0,0-1.33.79V11a6.13,6.13,0,0,0,1.17.41,4.6,4.6,0,0,0,1.1.11,2.56,2.56,0,0,0,2.08-.9A4.06,4.06,0,0,0,157.34,7.91Z"/><path class="cls-13" d="M169.33,12.72h-1.6V11.67a7.47,7.47,0,0,1-1.54,1,3.81,3.81,0,0,1-1.63.34,3,3,0,0,1-2.32-.91,3.83,3.83,0,0,1-.84-2.68V3.24H163v5.4a8.69,8.69,0,0,0,.07,1.23,2.08,2.08,0,0,0,.29.88,1.33,1.33,0,0,0,.59.54,2.49,2.49,0,0,0,1.06.17,3.3,3.3,0,0,0,1.35-.32,6.14,6.14,0,0,0,1.37-.82V3.24h1.6Z"/><path class="cls-14" d="M186.3,12.72h-1.6V7.32a11.4,11.4,0,0,0,0-1.18,2.45,2.45,0,0,0-.23-.9,1.32,1.32,0,0,0-.56-.56,2.5,2.5,0,0,0-1.06-.18,3,3,0,0,0-1.34.33,8.85,8.85,0,0,0-1.34.86c0,.13,0,.28,0,.45s0,.34,0,.51v6.07h-1.59V7.32a11.28,11.28,0,0,0-.06-1.19,2.45,2.45,0,0,0-.23-.9,1.24,1.24,0,0,0-.56-.55,2.48,2.48,0,0,0-1.05-.18,2.84,2.84,0,0,0-1.31.32,7.91,7.91,0,0,0-1.32.82v7.08h-1.59V3.24h1.59v1a7.19,7.19,0,0,1,1.49-1A3.62,3.62,0,0,1,177.14,3a3.05,3.05,0,0,1,1.64.41,2.47,2.47,0,0,1,1,1.12,8.11,8.11,0,0,1,1.77-1.17,4.08,4.08,0,0,1,1.7-.36,2.77,2.77,0,0,1,2.31.94,4.26,4.26,0,0,1,.74,2.65Z"/><path class="cls-15" d="M60,30.39H8.56a.91.91,0,0,1,0-1.82H59.64l14.1-11.15a.92.92,0,0,1,.57-.2H283.25a.91.91,0,1,1,0,1.82H74.62L60.52,30.19A.89.89,0,0,1,60,30.39Z"/><polygon class="cls-16" points="244.5 17.7 254.84 13.11 281.82 13.11 283.25 17.7 244.5 17.7"/><g class="cls-17"><polygon class="cls-18" points="476.52 52.19 15.83 52.19 15.83 38.65 459 38.65 476.52 52.19"/></g><g class="cls-19"><rect class="cls-20" x="15.83" y="102.99" width="460.69" height="26.28"/></g><polygon class="cls-21" points="252.22 64.45 223.17 64.45 237.95 90.73 267 90.73 252.22 64.45"/><polygon class="cls-22" points="177.42 64.45 148.36 64.45 163.14 90.73 192.2 90.73 177.42 64.45"/><polygon class="cls-23" points="214.82 64.45 185.77 64.45 200.54 90.73 229.6 90.73 214.82 64.45"/><polygon class="cls-24" points="462.37 90.73 476.52 90.73 476.52 64.45 447.59 64.45 462.37 90.73"/><polygon class="cls-25" points="50.93 90.73 79.98 90.73 65.2 64.45 36.15 64.45 50.93 90.73"/><polygon class="cls-26" points="102.61 64.45 73.55 64.45 88.33 90.73 117.39 90.73 102.61 64.45"/><polygon class="cls-27" points="140.01 64.45 110.96 64.45 125.74 90.73 154.79 90.73 140.01 64.45"/><polygon class="cls-28" points="289.63 64.45 260.57 64.45 275.35 90.73 304.41 90.73 289.63 64.45"/><polygon class="cls-29" points="439.25 64.45 410.19 64.45 424.97 90.73 454.03 90.73 439.25 64.45"/><polygon class="cls-30" points="27.8 64.45 15.83 64.45 15.83 90.73 42.58 90.73 27.8 64.45"/><polygon class="cls-31" points="401.84 64.45 372.79 64.45 387.57 90.73 416.62 90.73 401.84 64.45"/><polygon class="cls-32" points="327.03 64.45 297.98 64.45 312.76 90.73 341.81 90.73 327.03 64.45"/><polygon class="cls-33" points="364.44 64.45 335.38 64.45 350.16 90.73 379.22 90.73 364.44 64.45"/><polygon class="cls-34" points="252.22 165.31 223.17 165.31 237.95 139.03 267 139.03 252.22 165.31"/><polygon class="cls-35" points="177.42 165.31 148.36 165.31 163.14 139.03 192.2 139.03 177.42 165.31"/><polygon class="cls-36" points="214.82 165.31 185.77 165.31 200.54 139.03 229.6 139.03 214.82 165.31"/><polygon class="cls-37" points="462.37 139.03 476.52 139.03 476.52 165.31 447.59 165.31 462.37 139.03"/><polygon class="cls-38" points="50.93 139.03 79.98 139.03 65.2 165.31 36.15 165.31 50.93 139.03"/><polygon class="cls-39" points="102.61 165.31 73.55 165.31 88.33 139.03 117.39 139.03 102.61 165.31"/><polygon class="cls-40" points="140.01 165.31 110.96 165.31 125.74 139.03 154.79 139.03 140.01 165.31"/><polygon class="cls-41" points="289.63 165.31 260.57 165.31 275.35 139.03 304.41 139.03 289.63 165.31"/><polygon class="cls-42" points="439.25 165.31 410.19 165.31 424.97 139.03 454.03 139.03 439.25 165.31"/><polygon class="cls-43" points="27.8 165.31 15.83 165.31 15.83 139.03 42.58 139.03 27.8 165.31"/><polygon class="cls-44" points="401.84 165.31 372.79 165.31 387.57 139.03 416.62 139.03 401.84 165.31"/><polygon class="cls-45" points="327.03 165.31 297.98 165.31 312.76 139.03 341.81 139.03 327.03 165.31"/><polygon class="cls-46" points="364.44 165.31 335.38 165.31 350.16 139.03 379.22 139.03 364.44 165.31"/><path class="cls-47" d="M137,174.62H7.88a.45.45,0,0,1-.45-.45V30.46A.45.45,0,0,1,7.88,30h270l25.35-16.3a.43.43,0,0,1,.25-.07H481.74a.46.46,0,0,1,.46.45.47.47,0,0,1-.46.46H303.61L278.26,30.84a.46.46,0,0,1-.25.08H8.34V173.71H137a.46.46,0,0,1,.46.46A.45.45,0,0,1,137,174.62Z"/><polygon class="cls-48" points="308.02 18.34 490.54 18.34 490.54 168.1 486.9 165.07 486.9 86.25 485.08 78.97 485.08 26.22 477.8 22.58 343.19 22.58 338.34 25.61 296.2 25.61 308.02 18.34"/><polygon class="cls-49" points="489.93 14.09 489.93 6.21 421.41 6.21 432.93 9.85 486.9 9.85 486.9 14.09 489.93 14.09"/><polygon class="cls-50" points="40.02 174.77 55.18 180.84 98.23 180.84 104.29 177.2 129.15 177.2 132.18 174.77 40.02 174.77"/><polygon class="cls-51" points="7.88 30.46 4.24 35.92 4.24 49.87 0 54.11 0 112.92 3.64 120.81 3.64 163.25 7.88 174.17 7.88 30.46"/></g></g></svg>