<svg xmlns="http://www.w3.org/2000/svg" viewBox="0 0 491.4 234.74"><defs><style>.cls-1,.cls-2,.cls-3,.cls-4,.cls-5,.cls-6,.cls-7,.cls-8{fill:#11e5b3;}.cls-1{opacity:0.5;}.cls-2{opacity:0.7;}.cls-4{opacity:0.8;}.cls-5{opacity:0.6;}.cls-6{opacity:0.4;}.cls-7{opacity:0.2;}.cls-8{opacity:0.1;}</style></defs><title>menu_11_green</title><g id="Layer_2" data-name="Layer 2"><g id="Layer_1-2" data-name="Layer 1"><polygon class="cls-1" points="474.56 85.18 480.08 79.66 425.18 80.22 413.29 89.84 467.65 91.23 482.34 126.36 481.78 223.99 489.14 214.93 489.14 175.88 491.4 165.69 491.4 122.67 474.56 85.18"/><polygon class="cls-1" points="65.97 208.16 9.06 208.16 9.62 111.28 2.26 120.33 2.26 159.39 0 169.57 0 212.59 4.44 222.46 14.73 222.46 11.61 215 58.12 214.52 65.97 208.16"/><polygon class="cls-2" points="244.39 225.41 244.39 225.68 197.87 225.41 147.86 225.41 156.56 232.47 195.61 232.47 205.8 234.74 248.81 234.74 258.69 230.3 258.69 225.41 244.39 225.41"/><polygon class="cls-3" points="39 52.07 39.14 52.16 25.05 75.71 10.06 101.11 16.25 98.81 27.97 78.97 32.17 74.48 45.07 52.62 45.78 46.28 43.29 44.81 39 52.07"/><polygon class="cls-2" points="24.28 109.37 24.35 109.41 16.76 122.11 8.67 135.81 12.01 134.57 18.33 123.87 20.59 121.45 27.55 109.66 27.93 106.24 26.59 105.45 24.28 109.37"/><polygon class="cls-2" points="24.28 166.57 24.35 166.62 16.76 179.31 8.67 193.01 12.01 191.77 18.33 181.07 20.59 178.65 27.55 166.87 27.93 163.44 26.59 162.65 24.28 166.57"/><polygon class="cls-3" points="39 7.26 39.14 7.35 25.05 30.9 10.06 56.3 16.25 54.01 27.97 34.16 32.17 29.67 45.07 7.82 45.78 1.47 43.29 0 39 7.26"/><polygon class="cls-3" points="476.27 225.27 460.07 225.27 468.77 233.5 484.95 233.5 476.27 225.27"/><polygon class="cls-3" points="473.93 170.75 473.93 162.65 469.82 167 469.82 175.09 473.93 170.75"/><path class="cls-3" d="M473.85,171a.47.47,0,0,1-.47-.47V129.74L460.7,96.17H439.89a.48.48,0,0,1,0-1H461a.48.48,0,0,1,.45.3l12.83,34a.51.51,0,0,1,0,.17v40.87A.47.47,0,0,1,473.85,171Z"/><path class="cls-3" d="M374.91,201h-7.77V188.73h1.63v10.83h6.14Z"/><path class="cls-3" d="M384.27,196.41a5.18,5.18,0,0,1-1.15,3.56,4.35,4.35,0,0,1-6.2,0,6.09,6.09,0,0,1,0-7.12,4.32,4.32,0,0,1,6.2,0A5.18,5.18,0,0,1,384.27,196.41Zm-1.6,0a4.19,4.19,0,0,0-.7-2.66,2.63,2.63,0,0,0-3.91,0,4.25,4.25,0,0,0-.69,2.66,4.21,4.21,0,0,0,.7,2.63,2.58,2.58,0,0,0,3.89,0A4.14,4.14,0,0,0,382.67,196.41Z"/><path class="cls-3" d="M392.42,193.49h-.08a4.31,4.31,0,0,0-.67-.12,5.88,5.88,0,0,0-.77,0,3.25,3.25,0,0,0-1.39.32,6.66,6.66,0,0,0-1.29.82V201h-1.55V191.8h1.55v1.36a7.27,7.27,0,0,1,1.63-1,3.49,3.49,0,0,1,1.44-.31,4.47,4.47,0,0,1,.59,0l.54.08Z"/><path class="cls-3" d="M401.6,196.57h-6.79a4,4,0,0,0,.25,1.48,2.85,2.85,0,0,0,.7,1,2.9,2.9,0,0,0,1,.6,4.17,4.17,0,0,0,1.3.19,5.08,5.08,0,0,0,1.89-.37,4.67,4.67,0,0,0,1.36-.74h.08v1.69a11.19,11.19,0,0,1-1.6.55,6.36,6.36,0,0,1-1.71.23,5,5,0,0,1-3.58-1.24,4.68,4.68,0,0,1-1.29-3.53,5.08,5.08,0,0,1,1.23-3.59,4.23,4.23,0,0,1,3.25-1.33,3.74,3.74,0,0,1,2.88,1.09,4.41,4.41,0,0,1,1,3.09Zm-1.51-1.19a2.72,2.72,0,0,0-.62-1.89,2.34,2.34,0,0,0-1.84-.67,2.75,2.75,0,0,0-2,.73,2.83,2.83,0,0,0-.83,1.83Z"/><path class="cls-3" d="M417.39,201h-1.55v-5.24a10.71,10.71,0,0,0,0-1.15,2.39,2.39,0,0,0-.23-.88,1.18,1.18,0,0,0-.54-.54,2.33,2.33,0,0,0-1-.18,3,3,0,0,0-1.31.32,8.56,8.56,0,0,0-1.3.83c0,.13,0,.28,0,.44s0,.34,0,.5V201H409.9v-5.24a10.57,10.57,0,0,0-.06-1.16,2.21,2.21,0,0,0-.23-.88,1.11,1.11,0,0,0-.54-.53,2.33,2.33,0,0,0-1-.18,2.87,2.87,0,0,0-1.28.31,8.08,8.08,0,0,0-1.27.8V201H404V191.8h1.55v1a6.74,6.74,0,0,1,1.45-.94,3.49,3.49,0,0,1,1.53-.34,3,3,0,0,1,1.6.4,2.46,2.46,0,0,1,1,1.09,8.42,8.42,0,0,1,1.71-1.14,4.05,4.05,0,0,1,1.66-.35,2.68,2.68,0,0,1,2.24.92,4.09,4.09,0,0,1,.72,2.57Z"/><path class="cls-3" d="M428,190.25h-1.75v-1.6H428Zm-.1,10.76h-1.55V191.8h1.55Z"/><path class="cls-3" d="M437.54,198.36a2.52,2.52,0,0,1-1,2.07,4.55,4.55,0,0,1-2.85.81,7,7,0,0,1-1.88-.25,8.2,8.2,0,0,1-1.43-.53v-1.74h.08a6.41,6.41,0,0,0,1.63.88,5,5,0,0,0,1.73.32,3.26,3.26,0,0,0,1.6-.33,1.12,1.12,0,0,0,.58-1,1,1,0,0,0-.32-.82,2.76,2.76,0,0,0-1.2-.48l-.86-.17c-.36-.07-.68-.14-1-.22a3.22,3.22,0,0,1-1.72-.94,2.35,2.35,0,0,1-.51-1.53,2.53,2.53,0,0,1,.95-2,3.42,3.42,0,0,1,1.17-.62,5.33,5.33,0,0,1,1.6-.23,6.88,6.88,0,0,1,1.67.21,6.22,6.22,0,0,1,1.41.49v1.66h-.08a5.33,5.33,0,0,0-1.45-.74,4.94,4.94,0,0,0-1.66-.3,3,3,0,0,0-1.44.32,1.05,1.05,0,0,0-.59,1,1,1,0,0,0,.36.86,2.76,2.76,0,0,0,1.12.47l1,.2c.36.06.65.12.89.18a3.31,3.31,0,0,1,1.67.85A2.25,2.25,0,0,1,437.54,198.36Z"/><path class="cls-3" d="M447.87,196.29a6.3,6.3,0,0,1-.32,2.05,4.62,4.62,0,0,1-.91,1.58,3.77,3.77,0,0,1-2.85,1.27,5.13,5.13,0,0,1-1.29-.15,5.65,5.65,0,0,1-1.19-.49v3.86h-1.55V191.8h1.55v1a6.53,6.53,0,0,1,1.39-.87,4,4,0,0,1,1.65-.35,3,3,0,0,1,2.59,1.26A5.77,5.77,0,0,1,447.87,196.29Zm-1.6.05a4.42,4.42,0,0,0-.57-2.5A2,2,0,0,0,444,193a3.27,3.27,0,0,0-1.34.29,5.73,5.73,0,0,0-1.3.76v5.22a5.83,5.83,0,0,0,1.14.4,4.89,4.89,0,0,0,1.07.11,2.47,2.47,0,0,0,2-.87A4,4,0,0,0,446.27,196.34Z"/><path class="cls-3" d="M457.93,201h-1.55v-1a7.9,7.9,0,0,1-1.51.95,3.69,3.69,0,0,1-1.58.33,2.91,2.91,0,0,1-2.26-.89,3.73,3.73,0,0,1-.81-2.6v-6h1.55V197a8.24,8.24,0,0,0,.07,1.2,2.18,2.18,0,0,0,.28.86,1.34,1.34,0,0,0,.58.53,2.52,2.52,0,0,0,1,.16,3.23,3.23,0,0,0,1.31-.31,6.51,6.51,0,0,0,1.34-.8V191.8h1.55Z"/><path class="cls-3" d="M474.43,201h-1.55v-5.24a10.65,10.65,0,0,0-.06-1.15,2.4,2.4,0,0,0-.22-.88,1.25,1.25,0,0,0-.55-.54,2.33,2.33,0,0,0-1-.18,3,3,0,0,0-1.31.32,9.09,9.09,0,0,0-1.3.83c0,.13,0,.28,0,.44s0,.34,0,.5V201h-1.55v-5.24a10.57,10.57,0,0,0-.06-1.16,2.4,2.4,0,0,0-.22-.88,1.18,1.18,0,0,0-.55-.53,2.27,2.27,0,0,0-1-.18,2.9,2.9,0,0,0-1.28.31,8.08,8.08,0,0,0-1.27.8V201H461V191.8h1.55v1a7,7,0,0,1,1.45-.94,3.5,3.5,0,0,1,1.54-.34,3,3,0,0,1,1.59.4,2.41,2.41,0,0,1,1,1.09,8.19,8.19,0,0,1,1.72-1.14,4,4,0,0,1,1.65-.35,2.67,2.67,0,0,1,2.24.92,4,4,0,0,1,.73,2.57Z"/><rect class="cls-3" x="114.47" y="25.03" width="16.21" height="39.09" rx="1.91"/><rect class="cls-4" x="133.96" y="39.98" width="10.01" height="24.14" rx="1.18"/><rect class="cls-5" x="147.78" y="39.98" width="10.01" height="24.14" rx="1.18"/><rect class="cls-6" x="161.61" y="39.98" width="10.01" height="24.14" rx="1.18"/><rect class="cls-7" x="175.43" y="39.98" width="10.01" height="24.14" rx="1.18"/><rect class="cls-8" x="189.26" y="39.98" width="10.01" height="24.14" rx="1.18"/><rect class="cls-4" x="133.96" y="98.69" width="10.01" height="24.14" rx="1.18"/><rect class="cls-5" x="147.78" y="98.69" width="10.01" height="24.14" rx="1.18"/><rect class="cls-6" x="161.61" y="98.69" width="10.01" height="24.14" rx="1.18"/><rect class="cls-7" x="175.43" y="98.69" width="10.01" height="24.14" rx="1.18"/><rect class="cls-8" x="189.26" y="98.69" width="10.01" height="24.14" rx="1.18"/><rect class="cls-4" x="133.96" y="157.8" width="10.01" height="24.14" rx="1.18"/><rect class="cls-5" x="147.78" y="157.8" width="10.01" height="24.14" rx="1.18"/><rect class="cls-6" x="161.61" y="157.8" width="10.01" height="24.14" rx="1.18"/><rect class="cls-7" x="175.43" y="157.8" width="10.01" height="24.14" rx="1.18"/><rect class="cls-8" x="189.26" y="157.8" width="10.01" height="24.14" rx="1.18"/><rect class="cls-3" x="114.57" y="83.75" width="16.21" height="39.09" rx="1.91"/><rect class="cls-3" x="114.57" y="142.86" width="16.21" height="39.09" rx="1.91"/><path class="cls-3" d="M106.23,64.12a1,1,0,0,1-1-1V25a1,1,0,0,1,1.9,0V63.17A.94.94,0,0,1,106.23,64.12Z"/><path class="cls-3" d="M106.23,182.34a1,1,0,0,1-1-1V143.25a.95.95,0,1,1,1.9,0v38.14A.94.94,0,0,1,106.23,182.34Z"/><path class="cls-3" d="M473.36,209.12H9.38a.48.48,0,0,1-.47-.48V102.5a.48.48,0,0,1,.06-.24L42.66,44.42a.46.46,0,0,1,.41-.24h63.56a.48.48,0,1,1,0,1H43.34L9.86,102.62V208.16h463.5a.48.48,0,1,1,0,1Z"/><path class="cls-3" d="M124.94,25a2.37,2.37,0,1,1-2.37-2.36A2.37,2.37,0,0,1,124.94,25Z"/><path class="cls-3" d="M125,182.9a2.37,2.37,0,1,1-2.36-2.37A2.36,2.36,0,0,1,125,182.9Z"/><polygon class="cls-3" points="148.43 224.8 123.16 198.46 123.16 183.22 122.2 183.22 122.2 197.46 122.2 198.84 122.2 199.11 122.45 199.11 148.02 225.75 476.69 225.75 476.69 224.8 148.43 224.8"/><polygon class="cls-3" points="27.78 69.83 9.76 56.22 42.58 0.09 122.92 0.09 122.92 23.92 121.96 23.92 121.96 1.04 43.09 1.04 11.07 55.98 28.33 69.06 27.78 69.83"/><polygon class="cls-3" points="10.07 190.75 9.33 190.3 26.62 161.97 106.47 161.97 106.47 162.83 27.1 162.83 10.07 190.75"/><path class="cls-3" d="M106.23,125.14a1,1,0,0,1-1-1V86.05a1,1,0,0,1,1.9,0v38.14A1,1,0,0,1,106.23,125.14Z"/><polygon class="cls-3" points="9.6 134.49 8.85 134.06 26.14 104.77 105.99 104.77 105.99 105.63 26.63 105.63 9.6 134.49"/></g></g></svg>