<svg xmlns="http://www.w3.org/2000/svg" xmlns:xlink="http://www.w3.org/1999/xlink" viewBox="0 0 496.79 97.88"><defs><style>.cls-1{mask:url(#mask);filter:url(#luminosity-noclip-3);}.cls-2,.cls-4{mix-blend-mode:multiply;}.cls-2{fill:url(#Безымянный_градиент_107);}.cls-3{mask:url(#mask-2);filter:url(#luminosity-noclip-4);}.cls-4{fill:url(#Безымянный_градиент_107-2);}.cls-11,.cls-12,.cls-13,.cls-14,.cls-15,.cls-16,.cls-17,.cls-18,.cls-19,.cls-20,.cls-21,.cls-5,.cls-8{fill:#00d0ff;}.cls-6{mask:url(#mask-3);}.cls-10,.cls-12,.cls-7{opacity:0.6;}.cls-7{fill:url(#Безымянный_градиент_36);}.cls-8{opacity:0.2;}.cls-9{mask:url(#mask-4);}.cls-10{fill:url(#Безымянный_градиент_36-2);}.cls-11{opacity:0.7;}.cls-13{opacity:0.4;}.cls-14{opacity:0.3;}.cls-15{opacity:0.9;}.cls-16{opacity:0.8;}.cls-17{opacity:0.5;}.cls-18{opacity:0.03;}.cls-19{opacity:0.09;}.cls-20{opacity:0.1;}.cls-21{opacity:0.05;}.cls-22{filter:url(#luminosity-noclip-2);}.cls-23{filter:url(#luminosity-noclip);}</style><filter id="luminosity-noclip" x="0" y="-8243.27" width="380.32" height="32766" filterUnits="userSpaceOnUse" color-interpolation-filters="sRGB"><feFlood flood-color="#fff" result="bg"/><feBlend in="SourceGraphic" in2="bg"/></filter><mask id="mask" x="0" y="-8243.27" width="380.32" height="32766" maskUnits="userSpaceOnUse"><g class="cls-23"/></mask><linearGradient id="Безымянный_градиент_107" y1="31.67" x2="380.32" y2="31.67" gradientUnits="userSpaceOnUse"><stop offset="0" stop-color="#fff"/><stop offset="0.15" stop-color="#cecece"/><stop offset="0.38" stop-color="#868686"/><stop offset="0.59" stop-color="#4c4c4c"/><stop offset="0.77" stop-color="#232323"/><stop offset="0.92" stop-color="#090909"/><stop offset="1"/></linearGradient><filter id="luminosity-noclip-2" x="268.13" y="-8243.27" width="103" height="32766" filterUnits="userSpaceOnUse" color-interpolation-filters="sRGB"><feFlood flood-color="#fff" result="bg"/><feBlend in="SourceGraphic" in2="bg"/></filter><mask id="mask-2" x="268.13" y="-8243.27" width="103" height="32766" maskUnits="userSpaceOnUse"><g class="cls-22"/></mask><linearGradient id="Безымянный_градиент_107-2" x1="268.13" y1="57.34" x2="371.13" y2="57.34" xlink:href="#Безымянный_градиент_107"/><filter id="luminosity-noclip-3" x="0" y="5.46" width="380.32" height="52.42" filterUnits="userSpaceOnUse" color-interpolation-filters="sRGB"><feFlood flood-color="#fff" result="bg"/><feBlend in="SourceGraphic" in2="bg"/></filter><mask id="mask-3" x="0" y="5.46" width="380.32" height="52.42" maskUnits="userSpaceOnUse"><g class="cls-1"><polygon class="cls-2" points="380.32 5.46 52.42 5.46 0 57.88 327.9 57.88 380.32 5.46"/></g></mask><linearGradient id="Безымянный_градиент_36" y1="31.67" x2="380.32" y2="31.67" gradientUnits="userSpaceOnUse"><stop offset="0" stop-color="#00d0ff"/><stop offset="0.16" stop-color="#03caec"/><stop offset="0.53" stop-color="#09bec3"/><stop offset="0.82" stop-color="#0db6a9"/><stop offset="1" stop-color="#0eb3a0"/></linearGradient><filter id="luminosity-noclip-4" x="268.13" y="50.24" width="103" height="14.2" filterUnits="userSpaceOnUse" color-interpolation-filters="sRGB"><feFlood flood-color="#fff" result="bg"/><feBlend in="SourceGraphic" in2="bg"/></filter><mask id="mask-4" x="268.13" y="50.24" width="103" height="14.2" maskUnits="userSpaceOnUse"><g class="cls-3"><polygon class="cls-4" points="371.13 50.24 282.33 50.24 268.13 64.44 356.93 64.44 371.13 50.24"/></g></mask><linearGradient id="Безымянный_градиент_36-2" x1="268.13" y1="57.34" x2="371.13" y2="57.34" xlink:href="#Безымянный_градиент_36"/></defs><title>menu_09</title><g id="Layer_2" data-name="Layer 2"><g id="Layer_1-2" data-name="Layer 1"><path class="cls-5" d="M388.23,75.62h-7.6v-12h1.59V74.2h6Z"/><path class="cls-5" d="M397.39,71.12a5,5,0,0,1-1.13,3.48,4.25,4.25,0,0,1-6.06,0,5.94,5.94,0,0,1,0-7,4.23,4.23,0,0,1,6.06,0A5.07,5.07,0,0,1,397.39,71.12Zm-1.56,0a4.11,4.11,0,0,0-.69-2.61,2.57,2.57,0,0,0-3.82,0,5.27,5.27,0,0,0,0,5.18,2.54,2.54,0,0,0,3.82,0A4.09,4.09,0,0,0,395.83,71.12Z"/><path class="cls-5" d="M405.37,68.26h-.08l-.66-.12c-.21,0-.46,0-.76,0a3.06,3.06,0,0,0-1.35.31,5.68,5.68,0,0,0-1.26.8v6.4h-1.52v-9h1.52v1.34a7.1,7.1,0,0,1,1.59-1,3.52,3.52,0,0,1,1.41-.31l.58,0,.53.08Z"/><path class="cls-5" d="M414.35,71.27H407.7a3.8,3.8,0,0,0,.25,1.45,2.71,2.71,0,0,0,1.68,1.59,4,4,0,0,0,1.28.2,5.13,5.13,0,0,0,1.85-.37,5,5,0,0,0,1.33-.72h.08v1.65a11.2,11.2,0,0,1-1.57.54,6.14,6.14,0,0,1-1.68.22,4.84,4.84,0,0,1-3.5-1.21,4.58,4.58,0,0,1-1.26-3.46,4.94,4.94,0,0,1,1.21-3.51,4.14,4.14,0,0,1,3.17-1.3,3.66,3.66,0,0,1,2.82,1.07,4.29,4.29,0,0,1,1,3Zm-1.48-1.16a2.72,2.72,0,0,0-.6-1.85,2.32,2.32,0,0,0-1.81-.66,2.63,2.63,0,0,0-1.94.72,2.85,2.85,0,0,0-.82,1.79Z"/><path class="cls-5" d="M429.8,75.62h-1.51V70.49a10.42,10.42,0,0,0-.06-1.13,2.34,2.34,0,0,0-.22-.86,1.16,1.16,0,0,0-.53-.52,2.23,2.23,0,0,0-1-.18,2.76,2.76,0,0,0-1.28.32,7.49,7.49,0,0,0-1.27.81c0,.12,0,.27,0,.43s0,.33,0,.49v5.77h-1.51V70.49a10.33,10.33,0,0,0-.06-1.14,2.34,2.34,0,0,0-.22-.86,1.21,1.21,0,0,0-.53-.52,2.4,2.4,0,0,0-1-.17,2.75,2.75,0,0,0-1.25.31,7.12,7.12,0,0,0-1.25.78v6.73h-1.51v-9h1.51v1a7.42,7.42,0,0,1,1.42-.92,3.51,3.51,0,0,1,1.51-.33,3,3,0,0,1,1.56.39,2.4,2.4,0,0,1,1,1.07,8,8,0,0,1,1.68-1.11,3.91,3.91,0,0,1,1.63-.35,2.61,2.61,0,0,1,2.19.9,4,4,0,0,1,.7,2.52Z"/><path class="cls-5" d="M440.17,65.09h-1.71V63.52h1.71Zm-.1,10.53h-1.52v-9h1.52Z"/><path class="cls-5" d="M449.52,73a2.46,2.46,0,0,1-1,2,4.43,4.43,0,0,1-2.79.79,6.66,6.66,0,0,1-1.84-.24,8.15,8.15,0,0,1-1.4-.52v-1.7h.08a6.3,6.3,0,0,0,1.6.86,5,5,0,0,0,1.69.32,3.09,3.09,0,0,0,1.56-.33,1.07,1.07,0,0,0,.57-1,1,1,0,0,0-.31-.81,2.8,2.8,0,0,0-1.18-.47c-.21,0-.49-.11-.84-.17a9.7,9.7,0,0,1-.95-.21,3.18,3.18,0,0,1-1.68-.92,2.32,2.32,0,0,1-.5-1.5,2.43,2.43,0,0,1,.93-1.93,3.37,3.37,0,0,1,1.15-.6,5.07,5.07,0,0,1,1.56-.22,7.19,7.19,0,0,1,1.64.19,7,7,0,0,1,1.37.48v1.63h-.08a5.49,5.49,0,0,0-1.41-.73,5.06,5.06,0,0,0-1.63-.29,2.91,2.91,0,0,0-1.41.32,1.12,1.12,0,0,0-.22,1.79,2.8,2.8,0,0,0,1.1.46c.28.06.59.13.94.19s.63.12.86.18a3.19,3.19,0,0,1,1.63.83A2.17,2.17,0,0,1,449.52,73Z"/><path class="cls-5" d="M459.62,71a6.1,6.1,0,0,1-.31,2,4.49,4.49,0,0,1-.89,1.54,3.66,3.66,0,0,1-1.25.92,3.7,3.7,0,0,1-1.53.33,5.05,5.05,0,0,1-1.28-.15,6.13,6.13,0,0,1-1.15-.48V79h-1.52V66.6h1.52v1a5.68,5.68,0,0,1,1.36-.85,3.82,3.82,0,0,1,1.61-.35,3,3,0,0,1,2.54,1.23A5.74,5.74,0,0,1,459.62,71Zm-1.56,0a4.3,4.3,0,0,0-.56-2.43,1.93,1.93,0,0,0-1.71-.81,3.33,3.33,0,0,0-1.32.28,6.2,6.2,0,0,0-1.26.74v5.11a5.64,5.64,0,0,0,1.11.4,4.8,4.8,0,0,0,1.05.1,2.45,2.45,0,0,0,2-.85A3.92,3.92,0,0,0,458.06,71Z"/><path class="cls-5" d="M469.46,75.62H468v-1a7.72,7.72,0,0,1-1.47.93,3.77,3.77,0,0,1-1.55.32,2.82,2.82,0,0,1-2.21-.87,3.63,3.63,0,0,1-.8-2.54V66.6h1.52v5.14a7.81,7.81,0,0,0,.07,1.17,2.08,2.08,0,0,0,.27.84,1.33,1.33,0,0,0,.57.51,2.39,2.39,0,0,0,1,.17,3.27,3.27,0,0,0,1.28-.31,6.21,6.21,0,0,0,1.31-.78V66.6h1.51Z"/><path class="cls-5" d="M485.61,75.62h-1.52V70.49c0-.39,0-.76,0-1.13a2.56,2.56,0,0,0-.22-.86,1.18,1.18,0,0,0-.54-.52,2.2,2.2,0,0,0-1-.18,2.72,2.72,0,0,0-1.27.32,7.55,7.55,0,0,0-1.28.81c0,.12,0,.27,0,.43s0,.33,0,.49v5.77h-1.52V70.49c0-.4,0-.78,0-1.14a2.56,2.56,0,0,0-.22-.86,1.23,1.23,0,0,0-.54-.52,2.37,2.37,0,0,0-1-.17,2.71,2.71,0,0,0-1.24.31,6.77,6.77,0,0,0-1.25.78v6.73h-1.52v-9H474v1a6.85,6.85,0,0,1,1.42-.92,3.5,3.5,0,0,1,1.5-.33,2.94,2.94,0,0,1,1.56.39,2.42,2.42,0,0,1,1,1.07,7.55,7.55,0,0,1,1.68-1.11,3.87,3.87,0,0,1,1.62-.35,2.61,2.61,0,0,1,2.19.9,4,4,0,0,1,.71,2.52Z"/><g class="cls-6"><polygon class="cls-7" points="380.32 5.46 52.42 5.46 0 57.88 327.9 57.88 380.32 5.46"/></g><polygon class="cls-8" points="387.42 18.57 59.52 18.57 7.1 70.99 335 70.99 387.42 18.57"/><g class="cls-9"><polygon class="cls-10" points="371.13 50.24 282.33 50.24 268.13 64.44 356.93 64.44 371.13 50.24"/></g><path class="cls-5" d="M335,71.73H7.1a.75.75,0,0,1-.69-.46.73.73,0,0,1,.17-.8L59,18a.73.73,0,0,1,.52-.21h327.9a.74.74,0,0,1,.52,1.26L335.52,71.51A.75.75,0,0,1,335,71.73ZM8.89,70.25h325.8l50.94-50.94H59.83Z"/><path class="cls-5" d="M489.69,82.93H210.09a.77.77,0,0,1-.67-.42.78.78,0,0,1,.09-.79l8.74-10.92a.73.73,0,0,1,1-.11.74.74,0,0,1,.12,1l-7.78,9.72H489.69a.74.74,0,1,1,0,1.48Z"/><path class="cls-5" d="M496.79,82.73a4.1,4.1,0,1,1-4.1-4.09A4.11,4.11,0,0,1,496.79,82.73Z"/><polygon class="cls-11" points="286.96 86.28 275.46 86.28 263.89 97.88 275.39 97.88 286.96 86.28"/><polygon class="cls-12" points="309.15 86.28 297.65 86.28 286.08 97.88 297.58 97.88 309.15 86.28"/><polygon class="cls-13" points="353.53 86.28 342.03 86.28 330.46 97.88 341.96 97.88 353.53 86.28"/><polygon class="cls-14" points="375.72 86.28 364.22 86.28 352.65 97.88 364.15 97.88 375.72 86.28"/><polygon class="cls-15" points="242.58 86.28 231.07 86.28 219.5 97.88 231.01 97.88 242.58 86.28"/><polygon class="cls-5" points="197.31 97.88 208.82 97.88 220.39 86.28 208.88 86.28 197.31 97.88"/><polygon class="cls-16" points="264.77 86.28 253.27 86.28 241.7 97.88 253.2 97.88 264.77 86.28"/><polygon class="cls-17" points="331.34 86.28 319.84 86.28 308.27 97.88 319.77 97.88 331.34 86.28"/><polygon class="cls-18" points="486.68 86.28 475.17 86.28 463.6 97.88 475.11 97.88 486.68 86.28"/><polygon class="cls-19" points="442.3 86.28 430.79 86.28 419.22 97.88 430.73 97.88 442.3 86.28"/><polygon class="cls-20" points="420.11 86.28 408.6 86.28 397.03 97.88 408.54 97.88 420.11 86.28"/><polygon class="cls-21" points="464.49 86.28 452.98 86.28 441.41 97.88 452.92 97.88 464.49 86.28"/><polygon class="cls-8" points="397.92 86.28 386.41 86.28 374.84 97.88 386.35 97.88 397.92 86.28"/><polygon class="cls-11" points="107.85 0 96.34 0 84.77 11.6 96.28 11.6 107.85 0"/><polygon class="cls-12" points="130.04 0 118.53 0 106.96 11.6 118.47 11.6 130.04 0"/><polygon class="cls-13" points="174.42 0 162.91 0 151.34 11.6 162.85 11.6 174.42 0"/><polygon class="cls-14" points="196.61 0 185.1 0 173.53 11.6 185.04 11.6 196.61 0"/><polygon class="cls-15" points="63.47 0 51.96 0 40.39 11.6 51.9 11.6 63.47 0"/><polygon class="cls-5" points="18.2 11.6 29.7 11.6 41.27 0 29.77 0 18.2 11.6"/><polygon class="cls-16" points="85.66 0 74.15 0 62.58 11.6 74.09 11.6 85.66 0"/><polygon class="cls-17" points="152.23 0 140.72 0 129.15 11.6 140.66 11.6 152.23 0"/><polygon class="cls-18" points="307.56 0 296.06 0 284.49 11.6 295.99 11.6 307.56 0"/><polygon class="cls-19" points="263.18 0 251.68 0 240.1 11.6 251.61 11.6 263.18 0"/><polygon class="cls-20" points="240.99 0 229.48 0 217.91 11.6 229.42 11.6 240.99 0"/><polygon class="cls-21" points="285.37 0 273.87 0 262.3 11.6 273.8 11.6 285.37 0"/><polygon class="cls-8" points="218.8 0 207.29 0 195.72 11.6 207.23 11.6 218.8 0"/></g></g></svg>