<svg xmlns="http://www.w3.org/2000/svg" xmlns:xlink="http://www.w3.org/1999/xlink" viewBox="0 0 493.86 352.58"><defs><style>.cls-1{opacity:0.35;fill:url(#New_Gradient_Swatch_2);}.cls-2{fill:url(#New_Gradient_Swatch_2-2);}.cls-3{fill:url(#New_Gradient_Swatch_2-3);}.cls-4{fill:url(#New_Gradient_Swatch_2-4);}.cls-12,.cls-5{opacity:0.2;}.cls-5{fill:url(#New_Gradient_Swatch_2-5);}.cls-6{fill:url(#New_Gradient_Swatch_2-6);}.cls-10,.cls-7{opacity:0.6;}.cls-7{fill:url(#New_Gradient_Swatch_2-7);}.cls-14,.cls-8{opacity:0.8;}.cls-8{fill:url(#New_Gradient_Swatch_2-8);}.cls-11,.cls-9{opacity:0.4;}.cls-9{fill:url(#New_Gradient_Swatch_2-9);}.cls-10{fill:url(#New_Gradient_Swatch_2-10);}.cls-11{fill:url(#New_Gradient_Swatch_2-11);}.cls-12{fill:url(#New_Gradient_Swatch_2-12);}.cls-13{fill:url(#New_Gradient_Swatch_2-13);}.cls-14{fill:url(#New_Gradient_Swatch_2-14);}.cls-15{fill:url(#New_Gradient_Swatch_2-15);}.cls-16{fill:url(#New_Gradient_Swatch_2-16);}.cls-17{fill:url(#New_Gradient_Swatch_2-17);}.cls-18{fill:url(#New_Gradient_Swatch_2-18);}.cls-19{fill:url(#New_Gradient_Swatch_2-19);}.cls-20{fill:url(#New_Gradient_Swatch_2-20);}.cls-21{fill:url(#New_Gradient_Swatch_2-21);}.cls-22{fill:url(#New_Gradient_Swatch_2-22);}.cls-23{fill:url(#New_Gradient_Swatch_2-23);}</style><linearGradient id="New_Gradient_Swatch_2" x1="12.3" y1="176.82" x2="477.25" y2="176.82" gradientUnits="userSpaceOnUse"><stop offset="0" stop-color="#9541de"/><stop offset="1" stop-color="#3ab2c0"/></linearGradient><linearGradient id="New_Gradient_Swatch_2-2" x1="10.49" y1="176.82" x2="478.05" y2="176.82" xlink:href="#New_Gradient_Swatch_2"/><linearGradient id="New_Gradient_Swatch_2-3" x1="473.87" y1="338.41" x2="483.1" y2="338.41" xlink:href="#New_Gradient_Swatch_2"/><linearGradient id="New_Gradient_Swatch_2-4" x1="0" y1="263.84" x2="9.23" y2="263.84" xlink:href="#New_Gradient_Swatch_2"/><linearGradient id="New_Gradient_Swatch_2-5" x1="242.01" y1="86.87" x2="280.9" y2="86.87" xlink:href="#New_Gradient_Swatch_2"/><linearGradient id="New_Gradient_Swatch_2-6" x1="306.8" y1="21.37" x2="347.18" y2="21.37" xlink:href="#New_Gradient_Swatch_2"/><linearGradient id="New_Gradient_Swatch_2-7" x1="275.77" y1="54.12" x2="312.64" y2="54.12" xlink:href="#New_Gradient_Swatch_2"/><linearGradient id="New_Gradient_Swatch_2-8" x1="291.29" y1="38.44" x2="328.51" y2="38.44" xlink:href="#New_Gradient_Swatch_2"/><linearGradient id="New_Gradient_Swatch_2-9" x1="260.26" y1="69.8" x2="296.77" y2="69.8" xlink:href="#New_Gradient_Swatch_2"/><linearGradient id="New_Gradient_Swatch_2-10" x1="11.38" y1="199.46" x2="27.06" y2="199.46" xlink:href="#New_Gradient_Swatch_2"/><linearGradient id="New_Gradient_Swatch_2-11" x1="11.38" y1="229.82" x2="27.06" y2="229.82" xlink:href="#New_Gradient_Swatch_2"/><linearGradient id="New_Gradient_Swatch_2-12" x1="11.38" y1="260.46" x2="27.06" y2="260.46" xlink:href="#New_Gradient_Swatch_2"/><linearGradient id="New_Gradient_Swatch_2-13" x1="11.38" y1="136.21" x2="27.06" y2="136.21" xlink:href="#New_Gradient_Swatch_2"/><linearGradient id="New_Gradient_Swatch_2-14" x1="11.38" y1="169.11" x2="27.06" y2="169.11" xlink:href="#New_Gradient_Swatch_2"/><linearGradient id="New_Gradient_Swatch_2-15" x1="413.91" y1="338.41" x2="479.41" y2="338.41" xlink:href="#New_Gradient_Swatch_2"/><linearGradient id="New_Gradient_Swatch_2-16" x1="10.46" y1="94.25" x2="237.4" y2="94.25" xlink:href="#New_Gradient_Swatch_2"/><linearGradient id="New_Gradient_Swatch_2-17" x1="396.69" y1="119.08" x2="493.86" y2="119.08" xlink:href="#New_Gradient_Swatch_2"/><linearGradient id="New_Gradient_Swatch_2-18" x1="12.3" y1="310.28" x2="140.84" y2="310.28" xlink:href="#New_Gradient_Swatch_2"/><linearGradient id="New_Gradient_Swatch_2-19" x1="3.51" y1="308.43" x2="305.23" y2="308.43" xlink:href="#New_Gradient_Swatch_2"/><linearGradient id="New_Gradient_Swatch_2-20" x1="312.87" y1="344.41" x2="329.83" y2="344.41" xlink:href="#New_Gradient_Swatch_2"/><linearGradient id="New_Gradient_Swatch_2-21" x1="336.24" y1="344.41" x2="345.82" y2="344.41" xlink:href="#New_Gradient_Swatch_2"/><linearGradient id="New_Gradient_Swatch_2-22" x1="32.2" y1="101.48" x2="340.5" y2="101.48" xlink:href="#New_Gradient_Swatch_2"/><linearGradient id="New_Gradient_Swatch_2-23" x1="408.37" y1="288.21" x2="477.25" y2="288.21" xlink:href="#New_Gradient_Swatch_2"/></defs><title>message_15_purple_blue</title><g id="Layer_2" data-name="Layer 2"><g id="Layer_1-2" data-name="Layer 1"><polygon class="cls-1" points="359.17 15.38 272.45 102.09 12.3 102.09 34.44 126.08 34.44 269.99 12.3 287.21 12.3 338.26 420.06 338.26 477.25 292.28 477.25 15.38 359.17 15.38"/><path class="cls-2" d="M420.34,339.05H11.51V286.83L33.65,269.6V126.39L10.49,101.3H272.12l86.72-86.72H478.05V292.66l-.3.24ZM13.09,337.47H419.78l56.68-45.57V16.17h-117l-86.72,86.72H14.11l21.12,22.88V270.38L13.09,287.6Z"/><path class="cls-3" d="M483.1,338.41a4.62,4.62,0,1,1-4.62-4.61A4.62,4.62,0,0,1,483.1,338.41Z"/><path class="cls-4" d="M9.23,263.84a4.62,4.62,0,1,1-4.62-4.61A4.62,4.62,0,0,1,9.23,263.84Z"/><polygon class="cls-5" points="253.87 80.88 242.01 92.87 268.76 92.87 280.9 80.88 253.87 80.88"/><polygon class="cls-6" points="335.04 27.37 347.18 15.38 318.66 15.38 306.8 27.37 335.04 27.37"/><polygon class="cls-7" points="284.9 49.51 275.77 58.73 303.3 58.73 312.64 49.51 284.9 49.51"/><polygon class="cls-8" points="300.41 33.83 291.29 43.05 319.17 43.05 328.51 33.83 300.41 33.83"/><polygon class="cls-9" points="287.43 74.42 296.77 65.19 269.39 65.19 260.26 74.42 287.43 74.42"/><polygon class="cls-10" points="11.38 181.93 11.38 202.1 27.06 217 27.06 196.83 11.38 181.93"/><polygon class="cls-11" points="27.06 227.18 11.38 212.28 11.38 232.45 27.06 247.35 27.06 227.18"/><polygon class="cls-12" points="11.38 242.63 11.38 278.3 27.06 263.54 27.06 257.53 11.38 242.63"/><polygon class="cls-13" points="27.06 156.3 27.06 133.46 11.38 116.13 11.38 141.4 27.06 156.3"/><polygon class="cls-14" points="11.38 151.58 11.38 171.75 27.06 186.65 27.06 166.48 11.38 151.58"/><rect class="cls-15" x="413.91" y="337.62" width="65.5" height="1.59"/><path class="cls-16" d="M237.4,102.09l-15.69-9.22h-131V88.26A2.76,2.76,0,0,0,88,85.49H13.22a2.76,2.76,0,0,0-2.76,2.77v12A2.76,2.76,0,0,0,13.22,103H88a2.75,2.75,0,0,0,2-.93Z"/><path class="cls-17" d="M476.64,14.22V1.52A2.76,2.76,0,0,0,474.18,0H399.45a2.77,2.77,0,0,0-2.76,2.77v12a3.18,3.18,0,0,0,.07.62h79.57V88.87a2.76,2.76,0,0,0,.92,2V238.17l9.23-15.67V91.63h4.61a2.76,2.76,0,0,0,2.77-2.76V14.22Z"/><path class="cls-18" d="M19.68,281.68v49.2H122.39s17.83-2.46,18.45,8H12.3V287.21Z"/><path class="cls-19" d="M210.34,352.58H4.3a.79.79,0,0,1-.79-.79V265.07a.8.8,0,0,1,1.59,0V351H209.54v-6.59a.79.79,0,0,1,.8-.79h94.09a.79.79,0,1,1,0,1.58h-93.3v6.59A.79.79,0,0,1,210.34,352.58Z"/><path class="cls-20" d="M329,345.2H313.66a.79.79,0,1,1,0-1.58H329a.79.79,0,1,1,0,1.58Z"/><path class="cls-21" d="M345,345.2h-8a.79.79,0,1,1,0-1.58h8a.79.79,0,1,1,0,1.58Z"/><path class="cls-22" d="M44.9,149.23a.4.4,0,0,1-.4-.4V121.94L32.32,110.38a.4.4,0,0,1-.09-.44.39.39,0,0,1,.37-.25H283.36l56.47-55.85a.4.4,0,0,1,.56,0,.4.4,0,0,1,0,.56l-56.58,56a.4.4,0,0,1-.28.12H33.59l11.58,11a.36.36,0,0,1,.12.28v27.06A.39.39,0,0,1,44.9,149.23Z"/><polygon class="cls-23" points="408.37 338.26 471.1 289.06 471.1 249.08 477.25 238.17 477.25 292.28 420.06 338.26 408.37 338.26"/><path class="cls-3" d="M483.1,338.41a4.62,4.62,0,1,1-4.62-4.61A4.62,4.62,0,0,1,483.1,338.41Z"/><path class="cls-4" d="M9.23,263.84a4.62,4.62,0,1,1-4.62-4.61A4.62,4.62,0,0,1,9.23,263.84Z"/><polygon class="cls-5" points="253.87 80.88 242.01 92.87 268.76 92.87 280.9 80.88 253.87 80.88"/><polygon class="cls-6" points="335.04 27.37 347.18 15.38 318.66 15.38 306.8 27.37 335.04 27.37"/><polygon class="cls-7" points="284.9 49.51 275.77 58.73 303.3 58.73 312.64 49.51 284.9 49.51"/><polygon class="cls-8" points="300.41 33.83 291.29 43.05 319.17 43.05 328.51 33.83 300.41 33.83"/><polygon class="cls-9" points="287.43 74.42 296.77 65.19 269.39 65.19 260.26 74.42 287.43 74.42"/><polygon class="cls-10" points="11.38 181.93 11.38 202.1 27.06 217 27.06 196.83 11.38 181.93"/><polygon class="cls-11" points="27.06 227.18 11.38 212.28 11.38 232.45 27.06 247.35 27.06 227.18"/><polygon class="cls-12" points="11.38 242.63 11.38 278.3 27.06 263.54 27.06 257.53 11.38 242.63"/><polygon class="cls-13" points="27.06 156.3 27.06 133.46 11.38 116.13 11.38 141.4 27.06 156.3"/><polygon class="cls-14" points="11.38 151.58 11.38 171.75 27.06 186.65 27.06 166.48 11.38 151.58"/><path class="cls-16" d="M237.4,102.09l-15.69-9.22h-131V88.26A2.76,2.76,0,0,0,88,85.49H13.22a2.76,2.76,0,0,0-2.76,2.77v12A2.76,2.76,0,0,0,13.22,103H88a2.75,2.75,0,0,0,2-.93Z"/><path class="cls-17" d="M476.64,14.22V1.52A2.76,2.76,0,0,0,474.18,0H399.45a2.77,2.77,0,0,0-2.76,2.77v12a3.18,3.18,0,0,0,.07.62h79.57V88.87a2.76,2.76,0,0,0,.92,2V238.17l9.23-15.67V91.63h4.61a2.76,2.76,0,0,0,2.77-2.76V14.22Z"/><path class="cls-18" d="M19.68,281.68v49.2H122.39s17.83-2.46,18.45,8H12.3V287.21Z"/><polygon class="cls-23" points="408.37 338.26 471.1 289.06 471.1 249.08 477.25 238.17 477.25 292.28 420.06 338.26 408.37 338.26"/></g></g></svg>