<svg xmlns="http://www.w3.org/2000/svg" xmlns:xlink="http://www.w3.org/1999/xlink" viewBox="0 0 261.09 493.61"><defs><style>.cls-1{opacity:0.35;fill:url(#New_Gradient_Swatch_7);}.cls-1,.cls-11,.cls-12,.cls-13,.cls-14,.cls-15,.cls-16,.cls-9{isolation:isolate;}.cls-2{fill:url(#New_Gradient_Swatch_7-2);}.cls-3{fill:url(#New_Gradient_Swatch_7-3);}.cls-4{fill:url(#New_Gradient_Swatch_7-4);}.cls-5{fill:url(#New_Gradient_Swatch_7-5);}.cls-6{fill:url(#New_Gradient_Swatch_7-6);}.cls-7{fill:url(#New_Gradient_Swatch_7-7);}.cls-8{fill:url(#New_Gradient_Swatch_7-8);}.cls-9{opacity:0.7;fill:url(#New_Gradient_Swatch_7-9);}.cls-10{fill:url(#New_Gradient_Swatch_7-10);}.cls-11{opacity:0.8;fill:url(#New_Gradient_Swatch_7-11);}.cls-12{opacity:0.6;fill:url(#New_Gradient_Swatch_7-12);}.cls-13{opacity:0.3;fill:url(#New_Gradient_Swatch_7-13);}.cls-14{opacity:0.5;fill:url(#New_Gradient_Swatch_7-14);}.cls-15{opacity:0.2;fill:url(#New_Gradient_Swatch_7-15);}.cls-16{opacity:0.4;fill:url(#New_Gradient_Swatch_7-16);}.cls-17{fill:url(#New_Gradient_Swatch_7-17);}.cls-18{fill:url(#New_Gradient_Swatch_7-18);}.cls-19{fill:url(#New_Gradient_Swatch_7-19);}</style><linearGradient id="New_Gradient_Swatch_7" x1="7.75" y1="253.55" x2="249.96" y2="253.55" gradientTransform="matrix(1, 0, 0, -1, 0, 495.61)" gradientUnits="userSpaceOnUse"><stop offset="0" stop-color="#fcdaff"/><stop offset="1" stop-color="#cf52fe"/></linearGradient><linearGradient id="New_Gradient_Swatch_7-2" x1="6.9" y1="253.56" x2="250.82" y2="253.56" xlink:href="#New_Gradient_Swatch_7"/><linearGradient id="New_Gradient_Swatch_7-3" x1="249.96" y1="157.03" x2="261.09" y2="157.03" xlink:href="#New_Gradient_Swatch_7"/><linearGradient id="New_Gradient_Swatch_7-4" x1="14.41" y1="71.55" x2="102.15" y2="71.55" xlink:href="#New_Gradient_Swatch_7"/><linearGradient id="New_Gradient_Swatch_7-5" x1="9.27" y1="38.31" x2="59.35" y2="38.31" xlink:href="#New_Gradient_Swatch_7"/><linearGradient id="New_Gradient_Swatch_7-6" x1="164.43" y1="395.42" x2="241.33" y2="395.42" xlink:href="#New_Gradient_Swatch_7"/><linearGradient id="New_Gradient_Swatch_7-7" x1="15.41" y1="81.18" x2="139.41" y2="81.18" xlink:href="#New_Gradient_Swatch_7"/><linearGradient id="New_Gradient_Swatch_7-8" x1="0" y1="413.22" x2="20.45" y2="413.22" xlink:href="#New_Gradient_Swatch_7"/><linearGradient id="New_Gradient_Swatch_7-9" x1="80.2" y1="490.76" x2="96.25" y2="490.76" xlink:href="#New_Gradient_Swatch_7"/><linearGradient id="New_Gradient_Swatch_7-10" x1="50.22" y1="490.76" x2="67.52" y2="490.76" xlink:href="#New_Gradient_Swatch_7"/><linearGradient id="New_Gradient_Swatch_7-11" x1="65.84" y1="490.76" x2="81.89" y2="490.76" xlink:href="#New_Gradient_Swatch_7"/><linearGradient id="New_Gradient_Swatch_7-12" x1="94.57" y1="490.76" x2="110.61" y2="490.76" xlink:href="#New_Gradient_Swatch_7"/><linearGradient id="New_Gradient_Swatch_7-13" x1="137.65" y1="490.76" x2="153.69" y2="490.76" xlink:href="#New_Gradient_Swatch_7"/><linearGradient id="New_Gradient_Swatch_7-14" x1="108.93" y1="490.76" x2="124.97" y2="490.76" xlink:href="#New_Gradient_Swatch_7"/><linearGradient id="New_Gradient_Swatch_7-15" x1="152.01" y1="490.76" x2="166.07" y2="490.76" xlink:href="#New_Gradient_Swatch_7"/><linearGradient id="New_Gradient_Swatch_7-16" x1="123.29" y1="490.76" x2="139.33" y2="490.76" xlink:href="#New_Gradient_Swatch_7"/><linearGradient id="New_Gradient_Swatch_7-17" x1="245.97" y1="321.14" x2="252.82" y2="321.14" xlink:href="#New_Gradient_Swatch_7"/><linearGradient id="New_Gradient_Swatch_7-18" x1="4.57" y1="272.01" x2="11.41" y2="272.01" xlink:href="#New_Gradient_Swatch_7"/><linearGradient id="New_Gradient_Swatch_7-19" x1="232.35" y1="96.59" x2="244.9" y2="96.59" xlink:href="#New_Gradient_Swatch_7"/></defs><title>message_14_purple</title><g id="Layer_2" data-name="Layer 2"><g id="Layer_1-2" data-name="Layer 1"><g id="Layer_2-2" data-name="Layer 2"><g id="Layer_1-2-2" data-name="Layer 1-2"><polygon class="cls-1" points="241.33 191.53 241.33 11.69 239.88 11.69 236.26 0.86 171.21 0.86 164.43 11.69 20.45 11.69 7.75 33.96 7.75 151.94 15.46 157.24 15.46 352.63 20.45 356.06 20.45 483.25 241.33 483.25 241.33 478.98 249.96 464.64 249.96 213.45 241.33 191.53"/><path class="cls-2" d="M242.19,484.1H19.59V356.51l-5-3.43V157.69L6.9,152.4V33.73L20,10.84H164L170.73,0h66.15l3.61,10.84h1.7V191.37l8.63,21.91v251.6l-8.63,14.34ZM21.31,482.39H240.47v-3.65l8.64-14.33V213.61l-8.64-21.91V12.55h-1.21L235.65,1.71h-64l-6.77,10.84H21L8.61,34.19V151.5l7.7,5.29V352.18l5,3.43Z"/><polygon class="cls-3" points="249.96 212.88 249.96 464.28 255.1 462.06 255.1 266.14 261.09 252.33 261.09 235.32 249.96 212.88"/><polygon class="cls-4" points="102.15 489.04 14.41 489.04 14.41 359.07 15.27 359.07 15.27 488.19 102.15 488.19 102.15 489.04"/><polygon class="cls-5" points="59.35 493.61 9.27 493.61 9.27 420.99 10.13 420.99 10.13 492.75 59.35 492.75 59.35 493.61"/><polygon class="cls-6" points="239.88 11.69 236.26 0.86 171.21 0.86 164.43 12.55 230.43 12.55 234.55 28.94 234.55 179.2 241.33 199.52 241.33 11.69 239.88 11.69"/><polygon class="cls-7" points="20.45 356.06 20.45 482.34 139.41 482.34 134.11 476.63 25.68 476.63 25.68 355.07 15.41 346.51 15.46 352.63 20.45 356.06"/><polygon class="cls-8" points="7.7 36.92 20.45 11.69 12.84 11.69 0 35.2 0 127.22 4.57 136.4 4.57 150.66 7.75 153.09 7.75 140.41 7.7 140.31 7.7 36.92"/><polygon class="cls-9" points="96.25 1.14 84.53 1.14 80.2 8.56 91.92 8.56 96.25 1.14"/><polygon class="cls-10" points="55.93 1.14 50.22 8.56 63.2 8.56 67.52 1.14 55.93 1.14"/><polygon class="cls-11" points="81.89 1.14 70.17 1.14 65.84 8.56 77.56 8.56 81.89 1.14"/><polygon class="cls-12" points="110.61 1.14 98.89 1.14 94.57 8.56 106.29 8.56 110.61 1.14"/><polygon class="cls-13" points="153.69 1.14 141.97 1.14 137.65 8.56 149.37 8.56 153.69 1.14"/><polygon class="cls-14" points="124.97 1.14 113.25 1.14 108.93 8.56 120.65 8.56 124.97 1.14"/><polygon class="cls-15" points="152.01 8.56 161.5 8.56 166.07 1.14 156.34 1.14 152.01 8.56"/><polygon class="cls-16" points="139.33 1.14 127.61 1.14 123.29 8.56 135.01 8.56 139.33 1.14"/><polygon class="cls-17" points="252.81 157.51 245.97 145.53 245.97 188.34 252.81 203.4 252.81 157.51"/><polygon class="cls-18" points="11.41 160.37 4.57 155.24 4.57 287.16 11.41 291.95 11.41 160.37"/><polygon class="cls-19" points="244.9 338.31 240.34 338.31 240.34 356.92 232.35 360.99 232.35 452.3 244.9 459.73 244.9 338.31"/><polygon class="cls-3" points="249.96 212.88 249.96 464.28 255.1 462.06 255.1 266.14 261.09 252.33 261.09 235.32 249.96 212.88"/><polygon class="cls-6" points="239.88 11.69 236.26 0.86 171.21 0.86 164.43 12.55 230.43 12.55 234.55 28.94 234.55 179.2 241.33 199.52 241.33 11.69 239.88 11.69"/><polygon class="cls-7" points="20.45 356.06 20.45 482.34 139.41 482.34 134.11 476.63 25.68 476.63 25.68 355.07 15.41 346.51 15.46 352.63 20.45 356.06"/><polygon class="cls-8" points="7.7 36.92 20.45 11.69 12.84 11.69 0 35.2 0 127.22 4.57 136.4 4.57 150.66 7.75 153.09 7.75 140.41 7.7 140.31 7.7 36.92"/><polygon class="cls-9" points="96.25 1.14 84.53 1.14 80.2 8.56 91.92 8.56 96.25 1.14"/><polygon class="cls-10" points="55.93 1.14 50.22 8.56 63.2 8.56 67.52 1.14 55.93 1.14"/><polygon class="cls-11" points="81.89 1.14 70.17 1.14 65.84 8.56 77.56 8.56 81.89 1.14"/><polygon class="cls-12" points="110.61 1.14 98.89 1.14 94.57 8.56 106.29 8.56 110.61 1.14"/><polygon class="cls-13" points="153.69 1.14 141.97 1.14 137.65 8.56 149.37 8.56 153.69 1.14"/><polygon class="cls-14" points="124.97 1.14 113.25 1.14 108.93 8.56 120.65 8.56 124.97 1.14"/><polygon class="cls-15" points="152.01 8.56 161.5 8.56 166.07 1.14 156.34 1.14 152.01 8.56"/><polygon class="cls-16" points="139.33 1.14 127.61 1.14 123.29 8.56 135.01 8.56 139.33 1.14"/></g></g></g></g></svg>