<svg xmlns="http://www.w3.org/2000/svg" xmlns:xlink="http://www.w3.org/1999/xlink" viewBox="0 0 494.97 186.32"><defs><style>.cls-1{mask:url(#mask);filter:url(#luminosity-noclip-4);}.cls-2,.cls-4,.cls-6{mix-blend-mode:multiply;}.cls-2{fill:url(#linear-gradient);}.cls-3{mask:url(#mask-2);filter:url(#luminosity-noclip-5);}.cls-4{fill:url(#linear-gradient-2);}.cls-5{mask:url(#mask-3);filter:url(#luminosity-noclip-6);}.cls-6{fill:url(#linear-gradient-3);}.cls-7{opacity:0.35;fill:url(#New_Gradient_Swatch_3);}.cls-8{fill:url(#New_Gradient_Swatch_3-2);}.cls-9{fill:url(#New_Gradient_Swatch_3-3);}.cls-10{fill:url(#New_Gradient_Swatch_3-4);}.cls-11{fill:url(#New_Gradient_Swatch_3-5);}.cls-12{fill:url(#New_Gradient_Swatch_3-6);}.cls-13{mask:url(#mask-4);}.cls-14{fill:url(#New_Gradient_Swatch_3-7);}.cls-15{mask:url(#mask-5);}.cls-16{fill:url(#New_Gradient_Swatch_3-8);}.cls-17{mask:url(#mask-6);}.cls-18{fill:url(#New_Gradient_Swatch_3-9);}.cls-19{fill:url(#New_Gradient_Swatch_3-10);}.cls-20{fill:url(#New_Gradient_Swatch_3-11);}.cls-21{fill:url(#New_Gradient_Swatch_3-12);}.cls-22{fill:url(#New_Gradient_Swatch_3-13);}.cls-23{fill:url(#New_Gradient_Swatch_3-14);}.cls-24{fill:url(#New_Gradient_Swatch_3-15);}.cls-25{fill:url(#New_Gradient_Swatch_3-16);}.cls-26{fill:url(#New_Gradient_Swatch_3-17);}.cls-27{fill:url(#New_Gradient_Swatch_3-18);}.cls-28{fill:url(#New_Gradient_Swatch_3-19);}.cls-29{fill:url(#New_Gradient_Swatch_3-20);}.cls-30{fill:url(#New_Gradient_Swatch_3-21);}.cls-31{fill:url(#New_Gradient_Swatch_3-22);}.cls-32{fill:url(#New_Gradient_Swatch_3-23);}.cls-33{fill:url(#New_Gradient_Swatch_3-24);}.cls-34{fill:url(#New_Gradient_Swatch_3-25);}.cls-35{fill:url(#New_Gradient_Swatch_3-26);}.cls-36{fill:url(#New_Gradient_Swatch_3-27);}.cls-37{filter:url(#luminosity-noclip-3);}.cls-38{filter:url(#luminosity-noclip-2);}.cls-39{filter:url(#luminosity-noclip);}</style><filter id="luminosity-noclip" x="301.71" y="-8285.97" width="151.86" height="32766" filterUnits="userSpaceOnUse" color-interpolation-filters="sRGB"><feFlood flood-color="#fff" result="bg"/><feBlend in="SourceGraphic" in2="bg"/></filter><mask id="mask" x="301.71" y="-8285.97" width="151.86" height="32766" maskUnits="userSpaceOnUse"><g class="cls-39"/></mask><linearGradient id="linear-gradient" x1="301.71" y1="176.27" x2="453.57" y2="176.27" gradientUnits="userSpaceOnUse"><stop offset="0"/><stop offset="0.1" stop-color="#060606"/><stop offset="0.22" stop-color="#151515"/><stop offset="0.36" stop-color="#303030"/><stop offset="0.51" stop-color="#545454"/><stop offset="0.67" stop-color="#838383"/><stop offset="0.83" stop-color="#bdbdbd"/><stop offset="1" stop-color="#fff"/></linearGradient><filter id="luminosity-noclip-2" x="34.4" y="-8285.97" width="131.71" height="32766" filterUnits="userSpaceOnUse" color-interpolation-filters="sRGB"><feFlood flood-color="#fff" result="bg"/><feBlend in="SourceGraphic" in2="bg"/></filter><mask id="mask-2" x="34.4" y="-8285.97" width="131.71" height="32766" maskUnits="userSpaceOnUse"><g class="cls-38"/></mask><linearGradient id="linear-gradient-2" x1="34.4" y1="10.37" x2="166.12" y2="10.37" gradientUnits="userSpaceOnUse"><stop offset="0" stop-color="#fff"/><stop offset="0.01" stop-color="#fbfbfb"/><stop offset="0.19" stop-color="#b0b0b0"/><stop offset="0.35" stop-color="#727272"/><stop offset="0.51" stop-color="#414141"/><stop offset="0.64" stop-color="#1d1d1d"/><stop offset="0.75" stop-color="#080808"/><stop offset="0.82"/></linearGradient><filter id="luminosity-noclip-3" x="22.31" y="-8285.97" width="139.63" height="32766" filterUnits="userSpaceOnUse" color-interpolation-filters="sRGB"><feFlood flood-color="#fff" result="bg"/><feBlend in="SourceGraphic" in2="bg"/></filter><mask id="mask-3" x="22.31" y="-8285.97" width="139.63" height="32766" maskUnits="userSpaceOnUse"><g class="cls-37"/></mask><linearGradient id="linear-gradient-3" x1="18.07" y1="33.38" x2="161.94" y2="33.38" xlink:href="#linear-gradient"/><linearGradient id="New_Gradient_Swatch_3" x1="0.57" y1="93.97" x2="494.4" y2="93.97" gradientUnits="userSpaceOnUse"><stop offset="0" stop-color="#9541de"/><stop offset="1" stop-color="#3ab2c0"/></linearGradient><linearGradient id="New_Gradient_Swatch_3-2" x1="0" y1="93.97" x2="494.97" y2="93.97" xlink:href="#New_Gradient_Swatch_3"/><linearGradient id="New_Gradient_Swatch_3-3" x1="11.27" y1="18.79" x2="218.97" y2="18.79" xlink:href="#New_Gradient_Swatch_3"/><linearGradient id="New_Gradient_Swatch_3-4" x1="295.44" y1="174.17" x2="494.4" y2="174.17" xlink:href="#New_Gradient_Swatch_3"/><linearGradient id="New_Gradient_Swatch_3-5" x1="377.31" y1="42.34" x2="494.4" y2="42.34" xlink:href="#New_Gradient_Swatch_3"/><linearGradient id="New_Gradient_Swatch_3-6" x1="0.57" y1="135.44" x2="273.19" y2="135.44" xlink:href="#New_Gradient_Swatch_3"/><filter id="luminosity-noclip-4" x="301.71" y="171.95" width="151.86" height="8.64" filterUnits="userSpaceOnUse" color-interpolation-filters="sRGB"><feFlood flood-color="#fff" result="bg"/><feBlend in="SourceGraphic" in2="bg"/></filter><mask id="mask-4" x="301.71" y="171.95" width="151.86" height="8.64" maskUnits="userSpaceOnUse"><g class="cls-1"><polygon class="cls-2" points="310.66 171.95 448.02 171.95 453.57 180.59 301.71 180.59 310.66 171.95"/></g></mask><linearGradient id="New_Gradient_Swatch_3-7" x1="301.71" y1="176.27" x2="453.57" y2="176.27" xlink:href="#New_Gradient_Swatch_3"/><filter id="luminosity-noclip-5" x="34.4" y="6.05" width="131.71" height="8.64" filterUnits="userSpaceOnUse" color-interpolation-filters="sRGB"><feFlood flood-color="#fff" result="bg"/><feBlend in="SourceGraphic" in2="bg"/></filter><mask id="mask-5" x="34.4" y="6.05" width="131.71" height="8.64" maskUnits="userSpaceOnUse"><g class="cls-3"><path class="cls-4" d="M45.81,6.05c-3.66,2.79-7.57,5.76-11.41,8.64H158.05l8.07-8.64Z"/></g></mask><linearGradient id="New_Gradient_Swatch_3-8" x1="34.4" y1="10.37" x2="166.12" y2="10.37" xlink:href="#New_Gradient_Swatch_3"/><filter id="luminosity-noclip-6" x="22.31" y="29.81" width="139.63" height="7.13" filterUnits="userSpaceOnUse" color-interpolation-filters="sRGB"><feFlood flood-color="#fff" result="bg"/><feBlend in="SourceGraphic" in2="bg"/></filter><mask id="mask-6" x="22.31" y="29.81" width="139.63" height="7.13" maskUnits="userSpaceOnUse"><g class="cls-5"><path class="cls-6" d="M155.49,36.94l6.45-7.13H32.33s-5.75,4.24-10,7.13Z"/></g></mask><linearGradient id="New_Gradient_Swatch_3-9" x1="22.31" y1="33.38" x2="161.94" y2="33.38" xlink:href="#New_Gradient_Swatch_3"/><linearGradient id="New_Gradient_Swatch_3-10" x1="271.53" y1="2.13" x2="289.93" y2="2.13" xlink:href="#New_Gradient_Swatch_3"/><linearGradient id="New_Gradient_Swatch_3-11" x1="235.53" y1="2.21" x2="253.82" y2="2.21" xlink:href="#New_Gradient_Swatch_3"/><linearGradient id="New_Gradient_Swatch_3-12" x1="253.53" y1="2.17" x2="271.88" y2="2.17" xlink:href="#New_Gradient_Swatch_3"/><linearGradient id="New_Gradient_Swatch_3-13" x1="307.54" y1="2.06" x2="326.04" y2="2.06" xlink:href="#New_Gradient_Swatch_3"/><linearGradient id="New_Gradient_Swatch_3-14" x1="289.54" y1="2.1" x2="307.99" y2="2.1" xlink:href="#New_Gradient_Swatch_3"/><linearGradient id="New_Gradient_Swatch_3-15" x1="361.56" y1="1.94" x2="382.93" y2="1.94" xlink:href="#New_Gradient_Swatch_3"/><linearGradient id="New_Gradient_Swatch_3-16" x1="325.55" y1="2.03" x2="344.1" y2="2.03" xlink:href="#New_Gradient_Swatch_3"/><linearGradient id="New_Gradient_Swatch_3-17" x1="219.62" y1="2.24" x2="235.77" y2="2.24" xlink:href="#New_Gradient_Swatch_3"/><linearGradient id="New_Gradient_Swatch_3-18" x1="343.55" y1="1.99" x2="362.16" y2="1.99" xlink:href="#New_Gradient_Swatch_3"/><linearGradient id="New_Gradient_Swatch_3-19" x1="76.47" y1="181.65" x2="94.87" y2="181.65" xlink:href="#New_Gradient_Swatch_3"/><linearGradient id="New_Gradient_Swatch_3-20" x1="40.46" y1="181.72" x2="58.76" y2="181.72" xlink:href="#New_Gradient_Swatch_3"/><linearGradient id="New_Gradient_Swatch_3-21" x1="58.46" y1="181.68" x2="76.81" y2="181.68" xlink:href="#New_Gradient_Swatch_3"/><linearGradient id="New_Gradient_Swatch_3-22" x1="112.48" y1="181.57" x2="130.98" y2="181.57" xlink:href="#New_Gradient_Swatch_3"/><linearGradient id="New_Gradient_Swatch_3-23" x1="94.47" y1="181.61" x2="112.92" y2="181.61" xlink:href="#New_Gradient_Swatch_3"/><linearGradient id="New_Gradient_Swatch_3-24" x1="166.49" y1="181.46" x2="187.86" y2="181.46" xlink:href="#New_Gradient_Swatch_3"/><linearGradient id="New_Gradient_Swatch_3-25" x1="130.48" y1="181.54" x2="149.03" y2="181.54" xlink:href="#New_Gradient_Swatch_3"/><linearGradient id="New_Gradient_Swatch_3-26" x1="24.55" y1="181.75" x2="40.7" y2="181.75" xlink:href="#New_Gradient_Swatch_3"/><linearGradient id="New_Gradient_Swatch_3-27" x1="148.49" y1="181.5" x2="167.09" y2="181.5" xlink:href="#New_Gradient_Swatch_3"/></defs><title>message_07_purple_blue</title><g id="Layer_2" data-name="Layer 2"><g id="Layer_1-2" data-name="Layer 1"><polygon class="cls-7" points="420.52 11.66 386.82 6.48 179.44 6.48 162.59 24.63 27.79 24.63 0.57 45.89 0.57 157.91 22.61 176.27 292.2 176.27 306.46 162.01 455.51 162.01 464.15 181.46 494.4 181.46 494.4 11.66 420.52 11.66"/><path class="cls-8" d="M495,182H463.78l-8.64-19.44H306.7l-14.26,14.26H22.4L0,158.18V45.61L27.6,24.05H162.34L179.19,5.91H386.91l33.65,5.18H495Zm-30.44-1.15h29.29V12.24H420.47l-33.7-5.19H179.69L162.84,25.2H28l-26.84,21V157.64L22.82,175.7H292l14.26-14.26H455.89Z"/><polygon class="cls-9" points="11.27 36.62 11.27 31.43 28.12 19.12 160.97 19.12 178.79 0.97 213.79 0.97 218.97 6.48 179.44 6.48 162.59 24.63 27.79 24.63 11.27 36.62"/><polygon class="cls-10" points="494.4 181.46 490.51 186.32 461.67 186.32 451.95 167.52 308.73 167.52 302.57 173.68 295.44 173.68 306.46 162.01 455.51 162.01 464.15 181.46 494.4 181.46"/><polygon class="cls-11" points="377.31 6.91 422.25 14.69 473.23 14.69 483.16 14.69 490.51 20.31 490.51 71.72 494.4 78.2 494.4 11.66 420.52 11.66 388.55 6.48 377.31 6.91"/><path class="cls-12" d="M267.36,176.27c3.59-.24,5.64-.52,5.83-.86l-95.91-2.59,2.59-4.76H128L122.41,172H24.77L4.89,155.75V101.53L.57,94.62v63.29l22,18.36Z"/><g class="cls-13"><polygon class="cls-14" points="310.66 171.95 448.02 171.95 453.57 180.59 301.71 180.59 310.66 171.95"/></g><g class="cls-15"><path class="cls-16" d="M45.81,6.05c-3.66,2.79-7.57,5.76-11.41,8.64H158.05l8.07-8.64Z"/></g><g class="cls-17"><path class="cls-18" d="M155.49,36.94l6.45-7.13H32.33s-5.75,4.24-10,7.13Z"/></g><polygon class="cls-19" points="271.54 0.44 274.02 3.89 289.93 3.89 287.4 0.38 271.54 0.44"/><polygon class="cls-20" points="235.53 0.58 237.91 3.89 253.82 3.89 251.39 0.52 235.53 0.58"/><polygon class="cls-21" points="253.53 0.51 255.97 3.89 271.88 3.89 269.39 0.45 253.53 0.51"/><polygon class="cls-22" points="307.54 0.3 310.14 3.89 326.05 3.89 323.41 0.24 307.54 0.3"/><polygon class="cls-23" points="289.54 0.37 292.08 3.89 307.99 3.89 305.4 0.31 289.54 0.37"/><polygon class="cls-24" points="380.34 0 361.56 0.09 364.3 3.89 382.93 3.89 380.34 0"/><polygon class="cls-25" points="325.55 0.23 328.19 3.89 344.1 3.89 341.41 0.17 325.55 0.23"/><polygon class="cls-26" points="219.62 0.65 222.21 3.89 235.77 3.89 233.38 0.59 219.62 0.65"/><polygon class="cls-27" points="343.55 0.16 346.25 3.89 362.16 3.89 359.41 0.09 343.55 0.16"/><polygon class="cls-28" points="76.47 179.96 78.96 183.4 94.87 183.4 92.33 179.89 76.47 179.96"/><polygon class="cls-29" points="40.46 180.1 42.85 183.4 58.76 183.4 56.32 180.03 40.46 180.1"/><polygon class="cls-30" points="58.46 180.03 60.9 183.4 76.81 183.4 74.33 179.96 58.46 180.03"/><polygon class="cls-31" points="112.48 179.81 115.07 183.4 130.98 183.4 128.34 179.75 112.48 179.81"/><polygon class="cls-32" points="94.47 179.88 97.02 183.4 112.92 183.4 110.33 179.82 94.47 179.88"/><polygon class="cls-33" points="185.27 179.51 166.49 179.6 169.24 183.4 187.86 183.4 185.27 179.51"/><polygon class="cls-34" points="130.48 179.74 133.13 183.4 149.03 183.4 146.34 179.68 130.48 179.74"/><polygon class="cls-35" points="24.55 180.16 27.14 183.4 40.7 183.4 38.32 180.11 24.55 180.16"/><polygon class="cls-36" points="148.49 179.67 151.18 183.4 167.09 183.4 164.35 179.61 148.49 179.67"/></g></g></svg>