<svg xmlns="http://www.w3.org/2000/svg" xmlns:xlink="http://www.w3.org/1999/xlink" viewBox="0 0 493.7 330.93"><defs><style>.cls-1{fill:url(#New_Gradient_Swatch_3);}.cls-2{fill:url(#New_Gradient_Swatch_3-2);}.cls-3{opacity:0.35;fill:url(#New_Gradient_Swatch_3-4);}.cls-4{fill:url(#New_Gradient_Swatch_3-5);}.cls-14,.cls-5{opacity:0.2;}.cls-5{fill:url(#New_Gradient_Swatch_3-6);}.cls-15,.cls-6{opacity:0.3;}.cls-6{fill:url(#New_Gradient_Swatch_3-7);}.cls-16,.cls-7{opacity:0.8;}.cls-7{fill:url(#New_Gradient_Swatch_3-8);}.cls-17,.cls-8{opacity:0.4;}.cls-8{fill:url(#New_Gradient_Swatch_3-9);}.cls-18,.cls-9{opacity:0.7;}.cls-9{fill:url(#New_Gradient_Swatch_3-10);}.cls-10,.cls-19{opacity:0.1;}.cls-10{fill:url(#New_Gradient_Swatch_3-11);}.cls-11,.cls-20{opacity:0.6;}.cls-11{fill:url(#New_Gradient_Swatch_3-12);}.cls-12,.cls-21{opacity:0.5;}.cls-12{fill:url(#New_Gradient_Swatch_3-13);}.cls-13{fill:url(#New_Gradient_Swatch_3-14);}.cls-14{fill:url(#New_Gradient_Swatch_3-15);}.cls-15{fill:url(#New_Gradient_Swatch_3-16);}.cls-16{fill:url(#New_Gradient_Swatch_3-17);}.cls-17{fill:url(#New_Gradient_Swatch_3-18);}.cls-18{fill:url(#New_Gradient_Swatch_3-19);}.cls-19{fill:url(#New_Gradient_Swatch_3-20);}.cls-20{fill:url(#New_Gradient_Swatch_3-21);}.cls-21{fill:url(#New_Gradient_Swatch_3-22);}.cls-22{fill:url(#New_Gradient_Swatch_3-23);}.cls-23{fill:url(#New_Gradient_Swatch_3-24);}.cls-24{fill:url(#New_Gradient_Swatch_3-25);}.cls-25{fill:url(#New_Gradient_Swatch_3-26);}.cls-26{fill:url(#New_Gradient_Swatch_3-27);}.cls-27{fill:url(#New_Gradient_Swatch_3-28);}.cls-28{clip-path:url(#clip-path);}.cls-29{fill:url(#New_Gradient_Swatch_3-30);}.cls-30{fill:url(#New_Gradient_Swatch_3-31);}.cls-31{fill:url(#New_Gradient_Swatch_3-32);}.cls-32{clip-path:url(#clip-path-2);}.cls-33{fill:url(#New_Gradient_Swatch_3-35);}.cls-34{fill:url(#New_Gradient_Swatch_3-36);}.cls-35{fill:url(#New_Gradient_Swatch_3-37);}.cls-36{fill:url(#New_Gradient_Swatch_3-38);}.cls-37{fill:url(#New_Gradient_Swatch_3-39);}</style><linearGradient id="New_Gradient_Swatch_3" x1="59.61" y1="46.24" x2="283.6" y2="46.24" gradientUnits="userSpaceOnUse"><stop offset="0" stop-color="#9541de"/><stop offset="1" stop-color="#3ab2c0"/></linearGradient><linearGradient id="New_Gradient_Swatch_3-2" x1="441.48" y1="114.67" x2="465.32" y2="114.67" xlink:href="#New_Gradient_Swatch_3"/><linearGradient id="New_Gradient_Swatch_3-4" x1="15.47" y1="167.37" x2="465.77" y2="167.37" xlink:href="#New_Gradient_Swatch_3"/><linearGradient id="New_Gradient_Swatch_3-5" x1="14.74" y1="167.37" x2="466.49" y2="167.37" xlink:href="#New_Gradient_Swatch_3"/><linearGradient id="New_Gradient_Swatch_3-6" x1="475.19" y1="226.32" x2="493.7" y2="226.32" xlink:href="#New_Gradient_Swatch_3"/><linearGradient id="New_Gradient_Swatch_3-7" x1="475.02" y1="200.62" x2="493.7" y2="200.62" xlink:href="#New_Gradient_Swatch_3"/><linearGradient id="New_Gradient_Swatch_3-8" x1="474.75" y1="72.26" x2="493.7" y2="72.26" xlink:href="#New_Gradient_Swatch_3"/><linearGradient id="New_Gradient_Swatch_3-9" x1="474.86" y1="174.92" x2="493.7" y2="174.92" xlink:href="#New_Gradient_Swatch_3"/><linearGradient id="New_Gradient_Swatch_3-10" x1="474.75" y1="97.92" x2="493.7" y2="97.92" xlink:href="#New_Gradient_Swatch_3"/><linearGradient id="New_Gradient_Swatch_3-11" x1="475.36" y1="250.65" x2="493.7" y2="250.65" xlink:href="#New_Gradient_Swatch_3"/><linearGradient id="New_Gradient_Swatch_3-12" x1="474.75" y1="123.57" x2="493.7" y2="123.57" xlink:href="#New_Gradient_Swatch_3"/><linearGradient id="New_Gradient_Swatch_3-13" x1="474.75" y1="149.23" x2="493.7" y2="149.23" xlink:href="#New_Gradient_Swatch_3"/><linearGradient id="New_Gradient_Swatch_3-14" x1="474.75" y1="46.26" x2="493.7" y2="46.26" xlink:href="#New_Gradient_Swatch_3"/><linearGradient id="New_Gradient_Swatch_3-15" x1="49.16" y1="286.47" x2="79.59" y2="286.47" xlink:href="#New_Gradient_Swatch_3"/><linearGradient id="New_Gradient_Swatch_3-16" x1="74.82" y1="286.38" x2="105.34" y2="286.38" xlink:href="#New_Gradient_Swatch_3"/><linearGradient id="New_Gradient_Swatch_3-17" x1="203.11" y1="286.25" x2="233.77" y2="286.25" xlink:href="#New_Gradient_Swatch_3"/><linearGradient id="New_Gradient_Swatch_3-18" x1="100.48" y1="286.3" x2="131.08" y2="286.3" xlink:href="#New_Gradient_Swatch_3"/><linearGradient id="New_Gradient_Swatch_3-19" x1="177.45" y1="286.25" x2="208.11" y2="286.25" xlink:href="#New_Gradient_Swatch_3"/><linearGradient id="New_Gradient_Swatch_3-20" x1="26.24" y1="286.55" x2="53.84" y2="286.55" xlink:href="#New_Gradient_Swatch_3"/><linearGradient id="New_Gradient_Swatch_3-21" x1="151.79" y1="286.25" x2="182.45" y2="286.25" xlink:href="#New_Gradient_Swatch_3"/><linearGradient id="New_Gradient_Swatch_3-22" x1="126.14" y1="286.25" x2="156.8" y2="286.25" xlink:href="#New_Gradient_Swatch_3"/><linearGradient id="New_Gradient_Swatch_3-23" x1="228.77" y1="286.25" x2="260.12" y2="286.25" xlink:href="#New_Gradient_Swatch_3"/><linearGradient id="New_Gradient_Swatch_3-24" x1="0" y1="205.79" x2="81.65" y2="205.79" xlink:href="#New_Gradient_Swatch_3"/><linearGradient id="New_Gradient_Swatch_3-25" x1="71.99" y1="23.12" x2="268.06" y2="23.12" xlink:href="#New_Gradient_Swatch_3"/><linearGradient id="New_Gradient_Swatch_3-26" x1="414.02" y1="276.01" x2="476.16" y2="276.01" xlink:href="#New_Gradient_Swatch_3"/><linearGradient id="New_Gradient_Swatch_3-27" x1="264.81" y1="19.15" x2="463.51" y2="19.15" xlink:href="#New_Gradient_Swatch_3"/><linearGradient id="New_Gradient_Swatch_3-28" x1="313.95" y1="295.16" x2="486.63" y2="295.16" xlink:href="#New_Gradient_Swatch_3"/><clipPath id="clip-path"><path id="SVGID" class="cls-1" d="M60,55.28a.34.34,0,0,1-.26-.12.35.35,0,0,1,0-.51L78.51,37.31a.35.35,0,0,1,.25-.1H283.24a.36.36,0,0,1,0,.72H78.9L60.22,55.18A.39.39,0,0,1,60,55.28Z"/></clipPath><linearGradient id="New_Gradient_Swatch_3-30" x1="59.57" y1="46.24" x2="283.6" y2="46.24" xlink:href="#New_Gradient_Swatch_3"/><linearGradient id="New_Gradient_Swatch_3-31" x1="92.15" y1="46.24" x2="251.05" y2="46.24" xlink:href="#New_Gradient_Swatch_3"/><linearGradient id="New_Gradient_Swatch_3-32" x1="131.88" y1="46.24" x2="211.33" y2="46.24" xlink:href="#New_Gradient_Swatch_3"/><clipPath id="clip-path-2"><polygon id="SVGID-2" data-name="SVGID" class="cls-2" points="441.48 31.07 455.93 48.41 455.93 132.23 452.31 145.23 452.31 182.08 465.32 200.15 465.32 29.19 441.48 31.07"/></clipPath><linearGradient id="New_Gradient_Swatch_3-35" x1="440.75" y1="114.67" x2="466.04" y2="114.67" xlink:href="#New_Gradient_Swatch_3"/><linearGradient id="New_Gradient_Swatch_3-36" x1="436.34" y1="114.67" x2="470.46" y2="114.67" xlink:href="#New_Gradient_Swatch_3"/><linearGradient id="New_Gradient_Swatch_3-37" x1="0.36" y1="72.98" x2="84.18" y2="72.98" xlink:href="#New_Gradient_Swatch_3"/><linearGradient id="New_Gradient_Swatch_3-38" x1="78.76" y1="5.06" x2="88.87" y2="5.06" xlink:href="#New_Gradient_Swatch_3"/><linearGradient id="New_Gradient_Swatch_3-39" x1="481.94" y1="300.58" x2="492.05" y2="300.58" xlink:href="#New_Gradient_Swatch_3"/></defs><title>message_09_purple_blue</title><g id="Layer_2" data-name="Layer 2"><g id="Layer_1-2" data-name="Layer 1"><path class="cls-3" d="M306.46,281.16H465.77v-252H74.16c-19,17.44-41.27,37.65-58.69,52.92V305.55H281.06Z"/><path class="cls-4" d="M281.35,306.27H14.74V81.78l.25-.22c14.7-12.88,34.45-30.68,58.68-52.9l.21-.19H466.49V281.89H306.75ZM16.19,304.83H280.77l25.4-24.39H465.05V29.91H74.44c-24,22-43.61,39.69-58.25,52.52Z"/><polygon class="cls-5" points="493.69 241.53 493.69 220.88 475.19 211.11 475.32 231.83 493.69 241.53"/><polygon class="cls-6" points="493.69 215.88 493.69 195.22 475.02 185.36 475.16 206.09 493.69 215.88"/><polygon class="cls-7" points="474.75 56.93 474.75 77.58 493.69 87.59 493.69 66.94 474.75 56.93"/><polygon class="cls-8" points="474.86 159.62 474.99 180.34 493.69 190.22 493.69 169.57 474.86 159.62"/><polygon class="cls-9" points="493.69 113.25 493.69 92.59 474.75 82.59 474.75 103.24 493.69 113.25"/><polygon class="cls-10" points="493.69 246.54 475.36 236.85 475.48 255.63 493.69 264.45 493.69 246.54"/><polygon class="cls-11" points="493.69 138.91 493.69 118.25 474.75 108.24 474.75 128.9 493.69 138.91"/><polygon class="cls-12" points="493.69 164.56 493.69 143.91 474.75 133.9 474.75 142.91 474.83 154.6 493.69 164.56"/><polygon class="cls-13" points="493.69 61.93 493.69 41.01 474.75 30.58 474.75 51.92 493.69 61.93"/><polygon class="cls-14" points="49.16 295.72 69.82 295.72 79.59 277.21 58.87 277.35 49.16 295.72"/><polygon class="cls-15" points="74.82 295.72 95.47 295.72 105.34 277.05 84.61 277.18 74.82 295.72"/><polygon class="cls-16" points="233.77 276.77 213.12 276.77 203.11 295.72 223.76 295.72 233.77 276.77"/><polygon class="cls-17" points="131.08 276.88 110.36 277.01 100.48 295.72 121.13 295.72 131.08 276.88"/><polygon class="cls-18" points="177.45 295.72 198.11 295.72 208.11 276.77 187.46 276.77 177.45 295.72"/><polygon class="cls-19" points="44.16 295.72 53.84 277.38 35.07 277.5 26.25 295.72 44.16 295.72"/><polygon class="cls-20" points="151.79 295.72 172.45 295.72 182.45 276.77 161.8 276.77 151.79 295.72"/><polygon class="cls-21" points="126.14 295.72 146.79 295.72 156.8 276.77 147.79 276.77 136.1 276.85 126.14 295.72"/><polygon class="cls-22" points="228.77 295.72 249.69 295.72 260.12 276.77 238.77 276.77 228.77 295.72"/><polygon class="cls-23" points="81.65 306.22 14.55 306.22 15.47 80.66 7.23 89.65 7.23 156.51 0 176.86 0 296.04 14.45 330.93 14.5 319.29 14.52 314.21 70.81 314.21 81.65 306.22"/><polygon class="cls-24" points="72 29.19 81.03 23.12 181.12 23.12 192.81 16.62 253.45 16.62 268.06 29.62 72 29.19"/><polygon class="cls-25" points="424.86 281.79 414.02 294.08 476.16 294.08 476.16 268.79 466.4 257.95 466.4 281.16 424.86 281.79"/><path class="cls-26" d="M463.15,23.84H273.84a.35.35,0,0,1-.25-.1l-8.67-8.67a.36.36,0,0,1,.51-.51L274,23.12H463.15a.36.36,0,0,1,0,.72Z"/><path class="cls-27" d="M486.27,301.66h-86.7a.36.36,0,0,1-.33-.21.35.35,0,0,1,.06-.39l10.3-11.68H314.31a.36.36,0,0,1,0-.72h96.1a.36.36,0,0,1,.33.21.39.39,0,0,1-.06.39l-10.31,11.68h85.9a.36.36,0,0,1,0,.72Z"/><path id="SVGID-4" data-name="SVGID" class="cls-1" d="M60,55.28a.34.34,0,0,1-.26-.12.35.35,0,0,1,0-.51L78.51,37.31a.35.35,0,0,1,.25-.1H283.24a.36.36,0,0,1,0,.72H78.9L60.22,55.18A.39.39,0,0,1,60,55.28Z"/><g class="cls-28"><rect class="cls-29" x="59.57" y="37.21" width="224.03" height="18.06"/><path class="cls-30" d="M92.15,46.24q0-3.87.11-7.71c0-1.27.08-2.55.13-3.81v1.77H250.82V34.72c.05,1.26.1,2.54.13,3.81q.11,3.84.1,7.71T251,54c0,1.28-.08,2.55-.13,3.82V56H92.39v1.77c0-1.27-.1-2.54-.13-3.82Q92.16,50.13,92.15,46.24Z"/><path class="cls-31" d="M131.88,46.24c0-2.58.07-5.14.2-7.66.07-1.25.16-2.5.26-3.74v1.65h78.53V34.84c.1,1.24.19,2.49.25,3.74.14,2.52.21,5.08.21,7.66s-.07,5.14-.21,7.66c-.06,1.26-.15,2.51-.25,3.75V56H132.34v1.65c-.1-1.24-.19-2.49-.26-3.75Q131.89,50.12,131.88,46.24Z"/></g><polygon id="SVGID-5" data-name="SVGID" class="cls-2" points="441.48 31.07 455.93 48.41 455.93 132.23 452.31 145.23 452.31 182.08 465.32 200.15 465.32 29.19 441.48 31.07"/><g class="cls-32"><rect class="cls-2" x="441.48" y="29.19" width="23.84" height="170.96"/><polygon class="cls-33" points="440.75 114.67 440.75 33.3 440.75 28.46 466.04 28.46 466.04 200.87 440.75 200.87 440.75 114.67"/><path class="cls-34" d="M440.75,114.67V67h-4.41a31.91,31.91,0,0,1,5.18-5.31,17.86,17.86,0,0,1,23.75,0A32.35,32.35,0,0,1,470.46,67H466v95.42h4.42a31.88,31.88,0,0,1-5.19,5.3,17.86,17.86,0,0,1-23.75,0,31.45,31.45,0,0,1-5.18-5.3h4.41Z"/></g><path class="cls-35" d="M.72,141.26a.36.36,0,0,1-.36-.36V82.37a.32.32,0,0,1,.12-.26L83.57,4.79a.37.37,0,0,1,.51,0,.35.35,0,0,1,0,.51l-83,77.21V140.9A.36.36,0,0,1,.72,141.26Z"/><path class="cls-36" d="M88.87,5.06A5.06,5.06,0,1,1,83.82,0,5.06,5.06,0,0,1,88.87,5.06Z"/><path class="cls-37" d="M492.05,300.58a5.06,5.06,0,1,1-5.05-5.06A5.06,5.06,0,0,1,492.05,300.58Z"/><polygon class="cls-5" points="493.69 241.53 493.69 220.88 475.19 211.11 475.32 231.83 493.69 241.53"/><polygon class="cls-6" points="493.69 215.88 493.69 195.22 475.02 185.36 475.16 206.09 493.69 215.88"/><polygon class="cls-7" points="474.75 56.93 474.75 77.58 493.69 87.59 493.69 66.94 474.75 56.93"/><polygon class="cls-8" points="474.86 159.62 474.99 180.34 493.69 190.22 493.69 169.57 474.86 159.62"/><polygon class="cls-9" points="493.69 113.25 493.69 92.59 474.75 82.59 474.75 103.24 493.69 113.25"/><polygon class="cls-10" points="493.69 246.54 475.36 236.85 475.48 255.63 493.69 264.45 493.69 246.54"/><polygon class="cls-11" points="493.69 138.91 493.69 118.25 474.75 108.24 474.75 128.9 493.69 138.91"/><polygon class="cls-12" points="493.69 164.56 493.69 143.91 474.75 133.9 474.75 142.91 474.83 154.6 493.69 164.56"/><polygon class="cls-13" points="493.69 61.93 493.69 41.01 474.75 30.58 474.75 51.92 493.69 61.93"/><polygon class="cls-14" points="49.16 295.72 69.82 295.72 79.59 277.21 58.87 277.35 49.16 295.72"/><polygon class="cls-15" points="74.82 295.72 95.47 295.72 105.34 277.05 84.61 277.18 74.82 295.72"/><polygon class="cls-16" points="233.77 276.77 213.12 276.77 203.11 295.72 223.76 295.72 233.77 276.77"/><polygon class="cls-17" points="131.08 276.88 110.36 277.01 100.48 295.72 121.13 295.72 131.08 276.88"/><polygon class="cls-18" points="177.45 295.72 198.11 295.72 208.11 276.77 187.46 276.77 177.45 295.72"/><polygon class="cls-19" points="44.16 295.72 53.84 277.38 35.07 277.5 26.25 295.72 44.16 295.72"/><polygon class="cls-20" points="151.79 295.72 172.45 295.72 182.45 276.77 161.8 276.77 151.79 295.72"/><polygon class="cls-21" points="126.14 295.72 146.79 295.72 156.8 276.77 147.79 276.77 136.1 276.85 126.14 295.72"/><polygon class="cls-22" points="228.77 295.72 249.69 295.72 260.12 276.77 238.77 276.77 228.77 295.72"/><polygon class="cls-23" points="81.65 306.22 14.55 306.22 15.47 80.66 7.23 89.65 7.23 156.51 0 176.86 0 296.04 14.45 330.93 14.5 319.29 14.52 314.21 70.81 314.21 81.65 306.22"/><polygon class="cls-24" points="72 29.19 81.03 23.12 181.12 23.12 192.81 16.62 253.45 16.62 268.06 29.62 72 29.19"/><polygon class="cls-25" points="424.86 281.79 414.02 294.08 476.16 294.08 476.16 268.79 466.4 257.95 466.4 281.16 424.86 281.79"/><polygon id="SVGID-6" data-name="SVGID" class="cls-2" points="441.48 31.07 455.93 48.41 455.93 132.23 452.31 145.23 452.31 182.08 465.32 200.15 465.32 29.19 441.48 31.07"/><g class="cls-32"><rect class="cls-2" x="441.48" y="29.19" width="23.84" height="170.96"/><polygon class="cls-33" points="440.75 114.67 440.75 33.3 440.75 28.46 466.04 28.46 466.04 200.87 440.75 200.87 440.75 114.67"/><path class="cls-34" d="M440.75,114.67V67h-4.41a31.91,31.91,0,0,1,5.18-5.31,17.86,17.86,0,0,1,23.75,0A32.35,32.35,0,0,1,470.46,67H466v95.42h4.42a31.88,31.88,0,0,1-5.19,5.3,17.86,17.86,0,0,1-23.75,0,31.45,31.45,0,0,1-5.18-5.3h4.41Z"/></g><path class="cls-36" d="M88.87,5.06A5.06,5.06,0,1,1,83.82,0,5.06,5.06,0,0,1,88.87,5.06Z"/><path class="cls-37" d="M492.05,300.58a5.06,5.06,0,1,1-5.05-5.06A5.06,5.06,0,0,1,492.05,300.58Z"/></g></g></svg>