<svg xmlns="http://www.w3.org/2000/svg" xmlns:xlink="http://www.w3.org/1999/xlink" viewBox="0 0 418.43 491.51"><defs><style>.cls-1{mask:url(#mask);filter:url(#luminosity-noclip-2);}.cls-2{mix-blend-mode:multiply;fill:url(#linear-gradient);}.cls-11,.cls-3,.cls-5,.cls-6,.cls-7,.cls-8{fill:#11e5b3;}.cls-4{isolation:isolate;}.cls-5{opacity:0.35;}.cls-6{opacity:0.7;}.cls-7{opacity:0.4;}.cls-8{opacity:0.2;}.cls-9{mask:url(#mask-2);}.cls-10{clip-path:url(#clip-path);}.cls-11{opacity:0.55;mix-blend-mode:screen;}.cls-12{filter:url(#luminosity-noclip);}</style><filter id="luminosity-noclip" x="0" y="-8437.76" width="22.17" height="32766" filterUnits="userSpaceOnUse" color-interpolation-filters="sRGB"><feFlood flood-color="#fff" result="bg"/><feBlend in="SourceGraphic" in2="bg"/></filter><mask id="mask" x="0" y="-8437.76" width="22.17" height="32766" maskUnits="userSpaceOnUse"><g class="cls-12"/></mask><linearGradient id="linear-gradient" x1="11.09" y1="111.58" x2="11.09" y2="271.32" gradientUnits="userSpaceOnUse"><stop offset="0" stop-color="#fff"/><stop offset="0.1" stop-color="#efefef"/><stop offset="0.29" stop-color="#c4c4c4"/><stop offset="0.55" stop-color="#7f7f7f"/><stop offset="0.88" stop-color="#212121"/><stop offset="0.99"/></linearGradient><filter id="luminosity-noclip-2" x="0" y="111.58" width="22.17" height="159.75" filterUnits="userSpaceOnUse" color-interpolation-filters="sRGB"><feFlood flood-color="#fff" result="bg"/><feBlend in="SourceGraphic" in2="bg"/></filter><mask id="mask-2" x="0" y="111.58" width="22.17" height="159.75" maskUnits="userSpaceOnUse"><g class="cls-1"><path class="cls-2" d="M2.33,111.71l-.14,0a1.61,1.61,0,0,0-.54-.09A1.68,1.68,0,0,0,0,113.28v16.89a1.71,1.71,0,0,0,1.19,1.64l12,3.6v6l-11-3.3a1.61,1.61,0,0,0-.54-.09A1.68,1.68,0,0,0,0,139.75v16.88a1.71,1.71,0,0,0,1.19,1.64l12,3.6v6l-11-3.29a1.62,1.62,0,0,0-.54-.1A1.68,1.68,0,0,0,0,166.21V183.1a1.71,1.71,0,0,0,1.19,1.64l12,3.59v6l-11-3.3a1.61,1.61,0,0,0-.54-.09A1.68,1.68,0,0,0,0,192.67v16.89a1.71,1.71,0,0,0,1.19,1.64l17.34,5.2v13.48l-4.46-1.33a.54.54,0,0,0-.22,0,.68.68,0,0,0-.67.69v6.85a.7.7,0,0,0,.49.66l4.86,1.46v2.44l-4.46-1.34a.78.78,0,0,0-.22,0,.67.67,0,0,0-.67.69v6.84a.7.7,0,0,0,.49.67l4.86,1.46v2.44L14.07,250a.78.78,0,0,0-.22,0,.68.68,0,0,0-.67.69v6.85a.7.7,0,0,0,.49.67l4.86,1.45v2.45l-4.46-1.34a.54.54,0,0,0-.22,0,.68.68,0,0,0-.67.69v6.85a.68.68,0,0,0,.49.66l8,2.41a.64.64,0,0,0,.49-.05V120.33C15.53,117.62,8,114.28,2.33,111.71Z"/></g></mask><clipPath id="clip-path"><polygon id="SVGID" class="cls-3" points="389.96 380.94 388.16 380.94 388.16 295.52 379.17 284.9 379.17 113.07 380.97 113.07 380.97 284.24 389.96 294.86 389.96 380.94"/></clipPath></defs><title>message_03_green</title><g class="cls-4"><g id="Layer_2" data-name="Layer 2"><g id="Layer_1-2" data-name="Layer 1"><path class="cls-5" d="M390.76,274.88V110.09l-12.49-9.61H233.55l-11.21,9.61H32.05l-10,9.57v151l10,9.18V399.6l-5.25,7.71v50.94c0,1.8,5.25,10.54,5.25,10.54H390.76l12.68-22.22V288.36Z"/><path class="cls-3" d="M391.28,469.69H31.55l-.27-.43c-1.26-2.1-5.38-9.11-5.38-11V407l5.26-7.72V280.25L21.1,271.07V119.27l10.59-10.08H222l11.2-9.61H378.58l13.08,10.07V274.52L404.34,288V446.8ZM32.56,467.9H390.24l12.3-21.57V288.71l-12.68-13.48V110.53L378,101.38H233.88L222.67,111H32.41L22.9,120V270.28L33,279.46V399.88l-5.26,7.71v50.66C27.69,459.17,30.17,463.88,32.56,467.9Z"/><rect class="cls-6" x="396.53" y="111.72" width="8.39" height="22.77"/><rect class="cls-7" x="396.53" y="142.29" width="8.39" height="22.77"/><rect class="cls-7" x="396.53" y="172.85" width="8.39" height="22.77"/><polygon class="cls-8" points="396.53 233.98 396.53 266.34 404.92 275.93 404.92 233.98 396.53 233.98"/><rect class="cls-8" x="396.53" y="203.41" width="8.39" height="22.77"/><path class="cls-3" d="M378,100.78a1.39,1.39,0,0,0,.16-.35l1.71-6.59a1.63,1.63,0,0,0-.31-1.41,1.75,1.75,0,0,0-1.35-.64H335.3l3.3-11a1.65,1.65,0,0,0,.09-.54,1.68,1.68,0,0,0-1.7-1.65H320.1a1.69,1.69,0,0,0-1.64,1.19l-3.6,12h-6l3.3-11a1.65,1.65,0,0,0,.09-.54,1.68,1.68,0,0,0-1.71-1.65H293.64A1.69,1.69,0,0,0,292,79.8l-3.6,12h-6l3.29-11a1.66,1.66,0,0,0,.1-.54,1.68,1.68,0,0,0-1.71-1.65H267.17a1.69,1.69,0,0,0-1.64,1.19l-3.59,12h-6l3.3-11a1.65,1.65,0,0,0,.09-.54,1.68,1.68,0,0,0-1.7-1.65H240.71a1.69,1.69,0,0,0-1.64,1.19l-5.93,19.77a1.59,1.59,0,0,0,.13,1.21Z"/><path class="cls-3" d="M230.2,469.34h-199a1.39,1.39,0,0,0-.16.35l-1.71,6.59a1.63,1.63,0,0,0,.31,1.41,1.75,1.75,0,0,0,1.35.64H73.92l-3.3,11a1.61,1.61,0,0,0-.09.54,1.68,1.68,0,0,0,1.7,1.65H89.12a1.69,1.69,0,0,0,1.64-1.19l3.6-12h6l-3.3,11a1.61,1.61,0,0,0-.09.54,1.68,1.68,0,0,0,1.71,1.65h16.88a1.69,1.69,0,0,0,1.64-1.19l3.6-12h6l-3.29,11a1.62,1.62,0,0,0-.1.54,1.68,1.68,0,0,0,1.71,1.65h16.89a1.69,1.69,0,0,0,1.64-1.19l3.59-12h6l-3.3,11a1.61,1.61,0,0,0-.09.54,1.68,1.68,0,0,0,1.7,1.65h16.89a1.69,1.69,0,0,0,1.64-1.19l5.2-17.34h13.48l-1.33,4.46a.54.54,0,0,0,0,.22.68.68,0,0,0,.69.67H195a.7.7,0,0,0,.66-.48l1.46-4.87h2.44l-1.34,4.46a.78.78,0,0,0,0,.22.67.67,0,0,0,.69.67h6.84a.7.7,0,0,0,.67-.48l1.46-4.87h2.44L209,477.44a.78.78,0,0,0,0,.22.68.68,0,0,0,.69.67h6.85a.7.7,0,0,0,.67-.48l1.45-4.87H221l-1.34,4.46a.78.78,0,0,0,0,.22.68.68,0,0,0,.69.67h6.85a.68.68,0,0,0,.66-.48l2.41-8A.64.64,0,0,0,230.2,469.34Z"/><path class="cls-3" d="M398.35,477.88H234.15a.45.45,0,1,1,0-.9H398.08l15.4-28.43v-74.2a.45.45,0,1,1,.9,0v74.31a.54.54,0,0,1-.05.22l-15.59,28.76A.43.43,0,0,1,398.35,477.88Z"/><path class="cls-3" d="M418.43,372.85a4.5,4.5,0,1,1-4.5-4.49A4.5,4.5,0,0,1,418.43,372.85Z"/><path class="cls-3" d="M39.08,449.26a4.5,4.5,0,1,1-4.49-4.49A4.5,4.5,0,0,1,39.08,449.26Z"/><g class="cls-9"><path class="cls-7" d="M2.33,111.71l-.14,0a1.61,1.61,0,0,0-.54-.09A1.68,1.68,0,0,0,0,113.28v16.89a1.71,1.71,0,0,0,1.19,1.64l12,3.6v6l-11-3.3a1.61,1.61,0,0,0-.54-.09A1.68,1.68,0,0,0,0,139.75v16.88a1.71,1.71,0,0,0,1.19,1.64l12,3.6v6l-11-3.29a1.62,1.62,0,0,0-.54-.1A1.68,1.68,0,0,0,0,166.21V183.1a1.71,1.71,0,0,0,1.19,1.64l12,3.59v6l-11-3.3a1.61,1.61,0,0,0-.54-.09A1.68,1.68,0,0,0,0,192.67v16.89a1.71,1.71,0,0,0,1.19,1.64l17.34,5.2v13.48l-4.46-1.33a.54.54,0,0,0-.22,0,.68.68,0,0,0-.67.69v6.85a.7.7,0,0,0,.49.66l4.86,1.46v2.44l-4.46-1.34a.78.78,0,0,0-.22,0,.67.67,0,0,0-.67.69v6.84a.7.7,0,0,0,.49.67l4.86,1.46v2.44L14.07,250a.78.78,0,0,0-.22,0,.68.68,0,0,0-.67.69v6.85a.7.7,0,0,0,.49.67l4.86,1.45v2.45l-4.46-1.34a.54.54,0,0,0-.22,0,.68.68,0,0,0-.67.69v6.85a.68.68,0,0,0,.49.66l8,2.41a.64.64,0,0,0,.49-.05V120.33C15.53,117.62,8,114.28,2.33,111.71Z"/></g><polygon class="cls-3" points="227.41 118.01 38.48 118.01 38.48 117.11 227.1 117.11 238.79 108.12 333.33 108.12 333.33 109.02 239.09 109.02 227.41 118.01"/><polygon id="SVGID-2" data-name="SVGID" class="cls-3" points="389.96 380.94 388.16 380.94 388.16 295.52 379.17 284.9 379.17 113.07 380.97 113.07 380.97 284.24 389.96 294.86 389.96 380.94"/><g class="cls-10"><rect class="cls-3" x="379.17" y="113.07" width="10.79" height="267.88"/><path class="cls-3" d="M384.57,341.78q-3.27,0-6.51-.13h.21V152.36h-.21q3.24-.13,6.51-.13t6.5.13h-.21V341.65h.21Q387.85,341.79,384.57,341.78Z"/><path class="cls-3" d="M384.57,294.39c-2.18,0-4.34-.08-6.46-.24h.16V199.86h-.16c2.12-.16,4.28-.24,6.46-.24s4.33.08,6.46.24h-.17v94.29H391Q387.84,294.39,384.57,294.39Z"/></g><polygon class="cls-3" points="35.34 450.16 34.44 450.16 34.44 413.18 39.83 404.19 39.83 318.92 40.73 318.92 40.73 404.44 35.34 413.43 35.34 450.16"/><polygon class="cls-3" points="230.2 469.34 235.34 461.25 387.56 461.25 399.55 445.67 403.74 374.95 403.74 446.57 390.76 468.79 230.2 469.34"/><polygon class="cls-3" points="42.38 110.67 29.79 122.06 29.79 277.27 22.17 271.25 22.17 120.33 32.05 110.09 42.38 110.67"/><rect class="cls-6" x="396.53" y="111.72" width="8.39" height="22.77"/><rect class="cls-7" x="396.53" y="142.29" width="8.39" height="22.77"/><rect class="cls-7" x="396.53" y="172.85" width="8.39" height="22.77"/><polygon class="cls-8" points="396.53 233.98 396.53 266.34 404.92 275.93 404.92 233.98 396.53 233.98"/><rect class="cls-8" x="396.53" y="203.41" width="8.39" height="22.77"/><path class="cls-3" d="M378,100.78a1.39,1.39,0,0,0,.16-.35l1.71-6.59a1.63,1.63,0,0,0-.31-1.41,1.75,1.75,0,0,0-1.35-.64H335.3l3.3-11a1.65,1.65,0,0,0,.09-.54,1.68,1.68,0,0,0-1.7-1.65H320.1a1.69,1.69,0,0,0-1.64,1.19l-3.6,12h-6l3.3-11a1.65,1.65,0,0,0,.09-.54,1.68,1.68,0,0,0-1.71-1.65H293.64A1.69,1.69,0,0,0,292,79.8l-3.6,12h-6l3.29-11a1.66,1.66,0,0,0,.1-.54,1.68,1.68,0,0,0-1.71-1.65H267.17a1.69,1.69,0,0,0-1.64,1.19l-3.59,12h-6l3.3-11a1.65,1.65,0,0,0,.09-.54,1.68,1.68,0,0,0-1.7-1.65H240.71a1.69,1.69,0,0,0-1.64,1.19l-5.93,19.77a1.59,1.59,0,0,0,.13,1.21Z"/><path class="cls-3" d="M230.2,469.34h-199a1.39,1.39,0,0,0-.16.35l-1.71,6.59a1.63,1.63,0,0,0,.31,1.41,1.75,1.75,0,0,0,1.35.64H73.92l-3.3,11a1.61,1.61,0,0,0-.09.54,1.68,1.68,0,0,0,1.7,1.65H89.12a1.69,1.69,0,0,0,1.64-1.19l3.6-12h6l-3.3,11a1.61,1.61,0,0,0-.09.54,1.68,1.68,0,0,0,1.71,1.65h16.88a1.69,1.69,0,0,0,1.64-1.19l3.6-12h6l-3.29,11a1.62,1.62,0,0,0-.1.54,1.68,1.68,0,0,0,1.71,1.65h16.89a1.69,1.69,0,0,0,1.64-1.19l3.59-12h6l-3.3,11a1.61,1.61,0,0,0-.09.54,1.68,1.68,0,0,0,1.7,1.65h16.89a1.69,1.69,0,0,0,1.64-1.19l5.2-17.34h13.48l-1.33,4.46a.54.54,0,0,0,0,.22.68.68,0,0,0,.69.67H195a.7.7,0,0,0,.66-.48l1.46-4.87h2.44l-1.34,4.46a.78.78,0,0,0,0,.22.67.67,0,0,0,.69.67h6.84a.7.7,0,0,0,.67-.48l1.46-4.87h2.44L209,477.44a.78.78,0,0,0,0,.22.68.68,0,0,0,.69.67h6.85a.7.7,0,0,0,.67-.48l1.45-4.87H221l-1.34,4.46a.78.78,0,0,0,0,.22.68.68,0,0,0,.69.67h6.85a.68.68,0,0,0,.66-.48l2.41-8A.64.64,0,0,0,230.2,469.34Z"/><path class="cls-3" d="M418.43,372.85a4.5,4.5,0,1,1-4.5-4.49A4.5,4.5,0,0,1,418.43,372.85Z"/><path class="cls-3" d="M39.08,449.26a4.5,4.5,0,1,1-4.49-4.49A4.5,4.5,0,0,1,39.08,449.26Z"/><polygon class="cls-3" points="230.2 469.34 235.34 461.25 387.56 461.25 399.55 445.67 403.74 374.95 403.74 446.57 390.76 468.79 230.2 469.34"/><polygon class="cls-3" points="42.38 110.67 29.79 122.06 29.79 277.27 22.17 271.25 22.17 120.33 32.05 110.09 42.38 110.67"/><rect class="cls-3" x="39.61" y="3.82" width="74" height="0.55"/><rect class="cls-3" x="34.64" y="88.12" width="78.97" height="0.55"/><rect class="cls-3" x="14.53" y="32.94" width="0.55" height="35.63"/><rect class="cls-3" x="237.52" y="33.01" width="0.55" height="33.17"/><rect class="cls-3" x="139.13" y="88.12" width="63.62" height="0.55"/><rect class="cls-3" x="139.13" y="3.82" width="69.74" height="0.55"/><path class="cls-3" d="M130.84,4.13a4.14,4.14,0,1,0-4.13,4.14A4.13,4.13,0,0,0,130.84,4.13Z"/><path class="cls-3" d="M27.46,13.1a4,4,0,1,0-4,4A4,4,0,0,0,27.46,13.1Z"/><path class="cls-3" d="M227.68,78.51a1.9,1.9,0,1,0-1.9,1.9A1.9,1.9,0,0,0,227.68,78.51Z"/><path class="cls-3" d="M22.78,84.58a1.91,1.91,0,1,0-1.91,1.9A1.91,1.91,0,0,0,22.78,84.58Z"/><path class="cls-3" d="M234.83,12.14a4.36,4.36,0,1,0-4.36,4.36A4.36,4.36,0,0,0,234.83,12.14Z"/><path class="cls-3" d="M128.61,88.25a1.91,1.91,0,1,0-1.9,1.9A1.9,1.9,0,0,0,128.61,88.25Z"/><polygon class="cls-11" points="230.44 25.66 230.44 66.18 224.97 66.18 210.02 81.13 27.37 81.13 21.26 75.01 21.26 26.49 31.42 16.32 39.61 16.32 39.61 11.72 216.5 11.72 230.44 25.66"/><polygon class="cls-3" points="210.09 81.59 209.7 81.2 224.85 66.04 230.4 66.04 230.4 66.6 225.08 66.6 210.09 81.59"/><rect class="cls-3" x="223.2" y="8.84" width="0.55" height="19.71" transform="translate(52.24 163.49) rotate(-45)"/><polygon class="cls-3" points="21.38 26.61 20.99 26.22 31.45 15.77 39.75 15.77 39.75 16.32 31.67 16.32 21.38 26.61"/><polygon class="cls-3" points="58.93 91.48 61.24 93.79 84.87 93.79 86.82 95.74 103.43 95.74 108.59 90.57 57.94 90.57 58.93 91.48"/><polygon class="cls-3" points="194.36 91.48 192.04 93.79 168.41 93.79 166.47 95.74 149.86 95.74 144.69 90.57 195.34 90.57 194.36 91.48"/><path class="cls-3" d="M61.08,64.5H53.41L49.08,47.94,44.74,64.5H37.08L28.43,34.23h8.42L41.1,50.6l4.17-16.37h7.61L57.05,50.6,61.3,34.23h8.42Z"/><path class="cls-3" d="M86.11,64.5,85,60.42H74.87L73.61,64.5H65.5v-.08L75.79,34.23H84l10.3,30.19v.08ZM79.88,43.9l-2.55,8.76h5.15Z"/><path class="cls-3" d="M113.42,64.5l-7.89-11.13V48.54h7.66V42.43H104.3V64.5H96.41V34.23h22a2.22,2.22,0,0,1,1.93,1.09,5.14,5.14,0,0,1,.73,2.91V51.7a4.86,4.86,0,0,1-.73,2.86,2.23,2.23,0,0,1-1.93,1H116l6.46,8.6v.31Z"/><path class="cls-3" d="M142.59,64.5,132.41,48.57V64.5h-7.89V34.23h7.81l10.15,14.62V34.23h7.89V64.5Z"/><path class="cls-3" d="M154.29,64.5V34.23h7.88V64.5Z"/><path class="cls-3" d="M184.16,64.5,174,48.57V64.5h-7.89V34.23h7.81l10.15,14.62V34.23h7.89V64.5Z"/><path class="cls-3" d="M221,63.41a2.21,2.21,0,0,1-1.94,1.09H198.46a2.15,2.15,0,0,1-1.92-1.09,5.36,5.36,0,0,1-.68-2.91V38.23a5.22,5.22,0,0,1,.72-2.91,2.27,2.27,0,0,1,2-1.09h20.51A2.23,2.23,0,0,1,221,35.32a5.23,5.23,0,0,1,.71,2.91v6.58h-7.89V42.43H203.74V56.3h10.07V54.12h-7.72V46.59H221.7V60.5A5.18,5.18,0,0,1,221,63.41Z"/></g></g></g></svg>