<svg xmlns="http://www.w3.org/2000/svg" xmlns:xlink="http://www.w3.org/1999/xlink" viewBox="0 0 430.06 492.25"><defs><style>.cls-1{fill:url(#New_Gradient_Swatch_3);}.cls-2{fill:url(#New_Gradient_Swatch_3-2);}.cls-3{fill:url(#New_Gradient_Swatch_3-3);}.cls-4{fill:url(#New_Gradient_Swatch_3-4);}.cls-5{fill:url(#New_Gradient_Swatch_3-5);}.cls-6{isolation:isolate;}.cls-7{opacity:0.35;fill:url(#New_Gradient_Swatch_3-11);}.cls-8{fill:url(#New_Gradient_Swatch_3-12);}.cls-9{fill:url(#New_Gradient_Swatch_3-13);}.cls-10{fill:url(#New_Gradient_Swatch_3-14);}.cls-11{fill:url(#New_Gradient_Swatch_3-15);}.cls-12{fill:url(#New_Gradient_Swatch_3-16);}.cls-13{fill:url(#New_Gradient_Swatch_3-17);}.cls-14{fill:url(#New_Gradient_Swatch_3-18);}.cls-15{fill:url(#New_Gradient_Swatch_3-19);}.cls-16{fill:url(#New_Gradient_Swatch_3-20);}.cls-17{fill:url(#New_Gradient_Swatch_3-21);}.cls-18{fill:url(#New_Gradient_Swatch_3-22);}.cls-19{fill:url(#New_Gradient_Swatch_3-23);}.cls-20{fill:url(#New_Gradient_Swatch_3-24);}.cls-21{fill:url(#New_Gradient_Swatch_3-25);}.cls-22{fill:url(#New_Gradient_Swatch_3-26);}.cls-23{fill:url(#New_Gradient_Swatch_3-27);}.cls-24{clip-path:url(#clip-path);}.cls-25{fill:url(#New_Gradient_Swatch_3-30);}.cls-26{fill:url(#New_Gradient_Swatch_3-31);}.cls-27{clip-path:url(#clip-path-2);}.cls-28{fill:url(#New_Gradient_Swatch_3-34);}.cls-29{fill:url(#New_Gradient_Swatch_3-35);}.cls-30{clip-path:url(#clip-path-3);}.cls-31{fill:url(#New_Gradient_Swatch_3-38);}.cls-32{fill:url(#New_Gradient_Swatch_3-39);}.cls-33{clip-path:url(#clip-path-4);}.cls-34{fill:url(#New_Gradient_Swatch_3-42);}.cls-35{fill:url(#New_Gradient_Swatch_3-43);}.cls-36{clip-path:url(#clip-path-5);}.cls-37{fill:url(#New_Gradient_Swatch_3-46);}.cls-38{fill:url(#New_Gradient_Swatch_3-47);}.cls-39{fill:url(#New_Gradient_Swatch_3-48);}.cls-40{fill:url(#New_Gradient_Swatch_3-49);}.cls-41{fill:url(#New_Gradient_Swatch_3-50);}.cls-42{fill:url(#New_Gradient_Swatch_3-51);}.cls-43{opacity:0.55;mix-blend-mode:screen;fill:url(#New_Gradient_Swatch_3-89);}.cls-44{fill:url(#New_Gradient_Swatch_3-90);}.cls-45{fill:url(#New_Gradient_Swatch_3-91);}.cls-46{fill:url(#New_Gradient_Swatch_3-92);}.cls-47{fill:url(#New_Gradient_Swatch_3-93);}.cls-48{fill:url(#New_Gradient_Swatch_3-94);}.cls-49{fill:url(#New_Gradient_Swatch_3-95);}.cls-50{fill:url(#New_Gradient_Swatch_3-96);}.cls-51{fill:url(#New_Gradient_Swatch_3-97);}.cls-52{fill:url(#New_Gradient_Swatch_3-98);}.cls-53{fill:url(#New_Gradient_Swatch_3-99);}.cls-54{fill:url(#New_Gradient_Swatch_3-100);}.cls-55{fill:url(#New_Gradient_Swatch_3-101);}.cls-56{fill:url(#New_Gradient_Swatch_3-102);}.cls-57{fill:url(#New_Gradient_Swatch_3-103);}.cls-58{fill:url(#New_Gradient_Swatch_3-104);}.cls-59{fill:url(#New_Gradient_Swatch_3-105);}.cls-60{fill:url(#New_Gradient_Swatch_3-106);}.cls-61{fill:url(#New_Gradient_Swatch_3-107);}</style><linearGradient id="New_Gradient_Swatch_3" x1="250.11" y1="86.98" x2="266.87" y2="86.98" gradientUnits="userSpaceOnUse"><stop offset="0" stop-color="#9541de"/><stop offset="1" stop-color="#3ab2c0"/></linearGradient><linearGradient id="New_Gradient_Swatch_3-2" x1="238.34" y1="86.98" x2="255.1" y2="86.98" xlink:href="#New_Gradient_Swatch_3"/><linearGradient id="New_Gradient_Swatch_3-3" x1="226.56" y1="86.98" x2="243.33" y2="86.98" xlink:href="#New_Gradient_Swatch_3"/><linearGradient id="New_Gradient_Swatch_3-4" x1="214.79" y1="86.98" x2="231.56" y2="86.98" xlink:href="#New_Gradient_Swatch_3"/><linearGradient id="New_Gradient_Swatch_3-5" x1="203.02" y1="86.98" x2="219.79" y2="86.98" xlink:href="#New_Gradient_Swatch_3"/><linearGradient id="New_Gradient_Swatch_3-11" x1="19.21" y1="273.67" x2="417.58" y2="273.67" xlink:href="#New_Gradient_Swatch_3"/><linearGradient id="New_Gradient_Swatch_3-12" x1="18.3" y1="273.67" x2="418.49" y2="273.67" xlink:href="#New_Gradient_Swatch_3"/><linearGradient id="New_Gradient_Swatch_3-13" x1="348.75" y1="65.2" x2="430.06" y2="65.2" xlink:href="#New_Gradient_Swatch_3"/><linearGradient id="New_Gradient_Swatch_3-14" x1="365.29" y1="482.44" x2="428.54" y2="482.44" xlink:href="#New_Gradient_Swatch_3"/><linearGradient id="New_Gradient_Swatch_3-15" x1="0" y1="93.92" x2="19.6" y2="93.92" xlink:href="#New_Gradient_Swatch_3"/><linearGradient id="New_Gradient_Swatch_3-16" x1="7.62" y1="391.87" x2="19.49" y2="391.87" xlink:href="#New_Gradient_Swatch_3"/><linearGradient id="New_Gradient_Swatch_3-17" x1="417.55" y1="408.92" x2="429.42" y2="408.92" xlink:href="#New_Gradient_Swatch_3"/><linearGradient id="New_Gradient_Swatch_3-18" x1="406.61" y1="173.74" x2="417.58" y2="173.74" xlink:href="#New_Gradient_Swatch_3"/><linearGradient id="New_Gradient_Swatch_3-19" x1="406.61" y1="187.75" x2="417.58" y2="187.75" xlink:href="#New_Gradient_Swatch_3"/><linearGradient id="New_Gradient_Swatch_3-20" x1="406.61" y1="201.76" x2="417.58" y2="201.76" xlink:href="#New_Gradient_Swatch_3"/><linearGradient id="New_Gradient_Swatch_3-21" x1="406.61" y1="215.77" x2="417.58" y2="215.77" xlink:href="#New_Gradient_Swatch_3"/><linearGradient id="New_Gradient_Swatch_3-22" x1="406.61" y1="229.78" x2="417.58" y2="229.78" xlink:href="#New_Gradient_Swatch_3"/><linearGradient id="New_Gradient_Swatch_3-23" x1="247.94" y1="453.05" x2="259.56" y2="453.05" xlink:href="#New_Gradient_Swatch_3"/><linearGradient id="New_Gradient_Swatch_3-24" x1="240.04" y1="453.05" x2="251.66" y2="453.05" xlink:href="#New_Gradient_Swatch_3"/><linearGradient id="New_Gradient_Swatch_3-25" x1="232.14" y1="453.05" x2="243.76" y2="453.05" xlink:href="#New_Gradient_Swatch_3"/><linearGradient id="New_Gradient_Swatch_3-26" x1="224.24" y1="453.05" x2="235.86" y2="453.05" xlink:href="#New_Gradient_Swatch_3"/><linearGradient id="New_Gradient_Swatch_3-27" x1="216.35" y1="453.05" x2="227.96" y2="453.05" xlink:href="#New_Gradient_Swatch_3"/><clipPath id="clip-path"><polygon id="SVGID" class="cls-1" points="261.53 83.02 250.11 90.94 255.45 90.94 266.87 83.02 261.53 83.02"/></clipPath><linearGradient id="New_Gradient_Swatch_3-30" x1="249.16" y1="89.28" x2="267.79" y2="89.28" xlink:href="#New_Gradient_Swatch_3"/><linearGradient id="New_Gradient_Swatch_3-31" x1="254.81" y1="85.73" x2="267.82" y2="85.73" xlink:href="#New_Gradient_Swatch_3"/><clipPath id="clip-path-2"><polygon id="SVGID-2" data-name="SVGID" class="cls-2" points="249.76 83.02 238.34 90.94 243.68 90.94 255.1 83.02 249.76 83.02"/></clipPath><linearGradient id="New_Gradient_Swatch_3-34" x1="237.39" y1="89.28" x2="256.02" y2="89.28" xlink:href="#New_Gradient_Swatch_3"/><linearGradient id="New_Gradient_Swatch_3-35" x1="243.03" y1="85.73" x2="256.05" y2="85.73" xlink:href="#New_Gradient_Swatch_3"/><clipPath id="clip-path-3"><polygon id="SVGID-3" data-name="SVGID" class="cls-3" points="237.99 83.02 226.56 90.94 231.91 90.94 243.33 83.02 237.99 83.02"/></clipPath><linearGradient id="New_Gradient_Swatch_3-38" x1="225.62" y1="89.28" x2="244.24" y2="89.28" xlink:href="#New_Gradient_Swatch_3"/><linearGradient id="New_Gradient_Swatch_3-39" x1="231.26" y1="85.73" x2="244.28" y2="85.73" xlink:href="#New_Gradient_Swatch_3"/><clipPath id="clip-path-4"><polygon id="SVGID-4" data-name="SVGID" class="cls-4" points="226.21 83.02 214.79 90.94 220.14 90.94 231.56 83.02 226.21 83.02"/></clipPath><linearGradient id="New_Gradient_Swatch_3-42" x1="213.84" y1="89.28" x2="232.47" y2="89.28" xlink:href="#New_Gradient_Swatch_3"/><linearGradient id="New_Gradient_Swatch_3-43" x1="219.49" y1="85.73" x2="232.5" y2="85.73" xlink:href="#New_Gradient_Swatch_3"/><clipPath id="clip-path-5"><polygon id="SVGID-5" data-name="SVGID" class="cls-5" points="214.44 83.02 203.02 90.94 208.36 90.94 219.78 83.02 214.44 83.02"/></clipPath><linearGradient id="New_Gradient_Swatch_3-46" x1="202.07" y1="89.28" x2="220.7" y2="89.28" xlink:href="#New_Gradient_Swatch_3"/><linearGradient id="New_Gradient_Swatch_3-47" x1="207.72" y1="85.73" x2="220.73" y2="85.73" xlink:href="#New_Gradient_Swatch_3"/><linearGradient id="New_Gradient_Swatch_3-48" x1="139.67" y1="446.66" x2="362.3" y2="446.66" xlink:href="#New_Gradient_Swatch_3"/><linearGradient id="New_Gradient_Swatch_3-49" x1="29.11" y1="215.8" x2="37.95" y2="215.8" xlink:href="#New_Gradient_Swatch_3"/><linearGradient id="New_Gradient_Swatch_3-50" x1="396.26" y1="141.8" x2="413.31" y2="141.8" xlink:href="#New_Gradient_Swatch_3"/><linearGradient id="New_Gradient_Swatch_3-51" x1="396.26" y1="271.09" x2="402.35" y2="271.09" xlink:href="#New_Gradient_Swatch_3"/><linearGradient id="New_Gradient_Swatch_3-89" x1="57.68" y1="35.82" x2="325.05" y2="35.82" xlink:href="#New_Gradient_Swatch_3"/><linearGradient id="New_Gradient_Swatch_3-90" x1="52.52" y1="8.92" x2="329" y2="8.92" xlink:href="#New_Gradient_Swatch_3"/><linearGradient id="New_Gradient_Swatch_3-91" x1="52.52" y1="42.9" x2="329" y2="42.9" xlink:href="#New_Gradient_Swatch_3"/><linearGradient id="New_Gradient_Swatch_3-92" x1="327.08" y1="4.32" x2="330.58" y2="4.32" gradientTransform="translate(99.55 -231.43) rotate(45.04)" xlink:href="#New_Gradient_Swatch_3"/><linearGradient id="New_Gradient_Swatch_3-93" x1="327.08" y1="14.69" x2="330.58" y2="14.69" gradientTransform="translate(106.99 -228.47) rotate(45.07)" xlink:href="#New_Gradient_Swatch_3"/><linearGradient id="New_Gradient_Swatch_3-94" x1="51.04" y1="17.81" x2="54.54" y2="17.81" gradientTransform="translate(28.09 -32.13) rotate(45.04)" xlink:href="#New_Gradient_Swatch_3"/><linearGradient id="New_Gradient_Swatch_3-95" x1="51.04" y1="28.18" x2="54.54" y2="28.18" gradientTransform="translate(35.46 -29.1) rotate(45.07)" xlink:href="#New_Gradient_Swatch_3"/><linearGradient id="New_Gradient_Swatch_3-96" x1="52.79" y1="65.37" x2="82.75" y2="65.37" xlink:href="#New_Gradient_Swatch_3"/><linearGradient id="New_Gradient_Swatch_3-97" x1="298.88" y1="65.37" x2="328.83" y2="65.37" xlink:href="#New_Gradient_Swatch_3"/><linearGradient id="New_Gradient_Swatch_3-98" x1="54.9" y1="8.46" x2="326.64" y2="8.46" xlink:href="#New_Gradient_Swatch_3"/><linearGradient id="New_Gradient_Swatch_3-99" x1="54.63" y1="5.23" x2="68.79" y2="5.23" xlink:href="#New_Gradient_Swatch_3"/><linearGradient id="New_Gradient_Swatch_3-100" x1="328.79" y1="28.77" x2="330.69" y2="28.77" xlink:href="#New_Gradient_Swatch_3"/><linearGradient id="New_Gradient_Swatch_3-101" x1="50.89" y1="43.6" x2="52.79" y2="43.6" xlink:href="#New_Gradient_Swatch_3"/><linearGradient id="New_Gradient_Swatch_3-102" x1="104.19" y1="32.3" x2="130.27" y2="32.3" xlink:href="#New_Gradient_Swatch_3"/><linearGradient id="New_Gradient_Swatch_3-103" x1="132.45" y1="32.3" x2="162.99" y2="32.3" xlink:href="#New_Gradient_Swatch_3"/><linearGradient id="New_Gradient_Swatch_3-104" x1="165.16" y1="32.37" x2="197.3" y2="32.37" xlink:href="#New_Gradient_Swatch_3"/><linearGradient id="New_Gradient_Swatch_3-105" x1="201.64" y1="32.3" x2="228.98" y2="32.3" xlink:href="#New_Gradient_Swatch_3"/><linearGradient id="New_Gradient_Swatch_3-106" x1="232.88" y1="32.3" x2="257.1" y2="32.3" xlink:href="#New_Gradient_Swatch_3"/><linearGradient id="New_Gradient_Swatch_3-107" x1="260.35" y1="32.3" x2="286.78" y2="32.3" xlink:href="#New_Gradient_Swatch_3"/></defs><title>message_02_purple_blue</title><g class="cls-6"><g id="Layer_2" data-name="Layer 2"><g id="Layer_1-2" data-name="Layer 1"><polygon class="cls-7" points="407.22 338.84 407.22 170.73 417.58 151.85 417.58 74.49 349.75 74.49 344.94 83.63 273.67 83.63 263.62 90.48 154.44 90.48 133.88 84.54 43.43 84.54 36.61 74.49 19.21 74.49 19.21 122.91 27.44 143.47 27.44 289.2 19.21 309.76 19.21 472.85 73.64 472.85 88.65 460.06 138.6 460.06 152 448.49 256.77 448.49 264.69 457.62 362.15 457.62 365.77 472.85 417.58 472.85 417.58 344.33 407.22 338.84"/><path class="cls-8" d="M418.49,473.76H365.05l-3.63-15.22H264.27l-7.92-9.14h-104L138.94,461H89L74,473.76H18.3V309.58L26.52,289V143.65L18.3,123.09V73.58H37.09l6.82,10H134l20.56,5.93H263.34l10.05-6.85h71l4.81-9.13h69.29v78.5L408.13,171V338.29l10.36,5.49Zm-52-1.82h50.17V344.88l-10.35-5.49V170.49l10.35-18.88V75.4H350.3l-4.81,9.14H274L263.9,91.39l-109.72,0-20.43-5.91H42.94l-6.82-10h-16v47.34l8.22,20.56V289.38l-8.22,20.56v162H73.3l15-12.8h49.94l13.4-11.57H257.19l7.92,9.14h97.76Z"/><path class="cls-9" d="M429.44,64.12,416.3,55.65a1.57,1.57,0,0,0-.86-.25,1.6,1.6,0,0,0-.87.25l-12.46,8H350.23A1.41,1.41,0,0,0,348.75,65v8.65A1.41,1.41,0,0,0,350.23,75h65.21a1.6,1.6,0,0,0,.86-.25l13.14-8.47a1.25,1.25,0,0,0,0-2.16Z"/><path class="cls-10" d="M428.06,483.52,417.84,492a1.09,1.09,0,0,1-.67.25,1.07,1.07,0,0,1-.67-.25l-9.7-8H366.45a1.26,1.26,0,0,1-1.16-1.34V474a1.26,1.26,0,0,1,1.16-1.33h50.72a1,1,0,0,1,.67.25l10.22,8.47a1.45,1.45,0,0,1,0,2.16Z"/><path class="cls-11" d="M8.72,63.87.25,73.73a1,1,0,0,0-.25.65A1,1,0,0,0,.25,75l8,9.36v38.93a1.24,1.24,0,0,0,1.33,1.12h8.65a1.23,1.23,0,0,0,1.33-1.12V74.38a1,1,0,0,0-.25-.65l-8.47-9.86a1.5,1.5,0,0,0-2.16,0Z"/><path class="cls-12" d="M19.21,309.76S7,308.38,7.64,316.36v87.75l6.7,4.91v54.62l4.87,10.43S19.82,307.46,19.21,309.76Z"/><path class="cls-13" d="M417.82,474.6s12.19,1.11,11.58-5.27v-70.2l-6.7-3.93V351.51l-4.88-8.34S417.22,476.44,417.82,474.6Z"/><polygon class="cls-14" points="406.61 179.63 406.61 185.76 417.58 167.85 417.58 161.72 406.61 179.63"/><polygon class="cls-15" points="406.61 199.77 417.58 181.86 417.58 175.73 406.61 193.65 406.61 199.77"/><polygon class="cls-16" points="406.61 213.78 417.58 195.87 417.58 189.74 406.61 207.65 406.61 213.78"/><polygon class="cls-17" points="406.61 227.79 417.58 209.88 417.58 203.75 406.61 221.66 406.61 227.79"/><polygon class="cls-18" points="406.61 241.8 417.58 223.88 417.58 217.76 406.61 235.67 406.61 241.8"/><polygon class="cls-19" points="259.56 457.62 252.07 448.49 247.94 448.49 255.42 457.62 259.56 457.62"/><polygon class="cls-20" points="251.66 457.62 244.17 448.49 240.04 448.49 247.52 457.62 251.66 457.62"/><polygon class="cls-21" points="243.76 457.62 236.28 448.49 232.14 448.49 239.63 457.62 243.76 457.62"/><polygon class="cls-22" points="235.86 457.62 228.38 448.49 224.24 448.49 231.73 457.62 235.86 457.62"/><polygon class="cls-23" points="227.96 457.62 220.48 448.49 216.34 448.49 223.83 457.62 227.96 457.62"/><polygon id="SVGID-11" data-name="SVGID" class="cls-1" points="261.53 83.02 250.11 90.94 255.45 90.94 266.87 83.02 261.53 83.02"/><g class="cls-24"><rect class="cls-1" x="250.11" y="83.02" width="16.77" height="7.92"/><path class="cls-25" d="M267.79,91.85H253.85v4.61a26.16,26.16,0,0,1-4.69-6.63h0V82.1h18.6Z"/><path class="cls-26" d="M267.82,92c-3.88,1.94-9.09-.61-11.63-5.71A12.08,12.08,0,0,1,255,78.77V82.1h12.81v9.75Z"/></g><polygon id="SVGID-12" data-name="SVGID" class="cls-2" points="249.76 83.02 238.34 90.94 243.68 90.94 255.1 83.02 249.76 83.02"/><g class="cls-27"><rect class="cls-2" x="238.34" y="83.02" width="16.77" height="7.92"/><path class="cls-28" d="M256,91.85H242.08v4.61a26.16,26.16,0,0,1-4.69-6.63h0V82.1H256Z"/><path class="cls-29" d="M256.05,92c-3.88,1.94-9.09-.61-11.64-5.71a12.07,12.07,0,0,1-1.2-7.55V82.1H256v9.75Z"/></g><polygon id="SVGID-13" data-name="SVGID" class="cls-3" points="237.99 83.02 226.56 90.94 231.91 90.94 243.33 83.02 237.99 83.02"/><g class="cls-30"><rect class="cls-3" x="226.56" y="83.02" width="16.77" height="7.92"/><path class="cls-31" d="M244.24,91.85H230.31v4.61a25.91,25.91,0,0,1-4.69-6.63h0V82.1h18.59Z"/><path class="cls-32" d="M244.28,92c-3.88,1.94-9.09-.61-11.64-5.71a12.07,12.07,0,0,1-1.2-7.55V82.1h12.8v9.75Z"/></g><polygon id="SVGID-14" data-name="SVGID" class="cls-4" points="226.21 83.02 214.79 90.94 220.14 90.94 231.56 83.02 226.21 83.02"/><g class="cls-33"><rect class="cls-4" x="214.79" y="83.02" width="16.77" height="7.92"/><path class="cls-34" d="M232.47,91.85H218.54v4.61a26.19,26.19,0,0,1-4.7-6.63h0V82.1h18.59Z"/><path class="cls-35" d="M232.5,92c-3.88,1.94-9.09-.61-11.63-5.71a12.07,12.07,0,0,1-1.2-7.55V82.1h12.8v9.75Z"/></g><polygon id="SVGID-15" data-name="SVGID" class="cls-5" points="214.44 83.02 203.02 90.94 208.36 90.94 219.78 83.02 214.44 83.02"/><g class="cls-36"><rect class="cls-5" x="203.02" y="83.02" width="16.77" height="7.92"/><path class="cls-37" d="M220.7,91.85H206.76v4.61a26.16,26.16,0,0,1-4.69-6.63h0V82.1H220.7Z"/><path class="cls-38" d="M220.73,92c-3.88,1.94-9.09-.61-11.63-5.71a12.08,12.08,0,0,1-1.21-7.55V82.1H220.7v9.75Z"/></g><path class="cls-39" d="M361.84,452H263.36a.46.46,0,0,1-.35-.17l-7.92-9.58H150.66l-10.23,9a.46.46,0,0,1-.65,0,.45.45,0,0,1,0-.64l10.37-9.14a.46.46,0,0,1,.3-.11H255.3a.45.45,0,0,1,.35.16l7.93,9.58h98.26a.46.46,0,1,1,0,.92Z"/><path class="cls-40" d="M29.57,308.85a.46.46,0,0,1-.2-.05.47.47,0,0,1-.21-.62L37,292.44V144.6L31,123.34a.45.45,0,0,1,.31-.56.46.46,0,0,1,.57.31l6.09,21.32a.51.51,0,0,1,0,.13v148a.54.54,0,0,1-.05.21L30,308.59A.46.46,0,0,1,29.57,308.85Z"/><polygon class="cls-41" points="407.83 80.28 407.83 145.15 396.26 168.9 396.26 203.62 402.35 196.01 402.35 169.51 413.31 147.58 413.31 79.97 407.83 80.28"/><path class="cls-42" d="M396.26,213.53V332.75l6.09,3.66V205.76C400.39,208.31,398.25,211.06,396.26,213.53Z"/><path class="cls-9" d="M429.44,64.12,416.3,55.65a1.57,1.57,0,0,0-.86-.25,1.6,1.6,0,0,0-.87.25l-12.46,8H350.23A1.41,1.41,0,0,0,348.75,65v8.65A1.41,1.41,0,0,0,350.23,75h65.21a1.6,1.6,0,0,0,.86-.25l13.14-8.47a1.25,1.25,0,0,0,0-2.16Z"/><path class="cls-10" d="M428.06,483.52,417.84,492a1.09,1.09,0,0,1-.67.25,1.07,1.07,0,0,1-.67-.25l-9.7-8H366.45a1.26,1.26,0,0,1-1.16-1.34V474a1.26,1.26,0,0,1,1.16-1.33h50.72a1,1,0,0,1,.67.25l10.22,8.47a1.45,1.45,0,0,1,0,2.16Z"/><path class="cls-11" d="M8.72,63.87.25,73.73a1,1,0,0,0-.25.65A1,1,0,0,0,.25,75l8,9.36v38.93a1.24,1.24,0,0,0,1.33,1.12h8.65a1.23,1.23,0,0,0,1.33-1.12V74.38a1,1,0,0,0-.25-.65l-8.47-9.86a1.5,1.5,0,0,0-2.16,0Z"/><path class="cls-12" d="M19.21,309.76S7,308.38,7.64,316.36v87.75l6.7,4.91v54.62l4.87,10.43S19.82,307.46,19.21,309.76Z"/><path class="cls-13" d="M417.82,474.6s12.19,1.11,11.58-5.27v-70.2l-6.7-3.93V351.51l-4.88-8.34S417.22,476.44,417.82,474.6Z"/><polygon class="cls-14" points="406.61 179.63 406.61 185.76 417.58 167.85 417.58 161.72 406.61 179.63"/><polygon class="cls-15" points="406.61 199.77 417.58 181.86 417.58 175.73 406.61 193.65 406.61 199.77"/><polygon class="cls-16" points="406.61 213.78 417.58 195.87 417.58 189.74 406.61 207.65 406.61 213.78"/><polygon class="cls-17" points="406.61 227.79 417.58 209.88 417.58 203.75 406.61 221.66 406.61 227.79"/><polygon class="cls-18" points="406.61 241.8 417.58 223.88 417.58 217.76 406.61 235.67 406.61 241.8"/><polygon class="cls-19" points="259.56 457.62 252.07 448.49 247.94 448.49 255.42 457.62 259.56 457.62"/><polygon class="cls-20" points="251.66 457.62 244.17 448.49 240.04 448.49 247.52 457.62 251.66 457.62"/><polygon class="cls-21" points="243.76 457.62 236.28 448.49 232.14 448.49 239.63 457.62 243.76 457.62"/><polygon class="cls-22" points="235.86 457.62 228.38 448.49 224.24 448.49 231.73 457.62 235.86 457.62"/><polygon class="cls-23" points="227.96 457.62 220.48 448.49 216.34 448.49 223.83 457.62 227.96 457.62"/><polygon id="SVGID-16" data-name="SVGID" class="cls-1" points="261.53 83.02 250.11 90.94 255.45 90.94 266.87 83.02 261.53 83.02"/><g class="cls-24"><rect class="cls-1" x="250.11" y="83.02" width="16.77" height="7.92"/><path class="cls-25" d="M267.79,91.85H253.85v4.61a26.16,26.16,0,0,1-4.69-6.63h0V82.1h18.6Z"/><path class="cls-26" d="M267.82,92c-3.88,1.94-9.09-.61-11.63-5.71A12.08,12.08,0,0,1,255,78.77V82.1h12.81v9.75Z"/></g><polygon id="SVGID-17" data-name="SVGID" class="cls-2" points="249.76 83.02 238.34 90.94 243.68 90.94 255.1 83.02 249.76 83.02"/><g class="cls-27"><rect class="cls-2" x="238.34" y="83.02" width="16.77" height="7.92"/><path class="cls-28" d="M256,91.85H242.08v4.61a26.16,26.16,0,0,1-4.69-6.63h0V82.1H256Z"/><path class="cls-29" d="M256.05,92c-3.88,1.94-9.09-.61-11.64-5.71a12.07,12.07,0,0,1-1.2-7.55V82.1H256v9.75Z"/></g><polygon id="SVGID-18" data-name="SVGID" class="cls-3" points="237.99 83.02 226.56 90.94 231.91 90.94 243.33 83.02 237.99 83.02"/><g class="cls-30"><rect class="cls-3" x="226.56" y="83.02" width="16.77" height="7.92"/><path class="cls-31" d="M244.24,91.85H230.31v4.61a25.91,25.91,0,0,1-4.69-6.63h0V82.1h18.59Z"/><path class="cls-32" d="M244.28,92c-3.88,1.94-9.09-.61-11.64-5.71a12.07,12.07,0,0,1-1.2-7.55V82.1h12.8v9.75Z"/></g><polygon id="SVGID-19" data-name="SVGID" class="cls-4" points="226.21 83.02 214.79 90.94 220.14 90.94 231.56 83.02 226.21 83.02"/><g class="cls-33"><rect class="cls-4" x="214.79" y="83.02" width="16.77" height="7.92"/><path class="cls-34" d="M232.47,91.85H218.54v4.61a26.19,26.19,0,0,1-4.7-6.63h0V82.1h18.59Z"/><path class="cls-35" d="M232.5,92c-3.88,1.94-9.09-.61-11.63-5.71a12.07,12.07,0,0,1-1.2-7.55V82.1h12.8v9.75Z"/></g><polygon id="SVGID-20" data-name="SVGID" class="cls-5" points="214.44 83.02 203.02 90.94 208.36 90.94 219.78 83.02 214.44 83.02"/><g class="cls-36"><rect class="cls-5" x="203.02" y="83.02" width="16.77" height="7.92"/><path class="cls-37" d="M220.7,91.85H206.76v4.61a26.16,26.16,0,0,1-4.69-6.63h0V82.1H220.7Z"/><path class="cls-38" d="M220.73,92c-3.88,1.94-9.09-.61-11.63-5.71a12.08,12.08,0,0,1-1.21-7.55V82.1H220.7v9.75Z"/></g><polygon class="cls-41" points="407.83 80.28 407.83 145.15 396.26 168.9 396.26 203.62 402.35 196.01 402.35 169.51 413.31 147.58 413.31 79.97 407.83 80.28"/><path class="cls-42" d="M396.26,213.53V332.75l6.09,3.66V205.76C400.39,208.31,398.25,211.06,396.26,213.53Z"/><rect class="cls-43" x="57.68" y="5.23" width="267.37" height="61.17"/><polygon class="cls-44" points="53.07 17.84 52.52 17.84 52.52 0 329 0 329 4.68 328.45 4.68 328.45 0.55 53.07 0.55 53.07 17.84"/><polygon class="cls-45" points="329 70.95 52.52 70.95 52.52 28.02 53.07 28.02 53.07 70.41 328.45 70.41 328.45 14.85 329 14.85 329 70.95"/><rect class="cls-46" x="326.63" y="4.05" width="4.41" height="0.55" transform="translate(93.44 233.97) rotate(-45.04)"/><rect class="cls-47" x="326.63" y="14.42" width="4.41" height="0.55" transform="translate(86.18 237.11) rotate(-45.07)"/><rect class="cls-48" x="50.59" y="17.54" width="4.41" height="0.55" transform="translate(2.89 42.59) rotate(-45.04)"/><rect class="cls-49" x="50.59" y="27.91" width="4.41" height="0.55" transform="translate(-4.45 45.65) rotate(-45.07)"/><polygon class="cls-50" points="52.79 60.04 61.41 68.65 80.69 68.65 82.75 70.71 52.79 70.71 52.79 60.04"/><polygon class="cls-51" points="328.83 60.04 320.22 68.65 300.93 68.65 298.88 70.71 328.83 70.71 328.83 60.04"/><polygon class="cls-52" points="55.44 14.43 54.9 14.43 54.9 2.49 326.64 2.49 326.64 4.97 326.09 4.97 326.09 3.04 55.44 3.04 55.44 14.43"/><polygon class="cls-53" points="55.72 8.24 54.63 8.24 54.63 2.22 68.79 2.22 68.79 3.31 55.72 3.31 55.72 8.24"/><polygon class="cls-54" points="329.55 13.97 329.55 32.5 330.69 33.64 330.69 41.67 328.79 43.57 328.79 15.11 329.55 13.97"/><polygon class="cls-55" points="52.03 28.9 52.03 47.43 50.89 48.56 50.89 56.59 52.79 58.49 52.79 28.71 52.03 28.9"/><path class="cls-56" d="M111.73,16.66V47.94h-7.54V16.66Zm2.17,6.93V16.66h13.78l2.59,3.12V44.73l-2.59,3.21H113.9V41h8.84V23.59Z"/><path class="cls-57" d="M139.64,47.94h-7.19l7.75-22.18h5.37l1,2.51Zm8.05-15.25h2.82l-3.25-9.1H141l2.43-6.93H152l11,31.28h-7.11l-2.94-8.32h-7.67Z"/><path class="cls-58" d="M185.43,48.07,172.7,23.59h-7.54V16.66h12.21L189.76,41h7.54v7.06ZM172.7,29.53V47.94h-7.54V25.76h5.54Zm17.06,5.76V16.66h7.54V38.84h-5.63Z"/><path class="cls-59" d="M209.18,41h5v6.93h-9.92l-2.6-3.25V19.82l2.6-3.16h9.92v6.93h-5ZM229,44.73l-2.6,3.21h-10V41h5.54V35.85h-6.06V28.92H229ZM216.33,23.59V16.66h10l2.6,3.12v6.67h-6.89V23.59Z"/><path class="cls-60" d="M232.88,47.94V16.66h7.54V47.94Zm9.7-24.35V16.66H257.1v6.93Zm0,12V28.62h11.09v6.93Zm0,12.39V41H257.1v6.93Z"/><path class="cls-61" d="M260.35,47.94V16.66h7.54V47.94Zm9.7-24.35V16.66h13.39l2.6,3.12V32.34L283.87,35l2.91,12.91h-7.5l-2.55-10.66h-6.68V30.35h8.45V23.59Z"/></g></g></g></svg>