<svg xmlns="http://www.w3.org/2000/svg" viewBox="0 0 493.86 352.58"><defs><style>.cls-1,.cls-2,.cls-3,.cls-4,.cls-5,.cls-6{fill:#11e5b3;}.cls-1{opacity:0.35;}.cls-3{opacity:0.2;}.cls-4{opacity:0.6;}.cls-5{opacity:0.8;}.cls-6{opacity:0.4;}</style></defs><title>message_15_green</title><g id="Layer_2" data-name="Layer 2"><g id="Layer_1-2" data-name="Layer 1"><polygon class="cls-1" points="359.17 15.38 272.45 102.09 12.3 102.09 34.44 126.08 34.44 269.99 12.3 287.21 12.3 338.26 420.06 338.26 477.25 292.28 477.25 15.38 359.17 15.38"/><path class="cls-2" d="M420.34,339.05H11.51V286.83L33.65,269.6V126.39L10.49,101.3H272.12l86.72-86.72H478.05V292.66l-.3.24ZM13.09,337.47H419.78l56.68-45.57V16.17h-117l-86.72,86.72H14.11l21.12,22.88V270.38L13.09,287.6Z"/><path class="cls-2" d="M483.1,338.41a4.62,4.62,0,1,1-4.62-4.61A4.62,4.62,0,0,1,483.1,338.41Z"/><path class="cls-2" d="M9.23,263.84a4.62,4.62,0,1,1-4.62-4.61A4.62,4.62,0,0,1,9.23,263.84Z"/><polygon class="cls-3" points="253.87 80.88 242.01 92.87 268.76 92.87 280.9 80.88 253.87 80.88"/><polygon class="cls-2" points="335.04 27.37 347.18 15.38 318.66 15.38 306.8 27.37 335.04 27.37"/><polygon class="cls-4" points="284.9 49.51 275.77 58.73 303.3 58.73 312.64 49.51 284.9 49.51"/><polygon class="cls-5" points="300.41 33.83 291.29 43.05 319.17 43.05 328.51 33.83 300.41 33.83"/><polygon class="cls-6" points="287.43 74.42 296.77 65.19 269.39 65.19 260.26 74.42 287.43 74.42"/><polygon class="cls-4" points="11.38 181.93 11.38 202.1 27.06 217 27.06 196.83 11.38 181.93"/><polygon class="cls-6" points="27.06 227.18 11.38 212.28 11.38 232.45 27.06 247.35 27.06 227.18"/><polygon class="cls-3" points="11.38 242.63 11.38 278.3 27.06 263.54 27.06 257.53 11.38 242.63"/><polygon class="cls-2" points="27.06 156.3 27.06 133.46 11.38 116.13 11.38 141.4 27.06 156.3"/><polygon class="cls-5" points="11.38 151.58 11.38 171.75 27.06 186.65 27.06 166.48 11.38 151.58"/><rect class="cls-2" x="413.91" y="337.62" width="65.5" height="1.59"/><path class="cls-2" d="M237.4,102.09l-15.69-9.22h-131V88.26A2.76,2.76,0,0,0,88,85.49H13.22a2.76,2.76,0,0,0-2.76,2.77v12A2.76,2.76,0,0,0,13.22,103H88a2.75,2.75,0,0,0,2-.93Z"/><path class="cls-2" d="M476.64,14.22V1.52A2.76,2.76,0,0,0,474.18,0H399.45a2.77,2.77,0,0,0-2.76,2.77v12a3.18,3.18,0,0,0,.07.62h79.57V88.87a2.76,2.76,0,0,0,.92,2V238.17l9.23-15.67V91.63h4.61a2.76,2.76,0,0,0,2.77-2.76V14.22Z"/><path class="cls-2" d="M19.68,281.68v49.2H122.39s17.83-2.46,18.45,8H12.3V287.21Z"/><path class="cls-2" d="M210.34,352.58H4.3a.79.79,0,0,1-.79-.79V265.07a.8.8,0,0,1,1.59,0V351H209.54v-6.59a.79.79,0,0,1,.8-.79h94.09a.79.79,0,1,1,0,1.58h-93.3v6.59A.79.79,0,0,1,210.34,352.58Z"/><path class="cls-2" d="M329,345.2H313.66a.79.79,0,1,1,0-1.58H329a.79.79,0,1,1,0,1.58Z"/><path class="cls-2" d="M345,345.2h-8a.79.79,0,1,1,0-1.58h8a.79.79,0,1,1,0,1.58Z"/><path class="cls-2" d="M44.9,149.23a.4.4,0,0,1-.4-.4V121.94L32.32,110.38a.4.4,0,0,1-.09-.44.39.39,0,0,1,.37-.25H283.36l56.47-55.85a.4.4,0,0,1,.56,0,.4.4,0,0,1,0,.56l-56.58,56a.4.4,0,0,1-.28.12H33.59l11.58,11a.36.36,0,0,1,.12.28v27.06A.39.39,0,0,1,44.9,149.23Z"/><polygon class="cls-2" points="408.37 338.26 471.1 289.06 471.1 249.08 477.25 238.17 477.25 292.28 420.06 338.26 408.37 338.26"/><path class="cls-2" d="M483.1,338.41a4.62,4.62,0,1,1-4.62-4.61A4.62,4.62,0,0,1,483.1,338.41Z"/><path class="cls-2" d="M9.23,263.84a4.62,4.62,0,1,1-4.62-4.61A4.62,4.62,0,0,1,9.23,263.84Z"/><polygon class="cls-3" points="253.87 80.88 242.01 92.87 268.76 92.87 280.9 80.88 253.87 80.88"/><polygon class="cls-2" points="335.04 27.37 347.18 15.38 318.66 15.38 306.8 27.37 335.04 27.37"/><polygon class="cls-4" points="284.9 49.51 275.77 58.73 303.3 58.73 312.64 49.51 284.9 49.51"/><polygon class="cls-5" points="300.41 33.83 291.29 43.05 319.17 43.05 328.51 33.83 300.41 33.83"/><polygon class="cls-6" points="287.43 74.42 296.77 65.19 269.39 65.19 260.26 74.42 287.43 74.42"/><polygon class="cls-4" points="11.38 181.93 11.38 202.1 27.06 217 27.06 196.83 11.38 181.93"/><polygon class="cls-6" points="27.06 227.18 11.38 212.28 11.38 232.45 27.06 247.35 27.06 227.18"/><polygon class="cls-3" points="11.38 242.63 11.38 278.3 27.06 263.54 27.06 257.53 11.38 242.63"/><polygon class="cls-2" points="27.06 156.3 27.06 133.46 11.38 116.13 11.38 141.4 27.06 156.3"/><polygon class="cls-5" points="11.38 151.58 11.38 171.75 27.06 186.65 27.06 166.48 11.38 151.58"/><path class="cls-2" d="M237.4,102.09l-15.69-9.22h-131V88.26A2.76,2.76,0,0,0,88,85.49H13.22a2.76,2.76,0,0,0-2.76,2.77v12A2.76,2.76,0,0,0,13.22,103H88a2.75,2.75,0,0,0,2-.93Z"/><path class="cls-2" d="M476.64,14.22V1.52A2.76,2.76,0,0,0,474.18,0H399.45a2.77,2.77,0,0,0-2.76,2.77v12a3.18,3.18,0,0,0,.07.62h79.57V88.87a2.76,2.76,0,0,0,.92,2V238.17l9.23-15.67V91.63h4.61a2.76,2.76,0,0,0,2.77-2.76V14.22Z"/><path class="cls-2" d="M19.68,281.68v49.2H122.39s17.83-2.46,18.45,8H12.3V287.21Z"/><polygon class="cls-2" points="408.37 338.26 471.1 289.06 471.1 249.08 477.25 238.17 477.25 292.28 420.06 338.26 408.37 338.26"/></g></g></svg>