<svg xmlns="http://www.w3.org/2000/svg" xmlns:xlink="http://www.w3.org/1999/xlink" viewBox="0 0 493.7 330.93"><defs><style>.cls-1,.cls-10,.cls-2,.cls-3,.cls-4,.cls-5,.cls-6,.cls-7,.cls-8,.cls-9{fill:#17cffc;}.cls-2{opacity:0.35;}.cls-3{opacity:0.2;}.cls-4{opacity:0.3;}.cls-5{opacity:0.8;}.cls-6{opacity:0.4;}.cls-7{opacity:0.7;}.cls-8{opacity:0.1;}.cls-9{opacity:0.6;}.cls-10{opacity:0.5;}.cls-11{clip-path:url(#clip-path);}.cls-12{clip-path:url(#clip-path-2);}</style><clipPath id="clip-path"><path id="SVGID" class="cls-1" d="M60,55.28a.34.34,0,0,1-.26-.12.35.35,0,0,1,0-.51L78.51,37.31a.35.35,0,0,1,.25-.1H283.24a.36.36,0,0,1,0,.72H78.9L60.22,55.18A.39.39,0,0,1,60,55.28Z"/></clipPath><clipPath id="clip-path-2"><polygon id="SVGID-2" data-name="SVGID" class="cls-1" points="441.48 31.07 455.93 48.41 455.93 132.23 452.31 145.23 452.31 182.08 465.32 200.15 465.32 29.19 441.48 31.07"/></clipPath></defs><title>message_09</title><g id="Layer_2" data-name="Layer 2"><g id="Layer_1-2" data-name="Layer 1"><path class="cls-2" d="M306.46,281.16H465.77v-252H74.16c-19,17.44-41.27,37.65-58.69,52.92V305.55H281.06Z"/><path class="cls-1" d="M281.35,306.27H14.74V81.78l.25-.22c14.7-12.88,34.45-30.68,58.68-52.9l.21-.19H466.49V281.89H306.75ZM16.19,304.83H280.77l25.4-24.39H465.05V29.91H74.44c-24,22-43.61,39.69-58.25,52.52Z"/><polygon class="cls-3" points="493.69 241.53 493.69 220.88 475.19 211.11 475.32 231.83 493.69 241.53"/><polygon class="cls-4" points="493.69 215.88 493.69 195.22 475.02 185.36 475.16 206.09 493.69 215.88"/><polygon class="cls-5" points="474.75 56.93 474.75 77.58 493.69 87.59 493.69 66.94 474.75 56.93"/><polygon class="cls-6" points="474.86 159.62 474.99 180.34 493.69 190.22 493.69 169.57 474.86 159.62"/><polygon class="cls-7" points="493.69 113.25 493.69 92.59 474.75 82.59 474.75 103.24 493.69 113.25"/><polygon class="cls-8" points="493.69 246.54 475.36 236.85 475.48 255.63 493.69 264.45 493.69 246.54"/><polygon class="cls-9" points="493.69 138.91 493.69 118.25 474.75 108.24 474.75 128.9 493.69 138.91"/><polygon class="cls-10" points="493.69 164.56 493.69 143.91 474.75 133.9 474.75 142.91 474.83 154.6 493.69 164.56"/><polygon class="cls-1" points="493.69 61.93 493.69 41.01 474.75 30.58 474.75 51.92 493.69 61.93"/><polygon class="cls-3" points="49.16 295.72 69.82 295.72 79.59 277.21 58.87 277.35 49.16 295.72"/><polygon class="cls-4" points="74.82 295.72 95.47 295.72 105.34 277.05 84.61 277.18 74.82 295.72"/><polygon class="cls-5" points="233.77 276.77 213.12 276.77 203.11 295.72 223.76 295.72 233.77 276.77"/><polygon class="cls-6" points="131.08 276.88 110.36 277.01 100.48 295.72 121.13 295.72 131.08 276.88"/><polygon class="cls-7" points="177.45 295.72 198.11 295.72 208.11 276.77 187.46 276.77 177.45 295.72"/><polygon class="cls-8" points="44.16 295.72 53.84 277.38 35.07 277.5 26.25 295.72 44.16 295.72"/><polygon class="cls-9" points="151.79 295.72 172.45 295.72 182.45 276.77 161.8 276.77 151.79 295.72"/><polygon class="cls-10" points="126.14 295.72 146.79 295.72 156.8 276.77 147.79 276.77 136.1 276.85 126.14 295.72"/><polygon class="cls-1" points="228.77 295.72 249.69 295.72 260.12 276.77 238.77 276.77 228.77 295.72"/><polygon class="cls-1" points="81.65 306.22 14.55 306.22 15.47 80.66 7.23 89.65 7.23 156.51 0 176.86 0 296.04 14.45 330.93 14.5 319.29 14.52 314.21 70.81 314.21 81.65 306.22"/><polygon class="cls-1" points="72 29.19 81.03 23.12 181.12 23.12 192.81 16.62 253.45 16.62 268.06 29.62 72 29.19"/><polygon class="cls-1" points="424.86 281.79 414.02 294.08 476.16 294.08 476.16 268.79 466.4 257.95 466.4 281.16 424.86 281.79"/><path class="cls-1" d="M463.15,23.84H273.84a.35.35,0,0,1-.25-.1l-8.67-8.67a.36.36,0,0,1,.51-.51L274,23.12H463.15a.36.36,0,0,1,0,.72Z"/><path class="cls-1" d="M486.27,301.66h-86.7a.36.36,0,0,1-.33-.21.35.35,0,0,1,.06-.39l10.3-11.68H314.31a.36.36,0,0,1,0-.72h96.1a.36.36,0,0,1,.33.21.39.39,0,0,1-.06.39l-10.31,11.68h85.9a.36.36,0,0,1,0,.72Z"/><path id="SVGID-4" data-name="SVGID" class="cls-1" d="M60,55.28a.34.34,0,0,1-.26-.12.35.35,0,0,1,0-.51L78.51,37.31a.35.35,0,0,1,.25-.1H283.24a.36.36,0,0,1,0,.72H78.9L60.22,55.18A.39.39,0,0,1,60,55.28Z"/><g class="cls-11"><rect class="cls-1" x="59.57" y="37.21" width="224.03" height="18.06"/><path class="cls-1" d="M92.15,46.24q0-3.87.11-7.71c0-1.27.08-2.55.13-3.81v1.77H250.82V34.72c.05,1.26.1,2.54.13,3.81q.11,3.84.1,7.71T251,54c0,1.28-.08,2.55-.13,3.82V56H92.39v1.77c0-1.27-.1-2.54-.13-3.82Q92.16,50.13,92.15,46.24Z"/><path class="cls-1" d="M131.88,46.24c0-2.58.07-5.14.2-7.66.07-1.25.16-2.5.26-3.74v1.65h78.53V34.84c.1,1.24.19,2.49.25,3.74.14,2.52.21,5.08.21,7.66s-.07,5.14-.21,7.66c-.06,1.26-.15,2.51-.25,3.75V56H132.34v1.65c-.1-1.24-.19-2.49-.26-3.75Q131.89,50.12,131.88,46.24Z"/></g><polygon id="SVGID-5" data-name="SVGID" class="cls-1" points="441.48 31.07 455.93 48.41 455.93 132.23 452.31 145.23 452.31 182.08 465.32 200.15 465.32 29.19 441.48 31.07"/><g class="cls-12"><rect class="cls-1" x="441.48" y="29.19" width="23.84" height="170.96"/><polygon class="cls-1" points="440.75 114.67 440.75 33.3 440.75 28.46 466.04 28.46 466.04 200.87 440.75 200.87 440.75 114.67"/><path class="cls-1" d="M440.75,114.67V67h-4.41a31.91,31.91,0,0,1,5.18-5.31,17.86,17.86,0,0,1,23.75,0A32.35,32.35,0,0,1,470.46,67H466v95.42h4.42a31.88,31.88,0,0,1-5.19,5.3,17.86,17.86,0,0,1-23.75,0,31.45,31.45,0,0,1-5.18-5.3h4.41Z"/></g><path class="cls-1" d="M.72,141.26a.36.36,0,0,1-.36-.36V82.37a.32.32,0,0,1,.12-.26L83.57,4.79a.37.37,0,0,1,.51,0,.35.35,0,0,1,0,.51l-83,77.21V140.9A.36.36,0,0,1,.72,141.26Z"/><path class="cls-1" d="M88.87,5.06A5.06,5.06,0,1,1,83.82,0,5.06,5.06,0,0,1,88.87,5.06Z"/><path class="cls-1" d="M492.05,300.58a5.06,5.06,0,1,1-5.05-5.06A5.06,5.06,0,0,1,492.05,300.58Z"/><polygon class="cls-3" points="493.69 241.53 493.69 220.88 475.19 211.11 475.32 231.83 493.69 241.53"/><polygon class="cls-4" points="493.69 215.88 493.69 195.22 475.02 185.36 475.16 206.09 493.69 215.88"/><polygon class="cls-5" points="474.75 56.93 474.75 77.58 493.69 87.59 493.69 66.94 474.75 56.93"/><polygon class="cls-6" points="474.86 159.62 474.99 180.34 493.69 190.22 493.69 169.57 474.86 159.62"/><polygon class="cls-7" points="493.69 113.25 493.69 92.59 474.75 82.59 474.75 103.24 493.69 113.25"/><polygon class="cls-8" points="493.69 246.54 475.36 236.85 475.48 255.63 493.69 264.45 493.69 246.54"/><polygon class="cls-9" points="493.69 138.91 493.69 118.25 474.75 108.24 474.75 128.9 493.69 138.91"/><polygon class="cls-10" points="493.69 164.56 493.69 143.91 474.75 133.9 474.75 142.91 474.83 154.6 493.69 164.56"/><polygon class="cls-1" points="493.69 61.93 493.69 41.01 474.75 30.58 474.75 51.92 493.69 61.93"/><polygon class="cls-3" points="49.16 295.72 69.82 295.72 79.59 277.21 58.87 277.35 49.16 295.72"/><polygon class="cls-4" points="74.82 295.72 95.47 295.72 105.34 277.05 84.61 277.18 74.82 295.72"/><polygon class="cls-5" points="233.77 276.77 213.12 276.77 203.11 295.72 223.76 295.72 233.77 276.77"/><polygon class="cls-6" points="131.08 276.88 110.36 277.01 100.48 295.72 121.13 295.72 131.08 276.88"/><polygon class="cls-7" points="177.45 295.72 198.11 295.72 208.11 276.77 187.46 276.77 177.45 295.72"/><polygon class="cls-8" points="44.16 295.72 53.84 277.38 35.07 277.5 26.25 295.72 44.16 295.72"/><polygon class="cls-9" points="151.79 295.72 172.45 295.72 182.45 276.77 161.8 276.77 151.79 295.72"/><polygon class="cls-10" points="126.14 295.72 146.79 295.72 156.8 276.77 147.79 276.77 136.1 276.85 126.14 295.72"/><polygon class="cls-1" points="228.77 295.72 249.69 295.72 260.12 276.77 238.77 276.77 228.77 295.72"/><polygon class="cls-1" points="81.65 306.22 14.55 306.22 15.47 80.66 7.23 89.65 7.23 156.51 0 176.86 0 296.04 14.45 330.93 14.5 319.29 14.52 314.21 70.81 314.21 81.65 306.22"/><polygon class="cls-1" points="72 29.19 81.03 23.12 181.12 23.12 192.81 16.62 253.45 16.62 268.06 29.62 72 29.19"/><polygon class="cls-1" points="424.86 281.79 414.02 294.08 476.16 294.08 476.16 268.79 466.4 257.95 466.4 281.16 424.86 281.79"/><polygon id="SVGID-6" data-name="SVGID" class="cls-1" points="441.48 31.07 455.93 48.41 455.93 132.23 452.31 145.23 452.31 182.08 465.32 200.15 465.32 29.19 441.48 31.07"/><g class="cls-12"><rect class="cls-1" x="441.48" y="29.19" width="23.84" height="170.96"/><polygon class="cls-1" points="440.75 114.67 440.75 33.3 440.75 28.46 466.04 28.46 466.04 200.87 440.75 200.87 440.75 114.67"/><path class="cls-1" d="M440.75,114.67V67h-4.41a31.91,31.91,0,0,1,5.18-5.31,17.86,17.86,0,0,1,23.75,0A32.35,32.35,0,0,1,470.46,67H466v95.42h4.42a31.88,31.88,0,0,1-5.19,5.3,17.86,17.86,0,0,1-23.75,0,31.45,31.45,0,0,1-5.18-5.3h4.41Z"/></g><path class="cls-1" d="M88.87,5.06A5.06,5.06,0,1,1,83.82,0,5.06,5.06,0,0,1,88.87,5.06Z"/><path class="cls-1" d="M492.05,300.58a5.06,5.06,0,1,1-5.05-5.06A5.06,5.06,0,0,1,492.05,300.58Z"/></g></g></svg>