<svg xmlns="http://www.w3.org/2000/svg" xmlns:xlink="http://www.w3.org/1999/xlink" viewBox="0 0 490.93 285.54"><defs><style>.cls-1{mask:url(#mask);filter:url(#luminosity-noclip-2);}.cls-2{mix-blend-mode:multiply;fill:url(#linear-gradient);}.cls-3{opacity:0.35;fill:url(#New_Gradient_Swatch_1);}.cls-4{fill:url(#New_Gradient_Swatch_1-2);}.cls-5{fill:url(#New_Gradient_Swatch_1-3);}.cls-6{fill:url(#New_Gradient_Swatch_1-4);}.cls-7{fill:url(#New_Gradient_Swatch_1-5);}.cls-8{fill:url(#New_Gradient_Swatch_1-6);}.cls-9{fill:url(#New_Gradient_Swatch_1-7);}.cls-10{fill:url(#New_Gradient_Swatch_1-8);}.cls-11,.cls-13,.cls-24{opacity:0.7;}.cls-11{fill:url(#New_Gradient_Swatch_1-9);}.cls-12{fill:url(#New_Gradient_Swatch_1-10);}.cls-13{fill:url(#New_Gradient_Swatch_1-11);}.cls-14,.cls-15,.cls-21,.cls-23{opacity:0.4;}.cls-14{fill:url(#New_Gradient_Swatch_1-12);}.cls-15{fill:url(#New_Gradient_Swatch_1-13);}.cls-16,.cls-18{opacity:0.2;}.cls-16{fill:url(#New_Gradient_Swatch_1-14);}.cls-17{fill:url(#New_Gradient_Swatch_1-15);}.cls-18{fill:url(#New_Gradient_Swatch_1-16);}.cls-19{opacity:0.5;fill:url(#New_Gradient_Swatch_1-17);}.cls-20{opacity:0.6;fill:url(#New_Gradient_Swatch_1-18);}.cls-21{fill:url(#New_Gradient_Swatch_1-19);}.cls-22{mask:url(#mask-2);}.cls-23{fill:url(#New_Gradient_Swatch_1-20);}.cls-24{fill:url(#New_Gradient_Swatch_1-21);}.cls-25{fill:url(#New_Gradient_Swatch_1-22);}.cls-26{opacity:0.9;fill:url(#New_Gradient_Swatch_1-23);}.cls-27{opacity:0.8;fill:url(#New_Gradient_Swatch_1-24);}.cls-28{fill:url(#New_Gradient_Swatch_1-25);}.cls-29{fill:url(#New_Gradient_Swatch_1-26);}.cls-30{fill:url(#New_Gradient_Swatch_1-27);}.cls-31{fill:url(#New_Gradient_Swatch_1-28);}.cls-32{fill:url(#New_Gradient_Swatch_1-29);}.cls-33{fill:url(#New_Gradient_Swatch_1-53);}.cls-34{fill:url(#New_Gradient_Swatch_1-54);}.cls-35{fill:url(#New_Gradient_Swatch_1-55);}.cls-36{fill:url(#New_Gradient_Swatch_1-56);}.cls-37{fill:url(#New_Gradient_Swatch_1-57);}.cls-38{fill:url(#New_Gradient_Swatch_1-58);}.cls-39{fill:url(#New_Gradient_Swatch_1-59);}.cls-40{filter:url(#luminosity-noclip);}</style><filter id="luminosity-noclip" x="275.62" y="-8350.89" width="121.01" height="32766" filterUnits="userSpaceOnUse" color-interpolation-filters="sRGB"><feFlood flood-color="#fff" result="bg"/><feBlend in="SourceGraphic" in2="bg"/></filter><mask id="mask" x="275.62" y="-8350.89" width="121.01" height="32766" maskUnits="userSpaceOnUse"><g class="cls-40"/></mask><linearGradient id="linear-gradient" x1="275.62" y1="254.06" x2="396.63" y2="254.06" gradientUnits="userSpaceOnUse"><stop offset="0" stop-color="#fff"/><stop offset="0.04" stop-color="#e9e9e9"/><stop offset="0.15" stop-color="#b3b3b3"/><stop offset="0.26" stop-color="#838383"/><stop offset="0.37" stop-color="#5b5b5b"/><stop offset="0.48" stop-color="#3a3a3a"/><stop offset="0.6" stop-color="#202020"/><stop offset="0.72" stop-color="#0e0e0e"/><stop offset="0.85" stop-color="#030303"/><stop offset="0.99"/></linearGradient><linearGradient id="New_Gradient_Swatch_1" x1="9.35" y1="146.92" x2="480.86" y2="146.92" gradientUnits="userSpaceOnUse"><stop offset="0" stop-color="#cf52fe"/><stop offset="1" stop-color="#19dbb6"/></linearGradient><linearGradient id="New_Gradient_Swatch_1-2" x1="9.35" y1="146.92" x2="481.99" y2="146.92" xlink:href="#New_Gradient_Swatch_1"/><linearGradient id="New_Gradient_Swatch_1-3" x1="9.35" y1="25.33" x2="108.82" y2="25.33" xlink:href="#New_Gradient_Swatch_1"/><linearGradient id="New_Gradient_Swatch_1-4" x1="2.26" y1="282.47" x2="71.38" y2="282.47" xlink:href="#New_Gradient_Swatch_1"/><linearGradient id="New_Gradient_Swatch_1-5" x1="344" y1="27.17" x2="482.04" y2="27.17" xlink:href="#New_Gradient_Swatch_1"/><linearGradient id="New_Gradient_Swatch_1-6" x1="350.66" y1="12.32" x2="450.79" y2="12.32" xlink:href="#New_Gradient_Swatch_1"/><linearGradient id="New_Gradient_Swatch_1-7" x1="9.26" y1="268.67" x2="85.85" y2="268.67" xlink:href="#New_Gradient_Swatch_1"/><linearGradient id="New_Gradient_Swatch_1-8" x1="406.96" y1="247.53" x2="490.93" y2="247.53" xlink:href="#New_Gradient_Swatch_1"/><linearGradient id="New_Gradient_Swatch_1-9" x1="477.22" y1="119.69" x2="482.51" y2="119.69" xlink:href="#New_Gradient_Swatch_1"/><linearGradient id="New_Gradient_Swatch_1-10" x1="477.22" y1="81.11" x2="482.51" y2="81.11" xlink:href="#New_Gradient_Swatch_1"/><linearGradient id="New_Gradient_Swatch_1-11" x1="477.22" y1="100.4" x2="482.51" y2="100.4" xlink:href="#New_Gradient_Swatch_1"/><linearGradient id="New_Gradient_Swatch_1-12" x1="477.22" y1="138.98" x2="482.51" y2="138.98" xlink:href="#New_Gradient_Swatch_1"/><linearGradient id="New_Gradient_Swatch_1-13" x1="477.22" y1="158.27" x2="482.51" y2="158.27" xlink:href="#New_Gradient_Swatch_1"/><linearGradient id="New_Gradient_Swatch_1-14" x1="477.22" y1="202.9" x2="482.51" y2="202.9" xlink:href="#New_Gradient_Swatch_1"/><linearGradient id="New_Gradient_Swatch_1-15" x1="477.22" y1="61.61" x2="482.51" y2="61.61" xlink:href="#New_Gradient_Swatch_1"/><linearGradient id="New_Gradient_Swatch_1-16" x1="477.22" y1="177.56" x2="482.51" y2="177.56" xlink:href="#New_Gradient_Swatch_1"/><linearGradient id="New_Gradient_Swatch_1-17" x1="227.96" y1="254.06" x2="244.42" y2="254.06" xlink:href="#New_Gradient_Swatch_1"/><linearGradient id="New_Gradient_Swatch_1-18" x1="204.14" y1="254.06" x2="220.59" y2="254.06" xlink:href="#New_Gradient_Swatch_1"/><linearGradient id="New_Gradient_Swatch_1-19" x1="251.79" y1="254.06" x2="268.25" y2="254.06" xlink:href="#New_Gradient_Swatch_1"/><filter id="luminosity-noclip-2" x="275.62" y="249.8" width="121.01" height="8.51" filterUnits="userSpaceOnUse" color-interpolation-filters="sRGB"><feFlood flood-color="#fff" result="bg"/><feBlend in="SourceGraphic" in2="bg"/></filter><mask id="mask-2" x="275.62" y="249.8" width="121.01" height="8.51" maskUnits="userSpaceOnUse"><g class="cls-1"><polygon class="cls-2" points="275.62 258.31 396.63 258.31 388.52 249.8 275.62 249.8 275.62 258.31"/></g></mask><linearGradient id="New_Gradient_Swatch_1-20" x1="275.62" y1="254.06" x2="396.63" y2="254.06" xlink:href="#New_Gradient_Swatch_1"/><linearGradient id="New_Gradient_Swatch_1-21" x1="180.31" y1="254.06" x2="196.76" y2="254.06" xlink:href="#New_Gradient_Swatch_1"/><linearGradient id="New_Gradient_Swatch_1-22" x1="101.98" y1="254.06" x2="125.28" y2="254.06" xlink:href="#New_Gradient_Swatch_1"/><linearGradient id="New_Gradient_Swatch_1-23" x1="132.65" y1="254.06" x2="149.1" y2="254.06" xlink:href="#New_Gradient_Swatch_1"/><linearGradient id="New_Gradient_Swatch_1-24" x1="156.48" y1="254.06" x2="172.93" y2="254.06" xlink:href="#New_Gradient_Swatch_1"/><linearGradient id="New_Gradient_Swatch_1-25" x1="119.6" y1="26.27" x2="450.93" y2="26.27" xlink:href="#New_Gradient_Swatch_1"/><linearGradient id="New_Gradient_Swatch_1-26" x1="2.16" y1="150.8" x2="71.38" y2="150.8" xlink:href="#New_Gradient_Swatch_1"/><linearGradient id="New_Gradient_Swatch_1-27" x1="277.98" y1="248.51" x2="411.45" y2="248.51" xlink:href="#New_Gradient_Swatch_1"/><linearGradient id="New_Gradient_Swatch_1-28" x1="464.83" y1="85.16" x2="473.78" y2="85.16" xlink:href="#New_Gradient_Swatch_1"/><linearGradient id="New_Gradient_Swatch_1-29" x1="0" y1="23.26" x2="5.67" y2="23.26" xlink:href="#New_Gradient_Swatch_1"/><linearGradient id="New_Gradient_Swatch_1-53" x1="127.82" y1="12.69" x2="170.02" y2="12.69" xlink:href="#New_Gradient_Swatch_1"/><linearGradient id="New_Gradient_Swatch_1-54" x1="165.7" y1="12.69" x2="195.17" y2="12.69" xlink:href="#New_Gradient_Swatch_1"/><linearGradient id="New_Gradient_Swatch_1-55" x1="197.28" y1="12.69" x2="223.87" y2="12.69" xlink:href="#New_Gradient_Swatch_1"/><linearGradient id="New_Gradient_Swatch_1-56" x1="226.01" y1="12.69" x2="252.42" y2="12.69" xlink:href="#New_Gradient_Swatch_1"/><linearGradient id="New_Gradient_Swatch_1-57" x1="256.42" y1="12.69" x2="264.49" y2="12.69" xlink:href="#New_Gradient_Swatch_1"/><linearGradient id="New_Gradient_Swatch_1-58" x1="268.49" y1="12.69" x2="294.9" y2="12.69" xlink:href="#New_Gradient_Swatch_1"/><linearGradient id="New_Gradient_Swatch_1-59" x1="298.9" y1="12.69" x2="325.31" y2="12.69" xlink:href="#New_Gradient_Swatch_1"/></defs><title>message_05_purple_green</title><g id="Layer_2" data-name="Layer 2"><g id="Layer_1-2" data-name="Layer 1"><polygon class="cls-3" points="480.86 46.34 480.86 29.47 344.28 29.47 328.72 43.39 133 43.39 107.92 29.47 9.35 29.47 9.35 264.37 83.52 264.37 102.74 244.22 393.87 244.22 407.05 264.37 480.86 264.37 480.86 221.91 470.83 211.88 470.83 51.05 480.86 46.34"/><path class="cls-4" d="M482,264.94H407.31l-13.18-20.15H103.55L84.33,264.94h-75v-236h99.29l25.08,13.92H329.07l15.56-13.92H482V46.7l-10,4.71V211.65l10,10Zm-74.07-1.13h72.94V222.14l-10-10V50.69l10-4.71V30H345.06L329.51,44H133.42L108.35,30H10.49V263.81H83.84l19.23-20.16H394.74Z"/><path class="cls-5" d="M95.73,21H11.62a2.27,2.27,0,0,0-2.27,2.27v6.43h99.47v-.92Z"/><path class="cls-6" d="M62.28,285.54H3.84a1.58,1.58,0,0,1-1.58-1.6V279.4H71.38v.65Z"/><path class="cls-7" d="M479.77,24.38H386.22l-3.66,3.4h-36.3a2.45,2.45,0,0,0-.39,0l-1.8,1.66A1.85,1.85,0,0,0,344,30H482V26.65A2.27,2.27,0,0,0,479.77,24.38Z"/><path class="cls-8" d="M449.14,10.23H381.29l-2.65,2.56H352.3l-.28,0-1.3,1.25a1.93,1.93,0,0,0-.06.36H450.79V11.93A1.68,1.68,0,0,0,449.14,10.23Z"/><path class="cls-9" d="M85.85,263.42H9.26v8.23a2.27,2.27,0,0,0,2.26,2.27H75.39Z"/><polygon class="cls-10" points="481.91 221.44 481.28 221.44 481.28 263.99 406.96 263.99 406.96 264.48 413.03 273.63 481.28 273.63 481.85 273.63 490.93 273.63 490.93 231 481.91 221.44"/><rect class="cls-11" x="477.22" y="112.51" width="5.3" height="14.37"/><rect class="cls-12" x="477.22" y="73.93" width="5.3" height="14.37"/><rect class="cls-13" x="477.22" y="93.22" width="5.3" height="14.37"/><rect class="cls-14" x="477.22" y="131.8" width="5.3" height="14.37"/><rect class="cls-15" x="477.22" y="151.09" width="5.3" height="14.37"/><polygon class="cls-16" points="477.22 189.66 477.22 207.82 482.51 216.14 482.51 189.66 477.22 189.66"/><polygon class="cls-17" points="482.51 69.01 482.51 54.21 477.22 56.53 477.22 69.01 482.51 69.01"/><rect class="cls-18" x="477.22" y="170.38" width="5.3" height="14.37"/><rect class="cls-19" x="227.96" y="249.8" width="16.45" height="8.51"/><rect class="cls-20" x="204.14" y="249.8" width="16.45" height="8.51"/><rect class="cls-21" x="251.79" y="249.8" width="16.45" height="8.51"/><g class="cls-22"><polygon class="cls-23" points="275.62 258.31 396.63 258.31 388.52 249.8 275.62 249.8 275.62 258.31"/></g><rect class="cls-24" x="180.31" y="249.8" width="16.45" height="8.51"/><polygon class="cls-25" points="125.28 249.8 109.96 249.8 101.98 258.31 125.28 258.31 125.28 249.8"/><rect class="cls-26" x="132.65" y="249.8" width="16.45" height="8.51"/><rect class="cls-27" x="156.48" y="249.8" width="16.45" height="8.51"/><path class="cls-28" d="M322.14,38.75H137.19a.61.61,0,0,1-.3-.08l-17-10.78a.57.57,0,1,1,.6-1l16.89,10.69H321.94l28.78-23.7a.59.59,0,0,1,.36-.13h99.28a.57.57,0,0,1,.57.57.58.58,0,0,1-.57.57H351.28L322.5,38.62A.53.53,0,0,1,322.14,38.75Z"/><path class="cls-29" d="M70.81,280.44H2.73a.57.57,0,0,1-.57-.57V21.73a.57.57,0,0,1,.57-.56.56.56,0,0,1,.57.56V279.3H70.81a.57.57,0,0,1,.57.57A.56.56,0,0,1,70.81,280.44Z"/><polygon class="cls-30" points="410.98 259.61 396.12 237.99 277.98 237.99 277.98 237.42 396.42 237.42 411.45 259.29 410.98 259.61"/><polygon class="cls-31" points="465.4 128.39 464.83 128.39 464.83 47.68 473.46 41.92 473.78 42.39 465.4 47.98 465.4 128.39"/><circle class="cls-32" cx="2.84" cy="23.26" r="2.84"/><path class="cls-4" d="M482,264.94H407.31l-13.18-20.15H103.55L84.33,264.94h-75v-236h99.29l25.08,13.92H329.07l15.56-13.92H482V46.7l-10,4.71V211.65l10,10Zm-74.07-1.13h72.94V222.14l-10-10V50.69l10-4.71V30H345.06L329.51,44H133.42L108.35,30H10.49V263.81H83.84l19.23-20.16H394.74Z"/><path class="cls-5" d="M95.73,21H11.62a2.27,2.27,0,0,0-2.27,2.27v6.43h99.47v-.92Z"/><path class="cls-6" d="M62.28,285.54H3.84a1.58,1.58,0,0,1-1.58-1.6V279.4H71.38v.65Z"/><path class="cls-7" d="M479.77,24.38H386.22l-3.66,3.4h-36.3a2.45,2.45,0,0,0-.39,0l-1.8,1.66A1.85,1.85,0,0,0,344,30H482V26.65A2.27,2.27,0,0,0,479.77,24.38Z"/><path class="cls-8" d="M449.14,10.23H381.29l-2.65,2.56H352.3l-.28,0-1.3,1.25a1.93,1.93,0,0,0-.06.36H450.79V11.93A1.68,1.68,0,0,0,449.14,10.23Z"/><path class="cls-9" d="M85.85,263.42H9.26v8.23a2.27,2.27,0,0,0,2.26,2.27H75.39Z"/><polygon class="cls-10" points="481.91 221.44 481.28 221.44 481.28 263.99 406.96 263.99 406.96 264.48 413.03 273.63 481.28 273.63 481.85 273.63 490.93 273.63 490.93 231 481.91 221.44"/><rect class="cls-11" x="477.22" y="112.51" width="5.3" height="14.37"/><rect class="cls-12" x="477.22" y="73.93" width="5.3" height="14.37"/><rect class="cls-13" x="477.22" y="93.22" width="5.3" height="14.37"/><rect class="cls-14" x="477.22" y="131.8" width="5.3" height="14.37"/><rect class="cls-15" x="477.22" y="151.09" width="5.3" height="14.37"/><polygon class="cls-16" points="477.22 189.66 477.22 207.82 482.51 216.14 482.51 189.66 477.22 189.66"/><polygon class="cls-17" points="482.51 69.01 482.51 54.21 477.22 56.53 477.22 69.01 482.51 69.01"/><rect class="cls-18" x="477.22" y="170.38" width="5.3" height="14.37"/><rect class="cls-19" x="227.96" y="249.8" width="16.45" height="8.51"/><rect class="cls-20" x="204.14" y="249.8" width="16.45" height="8.51"/><rect class="cls-21" x="251.79" y="249.8" width="16.45" height="8.51"/><rect class="cls-24" x="180.31" y="249.8" width="16.45" height="8.51"/><polygon class="cls-25" points="125.28 249.8 109.96 249.8 101.98 258.31 125.28 258.31 125.28 249.8"/><rect class="cls-26" x="132.65" y="249.8" width="16.45" height="8.51"/><rect class="cls-27" x="156.48" y="249.8" width="16.45" height="8.51"/><circle class="cls-32" cx="2.84" cy="23.26" r="2.84"/><path class="cls-33" d="M161.18,25.37h-7.83l-4.43-13.88-4.43,13.88h-7.83L127.82,0h8.61l4.34,13.71L145,0h7.78l4.26,13.71L161.41,0H170Z"/><path class="cls-34" d="M186.77,25.37,185.59,22H175.27L174,25.37H165.7V25.3L176.22,0h8.43l10.52,25.3v.07ZM180.39,8.1l-2.6,7.34h5.26Z"/><path class="cls-35" d="M214.66,25.37,206.6,16V12h7.84V6.87h-9.09v18.5h-8.07V0h22.5a2.4,2.4,0,0,1,2,.91,3.74,3.74,0,0,1,.75,2.44V14.64a3.56,3.56,0,0,1-.75,2.4,2.47,2.47,0,0,1-2,.86h-2.52l6.61,7.2v.27Z"/><path class="cls-36" d="M244.48,25.37,234.07,12V25.37H226V0h8l10.37,12.25V0h8.06V25.37Z"/><path class="cls-37" d="M256.42,25.37V0h8.07V25.37Z"/><path class="cls-38" d="M287,25.37,276.55,12V25.37h-8.06V0h8l10.38,12.25V0h8.06V25.37Z"/><path class="cls-39" d="M324.58,24.46a2.38,2.38,0,0,1-2,.91h-21a2.33,2.33,0,0,1-2-.91,3.91,3.91,0,0,1-.7-2.44V3.35a3.8,3.8,0,0,1,.74-2.44,2.46,2.46,0,0,1,2-.91h21a2.38,2.38,0,0,1,2,.91,3.79,3.79,0,0,1,.73,2.44V8.87h-8.06v-2H307V18.5h10.29V16.67h-7.89V10.36h15.95V22A3.79,3.79,0,0,1,324.58,24.46Z"/></g></g></svg>