<svg xmlns="http://www.w3.org/2000/svg" xmlns:xlink="http://www.w3.org/1999/xlink" viewBox="0 0 493.87 352.58"><defs><style>.cls-1{opacity:0.35;fill:url(#New_Gradient_Swatch_5);}.cls-1,.cls-10,.cls-11,.cls-12,.cls-14,.cls-5,.cls-7,.cls-8,.cls-9{isolation:isolate;}.cls-2{fill:url(#New_Gradient_Swatch_5-2);}.cls-3{fill:url(#New_Gradient_Swatch_5-3);}.cls-4{fill:url(#New_Gradient_Swatch_5-4);}.cls-12,.cls-5{opacity:0.2;}.cls-5{fill:url(#New_Gradient_Swatch_5-5);}.cls-6{fill:url(#New_Gradient_Swatch_5-6);}.cls-10,.cls-7{opacity:0.6;}.cls-7{fill:url(#New_Gradient_Swatch_5-7);}.cls-14,.cls-8{opacity:0.8;}.cls-8{fill:url(#New_Gradient_Swatch_5-8);}.cls-11,.cls-9{opacity:0.4;}.cls-9{fill:url(#New_Gradient_Swatch_5-9);}.cls-10{fill:url(#New_Gradient_Swatch_5-10);}.cls-11{fill:url(#New_Gradient_Swatch_5-11);}.cls-12{fill:url(#New_Gradient_Swatch_5-12);}.cls-13{fill:url(#New_Gradient_Swatch_5-13);}.cls-14{fill:url(#New_Gradient_Swatch_5-14);}.cls-15{fill:url(#New_Gradient_Swatch_5-15);}.cls-16{fill:url(#New_Gradient_Swatch_5-16);}.cls-17{fill:url(#New_Gradient_Swatch_5-17);}.cls-18{fill:url(#New_Gradient_Swatch_5-18);}.cls-19{fill:url(#New_Gradient_Swatch_5-19);}.cls-20{fill:url(#New_Gradient_Swatch_5-20);}.cls-21{fill:url(#New_Gradient_Swatch_5-21);}.cls-22{fill:url(#New_Gradient_Swatch_5-22);}.cls-23{fill:url(#New_Gradient_Swatch_5-23);}</style><linearGradient id="New_Gradient_Swatch_5" x1="12.31" y1="144.69" x2="477.26" y2="144.69" gradientTransform="matrix(1, 0, 0, -1, 0, 321.51)" gradientUnits="userSpaceOnUse"><stop offset="0" stop-color="#11e5b3"/><stop offset="0.14" stop-color="#15dcb8"/><stop offset="0.36" stop-color="#21c4c6"/><stop offset="0.64" stop-color="#359edc"/><stop offset="0.97" stop-color="#4f68fb"/><stop offset="1" stop-color="#5263fe"/></linearGradient><linearGradient id="New_Gradient_Swatch_5-2" x1="10.5" y1="144.69" x2="478.06" y2="144.69" xlink:href="#New_Gradient_Swatch_5"/><linearGradient id="New_Gradient_Swatch_5-3" x1="473.88" y1="-16.91" x2="483.11" y2="-16.91" xlink:href="#New_Gradient_Swatch_5"/><linearGradient id="New_Gradient_Swatch_5-4" x1="0.01" y1="57.66" x2="9.24" y2="57.66" xlink:href="#New_Gradient_Swatch_5"/><linearGradient id="New_Gradient_Swatch_5-5" x1="242.02" y1="234.63" x2="280.91" y2="234.63" xlink:href="#New_Gradient_Swatch_5"/><linearGradient id="New_Gradient_Swatch_5-6" x1="306.81" y1="300.13" x2="347.19" y2="300.13" xlink:href="#New_Gradient_Swatch_5"/><linearGradient id="New_Gradient_Swatch_5-7" x1="275.78" y1="267.39" x2="312.65" y2="267.39" xlink:href="#New_Gradient_Swatch_5"/><linearGradient id="New_Gradient_Swatch_5-8" x1="291.3" y1="283.07" x2="328.52" y2="283.07" xlink:href="#New_Gradient_Swatch_5"/><linearGradient id="New_Gradient_Swatch_5-9" x1="260.27" y1="251.7" x2="296.78" y2="251.7" xlink:href="#New_Gradient_Swatch_5"/><linearGradient id="New_Gradient_Swatch_5-10" x1="11.39" y1="122.04" x2="27.07" y2="122.04" xlink:href="#New_Gradient_Swatch_5"/><linearGradient id="New_Gradient_Swatch_5-11" x1="11.39" y1="91.69" x2="27.07" y2="91.69" xlink:href="#New_Gradient_Swatch_5"/><linearGradient id="New_Gradient_Swatch_5-12" x1="11.39" y1="61.04" x2="27.07" y2="61.04" xlink:href="#New_Gradient_Swatch_5"/><linearGradient id="New_Gradient_Swatch_5-13" x1="11.39" y1="185.29" x2="27.07" y2="185.29" xlink:href="#New_Gradient_Swatch_5"/><linearGradient id="New_Gradient_Swatch_5-14" x1="11.39" y1="152.39" x2="27.07" y2="152.39" xlink:href="#New_Gradient_Swatch_5"/><linearGradient id="New_Gradient_Swatch_5-15" x1="413.92" y1="-16.91" x2="479.42" y2="-16.91" xlink:href="#New_Gradient_Swatch_5"/><linearGradient id="New_Gradient_Swatch_5-16" x1="10.47" y1="227.26" x2="237.41" y2="227.26" xlink:href="#New_Gradient_Swatch_5"/><linearGradient id="New_Gradient_Swatch_5-17" x1="396.7" y1="202.42" x2="493.87" y2="202.42" xlink:href="#New_Gradient_Swatch_5"/><linearGradient id="New_Gradient_Swatch_5-18" x1="12.31" y1="11.23" x2="140.85" y2="11.23" xlink:href="#New_Gradient_Swatch_5"/><linearGradient id="New_Gradient_Swatch_5-19" x1="3.52" y1="13.04" x2="305.23" y2="13.04" xlink:href="#New_Gradient_Swatch_5"/><linearGradient id="New_Gradient_Swatch_5-20" x1="312.88" y1="-22.9" x2="329.84" y2="-22.9" xlink:href="#New_Gradient_Swatch_5"/><linearGradient id="New_Gradient_Swatch_5-21" x1="336.25" y1="-22.9" x2="345.84" y2="-22.9" xlink:href="#New_Gradient_Swatch_5"/><linearGradient id="New_Gradient_Swatch_5-22" x1="32.21" y1="220.03" x2="340.51" y2="220.03" xlink:href="#New_Gradient_Swatch_5"/><linearGradient id="New_Gradient_Swatch_5-23" x1="408.38" y1="33.29" x2="477.26" y2="33.29" xlink:href="#New_Gradient_Swatch_5"/></defs><title>message_15_green_blue</title><g id="Layer_2" data-name="Layer 2"><g id="Layer_1-2" data-name="Layer 1"><g id="Layer_2-2" data-name="Layer 2"><g id="Layer_1-2-2" data-name="Layer 1-2"><polygon class="cls-1" points="359.18 15.38 272.46 102.09 12.31 102.09 34.45 126.08 34.45 269.99 12.31 287.21 12.31 338.26 420.07 338.26 477.26 292.28 477.26 15.38 359.18 15.38"/><path class="cls-2" d="M420.35,339.05H11.52V286.83L33.66,269.6V126.39L10.5,101.3H272.13l86.72-86.72H478.06V292.66l-.3.24ZM13.1,337.47H419.79l56.68-45.57V16.17h-117l-86.72,86.72H14.12l21.12,22.88V270.38L13.1,287.6Z"/><path class="cls-3" d="M483.11,338.41a4.62,4.62,0,1,1-4.63-4.61h0A4.62,4.62,0,0,1,483.11,338.41Z"/><path class="cls-4" d="M9.24,263.84a4.62,4.62,0,1,1-4.63-4.61h0A4.62,4.62,0,0,1,9.24,263.84Z"/><polygon class="cls-5" points="253.88 80.88 242.02 92.87 268.77 92.87 280.91 80.88 253.88 80.88"/><polygon class="cls-6" points="335.05 27.37 347.19 15.38 318.67 15.38 306.81 27.37 335.05 27.37"/><polygon class="cls-7" points="284.91 49.51 275.78 58.73 303.31 58.73 312.65 49.51 284.91 49.51"/><polygon class="cls-8" points="300.42 33.83 291.3 43.05 319.18 43.05 328.52 33.83 300.42 33.83"/><polygon class="cls-9" points="287.44 74.42 296.78 65.19 269.4 65.19 260.27 74.42 287.44 74.42"/><polygon class="cls-10" points="11.39 181.93 11.39 202.1 27.07 217 27.07 196.83 11.39 181.93"/><polygon class="cls-11" points="27.07 227.18 11.39 212.28 11.39 232.45 27.07 247.35 27.07 227.18"/><polygon class="cls-12" points="11.39 242.63 11.39 278.3 27.07 263.54 27.07 257.53 11.39 242.63"/><polygon class="cls-13" points="27.07 156.3 27.07 133.46 11.39 116.13 11.39 141.4 27.07 156.3"/><polygon class="cls-14" points="11.39 151.58 11.39 171.75 27.07 186.65 27.07 166.48 11.39 151.58"/><rect class="cls-15" x="413.92" y="337.62" width="65.5" height="1.59"/><path class="cls-16" d="M237.41,102.09l-15.69-9.22h-131V88.26A2.76,2.76,0,0,0,88,85.49H13.23a2.77,2.77,0,0,0-2.76,2.76h0v12A2.75,2.75,0,0,0,13.23,103H88a2.74,2.74,0,0,0,2-.93Z"/><path class="cls-17" d="M476.65,14.22V1.52A2.76,2.76,0,0,0,474.19,0H399.46a2.77,2.77,0,0,0-2.76,2.77v12a3.18,3.18,0,0,0,.07.62h79.57V88.87a2.77,2.77,0,0,0,.92,2v147.3l9.23-15.67V91.63h4.61a2.77,2.77,0,0,0,2.77-2.75h0V14.22Z"/><path class="cls-18" d="M19.69,281.68v49.2H122.4s17.83-2.46,18.45,8H12.31V287.21Z"/><path class="cls-19" d="M210.35,352.58H4.31a.79.79,0,0,1-.79-.79h0V265.07a.8.8,0,0,1,1.59,0V351H209.55v-6.59a.79.79,0,0,1,.79-.79h94.1a.79.79,0,0,1,0,1.58H211.14v6.59a.79.79,0,0,1-.79.79Z"/><path class="cls-20" d="M329,345.2H313.67a.79.79,0,0,1,0-1.58H329a.79.79,0,0,1,0,1.58Z"/><path class="cls-21" d="M345,345.2h-8a.79.79,0,0,1,0-1.58h8a.79.79,0,0,1,0,1.58Z"/><path class="cls-22" d="M44.91,149.23a.4.4,0,0,1-.4-.4V121.94L32.33,110.38a.4.4,0,0,1,.28-.69H283.37l56.47-55.85a.4.4,0,1,1,.56.56l-56.58,56a.36.36,0,0,1-.28.12H33.6l11.58,11a.36.36,0,0,1,.12.28v27.06A.39.39,0,0,1,44.91,149.23Z"/><polygon class="cls-23" points="408.38 338.26 471.11 289.06 471.11 249.08 477.26 238.17 477.26 292.28 420.07 338.26 408.38 338.26"/><path class="cls-3" d="M483.11,338.41a4.62,4.62,0,1,1-4.63-4.61h0A4.62,4.62,0,0,1,483.11,338.41Z"/><path class="cls-4" d="M9.24,263.84a4.62,4.62,0,1,1-4.63-4.61h0A4.62,4.62,0,0,1,9.24,263.84Z"/><polygon class="cls-5" points="253.88 80.88 242.02 92.87 268.77 92.87 280.91 80.88 253.88 80.88"/><polygon class="cls-6" points="335.05 27.37 347.19 15.38 318.67 15.38 306.81 27.37 335.05 27.37"/><polygon class="cls-7" points="284.91 49.51 275.78 58.73 303.31 58.73 312.65 49.51 284.91 49.51"/><polygon class="cls-8" points="300.42 33.83 291.3 43.05 319.18 43.05 328.52 33.83 300.42 33.83"/><polygon class="cls-9" points="287.44 74.42 296.78 65.19 269.4 65.19 260.27 74.42 287.44 74.42"/><polygon class="cls-10" points="11.39 181.93 11.39 202.1 27.07 217 27.07 196.83 11.39 181.93"/><polygon class="cls-11" points="27.07 227.18 11.39 212.28 11.39 232.45 27.07 247.35 27.07 227.18"/><polygon class="cls-12" points="11.39 242.63 11.39 278.3 27.07 263.54 27.07 257.53 11.39 242.63"/><polygon class="cls-13" points="27.07 156.3 27.07 133.46 11.39 116.13 11.39 141.4 27.07 156.3"/><polygon class="cls-14" points="11.39 151.58 11.39 171.75 27.07 186.65 27.07 166.48 11.39 151.58"/><path class="cls-16" d="M237.41,102.09l-15.69-9.22h-131V88.26A2.76,2.76,0,0,0,88,85.49H13.23a2.77,2.77,0,0,0-2.76,2.76h0v12A2.75,2.75,0,0,0,13.23,103H88a2.74,2.74,0,0,0,2-.93Z"/><path class="cls-17" d="M476.65,14.22V1.52A2.76,2.76,0,0,0,474.19,0H399.46a2.77,2.77,0,0,0-2.76,2.77v12a3.18,3.18,0,0,0,.07.62h79.57V88.87a2.77,2.77,0,0,0,.92,2v147.3l9.23-15.67V91.63h4.61a2.77,2.77,0,0,0,2.77-2.75h0V14.22Z"/><path class="cls-18" d="M19.69,281.68v49.2H122.4s17.83-2.46,18.45,8H12.31V287.21Z"/><polygon class="cls-23" points="408.38 338.26 471.11 289.06 471.11 249.08 477.26 238.17 477.26 292.28 420.07 338.26 408.38 338.26"/></g></g></g></g></svg>