<svg xmlns="http://www.w3.org/2000/svg" xmlns:xlink="http://www.w3.org/1999/xlink" viewBox="0 0 495 186.32"><defs><style>.cls-1{opacity:0.35;isolation:isolate;fill:url(#New_Gradient_Swatch_5);}.cls-2{fill:url(#New_Gradient_Swatch_5-2);}.cls-3{fill:url(#New_Gradient_Swatch_5-3);}.cls-4{fill:url(#New_Gradient_Swatch_5-4);}.cls-5{fill:url(#New_Gradient_Swatch_5-5);}.cls-6{fill:url(#New_Gradient_Swatch_5-6);}.cls-7{fill:url(#New_Gradient_Swatch_5-7);}.cls-8{fill:url(#New_Gradient_Swatch_5-8);}.cls-9{fill:url(#New_Gradient_Swatch_5-9);}.cls-10{fill:url(#New_Gradient_Swatch_5-10);}.cls-11{fill:url(#New_Gradient_Swatch_5-11);}.cls-12{fill:url(#New_Gradient_Swatch_5-12);}.cls-13{fill:url(#New_Gradient_Swatch_5-13);}.cls-14{fill:url(#New_Gradient_Swatch_5-14);}.cls-15{fill:url(#New_Gradient_Swatch_5-15);}.cls-16{fill:url(#New_Gradient_Swatch_5-16);}.cls-17{fill:url(#New_Gradient_Swatch_5-17);}.cls-18{fill:url(#New_Gradient_Swatch_5-18);}.cls-19{fill:url(#New_Gradient_Swatch_5-19);}.cls-20{fill:url(#New_Gradient_Swatch_5-20);}.cls-21{fill:url(#New_Gradient_Swatch_5-21);}.cls-22{fill:url(#New_Gradient_Swatch_5-22);}.cls-23{fill:url(#New_Gradient_Swatch_5-23);}.cls-24{fill:url(#New_Gradient_Swatch_5-24);}.cls-25{fill:url(#New_Gradient_Swatch_5-25);}.cls-26{fill:url(#New_Gradient_Swatch_5-26);}.cls-27{fill:url(#New_Gradient_Swatch_5-27);}</style><linearGradient id="New_Gradient_Swatch_5" x1="0.57" y1="81.75" x2="494.4" y2="81.75" gradientTransform="matrix(1, 0, 0, -1, 0, 175.72)" gradientUnits="userSpaceOnUse"><stop offset="0" stop-color="#11e5b3"/><stop offset="0.14" stop-color="#15dcb8"/><stop offset="0.36" stop-color="#21c4c6"/><stop offset="0.64" stop-color="#359edc"/><stop offset="0.97" stop-color="#4f68fb"/><stop offset="1" stop-color="#5263fe"/></linearGradient><linearGradient id="New_Gradient_Swatch_5-2" x1="0" y1="81.77" x2="495" y2="81.77" xlink:href="#New_Gradient_Swatch_5"/><linearGradient id="New_Gradient_Swatch_5-3" x1="11.27" y1="156.93" x2="218.97" y2="156.93" xlink:href="#New_Gradient_Swatch_5"/><linearGradient id="New_Gradient_Swatch_5-4" x1="295.44" y1="1.56" x2="494.4" y2="1.56" xlink:href="#New_Gradient_Swatch_5"/><linearGradient id="New_Gradient_Swatch_5-5" x1="377.31" y1="133.38" x2="494.4" y2="133.38" xlink:href="#New_Gradient_Swatch_5"/><linearGradient id="New_Gradient_Swatch_5-6" x1="0.57" y1="40.28" x2="273.19" y2="40.28" xlink:href="#New_Gradient_Swatch_5"/><linearGradient id="New_Gradient_Swatch_5-7" x1="301.71" y1="-0.55" x2="453.57" y2="-0.55" xlink:href="#New_Gradient_Swatch_5"/><linearGradient id="New_Gradient_Swatch_5-8" x1="34.4" y1="165.35" x2="166.12" y2="165.35" xlink:href="#New_Gradient_Swatch_5"/><linearGradient id="New_Gradient_Swatch_5-9" x1="22.33" y1="142.35" x2="161.94" y2="142.35" xlink:href="#New_Gradient_Swatch_5"/><linearGradient id="New_Gradient_Swatch_5-10" x1="271.54" y1="173.59" x2="289.93" y2="173.59" xlink:href="#New_Gradient_Swatch_5"/><linearGradient id="New_Gradient_Swatch_5-11" x1="235.53" y1="173.52" x2="253.82" y2="173.52" xlink:href="#New_Gradient_Swatch_5"/><linearGradient id="New_Gradient_Swatch_5-12" x1="253.53" y1="173.55" x2="271.88" y2="173.55" xlink:href="#New_Gradient_Swatch_5"/><linearGradient id="New_Gradient_Swatch_5-13" x1="307.54" y1="173.66" x2="326.05" y2="173.66" xlink:href="#New_Gradient_Swatch_5"/><linearGradient id="New_Gradient_Swatch_5-14" x1="289.54" y1="173.62" x2="307.99" y2="173.62" xlink:href="#New_Gradient_Swatch_5"/><linearGradient id="New_Gradient_Swatch_5-15" x1="361.56" y1="173.78" x2="382.93" y2="173.78" xlink:href="#New_Gradient_Swatch_5"/><linearGradient id="New_Gradient_Swatch_5-16" x1="325.55" y1="173.69" x2="344.1" y2="173.69" xlink:href="#New_Gradient_Swatch_5"/><linearGradient id="New_Gradient_Swatch_5-17" x1="219.62" y1="173.48" x2="235.77" y2="173.48" xlink:href="#New_Gradient_Swatch_5"/><linearGradient id="New_Gradient_Swatch_5-18" x1="343.55" y1="173.73" x2="362.16" y2="173.73" xlink:href="#New_Gradient_Swatch_5"/><linearGradient id="New_Gradient_Swatch_5-19" x1="76.47" y1="-5.92" x2="94.87" y2="-5.92" xlink:href="#New_Gradient_Swatch_5"/><linearGradient id="New_Gradient_Swatch_5-20" x1="40.46" y1="-5.99" x2="58.76" y2="-5.99" xlink:href="#New_Gradient_Swatch_5"/><linearGradient id="New_Gradient_Swatch_5-21" x1="58.46" y1="-5.96" x2="76.81" y2="-5.96" xlink:href="#New_Gradient_Swatch_5"/><linearGradient id="New_Gradient_Swatch_5-22" x1="112.48" y1="-5.85" x2="130.98" y2="-5.85" xlink:href="#New_Gradient_Swatch_5"/><linearGradient id="New_Gradient_Swatch_5-23" x1="94.47" y1="-5.89" x2="112.92" y2="-5.89" xlink:href="#New_Gradient_Swatch_5"/><linearGradient id="New_Gradient_Swatch_5-24" x1="166.49" y1="-5.73" x2="187.86" y2="-5.73" xlink:href="#New_Gradient_Swatch_5"/><linearGradient id="New_Gradient_Swatch_5-25" x1="130.48" y1="-5.82" x2="149.03" y2="-5.82" xlink:href="#New_Gradient_Swatch_5"/><linearGradient id="New_Gradient_Swatch_5-26" x1="24.55" y1="-6.03" x2="40.7" y2="-6.03" xlink:href="#New_Gradient_Swatch_5"/><linearGradient id="New_Gradient_Swatch_5-27" x1="148.49" y1="-5.78" x2="167.09" y2="-5.78" xlink:href="#New_Gradient_Swatch_5"/></defs><title>message_07_green_blue</title><g id="Layer_2" data-name="Layer 2"><g id="Layer_1-2" data-name="Layer 1"><g id="Layer_2-2" data-name="Layer 2"><g id="Layer_1-2-2" data-name="Layer 1-2"><polygon class="cls-1" points="420.52 11.66 386.82 6.48 179.44 6.48 162.59 24.63 27.79 24.63 0.57 45.89 0.57 157.91 22.61 176.27 292.2 176.27 306.46 162.01 455.51 162.01 464.15 181.46 494.4 181.46 494.4 11.66 420.52 11.66"/><path class="cls-2" d="M495,182H463.78l-8.64-19.44H306.7l-14.26,14.26H22.4L0,158.18V45.61L27.6,24.05H162.34L179.19,5.91H386.91l33.65,5.18H495Zm-30.44-1.15h29.29V12.24H420.47l-33.7-5.19H179.69L162.84,25.2H28L1.16,46.2V157.64L22.82,175.7H292l14.26-14.26H455.89Z"/><polygon class="cls-3" points="11.27 36.62 11.27 31.43 28.12 19.12 160.97 19.12 178.79 0.97 213.79 0.97 218.97 6.48 179.44 6.48 162.59 24.63 27.79 24.63 11.27 36.62"/><polygon class="cls-4" points="494.4 181.46 490.51 186.32 461.67 186.32 451.95 167.52 308.73 167.52 302.57 173.68 295.44 173.68 306.46 162.01 455.51 162.01 464.15 181.46 494.4 181.46"/><polygon class="cls-5" points="377.31 6.91 422.25 14.69 473.23 14.69 483.16 14.69 490.51 20.31 490.51 71.72 494.4 78.2 494.4 11.66 420.52 11.66 388.55 6.48 377.31 6.91"/><path class="cls-6" d="M267.36,176.27c3.59-.24,5.64-.52,5.83-.86l-95.91-2.59,2.59-4.76H128L122.41,172H24.77L4.89,155.75V101.53L.57,94.62v63.29l22,18.36Z"/><polygon class="cls-7" points="310.66 171.95 448.02 171.95 453.57 180.59 301.71 180.59 310.66 171.95"/><path class="cls-8" d="M45.81,6.05c-3.66,2.79-7.57,5.76-11.41,8.64H158.05l8.07-8.64Z"/><path class="cls-9" d="M155.49,36.94l6.45-7.13H32.33s-5.75,4.24-10,7.13Z"/><polygon class="cls-10" points="271.54 0.44 274.02 3.89 289.93 3.89 287.4 0.38 271.54 0.44"/><polygon class="cls-11" points="235.53 0.58 237.91 3.89 253.82 3.89 251.39 0.52 235.53 0.58"/><polygon class="cls-12" points="253.53 0.51 255.97 3.89 271.88 3.89 269.39 0.45 253.53 0.51"/><polygon class="cls-13" points="307.54 0.3 310.14 3.89 326.05 3.89 323.41 0.24 307.54 0.3"/><polygon class="cls-14" points="289.54 0.37 292.08 3.89 307.99 3.89 305.4 0.31 289.54 0.37"/><polygon class="cls-15" points="380.34 0 361.56 0.09 364.3 3.89 382.93 3.89 380.34 0"/><polygon class="cls-16" points="325.55 0.23 328.19 3.89 344.1 3.89 341.41 0.17 325.55 0.23"/><polygon class="cls-17" points="219.62 0.65 222.21 3.89 235.77 3.89 233.38 0.59 219.62 0.65"/><polygon class="cls-18" points="343.55 0.16 346.25 3.89 362.16 3.89 359.41 0.09 343.55 0.16"/><polygon class="cls-19" points="76.47 179.96 78.96 183.4 94.87 183.4 92.33 179.89 76.47 179.96"/><polygon class="cls-20" points="40.46 180.1 42.85 183.4 58.76 183.4 56.32 180.03 40.46 180.1"/><polygon class="cls-21" points="58.46 180.03 60.9 183.4 76.81 183.4 74.33 179.96 58.46 180.03"/><polygon class="cls-22" points="112.48 179.81 115.07 183.4 130.98 183.4 128.34 179.75 112.48 179.81"/><polygon class="cls-23" points="94.47 179.88 97.02 183.4 112.92 183.4 110.33 179.82 94.47 179.88"/><polygon class="cls-24" points="185.27 179.51 166.49 179.6 169.24 183.4 187.86 183.4 185.27 179.51"/><polygon class="cls-25" points="130.48 179.74 133.13 183.4 149.03 183.4 146.34 179.68 130.48 179.74"/><polygon class="cls-26" points="24.55 180.16 27.14 183.4 40.7 183.4 38.32 180.11 24.55 180.16"/><polygon class="cls-27" points="148.49 179.67 151.18 183.4 167.09 183.4 164.35 179.61 148.49 179.67"/></g></g></g></g></svg>