<svg xmlns="http://www.w3.org/2000/svg" xmlns:xlink="http://www.w3.org/1999/xlink" viewBox="0 0 397.52 497.23"><defs><style>.cls-1{fill:url(#New_Gradient_Swatch_5);}.cls-2{fill:url(#New_Gradient_Swatch_5-2);}.cls-3{fill:url(#New_Gradient_Swatch_5-3);}.cls-4{fill:url(#New_Gradient_Swatch_5-4);}.cls-5{fill:url(#New_Gradient_Swatch_5-5);}.cls-6{fill:url(#New_Gradient_Swatch_5-6);}.cls-7{fill:url(#New_Gradient_Swatch_5-7);}.cls-8{fill:url(#New_Gradient_Swatch_5-8);}.cls-9{fill:url(#New_Gradient_Swatch_5-9);}.cls-10{fill:url(#New_Gradient_Swatch_5-10);}.cls-11{fill:url(#New_Gradient_Swatch_5-11);}.cls-12{fill:url(#New_Gradient_Swatch_5-12);}.cls-13{fill:url(#New_Gradient_Swatch_5-13);}.cls-14{fill:url(#New_Gradient_Swatch_5-17);}.cls-15{fill:url(#New_Gradient_Swatch_5-18);}.cls-16{fill:url(#New_Gradient_Swatch_5-19);}.cls-17{fill:url(#New_Gradient_Swatch_5-20);}.cls-18{fill:url(#New_Gradient_Swatch_5-21);}.cls-19{fill:url(#New_Gradient_Swatch_5-22);}.cls-20{fill:url(#New_Gradient_Swatch_5-23);}.cls-21{opacity:0.35;isolation:isolate;fill:url(#New_Gradient_Swatch_5-34);}.cls-22{fill:url(#New_Gradient_Swatch_5-35);}.cls-23{opacity:0.1;}.cls-24{fill:url(#New_Gradient_Swatch_5-36);}.cls-25{clip-path:url(#clip-path);}.cls-26{fill:url(#New_Gradient_Swatch_5-39);}.cls-27{fill:url(#New_Gradient_Swatch_5-40);}.cls-28{opacity:0.2;}.cls-29{fill:url(#New_Gradient_Swatch_5-41);}.cls-30{clip-path:url(#clip-path-2);}.cls-31{fill:url(#New_Gradient_Swatch_5-44);}.cls-32{fill:url(#New_Gradient_Swatch_5-45);}.cls-33{opacity:0.4;}.cls-34{fill:url(#New_Gradient_Swatch_5-46);}.cls-35{clip-path:url(#clip-path-3);}.cls-36{fill:url(#New_Gradient_Swatch_5-49);}.cls-37{fill:url(#New_Gradient_Swatch_5-50);}.cls-38{opacity:0.3;}.cls-39{fill:url(#New_Gradient_Swatch_5-51);}.cls-40{clip-path:url(#clip-path-4);}.cls-41{fill:url(#New_Gradient_Swatch_5-54);}.cls-42{fill:url(#New_Gradient_Swatch_5-55);}.cls-43{fill:url(#New_Gradient_Swatch_5-56);}.cls-44{clip-path:url(#clip-path-5);}.cls-45{fill:url(#New_Gradient_Swatch_5-59);}.cls-46{fill:url(#New_Gradient_Swatch_5-60);}.cls-47{opacity:0.5;}.cls-48{fill:url(#New_Gradient_Swatch_5-61);}.cls-49{clip-path:url(#clip-path-6);}.cls-50{fill:url(#New_Gradient_Swatch_5-63);}.cls-51{fill:url(#New_Gradient_Swatch_5-64);}.cls-52{fill:url(#New_Gradient_Swatch_5-65);}.cls-53{opacity:0.7;}.cls-54{fill:url(#New_Gradient_Swatch_5-66);}.cls-55{clip-path:url(#clip-path-7);}.cls-56{fill:url(#New_Gradient_Swatch_5-69);}.cls-57{fill:url(#New_Gradient_Swatch_5-70);}.cls-58{opacity:0.6;}.cls-59{fill:url(#New_Gradient_Swatch_5-71);}.cls-60{clip-path:url(#clip-path-8);}.cls-61{fill:url(#New_Gradient_Swatch_5-73);}.cls-62{fill:url(#New_Gradient_Swatch_5-74);}.cls-63{fill:url(#New_Gradient_Swatch_5-75);}.cls-64{opacity:0.8;}.cls-65{fill:url(#New_Gradient_Swatch_5-76);}.cls-66{clip-path:url(#clip-path-9);}.cls-67{fill:url(#New_Gradient_Swatch_5-78);}.cls-68{fill:url(#New_Gradient_Swatch_5-79);}.cls-69{fill:url(#New_Gradient_Swatch_5-80);}.cls-70{opacity:0.9;}.cls-71{fill:url(#New_Gradient_Swatch_5-81);}.cls-72{clip-path:url(#clip-path-10);}.cls-73{fill:url(#New_Gradient_Swatch_5-84);}.cls-74{fill:url(#New_Gradient_Swatch_5-85);}.cls-75{fill:url(#New_Gradient_Swatch_5-86);}.cls-76{clip-path:url(#clip-path-11);}.cls-77{fill:url(#New_Gradient_Swatch_5-89);}.cls-78{fill:url(#New_Gradient_Swatch_5-90);}.cls-79{fill:url(#New_Gradient_Swatch_5-91);}.cls-80{clip-path:url(#clip-path-12);}.cls-81{fill:url(#New_Gradient_Swatch_5-93);}.cls-82{fill:url(#New_Gradient_Swatch_5-94);}.cls-83{fill:url(#New_Gradient_Swatch_5-95);}.cls-84{fill:url(#New_Gradient_Swatch_5-96);}.cls-85{clip-path:url(#clip-path-13);}.cls-86{fill:url(#New_Gradient_Swatch_5-98);}.cls-87{fill:url(#New_Gradient_Swatch_5-99);}.cls-88{fill:url(#New_Gradient_Swatch_5-100);}.cls-89{fill:url(#New_Gradient_Swatch_5-101);}.cls-90{fill:url(#New_Gradient_Swatch_5-102);}.cls-91{fill:url(#New_Gradient_Swatch_5-103);}.cls-92{fill:url(#New_Gradient_Swatch_5-104);}.cls-93{fill:url(#New_Gradient_Swatch_5-105);}.cls-94{clip-path:url(#clip-path-14);}.cls-95{fill:url(#New_Gradient_Swatch_5-108);}.cls-96{fill:url(#New_Gradient_Swatch_5-109);}.cls-97{fill:url(#New_Gradient_Swatch_5-110);}.cls-98{clip-path:url(#clip-path-15);}.cls-99{fill:url(#New_Gradient_Swatch_5-112);}.cls-100{fill:url(#New_Gradient_Swatch_5-113);}.cls-101{fill:url(#New_Gradient_Swatch_5-114);}.cls-102{fill:url(#New_Gradient_Swatch_5-115);}.cls-103{clip-path:url(#clip-path-16);}.cls-104{fill:url(#New_Gradient_Swatch_5-117);}.cls-105{fill:url(#New_Gradient_Swatch_5-118);}.cls-106{fill:url(#New_Gradient_Swatch_5-119);}.cls-107{fill:url(#New_Gradient_Swatch_5-120);}.cls-108{clip-path:url(#clip-path-17);}.cls-109{fill:url(#New_Gradient_Swatch_5-122);}.cls-110{fill:url(#New_Gradient_Swatch_5-123);}.cls-111{fill:url(#New_Gradient_Swatch_5-124);}.cls-112{fill:url(#New_Gradient_Swatch_5-125);}.cls-113{clip-path:url(#clip-path-18);}.cls-114{fill:url(#New_Gradient_Swatch_5-128);}.cls-115{fill:url(#New_Gradient_Swatch_5-129);}.cls-116{fill:url(#New_Gradient_Swatch_5-130);}.cls-117{clip-path:url(#clip-path-19);}.cls-118{fill:url(#New_Gradient_Swatch_5-133);}.cls-119{fill:url(#New_Gradient_Swatch_5-134);}.cls-120{fill:url(#New_Gradient_Swatch_5-135);}.cls-121{clip-path:url(#clip-path-20);}.cls-122{fill:url(#New_Gradient_Swatch_5-138);}.cls-123{fill:url(#New_Gradient_Swatch_5-139);}</style><linearGradient id="New_Gradient_Swatch_5" x1="347.99" y1="135.07" x2="377.74" y2="135.07" gradientUnits="userSpaceOnUse"><stop offset="0" stop-color="#11e5b3"/><stop offset="0.14" stop-color="#15dcb8"/><stop offset="0.36" stop-color="#21c4c6"/><stop offset="0.64" stop-color="#359edc"/><stop offset="0.97" stop-color="#4f68fb"/><stop offset="1" stop-color="#5263fe"/></linearGradient><linearGradient id="New_Gradient_Swatch_5-2" x1="347.99" y1="165.21" x2="377.74" y2="165.21" xlink:href="#New_Gradient_Swatch_5"/><linearGradient id="New_Gradient_Swatch_5-3" x1="347.99" y1="445.01" x2="377.74" y2="445.01" xlink:href="#New_Gradient_Swatch_5"/><linearGradient id="New_Gradient_Swatch_5-4" x1="208.53" y1="486.7" x2="218.75" y2="486.7" xlink:href="#New_Gradient_Swatch_5"/><linearGradient id="New_Gradient_Swatch_5-5" x1="243.38" y1="28.4" x2="253.6" y2="28.4" xlink:href="#New_Gradient_Swatch_5"/><linearGradient id="New_Gradient_Swatch_5-6" x1="20.28" y1="53.5" x2="74.82" y2="53.5" xlink:href="#New_Gradient_Swatch_5"/><linearGradient id="New_Gradient_Swatch_5-7" x1="11.27" y1="292.9" x2="22.99" y2="292.9" xlink:href="#New_Gradient_Swatch_5"/><linearGradient id="New_Gradient_Swatch_5-8" x1="215.44" y1="472.4" x2="381" y2="472.4" xlink:href="#New_Gradient_Swatch_5"/><linearGradient id="New_Gradient_Swatch_5-9" x1="116.58" y1="24" x2="246.09" y2="24" xlink:href="#New_Gradient_Swatch_5"/><linearGradient id="New_Gradient_Swatch_5-10" x1="315.95" y1="180.11" x2="368.23" y2="180.11" xlink:href="#New_Gradient_Swatch_5"/><linearGradient id="New_Gradient_Swatch_5-11" x1="77.29" y1="38.34" x2="234.37" y2="38.34" xlink:href="#New_Gradient_Swatch_5"/><linearGradient id="New_Gradient_Swatch_5-12" x1="45.97" y1="406.7" x2="109.97" y2="406.7" xlink:href="#New_Gradient_Swatch_5"/><linearGradient id="New_Gradient_Swatch_5-13" x1="347.99" y1="228.07" x2="377.74" y2="228.07" xlink:href="#New_Gradient_Swatch_5"/><linearGradient id="New_Gradient_Swatch_5-17" x1="347.99" y1="196.64" x2="377.74" y2="196.64" xlink:href="#New_Gradient_Swatch_5"/><linearGradient id="New_Gradient_Swatch_5-18" x1="347.99" y1="259.25" x2="377.74" y2="259.25" xlink:href="#New_Gradient_Swatch_5"/><linearGradient id="New_Gradient_Swatch_5-19" x1="347.99" y1="289.4" x2="377.74" y2="289.4" xlink:href="#New_Gradient_Swatch_5"/><linearGradient id="New_Gradient_Swatch_5-20" x1="347.99" y1="352.25" x2="377.74" y2="352.25" xlink:href="#New_Gradient_Swatch_5"/><linearGradient id="New_Gradient_Swatch_5-21" x1="347.99" y1="320.82" x2="377.74" y2="320.82" xlink:href="#New_Gradient_Swatch_5"/><linearGradient id="New_Gradient_Swatch_5-22" x1="347.99" y1="383.43" x2="377.74" y2="383.43" xlink:href="#New_Gradient_Swatch_5"/><linearGradient id="New_Gradient_Swatch_5-23" x1="347.99" y1="413.58" x2="377.74" y2="413.58" xlink:href="#New_Gradient_Swatch_5"/><linearGradient id="New_Gradient_Swatch_5-34" x1="28.86" y1="249.97" x2="376.81" y2="249.97" gradientTransform="matrix(1, 0, 0, -1, 0, 492.66)" xlink:href="#New_Gradient_Swatch_5"/><linearGradient id="New_Gradient_Swatch_5-35" x1="28" y1="250.89" x2="377.71" y2="250.89" gradientTransform="matrix(1, 0, 0, -1, 0, 492.66)" xlink:href="#New_Gradient_Swatch_5"/><linearGradient id="New_Gradient_Swatch_5-36" x1="347.99" y1="356.7" x2="377.74" y2="356.7" gradientTransform="matrix(1, 0, 0, -1, 0, 492.66)" xlink:href="#New_Gradient_Swatch_5"/><clipPath id="clip-path" transform="translate(0 0.9)"><polygon id="SVGID" class="cls-1" points="377.74 130.63 377.74 106.56 347.99 139 347.99 163.57 377.74 130.63"/></clipPath><linearGradient id="New_Gradient_Swatch_5-39" x1="347.09" y1="356.96" x2="383.47" y2="356.96" gradientTransform="matrix(1, 0, 0, -1, 0, 492.66)" xlink:href="#New_Gradient_Swatch_5"/><linearGradient id="New_Gradient_Swatch_5-40" x1="350.18" y1="356.06" x2="373.6" y2="356.06" gradientTransform="matrix(1, 0, 0, -1, 0, 492.66)" xlink:href="#New_Gradient_Swatch_5"/><linearGradient id="New_Gradient_Swatch_5-41" x1="347.99" y1="326.55" x2="377.74" y2="326.55" gradientTransform="matrix(1, 0, 0, -1, 0, 492.66)" xlink:href="#New_Gradient_Swatch_5"/><clipPath id="clip-path-2" transform="translate(0 0.9)"><polygon id="SVGID-2" data-name="SVGID" class="cls-2" points="347.99 168.36 347.99 195 377.74 162.06 377.74 135.42 347.99 168.36"/></clipPath><linearGradient id="New_Gradient_Swatch_5-44" x1="347.09" y1="326.55" x2="378.64" y2="326.55" gradientTransform="matrix(1, 0, 0, -1, 0, 492.66)" xlink:href="#New_Gradient_Swatch_5"/><linearGradient id="New_Gradient_Swatch_5-45" x1="349.77" y1="325.88" x2="374.01" y2="325.88" gradientTransform="matrix(1, 0, 0, -1, 0, 492.66)" xlink:href="#New_Gradient_Swatch_5"/><linearGradient id="New_Gradient_Swatch_5-46" x1="347.99" y1="263.69" x2="377.74" y2="263.69" gradientTransform="matrix(1, 0, 0, -1, 0, 492.66)" xlink:href="#New_Gradient_Swatch_5"/><clipPath id="clip-path-3" transform="translate(0 0.9)"><polygon id="SVGID-3" data-name="SVGID" class="cls-13" points="347.99 231.21 347.99 257.86 377.74 224.92 377.74 198.28 347.99 231.21"/></clipPath><linearGradient id="New_Gradient_Swatch_5-49" x1="347.09" y1="263.69" x2="378.64" y2="263.69" gradientTransform="matrix(1, 0, 0, -1, 0, 492.66)" xlink:href="#New_Gradient_Swatch_5"/><linearGradient id="New_Gradient_Swatch_5-50" x1="349.76" y1="263.93" x2="374" y2="263.93" gradientTransform="matrix(1, 0, 0, -1, 0, 492.66)" xlink:href="#New_Gradient_Swatch_5"/><linearGradient id="New_Gradient_Swatch_5-51" x1="347.99" y1="295.12" x2="377.74" y2="295.12" gradientTransform="matrix(1, 0, 0, -1, 0, 492.66)" xlink:href="#New_Gradient_Swatch_5"/><clipPath id="clip-path-4" transform="translate(0 0.9)"><polygon id="SVGID-4" data-name="SVGID" class="cls-14" points="347.99 199.78 347.99 226.43 377.74 193.49 377.74 166.85 347.99 199.78"/></clipPath><linearGradient id="New_Gradient_Swatch_5-54" x1="347.09" y1="295.12" x2="378.64" y2="295.12" gradientTransform="matrix(1, 0, 0, -1, 0, 492.66)" xlink:href="#New_Gradient_Swatch_5"/><linearGradient id="New_Gradient_Swatch_5-55" x1="349.77" y1="294.46" x2="374.01" y2="294.46" gradientTransform="matrix(1, 0, 0, -1, 0, 492.66)" xlink:href="#New_Gradient_Swatch_5"/><linearGradient id="New_Gradient_Swatch_5-56" x1="347.99" y1="232.51" x2="377.74" y2="232.51" gradientTransform="matrix(1, 0, 0, -1, 0, 492.66)" xlink:href="#New_Gradient_Swatch_5"/><clipPath id="clip-path-5" transform="translate(0 0.9)"><polygon id="SVGID-5" data-name="SVGID" class="cls-15" points="377.74 254.82 377.74 230.74 347.99 263.18 347.99 287.76 377.74 254.82"/></clipPath><linearGradient id="New_Gradient_Swatch_5-59" x1="347.09" y1="232.78" x2="383.47" y2="232.78" gradientTransform="matrix(1, 0, 0, -1, 0, 492.66)" xlink:href="#New_Gradient_Swatch_5"/><linearGradient id="New_Gradient_Swatch_5-60" x1="350.18" y1="231.87" x2="373.6" y2="231.87" gradientTransform="matrix(1, 0, 0, -1, 0, 492.66)" xlink:href="#New_Gradient_Swatch_5"/><linearGradient id="New_Gradient_Swatch_5-61" x1="347.99" y1="202.37" x2="377.74" y2="202.37" gradientTransform="matrix(1, 0, 0, -1, 0, 492.66)" xlink:href="#New_Gradient_Swatch_5"/><clipPath id="clip-path-6" transform="translate(0 0.9)"><polygon id="SVGID-6" data-name="SVGID" class="cls-16" points="347.99 292.54 347.99 319.19 377.74 286.25 377.74 259.6 347.99 292.54"/></clipPath><linearGradient id="New_Gradient_Swatch_5-63" x1="347.99" y1="202.36" x2="377.74" y2="202.36" gradientTransform="matrix(1, 0, 0, -1, 0, 492.66)" xlink:href="#New_Gradient_Swatch_5"/><linearGradient id="New_Gradient_Swatch_5-64" x1="347.09" y1="202.37" x2="378.64" y2="202.37" gradientTransform="matrix(1, 0, 0, -1, 0, 492.66)" xlink:href="#New_Gradient_Swatch_5"/><linearGradient id="New_Gradient_Swatch_5-65" x1="349.77" y1="201.7" x2="374.01" y2="201.7" gradientTransform="matrix(1, 0, 0, -1, 0, 492.66)" xlink:href="#New_Gradient_Swatch_5"/><linearGradient id="New_Gradient_Swatch_5-66" x1="347.99" y1="139.51" x2="377.74" y2="139.51" gradientTransform="matrix(1, 0, 0, -1, 0, 492.66)" xlink:href="#New_Gradient_Swatch_5"/><clipPath id="clip-path-7" transform="translate(0 0.9)"><polygon id="SVGID-7" data-name="SVGID" class="cls-17" points="347.99 355.4 347.99 382.04 377.74 349.11 377.74 322.46 347.99 355.4"/></clipPath><linearGradient id="New_Gradient_Swatch_5-69" x1="347.09" y1="139.51" x2="378.64" y2="139.51" gradientTransform="matrix(1, 0, 0, -1, 0, 492.66)" xlink:href="#New_Gradient_Swatch_5"/><linearGradient id="New_Gradient_Swatch_5-70" x1="349.76" y1="139.74" x2="374" y2="139.74" gradientTransform="matrix(1, 0, 0, -1, 0, 492.66)" xlink:href="#New_Gradient_Swatch_5"/><linearGradient id="New_Gradient_Swatch_5-71" x1="347.99" y1="170.94" x2="377.74" y2="170.94" gradientTransform="matrix(1, 0, 0, -1, 0, 492.66)" xlink:href="#New_Gradient_Swatch_5"/><clipPath id="clip-path-8" transform="translate(0 0.9)"><polygon id="SVGID-8" data-name="SVGID" class="cls-18" points="347.99 323.97 347.99 350.62 377.74 317.68 377.74 291.03 347.99 323.97"/></clipPath><linearGradient id="New_Gradient_Swatch_5-73" x1="347.99" y1="170.94" x2="377.74" y2="170.94" gradientTransform="matrix(1, 0, 0, -1, 0, 492.66)" xlink:href="#New_Gradient_Swatch_5"/><linearGradient id="New_Gradient_Swatch_5-74" x1="347.09" y1="170.94" x2="378.64" y2="170.94" gradientTransform="matrix(1, 0, 0, -1, 0, 492.66)" xlink:href="#New_Gradient_Swatch_5"/><linearGradient id="New_Gradient_Swatch_5-75" x1="349.77" y1="170.27" x2="374.01" y2="170.27" gradientTransform="matrix(1, 0, 0, -1, 0, 492.66)" xlink:href="#New_Gradient_Swatch_5"/><linearGradient id="New_Gradient_Swatch_5-76" x1="347.99" y1="108.32" x2="377.74" y2="108.32" gradientTransform="matrix(1, 0, 0, -1, 0, 492.66)" xlink:href="#New_Gradient_Swatch_5"/><clipPath id="clip-path-9" transform="translate(0 0.9)"><polygon id="SVGID-9" data-name="SVGID" class="cls-19" points="377.74 379 377.74 354.93 347.99 387.37 347.99 411.94 377.74 379"/></clipPath><linearGradient id="New_Gradient_Swatch_5-78" x1="347.99" y1="108.33" x2="377.74" y2="108.33" gradientTransform="matrix(1, 0, 0, -1, 0, 492.66)" xlink:href="#New_Gradient_Swatch_5"/><linearGradient id="New_Gradient_Swatch_5-79" x1="347.09" y1="108.6" x2="383.47" y2="108.6" gradientTransform="matrix(1, 0, 0, -1, 0, 492.66)" xlink:href="#New_Gradient_Swatch_5"/><linearGradient id="New_Gradient_Swatch_5-80" x1="350.18" y1="107.69" x2="373.6" y2="107.69" gradientTransform="matrix(1, 0, 0, -1, 0, 492.66)" xlink:href="#New_Gradient_Swatch_5"/><linearGradient id="New_Gradient_Swatch_5-81" x1="347.99" y1="78.18" x2="377.74" y2="78.18" gradientTransform="matrix(1, 0, 0, -1, 0, 492.66)" xlink:href="#New_Gradient_Swatch_5"/><clipPath id="clip-path-10" transform="translate(0 0.9)"><polygon id="SVGID-10" data-name="SVGID" class="cls-20" points="347.99 416.73 347.99 443.37 377.74 410.43 377.74 383.79 347.99 416.73"/></clipPath><linearGradient id="New_Gradient_Swatch_5-84" x1="347.09" y1="78.18" x2="378.64" y2="78.18" gradientTransform="matrix(1, 0, 0, -1, 0, 492.66)" xlink:href="#New_Gradient_Swatch_5"/><linearGradient id="New_Gradient_Swatch_5-85" x1="349.77" y1="77.51" x2="374.01" y2="77.51" gradientTransform="matrix(1, 0, 0, -1, 0, 492.66)" xlink:href="#New_Gradient_Swatch_5"/><linearGradient id="New_Gradient_Swatch_5-86" x1="347.99" y1="46.75" x2="377.74" y2="46.75" gradientTransform="matrix(1, 0, 0, -1, 0, 492.66)" xlink:href="#New_Gradient_Swatch_5"/><clipPath id="clip-path-11" transform="translate(0 0.9)"><polygon id="SVGID-11" data-name="SVGID" class="cls-3" points="347.99 448.16 347.99 474.8 377.74 441.86 377.74 415.22 347.99 448.16"/></clipPath><linearGradient id="New_Gradient_Swatch_5-89" x1="347.09" y1="46.75" x2="378.64" y2="46.75" gradientTransform="matrix(1, 0, 0, -1, 0, 492.66)" xlink:href="#New_Gradient_Swatch_5"/><linearGradient id="New_Gradient_Swatch_5-90" x1="349.77" y1="46.08" x2="374.01" y2="46.08" gradientTransform="matrix(1, 0, 0, -1, 0, 492.66)" xlink:href="#New_Gradient_Swatch_5"/><linearGradient id="New_Gradient_Swatch_5-91" x1="208.53" y1="5.96" x2="218.75" y2="5.96" gradientTransform="matrix(1, 0, 0, -1, 0, 492.66)" xlink:href="#New_Gradient_Swatch_5"/><clipPath id="clip-path-12" transform="translate(0 0.9)"><path id="SVGID-12" data-name="SVGID" class="cls-4" d="M213.64,481.59a5.11,5.11,0,1,1-5.11,5.11h0a5.1,5.1,0,0,1,5.09-5.11Z"/></clipPath><linearGradient id="New_Gradient_Swatch_5-93" x1="208.53" y1="5.06" x2="218.75" y2="5.06" gradientTransform="matrix(1, 0, 0, -1, 0, 492.66)" xlink:href="#New_Gradient_Swatch_5"/><linearGradient id="New_Gradient_Swatch_5-94" x1="208.53" y1="5.96" x2="218.74" y2="5.96" gradientTransform="matrix(1, 0, 0, -1, 0, 492.66)" xlink:href="#New_Gradient_Swatch_5"/><linearGradient id="New_Gradient_Swatch_5-95" x1="211.08" y1="5.96" x2="216.19" y2="5.96" gradientTransform="matrix(1, 0, 0, -1, 0, 492.66)" xlink:href="#New_Gradient_Swatch_5"/><linearGradient id="New_Gradient_Swatch_5-96" x1="243.38" y1="464.26" x2="253.6" y2="464.26" gradientTransform="matrix(1, 0, 0, -1, 0, 492.66)" xlink:href="#New_Gradient_Swatch_5"/><clipPath id="clip-path-13" transform="translate(0 0.9)"><path id="SVGID-13" data-name="SVGID" class="cls-5" d="M248.49,23.29a5.11,5.11,0,1,1-5.11,5.11h0a5.1,5.1,0,0,1,5.1-5.1Z"/></clipPath><linearGradient id="New_Gradient_Swatch_5-98" x1="243.38" y1="463.36" x2="253.6" y2="463.36" gradientTransform="matrix(1, 0, 0, -1, 0, 492.66)" xlink:href="#New_Gradient_Swatch_5"/><linearGradient id="New_Gradient_Swatch_5-99" x1="243.38" y1="464.27" x2="253.6" y2="464.27" gradientTransform="matrix(1, 0, 0, -1, 0, 492.66)" xlink:href="#New_Gradient_Swatch_5"/><linearGradient id="New_Gradient_Swatch_5-100" x1="245.94" y1="464.27" x2="251.04" y2="464.27" gradientTransform="matrix(1, 0, 0, -1, 0, 492.66)" xlink:href="#New_Gradient_Swatch_5"/><linearGradient id="New_Gradient_Swatch_5-101" x1="0" y1="180.38" x2="92.85" y2="180.38" gradientTransform="matrix(1, 0, 0, -1, 0, 492.66)" xlink:href="#New_Gradient_Swatch_5"/><linearGradient id="New_Gradient_Swatch_5-102" x1="278.54" y1="457.99" x2="397.52" y2="457.99" gradientTransform="matrix(1, 0, 0, -1, 0, 492.66)" xlink:href="#New_Gradient_Swatch_5"/><linearGradient id="New_Gradient_Swatch_5-103" x1="275.83" y1="189.31" x2="343.39" y2="189.31" gradientTransform="matrix(1, 0, 0, -1, 0, 492.66)" xlink:href="#New_Gradient_Swatch_5"/><linearGradient id="New_Gradient_Swatch_5-104" x1="28.86" y1="436.58" x2="128.9" y2="436.58" gradientTransform="matrix(1, 0, 0, -1, 0, 492.66)" xlink:href="#New_Gradient_Swatch_5"/><linearGradient id="New_Gradient_Swatch_5-105" x1="20.28" y1="438.26" x2="74.82" y2="438.26" gradientTransform="matrix(1, 0, 0, -1, 0, 492.66)" xlink:href="#New_Gradient_Swatch_5"/><clipPath id="clip-path-14" transform="translate(0 0.9)"><polygon id="SVGID-14" data-name="SVGID" class="cls-6" points="74.82 0 74.82 0.9 21.18 0.9 21.18 85.9 33.74 106.53 32.97 107 20.28 86.16 20.28 0 74.82 0"/></clipPath><linearGradient id="New_Gradient_Swatch_5-108" x1="19.38" y1="438.26" x2="75.72" y2="438.26" gradientTransform="matrix(1, 0, 0, -1, 0, 492.66)" xlink:href="#New_Gradient_Swatch_5"/><linearGradient id="New_Gradient_Swatch_5-109" x1="15.64" y1="454.75" x2="79.46" y2="454.75" gradientTransform="matrix(1, 0, 0, -1, 0, 492.66)" xlink:href="#New_Gradient_Swatch_5"/><linearGradient id="New_Gradient_Swatch_5-110" x1="11.27" y1="198.86" x2="22.99" y2="198.86" gradientTransform="matrix(1, 0, 0, -1, 0, 492.66)" xlink:href="#New_Gradient_Swatch_5"/><clipPath id="clip-path-15" transform="translate(0 0.9)"><polygon id="SVGID-15" data-name="SVGID" class="cls-7" points="22.99 214.47 22.99 333.63 12.17 346.25 12.17 371.32 11.27 371.32 11.27 345.91 22.08 333.29 22.08 214.47 22.99 214.47"/></clipPath><linearGradient id="New_Gradient_Swatch_5-112" x1="11.27" y1="198.87" x2="22.99" y2="198.87" gradientTransform="matrix(1, 0, 0, -1, 0, 492.66)" xlink:href="#New_Gradient_Swatch_5"/><linearGradient id="New_Gradient_Swatch_5-113" x1="10.37" y1="198.87" x2="23.89" y2="198.87" gradientTransform="matrix(1, 0, 0, -1, 0, 492.66)" xlink:href="#New_Gradient_Swatch_5"/><linearGradient id="New_Gradient_Swatch_5-114" x1="6.3" y1="199.77" x2="27.95" y2="199.77" gradientTransform="matrix(1, 0, 0, -1, 0, 492.66)" xlink:href="#New_Gradient_Swatch_5"/><linearGradient id="New_Gradient_Swatch_5-115" x1="215.44" y1="19.37" x2="381" y2="19.37" gradientTransform="matrix(1, 0, 0, -1, 0, 492.66)" xlink:href="#New_Gradient_Swatch_5"/><clipPath id="clip-path-16" transform="translate(0 0.9)"><polygon id="SVGID-16" data-name="SVGID" class="cls-8" points="381 458.52 349.2 487.6 215.44 487.6 215.44 485.8 348.5 485.8 379.79 457.19 381 458.52"/></clipPath><linearGradient id="New_Gradient_Swatch_5-117" x1="215.44" y1="19.37" x2="381.01" y2="19.37" gradientTransform="matrix(1, 0, 0, -1, 0, 492.66)" xlink:href="#New_Gradient_Swatch_5"/><linearGradient id="New_Gradient_Swatch_5-118" x1="238.71" y1="20.26" x2="357.74" y2="20.26" gradientTransform="matrix(1, 0, 0, -1, 0, 492.66)" xlink:href="#New_Gradient_Swatch_5"/><linearGradient id="New_Gradient_Swatch_5-119" x1="268.46" y1="20.27" x2="328" y2="20.27" gradientTransform="matrix(1, 0, 0, -1, 0, 492.66)" xlink:href="#New_Gradient_Swatch_5"/><linearGradient id="New_Gradient_Swatch_5-120" x1="116.58" y1="467.76" x2="246.09" y2="467.76" gradientTransform="matrix(1, 0, 0, -1, 0, 492.66)" xlink:href="#New_Gradient_Swatch_5"/><clipPath id="clip-path-17" transform="translate(0 0.9)"><polygon id="SVGID-17" data-name="SVGID" class="cls-9" points="246.09 27.49 246.09 29.3 126.75 29.3 116.58 20.05 117.79 18.71 127.45 27.49 246.09 27.49"/></clipPath><linearGradient id="New_Gradient_Swatch_5-122" x1="116.58" y1="467.76" x2="246.09" y2="467.76" gradientTransform="matrix(1, 0, 0, -1, 0, 492.66)" xlink:href="#New_Gradient_Swatch_5"/><linearGradient id="New_Gradient_Swatch_5-123" x1="135.39" y1="468.66" x2="227.27" y2="468.66" gradientTransform="matrix(1, 0, 0, -1, 0, 492.66)" xlink:href="#New_Gradient_Swatch_5"/><linearGradient id="New_Gradient_Swatch_5-124" x1="158.37" y1="468.66" x2="204.3" y2="468.66" gradientTransform="matrix(1, 0, 0, -1, 0, 492.66)" xlink:href="#New_Gradient_Swatch_5"/><linearGradient id="New_Gradient_Swatch_5-125" x1="315.95" y1="311.66" x2="368.23" y2="311.66" gradientTransform="matrix(1, 0, 0, -1, 0, 492.66)" xlink:href="#New_Gradient_Swatch_5"/><clipPath id="clip-path-18" transform="translate(0 0.9)"><polygon id="SVGID-18" data-name="SVGID" class="cls-10" points="368.23 31.95 368.23 93.87 325.86 137.13 325.86 194.79 316.85 207.41 316.85 310.81 325.81 327.84 325.01 328.26 315.95 311.04 315.95 207.12 324.96 194.5 324.96 136.77 367.33 93.5 367.33 31.95 368.23 31.95"/></clipPath><linearGradient id="New_Gradient_Swatch_5-128" x1="315.04" y1="311.66" x2="369.13" y2="311.66" gradientTransform="matrix(1, 0, 0, -1, 0, 492.66)" xlink:href="#New_Gradient_Swatch_5"/><linearGradient id="New_Gradient_Swatch_5-129" x1="310.2" y1="312.56" x2="373.93" y2="312.56" gradientTransform="matrix(1, 0, 0, -1, 0, 492.66)" xlink:href="#New_Gradient_Swatch_5"/><linearGradient id="New_Gradient_Swatch_5-130" x1="77.29" y1="453.42" x2="234.37" y2="453.42" gradientTransform="matrix(1, 0, 0, -1, 0, 492.66)" xlink:href="#New_Gradient_Swatch_5"/><clipPath id="clip-path-19" transform="translate(0 0.9)"><polygon id="SVGID-19" data-name="SVGID" class="cls-11" points="234.37 45.97 234.37 46.87 104.44 46.87 77.29 30.58 77.75 29.81 104.69 45.97 234.37 45.97"/></clipPath><linearGradient id="New_Gradient_Swatch_5-133" x1="100" y1="454.32" x2="211.69" y2="454.32" gradientTransform="matrix(1, 0, 0, -1, 0, 492.66)" xlink:href="#New_Gradient_Swatch_5"/><linearGradient id="New_Gradient_Swatch_5-134" x1="127.9" y1="454.3" x2="183.76" y2="454.3" gradientTransform="matrix(1, 0, 0, -1, 0, 492.66)" xlink:href="#New_Gradient_Swatch_5"/><linearGradient id="New_Gradient_Swatch_5-135" x1="45.97" y1="85.06" x2="109.97" y2="85.06" gradientTransform="matrix(1, 0, 0, -1, 0, 492.66)" xlink:href="#New_Gradient_Swatch_5"/><clipPath id="clip-path-20" transform="translate(0 0.9)"><polygon id="SVGID-20" data-name="SVGID" class="cls-12" points="109.97 466.42 109.97 467.32 45.97 467.32 51.83 459.51 51.83 346.08 52.73 346.08 52.73 459.81 47.77 466.42 109.97 466.42"/></clipPath><linearGradient id="New_Gradient_Swatch_5-138" x1="45.07" y1="85.06" x2="110.87" y2="85.06" gradientTransform="matrix(1, 0, 0, -1, 0, 492.66)" xlink:href="#New_Gradient_Swatch_5"/><linearGradient id="New_Gradient_Swatch_5-139" x1="53.73" y1="85.06" x2="102.21" y2="85.06" gradientTransform="matrix(1, 0, 0, -1, 0, 492.66)" xlink:href="#New_Gradient_Swatch_5"/></defs><title>message_11_green_blue</title><g id="Layer_2" data-name="Layer 2"><g id="Layer_1-2" data-name="Layer 1"><g id="Layer_2-2" data-name="Layer 2"><g id="Layer_1-2-2" data-name="Layer 1-2"><polygon class="cls-21" points="89.43 10.84 28.86 10.84 28.86 82.3 42.07 103.13 42.07 459.16 28.86 474.26 28.86 474.55 340.87 474.55 340.87 134.67 376.81 98.73 376.81 10.84 371.14 10.84 335.46 39.19 124.54 39.19 89.43 10.84"/><path class="cls-22" d="M377.71,9V98.21l-35.94,35.93V474.55H28V473l13.21-15.1V102.49L28,81.66V9H89.75l35.11,28.36H335.15L370.83,9ZM375.9,97.46V10.84h-4.44L335.78,39.19H124.23L89.12,10.84H29.76v70.3L43,102V458.6L30.59,472.75H340V133.39Z" transform="translate(0 0.9)"/><g class="cls-23"><polygon id="SVGID-34" class="cls-24" points="377.74 131.54 377.74 107.46 347.99 139.9 347.99 164.47 377.74 131.54"/><polygon id="SVGID-34-2" data-name="SVGID" class="cls-1" points="377.74 131.53 377.74 107.46 347.99 139.9 347.99 164.47 377.74 131.53"/><g class="cls-25"><rect class="cls-24" x="347.99" y="107.46" width="29.75" height="57.01"/><path class="cls-26" d="M378.64,135.7V153h4.83a57.16,57.16,0,0,1-5,14.13v-2.67H347.09v-58.8h31.36v-1.39a57.16,57.16,0,0,1,5,14.13h-4.83Z" transform="translate(0 0.9)"/><ellipse class="cls-27" cx="361.89" cy="136.6" rx="11.71" ry="22.23"/></g></g><g class="cls-28"><polygon id="SVGID-35" class="cls-29" points="347.99 169.26 347.99 195.9 377.74 162.96 377.74 136.32 347.99 169.26"/><polygon id="SVGID-35-2" data-name="SVGID" class="cls-2" points="347.99 169.26 347.99 195.9 377.74 162.96 377.74 136.32 347.99 169.26"/><g class="cls-30"><rect class="cls-29" x="347.99" y="136.32" width="29.75" height="59.58"/><polygon class="cls-31" points="378.64 166.78 378.64 196.8 347.09 196.8 347.09 135.42 378.64 135.42 378.64 166.78"/><ellipse class="cls-32" cx="361.89" cy="166.78" rx="12.12" ry="23.01"/></g></g><g class="cls-33"><polygon id="SVGID-36" class="cls-34" points="347.99 232.12 347.99 258.76 377.74 225.82 377.74 199.18 347.99 232.12"/><polygon id="SVGID-36-2" data-name="SVGID" class="cls-13" points="347.99 232.11 347.99 258.76 377.74 225.82 377.74 199.18 347.99 232.11"/><g class="cls-35"><rect class="cls-34" x="347.99" y="199.18" width="29.75" height="59.58"/><polygon class="cls-36" points="378.64 229.63 378.64 259.66 347.09 259.66 347.09 198.28 378.64 198.28 378.64 229.63"/><path class="cls-37" d="M374,228.73c0,12.71-5.43,23-12.12,23s-12.12-10.3-12.12-23,5.42-23,12.12-23S374,216,374,228.73Z" transform="translate(0 0.9)"/></g></g><g class="cls-38"><polygon id="SVGID-37" class="cls-39" points="347.99 200.69 347.99 227.33 377.74 194.39 377.74 167.75 347.99 200.69"/><polygon id="SVGID-37-2" data-name="SVGID" class="cls-14" points="347.99 200.68 347.99 227.33 377.74 194.39 377.74 167.75 347.99 200.68"/><g class="cls-40"><rect class="cls-39" x="347.99" y="167.75" width="29.75" height="59.58"/><polygon class="cls-41" points="378.64 198.21 378.64 228.23 347.09 228.23 347.09 166.85 378.64 166.85 378.64 198.21"/><ellipse class="cls-42" cx="361.89" cy="198.2" rx="12.12" ry="23.01"/></g></g><g class="cls-33"><polygon id="SVGID-38" class="cls-43" points="377.74 255.72 377.74 231.65 347.99 264.08 347.99 288.66 377.74 255.72"/><polygon id="SVGID-38-2" data-name="SVGID" class="cls-15" points="377.74 255.72 377.74 231.64 347.99 264.08 347.99 288.66 377.74 255.72"/><g class="cls-44"><rect class="cls-43" x="347.99" y="231.65" width="29.75" height="57.01"/><path class="cls-45" d="M378.64,259.89v17.3h4.83a57.16,57.16,0,0,1-5,14.13v-2.66H347.09V229.84h31.36v-1.39a57.16,57.16,0,0,1,5,14.13h-4.83Z" transform="translate(0 0.9)"/><ellipse class="cls-46" cx="361.89" cy="260.79" rx="11.71" ry="22.23"/></g></g><g class="cls-47"><polygon id="SVGID-39" class="cls-48" points="347.99 293.44 347.99 320.09 377.74 287.15 377.74 260.5 347.99 293.44"/><polygon id="SVGID-39-2" data-name="SVGID" class="cls-16" points="347.99 293.44 347.99 320.09 377.74 287.15 377.74 260.5 347.99 293.44"/><g class="cls-49"><rect class="cls-50" x="347.99" y="260.51" width="29.75" height="59.58"/><polygon class="cls-51" points="378.64 290.96 378.64 320.99 347.09 320.99 347.09 259.6 378.64 259.6 378.64 290.96"/><ellipse class="cls-52" cx="361.89" cy="290.96" rx="12.12" ry="23.01"/></g></g><g class="cls-53"><polygon id="SVGID-40" class="cls-54" points="347.99 356.3 347.99 382.94 377.74 350.01 377.74 323.36 347.99 356.3"/><polygon id="SVGID-40-2" data-name="SVGID" class="cls-17" points="347.99 356.3 347.99 382.94 377.74 350.01 377.74 323.36 347.99 356.3"/><g class="cls-55"><rect class="cls-54" x="347.99" y="323.36" width="29.75" height="59.58"/><polygon class="cls-56" points="378.64 353.82 378.64 383.85 347.09 383.85 347.09 322.46 378.64 322.46 378.64 353.82"/><path class="cls-57" d="M374,352.92c0,12.7-5.43,23-12.12,23s-12.12-10.3-12.12-23,5.42-23,12.12-23S374,340.21,374,352.92Z" transform="translate(0 0.9)"/></g></g><g class="cls-58"><polygon id="SVGID-41" class="cls-59" points="347.99 324.87 347.99 351.52 377.74 318.58 377.74 291.93 347.99 324.87"/><polygon id="SVGID-41-2" data-name="SVGID" class="cls-18" points="347.99 324.87 347.99 351.52 377.74 318.58 377.74 291.93 347.99 324.87"/><g class="cls-60"><rect class="cls-61" x="347.99" y="291.93" width="29.75" height="59.58"/><polygon class="cls-62" points="378.64 322.39 378.64 352.42 347.09 352.42 347.09 291.03 378.64 291.03 378.64 322.39"/><ellipse class="cls-63" cx="361.89" cy="322.39" rx="12.12" ry="23.01"/></g></g><g class="cls-64"><polygon id="SVGID-42" class="cls-65" points="377.74 379.91 377.74 355.83 347.99 388.27 347.99 412.85 377.74 379.91"/><polygon id="SVGID-42-2" data-name="SVGID" class="cls-19" points="377.74 379.9 377.74 355.83 347.99 388.27 347.99 412.84 377.74 379.9"/><g class="cls-66"><rect class="cls-67" x="347.99" y="355.83" width="29.75" height="57.01"/><path class="cls-68" d="M378.64,384.07v17.31h4.83a57.16,57.16,0,0,1-5,14.13v-2.66H347.09V354h31.36v-1.39a57.16,57.16,0,0,1,5,14.13h-4.83Z" transform="translate(0 0.9)"/><ellipse class="cls-69" cx="361.89" cy="384.97" rx="11.71" ry="22.23"/></g></g><g class="cls-70"><polygon id="SVGID-43" class="cls-71" points="347.99 417.63 347.99 444.27 377.74 411.33 377.74 384.69 347.99 417.63"/><polygon id="SVGID-43-2" data-name="SVGID" class="cls-20" points="347.99 417.63 347.99 444.27 377.74 411.33 377.74 384.69 347.99 417.63"/><g class="cls-72"><rect class="cls-71" x="347.99" y="384.69" width="29.75" height="59.58"/><polygon class="cls-73" points="378.64 415.15 378.64 445.18 347.09 445.18 347.09 383.79 378.64 383.79 378.64 415.15"/><ellipse class="cls-74" cx="361.89" cy="415.15" rx="12.12" ry="23.01"/></g></g><polygon id="SVGID-44" class="cls-75" points="347.99 449.06 347.99 475.7 377.74 442.76 377.74 416.12 347.99 449.06"/><polygon id="SVGID-44-2" data-name="SVGID" class="cls-3" points="347.99 449.06 347.99 475.7 377.74 442.76 377.74 416.12 347.99 449.06"/><g class="cls-76"><rect class="cls-75" x="347.99" y="416.12" width="29.75" height="59.58"/><polygon class="cls-77" points="378.64 446.58 378.64 476.6 347.09 476.6 347.09 415.22 378.64 415.22 378.64 446.58"/><ellipse class="cls-78" cx="361.89" cy="446.58" rx="12.12" ry="23.01"/></g><path id="SVGID-45" class="cls-79" d="M213.64,481.59a5.11,5.11,0,1,1-5.11,5.11h0a5.1,5.1,0,0,1,5.09-5.11Z" transform="translate(0 0.9)"/><path id="SVGID-45-2" data-name="SVGID" class="cls-4" d="M213.64,481.59a5.11,5.11,0,1,1-5.11,5.11h0a5.1,5.1,0,0,1,5.09-5.11Z" transform="translate(0 0.9)"/><g class="cls-80"><rect class="cls-81" x="208.53" y="482.49" width="10.22" height="10.22"/><path class="cls-82" d="M218.74,486.7c0,5.32-2.28,9.63-5.1,9.63s-5.11-4.31-5.11-9.63,2.28-9.63,5.11-9.63S218.74,481.38,218.74,486.7Z" transform="translate(0 0.9)"/><path class="cls-83" d="M216.19,486.7c0,2.66-1.14,4.82-2.55,4.82s-2.56-2.16-2.56-4.82,1.14-4.82,2.56-4.82S216.19,484,216.19,486.7Z" transform="translate(0 0.9)"/></g><path id="SVGID-46" class="cls-84" d="M248.49,23.29a5.11,5.11,0,1,1-5.11,5.11h0a5.1,5.1,0,0,1,5.1-5.1Z" transform="translate(0 0.9)"/><path id="SVGID-46-2" data-name="SVGID" class="cls-5" d="M248.49,23.29a5.11,5.11,0,1,1-5.11,5.11h0a5.1,5.1,0,0,1,5.1-5.1Z" transform="translate(0 0.9)"/><g class="cls-85"><rect class="cls-86" x="243.38" y="24.19" width="10.22" height="10.22"/><path class="cls-87" d="M253.6,28.39c0,5.32-2.29,9.64-5.11,9.64s-5.11-4.32-5.11-9.64,2.29-9.63,5.11-9.63S253.6,23.08,253.6,28.39Z" transform="translate(0 0.9)"/><path class="cls-88" d="M251,28.39c0,2.66-1.14,4.82-2.55,4.82s-2.55-2.16-2.55-4.82,1.14-4.81,2.55-4.81S251,25.74,251,28.39Z" transform="translate(0 0.9)"/></g><polygon class="cls-89" points="92.85 474.98 92.85 483.1 0 483.1 26.14 457.86 18.93 442.53 18.93 350.59 27.94 341.57 27.94 163.09 42.37 141.46 42.37 459.16 28.86 474.26 92.85 474.98"/><polygon class="cls-90" points="278.54 39.21 285.75 32 325.41 32 369.58 1.35 397.52 1.35 397.52 20.23 386.71 31.95 386.71 58.09 377.69 68 377.69 10.84 371.14 10.84 335.46 39.19 278.54 39.21"/><polygon class="cls-91" points="331.72 142.36 331.72 200.95 324.51 210.87 324.51 310.02 331.72 326.25 331.72 465.07 275.83 465.07 275.83 474.08 278.46 474.55 340.87 474.55 340.87 134.67 343.39 132.15 331.72 142.36"/><path class="cls-92" d="M89.43,9.93H28.86V81.4l13.21,20.83v-18l-4.21-9.92V21.18H84.73l24.34,18H128.9s-.06-.33-.16-.92h-4.2Z" transform="translate(0 0.9)"/><polygon id="SVGID-47" class="cls-93" points="74.82 0.9 74.82 1.8 21.18 1.8 21.18 86.81 33.74 107.43 32.97 107.9 20.28 87.06 20.28 0.9 74.82 0.9"/><polygon id="SVGID-47-2" data-name="SVGID" class="cls-6" points="74.82 0.9 74.82 1.8 21.18 1.8 21.18 86.8 33.74 107.43 32.97 107.9 20.28 87.06 20.28 0.9 74.82 0.9"/><g class="cls-94"><rect class="cls-93" x="20.28" y="0.9" width="54.54" height="107"/><polygon class="cls-95" points="75.72 2.54 75.72 105.14 75.72 108.8 19.38 108.8 19.38 0 75.72 0 75.72 2.54"/><path class="cls-96" d="M75.72,1.64V42.2h3.74a82,82,0,0,1-4.7,10.74c-7,13.13-16.59,21.25-27.21,21.25S27.31,66.07,20.34,52.94a82,82,0,0,1-4.7-10.74h3.74V64.79H15.64a82.46,82.46,0,0,1,4.7-10.73c7-13.13,16.58-21.25,27.21-21.25s20.24,8.12,27.21,21.25a82.46,82.46,0,0,1,4.7,10.73H75.72Z" transform="translate(0 0.9)"/></g><polygon id="SVGID-48" class="cls-97" points="22.99 215.38 22.99 334.53 12.17 347.15 12.17 372.22 11.27 372.22 11.27 346.81 22.08 334.19 22.08 215.38 22.99 215.38"/><polygon id="SVGID-48-2" data-name="SVGID" class="cls-7" points="22.99 215.37 22.99 334.53 12.17 347.15 12.17 372.22 11.27 372.22 11.27 346.81 22.08 334.19 22.08 215.37 22.99 215.37"/><g class="cls-98"><rect class="cls-99" x="11.27" y="215.37" width="11.72" height="156.85"/><polygon class="cls-100" points="23.89 293.8 23.89 367.94 23.89 373.12 10.37 373.12 10.37 214.47 23.89 214.47 23.89 293.8"/><path class="cls-101" d="M23.89,292.9v48.3H28a17.27,17.27,0,0,1-10.82,4.12A17.26,17.26,0,0,1,6.3,341.2h4.07V244.59H6.3a17.29,17.29,0,0,1,10.83-4.12A17.29,17.29,0,0,1,28,244.59H23.89Z" transform="translate(0 0.9)"/></g><polygon id="SVGID-49" class="cls-102" points="381 459.42 349.2 488.5 215.44 488.5 215.44 486.7 348.5 486.7 379.79 458.09 381 459.42"/><polygon id="SVGID-49-2" data-name="SVGID" class="cls-8" points="381 459.42 349.2 488.5 215.44 488.5 215.44 486.7 348.5 486.7 379.79 458.09 381 459.42"/><g class="cls-103"><rect class="cls-104" x="215.44" y="458.09" width="165.57" height="30.41"/><path class="cls-105" d="M357.74,472.4c0,3.87-.11,7.7-.31,11.47q-.15,2.83-.38,5.62v-1H239.39v1c-.15-1.86-.27-3.73-.38-5.62-.2-3.77-.3-7.6-.3-11.47s.1-7.71.3-11.48c.1-1.88.23-3.76.38-5.61v1H357.05v-1c.15,1.85.28,3.73.38,5.61C357.63,464.69,357.74,468.52,357.74,472.4Z" transform="translate(0 0.9)"/><path class="cls-106" d="M328,472.4a100.25,100.25,0,0,1-2.34,21.84V488.5H270.8v5.74a103.14,103.14,0,0,1,0-43.69v5.74h54.84v-5.74A99.68,99.68,0,0,1,328,472.4Z" transform="translate(0 0.9)"/></g><polygon id="SVGID-50" class="cls-107" points="246.09 28.39 246.09 30.2 126.75 30.2 116.58 20.95 117.79 19.61 127.45 28.39 246.09 28.39"/><polygon id="SVGID-50-2" data-name="SVGID" class="cls-9" points="246.09 28.39 246.09 30.2 126.75 30.2 116.58 20.95 117.79 19.61 127.45 28.39 246.09 28.39"/><g class="cls-108"><rect class="cls-109" x="116.58" y="19.61" width="129.51" height="10.58"/><path class="cls-110" d="M227.27,24q0,4.5-.23,8.86V30.2H135.63v2.66c-.16-2.91-.24-5.87-.24-8.86s.08-5.94.24-8.85v2.66H227V15.15Q227.27,19.51,227.27,24Z" transform="translate(0 0.9)"/><path class="cls-111" d="M204.3,24a82.07,82.07,0,0,1-.46,8.73V30.2h-45v2.53a80.79,80.79,0,0,1,0-17.45v2.53h45V15.28A82,82,0,0,1,204.3,24Z" transform="translate(0 0.9)"/></g><polygon id="SVGID-51" class="cls-112" points="368.23 32.85 368.23 94.77 325.86 138.04 325.86 195.69 316.85 208.31 316.85 311.71 325.81 328.74 325.01 329.16 315.95 311.94 315.95 208.02 324.96 195.4 324.96 137.67 367.33 94.4 367.33 32.85 368.23 32.85"/><polygon id="SVGID-51-2" data-name="SVGID" class="cls-10" points="368.23 32.85 368.23 94.77 325.86 138.03 325.86 195.69 316.85 208.31 316.85 311.71 325.81 328.74 325.01 329.16 315.95 311.94 315.95 208.02 324.96 195.4 324.96 137.67 367.33 94.4 367.33 32.85 368.23 32.85"/><g class="cls-113"><rect class="cls-112" x="315.95" y="32.85" width="52.28" height="296.31"/><polygon class="cls-114" points="369.13 142.01 369.13 320.17 369.13 330.06 315.04 330.06 315.04 31.95 369.13 31.95 369.13 142.01"/><path class="cls-115" d="M369.13,141.11V251.88h4.8a65.19,65.19,0,0,1-5.84,5.31c-8,6.37-16.78,9.9-26,9.9s-18-3.53-26-9.9a65.19,65.19,0,0,1-5.84-5.31H315V108.32h-4.8A61.09,61.09,0,0,1,316,103c8-6.38,16.78-9.9,26-9.9s18,3.52,26,9.9a61.09,61.09,0,0,1,5.84,5.3h-4.8Z" transform="translate(0 0.9)"/></g><polygon id="SVGID-52" class="cls-116" points="234.37 46.87 234.37 47.77 104.44 47.77 77.29 31.48 77.75 30.71 104.69 46.87 234.37 46.87"/><polygon id="SVGID-52-2" data-name="SVGID" class="cls-11" points="234.37 46.87 234.37 47.77 104.44 47.77 77.29 31.48 77.75 30.71 104.69 46.87 234.37 46.87"/><g class="cls-117"><rect class="cls-116" x="77.29" y="30.71" width="157.08" height="17.06"/><path class="cls-118" d="M211.69,38.34q0,5.46-.29,10.77V47.77H100.25v1.34Q100,43.8,100,38.34c0-3.63.09-7.23.28-10.77v1.34H211.4V27.57C211.59,31.11,211.69,34.71,211.69,38.34Z" transform="translate(0 0.9)"/><path class="cls-119" d="M183.76,38.34A99.9,99.9,0,0,1,183.19,49V47.77H128.47V49a99.13,99.13,0,0,1,0-21.23V29h54.72V27.73A99,99,0,0,1,183.76,38.34Z" transform="translate(0 0.9)"/></g><polygon id="SVGID-53" class="cls-120" points="109.97 467.32 109.97 468.22 45.97 468.22 51.83 460.41 51.83 346.98 52.73 346.98 52.73 460.71 47.77 467.32 109.97 467.32"/><polygon id="SVGID-53-2" data-name="SVGID" class="cls-12" points="109.97 467.32 109.97 468.22 45.97 468.22 51.83 460.41 51.83 346.98 52.73 346.98 52.73 460.71 47.77 467.32 109.97 467.32"/><g class="cls-121"><rect class="cls-120" x="45.97" y="346.98" width="64" height="121.24"/><polygon class="cls-122" points="110.87 407.6 110.87 469.12 45.07 469.12 45.07 346.08 110.87 346.08 110.87 407.6"/><ellipse class="cls-123" cx="77.97" cy="407.6" rx="24.24" ry="45.7"/></g><g class="cls-23"><polygon id="SVGID-54" class="cls-24" points="377.74 131.54 377.74 107.46 347.99 139.9 347.99 164.47 377.74 131.54"/><polygon id="SVGID-54-2" data-name="SVGID" class="cls-1" points="377.74 131.53 377.74 107.46 347.99 139.9 347.99 164.47 377.74 131.53"/><g class="cls-25"><rect class="cls-24" x="347.99" y="107.46" width="29.75" height="57.01"/><path class="cls-26" d="M378.64,135.7V153h4.83a57.16,57.16,0,0,1-5,14.13v-2.67H347.09v-58.8h31.36v-1.39a57.16,57.16,0,0,1,5,14.13h-4.83Z" transform="translate(0 0.9)"/><ellipse class="cls-27" cx="361.89" cy="136.6" rx="11.71" ry="22.23"/></g></g><g class="cls-28"><polygon id="SVGID-55" class="cls-29" points="347.99 169.26 347.99 195.9 377.74 162.96 377.74 136.32 347.99 169.26"/><polygon id="SVGID-55-2" data-name="SVGID" class="cls-2" points="347.99 169.26 347.99 195.9 377.74 162.96 377.74 136.32 347.99 169.26"/><g class="cls-30"><rect class="cls-29" x="347.99" y="136.32" width="29.75" height="59.58"/><polygon class="cls-31" points="378.64 166.78 378.64 196.8 347.09 196.8 347.09 135.42 378.64 135.42 378.64 166.78"/><ellipse class="cls-32" cx="361.89" cy="166.78" rx="12.12" ry="23.01"/></g></g><g class="cls-33"><polygon id="SVGID-56" class="cls-34" points="347.99 232.12 347.99 258.76 377.74 225.82 377.74 199.18 347.99 232.12"/><polygon id="SVGID-56-2" data-name="SVGID" class="cls-13" points="347.99 232.11 347.99 258.76 377.74 225.82 377.74 199.18 347.99 232.11"/><g class="cls-35"><rect class="cls-34" x="347.99" y="199.18" width="29.75" height="59.58"/><polygon class="cls-36" points="378.64 229.63 378.64 259.66 347.09 259.66 347.09 198.28 378.64 198.28 378.64 229.63"/><path class="cls-37" d="M374,228.73c0,12.71-5.43,23-12.12,23s-12.12-10.3-12.12-23,5.42-23,12.12-23S374,216,374,228.73Z" transform="translate(0 0.9)"/></g></g><g class="cls-38"><polygon id="SVGID-57" class="cls-39" points="347.99 200.69 347.99 227.33 377.74 194.39 377.74 167.75 347.99 200.69"/><polygon id="SVGID-57-2" data-name="SVGID" class="cls-14" points="347.99 200.68 347.99 227.33 377.74 194.39 377.74 167.75 347.99 200.68"/><g class="cls-40"><rect class="cls-39" x="347.99" y="167.75" width="29.75" height="59.58"/><polygon class="cls-41" points="378.64 198.21 378.64 228.23 347.09 228.23 347.09 166.85 378.64 166.85 378.64 198.21"/><ellipse class="cls-42" cx="361.89" cy="198.2" rx="12.12" ry="23.01"/></g></g><g class="cls-33"><polygon id="SVGID-58" class="cls-43" points="377.74 255.72 377.74 231.65 347.99 264.08 347.99 288.66 377.74 255.72"/><polygon id="SVGID-58-2" data-name="SVGID" class="cls-15" points="377.74 255.72 377.74 231.64 347.99 264.08 347.99 288.66 377.74 255.72"/><g class="cls-44"><rect class="cls-43" x="347.99" y="231.65" width="29.75" height="57.01"/><path class="cls-45" d="M378.64,259.89v17.3h4.83a57.16,57.16,0,0,1-5,14.13v-2.66H347.09V229.84h31.36v-1.39a57.16,57.16,0,0,1,5,14.13h-4.83Z" transform="translate(0 0.9)"/><ellipse class="cls-46" cx="361.89" cy="260.79" rx="11.71" ry="22.23"/></g></g><g class="cls-47"><polygon id="SVGID-59" class="cls-48" points="347.99 293.44 347.99 320.09 377.74 287.15 377.74 260.5 347.99 293.44"/><polygon id="SVGID-59-2" data-name="SVGID" class="cls-16" points="347.99 293.44 347.99 320.09 377.74 287.15 377.74 260.5 347.99 293.44"/><g class="cls-49"><rect class="cls-50" x="347.99" y="260.51" width="29.75" height="59.58"/><polygon class="cls-51" points="378.64 290.96 378.64 320.99 347.09 320.99 347.09 259.6 378.64 259.6 378.64 290.96"/><ellipse class="cls-52" cx="361.89" cy="290.96" rx="12.12" ry="23.01"/></g></g><g class="cls-53"><polygon id="SVGID-60" class="cls-54" points="347.99 356.3 347.99 382.94 377.74 350.01 377.74 323.36 347.99 356.3"/><polygon id="SVGID-60-2" data-name="SVGID" class="cls-17" points="347.99 356.3 347.99 382.94 377.74 350.01 377.74 323.36 347.99 356.3"/><g class="cls-55"><rect class="cls-54" x="347.99" y="323.36" width="29.75" height="59.58"/><polygon class="cls-56" points="378.64 353.82 378.64 383.85 347.09 383.85 347.09 322.46 378.64 322.46 378.64 353.82"/><path class="cls-57" d="M374,352.92c0,12.7-5.43,23-12.12,23s-12.12-10.3-12.12-23,5.42-23,12.12-23S374,340.21,374,352.92Z" transform="translate(0 0.9)"/></g></g><g class="cls-58"><polygon id="SVGID-61" class="cls-59" points="347.99 324.87 347.99 351.52 377.74 318.58 377.74 291.93 347.99 324.87"/><polygon id="SVGID-61-2" data-name="SVGID" class="cls-18" points="347.99 324.87 347.99 351.52 377.74 318.58 377.74 291.93 347.99 324.87"/><g class="cls-60"><rect class="cls-61" x="347.99" y="291.93" width="29.75" height="59.58"/><polygon class="cls-62" points="378.64 322.39 378.64 352.42 347.09 352.42 347.09 291.03 378.64 291.03 378.64 322.39"/><ellipse class="cls-63" cx="361.89" cy="322.39" rx="12.12" ry="23.01"/></g></g><g class="cls-64"><polygon id="SVGID-62" class="cls-65" points="377.74 379.91 377.74 355.83 347.99 388.27 347.99 412.85 377.74 379.91"/><polygon id="SVGID-62-2" data-name="SVGID" class="cls-19" points="377.74 379.9 377.74 355.83 347.99 388.27 347.99 412.84 377.74 379.9"/><g class="cls-66"><rect class="cls-67" x="347.99" y="355.83" width="29.75" height="57.01"/><path class="cls-68" d="M378.64,384.07v17.31h4.83a57.16,57.16,0,0,1-5,14.13v-2.66H347.09V354h31.36v-1.39a57.16,57.16,0,0,1,5,14.13h-4.83Z" transform="translate(0 0.9)"/><ellipse class="cls-69" cx="361.89" cy="384.97" rx="11.71" ry="22.23"/></g></g><g class="cls-70"><polygon id="SVGID-63" class="cls-71" points="347.99 417.63 347.99 444.27 377.74 411.33 377.74 384.69 347.99 417.63"/><polygon id="SVGID-63-2" data-name="SVGID" class="cls-20" points="347.99 417.63 347.99 444.27 377.74 411.33 377.74 384.69 347.99 417.63"/><g class="cls-72"><rect class="cls-71" x="347.99" y="384.69" width="29.75" height="59.58"/><polygon class="cls-73" points="378.64 415.15 378.64 445.18 347.09 445.18 347.09 383.79 378.64 383.79 378.64 415.15"/><ellipse class="cls-74" cx="361.89" cy="415.15" rx="12.12" ry="23.01"/></g></g><polygon id="SVGID-64" class="cls-75" points="347.99 449.06 347.99 475.7 377.74 442.76 377.74 416.12 347.99 449.06"/><polygon id="SVGID-64-2" data-name="SVGID" class="cls-3" points="347.99 449.06 347.99 475.7 377.74 442.76 377.74 416.12 347.99 449.06"/><g class="cls-76"><rect class="cls-75" x="347.99" y="416.12" width="29.75" height="59.58"/><polygon class="cls-77" points="378.64 446.58 378.64 476.6 347.09 476.6 347.09 415.22 378.64 415.22 378.64 446.58"/><ellipse class="cls-78" cx="361.89" cy="446.58" rx="12.12" ry="23.01"/></g><path id="SVGID-65" class="cls-79" d="M213.64,481.59a5.11,5.11,0,1,1-5.11,5.11h0a5.1,5.1,0,0,1,5.09-5.11Z" transform="translate(0 0.9)"/><path id="SVGID-65-2" data-name="SVGID" class="cls-4" d="M213.64,481.59a5.11,5.11,0,1,1-5.11,5.11h0a5.1,5.1,0,0,1,5.09-5.11Z" transform="translate(0 0.9)"/><g class="cls-80"><rect class="cls-81" x="208.53" y="482.49" width="10.22" height="10.22"/><path class="cls-82" d="M218.74,486.7c0,5.32-2.28,9.63-5.1,9.63s-5.11-4.31-5.11-9.63,2.28-9.63,5.11-9.63S218.74,481.38,218.74,486.7Z" transform="translate(0 0.9)"/><path class="cls-83" d="M216.19,486.7c0,2.66-1.14,4.82-2.55,4.82s-2.56-2.16-2.56-4.82,1.14-4.82,2.56-4.82S216.19,484,216.19,486.7Z" transform="translate(0 0.9)"/></g><path id="SVGID-66" class="cls-84" d="M248.49,23.29a5.11,5.11,0,1,1-5.11,5.11h0a5.1,5.1,0,0,1,5.1-5.1Z" transform="translate(0 0.9)"/><path id="SVGID-66-2" data-name="SVGID" class="cls-5" d="M248.49,23.29a5.11,5.11,0,1,1-5.11,5.11h0a5.1,5.1,0,0,1,5.1-5.1Z" transform="translate(0 0.9)"/><g class="cls-85"><rect class="cls-86" x="243.38" y="24.19" width="10.22" height="10.22"/><path class="cls-87" d="M253.6,28.39c0,5.32-2.29,9.64-5.11,9.64s-5.11-4.32-5.11-9.64,2.29-9.63,5.11-9.63S253.6,23.08,253.6,28.39Z" transform="translate(0 0.9)"/><path class="cls-88" d="M251,28.39c0,2.66-1.14,4.82-2.55,4.82s-2.55-2.16-2.55-4.82,1.14-4.81,2.55-4.81S251,25.74,251,28.39Z" transform="translate(0 0.9)"/></g><polygon class="cls-89" points="92.85 474.98 92.85 483.1 0 483.1 26.14 457.86 18.93 442.53 18.93 350.59 27.94 341.57 27.94 163.09 42.37 141.46 42.37 459.16 28.86 474.26 92.85 474.98"/><polygon class="cls-90" points="278.54 39.21 285.75 32 325.41 32 369.58 1.35 397.52 1.35 397.52 20.23 386.71 31.95 386.71 58.09 377.69 68 377.69 10.84 371.14 10.84 335.46 39.19 278.54 39.21"/><polygon class="cls-91" points="331.72 142.36 331.72 200.95 324.51 210.87 324.51 310.02 331.72 326.25 331.72 465.07 275.83 465.07 275.83 474.08 278.46 474.55 340.87 474.55 340.87 134.67 343.39 132.15 331.72 142.36"/><path class="cls-92" d="M89.43,9.93H28.86V81.4l13.21,20.83v-18l-4.21-9.92V21.18H84.73l24.34,18H128.9s-.06-.33-.16-.92h-4.2Z" transform="translate(0 0.9)"/></g></g></g></g></svg>