<svg xmlns="http://www.w3.org/2000/svg" xmlns:xlink="http://www.w3.org/1999/xlink" viewBox="0 0 374.05 491.51"><defs><style>.cls-1{opacity:0.35;fill:url(#New_Gradient_Swatch_3);}.cls-2{fill:url(#New_Gradient_Swatch_3-2);}.cls-3{fill:url(#New_Gradient_Swatch_3-3);}.cls-4{fill:url(#New_Gradient_Swatch_3-4);}.cls-5{fill:url(#New_Gradient_Swatch_3-5);}.cls-6{fill:url(#New_Gradient_Swatch_3-6);}.cls-7{fill:url(#New_Gradient_Swatch_3-7);}.cls-8{fill:url(#New_Gradient_Swatch_3-8);}.cls-9{fill:url(#New_Gradient_Swatch_3-9);}.cls-10{fill:url(#New_Gradient_Swatch_3-10);}.cls-11{fill:url(#New_Gradient_Swatch_3-11);}.cls-12{fill:url(#New_Gradient_Swatch_3-12);}.cls-13{fill:url(#New_Gradient_Swatch_3-13);}.cls-14{fill:url(#New_Gradient_Swatch_3-14);}.cls-15{fill:url(#New_Gradient_Swatch_3-15);}.cls-16{fill:url(#New_Gradient_Swatch_3-16);}.cls-17{fill:url(#New_Gradient_Swatch_3-17);}.cls-18{fill:url(#New_Gradient_Swatch_3-18);}.cls-19{fill:url(#New_Gradient_Swatch_3-19);}.cls-20{fill:url(#New_Gradient_Swatch_3-20);}</style><linearGradient id="New_Gradient_Swatch_3" x1="14.21" y1="249.33" x2="353.83" y2="249.33" gradientUnits="userSpaceOnUse"><stop offset="0" stop-color="#9541de"/><stop offset="1" stop-color="#3ab2c0"/></linearGradient><linearGradient id="New_Gradient_Swatch_3-2" x1="13.42" y1="249.33" x2="354.61" y2="249.33" xlink:href="#New_Gradient_Swatch_3"/><linearGradient id="New_Gradient_Swatch_3-3" x1="0" y1="182.38" x2="14.7" y2="182.38" xlink:href="#New_Gradient_Swatch_3"/><linearGradient id="New_Gradient_Swatch_3-4" x1="47.37" y1="487.02" x2="95.51" y2="487.02" xlink:href="#New_Gradient_Swatch_3"/><linearGradient id="New_Gradient_Swatch_3-5" x1="355.06" y1="83.41" x2="369.76" y2="83.41" xlink:href="#New_Gradient_Swatch_3"/><linearGradient id="New_Gradient_Swatch_3-6" x1="35.93" y1="476.81" x2="328.06" y2="476.81" xlink:href="#New_Gradient_Swatch_3"/><linearGradient id="New_Gradient_Swatch_3-7" x1="25.71" y1="399.52" x2="33.7" y2="399.52" xlink:href="#New_Gradient_Swatch_3"/><linearGradient id="New_Gradient_Swatch_3-8" x1="36.95" y1="25.52" x2="317.5" y2="25.52" xlink:href="#New_Gradient_Swatch_3"/><linearGradient id="New_Gradient_Swatch_3-9" x1="333.12" y1="346.87" x2="353.22" y2="346.87" xlink:href="#New_Gradient_Swatch_3"/><linearGradient id="New_Gradient_Swatch_3-10" x1="112.95" y1="467.79" x2="356.68" y2="467.79" xlink:href="#New_Gradient_Swatch_3"/><linearGradient id="New_Gradient_Swatch_3-11" x1="0.83" y1="359.34" x2="29.8" y2="359.34" xlink:href="#New_Gradient_Swatch_3"/><linearGradient id="New_Gradient_Swatch_3-12" x1="7.57" y1="35.23" x2="315.01" y2="35.23" xlink:href="#New_Gradient_Swatch_3"/><linearGradient id="New_Gradient_Swatch_3-13" x1="24.51" y1="14.4" x2="233.13" y2="14.4" xlink:href="#New_Gradient_Swatch_3"/><linearGradient id="New_Gradient_Swatch_3-14" x1="201.27" y1="486.48" x2="323.2" y2="486.48" xlink:href="#New_Gradient_Swatch_3"/><linearGradient id="New_Gradient_Swatch_3-15" x1="345.47" y1="275.1" x2="357.9" y2="275.1" xlink:href="#New_Gradient_Swatch_3"/><linearGradient id="New_Gradient_Swatch_3-16" x1="345.87" y1="288.27" x2="361.18" y2="288.27" xlink:href="#New_Gradient_Swatch_3"/><linearGradient id="New_Gradient_Swatch_3-17" x1="281.53" y1="34.73" x2="370.77" y2="34.73" xlink:href="#New_Gradient_Swatch_3"/><linearGradient id="New_Gradient_Swatch_3-18" x1="307.27" y1="21.44" x2="374.05" y2="21.44" xlink:href="#New_Gradient_Swatch_3"/><linearGradient id="New_Gradient_Swatch_3-19" x1="23.5" y1="105.08" x2="219.43" y2="105.08" xlink:href="#New_Gradient_Swatch_3"/><linearGradient id="New_Gradient_Swatch_3-20" x1="241.31" y1="374.66" x2="332.78" y2="374.66" xlink:href="#New_Gradient_Swatch_3"/></defs><title>message_06_purple_blue</title><g id="Layer_2" data-name="Layer 2"><g id="Layer_1-2" data-name="Layer 1"><polygon class="cls-1" points="14.21 68.17 14.21 292.46 25.71 343.07 25.71 453.49 36.54 477.64 97.16 477.64 108.53 469.59 274.46 469.59 288.26 475.34 326.22 475.34 342.32 452.34 342.32 407.48 333.12 381.03 333.12 240.7 349.22 220 349.22 145.23 353.82 145.23 353.82 21.01 36.95 21.01 14.21 68.17"/><path class="cls-2" d="M354.61,20.22V146H350v74.25L333.91,241V380.89l9.2,26.46v45.24l-16.48,23.54H288.11l-13.81-5.75H108.78l-11.37,8.05H36L24.92,453.66V343.16l-11.5-50.61V68l.08-.16,23-47.61ZM353,144.44V21.8H37.44L15,68.35v224L26.5,343V453.32l10.55,23.54H96.91l11.37-8.06H274.62l13.8,5.76h37.39l15.72-22.47V407.61l-9.2-26.45V240.43l16.11-20.7V144.44Z"/><polygon class="cls-3" points="0 156.85 0 170.33 7.96 170.33 7.96 174 0 174 0 181.97 7.96 181.97 7.96 185.65 0 185.65 0 193.61 7.96 193.61 7.96 197.29 0 197.29 0 205.25 7.96 205.25 7.96 208.93 0 208.93 0 216.89 7.96 216.89 7.96 220.57 0 220.57 0 230.99 7.96 230.99 7.96 276.94 14.71 296.59 14.71 171.03 14.21 68.17 0 156.85"/><polygon class="cls-4" points="47.37 482.52 47.37 491.51 52.34 491.51 52.34 485.25 55.23 485.25 55.23 491.51 61.49 491.51 61.49 485.25 64.38 485.25 64.38 491.51 70.64 491.51 70.64 485.25 73.52 485.25 73.52 491.51 79.78 491.51 79.78 485.25 82.67 485.25 82.67 491.51 88.93 491.51 88.93 485.25 91.82 485.25 91.82 491.51 95.51 491.51 95.51 482.52 47.37 482.52"/><polygon class="cls-5" points="355.06 141.48 355.08 146.43 369.76 146.43 369.76 142.16 361.8 142.16 361.8 138.61 369.76 138.61 369.76 130.93 361.8 130.93 361.8 127.38 369.76 127.38 369.76 119.7 361.8 119.7 361.8 116.16 369.76 116.16 369.76 108.47 361.8 108.47 361.8 104.93 369.76 104.93 369.76 97.25 361.8 97.25 361.8 93.7 369.76 93.7 369.76 83.66 361.8 83.66 361.8 39.34 355.06 20.38 355.06 141.48"/><polygon class="cls-6" points="35.93 477.64 44.82 484.03 102.43 484.03 112.96 476.06 273.59 476.06 287.22 481.58 316.33 481.58 328.06 475.34 291.55 474.84 275.73 469.59 108.7 469.59 97.21 477.64 35.93 477.64"/><polygon class="cls-7" points="33.7 345.56 27.57 345.56 25.71 346.8 25.71 453.49 33.7 446.57 33.7 345.56"/><polygon class="cls-8" points="99.87 25.73 115.19 30.02 308.49 30.02 317.5 21.01 36.95 21.01 46.56 25.73 99.87 25.73"/><polygon class="cls-9" points="342.32 452.34 353.22 441.75 353.22 397.64 341.58 376.19 341.58 321.05 338.51 308.8 338.51 256.72 333.61 241.4 333.12 381.03 342.32 407.48 342.32 452.34"/><path class="cls-10" d="M356.68,448.49a.4.4,0,0,1-.08.23l-24.51,33.7a.32.32,0,0,1-.12.11l-8.58,4.9a.35.35,0,0,1-.19.06H282.76a.37.37,0,0,1-.15,0L271,482.58H121.42l-7.86,4.85a.4.4,0,1,1-.42-.68l8-4.9a.36.36,0,0,1,.2-.06H271.12a.42.42,0,0,1,.15,0l11.57,4.87h40.25l8.41-4.81L356,448.26a.39.39,0,0,1,.55-.09A.4.4,0,0,1,356.68,448.49Z"/><path class="cls-11" d="M29.8,480.35a.4.4,0,0,1-.24.37.41.41,0,0,1-.52-.22L18.63,454.77a.4.4,0,0,1,0-.15V344.39L.84,278.27s0-.07,0-.11V238.34a.4.4,0,1,1,.79,0v39.77l17.75,66.12a.44.44,0,0,1,0,.1V454.54L29.77,480.2A.4.4,0,0,1,29.8,480.35Z"/><path class="cls-12" d="M315,12.87a.39.39,0,0,1-.39.39H244.69l-11.6-2.44H33.33l-25,49.41a.4.4,0,0,1-.53.18.39.39,0,0,1-.18-.53L32.73,10.24a.4.4,0,0,1,.36-.22H233.21l11.6,2.44h69.81A.39.39,0,0,1,315,12.87Z"/><polygon class="cls-13" points="24.51 26.35 24.51 22.06 34.31 2.45 72.3 2.45 82.71 6.74 222.1 6.74 233.13 10.42 33.09 10.42 24.51 26.35"/><polygon class="cls-14" points="201.27 482.8 208.01 486.48 268.05 486.48 279.69 490.77 320.13 490.77 323.2 487.09 282.76 487.09 271.12 482.19 201.27 482.8"/><path class="cls-15" d="M357.9,164.2v92.52a.39.39,0,0,1-.39.39H346.26v54.06l3.65,9.12a.4.4,0,0,1,0,.15v56.28l4.25,9.11a.39.39,0,0,1-.19.52.39.39,0,0,1-.53-.19L349.18,377a.45.45,0,0,1,0-.16v-56.3l-3.65-9.12a.32.32,0,0,1,0-.14V256.72a.4.4,0,0,1,.4-.4h11.24V164.2a.4.4,0,0,1,.79,0Z"/><polygon class="cls-16" points="349.54 357.2 355.06 365.78 355.06 315.54 350.77 306.35 350.77 261.62 361.18 261.62 361.18 219.34 358.12 210.77 357.51 256.72 345.87 256.72 345.87 311.25 349.54 320.44 349.54 357.2"/><polygon class="cls-17" points="370.77 30.56 370.77 63.72 369.98 63.72 369.98 30.71 360.91 6.52 281.53 6.52 281.53 5.73 361.46 5.73 370.77 30.56"/><polygon class="cls-18" points="313.33 0 307.27 5.51 361.18 5.51 370.37 30.63 370.37 42.89 374.05 37.99 374.05 25.73 363.18 0 313.33 0"/><path class="cls-19" d="M219.43,37.37a.39.39,0,0,1-.39.4H38.85L24.29,67.49V172.78a.4.4,0,0,1-.79,0V67.4a.39.39,0,0,1,0-.18l14.71-30A.39.39,0,0,1,38.6,37H219A.39.39,0,0,1,219.43,37.37Z"/><path class="cls-20" d="M332.78,406.83v39.82a.34.34,0,0,1-.07.22l-14.09,20.84a.38.38,0,0,1-.33.17H295a.35.35,0,0,1-.17,0L284.51,463h-42.8a.4.4,0,1,1,0-.79H284.6a.32.32,0,0,1,.16,0l10.34,4.86h23L332,446.53V406.9L321.6,380.63a.77.77,0,0,1,0-.15V281.84a.39.39,0,1,1,.78,0v98.57l10.39,26.27A.4.4,0,0,1,332.78,406.83Z"/></g></g></svg>