<svg xmlns="http://www.w3.org/2000/svg" xmlns:xlink="http://www.w3.org/1999/xlink" viewBox="0 0 430.06 492.25"><defs><style>.cls-1{fill:url(#New_Gradient_Swatch_5);}.cls-2{fill:url(#New_Gradient_Swatch_5-2);}.cls-3{fill:url(#New_Gradient_Swatch_5-3);}.cls-4{fill:url(#New_Gradient_Swatch_5-4);}.cls-5{fill:url(#New_Gradient_Swatch_5-5);}.cls-6{opacity:0.35;fill:url(#New_Gradient_Swatch_5-11);}.cls-50,.cls-6{isolation:isolate;}.cls-7{fill:url(#New_Gradient_Swatch_5-12);}.cls-8{fill:url(#New_Gradient_Swatch_5-13);}.cls-9{fill:url(#New_Gradient_Swatch_5-14);}.cls-10{fill:url(#New_Gradient_Swatch_5-15);}.cls-11{fill:url(#New_Gradient_Swatch_5-16);}.cls-12{fill:url(#New_Gradient_Swatch_5-17);}.cls-13{fill:url(#New_Gradient_Swatch_5-18);}.cls-14{fill:url(#New_Gradient_Swatch_5-19);}.cls-15{fill:url(#New_Gradient_Swatch_5-20);}.cls-16{fill:url(#New_Gradient_Swatch_5-21);}.cls-17{fill:url(#New_Gradient_Swatch_5-22);}.cls-18{fill:url(#New_Gradient_Swatch_5-23);}.cls-19{fill:url(#New_Gradient_Swatch_5-24);}.cls-20{fill:url(#New_Gradient_Swatch_5-25);}.cls-21{fill:url(#New_Gradient_Swatch_5-26);}.cls-22{fill:url(#New_Gradient_Swatch_5-27);}.cls-23{fill:url(#New_Gradient_Swatch_5-28);}.cls-24{clip-path:url(#clip-path);}.cls-25{fill:url(#New_Gradient_Swatch_5-30);}.cls-26{fill:url(#New_Gradient_Swatch_5-31);}.cls-27{fill:url(#New_Gradient_Swatch_5-32);}.cls-28{fill:url(#New_Gradient_Swatch_5-33);}.cls-29{clip-path:url(#clip-path-2);}.cls-30{fill:url(#New_Gradient_Swatch_5-35);}.cls-31{fill:url(#New_Gradient_Swatch_5-36);}.cls-32{fill:url(#New_Gradient_Swatch_5-37);}.cls-33{fill:url(#New_Gradient_Swatch_5-38);}.cls-34{clip-path:url(#clip-path-3);}.cls-35{fill:url(#New_Gradient_Swatch_5-41);}.cls-36{fill:url(#New_Gradient_Swatch_5-42);}.cls-37{fill:url(#New_Gradient_Swatch_5-43);}.cls-38{clip-path:url(#clip-path-4);}.cls-39{fill:url(#New_Gradient_Swatch_5-46);}.cls-40{fill:url(#New_Gradient_Swatch_5-47);}.cls-41{fill:url(#New_Gradient_Swatch_5-48);}.cls-42{clip-path:url(#clip-path-5);}.cls-43{fill:url(#New_Gradient_Swatch_5-50);}.cls-44{fill:url(#New_Gradient_Swatch_5-51);}.cls-45{fill:url(#New_Gradient_Swatch_5-52);}.cls-46{fill:url(#New_Gradient_Swatch_5-53);}.cls-47{fill:url(#New_Gradient_Swatch_5-54);}.cls-48{fill:url(#New_Gradient_Swatch_5-55);}.cls-49{fill:url(#New_Gradient_Swatch_5-56);}.cls-50{opacity:0.55;fill:url(#New_Gradient_Swatch_5-99);}.cls-51{fill:url(#New_Gradient_Swatch_5-100);}.cls-52{fill:url(#New_Gradient_Swatch_5-101);}.cls-53{fill:url(#New_Gradient_Swatch_5-102);}.cls-54{fill:url(#New_Gradient_Swatch_5-103);}.cls-55{fill:url(#New_Gradient_Swatch_5-104);}.cls-56{fill:url(#New_Gradient_Swatch_5-105);}.cls-57{fill:url(#New_Gradient_Swatch_5-106);}.cls-58{fill:url(#New_Gradient_Swatch_5-107);}.cls-59{fill:url(#New_Gradient_Swatch_5-108);}.cls-60{fill:url(#New_Gradient_Swatch_5-109);}.cls-61{fill:url(#New_Gradient_Swatch_5-110);}.cls-62{fill:url(#New_Gradient_Swatch_5-111);}.cls-63{fill:url(#New_Gradient_Swatch_5-112);}.cls-64{fill:url(#New_Gradient_Swatch_5-113);}.cls-65{fill:url(#New_Gradient_Swatch_5-114);}.cls-66{fill:url(#New_Gradient_Swatch_5-115);}.cls-67{fill:url(#New_Gradient_Swatch_5-116);}.cls-68{fill:url(#New_Gradient_Swatch_5-117);}</style><linearGradient id="New_Gradient_Swatch_5" x1="250.11" y1="86.98" x2="266.87" y2="86.98" gradientUnits="userSpaceOnUse"><stop offset="0" stop-color="#11e5b3"/><stop offset="0.14" stop-color="#15dcb8"/><stop offset="0.36" stop-color="#21c4c6"/><stop offset="0.64" stop-color="#359edc"/><stop offset="0.97" stop-color="#4f68fb"/><stop offset="1" stop-color="#5263fe"/></linearGradient><linearGradient id="New_Gradient_Swatch_5-2" x1="238.34" y1="86.98" x2="255.1" y2="86.98" xlink:href="#New_Gradient_Swatch_5"/><linearGradient id="New_Gradient_Swatch_5-3" x1="226.56" y1="86.98" x2="243.33" y2="86.98" xlink:href="#New_Gradient_Swatch_5"/><linearGradient id="New_Gradient_Swatch_5-4" x1="214.79" y1="86.98" x2="231.56" y2="86.98" xlink:href="#New_Gradient_Swatch_5"/><linearGradient id="New_Gradient_Swatch_5-5" x1="203.02" y1="86.98" x2="219.78" y2="86.98" xlink:href="#New_Gradient_Swatch_5"/><linearGradient id="New_Gradient_Swatch_5-11" x1="19.21" y1="220.58" x2="417.58" y2="220.58" gradientTransform="matrix(1, 0, 0, -1, 0, 494.25)" xlink:href="#New_Gradient_Swatch_5"/><linearGradient id="New_Gradient_Swatch_5-12" x1="18.3" y1="220.6" x2="418.49" y2="220.6" gradientTransform="matrix(1, 0, 0, -1, 0, 494.25)" xlink:href="#New_Gradient_Swatch_5"/><linearGradient id="New_Gradient_Swatch_5-13" x1="348.75" y1="429.05" x2="430.06" y2="429.05" gradientTransform="matrix(1, 0, 0, -1, 0, 494.25)" xlink:href="#New_Gradient_Swatch_5"/><linearGradient id="New_Gradient_Swatch_5-14" x1="365.29" y1="11.79" x2="428.54" y2="11.79" gradientTransform="matrix(1, 0, 0, -1, 0, 494.25)" xlink:href="#New_Gradient_Swatch_5"/><linearGradient id="New_Gradient_Swatch_5-15" x1="0" y1="400.34" x2="19.6" y2="400.34" gradientTransform="matrix(1, 0, 0, -1, 0, 494.25)" xlink:href="#New_Gradient_Swatch_5"/><linearGradient id="New_Gradient_Swatch_5-16" x1="7.62" y1="102.38" x2="19.48" y2="102.38" gradientTransform="matrix(1, 0, 0, -1, 0, 494.25)" xlink:href="#New_Gradient_Swatch_5"/><linearGradient id="New_Gradient_Swatch_5-17" x1="417.55" y1="85.33" x2="429.42" y2="85.33" gradientTransform="matrix(1, 0, 0, -1, 0, 494.25)" xlink:href="#New_Gradient_Swatch_5"/><linearGradient id="New_Gradient_Swatch_5-18" x1="406.61" y1="320.51" x2="417.58" y2="320.51" gradientTransform="matrix(1, 0, 0, -1, 0, 494.25)" xlink:href="#New_Gradient_Swatch_5"/><linearGradient id="New_Gradient_Swatch_5-19" x1="406.61" y1="306.5" x2="417.58" y2="306.5" gradientTransform="matrix(1, 0, 0, -1, 0, 494.25)" xlink:href="#New_Gradient_Swatch_5"/><linearGradient id="New_Gradient_Swatch_5-20" x1="406.61" y1="292.49" x2="417.58" y2="292.49" gradientTransform="matrix(1, 0, 0, -1, 0, 494.25)" xlink:href="#New_Gradient_Swatch_5"/><linearGradient id="New_Gradient_Swatch_5-21" x1="406.61" y1="278.48" x2="417.58" y2="278.48" gradientTransform="matrix(1, 0, 0, -1, 0, 494.25)" xlink:href="#New_Gradient_Swatch_5"/><linearGradient id="New_Gradient_Swatch_5-22" x1="406.61" y1="264.47" x2="417.58" y2="264.47" gradientTransform="matrix(1, 0, 0, -1, 0, 494.25)" xlink:href="#New_Gradient_Swatch_5"/><linearGradient id="New_Gradient_Swatch_5-23" x1="247.94" y1="41.2" x2="259.56" y2="41.2" gradientTransform="matrix(1, 0, 0, -1, 0, 494.25)" xlink:href="#New_Gradient_Swatch_5"/><linearGradient id="New_Gradient_Swatch_5-24" x1="240.04" y1="41.2" x2="251.66" y2="41.2" gradientTransform="matrix(1, 0, 0, -1, 0, 494.25)" xlink:href="#New_Gradient_Swatch_5"/><linearGradient id="New_Gradient_Swatch_5-25" x1="232.14" y1="41.2" x2="243.76" y2="41.2" gradientTransform="matrix(1, 0, 0, -1, 0, 494.25)" xlink:href="#New_Gradient_Swatch_5"/><linearGradient id="New_Gradient_Swatch_5-26" x1="224.24" y1="41.2" x2="235.86" y2="41.2" gradientTransform="matrix(1, 0, 0, -1, 0, 494.25)" xlink:href="#New_Gradient_Swatch_5"/><linearGradient id="New_Gradient_Swatch_5-27" x1="216.34" y1="41.2" x2="227.96" y2="41.2" gradientTransform="matrix(1, 0, 0, -1, 0, 494.25)" xlink:href="#New_Gradient_Swatch_5"/><linearGradient id="New_Gradient_Swatch_5-28" x1="250.11" y1="407.27" x2="266.87" y2="407.27" gradientTransform="matrix(1, 0, 0, -1, 0, 494.25)" xlink:href="#New_Gradient_Swatch_5"/><clipPath id="clip-path"><polygon id="SVGID" class="cls-1" points="261.53 83.02 250.11 90.94 255.45 90.94 266.87 83.02 261.53 83.02"/></clipPath><linearGradient id="New_Gradient_Swatch_5-30" x1="250.11" y1="407.27" x2="266.88" y2="407.27" gradientTransform="matrix(1, 0, 0, -1, 0, 494.25)" xlink:href="#New_Gradient_Swatch_5"/><linearGradient id="New_Gradient_Swatch_5-31" x1="249.16" y1="404.97" x2="267.79" y2="404.97" gradientTransform="matrix(1, 0, 0, -1, 0, 494.25)" xlink:href="#New_Gradient_Swatch_5"/><linearGradient id="New_Gradient_Swatch_5-32" x1="254.81" y1="408.54" x2="267.82" y2="408.54" gradientTransform="matrix(1, 0, 0, -1, 0, 494.25)" xlink:href="#New_Gradient_Swatch_5"/><linearGradient id="New_Gradient_Swatch_5-33" x1="238.34" y1="407.27" x2="255.1" y2="407.27" gradientTransform="matrix(1, 0, 0, -1, 0, 494.25)" xlink:href="#New_Gradient_Swatch_5"/><clipPath id="clip-path-2"><polygon id="SVGID-2" data-name="SVGID" class="cls-2" points="249.76 83.02 238.34 90.94 243.68 90.94 255.1 83.02 249.76 83.02"/></clipPath><linearGradient id="New_Gradient_Swatch_5-35" x1="238.34" y1="407.27" x2="255.11" y2="407.27" gradientTransform="matrix(1, 0, 0, -1, 0, 494.25)" xlink:href="#New_Gradient_Swatch_5"/><linearGradient id="New_Gradient_Swatch_5-36" x1="237.39" y1="404.97" x2="256.02" y2="404.97" gradientTransform="matrix(1, 0, 0, -1, 0, 494.25)" xlink:href="#New_Gradient_Swatch_5"/><linearGradient id="New_Gradient_Swatch_5-37" x1="243.03" y1="408.56" x2="256.05" y2="408.56" gradientTransform="matrix(1, 0, 0, -1, 0, 494.25)" xlink:href="#New_Gradient_Swatch_5"/><linearGradient id="New_Gradient_Swatch_5-38" x1="226.56" y1="407.27" x2="243.33" y2="407.27" gradientTransform="matrix(1, 0, 0, -1, 0, 494.25)" xlink:href="#New_Gradient_Swatch_5"/><clipPath id="clip-path-3"><polygon id="SVGID-3" data-name="SVGID" class="cls-3" points="237.99 83.02 226.56 90.94 231.91 90.94 243.33 83.02 237.99 83.02"/></clipPath><linearGradient id="New_Gradient_Swatch_5-41" x1="225.62" y1="404.97" x2="244.24" y2="404.97" gradientTransform="matrix(1, 0, 0, -1, 0, 494.25)" xlink:href="#New_Gradient_Swatch_5"/><linearGradient id="New_Gradient_Swatch_5-42" x1="231.26" y1="408.56" x2="244.28" y2="408.56" gradientTransform="matrix(1, 0, 0, -1, 0, 494.25)" xlink:href="#New_Gradient_Swatch_5"/><linearGradient id="New_Gradient_Swatch_5-43" x1="214.79" y1="407.27" x2="231.56" y2="407.27" gradientTransform="matrix(1, 0, 0, -1, 0, 494.25)" xlink:href="#New_Gradient_Swatch_5"/><clipPath id="clip-path-4"><polygon id="SVGID-4" data-name="SVGID" class="cls-4" points="226.21 83.02 214.79 90.94 220.14 90.94 231.56 83.02 226.21 83.02"/></clipPath><linearGradient id="New_Gradient_Swatch_5-46" x1="213.84" y1="404.97" x2="232.47" y2="404.97" gradientTransform="matrix(1, 0, 0, -1, 0, 494.25)" xlink:href="#New_Gradient_Swatch_5"/><linearGradient id="New_Gradient_Swatch_5-47" x1="219.49" y1="408.56" x2="232.5" y2="408.56" gradientTransform="matrix(1, 0, 0, -1, 0, 494.25)" xlink:href="#New_Gradient_Swatch_5"/><linearGradient id="New_Gradient_Swatch_5-48" x1="203.02" y1="407.27" x2="219.78" y2="407.27" gradientTransform="matrix(1, 0, 0, -1, 0, 494.25)" xlink:href="#New_Gradient_Swatch_5"/><clipPath id="clip-path-5"><polygon id="SVGID-5" data-name="SVGID" class="cls-5" points="214.44 83.02 203.02 90.94 208.36 90.94 219.78 83.02 214.44 83.02"/></clipPath><linearGradient id="New_Gradient_Swatch_5-50" x1="203.02" y1="407.27" x2="219.79" y2="407.27" gradientTransform="matrix(1, 0, 0, -1, 0, 494.25)" xlink:href="#New_Gradient_Swatch_5"/><linearGradient id="New_Gradient_Swatch_5-51" x1="202.07" y1="404.97" x2="220.7" y2="404.97" gradientTransform="matrix(1, 0, 0, -1, 0, 494.25)" xlink:href="#New_Gradient_Swatch_5"/><linearGradient id="New_Gradient_Swatch_5-52" x1="207.73" y1="408.56" x2="220.73" y2="408.56" gradientTransform="matrix(1, 0, 0, -1, 0, 494.25)" xlink:href="#New_Gradient_Swatch_5"/><linearGradient id="New_Gradient_Swatch_5-53" x1="139.65" y1="47.56" x2="362.3" y2="47.56" gradientTransform="matrix(1, 0, 0, -1, 0, 494.25)" xlink:href="#New_Gradient_Swatch_5"/><linearGradient id="New_Gradient_Swatch_5-54" x1="29.11" y1="278.44" x2="37.95" y2="278.44" gradientTransform="matrix(1, 0, 0, -1, 0, 494.25)" xlink:href="#New_Gradient_Swatch_5"/><linearGradient id="New_Gradient_Swatch_5-55" x1="396.26" y1="352.46" x2="413.31" y2="352.46" gradientTransform="matrix(1, 0, 0, -1, 0, 494.25)" xlink:href="#New_Gradient_Swatch_5"/><linearGradient id="New_Gradient_Swatch_5-56" x1="396.26" y1="223.17" x2="402.35" y2="223.17" gradientTransform="matrix(1, 0, 0, -1, 0, 494.25)" xlink:href="#New_Gradient_Swatch_5"/><linearGradient id="New_Gradient_Swatch_5-99" x1="57.68" y1="458.43" x2="325.05" y2="458.43" gradientTransform="matrix(1, 0, 0, -1, 0, 494.25)" xlink:href="#New_Gradient_Swatch_5"/><linearGradient id="New_Gradient_Swatch_5-100" x1="52.52" y1="485.33" x2="329" y2="485.33" gradientTransform="matrix(1, 0, 0, -1, 0, 494.25)" xlink:href="#New_Gradient_Swatch_5"/><linearGradient id="New_Gradient_Swatch_5-101" x1="52.52" y1="451.35" x2="329" y2="451.35" gradientTransform="matrix(1, 0, 0, -1, 0, 494.25)" xlink:href="#New_Gradient_Swatch_5"/><linearGradient id="New_Gradient_Swatch_5-102" x1="327.08" y1="489.9" x2="330.58" y2="489.9" gradientTransform="matrix(0.71, 0.71, 0.71, -0.71, -250.16, 117.83)" xlink:href="#New_Gradient_Swatch_5"/><linearGradient id="New_Gradient_Swatch_5-103" x1="327.08" y1="479.58" x2="330.58" y2="479.58" gradientTransform="matrix(0.71, 0.71, 0.71, -0.71, -242.94, 120.58)" xlink:href="#New_Gradient_Swatch_5"/><linearGradient id="New_Gradient_Swatch_5-104" x1="51.04" y1="476.44" x2="54.54" y2="476.44" gradientTransform="matrix(0.71, 0.71, 0.71, -0.71, -321.63, 317.12)" xlink:href="#New_Gradient_Swatch_5"/><linearGradient id="New_Gradient_Swatch_5-105" x1="51.04" y1="466.07" x2="54.54" y2="466.07" gradientTransform="matrix(0.71, 0.71, 0.71, -0.71, -314.46, 319.95)" xlink:href="#New_Gradient_Swatch_5"/><linearGradient id="New_Gradient_Swatch_5-106" x1="52.79" y1="428.88" x2="82.75" y2="428.88" gradientTransform="matrix(1, 0, 0, -1, 0, 494.25)" xlink:href="#New_Gradient_Swatch_5"/><linearGradient id="New_Gradient_Swatch_5-107" x1="298.88" y1="428.88" x2="328.83" y2="428.88" gradientTransform="matrix(1, 0, 0, -1, 0, 494.25)" xlink:href="#New_Gradient_Swatch_5"/><linearGradient id="New_Gradient_Swatch_5-108" x1="54.9" y1="485.79" x2="326.64" y2="485.79" gradientTransform="matrix(1, 0, 0, -1, 0, 494.25)" xlink:href="#New_Gradient_Swatch_5"/><linearGradient id="New_Gradient_Swatch_5-109" x1="54.63" y1="489.02" x2="68.79" y2="489.02" gradientTransform="matrix(1, 0, 0, -1, 0, 494.25)" xlink:href="#New_Gradient_Swatch_5"/><linearGradient id="New_Gradient_Swatch_5-110" x1="328.79" y1="465.48" x2="330.69" y2="465.48" gradientTransform="matrix(1, 0, 0, -1, 0, 494.25)" xlink:href="#New_Gradient_Swatch_5"/><linearGradient id="New_Gradient_Swatch_5-111" x1="50.89" y1="450.65" x2="52.79" y2="450.65" gradientTransform="matrix(1, 0, 0, -1, 0, 494.25)" xlink:href="#New_Gradient_Swatch_5"/><linearGradient id="New_Gradient_Swatch_5-112" x1="104.19" y1="461.95" x2="130.27" y2="461.95" gradientTransform="matrix(1, 0, 0, -1, 0, 494.25)" xlink:href="#New_Gradient_Swatch_5"/><linearGradient id="New_Gradient_Swatch_5-113" x1="132.45" y1="461.95" x2="163" y2="461.95" gradientTransform="matrix(1, 0, 0, -1, 0, 494.25)" xlink:href="#New_Gradient_Swatch_5"/><linearGradient id="New_Gradient_Swatch_5-114" x1="165.16" y1="461.89" x2="197.3" y2="461.89" gradientTransform="matrix(1, 0, 0, -1, 0, 494.25)" xlink:href="#New_Gradient_Swatch_5"/><linearGradient id="New_Gradient_Swatch_5-115" x1="201.66" y1="461.95" x2="229" y2="461.95" gradientTransform="matrix(1, 0, 0, -1, 0, 494.25)" xlink:href="#New_Gradient_Swatch_5"/><linearGradient id="New_Gradient_Swatch_5-116" x1="232.88" y1="461.93" x2="257.1" y2="461.93" gradientTransform="matrix(1, 0, 0, -1, 0, 494.25)" xlink:href="#New_Gradient_Swatch_5"/><linearGradient id="New_Gradient_Swatch_5-117" x1="260.35" y1="461.95" x2="286.78" y2="461.95" gradientTransform="matrix(1, 0, 0, -1, 0, 494.25)" xlink:href="#New_Gradient_Swatch_5"/></defs><title>message_02_green_blue</title><g id="Layer_2" data-name="Layer 2"><g id="Layer_1-2" data-name="Layer 1"><g id="Layer_2-2" data-name="Layer 2"><g id="Layer_1-2-2" data-name="Layer 1-2"><polygon class="cls-6" points="407.22 338.84 407.22 170.73 417.58 151.85 417.58 74.49 349.75 74.49 344.94 83.63 273.67 83.63 263.62 90.48 154.44 90.48 133.88 84.54 43.43 84.54 36.61 74.49 19.21 74.49 19.21 122.91 27.44 143.47 27.44 289.2 19.21 309.76 19.21 472.85 73.64 472.85 88.65 460.06 138.6 460.06 152 448.49 256.77 448.49 264.69 457.62 362.15 457.62 365.77 472.85 417.58 472.85 417.58 344.33 407.22 338.84"/><path class="cls-7" d="M418.49,473.76H365.05l-3.63-15.22H264.27l-7.92-9.14h-104L138.94,461H89L74,473.76H18.3V309.58L26.52,289V143.65L18.3,123.09V73.58H37.09l6.82,10H134l20.56,5.93H263.34l10.05-6.85h71l4.81-9.13h69.29V152l-10.36,19V338.29l10.36,5.49Zm-52-1.82h50.17V344.88l-10.35-5.49V170.49l10.35-18.88V75.4H350.3l-4.81,9.14H274l-10.1,6.85H154.18l-20.43-5.91H42.94l-6.82-10h-16v47.34l8.22,20.56v146l-8.22,20.56v162H73.3l15-12.8h49.94l13.4-11.57H257.19l7.92,9.14h97.76Z"/><path class="cls-8" d="M429.44,64.12,416.3,55.65a1.62,1.62,0,0,0-1.73,0l-12.46,8H350.23A1.41,1.41,0,0,0,348.75,65h0v8.65A1.41,1.41,0,0,0,350.22,75h65.22a1.65,1.65,0,0,0,.86-.25l13.14-8.47a1.25,1.25,0,0,0,.45-1.71A1.21,1.21,0,0,0,429.44,64.12Z"/><path class="cls-9" d="M428.06,483.52,417.84,492a1.09,1.09,0,0,1-.67.25,1,1,0,0,1-.67-.25l-9.7-8H366.45a1.25,1.25,0,0,1-1.16-1.34V474a1.26,1.26,0,0,1,1.16-1.33h50.72a1,1,0,0,1,.67.25l10.22,8.47a1.44,1.44,0,0,1,.11,2.05l-.11.11Z"/><path class="cls-10" d="M8.72,63.87.25,73.73a1,1,0,0,0-.25.65A1,1,0,0,0,.25,75l8,9.36v38.93a1.24,1.24,0,0,0,1.33,1.12h8.65a1.22,1.22,0,0,0,1.33-1.12V74.38a1,1,0,0,0-.25-.65l-8.47-9.86a1.5,1.5,0,0,0-2.12,0l0,0Z"/><path class="cls-11" d="M19.21,309.76S7,308.38,7.64,316.36v87.75l6.7,4.91v54.62l4.87,10.43S19.82,307.46,19.21,309.76Z"/><path class="cls-12" d="M417.82,474.6s12.19,1.11,11.58-5.27v-70.2l-6.7-3.93V351.51l-4.88-8.34S417.22,476.44,417.82,474.6Z"/><polygon class="cls-13" points="406.61 179.63 406.61 185.76 417.58 167.85 417.58 161.72 406.61 179.63"/><polygon class="cls-14" points="406.61 199.77 417.58 181.86 417.58 175.73 406.61 193.65 406.61 199.77"/><polygon class="cls-15" points="406.61 213.78 417.58 195.87 417.58 189.74 406.61 207.65 406.61 213.78"/><polygon class="cls-16" points="406.61 227.79 417.58 209.88 417.58 203.75 406.61 221.66 406.61 227.79"/><polygon class="cls-17" points="406.61 241.8 417.58 223.88 417.58 217.76 406.61 235.67 406.61 241.8"/><polygon class="cls-18" points="259.56 457.62 252.07 448.49 247.94 448.49 255.42 457.62 259.56 457.62"/><polygon class="cls-19" points="251.66 457.62 244.17 448.49 240.04 448.49 247.52 457.62 251.66 457.62"/><polygon class="cls-20" points="243.76 457.62 236.28 448.49 232.14 448.49 239.63 457.62 243.76 457.62"/><polygon class="cls-21" points="235.86 457.62 228.38 448.49 224.24 448.49 231.73 457.62 235.86 457.62"/><polygon class="cls-22" points="227.96 457.62 220.48 448.49 216.34 448.49 223.83 457.62 227.96 457.62"/><polygon id="SVGID-11" class="cls-23" points="261.53 83.02 250.11 90.94 255.45 90.94 266.87 83.02 261.53 83.02"/><polygon id="SVGID-11-2" data-name="SVGID" class="cls-1" points="261.53 83.02 250.11 90.94 255.45 90.94 266.87 83.02 261.53 83.02"/><g class="cls-24"><rect class="cls-25" x="250.11" y="83.02" width="16.77" height="7.92"/><path class="cls-26" d="M267.79,91.85H253.85v4.61a26.14,26.14,0,0,1-4.69-6.63h0V82.1h18.6Z"/><path class="cls-27" d="M267.82,92c-3.88,1.94-9.09-.61-11.63-5.71A12.08,12.08,0,0,1,255,78.77V82.1h12.81V92Z"/></g><polygon id="SVGID-12" class="cls-28" points="249.76 83.02 238.34 90.94 243.68 90.94 255.1 83.02 249.76 83.02"/><polygon id="SVGID-12-2" data-name="SVGID" class="cls-2" points="249.76 83.02 238.34 90.94 243.68 90.94 255.1 83.02 249.76 83.02"/><g class="cls-29"><rect class="cls-30" x="238.34" y="83.02" width="16.77" height="7.92"/><path class="cls-31" d="M256,91.85H242.08v4.61a26.14,26.14,0,0,1-4.69-6.63h0V82.1H256Z"/><path class="cls-32" d="M256.05,92c-3.88,1.94-9.09-.61-11.64-5.71a12,12,0,0,1-1.2-7.55V82.1H256v9.75Z"/></g><polygon id="SVGID-13" class="cls-33" points="237.99 83.02 226.56 90.94 231.91 90.94 243.33 83.02 237.99 83.02"/><polygon id="SVGID-13-2" data-name="SVGID" class="cls-3" points="237.99 83.02 226.56 90.94 231.91 90.94 243.33 83.02 237.99 83.02"/><g class="cls-34"><rect class="cls-33" x="226.56" y="83.02" width="16.77" height="7.92"/><path class="cls-35" d="M244.24,91.85H230.31v4.61a26.14,26.14,0,0,1-4.69-6.63h0V82.1h18.59Z"/><path class="cls-36" d="M244.28,92c-3.88,1.94-9.09-.61-11.64-5.71a12,12,0,0,1-1.2-7.55V82.1h12.8v9.75Z"/></g><polygon id="SVGID-14" class="cls-37" points="226.21 83.02 214.79 90.94 220.14 90.94 231.56 83.02 226.21 83.02"/><polygon id="SVGID-14-2" data-name="SVGID" class="cls-4" points="226.21 83.02 214.79 90.94 220.14 90.94 231.56 83.02 226.21 83.02"/><g class="cls-38"><rect class="cls-37" x="214.79" y="83.02" width="16.77" height="7.92"/><path class="cls-39" d="M232.47,91.85H218.54v4.61a26.17,26.17,0,0,1-4.7-6.63h0V82.1h18.59Z"/><path class="cls-40" d="M232.5,92c-3.88,1.94-9.09-.61-11.63-5.71a12,12,0,0,1-1.2-7.55V82.1h12.8v9.75Z"/></g><polygon id="SVGID-15" class="cls-41" points="214.44 83.02 203.02 90.94 208.36 90.94 219.78 83.02 214.44 83.02"/><polygon id="SVGID-15-2" data-name="SVGID" class="cls-5" points="214.44 83.02 203.02 90.94 208.36 90.94 219.78 83.02 214.44 83.02"/><g class="cls-42"><rect class="cls-43" x="203.02" y="83.02" width="16.77" height="7.92"/><path class="cls-44" d="M220.7,91.85H206.76v4.61a26.14,26.14,0,0,1-4.69-6.63h0V82.1H220.7Z"/><path class="cls-45" d="M220.73,92c-3.88,1.94-9.09-.61-11.63-5.71a12.12,12.12,0,0,1-1.21-7.55V82.1H220.7v9.75Z"/></g><path class="cls-46" d="M361.84,452H263.36a.44.44,0,0,1-.35-.17l-7.92-9.58H150.66l-10.23,9a.46.46,0,0,1-.65,0,.45.45,0,0,1,0-.64h0l10.37-9.14a.46.46,0,0,1,.3-.11H255.3a.48.48,0,0,1,.35.16l7.93,9.58h98.26a.46.46,0,1,1,0,.92Z"/><path class="cls-47" d="M29.57,308.85a.46.46,0,0,1-.2-.05.47.47,0,0,1-.21-.62L37,292.44V144.6l-6-21.26a.45.45,0,0,1,.3-.56h0a.46.46,0,0,1,.57.31L38,144.41a.29.29,0,0,1,0,.13v148a.54.54,0,0,1,0,.21L30,308.59A.46.46,0,0,1,29.57,308.85Z"/><polygon class="cls-48" points="407.83 80.28 407.83 145.15 396.26 168.9 396.26 203.62 402.35 196.01 402.35 169.51 413.31 147.58 413.31 79.97 407.83 80.28"/><path class="cls-49" d="M396.26,213.53V332.75l6.09,3.66V205.76C400.39,208.31,398.25,211.06,396.26,213.53Z"/><path class="cls-8" d="M429.44,64.12,416.3,55.65a1.62,1.62,0,0,0-1.73,0l-12.46,8H350.23A1.41,1.41,0,0,0,348.75,65h0v8.65A1.41,1.41,0,0,0,350.22,75h65.22a1.65,1.65,0,0,0,.86-.25l13.14-8.47a1.25,1.25,0,0,0,.45-1.71A1.21,1.21,0,0,0,429.44,64.12Z"/><path class="cls-9" d="M428.06,483.52,417.84,492a1.09,1.09,0,0,1-.67.25,1,1,0,0,1-.67-.25l-9.7-8H366.45a1.25,1.25,0,0,1-1.16-1.34V474a1.26,1.26,0,0,1,1.16-1.33h50.72a1,1,0,0,1,.67.25l10.22,8.47a1.44,1.44,0,0,1,.11,2.05l-.11.11Z"/><path class="cls-10" d="M8.72,63.87.25,73.73a1,1,0,0,0-.25.65A1,1,0,0,0,.25,75l8,9.36v38.93a1.24,1.24,0,0,0,1.33,1.12h8.65a1.22,1.22,0,0,0,1.33-1.12V74.38a1,1,0,0,0-.25-.65l-8.47-9.86a1.5,1.5,0,0,0-2.12,0l0,0Z"/><path class="cls-11" d="M19.21,309.76S7,308.38,7.64,316.36v87.75l6.7,4.91v54.62l4.87,10.43S19.82,307.46,19.21,309.76Z"/><path class="cls-12" d="M417.82,474.6s12.19,1.11,11.58-5.27v-70.2l-6.7-3.93V351.51l-4.88-8.34S417.22,476.44,417.82,474.6Z"/><polygon class="cls-13" points="406.61 179.63 406.61 185.76 417.58 167.85 417.58 161.72 406.61 179.63"/><polygon class="cls-14" points="406.61 199.77 417.58 181.86 417.58 175.73 406.61 193.65 406.61 199.77"/><polygon class="cls-15" points="406.61 213.78 417.58 195.87 417.58 189.74 406.61 207.65 406.61 213.78"/><polygon class="cls-16" points="406.61 227.79 417.58 209.88 417.58 203.75 406.61 221.66 406.61 227.79"/><polygon class="cls-17" points="406.61 241.8 417.58 223.88 417.58 217.76 406.61 235.67 406.61 241.8"/><polygon class="cls-18" points="259.56 457.62 252.07 448.49 247.94 448.49 255.42 457.62 259.56 457.62"/><polygon class="cls-19" points="251.66 457.62 244.17 448.49 240.04 448.49 247.52 457.62 251.66 457.62"/><polygon class="cls-20" points="243.76 457.62 236.28 448.49 232.14 448.49 239.63 457.62 243.76 457.62"/><polygon class="cls-21" points="235.86 457.62 228.38 448.49 224.24 448.49 231.73 457.62 235.86 457.62"/><polygon class="cls-22" points="227.96 457.62 220.48 448.49 216.34 448.49 223.83 457.62 227.96 457.62"/><polygon id="SVGID-16" class="cls-23" points="261.53 83.02 250.11 90.94 255.45 90.94 266.87 83.02 261.53 83.02"/><polygon id="SVGID-16-2" data-name="SVGID" class="cls-1" points="261.53 83.02 250.11 90.94 255.45 90.94 266.87 83.02 261.53 83.02"/><g class="cls-24"><rect class="cls-25" x="250.11" y="83.02" width="16.77" height="7.92"/><path class="cls-26" d="M267.79,91.85H253.85v4.61a26.14,26.14,0,0,1-4.69-6.63h0V82.1h18.6Z"/><path class="cls-27" d="M267.82,92c-3.88,1.94-9.09-.61-11.63-5.71A12.08,12.08,0,0,1,255,78.77V82.1h12.81V92Z"/></g><polygon id="SVGID-17" class="cls-28" points="249.76 83.02 238.34 90.94 243.68 90.94 255.1 83.02 249.76 83.02"/><polygon id="SVGID-17-2" data-name="SVGID" class="cls-2" points="249.76 83.02 238.34 90.94 243.68 90.94 255.1 83.02 249.76 83.02"/><g class="cls-29"><rect class="cls-30" x="238.34" y="83.02" width="16.77" height="7.92"/><path class="cls-31" d="M256,91.85H242.08v4.61a26.14,26.14,0,0,1-4.69-6.63h0V82.1H256Z"/><path class="cls-32" d="M256.05,92c-3.88,1.94-9.09-.61-11.64-5.71a12,12,0,0,1-1.2-7.55V82.1H256v9.75Z"/></g><polygon id="SVGID-18" class="cls-33" points="237.99 83.02 226.56 90.94 231.91 90.94 243.33 83.02 237.99 83.02"/><polygon id="SVGID-18-2" data-name="SVGID" class="cls-3" points="237.99 83.02 226.56 90.94 231.91 90.94 243.33 83.02 237.99 83.02"/><g class="cls-34"><rect class="cls-33" x="226.56" y="83.02" width="16.77" height="7.92"/><path class="cls-35" d="M244.24,91.85H230.31v4.61a26.14,26.14,0,0,1-4.69-6.63h0V82.1h18.59Z"/><path class="cls-36" d="M244.28,92c-3.88,1.94-9.09-.61-11.64-5.71a12,12,0,0,1-1.2-7.55V82.1h12.8v9.75Z"/></g><polygon id="SVGID-19" class="cls-37" points="226.21 83.02 214.79 90.94 220.14 90.94 231.56 83.02 226.21 83.02"/><polygon id="SVGID-19-2" data-name="SVGID" class="cls-4" points="226.21 83.02 214.79 90.94 220.14 90.94 231.56 83.02 226.21 83.02"/><g class="cls-38"><rect class="cls-37" x="214.79" y="83.02" width="16.77" height="7.92"/><path class="cls-39" d="M232.47,91.85H218.54v4.61a26.17,26.17,0,0,1-4.7-6.63h0V82.1h18.59Z"/><path class="cls-40" d="M232.5,92c-3.88,1.94-9.09-.61-11.63-5.71a12,12,0,0,1-1.2-7.55V82.1h12.8v9.75Z"/></g><polygon id="SVGID-20" class="cls-41" points="214.44 83.02 203.02 90.94 208.36 90.94 219.78 83.02 214.44 83.02"/><polygon id="SVGID-20-2" data-name="SVGID" class="cls-5" points="214.44 83.02 203.02 90.94 208.36 90.94 219.78 83.02 214.44 83.02"/><g class="cls-42"><rect class="cls-43" x="203.02" y="83.02" width="16.77" height="7.92"/><path class="cls-44" d="M220.7,91.85H206.76v4.61a26.14,26.14,0,0,1-4.69-6.63h0V82.1H220.7Z"/><path class="cls-45" d="M220.73,92c-3.88,1.94-9.09-.61-11.63-5.71a12.12,12.12,0,0,1-1.21-7.55V82.1H220.7v9.75Z"/></g><polygon class="cls-48" points="407.83 80.28 407.83 145.15 396.26 168.9 396.26 203.62 402.35 196.01 402.35 169.51 413.31 147.58 413.31 79.97 407.83 80.28"/><path class="cls-49" d="M396.26,213.53V332.75l6.09,3.66V205.76C400.39,208.31,398.25,211.06,396.26,213.53Z"/><rect class="cls-50" x="57.68" y="5.23" width="267.37" height="61.17"/><polygon class="cls-51" points="53.07 17.84 52.52 17.84 52.52 0 329 0 329 4.68 328.45 4.68 328.45 0.55 53.07 0.55 53.07 17.84"/><polygon class="cls-52" points="329 70.95 52.52 70.95 52.52 28.02 53.07 28.02 53.07 70.41 328.45 70.41 328.45 14.85 329 14.85 329 70.95"/><rect class="cls-53" x="326.65" y="4.07" width="4.41" height="0.55" transform="translate(93.41 233.98) rotate(-45.04)"/><rect class="cls-54" x="326.62" y="14.41" width="4.41" height="0.55" transform="translate(86.2 237.11) rotate(-45.07)"/><rect class="cls-55" x="50.6" y="17.55" width="4.41" height="0.55" transform="translate(2.88 42.59) rotate(-45.04)"/><rect class="cls-56" x="50.59" y="27.9" width="4.41" height="0.55" transform="translate(-4.44 45.65) rotate(-45.07)"/><polygon class="cls-57" points="52.79 60.04 61.41 68.65 80.69 68.65 82.75 70.71 52.79 70.71 52.79 60.04"/><polygon class="cls-58" points="328.83 60.04 320.22 68.65 300.93 68.65 298.88 70.71 328.83 70.71 328.83 60.04"/><polygon class="cls-59" points="55.44 14.43 54.9 14.43 54.9 2.49 326.64 2.49 326.64 4.97 326.09 4.97 326.09 3.04 55.44 3.04 55.44 14.43"/><polygon class="cls-60" points="55.72 8.24 54.63 8.24 54.63 2.22 68.79 2.22 68.79 3.31 55.72 3.31 55.72 8.24"/><polygon class="cls-61" points="329.55 13.97 329.55 32.5 330.69 33.64 330.69 41.67 328.79 43.57 328.79 15.11 329.55 13.97"/><polygon class="cls-62" points="52.03 28.9 52.03 47.43 50.89 48.56 50.89 56.59 52.79 58.49 52.79 28.71 52.03 28.9"/><path class="cls-63" d="M111.73,16.66V47.94h-7.54V16.66Zm2.17,6.93V16.66h13.78l2.59,3.12V44.73l-2.59,3.21H113.9V41h8.84V23.59Z"/><path class="cls-64" d="M139.64,47.94h-7.19l7.75-22.18h5.37l1,2.51Zm8.05-15.25h2.82l-3.25-9.1H141l2.43-6.93H152l11,31.28h-7.11L153,39.62h-7.67Z"/><path class="cls-65" d="M185.43,48.07,172.7,23.59h-7.54V16.66h12.21L189.76,41h7.54v7.06ZM172.7,29.53V47.94h-7.54V25.76h5.54Zm17.06,5.76V16.66h7.54V38.84h-5.63Z"/><path class="cls-66" d="M209.18,41h5v6.93h-9.92l-2.6-3.25V19.82l2.6-3.16h9.92v6.93h-5ZM229,44.73l-2.6,3.21h-10V41h5.54V35.85h-6.06V28.92H229ZM216.33,23.59V16.66h10l2.6,3.12v6.67H222V23.59Z"/><path class="cls-67" d="M232.88,47.94V16.66h7.54V47.94Zm9.7-24.35V16.66H257.1v6.93Zm0,12v-7h11.09v6.93Zm0,12.39V41H257.1v6.93Z"/><path class="cls-68" d="M260.35,47.94V16.66h7.54V47.94Zm9.7-24.35V16.66h13.39l2.6,3.12V32.34L283.87,35l2.91,12.91h-7.5l-2.55-10.66h-6.68v-6.9h8.45V23.59Z"/></g></g></g></g></svg>