<svg xmlns="http://www.w3.org/2000/svg" xmlns:xlink="http://www.w3.org/1999/xlink" viewBox="0 0 261.09 493.61"><defs><style>.cls-1{mask:url(#mask);filter:url(#luminosity-noclip-4);}.cls-2,.cls-4,.cls-6{mix-blend-mode:multiply;}.cls-2{fill:url(#linear-gradient);}.cls-3{mask:url(#mask-2);filter:url(#luminosity-noclip-5);}.cls-4{fill:url(#linear-gradient-2);}.cls-5{mask:url(#mask-3);filter:url(#luminosity-noclip-6);}.cls-6{fill:url(#linear-gradient-3);}.cls-10,.cls-11,.cls-12,.cls-13,.cls-14,.cls-15,.cls-7,.cls-8,.cls-9{fill:#17cffc;}.cls-7{opacity:0.35;}.cls-9{opacity:0.7;}.cls-10{opacity:0.8;}.cls-11{opacity:0.6;}.cls-12{opacity:0.3;}.cls-13{opacity:0.5;}.cls-14{opacity:0.2;}.cls-15{opacity:0.4;}.cls-16{mask:url(#mask-4);}.cls-17{mask:url(#mask-5);}.cls-18{mask:url(#mask-6);}.cls-19{filter:url(#luminosity-noclip-3);}.cls-20{filter:url(#luminosity-noclip-2);}.cls-21{filter:url(#luminosity-noclip);}</style><filter id="luminosity-noclip" x="245.97" y="-8438.8" width="6.85" height="32766" filterUnits="userSpaceOnUse" color-interpolation-filters="sRGB"><feFlood flood-color="#fff" result="bg"/><feBlend in="SourceGraphic" in2="bg"/></filter><mask id="mask" x="245.97" y="-8438.8" width="6.85" height="32766" maskUnits="userSpaceOnUse"><g class="cls-21"/></mask><linearGradient id="linear-gradient" x1="249.39" y1="38.81" x2="249.39" y2="203.4" gradientUnits="userSpaceOnUse"><stop offset="0" stop-color="#fff"/><stop offset="0.01" stop-color="#fbfbfb"/><stop offset="0.23" stop-color="#b0b0b0"/><stop offset="0.43" stop-color="#727272"/><stop offset="0.61" stop-color="#414141"/><stop offset="0.77" stop-color="#1d1d1d"/><stop offset="0.9" stop-color="#080808"/><stop offset="0.99"/></linearGradient><filter id="luminosity-noclip-2" x="4.57" y="-8438.8" width="6.85" height="32766" filterUnits="userSpaceOnUse" color-interpolation-filters="sRGB"><feFlood flood-color="#fff" result="bg"/><feBlend in="SourceGraphic" in2="bg"/></filter><mask id="mask-2" x="4.57" y="-8438.8" width="6.85" height="32766" maskUnits="userSpaceOnUse"><g class="cls-20"/></mask><linearGradient id="linear-gradient-2" x1="7.99" y1="127.37" x2="7.99" y2="291.95" xlink:href="#linear-gradient"/><filter id="luminosity-noclip-3" x="232.35" y="-8438.8" width="12.56" height="32766" filterUnits="userSpaceOnUse" color-interpolation-filters="sRGB"><feFlood flood-color="#fff" result="bg"/><feBlend in="SourceGraphic" in2="bg"/></filter><mask id="mask-3" x="232.35" y="-8438.8" width="12.56" height="32766" maskUnits="userSpaceOnUse"><g class="cls-19"/></mask><linearGradient id="linear-gradient-3" x1="-166.41" y1="-1657.39" x2="4.69" y2="-1657.39" gradientTransform="translate(-1418.76 455.04) rotate(90)" gradientUnits="userSpaceOnUse"><stop offset="0"/><stop offset="0.18" stop-color="#030303"/><stop offset="0.31" stop-color="#0d0d0d"/><stop offset="0.43" stop-color="#1d1d1d"/><stop offset="0.54" stop-color="#343434"/><stop offset="0.64" stop-color="#515151"/><stop offset="0.74" stop-color="#757575"/><stop offset="0.83" stop-color="#a0a0a0"/><stop offset="0.92" stop-color="#d1d1d1"/><stop offset="1" stop-color="#fff"/></linearGradient><filter id="luminosity-noclip-4" x="245.97" y="38.81" width="6.85" height="164.59" filterUnits="userSpaceOnUse" color-interpolation-filters="sRGB"><feFlood flood-color="#fff" result="bg"/><feBlend in="SourceGraphic" in2="bg"/></filter><mask id="mask-4" x="245.97" y="38.81" width="6.85" height="164.59" maskUnits="userSpaceOnUse"><g class="cls-1"><polygon class="cls-2" points="252.81 50.8 245.97 38.81 245.97 188.34 252.81 203.4 252.81 50.8"/></g></mask><filter id="luminosity-noclip-5" x="4.57" y="127.37" width="6.85" height="164.59" filterUnits="userSpaceOnUse" color-interpolation-filters="sRGB"><feFlood flood-color="#fff" result="bg"/><feBlend in="SourceGraphic" in2="bg"/></filter><mask id="mask-5" x="4.57" y="127.37" width="6.85" height="164.59" maskUnits="userSpaceOnUse"><g class="cls-3"><polygon class="cls-4" points="11.41 132.5 4.57 127.37 4.57 287.16 11.41 291.95 11.41 132.5"/></g></mask><filter id="luminosity-noclip-6" x="232.35" y="338.31" width="12.56" height="121.43" filterUnits="userSpaceOnUse" color-interpolation-filters="sRGB"><feFlood flood-color="#fff" result="bg"/><feBlend in="SourceGraphic" in2="bg"/></filter><mask id="mask-6" x="232.35" y="338.31" width="12.56" height="121.43" maskUnits="userSpaceOnUse"><g class="cls-5"><polygon class="cls-6" points="244.9 338.31 240.34 338.31 240.34 356.92 232.35 360.99 232.35 452.3 244.9 459.73 244.9 338.31"/></g></mask></defs><title>message_14</title><g id="Layer_2" data-name="Layer 2"><g id="Layer_1-2" data-name="Layer 1"><polygon class="cls-7" points="241.33 191.53 241.33 11.69 239.88 11.69 236.26 0.86 171.21 0.86 164.43 11.69 20.45 11.69 7.75 33.96 7.75 151.94 15.46 157.24 15.46 352.63 20.45 356.06 20.45 483.25 241.33 483.25 241.33 478.98 249.96 464.64 249.96 213.45 241.33 191.53"/><path class="cls-8" d="M242.19,484.1H19.59V356.51l-5-3.43V157.69L6.9,152.4V33.73L20,10.84H164L170.73,0h66.15l3.61,10.84h1.7V191.37l8.63,21.91v251.6l-8.63,14.34ZM21.31,482.39H240.47v-3.65l8.64-14.33V213.61l-8.64-21.91V12.55h-1.21L235.65,1.71h-64l-6.77,10.84H21L8.61,34.19V151.5l7.7,5.29V352.18l5,3.43Z"/><polygon class="cls-8" points="249.96 212.88 249.96 464.28 255.1 462.06 255.1 266.14 261.09 252.33 261.09 235.32 249.96 212.88"/><polygon class="cls-8" points="102.15 489.04 14.41 489.04 14.41 359.07 15.27 359.07 15.27 488.19 102.15 488.19 102.15 489.04"/><polygon class="cls-8" points="59.35 493.61 9.27 493.61 9.27 420.99 10.13 420.99 10.13 492.75 59.35 492.75 59.35 493.61"/><polygon class="cls-8" points="239.88 11.69 236.26 0.86 171.21 0.86 164.43 12.55 230.43 12.55 234.55 28.94 234.55 179.2 241.33 199.52 241.33 11.69 239.88 11.69"/><polygon class="cls-8" points="20.45 356.06 20.45 482.34 139.41 482.34 134.11 476.63 25.68 476.63 25.68 355.07 15.41 346.51 15.46 352.63 20.45 356.06"/><polygon class="cls-8" points="7.7 36.92 20.45 11.69 12.84 11.69 0 35.2 0 127.22 4.57 136.4 4.57 150.66 7.75 153.09 7.75 140.41 7.7 140.31 7.7 36.92"/><polygon class="cls-9" points="96.25 1.14 84.53 1.14 80.2 8.56 91.92 8.56 96.25 1.14"/><polygon class="cls-8" points="55.93 1.14 50.22 8.56 63.2 8.56 67.52 1.14 55.93 1.14"/><polygon class="cls-10" points="81.89 1.14 70.17 1.14 65.84 8.56 77.56 8.56 81.89 1.14"/><polygon class="cls-11" points="110.61 1.14 98.89 1.14 94.57 8.56 106.29 8.56 110.61 1.14"/><polygon class="cls-12" points="153.69 1.14 141.97 1.14 137.65 8.56 149.37 8.56 153.69 1.14"/><polygon class="cls-13" points="124.97 1.14 113.25 1.14 108.93 8.56 120.65 8.56 124.97 1.14"/><polygon class="cls-14" points="152.01 8.56 161.5 8.56 166.07 1.14 156.34 1.14 152.01 8.56"/><polygon class="cls-15" points="139.33 1.14 127.61 1.14 123.29 8.56 135.01 8.56 139.33 1.14"/><g class="cls-16"><polygon class="cls-8" points="252.81 157.51 245.97 145.53 245.97 188.34 252.81 203.4 252.81 157.51"/></g><g class="cls-17"><polygon class="cls-8" points="11.41 160.37 4.57 155.24 4.57 287.16 11.41 291.95 11.41 160.37"/></g><g class="cls-18"><polygon class="cls-8" points="244.9 338.31 240.34 338.31 240.34 356.92 232.35 360.99 232.35 452.3 244.9 459.73 244.9 338.31"/></g><polygon class="cls-8" points="249.96 212.88 249.96 464.28 255.1 462.06 255.1 266.14 261.09 252.33 261.09 235.32 249.96 212.88"/><polygon class="cls-8" points="239.88 11.69 236.26 0.86 171.21 0.86 164.43 12.55 230.43 12.55 234.55 28.94 234.55 179.2 241.33 199.52 241.33 11.69 239.88 11.69"/><polygon class="cls-8" points="20.45 356.06 20.45 482.34 139.41 482.34 134.11 476.63 25.68 476.63 25.68 355.07 15.41 346.51 15.46 352.63 20.45 356.06"/><polygon class="cls-8" points="7.7 36.92 20.45 11.69 12.84 11.69 0 35.2 0 127.22 4.57 136.4 4.57 150.66 7.75 153.09 7.75 140.41 7.7 140.31 7.7 36.92"/><polygon class="cls-9" points="96.25 1.14 84.53 1.14 80.2 8.56 91.92 8.56 96.25 1.14"/><polygon class="cls-8" points="55.93 1.14 50.22 8.56 63.2 8.56 67.52 1.14 55.93 1.14"/><polygon class="cls-10" points="81.89 1.14 70.17 1.14 65.84 8.56 77.56 8.56 81.89 1.14"/><polygon class="cls-11" points="110.61 1.14 98.89 1.14 94.57 8.56 106.29 8.56 110.61 1.14"/><polygon class="cls-12" points="153.69 1.14 141.97 1.14 137.65 8.56 149.37 8.56 153.69 1.14"/><polygon class="cls-13" points="124.97 1.14 113.25 1.14 108.93 8.56 120.65 8.56 124.97 1.14"/><polygon class="cls-14" points="152.01 8.56 161.5 8.56 166.07 1.14 156.34 1.14 152.01 8.56"/><polygon class="cls-15" points="139.33 1.14 127.61 1.14 123.29 8.56 135.01 8.56 139.33 1.14"/></g></g></svg>