<svg xmlns="http://www.w3.org/2000/svg" xmlns:xlink="http://www.w3.org/1999/xlink" viewBox="0 0 501.17 403.92"><defs><style>.cls-1,.cls-2{fill:#11e5b3;}.cls-2{opacity:0.35;}.cls-3{opacity:0.2;}.cls-4{clip-path:url(#clip-path);}.cls-5{clip-path:url(#clip-path-2);}.cls-6{clip-path:url(#clip-path-3);}.cls-7{opacity:0.8;}.cls-8{clip-path:url(#clip-path-4);}.cls-9{opacity:0.4;}.cls-10{clip-path:url(#clip-path-5);}.cls-11{opacity:0.6;}.cls-12{clip-path:url(#clip-path-6);}.cls-13{clip-path:url(#clip-path-7);}.cls-14{clip-path:url(#clip-path-8);}.cls-15{clip-path:url(#clip-path-9);}.cls-16{clip-path:url(#clip-path-10);}.cls-17{clip-path:url(#clip-path-11);}.cls-18{opacity:0.5;}.cls-19{clip-path:url(#clip-path-12);}.cls-20{opacity:0.3;}.cls-21{clip-path:url(#clip-path-13);}.cls-22{clip-path:url(#clip-path-14);}.cls-23{clip-path:url(#clip-path-15);}.cls-24{clip-path:url(#clip-path-16);}.cls-25{clip-path:url(#clip-path-17);}.cls-26{clip-path:url(#clip-path-18);}.cls-27{opacity:0.7;}.cls-28{clip-path:url(#clip-path-19);}.cls-29{clip-path:url(#clip-path-20);}</style><clipPath id="clip-path" transform="translate(4.71)"><polygon id="SVGID" class="cls-1" points="9.44 355.98 9.44 381.26 37.62 381.26 9.44 355.98"/></clipPath><clipPath id="clip-path-2" transform="translate(4.71)"><polygon id="SVGID-2" data-name="SVGID" class="cls-1" points="188.65 381.26 216.51 381.26 178.97 347.06 150.53 347.06 188.65 381.26"/></clipPath><clipPath id="clip-path-3" transform="translate(4.71)"><polygon id="SVGID-3" data-name="SVGID" class="cls-1" points="35.87 347.06 9.44 347.06 9.44 351.01 43.16 381.26 73.99 381.26 35.87 347.06"/></clipPath><clipPath id="clip-path-4" transform="translate(4.71)"><polygon id="SVGID-4" data-name="SVGID" class="cls-1" points="144.99 347.06 114.15 347.06 152.28 381.26 183.11 381.26 144.99 347.06"/></clipPath><clipPath id="clip-path-5" transform="translate(4.71)"><polygon id="SVGID-5" data-name="SVGID" class="cls-1" points="72.25 347.06 41.41 347.06 79.53 381.26 110.36 381.26 72.25 347.06"/></clipPath><clipPath id="clip-path-6" transform="translate(4.71)"><polygon id="SVGID-6" data-name="SVGID" class="cls-1" points="108.62 347.06 77.78 347.06 115.9 381.26 146.74 381.26 108.62 347.06"/></clipPath><clipPath id="clip-path-7" transform="translate(4.71)"><polygon id="SVGID-7" data-name="SVGID" class="cls-1" points="1.63 338.12 0 338.12 0 64.33 52.19 35.44 52.98 36.87 1.63 65.29 1.63 338.12"/></clipPath><clipPath id="clip-path-8" transform="translate(4.71)"><path id="SVGID-8" data-name="SVGID" class="cls-1" d="M56.28,37.08A5.24,5.24,0,1,1,51,31.84,5.24,5.24,0,0,1,56.28,37.08Z"/></clipPath><clipPath id="clip-path-9" transform="translate(4.71)"><polygon id="SVGID-9" data-name="SVGID" class="cls-1" points="8.83 78.67 62.44 50.94 150.57 41.7 159.81 46.63 241.78 39.23 246.09 33.69 304.64 28.76 308.95 23.83 59.36 44.78 9.44 70.99 8.83 78.67"/></clipPath><clipPath id="clip-path-10" transform="translate(4.71)"><polygon id="SVGID-10" data-name="SVGID" class="cls-1" points="493.22 6.57 452.54 6.57 441.45 14.58 474.11 15.18 474.11 65.12 482.74 54.59 482.74 11.63 493.22 6.57"/></clipPath><clipPath id="clip-path-11" transform="translate(4.71)"><polygon id="SVGID-11" data-name="SVGID" class="cls-1" points="483.66 400.68 483.66 360 475.65 348.91 475.06 381.57 425.12 381.57 435.65 390.2 478.61 390.2 483.66 400.68"/></clipPath><clipPath id="clip-path-12" transform="translate(4.71)"><rect id="SVGID-12" data-name="SVGID" class="cls-1" x="459.32" y="155.09" width="13.56" height="14.17"/></clipPath><clipPath id="clip-path-13" transform="translate(4.71)"><polygon id="SVGID-13" data-name="SVGID" class="cls-1" points="472.88 193.3 459.32 193.3 459.32 206.24 459.98 207.47 472.88 207.47 472.88 193.3"/></clipPath><clipPath id="clip-path-14" transform="translate(4.71)"><polygon id="SVGID-14" data-name="SVGID" class="cls-1" points="472.88 92.85 472.88 72.51 459.32 86.07 459.32 92.85 472.88 92.85"/></clipPath><clipPath id="clip-path-15" transform="translate(4.71)"><rect id="SVGID-15" data-name="SVGID" class="cls-1" x="459.32" y="174.2" width="13.56" height="14.17"/></clipPath><clipPath id="clip-path-16" transform="translate(4.71)"><polygon id="SVGID-16" data-name="SVGID" class="cls-1" points="462.63 212.4 472.88 231.51 472.88 212.4 462.63 212.4"/></clipPath><clipPath id="clip-path-17" transform="translate(4.71)"><rect id="SVGID-17" data-name="SVGID" class="cls-1" x="459.32" y="135.99" width="13.56" height="14.17"/></clipPath><clipPath id="clip-path-18" transform="translate(4.71)"><rect id="SVGID-18" data-name="SVGID" class="cls-1" x="459.32" y="97.78" width="13.56" height="14.17"/></clipPath><clipPath id="clip-path-19" transform="translate(4.71)"><rect id="SVGID-19" data-name="SVGID" class="cls-1" x="459.32" y="116.88" width="13.56" height="14.17"/></clipPath><clipPath id="clip-path-20" transform="translate(4.71)"><polygon id="SVGID-20" data-name="SVGID" class="cls-1" points="10.06 331.96 105.58 331.96 114.83 325.8 175.84 325.8 240.24 381.57 229.98 381.26 181.38 338.74 9.44 338.74 10.06 331.96"/></clipPath></defs><title>message_12_green</title><g id="Layer_2" data-name="Layer 2"><g id="Layer_1-2" data-name="Layer 1"><polygon class="cls-2" points="474.51 340.59 474.51 238.9 457.87 211.17 457.87 81.75 480.05 62.34 480.05 15.2 404.25 15.2 64.07 44.78 14.15 70.99 14.15 338.74 186.09 338.74 234.69 381.26 480.05 381.26 480.05 340.59 474.51 340.59"/><path class="cls-1" d="M476.16,382.08H229.67l-.23-.2-48.36-42.32H8.63V70.49L59.13,44h.16L399.47,14.39h76.69V62.71L454,82.13V211l16.64,27.73V339.77h5.55Zm-245.87-1.63H474.53V341.4H469V239.13L452.34,211.4v-130L474.53,62V16h-75L59.6,45.58,10.26,71.48V337.92H181.69l.23.21Z" transform="translate(4.71)"/><g class="cls-3"><polygon id="SVGID-40" data-name="SVGID" class="cls-1" points="14.15 355.98 14.15 381.26 42.33 381.26 14.15 355.98"/><g class="cls-4"><rect class="cls-1" x="14.15" y="355.98" width="28.18" height="25.28"/><path class="cls-1" d="M23.22,381.74c-7.26,0-13.84-1.56-18.59-4.09h4V357.93h-4c4.75-2.52,11.33-4.08,18.59-4.08s13.83,1.56,18.59,4.08H38.44v19.72h3.37C37.05,380.18,30.48,381.74,23.22,381.74Z" transform="translate(4.71)"/><path class="cls-1" d="M23.22,374.77c-7.26,0-13.15-3.13-13.15-7s5.89-7,13.15-7,13.14,3.12,13.14,7S30.48,374.77,23.22,374.77Z" transform="translate(4.71)"/></g></g><polygon id="SVGID-41" data-name="SVGID" class="cls-1" points="193.36 381.26 221.22 381.26 183.68 347.06 155.24 347.06 193.36 381.26"/><g class="cls-5"><rect class="cls-1" x="155.24" y="347.06" width="65.98" height="34.2"/><polygon class="cls-1" points="187.49 382.08 154.42 382.08 154.42 346.24 222.03 346.24 222.03 382.08 187.49 382.08"/><path class="cls-1" d="M182.78,376.59c-14.11,0-25.55-6.06-25.55-13.55s11.44-13.55,25.55-13.55,25.56,6.07,25.56,13.55S196.9,376.59,182.78,376.59Z" transform="translate(4.71)"/></g><g class="cls-3"><polygon id="SVGID-42" data-name="SVGID" class="cls-1" points="40.58 347.06 14.15 347.06 14.15 351.01 47.87 381.26 78.7 381.26 40.58 347.06"/><g class="cls-6"><rect class="cls-1" x="14.15" y="347.06" width="64.55" height="34.2"/><path class="cls-1" d="M41,382.08H21.44v5.52a64.45,64.45,0,0,1-16-5.71H8.63V346.24H74.81v35.65h1.72a64.37,64.37,0,0,1-16,5.71v-5.52Z" transform="translate(4.71)"/><path class="cls-1" d="M41,376.37c-13.88,0-25.13-6-25.13-13.33S27.12,349.72,41,349.72s25.13,6,25.13,13.32S54.88,376.37,41,376.37Z" transform="translate(4.71)"/></g></g><g class="cls-7"><polygon id="SVGID-43" data-name="SVGID" class="cls-1" points="149.7 347.06 118.86 347.06 156.98 381.26 187.82 381.26 149.7 347.06"/><g class="cls-8"><rect class="cls-1" x="118.86" y="347.06" width="68.96" height="34.2"/><polygon class="cls-1" points="152.57 382.08 118.05 382.08 118.05 346.24 188.63 346.24 188.63 382.08 152.57 382.08"/><path class="cls-1" d="M147.86,377.07c-14.61,0-26.45-6.28-26.45-14s11.84-14,26.45-14,26.45,6.28,26.45,14S162.47,377.07,147.86,377.07Z" transform="translate(4.71)"/></g></g><g class="cls-9"><polygon id="SVGID-44" data-name="SVGID" class="cls-1" points="76.95 347.06 46.12 347.06 84.24 381.26 115.07 381.26 76.95 347.06"/><g class="cls-10"><rect class="cls-1" x="46.12" y="347.06" width="68.96" height="34.2"/><polygon class="cls-1" points="79.83 382.08 45.3 382.08 45.3 346.24 115.89 346.24 115.89 382.08 79.83 382.08"/><path class="cls-1" d="M75.12,377.07c-14.61,0-26.45-6.28-26.45-14s11.84-14,26.45-14,26.45,6.28,26.45,14S89.73,377.07,75.12,377.07Z" transform="translate(4.71)"/></g></g><g class="cls-11"><polygon id="SVGID-45" data-name="SVGID" class="cls-1" points="113.33 347.06 82.49 347.06 120.61 381.26 151.45 381.26 113.33 347.06"/><g class="cls-12"><rect class="cls-1" x="82.49" y="347.06" width="68.96" height="34.2"/><polygon class="cls-1" points="116.2 382.08 81.67 382.08 81.67 346.24 152.26 346.24 152.26 382.08 116.2 382.08"/><path class="cls-1" d="M111.49,377.07c-14.61,0-26.45-6.28-26.45-14s11.84-14,26.45-14,26.45,6.28,26.45,14S126.1,377.07,111.49,377.07Z" transform="translate(4.71)"/></g></g><polygon id="SVGID-46" data-name="SVGID" class="cls-1" points="6.34 338.12 4.71 338.12 4.71 64.33 56.9 35.44 57.69 36.87 6.34 65.29 6.34 338.12"/><g class="cls-13"><rect class="cls-1" x="4.71" y="35.44" width="52.98" height="302.69"/><path class="cls-1" d="M26.49,295.42q-10.6,0-20.95-.56-5.16-.27-10.25-.69H-.82V79.39H-4.71c3.39-.27,6.81-.51,10.25-.69q10.34-.56,21-.56t20.94.56c3.45.18,6.87.42,10.26.69h-3.9V294.17h3.9q-5.09.42-10.26.69Q37.11,295.42,26.49,295.42Z" transform="translate(4.71)"/><path class="cls-1" d="M26.49,241.1A192.34,192.34,0,0,1,5.85,240q-5-.54-9.82-1.34H-.82V134.9H-4q4.81-.79,9.82-1.34a194.19,194.19,0,0,1,41.28,0q5,.54,9.82,1.34H53.79V238.66H57q-4.81.79-9.82,1.34A192.48,192.48,0,0,1,26.49,241.1Z" transform="translate(4.71)"/></g><path id="SVGID-47" data-name="SVGID" class="cls-1" d="M56.28,37.08A5.24,5.24,0,1,1,51,31.84,5.24,5.24,0,0,1,56.28,37.08Z" transform="translate(4.71)"/><g class="cls-14"><rect class="cls-1" x="50.51" y="31.84" width="10.48" height="10.48"/><ellipse class="cls-1" cx="55.75" cy="37.08" rx="9.88" ry="5.24"/><path class="cls-1" d="M51,39.69c-2.73,0-4.94-1.17-4.94-2.61s2.21-2.62,4.94-2.62S56,35.63,56,37.08,53.77,39.69,51,39.69Z" transform="translate(4.71)"/></g><polygon id="SVGID-48" data-name="SVGID" class="cls-1" points="13.54 78.67 67.15 50.94 155.28 41.7 164.52 46.63 246.49 39.23 250.8 33.69 309.35 28.76 313.66 23.83 64.07 44.78 14.15 70.99 13.54 78.67"/><g class="cls-15"><rect class="cls-1" x="13.54" y="23.83" width="300.12" height="54.85"/><polygon class="cls-1" points="163.6 79.49 19.78 79.49 12.72 79.49 12.72 23.01 314.48 23.01 314.48 79.49 163.6 79.49"/><path class="cls-1" d="M158.89,79.49H74.56V81.4a56.74,56.74,0,0,1-9.38-9.16c-5.14-6.45-8-13.54-8-21s2.85-14.54,8-21a56.74,56.74,0,0,1,9.38-9.16V23H243.22V21.1a56.28,56.28,0,0,1,9.37,9.16c5.15,6.45,8,13.54,8,21s-2.85,14.54-8,21a56.28,56.28,0,0,1-9.37,9.16V79.49Z" transform="translate(4.71)"/></g><polygon id="SVGID-49" data-name="SVGID" class="cls-1" points="497.93 6.57 457.25 6.57 446.16 14.58 478.82 15.18 478.82 65.12 487.45 54.59 487.45 11.63 497.93 6.57"/><g class="cls-16"><rect class="cls-1" x="446.16" y="6.57" width="51.77" height="58.55"/><path class="cls-1" d="M467.33,63.47a93.07,93.07,0,0,1-20.28-2.17,74,74,0,0,1-8.85-2.55h2.43V12.93H438.2a75.88,75.88,0,0,1,8.85-2.55,95.85,95.85,0,0,1,40.56,0,75.32,75.32,0,0,1,8.85,2.55H494V58.75h2.43a73.45,73.45,0,0,1-8.85,2.55A92.93,92.93,0,0,1,467.33,63.47Z" transform="translate(4.71)"/><path class="cls-1" d="M467.33,49.66c-14.38,0-26.05-6.19-26.05-13.82S453,22,467.33,22s26.05,6.18,26.05,13.81S481.72,49.66,467.33,49.66Z" transform="translate(4.71)"/></g><polygon id="SVGID-50" data-name="SVGID" class="cls-1" points="488.37 400.68 488.37 360 480.36 348.91 479.77 381.57 429.83 381.57 440.36 390.2 483.31 390.2 488.37 400.68"/><g class="cls-17"><rect class="cls-1" x="429.83" y="348.91" width="58.55" height="51.77"/><path class="cls-1" d="M426.76,374.79a93.07,93.07,0,0,1,2.17-20.28,75.88,75.88,0,0,1,2.55-8.85v2.43H477.3v-2.43a75.88,75.88,0,0,1,2.55,8.85,95.85,95.85,0,0,1,0,40.56,75.32,75.32,0,0,1-2.55,8.85v-2.43H431.48v2.43a75.32,75.32,0,0,1-2.55-8.85A92.93,92.93,0,0,1,426.76,374.79Z" transform="translate(4.71)"/><path class="cls-1" d="M440.58,374.79c0-14.38,6.18-26.05,13.81-26.05s13.82,11.67,13.82,26.05-6.19,26-13.82,26S440.58,389.18,440.58,374.79Z" transform="translate(4.71)"/></g><g class="cls-18"><rect id="SVGID-51" data-name="SVGID" class="cls-1" x="464.03" y="155.09" width="13.56" height="14.17"/><g class="cls-19"><rect class="cls-1" x="464.03" y="155.09" width="13.56" height="14.17"/><path class="cls-1" d="M467.33,168.53c-6.67,0-12.09-2.87-12.09-6.41s5.42-6.41,12.09-6.41a18.67,18.67,0,0,1,8.55,1.88h-2.19v9.07h2.19A18.67,18.67,0,0,1,467.33,168.53Z" transform="translate(4.71)"/><path class="cls-1" d="M467.33,165.33c-3.34,0-6-1.44-6-3.21s2.7-3.2,6-3.2,6.05,1.43,6.05,3.2S470.67,165.33,467.33,165.33Z" transform="translate(4.71)"/></g></g><g class="cls-20"><polygon id="SVGID-52" data-name="SVGID" class="cls-1" points="477.59 193.3 464.03 193.3 464.03 206.24 464.69 207.47 477.59 207.47 477.59 193.3"/><g class="cls-21"><rect class="cls-1" x="464.03" y="193.3" width="13.56" height="14.17"/><path class="cls-1" d="M467.33,206.74c-6.67,0-12.09-2.87-12.09-6.41s5.42-6.41,12.09-6.41a18.67,18.67,0,0,1,8.55,1.88h-2.19v9.07h2.19A18.67,18.67,0,0,1,467.33,206.74Z" transform="translate(4.71)"/><path class="cls-1" d="M467.33,203.54c-3.34,0-6-1.44-6-3.21s2.7-3.2,6-3.2,6.05,1.43,6.05,3.2S470.67,203.54,467.33,203.54Z" transform="translate(4.71)"/></g></g><polygon id="SVGID-53" data-name="SVGID" class="cls-1" points="477.59 92.85 477.59 72.51 464.03 86.07 464.03 92.85 477.59 92.85"/><g class="cls-22"><rect class="cls-1" x="464.03" y="72.51" width="13.56" height="20.34"/><path class="cls-1" d="M467.33,90.86a24,24,0,0,1-11-2.42h2.19V76.76h-2.19a26.28,26.28,0,0,1,22,0h-4.66V88.44h4.66A24,24,0,0,1,467.33,90.86Z" transform="translate(4.71)"/><path class="cls-1" d="M467.33,86.73c-4.3,0-7.79-1.85-7.79-4.13s3.49-4.13,7.79-4.13,7.79,1.85,7.79,4.13S471.63,86.73,467.33,86.73Z" transform="translate(4.71)"/></g><g class="cls-9"><rect id="SVGID-54" data-name="SVGID" class="cls-1" x="464.03" y="174.2" width="13.56" height="14.17"/><g class="cls-23"><rect class="cls-1" x="464.03" y="174.2" width="13.56" height="14.17"/><path class="cls-1" d="M467.33,187.64c-6.67,0-12.09-2.87-12.09-6.41s5.42-6.41,12.09-6.41a18.54,18.54,0,0,1,8.55,1.88h-2.19v9.06h2.19A18.67,18.67,0,0,1,467.33,187.64Z" transform="translate(4.71)"/><path class="cls-1" d="M467.33,184.43c-3.34,0-6-1.43-6-3.2s2.7-3.21,6-3.21,6.05,1.44,6.05,3.21S470.67,184.43,467.33,184.43Z" transform="translate(4.71)"/></g></g><g class="cls-3"><polygon id="SVGID-55" data-name="SVGID" class="cls-1" points="467.34 212.4 477.59 231.51 477.59 212.4 467.34 212.4"/><g class="cls-24"><rect class="cls-1" x="467.34" y="212.4" width="10.25" height="19.1"/><path class="cls-1" d="M468.69,229.33a21.76,21.76,0,0,1-9.93-2.18h3.05V216.62h-3.05a23.68,23.68,0,0,1,19.85,0h-4.92v10.53h4.92A21.75,21.75,0,0,1,468.69,229.33Z" transform="translate(4.71)"/><ellipse class="cls-1" cx="473.39" cy="221.88" rx="7.02" ry="3.72"/></g></g><g class="cls-11"><rect id="SVGID-56" data-name="SVGID" class="cls-1" x="464.03" y="135.99" width="13.56" height="14.17"/><g class="cls-25"><rect class="cls-1" x="464.03" y="135.99" width="13.56" height="14.17"/><path class="cls-1" d="M467.33,149.43c-6.67,0-12.09-2.87-12.09-6.41s5.42-6.41,12.09-6.41a18.67,18.67,0,0,1,8.55,1.88h-2.19v9.06h2.19A18.67,18.67,0,0,1,467.33,149.43Z" transform="translate(4.71)"/><path class="cls-1" d="M467.33,146.22c-3.34,0-6-1.43-6-3.2s2.7-3.21,6-3.21,6.05,1.44,6.05,3.21S470.67,146.22,467.33,146.22Z" transform="translate(4.71)"/></g></g><g class="cls-7"><rect id="SVGID-57" data-name="SVGID" class="cls-1" x="464.03" y="97.78" width="13.56" height="14.17"/><g class="cls-26"><rect class="cls-1" x="464.03" y="97.78" width="13.56" height="14.17"/><path class="cls-1" d="M467.33,111.22c-6.67,0-12.09-2.87-12.09-6.41s5.42-6.41,12.09-6.41a18.67,18.67,0,0,1,8.55,1.88h-2.19v9.06h2.19A18.67,18.67,0,0,1,467.33,111.22Z" transform="translate(4.71)"/><path class="cls-1" d="M467.33,108c-3.34,0-6-1.44-6-3.21s2.7-3.2,6-3.2,6.05,1.43,6.05,3.2S470.67,108,467.33,108Z" transform="translate(4.71)"/></g></g><g class="cls-27"><rect id="SVGID-58" data-name="SVGID" class="cls-1" x="464.03" y="116.88" width="13.56" height="14.17"/><g class="cls-28"><rect class="cls-1" x="464.03" y="116.88" width="13.56" height="14.17"/><path class="cls-1" d="M467.33,130.33c-6.67,0-12.09-2.87-12.09-6.42s5.42-6.41,12.09-6.41a18.67,18.67,0,0,1,8.55,1.88h-2.19v9.07h2.19A18.67,18.67,0,0,1,467.33,130.33Z" transform="translate(4.71)"/><path class="cls-1" d="M467.33,127.12c-3.34,0-6-1.43-6-3.21s2.7-3.2,6-3.2,6.05,1.43,6.05,3.2S470.67,127.12,467.33,127.12Z" transform="translate(4.71)"/></g></g><polygon id="SVGID-59" data-name="SVGID" class="cls-1" points="14.77 331.96 110.29 331.96 119.53 325.8 180.54 325.8 244.95 381.57 234.69 381.26 186.09 338.74 14.15 338.74 14.77 331.96"/><g class="cls-29"><rect class="cls-1" x="14.15" y="325.8" width="230.79" height="55.77"/><polygon class="cls-1" points="129.55 382.39 17.62 382.39 13.34 382.39 13.34 324.98 245.76 324.98 245.76 382.39 129.55 382.39"/><path class="cls-1" d="M124.84,382.39h-56v1c-14.33-7.59-23.18-18.08-23.18-29.68S54.55,331.6,68.88,324v1H180.8v-1c14.33,7.6,23.18,18.09,23.18,29.68s-8.85,22.09-23.18,29.68v-1Z" transform="translate(4.71)"/></g><polygon class="cls-1" points="457.87 81.75 451.09 88.53 451.09 154.47 454.17 165.57 454.17 205.93 459.1 214.56 457.87 81.75"/><polygon class="cls-1" points="426.44 373.35 248.79 373.35 248.68 373.24 187.78 316.96 158.36 316.96 158.36 316.15 188.1 316.15 188.22 316.25 249.11 372.54 426.44 372.54 426.44 373.35"/><polygon class="cls-1" points="443.49 152.01 442.67 152.01 442.67 84.35 442.8 84.22 470.4 59.39 470.4 23 403.33 23 403.33 22.19 471.22 22.19 471.22 59.75 471.08 59.87 443.49 84.71 443.49 152.01"/><polygon class="cls-1" points="441.36 9.13 404.25 9.13 404.25 8.32 441.1 8.32 453.12 0 493.92 0 493.92 0.82 453.37 0.82 441.36 9.13"/><polygon class="cls-1" points="478.2 397.38 437.36 397.38 429.97 389.99 394.08 389.99 394.08 389.18 430.3 389.18 437.7 396.57 478.2 396.57 478.2 397.38"/><g class="cls-3"><polygon id="SVGID-60" data-name="SVGID" class="cls-1" points="14.15 355.98 14.15 381.26 42.33 381.26 14.15 355.98"/><g class="cls-4"><rect class="cls-1" x="14.15" y="355.98" width="28.18" height="25.28"/><path class="cls-1" d="M23.22,381.74c-7.26,0-13.84-1.56-18.59-4.09h4V357.93h-4c4.75-2.52,11.33-4.08,18.59-4.08s13.83,1.56,18.59,4.08H38.44v19.72h3.37C37.05,380.18,30.48,381.74,23.22,381.74Z" transform="translate(4.71)"/><path class="cls-1" d="M23.22,374.77c-7.26,0-13.15-3.13-13.15-7s5.89-7,13.15-7,13.14,3.12,13.14,7S30.48,374.77,23.22,374.77Z" transform="translate(4.71)"/></g></g><polygon id="SVGID-61" data-name="SVGID" class="cls-1" points="193.36 381.26 221.22 381.26 183.68 347.06 155.24 347.06 193.36 381.26"/><g class="cls-5"><rect class="cls-1" x="155.24" y="347.06" width="65.98" height="34.2"/><polygon class="cls-1" points="187.49 382.08 154.42 382.08 154.42 346.24 222.03 346.24 222.03 382.08 187.49 382.08"/><path class="cls-1" d="M182.78,376.59c-14.11,0-25.55-6.06-25.55-13.55s11.44-13.55,25.55-13.55,25.56,6.07,25.56,13.55S196.9,376.59,182.78,376.59Z" transform="translate(4.71)"/></g><g class="cls-3"><polygon id="SVGID-62" data-name="SVGID" class="cls-1" points="40.58 347.06 14.15 347.06 14.15 351.01 47.87 381.26 78.7 381.26 40.58 347.06"/><g class="cls-6"><rect class="cls-1" x="14.15" y="347.06" width="64.55" height="34.2"/><path class="cls-1" d="M41,382.08H21.44v5.52a64.45,64.45,0,0,1-16-5.71H8.63V346.24H74.81v35.65h1.72a64.37,64.37,0,0,1-16,5.71v-5.52Z" transform="translate(4.71)"/><path class="cls-1" d="M41,376.37c-13.88,0-25.13-6-25.13-13.33S27.12,349.72,41,349.72s25.13,6,25.13,13.32S54.88,376.37,41,376.37Z" transform="translate(4.71)"/></g></g><g class="cls-7"><polygon id="SVGID-63" data-name="SVGID" class="cls-1" points="149.7 347.06 118.86 347.06 156.98 381.26 187.82 381.26 149.7 347.06"/><g class="cls-8"><rect class="cls-1" x="118.86" y="347.06" width="68.96" height="34.2"/><polygon class="cls-1" points="152.57 382.08 118.05 382.08 118.05 346.24 188.63 346.24 188.63 382.08 152.57 382.08"/><path class="cls-1" d="M147.86,377.07c-14.61,0-26.45-6.28-26.45-14s11.84-14,26.45-14,26.45,6.28,26.45,14S162.47,377.07,147.86,377.07Z" transform="translate(4.71)"/></g></g><g class="cls-9"><polygon id="SVGID-64" data-name="SVGID" class="cls-1" points="76.95 347.06 46.12 347.06 84.24 381.26 115.07 381.26 76.95 347.06"/><g class="cls-10"><rect class="cls-1" x="46.12" y="347.06" width="68.96" height="34.2"/><polygon class="cls-1" points="79.83 382.08 45.3 382.08 45.3 346.24 115.89 346.24 115.89 382.08 79.83 382.08"/><path class="cls-1" d="M75.12,377.07c-14.61,0-26.45-6.28-26.45-14s11.84-14,26.45-14,26.45,6.28,26.45,14S89.73,377.07,75.12,377.07Z" transform="translate(4.71)"/></g></g><g class="cls-11"><polygon id="SVGID-65" data-name="SVGID" class="cls-1" points="113.33 347.06 82.49 347.06 120.61 381.26 151.45 381.26 113.33 347.06"/><g class="cls-12"><rect class="cls-1" x="82.49" y="347.06" width="68.96" height="34.2"/><polygon class="cls-1" points="116.2 382.08 81.67 382.08 81.67 346.24 152.26 346.24 152.26 382.08 116.2 382.08"/><path class="cls-1" d="M111.49,377.07c-14.61,0-26.45-6.28-26.45-14s11.84-14,26.45-14,26.45,6.28,26.45,14S126.1,377.07,111.49,377.07Z" transform="translate(4.71)"/></g></g><path id="SVGID-66" data-name="SVGID" class="cls-1" d="M56.28,37.08A5.24,5.24,0,1,1,51,31.84,5.24,5.24,0,0,1,56.28,37.08Z" transform="translate(4.71)"/><g class="cls-14"><rect class="cls-1" x="50.51" y="31.84" width="10.48" height="10.48"/><ellipse class="cls-1" cx="55.75" cy="37.08" rx="9.88" ry="5.24"/><path class="cls-1" d="M51,39.69c-2.73,0-4.94-1.17-4.94-2.61s2.21-2.62,4.94-2.62S56,35.63,56,37.08,53.77,39.69,51,39.69Z" transform="translate(4.71)"/></g><polygon id="SVGID-67" data-name="SVGID" class="cls-1" points="13.54 78.67 67.15 50.94 155.28 41.7 164.52 46.63 246.49 39.23 250.8 33.69 309.35 28.76 313.66 23.83 64.07 44.78 14.15 70.99 13.54 78.67"/><g class="cls-15"><rect class="cls-1" x="13.54" y="23.83" width="300.12" height="54.85"/><polygon class="cls-1" points="163.6 79.49 19.78 79.49 12.72 79.49 12.72 23.01 314.48 23.01 314.48 79.49 163.6 79.49"/><path class="cls-1" d="M158.89,79.49H74.56V81.4a56.74,56.74,0,0,1-9.38-9.16c-5.14-6.45-8-13.54-8-21s2.85-14.54,8-21a56.74,56.74,0,0,1,9.38-9.16V23H243.22V21.1a56.28,56.28,0,0,1,9.37,9.16c5.15,6.45,8,13.54,8,21s-2.85,14.54-8,21a56.28,56.28,0,0,1-9.37,9.16V79.49Z" transform="translate(4.71)"/></g><polygon id="SVGID-68" data-name="SVGID" class="cls-1" points="497.93 6.57 457.25 6.57 446.16 14.58 478.82 15.18 478.82 65.12 487.45 54.59 487.45 11.63 497.93 6.57"/><g class="cls-16"><rect class="cls-1" x="446.16" y="6.57" width="51.77" height="58.55"/><path class="cls-1" d="M467.33,63.47a93.07,93.07,0,0,1-20.28-2.17,74,74,0,0,1-8.85-2.55h2.43V12.93H438.2a75.88,75.88,0,0,1,8.85-2.55,95.85,95.85,0,0,1,40.56,0,75.32,75.32,0,0,1,8.85,2.55H494V58.75h2.43a73.45,73.45,0,0,1-8.85,2.55A92.93,92.93,0,0,1,467.33,63.47Z" transform="translate(4.71)"/><path class="cls-1" d="M467.33,49.66c-14.38,0-26.05-6.19-26.05-13.82S453,22,467.33,22s26.05,6.18,26.05,13.81S481.72,49.66,467.33,49.66Z" transform="translate(4.71)"/></g><polygon id="SVGID-69" data-name="SVGID" class="cls-1" points="488.37 400.68 488.37 360 480.36 348.91 479.77 381.57 429.83 381.57 440.36 390.2 483.31 390.2 488.37 400.68"/><g class="cls-17"><rect class="cls-1" x="429.83" y="348.91" width="58.55" height="51.77"/><path class="cls-1" d="M426.76,374.79a93.07,93.07,0,0,1,2.17-20.28,75.88,75.88,0,0,1,2.55-8.85v2.43H477.3v-2.43a75.88,75.88,0,0,1,2.55,8.85,95.85,95.85,0,0,1,0,40.56,75.32,75.32,0,0,1-2.55,8.85v-2.43H431.48v2.43a75.32,75.32,0,0,1-2.55-8.85A92.93,92.93,0,0,1,426.76,374.79Z" transform="translate(4.71)"/><path class="cls-1" d="M440.58,374.79c0-14.38,6.18-26.05,13.81-26.05s13.82,11.67,13.82,26.05-6.19,26-13.82,26S440.58,389.18,440.58,374.79Z" transform="translate(4.71)"/></g><g class="cls-18"><rect id="SVGID-70" data-name="SVGID" class="cls-1" x="464.03" y="155.09" width="13.56" height="14.17"/><g class="cls-19"><rect class="cls-1" x="464.03" y="155.09" width="13.56" height="14.17"/><path class="cls-1" d="M467.33,168.53c-6.67,0-12.09-2.87-12.09-6.41s5.42-6.41,12.09-6.41a18.67,18.67,0,0,1,8.55,1.88h-2.19v9.07h2.19A18.67,18.67,0,0,1,467.33,168.53Z" transform="translate(4.71)"/><path class="cls-1" d="M467.33,165.33c-3.34,0-6-1.44-6-3.21s2.7-3.2,6-3.2,6.05,1.43,6.05,3.2S470.67,165.33,467.33,165.33Z" transform="translate(4.71)"/></g></g><g class="cls-20"><polygon id="SVGID-71" data-name="SVGID" class="cls-1" points="477.59 193.3 464.03 193.3 464.03 206.24 464.69 207.47 477.59 207.47 477.59 193.3"/><g class="cls-21"><rect class="cls-1" x="464.03" y="193.3" width="13.56" height="14.17"/><path class="cls-1" d="M467.33,206.74c-6.67,0-12.09-2.87-12.09-6.41s5.42-6.41,12.09-6.41a18.67,18.67,0,0,1,8.55,1.88h-2.19v9.07h2.19A18.67,18.67,0,0,1,467.33,206.74Z" transform="translate(4.71)"/><path class="cls-1" d="M467.33,203.54c-3.34,0-6-1.44-6-3.21s2.7-3.2,6-3.2,6.05,1.43,6.05,3.2S470.67,203.54,467.33,203.54Z" transform="translate(4.71)"/></g></g><polygon id="SVGID-72" data-name="SVGID" class="cls-1" points="477.59 92.85 477.59 72.51 464.03 86.07 464.03 92.85 477.59 92.85"/><g class="cls-22"><rect class="cls-1" x="464.03" y="72.51" width="13.56" height="20.34"/><path class="cls-1" d="M467.33,90.86a24,24,0,0,1-11-2.42h2.19V76.76h-2.19a26.28,26.28,0,0,1,22,0h-4.66V88.44h4.66A24,24,0,0,1,467.33,90.86Z" transform="translate(4.71)"/><path class="cls-1" d="M467.33,86.73c-4.3,0-7.79-1.85-7.79-4.13s3.49-4.13,7.79-4.13,7.79,1.85,7.79,4.13S471.63,86.73,467.33,86.73Z" transform="translate(4.71)"/></g><g class="cls-9"><rect id="SVGID-73" data-name="SVGID" class="cls-1" x="464.03" y="174.2" width="13.56" height="14.17"/><g class="cls-23"><rect class="cls-1" x="464.03" y="174.2" width="13.56" height="14.17"/><path class="cls-1" d="M467.33,187.64c-6.67,0-12.09-2.87-12.09-6.41s5.42-6.41,12.09-6.41a18.54,18.54,0,0,1,8.55,1.88h-2.19v9.06h2.19A18.67,18.67,0,0,1,467.33,187.64Z" transform="translate(4.71)"/><path class="cls-1" d="M467.33,184.43c-3.34,0-6-1.43-6-3.2s2.7-3.21,6-3.21,6.05,1.44,6.05,3.21S470.67,184.43,467.33,184.43Z" transform="translate(4.71)"/></g></g><g class="cls-3"><polygon id="SVGID-74" data-name="SVGID" class="cls-1" points="467.34 212.4 477.59 231.51 477.59 212.4 467.34 212.4"/><g class="cls-24"><rect class="cls-1" x="467.34" y="212.4" width="10.25" height="19.1"/><path class="cls-1" d="M468.69,229.33a21.76,21.76,0,0,1-9.93-2.18h3.05V216.62h-3.05a23.68,23.68,0,0,1,19.85,0h-4.92v10.53h4.92A21.75,21.75,0,0,1,468.69,229.33Z" transform="translate(4.71)"/><ellipse class="cls-1" cx="473.39" cy="221.88" rx="7.02" ry="3.72"/></g></g><g class="cls-11"><rect id="SVGID-75" data-name="SVGID" class="cls-1" x="464.03" y="135.99" width="13.56" height="14.17"/><g class="cls-25"><rect class="cls-1" x="464.03" y="135.99" width="13.56" height="14.17"/><path class="cls-1" d="M467.33,149.43c-6.67,0-12.09-2.87-12.09-6.41s5.42-6.41,12.09-6.41a18.67,18.67,0,0,1,8.55,1.88h-2.19v9.06h2.19A18.67,18.67,0,0,1,467.33,149.43Z" transform="translate(4.71)"/><path class="cls-1" d="M467.33,146.22c-3.34,0-6-1.43-6-3.2s2.7-3.21,6-3.21,6.05,1.44,6.05,3.21S470.67,146.22,467.33,146.22Z" transform="translate(4.71)"/></g></g><g class="cls-7"><rect id="SVGID-76" data-name="SVGID" class="cls-1" x="464.03" y="97.78" width="13.56" height="14.17"/><g class="cls-26"><rect class="cls-1" x="464.03" y="97.78" width="13.56" height="14.17"/><path class="cls-1" d="M467.33,111.22c-6.67,0-12.09-2.87-12.09-6.41s5.42-6.41,12.09-6.41a18.67,18.67,0,0,1,8.55,1.88h-2.19v9.06h2.19A18.67,18.67,0,0,1,467.33,111.22Z" transform="translate(4.71)"/><path class="cls-1" d="M467.33,108c-3.34,0-6-1.44-6-3.21s2.7-3.2,6-3.2,6.05,1.43,6.05,3.2S470.67,108,467.33,108Z" transform="translate(4.71)"/></g></g><g class="cls-27"><rect id="SVGID-77" data-name="SVGID" class="cls-1" x="464.03" y="116.88" width="13.56" height="14.17"/><g class="cls-28"><rect class="cls-1" x="464.03" y="116.88" width="13.56" height="14.17"/><path class="cls-1" d="M467.33,130.33c-6.67,0-12.09-2.87-12.09-6.42s5.42-6.41,12.09-6.41a18.67,18.67,0,0,1,8.55,1.88h-2.19v9.07h2.19A18.67,18.67,0,0,1,467.33,130.33Z" transform="translate(4.71)"/><path class="cls-1" d="M467.33,127.12c-3.34,0-6-1.43-6-3.21s2.7-3.2,6-3.2,6.05,1.43,6.05,3.2S470.67,127.12,467.33,127.12Z" transform="translate(4.71)"/></g></g><polygon id="SVGID-78" data-name="SVGID" class="cls-1" points="14.77 331.96 110.29 331.96 119.53 325.8 180.54 325.8 244.95 381.57 234.69 381.26 186.09 338.74 14.15 338.74 14.77 331.96"/><g class="cls-29"><rect class="cls-1" x="14.15" y="325.8" width="230.79" height="55.77"/><polygon class="cls-1" points="129.55 382.39 17.62 382.39 13.34 382.39 13.34 324.98 245.76 324.98 245.76 382.39 129.55 382.39"/><path class="cls-1" d="M124.84,382.39h-56v1c-14.33-7.59-23.18-18.08-23.18-29.68S54.55,331.6,68.88,324v1H180.8v-1c14.33,7.6,23.18,18.09,23.18,29.68s-8.85,22.09-23.18,29.68v-1Z" transform="translate(4.71)"/></g><polygon class="cls-1" points="457.87 81.75 451.09 88.53 451.09 154.47 454.17 165.57 454.17 205.93 459.1 214.56 457.87 81.75"/></g></g></svg>