<svg xmlns="http://www.w3.org/2000/svg" viewBox="0 0 380.83 495.64"><defs><style>.cls-1,.cls-2,.cls-3,.cls-4,.cls-5,.cls-6,.cls-7,.cls-8{fill:#11e5b3;}.cls-1{opacity:0.35;}.cls-3{opacity:0.6;}.cls-4{opacity:0.4;}.cls-5{opacity:0.1;}.cls-6{opacity:0.8;}.cls-7{opacity:0.3;}.cls-8{opacity:0.2;}</style></defs><title>message_08_green</title><g id="Layer_2" data-name="Layer 2"><g id="Layer_1-2" data-name="Layer 1"><polygon class="cls-1" points="368.96 485.18 354.77 468.28 354.77 279.55 368.96 266.78 368.96 2.31 366.28 2.31 353.69 13.17 257.7 13.17 235.98 0 14.62 0 14.62 37.97 26.34 43.72 26.34 201.18 14.62 206.21 14.62 487.55 368.96 487.55 368.96 485.18"/><path class="cls-2" d="M13.9,490.75V208.22l11.72-5V46.65L13.9,40.9V1.76H236.18L257.9,14.93h95.52L366,4.07h3.66V269.58l-14.19,12.77V470.51l14.19,16.89v3.35Zm1.43-281.58V489.31H368.24v-1.39L354.05,471V281.71l14.19-12.77V5.51h-1.69L354,16.37H257.5l-.17-.11L235.78,3.2H15.33V40l11.73,5.75V204.14Z"/><polygon class="cls-2" points="369.44 4.79 376.04 24.2 376.04 100.9 380.83 116.24 380.83 223.61 369.32 250.94 369.44 4.79"/><polygon class="cls-2" points="257.7 15.65 246.61 15.65 232.71 8.38 21.47 8.38 21.47 36.19 32.5 41.94 32.5 106.65 37.29 113.36 37.29 156.98 32.5 162.74 32.5 184.31 26.27 188.62 26.34 46.21 14.62 40.45 14.62 2.48 235.98 2.48 257.7 15.65"/><polygon class="cls-2" points="354.22 412.95 347.27 421.1 347.27 477.19 335.77 483.9 300.78 483.9 290.71 481.5 247.57 481.5 237.5 490.13 368.96 490.03 368.96 487.66 354.77 470.77 354.22 412.95"/><polygon class="cls-2" points="15 317.56 10.69 323.32 10.69 376.05 12.13 380.84 12.13 434.53 14.52 448.91 15 317.56"/><polygon class="cls-3" points="369.32 322.92 369.32 308.8 358.3 318.09 358.3 332.21 369.32 322.92"/><polygon class="cls-4" points="369.32 340.81 369.32 326.68 358.3 335.98 358.3 350.1 369.32 340.81"/><polygon class="cls-5" points="358.3 389.64 358.3 406.48 369.32 396.4 369.32 380.34 358.3 389.64"/><polygon class="cls-6" points="358.3 300.2 358.3 314.33 369.32 305.04 369.32 290.91 358.3 300.2"/><polygon class="cls-7" points="369.32 358.69 369.32 344.57 358.3 353.86 358.3 367.99 369.32 358.69"/><polygon class="cls-2" points="369.32 287.15 369.32 275.39 358.3 285.21 358.3 296.44 369.32 287.15"/><polygon class="cls-8" points="369.32 376.58 369.32 362.46 358.3 371.75 358.3 385.88 369.32 376.58"/><polygon class="cls-3" points="9.49 250.91 9.49 238.75 0 246.75 0 258.91 9.49 250.91"/><polygon class="cls-4" points="9.49 266.3 9.49 254.14 0 262.14 0 274.3 9.49 266.3"/><polygon class="cls-5" points="0 308.33 0 322.84 9.49 314.15 9.49 300.33 0 308.33"/><polygon class="cls-6" points="0 231.35 0 243.51 9.49 235.51 9.49 223.35 0 231.35"/><polygon class="cls-7" points="9.49 281.7 9.49 269.54 0 277.54 0 289.7 9.49 281.7"/><polygon class="cls-2" points="9.49 220.11 9.49 209.99 0 218.44 0 228.11 9.49 220.11"/><polygon class="cls-8" points="9.49 297.1 9.49 284.94 0 292.94 0 305.1 9.49 297.1"/><polygon class="cls-3" points="315.78 11.74 326.19 11.74 319.34 3.61 308.93 3.61 315.78 11.74"/><polygon class="cls-4" points="302.59 11.74 313.01 11.74 306.15 3.61 295.74 3.61 302.59 11.74"/><polygon class="cls-5" points="266.59 3.61 254.16 3.61 261.6 11.74 273.44 11.74 266.59 3.61"/><polygon class="cls-6" points="332.53 3.61 322.12 3.61 328.97 11.74 339.38 11.74 332.53 3.61"/><polygon class="cls-7" points="289.4 11.74 299.82 11.74 292.96 3.61 282.55 3.61 289.4 11.74"/><polygon class="cls-2" points="342.16 11.74 350.83 11.74 343.59 3.61 335.31 3.61 342.16 11.74"/><polygon class="cls-8" points="276.21 11.74 286.63 11.74 279.78 3.61 269.36 3.61 276.21 11.74"/><path class="cls-2" d="M27.83,34.75V14.14a.36.36,0,0,1,.36-.36h202.6a.27.27,0,0,1,.18.05l9.11,5.27a.36.36,0,1,1-.36.62l-9-5.22H28.54v20l10.6,5.65a.37.37,0,0,1,.19.32V98a.36.36,0,0,1-.72,0V40.72L28,35.07A.37.37,0,0,1,27.83,34.75Z"/><path class="cls-2" d="M39.21,100.9a2.64,2.64,0,1,1,2.64-2.64A2.64,2.64,0,0,1,39.21,100.9Z"/><path class="cls-2" d="M4.7,438.36a2.64,2.64,0,1,1,2.63-2.64A2.64,2.64,0,0,1,4.7,438.36Z"/><path class="cls-2" d="M346.32,385.15a2.64,2.64,0,1,1,2.63-2.63A2.64,2.64,0,0,1,346.32,385.15Z"/><path class="cls-2" d="M346,381.8V279.7a.35.35,0,0,1,.1-.26l16.19-15.71V241.35a.36.36,0,1,1,.72,0v22.53a.38.38,0,0,1-.11.26l-16.19,15.71V381.8a.36.36,0,1,1-.71,0Z"/><path class="cls-2" d="M4.94,436.44a.73.73,0,0,1,.48-.68.72.72,0,0,1,.91.45l3.36,9.58a.67.67,0,0,1,0,.24V494.2H233.67a.72.72,0,0,1,0,1.44H9a.72.72,0,0,1-.72-.72V446.15L5,436.68A.67.67,0,0,1,4.94,436.44Z"/><path class="cls-2" d="M281.48,22.77a.36.36,0,0,1,.36-.36h70.88l9-3.34a.39.39,0,0,1,.33,0,.36.36,0,0,1,.15.3v164.9a.36.36,0,0,1-.36.36.37.37,0,0,1-.36-.36V19.92l-8.62,3.18a.25.25,0,0,1-.12,0h-71A.36.36,0,0,1,281.48,22.77Z"/><polygon class="cls-2" points="369.44 4.79 376.04 24.2 376.04 100.9 380.83 116.24 380.83 223.61 369.32 250.94 369.44 4.79"/><polygon class="cls-2" points="257.7 15.65 246.61 15.65 232.71 8.38 21.47 8.38 21.47 36.19 32.5 41.94 32.5 106.65 37.29 113.36 37.29 156.98 32.5 162.74 32.5 184.31 26.27 188.62 26.34 46.21 14.62 40.45 14.62 2.48 235.98 2.48 257.7 15.65"/><polygon class="cls-2" points="354.22 412.95 347.27 421.1 347.27 477.19 335.77 483.9 300.78 483.9 290.71 481.5 247.57 481.5 237.5 490.13 368.96 490.03 368.96 487.66 354.77 470.77 354.22 412.95"/><polygon class="cls-2" points="15 317.56 10.69 323.32 10.69 376.05 12.13 380.84 12.13 434.53 14.52 448.91 15 317.56"/><polygon class="cls-3" points="369.32 322.92 369.32 308.8 358.3 318.09 358.3 332.21 369.32 322.92"/><polygon class="cls-4" points="369.32 340.81 369.32 326.68 358.3 335.98 358.3 350.1 369.32 340.81"/><polygon class="cls-5" points="358.3 389.64 358.3 406.48 369.32 396.4 369.32 380.34 358.3 389.64"/><polygon class="cls-6" points="358.3 300.2 358.3 314.33 369.32 305.04 369.32 290.91 358.3 300.2"/><polygon class="cls-7" points="369.32 358.69 369.32 344.57 358.3 353.86 358.3 367.99 369.32 358.69"/><polygon class="cls-2" points="369.32 287.15 369.32 275.39 358.3 285.21 358.3 296.44 369.32 287.15"/><polygon class="cls-8" points="369.32 376.58 369.32 362.46 358.3 371.75 358.3 385.88 369.32 376.58"/><polygon class="cls-3" points="9.49 250.91 9.49 238.75 0 246.75 0 258.91 9.49 250.91"/><polygon class="cls-4" points="9.49 266.3 9.49 254.14 0 262.14 0 274.3 9.49 266.3"/><polygon class="cls-5" points="0 308.33 0 322.84 9.49 314.15 9.49 300.33 0 308.33"/><polygon class="cls-6" points="0 231.35 0 243.51 9.49 235.51 9.49 223.35 0 231.35"/><polygon class="cls-7" points="9.49 281.7 9.49 269.54 0 277.54 0 289.7 9.49 281.7"/><polygon class="cls-2" points="9.49 220.11 9.49 209.99 0 218.44 0 228.11 9.49 220.11"/><polygon class="cls-8" points="9.49 297.1 9.49 284.94 0 292.94 0 305.1 9.49 297.1"/><polygon class="cls-3" points="315.78 11.74 326.19 11.74 319.34 3.61 308.93 3.61 315.78 11.74"/><polygon class="cls-4" points="302.59 11.74 313.01 11.74 306.15 3.61 295.74 3.61 302.59 11.74"/><polygon class="cls-5" points="266.59 3.61 254.16 3.61 261.6 11.74 273.44 11.74 266.59 3.61"/><polygon class="cls-6" points="332.53 3.61 322.12 3.61 328.97 11.74 339.38 11.74 332.53 3.61"/><polygon class="cls-7" points="289.4 11.74 299.82 11.74 292.96 3.61 282.55 3.61 289.4 11.74"/><polygon class="cls-2" points="342.16 11.74 350.83 11.74 343.59 3.61 335.31 3.61 342.16 11.74"/><polygon class="cls-8" points="276.21 11.74 286.63 11.74 279.78 3.61 269.36 3.61 276.21 11.74"/><path class="cls-2" d="M39.21,100.9a2.64,2.64,0,1,1,2.64-2.64A2.64,2.64,0,0,1,39.21,100.9Z"/><path class="cls-2" d="M4.7,438.36a2.64,2.64,0,1,1,2.63-2.64A2.64,2.64,0,0,1,4.7,438.36Z"/><path class="cls-2" d="M346.32,385.15a2.64,2.64,0,1,1,2.63-2.63A2.64,2.64,0,0,1,346.32,385.15Z"/></g></g></svg>