<svg xmlns="http://www.w3.org/2000/svg" xmlns:xlink="http://www.w3.org/1999/xlink" viewBox="0 0 490.93 285.54"><defs><style>.cls-1{opacity:0.35;fill:url(#New_Gradient_Swatch_5);}.cls-1,.cls-11,.cls-12,.cls-13,.cls-14,.cls-16,.cls-17,.cls-18,.cls-19,.cls-20,.cls-21,.cls-23,.cls-24,.cls-9{isolation:isolate;}.cls-2{fill:url(#New_Gradient_Swatch_5-2);}.cls-3{fill:url(#New_Gradient_Swatch_5-3);}.cls-4{fill:url(#New_Gradient_Swatch_5-4);}.cls-5{fill:url(#New_Gradient_Swatch_5-5);}.cls-6{fill:url(#New_Gradient_Swatch_5-6);}.cls-7{fill:url(#New_Gradient_Swatch_5-7);}.cls-8{fill:url(#New_Gradient_Swatch_5-8);}.cls-11,.cls-21,.cls-9{opacity:0.7;}.cls-9{fill:url(#New_Gradient_Swatch_5-9);}.cls-10{fill:url(#New_Gradient_Swatch_5-10);}.cls-11{fill:url(#New_Gradient_Swatch_5-11);}.cls-12,.cls-13,.cls-19,.cls-20{opacity:0.4;}.cls-12{fill:url(#New_Gradient_Swatch_5-12);}.cls-13{fill:url(#New_Gradient_Swatch_5-13);}.cls-14,.cls-16{opacity:0.2;}.cls-14{fill:url(#New_Gradient_Swatch_5-14);}.cls-15{fill:url(#New_Gradient_Swatch_5-15);}.cls-16{fill:url(#New_Gradient_Swatch_5-16);}.cls-17{opacity:0.5;fill:url(#New_Gradient_Swatch_5-17);}.cls-18{opacity:0.6;fill:url(#New_Gradient_Swatch_5-18);}.cls-19{fill:url(#New_Gradient_Swatch_5-19);}.cls-20{fill:url(#New_Gradient_Swatch_5-20);}.cls-21{fill:url(#New_Gradient_Swatch_5-21);}.cls-22{fill:url(#New_Gradient_Swatch_5-22);}.cls-23{opacity:0.9;fill:url(#New_Gradient_Swatch_5-23);}.cls-24{opacity:0.8;fill:url(#New_Gradient_Swatch_5-24);}.cls-25{fill:url(#New_Gradient_Swatch_5-25);}.cls-26{fill:url(#New_Gradient_Swatch_5-26);}.cls-27{fill:url(#New_Gradient_Swatch_5-27);}.cls-28{fill:url(#New_Gradient_Swatch_5-28);}.cls-29{fill:url(#New_Gradient_Swatch_5-29);}.cls-30{fill:url(#New_Gradient_Swatch_5-53);}.cls-31{fill:url(#New_Gradient_Swatch_5-54);}.cls-32{fill:url(#New_Gradient_Swatch_5-55);}.cls-33{fill:url(#New_Gradient_Swatch_5-56);}.cls-34{fill:url(#New_Gradient_Swatch_5-57);}.cls-35{fill:url(#New_Gradient_Swatch_5-58);}.cls-36{fill:url(#New_Gradient_Swatch_5-59);}</style><linearGradient id="New_Gradient_Swatch_5" x1="9.35" y1="105.38" x2="480.86" y2="105.38" gradientTransform="matrix(1, 0, 0, -1, 0, 252.3)" gradientUnits="userSpaceOnUse"><stop offset="0" stop-color="#11e5b3"/><stop offset="0.14" stop-color="#15dcb8"/><stop offset="0.36" stop-color="#21c4c6"/><stop offset="0.64" stop-color="#359edc"/><stop offset="0.97" stop-color="#4f68fb"/><stop offset="1" stop-color="#5263fe"/></linearGradient><linearGradient id="New_Gradient_Swatch_5-2" x1="9.33" y1="105.36" x2="482" y2="105.36" xlink:href="#New_Gradient_Swatch_5"/><linearGradient id="New_Gradient_Swatch_5-3" x1="9.35" y1="226.95" x2="108.82" y2="226.95" xlink:href="#New_Gradient_Swatch_5"/><linearGradient id="New_Gradient_Swatch_5-4" x1="2.26" y1="-30.17" x2="71.38" y2="-30.17" xlink:href="#New_Gradient_Swatch_5"/><linearGradient id="New_Gradient_Swatch_5-5" x1="344" y1="225.11" x2="482" y2="225.11" xlink:href="#New_Gradient_Swatch_5"/><linearGradient id="New_Gradient_Swatch_5-6" x1="350.66" y1="239.98" x2="450.79" y2="239.98" xlink:href="#New_Gradient_Swatch_5"/><linearGradient id="New_Gradient_Swatch_5-7" x1="9.26" y1="-16.37" x2="85.85" y2="-16.37" xlink:href="#New_Gradient_Swatch_5"/><linearGradient id="New_Gradient_Swatch_5-8" x1="406.96" y1="4.76" x2="490.93" y2="4.76" xlink:href="#New_Gradient_Swatch_5"/><linearGradient id="New_Gradient_Swatch_5-9" x1="477.22" y1="132.6" x2="482.51" y2="132.6" xlink:href="#New_Gradient_Swatch_5"/><linearGradient id="New_Gradient_Swatch_5-10" x1="477.22" y1="171.18" x2="482.51" y2="171.18" xlink:href="#New_Gradient_Swatch_5"/><linearGradient id="New_Gradient_Swatch_5-11" x1="477.22" y1="151.89" x2="482.51" y2="151.89" xlink:href="#New_Gradient_Swatch_5"/><linearGradient id="New_Gradient_Swatch_5-12" x1="477.22" y1="113.31" x2="482.51" y2="113.31" xlink:href="#New_Gradient_Swatch_5"/><linearGradient id="New_Gradient_Swatch_5-13" x1="477.22" y1="94.02" x2="482.51" y2="94.02" xlink:href="#New_Gradient_Swatch_5"/><linearGradient id="New_Gradient_Swatch_5-14" x1="477.22" y1="49.4" x2="482.51" y2="49.4" xlink:href="#New_Gradient_Swatch_5"/><linearGradient id="New_Gradient_Swatch_5-15" x1="477.22" y1="190.69" x2="482.51" y2="190.69" xlink:href="#New_Gradient_Swatch_5"/><linearGradient id="New_Gradient_Swatch_5-16" x1="477.22" y1="74.73" x2="482.51" y2="74.73" xlink:href="#New_Gradient_Swatch_5"/><linearGradient id="New_Gradient_Swatch_5-17" x1="227.96" y1="-1.76" x2="244.41" y2="-1.76" xlink:href="#New_Gradient_Swatch_5"/><linearGradient id="New_Gradient_Swatch_5-18" x1="204.14" y1="-1.76" x2="220.59" y2="-1.76" xlink:href="#New_Gradient_Swatch_5"/><linearGradient id="New_Gradient_Swatch_5-19" x1="251.79" y1="-1.76" x2="268.24" y2="-1.76" xlink:href="#New_Gradient_Swatch_5"/><linearGradient id="New_Gradient_Swatch_5-20" x1="275.62" y1="-1.76" x2="396.63" y2="-1.76" xlink:href="#New_Gradient_Swatch_5"/><linearGradient id="New_Gradient_Swatch_5-21" x1="180.31" y1="-1.76" x2="196.76" y2="-1.76" xlink:href="#New_Gradient_Swatch_5"/><linearGradient id="New_Gradient_Swatch_5-22" x1="101.98" y1="-1.76" x2="125.28" y2="-1.76" xlink:href="#New_Gradient_Swatch_5"/><linearGradient id="New_Gradient_Swatch_5-23" x1="132.65" y1="-1.76" x2="149.1" y2="-1.76" xlink:href="#New_Gradient_Swatch_5"/><linearGradient id="New_Gradient_Swatch_5-24" x1="156.48" y1="-1.76" x2="172.93" y2="-1.76" xlink:href="#New_Gradient_Swatch_5"/><linearGradient id="New_Gradient_Swatch_5-25" x1="119.61" y1="226.05" x2="450.93" y2="226.05" xlink:href="#New_Gradient_Swatch_5"/><linearGradient id="New_Gradient_Swatch_5-26" x1="2.16" y1="101.49" x2="71.38" y2="101.49" xlink:href="#New_Gradient_Swatch_5"/><linearGradient id="New_Gradient_Swatch_5-27" x1="277.98" y1="3.78" x2="411.45" y2="3.78" xlink:href="#New_Gradient_Swatch_5"/><linearGradient id="New_Gradient_Swatch_5-28" x1="464.83" y1="167.14" x2="473.78" y2="167.14" xlink:href="#New_Gradient_Swatch_5"/><linearGradient id="New_Gradient_Swatch_5-29" x1="0" y1="229.04" x2="5.67" y2="229.04" xlink:href="#New_Gradient_Swatch_5"/><linearGradient id="New_Gradient_Swatch_5-53" x1="127.82" y1="239.61" x2="170" y2="239.61" xlink:href="#New_Gradient_Swatch_5"/><linearGradient id="New_Gradient_Swatch_5-54" x1="165.7" y1="239.61" x2="195.17" y2="239.61" xlink:href="#New_Gradient_Swatch_5"/><linearGradient id="New_Gradient_Swatch_5-55" x1="197.28" y1="239.61" x2="223.87" y2="239.61" xlink:href="#New_Gradient_Swatch_5"/><linearGradient id="New_Gradient_Swatch_5-56" x1="226" y1="239.61" x2="252.43" y2="239.61" xlink:href="#New_Gradient_Swatch_5"/><linearGradient id="New_Gradient_Swatch_5-57" x1="256.42" y1="239.61" x2="264.49" y2="239.61" xlink:href="#New_Gradient_Swatch_5"/><linearGradient id="New_Gradient_Swatch_5-58" x1="268.49" y1="239.61" x2="294.9" y2="239.61" xlink:href="#New_Gradient_Swatch_5"/><linearGradient id="New_Gradient_Swatch_5-59" x1="298.87" y1="239.61" x2="325.28" y2="239.61" xlink:href="#New_Gradient_Swatch_5"/></defs><title>message_05_green_blue</title><g id="Layer_2" data-name="Layer 2"><g id="Layer_1-2" data-name="Layer 1"><g id="Layer_2-2" data-name="Layer 2"><g id="Layer_1-2-2" data-name="Layer 1-2"><polygon class="cls-1" points="480.86 46.34 480.86 29.47 344.28 29.47 328.72 43.39 133 43.39 107.92 29.47 9.35 29.47 9.35 264.37 83.52 264.37 102.74 244.22 393.87 244.22 407.05 264.37 480.86 264.37 480.86 221.91 470.83 211.88 470.83 51.05 480.86 46.34"/><path class="cls-2" d="M482,264.94H407.31l-13.18-20.15H103.55L84.33,264.94h-75v-236h99.29L133.7,42.86H329.07l15.56-13.92H482V46.7l-10,4.71V211.65l10,10Zm-74.07-1.13h72.94V222.14l-10-10V50.69l10-4.71V30H345.06L329.51,44H133.42L108.35,30H10.49V263.81H83.84l19.23-20.16H394.74Z"/><path class="cls-3" d="M95.73,21H11.62a2.27,2.27,0,0,0-2.27,2.27h0V29.7h99.47v-.92Z"/><path class="cls-4" d="M62.28,285.54H3.84A1.58,1.58,0,0,1,2.26,284V279.4H71.38v.65Z"/><path class="cls-5" d="M479.77,24.38H386.22l-3.66,3.4h-36.3a2.54,2.54,0,0,0-.39,0l-1.8,1.66A1.79,1.79,0,0,0,344,30H482V26.65A2.28,2.28,0,0,0,479.77,24.38Z"/><path class="cls-6" d="M449.14,10.23H381.29l-2.65,2.56H352L350.72,14a2.25,2.25,0,0,0-.06.36H450.79V11.93A1.69,1.69,0,0,0,449.14,10.23Z"/><path class="cls-7" d="M85.85,263.42H9.26v8.23a2.27,2.27,0,0,0,2.26,2.27H75.39Z"/><polygon class="cls-8" points="481.91 221.44 481.28 221.44 481.28 263.99 406.96 263.99 406.96 264.48 413.03 273.63 481.28 273.63 481.85 273.63 490.93 273.63 490.93 231 481.91 221.44"/><rect class="cls-9" x="477.22" y="112.51" width="5.3" height="14.37"/><rect class="cls-10" x="477.22" y="73.93" width="5.3" height="14.37"/><rect class="cls-11" x="477.22" y="93.22" width="5.3" height="14.37"/><rect class="cls-12" x="477.22" y="131.8" width="5.3" height="14.37"/><rect class="cls-13" x="477.22" y="151.09" width="5.3" height="14.37"/><polygon class="cls-14" points="477.22 189.66 477.22 207.82 482.51 216.14 482.51 189.66 477.22 189.66"/><polygon class="cls-15" points="482.51 69.01 482.51 54.21 477.22 56.53 477.22 69.01 482.51 69.01"/><rect class="cls-16" x="477.22" y="170.38" width="5.3" height="14.37"/><rect class="cls-17" x="227.96" y="249.8" width="16.45" height="8.51"/><rect class="cls-18" x="204.14" y="249.8" width="16.45" height="8.51"/><rect class="cls-19" x="251.79" y="249.8" width="16.45" height="8.51"/><polygon class="cls-20" points="275.62 258.31 396.63 258.31 388.52 249.8 275.62 249.8 275.62 258.31"/><rect class="cls-21" x="180.31" y="249.8" width="16.45" height="8.51"/><polygon class="cls-22" points="125.28 249.8 109.96 249.8 101.98 258.31 125.28 258.31 125.28 249.8"/><rect class="cls-23" x="132.65" y="249.8" width="16.45" height="8.51"/><rect class="cls-24" x="156.48" y="249.8" width="16.45" height="8.51"/><path class="cls-25" d="M322.14,38.75H137.19a.52.52,0,0,1-.3-.08l-17-10.78a.57.57,0,0,1-.2-.8.59.59,0,0,1,.8-.2l16.89,10.69H321.94l28.78-23.7a.66.66,0,0,1,.36-.13h99.28a.58.58,0,0,1,.57.57h0a.58.58,0,0,1-.57.57H351.28L322.5,38.62A.49.49,0,0,1,322.14,38.75Z"/><path class="cls-26" d="M70.81,280.44H2.73a.57.57,0,0,1-.57-.57h0V21.73a.57.57,0,0,1,.57-.56.57.57,0,0,1,.57.55h0V279.3H70.81a.58.58,0,0,1,.57.57h0a.55.55,0,0,1-.55.57Z"/><polygon class="cls-27" points="410.98 259.61 396.12 237.99 277.98 237.99 277.98 237.42 396.42 237.42 411.45 259.29 410.98 259.61"/><polygon class="cls-28" points="465.4 128.39 464.83 128.39 464.83 47.68 473.46 41.92 473.78 42.39 465.4 47.98 465.4 128.39"/><circle class="cls-29" cx="2.84" cy="23.26" r="2.84"/><path class="cls-2" d="M482,264.94H407.31l-13.18-20.15H103.55L84.33,264.94h-75v-236h99.29L133.7,42.86H329.07l15.56-13.92H482V46.7l-10,4.71V211.65l10,10Zm-74.07-1.13h72.94V222.14l-10-10V50.69l10-4.71V30H345.06L329.51,44H133.42L108.35,30H10.49V263.81H83.84l19.23-20.16H394.74Z"/><path class="cls-3" d="M95.73,21H11.62a2.27,2.27,0,0,0-2.27,2.27h0V29.7h99.47v-.92Z"/><path class="cls-4" d="M62.28,285.54H3.84A1.58,1.58,0,0,1,2.26,284V279.4H71.38v.65Z"/><path class="cls-5" d="M479.77,24.38H386.22l-3.66,3.4h-36.3a2.54,2.54,0,0,0-.39,0l-1.8,1.66A1.79,1.79,0,0,0,344,30H482V26.65A2.28,2.28,0,0,0,479.77,24.38Z"/><path class="cls-6" d="M449.14,10.23H381.29l-2.65,2.56H352L350.72,14a2.25,2.25,0,0,0-.06.36H450.79V11.93A1.69,1.69,0,0,0,449.14,10.23Z"/><path class="cls-7" d="M85.85,263.42H9.26v8.23a2.27,2.27,0,0,0,2.26,2.27H75.39Z"/><polygon class="cls-8" points="481.91 221.44 481.28 221.44 481.28 263.99 406.96 263.99 406.96 264.48 413.03 273.63 481.28 273.63 481.85 273.63 490.93 273.63 490.93 231 481.91 221.44"/><rect class="cls-9" x="477.22" y="112.51" width="5.3" height="14.37"/><rect class="cls-10" x="477.22" y="73.93" width="5.3" height="14.37"/><rect class="cls-11" x="477.22" y="93.22" width="5.3" height="14.37"/><rect class="cls-12" x="477.22" y="131.8" width="5.3" height="14.37"/><rect class="cls-13" x="477.22" y="151.09" width="5.3" height="14.37"/><polygon class="cls-14" points="477.22 189.66 477.22 207.82 482.51 216.14 482.51 189.66 477.22 189.66"/><polygon class="cls-15" points="482.51 69.01 482.51 54.21 477.22 56.53 477.22 69.01 482.51 69.01"/><rect class="cls-16" x="477.22" y="170.38" width="5.3" height="14.37"/><rect class="cls-17" x="227.96" y="249.8" width="16.45" height="8.51"/><rect class="cls-18" x="204.14" y="249.8" width="16.45" height="8.51"/><rect class="cls-19" x="251.79" y="249.8" width="16.45" height="8.51"/><rect class="cls-21" x="180.31" y="249.8" width="16.45" height="8.51"/><polygon class="cls-22" points="125.28 249.8 109.96 249.8 101.98 258.31 125.28 258.31 125.28 249.8"/><rect class="cls-23" x="132.65" y="249.8" width="16.45" height="8.51"/><rect class="cls-24" x="156.48" y="249.8" width="16.45" height="8.51"/><circle class="cls-29" cx="2.84" cy="23.26" r="2.84"/><path class="cls-30" d="M161.18,25.37h-7.83l-4.43-13.88-4.43,13.88h-7.83L127.82,0h8.61l4.34,13.71L145,0h7.78L157,13.71,161.41,0H170Z"/><path class="cls-31" d="M186.77,25.37,185.59,22H175.27L174,25.37h-8.3V25.3L176.22,0h8.43l10.52,25.3v.07ZM180.39,8.1l-2.6,7.34h5.26Z"/><path class="cls-32" d="M214.66,25.37,206.6,16V12h7.84V6.87h-9.09v18.5h-8.07V0h22.5a2.42,2.42,0,0,1,2,.91,3.76,3.76,0,0,1,.75,2.44V14.64a3.57,3.57,0,0,1-.75,2.4,2.48,2.48,0,0,1-2,.86h-2.52l6.61,7.2v.27Z"/><path class="cls-33" d="M244.48,25.37,234.07,12V25.37H226V0h8l10.37,12.25V0h8.06V25.37Z"/><path class="cls-34" d="M256.42,25.37V0h8.07V25.37Z"/><path class="cls-35" d="M287,25.37,276.55,12V25.37h-8.06V0h8l10.38,12.25V0h8.06V25.37Z"/><path class="cls-36" d="M324.58,24.46a2.38,2.38,0,0,1-2,.91h-21a2.32,2.32,0,0,1-2-.91,3.92,3.92,0,0,1-.7-2.44V3.35a3.83,3.83,0,0,1,.74-2.44,2.49,2.49,0,0,1,2-.91h21a2.38,2.38,0,0,1,2,.91,3.76,3.76,0,0,1,.73,2.44V8.87h-8.06v-2H307V18.5h10.29V16.67H309.4V10.36h16V22A3.74,3.74,0,0,1,324.58,24.46Z"/></g></g></g></g></svg>