<svg xmlns="http://www.w3.org/2000/svg" viewBox="0 0 485.95 484.07"><defs><style>.cls-1,.cls-2{fill:#17cffc;}.cls-1{opacity:0.35;}</style></defs><title>message_10</title><g id="Layer_2" data-name="Layer 2"><g id="Layer_1-2" data-name="Layer 1"><polygon class="cls-1" points="462.93 91.93 462.93 21.3 379.59 21.3 363.8 8.47 25.51 8.47 32.09 19.89 32.09 251.55 0.94 286.37 0.94 483.13 253.26 483.13 273.64 459.2 475.59 459.2 475.59 113.71 462.93 91.93"/><path class="cls-2" d="M253.7,484.07H0V286l31.15-34.82v-231L23.88,7.53H364.14l15.78,12.83h83.95V91.68l12.67,21.78V460.14H274.08ZM1.88,482.19h251l20.38-23.93H474.65V114L462,92.18V22.24H379.25L363.47,9.42H27.14L33,19.64V251.91L1.88,286.73Z"/><polygon class="cls-2" points="320.95 459.2 304.19 444.83 270.92 444.83 248.31 470.57 10.99 470.57 15.38 458.64 15.38 373.88 10.36 364.46 10.36 286.61 39.87 253.96 39.87 225.71 32.33 235.13 32.09 235.14 32.09 251.55 0.94 286.37 0.94 483.13 253.26 483.13 273.64 459.2 320.95 459.2"/><polygon class="cls-2" points="471.83 4.71 462.41 14.75 383.93 14.75 365.72 0.94 324.28 0.94 331.19 8.47 366.35 10.36 379.59 21.3 462.41 21.3 462.41 92.61 471.83 27.94 471.83 4.71"/><polygon class="cls-2" points="205.48 16.01 200.27 26.05 231.99 26.05 237.64 16.01 205.48 16.01"/><polygon class="cls-2" points="100.3 26.05 192.49 26.05 197.7 16.01 105.51 16.01 100.3 26.05"/><polygon class="cls-2" points="48.66 65.32 48.66 26.05 92.51 26.05 97.73 16.01 39.87 16.01 39.87 76.52 48.66 65.32"/><polygon class="cls-2" points="39.87 87.71 39.87 113.33 48.66 102.03 48.66 76.51 39.87 87.71"/><path class="cls-2" d="M24.17,131.85a.94.94,0,0,1-.94-.94V25.6L13.88,1.28A.9.9,0,0,1,14,.41.91.91,0,0,1,14.75,0h157a.94.94,0,0,1,0,1.88H16.13l8.92,23.21a1,1,0,0,1,.06.34V130.91A.94.94,0,0,1,24.17,131.85Z"/><path class="cls-2" d="M466.18,169.05a.47.47,0,0,1-.47-.47V114.11L453.24,97.28a.47.47,0,0,1-.09-.28V30.92H379.53a.47.47,0,0,1-.28-.09L361,17a.46.46,0,0,1-.09-.66.48.48,0,0,1,.66-.09L379.69,30h73.93a.47.47,0,0,1,.47.47v66.4l12.46,16.82a.5.5,0,0,1,.1.28v54.63A.47.47,0,0,1,466.18,169.05Z"/><polygon class="cls-2" points="383.69 459.25 438.66 459.22 422.85 444.61 367.99 444.74 383.69 459.25"/><polygon class="cls-2" points="475.59 381.17 475.59 343.75 463.67 360.07 463.67 394.08 475.59 381.17"/><polygon class="cls-2" points="353.49 444.77 330.56 444.83 346.88 459.27 369.16 459.26 353.49 444.77"/><polygon class="cls-2" points="463.67 408.62 463.67 444.51 437.35 444.58 453.19 459.21 475.59 459.2 475.59 395.71 463.67 408.62"/><path class="cls-2" d="M270.29,481.24a.93.93,0,0,1-.63-.23,1,1,0,0,1-.08-1.33L279.1,469a1,1,0,0,1,.7-.31H484.07V328.36a.94.94,0,0,1,1.88,0V469.63a.94.94,0,0,1-.94.94H280.23L271,480.93A.93.93,0,0,1,270.29,481.24Z"/><path class="cls-2" d="M18.84,362.11a.48.48,0,0,1-.48-.47V288.81a.46.46,0,0,1,.13-.32l29.7-31.57V207.5a.47.47,0,1,1,.94,0v49.6a.51.51,0,0,1-.13.33L19.31,289v72.64A.47.47,0,0,1,18.84,362.11Z"/><polygon class="cls-2" points="320.95 459.2 304.19 444.83 270.92 444.83 248.31 470.57 10.99 470.57 15.38 458.64 15.38 373.88 10.36 364.46 10.36 286.61 39.87 253.96 39.87 225.71 32.33 235.13 32.09 235.14 32.09 251.55 0.94 286.37 0.94 483.13 253.26 483.13 273.64 459.2 320.95 459.2"/><polygon class="cls-2" points="471.83 4.71 462.41 14.75 383.93 14.75 365.72 0.94 324.28 0.94 331.19 8.47 366.35 10.36 379.59 21.3 462.41 21.3 462.41 92.61 471.83 27.94 471.83 4.71"/><polygon class="cls-2" points="205.48 16.01 200.27 26.05 231.99 26.05 237.64 16.01 205.48 16.01"/><polygon class="cls-2" points="100.3 26.05 192.49 26.05 197.7 16.01 105.51 16.01 100.3 26.05"/><polygon class="cls-2" points="48.66 65.32 48.66 26.05 92.51 26.05 97.73 16.01 39.87 16.01 39.87 76.52 48.66 65.32"/><polygon class="cls-2" points="39.87 87.71 39.87 113.33 48.66 102.03 48.66 76.51 39.87 87.71"/><polygon class="cls-2" points="383.69 459.25 438.66 459.22 422.85 444.61 367.99 444.74 383.69 459.25"/><polygon class="cls-2" points="475.59 381.17 475.59 343.75 463.67 360.07 463.67 394.08 475.59 381.17"/><polygon class="cls-2" points="353.49 444.77 330.56 444.83 346.88 459.27 369.16 459.26 353.49 444.77"/><polygon class="cls-2" points="463.67 408.62 463.67 444.51 437.35 444.58 453.19 459.21 475.59 459.2 475.59 395.71 463.67 408.62"/></g></g></svg>