<svg xmlns="http://www.w3.org/2000/svg" xmlns:xlink="http://www.w3.org/1999/xlink" viewBox="0 0 458.45 490.2"><defs><style>.cls-1{fill:url(#New_Gradient_Swatch_7);}.cls-2{fill:url(#New_Gradient_Swatch_7-2);}.cls-3{fill:url(#New_Gradient_Swatch_7-3);}.cls-4{fill:url(#New_Gradient_Swatch_7-4);}.cls-5{fill:url(#New_Gradient_Swatch_7-5);}.cls-6{fill:url(#New_Gradient_Swatch_7-6);}.cls-7{fill:url(#New_Gradient_Swatch_7-7);}.cls-8{fill:url(#New_Gradient_Swatch_7-8);}.cls-9{fill:url(#New_Gradient_Swatch_7-9);}.cls-10{fill:url(#New_Gradient_Swatch_7-10);}.cls-11{fill:url(#New_Gradient_Swatch_7-11);}.cls-12{fill:url(#New_Gradient_Swatch_7-12);}.cls-13{fill:url(#New_Gradient_Swatch_7-13);}.cls-14{fill:url(#New_Gradient_Swatch_7-14);}.cls-15{fill:url(#New_Gradient_Swatch_7-15);}.cls-16{fill:url(#New_Gradient_Swatch_7-16);}.cls-17{fill:url(#New_Gradient_Swatch_7-17);}.cls-18{opacity:0.35;fill:url(#New_Gradient_Swatch_7-18);}.cls-18,.cls-26,.cls-28{isolation:isolate;}.cls-19{fill:url(#New_Gradient_Swatch_7-19);}.cls-20{fill:url(#New_Gradient_Swatch_7-20);}.cls-21{fill:url(#New_Gradient_Swatch_7-21);}.cls-22{fill:url(#New_Gradient_Swatch_7-22);}.cls-23{fill:url(#New_Gradient_Swatch_7-23);}.cls-24{fill:url(#New_Gradient_Swatch_7-24);}.cls-25{fill:url(#New_Gradient_Swatch_7-25);}.cls-26{opacity:0.4;fill:url(#New_Gradient_Swatch_7-26);}.cls-27{fill:url(#New_Gradient_Swatch_7-27);}.cls-28{opacity:0.33;fill:url(#New_Gradient_Swatch_7-32);}.cls-29{opacity:0.3;}.cls-30{fill:url(#New_Gradient_Swatch_7-33);}.cls-31{fill:url(#New_Gradient_Swatch_7-34);}.cls-32{fill:url(#New_Gradient_Swatch_7-35);}.cls-33{fill:url(#New_Gradient_Swatch_7-36);}.cls-34{fill:url(#New_Gradient_Swatch_7-37);}.cls-35{fill:url(#New_Gradient_Swatch_7-38);}.cls-36{fill:url(#New_Gradient_Swatch_7-39);}.cls-37{fill:url(#New_Gradient_Swatch_7-40);}.cls-38{fill:url(#New_Gradient_Swatch_7-41);}.cls-39{fill:url(#New_Gradient_Swatch_7-42);}.cls-40{fill:url(#New_Gradient_Swatch_7-43);}.cls-41{fill:url(#New_Gradient_Swatch_7-44);}.cls-42{fill:url(#New_Gradient_Swatch_7-45);}.cls-43{fill:url(#New_Gradient_Swatch_7-46);}.cls-44{fill:url(#New_Gradient_Swatch_7-47);}.cls-45{fill:url(#New_Gradient_Swatch_7-48);}.cls-46{fill:url(#New_Gradient_Swatch_7-49);}.cls-47{fill:url(#New_Gradient_Swatch_7-50);}.cls-48{fill:url(#New_Gradient_Swatch_7-51);}.cls-49{fill:url(#New_Gradient_Swatch_7-52);}.cls-50{fill:url(#New_Gradient_Swatch_7-53);}.cls-51{fill:url(#New_Gradient_Swatch_7-54);}.cls-52{fill:url(#New_Gradient_Swatch_7-55);}.cls-53{fill:url(#New_Gradient_Swatch_7-56);}.cls-54{fill:url(#New_Gradient_Swatch_7-57);}.cls-55{fill:url(#New_Gradient_Swatch_7-58);}.cls-56{fill:url(#New_Gradient_Swatch_7-59);}.cls-57{fill:url(#New_Gradient_Swatch_7-60);}.cls-58{fill:url(#New_Gradient_Swatch_7-61);}.cls-59{fill:url(#New_Gradient_Swatch_7-62);}.cls-60{fill:url(#New_Gradient_Swatch_7-63);}.cls-61{fill:url(#New_Gradient_Swatch_7-64);}.cls-62{fill:url(#New_Gradient_Swatch_7-65);}.cls-63{fill:url(#New_Gradient_Swatch_7-66);}.cls-64{fill:url(#New_Gradient_Swatch_7-67);}.cls-65{fill:url(#New_Gradient_Swatch_7-68);}.cls-66{fill:url(#New_Gradient_Swatch_7-69);}.cls-67{fill:url(#New_Gradient_Swatch_7-70);}.cls-68{fill:url(#New_Gradient_Swatch_7-71);}.cls-69{fill:url(#New_Gradient_Swatch_7-72);}.cls-70{fill:url(#New_Gradient_Swatch_7-73);}.cls-71{fill:url(#New_Gradient_Swatch_7-74);}.cls-72{fill:url(#New_Gradient_Swatch_7-75);}.cls-73{fill:url(#New_Gradient_Swatch_7-76);}.cls-74{fill:url(#New_Gradient_Swatch_7-77);}.cls-75{fill:url(#New_Gradient_Swatch_7-78);}.cls-76{fill:url(#New_Gradient_Swatch_7-79);}.cls-77{fill:url(#New_Gradient_Swatch_7-80);}.cls-78{fill:url(#New_Gradient_Swatch_7-81);}.cls-79{fill:url(#New_Gradient_Swatch_7-82);}.cls-80{fill:url(#New_Gradient_Swatch_7-83);}.cls-81{fill:url(#New_Gradient_Swatch_7-84);}.cls-82{fill:url(#New_Gradient_Swatch_7-85);}.cls-83{fill:url(#New_Gradient_Swatch_7-86);}.cls-84{fill:url(#New_Gradient_Swatch_7-87);}.cls-85{fill:url(#New_Gradient_Swatch_7-88);}.cls-86{fill:url(#New_Gradient_Swatch_7-89);}.cls-87{fill:url(#New_Gradient_Swatch_7-90);}</style><linearGradient id="New_Gradient_Swatch_7" x1="67.12" y1="20.64" x2="79.81" y2="20.64" gradientTransform="matrix(1, 0, 0, -1, 0, 490.74)" gradientUnits="userSpaceOnUse"><stop offset="0" stop-color="#fcdaff"/><stop offset="1" stop-color="#cf52fe"/></linearGradient><linearGradient id="New_Gradient_Swatch_7-2" x1="67.12" y1="13.76" x2="108.28" y2="13.76" xlink:href="#New_Gradient_Swatch_7"/><linearGradient id="New_Gradient_Swatch_7-3" x1="93.07" y1="13.76" x2="136.76" y2="13.76" xlink:href="#New_Gradient_Swatch_7"/><linearGradient id="New_Gradient_Swatch_7-4" x1="121.55" y1="13.76" x2="165.23" y2="13.76" xlink:href="#New_Gradient_Swatch_7"/><linearGradient id="New_Gradient_Swatch_7-5" x1="150.02" y1="13.76" x2="193.71" y2="13.76" xlink:href="#New_Gradient_Swatch_7"/><linearGradient id="New_Gradient_Swatch_7-6" x1="178.49" y1="13.76" x2="222.18" y2="13.76" xlink:href="#New_Gradient_Swatch_7"/><linearGradient id="New_Gradient_Swatch_7-7" x1="206.97" y1="13.76" x2="250.66" y2="13.76" xlink:href="#New_Gradient_Swatch_7"/><linearGradient id="New_Gradient_Swatch_7-8" x1="235.44" y1="13.76" x2="279.13" y2="13.76" xlink:href="#New_Gradient_Swatch_7"/><linearGradient id="New_Gradient_Swatch_7-9" x1="263.92" y1="13.76" x2="307.61" y2="13.76" xlink:href="#New_Gradient_Swatch_7"/><linearGradient id="New_Gradient_Swatch_7-10" x1="292.39" y1="13.76" x2="336.08" y2="13.76" xlink:href="#New_Gradient_Swatch_7"/><linearGradient id="New_Gradient_Swatch_7-11" x1="320.87" y1="13.76" x2="364.55" y2="13.76" xlink:href="#New_Gradient_Swatch_7"/><linearGradient id="New_Gradient_Swatch_7-12" x1="349.34" y1="13.76" x2="382.37" y2="13.76" xlink:href="#New_Gradient_Swatch_7"/><linearGradient id="New_Gradient_Swatch_7-13" x1="377.81" y1="2.82" x2="382.37" y2="2.82" xlink:href="#New_Gradient_Swatch_7"/><linearGradient id="New_Gradient_Swatch_7-14" x1="392.54" y1="19.97" x2="434.44" y2="19.97" xlink:href="#New_Gradient_Swatch_7"/><linearGradient id="New_Gradient_Swatch_7-15" x1="406.52" y1="15.69" x2="429.47" y2="15.69" xlink:href="#New_Gradient_Swatch_7"/><linearGradient id="New_Gradient_Swatch_7-16" x1="14.54" y1="19.97" x2="56.44" y2="19.97" xlink:href="#New_Gradient_Swatch_7"/><linearGradient id="New_Gradient_Swatch_7-17" x1="19.51" y1="15.69" x2="42.46" y2="15.69" xlink:href="#New_Gradient_Swatch_7"/><linearGradient id="New_Gradient_Swatch_7-18" x1="0.88" y1="256.99" x2="443.48" y2="256.99" xlink:href="#New_Gradient_Swatch_7"/><linearGradient id="New_Gradient_Swatch_7-19" x1="0" y1="256.98" x2="444.36" y2="256.98" xlink:href="#New_Gradient_Swatch_7"/><linearGradient id="New_Gradient_Swatch_7-20" x1="2.65" y1="362" x2="19.68" y2="362" xlink:href="#New_Gradient_Swatch_7"/><linearGradient id="New_Gradient_Swatch_7-21" x1="444.36" y1="82.68" x2="458.45" y2="82.68" xlink:href="#New_Gradient_Swatch_7"/><linearGradient id="New_Gradient_Swatch_7-22" x1="313.58" y1="428.84" x2="431.64" y2="428.84" xlink:href="#New_Gradient_Swatch_7"/><linearGradient id="New_Gradient_Swatch_7-23" x1="0.88" y1="126.46" x2="182.85" y2="126.46" xlink:href="#New_Gradient_Swatch_7"/><linearGradient id="New_Gradient_Swatch_7-24" x1="25.62" y1="487.26" x2="319.16" y2="487.26" xlink:href="#New_Gradient_Swatch_7"/><linearGradient id="New_Gradient_Swatch_7-25" x1="427.09" y1="250.49" x2="448.13" y2="250.49" xlink:href="#New_Gradient_Swatch_7"/><linearGradient id="New_Gradient_Swatch_7-26" x1="11.48" y1="140.93" x2="18.55" y2="140.93" xlink:href="#New_Gradient_Swatch_7"/><linearGradient id="New_Gradient_Swatch_7-27" x1="421.35" y1="89.99" x2="437.25" y2="89.99" xlink:href="#New_Gradient_Swatch_7"/><linearGradient id="New_Gradient_Swatch_7-32" x1="81.11" y1="398.49" x2="351.34" y2="398.49" xlink:href="#New_Gradient_Swatch_7"/><linearGradient id="New_Gradient_Swatch_7-33" x1="373.07" y1="397.58" x2="377.12" y2="397.58" xlink:href="#New_Gradient_Swatch_7"/><linearGradient id="New_Gradient_Swatch_7-34" x1="372.65" y1="397.59" x2="377.33" y2="397.59" xlink:href="#New_Gradient_Swatch_7"/><linearGradient id="New_Gradient_Swatch_7-35" x1="385.57" y1="419.62" x2="387.44" y2="419.62" xlink:href="#New_Gradient_Swatch_7"/><linearGradient id="New_Gradient_Swatch_7-36" x1="385.23" y1="419.67" x2="387.46" y2="419.67" xlink:href="#New_Gradient_Swatch_7"/><linearGradient id="New_Gradient_Swatch_7-37" x1="381.61" y1="421.17" x2="386.16" y2="421.17" xlink:href="#New_Gradient_Swatch_7"/><linearGradient id="New_Gradient_Swatch_7-38" x1="381.26" y1="421.19" x2="386.52" y2="421.19" xlink:href="#New_Gradient_Swatch_7"/><linearGradient id="New_Gradient_Swatch_7-39" x1="379.09" y1="423.03" x2="382.19" y2="423.03" xlink:href="#New_Gradient_Swatch_7"/><linearGradient id="New_Gradient_Swatch_7-40" x1="378.75" y1="423.02" x2="382.54" y2="423.02" xlink:href="#New_Gradient_Swatch_7"/><linearGradient id="New_Gradient_Swatch_7-41" x1="385.57" y1="375.81" x2="387.44" y2="375.81" xlink:href="#New_Gradient_Swatch_7"/><linearGradient id="New_Gradient_Swatch_7-42" x1="385.23" y1="375.76" x2="387.46" y2="375.76" xlink:href="#New_Gradient_Swatch_7"/><linearGradient id="New_Gradient_Swatch_7-43" x1="381.61" y1="374.26" x2="386.16" y2="374.26" xlink:href="#New_Gradient_Swatch_7"/><linearGradient id="New_Gradient_Swatch_7-44" x1="381.26" y1="374.26" x2="386.52" y2="374.26" xlink:href="#New_Gradient_Swatch_7"/><linearGradient id="New_Gradient_Swatch_7-45" x1="379.09" y1="372.41" x2="382.19" y2="372.41" xlink:href="#New_Gradient_Swatch_7"/><linearGradient id="New_Gradient_Swatch_7-46" x1="378.75" y1="372.4" x2="382.54" y2="372.4" xlink:href="#New_Gradient_Swatch_7"/><linearGradient id="New_Gradient_Swatch_7-47" x1="363.32" y1="435.2" x2="372.84" y2="435.2" xlink:href="#New_Gradient_Swatch_7"/><linearGradient id="New_Gradient_Swatch_7-48" x1="372.64" y1="431.28" x2="374.19" y2="431.28" xlink:href="#New_Gradient_Swatch_7"/><linearGradient id="New_Gradient_Swatch_7-49" x1="362.01" y1="446.22" x2="364.36" y2="446.22" xlink:href="#New_Gradient_Swatch_7"/><linearGradient id="New_Gradient_Swatch_7-50" x1="363.31" y1="360.8" x2="372.83" y2="360.8" xlink:href="#New_Gradient_Swatch_7"/><linearGradient id="New_Gradient_Swatch_7-51" x1="372.63" y1="364.72" x2="374.17" y2="364.72" xlink:href="#New_Gradient_Swatch_7"/><linearGradient id="New_Gradient_Swatch_7-52" x1="361.99" y1="349.78" x2="364.35" y2="349.78" xlink:href="#New_Gradient_Swatch_7"/><linearGradient id="New_Gradient_Swatch_7-53" x1="351.15" y1="398.61" x2="366.71" y2="398.61" xlink:href="#New_Gradient_Swatch_7"/><linearGradient id="New_Gradient_Swatch_7-54" x1="343.75" y1="398.53" x2="348.96" y2="398.53" xlink:href="#New_Gradient_Swatch_7"/><linearGradient id="New_Gradient_Swatch_7-55" x1="55.25" y1="398.41" x2="59.31" y2="398.41" xlink:href="#New_Gradient_Swatch_7"/><linearGradient id="New_Gradient_Swatch_7-56" x1="55.05" y1="398.42" x2="59.72" y2="398.42" xlink:href="#New_Gradient_Swatch_7"/><linearGradient id="New_Gradient_Swatch_7-57" x1="44.93" y1="376.38" x2="46.8" y2="376.38" xlink:href="#New_Gradient_Swatch_7"/><linearGradient id="New_Gradient_Swatch_7-58" x1="44.92" y1="376.33" x2="47.15" y2="376.33" xlink:href="#New_Gradient_Swatch_7"/><linearGradient id="New_Gradient_Swatch_7-59" x1="46.21" y1="374.83" x2="50.76" y2="374.83" xlink:href="#New_Gradient_Swatch_7"/><linearGradient id="New_Gradient_Swatch_7-60" x1="45.86" y1="374.83" x2="51.11" y2="374.83" xlink:href="#New_Gradient_Swatch_7"/><linearGradient id="New_Gradient_Swatch_7-61" x1="50.18" y1="372.98" x2="53.28" y2="372.98" xlink:href="#New_Gradient_Swatch_7"/><linearGradient id="New_Gradient_Swatch_7-62" x1="49.83" y1="372.97" x2="53.62" y2="372.97" xlink:href="#New_Gradient_Swatch_7"/><linearGradient id="New_Gradient_Swatch_7-63" x1="44.93" y1="420.19" x2="46.8" y2="420.19" xlink:href="#New_Gradient_Swatch_7"/><linearGradient id="New_Gradient_Swatch_7-64" x1="44.92" y1="420.24" x2="47.15" y2="420.24" xlink:href="#New_Gradient_Swatch_7"/><linearGradient id="New_Gradient_Swatch_7-65" x1="46.21" y1="421.74" x2="50.76" y2="421.74" xlink:href="#New_Gradient_Swatch_7"/><linearGradient id="New_Gradient_Swatch_7-66" x1="45.86" y1="421.74" x2="51.11" y2="421.74" xlink:href="#New_Gradient_Swatch_7"/><linearGradient id="New_Gradient_Swatch_7-67" x1="50.18" y1="423.6" x2="53.28" y2="423.6" xlink:href="#New_Gradient_Swatch_7"/><linearGradient id="New_Gradient_Swatch_7-68" x1="49.83" y1="423.6" x2="53.62" y2="423.6" xlink:href="#New_Gradient_Swatch_7"/><linearGradient id="New_Gradient_Swatch_7-69" x1="59.53" y1="360.8" x2="69.05" y2="360.8" xlink:href="#New_Gradient_Swatch_7"/><linearGradient id="New_Gradient_Swatch_7-70" x1="58.18" y1="364.72" x2="59.73" y2="364.72" xlink:href="#New_Gradient_Swatch_7"/><linearGradient id="New_Gradient_Swatch_7-71" x1="68.01" y1="349.77" x2="70.36" y2="349.77" xlink:href="#New_Gradient_Swatch_7"/><linearGradient id="New_Gradient_Swatch_7-72" x1="59.54" y1="435.2" x2="69.06" y2="435.2" xlink:href="#New_Gradient_Swatch_7"/><linearGradient id="New_Gradient_Swatch_7-73" x1="58.2" y1="431.28" x2="59.74" y2="431.28" xlink:href="#New_Gradient_Swatch_7"/><linearGradient id="New_Gradient_Swatch_7-74" x1="68.02" y1="446.22" x2="70.38" y2="446.22" xlink:href="#New_Gradient_Swatch_7"/><linearGradient id="New_Gradient_Swatch_7-75" x1="65.67" y1="397.39" x2="81.22" y2="397.39" xlink:href="#New_Gradient_Swatch_7"/><linearGradient id="New_Gradient_Swatch_7-76" x1="83.41" y1="397.47" x2="88.62" y2="397.47" xlink:href="#New_Gradient_Swatch_7"/><linearGradient id="New_Gradient_Swatch_7-77" x1="144.35" y1="357.95" x2="150.04" y2="357.95" xlink:href="#New_Gradient_Swatch_7"/><linearGradient id="New_Gradient_Swatch_7-78" x1="210.26" y1="357.96" x2="215.95" y2="357.96" xlink:href="#New_Gradient_Swatch_7"/><linearGradient id="New_Gradient_Swatch_7-79" x1="282.74" y1="357.95" x2="288.43" y2="357.95" xlink:href="#New_Gradient_Swatch_7"/><linearGradient id="New_Gradient_Swatch_7-80" x1="86.04" y1="349.91" x2="152.12" y2="349.91" xlink:href="#New_Gradient_Swatch_7"/><linearGradient id="New_Gradient_Swatch_7-81" x1="96.78" y1="353.03" x2="137.59" y2="353.03" xlink:href="#New_Gradient_Swatch_7"/><linearGradient id="New_Gradient_Swatch_7-82" x1="280.69" y1="349.91" x2="346.36" y2="349.91" xlink:href="#New_Gradient_Swatch_7"/><linearGradient id="New_Gradient_Swatch_7-83" x1="295.22" y1="353.03" x2="336.03" y2="353.03" xlink:href="#New_Gradient_Swatch_7"/><linearGradient id="New_Gradient_Swatch_7-84" x1="85.37" y1="443.05" x2="344.91" y2="443.05" xlink:href="#New_Gradient_Swatch_7"/><linearGradient id="New_Gradient_Swatch_7-85" x1="96.61" y1="399.01" x2="131.05" y2="399.01" xlink:href="#New_Gradient_Swatch_7"/><linearGradient id="New_Gradient_Swatch_7-86" x1="133.9" y1="399" x2="174.19" y2="399" xlink:href="#New_Gradient_Swatch_7"/><linearGradient id="New_Gradient_Swatch_7-87" x1="177.05" y1="398.92" x2="219.49" y2="398.92" xlink:href="#New_Gradient_Swatch_7"/><linearGradient id="New_Gradient_Swatch_7-88" x1="225.24" y1="399.01" x2="261.33" y2="399.01" xlink:href="#New_Gradient_Swatch_7"/><linearGradient id="New_Gradient_Swatch_7-89" x1="266.48" y1="399.01" x2="298.45" y2="399.01" xlink:href="#New_Gradient_Swatch_7"/><linearGradient id="New_Gradient_Swatch_7-90" x1="302.74" y1="399.01" x2="337.63" y2="399.01" xlink:href="#New_Gradient_Swatch_7"/></defs><title>message_01_purple</title><g id="Layer_2" data-name="Layer 2"><g id="Layer_1-2" data-name="Layer 1"><g id="Layer_2-2" data-name="Layer 2"><g id="Layer_1-2-2" data-name="Layer 1-2"><polygon class="cls-1" points="67.12 476.45 67.12 463.76 79.81 463.76 67.12 476.45"/><polygon class="cls-2" points="81.84 490.2 67.12 490.2 67.12 487.68 91.04 463.76 108.28 463.76 81.84 490.2"/><polygon class="cls-3" points="110.32 490.2 93.07 490.2 119.51 463.76 136.76 463.76 110.32 490.2"/><polygon class="cls-4" points="138.79 490.2 121.55 490.2 147.99 463.76 165.23 463.76 138.79 490.2"/><polygon class="cls-5" points="167.27 490.2 150.02 490.2 176.46 463.76 193.71 463.76 167.27 490.2"/><polygon class="cls-6" points="195.74 490.2 178.49 490.2 204.93 463.76 222.18 463.76 195.74 490.2"/><polygon class="cls-7" points="224.22 490.2 206.97 490.2 233.41 463.76 250.66 463.76 224.22 490.2"/><polygon class="cls-8" points="252.69 490.2 235.44 490.2 261.88 463.76 279.13 463.76 252.69 490.2"/><polygon class="cls-9" points="281.17 490.2 263.92 490.2 290.36 463.76 307.61 463.76 281.17 490.2"/><polygon class="cls-10" points="309.64 490.2 292.39 490.2 318.83 463.76 336.08 463.76 309.64 490.2"/><polygon class="cls-11" points="338.11 490.2 320.87 490.2 347.31 463.76 364.55 463.76 338.11 490.2"/><polygon class="cls-12" points="366.59 490.2 349.34 490.2 375.78 463.76 382.37 463.76 382.37 474.42 366.59 490.2"/><polygon class="cls-13" points="382.37 490.2 377.81 490.2 382.37 485.64 382.37 490.2"/><polygon class="cls-14" points="421.44 478 392.54 478 392.54 475.96 420.59 475.96 433.01 463.55 434.44 464.99 421.44 478"/><path class="cls-15" d="M406.52,477l4.71,4.7h12.84l5.4-5.4v-7.9s-7.57,8.52-8.52,8.52Z"/><polygon class="cls-16" points="56.44 478 27.55 478 14.54 464.99 15.97 463.55 28.39 475.96 56.44 475.96 56.44 478"/><path class="cls-17" d="M42.46,477l-4.71,4.7H24.92l-5.41-5.4v-7.9s7.57,8.52,8.52,8.52Z"/><polygon class="cls-18" points="420.72 342.2 420.72 12.46 19.68 12.46 19.68 246.8 0.88 282.39 0.88 455.05 443.48 455.05 443.48 361.07 420.72 342.2"/><path class="cls-19" d="M444.36,455.94H0V282.17l18.8-35.59v-235H421.6V341.79l22.76,18.87ZM1.77,454.17H442.6V361.49l-22.76-18.88V13.34H20.57V247L1.77,282.61Z"/><polygon class="cls-20" points="19.68 11.57 8.83 24.2 8.83 183.2 2.65 202.63 2.65 219.42 19.68 245.92 19.68 11.57"/><polygon class="cls-21" points="444.36 361.07 458.45 380.18 458.45 432.3 444.36 455.05 444.36 361.07"/><polygon class="cls-22" points="431.64 123.45 431.64 21.86 422.61 10.25 431.07 0.35 329.49 0.35 313.58 12.71 420.15 12.46 420.15 113.63 431.64 123.45"/><polygon class="cls-23" points="6.18 273.3 6.18 444.67 163.42 444.67 182.85 455.27 0.88 455.27 0.88 282.39 6.18 273.3"/><polygon class="cls-24" points="311.09 6.97 25.62 6.97 25.62 6.09 310.78 6.09 318.61 0 319.16 0.7 311.09 6.97"/><polygon class="cls-25" points="447.57 353.14 427.09 336.23 427.09 127.37 431.38 131.65 430.76 132.28 427.98 129.5 427.98 335.81 448.13 352.46 447.57 353.14"/><polygon class="cls-26" points="18.55 262.9 11.48 275.95 11.48 436.72 18.55 436.72 18.55 262.9"/><polygon class="cls-27" points="421.35 351.54 421.35 449.97 437.25 449.97 437.25 365.17 421.35 351.54"/><polygon class="cls-20" points="19.68 11.57 8.83 24.2 8.83 183.2 2.65 202.63 2.65 219.42 19.68 245.92 19.68 11.57"/><polygon class="cls-21" points="444.36 361.07 458.45 380.18 458.45 432.3 444.36 455.05 444.36 361.07"/><polygon class="cls-22" points="431.64 123.45 431.64 21.86 422.61 10.25 431.07 0.35 329.49 0.35 313.58 12.71 420.15 12.46 420.15 113.63 431.64 123.45"/><polygon class="cls-23" points="6.18 273.3 6.18 444.67 163.42 444.67 182.85 455.27 0.88 455.27 0.88 282.39 6.18 273.3"/><rect class="cls-28" x="81.11" y="43.86" width="270.23" height="96.79"/><g class="cls-29"><path class="cls-30" d="M377.12,118a2.7,2.7,0,0,1-4.05-2.34v-45a2.7,2.7,0,0,1,4.05-2.34Z"/></g><path class="cls-31" d="M377.33,118.35a3.12,3.12,0,0,1-4.68-2.69v-45a3.12,3.12,0,0,1,4.68-2.7Zm-.42-49.65a2.29,2.29,0,0,0-3.13.85,2.32,2.32,0,0,0-.3,1.15v45a2.29,2.29,0,0,0,3.43,2Z"/><path class="cls-32" d="M385.57,71.38l1.87-.51Z"/><path class="cls-33" d="M385.23,71.33l2.23-.61Zm2.19-.32-1.5.41Z"/><polygon class="cls-34" points="385.85 69.88 383.53 68.56 381.61 69.08 384.23 70.58 386.16 70.06 385.85 69.88"/><path class="cls-35" d="M386.52,70.1l-2.31.63L381.26,69l2.29-.62Zm-2.27.34,1.56-.42h0l-2.26-1.3-1.57.43Z"/><polygon class="cls-36" points="381.87 67.61 381.02 67.12 379.09 67.64 380.26 68.31 382.19 67.78 381.87 67.61"/><path class="cls-37" d="M382.54,67.83l-2.3.62-1.49-.85L381,67Zm-2.26.34,1.56-.43h0l-.81-.46-1.56.43Z"/><path class="cls-38" d="M385.57,114.68l1.87.51Z"/><path class="cls-39" d="M387.46,115.33l-2.23-.61Zm-1.54-.7,1.5.41Z"/><polygon class="cls-40" points="385.85 116.17 383.53 117.5 381.61 116.97 384.23 115.47 386.16 116 385.85 116.17"/><path class="cls-41" d="M383.55,117.64l-2.29-.62,2.95-1.69,2.31.62Zm-1.6-.71,1.57.42,2.26-1.29h0l-1.56-.43Z"/><polygon class="cls-42" points="381.87 118.45 381.02 118.93 379.09 118.41 380.26 117.74 382.19 118.27 381.87 118.45"/><path class="cls-43" d="M381,119.08l-2.29-.63,1.49-.85,2.3.63Zm-1.6-.71,1.56.42.81-.46h0l-1.56-.42Z"/><polygon class="cls-44" points="363.32 44.66 363.61 44.38 372.84 53.62 372.84 66.71 372.44 66.71 372.44 53.78 363.32 44.66"/><polygon class="cls-45" points="372.64 63.62 374.19 62.08 374.19 56.69 372.8 55.3 372.64 63.62"/><path class="cls-46" d="M363.19,43.34A1.18,1.18,0,1,1,362,44.52a1.17,1.17,0,0,1,1.16-1.18Z"/><polygon class="cls-47" points="363.31 140.83 372.43 131.71 372.43 118.78 372.83 118.78 372.83 131.87 363.59 141.11 363.31 140.83"/><polygon class="cls-48" points="372.63 121.86 374.17 123.41 374.17 128.8 372.79 130.19 372.63 121.86"/><path class="cls-49" d="M363.17,142.14A1.18,1.18,0,1,0,362,141V141A1.18,1.18,0,0,0,363.17,142.14Z"/><path class="cls-50" d="M351.24,43.86l15.47,15.46v65.53l-15.56,15.56V115.33l4-3.94V75.28l-3.88-3.87S351.5,43.61,351.24,43.86Z"/><polygon class="cls-51" points="348.64 122.73 343.75 117.84 343.75 66.51 348.56 61.7 348.88 62.02 344.21 66.7 344.21 117.65 348.96 122.41 348.64 122.73"/><g class="cls-29"><path class="cls-52" d="M55.25,67.49a2.71,2.71,0,0,1,3.7,1,2.74,2.74,0,0,1,.36,1.34v45a2.71,2.71,0,0,1-2.72,2.7,2.74,2.74,0,0,1-1.34-.36Z"/></g><path class="cls-53" d="M55.05,67.13a3.12,3.12,0,0,1,4.67,2.7v45a3.12,3.12,0,0,1-3.14,3.1,3.05,3.05,0,0,1-1.53-.41Zm.41,49.66a2.29,2.29,0,0,0,3.43-2v-45a2.28,2.28,0,0,0-2.28-2.3,2.22,2.22,0,0,0-1.15.3Z"/><path class="cls-54" d="M46.8,114.11l-1.87.51Z"/><path class="cls-55" d="M47.15,114.15l-2.23.61Zm-2.2.32,1.51-.41Z"/><polygon class="cls-56" points="46.52 115.6 48.84 116.93 50.76 116.4 48.14 114.9 46.21 115.43 46.52 115.6"/><path class="cls-57" d="M45.86,115.38l2.3-.62,3,1.69-2.29.62Zm2.26-.34-1.56.43h0l2.27,1.29,1.56-.42Z"/><polygon class="cls-58" points="50.5 117.88 51.35 118.36 53.28 117.84 52.11 117.17 50.18 117.7 50.5 117.88"/><path class="cls-59" d="M49.83,117.66l2.3-.63,1.49.85-2.29.63Zm2.27-.34-1.57.42h0l.81.46,1.56-.42Z"/><path class="cls-60" d="M46.8,70.81l-1.87-.51Z"/><path class="cls-61" d="M44.92,70.16l2.23.6Zm1.54.69L45,70.44Z"/><polygon class="cls-62" points="46.52 69.31 48.84 67.99 50.76 68.51 48.14 70.02 46.21 69.49 46.52 69.31"/><path class="cls-63" d="M48.82,67.85l2.29.62-3,1.69-2.3-.63Zm1.6.71-1.56-.43-2.27,1.3h0l1.56.42Z"/><polygon class="cls-64" points="50.5 67.04 51.35 66.55 53.28 67.08 52.11 67.74 50.18 67.22 50.5 67.04"/><path class="cls-65" d="M51.33,66.41l2.29.62-1.49.85-2.3-.62Zm1.6.71-1.56-.43-.81.46h0l1.57.43Z"/><polygon class="cls-66" points="69.05 140.83 68.77 141.11 59.53 131.87 59.53 118.78 59.93 118.78 59.93 131.71 69.05 140.83"/><polygon class="cls-67" points="59.73 121.86 58.18 123.41 58.18 128.8 59.57 130.19 59.73 121.86"/><circle class="cls-68" cx="69.19" cy="140.97" r="1.18"/><polygon class="cls-69" points="69.06 44.66 59.94 53.78 59.94 66.71 59.54 66.71 59.54 53.62 68.78 44.38 69.06 44.66"/><polygon class="cls-70" points="59.74 63.62 58.2 62.08 58.2 56.69 59.58 55.3 59.74 63.62"/><path class="cls-71" d="M69.2,43.34a1.18,1.18,0,1,0,1.18,1.18,1.18,1.18,0,0,0-1.18-1.18Z"/><path class="cls-72" d="M81.13,141.62,65.67,126.16V60.63L81.22,45.08V70.16L77.28,74.1v36.11l3.87,3.87S80.87,141.88,81.13,141.62Z"/><polygon class="cls-73" points="83.73 62.76 88.62 67.65 88.62 118.98 83.81 123.78 83.49 123.46 88.17 118.79 88.17 67.83 83.41 63.08 83.73 62.76"/><circle class="cls-74" cx="147.2" cy="132.79" r="2.84"/><path class="cls-75" d="M210.26,132.79a2.85,2.85,0,1,1,2.86,2.84h0A2.85,2.85,0,0,1,210.26,132.79Z"/><circle class="cls-76" cx="285.59" cy="132.79" r="2.84"/><polygon class="cls-77" points="152.12 147.05 142.42 147.05 130.66 135.29 86.04 135.29 86.04 134.61 130.94 134.61 142.7 146.38 152.12 146.38 152.12 147.05"/><polygon class="cls-78" points="135.68 141.83 130.15 136.31 96.78 136.31 96.78 133.6 131.27 133.6 137.59 139.92 135.68 141.83"/><polygon class="cls-79" points="290.39 147.05 280.69 147.05 280.69 146.38 290.11 146.38 301.87 134.61 346.36 134.61 346.36 135.29 302.15 135.29 290.39 147.05"/><polygon class="cls-80" points="297.13 141.83 295.22 139.92 301.54 133.6 336.03 133.6 336.03 136.31 302.66 136.31 297.13 141.83"/><rect class="cls-81" x="85.37" y="47.35" width="259.54" height="0.68"/><path class="cls-82" d="M106.56,71.09v41.29h-10V71.09Zm2.86,9.15V71.09h18.19L131,75.21v32.94l-3.43,4.23H109.42v-9.15h11.67v-23Z"/><path class="cls-83" d="M143.39,112.38H133.9L144.14,83.1h7.09l1.26,3.32ZM154,92.25h3.72l-4.29-12h-8.29l3.2-9.15h11.38l14.47,41.29h-9.38l-3.89-11H150.83Z"/><path class="cls-84" d="M203.85,112.55,187,80.24h-9.95V71.09h16.13l16.36,32.14h10v9.32ZM187,88.07v24.31h-9.95V83.1h7.32Zm22.54,7.61V71.09h10v29.28H212.1Z"/><path class="cls-85" d="M235.19,103.23h6.58v9.15h-13.1l-3.43-4.29V75.26l3.43-4.17h13.1v9.15h-6.58Zm26.14,4.92-3.43,4.23H244.63v-9.15H252V96.42h-8V87.27h17.39Zm-16.7-27.91V71.09H257.9l3.43,4.12V84h-9.1V80.24Z"/><path class="cls-86" d="M266.48,112.38V71.09h9.95v41.29Zm12.81-32.14V71.09h19.16v9.15Zm0,15.78V86.87h14.64V96Zm0,16.36v-9.15h19.16v9.15Z"/><path class="cls-87" d="M302.74,112.38V71.09h9.95v41.29Zm12.81-32.14V71.09h17.67l3.43,4.12V91.79l-2.86,3.55,3.84,17h-9.9l-3.37-14.07h-8.81V89.16H326.7V80.24Z"/></g></g></g></g></svg>