<svg xmlns="http://www.w3.org/2000/svg" xmlns:xlink="http://www.w3.org/1999/xlink" viewBox="0 0 430.06 492.25"><defs><style>.cls-1,.cls-3,.cls-9{fill:#11e5b3;}.cls-2{isolation:isolate;}.cls-3{opacity:0.35;}.cls-4{clip-path:url(#clip-path);}.cls-5{clip-path:url(#clip-path-2);}.cls-6{clip-path:url(#clip-path-3);}.cls-7{clip-path:url(#clip-path-4);}.cls-8{clip-path:url(#clip-path-5);}.cls-9{opacity:0.55;mix-blend-mode:screen;}</style><clipPath id="clip-path"><polygon id="SVGID" class="cls-1" points="261.53 83.02 250.11 90.94 255.45 90.94 266.87 83.02 261.53 83.02"/></clipPath><clipPath id="clip-path-2"><polygon id="SVGID-2" data-name="SVGID" class="cls-1" points="249.76 83.02 238.34 90.94 243.68 90.94 255.1 83.02 249.76 83.02"/></clipPath><clipPath id="clip-path-3"><polygon id="SVGID-3" data-name="SVGID" class="cls-1" points="237.99 83.02 226.56 90.94 231.91 90.94 243.33 83.02 237.99 83.02"/></clipPath><clipPath id="clip-path-4"><polygon id="SVGID-4" data-name="SVGID" class="cls-1" points="226.21 83.02 214.79 90.94 220.14 90.94 231.56 83.02 226.21 83.02"/></clipPath><clipPath id="clip-path-5"><polygon id="SVGID-5" data-name="SVGID" class="cls-1" points="214.44 83.02 203.02 90.94 208.36 90.94 219.78 83.02 214.44 83.02"/></clipPath></defs><title>message_02_green</title><g class="cls-2"><g id="Layer_2" data-name="Layer 2"><g id="Layer_1-2" data-name="Layer 1"><polygon class="cls-3" points="407.22 338.84 407.22 170.73 417.58 151.85 417.58 74.49 349.75 74.49 344.94 83.63 273.67 83.63 263.62 90.48 154.44 90.48 133.88 84.54 43.43 84.54 36.61 74.49 19.21 74.49 19.21 122.91 27.44 143.47 27.44 289.2 19.21 309.76 19.21 472.85 73.64 472.85 88.65 460.06 138.6 460.06 152 448.49 256.77 448.49 264.69 457.62 362.15 457.62 365.77 472.85 417.58 472.85 417.58 344.33 407.22 338.84"/><path class="cls-1" d="M418.49,473.76H365.05l-3.63-15.22H264.27l-7.92-9.14h-104L138.94,461H89L74,473.76H18.3V309.58L26.52,289V143.65L18.3,123.09V73.58H37.09l6.82,10H134l20.56,5.93H263.34l10.05-6.85h71l4.81-9.13h69.29v78.5L408.13,171V338.29l10.36,5.49Zm-52-1.82h50.17V344.88l-10.35-5.49V170.49l10.35-18.88V75.4H350.3l-4.81,9.14H274L263.9,91.39l-109.72,0-20.43-5.91H42.94l-6.82-10h-16v47.34l8.22,20.56V289.38l-8.22,20.56v162H73.3l15-12.8h49.94l13.4-11.57H257.19l7.92,9.14h97.76Z"/><path class="cls-1" d="M429.44,64.12,416.3,55.65a1.57,1.57,0,0,0-.86-.25,1.6,1.6,0,0,0-.87.25l-12.46,8H350.23A1.41,1.41,0,0,0,348.75,65v8.65A1.41,1.41,0,0,0,350.23,75h65.21a1.6,1.6,0,0,0,.86-.25l13.14-8.47a1.25,1.25,0,0,0,0-2.16Z"/><path class="cls-1" d="M428.06,483.52,417.84,492a1.09,1.09,0,0,1-.67.25,1.07,1.07,0,0,1-.67-.25l-9.7-8H366.45a1.26,1.26,0,0,1-1.16-1.34V474a1.26,1.26,0,0,1,1.16-1.33h50.72a1,1,0,0,1,.67.25l10.22,8.47a1.45,1.45,0,0,1,0,2.16Z"/><path class="cls-1" d="M8.72,63.87.25,73.73a1,1,0,0,0-.25.65A1,1,0,0,0,.25,75l8,9.36v38.93a1.24,1.24,0,0,0,1.33,1.12h8.65a1.23,1.23,0,0,0,1.33-1.12V74.38a1,1,0,0,0-.25-.65l-8.47-9.86a1.5,1.5,0,0,0-2.16,0Z"/><path class="cls-1" d="M19.21,309.76S7,308.38,7.64,316.36v87.75l6.7,4.91v54.62l4.87,10.43S19.82,307.46,19.21,309.76Z"/><path class="cls-1" d="M417.82,474.6s12.19,1.11,11.58-5.27v-70.2l-6.7-3.93V351.51l-4.88-8.34S417.22,476.44,417.82,474.6Z"/><polygon class="cls-1" points="406.61 179.63 406.61 185.76 417.58 167.85 417.58 161.72 406.61 179.63"/><polygon class="cls-1" points="406.61 199.77 417.58 181.86 417.58 175.73 406.61 193.65 406.61 199.77"/><polygon class="cls-1" points="406.61 213.78 417.58 195.87 417.58 189.74 406.61 207.65 406.61 213.78"/><polygon class="cls-1" points="406.61 227.79 417.58 209.88 417.58 203.75 406.61 221.66 406.61 227.79"/><polygon class="cls-1" points="406.61 241.8 417.58 223.88 417.58 217.76 406.61 235.67 406.61 241.8"/><polygon class="cls-1" points="259.56 457.62 252.07 448.49 247.94 448.49 255.42 457.62 259.56 457.62"/><polygon class="cls-1" points="251.66 457.62 244.17 448.49 240.04 448.49 247.52 457.62 251.66 457.62"/><polygon class="cls-1" points="243.76 457.62 236.28 448.49 232.14 448.49 239.63 457.62 243.76 457.62"/><polygon class="cls-1" points="235.86 457.62 228.38 448.49 224.24 448.49 231.73 457.62 235.86 457.62"/><polygon class="cls-1" points="227.96 457.62 220.48 448.49 216.34 448.49 223.83 457.62 227.96 457.62"/><polygon id="SVGID-11" data-name="SVGID" class="cls-1" points="261.53 83.02 250.11 90.94 255.45 90.94 266.87 83.02 261.53 83.02"/><g class="cls-4"><rect class="cls-1" x="250.11" y="83.02" width="16.77" height="7.92"/><path class="cls-1" d="M267.79,91.85H253.85v4.61a26.16,26.16,0,0,1-4.69-6.63h0V82.1h18.6Z"/><path class="cls-1" d="M267.82,92c-3.88,1.94-9.09-.61-11.63-5.71A12.08,12.08,0,0,1,255,78.77V82.1h12.81v9.75Z"/></g><polygon id="SVGID-12" data-name="SVGID" class="cls-1" points="249.76 83.02 238.34 90.94 243.68 90.94 255.1 83.02 249.76 83.02"/><g class="cls-5"><rect class="cls-1" x="238.34" y="83.02" width="16.77" height="7.92"/><path class="cls-1" d="M256,91.85H242.08v4.61a26.16,26.16,0,0,1-4.69-6.63h0V82.1H256Z"/><path class="cls-1" d="M256.05,92c-3.88,1.94-9.09-.61-11.64-5.71a12.07,12.07,0,0,1-1.2-7.55V82.1H256v9.75Z"/></g><polygon id="SVGID-13" data-name="SVGID" class="cls-1" points="237.99 83.02 226.56 90.94 231.91 90.94 243.33 83.02 237.99 83.02"/><g class="cls-6"><rect class="cls-1" x="226.56" y="83.02" width="16.77" height="7.92"/><path class="cls-1" d="M244.24,91.85H230.31v4.61a25.91,25.91,0,0,1-4.69-6.63h0V82.1h18.59Z"/><path class="cls-1" d="M244.28,92c-3.88,1.94-9.09-.61-11.64-5.71a12.07,12.07,0,0,1-1.2-7.55V82.1h12.8v9.75Z"/></g><polygon id="SVGID-14" data-name="SVGID" class="cls-1" points="226.21 83.02 214.79 90.94 220.14 90.94 231.56 83.02 226.21 83.02"/><g class="cls-7"><rect class="cls-1" x="214.79" y="83.02" width="16.77" height="7.92"/><path class="cls-1" d="M232.47,91.85H218.54v4.61a26.19,26.19,0,0,1-4.7-6.63h0V82.1h18.59Z"/><path class="cls-1" d="M232.5,92c-3.88,1.94-9.09-.61-11.63-5.71a12.07,12.07,0,0,1-1.2-7.55V82.1h12.8v9.75Z"/></g><polygon id="SVGID-15" data-name="SVGID" class="cls-1" points="214.44 83.02 203.02 90.94 208.36 90.94 219.78 83.02 214.44 83.02"/><g class="cls-8"><rect class="cls-1" x="203.02" y="83.02" width="16.77" height="7.92"/><path class="cls-1" d="M220.7,91.85H206.76v4.61a26.16,26.16,0,0,1-4.69-6.63h0V82.1H220.7Z"/><path class="cls-1" d="M220.73,92c-3.88,1.94-9.09-.61-11.63-5.71a12.08,12.08,0,0,1-1.21-7.55V82.1H220.7v9.75Z"/></g><path class="cls-1" d="M361.84,452H263.36a.46.46,0,0,1-.35-.17l-7.92-9.58H150.66l-10.23,9a.46.46,0,0,1-.65,0,.45.45,0,0,1,0-.64l10.37-9.14a.46.46,0,0,1,.3-.11H255.3a.45.45,0,0,1,.35.16l7.93,9.58h98.26a.46.46,0,1,1,0,.92Z"/><path class="cls-1" d="M29.57,308.85a.46.46,0,0,1-.2-.05.47.47,0,0,1-.21-.62L37,292.44V144.6L31,123.34a.45.45,0,0,1,.31-.56.46.46,0,0,1,.57.31l6.09,21.32a.51.51,0,0,1,0,.13v148a.54.54,0,0,1-.05.21L30,308.59A.46.46,0,0,1,29.57,308.85Z"/><polygon class="cls-1" points="407.83 80.28 407.83 145.15 396.26 168.9 396.26 203.62 402.35 196.01 402.35 169.51 413.31 147.58 413.31 79.97 407.83 80.28"/><path class="cls-1" d="M396.26,213.53V332.75l6.09,3.66V205.76C400.39,208.31,398.25,211.06,396.26,213.53Z"/><path class="cls-1" d="M429.44,64.12,416.3,55.65a1.57,1.57,0,0,0-.86-.25,1.6,1.6,0,0,0-.87.25l-12.46,8H350.23A1.41,1.41,0,0,0,348.75,65v8.65A1.41,1.41,0,0,0,350.23,75h65.21a1.6,1.6,0,0,0,.86-.25l13.14-8.47a1.25,1.25,0,0,0,0-2.16Z"/><path class="cls-1" d="M428.06,483.52,417.84,492a1.09,1.09,0,0,1-.67.25,1.07,1.07,0,0,1-.67-.25l-9.7-8H366.45a1.26,1.26,0,0,1-1.16-1.34V474a1.26,1.26,0,0,1,1.16-1.33h50.72a1,1,0,0,1,.67.25l10.22,8.47a1.45,1.45,0,0,1,0,2.16Z"/><path class="cls-1" d="M8.72,63.87.25,73.73a1,1,0,0,0-.25.65A1,1,0,0,0,.25,75l8,9.36v38.93a1.24,1.24,0,0,0,1.33,1.12h8.65a1.23,1.23,0,0,0,1.33-1.12V74.38a1,1,0,0,0-.25-.65l-8.47-9.86a1.5,1.5,0,0,0-2.16,0Z"/><path class="cls-1" d="M19.21,309.76S7,308.38,7.64,316.36v87.75l6.7,4.91v54.62l4.87,10.43S19.82,307.46,19.21,309.76Z"/><path class="cls-1" d="M417.82,474.6s12.19,1.11,11.58-5.27v-70.2l-6.7-3.93V351.51l-4.88-8.34S417.22,476.44,417.82,474.6Z"/><polygon class="cls-1" points="406.61 179.63 406.61 185.76 417.58 167.85 417.58 161.72 406.61 179.63"/><polygon class="cls-1" points="406.61 199.77 417.58 181.86 417.58 175.73 406.61 193.65 406.61 199.77"/><polygon class="cls-1" points="406.61 213.78 417.58 195.87 417.58 189.74 406.61 207.65 406.61 213.78"/><polygon class="cls-1" points="406.61 227.79 417.58 209.88 417.58 203.75 406.61 221.66 406.61 227.79"/><polygon class="cls-1" points="406.61 241.8 417.58 223.88 417.58 217.76 406.61 235.67 406.61 241.8"/><polygon class="cls-1" points="259.56 457.62 252.07 448.49 247.94 448.49 255.42 457.62 259.56 457.62"/><polygon class="cls-1" points="251.66 457.62 244.17 448.49 240.04 448.49 247.52 457.62 251.66 457.62"/><polygon class="cls-1" points="243.76 457.62 236.28 448.49 232.14 448.49 239.63 457.62 243.76 457.62"/><polygon class="cls-1" points="235.86 457.62 228.38 448.49 224.24 448.49 231.73 457.62 235.86 457.62"/><polygon class="cls-1" points="227.96 457.62 220.48 448.49 216.34 448.49 223.83 457.62 227.96 457.62"/><polygon id="SVGID-16" data-name="SVGID" class="cls-1" points="261.53 83.02 250.11 90.94 255.45 90.94 266.87 83.02 261.53 83.02"/><g class="cls-4"><rect class="cls-1" x="250.11" y="83.02" width="16.77" height="7.92"/><path class="cls-1" d="M267.79,91.85H253.85v4.61a26.16,26.16,0,0,1-4.69-6.63h0V82.1h18.6Z"/><path class="cls-1" d="M267.82,92c-3.88,1.94-9.09-.61-11.63-5.71A12.08,12.08,0,0,1,255,78.77V82.1h12.81v9.75Z"/></g><polygon id="SVGID-17" data-name="SVGID" class="cls-1" points="249.76 83.02 238.34 90.94 243.68 90.94 255.1 83.02 249.76 83.02"/><g class="cls-5"><rect class="cls-1" x="238.34" y="83.02" width="16.77" height="7.92"/><path class="cls-1" d="M256,91.85H242.08v4.61a26.16,26.16,0,0,1-4.69-6.63h0V82.1H256Z"/><path class="cls-1" d="M256.05,92c-3.88,1.94-9.09-.61-11.64-5.71a12.07,12.07,0,0,1-1.2-7.55V82.1H256v9.75Z"/></g><polygon id="SVGID-18" data-name="SVGID" class="cls-1" points="237.99 83.02 226.56 90.94 231.91 90.94 243.33 83.02 237.99 83.02"/><g class="cls-6"><rect class="cls-1" x="226.56" y="83.02" width="16.77" height="7.92"/><path class="cls-1" d="M244.24,91.85H230.31v4.61a25.91,25.91,0,0,1-4.69-6.63h0V82.1h18.59Z"/><path class="cls-1" d="M244.28,92c-3.88,1.94-9.09-.61-11.64-5.71a12.07,12.07,0,0,1-1.2-7.55V82.1h12.8v9.75Z"/></g><polygon id="SVGID-19" data-name="SVGID" class="cls-1" points="226.21 83.02 214.79 90.94 220.14 90.94 231.56 83.02 226.21 83.02"/><g class="cls-7"><rect class="cls-1" x="214.79" y="83.02" width="16.77" height="7.92"/><path class="cls-1" d="M232.47,91.85H218.54v4.61a26.19,26.19,0,0,1-4.7-6.63h0V82.1h18.59Z"/><path class="cls-1" d="M232.5,92c-3.88,1.94-9.09-.61-11.63-5.71a12.07,12.07,0,0,1-1.2-7.55V82.1h12.8v9.75Z"/></g><polygon id="SVGID-20" data-name="SVGID" class="cls-1" points="214.44 83.02 203.02 90.94 208.36 90.94 219.78 83.02 214.44 83.02"/><g class="cls-8"><rect class="cls-1" x="203.02" y="83.02" width="16.77" height="7.92"/><path class="cls-1" d="M220.7,91.85H206.76v4.61a26.16,26.16,0,0,1-4.69-6.63h0V82.1H220.7Z"/><path class="cls-1" d="M220.73,92c-3.88,1.94-9.09-.61-11.63-5.71a12.08,12.08,0,0,1-1.21-7.55V82.1H220.7v9.75Z"/></g><polygon class="cls-1" points="407.83 80.28 407.83 145.15 396.26 168.9 396.26 203.62 402.35 196.01 402.35 169.51 413.31 147.58 413.31 79.97 407.83 80.28"/><path class="cls-1" d="M396.26,213.53V332.75l6.09,3.66V205.76C400.39,208.31,398.25,211.06,396.26,213.53Z"/><rect class="cls-9" x="57.68" y="5.23" width="267.37" height="61.17"/><polygon class="cls-1" points="53.07 17.84 52.52 17.84 52.52 0 329 0 329 4.68 328.45 4.68 328.45 0.55 53.07 0.55 53.07 17.84"/><polygon class="cls-1" points="329 70.95 52.52 70.95 52.52 28.02 53.07 28.02 53.07 70.41 328.45 70.41 328.45 14.85 329 14.85 329 70.95"/><rect class="cls-1" x="326.63" y="4.05" width="4.41" height="0.55" transform="translate(93.44 233.97) rotate(-45.04)"/><rect class="cls-1" x="326.63" y="14.42" width="4.41" height="0.55" transform="translate(86.18 237.11) rotate(-45.07)"/><rect class="cls-1" x="50.59" y="17.54" width="4.41" height="0.55" transform="translate(2.89 42.59) rotate(-45.04)"/><rect class="cls-1" x="50.59" y="27.91" width="4.41" height="0.55" transform="translate(-4.45 45.65) rotate(-45.07)"/><polygon class="cls-1" points="52.79 60.04 61.41 68.65 80.69 68.65 82.75 70.71 52.79 70.71 52.79 60.04"/><polygon class="cls-1" points="328.83 60.04 320.22 68.65 300.93 68.65 298.88 70.71 328.83 70.71 328.83 60.04"/><polygon class="cls-1" points="55.44 14.43 54.9 14.43 54.9 2.49 326.64 2.49 326.64 4.97 326.09 4.97 326.09 3.04 55.44 3.04 55.44 14.43"/><polygon class="cls-1" points="55.72 8.24 54.63 8.24 54.63 2.22 68.79 2.22 68.79 3.31 55.72 3.31 55.72 8.24"/><polygon class="cls-1" points="329.55 13.97 329.55 32.5 330.69 33.64 330.69 41.67 328.79 43.57 328.79 15.11 329.55 13.97"/><polygon class="cls-1" points="52.03 28.9 52.03 47.43 50.89 48.56 50.89 56.59 52.79 58.49 52.79 28.71 52.03 28.9"/><path class="cls-1" d="M111.73,16.66V47.94h-7.54V16.66Zm2.17,6.93V16.66h13.78l2.59,3.12V44.73l-2.59,3.21H113.9V41h8.84V23.59Z"/><path class="cls-1" d="M139.64,47.94h-7.19l7.75-22.18h5.37l1,2.51Zm8.05-15.25h2.82l-3.25-9.1H141l2.43-6.93H152l11,31.28h-7.11l-2.94-8.32h-7.67Z"/><path class="cls-1" d="M185.43,48.07,172.7,23.59h-7.54V16.66h12.21L189.76,41h7.54v7.06ZM172.7,29.53V47.94h-7.54V25.76h5.54Zm17.06,5.76V16.66h7.54V38.84h-5.63Z"/><path class="cls-1" d="M209.18,41h5v6.93h-9.92l-2.6-3.25V19.82l2.6-3.16h9.92v6.93h-5ZM229,44.73l-2.6,3.21h-10V41h5.54V35.85h-6.06V28.92H229ZM216.33,23.59V16.66h10l2.6,3.12v6.67h-6.89V23.59Z"/><path class="cls-1" d="M232.88,47.94V16.66h7.54V47.94Zm9.7-24.35V16.66H257.1v6.93Zm0,12V28.62h11.09v6.93Zm0,12.39V41H257.1v6.93Z"/><path class="cls-1" d="M260.35,47.94V16.66h7.54V47.94Zm9.7-24.35V16.66h13.39l2.6,3.12V32.34L283.87,35l2.91,12.91h-7.5l-2.55-10.66h-6.68V30.35h8.45V23.59Z"/></g></g></g></svg>