<svg xmlns="http://www.w3.org/2000/svg" xmlns:xlink="http://www.w3.org/1999/xlink" viewBox="0 0 418.43 491.51"><defs><style>.cls-1{mask:url(#mask);filter:url(#luminosity-noclip-2);}.cls-2{mix-blend-mode:multiply;fill:url(#linear-gradient);}.cls-3{fill:url(#New_Gradient_Swatch_1);}.cls-4{isolation:isolate;}.cls-5{opacity:0.35;fill:url(#New_Gradient_Swatch_1-2);}.cls-6{fill:url(#New_Gradient_Swatch_1-3);}.cls-7{opacity:0.7;fill:url(#New_Gradient_Swatch_1-4);}.cls-18,.cls-8,.cls-9{opacity:0.4;}.cls-8{fill:url(#New_Gradient_Swatch_1-5);}.cls-9{fill:url(#New_Gradient_Swatch_1-6);}.cls-10,.cls-11{opacity:0.2;}.cls-10{fill:url(#New_Gradient_Swatch_1-7);}.cls-11{fill:url(#New_Gradient_Swatch_1-8);}.cls-12{fill:url(#New_Gradient_Swatch_1-9);}.cls-13{fill:url(#New_Gradient_Swatch_1-10);}.cls-14{fill:url(#New_Gradient_Swatch_1-11);}.cls-15{fill:url(#New_Gradient_Swatch_1-12);}.cls-16{fill:url(#New_Gradient_Swatch_1-13);}.cls-17{mask:url(#mask-2);}.cls-18{fill:url(#New_Gradient_Swatch_1-14);}.cls-19{fill:url(#New_Gradient_Swatch_1-15);}.cls-20{clip-path:url(#clip-path);}.cls-21{fill:url(#New_Gradient_Swatch_1-18);}.cls-22{fill:url(#New_Gradient_Swatch_1-19);}.cls-23{fill:url(#New_Gradient_Swatch_1-20);}.cls-24{fill:url(#New_Gradient_Swatch_1-21);}.cls-25{fill:url(#New_Gradient_Swatch_1-22);}.cls-26{fill:url(#New_Gradient_Swatch_1-34);}.cls-27{fill:url(#New_Gradient_Swatch_1-35);}.cls-28{fill:url(#New_Gradient_Swatch_1-36);}.cls-29{fill:url(#New_Gradient_Swatch_1-37);}.cls-30{fill:url(#New_Gradient_Swatch_1-38);}.cls-31{fill:url(#New_Gradient_Swatch_1-39);}.cls-32{fill:url(#New_Gradient_Swatch_1-40);}.cls-33{fill:url(#New_Gradient_Swatch_1-41);}.cls-34{fill:url(#New_Gradient_Swatch_1-42);}.cls-35{fill:url(#New_Gradient_Swatch_1-43);}.cls-36{fill:url(#New_Gradient_Swatch_1-44);}.cls-37{fill:url(#New_Gradient_Swatch_1-45);}.cls-38{opacity:0.55;mix-blend-mode:screen;fill:url(#New_Gradient_Swatch_1-46);}.cls-39{fill:url(#New_Gradient_Swatch_1-47);}.cls-40{fill:url(#New_Gradient_Swatch_1-48);}.cls-41{fill:url(#New_Gradient_Swatch_1-49);}.cls-42{fill:url(#New_Gradient_Swatch_1-50);}.cls-43{fill:url(#New_Gradient_Swatch_1-51);}.cls-44{fill:url(#New_Gradient_Swatch_1-52);}.cls-45{fill:url(#New_Gradient_Swatch_1-53);}.cls-46{fill:url(#New_Gradient_Swatch_1-54);}.cls-47{fill:url(#New_Gradient_Swatch_1-55);}.cls-48{fill:url(#New_Gradient_Swatch_1-56);}.cls-49{fill:url(#New_Gradient_Swatch_1-57);}.cls-50{fill:url(#New_Gradient_Swatch_1-58);}.cls-51{filter:url(#luminosity-noclip);}</style><filter id="luminosity-noclip" x="0" y="-8437.76" width="22.17" height="32766" filterUnits="userSpaceOnUse" color-interpolation-filters="sRGB"><feFlood flood-color="#fff" result="bg"/><feBlend in="SourceGraphic" in2="bg"/></filter><mask id="mask" x="0" y="-8437.76" width="22.17" height="32766" maskUnits="userSpaceOnUse"><g class="cls-51"/></mask><linearGradient id="linear-gradient" x1="11.09" y1="111.58" x2="11.09" y2="271.32" gradientUnits="userSpaceOnUse"><stop offset="0" stop-color="#fff"/><stop offset="0.1" stop-color="#efefef"/><stop offset="0.29" stop-color="#c4c4c4"/><stop offset="0.55" stop-color="#7f7f7f"/><stop offset="0.88" stop-color="#212121"/><stop offset="0.99"/></linearGradient><linearGradient id="New_Gradient_Swatch_1" x1="379.17" y1="247.01" x2="389.96" y2="247.01" gradientUnits="userSpaceOnUse"><stop offset="0" stop-color="#cf52fe"/><stop offset="1" stop-color="#19dbb6"/></linearGradient><linearGradient id="New_Gradient_Swatch_1-2" x1="22" y1="284.64" x2="403.44" y2="284.64" xlink:href="#New_Gradient_Swatch_1"/><linearGradient id="New_Gradient_Swatch_1-3" x1="21.1" y1="284.64" x2="404.34" y2="284.64" xlink:href="#New_Gradient_Swatch_1"/><linearGradient id="New_Gradient_Swatch_1-4" x1="396.53" y1="123.11" x2="404.92" y2="123.11" xlink:href="#New_Gradient_Swatch_1"/><linearGradient id="New_Gradient_Swatch_1-5" x1="396.53" y1="153.67" x2="404.92" y2="153.67" xlink:href="#New_Gradient_Swatch_1"/><linearGradient id="New_Gradient_Swatch_1-6" x1="396.53" y1="184.24" x2="404.92" y2="184.24" xlink:href="#New_Gradient_Swatch_1"/><linearGradient id="New_Gradient_Swatch_1-7" x1="396.53" y1="254.95" x2="404.92" y2="254.95" xlink:href="#New_Gradient_Swatch_1"/><linearGradient id="New_Gradient_Swatch_1-8" x1="396.53" y1="214.8" x2="404.92" y2="214.8" xlink:href="#New_Gradient_Swatch_1"/><linearGradient id="New_Gradient_Swatch_1-9" x1="233.08" y1="89.69" x2="379.9" y2="89.69" xlink:href="#New_Gradient_Swatch_1"/><linearGradient id="New_Gradient_Swatch_1-10" x1="29.32" y1="480.43" x2="230.27" y2="480.43" xlink:href="#New_Gradient_Swatch_1"/><linearGradient id="New_Gradient_Swatch_1-11" x1="233.7" y1="425.89" x2="414.38" y2="425.89" xlink:href="#New_Gradient_Swatch_1"/><linearGradient id="New_Gradient_Swatch_1-12" x1="409.44" y1="372.85" x2="418.43" y2="372.85" xlink:href="#New_Gradient_Swatch_1"/><linearGradient id="New_Gradient_Swatch_1-13" x1="30.09" y1="449.26" x2="39.08" y2="449.26" xlink:href="#New_Gradient_Swatch_1"/><filter id="luminosity-noclip-2" x="0" y="111.58" width="22.17" height="159.75" filterUnits="userSpaceOnUse" color-interpolation-filters="sRGB"><feFlood flood-color="#fff" result="bg"/><feBlend in="SourceGraphic" in2="bg"/></filter><mask id="mask-2" x="0" y="111.58" width="22.17" height="159.75" maskUnits="userSpaceOnUse"><g class="cls-1"><path class="cls-2" d="M2.33,111.71l-.14,0a1.61,1.61,0,0,0-.54-.09A1.68,1.68,0,0,0,0,113.28v16.89a1.71,1.71,0,0,0,1.19,1.64l12,3.6v6l-11-3.3a1.61,1.61,0,0,0-.54-.09A1.68,1.68,0,0,0,0,139.75v16.88a1.71,1.71,0,0,0,1.19,1.64l12,3.6v6l-11-3.29a1.62,1.62,0,0,0-.54-.1A1.68,1.68,0,0,0,0,166.21V183.1a1.71,1.71,0,0,0,1.19,1.64l12,3.59v6l-11-3.3a1.61,1.61,0,0,0-.54-.09A1.68,1.68,0,0,0,0,192.67v16.89a1.71,1.71,0,0,0,1.19,1.64l17.34,5.2v13.48l-4.46-1.33a.54.54,0,0,0-.22,0,.68.68,0,0,0-.67.69v6.85a.7.7,0,0,0,.49.66l4.86,1.46v2.44l-4.46-1.34a.78.78,0,0,0-.22,0,.67.67,0,0,0-.67.69v6.84a.7.7,0,0,0,.49.67l4.86,1.46v2.44L14.07,250a.78.78,0,0,0-.22,0,.68.68,0,0,0-.67.69v6.85a.7.7,0,0,0,.49.67l4.86,1.45v2.45l-4.46-1.34a.54.54,0,0,0-.22,0,.68.68,0,0,0-.67.69v6.85a.68.68,0,0,0,.49.66l8,2.41a.64.64,0,0,0,.49-.05V120.33C15.53,117.62,8,114.28,2.33,111.71Z"/></g></mask><linearGradient id="New_Gradient_Swatch_1-14" x1="0" y1="191.45" x2="22.17" y2="191.45" xlink:href="#New_Gradient_Swatch_1"/><linearGradient id="New_Gradient_Swatch_1-15" x1="38.48" y1="113.07" x2="333.33" y2="113.07" xlink:href="#New_Gradient_Swatch_1"/><clipPath id="clip-path"><polygon id="SVGID" class="cls-3" points="389.96 380.94 388.16 380.94 388.16 295.52 379.17 284.9 379.17 113.07 380.97 113.07 380.97 284.24 389.96 294.86 389.96 380.94"/></clipPath><linearGradient id="New_Gradient_Swatch_1-18" x1="378.06" y1="247.01" x2="391.07" y2="247.01" xlink:href="#New_Gradient_Swatch_1"/><linearGradient id="New_Gradient_Swatch_1-19" x1="378.11" y1="247.01" x2="391.03" y2="247.01" xlink:href="#New_Gradient_Swatch_1"/><linearGradient id="New_Gradient_Swatch_1-20" x1="34.44" y1="384.54" x2="40.73" y2="384.54" xlink:href="#New_Gradient_Swatch_1"/><linearGradient id="New_Gradient_Swatch_1-21" x1="230.2" y1="422.15" x2="403.74" y2="422.15" xlink:href="#New_Gradient_Swatch_1"/><linearGradient id="New_Gradient_Swatch_1-22" x1="22.17" y1="193.68" x2="42.38" y2="193.68" xlink:href="#New_Gradient_Swatch_1"/><linearGradient id="New_Gradient_Swatch_1-34" x1="39.61" y1="4.09" x2="113.61" y2="4.09" xlink:href="#New_Gradient_Swatch_1"/><linearGradient id="New_Gradient_Swatch_1-35" x1="34.64" y1="88.4" x2="113.61" y2="88.4" xlink:href="#New_Gradient_Swatch_1"/><linearGradient id="New_Gradient_Swatch_1-36" x1="14.53" y1="50.75" x2="15.09" y2="50.75" xlink:href="#New_Gradient_Swatch_1"/><linearGradient id="New_Gradient_Swatch_1-37" x1="237.52" y1="49.6" x2="238.07" y2="49.6" xlink:href="#New_Gradient_Swatch_1"/><linearGradient id="New_Gradient_Swatch_1-38" x1="139.13" y1="88.4" x2="202.75" y2="88.4" xlink:href="#New_Gradient_Swatch_1"/><linearGradient id="New_Gradient_Swatch_1-39" x1="139.13" y1="4.09" x2="208.87" y2="4.09" xlink:href="#New_Gradient_Swatch_1"/><linearGradient id="New_Gradient_Swatch_1-40" x1="122.57" y1="4.14" x2="130.84" y2="4.14" xlink:href="#New_Gradient_Swatch_1"/><linearGradient id="New_Gradient_Swatch_1-41" x1="19.53" y1="13.1" x2="27.46" y2="13.1" xlink:href="#New_Gradient_Swatch_1"/><linearGradient id="New_Gradient_Swatch_1-42" x1="223.88" y1="78.51" x2="227.68" y2="78.51" xlink:href="#New_Gradient_Swatch_1"/><linearGradient id="New_Gradient_Swatch_1-43" x1="18.97" y1="84.58" x2="22.78" y2="84.58" xlink:href="#New_Gradient_Swatch_1"/><linearGradient id="New_Gradient_Swatch_1-44" x1="226.11" y1="12.14" x2="234.83" y2="12.14" xlink:href="#New_Gradient_Swatch_1"/><linearGradient id="New_Gradient_Swatch_1-45" x1="124.8" y1="88.25" x2="128.61" y2="88.25" xlink:href="#New_Gradient_Swatch_1"/><linearGradient id="New_Gradient_Swatch_1-46" x1="21.26" y1="46.43" x2="230.44" y2="46.43" xlink:href="#New_Gradient_Swatch_1"/><linearGradient id="New_Gradient_Swatch_1-47" x1="209.7" y1="73.82" x2="230.4" y2="73.82" xlink:href="#New_Gradient_Swatch_1"/><linearGradient id="New_Gradient_Swatch_1-48" x1="216.31" y1="18.69" x2="230.64" y2="18.69" gradientTransform="translate(78.67 -152.54) rotate(45)" xlink:href="#New_Gradient_Swatch_1"/><linearGradient id="New_Gradient_Swatch_1-49" x1="20.99" y1="21.19" x2="39.75" y2="21.19" xlink:href="#New_Gradient_Swatch_1"/><linearGradient id="New_Gradient_Swatch_1-50" x1="57.94" y1="93.16" x2="108.59" y2="93.16" xlink:href="#New_Gradient_Swatch_1"/><linearGradient id="New_Gradient_Swatch_1-51" x1="144.69" y1="93.16" x2="195.34" y2="93.16" xlink:href="#New_Gradient_Swatch_1"/><linearGradient id="New_Gradient_Swatch_1-52" x1="28.43" y1="49.37" x2="69.72" y2="49.37" xlink:href="#New_Gradient_Swatch_1"/><linearGradient id="New_Gradient_Swatch_1-53" x1="65.5" y1="49.37" x2="94.34" y2="49.37" xlink:href="#New_Gradient_Swatch_1"/><linearGradient id="New_Gradient_Swatch_1-54" x1="96.41" y1="49.37" x2="122.42" y2="49.37" xlink:href="#New_Gradient_Swatch_1"/><linearGradient id="New_Gradient_Swatch_1-55" x1="124.52" y1="49.37" x2="150.37" y2="49.37" xlink:href="#New_Gradient_Swatch_1"/><linearGradient id="New_Gradient_Swatch_1-56" x1="154.29" y1="49.37" x2="162.17" y2="49.37" xlink:href="#New_Gradient_Swatch_1"/><linearGradient id="New_Gradient_Swatch_1-57" x1="166.09" y1="49.37" x2="191.94" y2="49.37" xlink:href="#New_Gradient_Swatch_1"/><linearGradient id="New_Gradient_Swatch_1-58" x1="195.86" y1="49.37" x2="221.7" y2="49.37" xlink:href="#New_Gradient_Swatch_1"/></defs><title>message_03_purple_green</title><g class="cls-4"><g id="Layer_2" data-name="Layer 2"><g id="Layer_1-2" data-name="Layer 1"><path class="cls-5" d="M390.76,274.88V110.09l-12.49-9.61H233.55l-11.21,9.61H32.05l-10,9.57v151l10,9.18V399.6l-5.25,7.71v50.94c0,1.8,5.25,10.54,5.25,10.54H390.76l12.68-22.22V288.36Z"/><path class="cls-6" d="M391.28,469.69H31.55l-.27-.43c-1.26-2.1-5.38-9.11-5.38-11V407l5.26-7.72V280.25L21.1,271.07V119.27l10.59-10.08H222l11.2-9.61H378.58l13.08,10.07V274.52L404.34,288V446.8ZM32.56,467.9H390.24l12.3-21.57V288.71l-12.68-13.48V110.53L378,101.38H233.88L222.67,111H32.41L22.9,120V270.28L33,279.46V399.88l-5.26,7.71v50.66C27.69,459.17,30.17,463.88,32.56,467.9Z"/><rect class="cls-7" x="396.53" y="111.72" width="8.39" height="22.77"/><rect class="cls-8" x="396.53" y="142.29" width="8.39" height="22.77"/><rect class="cls-9" x="396.53" y="172.85" width="8.39" height="22.77"/><polygon class="cls-10" points="396.53 233.98 396.53 266.34 404.92 275.93 404.92 233.98 396.53 233.98"/><rect class="cls-11" x="396.53" y="203.41" width="8.39" height="22.77"/><path class="cls-12" d="M378,100.78a1.39,1.39,0,0,0,.16-.35l1.71-6.59a1.63,1.63,0,0,0-.31-1.41,1.75,1.75,0,0,0-1.35-.64H335.3l3.3-11a1.65,1.65,0,0,0,.09-.54,1.68,1.68,0,0,0-1.7-1.65H320.1a1.69,1.69,0,0,0-1.64,1.19l-3.6,12h-6l3.3-11a1.65,1.65,0,0,0,.09-.54,1.68,1.68,0,0,0-1.71-1.65H293.64A1.69,1.69,0,0,0,292,79.8l-3.6,12h-6l3.29-11a1.66,1.66,0,0,0,.1-.54,1.68,1.68,0,0,0-1.71-1.65H267.17a1.69,1.69,0,0,0-1.64,1.19l-3.59,12h-6l3.3-11a1.65,1.65,0,0,0,.09-.54,1.68,1.68,0,0,0-1.7-1.65H240.71a1.69,1.69,0,0,0-1.64,1.19l-5.93,19.77a1.59,1.59,0,0,0,.13,1.21Z"/><path class="cls-13" d="M230.2,469.34h-199a1.39,1.39,0,0,0-.16.35l-1.71,6.59a1.63,1.63,0,0,0,.31,1.41,1.75,1.75,0,0,0,1.35.64H73.92l-3.3,11a1.61,1.61,0,0,0-.09.54,1.68,1.68,0,0,0,1.7,1.65H89.12a1.69,1.69,0,0,0,1.64-1.19l3.6-12h6l-3.3,11a1.61,1.61,0,0,0-.09.54,1.68,1.68,0,0,0,1.71,1.65h16.88a1.69,1.69,0,0,0,1.64-1.19l3.6-12h6l-3.29,11a1.62,1.62,0,0,0-.1.54,1.68,1.68,0,0,0,1.71,1.65h16.89a1.69,1.69,0,0,0,1.64-1.19l3.59-12h6l-3.3,11a1.61,1.61,0,0,0-.09.54,1.68,1.68,0,0,0,1.7,1.65h16.89a1.69,1.69,0,0,0,1.64-1.19l5.2-17.34h13.48l-1.33,4.46a.54.54,0,0,0,0,.22.68.68,0,0,0,.69.67H195a.7.7,0,0,0,.66-.48l1.46-4.87h2.44l-1.34,4.46a.78.78,0,0,0,0,.22.67.67,0,0,0,.69.67h6.84a.7.7,0,0,0,.67-.48l1.46-4.87h2.44L209,477.44a.78.78,0,0,0,0,.22.68.68,0,0,0,.69.67h6.85a.7.7,0,0,0,.67-.48l1.45-4.87H221l-1.34,4.46a.78.78,0,0,0,0,.22.68.68,0,0,0,.69.67h6.85a.68.68,0,0,0,.66-.48l2.41-8A.64.64,0,0,0,230.2,469.34Z"/><path class="cls-14" d="M398.35,477.88H234.15a.45.45,0,1,1,0-.9H398.08l15.4-28.43v-74.2a.45.45,0,1,1,.9,0v74.31a.54.54,0,0,1-.05.22l-15.59,28.76A.43.43,0,0,1,398.35,477.88Z"/><path class="cls-15" d="M418.43,372.85a4.5,4.5,0,1,1-4.5-4.49A4.5,4.5,0,0,1,418.43,372.85Z"/><path class="cls-16" d="M39.08,449.26a4.5,4.5,0,1,1-4.49-4.49A4.5,4.5,0,0,1,39.08,449.26Z"/><g class="cls-17"><path class="cls-18" d="M2.33,111.71l-.14,0a1.61,1.61,0,0,0-.54-.09A1.68,1.68,0,0,0,0,113.28v16.89a1.71,1.71,0,0,0,1.19,1.64l12,3.6v6l-11-3.3a1.61,1.61,0,0,0-.54-.09A1.68,1.68,0,0,0,0,139.75v16.88a1.71,1.71,0,0,0,1.19,1.64l12,3.6v6l-11-3.29a1.62,1.62,0,0,0-.54-.1A1.68,1.68,0,0,0,0,166.21V183.1a1.71,1.71,0,0,0,1.19,1.64l12,3.59v6l-11-3.3a1.61,1.61,0,0,0-.54-.09A1.68,1.68,0,0,0,0,192.67v16.89a1.71,1.71,0,0,0,1.19,1.64l17.34,5.2v13.48l-4.46-1.33a.54.54,0,0,0-.22,0,.68.68,0,0,0-.67.69v6.85a.7.7,0,0,0,.49.66l4.86,1.46v2.44l-4.46-1.34a.78.78,0,0,0-.22,0,.67.67,0,0,0-.67.69v6.84a.7.7,0,0,0,.49.67l4.86,1.46v2.44L14.07,250a.78.78,0,0,0-.22,0,.68.68,0,0,0-.67.69v6.85a.7.7,0,0,0,.49.67l4.86,1.45v2.45l-4.46-1.34a.54.54,0,0,0-.22,0,.68.68,0,0,0-.67.69v6.85a.68.68,0,0,0,.49.66l8,2.41a.64.64,0,0,0,.49-.05V120.33C15.53,117.62,8,114.28,2.33,111.71Z"/></g><polygon class="cls-19" points="227.41 118.01 38.48 118.01 38.48 117.11 227.1 117.11 238.79 108.12 333.33 108.12 333.33 109.02 239.09 109.02 227.41 118.01"/><polygon id="SVGID-2" data-name="SVGID" class="cls-3" points="389.96 380.94 388.16 380.94 388.16 295.52 379.17 284.9 379.17 113.07 380.97 113.07 380.97 284.24 389.96 294.86 389.96 380.94"/><g class="cls-20"><rect class="cls-3" x="379.17" y="113.07" width="10.79" height="267.88"/><path class="cls-21" d="M384.57,341.78q-3.27,0-6.51-.13h.21V152.36h-.21q3.24-.13,6.51-.13t6.5.13h-.21V341.65h.21Q387.85,341.79,384.57,341.78Z"/><path class="cls-22" d="M384.57,294.39c-2.18,0-4.34-.08-6.46-.24h.16V199.86h-.16c2.12-.16,4.28-.24,6.46-.24s4.33.08,6.46.24h-.17v94.29H391Q387.84,294.39,384.57,294.39Z"/></g><polygon class="cls-23" points="35.34 450.16 34.44 450.16 34.44 413.18 39.83 404.19 39.83 318.92 40.73 318.92 40.73 404.44 35.34 413.43 35.34 450.16"/><polygon class="cls-24" points="230.2 469.34 235.34 461.25 387.56 461.25 399.55 445.67 403.74 374.95 403.74 446.57 390.76 468.79 230.2 469.34"/><polygon class="cls-25" points="42.38 110.67 29.79 122.06 29.79 277.27 22.17 271.25 22.17 120.33 32.05 110.09 42.38 110.67"/><rect class="cls-7" x="396.53" y="111.72" width="8.39" height="22.77"/><rect class="cls-8" x="396.53" y="142.29" width="8.39" height="22.77"/><rect class="cls-9" x="396.53" y="172.85" width="8.39" height="22.77"/><polygon class="cls-10" points="396.53 233.98 396.53 266.34 404.92 275.93 404.92 233.98 396.53 233.98"/><rect class="cls-11" x="396.53" y="203.41" width="8.39" height="22.77"/><path class="cls-12" d="M378,100.78a1.39,1.39,0,0,0,.16-.35l1.71-6.59a1.63,1.63,0,0,0-.31-1.41,1.75,1.75,0,0,0-1.35-.64H335.3l3.3-11a1.65,1.65,0,0,0,.09-.54,1.68,1.68,0,0,0-1.7-1.65H320.1a1.69,1.69,0,0,0-1.64,1.19l-3.6,12h-6l3.3-11a1.65,1.65,0,0,0,.09-.54,1.68,1.68,0,0,0-1.71-1.65H293.64A1.69,1.69,0,0,0,292,79.8l-3.6,12h-6l3.29-11a1.66,1.66,0,0,0,.1-.54,1.68,1.68,0,0,0-1.71-1.65H267.17a1.69,1.69,0,0,0-1.64,1.19l-3.59,12h-6l3.3-11a1.65,1.65,0,0,0,.09-.54,1.68,1.68,0,0,0-1.7-1.65H240.71a1.69,1.69,0,0,0-1.64,1.19l-5.93,19.77a1.59,1.59,0,0,0,.13,1.21Z"/><path class="cls-13" d="M230.2,469.34h-199a1.39,1.39,0,0,0-.16.35l-1.71,6.59a1.63,1.63,0,0,0,.31,1.41,1.75,1.75,0,0,0,1.35.64H73.92l-3.3,11a1.61,1.61,0,0,0-.09.54,1.68,1.68,0,0,0,1.7,1.65H89.12a1.69,1.69,0,0,0,1.64-1.19l3.6-12h6l-3.3,11a1.61,1.61,0,0,0-.09.54,1.68,1.68,0,0,0,1.71,1.65h16.88a1.69,1.69,0,0,0,1.64-1.19l3.6-12h6l-3.29,11a1.62,1.62,0,0,0-.1.54,1.68,1.68,0,0,0,1.71,1.65h16.89a1.69,1.69,0,0,0,1.64-1.19l3.59-12h6l-3.3,11a1.61,1.61,0,0,0-.09.54,1.68,1.68,0,0,0,1.7,1.65h16.89a1.69,1.69,0,0,0,1.64-1.19l5.2-17.34h13.48l-1.33,4.46a.54.54,0,0,0,0,.22.68.68,0,0,0,.69.67H195a.7.7,0,0,0,.66-.48l1.46-4.87h2.44l-1.34,4.46a.78.78,0,0,0,0,.22.67.67,0,0,0,.69.67h6.84a.7.7,0,0,0,.67-.48l1.46-4.87h2.44L209,477.44a.78.78,0,0,0,0,.22.68.68,0,0,0,.69.67h6.85a.7.7,0,0,0,.67-.48l1.45-4.87H221l-1.34,4.46a.78.78,0,0,0,0,.22.68.68,0,0,0,.69.67h6.85a.68.68,0,0,0,.66-.48l2.41-8A.64.64,0,0,0,230.2,469.34Z"/><path class="cls-15" d="M418.43,372.85a4.5,4.5,0,1,1-4.5-4.49A4.5,4.5,0,0,1,418.43,372.85Z"/><path class="cls-16" d="M39.08,449.26a4.5,4.5,0,1,1-4.49-4.49A4.5,4.5,0,0,1,39.08,449.26Z"/><polygon class="cls-24" points="230.2 469.34 235.34 461.25 387.56 461.25 399.55 445.67 403.74 374.95 403.74 446.57 390.76 468.79 230.2 469.34"/><polygon class="cls-25" points="42.38 110.67 29.79 122.06 29.79 277.27 22.17 271.25 22.17 120.33 32.05 110.09 42.38 110.67"/><rect class="cls-26" x="39.61" y="3.82" width="74" height="0.55"/><rect class="cls-27" x="34.64" y="88.12" width="78.97" height="0.55"/><rect class="cls-28" x="14.53" y="32.94" width="0.55" height="35.63"/><rect class="cls-29" x="237.52" y="33.01" width="0.55" height="33.17"/><rect class="cls-30" x="139.13" y="88.12" width="63.62" height="0.55"/><rect class="cls-31" x="139.13" y="3.82" width="69.74" height="0.55"/><path class="cls-32" d="M130.84,4.13a4.14,4.14,0,1,0-4.13,4.14A4.13,4.13,0,0,0,130.84,4.13Z"/><path class="cls-33" d="M27.46,13.1a4,4,0,1,0-4,4A4,4,0,0,0,27.46,13.1Z"/><path class="cls-34" d="M227.68,78.51a1.9,1.9,0,1,0-1.9,1.9A1.9,1.9,0,0,0,227.68,78.51Z"/><path class="cls-35" d="M22.78,84.58a1.91,1.91,0,1,0-1.91,1.9A1.91,1.91,0,0,0,22.78,84.58Z"/><path class="cls-36" d="M234.83,12.14a4.36,4.36,0,1,0-4.36,4.36A4.36,4.36,0,0,0,234.83,12.14Z"/><path class="cls-37" d="M128.61,88.25a1.91,1.91,0,1,0-1.9,1.9A1.9,1.9,0,0,0,128.61,88.25Z"/><polygon class="cls-38" points="230.44 25.66 230.44 66.18 224.97 66.18 210.02 81.13 27.37 81.13 21.26 75.01 21.26 26.49 31.42 16.32 39.61 16.32 39.61 11.72 216.5 11.72 230.44 25.66"/><polygon class="cls-39" points="210.09 81.59 209.7 81.2 224.85 66.04 230.4 66.04 230.4 66.6 225.08 66.6 210.09 81.59"/><rect class="cls-40" x="223.2" y="8.84" width="0.55" height="19.71" transform="translate(52.24 163.49) rotate(-45)"/><polygon class="cls-41" points="21.38 26.61 20.99 26.22 31.45 15.77 39.75 15.77 39.75 16.32 31.67 16.32 21.38 26.61"/><polygon class="cls-42" points="58.93 91.48 61.24 93.79 84.87 93.79 86.82 95.74 103.43 95.74 108.59 90.57 57.94 90.57 58.93 91.48"/><polygon class="cls-43" points="194.36 91.48 192.04 93.79 168.41 93.79 166.47 95.74 149.86 95.74 144.69 90.57 195.34 90.57 194.36 91.48"/><path class="cls-44" d="M61.08,64.5H53.41L49.08,47.94,44.74,64.5H37.08L28.43,34.23h8.42L41.1,50.6l4.17-16.37h7.61L57.05,50.6,61.3,34.23h8.42Z"/><path class="cls-45" d="M86.11,64.5,85,60.42H74.87L73.61,64.5H65.5v-.08L75.79,34.23H84l10.3,30.19v.08ZM79.88,43.9l-2.55,8.76h5.15Z"/><path class="cls-46" d="M113.42,64.5l-7.89-11.13V48.54h7.66V42.43H104.3V64.5H96.41V34.23h22a2.22,2.22,0,0,1,1.93,1.09,5.14,5.14,0,0,1,.73,2.91V51.7a4.86,4.86,0,0,1-.73,2.86,2.23,2.23,0,0,1-1.93,1H116l6.46,8.6v.31Z"/><path class="cls-47" d="M142.59,64.5,132.41,48.57V64.5h-7.89V34.23h7.81l10.15,14.62V34.23h7.89V64.5Z"/><path class="cls-48" d="M154.29,64.5V34.23h7.88V64.5Z"/><path class="cls-49" d="M184.16,64.5,174,48.57V64.5h-7.89V34.23h7.81l10.15,14.62V34.23h7.89V64.5Z"/><path class="cls-50" d="M221,63.41a2.21,2.21,0,0,1-1.94,1.09H198.46a2.15,2.15,0,0,1-1.92-1.09,5.36,5.36,0,0,1-.68-2.91V38.23a5.22,5.22,0,0,1,.72-2.91,2.27,2.27,0,0,1,2-1.09h20.51A2.23,2.23,0,0,1,221,35.32a5.23,5.23,0,0,1,.71,2.91v6.58h-7.89V42.43H203.74V56.3h10.07V54.12h-7.72V46.59H221.7V60.5A5.18,5.18,0,0,1,221,63.41Z"/></g></g></g></svg>