<svg xmlns="http://www.w3.org/2000/svg" xmlns:xlink="http://www.w3.org/1999/xlink" viewBox="0 0 492.95 187.97"><defs><style>.cls-1{mask:url(#mask);filter:url(#luminosity-noclip-10);}.cls-10,.cls-12,.cls-14,.cls-16,.cls-18,.cls-2,.cls-4,.cls-6,.cls-8{mix-blend-mode:multiply;}.cls-2{fill:url(#Безымянный_градиент_76);}.cls-3{mask:url(#mask-2);filter:url(#luminosity-noclip-15);}.cls-4{fill:url(#Безымянный_градиент_77);}.cls-5{mask:url(#mask-3);filter:url(#luminosity-noclip-16);}.cls-6{fill:url(#Безымянный_градиент_77-2);}.cls-7{mask:url(#mask-4);filter:url(#luminosity-noclip-17);}.cls-8{fill:url(#Безымянный_градиент_77-3);}.cls-9{mask:url(#mask-5);filter:url(#luminosity-noclip-18);}.cls-10{fill:url(#Безымянный_градиент_76-2);}.cls-11{mask:url(#mask-6);filter:url(#luminosity-noclip-11);}.cls-12{fill:url(#Безымянный_градиент_76-3);}.cls-13{mask:url(#mask-7);filter:url(#luminosity-noclip-12);}.cls-14{fill:url(#Безымянный_градиент_76-4);}.cls-15{mask:url(#mask-8);filter:url(#luminosity-noclip-13);}.cls-16{fill:url(#linear-gradient);}.cls-17{mask:url(#mask-9);filter:url(#luminosity-noclip-14);}.cls-18{fill:url(#Безымянный_градиент_76-5);}.cls-19,.cls-20,.cls-21{fill:#00d0ff;}.cls-19{opacity:0.2;}.cls-20{opacity:0.1;}.cls-22{mask:url(#mask-10);}.cls-23{fill:url(#Безымянный_градиент_4);}.cls-24{mask:url(#mask-11);}.cls-25{fill:url(#Безымянный_градиент_4-2);}.cls-26{mask:url(#mask-12);}.cls-27{fill:url(#Безымянный_градиент_4-3);}.cls-28{mask:url(#mask-13);}.cls-29{fill:url(#linear-gradient-2);}.cls-30{mask:url(#mask-14);}.cls-31{fill:url(#Безымянный_градиент_4-4);}.cls-32{mask:url(#mask-15);}.cls-33{fill:url(#Безымянный_градиент_48);}.cls-34{mask:url(#mask-16);}.cls-35{fill:url(#Безымянный_градиент_48-2);}.cls-36{mask:url(#mask-17);}.cls-37{fill:url(#Безымянный_градиент_48-3);}.cls-38{mask:url(#mask-18);}.cls-39{fill:url(#Безымянный_градиент_4-5);}.cls-40{opacity:0.8;}.cls-41{filter:url(#luminosity-noclip-9);}.cls-42{filter:url(#luminosity-noclip-8);}.cls-43{filter:url(#luminosity-noclip-7);}.cls-44{filter:url(#luminosity-noclip-6);}.cls-45{filter:url(#luminosity-noclip-5);}.cls-46{filter:url(#luminosity-noclip-4);}.cls-47{filter:url(#luminosity-noclip-3);}.cls-48{filter:url(#luminosity-noclip-2);}.cls-49{filter:url(#luminosity-noclip);}</style><filter id="luminosity-noclip" x="69.07" y="-8283.8" width="96.06" height="32766" filterUnits="userSpaceOnUse" color-interpolation-filters="sRGB"><feFlood flood-color="#fff" result="bg"/><feBlend in="SourceGraphic" in2="bg"/></filter><mask id="mask" x="69.07" y="-8283.8" width="96.06" height="32766" maskUnits="userSpaceOnUse"><g class="cls-49"/></mask><linearGradient id="Безымянный_градиент_76" x1="69.07" y1="141.92" x2="165.13" y2="141.92" gradientUnits="userSpaceOnUse"><stop offset="0" stop-color="#fff"/><stop offset="0.07" stop-color="#d8d8d8"/><stop offset="0.16" stop-color="#a6a6a6"/><stop offset="0.26" stop-color="#797979"/><stop offset="0.37" stop-color="#545454"/><stop offset="0.47" stop-color="#353535"/><stop offset="0.58" stop-color="#1e1e1e"/><stop offset="0.7" stop-color="#0d0d0d"/><stop offset="0.83" stop-color="#030303"/><stop offset="1"/></linearGradient><filter id="luminosity-noclip-2" x="8.81" y="-8283.8" width="42.63" height="32766" filterUnits="userSpaceOnUse" color-interpolation-filters="sRGB"><feFlood flood-color="#fff" result="bg"/><feBlend in="SourceGraphic" in2="bg"/></filter><mask id="mask-2" x="8.81" y="-8283.8" width="42.63" height="32766" maskUnits="userSpaceOnUse"><g class="cls-48"/></mask><linearGradient id="Безымянный_градиент_77" x1="8.81" y1="110.33" x2="51.45" y2="110.33" gradientUnits="userSpaceOnUse"><stop offset="0"/><stop offset="0.15" stop-color="#040404"/><stop offset="0.29" stop-color="#0e0e0e"/><stop offset="0.42" stop-color="#202020"/><stop offset="0.54" stop-color="#3a3a3a"/><stop offset="0.66" stop-color="#5b5b5b"/><stop offset="0.78" stop-color="#838383"/><stop offset="0.9" stop-color="#b2b2b2"/><stop offset="1" stop-color="#e3e3e3"/></linearGradient><filter id="luminosity-noclip-3" x="6.22" y="-8283.8" width="41.73" height="32766" filterUnits="userSpaceOnUse" color-interpolation-filters="sRGB"><feFlood flood-color="#fff" result="bg"/><feBlend in="SourceGraphic" in2="bg"/></filter><mask id="mask-3" x="6.22" y="-8283.8" width="41.73" height="32766" maskUnits="userSpaceOnUse"><g class="cls-47"/></mask><linearGradient id="Безымянный_градиент_77-2" x1="6.22" y1="95.33" x2="47.96" y2="95.33" xlink:href="#Безымянный_градиент_77"/><filter id="luminosity-noclip-4" x="0" y="-8283.8" width="44.34" height="32766" filterUnits="userSpaceOnUse" color-interpolation-filters="sRGB"><feFlood flood-color="#fff" result="bg"/><feBlend in="SourceGraphic" in2="bg"/></filter><mask id="mask-4" x="0" y="-8283.8" width="44.34" height="32766" maskUnits="userSpaceOnUse"><g class="cls-46"/></mask><linearGradient id="Безымянный_градиент_77-3" x1="0" y1="79.81" x2="44.34" y2="79.81" xlink:href="#Безымянный_градиент_77"/><filter id="luminosity-noclip-5" x="65.54" y="-8283.8" width="276.83" height="32766" filterUnits="userSpaceOnUse" color-interpolation-filters="sRGB"><feFlood flood-color="#fff" result="bg"/><feBlend in="SourceGraphic" in2="bg"/></filter><mask id="mask-5" x="65.54" y="-8283.8" width="276.83" height="32766" maskUnits="userSpaceOnUse"><g class="cls-45"/></mask><linearGradient id="Безымянный_градиент_76-2" x1="65.54" y1="128.53" x2="342.37" y2="128.53" xlink:href="#Безымянный_градиент_76"/><filter id="luminosity-noclip-6" x="232.92" y="-8283.8" width="96.06" height="32766" filterUnits="userSpaceOnUse" color-interpolation-filters="sRGB"><feFlood flood-color="#fff" result="bg"/><feBlend in="SourceGraphic" in2="bg"/></filter><mask id="mask-6" x="232.92" y="-8283.8" width="96.06" height="32766" maskUnits="userSpaceOnUse"><g class="cls-44"/></mask><linearGradient id="Безымянный_градиент_76-3" x1="-81.76" y1="-938.59" x2="-177.82" y2="-938.59" gradientTransform="translate(151.16 -898.41) rotate(180)" xlink:href="#Безымянный_градиент_76"/><filter id="luminosity-noclip-7" x="437.46" y="-8283.8" width="46.68" height="32766" filterUnits="userSpaceOnUse" color-interpolation-filters="sRGB"><feFlood flood-color="#fff" result="bg"/><feBlend in="SourceGraphic" in2="bg"/></filter><mask id="mask-7" x="437.46" y="-8283.8" width="46.68" height="32766" maskUnits="userSpaceOnUse"><g class="cls-43"/></mask><linearGradient id="Безымянный_градиент_76-4" x1="437.46" y1="55.71" x2="484.14" y2="55.71" xlink:href="#Безымянный_градиент_76"/><filter id="luminosity-noclip-8" x="446.03" y="-8283.8" width="46.92" height="32766" filterUnits="userSpaceOnUse" color-interpolation-filters="sRGB"><feFlood flood-color="#fff" result="bg"/><feBlend in="SourceGraphic" in2="bg"/></filter><mask id="mask-8" x="446.03" y="-8283.8" width="46.92" height="32766" maskUnits="userSpaceOnUse"><g class="cls-42"/></mask><linearGradient id="linear-gradient" x1="446.03" y1="86.23" x2="492.95" y2="86.23" gradientUnits="userSpaceOnUse"><stop offset="0.01" stop-color="#fff"/><stop offset="0.08" stop-color="#d8d8d8"/><stop offset="0.17" stop-color="#a6a6a6"/><stop offset="0.27" stop-color="#797979"/><stop offset="0.37" stop-color="#545454"/><stop offset="0.48" stop-color="#353535"/><stop offset="0.59" stop-color="#1e1e1e"/><stop offset="0.71" stop-color="#0d0d0d"/><stop offset="0.84" stop-color="#030303"/><stop offset="1"/></linearGradient><filter id="luminosity-noclip-9" x="441.75" y="-8283.8" width="44.98" height="32766" filterUnits="userSpaceOnUse" color-interpolation-filters="sRGB"><feFlood flood-color="#fff" result="bg"/><feBlend in="SourceGraphic" in2="bg"/></filter><mask id="mask-9" x="441.75" y="-8283.8" width="44.98" height="32766" maskUnits="userSpaceOnUse"><g class="cls-41"/></mask><linearGradient id="Безымянный_градиент_76-5" x1="441.75" y1="70.7" x2="486.73" y2="70.7" xlink:href="#Безымянный_градиент_76"/><filter id="luminosity-noclip-10" x="69.07" y="136.56" width="96.06" height="10.71" filterUnits="userSpaceOnUse" color-interpolation-filters="sRGB"><feFlood flood-color="#fff" result="bg"/><feBlend in="SourceGraphic" in2="bg"/></filter><mask id="mask-10" x="69.07" y="136.56" width="96.06" height="10.71" maskUnits="userSpaceOnUse"><g class="cls-1"><path class="cls-2" d="M69.07,136.56c1.47,4.29,5.39,10.71,15.75,10.71h80.31l-5.35-10.71Z"/></g></mask><linearGradient id="Безымянный_градиент_4" x1="69.07" y1="141.92" x2="165.13" y2="141.92" gradientUnits="userSpaceOnUse"><stop offset="0" stop-color="#00d0ff"/><stop offset="0.05" stop-color="#02ccf4"/><stop offset="0.21" stop-color="#06c3d5"/><stop offset="0.38" stop-color="#0abcbe"/><stop offset="0.56" stop-color="#0cb7ad"/><stop offset="0.75" stop-color="#0eb4a3"/><stop offset="1" stop-color="#0eb3a0"/></linearGradient><filter id="luminosity-noclip-11" x="232.92" y="34.83" width="96.06" height="10.71" filterUnits="userSpaceOnUse" color-interpolation-filters="sRGB"><feFlood flood-color="#fff" result="bg"/><feBlend in="SourceGraphic" in2="bg"/></filter><mask id="mask-11" x="232.92" y="34.83" width="96.06" height="10.71" maskUnits="userSpaceOnUse"><g class="cls-11"><path class="cls-12" d="M329,45.54c-1.46-4.29-5.38-10.71-15.74-10.71H232.92l5.36,10.71Z"/></g></mask><linearGradient id="Безымянный_градиент_4-2" x1="-81.76" y1="-938.59" x2="-177.82" y2="-938.59" gradientTransform="translate(151.16 -898.41) rotate(180)" xlink:href="#Безымянный_градиент_4"/><filter id="luminosity-noclip-12" x="437.46" y="50.36" width="46.68" height="10.71" filterUnits="userSpaceOnUse" color-interpolation-filters="sRGB"><feFlood flood-color="#fff" result="bg"/><feBlend in="SourceGraphic" in2="bg"/></filter><mask id="mask-12" x="437.46" y="50.36" width="46.68" height="10.71" maskUnits="userSpaceOnUse"><g class="cls-13"><polygon class="cls-14" points="480.94 50.36 437.46 50.36 440.68 61.06 484.14 61.06 480.94 50.36"/></g></mask><linearGradient id="Безымянный_градиент_4-3" x1="437.46" y1="55.71" x2="484.14" y2="55.71" xlink:href="#Безымянный_градиент_4"/><filter id="luminosity-noclip-13" x="446.03" y="80.88" width="46.92" height="10.71" filterUnits="userSpaceOnUse" color-interpolation-filters="sRGB"><feFlood flood-color="#fff" result="bg"/><feBlend in="SourceGraphic" in2="bg"/></filter><mask id="mask-13" x="446.03" y="80.88" width="46.92" height="10.71" maskUnits="userSpaceOnUse"><g class="cls-15"><polygon class="cls-16" points="489.75 80.88 446.03 80.88 449.24 91.58 492.95 91.58 489.75 80.88"/></g></mask><linearGradient id="linear-gradient-2" x1="446.03" y1="86.23" x2="492.95" y2="86.23" gradientUnits="userSpaceOnUse"><stop offset="0.01" stop-color="#0eb3a0"/><stop offset="0.1" stop-color="#0eb3a0"/><stop offset="1" stop-color="#0eb3a0"/></linearGradient><filter id="luminosity-noclip-14" x="441.75" y="65.35" width="44.98" height="10.71" filterUnits="userSpaceOnUse" color-interpolation-filters="sRGB"><feFlood flood-color="#fff" result="bg"/><feBlend in="SourceGraphic" in2="bg"/></filter><mask id="mask-14" x="441.75" y="65.35" width="44.98" height="10.71" maskUnits="userSpaceOnUse"><g class="cls-17"><path class="cls-18" d="M483.86,65.35H441.75L445,76.06h41.77C485.71,72.36,484.72,68.7,483.86,65.35Z"/></g></mask><linearGradient id="Безымянный_градиент_4-4" x1="441.75" y1="70.7" x2="486.73" y2="70.7" xlink:href="#Безымянный_градиент_4"/><filter id="luminosity-noclip-15" x="8.81" y="104.97" width="42.63" height="10.71" filterUnits="userSpaceOnUse" color-interpolation-filters="sRGB"><feFlood flood-color="#fff" result="bg"/><feBlend in="SourceGraphic" in2="bg"/></filter><mask id="mask-15" x="8.81" y="104.97" width="42.63" height="10.71" maskUnits="userSpaceOnUse"><g class="cls-3"><polygon class="cls-4" points="48.95 104.97 8.81 104.97 12.02 115.68 51.45 115.68 48.95 104.97"/></g></mask><linearGradient id="Безымянный_градиент_48" x1="8.81" y1="110.33" x2="51.45" y2="110.33" gradientUnits="userSpaceOnUse"><stop offset="0" stop-color="#0eb3a0"/><stop offset="0.23" stop-color="#0db4a4"/><stop offset="0.43" stop-color="#0cb7ae"/><stop offset="0.62" stop-color="#09bdc0"/><stop offset="0.8" stop-color="#05c5da"/><stop offset="0.98" stop-color="#01cffa"/><stop offset="1" stop-color="#00d0ff"/></linearGradient><filter id="luminosity-noclip-16" x="6.22" y="89.98" width="41.73" height="10.71" filterUnits="userSpaceOnUse" color-interpolation-filters="sRGB"><feFlood flood-color="#fff" result="bg"/><feBlend in="SourceGraphic" in2="bg"/></filter><mask id="mask-16" x="6.22" y="89.98" width="41.73" height="10.71" maskUnits="userSpaceOnUse"><g class="cls-5"><path class="cls-6" d="M45.46,90H6.22c1,3.7,2,7.36,2.88,10.71H48Z"/></g></mask><linearGradient id="Безымянный_градиент_48-2" x1="6.22" y1="95.33" x2="47.96" y2="95.33" xlink:href="#Безымянный_градиент_48"/><filter id="luminosity-noclip-17" x="0" y="74.45" width="44.34" height="10.71" filterUnits="userSpaceOnUse" color-interpolation-filters="sRGB"><feFlood flood-color="#fff" result="bg"/><feBlend in="SourceGraphic" in2="bg"/></filter><mask id="mask-17" x="0" y="74.45" width="44.34" height="10.71" maskUnits="userSpaceOnUse"><g class="cls-7"><polygon class="cls-8" points="41.85 74.45 0 74.45 3.2 85.16 44.34 85.16 41.85 74.45"/></g></mask><linearGradient id="Безымянный_градиент_48-3" x1="0" y1="79.81" x2="44.34" y2="79.81" xlink:href="#Безымянный_градиент_48"/><filter id="luminosity-noclip-18" x="65.54" y="125.32" width="276.83" height="6.43" filterUnits="userSpaceOnUse" color-interpolation-filters="sRGB"><feFlood flood-color="#fff" result="bg"/><feBlend in="SourceGraphic" in2="bg"/></filter><mask id="mask-18" x="65.54" y="125.32" width="276.83" height="6.43" maskUnits="userSpaceOnUse"><g class="cls-9"><polygon class="cls-10" points="68.22 131.74 65.54 125.32 339.69 125.32 342.37 131.74 68.22 131.74"/></g></mask><linearGradient id="Безымянный_градиент_4-5" x1="65.54" y1="128.53" x2="342.37" y2="128.53" xlink:href="#Безымянный_градиент_4"/></defs><title>modal_successful_login</title><g id="Layer_2" data-name="Layer 2"><g id="Layer_1-2" data-name="Layer 1"><path class="cls-19" d="M433,62.8A16.06,16.06,0,0,0,416.9,46.74H335V45.13a16.06,16.06,0,0,0-16.07-16.06H60.31A16.06,16.06,0,0,0,44.24,45.13V50c0,8.87,19.28,86.74,19.28,86.74a16.06,16.06,0,0,0,16.06,16.06H168a16.06,16.06,0,0,0,16,14.46H442.6a16.07,16.07,0,0,0,16.06-16.07v-4.81C458.66,137.45,433,62.8,433,62.8Z"/><path class="cls-20" d="M433,62.8A16.06,16.06,0,0,0,416.9,46.74H335V45.13a16.06,16.06,0,0,0-16.07-16.06H60.31A16.06,16.06,0,0,0,44.24,45.13V50c0,8.87,19.28,86.74,19.28,86.74a16.06,16.06,0,0,0,16.06,16.06H168a16.06,16.06,0,0,0,16,14.46H442.6a16.07,16.07,0,0,0,16.06-16.07v-4.81C458.66,137.45,433,62.8,433,62.8Z"/><path class="cls-21" d="M442.6,167.94H184a16.72,16.72,0,0,1-16.63-14.46H79.58a16.8,16.8,0,0,1-16.79-16.7c-1-4.24-19.28-78-19.28-86.83V45.13a16.82,16.82,0,0,1,16.8-16.8h258.6a16.82,16.82,0,0,1,16.8,16.8V46H416.9a16.81,16.81,0,0,1,16.79,16.68c1.52,4.39,25.7,74.84,25.7,83.65v4.81A16.82,16.82,0,0,1,442.6,167.94ZM60.31,29.8A15.35,15.35,0,0,0,45,45.13V50c0,8.68,19.07,85.78,19.26,86.56a1.1,1.1,0,0,1,0,.18A15.35,15.35,0,0,0,79.58,152H168a.74.74,0,0,1,.73.66A15.26,15.26,0,0,0,184,166.47H442.6a15.34,15.34,0,0,0,15.33-15.33v-4.81c0-8.65-25.4-82.55-25.66-83.29a.67.67,0,0,1,0-.24A15.35,15.35,0,0,0,416.9,47.47H335a.73.73,0,0,1-.73-.73V45.13A15.35,15.35,0,0,0,318.91,29.8Z"/><path class="cls-21" d="M47.34,68.56H42.52L38.77,47.14s-4.29-20.88,13.38-23c16.22-2,65.33-1.07,65.33-1.07l5.89,5.35-56.76.54s-22.25-.82-22.37,16.19Z"/><path class="cls-21" d="M404.48,167.62l6.43,7c16,0,54.41,8.09,56.75-17.66,1.09-11.93-3.65-24-6.72-35.37-.39-1.44-4.72-20.33-5.59-20.33h-9.64L457,137.63s7.49,18.75-4.29,25.17c0,0-4.28,7-23,4.82Z"/><polygon class="cls-21" points="170.31 28.4 257.84 28.4 249.2 22.51 188.69 22.51 190.3 25.73 166.74 25.73 170.31 28.4"/><polygon class="cls-21" points="389.74 168.16 302.21 168.16 310.85 174.04 371.36 174.04 369.75 170.83 393.31 170.83 389.74 168.16"/><path class="cls-21" d="M429.36,20.92c-24.52-.29-45.32-.29-65.43-.29-30.59,0-59.48,0-98.67-1h-.12l-.09-.06c-10.5-7.36-11.74-8.53-21.37-17.65l-.62-.59.5-.53.63.59c9.56,9.06,10.81,10.25,21.19,17.52,39.14,1,68,1,98.55,1,20.11,0,40.91,0,65.43.28Z"/><g class="cls-22"><path class="cls-23" d="M69.07,136.56c1.47,4.29,5.39,10.71,15.75,10.71h80.31l-5.35-10.71Z"/></g><g class="cls-24"><path class="cls-25" d="M329,45.54c-1.46-4.29-5.38-10.71-15.74-10.71H232.92l5.36,10.71Z"/></g><g class="cls-26"><polygon class="cls-27" points="480.94 50.36 437.46 50.36 440.68 61.06 484.14 61.06 480.94 50.36"/></g><g class="cls-28"><polygon class="cls-29" points="489.75 80.88 446.03 80.88 449.24 91.58 492.95 91.58 489.75 80.88"/></g><g class="cls-30"><path class="cls-31" d="M483.86,65.35H441.75L445,76.06h41.77C485.71,72.36,484.72,68.7,483.86,65.35Z"/></g><g class="cls-32"><polygon class="cls-33" points="48.95 104.97 8.81 104.97 12.02 115.68 51.45 115.68 48.95 104.97"/></g><polygon class="cls-21" points="336.57 182.61 323.66 182.61 325.76 187.97 338.45 187.97 336.57 182.61"/><polygon class="cls-21" points="461.32 101.36 451.63 101.36 453.21 105.37 462.72 105.37 461.32 101.36"/><polygon class="cls-21" points="463.58 109.52 453.9 109.52 455.47 113.54 464.99 113.54 463.58 109.52"/><g class="cls-34"><path class="cls-35" d="M45.46,90H6.22c1,3.7,2,7.36,2.88,10.71H48Z"/></g><g class="cls-36"><polygon class="cls-37" points="41.85 74.45 0 74.45 3.2 85.16 44.34 85.16 41.85 74.45"/></g><path class="cls-21" d="M338.45,183H307.39a.33.33,0,0,1-.23-.09l-6.33-5.27H188.52c-18,0-24.53-12.58-25.4-14.45L83,163.7c-20.92-1.07-26.54-18.29-26.59-18.46l-2.15-8.05A.37.37,0,1,1,55,137l2.14,8c.05.15,5.53,16.89,25.91,17.93l80.29-.54h0a.36.36,0,0,1,.34.23c.06.14,6,14.23,24.83,14.23H301a.35.35,0,0,1,.23.09l6.32,5.27h30.93a.36.36,0,0,1,.36.36A.37.37,0,0,1,338.45,183Z"/><path class="cls-21" d="M149.61,23.41H126.05a.39.39,0,0,1-.29-.13l-4.17-5.22H75.71a.37.37,0,0,1,0-.73h46.05a.39.39,0,0,1,.29.13l4.17,5.22h23.39a.37.37,0,0,1,.36.37A.36.36,0,0,1,149.61,23.41Z"/><g class="cls-38"><polygon class="cls-39" points="68.22 131.74 65.54 125.32 339.69 125.32 342.37 131.74 68.22 131.74"/></g><g class="cls-40"><path class="cls-21" d="M285.2,2h-1.71c-.07,0-.12,0-.13-.05a.3.3,0,0,1,0-.18.73.73,0,0,1,.28-.38L284.1,1a6.33,6.33,0,0,1,5.42-.73,2.37,2.37,0,0,1,1.28,1,1.59,1.59,0,0,0,.34.49.42.42,0,0,0,.32.14h1.67c.06,0,.09,0,.09,0s0,0-.09.07-.45.14-.88.25l-.4.1-.43.11-.21,0c-.08,0-.13.06-.13.09s0,.07.07.11l.22.1a.77.77,0,0,1,.22.12.12.12,0,0,1,.05.12s-.05.06-.11.09a1.82,1.82,0,0,1-.27.15L289.88,4a1.59,1.59,0,0,1-.4.09c-.11,0-.19,0-.25-.16a.87.87,0,0,0-.47-.43,3.24,3.24,0,0,0-2,0l-.33.16a.72.72,0,0,0-.21.16c-.19.24-.21.42-.05.54l.61.25a18.6,18.6,0,0,0,1.89.63c.3.09.85.22,1.67.4l.4.11c.07,0,.1.06.09.1a.45.45,0,0,1-.2.15l-.49.21c-.12.09-.17.15-.16.2s0,.06.09.06h1.68a0,0,0,0,1,0,0,.1.1,0,0,1,0,.08,1.3,1.3,0,0,1-.35.16l-.28.08-.35.12a.6.6,0,0,1-.2.05q-.14.06,0,.15l.2.07.37.12.29.1c.16.06.25.12.26.19a.92.92,0,0,1-.11.45,11.11,11.11,0,0,1-1.77,3,5.9,5.9,0,0,1-2.55,1.78,5.14,5.14,0,0,1-1.43.3,6.18,6.18,0,0,1-2.8-.36,2.33,2.33,0,0,1-1.55-1.58,1.13,1.13,0,0,1,.32-1.15,1.66,1.66,0,0,1,.44-.36c.5-.25,1.12-.55,1.85-.88a.63.63,0,0,1,.34-.08.24.24,0,0,1,.27.22,1,1,0,0,0,.76.74,3.65,3.65,0,0,0,1.63.09,1.54,1.54,0,0,0,.83-.4c.33-.32.37-.57.13-.75a.81.81,0,0,0-.29-.15q-2.19-.75-2.79-.93a3.82,3.82,0,0,0-.59-.17l-1.06-.25s-.05,0,0-.07,0,0,.07-.07a2.28,2.28,0,0,1,.32-.13,3.5,3.5,0,0,0,.51-.23.16.16,0,0,0,0-.09s0-.06-.05-.06h-1.55c-.09,0-.14,0-.14-.06s.12-.12.38-.25l.63-.23.19-.11s0,0,0-.07-.06,0-.14-.06a6.26,6.26,0,0,1-.61-.21.65.65,0,0,1-.22-.11c-.11-.07-.13-.19-.05-.36s.24-.51.37-.74l.47-.76a.58.58,0,0,0,.13-.28c0-.06,0-.11-.13-.15l-.25-.11-.23-.1c-.09-.05-.14-.09-.15-.13s.08-.11.24-.14l.47-.1.57-.14,1-.25s.07,0,.07-.06S285.24,2,285.2,2Z"/><path class="cls-21" d="M303.93,2c.1,0,.15,0,.15,0s-.06,0-.18.09c-.42.13-1,.27-1.68.41a5,5,0,0,0-.57.15c-.09,0-.13,0-.13.07s0,.06.07.09l.16.06.13.06.25.13c.1.06.09.16,0,.29a1.55,1.55,0,0,0-.22.2l-.75.67c-.33.3-.57.51-.72.66l-.22.2c-.1.1-.1.19,0,.27a.44.44,0,0,0,.16.1l.13.07.12.06q.12.06.12.12s-.05.08-.17.11l-.22.06c-.11,0-.16,0-.16,0l-.75.19a4.7,4.7,0,0,0-.53.21c-.08,0-.12.06-.1.09s0,0,.09,0h1.46s.05,0,.05,0a.1.1,0,0,1-.05.06,2.6,2.6,0,0,1-.44.16L298.68,7c-.11,0-.13.08-.05.14a.31.31,0,0,0,.12.09l.07.06a2.24,2.24,0,0,1,.24.16q.12.12-.06.27l-.18.21-.12.19c0,.05-.07.14-.15.27l-.12.23a23.32,23.32,0,0,0-1.25,2.79,4.8,4.8,0,0,1-.14.47,1.74,1.74,0,0,1-.29.54,1.3,1.3,0,0,1-.3.28.54.54,0,0,1-.33.11H294.5a.44.44,0,0,1-.4-.27.84.84,0,0,1,0-.61,12.54,12.54,0,0,1,.81-2.07c.12-.26.4-.84.85-1.73.14-.27.13-.47,0-.59a5.44,5.44,0,0,0-.81-.38.29.29,0,0,1-.15-.07c-.08-.06-.07-.11,0-.15l.34-.13.38-.15a1.28,1.28,0,0,0,.31-.15s0,0,0-.07,0-.05-.05-.05h-1.53c-.06,0-.1,0-.11,0s0-.11.12-.18a2.68,2.68,0,0,1,.33-.14l.43-.17.24-.08a.08.08,0,0,0,.07-.08s0-.06,0-.09l-.86-.3c-.18-.06-.26-.23-.24-.49s0-.38,0-.67,0-.51,0-.64,0-.41-.21-.47l-.32-.1-.26-.08-.19-.06-.22-.07c-.05,0-.07,0-.07-.07s0-.06.09-.07l.1,0,.22-.06.25-.07.26-.08.21-.07a4.3,4.3,0,0,0,.67-.23c.06,0,.09,0,.09-.07s0,0-.11,0h-.31l-1.24,0a.75.75,0,0,1-.59-.41c-.06-.1,0-.24.05-.44a1.64,1.64,0,0,1,.47-.61.92.92,0,0,1,.59-.25h1.69c.28,0,.42.14.44.47V1a.56.56,0,0,0,0,.2.89.89,0,0,0,.16.58,1,1,0,0,0,.15.15.38.38,0,0,0,.18.07,1.42,1.42,0,0,0,.33,0h1.44s.05,0,.05,0l-.06.07-.22.09c-.23.08-.67.21-1.32.38a.54.54,0,0,0-.17.07c-.08,0-.08.08,0,.12l.12.06.26.07a1.75,1.75,0,0,0,.26.07l.37.15a.34.34,0,0,1,.19.39c0,.16,0,.43-.07.83a.22.22,0,0,0,0,.12.32.32,0,0,0,.11-.07l1-1a.41.41,0,0,1,.1-.09c.09-.11.09-.19,0-.25a.35.35,0,0,0-.16-.09l-.17-.08-.17-.07a.23.23,0,0,1-.11-.07c-.06,0-.05-.09,0-.12a1.19,1.19,0,0,1,.21-.06l1.25-.29c.32-.07.64-.15,1-.25,0,0,.07,0,.07,0s0,0-.07,0h-.23l-1.3,0Q299,2,299,1.87a.52.52,0,0,1,.09-.41A4.88,4.88,0,0,1,300.12.38a.66.66,0,0,1,.36-.11q.7,0,1.71,0a.35.35,0,0,1,.37.24,1,1,0,0,1-.06.62.16.16,0,0,0,0,.07l0,.11a1.12,1.12,0,0,1-.05.13l-.06.14a1.39,1.39,0,0,0-.06.13c-.07.17,0,.25.26.25l.76,0Z"/><path class="cls-21" d="M305.52,2h-1.71c-.07,0-.12,0-.13-.05a.3.3,0,0,1,0-.18.75.75,0,0,1,.29-.38l.41-.33a6.33,6.33,0,0,1,5.42-.73,2.37,2.37,0,0,1,1.28,1,1.59,1.59,0,0,0,.34.49.42.42,0,0,0,.32.14h1.68c.06,0,.09,0,.09,0s0,0-.09.07-.45.14-.88.25l-.41.1-.43.11-.21,0q-.12,0-.12.09s0,.07.07.11l.21.1a.77.77,0,0,1,.22.12.11.11,0,0,1,0,.12.18.18,0,0,1-.1.09l-.27.15L310.2,4a1.59,1.59,0,0,1-.4.09c-.1,0-.19,0-.25-.16a.84.84,0,0,0-.47-.43,3.24,3.24,0,0,0-2,0l-.32.16a.66.66,0,0,0-.22.16c-.19.24-.21.42-.05.54l.61.25A18.6,18.6,0,0,0,309,5.2c.3.09.86.22,1.67.4l.4.11c.07,0,.1.06.09.1s-.08.09-.2.15l-.48.21c-.13.09-.18.15-.17.2s0,.06.09.06h1.68a0,0,0,0,1,.05,0,.1.1,0,0,1-.05.08,1.15,1.15,0,0,1-.35.16l-.27.08-.36.12a.63.63,0,0,1-.19.05c-.1,0-.11.09,0,.15l.2.07.37.12a1.51,1.51,0,0,1,.29.1c.16.06.25.12.27.19a1,1,0,0,1-.12.45,10.86,10.86,0,0,1-1.77,3,5.9,5.9,0,0,1-2.55,1.78,5.08,5.08,0,0,1-1.42.3,6.23,6.23,0,0,1-2.81-.36,2.33,2.33,0,0,1-1.55-1.58,1.13,1.13,0,0,1,.32-1.15,1.66,1.66,0,0,1,.44-.36c.5-.25,1.12-.55,1.85-.88a.65.65,0,0,1,.34-.08.24.24,0,0,1,.27.22,1,1,0,0,0,.76.74,3.69,3.69,0,0,0,1.64.09,1.62,1.62,0,0,0,.83-.4q.48-.48.12-.75a.73.73,0,0,0-.29-.15q-2.19-.75-2.79-.93a3.5,3.5,0,0,0-.59-.17l-1.06-.25s0,0,0-.07,0,0,.07-.07l.33-.13a3.77,3.77,0,0,0,.5-.23.12.12,0,0,0,0-.09.05.05,0,0,0-.06-.06H303q-.15,0-.15-.06s.13-.12.38-.25l.63-.23a1.31,1.31,0,0,0,.2-.11s0,0,0-.07a.47.47,0,0,0-.15-.06c-.2-.06-.41-.13-.61-.21a.65.65,0,0,1-.22-.11c-.1-.07-.12-.19-.05-.36s.25-.51.38-.74c0-.07.19-.32.46-.76a.58.58,0,0,0,.13-.28c0-.06,0-.11-.13-.15l-.25-.11-.23-.1c-.08-.05-.13-.09-.14-.13s.07-.11.23-.14l.48-.1.56-.14,1-.25c.05,0,.07,0,.07-.06S305.57,2,305.52,2Z"/><path class="cls-21" d="M314.09.27h7.77a.33.33,0,0,1,.31.22.71.71,0,0,1,0,.5l-.15.32a1.06,1.06,0,0,0,0,.39.88.88,0,0,0,.06.23.24.24,0,0,0,.18.05H324s0,0,0,0,0,0-.08.09a2.16,2.16,0,0,1-.38.12l-.47.11-.55.13-.54.16q-.11,0-.12.06a.09.09,0,0,0,.06.08,3.06,3.06,0,0,0,.37.17,1.45,1.45,0,0,1,.37.18c.09.07.08.16,0,.28a1.56,1.56,0,0,1-.83.53h-2.46a.2.2,0,0,0-.07.06,1.74,1.74,0,0,0-.1.16l-.5.83c-.11.2-.11.34,0,.41l.49.2.24.09a.1.1,0,0,1,.06.09s-.05.07-.12.09l-.29.09q-.39.09-.66.18a2.13,2.13,0,0,0-.38.14q-.15.09-.15.15s0,0,.09,0h1.5s.07,0,.07.05,0,0-.07.07a3.33,3.33,0,0,1-.72.25l-.7.2a.13.13,0,0,0-.11.07s0,.07.07.09l.21.09.19.06.37.16c.11.06.12.18,0,.36a5.25,5.25,0,0,1-.27.53c-.14.27-.26.48-.34.62A20.79,20.79,0,0,0,317,12a1.52,1.52,0,0,1-.25.49.79.79,0,0,1-.65.41h-1.62a.42.42,0,0,1-.41-.25,1,1,0,0,1,0-.63,13.32,13.32,0,0,1,.8-2c.16-.35.51-1,1-2A.63.63,0,0,0,316,7.6c0-.06-.06-.12-.17-.17l-.3-.11-.28-.1c-.14-.06-.21-.1-.21-.13s.06-.09.19-.12c.81-.24,1.26-.39,1.37-.44s.06,0,.06-.07,0,0-.05,0H315a.08.08,0,0,1-.06,0s0,0,.06-.07l.39-.17c.22-.08.44-.15.67-.21l.38-.11c.07,0,.11,0,.11-.09s0-.07-.06-.09l-.16,0s0,0-.13-.07L316,5.49l-.24-.11a.19.19,0,0,1-.11-.15.71.71,0,0,1,.09-.26,8.58,8.58,0,0,0,.47-.79A.71.71,0,0,0,316.3,4c0-.06,0-.09,0-.1h-2.39q-.34,0-.27-.45c0-.22,0-.36-.16-.42L313.29,3l-.19-.07-.17-.07-.15-.09s0-.06,0-.09.1-.06.26-.11l1.08-.25c.2,0,.44-.12.72-.22.05,0,.07,0,.06-.07s0,0-.06,0h-1.65c-.16,0-.24,0-.25-.09a.81.81,0,0,1,0-.61,2,2,0,0,1,.51-.71A1,1,0,0,1,314.09.27Z"/><path class="cls-21" d="M334,2s-.05.07-.15.1l-.45.17-.95.25a4.91,4.91,0,0,0-.65.16c-.07,0-.11,0-.11.09s0,0,.06.07l.18.07L332,3l.11,0a.34.34,0,0,1,.1,0l.24.09c.18.09.19.2,0,.34a1,1,0,0,1-.74.25H327a.26.26,0,0,0-.23.17c-.06.09-.15.23-.25.4s-.17.3-.2.37-.06.1-.05.12,0,0,.06,0h4.76a.27.27,0,0,1,.28.28.38.38,0,0,0,.26.35l.57.22,0,0c.11,0,.16.08.16.12s-.09.08-.27.13l-.36.11-.49.14-.36.15s-.07,0-.07.06,0,0,0,0h1.46s.07,0,.07,0,0,0-.09.06l-.42.14-.39.13-.27.1c-.07,0-.11.06-.11.09s0,.08.07.11l.22.11.36.18c.14.09.13.22,0,.4a1.25,1.25,0,0,1-.88.46h-4.55c-.1,0-.15,0-.17,0s-.09,0-.14.13c-.12.23-.26.52-.43.86,0,.08,0,.11,0,.11h4.67a.4.4,0,0,1,.4.25.93.93,0,0,1-.08.63c-.22.53-.33.8-.34.81-.1.27-.2.56-.31.89-.2.61-.54.91-1,.91h-7a.43.43,0,0,1-.45-.27,1.12,1.12,0,0,1,0-.72,18,18,0,0,1,.91-2.25l.85-1.65,0-.05a.11.11,0,0,0,0-.06l0,0c.11-.21.11-.33,0-.38l-.34-.18a1.84,1.84,0,0,1-.29-.15q-.09,0-.09-.09a.37.37,0,0,1,.14-.1l.29-.1.51-.16.3-.1,0,0,0,0-.06,0h-1.4q-.09,0-.09,0s0-.05.12-.08a9.2,9.2,0,0,1,1-.31,3.06,3.06,0,0,1,.34-.12A.19.19,0,0,0,324,5.8s0,0-.07-.08l-.15-.07-.2-.07-.23-.09c-.1,0-.16-.07-.18-.11a.2.2,0,0,1,0-.25l.15-.23c.07-.14.18-.34.35-.62l.37-.64.1-.18c.06-.12.06-.21,0-.26a.82.82,0,0,0-.19-.1l-.42-.17a.87.87,0,0,1-.21-.09s0,0,0-.07,0,0,.07,0l.47-.15.92-.25a3.53,3.53,0,0,0,.77-.25s.06,0,.06,0,0,0,0,0h-1.64a.34.34,0,0,1-.36-.2.5.5,0,0,1,0-.34,2.68,2.68,0,0,1,.41-.72,1.18,1.18,0,0,1,.85-.47h6.86a.78.78,0,0,1,.21,0,.34.34,0,0,1,.32.24.78.78,0,0,1-.05.55l0,.08a.41.41,0,0,1,0,.09.13.13,0,0,0,0,.08.63.63,0,0,0-.07.43.28.28,0,0,0,.23.22.92.92,0,0,0,.23,0h1.48C334,2,334,2,334,2Z"/><path class="cls-21" d="M346.18,2h1.69s0,0,0,0l-.06.07-.38.14c-.12,0-.46.12-1,.25l-.22.06-.23,0-.18.06a.11.11,0,0,0-.09.1s0,0,.06.08l.3.11.36.17c.09.05.13.1.14.16a.77.77,0,0,1-.1.28l-.72,1.22-.09.16c-.1.17-.09.29,0,.34a2.9,2.9,0,0,0,.37.17l.37.12c.07,0,.1.06.09.11s-.05.07-.15.09l-.13,0-.13,0-.13,0-.13,0-.58.17a.71.71,0,0,0-.41.25c-.05.06,0,.09,0,.11h1.58q.09,0,.09,0s0,.08-.11.13a2,2,0,0,1-.32.14l-.49.15-.63.18a.19.19,0,0,0-.11.07s0,.08.06.11l.14,0,.21.07.22.09.19.09c.09.06.1.18,0,.34s-.14.27-.26.47a5.2,5.2,0,0,1-.26.45A26,26,0,0,0,343.73,12a1.67,1.67,0,0,1-.42.61.75.75,0,0,1-.59.25h-1.51a.39.39,0,0,1-.35-.17.62.62,0,0,1-.08-.44,1.19,1.19,0,0,1,.11-.41l.61-1.42c.28-.6.69-1.4,1.24-2.4a.83.83,0,0,0,.14-.34c0-.06-.07-.12-.19-.18l-.45-.18L342,7.18a.06.06,0,0,1,0-.09.66.66,0,0,1,.3-.18l.45-.14.24-.09s.07,0,.07-.07,0-.08-.13-.06l-.36.09-.81.27-.39.13c-.07,0-.11.06-.11.12s0,.06.09.11l.18.11.12.06a.25.25,0,0,1,.09.07c.07,0,.09.08.08.1s-.07.08-.17.15l-.21.14-.69.45c-.3.19-.56.37-.81.52l-.68.44a1.07,1.07,0,0,1-.63.21.39.39,0,0,1-.38-.23c0-.07-.11-.26-.26-.58a7.32,7.32,0,0,1-.31-.72.86.86,0,0,0-.54-.5l-.4-.11a2.72,2.72,0,0,1-.34-.11l-.33-.09a.06.06,0,0,1,0-.07s0-.06.11-.09l.45-.14.5-.18h0c.1,0,.14-.08.12-.13s-.05,0-.12,0a.62.62,0,0,0-.18,0l-.16,0-1,.31a1.05,1.05,0,0,0-.31.12c-.06,0-.07.09,0,.13a.19.19,0,0,0,.13.07.69.69,0,0,0,.22.09l.26.09c.15.06.23.13.24.19a.87.87,0,0,1-.16.42,27.1,27.1,0,0,0-1.51,3l-.17.41a2.74,2.74,0,0,1-.18.4,3,3,0,0,1-.25.51.9.9,0,0,1-.72.46c-.79,0-1.32,0-1.6,0a.39.39,0,0,1-.39-.27.91.91,0,0,1,.05-.64,25.26,25.26,0,0,1,1.71-3.57,1.14,1.14,0,0,1,.1-.2,2.28,2.28,0,0,0,.11-.21.63.63,0,0,0,.11-.28s0-.11-.14-.15l-.45-.18-.26-.11a.05.05,0,0,1,0-.07.11.11,0,0,1,.07-.08l.88-.3a3,3,0,0,0,.58-.22c.07,0,.11,0,.11-.07s0-.05-.11-.05h-.14l-1.21,0h-.25c-.07,0-.09,0,0-.11a.23.23,0,0,1,.07-.07,6.05,6.05,0,0,1,1-.34l.52-.15a.2.2,0,0,0,.12-.07s0,0-.08-.09l-.34-.12a1.9,1.9,0,0,1-.4-.17c-.08,0-.13-.08-.13-.13a.62.62,0,0,1,.11-.26c.07-.15.19-.36.35-.63l.37-.63a.74.74,0,0,0,.15-.38c0-.07-.07-.14-.2-.2L333.71,3l-.11,0-.14-.06c-.1,0-.14-.09-.11-.14s.08-.07.2-.11l.3-.08.22,0a9.23,9.23,0,0,0,1-.27,1.91,1.91,0,0,0,.45-.18s0,0,0,0h-1.71a.25.25,0,0,1-.26-.13.81.81,0,0,1,.1-.82,1.33,1.33,0,0,1,.94-.72A.34.34,0,0,1,335,.5l.13.23.15.25.12.23a2.07,2.07,0,0,0,.32.49.71.71,0,0,0,.4.24,1.18,1.18,0,0,0,.34,0h1.64c.09,0,.13,0,.13,0a.33.33,0,0,1-.16.15,2.5,2.5,0,0,1-.42.16l-.34.1-.36.1c-.13,0-.21.08-.22.11s0,.14.15.18l.19.06.23.06.19.06.4.12a.63.63,0,0,1,.39.42c0,.09.12.29.26.6s.24.55.3.73a.7.7,0,0,0,.22.29.74.74,0,0,0,.26.14,1.5,1.5,0,0,0,.35.07.11.11,0,0,0,.07-.09c0-.07,0-.14.11-.21a3.62,3.62,0,0,1,.32-.22l.69-.42.77-.48.68-.43.31-.22c.11-.08.12-.17,0-.25L342.51,3l-.05,0,0,0,0,0c-.05,0-.07-.07-.06-.11s0-.08.11-.11l.34-.07L344,2.34l1.12-.25c.07,0,.1,0,.1-.07s0,0-.07,0H343.8l-.28,0c-.09,0-.1-.05,0-.16a1.58,1.58,0,0,1,.23-.26A2.6,2.6,0,0,1,344,1.3s.46-.3,1.23-.83a.83.83,0,0,1,.52-.16A.31.31,0,0,1,346,.5.68.68,0,0,1,346,1a1.7,1.7,0,0,1-.11.31.73.73,0,0,0,0,.5A.31.31,0,0,0,346.18,2Z"/><path class="cls-21" d="M365.87,2h1.69s0,0,0,0,0,0-.06.07l-.38.14c-.12,0-.46.12-1,.25l-.22.06-.23,0-.18.06a.11.11,0,0,0-.09.1s0,0,.06.08l.3.11a2.07,2.07,0,0,1,.36.17c.09.05.13.1.14.16a.61.61,0,0,1-.1.28l-.72,1.22-.09.16c-.1.17-.09.29,0,.34a2.61,2.61,0,0,0,.38.17l.36.12c.07,0,.1.06.09.11s-.05.07-.15.09l-.12,0-.14,0-.13,0-.13,0-.58.17a.71.71,0,0,0-.41.25c-.05.06,0,.09,0,.11h1.58q.09,0,.09,0s0,.08-.11.13a2,2,0,0,1-.32.14l-.49.15-.63.18c-.06,0-.09,0-.1.07s0,.08.05.11l.14,0,.21.07.23.09.18.09c.09.06.1.18,0,.34s-.14.27-.26.47a5.2,5.2,0,0,1-.26.45A26,26,0,0,0,363.42,12a1.67,1.67,0,0,1-.42.61.73.73,0,0,1-.58.25H360.9a.39.39,0,0,1-.35-.17.62.62,0,0,1-.08-.44,1.19,1.19,0,0,1,.11-.41l.61-1.42c.28-.6.69-1.4,1.24-2.4a.7.7,0,0,0,.14-.34c0-.06-.07-.12-.19-.18l-.45-.18-.23-.11s0,0,0-.09a.66.66,0,0,1,.3-.18l.45-.14.24-.09c.05,0,.07,0,.07-.07s0-.08-.13-.06l-.36.09-.81.27-.39.13c-.07,0-.11.06-.11.12s0,.06.09.11l.18.11.12.06.1.07c.06,0,.08.08.07.1a.58.58,0,0,1-.16.15l-.22.14-.69.45-.8.52-.69.44a1.07,1.07,0,0,1-.63.21.4.4,0,0,1-.38-.23c0-.07-.11-.26-.26-.58a7.32,7.32,0,0,1-.31-.72.86.86,0,0,0-.54-.5l-.4-.11a2.72,2.72,0,0,1-.34-.11,1.9,1.9,0,0,1-.32-.09s-.05,0,0-.07,0-.06.11-.09l.45-.14.5-.18h0c.1,0,.14-.08.13-.13s-.06,0-.13,0a.62.62,0,0,0-.18,0,.57.57,0,0,1-.16,0l-1,.31a1.18,1.18,0,0,0-.31.12c-.06,0-.06.09,0,.13a.19.19,0,0,0,.13.07.67.67,0,0,0,.23.09l.26.09c.14.06.22.13.23.19a.87.87,0,0,1-.16.42,29,29,0,0,0-1.51,3l-.17.41a2.74,2.74,0,0,1-.18.4,3,3,0,0,1-.25.51.88.88,0,0,1-.72.46c-.79,0-1.32,0-1.6,0a.39.39,0,0,1-.39-.27.91.91,0,0,1,.05-.64,25.26,25.26,0,0,1,1.71-3.57,1.14,1.14,0,0,1,.1-.2,2.28,2.28,0,0,0,.11-.21.63.63,0,0,0,.11-.28s0-.11-.14-.15l-.45-.18-.25-.11a.05.05,0,0,1,0-.07.14.14,0,0,1,.07-.08l.88-.3a3,3,0,0,0,.58-.22c.07,0,.11,0,.11-.07s0-.05-.11-.05h-.14l-1.21,0h-.25c-.07,0-.09,0,0-.11a.23.23,0,0,1,.07-.07,6.05,6.05,0,0,1,1-.34l.52-.15a.2.2,0,0,0,.12-.07s0,0-.08-.09l-.33-.12a2.07,2.07,0,0,1-.41-.17c-.08,0-.13-.08-.13-.13A.62.62,0,0,1,353,4.9c.07-.15.19-.36.35-.63l.37-.63a.91.91,0,0,0,.16-.38c0-.07-.08-.14-.21-.2L353.4,3l-.11,0-.14-.06c-.1,0-.14-.09-.11-.14s.08-.07.2-.11l.3-.08.22,0a9.23,9.23,0,0,0,1-.27A1.91,1.91,0,0,0,355.2,2s0,0,0,0h-1.7c-.14,0-.23,0-.27-.13a.81.81,0,0,1,.1-.82,1.33,1.33,0,0,1,.94-.72.36.36,0,0,1,.4.19c0,.07.07.14.12.23L355,1a2.53,2.53,0,0,1,.12.23,2.44,2.44,0,0,0,.32.49.71.71,0,0,0,.4.24,1.18,1.18,0,0,0,.34,0h1.64c.09,0,.13,0,.13,0s-.06.1-.15.15a2.69,2.69,0,0,1-.43.16l-.34.1-.36.1a.58.58,0,0,0-.22.11q0,.12.15.18l.2.06L357,3l.19.06.4.12a.63.63,0,0,1,.39.42c0,.09.13.29.26.6s.24.55.3.73a.7.7,0,0,0,.22.29.74.74,0,0,0,.26.14,1.63,1.63,0,0,0,.35.07.11.11,0,0,0,.07-.09c0-.07,0-.14.11-.21l.32-.22.69-.42L361.3,4l.68-.43.31-.22c.11-.08.13-.17,0-.25L362.2,3l0,0-.06,0,0,0c-.05,0-.07-.07-.06-.11s0-.08.11-.11l.34-.07,1.28-.25,1.12-.25c.07,0,.1,0,.1-.07s0,0-.07,0H363.5l-.29,0c-.09,0-.1-.05,0-.16a2.26,2.26,0,0,1,.23-.26,1.9,1.9,0,0,1,.28-.24L364.9.47a.83.83,0,0,1,.52-.16.31.31,0,0,1,.28.19.62.62,0,0,1,0,.45,1.7,1.7,0,0,1-.11.31.73.73,0,0,0,0,.5A.32.32,0,0,0,365.87,2Z"/><path class="cls-21" d="M377.7,2s-.05.07-.15.1l-.45.17-1,.25a4.91,4.91,0,0,0-.65.16c-.07,0-.11,0-.11.09s0,0,.06.07l.18.07.11,0,.11,0,.1,0,.24.09c.18.09.19.2,0,.34a1,1,0,0,1-.74.25h-4.73a.26.26,0,0,0-.23.17l-.25.4c-.1.18-.17.3-.2.37s-.06.1-.05.12,0,0,.06,0h4.76a.27.27,0,0,1,.28.28.38.38,0,0,0,.26.35l.57.22,0,0c.11,0,.16.08.16.12s-.09.08-.27.13l-.36.11-.49.14-.36.15s-.07,0-.07.06,0,0,0,0h1.46s.07,0,.07,0,0,0-.09.06l-.42.14-.39.13-.27.1c-.07,0-.11.06-.11.09s0,.08.07.11l.22.11.36.18c.14.09.13.22,0,.4a1.25,1.25,0,0,1-.88.46h-4.55c-.1,0-.15,0-.17,0s-.09,0-.14.13c-.12.23-.26.52-.43.86,0,.08,0,.11,0,.11H374a.4.4,0,0,1,.4.25.87.87,0,0,1-.08.63c-.22.53-.33.8-.34.81-.1.27-.2.56-.31.89-.2.61-.54.91-1,.91h-7a.43.43,0,0,1-.45-.27,1.12,1.12,0,0,1,0-.72,18,18,0,0,1,.91-2.25l.85-1.65,0-.05a.11.11,0,0,0,0-.06l0,0c.11-.21.11-.33,0-.38l-.34-.18a1.84,1.84,0,0,1-.29-.15q-.09,0-.09-.09a.37.37,0,0,1,.14-.1l.29-.1.52-.16.29-.1,0,0,0,0-.06,0h-1.4q-.09,0-.09,0s0-.05.12-.08a9.2,9.2,0,0,1,1-.31,3.06,3.06,0,0,1,.34-.12.19.19,0,0,0,.09-.09s0,0-.07-.08l-.15-.07-.2-.07-.23-.09c-.1,0-.16-.07-.18-.11a.2.2,0,0,1,0-.25L367,4.9c.07-.14.19-.34.35-.62l.37-.64.1-.18c.06-.12.06-.21,0-.26a.82.82,0,0,0-.19-.1l-.42-.17a.87.87,0,0,1-.21-.09s0,0,0-.07,0,0,.07,0l.47-.15.92-.25a3.53,3.53,0,0,0,.77-.25s.06,0,.06,0,0,0,0,0h-1.64a.34.34,0,0,1-.36-.2.5.5,0,0,1,0-.34,2.68,2.68,0,0,1,.41-.72,1.18,1.18,0,0,1,.85-.47h6.86a.78.78,0,0,1,.21,0,.33.33,0,0,1,.32.24.78.78,0,0,1-.05.55l0,.08a.41.41,0,0,1-.05.09.31.31,0,0,0,0,.08.63.63,0,0,0-.07.43.28.28,0,0,0,.23.22.92.92,0,0,0,.23,0h1.48C377.67,2,377.7,2,377.7,2Z"/><path class="cls-21" d="M379.57,2h-1.71a.23.23,0,0,1-.13-.05.3.3,0,0,1,0-.18.81.81,0,0,1,.29-.38l.41-.33a6.35,6.35,0,0,1,5.42-.73,2.33,2.33,0,0,1,1.28,1,1.79,1.79,0,0,0,.34.49.42.42,0,0,0,.33.14h1.67c.06,0,.09,0,.09,0s0,0-.09.07-.45.14-.88.25l-.41.1-.43.11-.21,0q-.12,0-.12.09s0,.07.07.11l.22.1A.67.67,0,0,1,386,3a.09.09,0,0,1,.05.12.18.18,0,0,1-.1.09l-.27.15L384.25,4a1.59,1.59,0,0,1-.4.09c-.1,0-.19,0-.25-.16a.84.84,0,0,0-.47-.43,3.24,3.24,0,0,0-2,0,3.13,3.13,0,0,0-.32.16.66.66,0,0,0-.22.16c-.19.24-.21.42-.05.54l.61.25a18.6,18.6,0,0,0,1.89.63c.3.09.86.22,1.68.4l.39.11c.07,0,.1.06.09.1s-.08.09-.2.15l-.48.21c-.12.09-.18.15-.17.2s0,.06.09.06h1.68a0,0,0,0,1,0,0,.1.1,0,0,1,0,.08,1.18,1.18,0,0,1-.34.16l-.28.08-.35.12A.73.73,0,0,1,385,7c-.1,0-.11.09,0,.15l.2.07.37.12a2,2,0,0,1,.3.1c.15.06.24.12.26.19a.86.86,0,0,1-.12.45,11.1,11.1,0,0,1-1.76,3,5.93,5.93,0,0,1-2.56,1.78,5.08,5.08,0,0,1-1.42.3,6.23,6.23,0,0,1-2.81-.36,2.48,2.48,0,0,1-1-.61,2.61,2.61,0,0,1-.56-1,1.11,1.11,0,0,1,.33-1.15,1.64,1.64,0,0,1,.43-.36c.5-.25,1.12-.55,1.85-.88a.65.65,0,0,1,.34-.08.25.25,0,0,1,.28.22,1,1,0,0,0,.75.74,3.69,3.69,0,0,0,1.64.09,1.62,1.62,0,0,0,.83-.4q.48-.48.12-.75a.73.73,0,0,0-.29-.15q-2.19-.75-2.79-.93a3.5,3.5,0,0,0-.59-.17l-1.06-.25s-.05,0,0-.07,0,0,.07-.07l.33-.13a3.77,3.77,0,0,0,.5-.23.12.12,0,0,0,0-.09s0-.06-.05-.06H377q-.15,0-.15-.06s.13-.12.38-.25l.63-.23a1.31,1.31,0,0,0,.2-.11s0,0,0-.07a.47.47,0,0,0-.15-.06c-.2-.06-.41-.13-.61-.21a.91.91,0,0,1-.22-.11c-.1-.07-.12-.19-.05-.36s.25-.51.38-.74c0-.07.19-.32.47-.76a.65.65,0,0,0,.12-.28q0-.09-.12-.15l-.26-.11-.23-.1c-.08-.05-.13-.09-.14-.13s.07-.11.23-.14l.48-.1.57-.14,1-.25c.05,0,.07,0,.07-.06S379.62,2,379.57,2Z"/><path class="cls-21" d="M389.67,2H388c-.07,0-.12,0-.13-.05a.3.3,0,0,1,0-.18.75.75,0,0,1,.29-.38l.41-.33A6.33,6.33,0,0,1,394,.31a2.37,2.37,0,0,1,1.28,1,1.59,1.59,0,0,0,.34.49.42.42,0,0,0,.32.14h1.68c.06,0,.09,0,.09,0s0,0-.09.07-.45.14-.89.25l-.4.1-.43.11-.21,0c-.08,0-.13.06-.13.09s0,.07.08.11l.21.1a.77.77,0,0,1,.22.12.11.11,0,0,1,.05.12.22.22,0,0,1-.1.09l-.28.15L394.35,4a1.59,1.59,0,0,1-.4.09c-.11,0-.19,0-.25-.16a.84.84,0,0,0-.47-.43,3.24,3.24,0,0,0-2,0l-.32.16a.66.66,0,0,0-.22.16c-.19.24-.21.42-.05.54l.61.25a18.6,18.6,0,0,0,1.89.63c.3.09.86.22,1.67.4l.4.11c.07,0,.1.06.09.1s-.08.09-.2.15l-.49.21c-.12.09-.17.15-.16.2s0,.06.09.06h1.68a0,0,0,0,1,.05,0,.1.1,0,0,1-.05.08,1.15,1.15,0,0,1-.35.16l-.27.08-.36.12a.63.63,0,0,1-.19.05c-.1,0-.11.09,0,.15l.2.07.37.12.29.1c.16.06.25.12.27.19a1.13,1.13,0,0,1-.12.45,10.86,10.86,0,0,1-1.77,3,5.9,5.9,0,0,1-2.55,1.78,5.08,5.08,0,0,1-1.42.3,6.23,6.23,0,0,1-2.81-.36A2.33,2.33,0,0,1,386,11.16a1.13,1.13,0,0,1,.32-1.15,1.66,1.66,0,0,1,.44-.36c.5-.25,1.12-.55,1.85-.88a.63.63,0,0,1,.34-.08.24.24,0,0,1,.27.22,1,1,0,0,0,.76.74,3.69,3.69,0,0,0,1.64.09,1.55,1.55,0,0,0,.82-.4c.33-.32.37-.57.13-.75a.81.81,0,0,0-.29-.15q-2.19-.75-2.79-.93a3.82,3.82,0,0,0-.59-.17l-1.06-.25s-.05,0,0-.07,0,0,.07-.07a2,2,0,0,1,.33-.13,3.77,3.77,0,0,0,.5-.23.18.18,0,0,0,0-.09.05.05,0,0,0-.06-.06h-1.55c-.09,0-.14,0-.14-.06s.13-.12.38-.25l.63-.23a1.31,1.31,0,0,0,.2-.11s0,0,0-.07a.62.62,0,0,0-.15-.06c-.2-.06-.41-.13-.61-.21a.65.65,0,0,1-.22-.11c-.11-.07-.12-.19-.05-.36a6.4,6.4,0,0,1,.38-.74c0-.07.19-.32.46-.76a.58.58,0,0,0,.13-.28c0-.06,0-.11-.13-.15l-.25-.11-.23-.1a.4.4,0,0,1-.15-.13c0-.06.08-.11.24-.14l.48-.1.56-.14,1-.25c.05,0,.07,0,.07-.06S389.72,2,389.67,2Z"/><path class="cls-21" d="M403.28,12.83h-.74c-.32,0-.5-.19-.52-.57,0-.07,0-.19,0-.34s0-.26,0-.31a.43.43,0,0,1,0-.11c0-.06,0-.09,0-.11h-3.61a.42.42,0,0,0-.33.21l-.24.35-.23.35a.92.92,0,0,1-.82.54h-1.48a.43.43,0,0,1-.41-.2.8.8,0,0,1-.08-.55,1.21,1.21,0,0,1,.29-.63l1.06-1.32c.14-.14.8-.87,2-2.17l.08-.08.06-.08a.45.45,0,0,0,.07-.07.33.33,0,0,0,.06-.08c.1-.12.11-.2,0-.25l-.24-.15-.23-.14a.09.09,0,0,1,0-.11.22.22,0,0,1,.1-.09,2.06,2.06,0,0,1,.35-.12l1-.29c.05,0,.07,0,.07,0s0,0-.05,0h-1.44c-.05,0-.08,0-.08,0a.17.17,0,0,1,.08-.07l.34-.09a1.38,1.38,0,0,1,.26-.07l.32-.08.26-.07.42-.12a.19.19,0,0,0,.09-.09.07.07,0,0,0,0-.09l-.06,0-.1,0-.12,0-.1-.06-.09,0-.07,0c-.08-.06-.08-.16,0-.29l.2-.2.73-.74.58-.57.15-.17c.14-.16.15-.28,0-.34l-.11-.06-.13,0L400.32,3l-.05,0-.1,0a.1.1,0,0,1,0,0,0,0,0,0,1,0,0c0-.07.1-.13.29-.16l.68-.15,1.26-.3.25-.09c.06,0,.08,0,.07-.08a.07.07,0,0,0-.07,0h-1.46l-.21,0a.17.17,0,0,1-.17-.16.5.5,0,0,1,.11-.32c.34-.41.62-.73.85-1a.87.87,0,0,1,.86-.25q.26.07.24.45c0,.07,0,.17,0,.3s0,.2,0,.22a.76.76,0,0,0,.13.52.47.47,0,0,0,.39.22h1.62Q405,2,405,2s0,.08-.09.1-.45.15-1,.31l-.78.23s-.06,0-.07.06a.06.06,0,0,0,0,.1l.65.22.24.09c.16.07.22.23.18.47s-.07.38-.12.68-.09.53-.12.69,0,.37.15.43l.29.12.39.14.2.08s0,0,0,.09,0,0-.08.05a1,1,0,0,1-.29.11,7.68,7.68,0,0,0-.82.29c-.08,0-.1.07-.08.11a.71.71,0,0,0,.22,0h1.3s.05,0,.05,0,0,0-.07.07l-.2.07-.35.13-.26.11c-.11,0-.16.09-.16.14s0,.08.11.11l.18.07.21.08a3,3,0,0,1,.36.18c.12.06.17.18.14.37-.07.58-.12,1.07-.16,1.48a14.08,14.08,0,0,0-.05,2.14A1.5,1.5,0,0,1,405,12a1.67,1.67,0,0,1-.22.42,1.16,1.16,0,0,1-.31.28.73.73,0,0,1-.35.09Zm-2.56-4.5h1.49c.06,0,.1,0,.11-.12l.07-.35c.08-.26,0-.43-.17-.52-.35-.13-.59-.23-.73-.3a.1.1,0,0,1-.05-.11.25.25,0,0,1,.1-.08l.21-.08.29-.1.21-.08c.18-.06.26-.11.25-.15s-.05-.07-.14,0a1.57,1.57,0,0,0-.36.09l-.12,0-.16,0-.19.06-.22.07-.23.07-.29.11c-.11,0-.12.11-.05.18l.16.11.29.15c.12.07.11.19,0,.35l-.14.17-.1.1-.12.13a.44.44,0,0,0-.09.11c-.06.06-.09.09-.09.11Z"/><path class="cls-21" d="M415.75,5.76H418a0,0,0,0,1,0,0s0,0-.06,0a2.08,2.08,0,0,0-.3.13,1.57,1.57,0,0,0-.29.14l-.18.14c-.09.11-.09.17,0,.17h1.55a0,0,0,0,1,.05,0s0,0,0,.07a.78.78,0,0,1-.2.09l-.57.17-.67.19-.09.06s0,.06.06.09l.16.07.1,0,.1,0,.1,0,.11,0,.09,0c.13.06.2.12.21.19A1,1,0,0,1,418,8q-2.52,4-5.94,4.91a5.72,5.72,0,0,1-1.42.2,5.11,5.11,0,0,1-2.54-.49,2.9,2.9,0,0,1-1.33-1.33,3.89,3.89,0,0,1,.09-3.13.56.56,0,0,1,0-.12l.05-.12,0-.1q.11-.25,0-.33l-.2-.09-.65-.25c-.07,0-.06-.08,0-.13l.91-.28c.26-.08.42-.13.51-.17s.09-.06.09-.07,0,0-.09,0H406s-.06,0-.06,0,0-.05,0-.08a2.35,2.35,0,0,1,.38-.16c.38-.15.79-.28,1.21-.4.12,0,.18,0,.19-.09s0-.08-.1-.11l-.18-.06-.17,0-.3-.12c-.13,0-.2-.11-.2-.18a.69.69,0,0,1,.2-.34c.09-.12.44-.52,1-1.19l.1-.11.08-.09c.1-.11.15-.18.15-.23s0-.1-.13-.15l-.34-.16c-.08,0-.14-.06-.16-.09a.05.05,0,0,1,0-.06s0,0,.07-.07l.42-.1c.89-.18,1.38-.28,1.47-.31l.62-.16c.1,0,.15-.08.14-.09s0,0-.07,0h-1.71c-.15,0-.22,0-.24,0s0-.15.22-.3a2.42,2.42,0,0,1,.4-.31,8.8,8.8,0,0,1,2.07-1A6.36,6.36,0,0,1,415,.27a2.83,2.83,0,0,1,1.47,1.1,2.17,2.17,0,0,0,.42.5.55.55,0,0,0,.34.11h1.58L419,2s.05,0,.05,0,0,0-.07.09l-.4.16-.66.18-.24.06-.3.08q-.17.06-.18.09s0,.1.12.15l.13,0c.06,0,.09,0,.09,0l.29.09.14.09c.1.08.08.18,0,.28a3.66,3.66,0,0,1-.84.51l-1.55.7-.29.13a.35.35,0,0,1-.43-.18,1,1,0,0,0-.65-.6,4.08,4.08,0,0,0-1.64-.12,3.93,3.93,0,0,0-1.49.43,4,4,0,0,0-.86.59,1.06,1.06,0,0,0-.15.15q-.19.2,0,.3a2,2,0,0,0,.32.15l.08,0,.07,0,.07,0,.09,0c.06,0,.08.06.07.09s0,.07-.13.09l-.15,0-.18,0-.15,0a4.91,4.91,0,0,0-1,.34l-.15.1-.08.06a0,0,0,0,0,0,0s0,0,.12,0h1.52s.05,0,.05,0-.05.06-.11.09a1.05,1.05,0,0,1-.25.11l-.68.18L409.2,7c-.09,0-.13,0-.14.08s0,.06.1.1h.07l.08,0,.08,0,.08,0,.47.18c.13.06.17.2.12.4A1,1,0,0,0,410.33,9a1.55,1.55,0,0,0,.78.31,5.23,5.23,0,0,0,2.12-.14,4,4,0,0,0,.88-.38c.05,0,.07-.07.07-.09s0,0-.07,0h-1.35l-.23,0q-.4-.09-.18-.66a1.44,1.44,0,0,1,.09-.24.2.2,0,0,0,0-.25l-.14-.09-.35-.13-.1,0a.34.34,0,0,0-.13,0,.22.22,0,0,1-.14-.12s.05-.09.16-.11l0,0,.24,0a1.48,1.48,0,0,0,.25-.08,5.52,5.52,0,0,0,.54-.16l.29-.12c.05,0,.07,0,.07-.07s0,0-.07,0H411.5a0,0,0,0,1,0,0s0,0,0-.05a2.29,2.29,0,0,1,.45-.23c.23-.08.45-.15.65-.2a6.94,6.94,0,0,1,1.71-.16Z"/><path class="cls-21" d="M430.49,2s-.05.07-.14.1l-.45.17-1,.25a4.62,4.62,0,0,0-.64.16c-.08,0-.11,0-.11.09s0,0,.05.07l.18.07.11,0,.12,0,.1,0,.23.09c.18.09.19.2,0,.34a1.06,1.06,0,0,1-.74.25h-4.74a.27.27,0,0,0-.23.17l-.24.4-.21.37c0,.06-.05.1,0,.12s0,0,.06,0h4.75a.28.28,0,0,1,.29.28.36.36,0,0,0,.25.35l.58.22,0,0c.11,0,.16.08.16.12s-.09.08-.27.13l-.36.11-.48.14a2.18,2.18,0,0,0-.36.15c-.05,0-.07,0-.07.06a0,0,0,0,0,0,0h1.46c.05,0,.07,0,.07,0s0,0-.09.06l-.41.14-.4.13-.27.1c-.07,0-.11.06-.11.09s0,.08.08.11l.21.11.36.18c.15.09.13.22,0,.4a1.27,1.27,0,0,1-.89.46h-4.55c-.1,0-.15,0-.16,0s-.1,0-.15.13c-.12.23-.26.52-.43.86,0,.08,0,.11,0,.11h4.66a.41.41,0,0,1,.41.25.94.94,0,0,1-.09.63c-.21.53-.33.8-.34.81-.09.27-.2.56-.3.89-.21.61-.54.91-1,.91h-7a.43.43,0,0,1-.45-.27,1.19,1.19,0,0,1,0-.72A18,18,0,0,1,419,9.59l.84-1.65a.1.1,0,0,0,0-.05l0-.06a.08.08,0,0,1,0,0c.11-.21.11-.33,0-.38l-.34-.18-.29-.15q-.09,0-.09-.09a.45.45,0,0,1,.15-.1,1.32,1.32,0,0,1,.29-.1l.51-.16.3-.1,0,0,0,0,0,0h-1.41q-.09,0-.09,0s0-.05.13-.08a8.8,8.8,0,0,1,1-.31l.34-.12a.19.19,0,0,0,.09-.09s0,0-.07-.08l-.14-.07-.2-.07-.24-.09a.46.46,0,0,1-.18-.11c-.06-.06-.06-.14,0-.25l.14-.23c.07-.14.19-.34.35-.62s.29-.49.37-.64l.11-.18c.06-.12.06-.21,0-.26l-.2-.1L420,2.93a1,1,0,0,1-.22-.09.07.07,0,0,1,0-.07s0,0,.08,0l.46-.15.92-.25a3.5,3.5,0,0,0,.78-.25s.05,0,.05,0,0,0,0,0h-1.63c-.2,0-.32-.07-.36-.2a.5.5,0,0,1,0-.34,2.44,2.44,0,0,1,.42-.72,1.16,1.16,0,0,1,.84-.47h6.86a1,1,0,0,1,.22,0,.33.33,0,0,1,.31.24.77.77,0,0,1,0,.55s0,.05,0,.08a.36.36,0,0,1,0,.09.16.16,0,0,0,0,.08.68.68,0,0,0-.06.43.27.27,0,0,0,.22.22,1.1,1.1,0,0,0,.24,0h1.47C430.46,2,430.49,2,430.49,2Z"/></g></g></g></svg>