<?xml version="1.0" encoding="utf-8"?>
<!-- Generator: Adobe Illustrator 24.0.0, SVG Export Plug-In . SVG Version: 6.00 Build 0)  -->
<svg version="1.1" id="Layer_1" xmlns="http://www.w3.org/2000/svg" xmlns:xlink="http://www.w3.org/1999/xlink" x="0px" y="0px"
	 viewBox="0 0 500 218.9" style="enable-background:new 0 0 500 218.9;" xml:space="preserve">
<style type="text/css">
	.st0{display:none;}
	.st1{display:inline;fill:#00D0FF;}
	.st2{opacity:0.2;fill:#00D0FF;}
	.st3{fill:#00D0FF;}
	.st4{filter:url(#Adobe_OpacityMaskFilter);}
	.st5{filter:url(#Adobe_OpacityMaskFilter_1_);}
	.st6{mask:url(#SVGID_1_);fill:url(#SVGID_2_);}
	.st7{fill:url(#SVGID_3_);}
	.st8{filter:url(#Adobe_OpacityMaskFilter_2_);}
	.st9{filter:url(#Adobe_OpacityMaskFilter_3_);}
	.st10{mask:url(#SVGID_4_);fill:url(#SVGID_5_);}
	.st11{fill:url(#SVGID_6_);}
	.st12{filter:url(#Adobe_OpacityMaskFilter_4_);}
	.st13{filter:url(#Adobe_OpacityMaskFilter_5_);}
	.st14{mask:url(#SVGID_7_);fill:url(#SVGID_8_);}
	.st15{fill:url(#SVGID_9_);}
	.st16{filter:url(#Adobe_OpacityMaskFilter_6_);}
	.st17{filter:url(#Adobe_OpacityMaskFilter_7_);}
	.st18{mask:url(#SVGID_10_);fill:url(#SVGID_11_);}
	.st19{fill:url(#SVGID_12_);}
	.st20{filter:url(#Adobe_OpacityMaskFilter_8_);}
	.st21{filter:url(#Adobe_OpacityMaskFilter_9_);}
	.st22{mask:url(#SVGID_13_);fill:url(#SVGID_14_);}
	.st23{fill:url(#SVGID_15_);}
	.st24{filter:url(#Adobe_OpacityMaskFilter_10_);}
	.st25{filter:url(#Adobe_OpacityMaskFilter_11_);}
	.st26{mask:url(#SVGID_16_);fill:url(#SVGID_17_);}
	.st27{fill:url(#SVGID_18_);}
	.st28{filter:url(#Adobe_OpacityMaskFilter_12_);}
	.st29{filter:url(#Adobe_OpacityMaskFilter_13_);}
	.st30{mask:url(#SVGID_19_);fill:url(#SVGID_20_);}
	.st31{fill:url(#SVGID_21_);}
	.st32{filter:url(#Adobe_OpacityMaskFilter_14_);}
	.st33{filter:url(#Adobe_OpacityMaskFilter_15_);}
	.st34{mask:url(#SVGID_22_);fill:url(#SVGID_23_);}
	.st35{fill:url(#SVGID_24_);}
</style>
<g class="st0">
	<path class="st1" d="M283.7,29.5h-9.8V14h2.1v13.7h7.7V29.5z"/>
	<path class="st1" d="M295.5,23.7c0,1.9-0.5,3.4-1.5,4.5c-1,1.1-2.3,1.6-3.9,1.6c-1.6,0-3-0.5-3.9-1.6c-1-1.1-1.5-2.6-1.5-4.5
		c0-1.9,0.5-3.4,1.5-4.5c1-1.1,2.3-1.7,3.9-1.7c1.6,0,2.9,0.6,3.9,1.7C295,20.3,295.5,21.8,295.5,23.7z M293.5,23.7
		c0-1.5-0.3-2.6-0.9-3.4c-0.6-0.7-1.4-1.1-2.5-1.1c-1.1,0-1.9,0.4-2.5,1.1s-0.9,1.9-0.9,3.4c0,1.5,0.3,2.6,0.9,3.3
		c0.6,0.8,1.4,1.1,2.5,1.1c1,0,1.9-0.4,2.5-1.1C293.2,26.3,293.5,25.2,293.5,23.7z"/>
	<path class="st1" d="M305.8,20h-0.1c-0.3-0.1-0.6-0.1-0.8-0.2c-0.3,0-0.6,0-1,0c-0.6,0-1.2,0.1-1.7,0.4c-0.6,0.3-1.1,0.6-1.6,1v8.3
		h-2V17.9h2v1.7c0.8-0.6,1.5-1.1,2.1-1.3c0.6-0.3,1.2-0.4,1.8-0.4c0.3,0,0.6,0,0.7,0c0.2,0,0.4,0.1,0.7,0.1V20z"/>
	<path class="st1" d="M317.4,23.9h-8.6c0,0.7,0.1,1.3,0.3,1.9c0.2,0.5,0.5,1,0.9,1.3c0.4,0.3,0.8,0.6,1.3,0.7c0.5,0.2,1,0.2,1.6,0.2
		c0.8,0,1.6-0.2,2.4-0.5c0.8-0.3,1.4-0.6,1.7-0.9h0.1v2.1c-0.7,0.3-1.3,0.5-2,0.7c-0.7,0.2-1.4,0.3-2.2,0.3c-1.9,0-3.4-0.5-4.5-1.6
		c-1.1-1-1.6-2.5-1.6-4.5c0-1.9,0.5-3.4,1.6-4.5c1-1.1,2.4-1.7,4.1-1.7c1.6,0,2.8,0.5,3.6,1.4c0.9,0.9,1.3,2.2,1.3,3.9V23.9z
		 M315.5,22.4c0-1-0.3-1.8-0.8-2.4c-0.5-0.6-1.3-0.8-2.3-0.8c-1,0-1.9,0.3-2.5,0.9c-0.6,0.6-1,1.4-1.1,2.3H315.5z"/>
	<path class="st1" d="M337.3,29.5h-2v-6.6c0-0.5,0-1-0.1-1.4c0-0.5-0.1-0.8-0.3-1.1c-0.2-0.3-0.4-0.5-0.7-0.7
		c-0.3-0.2-0.7-0.2-1.3-0.2c-0.5,0-1.1,0.1-1.6,0.4c-0.5,0.3-1.1,0.6-1.6,1c0,0.2,0,0.3,0.1,0.6s0,0.4,0,0.6v7.4h-2v-6.6
		c0-0.5,0-1-0.1-1.5c0-0.5-0.1-0.8-0.3-1.1c-0.2-0.3-0.4-0.5-0.7-0.7c-0.3-0.1-0.7-0.2-1.3-0.2c-0.5,0-1.1,0.1-1.6,0.4
		c-0.5,0.3-1.1,0.6-1.6,1v8.7h-2V17.9h2v1.3c0.6-0.5,1.2-0.9,1.8-1.2c0.6-0.3,1.3-0.4,1.9-0.4c0.8,0,1.5,0.2,2,0.5
		c0.6,0.3,1,0.8,1.2,1.4c0.8-0.7,1.5-1.1,2.2-1.4c0.7-0.3,1.4-0.4,2.1-0.4c1.3,0,2.2,0.4,2.8,1.2c0.6,0.8,0.9,1.9,0.9,3.2V29.5z"/>
	<path class="st1" d="M350.7,16h-2.2v-2h2.2V16z M350.6,29.5h-2V17.9h2V29.5z"/>
	<path class="st1" d="M362.7,26.2c0,1.1-0.4,1.9-1.3,2.6c-0.9,0.7-2.1,1-3.6,1c-0.9,0-1.7-0.1-2.4-0.3c-0.7-0.2-1.3-0.4-1.8-0.7
		v-2.2h0.1c0.6,0.5,1.3,0.8,2.1,1.1c0.8,0.3,1.5,0.4,2.2,0.4c0.9,0,1.5-0.1,2-0.4c0.5-0.3,0.7-0.7,0.7-1.3c0-0.5-0.1-0.8-0.4-1
		c-0.3-0.2-0.8-0.4-1.5-0.6c-0.3-0.1-0.6-0.1-1.1-0.2c-0.4-0.1-0.9-0.2-1.2-0.3c-1-0.3-1.7-0.7-2.2-1.2c-0.4-0.5-0.6-1.2-0.6-1.9
		c0-0.5,0.1-0.9,0.3-1.4c0.2-0.4,0.5-0.8,0.9-1.1c0.4-0.3,0.9-0.6,1.5-0.8c0.6-0.2,1.3-0.3,2-0.3c0.7,0,1.4,0.1,2.1,0.3
		c0.7,0.2,1.3,0.4,1.8,0.6v2.1h-0.1c-0.5-0.4-1.1-0.7-1.8-0.9c-0.7-0.3-1.4-0.4-2.1-0.4c-0.7,0-1.3,0.1-1.8,0.4
		c-0.5,0.3-0.7,0.7-0.7,1.2c0,0.5,0.1,0.8,0.4,1.1c0.3,0.2,0.8,0.4,1.4,0.6c0.4,0.1,0.8,0.2,1.2,0.3c0.4,0.1,0.8,0.2,1.1,0.2
		c0.9,0.2,1.6,0.6,2.1,1.1C362.5,24.7,362.7,25.3,362.7,26.2z"/>
	<path class="st1" d="M375.8,23.6c0,0.9-0.1,1.8-0.4,2.6c-0.3,0.8-0.7,1.4-1.1,2c-0.5,0.5-1,0.9-1.6,1.2c-0.6,0.3-1.3,0.4-2,0.4
		c-0.6,0-1.2-0.1-1.6-0.2c-0.5-0.1-1-0.3-1.5-0.6v4.9h-2V17.9h2v1.2c0.5-0.4,1.1-0.8,1.8-1.1c0.6-0.3,1.3-0.4,2.1-0.4
		c1.4,0,2.5,0.5,3.3,1.6C375.4,20.2,375.8,21.7,375.8,23.6z M373.8,23.6c0-1.4-0.2-2.5-0.7-3.1s-1.2-1-2.2-1c-0.6,0-1.1,0.1-1.7,0.4
		c-0.6,0.2-1.1,0.6-1.6,1v6.6c0.6,0.2,1,0.4,1.4,0.5s0.9,0.1,1.4,0.1c1.1,0,1.9-0.4,2.6-1.1C373.4,26.2,373.8,25.1,373.8,23.6z"/>
	<path class="st1" d="M388.5,29.5h-2v-1.3c-0.7,0.5-1.3,0.9-1.9,1.2c-0.6,0.3-1.3,0.4-2,0.4c-1.2,0-2.2-0.4-2.9-1.1
		c-0.7-0.7-1-1.8-1-3.3v-7.6h2v6.6c0,0.6,0,1.1,0.1,1.5c0.1,0.4,0.2,0.8,0.4,1.1c0.2,0.3,0.4,0.5,0.7,0.7c0.3,0.1,0.7,0.2,1.3,0.2
		c0.5,0,1.1-0.1,1.7-0.4c0.6-0.3,1.2-0.6,1.7-1v-8.7h2V29.5z"/>
	<path class="st1" d="M409.3,29.5h-2v-6.6c0-0.5,0-1-0.1-1.4c0-0.5-0.1-0.8-0.3-1.1c-0.2-0.3-0.4-0.5-0.7-0.7
		c-0.3-0.2-0.7-0.2-1.3-0.2c-0.5,0-1.1,0.1-1.6,0.4c-0.5,0.3-1.1,0.6-1.6,1c0,0.2,0,0.3,0.1,0.6c0,0.2,0,0.4,0,0.6v7.4h-2v-6.6
		c0-0.5,0-1-0.1-1.5c0-0.5-0.1-0.8-0.3-1.1c-0.2-0.3-0.4-0.5-0.7-0.7c-0.3-0.1-0.7-0.2-1.3-0.2c-0.5,0-1.1,0.1-1.6,0.4
		c-0.5,0.3-1.1,0.6-1.6,1v8.7h-2V17.9h2v1.3c0.6-0.5,1.2-0.9,1.8-1.2c0.6-0.3,1.3-0.4,1.9-0.4c0.8,0,1.5,0.2,2,0.5
		c0.6,0.3,1,0.8,1.2,1.4c0.8-0.7,1.5-1.1,2.2-1.4c0.7-0.3,1.4-0.4,2.1-0.4c1.3,0,2.2,0.4,2.8,1.2c0.6,0.8,0.9,1.9,0.9,3.2V29.5z"/>
</g>
<path class="st2" d="M434.1,80.6c0-8.8-7.1-15.9-15.9-15.9h-80.8v-1.6c0-8.8-7.1-15.9-15.9-15.9H66.3c-8.8,0-15.9,7.1-15.9,15.9v4.8
	c0,8.8,19,85.6,19,85.6c0,8.8,7.1,15.9,15.9,15.9h87.3c0.8,8,7.6,14.3,15.8,14.3h255.2c8.8,0,15.9-7.1,15.9-15.9V163
	C459.4,154.2,434.1,80.6,434.1,80.6z"/>
<path class="st2" d="M434.1,80.6c0-8.8-7.1-15.9-15.9-15.9h-80.8v-1.6c0-8.8-7.1-15.9-15.9-15.9H66.3c-8.8,0-15.9,7.1-15.9,15.9v4.8
	c0,8.8,19,85.6,19,85.6c0,8.8,7.1,15.9,15.9,15.9h87.3c0.8,8,7.6,14.3,15.8,14.3h255.2c8.8,0,15.9-7.1,15.9-15.9V163
	C459.4,154.2,434.1,80.6,434.1,80.6z"/>
<g>
	<path class="st3" d="M443.6,184.3H188.4c-8.3,0-15.3-6.1-16.4-14.3H85.4c-9.1,0-16.5-7.4-16.6-16.5c-1-4.2-19-77-19-85.7v-4.8
		c0-9.1,7.4-16.6,16.6-16.6h255.2c9.1,0,16.6,7.4,16.6,16.6V64h80.1c9.1,0,16.5,7.4,16.6,16.5c1.5,4.3,25.4,73.9,25.4,82.5v4.8
		C460.2,176.9,452.7,184.3,443.6,184.3z M66.3,48c-8.3,0-15.1,6.8-15.1,15.1v4.8c0,8.6,18.8,84.7,19,85.4c0,0.1,0,0.1,0,0.2
		c0,8.3,6.8,15.1,15.1,15.1h87.3c0.4,0,0.7,0.3,0.7,0.7c0.8,7.8,7.2,13.6,15.1,13.6h255.2c8.3,0,15.1-6.8,15.1-15.1V163
		c0-8.5-25.1-81.5-25.3-82.2c0-0.1,0-0.2,0-0.2c0-8.3-6.8-15.1-15.1-15.1h-80.8c-0.4,0-0.7-0.3-0.7-0.7v-1.6
		c0-8.3-6.8-15.1-15.1-15.1H66.3z"/>
</g>
<path class="st3" d="M53.5,86.2h-4.8l-3.7-21.1c0,0-4.2-20.6,13.2-22.7c16-1.9,64.5-1.1,64.5-1.1l5.8,5.3l-56,0.5
	c0,0-22-0.8-22.1,16L53.5,86.2z"/>
<path class="st3" d="M406,184l6.3,6.9c15.8,0,53.7,8,56-17.4c1.1-11.8-3.6-23.7-6.6-34.9c-0.4-1.4-4.7-20.1-5.5-20.1h-9.5l11.1,35.9
	c0,0,7.4,18.5-4.2,24.8c0,0-4.2,6.9-22.7,4.8H406z"/>
<polygon class="st3" points="174.9,46.6 261.3,46.6 252.7,40.8 193,40.8 194.6,44 171.4,44 "/>
<polygon class="st3" points="391.4,184.5 305,184.5 313.6,190.3 373.3,190.3 371.7,187.2 394.9,187.2 "/>
<g>
	<path class="st3" d="M430.5,39.2C406.3,39,385.8,39,365.9,39c-30.2,0-58.7,0-97.4-1l-0.1,0l-0.1-0.1c-10.4-7.3-11.6-8.4-21.1-17.4
		l-0.6-0.6l0.5-0.5l0.6,0.6c9.4,8.9,10.7,10.1,20.9,17.3c38.6,0.9,67.1,0.9,97.2,0.9c19.9,0,40.4,0,64.6,0.3L430.5,39.2z"/>
</g>
<defs>
	<filter id="Adobe_OpacityMaskFilter" filterUnits="userSpaceOnUse" x="75" y="153.4" width="94.8" height="10.6">
		<feFlood  style="flood-color:white;flood-opacity:1" result="back"/>
		<feBlend  in="SourceGraphic" in2="back" mode="normal"/>
	</filter>
</defs>
<mask maskUnits="userSpaceOnUse" x="75" y="153.4" width="94.8" height="10.6" id="SVGID_1_">
	<g class="st4">
		<defs>
			<filter id="Adobe_OpacityMaskFilter_1_" filterUnits="userSpaceOnUse" x="75" y="153.4" width="94.8" height="10.6">
				<feFlood  style="flood-color:white;flood-opacity:1" result="back"/>
				<feBlend  in="SourceGraphic" in2="back" mode="normal"/>
			</filter>
		</defs>
		<mask maskUnits="userSpaceOnUse" x="75" y="153.4" width="94.8" height="10.6" id="SVGID_1_">
			<g class="st5">
			</g>
		</mask>
		<linearGradient id="SVGID_2_" gradientUnits="userSpaceOnUse" x1="74.983" y1="158.6384" x2="169.777" y2="158.6384">
			<stop  offset="0" style="stop-color:#FFFFFF"/>
			<stop  offset="6.568468e-02" style="stop-color:#D8D8D8"/>
			<stop  offset="0.1615" style="stop-color:#A6A6A6"/>
			<stop  offset="0.2622" style="stop-color:#797979"/>
			<stop  offset="0.3657" style="stop-color:#545454"/>
			<stop  offset="0.4729" style="stop-color:#353535"/>
			<stop  offset="0.585" style="stop-color:#1E1E1E"/>
			<stop  offset="0.7041" style="stop-color:#0D0D0D"/>
			<stop  offset="0.8349" style="stop-color:#030303"/>
			<stop  offset="1" style="stop-color:#000000"/>
		</linearGradient>
		<path class="st6" d="M75,153.4c1.4,4.2,5.3,10.6,15.5,10.6h79.3l-5.3-10.6H75z"/>
	</g>
</mask>
<linearGradient id="SVGID_3_" gradientUnits="userSpaceOnUse" x1="74.983" y1="158.6384" x2="169.777" y2="158.6384">
	<stop  offset="0" style="stop-color:#00D0FF"/>
	<stop  offset="5.149281e-02" style="stop-color:#02CCF4"/>
	<stop  offset="0.2105" style="stop-color:#06C3D5"/>
	<stop  offset="0.3783" style="stop-color:#0ABCBE"/>
	<stop  offset="0.5566" style="stop-color:#0CB7AD"/>
	<stop  offset="0.7525" style="stop-color:#0EB4A3"/>
	<stop  offset="1" style="stop-color:#0EB3A0"/>
</linearGradient>
<path class="st7" d="M75,153.4c1.4,4.2,5.3,10.6,15.5,10.6h79.3l-5.3-10.6H75z"/>
<defs>
	<filter id="Adobe_OpacityMaskFilter_2_" filterUnits="userSpaceOnUse" x="236.7" y="53" width="94.8" height="10.6">
		<feFlood  style="flood-color:white;flood-opacity:1" result="back"/>
		<feBlend  in="SourceGraphic" in2="back" mode="normal"/>
	</filter>
</defs>
<mask maskUnits="userSpaceOnUse" x="236.7" y="53" width="94.8" height="10.6" id="SVGID_4_">
	<g class="st8">
		<defs>
			<filter id="Adobe_OpacityMaskFilter_3_" filterUnits="userSpaceOnUse" x="236.7" y="53" width="94.8" height="10.6">
				<feFlood  style="flood-color:white;flood-opacity:1" result="back"/>
				<feBlend  in="SourceGraphic" in2="back" mode="normal"/>
			</filter>
		</defs>
		<mask maskUnits="userSpaceOnUse" x="236.7" y="53" width="94.8" height="10.6" id="SVGID_4_">
			<g class="st9">
			</g>
		</mask>
		
			<linearGradient id="SVGID_5_" gradientUnits="userSpaceOnUse" x1="-78.3708" y1="-921.8835" x2="-173.1648" y2="-921.8835" gradientTransform="matrix(-1 0 0 -1 158.2988 -863.6387)">
			<stop  offset="0" style="stop-color:#FFFFFF"/>
			<stop  offset="6.568468e-02" style="stop-color:#D8D8D8"/>
			<stop  offset="0.1615" style="stop-color:#A6A6A6"/>
			<stop  offset="0.2622" style="stop-color:#797979"/>
			<stop  offset="0.3657" style="stop-color:#545454"/>
			<stop  offset="0.4729" style="stop-color:#353535"/>
			<stop  offset="0.585" style="stop-color:#1E1E1E"/>
			<stop  offset="0.7041" style="stop-color:#0D0D0D"/>
			<stop  offset="0.8349" style="stop-color:#030303"/>
			<stop  offset="1" style="stop-color:#000000"/>
		</linearGradient>
		<path class="st10" d="M331.5,63.5C330,59.3,326.1,53,315.9,53h-79.3l5.3,10.6H331.5z"/>
	</g>
</mask>
<linearGradient id="SVGID_6_" gradientUnits="userSpaceOnUse" x1="-78.3708" y1="-921.8835" x2="-173.1648" y2="-921.8835" gradientTransform="matrix(-1 0 0 -1 158.2988 -863.6387)">
	<stop  offset="0" style="stop-color:#00D0FF"/>
	<stop  offset="5.149281e-02" style="stop-color:#02CCF4"/>
	<stop  offset="0.2105" style="stop-color:#06C3D5"/>
	<stop  offset="0.3783" style="stop-color:#0ABCBE"/>
	<stop  offset="0.5566" style="stop-color:#0CB7AD"/>
	<stop  offset="0.7525" style="stop-color:#0EB4A3"/>
	<stop  offset="1" style="stop-color:#0EB3A0"/>
</linearGradient>
<path class="st11" d="M331.5,63.5C330,59.3,326.1,53,315.9,53h-79.3l5.3,10.6H331.5z"/>
<defs>
	<filter id="Adobe_OpacityMaskFilter_4_" filterUnits="userSpaceOnUse" x="438.5" y="68.3" width="46.1" height="10.6">
		<feFlood  style="flood-color:white;flood-opacity:1" result="back"/>
		<feBlend  in="SourceGraphic" in2="back" mode="normal"/>
	</filter>
</defs>
<mask maskUnits="userSpaceOnUse" x="438.5" y="68.3" width="46.1" height="10.6" id="SVGID_7_">
	<g class="st12">
		<defs>
			<filter id="Adobe_OpacityMaskFilter_5_" filterUnits="userSpaceOnUse" x="438.5" y="68.3" width="46.1" height="10.6">
				<feFlood  style="flood-color:white;flood-opacity:1" result="back"/>
				<feBlend  in="SourceGraphic" in2="back" mode="normal"/>
			</filter>
		</defs>
		<mask maskUnits="userSpaceOnUse" x="438.5" y="68.3" width="46.1" height="10.6" id="SVGID_7_">
			<g class="st13">
			</g>
		</mask>
		<linearGradient id="SVGID_8_" gradientUnits="userSpaceOnUse" x1="438.5137" y1="73.568" x2="484.5753" y2="73.568">
			<stop  offset="0" style="stop-color:#FFFFFF"/>
			<stop  offset="6.568468e-02" style="stop-color:#D8D8D8"/>
			<stop  offset="0.1615" style="stop-color:#A6A6A6"/>
			<stop  offset="0.2622" style="stop-color:#797979"/>
			<stop  offset="0.3657" style="stop-color:#545454"/>
			<stop  offset="0.4729" style="stop-color:#353535"/>
			<stop  offset="0.585" style="stop-color:#1E1E1E"/>
			<stop  offset="0.7041" style="stop-color:#0D0D0D"/>
			<stop  offset="0.8349" style="stop-color:#030303"/>
			<stop  offset="1" style="stop-color:#000000"/>
		</linearGradient>
		<polygon class="st14" points="481.4,68.3 438.5,68.3 441.7,78.9 484.6,78.9 		"/>
	</g>
</mask>
<linearGradient id="SVGID_9_" gradientUnits="userSpaceOnUse" x1="438.5137" y1="73.568" x2="484.5753" y2="73.568">
	<stop  offset="0" style="stop-color:#00D0FF"/>
	<stop  offset="5.149281e-02" style="stop-color:#02CCF4"/>
	<stop  offset="0.2105" style="stop-color:#06C3D5"/>
	<stop  offset="0.3783" style="stop-color:#0ABCBE"/>
	<stop  offset="0.5566" style="stop-color:#0CB7AD"/>
	<stop  offset="0.7525" style="stop-color:#0EB4A3"/>
	<stop  offset="1" style="stop-color:#0EB3A0"/>
</linearGradient>
<polygon class="st15" points="481.4,68.3 438.5,68.3 441.7,78.9 484.6,78.9 "/>
<defs>
	<filter id="Adobe_OpacityMaskFilter_6_" filterUnits="userSpaceOnUse" x="447" y="98.4" width="46.3" height="10.6">
		<feFlood  style="flood-color:white;flood-opacity:1" result="back"/>
		<feBlend  in="SourceGraphic" in2="back" mode="normal"/>
	</filter>
</defs>
<mask maskUnits="userSpaceOnUse" x="447" y="98.4" width="46.3" height="10.6" id="SVGID_10_">
	<g class="st16">
		<defs>
			<filter id="Adobe_OpacityMaskFilter_7_" filterUnits="userSpaceOnUse" x="447" y="98.4" width="46.3" height="10.6">
				<feFlood  style="flood-color:white;flood-opacity:1" result="back"/>
				<feBlend  in="SourceGraphic" in2="back" mode="normal"/>
			</filter>
		</defs>
		<mask maskUnits="userSpaceOnUse" x="447" y="98.4" width="46.3" height="10.6" id="SVGID_10_">
			<g class="st17">
			</g>
		</mask>
		<linearGradient id="SVGID_11_" gradientUnits="userSpaceOnUse" x1="446.9677" y1="103.6861" x2="493.271" y2="103.6861">
			<stop  offset="1.020410e-02" style="stop-color:#FFFFFF"/>
			<stop  offset="7.521852e-02" style="stop-color:#D8D8D8"/>
			<stop  offset="0.1701" style="stop-color:#A6A6A6"/>
			<stop  offset="0.2697" style="stop-color:#797979"/>
			<stop  offset="0.3722" style="stop-color:#545454"/>
			<stop  offset="0.4783" style="stop-color:#353535"/>
			<stop  offset="0.5892" style="stop-color:#1E1E1E"/>
			<stop  offset="0.7071" style="stop-color:#0D0D0D"/>
			<stop  offset="0.8366" style="stop-color:#030303"/>
			<stop  offset="1" style="stop-color:#000000"/>
		</linearGradient>
		<polygon class="st18" points="490.1,98.4 447,98.4 450.1,109 493.3,109 		"/>
	</g>
</mask>
<linearGradient id="SVGID_12_" gradientUnits="userSpaceOnUse" x1="446.9677" y1="103.6861" x2="493.271" y2="103.6861">
	<stop  offset="1.020410e-02" style="stop-color:#0EB3A0"/>
	<stop  offset="0.1027" style="stop-color:#0EB3A0"/>
	<stop  offset="1" style="stop-color:#0EB3A0"/>
</linearGradient>
<polygon class="st19" points="490.1,98.4 447,98.4 450.1,109 493.3,109 "/>
<defs>
	<filter id="Adobe_OpacityMaskFilter_8_" filterUnits="userSpaceOnUse" x="442.7" y="83.1" width="44.4" height="10.6">
		<feFlood  style="flood-color:white;flood-opacity:1" result="back"/>
		<feBlend  in="SourceGraphic" in2="back" mode="normal"/>
	</filter>
</defs>
<mask maskUnits="userSpaceOnUse" x="442.7" y="83.1" width="44.4" height="10.6" id="SVGID_13_">
	<g class="st20">
		<defs>
			<filter id="Adobe_OpacityMaskFilter_9_" filterUnits="userSpaceOnUse" x="442.7" y="83.1" width="44.4" height="10.6">
				<feFlood  style="flood-color:white;flood-opacity:1" result="back"/>
				<feBlend  in="SourceGraphic" in2="back" mode="normal"/>
			</filter>
		</defs>
		<mask maskUnits="userSpaceOnUse" x="442.7" y="83.1" width="44.4" height="10.6" id="SVGID_13_">
			<g class="st21">
			</g>
		</mask>
		<linearGradient id="SVGID_14_" gradientUnits="userSpaceOnUse" x1="442.7408" y1="88.3628" x2="487.1285" y2="88.3628">
			<stop  offset="0" style="stop-color:#FFFFFF"/>
			<stop  offset="6.568468e-02" style="stop-color:#D8D8D8"/>
			<stop  offset="0.1615" style="stop-color:#A6A6A6"/>
			<stop  offset="0.2622" style="stop-color:#797979"/>
			<stop  offset="0.3657" style="stop-color:#545454"/>
			<stop  offset="0.4729" style="stop-color:#353535"/>
			<stop  offset="0.585" style="stop-color:#1E1E1E"/>
			<stop  offset="0.7041" style="stop-color:#0D0D0D"/>
			<stop  offset="0.8349" style="stop-color:#030303"/>
			<stop  offset="1" style="stop-color:#000000"/>
		</linearGradient>
		<path class="st22" d="M484.3,83.1h-41.6l3.2,10.6h41.2C486.1,90,485.1,86.4,484.3,83.1z"/>
	</g>
</mask>
<linearGradient id="SVGID_15_" gradientUnits="userSpaceOnUse" x1="442.7408" y1="88.3628" x2="487.1285" y2="88.3628">
	<stop  offset="0" style="stop-color:#00D0FF"/>
	<stop  offset="5.149281e-02" style="stop-color:#02CCF4"/>
	<stop  offset="0.2105" style="stop-color:#06C3D5"/>
	<stop  offset="0.3783" style="stop-color:#0ABCBE"/>
	<stop  offset="0.5566" style="stop-color:#0CB7AD"/>
	<stop  offset="0.7525" style="stop-color:#0EB4A3"/>
	<stop  offset="1" style="stop-color:#0EB3A0"/>
</linearGradient>
<path class="st23" d="M484.3,83.1h-41.6l3.2,10.6h41.2C486.1,90,485.1,86.4,484.3,83.1z"/>
<defs>
	<filter id="Adobe_OpacityMaskFilter_10_" filterUnits="userSpaceOnUse" x="15.5" y="122.2" width="42.1" height="10.6">
		<feFlood  style="flood-color:white;flood-opacity:1" result="back"/>
		<feBlend  in="SourceGraphic" in2="back" mode="normal"/>
	</filter>
</defs>
<mask maskUnits="userSpaceOnUse" x="15.5" y="122.2" width="42.1" height="10.6" id="SVGID_16_">
	<g class="st24">
		<defs>
			<filter id="Adobe_OpacityMaskFilter_11_" filterUnits="userSpaceOnUse" x="15.5" y="122.2" width="42.1" height="10.6">
				<feFlood  style="flood-color:white;flood-opacity:1" result="back"/>
				<feBlend  in="SourceGraphic" in2="back" mode="normal"/>
			</filter>
		</defs>
		<mask maskUnits="userSpaceOnUse" x="15.5" y="122.2" width="42.1" height="10.6" id="SVGID_16_">
			<g class="st25">
			</g>
		</mask>
		<linearGradient id="SVGID_17_" gradientUnits="userSpaceOnUse" x1="15.5168" y1="127.4635" x2="57.5876" y2="127.4635">
			<stop  offset="0" style="stop-color:#000000"/>
			<stop  offset="0.1526" style="stop-color:#040404"/>
			<stop  offset="0.2876" style="stop-color:#0E0E0E"/>
			<stop  offset="0.4159" style="stop-color:#202020"/>
			<stop  offset="0.5402" style="stop-color:#3A3A3A"/>
			<stop  offset="0.6615" style="stop-color:#5B5B5B"/>
			<stop  offset="0.7806" style="stop-color:#838383"/>
			<stop  offset="0.8957" style="stop-color:#B2B2B2"/>
			<stop  offset="1" style="stop-color:#E3E3E3"/>
		</linearGradient>
		<polygon class="st26" points="55.1,122.2 15.5,122.2 18.7,132.7 57.6,132.7 		"/>
	</g>
</mask>
<linearGradient id="SVGID_18_" gradientUnits="userSpaceOnUse" x1="15.5168" y1="127.4635" x2="57.5876" y2="127.4635">
	<stop  offset="0" style="stop-color:#0EB3A0"/>
	<stop  offset="0.2261" style="stop-color:#0DB4A3"/>
	<stop  offset="0.4259" style="stop-color:#0CB7AE"/>
	<stop  offset="0.6158" style="stop-color:#09BDC0"/>
	<stop  offset="0.7996" style="stop-color:#05C5DA"/>
	<stop  offset="0.9774" style="stop-color:#01CFFA"/>
	<stop  offset="1" style="stop-color:#00D0FF"/>
</linearGradient>
<polygon class="st27" points="55.1,122.2 15.5,122.2 18.7,132.7 57.6,132.7 "/>
<polygon class="st3" points="339,198.8 326.2,198.8 328.3,204.1 340.8,204.1 "/>
<polygon class="st3" points="462.1,118.6 452.5,118.6 454,122.6 463.4,122.6 "/>
<polygon class="st3" points="464.3,126.7 454.7,126.7 456.3,130.6 465.7,130.6 "/>
<defs>
	<filter id="Adobe_OpacityMaskFilter_12_" filterUnits="userSpaceOnUse" x="13" y="107.4" width="41.2" height="10.6">
		<feFlood  style="flood-color:white;flood-opacity:1" result="back"/>
		<feBlend  in="SourceGraphic" in2="back" mode="normal"/>
	</filter>
</defs>
<mask maskUnits="userSpaceOnUse" x="13" y="107.4" width="41.2" height="10.6" id="SVGID_19_">
	<g class="st28">
		<defs>
			<filter id="Adobe_OpacityMaskFilter_13_" filterUnits="userSpaceOnUse" x="13" y="107.4" width="41.2" height="10.6">
				<feFlood  style="flood-color:white;flood-opacity:1" result="back"/>
				<feBlend  in="SourceGraphic" in2="back" mode="normal"/>
			</filter>
		</defs>
		<mask maskUnits="userSpaceOnUse" x="13" y="107.4" width="41.2" height="10.6" id="SVGID_19_">
			<g class="st29">
			</g>
		</mask>
		<linearGradient id="SVGID_20_" gradientUnits="userSpaceOnUse" x1="12.9634" y1="112.6686" x2="54.1441" y2="112.6686">
			<stop  offset="0" style="stop-color:#000000"/>
			<stop  offset="0.1526" style="stop-color:#040404"/>
			<stop  offset="0.2876" style="stop-color:#0E0E0E"/>
			<stop  offset="0.4159" style="stop-color:#202020"/>
			<stop  offset="0.5402" style="stop-color:#3A3A3A"/>
			<stop  offset="0.6615" style="stop-color:#5B5B5B"/>
			<stop  offset="0.7806" style="stop-color:#838383"/>
			<stop  offset="0.8957" style="stop-color:#B2B2B2"/>
			<stop  offset="1" style="stop-color:#E3E3E3"/>
		</linearGradient>
		<path class="st30" d="M51.7,107.4H13c1,3.7,2,7.3,2.8,10.6h38.3L51.7,107.4z"/>
	</g>
</mask>
<linearGradient id="SVGID_21_" gradientUnits="userSpaceOnUse" x1="12.9634" y1="112.6686" x2="54.1441" y2="112.6686">
	<stop  offset="0" style="stop-color:#0EB3A0"/>
	<stop  offset="0.2261" style="stop-color:#0DB4A3"/>
	<stop  offset="0.4259" style="stop-color:#0CB7AE"/>
	<stop  offset="0.6158" style="stop-color:#09BDC0"/>
	<stop  offset="0.7996" style="stop-color:#05C5DA"/>
	<stop  offset="0.9774" style="stop-color:#01CFFA"/>
	<stop  offset="1" style="stop-color:#00D0FF"/>
</linearGradient>
<path class="st31" d="M51.7,107.4H13c1,3.7,2,7.3,2.8,10.6h38.3L51.7,107.4z"/>
<defs>
	<filter id="Adobe_OpacityMaskFilter_14_" filterUnits="userSpaceOnUse" x="6.8" y="92.1" width="43.8" height="10.6">
		<feFlood  style="flood-color:white;flood-opacity:1" result="back"/>
		<feBlend  in="SourceGraphic" in2="back" mode="normal"/>
	</filter>
</defs>
<mask maskUnits="userSpaceOnUse" x="6.8" y="92.1" width="43.8" height="10.6" id="SVGID_22_">
	<g class="st32">
		<defs>
			<filter id="Adobe_OpacityMaskFilter_15_" filterUnits="userSpaceOnUse" x="6.8" y="92.1" width="43.8" height="10.6">
				<feFlood  style="flood-color:white;flood-opacity:1" result="back"/>
				<feBlend  in="SourceGraphic" in2="back" mode="normal"/>
			</filter>
		</defs>
		<mask maskUnits="userSpaceOnUse" x="6.8" y="92.1" width="43.8" height="10.6" id="SVGID_22_">
			<g class="st33">
			</g>
		</mask>
		<linearGradient id="SVGID_23_" gradientUnits="userSpaceOnUse" x1="6.8211" y1="97.3454" x2="50.5775" y2="97.3454">
			<stop  offset="0" style="stop-color:#000000"/>
			<stop  offset="0.1526" style="stop-color:#040404"/>
			<stop  offset="0.2876" style="stop-color:#0E0E0E"/>
			<stop  offset="0.4159" style="stop-color:#202020"/>
			<stop  offset="0.5402" style="stop-color:#3A3A3A"/>
			<stop  offset="0.6615" style="stop-color:#5B5B5B"/>
			<stop  offset="0.7806" style="stop-color:#838383"/>
			<stop  offset="0.8957" style="stop-color:#B2B2B2"/>
			<stop  offset="1" style="stop-color:#E3E3E3"/>
		</linearGradient>
		<polygon class="st34" points="48.1,92.1 6.8,92.1 10,102.6 50.6,102.6 		"/>
	</g>
</mask>
<linearGradient id="SVGID_24_" gradientUnits="userSpaceOnUse" x1="6.8211" y1="97.3454" x2="50.5775" y2="97.3454">
	<stop  offset="0" style="stop-color:#0EB3A0"/>
	<stop  offset="0.2261" style="stop-color:#0DB4A3"/>
	<stop  offset="0.4259" style="stop-color:#0CB7AE"/>
	<stop  offset="0.6158" style="stop-color:#09BDC0"/>
	<stop  offset="0.7996" style="stop-color:#05C5DA"/>
	<stop  offset="0.9774" style="stop-color:#01CFFA"/>
	<stop  offset="1" style="stop-color:#00D0FF"/>
</linearGradient>
<polygon class="st35" points="48.1,92.1 6.8,92.1 10,102.6 50.6,102.6 "/>
<g>
	<path class="st3" d="M340.8,199.2h-30.6c-0.1,0-0.2,0-0.2-0.1l-6.2-5.2H192.9c-17.7,0-24.2-12.4-25.1-14.3l-79,0.5
		c-20.6-1.1-26.2-18-26.2-18.2l-2.1-7.9c-0.1-0.2,0.1-0.4,0.3-0.4c0.2,0,0.4,0.1,0.4,0.3l2.1,7.9c0,0.2,5.5,16.7,25.6,17.7l79.2-0.5
		h0c0.1,0,0.3,0.1,0.3,0.2c0.1,0.1,6,14,24.5,14h111c0.1,0,0.2,0,0.2,0.1l6.2,5.2h30.5c0.2,0,0.4,0.2,0.4,0.4
		C341.2,199,341,199.2,340.8,199.2z"/>
</g>
<g>
	<path class="st3" d="M154.5,41.7h-23.2c-0.1,0-0.2-0.1-0.3-0.1l-4.1-5.1H81.5c-0.2,0-0.4-0.2-0.4-0.4s0.2-0.4,0.4-0.4H127
		c0.1,0,0.2,0.1,0.3,0.1l4.1,5.1h23.1c0.2,0,0.4,0.2,0.4,0.4C154.8,41.5,154.7,41.7,154.5,41.7z"/>
</g>
<g>
	<path class="st3" d="M282.2,22.5c-0.7,0-1.3,0-1.7,0c-0.1,0-0.1,0-0.1-0.1s0-0.1,0-0.2c0-0.1,0.1-0.3,0.3-0.4
		c0.2-0.1,0.3-0.3,0.4-0.3c0.7-0.5,1.4-0.8,2.2-0.9c1.2-0.2,2.2-0.2,3.2,0.2c0.6,0.2,1,0.6,1.3,1c0.1,0.3,0.2,0.4,0.3,0.5
		c0.1,0.1,0.2,0.1,0.3,0.1c0.1,0,0.5,0,1.4,0c0.1,0,0.2,0,0.3,0c0.1,0,0.1,0,0.1,0s0,0-0.1,0.1c-0.2,0.1-0.5,0.1-0.9,0.3
		c-0.1,0-0.2,0.1-0.4,0.1c-0.2,0-0.3,0.1-0.4,0.1c-0.1,0-0.2,0-0.2,0c-0.1,0-0.1,0.1-0.1,0.1c0,0,0,0.1,0.1,0.1c0,0,0.1,0,0.2,0.1
		c0.1,0.1,0.2,0.1,0.2,0.1c0,0,0.1,0.1,0.1,0.1c0,0,0,0.1-0.1,0.1c-0.1,0.1-0.2,0.1-0.3,0.1c-0.7,0.3-1.2,0.6-1.4,0.6
		c-0.1,0-0.2,0.1-0.4,0.1c-0.1,0-0.2,0-0.3-0.2c-0.1-0.2-0.2-0.3-0.5-0.4c-0.6-0.2-1.2-0.2-2-0.1c-0.1,0-0.2,0.1-0.3,0.2
		c-0.1,0-0.2,0.1-0.2,0.2c-0.2,0.2-0.2,0.4-0.1,0.5c0,0,0.3,0.1,0.6,0.3c0.4,0.2,1.1,0.4,1.9,0.6c0.3,0.1,0.9,0.2,1.7,0.4
		c0.2,0,0.3,0.1,0.4,0.1c0.1,0,0.1,0.1,0.1,0.1c0,0-0.1,0.1-0.2,0.1c-0.3,0.1-0.5,0.2-0.5,0.2c-0.1,0.1-0.2,0.2-0.2,0.2
		c0,0,0,0.1,0.1,0.1c0,0,0.1,0,0.3,0c0.1,0,0.2,0,0.4,0s0.3,0,0.4,0c0.1,0,0.3,0,0.4,0c0.1,0,0.2,0,0.2,0c0,0,0.1,0,0.1,0
		s0,0.1-0.1,0.1c0,0-0.2,0.1-0.3,0.2c-0.1,0-0.2,0-0.3,0.1c-0.1,0-0.2,0.1-0.4,0.1c-0.1,0-0.2,0.1-0.2,0.1c-0.1,0-0.1,0.1,0,0.1
		c0,0,0.1,0,0.2,0.1c0.1,0,0.2,0.1,0.4,0.1c0.1,0,0.2,0.1,0.3,0.1c0.2,0.1,0.2,0.1,0.3,0.2c0,0.1,0,0.2-0.1,0.4
		c-0.5,1.2-1.1,2.2-1.8,3c-0.7,0.9-1.6,1.4-2.6,1.8c-0.5,0.2-0.9,0.3-1.4,0.3c-1.1,0.1-2,0-2.8-0.4c-0.4-0.1-0.7-0.3-1-0.6
		c-0.2-0.3-0.4-0.6-0.6-1c-0.1-0.4,0-0.8,0.3-1.2c0.2-0.2,0.3-0.3,0.4-0.4c0.5-0.3,1.1-0.5,1.9-0.9c0.1-0.1,0.2-0.1,0.3-0.1
		c0.1,0,0.2,0.1,0.3,0.2c0.1,0.4,0.4,0.6,0.8,0.7c0.6,0.2,1.1,0.2,1.6,0.1c0.4-0.1,0.6-0.2,0.8-0.4c0.3-0.3,0.4-0.6,0.1-0.8
		c-0.1-0.1-0.2-0.1-0.3-0.1c-1.5-0.5-2.4-0.8-2.8-0.9c-0.1,0-0.3-0.1-0.6-0.2c-0.3-0.1-0.6-0.1-1.1-0.2c0,0,0,0,0-0.1
		c0,0,0,0,0.1-0.1c0.1,0,0.2-0.1,0.3-0.1c0.3-0.1,0.4-0.2,0.5-0.2c0,0,0-0.1,0-0.1s0-0.1-0.1-0.1c0,0-0.1,0-0.1,0
		c-0.1,0-0.3,0-0.5,0s-0.4,0-0.6,0s-0.3,0-0.3,0c-0.1,0-0.1,0-0.1-0.1s0.1-0.1,0.4-0.3c0,0,0.3-0.1,0.6-0.2c0.1,0,0.2-0.1,0.2-0.1
		c0,0,0,0,0-0.1c0,0-0.1,0-0.1-0.1c-0.2-0.1-0.4-0.1-0.6-0.2c-0.1,0-0.2-0.1-0.2-0.1c-0.1-0.1-0.1-0.2-0.1-0.4
		c0.1-0.3,0.2-0.5,0.4-0.7c0-0.1,0.2-0.3,0.5-0.8c0.1-0.1,0.1-0.2,0.1-0.3s0-0.1-0.1-0.1c-0.1,0-0.1-0.1-0.3-0.1
		c-0.1,0-0.2-0.1-0.2-0.1c-0.1,0-0.1-0.1-0.1-0.1c0-0.1,0.1-0.1,0.2-0.1c0.1,0,0.2,0,0.5-0.1s0.4-0.1,0.6-0.1
		C281.6,22.7,281.9,22.6,282.2,22.5C282.2,22.5,282.2,22.5,282.2,22.5C282.2,22.5,282.2,22.5,282.2,22.5z"/>
	<path class="st3" d="M300.9,22.5c0.1,0,0.1,0,0.1,0c0,0-0.1,0.1-0.2,0.1c-0.4,0.1-1,0.3-1.7,0.4c-0.1,0-0.3,0.1-0.6,0.1
		c-0.1,0-0.1,0-0.1,0.1c0,0,0,0.1,0.1,0.1c0,0,0.1,0,0.2,0.1c0.1,0,0.1,0.1,0.1,0.1c0.1,0.1,0.2,0.1,0.3,0.1c0.1,0.1,0.1,0.2,0,0.3
		c0,0-0.1,0.1-0.2,0.2c-0.2,0.2-0.4,0.4-0.7,0.7c-0.3,0.3-0.6,0.5-0.7,0.7c-0.1,0.1-0.2,0.2-0.2,0.2c-0.1,0.1-0.1,0.2,0,0.3
		c0,0,0.1,0.1,0.2,0.1c0,0,0.1,0,0.1,0.1c0.1,0,0.1,0.1,0.1,0.1c0.1,0,0.1,0.1,0.1,0.1s-0.1,0.1-0.2,0.1c0,0-0.1,0-0.2,0.1
		c-0.1,0-0.2,0-0.2,0.1c-0.4,0.1-0.6,0.1-0.8,0.2c-0.1,0-0.3,0.1-0.5,0.2c-0.1,0-0.1,0.1-0.1,0.1c0,0,0,0,0.1,0c0.1,0,0.6,0,1.3,0
		c0,0,0.1,0,0.1,0c0,0,0.1,0,0.1,0c0,0,0,0-0.1,0.1c-0.1,0.1-0.3,0.1-0.4,0.2c-0.8,0.2-1.2,0.3-1.2,0.4c-0.1,0-0.1,0.1-0.1,0.1
		c0,0,0.1,0.1,0.1,0.1c0,0,0.1,0,0.1,0.1c0.1,0.1,0.2,0.1,0.2,0.2c0.1,0.1,0.1,0.2-0.1,0.3c-0.1,0.1-0.1,0.1-0.2,0.2
		c-0.1,0.1-0.1,0.1-0.1,0.2c0,0-0.1,0.1-0.1,0.3c-0.1,0.1-0.1,0.2-0.1,0.2c-0.5,1-0.9,1.9-1.2,2.8c0,0,0,0.2-0.1,0.5
		c-0.1,0.2-0.2,0.4-0.3,0.5c-0.1,0.1-0.2,0.2-0.3,0.3c-0.1,0.1-0.2,0.1-0.3,0.1c-0.7,0-1.3,0-1.6,0c-0.2,0-0.3-0.1-0.4-0.3
		s-0.1-0.4,0-0.6c0.2-0.6,0.5-1.3,0.8-2.1c0.1-0.3,0.4-0.8,0.8-1.7c0.1-0.3,0.1-0.5,0-0.6c-0.1-0.1-0.4-0.2-0.8-0.4
		c-0.1,0-0.1,0-0.1-0.1c-0.1-0.1-0.1-0.1,0-0.1c0,0,0.2-0.1,0.3-0.1c0.2-0.1,0.3-0.1,0.4-0.2c0.1,0,0.2-0.1,0.3-0.1c0,0,0,0,0-0.1
		c0,0,0-0.1-0.1-0.1c-0.8,0-1.3,0-1.5,0c-0.1,0-0.1,0-0.1,0c0,0,0-0.1,0.1-0.2c0.1-0.1,0.2-0.1,0.3-0.1c0.1,0,0.2-0.1,0.4-0.2
		c0.1,0,0.2-0.1,0.2-0.1c0,0,0.1,0,0.1-0.1c0,0,0-0.1,0-0.1c0,0-0.3-0.1-0.9-0.3c-0.2-0.1-0.3-0.2-0.2-0.5c0-0.2,0-0.4,0-0.7
		c0-0.3,0-0.5,0-0.6c0-0.3,0-0.4-0.2-0.5c-0.1,0-0.2-0.1-0.3-0.1c-0.1,0-0.2-0.1-0.3-0.1c0,0-0.1,0-0.2-0.1c-0.1,0-0.2-0.1-0.2-0.1
		c0,0-0.1,0-0.1-0.1c0,0,0-0.1,0.1-0.1c0,0,0,0,0.1,0c0.1,0,0.1,0,0.2-0.1c0.1,0,0.2,0,0.3-0.1c0.1,0,0.2-0.1,0.3-0.1
		s0.2-0.1,0.2-0.1c0.3-0.1,0.5-0.1,0.7-0.2c0.1,0,0.1,0,0.1-0.1c0,0,0,0-0.1,0c0,0-0.1,0-0.1,0s-0.1,0-0.2,0c-0.6,0-1,0-1.2,0
		c-0.2,0-0.4-0.1-0.6-0.4c-0.1-0.1,0-0.2,0.1-0.4c0.1-0.2,0.3-0.4,0.5-0.6c0.2-0.2,0.4-0.3,0.6-0.3h0c0.4,0,0.6,0,0.8,0
		c0.5,0,0.8,0,0.8,0c0.3,0,0.4,0.1,0.4,0.5c0,0,0,0.1,0,0.2c0,0.1,0,0.2,0,0.2c0,0.3,0.1,0.4,0.2,0.6c0.1,0.1,0.1,0.1,0.2,0.2
		c0,0,0.1,0.1,0.2,0.1s0.2,0,0.3,0c0.1,0,0.3,0,0.4,0c0.2,0,0.3,0,0.5,0c0.1,0,0.3,0,0.4,0c0,0,0,0,0.1,0s0.1,0,0.1,0c0,0,0.1,0,0,0
		c0,0,0,0-0.1,0.1c0,0-0.1,0.1-0.2,0.1c-0.2,0.1-0.7,0.2-1.3,0.4c-0.1,0-0.1,0-0.2,0.1c-0.1,0-0.1,0.1,0,0.1c0,0,0.1,0,0.1,0.1
		c0,0,0.1,0,0.3,0.1c0.1,0,0.2,0.1,0.3,0.1c0.1,0,0.2,0.1,0.4,0.1c0.1,0.1,0.2,0.2,0.2,0.4c0,0.2,0,0.4-0.1,0.8c0,0.1,0,0.1,0,0.1
		c0,0,0,0,0.1-0.1c0.2-0.2,0.5-0.5,1-1c0,0,0.1-0.1,0.1-0.1c0.1-0.1,0.1-0.2,0-0.3c0,0-0.1-0.1-0.2-0.1c0,0-0.1-0.1-0.2-0.1
		s-0.1-0.1-0.2-0.1c0,0-0.1,0-0.1-0.1c-0.1,0-0.1-0.1,0-0.1c0,0,0.1,0,0.2-0.1c0.4-0.1,0.8-0.2,1.2-0.3c0.3-0.1,0.6-0.2,1-0.3
		c0,0,0.1,0,0.1-0.1c0,0,0,0-0.1,0c0,0,0,0-0.1,0c-0.1,0-0.1,0-0.1,0c-0.8,0-1.3,0-1.3,0c-0.1,0-0.2,0-0.2-0.1c0-0.2,0-0.3,0.1-0.4
		c0.4-0.5,0.8-0.9,1.1-1.1c0.1-0.1,0.2-0.1,0.4-0.1c0.5,0,1,0,1.7,0c0.2,0,0.3,0.1,0.4,0.2c0.1,0.2,0,0.4-0.1,0.6c0,0,0,0,0,0.1
		s0,0.1,0,0.1c0,0,0,0.1-0.1,0.1c0,0,0,0.1-0.1,0.1c0,0,0,0.1-0.1,0.1c-0.1,0.2,0,0.3,0.3,0.3c0.2,0,0.4,0,0.8,0
		S300.8,22.5,300.9,22.5z"/>
	<path class="st3" d="M302.5,22.5c-0.7,0-1.3,0-1.7,0c-0.1,0-0.1,0-0.1-0.1s0-0.1,0-0.2c0-0.1,0.1-0.3,0.3-0.4
		c0.2-0.1,0.3-0.3,0.4-0.3c0.7-0.5,1.4-0.8,2.2-0.9c1.2-0.2,2.2-0.2,3.2,0.2c0.6,0.2,1,0.6,1.3,1c0.1,0.3,0.2,0.4,0.3,0.5
		c0.1,0.1,0.2,0.1,0.3,0.1c0.1,0,0.5,0,1.4,0c0.1,0,0.2,0,0.3,0c0.1,0,0.1,0,0.1,0s0,0-0.1,0.1c-0.2,0.1-0.5,0.1-0.9,0.3
		c-0.1,0-0.2,0.1-0.4,0.1c-0.2,0-0.3,0.1-0.4,0.1c-0.1,0-0.2,0-0.2,0c-0.1,0-0.1,0.1-0.1,0.1c0,0,0,0.1,0.1,0.1c0,0,0.1,0,0.2,0.1
		c0.1,0.1,0.2,0.1,0.2,0.1c0,0,0.1,0.1,0.1,0.1c0,0,0,0.1-0.1,0.1c-0.1,0.1-0.2,0.1-0.3,0.1c-0.7,0.3-1.2,0.6-1.4,0.6
		c-0.1,0-0.2,0.1-0.4,0.1c-0.1,0-0.2,0-0.3-0.2c-0.1-0.2-0.2-0.3-0.5-0.4c-0.6-0.2-1.2-0.2-2-0.1c-0.1,0-0.2,0.1-0.3,0.2
		c-0.1,0-0.2,0.1-0.2,0.2c-0.2,0.2-0.2,0.4-0.1,0.5c0,0,0.3,0.1,0.6,0.3c0.4,0.2,1.1,0.4,1.9,0.6c0.3,0.1,0.9,0.2,1.7,0.4
		c0.2,0,0.3,0.1,0.4,0.1c0.1,0,0.1,0.1,0.1,0.1c0,0-0.1,0.1-0.2,0.1c-0.3,0.1-0.5,0.2-0.5,0.2c-0.1,0.1-0.2,0.2-0.2,0.2
		c0,0,0,0.1,0.1,0.1c0,0,0.1,0,0.3,0c0.1,0,0.2,0,0.4,0s0.3,0,0.4,0c0.1,0,0.3,0,0.4,0c0.1,0,0.2,0,0.2,0c0,0,0.1,0,0.1,0
		s0,0.1-0.1,0.1c0,0-0.2,0.1-0.3,0.2c-0.1,0-0.2,0-0.3,0.1c-0.1,0-0.2,0.1-0.4,0.1c-0.1,0-0.2,0.1-0.2,0.1c-0.1,0-0.1,0.1,0,0.1
		c0,0,0.1,0,0.2,0.1c0.1,0,0.2,0.1,0.4,0.1c0.1,0,0.2,0.1,0.3,0.1c0.2,0.1,0.2,0.1,0.3,0.2c0,0.1,0,0.2-0.1,0.4
		c-0.5,1.2-1.1,2.2-1.8,3c-0.7,0.9-1.6,1.4-2.6,1.8c-0.5,0.2-0.9,0.3-1.4,0.3c-1.1,0.1-2,0-2.8-0.4c-0.4-0.1-0.7-0.3-1-0.6
		c-0.2-0.3-0.4-0.6-0.6-1c-0.1-0.4,0-0.8,0.3-1.2c0.2-0.2,0.3-0.3,0.4-0.4c0.5-0.3,1.1-0.5,1.9-0.9c0.1-0.1,0.2-0.1,0.3-0.1
		c0.1,0,0.2,0.1,0.3,0.2c0.1,0.4,0.4,0.6,0.8,0.7c0.6,0.2,1.1,0.2,1.6,0.1c0.4-0.1,0.6-0.2,0.8-0.4c0.3-0.3,0.4-0.6,0.1-0.8
		c-0.1-0.1-0.2-0.1-0.3-0.1c-1.5-0.5-2.4-0.8-2.8-0.9c-0.1,0-0.3-0.1-0.6-0.2c-0.3-0.1-0.6-0.1-1.1-0.2c0,0,0,0,0-0.1
		c0,0,0,0,0.1-0.1c0.1,0,0.2-0.1,0.3-0.1c0.3-0.1,0.4-0.2,0.5-0.2c0,0,0-0.1,0-0.1s0-0.1-0.1-0.1c0,0-0.1,0-0.1,0
		c-0.1,0-0.3,0-0.5,0s-0.4,0-0.6,0s-0.3,0-0.3,0c-0.1,0-0.1,0-0.1-0.1s0.1-0.1,0.4-0.3c0,0,0.3-0.1,0.6-0.2c0.1,0,0.2-0.1,0.2-0.1
		c0,0,0,0,0-0.1c0,0-0.1,0-0.1-0.1c-0.2-0.1-0.4-0.1-0.6-0.2c-0.1,0-0.2-0.1-0.2-0.1c-0.1-0.1-0.1-0.2-0.1-0.4
		c0.1-0.3,0.2-0.5,0.4-0.7c0-0.1,0.2-0.3,0.5-0.8c0.1-0.1,0.1-0.2,0.1-0.3s0-0.1-0.1-0.1c-0.1,0-0.1-0.1-0.3-0.1
		c-0.1,0-0.2-0.1-0.2-0.1c-0.1,0-0.1-0.1-0.1-0.1c0-0.1,0.1-0.1,0.2-0.1c0.1,0,0.2,0,0.5-0.1s0.4-0.1,0.6-0.1
		C301.9,22.7,302.3,22.6,302.5,22.5C302.5,22.5,302.6,22.5,302.5,22.5C302.6,22.5,302.5,22.5,302.5,22.5z"/>
	<path class="st3" d="M311.1,20.8c0.3,0,1.6,0,3.9,0c1.1,0,2.3,0,3.7,0c0.1,0,0.2,0,0.2,0c0.1,0,0.2,0.1,0.3,0.2
		c0.1,0.1,0.1,0.3,0,0.5c0,0-0.1,0.1-0.1,0.3c0,0.1,0,0.3,0,0.4c0,0.1,0,0.2,0.1,0.2c0,0,0.1,0.1,0.2,0.1c0,0,0.5,0,1.5,0
		c0,0,0.1,0,0.2,0c0,0,0,0,0,0c0,0,0,0.1-0.1,0.1c-0.1,0-0.2,0.1-0.4,0.1c-0.1,0-0.2,0-0.5,0.1c-0.3,0.1-0.4,0.1-0.5,0.1
		c-0.2,0.1-0.4,0.1-0.5,0.2c-0.1,0-0.1,0-0.1,0.1c0,0,0,0.1,0.1,0.1c0,0,0.1,0.1,0.4,0.2c0.2,0.1,0.4,0.2,0.4,0.2
		c0.1,0.1,0.1,0.2,0,0.3c-0.3,0.3-0.6,0.5-0.8,0.5c0,0-0.1,0-0.2,0c-0.2,0-0.6,0-1,0s-0.8,0-1.1,0c-0.1,0-0.1,0-0.1,0
		c0,0-0.1,0-0.1,0.1c0,0-0.1,0.1-0.1,0.2c-0.3,0.5-0.5,0.8-0.5,0.8c-0.1,0.2-0.1,0.3,0,0.4c0,0,0.2,0.1,0.5,0.2
		c0.1,0,0.2,0.1,0.2,0.1c0,0,0.1,0.1,0.1,0.1c0,0,0,0.1-0.1,0.1c-0.1,0-0.2,0.1-0.3,0.1c-0.3,0.1-0.5,0.1-0.7,0.2
		c-0.1,0-0.3,0.1-0.4,0.1c-0.1,0.1-0.1,0.1-0.1,0.1c0,0,0,0,0.1,0c0,0,0.3,0,0.7,0s0.7,0,0.7,0c0,0,0.1,0,0.1,0.1c0,0,0,0-0.1,0.1
		c-0.1,0.1-0.3,0.1-0.7,0.3c-0.4,0.1-0.7,0.2-0.7,0.2c-0.1,0-0.1,0-0.1,0.1c0,0,0,0.1,0.1,0.1c0,0,0.1,0.1,0.2,0.1s0.2,0.1,0.2,0.1
		c0.2,0.1,0.3,0.1,0.4,0.2c0.1,0.1,0.1,0.2,0,0.4c0,0.1-0.1,0.3-0.3,0.5c-0.1,0.3-0.3,0.5-0.3,0.6c-0.5,1-0.9,2-1.2,3
		c0,0.2-0.1,0.3-0.3,0.5c-0.2,0.3-0.4,0.4-0.6,0.4c-0.8,0-1.3,0-1.6,0c-0.2,0-0.3-0.1-0.4-0.3s-0.1-0.4,0-0.6c0.2-0.7,0.5-1.3,0.8-2
		c0.2-0.3,0.5-1,1-2c0.1-0.2,0.1-0.3,0.1-0.3c0-0.1-0.1-0.1-0.2-0.2c-0.1,0-0.2-0.1-0.3-0.1c-0.1,0-0.2-0.1-0.3-0.1
		c-0.1-0.1-0.2-0.1-0.2-0.1c0,0,0.1-0.1,0.2-0.1c0.8-0.2,1.3-0.4,1.4-0.4c0,0,0.1,0,0.1-0.1c0,0,0,0,0,0s-0.1,0-0.2,0
		c-0.1,0-0.3,0-0.5,0c-0.2,0-0.5,0-0.9,0c0,0,0,0-0.1,0c0,0,0,0,0.1-0.1c0.1-0.1,0.3-0.1,0.4-0.2c0.2-0.1,0.4-0.2,0.7-0.2
		c0.2-0.1,0.3-0.1,0.4-0.1c0.1,0,0.1-0.1,0.1-0.1c0,0,0-0.1-0.1-0.1c0,0-0.1,0-0.2-0.1c0,0,0,0-0.1-0.1S313,26,313,26
		c-0.1,0-0.2-0.1-0.2-0.1c-0.1,0-0.1-0.1-0.1-0.2c0-0.1,0-0.1,0.1-0.3c0,0,0.2-0.3,0.5-0.8c0-0.1,0.1-0.1,0.1-0.2c0-0.1,0-0.1,0-0.1
		c0,0-0.1,0-0.2,0c-0.2,0-0.5,0-1,0c-0.5,0-0.8,0-1.1,0c-0.1,0-0.2,0-0.2,0c-0.2,0-0.3-0.2-0.3-0.5c0-0.2,0-0.4-0.2-0.4
		c0,0-0.1,0-0.2-0.1c-0.1,0-0.1,0-0.2-0.1c-0.1,0-0.1,0-0.2-0.1c-0.1,0-0.1-0.1-0.2-0.1c0,0,0-0.1,0-0.1c0,0,0.1-0.1,0.3-0.1
		c0.7-0.2,1.1-0.2,1.1-0.3c0.2,0,0.4-0.1,0.7-0.2c0,0,0.1,0,0.1-0.1c0,0,0,0-0.1,0c-0.1,0-0.2,0-0.2,0c-0.1,0-0.2,0-0.4,0
		s-0.2,0-0.4,0s-0.2,0-0.4,0s-0.3,0-0.4,0c-0.2,0-0.2,0-0.3-0.1c-0.1-0.2-0.1-0.4,0-0.6c0.1-0.3,0.3-0.5,0.5-0.7
		C310.6,20.9,310.8,20.8,311.1,20.8z"/>
	<path class="st3" d="M331,22.5c0,0,0,0.1-0.1,0.1c-0.1,0-0.2,0.1-0.4,0.2c-0.2,0.1-0.5,0.1-1,0.3c-0.3,0.1-0.6,0.1-0.6,0.2
		c-0.1,0-0.1,0.1-0.1,0.1c0,0,0,0,0.1,0.1c0.1,0,0.1,0,0.2,0.1c0,0,0.1,0,0.1,0c0,0,0.1,0,0.1,0c0,0,0.1,0,0.1,0
		c0.1,0,0.2,0.1,0.2,0.1c0.2,0.1,0.2,0.2,0,0.3c-0.1,0.1-0.4,0.2-0.7,0.3c0,0-0.1,0-0.2,0c-0.2,0-0.5,0-0.8,0c-0.3,0-0.6,0-1,0
		s-0.6,0-1,0s-0.6,0-0.9,0c-0.2,0-0.5,0-0.6,0c-0.2,0-0.3,0-0.3,0c-0.1,0-0.2,0.1-0.2,0.2c-0.1,0.1-0.1,0.2-0.2,0.4
		c-0.1,0.2-0.2,0.3-0.2,0.4c0,0.1-0.1,0.1,0,0.1c0,0,0,0,0.1,0c0,0,0.1,0,0.2,0c2.7,0,4.2,0,4.4,0c0.1,0,0.2,0,0.2,0
		c0.2,0,0.3,0.1,0.3,0.3c0,0.2,0.1,0.3,0.3,0.4c0.3,0.1,0.5,0.2,0.6,0.2l0,0c0.1,0,0.2,0.1,0.2,0.1c0,0-0.1,0.1-0.3,0.1
		c0,0-0.2,0-0.4,0.1c-0.2,0.1-0.4,0.1-0.5,0.1c-0.1,0-0.3,0.1-0.4,0.1c0,0-0.1,0-0.1,0.1s0,0,0,0c0,0,0.1,0,0.2,0c0.8,0,1.2,0,1.3,0
		c0,0,0.1,0,0.1,0c0,0,0,0-0.1,0.1c-0.1,0-0.2,0.1-0.4,0.1s-0.3,0.1-0.4,0.1c-0.1,0-0.2,0.1-0.3,0.1c-0.1,0-0.1,0.1-0.1,0.1
		c0,0,0,0.1,0.1,0.1c0,0,0.1,0.1,0.2,0.1l0.4,0.2c0.1,0.1,0.1,0.2,0,0.4c-0.3,0.3-0.6,0.5-0.9,0.5c0,0-0.3,0-0.7,0s-0.7,0-0.7,0
		c-0.4,0-1,0-1.7,0s-1.2,0-1.3,0c-0.1,0-0.2,0-0.2,0c0,0-0.1,0-0.1,0.1c-0.1,0.2-0.3,0.5-0.4,0.9c0,0.1,0,0.1,0,0.1c0,0,0.1,0,0.2,0
		c1,0,2.4,0,4.3,0c0.1,0,0.2,0,0.2,0c0.2,0,0.4,0.1,0.4,0.3c0.1,0.2,0,0.4-0.1,0.6c-0.2,0.5-0.3,0.8-0.3,0.8
		c-0.1,0.3-0.2,0.6-0.3,0.9c-0.2,0.6-0.5,0.9-1,0.9c-0.8,0-3.1,0-6.9,0H319c-0.2,0-0.4-0.1-0.5-0.3s-0.1-0.4,0-0.7
		c0.3-0.8,0.6-1.5,0.9-2.3c0-0.1,0.3-0.6,0.8-1.7c0,0,0,0,0,0c0,0,0,0,0-0.1s0,0,0-0.1c0.1-0.2,0.1-0.3,0-0.4
		c-0.1-0.1-0.2-0.1-0.3-0.2c-0.2-0.1-0.3-0.1-0.3-0.1c-0.1,0-0.1-0.1-0.1-0.1c0,0,0.1-0.1,0.1-0.1c0,0,0.1,0,0.3-0.1
		c0.2-0.1,0.3-0.1,0.5-0.2c0.2-0.1,0.3-0.1,0.3-0.1c0,0,0,0,0,0c0,0,0,0,0,0c0,0,0,0-0.1,0c-0.1,0-0.3,0-0.5,0c-0.6,0-0.9,0-0.9,0
		c-0.1,0-0.1,0-0.1,0s0,0,0.1-0.1c0.2-0.1,0.5-0.2,1-0.3c0.1,0,0.2-0.1,0.3-0.1c0,0,0.1-0.1,0.1-0.1c0,0,0,0-0.1-0.1
		c0,0-0.1,0-0.1-0.1c0,0-0.1,0-0.2-0.1s-0.2-0.1-0.2-0.1c-0.1,0-0.2-0.1-0.2-0.1c-0.1-0.1-0.1-0.1,0-0.3c0-0.1,0.1-0.1,0.1-0.2
		c0.1-0.1,0.2-0.3,0.4-0.6s0.3-0.5,0.4-0.6c0,0,0.1-0.1,0.1-0.2c0.1-0.1,0.1-0.2,0-0.3c0,0-0.1-0.1-0.2-0.1c0,0-0.1-0.1-0.4-0.2
		c-0.1,0-0.2-0.1-0.2-0.1c0,0,0,0,0-0.1c0,0,0,0,0.1-0.1c0,0,0.2,0,0.5-0.1c0.4-0.1,0.7-0.2,0.9-0.3c0.5-0.1,0.7-0.2,0.8-0.3
		c0,0,0.1,0,0.1,0c0,0,0-0.1,0-0.1c-0.1,0-0.1,0-0.2,0c-0.8,0-1.2,0-1.4,0c-0.2,0-0.3-0.1-0.4-0.2c0-0.1,0-0.2,0-0.3
		c0.1-0.3,0.3-0.5,0.4-0.7c0.3-0.3,0.6-0.5,0.8-0.5c0.1,0,0.7,0,1.7,0c0.6,0,1.2,0,1.8,0c1.6,0,2.7,0,3.4,0c0.1,0,0.2,0,0.2,0
		c0.2,0,0.3,0.1,0.3,0.2c0.1,0.1,0,0.3,0,0.5c0,0,0,0.1,0,0.1c0,0,0,0.1,0,0.1c0,0,0,0.1,0,0.1c-0.1,0.2-0.1,0.3-0.1,0.4
		c0,0.1,0.1,0.2,0.2,0.2c0,0,0.1,0,0.2,0c0.1,0,0.2,0,0.2,0s0.2,0,0.3,0s0.2,0,0.2,0s0.2,0,0.3,0s0.2,0,0.2,0
		C330.7,22.5,330.7,22.5,331,22.5C330.9,22.5,331,22.5,331,22.5z"/>
	<path class="st3" d="M343.2,22.5c0.1,0,0.2,0,0.5,0c0.2,0,0.4,0,0.6,0s0.3,0,0.5,0c0,0,0,0,0.1,0s0.1,0,0.1,0c0,0,0,0,0,0
		s0,0-0.1,0.1c-0.1,0-0.2,0.1-0.4,0.1c-0.1,0-0.5,0.1-1,0.3c0,0-0.1,0-0.2,0.1c-0.1,0-0.2,0-0.2,0.1c-0.1,0-0.1,0-0.2,0.1
		c-0.1,0-0.1,0.1-0.1,0.1c0,0,0,0,0.1,0.1c0,0,0.1,0,0.3,0.1c0.2,0.1,0.3,0.1,0.4,0.2c0.1,0,0.1,0.1,0.1,0.2c0,0.1,0,0.1-0.1,0.3
		c0,0.1-0.3,0.5-0.7,1.2c0,0.1-0.1,0.1-0.1,0.2c-0.1,0.2-0.1,0.3,0,0.3c0.1,0,0.2,0.1,0.4,0.2c0.1,0,0.2,0.1,0.4,0.1
		c0.1,0,0.1,0.1,0.1,0.1c0,0,0,0.1-0.1,0.1c0,0-0.1,0-0.1,0c0,0-0.1,0-0.1,0c0,0-0.1,0-0.1,0c0,0-0.1,0-0.1,0
		c-0.3,0.1-0.5,0.1-0.6,0.2c-0.2,0.1-0.3,0.1-0.4,0.3c0,0.1,0,0.1,0,0.1c0,0,0.1,0,0.1,0c0.1,0,0.3,0,0.4,0s0.3,0,0.5,0s0.3,0,0.4,0
		c0.1,0,0.1,0,0.1,0c0.1,0,0.1,0,0.1,0c0,0,0,0.1-0.1,0.1c-0.1,0-0.2,0.1-0.3,0.1c-0.1,0-0.2,0.1-0.5,0.1c-0.4,0.1-0.6,0.2-0.6,0.2
		c-0.1,0-0.1,0-0.1,0.1c0,0,0,0.1,0.1,0.1c0,0,0.1,0,0.1,0.1c0,0,0.1,0,0.2,0.1c0.1,0,0.2,0.1,0.2,0.1c0.1,0,0.1,0.1,0.2,0.1
		c0.1,0.1,0.1,0.2,0,0.3c-0.1,0.1-0.1,0.3-0.3,0.5c-0.1,0.2-0.2,0.4-0.3,0.5c-0.6,1.1-1.1,2.2-1.5,3.2c-0.1,0.2-0.2,0.4-0.4,0.6
		c-0.2,0.2-0.4,0.3-0.6,0.3c-0.2,0-0.4,0-0.8,0s-0.6,0-0.8,0c-0.2,0-0.3-0.1-0.4-0.2c-0.1-0.1-0.1-0.3-0.1-0.4c0-0.1,0-0.3,0.1-0.4
		c0.3-0.6,0.5-1.1,0.6-1.4c0.3-0.6,0.7-1.4,1.2-2.4c0.1-0.2,0.1-0.3,0.1-0.3c0-0.1-0.1-0.1-0.2-0.2c0,0-0.2-0.1-0.4-0.2
		c-0.1-0.1-0.2-0.1-0.2-0.1c0,0,0-0.1,0-0.1c0,0,0.1-0.1,0.3-0.2l0.5-0.1c0.1,0,0.2-0.1,0.2-0.1c0,0,0.1,0,0.1-0.1
		c0-0.1,0-0.1-0.1-0.1c0,0-0.1,0-0.4,0.1c-0.3,0.1-0.5,0.2-0.8,0.3c-0.2,0.1-0.4,0.1-0.4,0.1c-0.1,0-0.1,0.1-0.1,0.1
		c0,0,0,0.1,0.1,0.1c0,0,0.1,0,0.2,0.1c0,0,0.1,0,0.1,0.1c0.1,0,0.1,0.1,0.1,0.1c0.1,0,0.1,0.1,0.1,0.1s-0.1,0.1-0.2,0.1
		c0,0-0.1,0.1-0.2,0.1c-0.2,0.1-0.4,0.3-0.7,0.5c-0.3,0.2-0.6,0.4-0.8,0.5c-0.2,0.2-0.5,0.3-0.7,0.4c-0.2,0.2-0.4,0.2-0.6,0.2
		c-0.2,0-0.3-0.1-0.4-0.2c0-0.1-0.1-0.3-0.3-0.6c-0.1-0.3-0.3-0.6-0.3-0.7c-0.1-0.3-0.3-0.4-0.5-0.5c-0.1,0-0.2-0.1-0.4-0.1
		c-0.2,0-0.3-0.1-0.3-0.1c-0.1,0-0.3-0.1-0.3-0.1c0,0,0,0,0-0.1c0,0,0-0.1,0.1-0.1c0,0,0.2-0.1,0.5-0.1c0.1,0,0.3-0.1,0.5-0.2h0
		c0.1,0,0.1-0.1,0.1-0.1c0,0-0.1,0-0.1,0c0,0-0.1,0-0.2,0s-0.1,0-0.2,0c-0.1,0-0.4,0.1-1,0.3c-0.1,0-0.2,0.1-0.3,0.1
		c-0.1,0-0.1,0.1,0,0.1c0,0,0.1,0.1,0.1,0.1c0,0,0.1,0.1,0.2,0.1c0.1,0,0.2,0.1,0.3,0.1c0.1,0.1,0.2,0.1,0.2,0.2s0,0.2-0.2,0.4
		c-0.6,1.1-1.2,2.1-1.5,3c0,0.1-0.1,0.2-0.2,0.4c-0.1,0.2-0.1,0.3-0.2,0.4c-0.1,0.2-0.2,0.4-0.3,0.5c-0.2,0.3-0.5,0.5-0.7,0.5
		c-0.8,0-1.3,0-1.6,0c-0.2,0-0.3-0.1-0.4-0.3c-0.1-0.2-0.1-0.4,0-0.6c0.4-1,0.9-2.2,1.7-3.6c0,0,0-0.1,0.1-0.2
		c0.1-0.1,0.1-0.2,0.1-0.2c0.1-0.1,0.1-0.2,0.1-0.3c0-0.1,0-0.1-0.1-0.2l-0.5-0.2c-0.1,0-0.2-0.1-0.3-0.1c0,0,0,0,0-0.1
		s0-0.1,0.1-0.1l0.9-0.3c0.3-0.1,0.5-0.2,0.6-0.2c0.1,0,0.1,0,0.1-0.1c0,0,0-0.1-0.1-0.1c0,0-0.1,0-0.1,0c-0.7,0-1.1,0-1.2,0
		c0,0,0,0-0.1,0c0,0-0.1,0-0.1,0s-0.1,0-0.1,0c-0.1,0-0.1,0,0-0.1c0,0,0,0,0.1-0.1c0.2-0.1,0.5-0.2,1-0.3c0.2-0.1,0.4-0.1,0.5-0.1
		c0.1,0,0.1,0,0.1-0.1c0,0,0-0.1-0.1-0.1c0,0-0.1,0-0.3-0.1c-0.2-0.1-0.3-0.1-0.4-0.2c-0.1,0-0.1-0.1-0.1-0.1c0-0.1,0-0.1,0.1-0.3
		c0.1-0.1,0.2-0.4,0.4-0.6c0.2-0.3,0.3-0.5,0.4-0.6c0.1-0.2,0.2-0.3,0.2-0.4c0-0.1-0.1-0.1-0.2-0.2c0,0-0.1,0-0.3-0.1c0,0,0,0-0.1,0
		c-0.1,0-0.1,0-0.1-0.1c-0.1,0-0.1-0.1-0.1-0.1c0,0,0.1-0.1,0.2-0.1c0.1,0,0.2-0.1,0.3-0.1c0.1,0,0.2,0,0.2,0c0.5-0.1,0.8-0.2,1-0.3
		c0.3-0.1,0.4-0.1,0.5-0.2c0,0,0,0,0,0c0,0-0.1,0-0.3,0c-0.2,0-0.5,0-0.8,0s-0.6,0-0.6,0c-0.1,0-0.2,0-0.3-0.1
		c-0.1-0.3-0.1-0.5,0.1-0.8c0.3-0.4,0.6-0.7,0.9-0.7c0.2,0,0.3,0,0.4,0.2c0,0.1,0.1,0.1,0.1,0.2c0,0.1,0.1,0.2,0.1,0.3
		c0,0.1,0.1,0.2,0.1,0.2c0.1,0.2,0.2,0.4,0.3,0.5c0.1,0.1,0.2,0.2,0.4,0.2c0.1,0,0.2,0,0.3,0c0.4,0,0.9,0,1.6,0c0.1,0,0.1,0,0.1,0.1
		c0,0-0.1,0.1-0.2,0.1s-0.2,0.1-0.4,0.2c-0.1,0-0.2,0.1-0.3,0.1c-0.1,0-0.3,0.1-0.4,0.1c-0.1,0-0.2,0.1-0.2,0.1c0,0.1,0,0.1,0.1,0.2
		c0.1,0,0.1,0,0.2,0.1s0.1,0,0.2,0.1c0.1,0,0.1,0,0.2,0.1c0.1,0,0.3,0.1,0.4,0.1c0.2,0.1,0.3,0.2,0.4,0.4c0,0.1,0.1,0.3,0.3,0.6
		c0.1,0.3,0.2,0.5,0.3,0.7c0,0.1,0.1,0.2,0.2,0.3c0.1,0.1,0.2,0.1,0.3,0.1c0.1,0,0.2,0,0.4,0.1c0,0,0.1,0,0.1-0.1
		c0-0.1,0-0.1,0.1-0.2c0.1-0.1,0.2-0.1,0.3-0.2c0.2-0.1,0.4-0.3,0.7-0.4c0.3-0.2,0.5-0.3,0.8-0.5c0.3-0.2,0.5-0.3,0.7-0.4
		c0.1-0.1,0.2-0.2,0.3-0.2c0.1-0.1,0.1-0.2,0.1-0.3c0,0-0.1,0-0.1-0.1c0,0,0,0,0,0c0,0,0,0-0.1,0c0,0,0,0,0,0c0,0-0.1-0.1-0.1-0.1
		c0,0,0-0.1,0.1-0.1c0.1,0,0.2,0,0.3-0.1c0.5-0.1,0.9-0.2,1.3-0.3c0.5-0.1,0.8-0.2,1.1-0.3c0.1,0,0.1,0,0.1-0.1s0,0-0.1,0
		c-0.2,0-0.4,0-0.8,0c-0.3,0-0.5,0-0.6,0c-0.1,0-0.2,0-0.3,0c-0.1,0-0.1-0.1,0-0.2c0-0.1,0.1-0.2,0.2-0.3c0.1-0.1,0.2-0.2,0.3-0.2
		c0,0,0.5-0.3,1.2-0.8c0.2-0.1,0.4-0.2,0.5-0.2c0.1,0,0.2,0.1,0.3,0.2c0.1,0.1,0.1,0.3,0,0.5c0,0.1,0,0.2-0.1,0.3
		c-0.1,0.2-0.1,0.4,0,0.5C342.9,22.4,343,22.5,343.2,22.5z"/>
	<path class="st3" d="M362.8,22.5c0.1,0,0.2,0,0.5,0c0.2,0,0.4,0,0.6,0s0.3,0,0.5,0c0,0,0,0,0.1,0s0.1,0,0.1,0c0,0,0,0,0,0
		s0,0-0.1,0.1c-0.1,0-0.2,0.1-0.4,0.1c-0.1,0-0.5,0.1-1,0.3c0,0-0.1,0-0.2,0.1c-0.1,0-0.2,0-0.2,0.1c-0.1,0-0.1,0-0.2,0.1
		c-0.1,0-0.1,0.1-0.1,0.1c0,0,0,0,0.1,0.1c0,0,0.1,0,0.3,0.1c0.2,0.1,0.3,0.1,0.4,0.2c0.1,0,0.1,0.1,0.1,0.2c0,0.1,0,0.1-0.1,0.3
		c0,0.1-0.3,0.5-0.7,1.2c0,0.1-0.1,0.1-0.1,0.2c-0.1,0.2-0.1,0.3,0,0.3c0.1,0,0.2,0.1,0.4,0.2c0.1,0,0.2,0.1,0.4,0.1
		c0.1,0,0.1,0.1,0.1,0.1c0,0,0,0.1-0.1,0.1c0,0-0.1,0-0.1,0c0,0-0.1,0-0.1,0c0,0-0.1,0-0.1,0c0,0-0.1,0-0.1,0
		c-0.3,0.1-0.5,0.1-0.6,0.2c-0.2,0.1-0.3,0.1-0.4,0.3c0,0.1,0,0.1,0,0.1c0,0,0.1,0,0.1,0c0.1,0,0.3,0,0.4,0s0.3,0,0.5,0s0.3,0,0.4,0
		c0.1,0,0.1,0,0.1,0c0.1,0,0.1,0,0.1,0c0,0,0,0.1-0.1,0.1c-0.1,0-0.2,0.1-0.3,0.1c-0.1,0-0.2,0.1-0.5,0.1c-0.4,0.1-0.6,0.2-0.6,0.2
		c-0.1,0-0.1,0-0.1,0.1c0,0,0,0.1,0.1,0.1c0,0,0.1,0,0.1,0.1c0,0,0.1,0,0.2,0.1c0.1,0,0.2,0.1,0.2,0.1c0.1,0,0.1,0.1,0.2,0.1
		c0.1,0.1,0.1,0.2,0,0.3c-0.1,0.1-0.1,0.3-0.3,0.5c-0.1,0.2-0.2,0.4-0.3,0.5c-0.6,1.1-1.1,2.2-1.5,3.2c-0.1,0.2-0.2,0.4-0.4,0.6
		c-0.2,0.2-0.4,0.3-0.6,0.3c-0.2,0-0.4,0-0.8,0s-0.6,0-0.8,0c-0.2,0-0.3-0.1-0.4-0.2c-0.1-0.1-0.1-0.3-0.1-0.4c0-0.1,0-0.3,0.1-0.4
		c0.3-0.6,0.5-1.1,0.6-1.4c0.3-0.6,0.7-1.4,1.2-2.4c0.1-0.2,0.1-0.3,0.1-0.3c0-0.1-0.1-0.1-0.2-0.2c0,0-0.2-0.1-0.4-0.2
		c-0.1-0.1-0.2-0.1-0.2-0.1c0,0,0-0.1,0-0.1c0,0,0.1-0.1,0.3-0.2l0.5-0.1c0.1,0,0.2-0.1,0.2-0.1c0,0,0.1,0,0.1-0.1
		c0-0.1,0-0.1-0.1-0.1c0,0-0.1,0-0.4,0.1c-0.3,0.1-0.5,0.2-0.8,0.3c-0.2,0.1-0.4,0.1-0.4,0.1c-0.1,0-0.1,0.1-0.1,0.1
		c0,0,0,0.1,0.1,0.1c0,0,0.1,0,0.2,0.1c0,0,0.1,0,0.1,0.1c0.1,0,0.1,0.1,0.1,0.1c0.1,0,0.1,0.1,0.1,0.1s-0.1,0.1-0.2,0.1
		c0,0-0.1,0.1-0.2,0.1c-0.2,0.1-0.4,0.3-0.7,0.5c-0.3,0.2-0.6,0.4-0.8,0.5c-0.2,0.2-0.5,0.3-0.7,0.4c-0.2,0.2-0.4,0.2-0.6,0.2
		c-0.2,0-0.3-0.1-0.4-0.2c0-0.1-0.1-0.3-0.3-0.6c-0.1-0.3-0.3-0.6-0.3-0.7c-0.1-0.3-0.3-0.4-0.5-0.5c-0.1,0-0.2-0.1-0.4-0.1
		c-0.2,0-0.3-0.1-0.3-0.1c-0.1,0-0.3-0.1-0.3-0.1c0,0,0,0,0-0.1c0,0,0-0.1,0.1-0.1c0,0,0.2-0.1,0.5-0.1c0.1,0,0.3-0.1,0.5-0.2h0
		c0.1,0,0.1-0.1,0.1-0.1c0,0-0.1,0-0.1,0c0,0-0.1,0-0.2,0s-0.1,0-0.2,0c-0.1,0-0.4,0.1-1,0.3c-0.1,0-0.2,0.1-0.3,0.1
		c-0.1,0-0.1,0.1,0,0.1c0,0,0.1,0.1,0.1,0.1c0,0,0.1,0.1,0.2,0.1c0.1,0,0.2,0.1,0.3,0.1c0.1,0.1,0.2,0.1,0.2,0.2s0,0.2-0.2,0.4
		c-0.6,1.1-1.2,2.1-1.5,3c0,0.1-0.1,0.2-0.2,0.4c-0.1,0.2-0.1,0.3-0.2,0.4c-0.1,0.2-0.2,0.4-0.3,0.5c-0.2,0.3-0.5,0.5-0.7,0.5
		c-0.8,0-1.3,0-1.6,0c-0.2,0-0.3-0.1-0.4-0.3c-0.1-0.2-0.1-0.4,0-0.6c0.4-1,0.9-2.2,1.7-3.6c0,0,0-0.1,0.1-0.2
		c0.1-0.1,0.1-0.2,0.1-0.2c0.1-0.1,0.1-0.2,0.1-0.3c0-0.1,0-0.1-0.1-0.2l-0.5-0.2c-0.1,0-0.2-0.1-0.3-0.1c0,0,0,0,0-0.1
		s0-0.1,0.1-0.1l0.9-0.3c0.3-0.1,0.5-0.2,0.6-0.2c0.1,0,0.1,0,0.1-0.1c0,0,0-0.1-0.1-0.1c0,0-0.1,0-0.1,0c-0.7,0-1.1,0-1.2,0
		c0,0,0,0-0.1,0c0,0-0.1,0-0.1,0s-0.1,0-0.1,0c-0.1,0-0.1,0,0-0.1c0,0,0,0,0.1-0.1c0.2-0.1,0.5-0.2,1-0.3c0.2-0.1,0.4-0.1,0.5-0.1
		c0.1,0,0.1,0,0.1-0.1c0,0,0-0.1-0.1-0.1c0,0-0.1,0-0.3-0.1c-0.2-0.1-0.3-0.1-0.4-0.2c-0.1,0-0.1-0.1-0.1-0.1c0-0.1,0-0.1,0.1-0.3
		c0.1-0.1,0.2-0.4,0.4-0.6c0.2-0.3,0.3-0.5,0.4-0.6c0.1-0.2,0.2-0.3,0.2-0.4c0-0.1-0.1-0.1-0.2-0.2c0,0-0.1,0-0.3-0.1c0,0,0,0-0.1,0
		c-0.1,0-0.1,0-0.1-0.1c-0.1,0-0.1-0.1-0.1-0.1c0,0,0.1-0.1,0.2-0.1c0.1,0,0.2-0.1,0.3-0.1c0.1,0,0.2,0,0.2,0c0.5-0.1,0.8-0.2,1-0.3
		c0.3-0.1,0.4-0.1,0.5-0.2c0,0,0,0,0,0c0,0-0.1,0-0.3,0c-0.2,0-0.5,0-0.8,0s-0.6,0-0.6,0c-0.1,0-0.2,0-0.3-0.1
		c-0.1-0.3-0.1-0.5,0.1-0.8c0.3-0.4,0.6-0.7,0.9-0.7c0.2,0,0.3,0,0.4,0.2c0,0.1,0.1,0.1,0.1,0.2c0,0.1,0.1,0.2,0.1,0.3
		c0,0.1,0.1,0.2,0.1,0.2c0.1,0.2,0.2,0.4,0.3,0.5c0.1,0.1,0.2,0.2,0.4,0.2c0.1,0,0.2,0,0.3,0c0.4,0,0.9,0,1.6,0c0.1,0,0.1,0,0.1,0.1
		c0,0-0.1,0.1-0.2,0.1s-0.2,0.1-0.4,0.2c-0.1,0-0.2,0.1-0.3,0.1c-0.1,0-0.3,0.1-0.4,0.1c-0.1,0-0.2,0.1-0.2,0.1c0,0.1,0,0.1,0.1,0.2
		c0.1,0,0.1,0,0.2,0.1s0.1,0,0.2,0.1c0.1,0,0.1,0,0.2,0.1c0.1,0,0.3,0.1,0.4,0.1c0.2,0.1,0.3,0.2,0.4,0.4c0,0.1,0.1,0.3,0.3,0.6
		c0.1,0.3,0.2,0.5,0.3,0.7c0,0.1,0.1,0.2,0.2,0.3c0.1,0.1,0.2,0.1,0.3,0.1c0.1,0,0.2,0,0.4,0.1c0,0,0.1,0,0.1-0.1
		c0-0.1,0-0.1,0.1-0.2c0.1-0.1,0.2-0.1,0.3-0.2c0.2-0.1,0.4-0.3,0.7-0.4c0.3-0.2,0.5-0.3,0.8-0.5c0.3-0.2,0.5-0.3,0.7-0.4
		c0.1-0.1,0.2-0.2,0.3-0.2c0.1-0.1,0.1-0.2,0.1-0.3c0,0-0.1,0-0.1-0.1c0,0,0,0,0,0c0,0,0,0-0.1,0c0,0,0,0,0,0c0,0-0.1-0.1-0.1-0.1
		c0,0,0-0.1,0.1-0.1c0.1,0,0.2,0,0.3-0.1c0.5-0.1,0.9-0.2,1.3-0.3c0.5-0.1,0.8-0.2,1.1-0.3c0.1,0,0.1,0,0.1-0.1s0,0-0.1,0
		c-0.2,0-0.4,0-0.8,0c-0.3,0-0.5,0-0.6,0c-0.1,0-0.2,0-0.3,0c-0.1,0-0.1-0.1,0-0.2c0-0.1,0.1-0.2,0.2-0.3c0.1-0.1,0.2-0.2,0.3-0.2
		c0,0,0.5-0.3,1.2-0.8c0.2-0.1,0.4-0.2,0.5-0.2c0.1,0,0.2,0.1,0.3,0.2c0.1,0.1,0.1,0.3,0,0.5c0,0.1,0,0.2-0.1,0.3
		c-0.1,0.2-0.1,0.4,0,0.5C362.6,22.4,362.7,22.5,362.8,22.5z"/>
	<path class="st3" d="M374.7,22.5c0,0,0,0.1-0.1,0.1c-0.1,0-0.2,0.1-0.4,0.2c-0.2,0.1-0.5,0.1-1,0.3c-0.3,0.1-0.6,0.1-0.6,0.2
		c-0.1,0-0.1,0.1-0.1,0.1c0,0,0,0,0.1,0.1c0.1,0,0.1,0,0.2,0.1c0,0,0.1,0,0.1,0c0,0,0.1,0,0.1,0c0,0,0.1,0,0.1,0
		c0.1,0,0.2,0.1,0.2,0.1c0.2,0.1,0.2,0.2,0,0.3c-0.1,0.1-0.4,0.2-0.7,0.3c0,0-0.1,0-0.2,0c-0.2,0-0.5,0-0.8,0c-0.3,0-0.6,0-1,0
		s-0.6,0-1,0s-0.6,0-0.9,0c-0.2,0-0.5,0-0.6,0c-0.2,0-0.3,0-0.3,0c-0.1,0-0.2,0.1-0.2,0.2c-0.1,0.1-0.1,0.2-0.2,0.4
		c-0.1,0.2-0.2,0.3-0.2,0.4c0,0.1-0.1,0.1,0,0.1c0,0,0,0,0.1,0c0,0,0.1,0,0.2,0c2.7,0,4.2,0,4.4,0c0.1,0,0.2,0,0.2,0
		c0.2,0,0.3,0.1,0.3,0.3c0,0.2,0.1,0.3,0.3,0.4c0.3,0.1,0.5,0.2,0.6,0.2l0,0c0.1,0,0.2,0.1,0.2,0.1c0,0-0.1,0.1-0.3,0.1
		c0,0-0.2,0-0.4,0.1c-0.2,0.1-0.4,0.1-0.5,0.1c-0.1,0-0.3,0.1-0.4,0.1c0,0-0.1,0-0.1,0.1s0,0,0,0c0,0,0.1,0,0.2,0c0.8,0,1.2,0,1.3,0
		c0,0,0.1,0,0.1,0c0,0,0,0-0.1,0.1c-0.1,0-0.2,0.1-0.4,0.1s-0.3,0.1-0.4,0.1c-0.1,0-0.2,0.1-0.3,0.1c-0.1,0-0.1,0.1-0.1,0.1
		c0,0,0,0.1,0.1,0.1c0,0,0.1,0.1,0.2,0.1l0.4,0.2c0.1,0.1,0.1,0.2,0,0.4c-0.3,0.3-0.6,0.5-0.9,0.5c0,0-0.3,0-0.7,0s-0.7,0-0.7,0
		c-0.4,0-1,0-1.7,0s-1.2,0-1.3,0c-0.1,0-0.2,0-0.2,0c0,0-0.1,0-0.1,0.1c-0.1,0.2-0.3,0.5-0.4,0.9c0,0.1,0,0.1,0,0.1c0,0,0.1,0,0.2,0
		c1,0,2.4,0,4.3,0c0.1,0,0.2,0,0.2,0c0.2,0,0.4,0.1,0.4,0.3c0.1,0.2,0,0.4-0.1,0.6c-0.2,0.5-0.3,0.8-0.3,0.8
		c-0.1,0.3-0.2,0.6-0.3,0.9c-0.2,0.6-0.5,0.9-1,0.9c-0.8,0-3.1,0-6.9,0h-0.1c-0.2,0-0.4-0.1-0.5-0.3s-0.1-0.4,0-0.7
		c0.3-0.8,0.6-1.5,0.9-2.3c0-0.1,0.3-0.6,0.8-1.7c0,0,0,0,0,0c0,0,0,0,0-0.1s0,0,0-0.1c0.1-0.2,0.1-0.3,0-0.4
		c-0.1-0.1-0.2-0.1-0.3-0.2c-0.2-0.1-0.3-0.1-0.3-0.1c-0.1,0-0.1-0.1-0.1-0.1c0,0,0.1-0.1,0.1-0.1c0,0,0.1,0,0.3-0.1
		c0.2-0.1,0.3-0.1,0.5-0.2c0.2-0.1,0.3-0.1,0.3-0.1c0,0,0,0,0,0c0,0,0,0,0,0c0,0,0,0-0.1,0c-0.1,0-0.3,0-0.5,0c-0.6,0-0.9,0-0.9,0
		c-0.1,0-0.1,0-0.1,0s0,0,0.1-0.1c0.2-0.1,0.5-0.2,1-0.3c0.1,0,0.2-0.1,0.3-0.1c0,0,0.1-0.1,0.1-0.1c0,0,0,0-0.1-0.1
		c0,0-0.1,0-0.1-0.1c0,0-0.1,0-0.2-0.1S364.1,26,364,26c-0.1,0-0.2-0.1-0.2-0.1c-0.1-0.1-0.1-0.1,0-0.3c0-0.1,0.1-0.1,0.1-0.2
		c0.1-0.1,0.2-0.3,0.4-0.6s0.3-0.5,0.4-0.6c0,0,0.1-0.1,0.1-0.2c0.1-0.1,0.1-0.2,0-0.3c0,0-0.1-0.1-0.2-0.1c0,0-0.1-0.1-0.4-0.2
		c-0.1,0-0.2-0.1-0.2-0.1c0,0,0,0,0-0.1c0,0,0,0,0.1-0.1c0,0,0.2,0,0.5-0.1c0.4-0.1,0.7-0.2,0.9-0.3c0.5-0.1,0.7-0.2,0.8-0.3
		c0,0,0.1,0,0.1,0c0,0,0-0.1,0-0.1c-0.1,0-0.1,0-0.2,0c-0.8,0-1.2,0-1.4,0c-0.2,0-0.3-0.1-0.4-0.2c0-0.1,0-0.2,0-0.3
		c0.1-0.3,0.3-0.5,0.4-0.7c0.3-0.3,0.6-0.5,0.8-0.5c0.1,0,0.7,0,1.7,0c0.6,0,1.2,0,1.8,0c1.6,0,2.7,0,3.4,0c0.1,0,0.2,0,0.2,0
		c0.2,0,0.3,0.1,0.3,0.2c0.1,0.1,0,0.3,0,0.5c0,0,0,0.1,0,0.1c0,0,0,0.1,0,0.1c0,0,0,0.1,0,0.1c-0.1,0.2-0.1,0.3-0.1,0.4
		c0,0.1,0.1,0.2,0.2,0.2c0,0,0.1,0,0.2,0c0.1,0,0.2,0,0.2,0s0.2,0,0.3,0s0.2,0,0.2,0s0.2,0,0.3,0s0.2,0,0.2,0
		C374.4,22.5,374.5,22.5,374.7,22.5C374.6,22.5,374.7,22.5,374.7,22.5z"/>
	<path class="st3" d="M376.5,22.5c-0.7,0-1.3,0-1.7,0c-0.1,0-0.1,0-0.1-0.1s0-0.1,0-0.2c0-0.1,0.1-0.3,0.3-0.4
		c0.2-0.1,0.3-0.3,0.4-0.3c0.7-0.5,1.4-0.8,2.2-0.9c1.2-0.2,2.2-0.2,3.2,0.2c0.6,0.2,1,0.6,1.3,1c0.1,0.3,0.2,0.4,0.3,0.5
		c0.1,0.1,0.2,0.1,0.3,0.1c0.1,0,0.5,0,1.4,0c0.1,0,0.2,0,0.3,0c0.1,0,0.1,0,0.1,0s0,0-0.1,0.1c-0.2,0.1-0.5,0.1-0.9,0.3
		c-0.1,0-0.2,0.1-0.4,0.1c-0.2,0-0.3,0.1-0.4,0.1c-0.1,0-0.2,0-0.2,0c-0.1,0-0.1,0.1-0.1,0.1c0,0,0,0.1,0.1,0.1c0,0,0.1,0,0.2,0.1
		c0.1,0.1,0.2,0.1,0.2,0.1c0,0,0.1,0.1,0.1,0.1c0,0,0,0.1-0.1,0.1c-0.1,0.1-0.2,0.1-0.3,0.1c-0.7,0.3-1.2,0.6-1.4,0.6
		c-0.1,0-0.2,0.1-0.4,0.1c-0.1,0-0.2,0-0.3-0.2c-0.1-0.2-0.2-0.3-0.5-0.4c-0.6-0.2-1.2-0.2-2-0.1c-0.1,0-0.2,0.1-0.3,0.2
		c-0.1,0-0.2,0.1-0.2,0.2c-0.2,0.2-0.2,0.4-0.1,0.5c0,0,0.3,0.1,0.6,0.3c0.4,0.2,1.1,0.4,1.9,0.6c0.3,0.1,0.9,0.2,1.7,0.4
		c0.2,0,0.3,0.1,0.4,0.1c0.1,0,0.1,0.1,0.1,0.1c0,0-0.1,0.1-0.2,0.1c-0.3,0.1-0.5,0.2-0.5,0.2c-0.1,0.1-0.2,0.2-0.2,0.2
		c0,0,0,0.1,0.1,0.1c0,0,0.1,0,0.3,0c0.1,0,0.2,0,0.4,0s0.3,0,0.4,0c0.1,0,0.3,0,0.4,0c0.1,0,0.2,0,0.2,0c0,0,0.1,0,0.1,0
		s0,0.1-0.1,0.1c0,0-0.2,0.1-0.3,0.2c-0.1,0-0.2,0-0.3,0.1c-0.1,0-0.2,0.1-0.4,0.1c-0.1,0-0.2,0.1-0.2,0.1c-0.1,0-0.1,0.1,0,0.1
		c0,0,0.1,0,0.2,0.1c0.1,0,0.2,0.1,0.4,0.1c0.1,0,0.2,0.1,0.3,0.1c0.2,0.1,0.2,0.1,0.3,0.2c0,0.1,0,0.2-0.1,0.4
		c-0.5,1.2-1.1,2.2-1.8,3c-0.7,0.9-1.6,1.4-2.6,1.8c-0.5,0.2-0.9,0.3-1.4,0.3c-1.1,0.1-2,0-2.8-0.4c-0.4-0.1-0.7-0.3-1-0.6
		c-0.2-0.3-0.4-0.6-0.6-1c-0.1-0.4,0-0.8,0.3-1.2c0.2-0.2,0.3-0.3,0.4-0.4c0.5-0.3,1.1-0.5,1.9-0.9c0.1-0.1,0.2-0.1,0.3-0.1
		c0.1,0,0.2,0.1,0.3,0.2c0.1,0.4,0.4,0.6,0.8,0.7c0.6,0.2,1.1,0.2,1.6,0.1c0.4-0.1,0.6-0.2,0.8-0.4c0.3-0.3,0.4-0.6,0.1-0.8
		c-0.1-0.1-0.2-0.1-0.3-0.1c-1.5-0.5-2.4-0.8-2.8-0.9c-0.1,0-0.3-0.1-0.6-0.2c-0.3-0.1-0.6-0.1-1.1-0.2c0,0,0,0,0-0.1
		c0,0,0,0,0.1-0.1c0.1,0,0.2-0.1,0.3-0.1c0.3-0.1,0.4-0.2,0.5-0.2c0,0,0-0.1,0-0.1s0-0.1-0.1-0.1c0,0-0.1,0-0.1,0
		c-0.1,0-0.3,0-0.5,0s-0.4,0-0.6,0s-0.3,0-0.3,0c-0.1,0-0.1,0-0.1-0.1s0.1-0.1,0.4-0.3c0,0,0.3-0.1,0.6-0.2c0.1,0,0.2-0.1,0.2-0.1
		c0,0,0,0,0-0.1c0,0-0.1,0-0.1-0.1c-0.2-0.1-0.4-0.1-0.6-0.2c-0.1,0-0.2-0.1-0.2-0.1c-0.1-0.1-0.1-0.2-0.1-0.4
		c0.1-0.3,0.2-0.5,0.4-0.7c0-0.1,0.2-0.3,0.5-0.8c0.1-0.1,0.1-0.2,0.1-0.3s0-0.1-0.1-0.1c-0.1,0-0.1-0.1-0.3-0.1
		c-0.1,0-0.2-0.1-0.2-0.1c-0.1,0-0.1-0.1-0.1-0.1c0-0.1,0.1-0.1,0.2-0.1c0.1,0,0.2,0,0.5-0.1s0.4-0.1,0.6-0.1
		C376,22.7,376.3,22.6,376.5,22.5C376.6,22.5,376.6,22.5,376.5,22.5C376.6,22.5,376.6,22.5,376.5,22.5z"/>
	<path class="st3" d="M386.6,22.5c-0.7,0-1.3,0-1.7,0c-0.1,0-0.1,0-0.1-0.1s0-0.1,0-0.2c0-0.1,0.1-0.3,0.3-0.4
		c0.2-0.1,0.3-0.3,0.4-0.3c0.7-0.5,1.4-0.8,2.2-0.9c1.2-0.2,2.2-0.2,3.2,0.2c0.6,0.2,1,0.6,1.3,1c0.1,0.3,0.2,0.4,0.3,0.5
		c0.1,0.1,0.2,0.1,0.3,0.1c0.1,0,0.5,0,1.4,0c0.1,0,0.2,0,0.3,0c0.1,0,0.1,0,0.1,0s0,0-0.1,0.1c-0.2,0.1-0.5,0.1-0.9,0.3
		c-0.1,0-0.2,0.1-0.4,0.1c-0.2,0-0.3,0.1-0.4,0.1c-0.1,0-0.2,0-0.2,0c-0.1,0-0.1,0.1-0.1,0.1c0,0,0,0.1,0.1,0.1c0,0,0.1,0,0.2,0.1
		c0.1,0.1,0.2,0.1,0.2,0.1c0,0,0.1,0.1,0.1,0.1c0,0,0,0.1-0.1,0.1c-0.1,0.1-0.2,0.1-0.3,0.1c-0.7,0.3-1.2,0.6-1.4,0.6
		c-0.1,0-0.2,0.1-0.4,0.1c-0.1,0-0.2,0-0.3-0.2c-0.1-0.2-0.2-0.3-0.5-0.4c-0.6-0.2-1.2-0.2-2-0.1c-0.1,0-0.2,0.1-0.3,0.2
		c-0.1,0-0.2,0.1-0.2,0.2c-0.2,0.2-0.2,0.4-0.1,0.5c0,0,0.3,0.1,0.6,0.3c0.4,0.2,1.1,0.4,1.9,0.6c0.3,0.1,0.9,0.2,1.7,0.4
		c0.2,0,0.3,0.1,0.4,0.1c0.1,0,0.1,0.1,0.1,0.1c0,0-0.1,0.1-0.2,0.1c-0.3,0.1-0.5,0.2-0.5,0.2c-0.1,0.1-0.2,0.2-0.2,0.2
		c0,0,0,0.1,0.1,0.1c0,0,0.1,0,0.3,0c0.1,0,0.2,0,0.4,0s0.3,0,0.4,0c0.1,0,0.3,0,0.4,0c0.1,0,0.2,0,0.2,0c0,0,0.1,0,0.1,0
		s0,0.1-0.1,0.1c0,0-0.2,0.1-0.3,0.2c-0.1,0-0.2,0-0.3,0.1c-0.1,0-0.2,0.1-0.4,0.1c-0.1,0-0.2,0.1-0.2,0.1c-0.1,0-0.1,0.1,0,0.1
		c0,0,0.1,0,0.2,0.1c0.1,0,0.2,0.1,0.4,0.1c0.1,0,0.2,0.1,0.3,0.1c0.2,0.1,0.2,0.1,0.3,0.2c0,0.1,0,0.2-0.1,0.4
		c-0.5,1.2-1.1,2.2-1.8,3c-0.7,0.9-1.6,1.4-2.6,1.8c-0.5,0.2-0.9,0.3-1.4,0.3c-1.1,0.1-2,0-2.8-0.4c-0.4-0.1-0.7-0.3-1-0.6
		c-0.2-0.3-0.4-0.6-0.6-1c-0.1-0.4,0-0.8,0.3-1.2c0.2-0.2,0.3-0.3,0.4-0.4c0.5-0.3,1.1-0.5,1.9-0.9c0.1-0.1,0.2-0.1,0.3-0.1
		c0.1,0,0.2,0.1,0.3,0.2c0.1,0.4,0.4,0.6,0.8,0.7c0.6,0.2,1.1,0.2,1.6,0.1c0.4-0.1,0.6-0.2,0.8-0.4c0.3-0.3,0.4-0.6,0.1-0.8
		c-0.1-0.1-0.2-0.1-0.3-0.1c-1.5-0.5-2.4-0.8-2.8-0.9c-0.1,0-0.3-0.1-0.6-0.2c-0.3-0.1-0.6-0.1-1.1-0.2c0,0,0,0,0-0.1
		c0,0,0,0,0.1-0.1c0.1,0,0.2-0.1,0.3-0.1c0.3-0.1,0.4-0.2,0.5-0.2c0,0,0-0.1,0-0.1s0-0.1-0.1-0.1c0,0-0.1,0-0.1,0
		c-0.1,0-0.3,0-0.5,0s-0.4,0-0.6,0s-0.3,0-0.3,0c-0.1,0-0.1,0-0.1-0.1s0.1-0.1,0.4-0.3c0,0,0.3-0.1,0.6-0.2c0.1,0,0.2-0.1,0.2-0.1
		c0,0,0,0,0-0.1c0,0-0.1,0-0.1-0.1c-0.2-0.1-0.4-0.1-0.6-0.2c-0.1,0-0.2-0.1-0.2-0.1c-0.1-0.1-0.1-0.2-0.1-0.4
		c0.1-0.3,0.2-0.5,0.4-0.7c0-0.1,0.2-0.3,0.5-0.8c0.1-0.1,0.1-0.2,0.1-0.3s0-0.1-0.1-0.1c-0.1,0-0.1-0.1-0.3-0.1
		c-0.1,0-0.2-0.1-0.2-0.1c-0.1,0-0.1-0.1-0.1-0.1c0-0.1,0.1-0.1,0.2-0.1c0.1,0,0.2,0,0.5-0.1s0.4-0.1,0.6-0.1
		C386.1,22.7,386.4,22.6,386.6,22.5C386.7,22.5,386.7,22.5,386.6,22.5C386.7,22.5,386.7,22.5,386.6,22.5z"/>
	<path class="st3" d="M400.3,33.3c-0.1,0-0.1,0-0.2,0c-0.1,0-0.2,0-0.3,0s-0.2,0-0.2,0c-0.3,0-0.5-0.2-0.5-0.6c0-0.1,0-0.2,0-0.3
		c0-0.2,0-0.3,0-0.3c0,0,0-0.1,0-0.1c0-0.1,0-0.1,0-0.1c0,0-0.1,0-0.2,0c-0.2,0-1,0-2.4,0c-0.6,0-1,0-1.1,0c-0.1,0-0.2,0.1-0.3,0.2
		c-0.1,0.1-0.1,0.2-0.2,0.4c-0.1,0.2-0.2,0.3-0.2,0.4c-0.2,0.4-0.5,0.6-0.8,0.5c-0.2,0-0.4,0-0.7,0c-0.3,0-0.6,0-0.7,0
		c-0.2,0-0.3-0.1-0.4-0.2c-0.1-0.1-0.1-0.3-0.1-0.5c0-0.2,0.1-0.4,0.3-0.6c0.6-0.7,0.9-1.2,1.1-1.3c0.1-0.1,0.8-0.9,2-2.2
		c0,0,0-0.1,0.1-0.1c0,0,0-0.1,0.1-0.1c0,0,0,0,0.1-0.1c0,0,0.1-0.1,0.1-0.1c0.1-0.1,0.1-0.2,0-0.3c0,0-0.1-0.1-0.2-0.2
		s-0.2-0.1-0.2-0.1c0,0,0-0.1,0-0.1c0,0,0-0.1,0.1-0.1c0.1,0,0.2-0.1,0.3-0.1c0.6-0.2,0.9-0.3,1-0.3c0,0,0.1,0,0.1,0c0,0,0,0-0.1,0
		c-0.1,0-0.5,0-1.3,0c0,0-0.1,0-0.2,0c0,0-0.1,0-0.1,0c0,0,0-0.1,0.1-0.1c0.2,0,0.3-0.1,0.3-0.1c0.1,0,0.2,0,0.3-0.1
		s0.2-0.1,0.3-0.1c0.1,0,0.2-0.1,0.3-0.1c0.1,0,0.3-0.1,0.4-0.1c0,0,0.1-0.1,0.1-0.1c0,0,0-0.1,0-0.1c0,0,0,0-0.1,0c0,0-0.1,0-0.1,0
		c0,0-0.1,0-0.1-0.1c0,0-0.1,0-0.1-0.1s-0.1,0-0.1,0c0,0-0.1,0-0.1,0c-0.1-0.1-0.1-0.2,0-0.3c0,0,0.1-0.1,0.2-0.2
		c0.2-0.2,0.4-0.4,0.7-0.7c0.3-0.3,0.5-0.5,0.6-0.6c0.1-0.1,0.1-0.1,0.1-0.2c0.1-0.2,0.1-0.3,0-0.3c0,0-0.1,0-0.1-0.1
		c0,0-0.1,0-0.1-0.1s-0.1,0-0.1-0.1c0,0,0,0-0.1,0c0,0-0.1,0-0.1,0c0,0,0,0,0,0c0,0,0,0,0,0c0-0.1,0.1-0.1,0.3-0.2
		c0.3-0.1,0.5-0.1,0.7-0.1c0.6-0.1,1-0.2,1.3-0.3c0.1,0,0.2-0.1,0.3-0.1c0.1,0,0.1,0,0.1-0.1c0,0,0-0.1-0.1-0.1c0,0,0,0-0.1,0
		s-0.1,0-0.1,0c-0.1,0-0.2,0-0.3,0c-0.1,0-0.3,0-0.5,0c-0.2,0-0.3,0-0.5,0c-0.1,0-0.2,0-0.2,0c-0.1,0-0.2-0.1-0.2-0.2
		c0-0.1,0-0.2,0.1-0.3c0.3-0.4,0.6-0.7,0.8-1c0.3-0.3,0.6-0.3,0.9-0.3c0.2,0,0.2,0.2,0.2,0.5c0,0.1,0,0.2,0,0.3s0,0.2,0,0.2
		c0,0.2,0,0.4,0.1,0.5c0.1,0.1,0.2,0.2,0.4,0.2c0,0,0.5,0,1.4,0c0,0,0.1,0,0.1,0c0.1,0,0.1,0,0.1,0c0.1,0,0.1,0,0.1,0.1
		c0,0,0,0.1-0.1,0.1c-0.1,0-0.5,0.2-1,0.3c-0.4,0.1-0.7,0.2-0.8,0.2c0,0-0.1,0-0.1,0.1c0,0,0,0.1,0,0.1c0.1,0,0.3,0.1,0.6,0.2
		c0,0,0.1,0,0.2,0.1c0.2,0.1,0.2,0.2,0.2,0.5c0,0.2-0.1,0.4-0.1,0.7s-0.1,0.5-0.1,0.7c0,0.2,0,0.4,0.1,0.4c0.1,0,0.2,0.1,0.3,0.1
		c0.1,0.1,0.3,0.1,0.4,0.1s0.2,0.1,0.2,0.1c0,0,0,0,0,0.1c0,0,0,0-0.1,0.1c-0.1,0-0.2,0.1-0.3,0.1c-0.4,0.1-0.7,0.2-0.8,0.3
		c-0.1,0-0.1,0.1-0.1,0.1c0,0,0.1,0,0.2,0c0.1,0,0.4,0,1.1,0c0,0,0.1,0,0.2,0c0,0,0.1,0,0.1,0c0,0,0,0-0.1,0.1c0,0-0.1,0-0.2,0.1
		c-0.1,0-0.2,0.1-0.4,0.1c-0.1,0-0.2,0.1-0.3,0.1c-0.1,0-0.2,0.1-0.2,0.1s0,0.1,0.1,0.1c0,0,0.1,0,0.2,0.1s0.2,0.1,0.2,0.1
		c0.2,0.1,0.3,0.1,0.4,0.2c0.1,0.1,0.2,0.2,0.1,0.4c-0.1,0.6-0.1,1.1-0.2,1.5c-0.1,0.7-0.1,1.5-0.1,2.1c0,0.2,0,0.4-0.1,0.6
		c-0.1,0.2-0.1,0.3-0.2,0.4c-0.1,0.1-0.2,0.2-0.3,0.3c-0.1,0.1-0.2,0.1-0.4,0.1C401,33.3,400.7,33.3,400.3,33.3z M397.7,28.8
		c0,0,0.1,0,0.1,0c0.1,0,0.2,0,0.3,0c0.1,0,0.2,0,0.3,0c0.4,0,0.7,0,0.8,0c0.1,0,0.1,0,0.1-0.1c0-0.2,0.1-0.3,0.1-0.3
		c0.1-0.3,0-0.4-0.2-0.5c-0.3-0.1-0.6-0.2-0.7-0.3c0,0-0.1-0.1-0.1-0.1c0,0,0.1-0.1,0.1-0.1c0,0,0.1,0,0.2-0.1
		c0.1,0,0.2-0.1,0.3-0.1s0.2-0.1,0.2-0.1c0.2-0.1,0.3-0.1,0.3-0.1c0-0.1,0-0.1-0.1,0c-0.1,0-0.2,0-0.4,0.1c0,0-0.1,0-0.1,0
		c-0.1,0-0.1,0-0.2,0s-0.1,0-0.2,0.1c-0.1,0-0.1,0-0.2,0.1c-0.1,0-0.2,0-0.2,0.1c-0.1,0-0.2,0.1-0.3,0.1c-0.1,0-0.1,0.1-0.1,0.2
		c0,0,0.1,0,0.2,0.1c0.1,0,0.2,0.1,0.3,0.2s0.1,0.2,0,0.4c0,0-0.1,0.1-0.1,0.2c0,0-0.1,0.1-0.1,0.1s-0.1,0.1-0.1,0.1
		s-0.1,0.1-0.1,0.1C397.6,28.8,397.6,28.8,397.7,28.8C397.6,28.8,397.6,28.8,397.7,28.8z"/>
	<path class="st3" d="M412.7,26.3c1.1,0,1.7,0,1.9,0c0,0,0.1,0,0.1,0s0.1,0,0.1,0c0,0,0.1,0,0.1,0c0,0,0,0,0,0c0,0,0,0-0.1,0.1
		c-0.1,0-0.2,0.1-0.3,0.1c-0.1,0-0.2,0.1-0.3,0.1c-0.1,0.1-0.1,0.1-0.2,0.1c-0.1,0.1-0.1,0.2,0,0.2c0.2,0,0.5,0,0.8,0
		c0.4,0,0.6,0,0.6,0c0,0,0,0,0.1,0c0,0,0.1,0,0.1,0c0,0,0,0,0.1,0c0,0,0,0,0,0.1c0,0-0.1,0-0.2,0.1c-0.2,0-0.3,0.1-0.6,0.2
		c-0.4,0.1-0.7,0.2-0.7,0.2c0,0-0.1,0-0.1,0.1c0,0,0,0.1,0.1,0.1c0,0,0.1,0,0.2,0.1c0,0,0.1,0,0.1,0c0,0,0.1,0,0.1,0
		c0,0,0.1,0,0.1,0c0,0,0.1,0,0.1,0c0,0,0.1,0,0.1,0c0.1,0.1,0.2,0.1,0.2,0.2c0,0.1-0.1,0.2-0.2,0.4c-1.7,2.7-3.7,4.3-5.9,4.9
		c-0.4,0.1-0.9,0.2-1.4,0.2c-1,0-1.8-0.1-2.5-0.5c-0.6-0.3-1.1-0.8-1.3-1.3c-0.4-0.9-0.4-1.9,0.1-3.1c0,0,0-0.1,0-0.1
		c0,0,0-0.1,0-0.1c0,0,0-0.1,0-0.1c0.1-0.2,0.1-0.3,0-0.3c-0.1,0-0.1-0.1-0.2-0.1c-0.4-0.2-0.6-0.2-0.6-0.3c-0.1,0-0.1-0.1,0-0.1
		c0.1,0,0.5-0.1,0.9-0.3c0.3-0.1,0.4-0.1,0.5-0.2c0.1,0,0.1-0.1,0.1-0.1c0,0,0,0-0.1,0c0,0,0,0-0.1,0s-0.1,0-0.1,0H403
		c0,0-0.1,0-0.1,0s0,0,0-0.1c0.1,0,0.2-0.1,0.4-0.2c0.4-0.1,0.8-0.3,1.2-0.4c0.1,0,0.2-0.1,0.2-0.1c0,0,0-0.1-0.1-0.1
		c0,0-0.1,0-0.2-0.1c-0.1,0-0.1,0-0.2,0c-0.2-0.1-0.3-0.1-0.3-0.1c-0.1,0-0.2-0.1-0.2-0.2c0-0.1,0.1-0.2,0.2-0.3
		c0.1-0.1,0.4-0.5,1-1.2c0,0,0.1-0.1,0.1-0.1c0,0,0.1-0.1,0.1-0.1c0.1-0.1,0.1-0.2,0.1-0.2c0,0,0-0.1-0.1-0.1c0,0-0.1-0.1-0.3-0.2
		c-0.1,0-0.1-0.1-0.2-0.1c0,0,0,0,0-0.1c0,0,0-0.1,0.1-0.1c0.1,0,0.3-0.1,0.4-0.1c0.9-0.2,1.4-0.3,1.5-0.3c0.2-0.1,0.4-0.1,0.6-0.2
		c0.1,0,0.2-0.1,0.1-0.1c0,0,0,0-0.1,0c-0.2,0-0.2,0-0.3,0c-0.9,0-1.4,0-1.5,0c-0.1,0-0.2,0-0.2,0c0,0,0-0.1,0.2-0.3
		c0.1-0.1,0.3-0.2,0.4-0.3c0.7-0.4,1.4-0.8,2.1-1c1.4-0.4,2.7-0.5,3.9-0.1c0.6,0.2,1.1,0.6,1.5,1.1c0.2,0.3,0.3,0.4,0.4,0.5
		c0.1,0.1,0.2,0.1,0.3,0.1c0.1,0,0.6,0,1.6,0c0.1,0,0.2,0,0.3,0c0,0,0.1,0,0.1,0c0,0,0,0.1-0.1,0.1c-0.1,0-0.2,0.1-0.4,0.2
		c-0.1,0-0.3,0.1-0.7,0.2c0,0-0.1,0-0.2,0.1c-0.1,0-0.2,0.1-0.3,0.1c-0.1,0-0.2,0.1-0.2,0.1c0,0,0,0.1,0.1,0.1c0,0,0.1,0,0.1,0
		c0.1,0,0.1,0,0.1,0c0.2,0,0.3,0.1,0.3,0.1c0.1,0,0.1,0.1,0.1,0.1c0.1,0.1,0.1,0.2,0,0.3c-0.2,0.2-0.5,0.3-0.8,0.5
		c-0.8,0.4-1.3,0.6-1.5,0.7c-0.1,0.1-0.2,0.1-0.3,0.1c-0.2,0-0.4,0-0.4-0.2c-0.1-0.3-0.3-0.5-0.6-0.6c-0.4-0.1-1-0.2-1.6-0.1
		c-0.5,0-1,0.2-1.5,0.4c-0.3,0.2-0.6,0.4-0.9,0.6c-0.1,0-0.1,0.1-0.1,0.1c-0.1,0.1-0.1,0.2,0,0.3c0,0,0.1,0.1,0.3,0.1
		c0,0,0.1,0,0.1,0c0,0,0.1,0,0.1,0c0,0,0,0,0.1,0c0,0,0.1,0,0.1,0c0.1,0,0.1,0.1,0.1,0.1c0,0,0,0.1-0.1,0.1c0,0-0.1,0-0.2,0
		c-0.1,0-0.1,0-0.2,0c-0.1,0-0.1,0-0.2,0c-0.4,0.1-0.7,0.2-1,0.3c-0.1,0-0.1,0.1-0.2,0.1c0,0-0.1,0.1-0.1,0.1c0,0,0,0,0,0
		c0,0,0,0,0.1,0c0.1,0,0.6,0,1.3,0c0.1,0,0.1,0,0.2,0c0,0,0.1,0,0.1,0c0,0,0,0.1-0.1,0.1c0,0-0.1,0.1-0.3,0.1
		c-0.2,0-0.4,0.1-0.7,0.2c-0.2,0-0.3,0.1-0.4,0.1c-0.1,0-0.1,0.1-0.1,0.1c0,0,0,0.1,0.1,0.1c0,0,0,0,0.1,0c0,0,0,0,0.1,0
		c0,0,0.1,0,0.1,0c0,0,0.1,0,0.1,0c0.3,0.1,0.4,0.2,0.5,0.2c0.1,0.1,0.2,0.2,0.1,0.4c-0.1,0.5,0,0.9,0.3,1.1
		c0.2,0.2,0.4,0.3,0.8,0.3c0.7,0.1,1.4,0,2.1-0.1c0.3-0.1,0.6-0.2,0.9-0.4c0,0,0.1-0.1,0.1-0.1c0,0,0,0-0.1,0c-0.2,0-0.4,0-0.7,0
		s-0.5,0-0.7,0c-0.1,0-0.2,0-0.2,0c-0.3-0.1-0.3-0.3-0.2-0.7c0-0.1,0.1-0.1,0.1-0.2c0-0.1,0-0.2,0-0.3c0,0-0.1-0.1-0.1-0.1
		c-0.1,0-0.2-0.1-0.3-0.1c0,0,0,0-0.1,0c-0.1,0-0.1,0-0.1,0c-0.1,0-0.1-0.1-0.1-0.1s0-0.1,0.2-0.1c0,0,0,0,0,0c0,0,0.1,0,0.2-0.1
		c0.1,0,0.2,0,0.3-0.1c0.2,0,0.4-0.1,0.5-0.2c0.1,0,0.2-0.1,0.3-0.1c0,0,0.1,0,0.1-0.1s0,0-0.1,0c0,0,0,0-0.1,0c0,0-0.1,0-0.1,0
		c-0.1,0-0.3,0-0.4,0s-0.3,0-0.5,0s-0.3,0-0.4,0c-0.1,0-0.1,0-0.1,0c0,0,0,0,0,0s0,0,0,0c0.1-0.1,0.2-0.1,0.4-0.2
		c0.2-0.1,0.4-0.1,0.6-0.2c0.6-0.1,1.2-0.2,1.7-0.2C411.3,26.3,411.8,26.3,412.7,26.3z"/>
	<path class="st3" d="M427.5,22.5c0,0,0,0.1-0.1,0.1c-0.1,0-0.2,0.1-0.4,0.2c-0.2,0.1-0.5,0.1-1,0.3c-0.3,0.1-0.6,0.1-0.6,0.2
		c-0.1,0-0.1,0.1-0.1,0.1c0,0,0,0,0.1,0.1c0.1,0,0.1,0,0.2,0.1c0,0,0.1,0,0.1,0c0,0,0.1,0,0.1,0c0,0,0.1,0,0.1,0
		c0.1,0,0.2,0.1,0.2,0.1c0.2,0.1,0.2,0.2,0,0.3c-0.1,0.1-0.4,0.2-0.7,0.3c0,0-0.1,0-0.2,0c-0.2,0-0.5,0-0.8,0c-0.3,0-0.6,0-1,0
		s-0.6,0-1,0s-0.6,0-0.9,0c-0.2,0-0.5,0-0.6,0c-0.2,0-0.3,0-0.3,0c-0.1,0-0.2,0.1-0.2,0.2c-0.1,0.1-0.1,0.2-0.2,0.4
		c-0.1,0.2-0.2,0.3-0.2,0.4c0,0.1-0.1,0.1,0,0.1c0,0,0,0,0.1,0c0,0,0.1,0,0.2,0c2.7,0,4.2,0,4.4,0c0.1,0,0.2,0,0.2,0
		c0.2,0,0.3,0.1,0.3,0.3c0,0.2,0.1,0.3,0.3,0.4c0.3,0.1,0.5,0.2,0.6,0.2l0,0c0.1,0,0.2,0.1,0.2,0.1c0,0-0.1,0.1-0.3,0.1
		c0,0-0.2,0-0.4,0.1c-0.2,0.1-0.4,0.1-0.5,0.1c-0.1,0-0.3,0.1-0.4,0.1c0,0-0.1,0-0.1,0.1s0,0,0,0c0,0,0.1,0,0.2,0c0.8,0,1.2,0,1.3,0
		c0,0,0.1,0,0.1,0c0,0,0,0-0.1,0.1c-0.1,0-0.2,0.1-0.4,0.1s-0.3,0.1-0.4,0.1c-0.1,0-0.2,0.1-0.3,0.1c-0.1,0-0.1,0.1-0.1,0.1
		c0,0,0,0.1,0.1,0.1c0,0,0.1,0.1,0.2,0.1l0.4,0.2c0.1,0.1,0.1,0.2,0,0.4c-0.3,0.3-0.6,0.5-0.9,0.5c0,0-0.3,0-0.7,0s-0.7,0-0.7,0
		c-0.4,0-1,0-1.7,0s-1.2,0-1.3,0c-0.1,0-0.2,0-0.2,0c0,0-0.1,0-0.1,0.1c-0.1,0.2-0.3,0.5-0.4,0.9c0,0.1,0,0.1,0,0.1c0,0,0.1,0,0.2,0
		c1,0,2.4,0,4.3,0c0.1,0,0.2,0,0.2,0c0.2,0,0.4,0.1,0.4,0.3c0.1,0.2,0,0.4-0.1,0.6c-0.2,0.5-0.3,0.8-0.3,0.8
		c-0.1,0.3-0.2,0.6-0.3,0.9c-0.2,0.6-0.5,0.9-1,0.9c-0.8,0-3.1,0-6.9,0h-0.1c-0.2,0-0.4-0.1-0.5-0.3s-0.1-0.4,0-0.7
		c0.3-0.8,0.6-1.5,0.9-2.3c0-0.1,0.3-0.6,0.8-1.7c0,0,0,0,0,0c0,0,0,0,0-0.1s0,0,0-0.1c0.1-0.2,0.1-0.3,0-0.4
		c-0.1-0.1-0.2-0.1-0.3-0.2c-0.2-0.1-0.3-0.1-0.3-0.1c-0.1,0-0.1-0.1-0.1-0.1c0,0,0.1-0.1,0.1-0.1c0,0,0.1,0,0.3-0.1
		c0.2-0.1,0.3-0.1,0.5-0.2c0.2-0.1,0.3-0.1,0.3-0.1c0,0,0,0,0,0c0,0,0,0,0,0c0,0,0,0-0.1,0c-0.1,0-0.3,0-0.5,0c-0.6,0-0.9,0-0.9,0
		c-0.1,0-0.1,0-0.1,0s0,0,0.1-0.1c0.2-0.1,0.5-0.2,1-0.3c0.1,0,0.2-0.1,0.3-0.1c0,0,0.1-0.1,0.1-0.1c0,0,0,0-0.1-0.1
		c0,0-0.1,0-0.1-0.1c0,0-0.1,0-0.2-0.1s-0.2-0.1-0.2-0.1c-0.1,0-0.2-0.1-0.2-0.1c-0.1-0.1-0.1-0.1,0-0.3c0-0.1,0.1-0.1,0.1-0.2
		c0.1-0.1,0.2-0.3,0.4-0.6s0.3-0.5,0.4-0.6c0,0,0.1-0.1,0.1-0.2c0.1-0.1,0.1-0.2,0-0.3c0,0-0.1-0.1-0.2-0.1c0,0-0.1-0.1-0.4-0.2
		c-0.1,0-0.2-0.1-0.2-0.1c0,0,0,0,0-0.1c0,0,0,0,0.1-0.1c0,0,0.2,0,0.5-0.1c0.4-0.1,0.7-0.2,0.9-0.3c0.5-0.1,0.7-0.2,0.8-0.3
		c0,0,0.1,0,0.1,0c0,0,0-0.1,0-0.1c-0.1,0-0.1,0-0.2,0c-0.8,0-1.2,0-1.4,0c-0.2,0-0.3-0.1-0.4-0.2c0-0.1,0-0.2,0-0.3
		c0.1-0.3,0.3-0.5,0.4-0.7c0.3-0.3,0.6-0.5,0.8-0.5c0.1,0,0.7,0,1.7,0c0.6,0,1.2,0,1.8,0c1.6,0,2.7,0,3.4,0c0.1,0,0.2,0,0.2,0
		c0.2,0,0.3,0.1,0.3,0.2c0.1,0.1,0,0.3,0,0.5c0,0,0,0.1,0,0.1c0,0,0,0.1,0,0.1c0,0,0,0.1,0,0.1c-0.1,0.2-0.1,0.3-0.1,0.4
		c0,0.1,0.1,0.2,0.2,0.2c0,0,0.1,0,0.2,0c0.1,0,0.2,0,0.2,0s0.2,0,0.3,0s0.2,0,0.2,0s0.2,0,0.3,0s0.2,0,0.2,0
		C427.2,22.5,427.2,22.5,427.5,22.5C427.4,22.5,427.5,22.5,427.5,22.5z"/>
</g>
</svg>
