<svg xmlns="http://www.w3.org/2000/svg" xmlns:xlink="http://www.w3.org/1999/xlink" viewBox="0 0 496.66 172.52"><defs><style>.cls-1{fill:url(#Безымянный_градиент_21);}.cls-2{fill:#00d0ff;}.cls-3{fill:url(#Безымянный_градиент_21-2);}.cls-4{fill:url(#Безымянный_градиент_21-3);}.cls-5{fill:url(#Безымянный_градиент_21-4);}</style><linearGradient id="Безымянный_градиент_21" x1="48.55" y1="90.95" x2="470.87" y2="90.95" gradientTransform="translate(-2.02 0.94) rotate(-0.05)" gradientUnits="userSpaceOnUse"><stop offset="0" stop-color="#00bdff"/><stop offset="0.25" stop-color="#0384ba"/><stop offset="0.51" stop-color="#054f7a"/><stop offset="0.73" stop-color="#07294b"/><stop offset="0.9" stop-color="#08112e"/><stop offset="1" stop-color="#080823"/></linearGradient><linearGradient id="Безымянный_градиент_21-2" x1="27.34" y1="67.26" x2="156.99" y2="67.26" xlink:href="#Безымянный_градиент_21"/><linearGradient id="Безымянный_градиент_21-3" x1="244.66" y1="119.49" x2="492.35" y2="119.49" xlink:href="#Безымянный_градиент_21"/><linearGradient id="Безымянный_градиент_21-4" x1="379.41" y1="76.94" x2="492.35" y2="76.94" xlink:href="#Безымянный_градиент_21"/></defs><title>notfound_button</title><g id="Layer_2" data-name="Layer 2"><g id="Layer_1-2" data-name="Layer 1"><rect class="cls-1" x="46.61" y="67.42" width="422.31" height="48.53"/><path class="cls-2" d="M477.91,121.88l-440.24.37-.05-60.76,440.24-.37ZM39.16,120.75l437.26-.36-.05-57.77L39.11,63Z"/><path class="cls-3" d="M29.22,91.37a3.82,3.82,0,0,1-3.82-3.81l0-38.75A3.82,3.82,0,0,1,29.18,45l122-.11a3.82,3.82,0,0,1,0,7.64L33,52.62l0,34.93A3.81,3.81,0,0,1,29.22,91.37Z"/><path class="cls-2" d="M246.57,135.63l-217.32.18a1.91,1.91,0,0,1-1.91-1.9l0-46.35a1.91,1.91,0,1,1,3.81,0l0,44.44,215.41-.18a1.91,1.91,0,0,1,0,3.82Z"/><path class="cls-4" d="M486.62,137.34l-240,.2a3.82,3.82,0,1,1,0-7.63l236.23-.2,0-23.16a3.82,3.82,0,1,1,7.64,0l0,27A3.82,3.82,0,0,1,486.62,137.34Z"/><path class="cls-5" d="M486.6,110.37a3.82,3.82,0,0,1-3.82-3.82l0-54.31-101.49.09a3.82,3.82,0,0,1,0-7.64l105.31-.08a3.8,3.8,0,0,1,3.82,3.81l.05,58.13A3.83,3.83,0,0,1,486.6,110.37Z"/><path class="cls-2" d="M381.25,50.42l-230.06.19a1.91,1.91,0,1,1,0-3.82l230.05-.19a1.91,1.91,0,0,1,0,3.82Z"/><path class="cls-2" d="M12.37,113.88a.59.59,0,0,1-.53-.35L.05,86.23A.64.64,0,0,1,0,86L.18,27.68a.55.55,0,0,1,.13-.36L11.84,13.2a.59.59,0,0,1,.81-.08.58.58,0,0,1,.08.81l-11.41,14-.18,58,11.75,27.2a.56.56,0,0,1-.3.75A.59.59,0,0,1,12.37,113.88Z"/><path class="cls-2" d="M125.88,145.55l-101.14.09a2.3,2.3,0,0,1-2.12-1.42l-12.37-30a2.29,2.29,0,1,1,4.23-1.74l11.79,28.63,99.61-.09a2.29,2.29,0,1,1,0,4.57Z"/><path class="cls-2" d="M321.29,157.39,193,157.5a.56.56,0,0,1-.45-.22.58.58,0,0,1-.11-.49l3.23-13-69.81.06a.57.57,0,0,1-.57-.57.56.56,0,0,1,.57-.57l70.54-.06a.55.55,0,0,1,.45.22.58.58,0,0,1,.11.49l-3.23,13,127.08-.11,3-13.46a.57.57,0,0,1,.55-.45l63.56-.06a.58.58,0,0,1,.57.57.59.59,0,0,1-.57.58l-63.1,0-3,13.47A.56.56,0,0,1,321.29,157.39Z"/><path class="cls-2" d="M387.92,143.43a.58.58,0,0,1,0-1.15l107.6-.1-.3-103.43a.59.59,0,0,1,.57-.58h0a.57.57,0,0,1,.57.57l.3,104a.57.57,0,0,1-.16.41.57.57,0,0,1-.41.17Z"/><path class="cls-2" d="M241.4,34.37a.58.58,0,0,1-.45-.22.56.56,0,0,1-.1-.5l3.27-11.91-72,.06-3.16,11.53a.56.56,0,0,1-.55.42l-60.27,0a.58.58,0,0,1-.57-.57.57.57,0,0,1,.57-.57l59.84,0,3.15-11.53a.58.58,0,0,1,.56-.42l73.21-.06a.57.57,0,0,1,.55.72l-3.27,11.91,158.38-.33,3.34-12a.57.57,0,0,1,.55-.42l67-.05a.57.57,0,0,1,0,1.14l-66.61.06-3.34,12A.57.57,0,0,1,401,34l-159.56.33Z"/><path class="cls-2" d="M108.11,34.94,84.35,35a1.72,1.72,0,0,1-1.21-.5L64,15.24l-51.71,0a1.72,1.72,0,0,1,0-3.43l52.43,0a1.72,1.72,0,0,1,1.22.5L85.06,31.53l23,0a1.72,1.72,0,1,1,0,3.43Z"/><polygon class="cls-2" points="369.84 23.56 271.34 23.64 268.25 33.78 372.95 33.69 369.84 23.56"/><polygon class="cls-2" points="307.57 147.13 209.07 147.21 205.97 157.35 310.68 157.27 307.57 147.13"/><polygon class="cls-2" points="273.26 164.2 197.17 164.27 194.77 156.44 275.65 156.37 273.26 164.2"/><polygon class="cls-2" points="61.44 7.04 21.64 7.07 20.4 14.9 62.7 14.86 61.44 7.04"/><polygon class="cls-2" points="266.04 40.02 167.54 40.1 164.44 50.24 269.15 50.15 266.04 40.02"/><path class="cls-2" d="M190.79,151.9,23.6,152a.58.58,0,0,1-.57-.57.57.57,0,0,1,.57-.57l167.19-.14a.56.56,0,0,1,.57.57A.57.57,0,0,1,190.79,151.9Z"/><path class="cls-2" d="M271.65,167l-78.13.06a.58.58,0,0,1-.55-.41l-2.6-9.15-166.76.14a.57.57,0,1,1,0-1.14l167.19-.14a.58.58,0,0,1,.55.41l2.6,9.15,77.7-.07a.58.58,0,0,1,0,1.15Z"/><path class="cls-2" d="M331.25,156.81h0c-3.52,0-6.29-.56-6.15-1.25l1.84-9.36c.13-.69,3.12-1.27,6.64-1.27h0c3.52,0,6.28.57,6.14,1.26l-1.83,9.36C337.75,156.24,334.76,156.81,331.25,156.81Z"/><path class="cls-2" d="M348.62,156.8h0c-3.52,0-6.28-.56-6.15-1.26l1.84-9.35c.14-.7,3.13-1.27,6.64-1.27h0c3.52,0,6.29.56,6.15,1.26l-1.84,9.35C355.13,156.23,352.14,156.8,348.62,156.8Z"/><path class="cls-2" d="M366,156.79h0c-3.51,0-6.28-.57-6.14-1.26l1.83-9.36c.14-.69,3.13-1.26,6.65-1.27h0c3.51,0,6.28.57,6.14,1.26l-1.83,9.36C372.5,156.21,369.51,156.78,366,156.79Z"/><path class="cls-2" d="M383.37,156.77h0c-3.52,0-6.28-.56-6.15-1.26l1.84-9.35c.14-.7,3.12-1.27,6.64-1.27h0c3.52,0,6.28.56,6.15,1.26L390,155.5C389.87,156.2,386.89,156.77,383.37,156.77Z"/><path class="cls-2" d="M400.74,156.76h0c-3.51,0-6.28-.57-6.14-1.26l1.83-9.36c.14-.69,3.13-1.26,6.64-1.27h0c3.51,0,6.28.57,6.14,1.26l-1.83,9.36C407.25,156.18,404.26,156.75,400.74,156.76Z"/><path class="cls-2" d="M418.12,156.74h0c-3.52,0-6.29-.56-6.15-1.26l1.84-9.35c.13-.7,3.12-1.27,6.64-1.27h0c3.52,0,6.28.56,6.15,1.26l-1.84,9.35C424.62,156.17,421.63,156.74,418.12,156.74Z"/><path class="cls-2" d="M435.49,156.73h0c-3.52,0-6.28-.57-6.15-1.26l1.84-9.36c.14-.69,3.13-1.26,6.64-1.26h0c3.52,0,6.29.56,6.15,1.25l-1.84,9.36C442,156.15,439,156.72,435.49,156.73Z"/><path class="cls-2" d="M452.87,156.71h0c-3.52,0-6.29-.56-6.15-1.25l1.84-9.36c.13-.7,3.12-1.27,6.64-1.27h0c3.51,0,6.28.56,6.14,1.26l-1.83,9.36C459.37,156.14,456.38,156.71,452.87,156.71Z"/><path class="cls-2" d="M470.24,156.7h0c-3.52,0-6.28-.56-6.15-1.26l1.84-9.36c.14-.69,3.12-1.26,6.64-1.26h0c3.52,0,6.28.56,6.15,1.25l-1.84,9.36C476.75,156.13,473.76,156.7,470.24,156.7Z"/><path class="cls-2" d="M487.61,156.68h0c-3.51,0-6.28-.56-6.14-1.25l1.83-9.36c.14-.69,3.13-1.26,6.65-1.27h0c3.51,0,6.28.57,6.14,1.26l-1.83,9.36C494.12,156.11,491.13,156.68,487.61,156.68Z"/><path class="cls-2" d="M187.31,11.91h0c-3.52,0-6.29-.56-6.15-1.26L183,1.3C183.13.6,186.12,0,189.64,0h0c3.52,0,6.28.56,6.14,1.26L194,10.64C193.81,11.34,190.82,11.91,187.31,11.91Z"/><path class="cls-2" d="M204.68,11.9h0c-3.52,0-6.28-.57-6.15-1.26l1.84-9.36C200.51.59,203.5,0,207,0h0c3.52,0,6.29.57,6.15,1.26l-1.84,9.36C211.19,11.32,208.2,11.89,204.68,11.9Z"/><path class="cls-2" d="M222.05,11.88h0c-3.51,0-6.28-.56-6.14-1.26l1.83-9.35c.14-.7,3.13-1.27,6.65-1.27h0c3.51,0,6.28.56,6.14,1.26l-1.83,9.35C228.56,11.31,225.57,11.88,222.05,11.88Z"/><path class="cls-2" d="M87.56,172.52h0c-3.52,0-6.28-.56-6.15-1.26l1.84-9.36c.13-.69,3.12-1.26,6.64-1.26h0c3.52,0,6.28.56,6.15,1.25l-1.84,9.36C94.06,171.94,91.08,172.52,87.56,172.52Z"/><path class="cls-2" d="M104.93,172.5h0c-3.51,0-6.28-.56-6.14-1.25l1.83-9.36c.14-.69,3.13-1.27,6.64-1.27h0c3.52,0,6.29.56,6.15,1.26l-1.84,9.36C111.44,171.93,108.45,172.5,104.93,172.5Z"/><path class="cls-2" d="M122.31,172.49h0c-3.52,0-6.29-.56-6.15-1.26l1.84-9.35c.13-.7,3.12-1.27,6.64-1.27h0c3.52,0,6.28.56,6.15,1.26L129,171.22C128.81,171.92,125.82,172.49,122.31,172.49Z"/><path class="cls-2" d="M419.39,16.6h0c-3.52,0-6.29-.57-6.15-1.26L415.08,6c.13-.69,3.12-1.26,6.64-1.27h0c3.51,0,6.28.57,6.14,1.26L426,15.33C425.89,16,422.9,16.59,419.39,16.6Z"/><path class="cls-2" d="M436.76,16.58h0c-3.52,0-6.28-.56-6.15-1.26L432.45,6c.14-.7,3.13-1.27,6.64-1.27h0c3.52,0,6.29.56,6.15,1.26l-1.84,9.35C443.27,16,440.28,16.58,436.76,16.58Z"/><path class="cls-2" d="M454.13,16.57h0c-3.51,0-6.28-.57-6.14-1.26L449.82,6c.14-.69,3.13-1.26,6.65-1.27h0c3.51,0,6.28.57,6.14,1.26l-1.83,9.36C460.64,16,457.65,16.56,454.13,16.57Z"/><path class="cls-2" d="M27.15,43.32h0c-1.11,0-2-.18-1.94-.4l.58-3c0-.22,1-.4,2.1-.4h0c1.11,0,2,.18,1.93.4l-.57,3C29.2,43.13,28.26,43.31,27.15,43.32Z"/><path class="cls-2" d="M32.63,43.31h0c-1.11,0-2-.18-1.94-.4L31.27,40c0-.22,1-.4,2.1-.4h0c1.1,0,2,.18,1.93.4l-.58,2.95C34.68,43.13,33.74,43.31,32.63,43.31Z"/><path class="cls-2" d="M38.11,43.31h0c-1.11,0-2-.18-1.94-.4L36.75,40c0-.22,1-.4,2.09-.4h0c1.11,0,2,.18,1.94.4l-.58,2.95C40.16,43.13,39.22,43.31,38.11,43.31Z"/><path class="cls-2" d="M43.59,43.3h0c-1.11,0-2-.18-1.94-.39l.58-3c0-.21,1-.39,2.09-.39h0c1.11,0,2,.17,1.94.39l-.58,2.95C45.64,43.12,44.7,43.3,43.59,43.3Z"/><path class="cls-2" d="M49.07,43.3h0c-1.11,0-2-.18-1.94-.4L47.71,40c0-.22,1-.4,2.09-.4h0c1.11,0,2,.18,1.94.4l-.58,2.95C51.12,43.12,50.18,43.3,49.07,43.3Z"/><path class="cls-2" d="M54.55,43.29h0c-1.11,0-2-.17-1.94-.39L53.19,40c0-.22,1-.4,2.09-.4h0c1.11,0,2,.17,1.94.39l-.58,3C56.6,43.11,55.65,43.29,54.55,43.29Z"/><path class="cls-2" d="M60,43.29h0c-1.1,0-2-.18-1.93-.4l.58-3c0-.22,1-.4,2.09-.4h0c1.11,0,2,.18,1.94.4l-.58,3C62.08,43.11,61.13,43.29,60,43.29Z"/><path class="cls-2" d="M65.5,43.28h0c-1.11,0-2-.17-1.93-.39l.57-3c0-.22,1-.4,2.1-.4h0c1.11,0,2,.17,1.94.39l-.58,3C67.56,43.1,66.61,43.28,65.5,43.28Z"/><path class="cls-2" d="M71,43.28h0c-1.11,0-2-.18-1.94-.4l.58-3c0-.22,1-.4,2.1-.4h0c1.11,0,2,.18,1.94.4l-.58,3C73,43.1,72.09,43.28,71,43.28Z"/><path class="cls-2" d="M76.46,43.27h0c-1.11,0-2-.17-1.94-.39l.58-3c.05-.22,1-.4,2.1-.4h0c1.11,0,2,.18,1.94.39l-.58,2.95C78.51,43.09,77.57,43.27,76.46,43.27Z"/><path class="cls-2" d="M405.65,42.71h0c-1.79,0-3.2-.29-3.13-.64l.93-4.77c.07-.36,1.6-.65,3.39-.65h0c1.79,0,3.2.29,3.13.64L409,42.06C409,42.42,407.44,42.71,405.65,42.71Z"/><path class="cls-2" d="M414.51,42.7h0c-1.79,0-3.2-.28-3.13-.64l.93-4.77c.07-.35,1.6-.64,3.39-.65h0c1.79,0,3.2.29,3.13.65l-.93,4.77C417.83,42.41,416.3,42.7,414.51,42.7Z"/><path class="cls-2" d="M423.37,42.7h0c-1.79,0-3.2-.29-3.13-.65l.93-4.77c.07-.35,1.6-.64,3.39-.64h0c1.79,0,3.2.28,3.13.64l-.93,4.77C426.69,42.4,425.16,42.69,423.37,42.7Z"/><path class="cls-2" d="M432.23,42.69h0c-1.79,0-3.2-.29-3.13-.64l.93-4.77c.07-.36,1.6-.65,3.39-.65h0c1.79,0,3.2.29,3.13.64L435.62,42C435.55,42.4,434,42.69,432.23,42.69Z"/><path class="cls-2" d="M441.09,42.68h0c-1.79,0-3.2-.29-3.14-.64l.94-4.77c.07-.35,1.59-.65,3.39-.65h0c1.79,0,3.2.29,3.13.64L444.48,42C444.41,42.39,442.88,42.68,441.09,42.68Z"/><path class="cls-2" d="M450,42.67h0c-1.79,0-3.21-.28-3.14-.64l.94-4.77c.07-.35,1.59-.64,3.39-.64h0c1.79,0,3.2.28,3.13.64L453.34,42C453.27,42.38,451.74,42.67,450,42.67Z"/><path class="cls-2" d="M458.81,42.67h0c-1.8,0-3.21-.29-3.14-.64l.94-4.78c.07-.35,1.59-.64,3.39-.64h0c1.79,0,3.2.29,3.13.64L462.19,42C462.12,42.37,460.6,42.67,458.81,42.67Z"/><path class="cls-2" d="M467.67,42.66h0c-1.8,0-3.21-.29-3.14-.64l.94-4.77c.07-.36,1.59-.65,3.39-.65h0c1.79,0,3.2.29,3.13.64L471.05,42C471,42.37,469.46,42.66,467.67,42.66Z"/><path class="cls-2" d="M476.53,42.65h0c-1.8,0-3.21-.28-3.14-.64l.94-4.77c.07-.35,1.59-.65,3.39-.65h0c1.79,0,3.2.29,3.13.64L479.91,42C479.84,42.36,478.32,42.65,476.53,42.65Z"/><path class="cls-2" d="M485.39,42.64h0c-1.8,0-3.21-.28-3.14-.64l.94-4.77c.07-.35,1.59-.64,3.38-.64h0c1.8,0,3.21.28,3.14.64L488.77,42C488.7,42.35,487.18,42.64,485.39,42.64Z"/><path class="cls-2" d="M106,38,81.36,38a.42.42,0,0,1-.3-.12L63.2,19.73l-50.91.05a.43.43,0,0,1-.43-.43.43.43,0,0,1,.43-.43l51.09,0a.43.43,0,0,1,.31.12L81.54,37.11l24.45,0a.43.43,0,0,1,.43.43A.43.43,0,0,1,106,38Z"/><path class="cls-2" d="M78.85,38a.42.42,0,0,1-.3-.12l-16-16.1-47.34,0a.43.43,0,0,1-.43-.43.43.43,0,0,1,.43-.43l47.52,0A.42.42,0,0,1,63,21L79.15,37.24a.43.43,0,0,1,0,.61A.42.42,0,0,1,78.85,38Z"/><path class="cls-2" d="M23,79.84a.57.57,0,0,1-.57-.57l0-41.68a.57.57,0,0,1,.57-.57l37.46,0a.57.57,0,0,1,.57.57.56.56,0,0,1-.57.57l-36.89,0,0,41.11A.57.57,0,0,1,23,79.84Z"/><path class="cls-2" d="M20.44,68.76a.58.58,0,0,1-.57-.57l0-33a.57.57,0,0,1,.57-.57l25.85,0a.56.56,0,0,1,.57.57.57.57,0,0,1-.57.57L21,35.8l0,32.38A.57.57,0,0,1,20.44,68.76Z"/><path class="cls-2" d="M164.43,29.37l-55.35,0a.57.57,0,0,1-.58-.57.58.58,0,0,1,.58-.57l54.91,0,3.44-12.45a.57.57,0,0,1,.55-.42l81.91-.07a.58.58,0,0,1,0,1.15l-81.47.06L165,29A.58.58,0,0,1,164.43,29.37Z"/></g></g></svg>