<svg xmlns="http://www.w3.org/2000/svg" viewBox="0 0 492.95 231.1"><defs><style>.cls-1{fill:#11e5b3;}</style></defs><title>arrow_01_green_left</title><g id="Layer_2" data-name="Layer 2"><g id="Layer_1-2" data-name="Layer 1"><polygon class="cls-1" points="185.45 35.25 238.23 35.25 180.19 115.14 238.23 195.03 185.45 195.03 127.4 115.14 185.45 35.25"/><polygon class="cls-1" points="100.84 34.96 153.63 34.96 95.58 114.85 153.63 194.74 100.84 194.74 42.8 114.85 100.84 34.96"/><polygon class="cls-1" points="275.71 35.25 328.5 35.25 270.45 115.14 328.5 195.03 275.71 195.03 217.66 115.14 275.71 35.25"/><polygon class="cls-1" points="369.89 34.96 422.68 34.96 364.63 114.85 422.68 194.74 369.89 194.74 311.84 114.85 369.89 34.96"/><polygon class="cls-1" points="343 7.63 454.7 7.63 461.86 29.28 350.16 29.28 343 7.63"/><polygon class="cls-1" points="340.85 223.47 452.55 223.47 459.71 201.81 348.01 201.81 340.85 223.47"/><polygon class="cls-1" points="81.81 210.56 455.72 209.97 455.7 201.97 86.17 202.54 29.61 114.87 86.15 28.56 455.7 29.13 455.72 21.12 81.83 20.54 20.05 114.83 81.81 210.56"/><path class="cls-1" d="M479.09,7.63c0,4.22,3.1,7.63,6.93,7.63S493,11.85,493,7.63,489.85,0,486,0,479.09,3.42,479.09,7.63Z"/><polygon class="cls-1" points="75.76 224.8 486.02 224.8 486.02 222.13 77.16 222.13 3.25 115.69 77.16 8.97 486.02 8.97 486.02 6.3 75.76 6.3 75.36 6.87 0 115.69 75.76 224.8"/><path class="cls-1" d="M479.09,223.47c0-4.22,3.1-7.64,6.93-7.64s6.93,3.42,6.93,7.64-3.1,7.63-6.93,7.63S479.09,227.68,479.09,223.47Z"/></g></g></svg>