<svg xmlns="http://www.w3.org/2000/svg" xmlns:xlink="http://www.w3.org/1999/xlink" viewBox="0 0 365.65 475.89"><defs><style>.cls-1{opacity:0.35;fill:url(#New_Gradient_Swatch_4);}.cls-2{fill:url(#New_Gradient_Swatch_4-2);}.cls-3{fill:url(#New_Gradient_Swatch_4-3);}.cls-4{fill:url(#New_Gradient_Swatch_4-4);}.cls-5{fill:url(#New_Gradient_Swatch_4-5);}.cls-6{fill:url(#New_Gradient_Swatch_4-6);}.cls-14,.cls-21,.cls-7{opacity:0.6;}.cls-7{fill:url(#New_Gradient_Swatch_4-7);}.cls-15,.cls-22,.cls-8{opacity:0.4;}.cls-8{fill:url(#New_Gradient_Swatch_4-8);}.cls-16,.cls-23,.cls-9{opacity:0.1;}.cls-9{fill:url(#New_Gradient_Swatch_4-9);}.cls-10,.cls-17,.cls-24{opacity:0.8;}.cls-10{fill:url(#New_Gradient_Swatch_4-10);}.cls-11,.cls-18,.cls-25{opacity:0.3;}.cls-11{fill:url(#New_Gradient_Swatch_4-11);}.cls-12{fill:url(#New_Gradient_Swatch_4-12);}.cls-13,.cls-20,.cls-27{opacity:0.2;}.cls-13{fill:url(#New_Gradient_Swatch_4-13);}.cls-14{fill:url(#New_Gradient_Swatch_4-14);}.cls-15{fill:url(#New_Gradient_Swatch_4-15);}.cls-16{fill:url(#New_Gradient_Swatch_4-16);}.cls-17{fill:url(#New_Gradient_Swatch_4-17);}.cls-18{fill:url(#New_Gradient_Swatch_4-18);}.cls-19{fill:url(#New_Gradient_Swatch_4-19);}.cls-20{fill:url(#New_Gradient_Swatch_4-20);}.cls-21{fill:url(#New_Gradient_Swatch_4-21);}.cls-22{fill:url(#New_Gradient_Swatch_4-22);}.cls-23{fill:url(#New_Gradient_Swatch_4-23);}.cls-24{fill:url(#New_Gradient_Swatch_4-24);}.cls-25{fill:url(#New_Gradient_Swatch_4-25);}.cls-26{fill:url(#New_Gradient_Swatch_4-26);}.cls-27{fill:url(#New_Gradient_Swatch_4-27);}.cls-28{fill:url(#New_Gradient_Swatch_4-28);}.cls-29{fill:url(#New_Gradient_Swatch_4-29);}.cls-30{fill:url(#New_Gradient_Swatch_4-30);}.cls-31{fill:url(#New_Gradient_Swatch_4-31);}.cls-32{fill:url(#New_Gradient_Swatch_4-32);}.cls-33{fill:url(#New_Gradient_Swatch_4-33);}.cls-34{fill:url(#New_Gradient_Swatch_4-34);}</style><radialGradient id="New_Gradient_Swatch_4" cx="184.14" cy="234.06" r="204.6" gradientUnits="userSpaceOnUse"><stop offset="0" stop-color="#3ab2c0"/><stop offset="0.23" stop-color="#3dafc1"/><stop offset="0.41" stop-color="#45a5c4"/><stop offset="0.58" stop-color="#5294c8"/><stop offset="0.74" stop-color="#667cce"/><stop offset="0.89" stop-color="#7e5dd7"/><stop offset="1" stop-color="#9541de"/></radialGradient><radialGradient id="New_Gradient_Swatch_4-2" cx="184.14" cy="236.44" r="205.28" xlink:href="#New_Gradient_Swatch_4"/><radialGradient id="New_Gradient_Swatch_4-3" cx="360.13" cy="122.77" r="83.65" xlink:href="#New_Gradient_Swatch_4"/><radialGradient id="New_Gradient_Swatch_4-4" cx="130.73" cy="91.74" r="103.93" xlink:href="#New_Gradient_Swatch_4"/><radialGradient id="New_Gradient_Swatch_4-5" cx="291.14" cy="433.55" r="51.75" xlink:href="#New_Gradient_Swatch_4"/><radialGradient id="New_Gradient_Swatch_4-6" cx="12.33" cy="367.96" r="44.61" xlink:href="#New_Gradient_Swatch_4"/><radialGradient id="New_Gradient_Swatch_4-7" cx="349.31" cy="307.73" r="8.79" xlink:href="#New_Gradient_Swatch_4"/><radialGradient id="New_Gradient_Swatch_4-8" cx="349.31" cy="324.91" r="8.79" xlink:href="#New_Gradient_Swatch_4"/><radialGradient id="New_Gradient_Swatch_4-9" cx="349.31" cy="377.73" r="9.63" xlink:href="#New_Gradient_Swatch_4"/><radialGradient id="New_Gradient_Swatch_4-10" cx="349.31" cy="290.56" r="8.79" xlink:href="#New_Gradient_Swatch_4"/><radialGradient id="New_Gradient_Swatch_4-11" cx="349.31" cy="342.08" r="8.79" xlink:href="#New_Gradient_Swatch_4"/><radialGradient id="New_Gradient_Swatch_4-12" cx="349.31" cy="274.52" r="8.07" xlink:href="#New_Gradient_Swatch_4"/><radialGradient id="New_Gradient_Swatch_4-13" cx="349.31" cy="359.25" r="8.79" xlink:href="#New_Gradient_Swatch_4"/><radialGradient id="New_Gradient_Swatch_4-14" cx="4.56" cy="238.91" r="7.56" xlink:href="#New_Gradient_Swatch_4"/><radialGradient id="New_Gradient_Swatch_4-15" cx="4.56" cy="253.69" r="7.56" xlink:href="#New_Gradient_Swatch_4"/><radialGradient id="New_Gradient_Swatch_4-16" cx="4.56" cy="299.17" r="8.29" xlink:href="#New_Gradient_Swatch_4"/><radialGradient id="New_Gradient_Swatch_4-17" cx="4.56" cy="224.13" r="7.56" xlink:href="#New_Gradient_Swatch_4"/><radialGradient id="New_Gradient_Swatch_4-18" cx="4.56" cy="268.48" r="7.56" xlink:href="#New_Gradient_Swatch_4"/><radialGradient id="New_Gradient_Swatch_4-19" cx="4.56" cy="210.32" r="6.94" xlink:href="#New_Gradient_Swatch_4"/><radialGradient id="New_Gradient_Swatch_4-20" cx="4.56" cy="283.26" r="7.56" xlink:href="#New_Gradient_Swatch_4"/><radialGradient id="New_Gradient_Swatch_4-21" cx="304.9" cy="7.37" r="6.48" xlink:href="#New_Gradient_Swatch_4"/><radialGradient id="New_Gradient_Swatch_4-22" cx="292.24" cy="7.37" r="6.48" xlink:href="#New_Gradient_Swatch_4"/><radialGradient id="New_Gradient_Swatch_4-23" cx="253.29" cy="7.37" r="7.1" xlink:href="#New_Gradient_Swatch_4"/><radialGradient id="New_Gradient_Swatch_4-24" cx="317.57" cy="7.37" r="6.48" xlink:href="#New_Gradient_Swatch_4"/><radialGradient id="New_Gradient_Swatch_4-25" cx="279.58" cy="7.37" r="6.48" xlink:href="#New_Gradient_Swatch_4"/><radialGradient id="New_Gradient_Swatch_4-26" cx="329.39" cy="7.37" r="5.95" xlink:href="#New_Gradient_Swatch_4"/><radialGradient id="New_Gradient_Swatch_4-27" cx="266.92" cy="7.37" r="6.48" xlink:href="#New_Gradient_Swatch_4"/><radialGradient id="New_Gradient_Swatch_4-28" cx="128.7" cy="53.84" r="77.62" xlink:href="#New_Gradient_Swatch_4"/><radialGradient id="New_Gradient_Swatch_4-29" cx="37.65" cy="94.35" r="2.53" xlink:href="#New_Gradient_Swatch_4"/><radialGradient id="New_Gradient_Swatch_4-30" cx="4.51" cy="418.36" r="2.53" xlink:href="#New_Gradient_Swatch_4"/><radialGradient id="New_Gradient_Swatch_4-31" cx="332.51" cy="367.27" r="2.53" xlink:href="#New_Gradient_Swatch_4"/><radialGradient id="New_Gradient_Swatch_4-32" cx="340.34" cy="299.15" r="48.27" xlink:href="#New_Gradient_Swatch_4"/><radialGradient id="New_Gradient_Swatch_4-33" cx="114.89" cy="447.12" r="80.5" xlink:href="#New_Gradient_Swatch_4"/><radialGradient id="New_Gradient_Swatch_4-34" cx="309.04" cy="97.8" r="62.55" xlink:href="#New_Gradient_Swatch_4"/></defs><title>offer_01</title><g id="Layer_2" data-name="Layer 2"><g id="Layer_1-2" data-name="Layer 1"><polygon class="cls-1" points="354.25 465.84 340.63 449.62 340.63 268.41 354.25 256.15 354.25 2.21 351.68 2.21 339.59 12.64 247.43 12.64 226.58 0 14.03 0 14.03 36.46 25.29 41.98 25.29 193.16 14.03 198 14.03 468.11 354.25 468.11 354.25 465.84"/><path class="cls-2" d="M13.34,471.19V199.92l11.26-4.83V44.8L13.34,39.27V1.69H226.77l20.86,12.64h91.71L351.43,3.91h3.51V258.84L341.32,271.1V451.75L354.94,468v3.22Zm1.38-270.36v269H353.56v-1.33l-13.62-16.22V270.48l13.62-12.26V5.29h-1.62L339.85,15.72H247.24l-.17-.1L226.38,3.07H14.72V38.41L26,43.93V196Z"/><polygon class="cls-3" points="354.71 4.6 361.05 23.24 361.05 96.88 365.65 111.61 365.65 214.7 354.6 240.93 354.71 4.6"/><polygon class="cls-4" points="247.43 15.03 236.78 15.03 223.44 8.05 20.62 8.05 20.62 34.74 31.2 40.27 31.2 102.4 35.81 108.84 35.81 150.73 31.2 156.25 31.2 176.96 25.22 181.1 25.29 44.37 14.03 38.84 14.03 2.38 226.58 2.38 247.43 15.03"/><polygon class="cls-5" points="340.11 396.5 333.43 404.32 333.43 458.17 322.39 464.61 288.79 464.61 279.12 462.31 237.7 462.31 228.04 470.6 354.25 470.5 354.25 468.22 340.63 452 340.11 396.5"/><polygon class="cls-6" points="14.4 304.91 10.26 310.43 10.26 361.06 11.64 365.66 11.64 417.21 13.95 431.01 14.4 304.91"/><polygon class="cls-7" points="354.6 310.05 354.6 296.49 344.02 305.41 344.02 318.97 354.6 310.05"/><polygon class="cls-8" points="354.6 327.22 354.6 313.66 344.02 322.59 344.02 336.15 354.6 327.22"/><polygon class="cls-9" points="344.02 374.11 344.02 390.28 354.6 380.6 354.6 365.18 344.02 374.11"/><polygon class="cls-10" points="344.02 288.24 344.02 301.8 354.6 292.88 354.6 279.31 344.02 288.24"/><polygon class="cls-11" points="354.6 344.4 354.6 330.84 344.02 339.76 344.02 353.32 354.6 344.4"/><polygon class="cls-12" points="354.6 275.7 354.6 264.42 344.02 273.84 344.02 284.63 354.6 275.7"/><polygon class="cls-13" points="354.6 361.57 354.6 348.01 344.02 356.93 344.02 370.5 354.6 361.57"/><polygon class="cls-14" points="9.11 240.91 9.11 229.23 0 236.91 0 248.59 9.11 240.91"/><polygon class="cls-15" points="9.11 255.69 9.11 244.01 0 251.7 0 263.37 9.11 255.69"/><polygon class="cls-16" points="0 296.05 0 309.97 9.11 301.63 9.11 288.36 0 296.05"/><polygon class="cls-17" points="0 222.13 0 233.8 9.11 226.12 9.11 214.45 0 222.13"/><polygon class="cls-18" points="9.11 270.47 9.11 258.8 0 266.48 0 278.15 9.11 270.47"/><polygon class="cls-19" points="9.11 211.34 9.11 201.62 0 209.74 0 219.02 9.11 211.34"/><polygon class="cls-20" points="9.11 285.25 9.11 273.58 0 281.26 0 292.94 9.11 285.25"/><polygon class="cls-21" points="303.19 11.27 313.19 11.27 306.61 3.47 296.62 3.47 303.19 11.27"/><polygon class="cls-22" points="290.53 11.27 300.53 11.27 293.95 3.47 283.95 3.47 290.53 11.27"/><polygon class="cls-23" points="255.96 3.47 244.03 3.47 251.18 11.27 262.54 11.27 255.96 3.47"/><polygon class="cls-24" points="319.28 3.47 309.28 3.47 315.86 11.27 325.86 11.27 319.28 3.47"/><polygon class="cls-25" points="277.87 11.27 287.87 11.27 281.29 3.47 271.29 3.47 277.87 11.27"/><polygon class="cls-26" points="328.52 11.27 336.84 11.27 329.89 3.47 321.94 3.47 328.52 11.27"/><polygon class="cls-27" points="265.2 11.27 275.2 11.27 268.63 3.47 258.63 3.47 265.2 11.27"/><path class="cls-28" d="M26.72,33.36V13.57a.34.34,0,0,1,.34-.34H221.59a.39.39,0,0,1,.18,0l8.74,5.07a.34.34,0,1,1-.34.59l-8.67-5H27.41V33.16l10.17,5.42a.35.35,0,0,1,.18.31V94.12a.34.34,0,0,1-.34.34.35.35,0,0,1-.35-.34v-55L26.9,33.67A.35.35,0,0,1,26.72,33.36Z"/><path class="cls-29" d="M37.65,96.88a2.54,2.54,0,1,1,2.53-2.53A2.53,2.53,0,0,1,37.65,96.88Z"/><path class="cls-30" d="M4.51,420.89A2.53,2.53,0,1,1,7,418.36,2.53,2.53,0,0,1,4.51,420.89Z"/><path class="cls-31" d="M332.51,369.8a2.53,2.53,0,1,1,2.53-2.53A2.53,2.53,0,0,1,332.51,369.8Z"/><path class="cls-32" d="M332.17,366.58v-98a.33.33,0,0,1,.1-.25l15.55-15.09V231.73a.35.35,0,0,1,.34-.35.35.35,0,0,1,.35.35v21.63a.36.36,0,0,1-.11.25l-15.54,15.08v97.89a.35.35,0,0,1-.35.35A.35.35,0,0,1,332.17,366.58Z"/><path class="cls-33" d="M4.74,419.05a.69.69,0,0,1,1.34-.23L9.3,428a.57.57,0,0,1,0,.22v46.26h215a.69.69,0,1,1,0,1.38H8.65A.69.69,0,0,1,8,475.2V428.37l-3.18-9.09A.66.66,0,0,1,4.74,419.05Z"/><path class="cls-34" d="M270.26,21.86a.35.35,0,0,1,.35-.35h68.05l8.69-3.2a.35.35,0,0,1,.47.33V177a.35.35,0,0,1-.7,0V19.13l-8.28,3.05a.2.2,0,0,1-.11,0H270.61A.35.35,0,0,1,270.26,21.86Z"/><polygon class="cls-3" points="354.71 4.6 361.05 23.24 361.05 96.88 365.65 111.61 365.65 214.7 354.6 240.93 354.71 4.6"/><polygon class="cls-4" points="247.43 15.03 236.78 15.03 223.44 8.05 20.62 8.05 20.62 34.74 31.2 40.27 31.2 102.4 35.81 108.84 35.81 150.73 31.2 156.25 31.2 176.96 25.22 181.1 25.29 44.37 14.03 38.84 14.03 2.38 226.58 2.38 247.43 15.03"/><polygon class="cls-5" points="340.11 396.5 333.43 404.32 333.43 458.17 322.39 464.61 288.79 464.61 279.12 462.31 237.7 462.31 228.04 470.6 354.25 470.5 354.25 468.22 340.63 452 340.11 396.5"/><polygon class="cls-6" points="14.4 304.91 10.26 310.43 10.26 361.06 11.64 365.66 11.64 417.21 13.95 431.01 14.4 304.91"/><polygon class="cls-7" points="354.6 310.05 354.6 296.49 344.02 305.41 344.02 318.97 354.6 310.05"/><polygon class="cls-8" points="354.6 327.22 354.6 313.66 344.02 322.59 344.02 336.15 354.6 327.22"/><polygon class="cls-9" points="344.02 374.11 344.02 390.28 354.6 380.6 354.6 365.18 344.02 374.11"/><polygon class="cls-10" points="344.02 288.24 344.02 301.8 354.6 292.88 354.6 279.31 344.02 288.24"/><polygon class="cls-11" points="354.6 344.4 354.6 330.84 344.02 339.76 344.02 353.32 354.6 344.4"/><polygon class="cls-12" points="354.6 275.7 354.6 264.42 344.02 273.84 344.02 284.63 354.6 275.7"/><polygon class="cls-13" points="354.6 361.57 354.6 348.01 344.02 356.93 344.02 370.5 354.6 361.57"/><polygon class="cls-14" points="9.11 240.91 9.11 229.23 0 236.91 0 248.59 9.11 240.91"/><polygon class="cls-15" points="9.11 255.69 9.11 244.01 0 251.7 0 263.37 9.11 255.69"/><polygon class="cls-16" points="0 296.05 0 309.97 9.11 301.63 9.11 288.36 0 296.05"/><polygon class="cls-17" points="0 222.13 0 233.8 9.11 226.12 9.11 214.45 0 222.13"/><polygon class="cls-18" points="9.11 270.47 9.11 258.8 0 266.48 0 278.15 9.11 270.47"/><polygon class="cls-19" points="9.11 211.34 9.11 201.62 0 209.74 0 219.02 9.11 211.34"/><polygon class="cls-20" points="9.11 285.25 9.11 273.58 0 281.26 0 292.94 9.11 285.25"/><polygon class="cls-21" points="303.19 11.27 313.19 11.27 306.61 3.47 296.62 3.47 303.19 11.27"/><polygon class="cls-22" points="290.53 11.27 300.53 11.27 293.95 3.47 283.95 3.47 290.53 11.27"/><polygon class="cls-23" points="255.96 3.47 244.03 3.47 251.18 11.27 262.54 11.27 255.96 3.47"/><polygon class="cls-24" points="319.28 3.47 309.28 3.47 315.86 11.27 325.86 11.27 319.28 3.47"/><polygon class="cls-25" points="277.87 11.27 287.87 11.27 281.29 3.47 271.29 3.47 277.87 11.27"/><polygon class="cls-26" points="328.52 11.27 336.84 11.27 329.89 3.47 321.94 3.47 328.52 11.27"/><polygon class="cls-27" points="265.2 11.27 275.2 11.27 268.63 3.47 258.63 3.47 265.2 11.27"/><path class="cls-29" d="M37.65,96.88a2.54,2.54,0,1,1,2.53-2.53A2.53,2.53,0,0,1,37.65,96.88Z"/><path class="cls-30" d="M4.51,420.89A2.53,2.53,0,1,1,7,418.36,2.53,2.53,0,0,1,4.51,420.89Z"/><path class="cls-31" d="M332.51,369.8a2.53,2.53,0,1,1,2.53-2.53A2.53,2.53,0,0,1,332.51,369.8Z"/></g></g></svg>