<svg xmlns="http://www.w3.org/2000/svg" xmlns:xlink="http://www.w3.org/1999/xlink" viewBox="0 0 484.44 484.44"><defs><style>.cls-1{fill:#00d0ff;}.cls-2{fill:url(#New_Gradient_Swatch_5);}.cls-3{fill:url(#New_Gradient_Swatch_5-2);}.cls-4{fill:url(#New_Gradient_Swatch_5-3);}.cls-5{fill:url(#New_Gradient_Swatch_5-4);}.cls-6{fill:url(#New_Gradient_Swatch_5-5);}.cls-7{fill:url(#New_Gradient_Swatch_5-6);}.cls-8{fill:url(#New_Gradient_Swatch_5-7);}.cls-9{fill:url(#New_Gradient_Swatch_5-8);}.cls-10{fill:url(#New_Gradient_Swatch_5-9);}.cls-11{fill:url(#New_Gradient_Swatch_5-10);}.cls-12{fill:url(#New_Gradient_Swatch_5-11);}</style><linearGradient id="New_Gradient_Swatch_5" x1="299.02" y1="239.4" x2="422.13" y2="239.4" gradientTransform="matrix(-1, 0, 0, 1, 488.44, 0)" gradientUnits="userSpaceOnUse"><stop offset="0" stop-color="#11e5b3"/><stop offset="0.14" stop-color="#15dcb8"/><stop offset="0.36" stop-color="#21c4c6"/><stop offset="0.64" stop-color="#359edc"/><stop offset="0.97" stop-color="#4f68fb"/><stop offset="1" stop-color="#5263fe"/></linearGradient><linearGradient id="New_Gradient_Swatch_5-2" x1="354.32" y1="239.4" x2="448.08" y2="239.4" xlink:href="#New_Gradient_Swatch_5"/><linearGradient id="New_Gradient_Swatch_5-3" x1="113.97" y1="239.4" x2="342.02" y2="239.4" gradientTransform="matrix(1, 0, 0, -1, 32.45, 478.8)" xlink:href="#New_Gradient_Swatch_5"/><linearGradient id="New_Gradient_Swatch_5-4" x1="67.73" y1="239.4" x2="166.46" y2="239.4" xlink:href="#New_Gradient_Swatch_5"/><linearGradient id="New_Gradient_Swatch_5-5" x1="100.68" y1="239.4" x2="181.7" y2="239.4" xlink:href="#New_Gradient_Swatch_5"/><linearGradient id="New_Gradient_Swatch_5-6" x1="66.3" y1="283.93" x2="99.42" y2="283.93" xlink:href="#New_Gradient_Swatch_5"/><linearGradient id="New_Gradient_Swatch_5-7" x1="66.3" y1="194.88" x2="99.42" y2="194.88" xlink:href="#New_Gradient_Swatch_5"/><linearGradient id="New_Gradient_Swatch_5-8" x1="49.33" y1="239.4" x2="178.49" y2="239.4" xlink:href="#New_Gradient_Swatch_5"/><linearGradient id="New_Gradient_Swatch_5-9" x1="284.92" y1="239.34" x2="341.87" y2="239.34" xlink:href="#New_Gradient_Swatch_5"/><linearGradient id="New_Gradient_Swatch_5-10" x1="84.08" y1="216.9" x2="186.61" y2="216.9" xlink:href="#New_Gradient_Swatch_5"/><linearGradient id="New_Gradient_Swatch_5-11" x1="84.08" y1="261.91" x2="186.61" y2="261.91" xlink:href="#New_Gradient_Swatch_5"/></defs><title>pagination_arrow_previous_1</title><g id="Layer_2" data-name="Layer 2"><g id="Layer_1-2" data-name="Layer 1"><path class="cls-1" d="M449.25,146.2a228.63,228.63,0,0,0-36.42-55.46l10.23-10.23a241.64,241.64,0,0,1,39.7,60.37Z"/><path class="cls-1" d="M393.7,71.61a228.2,228.2,0,0,0-48.17-32.88l5.8-13.33a242.66,242.66,0,0,1,52.6,36Z"/><path class="cls-1" d="M470,228.69a227.12,227.12,0,0,0-10.82-57.31l13.52-5.32a242.41,242.41,0,0,1,11.76,62.63Z"/><path class="cls-1" d="M456.52,320.73a227,227,0,0,0,13.46-65h14.46a241.84,241.84,0,0,1-14.62,70.76Z"/><path class="cls-1" d="M61.38,80.51,71.61,90.74a228.2,228.2,0,0,0-32.88,48.17l-13.33-5.8A242.66,242.66,0,0,1,61.38,80.51Z"/><path class="cls-1" d="M146.2,35.19A228.63,228.63,0,0,0,90.74,71.61L80.51,61.38a242,242,0,0,1,60.37-39.71Z"/><path class="cls-1" d="M320.72,27.91a227.2,227.2,0,0,0-65-13.45V0a242.15,242.15,0,0,1,70.76,14.61Z"/><path class="cls-1" d="M228.69,14.46a227.12,227.12,0,0,0-57.31,10.82l-5.32-13.52A242.41,242.41,0,0,1,228.69,0Z"/><path class="cls-1" d="M255.75,470a227.29,227.29,0,0,0,57.31-10.82l5.32,13.52a242.41,242.41,0,0,1-62.63,11.76Z"/><path class="cls-1" d="M14.46,255.75a227.12,227.12,0,0,0,10.82,57.31l-13.52,5.32A242.41,242.41,0,0,1,0,255.75Z"/><path class="cls-1" d="M27.91,163.71a227.34,227.34,0,0,0-13.45,65H0a242.15,242.15,0,0,1,14.61-70.76Z"/><path class="cls-1" d="M412.83,393.7a228.2,228.2,0,0,0,32.88-48.17l13.33,5.8a242.66,242.66,0,0,1-36,52.6Z"/><path class="cls-1" d="M35.19,338.24A228.34,228.34,0,0,0,71.61,393.7L61.38,403.93a242,242,0,0,1-39.71-60.37Z"/><path class="cls-1" d="M338.24,449.25a228.63,228.63,0,0,0,55.46-36.42l10.23,10.23a242,242,0,0,1-60.37,39.71Z"/><path class="cls-1" d="M163.73,456.49a226.81,226.81,0,0,0,65,13.46v14.49a241.84,241.84,0,0,1-70.76-14.62Z"/><path class="cls-1" d="M90.74,412.83A228.72,228.72,0,0,0,112.62,430v.56h.79a228.79,228.79,0,0,0,25.52,15.1L133.11,459a242.66,242.66,0,0,1-52.6-36Z"/><polygon class="cls-2" points="66.31 239.4 189.42 310.48 189.42 168.32 66.31 239.4"/><path class="cls-3" d="M129.55,290.19a4.56,4.56,0,0,0,2.29-8.51L58.6,239.4l73.24-42.28a4.56,4.56,0,1,0-4.57-7.9L40.36,239.4l86.91,50.18A4.51,4.51,0,0,0,129.55,290.19Z"/><rect class="cls-4" x="146.42" y="233.75" width="228.05" height="11.3" transform="translate(520.89 478.8) rotate(180)"/><path class="cls-5" d="M334.71,261.45h86L408,239.4l12.73-22.05h-86L322,239.4ZM418,259.87H335.62L323.8,239.4l11.82-20.47H418L406.16,239.4Z"/><polygon class="cls-6" points="317.05 221.54 387.76 221.54 377.45 239.4 387.76 257.26 317.05 257.26 306.74 239.4 317.05 221.54"/><polygon class="cls-7" points="393.23 287.85 422.14 287.85 417.93 283.93 422.14 280.01 393.23 280.01 389.01 283.93 393.23 287.85"/><polygon class="cls-8" points="393.23 198.8 422.14 198.8 417.93 194.88 422.14 190.96 393.23 190.96 389.01 194.88 393.23 198.8"/><path class="cls-9" d="M326.6,274H439.11l-16.66-34.6,16.66-34.6H326.6L310,239.4Zm107.48-3.16H328.59L313.46,239.4,328.59,208H434.08L418.94,239.4Z"/><path class="cls-10" d="M203.52,301.28V177.41l-57,62.65ZM198.27,191v97L153.69,240Z"/><polygon class="cls-11" points="303.44 239.83 326.61 195.79 404.36 195.79 404.36 193.97 325.51 193.97 301.82 238.98 303.44 239.83"/><polygon class="cls-12" points="325.51 284.84 404.36 284.84 404.36 283.01 326.61 283.01 303.44 238.98 301.82 239.83 325.51 284.84"/></g></g></svg>