<svg xmlns="http://www.w3.org/2000/svg" xmlns:xlink="http://www.w3.org/1999/xlink" viewBox="0 0 484.44 484.44"><defs><style>.cls-1{fill:#00d0ff;}.cls-2{fill:url(#New_Gradient_Swatch_5);}.cls-3{fill:url(#New_Gradient_Swatch_5-2);}.cls-4{fill:url(#New_Gradient_Swatch_5-3);}.cls-5{fill:url(#New_Gradient_Swatch_5-4);}.cls-6{fill:url(#New_Gradient_Swatch_5-5);}.cls-7{fill:url(#New_Gradient_Swatch_5-6);}.cls-8{fill:url(#New_Gradient_Swatch_5-7);}.cls-9{fill:url(#New_Gradient_Swatch_5-8);}.cls-10{fill:url(#New_Gradient_Swatch_5-9);}.cls-11{fill:url(#New_Gradient_Swatch_5-10);}.cls-12{fill:url(#New_Gradient_Swatch_5-11);}</style><linearGradient id="New_Gradient_Swatch_5" x1="297.02" y1="239.4" x2="420.13" y2="239.4" gradientTransform="translate(-4.97)" gradientUnits="userSpaceOnUse"><stop offset="0" stop-color="#11e5b3"/><stop offset="0.14" stop-color="#15dcb8"/><stop offset="0.36" stop-color="#21c4c6"/><stop offset="0.64" stop-color="#359edc"/><stop offset="0.97" stop-color="#4f68fb"/><stop offset="1" stop-color="#5263fe"/></linearGradient><linearGradient id="New_Gradient_Swatch_5-2" x1="352.32" y1="239.4" x2="446.08" y2="239.4" xlink:href="#New_Gradient_Swatch_5"/><linearGradient id="New_Gradient_Swatch_5-3" x1="111.97" y1="239.4" x2="340.02" y2="239.4" xlink:href="#New_Gradient_Swatch_5"/><linearGradient id="New_Gradient_Swatch_5-4" x1="65.73" y1="239.4" x2="164.46" y2="239.4" xlink:href="#New_Gradient_Swatch_5"/><linearGradient id="New_Gradient_Swatch_5-5" x1="98.68" y1="239.4" x2="179.7" y2="239.4" xlink:href="#New_Gradient_Swatch_5"/><linearGradient id="New_Gradient_Swatch_5-6" x1="64.3" y1="283.93" x2="97.42" y2="283.93" xlink:href="#New_Gradient_Swatch_5"/><linearGradient id="New_Gradient_Swatch_5-7" x1="64.3" y1="194.88" x2="97.42" y2="194.88" xlink:href="#New_Gradient_Swatch_5"/><linearGradient id="New_Gradient_Swatch_5-8" x1="47.33" y1="239.4" x2="176.49" y2="239.4" xlink:href="#New_Gradient_Swatch_5"/><linearGradient id="New_Gradient_Swatch_5-9" x1="282.92" y1="239.34" x2="339.87" y2="239.34" xlink:href="#New_Gradient_Swatch_5"/><linearGradient id="New_Gradient_Swatch_5-10" x1="82.08" y1="216.9" x2="184.61" y2="216.9" xlink:href="#New_Gradient_Swatch_5"/><linearGradient id="New_Gradient_Swatch_5-11" x1="82.08" y1="261.91" x2="184.61" y2="261.91" xlink:href="#New_Gradient_Swatch_5"/></defs><title>pagination_arrow_next_2</title><g id="Layer_2" data-name="Layer 2"><g id="Layer_1-2" data-name="Layer 1"><path class="cls-1" d="M449.25,146.2a228.63,228.63,0,0,0-36.42-55.46l10.23-10.23a241.64,241.64,0,0,1,39.7,60.37Z"/><path class="cls-1" d="M393.7,71.61a228.2,228.2,0,0,0-48.17-32.88l5.8-13.33a242.66,242.66,0,0,1,52.6,36Z"/><path class="cls-1" d="M470,228.69a227.12,227.12,0,0,0-10.82-57.31l13.52-5.32a242.41,242.41,0,0,1,11.76,62.63Z"/><path class="cls-1" d="M456.52,320.73a227,227,0,0,0,13.46-65h14.46a241.84,241.84,0,0,1-14.62,70.76Z"/><path class="cls-1" d="M61.38,80.51,71.61,90.74a228.2,228.2,0,0,0-32.88,48.17l-13.33-5.8A242.66,242.66,0,0,1,61.38,80.51Z"/><path class="cls-1" d="M146.2,35.19A228.63,228.63,0,0,0,90.74,71.61L80.51,61.38a242,242,0,0,1,60.37-39.71Z"/><path class="cls-1" d="M320.72,27.91a227.2,227.2,0,0,0-65-13.45V0a242.15,242.15,0,0,1,70.76,14.61Z"/><path class="cls-1" d="M228.69,14.46a227.12,227.12,0,0,0-57.31,10.82l-5.32-13.52A242.41,242.41,0,0,1,228.69,0Z"/><path class="cls-1" d="M255.75,470a227.29,227.29,0,0,0,57.31-10.82l5.32,13.52a242.41,242.41,0,0,1-62.63,11.76Z"/><path class="cls-1" d="M14.46,255.75a227.12,227.12,0,0,0,10.82,57.31l-13.52,5.32A242.41,242.41,0,0,1,0,255.75Z"/><path class="cls-1" d="M27.91,163.71a227.34,227.34,0,0,0-13.45,65H0a242.15,242.15,0,0,1,14.61-70.76Z"/><path class="cls-1" d="M412.83,393.7a228.2,228.2,0,0,0,32.88-48.17l13.33,5.8a242.66,242.66,0,0,1-36,52.6Z"/><path class="cls-1" d="M35.19,338.24A228.34,228.34,0,0,0,71.61,393.7L61.38,403.93a242,242,0,0,1-39.71-60.37Z"/><path class="cls-1" d="M338.24,449.25a228.63,228.63,0,0,0,55.46-36.42l10.23,10.23a242,242,0,0,1-60.37,39.71Z"/><path class="cls-1" d="M163.73,456.49a226.81,226.81,0,0,0,65,13.46v14.49a241.84,241.84,0,0,1-70.76-14.62Z"/><path class="cls-1" d="M90.74,412.83A228.72,228.72,0,0,0,112.62,430v.56h.79a228.79,228.79,0,0,0,25.52,15.1L133.11,459a242.66,242.66,0,0,1-52.6-36Z"/><polygon class="cls-2" points="415.16 239.4 292.05 310.48 292.05 168.32 415.16 239.4"/><path class="cls-3" d="M351.92,290.19a4.56,4.56,0,0,1-2.29-8.51l73.24-42.28-73.24-42.28a4.56,4.56,0,1,1,4.56-7.9l86.92,50.18-86.92,50.18A4.48,4.48,0,0,1,351.92,290.19Z"/><rect class="cls-4" x="107" y="233.75" width="228.05" height="11.3"/><path class="cls-5" d="M146.76,261.45h-86l12.74-22L60.75,217.35h86l12.73,22.05Zm-83.27-1.58h82.36l11.82-20.47-11.82-20.47H63.49L75.31,239.4Z"/><polygon class="cls-6" points="164.42 221.54 93.7 221.54 104.02 239.4 93.7 257.26 164.42 257.26 174.73 239.4 164.42 221.54"/><polygon class="cls-7" points="88.24 287.85 59.33 287.85 63.54 283.93 59.33 280.01 88.24 280.01 92.45 283.93 88.24 287.85"/><polygon class="cls-8" points="88.24 198.8 59.33 198.8 63.54 194.88 59.33 190.96 88.24 190.96 92.45 194.88 88.24 198.8"/><path class="cls-9" d="M154.87,274H42.36L59,239.4,42.36,204.8H154.87l16.65,34.6ZM47.39,270.84H152.88L168,239.4,152.88,208H47.39L62.52,239.4Z"/><path class="cls-10" d="M278,301.28V177.41l56.95,62.65ZM283.2,191v97L327.77,240Z"/><polygon class="cls-11" points="178.03 239.83 154.85 195.79 77.11 195.79 77.11 193.97 155.96 193.97 179.64 238.98 178.03 239.83"/><polygon class="cls-12" points="155.96 284.84 77.11 284.84 77.11 283.01 154.85 283.01 178.03 238.98 179.64 239.83 155.96 284.84"/></g></g></svg>