<svg xmlns="http://www.w3.org/2000/svg" xmlns:xlink="http://www.w3.org/1999/xlink" viewBox="0 0 494.32 232.61"><defs><style>.cls-1{mask:url(#mask);filter:url(#luminosity-noclip-3);}.cls-2,.cls-4{mix-blend-mode:multiply;}.cls-2{fill:url(#Безымянный_градиент_73);}.cls-3{mask:url(#mask-2);filter:url(#luminosity-noclip-4);}.cls-4{fill:url(#Безымянный_градиент_72);}.cls-11,.cls-12,.cls-13,.cls-14,.cls-15,.cls-16,.cls-17,.cls-18,.cls-19,.cls-5,.cls-8{fill:#00d0ff;}.cls-6{mask:url(#mask-3);}.cls-7{fill:url(#Безымянный_градиент_30);}.cls-8{opacity:0.2;}.cls-9{mask:url(#mask-4);}.cls-10{fill:url(#Безымянный_градиент_10);}.cls-11{opacity:0.9;}.cls-12{opacity:0.8;}.cls-13{opacity:0.7;}.cls-14{opacity:0.6;}.cls-15{opacity:0.5;}.cls-16{opacity:0.4;}.cls-17{opacity:0.3;}.cls-18{opacity:0.1;}.cls-19{opacity:0.05;}.cls-20{fill:url(#New_Gradient_Swatch_5);}.cls-21{fill:url(#New_Gradient_Swatch_5-2);}.cls-22{fill:url(#New_Gradient_Swatch_5-3);}.cls-23{fill:url(#New_Gradient_Swatch_1);}.cls-24{fill:url(#New_Gradient_Swatch_1-2);}.cls-25{fill:url(#New_Gradient_Swatch_1-3);}.cls-26{fill:url(#New_Gradient_Swatch_1-4);}.cls-27{fill:url(#New_Gradient_Swatch_5-4);}.cls-28{fill:url(#New_Gradient_Swatch_5-5);}.cls-29{fill:url(#New_Gradient_Swatch_5-6);}.cls-30{fill:url(#New_Gradient_Swatch_1-5);}.cls-31{fill:url(#New_Gradient_Swatch_1-6);}.cls-32{fill:url(#New_Gradient_Swatch_1-7);}.cls-33{filter:url(#luminosity-noclip-2);}.cls-34{filter:url(#luminosity-noclip);}</style><filter id="luminosity-noclip" x="67.09" y="-8330.73" width="397.98" height="32766" filterUnits="userSpaceOnUse" color-interpolation-filters="sRGB"><feFlood flood-color="#fff" result="bg"/><feBlend in="SourceGraphic" in2="bg"/></filter><mask id="mask" x="67.09" y="-8330.73" width="397.98" height="32766" maskUnits="userSpaceOnUse"><g class="cls-34"/></mask><linearGradient id="Безымянный_градиент_73" x1="266.08" y1="180.49" x2="266.08" y2="89.83" gradientUnits="userSpaceOnUse"><stop offset="0" stop-color="#fff"/><stop offset="0" stop-color="#f6f6f6"/><stop offset="0.02" stop-color="#c8c8c8"/><stop offset="0.04" stop-color="#9d9d9d"/><stop offset="0.06" stop-color="#777"/><stop offset="0.08" stop-color="#575757"/><stop offset="0.11" stop-color="#3b3b3b"/><stop offset="0.14" stop-color="#252525"/><stop offset="0.17" stop-color="#141414"/><stop offset="0.21" stop-color="#090909"/><stop offset="0.27" stop-color="#020202"/><stop offset="0.43"/><stop offset="0.64" stop-color="#020202"/><stop offset="0.72" stop-color="#090909"/><stop offset="0.77" stop-color="#141414"/><stop offset="0.82" stop-color="#252525"/><stop offset="0.86" stop-color="#3b3b3b"/><stop offset="0.89" stop-color="#575757"/><stop offset="0.92" stop-color="#777"/><stop offset="0.95" stop-color="#9d9d9d"/><stop offset="0.97" stop-color="#c8c8c8"/><stop offset="1" stop-color="#f6f6f6"/><stop offset="1" stop-color="#fff"/></linearGradient><filter id="luminosity-noclip-2" x="6" y="-8330.73" width="147.29" height="32766" filterUnits="userSpaceOnUse" color-interpolation-filters="sRGB"><feFlood flood-color="#fff" result="bg"/><feBlend in="SourceGraphic" in2="bg"/></filter><mask id="mask-2" x="6" y="-8330.73" width="147.29" height="32766" maskUnits="userSpaceOnUse"><g class="cls-33"/></mask><linearGradient id="Безымянный_градиент_72" x1="6" y1="187.28" x2="402.07" y2="187.28" gradientUnits="userSpaceOnUse"><stop offset="0" stop-color="#fff"/><stop offset="0.01" stop-color="#f6f6f6"/><stop offset="0.05" stop-color="#c8c8c8"/><stop offset="0.09" stop-color="#9d9d9d"/><stop offset="0.14" stop-color="#777"/><stop offset="0.2" stop-color="#575757"/><stop offset="0.25" stop-color="#3b3b3b"/><stop offset="0.32" stop-color="#252525"/><stop offset="0.4" stop-color="#141414"/><stop offset="0.49" stop-color="#090909"/><stop offset="0.63" stop-color="#020202"/><stop offset="1"/></linearGradient><filter id="luminosity-noclip-3" x="67.09" y="89.83" width="397.98" height="90.67" filterUnits="userSpaceOnUse" color-interpolation-filters="sRGB"><feFlood flood-color="#fff" result="bg"/><feBlend in="SourceGraphic" in2="bg"/></filter><mask id="mask-3" x="67.09" y="89.83" width="397.98" height="90.67" maskUnits="userSpaceOnUse"><g class="cls-1"><path class="cls-2" d="M465.07,166.18a14.34,14.34,0,0,1-14.38,14.31H81.48a14.34,14.34,0,0,1-14.39-14.31v-62A14.35,14.35,0,0,1,81.48,89.83H450.69a14.35,14.35,0,0,1,14.38,14.31Z"/></g></mask><linearGradient id="Безымянный_градиент_30" x1="266.08" y1="180.49" x2="266.08" y2="89.83" gradientUnits="userSpaceOnUse"><stop offset="0" stop-color="#00d0ff"/><stop offset="0.01" stop-color="#01cdf6"/><stop offset="0.04" stop-color="#05c5db"/><stop offset="0.07" stop-color="#08bec5"/><stop offset="0.11" stop-color="#0bb9b4"/><stop offset="0.16" stop-color="#0db6a9"/><stop offset="0.23" stop-color="#0eb4a2"/><stop offset="0.43" stop-color="#0eb3a0"/><stop offset="0.69" stop-color="#0eb4a2"/><stop offset="0.78" stop-color="#0db6a9"/><stop offset="0.85" stop-color="#0bb9b4"/><stop offset="0.9" stop-color="#08bec5"/><stop offset="0.95" stop-color="#05c5db"/><stop offset="0.99" stop-color="#01cdf6"/><stop offset="1" stop-color="#00d0ff"/></linearGradient><filter id="luminosity-noclip-4" x="6" y="141.95" width="147.29" height="90.67" filterUnits="userSpaceOnUse" color-interpolation-filters="sRGB"><feFlood flood-color="#fff" result="bg"/><feBlend in="SourceGraphic" in2="bg"/></filter><mask id="mask-4" x="6" y="141.95" width="147.29" height="90.67" maskUnits="userSpaceOnUse"><g class="cls-3"><path class="cls-4" d="M153.29,205h-77a27.71,27.71,0,0,1-27.68-27.68V142H20.31A14.31,14.31,0,0,0,6,156.26v62a14.31,14.31,0,0,0,14.31,14.31h133Z"/></g></mask><linearGradient id="Безымянный_градиент_10" x1="6" y1="187.28" x2="402.07" y2="187.28" gradientUnits="userSpaceOnUse"><stop offset="0" stop-color="#00d0ff"/><stop offset="0.02" stop-color="#01cdf6"/><stop offset="0.09" stop-color="#05c5db"/><stop offset="0.17" stop-color="#08bec5"/><stop offset="0.27" stop-color="#0bb9b4"/><stop offset="0.38" stop-color="#0db6a9"/><stop offset="0.55" stop-color="#0eb4a2"/><stop offset="1" stop-color="#0eb3a0"/></linearGradient><linearGradient id="New_Gradient_Swatch_5" x1="163.13" y1="55.37" x2="185.74" y2="55.37" gradientUnits="userSpaceOnUse"><stop offset="0" stop-color="#11e5b3"/><stop offset="0.14" stop-color="#15dcb8"/><stop offset="0.36" stop-color="#21c4c6"/><stop offset="0.64" stop-color="#359edc"/><stop offset="0.97" stop-color="#4f68fb"/><stop offset="1" stop-color="#5263fe"/></linearGradient><linearGradient id="New_Gradient_Swatch_5-2" x1="186.94" y1="55.37" x2="209.55" y2="55.37" xlink:href="#New_Gradient_Swatch_5"/><linearGradient id="New_Gradient_Swatch_5-3" x1="210.75" y1="55.37" x2="231.15" y2="55.37" xlink:href="#New_Gradient_Swatch_5"/><linearGradient id="New_Gradient_Swatch_1" x1="280.51" y1="55.37" x2="303.12" y2="55.37" gradientUnits="userSpaceOnUse"><stop offset="0" stop-color="#cf52fe"/><stop offset="1" stop-color="#19dbb6"/></linearGradient><linearGradient id="New_Gradient_Swatch_1-2" x1="304.32" y1="55.37" x2="326.93" y2="55.37" xlink:href="#New_Gradient_Swatch_1"/><linearGradient id="New_Gradient_Swatch_1-3" x1="328.12" y1="55.37" x2="350.73" y2="55.37" xlink:href="#New_Gradient_Swatch_1"/><linearGradient id="New_Gradient_Swatch_1-4" x1="351.93" y1="55.37" x2="372.33" y2="55.37" xlink:href="#New_Gradient_Swatch_1"/><linearGradient id="New_Gradient_Swatch_5-4" x1="112.67" y1="29.07" x2="146.11" y2="29.07" xlink:href="#New_Gradient_Swatch_5"/><linearGradient id="New_Gradient_Swatch_5-5" x1="116.33" y1="18.42" x2="142.47" y2="18.42" xlink:href="#New_Gradient_Swatch_5"/><linearGradient id="New_Gradient_Swatch_5-6" x1="115.14" y1="33.9" x2="143.66" y2="33.9" xlink:href="#New_Gradient_Swatch_5"/><linearGradient id="New_Gradient_Swatch_1-5" x1="385.09" y1="21.68" x2="418.53" y2="21.68" xlink:href="#New_Gradient_Swatch_1"/><linearGradient id="New_Gradient_Swatch_1-6" x1="388.74" y1="32.33" x2="414.87" y2="32.33" xlink:href="#New_Gradient_Swatch_1"/><linearGradient id="New_Gradient_Swatch_1-7" x1="387.55" y1="16.85" x2="416.07" y2="16.85" xlink:href="#New_Gradient_Swatch_1"/></defs><title>price_range_blue</title><g id="Layer_2" data-name="Layer 2"><g id="Layer_1-2" data-name="Layer 1"><polygon class="cls-5" points="492.65 59.51 492.65 57.91 493.13 57.91 492.65 57.55 492.65 47.64 489.65 45.08 488.97 44.49 488.97 54.75 486.07 52.55 452.03 52.55 449.41 54.23 437.54 54.23 434.98 57.22 434.4 57.91 488.97 57.91 488.97 103.22 494.32 96.17 494.32 62.13 492.65 59.51"/><polygon class="cls-5" points="43.44 53.2 41.84 53.2 41.84 52.73 41.48 53.2 31.57 53.2 29.01 56.2 28.43 56.89 38.68 56.89 36.48 59.78 36.48 93.83 38.16 96.44 38.16 108.31 41.15 110.87 41.84 111.46 41.84 56.89 87.15 56.89 80.1 51.53 46.06 51.53 43.44 53.2"/><g class="cls-6"><path class="cls-7" d="M465.07,166.18a14.34,14.34,0,0,1-14.38,14.31H81.48a14.34,14.34,0,0,1-14.39-14.31v-62A14.35,14.35,0,0,1,81.48,89.83H450.69a14.35,14.35,0,0,1,14.38,14.31Z"/></g><path class="cls-5" d="M448.85,89.83a14.32,14.32,0,0,1,14.32,14.31v62a14.31,14.31,0,0,1-14.32,14.31H81.41a14.31,14.31,0,0,1-14.32-14.31v-62A14.32,14.32,0,0,1,81.41,89.83H448.85m0-4.32H81.41a18.65,18.65,0,0,0-18.63,18.63v62a18.65,18.65,0,0,0,18.63,18.63H448.85a18.65,18.65,0,0,0,18.63-18.63v-62a18.65,18.65,0,0,0-18.63-18.63Z"/><path class="cls-8" d="M87.13,173.81H412.89V138.45a14.32,14.32,0,0,0-14.32-14.32H72.82V159.5A14.31,14.31,0,0,0,87.13,173.81Z"/><g class="cls-9"><path class="cls-10" d="M153.29,205h-77a27.71,27.71,0,0,1-27.68-27.68V142H20.31A14.31,14.31,0,0,0,6,156.26v62a14.31,14.31,0,0,0,14.31,14.31h133Z"/></g><path class="cls-5" d="M64.23,123a5.61,5.61,0,0,0-1.59-.23,6,6,0,0,0-6,6v12.9a5.95,5.95,0,0,0,7.55,5.74Z"/><path class="cls-5" d="M466.44,123a5.51,5.51,0,0,1,1.59-.23,6,6,0,0,1,6,6v12.9a6,6,0,0,1-6,6,5.87,5.87,0,0,1-1.59-.22Z"/><path class="cls-5" d="M58.82,137.4H42.28a.85.85,0,0,1-.86-.86V57a.86.86,0,0,1,.86-.87h105a.87.87,0,0,1,0,1.73H43.14v77.81H58.82a.86.86,0,0,1,0,1.72Z"/><path class="cls-5" d="M488.93,137.4H472.39a.86.86,0,1,1,0-1.72h15.68V57.87H384a.87.87,0,0,1,0-1.73h105a.87.87,0,0,1,.87.87v79.53A.86.86,0,0,1,488.93,137.4Z"/><path class="cls-5" d="M81.73,116.82a4.46,4.46,0,0,1-4.46,4.45h0a4.45,4.45,0,0,1-4.45-4.45V100.27a4.45,4.45,0,0,1,4.45-4.45h0a4.46,4.46,0,0,1,4.46,4.45Z"/><path class="cls-11" d="M94.76,116.82a4.46,4.46,0,0,1-4.46,4.45h0a4.45,4.45,0,0,1-4.45-4.45V100.27a4.45,4.45,0,0,1,4.45-4.45h0a4.46,4.46,0,0,1,4.46,4.45Z"/><path class="cls-12" d="M107.79,116.82a4.46,4.46,0,0,1-4.46,4.45h0a4.45,4.45,0,0,1-4.45-4.45V100.27a4.45,4.45,0,0,1,4.45-4.45h0a4.46,4.46,0,0,1,4.46,4.45Z"/><path class="cls-13" d="M120.82,116.82a4.46,4.46,0,0,1-4.46,4.45h0a4.45,4.45,0,0,1-4.45-4.45V100.27a4.45,4.45,0,0,1,4.45-4.45h0a4.46,4.46,0,0,1,4.46,4.45Z"/><path class="cls-14" d="M133.85,116.82a4.46,4.46,0,0,1-4.46,4.45h0a4.45,4.45,0,0,1-4.45-4.45V100.27a4.45,4.45,0,0,1,4.45-4.45h0a4.46,4.46,0,0,1,4.46,4.45Z"/><path class="cls-15" d="M146.88,116.82a4.45,4.45,0,0,1-4.45,4.45h0a4.46,4.46,0,0,1-4.46-4.45V100.27a4.46,4.46,0,0,1,4.46-4.45h0a4.45,4.45,0,0,1,4.45,4.45Z"/><path class="cls-16" d="M159.91,116.82a4.45,4.45,0,0,1-4.45,4.45h0a4.46,4.46,0,0,1-4.46-4.45V100.27a4.46,4.46,0,0,1,4.46-4.45h0a4.45,4.45,0,0,1,4.45,4.45Z"/><path class="cls-17" d="M172.94,116.82a4.45,4.45,0,0,1-4.45,4.45h0a4.46,4.46,0,0,1-4.46-4.45V100.27a4.46,4.46,0,0,1,4.46-4.45h0a4.45,4.45,0,0,1,4.45,4.45Z"/><path class="cls-8" d="M186,116.82a4.45,4.45,0,0,1-4.45,4.45h0a4.46,4.46,0,0,1-4.46-4.45V100.27a4.46,4.46,0,0,1,4.46-4.45h0a4.45,4.45,0,0,1,4.45,4.45Z"/><path class="cls-18" d="M199.1,116.82a4.45,4.45,0,0,1-4.45,4.45h0a4.45,4.45,0,0,1-4.45-4.45V100.27a4.45,4.45,0,0,1,4.45-4.45h0a4.45,4.45,0,0,1,4.45,4.45Z"/><path class="cls-19" d="M212.24,116.82a4.46,4.46,0,0,1-4.46,4.45h0a4.45,4.45,0,0,1-4.45-4.45V100.27a4.45,4.45,0,0,1,4.45-4.45h0a4.46,4.46,0,0,1,4.46,4.45Z"/><path class="cls-5" d="M167,226.89a4.46,4.46,0,0,1-4.46,4.45h0a4.45,4.45,0,0,1-4.45-4.45V210.35a4.46,4.46,0,0,1,4.45-4.46h0a4.46,4.46,0,0,1,4.46,4.46Z"/><path class="cls-11" d="M180,226.89a4.46,4.46,0,0,1-4.46,4.45h0a4.45,4.45,0,0,1-4.45-4.45V210.35a4.46,4.46,0,0,1,4.45-4.46h0a4.46,4.46,0,0,1,4.46,4.46Z"/><path class="cls-12" d="M193.05,226.89a4.46,4.46,0,0,1-4.46,4.45h0a4.45,4.45,0,0,1-4.45-4.45V210.35a4.46,4.46,0,0,1,4.45-4.46h0a4.46,4.46,0,0,1,4.46,4.46Z"/><path class="cls-13" d="M206.08,226.89a4.46,4.46,0,0,1-4.46,4.45h0a4.45,4.45,0,0,1-4.45-4.45V210.35a4.46,4.46,0,0,1,4.45-4.46h0a4.46,4.46,0,0,1,4.46,4.46Z"/><path class="cls-14" d="M219.11,226.89a4.46,4.46,0,0,1-4.46,4.45h0a4.45,4.45,0,0,1-4.45-4.45V210.35a4.46,4.46,0,0,1,4.45-4.46h0a4.46,4.46,0,0,1,4.46,4.46Z"/><path class="cls-15" d="M232.14,226.89a4.46,4.46,0,0,1-4.46,4.45h0a4.45,4.45,0,0,1-4.45-4.45V210.35a4.46,4.46,0,0,1,4.45-4.46h0a4.46,4.46,0,0,1,4.46,4.46Z"/><path class="cls-16" d="M245.17,226.89a4.46,4.46,0,0,1-4.46,4.45h0a4.45,4.45,0,0,1-4.45-4.45V210.35a4.46,4.46,0,0,1,4.45-4.46h0a4.46,4.46,0,0,1,4.46,4.46Z"/><path class="cls-17" d="M258.2,226.89a4.45,4.45,0,0,1-4.45,4.45h0a4.46,4.46,0,0,1-4.46-4.45V210.35a4.46,4.46,0,0,1,4.46-4.46h0a4.46,4.46,0,0,1,4.45,4.46Z"/><path class="cls-8" d="M271.23,226.89a4.45,4.45,0,0,1-4.45,4.45h0a4.46,4.46,0,0,1-4.46-4.45V210.35a4.46,4.46,0,0,1,4.46-4.46h0a4.46,4.46,0,0,1,4.45,4.46Z"/><path class="cls-18" d="M284.36,226.89a4.45,4.45,0,0,1-4.45,4.45h0a4.45,4.45,0,0,1-4.45-4.45V210.35a4.46,4.46,0,0,1,4.45-4.46h0a4.46,4.46,0,0,1,4.45,4.46Z"/><path class="cls-19" d="M297.5,226.89a4.46,4.46,0,0,1-4.46,4.45h0a4.45,4.45,0,0,1-4.45-4.45V210.35a4.46,4.46,0,0,1,4.45-4.46h0a4.46,4.46,0,0,1,4.46,4.46Z"/><path class="cls-5" d="M.43,216.66a.43.43,0,0,1-.43-.43V152.29a15.94,15.94,0,0,1,5.51-11.42c6.72-5.66,17-4.8,17.39-4.76H30a.43.43,0,0,1,0,.86H22.86c-.14,0-10.36-.86-16.8,4.56a15.12,15.12,0,0,0-5.2,10.79v63.91A.43.43,0,0,1,.43,216.66Z"/><path class="cls-5" d="M410.34,192.33a.44.44,0,0,1,0-.87h43.43c.66,0,16.82-1.15,19.13-18.71V155.63a.43.43,0,1,1,.86,0v17.18c-2.4,18.33-19.79,19.51-20,19.51Z"/><path class="cls-20" d="M181.3,51.69l4.44-4.49V63.54H181.3v-4H168.15v4h-5V54.3l5-2.61v7l2.66-3.58H181.3Zm0-4.49v4.49H168.15l-5-4.49Z"/><path class="cls-21" d="M191.36,51.69V53h18.19V63.54l-4.44-4.48V57.45H186.94V47.2Zm-4.42,11.85,4.42-4.48h13.75v4.48ZM209.55,47.2l-4.44,4.49H191.36V47.2Z"/><path class="cls-22" d="M215.16,59.06h16l-2.21,4.48H215.16l-4.41-4.48V47.2l4.41,4.49Zm16-11.86v4.49h-16V47.2Z"/><path class="cls-23" d="M280.51,47.2h18.17v4.49H284.93Zm0,16.34V53h5V63.54ZM303.12,47.2V59.06l-4.44,4.48H287.45V59.06h11.23V51.69Z"/><path class="cls-24" d="M308.73,51.69v7.37h16.32v4.48H308.73l-4.41-4.48V47.2Zm18.2-4.49-4.45,4.49H308.73V47.2ZM311.16,57.45V52.94h13.92l-3.34,4.51Z"/><path class="cls-25" d="M332.54,51.69V53h18.19V63.54l-4.44-4.48V57.45H328.12V47.2Zm-4.42,11.85,4.42-4.48h13.75v4.48ZM350.73,47.2l-4.44,4.49H332.54V47.2Z"/><path class="cls-26" d="M356.35,59.06h16l-2.21,4.48H356.35l-4.42-4.48V47.2l4.42,4.49Zm16-11.86v4.49h-16V47.2Z"/><polygon class="cls-27" points="112.67 48.57 117.31 48.52 129 35.27 141.01 48.22 146.12 48.16 128.91 9.56 112.67 48.57"/><path class="cls-28" d="M142.47,36.44l-4.58.07-8.78-11.44-8.55,11.7-4.23.06L129,0Zm-4.19-.73,3.05-.05L129,2.36,117.45,36l2.71,0,8.93-12.23Z"/><path class="cls-29" d="M143.66,50.54l-28.52.21,14-33.7Zm-28-.17,27.4-.2L129.16,18Z"/><polygon class="cls-30" points="418.53 2.17 413.89 2.23 402.2 15.48 390.19 2.53 385.09 2.59 402.3 41.19 418.53 2.17"/><path class="cls-31" d="M388.74,14.31l4.57-.07,8.79,11.44L410.64,14l4.23-.07L402.19,50.75Zm4.18.73-3.05,0,12.29,33.3,11.59-33.66-2.7,0L402.11,27Z"/><path class="cls-32" d="M387.55.21,416.07,0l-14,33.7Zm28,.17-27.4.2,13.94,32.17Z"/></g></g></svg>