<svg xmlns="http://www.w3.org/2000/svg" xmlns:xlink="http://www.w3.org/1999/xlink" viewBox="0 0 418.43 491.53"><defs><style>.cls-1,.cls-2,.cls-3,.cls-4,.cls-5,.cls-7{fill:#11e5b3;}.cls-2{opacity:0.35;}.cls-2,.cls-3,.cls-4,.cls-5,.cls-7{isolation:isolate;}.cls-3{opacity:0.7;}.cls-4{opacity:0.4;}.cls-5{opacity:0.2;}.cls-6{clip-path:url(#clip-path);}.cls-7{opacity:0.55;}</style><clipPath id="clip-path"><polygon class="cls-1" points="389.96 380.95 388.16 380.95 388.16 295.53 379.17 284.91 379.17 113.08 380.97 113.08 380.97 284.25 389.96 294.87 389.96 380.95"/></clipPath></defs><title>product_green</title><g id="Layer_2" data-name="Layer 2"><g id="Layer_1-2" data-name="Layer 1"><g id="Layer_2-2" data-name="Layer 2"><g id="Layer_1-2-2" data-name="Layer 1-2"><path class="cls-2" d="M390.76,274.89V110.1l-12.49-9.61H233.55l-11.21,9.61H32.05l-10,9.57v151l10,9.18V399.61l-5.25,7.71v50.94c0,1.8,5.25,10.54,5.25,10.54H390.76l12.68-22.22V288.37Z"/><path class="cls-1" d="M391.28,469.7H31.55l-.27-.43c-1.26-2.1-5.38-9.11-5.38-11V407l5.26-7.72v-119L21.1,271.08V119.28L31.69,109.2H222l11.2-9.61H378.58l13.08,10.07V274.53L404.34,288v158.8ZM32.56,467.91H390.24l12.3-21.57V288.72l-12.68-13.48V110.54L378,101.39H233.88L222.67,111H32.41l-9.51,9V270.29L33,279.47V399.89l-5.26,7.71v50.66C27.69,459.18,30.17,463.89,32.56,467.91Z"/><rect class="cls-3" x="396.53" y="111.73" width="8.39" height="22.77"/><rect class="cls-4" x="396.53" y="142.3" width="8.39" height="22.77"/><rect class="cls-4" x="396.53" y="172.86" width="8.39" height="22.77"/><polygon class="cls-5" points="396.53 233.99 396.53 266.35 404.92 275.94 404.92 233.99 396.53 233.99"/><rect class="cls-5" x="396.53" y="203.42" width="8.39" height="22.77"/><path class="cls-1" d="M378,100.79a1.58,1.58,0,0,0,.16-.35l1.71-6.59a1.63,1.63,0,0,0-.31-1.41,1.76,1.76,0,0,0-1.35-.64H335.3l3.3-11a1.65,1.65,0,0,0,.09-.54,1.69,1.69,0,0,0-1.7-1.65H320.1a1.69,1.69,0,0,0-1.64,1.19l-3.6,12h-6l3.3-11a1.65,1.65,0,0,0,.09-.54,1.68,1.68,0,0,0-1.71-1.65h-16.9a1.7,1.7,0,0,0-1.64,1.2l-3.6,12h-6l3.29-11a1.63,1.63,0,0,0-1.61-2.19H267.17a1.69,1.69,0,0,0-1.64,1.19l-3.59,12h-6l3.3-11a1.65,1.65,0,0,0,.09-.54,1.69,1.69,0,0,0-1.7-1.65H240.71a1.69,1.69,0,0,0-1.64,1.19l-5.93,19.77a1.6,1.6,0,0,0,.13,1.21Z"/><path class="cls-1" d="M230.2,469.35H31.2a1.58,1.58,0,0,0-.16.35l-1.71,6.59a1.63,1.63,0,0,0,.31,1.41,1.76,1.76,0,0,0,1.35.64H73.92l-3.3,11a1.65,1.65,0,0,0-.09.54,1.69,1.69,0,0,0,1.7,1.65H89.12a1.69,1.69,0,0,0,1.64-1.19l3.6-12h6l-3.3,11a1.65,1.65,0,0,0-.09.54,1.68,1.68,0,0,0,1.71,1.65h16.88a1.69,1.69,0,0,0,1.64-1.19l3.6-12h6l-3.29,11a1.63,1.63,0,0,0,1.61,2.19H142a1.69,1.69,0,0,0,1.64-1.19l3.59-12h6l-3.3,11a1.65,1.65,0,0,0-.09.54,1.69,1.69,0,0,0,1.7,1.65h16.89a1.69,1.69,0,0,0,1.64-1.19l5.2-17.34h13.48l-1.33,4.46a.81.81,0,0,0,0,.22.68.68,0,0,0,.69.67H195a.7.7,0,0,0,.66-.48l1.46-4.87h2.44l-1.34,4.46a.81.81,0,0,0,0,.22.67.67,0,0,0,.67.67h6.86a.7.7,0,0,0,.67-.48l1.46-4.87h2.44L209,477.45a.81.81,0,0,0,0,.22.68.68,0,0,0,.69.67h6.85a.7.7,0,0,0,.67-.48l1.45-4.87H221l-1.34,4.46a.81.81,0,0,0,0,.22.68.68,0,0,0,.69.67h6.85a.69.69,0,0,0,.66-.48l2.41-8A.65.65,0,0,0,230.2,469.35Z"/><path class="cls-1" d="M398.35,477.89H234.15a.45.45,0,1,1,0-.9H398.08l15.4-28.43v-74.2a.45.45,0,1,1,.9,0h0v74.31a.54.54,0,0,1-.05.22l-15.59,28.76A.42.42,0,0,1,398.35,477.89Z"/><path class="cls-1" d="M418.43,372.86a4.5,4.5,0,1,1-4.51-4.49h0A4.5,4.5,0,0,1,418.43,372.86Z"/><path class="cls-1" d="M39.08,449.27a4.5,4.5,0,1,1-4.51-4.49h0A4.5,4.5,0,0,1,39.08,449.27Z"/><path class="cls-4" d="M2.33,111.72H2.19a1.65,1.65,0,0,0-.54-.09A1.68,1.68,0,0,0,0,113.29v16.89a1.72,1.72,0,0,0,1.19,1.64l12,3.6v6l-11-3.3a1.65,1.65,0,0,0-.54-.09A1.68,1.68,0,0,0,0,139.74v16.9a1.72,1.72,0,0,0,1.19,1.64l12,3.6v6l-11-3.29a1.62,1.62,0,0,0-.54-.1A1.68,1.68,0,0,0,0,166.2v16.91a1.72,1.72,0,0,0,1.19,1.64l12,3.59v6l-11-3.3a1.65,1.65,0,0,0-.54-.09A1.68,1.68,0,0,0,0,192.66v16.91a1.72,1.72,0,0,0,1.19,1.64l17.34,5.2v13.48l-4.46-1.33a.41.41,0,0,0-.22,0,.69.69,0,0,0-.67.69h0v6.85a.7.7,0,0,0,.49.66l4.86,1.46v2.44l-4.46-1.34h-.22a.67.67,0,0,0-.67.67v6.86a.7.7,0,0,0,.49.67L18.53,249v2.44L14.07,250h-.22a.69.69,0,0,0-.67.69h0v6.85a.7.7,0,0,0,.49.67l4.86,1.45v2.45l-4.46-1.34a.41.41,0,0,0-.22,0,.69.69,0,0,0-.67.69h0v6.85a.69.69,0,0,0,.49.66l8,2.41a.64.64,0,0,0,.49-.05v-151C15.53,117.63,8,114.29,2.33,111.72Z"/><polygon class="cls-1" points="227.41 118.02 38.48 118.02 38.48 117.12 227.1 117.12 238.79 108.13 333.33 108.13 333.33 109.03 239.09 109.03 227.41 118.02"/><polygon id="SVGID-2" class="cls-1" points="389.96 380.95 388.16 380.95 388.16 295.53 379.17 284.91 379.17 113.08 380.97 113.08 380.97 284.25 389.96 294.87 389.96 380.95"/><polygon class="cls-1" points="389.96 380.95 388.16 380.95 388.16 295.53 379.17 284.91 379.17 113.08 380.97 113.08 380.97 284.25 389.96 294.87 389.96 380.95"/><g class="cls-6"><rect class="cls-1" x="379.17" y="113.08" width="10.79" height="267.88"/><path class="cls-1" d="M384.57,341.79q-3.27,0-6.51-.13h.21V152.37h-.21q3.24-.13,6.51-.13t6.5.13h-.21V341.66h.21C388.92,341.75,386.76,341.8,384.57,341.79Z"/><path class="cls-1" d="M384.57,294.4c-2.18,0-4.34-.08-6.46-.24h.16V199.87h-.16c2.12-.16,4.28-.24,6.46-.24s4.33.08,6.46.24h-.17v94.29H391Q387.84,294.4,384.57,294.4Z"/></g><polygon class="cls-1" points="35.34 450.17 34.44 450.17 34.44 413.19 39.83 404.2 39.83 318.93 40.73 318.93 40.73 404.45 35.34 413.44 35.34 450.17"/><polygon class="cls-1" points="230.2 469.35 235.34 461.26 387.56 461.26 399.55 445.68 403.74 374.96 403.74 446.58 390.76 468.8 230.2 469.35"/><polygon class="cls-1" points="42.38 110.68 29.79 122.07 29.79 277.28 22.17 271.26 22.17 120.34 32.05 110.1 42.38 110.68"/><rect class="cls-3" x="396.53" y="111.73" width="8.39" height="22.77"/><rect class="cls-4" x="396.53" y="142.3" width="8.39" height="22.77"/><rect class="cls-4" x="396.53" y="172.86" width="8.39" height="22.77"/><polygon class="cls-5" points="396.53 233.99 396.53 266.35 404.92 275.94 404.92 233.99 396.53 233.99"/><rect class="cls-5" x="396.53" y="203.42" width="8.39" height="22.77"/><path class="cls-1" d="M378,100.79a1.58,1.58,0,0,0,.16-.35l1.71-6.59a1.63,1.63,0,0,0-.31-1.41,1.76,1.76,0,0,0-1.35-.64H335.3l3.3-11a1.65,1.65,0,0,0,.09-.54,1.69,1.69,0,0,0-1.7-1.65H320.1a1.69,1.69,0,0,0-1.64,1.19l-3.6,12h-6l3.3-11a1.65,1.65,0,0,0,.09-.54,1.68,1.68,0,0,0-1.71-1.65h-16.9a1.7,1.7,0,0,0-1.64,1.2l-3.6,12h-6l3.29-11a1.63,1.63,0,0,0-1.61-2.19H267.17a1.69,1.69,0,0,0-1.64,1.19l-3.59,12h-6l3.3-11a1.65,1.65,0,0,0,.09-.54,1.69,1.69,0,0,0-1.7-1.65H240.71a1.69,1.69,0,0,0-1.64,1.19l-5.93,19.77a1.6,1.6,0,0,0,.13,1.21Z"/><path class="cls-1" d="M230.2,469.35H31.2a1.58,1.58,0,0,0-.16.35l-1.71,6.59a1.63,1.63,0,0,0,.31,1.41,1.76,1.76,0,0,0,1.35.64H73.92l-3.3,11a1.65,1.65,0,0,0-.09.54,1.69,1.69,0,0,0,1.7,1.65H89.12a1.69,1.69,0,0,0,1.64-1.19l3.6-12h6l-3.3,11a1.65,1.65,0,0,0-.09.54,1.68,1.68,0,0,0,1.71,1.65h16.88a1.69,1.69,0,0,0,1.64-1.19l3.6-12h6l-3.29,11a1.63,1.63,0,0,0,1.61,2.19H142a1.69,1.69,0,0,0,1.64-1.19l3.59-12h6l-3.3,11a1.65,1.65,0,0,0-.09.54,1.69,1.69,0,0,0,1.7,1.65h16.89a1.69,1.69,0,0,0,1.64-1.19l5.2-17.34h13.48l-1.33,4.46a.81.81,0,0,0,0,.22.68.68,0,0,0,.69.67H195a.7.7,0,0,0,.66-.48l1.46-4.87h2.44l-1.34,4.46a.81.81,0,0,0,0,.22.67.67,0,0,0,.67.67h6.86a.7.7,0,0,0,.67-.48l1.46-4.87h2.44L209,477.45a.81.81,0,0,0,0,.22.68.68,0,0,0,.69.67h6.85a.7.7,0,0,0,.67-.48l1.45-4.87H221l-1.34,4.46a.81.81,0,0,0,0,.22.68.68,0,0,0,.69.67h6.85a.69.69,0,0,0,.66-.48l2.41-8A.65.65,0,0,0,230.2,469.35Z"/><path class="cls-1" d="M418.43,372.86a4.5,4.5,0,1,1-4.51-4.49h0A4.5,4.5,0,0,1,418.43,372.86Z"/><path class="cls-1" d="M39.08,449.27a4.5,4.5,0,1,1-4.51-4.49h0A4.5,4.5,0,0,1,39.08,449.27Z"/><polygon class="cls-1" points="230.2 469.35 235.34 461.26 387.56 461.26 399.55 445.68 403.74 374.96 403.74 446.58 390.76 468.8 230.2 469.35"/><polygon class="cls-1" points="42.38 110.68 29.79 122.07 29.79 277.28 22.17 271.26 22.17 120.34 32.05 110.1 42.38 110.68"/><rect class="cls-1" x="39.61" y="3.83" width="74" height="0.55"/><rect class="cls-1" x="34.64" y="88.13" width="78.97" height="0.55"/><rect class="cls-1" x="14.53" y="32.95" width="0.55" height="35.63"/><rect class="cls-1" x="237.52" y="33.02" width="0.55" height="33.17"/><rect class="cls-1" x="139.13" y="88.13" width="63.62" height="0.55"/><rect class="cls-1" x="139.13" y="3.83" width="69.74" height="0.55"/><path class="cls-1" d="M130.84,4.14a4.14,4.14,0,1,0-4.14,4.14h0a4.13,4.13,0,0,0,4.13-4.13Z"/><path class="cls-1" d="M27.46,13.11a4,4,0,1,0-4,4A4,4,0,0,0,27.46,13.11Z"/><path class="cls-1" d="M227.68,78.52a1.9,1.9,0,1,0-1.9,1.9h0A1.9,1.9,0,0,0,227.68,78.52Z"/><path class="cls-1" d="M22.78,84.59a1.91,1.91,0,1,0-1.92,1.9h0A1.91,1.91,0,0,0,22.78,84.59Z"/><path class="cls-1" d="M234.83,12.15a4.36,4.36,0,1,0-4.36,4.36h0A4.36,4.36,0,0,0,234.83,12.15Z"/><path class="cls-1" d="M128.61,88.26a1.91,1.91,0,1,0-1.92,1.9h0a1.9,1.9,0,0,0,1.9-1.9Z"/><polygon class="cls-7" points="230.44 25.67 230.44 66.19 224.97 66.19 210.02 81.14 27.37 81.14 21.26 75.02 21.26 26.5 31.42 16.33 39.61 16.33 39.61 11.73 216.5 11.73 230.44 25.67"/><polygon class="cls-1" points="210.09 81.6 209.7 81.21 224.85 66.05 230.4 66.05 230.4 66.61 225.08 66.61 210.09 81.6"/><rect class="cls-1" x="223.21" y="8.84" width="0.55" height="19.71" transform="translate(52.23 163.5) rotate(-45)"/><polygon class="cls-1" points="21.38 26.62 20.99 26.23 31.45 15.78 39.75 15.78 39.75 16.33 31.67 16.33 21.38 26.62"/><polygon class="cls-1" points="58.93 91.49 61.24 93.8 84.87 93.8 86.82 95.75 103.43 95.75 108.59 90.58 57.94 90.58 58.93 91.49"/><polygon class="cls-1" points="194.36 91.49 192.04 93.8 168.41 93.8 166.47 95.75 149.86 95.75 144.69 90.58 195.34 90.58 194.36 91.49"/></g></g></g></g></svg>