<svg xmlns="http://www.w3.org/2000/svg" xmlns:xlink="http://www.w3.org/1999/xlink" viewBox="0 0 494.68 146.36"><defs><style>.cls-1{mask:url(#mask);filter:url(#luminosity-noclip-6);}.cls-10,.cls-2,.cls-4,.cls-6,.cls-8{mix-blend-mode:multiply;}.cls-2{fill:url(#Безымянный_градиент_109);}.cls-3{mask:url(#mask-2);filter:url(#luminosity-noclip-7);}.cls-4{fill:url(#Безымянный_градиент_110);}.cls-5{mask:url(#mask-3);filter:url(#luminosity-noclip-8);}.cls-6{fill:url(#Безымянный_градиент_110-2);}.cls-7{mask:url(#mask-4);filter:url(#luminosity-noclip-9);}.cls-8{fill:url(#Безымянный_градиент_110-3);}.cls-9{mask:url(#mask-5);filter:url(#luminosity-noclip-10);}.cls-10{fill:url(#Безымянный_градиент_109-2);}.cls-11,.cls-25{opacity:0.2;}.cls-11{fill:url(#New_Gradient_Swatch_7);}.cls-12{fill:url(#New_Gradient_Swatch_7-2);}.cls-13{fill:url(#New_Gradient_Swatch_7-3);}.cls-14{fill:url(#New_Gradient_Swatch_7-4);}.cls-15{fill:url(#New_Gradient_Swatch_7-5);}.cls-16{fill:url(#New_Gradient_Swatch_7-6);}.cls-17{fill:url(#New_Gradient_Swatch_7-7);}.cls-18{opacity:0.9;fill:url(#New_Gradient_Swatch_7-8);}.cls-19{opacity:0.8;fill:url(#New_Gradient_Swatch_7-9);}.cls-20{opacity:0.7;fill:url(#New_Gradient_Swatch_7-10);}.cls-21{opacity:0.6;fill:url(#New_Gradient_Swatch_7-11);}.cls-22{opacity:0.5;fill:url(#New_Gradient_Swatch_7-12);}.cls-23{opacity:0.4;fill:url(#New_Gradient_Swatch_7-13);}.cls-24{opacity:0.3;fill:url(#New_Gradient_Swatch_7-14);}.cls-25{fill:url(#New_Gradient_Swatch_7-15);}.cls-26{opacity:0.1;fill:url(#New_Gradient_Swatch_7-16);}.cls-27{opacity:0.05;fill:url(#New_Gradient_Swatch_7-17);}.cls-28{fill:url(#New_Gradient_Swatch_7-18);}.cls-29{fill:url(#New_Gradient_Swatch_7-19);}.cls-30{fill:url(#New_Gradient_Swatch_7-20);}.cls-31{fill:url(#New_Gradient_Swatch_7-21);}.cls-32{fill:url(#New_Gradient_Swatch_7-22);}.cls-33{fill:url(#New_Gradient_Swatch_7-23);}.cls-34{mask:url(#mask-6);}.cls-35{fill:url(#New_Gradient_Swatch_7-24);}.cls-36{mask:url(#mask-7);}.cls-37{fill:url(#New_Gradient_Swatch_7-25);}.cls-38{mask:url(#mask-8);}.cls-39{fill:url(#New_Gradient_Swatch_7-26);}.cls-40{mask:url(#mask-9);}.cls-41{fill:url(#New_Gradient_Swatch_7-27);}.cls-42{mask:url(#mask-10);}.cls-43{fill:url(#New_Gradient_Swatch_7-28);}.cls-44{fill:url(#New_Gradient_Swatch_7-29);}.cls-45{fill:url(#New_Gradient_Swatch_7-30);}.cls-46{fill:url(#New_Gradient_Swatch_7-31);}.cls-47{fill:url(#New_Gradient_Swatch_7-32);}.cls-48{fill:url(#New_Gradient_Swatch_7-33);}.cls-49{fill:url(#New_Gradient_Swatch_7-34);}.cls-50{fill:url(#New_Gradient_Swatch_7-35);}.cls-51{fill:url(#New_Gradient_Swatch_7-36);}.cls-52{fill:url(#New_Gradient_Swatch_7-37);}.cls-53{fill:url(#New_Gradient_Swatch_7-38);}.cls-54{filter:url(#luminosity-noclip-5);}.cls-55{filter:url(#luminosity-noclip-4);}.cls-56{filter:url(#luminosity-noclip-3);}.cls-57{filter:url(#luminosity-noclip-2);}.cls-58{filter:url(#luminosity-noclip);}</style><filter id="luminosity-noclip" x="243.81" y="-8260.9" width="57.54" height="32766" filterUnits="userSpaceOnUse" color-interpolation-filters="sRGB"><feFlood flood-color="#fff" result="bg"/><feBlend in="SourceGraphic" in2="bg"/></filter><mask id="mask" x="243.81" y="-8260.9" width="57.54" height="32766" maskUnits="userSpaceOnUse"><g class="cls-58"/></mask><linearGradient id="Безымянный_градиент_109" x1="243.81" y1="135.89" x2="301.35" y2="135.89" gradientUnits="userSpaceOnUse"><stop offset="0" stop-color="#fff"/><stop offset="0.07" stop-color="#d8d8d8"/><stop offset="0.16" stop-color="#a6a6a6"/><stop offset="0.26" stop-color="#797979"/><stop offset="0.37" stop-color="#545454"/><stop offset="0.47" stop-color="#353535"/><stop offset="0.58" stop-color="#1e1e1e"/><stop offset="0.7" stop-color="#0d0d0d"/><stop offset="0.83" stop-color="#030303"/><stop offset="1"/></linearGradient><filter id="luminosity-noclip-2" x="145.38" y="-8260.9" width="97.42" height="32766" filterUnits="userSpaceOnUse" color-interpolation-filters="sRGB"><feFlood flood-color="#fff" result="bg"/><feBlend in="SourceGraphic" in2="bg"/></filter><mask id="mask-2" x="145.38" y="-8260.9" width="97.42" height="32766" maskUnits="userSpaceOnUse"><g class="cls-57"/></mask><linearGradient id="Безымянный_градиент_110" x1="145.38" y1="124.02" x2="242.8" y2="124.02" gradientUnits="userSpaceOnUse"><stop offset="0"/><stop offset="0.01" stop-color="#030303"/><stop offset="0.7" stop-color="#b7b7b7"/><stop offset="1" stop-color="#fff"/></linearGradient><filter id="luminosity-noclip-3" x="56.03" y="-8260.9" width="70.67" height="32766" filterUnits="userSpaceOnUse" color-interpolation-filters="sRGB"><feFlood flood-color="#fff" result="bg"/><feBlend in="SourceGraphic" in2="bg"/></filter><mask id="mask-3" x="56.03" y="-8260.9" width="70.67" height="32766" maskUnits="userSpaceOnUse"><g class="cls-56"/></mask><linearGradient id="Безымянный_градиент_110-2" x1="-2397.57" y1="-1635.64" x2="-2326.9" y2="-1635.64" gradientTransform="translate(-2270.87 -1520.71) rotate(180)" xlink:href="#Безымянный_градиент_110"/><filter id="luminosity-noclip-4" x="364.45" y="-8260.9" width="70.67" height="32766" filterUnits="userSpaceOnUse" color-interpolation-filters="sRGB"><feFlood flood-color="#fff" result="bg"/><feBlend in="SourceGraphic" in2="bg"/></filter><mask id="mask-4" x="364.45" y="-8260.9" width="70.67" height="32766" maskUnits="userSpaceOnUse"><g class="cls-55"/></mask><linearGradient id="Безымянный_градиент_110-3" x1="-200.55" y1="-1635.64" x2="-129.88" y2="-1635.64" gradientTransform="matrix(1, 0, 0, -1, 565, -1520.71)" xlink:href="#Безымянный_градиент_110"/><filter id="luminosity-noclip-5" x="199.64" y="-8260.9" width="232.95" height="32766" filterUnits="userSpaceOnUse" color-interpolation-filters="sRGB"><feFlood flood-color="#fff" result="bg"/><feBlend in="SourceGraphic" in2="bg"/></filter><mask id="mask-5" x="199.64" y="-8260.9" width="232.95" height="32766" maskUnits="userSpaceOnUse"><g class="cls-54"/></mask><linearGradient id="Безымянный_градиент_109-2" x1="198.88" y1="4.64" x2="432.59" y2="4.64" xlink:href="#Безымянный_градиент_109"/><linearGradient id="New_Gradient_Swatch_7" x1="34.66" y1="60.79" x2="456.32" y2="60.79" gradientUnits="userSpaceOnUse"><stop offset="0" stop-color="#fcdaff"/><stop offset="1" stop-color="#cf52fe"/></linearGradient><linearGradient id="New_Gradient_Swatch_7-2" x1="33.9" y1="60.79" x2="457.08" y2="60.79" xlink:href="#New_Gradient_Swatch_7"/><linearGradient id="New_Gradient_Swatch_7-3" x1="17.5" y1="60.79" x2="53.84" y2="60.79" xlink:href="#New_Gradient_Swatch_7"/><linearGradient id="New_Gradient_Swatch_7-4" x1="437.47" y1="60.79" x2="473.82" y2="60.79" xlink:href="#New_Gradient_Swatch_7"/><linearGradient id="New_Gradient_Swatch_7-5" x1="5.3" y1="106.61" x2="247.76" y2="106.61" xlink:href="#New_Gradient_Swatch_7"/><linearGradient id="New_Gradient_Swatch_7-6" x1="0" y1="79.35" x2="12.11" y2="79.35" xlink:href="#New_Gradient_Swatch_7"/><linearGradient id="New_Gradient_Swatch_7-7" x1="41.9" y1="27.61" x2="49.47" y2="27.61" xlink:href="#New_Gradient_Swatch_7"/><linearGradient id="New_Gradient_Swatch_7-8" x1="51.36" y1="27.61" x2="58.93" y2="27.61" xlink:href="#New_Gradient_Swatch_7"/><linearGradient id="New_Gradient_Swatch_7-9" x1="60.83" y1="27.61" x2="68.4" y2="27.61" xlink:href="#New_Gradient_Swatch_7"/><linearGradient id="New_Gradient_Swatch_7-10" x1="70.29" y1="27.61" x2="77.86" y2="27.61" xlink:href="#New_Gradient_Swatch_7"/><linearGradient id="New_Gradient_Swatch_7-11" x1="79.75" y1="27.61" x2="87.33" y2="27.61" xlink:href="#New_Gradient_Swatch_7"/><linearGradient id="New_Gradient_Swatch_7-12" x1="89.22" y1="27.61" x2="96.79" y2="27.61" xlink:href="#New_Gradient_Swatch_7"/><linearGradient id="New_Gradient_Swatch_7-13" x1="98.68" y1="27.61" x2="106.26" y2="27.61" xlink:href="#New_Gradient_Swatch_7"/><linearGradient id="New_Gradient_Swatch_7-14" x1="108.15" y1="27.61" x2="115.72" y2="27.61" xlink:href="#New_Gradient_Swatch_7"/><linearGradient id="New_Gradient_Swatch_7-15" x1="117.61" y1="27.61" x2="125.18" y2="27.61" xlink:href="#New_Gradient_Swatch_7"/><linearGradient id="New_Gradient_Swatch_7-16" x1="127.08" y1="27.61" x2="134.65" y2="27.61" xlink:href="#New_Gradient_Swatch_7"/><linearGradient id="New_Gradient_Swatch_7-17" x1="136.54" y1="27.61" x2="144.11" y2="27.61" xlink:href="#New_Gradient_Swatch_7"/><linearGradient id="New_Gradient_Swatch_7-18" x1="482.57" y1="37.62" x2="494.68" y2="37.62" xlink:href="#New_Gradient_Swatch_7"/><linearGradient id="New_Gradient_Swatch_7-19" x1="247.3" y1="86.42" x2="489" y2="86.42" xlink:href="#New_Gradient_Swatch_7"/><linearGradient id="New_Gradient_Swatch_7-20" x1="239.22" y1="140.45" x2="306.61" y2="140.45" xlink:href="#New_Gradient_Swatch_7"/><linearGradient id="New_Gradient_Swatch_7-21" x1="304.21" y1="133.87" x2="308.25" y2="133.87" xlink:href="#New_Gradient_Swatch_7"/><linearGradient id="New_Gradient_Swatch_7-22" x1="135.28" y1="126.3" x2="139.32" y2="126.3" xlink:href="#New_Gradient_Swatch_7"/><linearGradient id="New_Gradient_Swatch_7-23" x1="136.92" y1="120.22" x2="247.68" y2="120.22" xlink:href="#New_Gradient_Swatch_7"/><filter id="luminosity-noclip-6" x="243.81" y="129.32" width="57.54" height="13.12" filterUnits="userSpaceOnUse" color-interpolation-filters="sRGB"><feFlood flood-color="#fff" result="bg"/><feBlend in="SourceGraphic" in2="bg"/></filter><mask id="mask-6" x="243.81" y="129.32" width="57.54" height="13.12" maskUnits="userSpaceOnUse"><g class="cls-1"><polygon class="cls-2" points="251.88 129.32 251.88 136.39 243.81 136.39 243.81 142.45 301.35 142.45 301.35 137.4 251.88 129.32"/></g></mask><linearGradient id="New_Gradient_Swatch_7-24" x1="243.81" y1="135.89" x2="301.35" y2="135.89" xlink:href="#New_Gradient_Swatch_7"/><filter id="luminosity-noclip-7" x="145.38" y="120.74" width="97.42" height="6.56" filterUnits="userSpaceOnUse" color-interpolation-filters="sRGB"><feFlood flood-color="#fff" result="bg"/><feBlend in="SourceGraphic" in2="bg"/></filter><mask id="mask-7" x="145.38" y="120.74" width="97.42" height="6.56" maskUnits="userSpaceOnUse"><g class="cls-3"><rect class="cls-4" x="145.38" y="120.74" width="97.42" height="6.56"/></g></mask><linearGradient id="New_Gradient_Swatch_7-25" x1="145.38" y1="124.02" x2="242.8" y2="124.02" xlink:href="#New_Gradient_Swatch_7"/><filter id="luminosity-noclip-8" x="56.03" y="110.92" width="70.67" height="8.04" filterUnits="userSpaceOnUse" color-interpolation-filters="sRGB"><feFlood flood-color="#fff" result="bg"/><feBlend in="SourceGraphic" in2="bg"/></filter><mask id="mask-8" x="56.03" y="110.92" width="70.67" height="8.04" maskUnits="userSpaceOnUse"><g class="cls-5"><polygon class="cls-6" points="60.07 110.92 126.7 110.92 126.7 118.96 56.03 118.96 60.07 110.92"/></g></mask><linearGradient id="New_Gradient_Swatch_7-26" x1="-2397.57" y1="-1635.64" x2="-2326.9" y2="-1635.64" gradientTransform="translate(-2270.87 -1520.71) rotate(180)" xlink:href="#New_Gradient_Swatch_7"/><filter id="luminosity-noclip-9" x="364.45" y="110.92" width="70.67" height="8.04" filterUnits="userSpaceOnUse" color-interpolation-filters="sRGB"><feFlood flood-color="#fff" result="bg"/><feBlend in="SourceGraphic" in2="bg"/></filter><mask id="mask-9" x="364.45" y="110.92" width="70.67" height="8.04" maskUnits="userSpaceOnUse"><g class="cls-7"><polygon class="cls-8" points="431.08 110.92 364.45 110.92 364.45 118.96 435.12 118.96 431.08 110.92"/></g></mask><linearGradient id="New_Gradient_Swatch_7-27" x1="-200.55" y1="-1635.64" x2="-129.88" y2="-1635.64" gradientTransform="matrix(1, 0, 0, -1, 565, -1520.71)" xlink:href="#New_Gradient_Swatch_7"/><filter id="luminosity-noclip-10" x="199.64" y="2.77" width="232.95" height="3.75" filterUnits="userSpaceOnUse" color-interpolation-filters="sRGB"><feFlood flood-color="#fff" result="bg"/><feBlend in="SourceGraphic" in2="bg"/></filter><mask id="mask-10" x="199.64" y="2.77" width="232.95" height="3.75" maskUnits="userSpaceOnUse"><g class="cls-9"><polygon class="cls-10" points="199.64 2.77 201.41 6.52 425.53 6.52 432.6 3.3 199.64 2.77"/></g></mask><linearGradient id="New_Gradient_Swatch_7-28" x1="198.88" y1="4.64" x2="432.59" y2="4.64" xlink:href="#New_Gradient_Swatch_7"/><linearGradient id="New_Gradient_Swatch_7-29" x1="61.21" y1="4.64" x2="72.3" y2="4.64" xlink:href="#New_Gradient_Swatch_7"/><linearGradient id="New_Gradient_Swatch_7-30" x1="72.9" y1="4.09" x2="84.2" y2="4.09" xlink:href="#New_Gradient_Swatch_7"/><linearGradient id="New_Gradient_Swatch_7-31" x1="87.8" y1="4.09" x2="99.1" y2="4.09" xlink:href="#New_Gradient_Swatch_7"/><linearGradient id="New_Gradient_Swatch_7-32" x1="99.7" y1="4.09" x2="111.01" y2="4.09" xlink:href="#New_Gradient_Swatch_7"/><linearGradient id="New_Gradient_Swatch_7-33" x1="111.61" y1="4.09" x2="122.91" y2="4.09" xlink:href="#New_Gradient_Swatch_7"/><linearGradient id="New_Gradient_Swatch_7-34" x1="123.51" y1="4.09" x2="134.81" y2="4.09" xlink:href="#New_Gradient_Swatch_7"/><linearGradient id="New_Gradient_Swatch_7-35" x1="138.41" y1="4.09" x2="153.45" y2="4.09" xlink:href="#New_Gradient_Swatch_7"/><linearGradient id="New_Gradient_Swatch_7-36" x1="154.05" y1="4.09" x2="165.35" y2="4.09" xlink:href="#New_Gradient_Swatch_7"/><linearGradient id="New_Gradient_Swatch_7-37" x1="165.95" y1="4.09" x2="177.26" y2="4.09" xlink:href="#New_Gradient_Swatch_7"/><linearGradient id="New_Gradient_Swatch_7-38" x1="177.86" y1="4.09" x2="189.16" y2="4.09" xlink:href="#New_Gradient_Swatch_7"/></defs><title>profile_log_out_purple</title><g id="Layer_2" data-name="Layer 2"><g id="Layer_1-2" data-name="Layer 1"><rect class="cls-11" x="34.66" y="18.22" width="421.66" height="85.14"/><path class="cls-12" d="M456.32,104.11H34.66a.75.75,0,0,1-.76-.75V18.22a.76.76,0,0,1,.76-.76H456.32a.76.76,0,0,1,.76.76v85.14A.75.75,0,0,1,456.32,104.11ZM35.42,102.6H455.56V19H35.42Z"/><polygon class="cls-13" points="53.17 6.61 23.56 6.61 23.56 110.93 53.84 110.93 49.8 119 17.5 119 17.5 2.57 49.13 2.57 53.17 6.61"/><polygon class="cls-14" points="438.15 6.61 467.76 6.61 467.76 110.93 437.47 110.93 441.51 119 473.82 119 473.82 2.57 442.19 2.57 438.15 6.61"/><path class="cls-15" d="M247,134H6.06a.76.76,0,0,1-.76-.76V80a.76.76,0,0,1,1.52,0v52.42H246.25V104.93a.76.76,0,1,1,1.51,0v28.26A.76.76,0,0,1,247,134Z"/><circle class="cls-16" cx="6.06" cy="79.35" r="6.06"/><circle class="cls-17" cx="45.68" cy="27.61" r="3.79"/><circle class="cls-18" cx="55.15" cy="27.61" r="3.79"/><circle class="cls-19" cx="64.61" cy="27.61" r="3.79"/><circle class="cls-20" cx="74.08" cy="27.61" r="3.79"/><circle class="cls-21" cx="83.54" cy="27.61" r="3.79"/><circle class="cls-22" cx="93.01" cy="27.61" r="3.79"/><circle class="cls-23" cx="102.47" cy="27.61" r="3.79"/><circle class="cls-24" cx="111.93" cy="27.61" r="3.79"/><circle class="cls-25" cx="121.4" cy="27.61" r="3.79"/><circle class="cls-26" cx="130.86" cy="27.61" r="3.79"/><circle class="cls-27" cx="140.33" cy="27.61" r="3.79"/><path class="cls-28" d="M494.68,37.62a6.06,6.06,0,1,1-6.06-6A6.06,6.06,0,0,1,494.68,37.62Z"/><path class="cls-29" d="M488.63,133.57h-173a.38.38,0,0,1-.37-.38v-7h-67.6a.38.38,0,0,1,0-.76h68a.38.38,0,0,1,.38.38v7H488.25V39.64a.38.38,0,1,1,.75,0v93.55A.38.38,0,0,1,488.63,133.57Z"/><polygon class="cls-30" points="306.61 146.36 239.22 146.36 239.22 134.54 239.98 134.54 239.98 145.6 305.85 145.6 305.85 135.21 306.61 135.21 306.61 146.36"/><path class="cls-31" d="M308.25,133.87a2,2,0,1,1-2-2A2,2,0,0,1,308.25,133.87Z"/><path class="cls-32" d="M139.32,126.3a2,2,0,1,1-2-2A2,2,0,0,1,139.32,126.3Z"/><polygon class="cls-33" points="137.68 124.44 136.92 124.44 136.92 115.99 247.68 115.99 247.68 116.75 137.68 116.75 137.68 124.44"/><g class="cls-34"><polygon class="cls-35" points="251.88 129.32 251.88 136.39 243.81 136.39 243.81 142.45 301.35 142.45 301.35 137.4 251.88 129.32"/></g><g class="cls-36"><rect class="cls-37" x="145.38" y="120.74" width="97.42" height="6.56"/></g><g class="cls-38"><polygon class="cls-39" points="60.07 110.92 126.7 110.92 126.7 118.96 56.03 118.96 60.07 110.92"/></g><g class="cls-40"><polygon class="cls-41" points="431.08 110.92 364.45 110.92 364.45 118.96 435.12 118.96 431.08 110.92"/></g><g class="cls-42"><polygon class="cls-43" points="199.64 2.77 201.41 6.52 425.53 6.52 432.6 3.3 199.64 2.77"/></g><path class="cls-44" d="M72.3,0,70.09,2.24H61.21V0ZM67.39,9.29,64.83,7V2.24l2.56,1.52Z"/><path class="cls-45" d="M82,8.17H75.1L72.9,5.93V0H82l2.2,2.24V8.17L82,5.93V2.24H75.1V5.93H82Z"/><path class="cls-46" d="M87.8,0H99.1V8.17H96.88v-2H90.31v2H87.8V3.55l2.51-1.31V5.72l1.33-1.78h5.24V2.24H90.31Z"/><path class="cls-47" d="M99.7,8.17V0l2.21,2.24V8.17ZM108.8,0,111,2.24V8.17H108.8V2.24h-6.89V0Z"/><path class="cls-48" d="M120.7,8.17h-6.89l-2.2-2.24V0h9.09l2.2,2.24V8.17L120.7,5.93V2.24h-6.89V5.93h6.89Z"/><path class="cls-49" d="M123.51,8.17V0l2.21,2.24V8.17ZM132.61,0l2.2,2.24V8.17h-2.2V2.24h-6.89V0Z"/><path class="cls-50" d="M138.41,8.17V0l2.23,2.24V8.17ZM140.64,0h4.2L147,2.24V8.17h-2.22V2.24h-4.18Zm10.6,0,2.21,2.24V8.17h-2.21V2.24H147V0Z"/><path class="cls-51" d="M163.15,8.17h-6.89l-2.21-2.24V0h9.1l2.19,2.24V8.17l-2.2-2.24V2.24h-6.89V5.93h6.89Z"/><path class="cls-52" d="M167.21,8.17H166V2.88h2.51V5.93H175V2.24h-6.88L166,0h11.31V5.93L175,8.17Z"/><path class="cls-53" d="M186.57,5.12h-6.5v.81h8.16V8.17h-8.16l-2.21-2.24V0l2.21,2.24v.63h8.17ZM189.16,0l-2.22,2.24h-6.87V0Z"/></g></g></svg>