<svg xmlns="http://www.w3.org/2000/svg" xmlns:xlink="http://www.w3.org/1999/xlink" viewBox="0 0 488.03 136.75"><defs><style>.cls-1{fill:none;}.cls-2{opacity:0.2;fill:url(#linear-gradient);}.cls-10,.cls-11,.cls-12,.cls-13,.cls-15,.cls-2,.cls-22,.cls-23,.cls-3,.cls-4,.cls-5,.cls-6,.cls-7,.cls-9{isolation:isolate;}.cls-10,.cls-3{opacity:0.7;}.cls-3{fill:url(#linear-gradient-2);}.cls-11,.cls-4{opacity:0.6;}.cls-4{fill:url(#linear-gradient-3);}.cls-12,.cls-5{opacity:0.8;}.cls-5{fill:url(#linear-gradient-4);}.cls-13,.cls-22,.cls-23,.cls-6{opacity:0.5;}.cls-6{fill:url(#linear-gradient-5);}.cls-7{opacity:0.3;fill:url(#linear-gradient-6);}.cls-8{fill:url(#linear-gradient-7);}.cls-15,.cls-9{opacity:0.4;}.cls-9{fill:url(#linear-gradient-8);}.cls-10{fill:url(#linear-gradient-15);}.cls-11{fill:url(#linear-gradient-16);}.cls-12{fill:url(#linear-gradient-17);}.cls-13{fill:url(#linear-gradient-18);}.cls-14{fill:url(#linear-gradient-19);}.cls-15{fill:url(#linear-gradient-20);}.cls-16{fill:url(#linear-gradient-26);}.cls-17{fill:url(#linear-gradient-27);}.cls-18{clip-path:url(#clip-path);}.cls-19{fill:url(#linear-gradient-28);}.cls-20{fill:url(#linear-gradient-29);}.cls-21{fill:url(#linear-gradient-30);}.cls-22{fill:url(#linear-gradient-31);}.cls-23{fill:url(#linear-gradient-32);}.cls-24{fill:url(#linear-gradient-33);}</style><linearGradient id="linear-gradient" x1="5.41" y1="57.42" x2="478.76" y2="57.42" gradientTransform="matrix(1, 0, 0, -1, 0, 122.65)" gradientUnits="userSpaceOnUse"><stop offset="0" stop-color="#fcdaff"/><stop offset="1" stop-color="#cf52fe"/></linearGradient><linearGradient id="linear-gradient-2" x1="116.11" y1="-6.35" x2="151.66" y2="-6.35" xlink:href="#linear-gradient"/><linearGradient id="linear-gradient-3" x1="85.54" y1="-6.35" x2="121.08" y2="-6.35" xlink:href="#linear-gradient"/><linearGradient id="linear-gradient-4" x1="146.69" y1="-6.35" x2="182.24" y2="-6.35" xlink:href="#linear-gradient"/><linearGradient id="linear-gradient-5" x1="54.96" y1="-6.35" x2="90.51" y2="-6.35" xlink:href="#linear-gradient"/><linearGradient id="linear-gradient-6" x1="4.4" y1="-6.35" x2="29.35" y2="-6.35" xlink:href="#linear-gradient"/><linearGradient id="linear-gradient-7" x1="177.27" y1="-6.35" x2="209.47" y2="-6.35" xlink:href="#linear-gradient"/><linearGradient id="linear-gradient-8" x1="24.38" y1="-6.35" x2="59.93" y2="-6.35" xlink:href="#linear-gradient"/><linearGradient id="linear-gradient-15" x1="242.26" y1="114.44" x2="256.54" y2="114.44" xlink:href="#linear-gradient"/><linearGradient id="linear-gradient-16" x1="254.54" y1="114.44" x2="268.82" y2="114.44" xlink:href="#linear-gradient"/><linearGradient id="linear-gradient-17" x1="229.98" y1="114.44" x2="244.25" y2="114.44" xlink:href="#linear-gradient"/><linearGradient id="linear-gradient-18" x1="266.82" y1="114.44" x2="281.1" y2="114.44" xlink:href="#linear-gradient"/><linearGradient id="linear-gradient-19" x1="219.04" y1="114.44" x2="231.97" y2="114.44" xlink:href="#linear-gradient"/><linearGradient id="linear-gradient-20" x1="279.1" y1="114.44" x2="293.38" y2="114.44" xlink:href="#linear-gradient"/><linearGradient id="linear-gradient-26" x1="4.5" y1="57.41" x2="479.67" y2="57.41" gradientTransform="matrix(1, 0, 0, -1, 0, 117.11)" xlink:href="#linear-gradient"/><linearGradient id="linear-gradient-27" x1="218.73" y1="59.64" x2="488.03" y2="59.64" gradientTransform="matrix(1, 0, 0, -1, 0, 117.11)" xlink:href="#linear-gradient"/><clipPath id="clip-path" transform="translate(0 5.54)"><path class="cls-1" d="M455.43,114.94a.45.45,0,0,1-.45-.47.43.43,0,0,1,.13-.3l32-32V.92H219.26a.46.46,0,0,1-.52-.39.45.45,0,0,1,.38-.52H487.57a.46.46,0,0,1,.46.46V82.35a.45.45,0,0,1-.14.32L455.75,114.8A.43.43,0,0,1,455.43,114.94Z"/></clipPath><linearGradient id="linear-gradient-28" x1="218.8" y1="59.63" x2="488.03" y2="59.63" xlink:href="#linear-gradient"/><linearGradient id="linear-gradient-29" x1="249.92" y1="59.63" x2="456.91" y2="59.63" gradientTransform="matrix(1, 0, 0, -1, 0, 117.11)" xlink:href="#linear-gradient"/><linearGradient id="linear-gradient-30" x1="301.67" y1="59.63" x2="405.15" y2="59.63" gradientTransform="matrix(1, 0, 0, -1, 0, 117.11)" xlink:href="#linear-gradient"/><linearGradient id="linear-gradient-31" x1="5.41" y1="70.97" x2="93.39" y2="70.97" xlink:href="#linear-gradient"/><linearGradient id="linear-gradient-32" x1="346.65" y1="57.61" x2="478.76" y2="57.61" xlink:href="#linear-gradient"/><linearGradient id="linear-gradient-33" x1="0" y1="79.26" x2="79.51" y2="79.26" xlink:href="#linear-gradient"/></defs><title>profile_menu_purple</title><g id="Layer_2" data-name="Layer 2"><g id="Layer_1-2" data-name="Layer 1"><g id="Layer_2-2" data-name="Layer 2"><g id="Layer_1-2-2" data-name="Layer 1-2"><polygon class="cls-2" points="478.76 14.98 5.41 14.98 5.41 115.47 447.14 115.47 478.76 83.85 478.76 14.98"/><polygon class="cls-3" points="116.11 136.75 140.1 136.75 151.66 121.24 127.68 121.24 116.11 136.75"/><polygon class="cls-4" points="85.54 136.75 109.52 136.75 121.08 121.24 97.1 121.24 85.54 136.75"/><polygon class="cls-5" points="182.24 121.24 158.26 121.24 146.69 136.75 170.67 136.75 182.24 121.24"/><polygon class="cls-6" points="54.96 136.75 78.94 136.75 90.51 121.24 66.53 121.24 54.96 136.75"/><polygon class="cls-7" points="4.4 121.24 4.4 136.75 17.79 136.75 29.35 121.24 4.4 121.24"/><polygon class="cls-8" points="177.27 136.75 198.26 136.75 209.47 121.24 188.84 121.24 177.27 136.75"/><polygon class="cls-9" points="24.38 136.75 48.36 136.75 59.93 121.24 35.95 121.24 24.38 136.75"/><polygon class="cls-3" points="116.11 136.75 140.1 136.75 151.66 121.24 127.68 121.24 116.11 136.75"/><polygon class="cls-4" points="85.54 136.75 109.52 136.75 121.08 121.24 97.1 121.24 85.54 136.75"/><polygon class="cls-5" points="182.24 121.24 158.26 121.24 146.69 136.75 170.67 136.75 182.24 121.24"/><polygon class="cls-6" points="54.96 136.75 78.94 136.75 90.51 121.24 66.53 121.24 54.96 136.75"/><polygon class="cls-7" points="4.4 121.24 4.4 136.75 17.79 136.75 29.35 121.24 4.4 121.24"/><polygon class="cls-9" points="24.38 136.75 48.36 136.75 59.93 121.24 35.95 121.24 24.38 136.75"/><polygon class="cls-10" points="256.54 9.97 246.9 9.97 242.26 6.44 251.89 6.44 256.54 9.97"/><polygon class="cls-11" points="268.82 9.97 259.18 9.97 254.54 6.44 264.17 6.44 268.82 9.97"/><polygon class="cls-12" points="229.98 6.44 239.61 6.44 244.25 9.97 234.62 9.97 229.98 6.44"/><polygon class="cls-13" points="281.1 9.97 271.46 9.97 266.82 6.44 276.45 6.44 281.1 9.97"/><polygon class="cls-14" points="231.97 9.97 223.55 9.97 219.04 6.44 227.33 6.44 231.97 9.97"/><polygon class="cls-15" points="293.38 9.97 283.75 9.97 279.1 6.44 288.73 6.44 293.38 9.97"/><polygon class="cls-10" points="256.54 9.97 246.9 9.97 242.26 6.44 251.89 6.44 256.54 9.97"/><polygon class="cls-11" points="268.82 9.97 259.18 9.97 254.54 6.44 264.17 6.44 268.82 9.97"/><polygon class="cls-12" points="229.98 6.44 239.61 6.44 244.25 9.97 234.62 9.97 229.98 6.44"/><polygon class="cls-13" points="281.1 9.97 271.46 9.97 266.82 6.44 276.45 6.44 281.1 9.97"/><polygon class="cls-15" points="293.38 9.97 283.75 9.97 279.1 6.44 288.73 6.44 293.38 9.97"/><path class="cls-16" d="M447.15,110.85H5.41a.92.92,0,0,1-.91-.92h0V9.44a.92.92,0,0,1,.91-.89H478.76a.91.91,0,0,1,.91.91h0V78.32a.93.93,0,0,1-.26.64l-31.62,31.59A.94.94,0,0,1,447.15,110.85ZM6.32,109H446.77l31.08-31.09V10.35H6.32Z" transform="translate(0 5.54)"/><path id="SVGID-2" class="cls-17" d="M455.43,114.94a.45.45,0,0,1-.45-.47.43.43,0,0,1,.13-.3l32-32V.92H219.26a.46.46,0,0,1-.52-.39.45.45,0,0,1,.38-.52H487.57a.46.46,0,0,1,.46.46V82.35a.45.45,0,0,1-.14.32L455.75,114.8A.43.43,0,0,1,455.43,114.94Z" transform="translate(0 5.54)"/><g class="cls-18"><rect class="cls-19" x="218.8" y="5.54" width="269.23" height="114.94"/><path class="cls-20" d="M249.92,57.47a214,214,0,0,1,8.13-59.15v.77H448.78v-.77a214,214,0,0,1,8.13,59.15,214,214,0,0,1-8.13,59.16v-.77H258.05v.77A214,214,0,0,1,249.92,57.47Z" transform="translate(0 5.54)"/><path class="cls-21" d="M301.67,57.47c0-21,5.79-40,15.15-53.73a63.6,63.6,0,0,1,7.66-9.28V-.91h57.87V-5.54A63.61,63.61,0,0,1,390,3.75c9.36,13.75,15.15,32.75,15.15,53.72s-5.79,40-15.15,53.73a63.71,63.71,0,0,1-7.66,9.28v-4.62H324.48v4.63a64.14,64.14,0,0,1-7.66-9.28C307.46,97.46,301.67,78.46,301.67,57.47Z" transform="translate(0 5.54)"/></g><polygon class="cls-22" points="5.41 88.89 11.5 80.77 11.5 20.54 82.56 20.54 93.39 14.45 5.41 14.98 5.41 88.89"/><polygon class="cls-23" points="472.01 14.79 472.01 80.77 444.6 108.69 354.26 108.69 346.65 115.28 447.14 115.28 478.76 83.85 478.76 14.98 472.01 14.79"/><polygon class="cls-24" points="4.4 77.73 2.37 72.65 2.37 35.43 0 29.68 0 9.04 27.75 9.04 24.7 11.75 79.51 11.75 77.82 14.45 4.4 14.45 4.4 77.73"/></g></g></g></g></svg>