<svg xmlns="http://www.w3.org/2000/svg" xmlns:xlink="http://www.w3.org/1999/xlink" viewBox="0 0 489.97 145.96"><defs><style>.cls-1,.cls-2,.cls-3,.cls-4,.cls-5,.cls-6,.cls-7,.cls-8{fill:#00d0ff;}.cls-2{opacity:0.2;}.cls-3{opacity:0.7;}.cls-4{opacity:0.6;}.cls-5{opacity:0.8;}.cls-6{opacity:0.5;}.cls-7{opacity:0.3;}.cls-8{opacity:0.4;}.cls-9{clip-path:url(#clip-path);}</style><clipPath id="clip-path"><path id="SVGID" class="cls-1" d="M457.24,129.62a.45.45,0,0,1-.32-.13.46.46,0,0,1,0-.65l32.14-32.13V15.14H220.13a.46.46,0,1,1,0-.91H489.52a.45.45,0,0,1,.45.46v82.2a.49.49,0,0,1-.13.33l-32.27,32.27A.46.46,0,0,1,457.24,129.62Z"/></clipPath></defs><title>promo_input_02</title><g id="Layer_2" data-name="Layer 2"><g id="Layer_1-2" data-name="Layer 1"><polygon class="cls-2" points="480.67 23.7 5.43 23.7 5.43 124.59 448.93 124.59 480.67 92.85 480.67 23.7"/><polygon class="cls-3" points="116.58 145.97 140.66 145.97 152.27 130.39 128.19 130.39 116.58 145.97"/><polygon class="cls-4" points="85.88 145.97 109.95 145.97 121.57 130.39 97.49 130.39 85.88 145.97"/><polygon class="cls-5" points="182.97 130.39 158.89 130.39 147.28 145.97 171.35 145.97 182.97 130.39"/><polygon class="cls-6" points="55.18 145.97 79.26 145.97 90.87 130.39 66.79 130.39 55.18 145.97"/><polygon class="cls-7" points="4.42 130.39 4.42 145.97 17.86 145.97 29.47 130.39 4.42 130.39"/><polygon class="cls-1" points="177.98 145.97 199.05 145.97 210.31 130.39 189.59 130.39 177.98 145.97"/><polygon class="cls-8" points="24.48 145.97 48.56 145.97 60.17 130.39 36.09 130.39 24.48 145.97"/><polygon class="cls-3" points="116.58 145.97 140.66 145.97 152.27 130.39 128.19 130.39 116.58 145.97"/><polygon class="cls-4" points="85.88 145.97 109.95 145.97 121.57 130.39 97.49 130.39 85.88 145.97"/><polygon class="cls-5" points="182.97 130.39 158.89 130.39 147.28 145.97 171.35 145.97 182.97 130.39"/><polygon class="cls-6" points="55.18 145.97 79.26 145.97 90.87 130.39 66.79 130.39 55.18 145.97"/><polygon class="cls-7" points="4.42 130.39 4.42 145.97 17.86 145.97 29.47 130.39 4.42 130.39"/><polygon class="cls-8" points="24.48 145.97 48.56 145.97 60.17 130.39 36.09 130.39 24.48 145.97"/><polygon class="cls-3" points="257.56 18.68 247.89 18.68 243.22 15.13 252.89 15.13 257.56 18.68"/><polygon class="cls-4" points="269.89 18.68 260.22 18.68 255.55 15.13 265.22 15.13 269.89 18.68"/><polygon class="cls-5" points="230.9 15.13 240.56 15.13 245.23 18.68 235.56 18.68 230.9 15.13"/><polygon class="cls-6" points="282.22 18.68 272.55 18.68 267.88 15.13 277.55 15.13 282.22 18.68"/><polygon class="cls-1" points="232.9 18.68 224.44 18.68 219.91 15.13 228.24 15.13 232.9 18.68"/><polygon class="cls-8" points="294.55 18.68 284.88 18.68 280.21 15.13 289.88 15.13 294.55 18.68"/><polygon class="cls-3" points="257.56 18.68 247.89 18.68 243.22 15.13 252.89 15.13 257.56 18.68"/><polygon class="cls-4" points="269.89 18.68 260.22 18.68 255.55 15.13 265.22 15.13 269.89 18.68"/><polygon class="cls-5" points="230.9 15.13 240.56 15.13 245.23 18.68 235.56 18.68 230.9 15.13"/><polygon class="cls-6" points="282.22 18.68 272.55 18.68 267.88 15.13 277.55 15.13 282.22 18.68"/><polygon class="cls-8" points="294.55 18.68 284.88 18.68 280.21 15.13 289.88 15.13 294.55 18.68"/><path class="cls-1" d="M448.93,125.51H5.44a.92.92,0,0,1-.92-.92V23.71a.92.92,0,0,1,.92-.92H480.67a.91.91,0,0,1,.91.92V92.85a.94.94,0,0,1-.26.65l-31.75,31.74A.91.91,0,0,1,448.93,125.51ZM6.35,123.68h442.2l31.21-31.21V24.62H6.35Z"/><path id="SVGID-2" data-name="SVGID" class="cls-1" d="M457.24,129.62a.45.45,0,0,1-.32-.13.46.46,0,0,1,0-.65l32.14-32.13V15.14H220.13a.46.46,0,1,1,0-.91H489.52a.45.45,0,0,1,.45.46v82.2a.49.49,0,0,1-.13.33l-32.27,32.27A.46.46,0,0,1,457.24,129.62Z"/><g class="cls-9"><rect class="cls-1" x="219.67" y="14.23" width="270.3" height="115.39"/><path class="cls-1" d="M250.91,71.93a215,215,0,0,1,8.17-59.39v.78H450.57v-.78a215,215,0,0,1,8.16,59.39,215.12,215.12,0,0,1-8.16,59.39v-.78H259.08v.78A215.12,215.12,0,0,1,250.91,71.93Z"/><path class="cls-1" d="M302.87,71.93c0-21.07,5.81-40.14,15.22-53.95a63.34,63.34,0,0,1,7.68-9.31v4.65h58.1V8.67A62.76,62.76,0,0,1,391.56,18c9.4,13.81,15.22,32.88,15.22,54s-5.82,40.13-15.22,53.94a63.37,63.37,0,0,1-7.69,9.32v-4.65h-58.1v4.65a64,64,0,0,1-7.68-9.32C308.68,112.06,302.87,93,302.87,71.93Z"/></g><polygon class="cls-6" points="5.43 97.91 11.55 89.76 11.55 29.29 82.89 29.29 93.76 23.18 5.43 23.7 5.43 97.91"/><polygon class="cls-6" points="473.89 23.52 473.89 89.76 446.37 117.79 355.67 117.79 348.03 124.41 448.93 124.41 480.67 92.85 480.67 23.7 473.89 23.52"/><polygon class="cls-1" points="4.42 86.7 2.38 81.61 2.38 44.24 0 38.47 0 17.74 27.86 17.74 24.8 20.46 79.83 20.46 78.13 23.18 4.42 23.18 4.42 86.7"/><path class="cls-1" d="M221,0h10.6V2.62h-8Zm0,9.53V3.36H224V9.53Zm10.6-6.91L234.21,0V6h-9.14V3.36h6.55Z"/><path class="cls-1" d="M237.88,0V5.14l-3,1.76V0Zm-3,6.9h11.31l-2.57,2.61h-8.74Z"/><path class="cls-1" d="M246.92,0h13.19V9.53h-2.59V7.21h-7.67V9.53h-2.93V4.14l2.93-1.52V6.68l1.55-2.09h6.12v-2h-7.67Z"/><path class="cls-1" d="M272.7,9.53h-9.31l-2.58-2.61V0h10.61l1.29,2.62h-9.32v4.3h9.31Z"/><path class="cls-1" d="M283.57,6H276v.94h9.52V9.53H276l-2.58-2.61V0L276,2.62v.73h9.53Zm3-6L284,2.62h-8V0Z"/><path class="cls-1" d="M293.37,2.62v.73h9.54L301,6h-7.59V9.53L290.8,6.92V0ZM304,0,301.4,2.62h-8V0Z"/><path class="cls-1" d="M315.3,9.53h-8l-2.57-2.61V0H315.3l2.56,2.62V9.53L315.3,6.92V2.62h-8v4.3h8Z"/><path class="cls-1" d="M321.5,6V9.53h-2.93V3.36h10.6V2.62h-8L318.57,0h13.18V6H327.3l5.58,3.53h-4.37L322.62,6Z"/><path class="cls-1" d="M337.08,0h10.6V2.62h-8Zm0,9.53V3.36H340V9.53Zm10.6-6.91L350.27,0V6h-9.14V3.36h6.55Z"/><path class="cls-1" d="M353.9,6V9.53H351V3.36h10.6V2.62h-8L351,0h13.17V6h-4.45l5.59,3.53h-4.37L355,6Z"/><path class="cls-1" d="M375.75,9.53h-8l-2.57-2.61V0h10.61l2.56,2.62,0,6.91-2.58-2.61V2.62h-8v4.3h8Z"/><path class="cls-1" d="M379,9.53V0l2.6,2.62V9.53ZM381.62,0h4.89l2.58,2.62V9.53H386.5V2.62h-4.88ZM394,0l2.58,2.62V9.53H394V2.62h-4.9V0Z"/><path class="cls-1" d="M407.88,9.53h-8l-2.57-2.61V0h10.61l2.56,2.62,0,6.91-2.58-2.61V2.62h-8v4.3h8Z"/><path class="cls-1" d="M426.54,9.53h-9.31l-2.58-2.61V0h10.62l1.28,2.62h-9.32v4.3h9.31Z"/><path class="cls-1" d="M437.87,9.53h-8l-2.58-2.61V0h10.62l2.56,2.62V9.53l-2.57-2.61V2.62h-8v4.3h8Z"/><path class="cls-1" d="M442.61,9.53h-1.47V3.36h2.93V6.92h7.67V2.62h-8L441.14,0h13.19V6.92l-2.59,2.61Z"/><path class="cls-1" d="M465.19,6h-7.58v.94h9.52V9.53h-9.52L455,6.92V0l2.58,2.62v.73h9.53Zm3-6-2.59,2.62h-8V0Z"/></g></g></svg>