<svg xmlns="http://www.w3.org/2000/svg" xmlns:xlink="http://www.w3.org/1999/xlink" viewBox="0 0 489.97 145.57"><defs><style>.cls-1,.cls-2,.cls-3,.cls-4,.cls-5,.cls-6,.cls-7,.cls-8{fill:#00d0ff;}.cls-2{opacity:0.2;}.cls-3{opacity:0.7;}.cls-4{opacity:0.6;}.cls-5{opacity:0.8;}.cls-6{opacity:0.5;}.cls-7{opacity:0.3;}.cls-8{opacity:0.4;}.cls-9{clip-path:url(#clip-path);}</style><clipPath id="clip-path"><path id="SVGID" class="cls-1" d="M457.24,129.23a.45.45,0,0,1-.32-.13.46.46,0,0,1,0-.65l32.14-32.14V14.75H220.13a.46.46,0,1,1,0-.91H489.52a.45.45,0,0,1,.45.45V96.5a.46.46,0,0,1-.13.32L457.57,129.1A.46.46,0,0,1,457.24,129.23Z"/></clipPath></defs><title>promo_input_01</title><g id="Layer_2" data-name="Layer 2"><g id="Layer_1-2" data-name="Layer 1"><polygon class="cls-2" points="480.67 23.31 5.43 23.31 5.43 124.2 448.93 124.2 480.67 92.46 480.67 23.31"/><polygon class="cls-3" points="116.58 145.57 140.66 145.57 152.27 130 128.19 130 116.58 145.57"/><polygon class="cls-4" points="85.88 145.57 109.95 145.57 121.57 130 97.49 130 85.88 145.57"/><polygon class="cls-5" points="182.97 130 158.89 130 147.28 145.57 171.35 145.57 182.97 130"/><polygon class="cls-6" points="55.18 145.57 79.26 145.57 90.87 130 66.79 130 55.18 145.57"/><polygon class="cls-7" points="4.42 130 4.42 145.57 17.86 145.57 29.47 130 4.42 130"/><polygon class="cls-1" points="177.98 145.57 199.05 145.57 210.31 130 189.59 130 177.98 145.57"/><polygon class="cls-8" points="24.48 145.57 48.56 145.57 60.17 130 36.09 130 24.48 145.57"/><polygon class="cls-3" points="116.58 145.57 140.66 145.57 152.27 130 128.19 130 116.58 145.57"/><polygon class="cls-4" points="85.88 145.57 109.95 145.57 121.57 130 97.49 130 85.88 145.57"/><polygon class="cls-5" points="182.97 130 158.89 130 147.28 145.57 171.35 145.57 182.97 130"/><polygon class="cls-6" points="55.18 145.57 79.26 145.57 90.87 130 66.79 130 55.18 145.57"/><polygon class="cls-7" points="4.42 130 4.42 145.57 17.86 145.57 29.47 130 4.42 130"/><polygon class="cls-8" points="24.48 145.57 48.56 145.57 60.17 130 36.09 130 24.48 145.57"/><polygon class="cls-3" points="257.56 18.28 247.89 18.28 243.22 14.74 252.89 14.74 257.56 18.28"/><polygon class="cls-4" points="269.89 18.28 260.22 18.28 255.55 14.74 265.22 14.74 269.89 18.28"/><polygon class="cls-5" points="230.9 14.74 240.56 14.74 245.23 18.28 235.56 18.28 230.9 14.74"/><polygon class="cls-6" points="282.22 18.28 272.55 18.28 267.88 14.74 277.55 14.74 282.22 18.28"/><polygon class="cls-1" points="232.9 18.28 224.44 18.28 219.91 14.74 228.24 14.74 232.9 18.28"/><polygon class="cls-8" points="294.55 18.28 284.88 18.28 280.21 14.74 289.88 14.74 294.55 18.28"/><polygon class="cls-3" points="257.56 18.28 247.89 18.28 243.22 14.74 252.89 14.74 257.56 18.28"/><polygon class="cls-4" points="269.89 18.28 260.22 18.28 255.55 14.74 265.22 14.74 269.89 18.28"/><polygon class="cls-5" points="230.9 14.74 240.56 14.74 245.23 18.28 235.56 18.28 230.9 14.74"/><polygon class="cls-6" points="282.22 18.28 272.55 18.28 267.88 14.74 277.55 14.74 282.22 18.28"/><polygon class="cls-8" points="294.55 18.28 284.88 18.28 280.21 14.74 289.88 14.74 294.55 18.28"/><path class="cls-1" d="M448.93,125.11H5.44a.92.92,0,0,1-.92-.91V23.31a.92.92,0,0,1,.92-.91H480.67a.91.91,0,0,1,.91.91V92.46a.9.9,0,0,1-.26.64l-31.75,31.75A.9.9,0,0,1,448.93,125.11ZM6.35,123.29h442.2l31.21-31.21V24.23H6.35Z"/><path id="SVGID-2" data-name="SVGID" class="cls-1" d="M457.24,129.23a.45.45,0,0,1-.32-.13.46.46,0,0,1,0-.65l32.14-32.14V14.75H220.13a.46.46,0,1,1,0-.91H489.52a.45.45,0,0,1,.45.45V96.5a.46.46,0,0,1-.13.32L457.57,129.1A.46.46,0,0,1,457.24,129.23Z"/><g class="cls-9"><rect class="cls-1" x="219.67" y="13.84" width="270.3" height="115.39"/><path class="cls-1" d="M250.91,71.53a215,215,0,0,1,8.17-59.38v.77H450.57v-.77a215,215,0,0,1,8.16,59.38,215,215,0,0,1-8.16,59.39v-.78H259.08v.78A215,215,0,0,1,250.91,71.53Z"/><path class="cls-1" d="M302.87,71.53c0-21.06,5.81-40.13,15.22-53.94a63.34,63.34,0,0,1,7.68-9.31v4.64h58.1V8.28a62.76,62.76,0,0,1,7.69,9.31c9.4,13.81,15.22,32.88,15.22,53.94s-5.82,40.14-15.22,54a62.76,62.76,0,0,1-7.69,9.31v-4.65h-58.1v4.65a63.34,63.34,0,0,1-7.68-9.31C308.68,111.67,302.87,92.6,302.87,71.53Z"/></g><polygon class="cls-6" points="5.43 97.52 11.55 89.37 11.55 28.9 82.89 28.9 93.76 22.79 5.43 23.31 5.43 97.52"/><polygon class="cls-6" points="473.89 23.13 473.89 89.37 446.37 117.39 355.67 117.39 348.03 124.02 448.93 124.02 480.67 92.46 480.67 23.31 473.89 23.13"/><polygon class="cls-1" points="4.42 86.31 2.38 81.22 2.38 43.85 0 38.07 0 17.35 27.86 17.35 24.8 20.07 79.83 20.07 78.13 22.79 4.42 22.79 4.42 86.31"/><path class="cls-1" d="M233.24,0l-2.58,2.62H220.3V0Zm-5.73,10.84-3-2.62V2.62l3,1.76Z"/><path class="cls-1" d="M247.13,0V3.36l-2.59,2.31h-8l-2.57-2.31V0h2.57V3.36h8V0ZM233.94,6.92h10.6V5.67h2.59V6.92l-2.59,2.61h-10.6Z"/><path class="cls-1" d="M247.82,0h10.6V2.62h-8Zm0,9.53V3.36h2.93V9.53Zm10.6-6.91L261,0V6h-9.14V3.36h6.55Z"/><path class="cls-1" d="M271.88,6h-7.59v.94h9.52V9.53h-9.52l-2.58-2.61V0l2.58,2.62v.73h9.53Zm3-6-2.59,2.62h-8V0Z"/><path class="cls-1" d="M279.1,0h10.6V2.62h-8Zm0,9.53V3.36H282V9.53Zm10.6-6.91L292.29,0V6h-9.14V3.36h6.55Z"/><path class="cls-1" d="M295.92,6V9.53H293V3.36h10.6V2.62h-8L293,0h13.17V6h-4.45l5.59,3.53h-4.37L297,6Z"/><path class="cls-1" d="M317.77,9.53h-8l-2.57-2.61V0h10.61l2.56,2.62V9.53l-2.57-2.61V2.62h-8v4.3h8Z"/><path class="cls-1" d="M321,9.53V0l2.59,2.62V9.53ZM323.63,0h4.9l2.58,2.62V9.53h-2.59V2.62h-4.89ZM336,0l2.58,2.62V9.53H336V2.62h-4.9V0Z"/><path class="cls-1" d="M349.9,9.53h-8l-2.57-2.61V0H349.9l2.56,2.62V9.53L349.9,6.92V2.62h-8v4.3h8Z"/><path class="cls-1" d="M368.56,9.53h-9.31l-2.58-2.61V0h10.62l1.28,2.62h-9.32v4.3h9.31Z"/><path class="cls-1" d="M379.89,9.53h-8l-2.58-2.61V0h10.62l2.56,2.62V9.53l-2.57-2.61V2.62h-8v4.3h8Z"/><path class="cls-1" d="M384.63,9.53h-1.47V3.36h2.93V6.92h7.67V2.62h-8L383.16,0h13.19V6.92l-2.59,2.61Z"/><path class="cls-1" d="M407.21,6h-7.58v.94h9.52V9.53h-9.52l-2.58-2.61V0l2.58,2.62v.73h9.53Zm3-6-2.59,2.62h-8V0Z"/><path class="cls-1" d="M417,0V3.35H424L422,6h-5V9.53h-2.57V0ZM424,0h2.57V9.53H424V0Z"/><path class="cls-1" d="M437.4,6h-7.59v.94h9.52V9.53h-9.52l-2.58-2.61V0l2.58,2.62v.73h9.53Zm3-6-2.59,2.62h-8V0Z"/><path class="cls-1" d="M444.05,6V9.53h-2.93V3.36h10.6V2.62h-8L441.12,0H454.3V6h-4.46l5.59,3.53h-4.37L445.17,6Z"/><path class="cls-1" d="M465.31,6h-7.59v.94h9.53V9.53h-9.53l-2.57-2.61V0l2.57,2.62v.73h9.54Zm3-6-2.59,2.62h-8V0Z"/></g></g></svg>