<svg xmlns="http://www.w3.org/2000/svg" xmlns:xlink="http://www.w3.org/1999/xlink" viewBox="0 0 489.97 145.88"><defs><style>.cls-1,.cls-2,.cls-3,.cls-4,.cls-5,.cls-6,.cls-7,.cls-8{fill:#00d0ff;}.cls-2{opacity:0.2;}.cls-3{opacity:0.7;}.cls-4{opacity:0.6;}.cls-5{opacity:0.8;}.cls-6{opacity:0.5;}.cls-7{opacity:0.3;}.cls-8{opacity:0.4;}.cls-9{clip-path:url(#clip-path);}</style><clipPath id="clip-path"><path id="SVGID" class="cls-1" d="M457.24,129.54a.45.45,0,0,1-.32-.13.46.46,0,0,1,0-.65l32.14-32.14V15.06H220.13a.46.46,0,1,1,0-.91H489.52a.45.45,0,0,1,.45.45V96.81a.46.46,0,0,1-.13.32l-32.27,32.28A.46.46,0,0,1,457.24,129.54Z"/></clipPath></defs><title>promo_input_03</title><g id="Layer_2" data-name="Layer 2"><g id="Layer_1-2" data-name="Layer 1"><polygon class="cls-2" points="480.67 23.62 5.43 23.62 5.43 124.51 448.93 124.51 480.67 92.77 480.67 23.62"/><polygon class="cls-3" points="116.58 145.88 140.66 145.88 152.27 130.31 128.19 130.31 116.58 145.88"/><polygon class="cls-4" points="85.88 145.88 109.95 145.88 121.57 130.31 97.49 130.31 85.88 145.88"/><polygon class="cls-5" points="182.97 130.31 158.89 130.31 147.28 145.88 171.35 145.88 182.97 130.31"/><polygon class="cls-6" points="55.18 145.88 79.26 145.88 90.87 130.31 66.79 130.31 55.18 145.88"/><polygon class="cls-7" points="4.42 130.31 4.42 145.88 17.86 145.88 29.47 130.31 4.42 130.31"/><polygon class="cls-1" points="177.98 145.88 199.05 145.88 210.31 130.31 189.59 130.31 177.98 145.88"/><polygon class="cls-8" points="24.48 145.88 48.56 145.88 60.17 130.31 36.09 130.31 24.48 145.88"/><polygon class="cls-3" points="116.58 145.88 140.66 145.88 152.27 130.31 128.19 130.31 116.58 145.88"/><polygon class="cls-4" points="85.88 145.88 109.95 145.88 121.57 130.31 97.49 130.31 85.88 145.88"/><polygon class="cls-5" points="182.97 130.31 158.89 130.31 147.28 145.88 171.35 145.88 182.97 130.31"/><polygon class="cls-6" points="55.18 145.88 79.26 145.88 90.87 130.31 66.79 130.31 55.18 145.88"/><polygon class="cls-7" points="4.42 130.31 4.42 145.88 17.86 145.88 29.47 130.31 4.42 130.31"/><polygon class="cls-8" points="24.48 145.88 48.56 145.88 60.17 130.31 36.09 130.31 24.48 145.88"/><polygon class="cls-3" points="257.56 18.59 247.89 18.59 243.22 15.05 252.89 15.05 257.56 18.59"/><polygon class="cls-4" points="269.89 18.59 260.22 18.59 255.55 15.05 265.22 15.05 269.89 18.59"/><polygon class="cls-5" points="230.9 15.05 240.56 15.05 245.23 18.59 235.56 18.59 230.9 15.05"/><polygon class="cls-6" points="282.22 18.59 272.55 18.59 267.88 15.05 277.55 15.05 282.22 18.59"/><polygon class="cls-1" points="232.9 18.59 224.44 18.59 219.91 15.05 228.24 15.05 232.9 18.59"/><polygon class="cls-8" points="294.55 18.59 284.88 18.59 280.21 15.05 289.88 15.05 294.55 18.59"/><polygon class="cls-3" points="257.56 18.59 247.89 18.59 243.22 15.05 252.89 15.05 257.56 18.59"/><polygon class="cls-4" points="269.89 18.59 260.22 18.59 255.55 15.05 265.22 15.05 269.89 18.59"/><polygon class="cls-5" points="230.9 15.05 240.56 15.05 245.23 18.59 235.56 18.59 230.9 15.05"/><polygon class="cls-6" points="282.22 18.59 272.55 18.59 267.88 15.05 277.55 15.05 282.22 18.59"/><polygon class="cls-8" points="294.55 18.59 284.88 18.59 280.21 15.05 289.88 15.05 294.55 18.59"/><path class="cls-1" d="M448.93,125.42H5.44a.92.92,0,0,1-.92-.91V23.62a.92.92,0,0,1,.92-.91H480.67a.91.91,0,0,1,.91.91V92.77a.9.9,0,0,1-.26.64l-31.75,31.74A.87.87,0,0,1,448.93,125.42ZM6.35,123.6h442.2l31.21-31.21V24.54H6.35Z"/><path id="SVGID-2" data-name="SVGID" class="cls-1" d="M457.24,129.54a.45.45,0,0,1-.32-.13.46.46,0,0,1,0-.65l32.14-32.14V15.06H220.13a.46.46,0,1,1,0-.91H489.52a.45.45,0,0,1,.45.45V96.81a.46.46,0,0,1-.13.32l-32.27,32.28A.46.46,0,0,1,457.24,129.54Z"/><g class="cls-9"><rect class="cls-1" x="219.67" y="14.15" width="270.3" height="115.39"/><path class="cls-1" d="M250.91,71.84a215.12,215.12,0,0,1,8.17-59.39v.78H450.57v-.78a215.12,215.12,0,0,1,8.16,59.39,215,215,0,0,1-8.16,59.39v-.78H259.08v.78A215,215,0,0,1,250.91,71.84Z"/><path class="cls-1" d="M302.87,71.84c0-21.06,5.81-40.13,15.22-53.94a64,64,0,0,1,7.68-9.32v4.65h58.1V8.58a63.37,63.37,0,0,1,7.69,9.32c9.4,13.81,15.22,32.88,15.22,53.94s-5.82,40.14-15.22,54a62.76,62.76,0,0,1-7.69,9.31v-4.65h-58.1v4.65a63.34,63.34,0,0,1-7.68-9.31C308.68,112,302.87,92.91,302.87,71.84Z"/></g><polygon class="cls-6" points="5.43 97.83 11.55 89.68 11.55 29.21 82.89 29.21 93.76 23.09 5.43 23.62 5.43 97.83"/><polygon class="cls-6" points="473.89 23.43 473.89 89.68 446.37 117.7 355.67 117.7 348.03 124.33 448.93 124.33 480.67 92.77 480.67 23.62 473.89 23.43"/><polygon class="cls-1" points="4.42 86.62 2.38 81.53 2.38 44.16 0 38.38 0 17.66 27.86 17.66 24.8 20.38 79.83 20.38 78.13 23.09 4.42 23.09 4.42 86.62"/><path class="cls-1" d="M220,0h10.6V2.62h-8Zm0,9.53V3.36H223V9.53Zm10.6-6.91L233.21,0V6h-9.14V3.36h6.55Z"/><path class="cls-1" d="M236.88,0V5.14l-3,1.76V0Zm-3,6.9h11.31l-2.57,2.61h-8.74Z"/><path class="cls-1" d="M245.92,0h13.19V9.53h-2.59V7.21h-7.67V9.53h-2.93V4.14l2.93-1.52V6.68l1.55-2.09h6.12v-2h-7.67Z"/><path class="cls-1" d="M271.7,9.53h-9.31l-2.58-2.61V0h10.61l1.29,2.62h-9.32v4.3h9.31Z"/><path class="cls-1" d="M282.57,6H275v.94h9.52V9.53H275l-2.58-2.61V0L275,2.62v.73h9.53Zm3-6L283,2.62h-8V0Z"/><path class="cls-1" d="M289.8,0h10.6V2.62h-8Zm0,9.53V3.36h2.92V9.53Zm10.6-6.91L303,0V6h-9.15V3.36h6.56Z"/><path class="cls-1" d="M306.61,6V9.53h-2.92V3.36h10.59V2.62h-8L303.69,0h13.17V6h-4.45L318,9.51h-4.36L307.73,6Z"/><path class="cls-1" d="M328.46,9.53h-8l-2.58-2.61V0h10.61L331,2.62V9.53l-2.58-2.61V2.62h-8v4.3h8Z"/><path class="cls-1" d="M331.74,9.53V0l2.59,2.62V9.53ZM334.33,0h4.9l2.58,2.62V9.53h-2.59V2.62h-4.89Zm12.38,0,2.57,2.62V9.53h-2.57V2.62h-4.9V0Z"/><path class="cls-1" d="M360.59,9.53h-8L350,6.92V0h10.61l2.57,2.62V9.53l-2.58-2.61V2.62h-8v4.3h8Z"/><path class="cls-1" d="M379.26,9.53H370l-2.58-2.61V0H378l1.29,2.62H370v4.3h9.31Z"/><path class="cls-1" d="M390.58,9.53h-8L380,6.92V0h10.61l2.57,2.62V9.53l-2.58-2.61V2.62h-8v4.3h8Z"/><path class="cls-1" d="M395.33,9.53h-1.47V3.36h2.93V6.92h7.67V2.62h-8L393.86,0h13.19V6.92l-2.59,2.61Z"/><path class="cls-1" d="M417.91,6h-7.59v.94h9.52V9.53h-9.52l-2.57-2.61V0l2.57,2.62v.73h9.54Zm3-6-2.59,2.62h-8V0Z"/><path class="cls-1" d="M427.71,0V3.35h6.94L432.71,6h-5V9.53h-2.58V0Zm6.94,0h2.58V9.53h-2.58V0Z"/><path class="cls-1" d="M448.09,6h-7.58v.94H450V9.53h-9.52l-2.58-2.61V0l2.58,2.62v.73H450Zm3-6-2.59,2.62h-8V0Z"/><path class="cls-1" d="M454.74,6V9.53h-2.92V3.36h10.6V2.62h-8L451.82,0H465V6h-4.45l5.59,3.53h-4.37L455.86,6Z"/><path class="cls-1" d="M476,6h-7.59v.94h9.52V9.53h-9.52l-2.57-2.61V0l2.57,2.62v.73H478Zm3-6-2.59,2.62h-8V0Z"/></g></g></svg>