<svg xmlns="http://www.w3.org/2000/svg" xmlns:xlink="http://www.w3.org/1999/xlink" viewBox="0 0 495.39 163.07"><defs><style>.cls-1{mask:url(#mask);filter:url(#luminosity-noclip-2);}.cls-2{mix-blend-mode:multiply;fill:url(#linear-gradient);}.cls-3{mask:url(#mask-2);}.cls-28,.cls-4,.cls-9{opacity:0.6;}.cls-4{fill:url(#New_Gradient_Swatch_1);}.cls-5{fill:url(#New_Gradient_Swatch_1-2);}.cls-13,.cls-32,.cls-6{opacity:0.5;}.cls-6{fill:url(#New_Gradient_Swatch_1-3);}.cls-7{fill:url(#New_Gradient_Swatch_1-4);}.cls-27,.cls-8{opacity:0.9;}.cls-8{fill:url(#New_Gradient_Swatch_1-5);}.cls-9{fill:url(#New_Gradient_Swatch_1-6);}.cls-10,.cls-29{opacity:0.7;}.cls-10{fill:url(#New_Gradient_Swatch_1-7);}.cls-11,.cls-30{opacity:0.8;}.cls-11{fill:url(#New_Gradient_Swatch_1-8);}.cls-12{fill:url(#New_Gradient_Swatch_1-9);}.cls-13{fill:url(#New_Gradient_Swatch_1-10);}.cls-14,.cls-33{opacity:0.2;}.cls-14{fill:url(#New_Gradient_Swatch_1-11);}.cls-15,.cls-34{opacity:0.4;}.cls-15{fill:url(#New_Gradient_Swatch_1-12);}.cls-16,.cls-35{opacity:0.3;}.cls-16{fill:url(#New_Gradient_Swatch_1-13);}.cls-17{fill:url(#New_Gradient_Swatch_1-14);}.cls-18{fill:url(#New_Gradient_Swatch_1-15);}.cls-19{fill:url(#New_Gradient_Swatch_1-16);}.cls-20{fill:url(#New_Gradient_Swatch_1-17);}.cls-21{fill:url(#New_Gradient_Swatch_1-18);}.cls-22{fill:url(#New_Gradient_Swatch_1-19);}.cls-23{fill:url(#New_Gradient_Swatch_1-20);}.cls-24{fill:url(#New_Gradient_Swatch_1-21);}.cls-25{fill:url(#New_Gradient_Swatch_1-22);}.cls-26{fill:url(#New_Gradient_Swatch_1-23);}.cls-27{fill:url(#New_Gradient_Swatch_1-24);}.cls-28{fill:url(#New_Gradient_Swatch_1-25);}.cls-29{fill:url(#New_Gradient_Swatch_1-26);}.cls-30{fill:url(#New_Gradient_Swatch_1-27);}.cls-31{fill:url(#New_Gradient_Swatch_1-28);}.cls-32{fill:url(#New_Gradient_Swatch_1-29);}.cls-33{fill:url(#New_Gradient_Swatch_1-30);}.cls-34{fill:url(#New_Gradient_Swatch_1-31);}.cls-35{fill:url(#New_Gradient_Swatch_1-32);}.cls-36{fill:url(#New_Gradient_Swatch_1-33);}.cls-37{fill:url(#New_Gradient_Swatch_1-34);}.cls-38{fill:url(#New_Gradient_Swatch_1-35);}.cls-39{fill:url(#New_Gradient_Swatch_1-36);}.cls-40{fill:url(#New_Gradient_Swatch_1-37);}.cls-41{fill:url(#New_Gradient_Swatch_6);}.cls-42{fill:url(#New_Gradient_Swatch_6-2);}.cls-43{fill:url(#New_Gradient_Swatch_6-3);}.cls-44{fill:url(#New_Gradient_Swatch_6-4);}.cls-45{fill:url(#New_Gradient_Swatch_6-5);}.cls-46{fill:url(#New_Gradient_Swatch_6-6);}.cls-47{fill:url(#New_Gradient_Swatch_6-7);}.cls-48{fill:url(#New_Gradient_Swatch_6-8);}.cls-49{fill:url(#New_Gradient_Swatch_6-9);}.cls-50{fill:url(#New_Gradient_Swatch_6-10);}.cls-51{fill:url(#New_Gradient_Swatch_6-11);}.cls-52{fill:url(#New_Gradient_Swatch_6-12);}.cls-53{fill:url(#New_Gradient_Swatch_1-38);}.cls-54{fill:url(#New_Gradient_Swatch_1-39);}.cls-55{fill:url(#New_Gradient_Swatch_1-40);}.cls-56{fill:url(#New_Gradient_Swatch_1-41);}.cls-57{fill:url(#New_Gradient_Swatch_1-42);}.cls-58{fill:url(#New_Gradient_Swatch_1-43);}.cls-59{fill:url(#New_Gradient_Swatch_1-44);}.cls-60{fill:url(#New_Gradient_Swatch_1-45);}.cls-61{fill:url(#New_Gradient_Swatch_1-46);}.cls-62{fill:url(#New_Gradient_Swatch_1-47);}.cls-63{fill:url(#New_Gradient_Swatch_1-48);}.cls-64{fill:url(#New_Gradient_Swatch_1-49);}.cls-65{fill:url(#New_Gradient_Swatch_1-50);}.cls-66{fill:url(#New_Gradient_Swatch_1-51);}.cls-67{fill:url(#New_Gradient_Swatch_1-52);}.cls-68{fill:url(#New_Gradient_Swatch_1-53);}.cls-69{fill:url(#New_Gradient_Swatch_1-54);}.cls-70{fill:url(#New_Gradient_Swatch_1-55);}.cls-71{fill:url(#New_Gradient_Swatch_1-56);}.cls-72{fill:url(#New_Gradient_Swatch_1-57);}.cls-73{fill:url(#New_Gradient_Swatch_1-58);}.cls-74{fill:url(#New_Gradient_Swatch_1-59);}.cls-75{fill:url(#New_Gradient_Swatch_1-60);}.cls-76{filter:url(#luminosity-noclip);}</style><filter id="luminosity-noclip" x="16.46" y="-8273.71" width="470.1" height="32766" filterUnits="userSpaceOnUse" color-interpolation-filters="sRGB"><feFlood flood-color="#fff" result="bg"/><feBlend in="SourceGraphic" in2="bg"/></filter><mask id="mask" x="16.46" y="-8273.71" width="470.1" height="32766" maskUnits="userSpaceOnUse"><g class="cls-76"/></mask><linearGradient id="linear-gradient" x1="16.46" y1="70.74" x2="486.56" y2="70.74" gradientUnits="userSpaceOnUse"><stop offset="0" stop-color="#fff"/><stop offset="0.07" stop-color="#d8d8d8"/><stop offset="0.16" stop-color="#a6a6a6"/><stop offset="0.26" stop-color="#797979"/><stop offset="0.37" stop-color="#545454"/><stop offset="0.47" stop-color="#353535"/><stop offset="0.58" stop-color="#1e1e1e"/><stop offset="0.7" stop-color="#0d0d0d"/><stop offset="0.83" stop-color="#030303"/><stop offset="1"/></linearGradient><filter id="luminosity-noclip-2" x="16.46" y="23.02" width="470.1" height="95.45" filterUnits="userSpaceOnUse" color-interpolation-filters="sRGB"><feFlood flood-color="#fff" result="bg"/><feBlend in="SourceGraphic" in2="bg"/></filter><mask id="mask-2" x="16.46" y="23.02" width="470.1" height="95.45" maskUnits="userSpaceOnUse"><g class="cls-1"><path class="cls-2" d="M471.68,23H420.35V40.68H87.09L69.43,23h-21l-32,19.41v76h470.1V58.62ZM194.54,67.41l-9-8.53h19.14l9,8.53Zm26.11,0-9-8.53H230.8l9,8.53Zm26.11,0-9-8.53H256.9l9,8.53Zm26.1,0-9-8.53H283l9,8.53Zm26.11,0-9-8.53h19.13l9,8.53Zm26.1,0-9-8.53h19.14l9,8.53Zm26.11,0-9-8.53h19.14l9,8.53Zm26.11,0-9-8.53h19.13l9,8.53Zm26.1,0-9-8.53h16.76l9,8.53Z"/></g></mask><linearGradient id="New_Gradient_Swatch_1" x1="16.46" y1="70.74" x2="486.56" y2="70.74" gradientUnits="userSpaceOnUse"><stop offset="0" stop-color="#cf52fe"/><stop offset="1" stop-color="#19dbb6"/></linearGradient><linearGradient id="New_Gradient_Swatch_1-2" x1="15.53" y1="70.74" x2="487.49" y2="70.74" xlink:href="#New_Gradient_Swatch_1"/><linearGradient id="New_Gradient_Swatch_1-3" x1="419.25" y1="83.44" x2="495.39" y2="83.44" xlink:href="#New_Gradient_Swatch_1"/><linearGradient id="New_Gradient_Swatch_1-4" x1="84.33" y1="44.26" x2="323.79" y2="44.26" xlink:href="#New_Gradient_Swatch_1"/><linearGradient id="New_Gradient_Swatch_1-5" x1="115.34" y1="30.19" x2="154.18" y2="30.19" xlink:href="#New_Gradient_Swatch_1"/><linearGradient id="New_Gradient_Swatch_1-6" x1="223.49" y1="30.19" x2="262.33" y2="30.19" xlink:href="#New_Gradient_Swatch_1"/><linearGradient id="New_Gradient_Swatch_1-7" x1="187.44" y1="30.19" x2="226.28" y2="30.19" xlink:href="#New_Gradient_Swatch_1"/><linearGradient id="New_Gradient_Swatch_1-8" x1="151.39" y1="30.19" x2="190.23" y2="30.19" xlink:href="#New_Gradient_Swatch_1"/><linearGradient id="New_Gradient_Swatch_1-9" x1="82.56" y1="30.19" x2="118.13" y2="30.19" xlink:href="#New_Gradient_Swatch_1"/><linearGradient id="New_Gradient_Swatch_1-10" x1="259.54" y1="30.19" x2="298.38" y2="30.19" xlink:href="#New_Gradient_Swatch_1"/><linearGradient id="New_Gradient_Swatch_1-11" x1="367.68" y1="30.19" x2="406.52" y2="30.19" xlink:href="#New_Gradient_Swatch_1"/><linearGradient id="New_Gradient_Swatch_1-12" x1="295.59" y1="30.19" x2="334.43" y2="30.19" xlink:href="#New_Gradient_Swatch_1"/><linearGradient id="New_Gradient_Swatch_1-13" x1="331.63" y1="30.19" x2="370.47" y2="30.19" xlink:href="#New_Gradient_Swatch_1"/><linearGradient id="New_Gradient_Swatch_1-14" x1="464.85" y1="159.06" x2="489.11" y2="159.06" xlink:href="#New_Gradient_Swatch_1"/><linearGradient id="New_Gradient_Swatch_1-15" x1="474.35" y1="100.06" x2="478.37" y2="100.06" xlink:href="#New_Gradient_Swatch_1"/><linearGradient id="New_Gradient_Swatch_1-16" x1="43.7" y1="2.94" x2="55.82" y2="2.94" xlink:href="#New_Gradient_Swatch_1"/><linearGradient id="New_Gradient_Swatch_1-17" x1="56.71" y1="2.47" x2="68.83" y2="2.47" xlink:href="#New_Gradient_Swatch_1"/><linearGradient id="New_Gradient_Swatch_1-18" x1="69.72" y1="2.01" x2="81.85" y2="2.01" xlink:href="#New_Gradient_Swatch_1"/><linearGradient id="New_Gradient_Swatch_1-19" x1="82.73" y1="2.01" x2="94.86" y2="2.01" xlink:href="#New_Gradient_Swatch_1"/><linearGradient id="New_Gradient_Swatch_1-20" x1="95.74" y1="2.01" x2="107.87" y2="2.01" xlink:href="#New_Gradient_Swatch_1"/><linearGradient id="New_Gradient_Swatch_1-21" x1="108.76" y1="2.01" x2="120.88" y2="2.01" xlink:href="#New_Gradient_Swatch_1"/><linearGradient id="New_Gradient_Swatch_1-22" x1="121.77" y1="2.01" x2="133.89" y2="2.01" xlink:href="#New_Gradient_Swatch_1"/><linearGradient id="New_Gradient_Swatch_1-23" x1="329.96" y1="51.26" x2="342.08" y2="51.26" xlink:href="#New_Gradient_Swatch_1"/><linearGradient id="New_Gradient_Swatch_1-24" x1="23.06" y1="54.62" x2="28.49" y2="54.62" xlink:href="#New_Gradient_Swatch_1"/><linearGradient id="New_Gradient_Swatch_1-25" x1="23.06" y1="78.29" x2="28.49" y2="78.29" xlink:href="#New_Gradient_Swatch_1"/><linearGradient id="New_Gradient_Swatch_1-26" x1="23.06" y1="70.4" x2="28.49" y2="70.4" xlink:href="#New_Gradient_Swatch_1"/><linearGradient id="New_Gradient_Swatch_1-27" x1="23.06" y1="62.51" x2="28.49" y2="62.51" xlink:href="#New_Gradient_Swatch_1"/><linearGradient id="New_Gradient_Swatch_1-28" x1="23.06" y1="47.09" x2="28.49" y2="47.09" xlink:href="#New_Gradient_Swatch_1"/><linearGradient id="New_Gradient_Swatch_1-29" x1="23.06" y1="86.19" x2="28.49" y2="86.19" xlink:href="#New_Gradient_Swatch_1"/><linearGradient id="New_Gradient_Swatch_1-30" x1="23.06" y1="109.86" x2="28.49" y2="109.86" xlink:href="#New_Gradient_Swatch_1"/><linearGradient id="New_Gradient_Swatch_1-31" x1="23.06" y1="94.08" x2="28.49" y2="94.08" xlink:href="#New_Gradient_Swatch_1"/><linearGradient id="New_Gradient_Swatch_1-32" x1="23.06" y1="101.97" x2="28.49" y2="101.97" xlink:href="#New_Gradient_Swatch_1"/><linearGradient id="New_Gradient_Swatch_1-33" x1="66.57" y1="46.01" x2="341.18" y2="46.01" xlink:href="#New_Gradient_Swatch_1"/><linearGradient id="New_Gradient_Swatch_1-34" x1="444.72" y1="65.19" x2="478.75" y2="65.19" xlink:href="#New_Gradient_Swatch_1"/><linearGradient id="New_Gradient_Swatch_1-35" x1="1.01" y1="73.78" x2="97.51" y2="73.78" xlink:href="#New_Gradient_Swatch_1"/><linearGradient id="New_Gradient_Swatch_1-36" x1="13.86" y1="141.41" x2="481.05" y2="141.41" xlink:href="#New_Gradient_Swatch_1"/><linearGradient id="New_Gradient_Swatch_1-37" x1="0" y1="18.39" x2="221.28" y2="18.39" xlink:href="#New_Gradient_Swatch_1"/><radialGradient id="New_Gradient_Swatch_6" cx="107.74" cy="89.42" r="17.06" gradientUnits="userSpaceOnUse"><stop offset="0" stop-color="#11e5b3"/><stop offset="0.28" stop-color="#12e2b4"/><stop offset="0.44" stop-color="#17dab9"/><stop offset="0.59" stop-color="#1ecbc2"/><stop offset="0.71" stop-color="#28b7ce"/><stop offset="0.83" stop-color="#359cdd"/><stop offset="0.93" stop-color="#457cef"/><stop offset="1" stop-color="#5263fe"/></radialGradient><radialGradient id="New_Gradient_Swatch_6-2" cx="136.89" cy="89.4" r="16.7" xlink:href="#New_Gradient_Swatch_6"/><radialGradient id="New_Gradient_Swatch_6-3" cx="164.2" cy="89.45" r="16.63" xlink:href="#New_Gradient_Swatch_6"/><radialGradient id="New_Gradient_Swatch_6-4" cx="191.42" cy="89.4" r="16.7" xlink:href="#New_Gradient_Swatch_6"/><radialGradient id="New_Gradient_Swatch_6-5" cx="221.99" cy="89.45" r="15.92" xlink:href="#New_Gradient_Swatch_6"/><radialGradient id="New_Gradient_Swatch_6-6" cx="261.85" cy="89.41" r="16.71" xlink:href="#New_Gradient_Swatch_6"/><radialGradient id="New_Gradient_Swatch_6-7" cx="282.2" cy="89.43" r="13.56" xlink:href="#New_Gradient_Swatch_6"/><radialGradient id="New_Gradient_Swatch_6-8" cx="297.13" cy="89.43" r="14.74" xlink:href="#New_Gradient_Swatch_6"/><radialGradient id="New_Gradient_Swatch_6-9" cx="324.46" cy="89.45" r="15.92" xlink:href="#New_Gradient_Swatch_6"/><radialGradient id="New_Gradient_Swatch_6-10" cx="349.44" cy="89.4" r="16.7" xlink:href="#New_Gradient_Swatch_6"/><radialGradient id="New_Gradient_Swatch_6-11" cx="377.26" cy="89.42" r="17.06" xlink:href="#New_Gradient_Swatch_6"/><radialGradient id="New_Gradient_Swatch_6-12" cx="406.98" cy="89.45" r="16.63" xlink:href="#New_Gradient_Swatch_6"/><linearGradient id="New_Gradient_Swatch_1-38" x1="115.77" y1="141.04" x2="130.77" y2="141.04" xlink:href="#New_Gradient_Swatch_1"/><linearGradient id="New_Gradient_Swatch_1-39" x1="128.06" y1="141.04" x2="145.35" y2="141.04" xlink:href="#New_Gradient_Swatch_1"/><linearGradient id="New_Gradient_Swatch_1-40" x1="150.93" y1="141.03" x2="166.65" y2="141.03" xlink:href="#New_Gradient_Swatch_1"/><linearGradient id="New_Gradient_Swatch_1-41" x1="165.59" y1="141.04" x2="180.6" y2="141.04" xlink:href="#New_Gradient_Swatch_1"/><linearGradient id="New_Gradient_Swatch_1-42" x1="174.1" y1="141" x2="188.21" y2="141" xlink:href="#New_Gradient_Swatch_1"/><linearGradient id="New_Gradient_Swatch_1-43" x1="189.53" y1="141.02" x2="206.85" y2="141.02" xlink:href="#New_Gradient_Swatch_1"/><linearGradient id="New_Gradient_Swatch_1-44" x1="206.39" y1="141.04" x2="221.4" y2="141.04" xlink:href="#New_Gradient_Swatch_1"/><linearGradient id="New_Gradient_Swatch_1-45" x1="225.51" y1="141.01" x2="242.15" y2="141.01" xlink:href="#New_Gradient_Swatch_1"/><linearGradient id="New_Gradient_Swatch_1-46" x1="239.09" y1="141.02" x2="256.41" y2="141.02" xlink:href="#New_Gradient_Swatch_1"/><linearGradient id="New_Gradient_Swatch_1-47" x1="254.8" y1="141.04" x2="272.09" y2="141.04" xlink:href="#New_Gradient_Swatch_1"/><linearGradient id="New_Gradient_Swatch_1-48" x1="269.91" y1="141.05" x2="292.07" y2="141.05" xlink:href="#New_Gradient_Swatch_1"/><linearGradient id="New_Gradient_Swatch_1-49" x1="298.17" y1="141.04" x2="313.17" y2="141.04" xlink:href="#New_Gradient_Swatch_1"/><linearGradient id="New_Gradient_Swatch_1-50" x1="310.12" y1="141.02" x2="328.27" y2="141.02" xlink:href="#New_Gradient_Swatch_1"/><linearGradient id="New_Gradient_Swatch_1-51" x1="325.13" y1="141.01" x2="341.76" y2="141.01" xlink:href="#New_Gradient_Swatch_1"/><linearGradient id="New_Gradient_Swatch_1-52" x1="346.62" y1="141.01" x2="363.69" y2="141.01" xlink:href="#New_Gradient_Swatch_1"/><linearGradient id="New_Gradient_Swatch_1-53" x1="361.44" y1="141.01" x2="378.07" y2="141.01" xlink:href="#New_Gradient_Swatch_1"/><linearGradient id="New_Gradient_Swatch_1-54" x1="375.58" y1="141.01" x2="393.07" y2="141.01" xlink:href="#New_Gradient_Swatch_1"/><linearGradient id="New_Gradient_Swatch_1-55" x1="391.94" y1="141.02" x2="401.24" y2="141.02" xlink:href="#New_Gradient_Swatch_1"/><linearGradient id="New_Gradient_Swatch_1-56" x1="397.95" y1="141.02" x2="416.35" y2="141.02" xlink:href="#New_Gradient_Swatch_1"/><linearGradient id="New_Gradient_Swatch_1-57" x1="412.78" y1="141.02" x2="431.18" y2="141.02" xlink:href="#New_Gradient_Swatch_1"/><linearGradient id="New_Gradient_Swatch_1-58" x1="428.04" y1="141.02" x2="437.34" y2="141.02" xlink:href="#New_Gradient_Swatch_1"/><linearGradient id="New_Gradient_Swatch_1-59" x1="434.04" y1="141.02" x2="452.44" y2="141.02" xlink:href="#New_Gradient_Swatch_1"/><linearGradient id="New_Gradient_Swatch_1-60" x1="449.96" y1="141.01" x2="467.45" y2="141.01" xlink:href="#New_Gradient_Swatch_1"/></defs><title>reset_filters_01</title><g id="Layer_2" data-name="Layer 2"><g id="Layer_1-2" data-name="Layer 1"><g class="cls-3"><path class="cls-4" d="M471.68,23H420.35V40.68H87.09L69.43,23h-21l-32,19.41v76h470.1V58.62ZM194.54,67.41l-9-8.53h19.14l9,8.53Zm26.11,0-9-8.53H230.8l9,8.53Zm26.11,0-9-8.53H256.9l9,8.53Zm26.1,0-9-8.53H283l9,8.53Zm26.11,0-9-8.53h19.13l9,8.53Zm26.1,0-9-8.53h19.14l9,8.53Zm26.11,0-9-8.53h19.14l9,8.53Zm26.11,0-9-8.53h19.13l9,8.53Zm26.1,0-9-8.53h16.76l9,8.53Z"/></g><path class="cls-5" d="M486.56,119.4H16.46a.93.93,0,0,1-.93-.93v-76a.9.9,0,0,1,.45-.79L48,22.22a1.05,1.05,0,0,1,.49-.13h21a1,1,0,0,1,.66.27L87.47,39.75h332V23a.93.93,0,0,1,.93-.93h51.33a.91.91,0,0,1,.85.57l14.89,35.6a.89.89,0,0,1,.07.36v59.85A.93.93,0,0,1,486.56,119.4ZM17.39,117.54H485.64V58.81L471.06,24H421.28V40.68a.92.92,0,0,1-.93.92H87.09a.9.9,0,0,1-.66-.27L69.05,24H48.72L17.39,43Z"/><polygon class="cls-6" points="478.97 18.47 484.36 13.09 430.84 13.64 419.25 23.02 472.24 24.37 486.56 58.62 486.01 153.79 493.19 144.96 493.19 106.89 495.39 96.95 495.39 55.02 478.97 18.47"/><polygon class="cls-7" points="84.33 39.57 92.6 48.95 171.51 48.95 178.68 45.64 313.31 45.64 323.79 41.23 84.33 39.57"/><polygon class="cls-8" points="127.76 36.08 154.18 36.08 141.77 24.31 115.34 24.31 127.76 36.08"/><polygon class="cls-9" points="249.91 24.31 223.49 24.31 235.9 36.08 262.33 36.08 249.91 24.31"/><polygon class="cls-10" points="213.87 24.31 187.44 24.31 199.85 36.08 226.28 36.08 213.87 24.31"/><polygon class="cls-11" points="177.82 24.31 151.39 24.31 163.81 36.08 190.23 36.08 177.82 24.31"/><polygon class="cls-12" points="105.72 24.31 82.56 24.31 95 36.08 118.13 36.08 105.72 24.31"/><polygon class="cls-13" points="285.96 24.31 259.54 24.31 271.95 36.08 298.38 36.08 285.96 24.31"/><polygon class="cls-14" points="394.11 24.31 367.68 24.31 380.1 36.08 406.52 36.08 394.11 24.31"/><polygon class="cls-15" points="322.01 24.31 295.58 24.31 308 36.08 334.43 36.08 322.01 24.31"/><polygon class="cls-16" points="358.06 24.31 331.63 24.31 344.05 36.08 370.48 36.08 358.06 24.31"/><polygon class="cls-17" points="480.64 155.04 464.86 155.04 473.33 163.07 489.11 163.07 480.64 155.04"/><polygon class="cls-18" points="478.37 101.89 478.37 94 474.36 98.24 474.36 106.12 478.37 101.89"/><polygon class="cls-19" points="47.93 4.94 55.82 4.94 51.58 0.93 43.7 0.93 47.93 4.94"/><polygon class="cls-20" points="60.94 4.48 68.83 4.48 64.59 0.47 56.71 0.47 60.94 4.48"/><polygon class="cls-21" points="73.95 4.01 81.85 4.01 77.61 0 69.72 0 73.95 4.01"/><polygon class="cls-22" points="86.96 4.01 94.86 4.01 90.62 0 82.73 0 86.96 4.01"/><polygon class="cls-23" points="99.97 4.01 107.87 4.01 103.63 0 95.74 0 99.97 4.01"/><polygon class="cls-24" points="112.99 4.01 120.88 4.01 116.64 0 108.76 0 112.99 4.01"/><polygon class="cls-25" points="126 4.01 133.89 4.01 129.65 0 121.77 0 126 4.01"/><polygon class="cls-26" points="337.85 49.26 329.96 49.26 334.2 53.27 342.08 53.27 337.85 49.26"/><polygon class="cls-27" points="23.06 53.09 23.06 58.87 28.49 56.15 28.49 50.37 23.06 53.09"/><polygon class="cls-28" points="28.49 79.83 28.49 74.04 23.06 76.76 23.06 82.55 28.49 79.83"/><polygon class="cls-29" points="28.49 71.94 28.49 66.15 23.06 68.87 23.06 74.66 28.49 71.94"/><polygon class="cls-30" points="28.49 64.05 28.49 58.26 23.06 60.98 23.06 66.76 28.49 64.05"/><polygon class="cls-31" points="28.49 48.26 28.49 43.19 23.06 45.91 23.06 50.98 28.49 48.26"/><polygon class="cls-32" points="28.49 87.72 28.49 81.94 23.06 84.65 23.06 90.44 28.49 87.72"/><polygon class="cls-33" points="28.49 111.39 28.49 105.61 23.06 108.33 23.06 114.11 28.49 111.39"/><polygon class="cls-34" points="28.49 95.61 28.49 89.83 23.06 92.54 23.06 98.33 28.49 95.61"/><polygon class="cls-35" points="28.49 103.5 28.49 97.72 23.06 100.44 23.06 106.22 28.49 103.5"/><path class="cls-36" d="M175.19,60.82H92.05a.48.48,0,0,1-.35-.16L66.69,32a.47.47,0,0,1,0-.66.46.46,0,0,1,.66.05L92.26,59.89H175l8.7-7.25a.44.44,0,0,1,.29-.11h156.7a.47.47,0,1,1,0,.93H184.18l-8.7,7.25A.46.46,0,0,1,175.19,60.82Z"/><path class="cls-37" d="M478.29,102.13a.47.47,0,0,1-.47-.47V61.91L465.46,29.19H445.18a.47.47,0,0,1-.46-.47.46.46,0,0,1,.46-.46h20.6a.48.48,0,0,1,.44.3l12.5,33.1a.47.47,0,0,1,0,.17v39.83A.46.46,0,0,1,478.29,102.13Z"/><polygon class="cls-38" points="97.51 118.48 16.46 118.48 16.46 42.98 47.91 24.07 47.91 10.55 1.01 38.75 1.01 52.27 10.39 46.63 10.39 137 16.46 131.49 16.46 123.44 83.26 123.44 97.51 118.48"/><polygon class="cls-39" points="481.05 155.51 110.33 155.51 84.3 128.24 13.87 128.24 13.87 127.31 84.7 127.31 110.72 154.58 481.05 154.58 481.05 155.51"/><polygon class="cls-40" points="0.47 32.76 0 31.96 47.97 4.01 198.84 4.01 221.28 24.58 220.66 25.27 198.48 4.94 48.22 4.94 0.47 32.76"/><path class="cls-41" d="M106.34,72.67h6.81a7.06,7.06,0,0,1,3.36.77,5,5,0,0,1,1.83,1.82l.24.41c.09.17.17.33.24.45a3,3,0,0,0,.48.68,1.41,1.41,0,0,0,1,.38c.8,0,2.19,0,4.17,0h0c.38,0,.58,0,.58.14s-.26.23-.77.39c-.26.06-.69.18-1.3.36l-1.7.48-.84.21c-.19.07-.31.13-.34.19s0,.2.19.29a2.43,2.43,0,0,1,.34.1,5.56,5.56,0,0,1,.62.24l.7.29.5.19a.69.69,0,0,1,.39.43,1.27,1.27,0,0,1-.19.72c-.26.61-.69,1.49-1.3,2.64-.1.19-.25.46-.46.79a3.39,3.39,0,0,1-.36.55c-.28.52-.27.85,0,1l1.11.48a5.32,5.32,0,0,0,.62.29.19.19,0,0,1,.1.24q0,.15-.24.24a2.55,2.55,0,0,0-.44.12,2.34,2.34,0,0,1-.4.12l-.48.12-.51.14-.45.15-.41.12a8.91,8.91,0,0,0-1.3.43c-.29.13-.43.22-.43.29s.1.09.31.09h4c.13,0,.19,0,.19.08s-.12.13-.38.26a13.67,13.67,0,0,1-2.06.62c-.58.16-1.4.37-2.45.63-.19,0-.29.09-.29.17s.1.16.29.26c.77.38,1.17.59,1.2.62.25.17.22.37-.1.63a4.49,4.49,0,0,1-.72.48,14.07,14.07,0,0,1-3.36,1.44,1.1,1.1,0,0,0-.5.24,1.07,1.07,0,0,0,0,.57,52.56,52.56,0,0,0,1.25,6.92,1.8,1.8,0,0,0,.1.43,3.88,3.88,0,0,1-.19,1.65,4.08,4.08,0,0,1-.82,1.47,2.05,2.05,0,0,1-1.49.67h-5.28a1.11,1.11,0,0,1-1.1-.91c-.23-.74-.43-1.41-.63-2a48.09,48.09,0,0,1-1.24-7.63v-.43a.31.31,0,0,0-.34-.34H102.5q-.3,0-.48.39t-.72,1.41c-.36.72-.61,1.27-.77,1.66a40.79,40.79,0,0,0-2.16,5.42,3.46,3.46,0,0,1-.39.91,2.39,2.39,0,0,1-2.11,1.54H91.74a1.14,1.14,0,0,1-1.12-.7,2.29,2.29,0,0,1,0-1.94,49.9,49.9,0,0,1,2.16-5.52q.72-1.44,2.54-5a1.94,1.94,0,0,0,.36-.91c0-.16-.18-.31-.5-.44l-1-.36-1-.36c-.13-.06-.17-.12-.14-.19a.56.56,0,0,1,.24-.19c.38-.13.88-.27,1.49-.43a16,16,0,0,0,2.06-.63c.45-.16.64-.3.58-.43s-.07,0-.2,0h-4q-.28,0-.24-.09t.24-.24A11.12,11.12,0,0,1,95,88l.91-.27.94-.26a1.27,1.27,0,0,0,.4-.14.16.16,0,0,0,0-.24s-.17-.12-.52-.24-.69-.24-.92-.34l-.57-.24c-.23-.13-.34-.27-.34-.43a1.67,1.67,0,0,1,.29-.72c.22-.39.58-1,1.06-1.83l1.1-1.92a1.92,1.92,0,0,0,.36-.93c0-.18-.18-.35-.5-.51l-1.49-.57c-.26-.13-.38-.24-.36-.34s.18-.17.5-.24.56-.15,1.11-.26a12,12,0,0,0,1.39-.36c1.37-.35,2.22-.59,2.54-.72a.94.94,0,0,0,.19-.15c0-.06,0-.09-.14-.09h-.58l-1.46,0-1.63,0H96.5c-.36,0-.58-.11-.68-.34a2.11,2.11,0,0,1,.05-1.48,4.72,4.72,0,0,1,1.37-2,2.81,2.81,0,0,1,1.8-.79Q99.76,72.67,106.34,72.67Zm6,9.41q-5.94,0-7.2,0a.71.71,0,0,0-.62.43c-.19.35-.47.84-.84,1.46S103.1,85,103,85.24c-.29.48-.28.82,0,1a2.66,2.66,0,0,0,1.49.48h7.68c.1,0,.15,0,.17-.07s0-.14-.12-.26-.06-.59.29-1.11a15.55,15.55,0,0,0,1-1.68c.38-.77.32-1.25-.2-1.44A4.22,4.22,0,0,0,112.38,82.08Z"/><path class="cls-42" d="M153.52,77.32c0,.1-.13.2-.38.29s-.63.24-1.2.43-1.4.39-2.55.68a15.24,15.24,0,0,0-1.73.43c-.19.06-.28.14-.28.24s0,.13.14.19l.48.19.29.1.31.12.26.12a5.08,5.08,0,0,1,.63.24c.48.22.51.53.09.91a2.87,2.87,0,0,1-2,.67H135a.72.72,0,0,0-.62.43c-.16.26-.38.62-.65,1.08s-.46.8-.55,1-.14.26-.12.31.07.07.17.07h12.67a.74.74,0,0,1,.77.75,1,1,0,0,0,.67.93l1.53.58.1.05c.29.09.43.2.43.33s-.24.21-.72.34l-1,.29-1.29.38a8.34,8.34,0,0,0-1,.38c-.13.07-.2.12-.2.17s0,.07.1.07h3.89c.13,0,.19,0,.19.1s-.08.11-.24.14-.62.23-1.1.39-.84.27-1.06.33-.43.16-.72.29-.29.15-.29.24,0,.19.19.29l.58.29,1,.48c.38.22.35.57-.1,1.05a3.34,3.34,0,0,1-2.35,1.25H133.17c-.26,0-.4,0-.43,0s-.26.12-.39.34c-.32.61-.7,1.37-1.15,2.3-.1.19-.06.29.1.29h12.43a1.08,1.08,0,0,1,1.08.67,2.48,2.48,0,0,1-.22,1.68c-.57,1.41-.88,2.13-.91,2.16-.26.71-.53,1.49-.82,2.35-.54,1.64-1.44,2.45-2.68,2.45H121.6a1.16,1.16,0,0,1-1.2-.74,3,3,0,0,1,0-1.9,45.77,45.77,0,0,1,2.45-6c.12-.25.88-1.73,2.25-4.41l.1-.12a.87.87,0,0,0,.07-.17.52.52,0,0,1,.07-.15c.29-.54.29-.87,0-1l-.91-.48a8.16,8.16,0,0,1-.77-.39q-.24-.09-.24-.24a1.14,1.14,0,0,1,.39-.29c.06,0,.32-.12.76-.26l1.37-.43a7,7,0,0,0,.79-.27l.1-.09a.18.18,0,0,0,.05-.07s-.05,0-.15-.08H123c-.16,0-.24,0-.24-.07s.11-.12.34-.21a21.07,21.07,0,0,1,2.59-.82c.22-.1.53-.21.91-.34a.4.4,0,0,0,.24-.24c0-.06,0-.12-.19-.19a2.37,2.37,0,0,0-.39-.19l-.52-.19-.63-.24a1.1,1.1,0,0,1-.48-.29.57.57,0,0,1,0-.67q.19-.28.39-.63c.19-.35.5-.89.93-1.63s.76-1.31,1-1.73c.06-.09.16-.25.29-.48s.16-.54,0-.67a3.5,3.5,0,0,0-.53-.29s-.4-.17-1.11-.43a4.44,4.44,0,0,1-.57-.24c-.07,0-.1-.09-.1-.19s.07-.11.19-.14.45-.13,1.25-.39c1-.25,1.78-.48,2.45-.67a9.21,9.21,0,0,0,2.06-.67c.1,0,.15-.07.15-.1s0-.14-.1-.14h-4.37a.9.9,0,0,1-1-.53,1.31,1.31,0,0,1,0-.91,6.65,6.65,0,0,1,1.11-1.92A3.07,3.07,0,0,1,129,72.62h18.29a2.31,2.31,0,0,1,.58,0,.92.92,0,0,1,.84.65,2.12,2.12,0,0,1-.12,1.46,1.47,1.47,0,0,0-.1.22,1.34,1.34,0,0,1-.12.24.4.4,0,0,0-.07.21,1.74,1.74,0,0,0-.17,1.13.72.72,0,0,0,.6.6,2.54,2.54,0,0,0,.62,0h3.94Q153.52,77.23,153.52,77.32Z"/><path class="cls-43" d="M158.51,77.23H154q-.28,0-.33-.15c0-.06,0-.22.09-.48a2.09,2.09,0,0,1,.77-1c.48-.39.85-.68,1.1-.87a16.1,16.1,0,0,1,5.91-2.45,16.71,16.71,0,0,1,8.54.48,6.32,6.32,0,0,1,3.41,2.79,4.11,4.11,0,0,0,.91,1.29,1.1,1.1,0,0,0,.87.39h4.46q.24,0,.24.09c0,.07-.08.13-.24.2-.42.16-1.2.38-2.35.67l-1.08.26c-.43.12-.82.21-1.15.29l-.56.12c-.22.07-.33.14-.33.24s0,.19.19.29l.58.26a2.81,2.81,0,0,1,.57.31.32.32,0,0,1,.15.34.85.85,0,0,1-.29.24,5.1,5.1,0,0,1-.72.38L171,82.65a4.7,4.7,0,0,1-1.05.24.66.66,0,0,1-.68-.43A2.24,2.24,0,0,0,168,81.31a8.72,8.72,0,0,0-5.24-.15c-.22.1-.51.24-.86.44a1.72,1.72,0,0,0-.58.43c-.51.64-.56,1.12-.14,1.44.13.06.67.29,1.63.67a50.19,50.19,0,0,0,5,1.68c.8.22,2.29.58,4.47,1.06l1,.28c.19.07.27.16.24.29s-.21.23-.53.39c-.76.32-1.2.51-1.29.57-.32.23-.47.4-.43.53s.08.14.24.14h3.88a1.61,1.61,0,0,1,.58,0c.1,0,.14,0,.14.12a.27.27,0,0,1-.14.22,3.63,3.63,0,0,1-.91.43,5.51,5.51,0,0,0-.75.22l-.93.31a3.15,3.15,0,0,1-.53.14c-.26.1-.29.23-.1.39l.53.19,1,.31.79.26c.41.17.65.34.69.53a2.42,2.42,0,0,1-.31,1.2,29.1,29.1,0,0,1-4.7,7.87,15.66,15.66,0,0,1-6.82,4.76,14.43,14.43,0,0,1-3.79.81,17.27,17.27,0,0,1-7.49-1,7.2,7.2,0,0,1-2.64-1.63,7,7,0,0,1-1.49-2.59,3,3,0,0,1,.87-3.07,4.62,4.62,0,0,1,1.15-1c1.34-.68,3-1.46,4.94-2.36a1.66,1.66,0,0,1,.92-.19.64.64,0,0,1,.72.58,2.69,2.69,0,0,0,2,2,9.93,9.93,0,0,0,4.37.24,4.28,4.28,0,0,0,2.21-1.06c.86-.86,1-1.54.33-2a2.09,2.09,0,0,0-.76-.38c-3.91-1.34-6.39-2.18-7.44-2.5a15.5,15.5,0,0,0-1.59-.45c-.73-.18-1.68-.39-2.83-.65a.13.13,0,0,1-.1-.19c0-.07.07-.13.2-.19a6.65,6.65,0,0,1,.86-.34,11.26,11.26,0,0,0,1.34-.62.33.33,0,0,0,.1-.24c0-.1,0-.15-.14-.15a.85.85,0,0,0-.39,0h-3.74c-.26,0-.39,0-.39-.14s.34-.32,1-.67q.19,0,1.68-.63a2,2,0,0,0,.53-.28.18.18,0,0,0,.05-.2,1.28,1.28,0,0,0-.39-.14,16,16,0,0,1-1.63-.58,1.69,1.69,0,0,1-.57-.28q-.44-.3-.15-1c.32-.71.66-1.36,1-2,.1-.19.51-.87,1.25-2a1.76,1.76,0,0,0,.33-.77c0-.15-.11-.28-.33-.38a4.35,4.35,0,0,0-.67-.31,5.78,5.78,0,0,1-.63-.27.8.8,0,0,1-.38-.33c0-.16.21-.29.62-.39l1.27-.26c.66-.14,1.16-.26,1.52-.36,1.21-.29,2.12-.51,2.73-.67.13-.07.19-.12.19-.17S158.64,77.23,158.51,77.23Z"/><path class="cls-44" d="M208.05,77.32c0,.1-.13.2-.39.29s-.62.24-1.2.43-1.39.39-2.54.68a14.66,14.66,0,0,0-1.73.43c-.19.06-.29.14-.29.24s0,.13.15.19l.48.19.29.1.31.12.26.12a5.08,5.08,0,0,1,.63.24c.48.22.51.53.09.91a2.9,2.9,0,0,1-2,.67H189.52a.71.71,0,0,0-.62.43c-.16.26-.38.62-.65,1.08s-.46.8-.55,1-.14.26-.12.31.07.07.16.07h12.68a.72.72,0,0,1,.76.75,1,1,0,0,0,.68.93l1.53.58.1.05c.29.09.43.2.43.33s-.24.21-.72.34l-1,.29-1.3.38a10.13,10.13,0,0,0-1,.38c-.12.07-.19.12-.19.17s0,.07.1.07h3.89c.12,0,.19,0,.19.1s-.08.11-.24.14l-1.11.39-1.05.33c-.19.07-.43.16-.72.29s-.29.15-.29.24,0,.19.19.29l.58.29,1,.48c.38.22.35.57-.1,1.05a3.34,3.34,0,0,1-2.35,1.25H187.7a.94.94,0,0,1-.44,0c-.12,0-.25.12-.38.34-.32.61-.7,1.37-1.15,2.3-.1.19-.07.29.09.29h12.44a1.08,1.08,0,0,1,1.08.67,2.48,2.48,0,0,1-.22,1.68c-.58,1.41-.88,2.13-.91,2.16-.26.71-.53,1.49-.82,2.35-.54,1.64-1.44,2.45-2.69,2.45H176.13a1.16,1.16,0,0,1-1.2-.74,3,3,0,0,1,0-1.9,45.71,45.71,0,0,1,2.44-6c.13-.25.88-1.73,2.26-4.41l.1-.12a.87.87,0,0,0,.07-.17.35.35,0,0,1,.07-.15c.29-.54.29-.87,0-1L179,91.2a8.16,8.16,0,0,1-.77-.39q-.24-.09-.24-.24a1.17,1.17,0,0,1,.38-.29c.07,0,.32-.12.77-.26l1.37-.43a7.93,7.93,0,0,0,.79-.27l.1-.09a.18.18,0,0,0,.05-.07s-.05,0-.15-.08h-3.74c-.16,0-.24,0-.24-.07s.11-.12.33-.21a22,22,0,0,1,2.6-.82c.22-.1.52-.21.91-.34a.4.4,0,0,0,.24-.24c0-.06,0-.12-.19-.19a2.37,2.37,0,0,0-.39-.19l-.53-.19-.62-.24a1,1,0,0,1-.48-.29.55.55,0,0,1,0-.67q.19-.28.39-.63c.19-.35.5-.89.93-1.63s.76-1.31,1-1.73a5.27,5.27,0,0,0,.28-.48c.16-.31.16-.54,0-.67a2.92,2.92,0,0,0-.52-.29s-.4-.17-1.11-.43a3.89,3.89,0,0,1-.57-.24c-.07,0-.1-.09-.1-.19s.06-.11.19-.14.45-.13,1.25-.39c1-.25,1.78-.48,2.45-.67a9.44,9.44,0,0,0,2.06-.67c.1,0,.15-.07.15-.1s0-.14-.1-.14h-4.37a.9.9,0,0,1-1-.53,1.31,1.31,0,0,1,0-.91,6.88,6.88,0,0,1,1.1-1.92,3.11,3.11,0,0,1,2.26-1.25h18.29a2.16,2.16,0,0,1,.57,0,.9.9,0,0,1,.84.65,2,2,0,0,1-.12,1.46L203,75a1.34,1.34,0,0,1-.12.24.4.4,0,0,0-.07.21,1.68,1.68,0,0,0-.17,1.13.72.72,0,0,0,.6.6,2.48,2.48,0,0,0,.62,0h3.94Q208.05,77.23,208.05,77.32Z"/><path class="cls-45" d="M210.54,72.67h20.74a.93.93,0,0,1,.82.57,1.94,1.94,0,0,1,0,1.35c0,.06-.16.35-.39.86a2.67,2.67,0,0,0-.07,1,1.55,1.55,0,0,0,.17.6q.09.15.48.15h4.61c.06,0,.09,0,.09,0s-.06.14-.19.24a5.88,5.88,0,0,1-1,.33l-1.27.29-1.46.34c-.58.16-1.06.3-1.44.43-.2,0-.3.09-.32.17s0,.15.17.21a6.57,6.57,0,0,0,1,.43,6.38,6.38,0,0,1,1,.48c.22.2.19.45-.1.77a4,4,0,0,1-2.2,1.39h-6.2a1.06,1.06,0,0,0-.36,0,.4.4,0,0,0-.19.15c0,.06-.13.21-.26.43-.77,1.28-1.22,2-1.35,2.21-.28.54-.27.91.05,1.1,0,0,.47.18,1.3.53l.62.24c.13.06.19.14.17.24s-.12.17-.31.24-.48.14-.77.24c-.7.16-1.3.32-1.78.48a5,5,0,0,0-1,.38q-.39.24-.39.39s.08,0,.24,0h4c.12,0,.19,0,.19.15s-.07.13-.19.19a10,10,0,0,1-1.92.67c-1.19.32-1.81.5-1.88.53a.33.33,0,0,0-.28.19c0,.1,0,.18.19.24a3.64,3.64,0,0,0,.55.22l.5.17c.55.22.88.37,1,.43.29.16.31.48.05,1q-.15.33-.72,1.41c-.38.72-.69,1.28-.91,1.66a54,54,0,0,0-3.31,7.92,4,4,0,0,1-.68,1.3,2.14,2.14,0,0,1-1.72,1.1q-3.22,0-4.32,0a1.08,1.08,0,0,1-1.08-.67,2.39,2.39,0,0,1,0-1.68,35.6,35.6,0,0,1,2.11-5.43q.67-1.38,2.74-5.37a1.94,1.94,0,0,0,.31-.87c0-.16-.17-.3-.45-.43a7.58,7.58,0,0,0-.8-.31l-.74-.26c-.38-.16-.58-.27-.58-.34s.18-.24.53-.34c2.15-.64,3.36-1,3.65-1.15a.24.24,0,0,0,.14-.19s0-.05-.12-.05a2,2,0,0,1-.4,0h-3.8a.2.2,0,0,1-.14,0c0-.07,0-.13.14-.2.36-.15.71-.3,1.06-.43a17.58,17.58,0,0,1,1.78-.57l1-.29c.2-.07.3-.15.32-.24s0-.18-.17-.24l-.43-.15s-.12-.08-.34-.16a5,5,0,0,0-.53-.17,6.09,6.09,0,0,0-.62-.29c-.19-.13-.29-.26-.29-.41a1.85,1.85,0,0,1,.24-.69s.45-.71,1.25-2.12a1.8,1.8,0,0,0,.24-.43c.09-.16.08-.25,0-.29H210q-.92-.09-.72-1.2c.09-.57-.05-.94-.44-1.1a4.07,4.07,0,0,0-.45-.19l-.51-.19-.43-.2a1.92,1.92,0,0,1-.41-.24A.2.2,0,0,1,207,79a1.76,1.76,0,0,1,.72-.28c1.86-.42,2.82-.64,2.88-.68q.76-.18,1.92-.57c.13-.07.18-.13.15-.19s0,0-.15,0H208.1c-.42,0-.64-.08-.68-.24a2.2,2.2,0,0,1,0-1.63,5.07,5.07,0,0,1,1.36-1.9A2.56,2.56,0,0,1,210.54,72.67Z"/><path class="cls-46" d="M256.67,72.62h15.55a2.31,2.31,0,0,1,.58,0,.86.86,0,0,1,.82.6,2.16,2.16,0,0,1-.1,1.37,2,2,0,0,1-.1.26c0,.08-.07.18-.12.29a2.27,2.27,0,0,1-.12.26,1.75,1.75,0,0,0-.14,1.18.71.71,0,0,0,.67.55,3.24,3.24,0,0,0,.72,0H278c.32,0,.47.06.46.17s-.2.23-.55.36l-2.5.72-1.92.43c-.19,0-.48.09-.86.19s-.36.14-.39.24.07.19.29.29a5.73,5.73,0,0,1,.62.21,7.6,7.6,0,0,0,.77.27,2.65,2.65,0,0,1,.48.29c.26.19.22.46-.09.81a3.65,3.65,0,0,1-2,1.11H259.6a.56.56,0,0,0-.48.33c-.16.29-.39.7-.7,1.23s-.53.92-.69,1.17-.14.27-.12.31.1.09.26.12h.43q9.56,0,11.67,0a1.66,1.66,0,0,1,1.34.57,2.53,2.53,0,0,0,1,.58,6.4,6.4,0,0,0,.81.31c.36.11.61.2.77.26s.37.21.34.34-.23.19-.58.29c-.89.26-1.47.41-1.72.48l-1.49.53q-.39.14-.39.24s.11,0,.34,0h3.41c.35,0,.53,0,.53.1s-.21.16-.63.29-1,.35-1.39.48a9.25,9.25,0,0,0-1.11.38.92.92,0,0,0-.38.24c0,.1.18.23.53.39l.34.16.33.17.67.29a.76.76,0,0,1,.32.48,1.46,1.46,0,0,1-.27.72,5.46,5.46,0,0,1-1.51,1.7,3,3,0,0,1-1.75.7H257.2a.84.84,0,0,0-.36,0,1.29,1.29,0,0,0-.26.38,52.62,52.62,0,0,0-3.37,8,7.38,7.38,0,0,1-.57,1.3,3.54,3.54,0,0,1-.86,1,1.76,1.76,0,0,1-1,.33c-1.76,0-3.22,0-4.37,0a1.15,1.15,0,0,1-1.06-.77,2.64,2.64,0,0,1,0-1.77,45.33,45.33,0,0,1,2.5-6.19c.09-.23.83-1.67,2.2-4.32l.15-.27.14-.26c.23-.45.21-.75,0-.91,0,0-.39-.18-1.06-.53l-.7-.36a.24.24,0,0,1-.12-.22.19.19,0,0,1,.15-.19c.22-.1.64-.24,1.25-.43a3,3,0,0,1,.57-.22l.7-.21.41-.15c.22-.06.35-.13.38-.19s-.07-.1-.31-.1h-3.77c-.07,0-.1,0-.1-.09s0-.07.15-.1a7.68,7.68,0,0,1,1-.43c.15,0,.43-.1.81-.22l1.11-.33a4.13,4.13,0,0,0,.62-.22c.26-.09.38-.17.38-.24s0-.19-.24-.29l-.43-.14a7.91,7.91,0,0,1-1.49-.67c-.22-.16-.22-.43,0-.82a5.13,5.13,0,0,1,.34-.62,15.34,15.34,0,0,1,.77-1.35c.48-.79.83-1.4,1-1.82a4.88,4.88,0,0,0,.34-.58c.16-.31.14-.54,0-.67a3.92,3.92,0,0,0-.86-.43l-.63-.24-.48-.19q-.33-.15-.33-.24a.43.43,0,0,1,.33-.29c.07,0,.91-.22,2.52-.65s2.57-.69,2.86-.79.61-.21.57-.34-.17-.09-.52-.09h-4.08a.92.92,0,0,1-.91-.48,1.23,1.23,0,0,1,0-1,5.75,5.75,0,0,1,1.68-2.45,2.43,2.43,0,0,1,1.58-.72Z"/><path class="cls-47" d="M286.48,77.23h4.85a.28.28,0,0,1,.12,0s.06.06,0,.09-.07.07-.16.1-.8.27-1.73.53c-.58.16-1.43.36-2.55.62l-1.2.34a.47.47,0,0,0-.24.24c0,.09,0,.16.15.19a1.79,1.79,0,0,0,.43.19,1.4,1.4,0,0,1,.34.14c.67.26,1.05.42,1.15.48.35.17.37.52.05,1.06s-1,1.7-2,3.46a1.86,1.86,0,0,0-.41.93c0,.18.18.35.5.51l.8.26.74.26c.32.13.48.24.48.34s-.26.24-.67.34c-.93.25-1.54.43-1.82.52a6.72,6.72,0,0,0-1.78.77c-.26.19-.37.32-.34.39s.1,0,.29,0h3.6a1.94,1.94,0,0,1,.41,0q.12,0,.12.12c0,.06-.08.13-.24.19a6.71,6.71,0,0,1-.82.34c-.28.09-.7.21-1.24.33a10.56,10.56,0,0,0-1.06.29,2.2,2.2,0,0,0-.63.19c-.19.1-.2.21,0,.34a1,1,0,0,0,.33.19l.32.1.35.12.34.12a2.15,2.15,0,0,1,.62.28c.26.13.4.27.41.41a1.63,1.63,0,0,1-.31.79c-1.25,2.4-2,3.83-2.21,4.28a55.5,55.5,0,0,0-2.64,6.48,6.91,6.91,0,0,1-.52,1.15,2.3,2.3,0,0,1-1.88,1.34c-1.73,0-3.18,0-4.37,0a1.12,1.12,0,0,1-1.08-.79,3,3,0,0,1,.08-1.85A49.33,49.33,0,0,1,275.77,97c.13-.2.8-1.49,2-3.89a1.55,1.55,0,0,0,.14-.19.45.45,0,0,0,.1-.24c.19-.39.18-.64,0-.77a3,3,0,0,0-.67-.39,4.87,4.87,0,0,0-.58-.21l-.52-.17a1.18,1.18,0,0,1-.39-.14c-.19-.13-.16-.26.1-.39a5,5,0,0,1,.62-.24,20.6,20.6,0,0,0,3.12-1c.13,0,.19-.08.19-.14s0-.1-.09-.1h-4c-.29,0-.43,0-.43-.09a3.11,3.11,0,0,1,.62-.48,13,13,0,0,1,2.69-1l1.1-.29a.49.49,0,0,0,.34-.24.28.28,0,0,0-.05-.12.38.38,0,0,0-.24-.12c-.9-.32-1.43-.51-1.59-.58a1.27,1.27,0,0,1-.48-.28c-.19-.16-.2-.4,0-.72,0-.07.12-.24.28-.53,1.22-2.11,1.86-3.22,1.92-3.31a1.74,1.74,0,0,0,.32-.8c0-.14-.14-.27-.36-.4a8.7,8.7,0,0,0-.82-.34,7.21,7.21,0,0,1-.72-.29c-.32-.12-.47-.24-.46-.36s.24-.23.65-.36a11.76,11.76,0,0,0,1.3-.29c.64-.16,1.13-.27,1.49-.33q1.1-.28,2.16-.63c.19-.06.28-.14.28-.24s-.06,0-.19,0c-.35,0-.72,0-1.1,0h-3.7a.6.6,0,0,1-.6-.36,1.4,1.4,0,0,1,0-.94,5.7,5.7,0,0,1,1.46-2.37,2.55,2.55,0,0,1,1.8-.89h4.51a.79.79,0,0,1,.36.19,1.1,1.1,0,0,1,.27.34,1.48,1.48,0,0,1,.12.45,1.51,1.51,0,0,1-.07.55,6.09,6.09,0,0,1-.39,1.16,2.38,2.38,0,0,0-.29,1.29C285.89,77.07,286.09,77.26,286.48,77.23Z"/><path class="cls-48" d="M304.29,106.17h-18a1.24,1.24,0,0,1-1.42-.77,2.94,2.94,0,0,1,.17-2.2,63.59,63.59,0,0,1,4.37-9.75,6,6,0,0,0,.38-.72c.26-.48.24-.8-.05-1a11.53,11.53,0,0,0-1.15-.48l-.31-.12-.39-.14a.67.67,0,0,0-.21-.07c-.13-.07-.18-.15-.14-.24s.12-.13.28-.2l.58-.19c1.25-.35,2-.57,2.3-.67a5.89,5.89,0,0,0,.82-.29c.16-.06.24-.12.24-.17s-.05-.08-.14-.12h-4.18c-.13,0-.18-.06-.14-.19s.09-.11.28-.24a3.62,3.62,0,0,1,.92-.48c.57-.22,1-.38,1.34-.48l1.34-.33a5.47,5.47,0,0,0,.58-.2c.22-.12.24-.24.05-.33l-.39-.15c-.12,0-.3-.08-.53-.16l-.52-.17-.68-.29c-.22-.13-.34-.26-.35-.41a1.52,1.52,0,0,1,.26-.74c.19-.32.4-.67.62-1.06s.47-.8.72-1.25l.63-1a2.8,2.8,0,0,0,.28-.53c.2-.42.19-.68,0-.79a6.49,6.49,0,0,0-.65-.31c-.13,0-.34-.11-.64-.22l-.7-.26a.65.65,0,0,1-.15-.1q-.09-.15,0-.24a.66.66,0,0,1,.34-.19c.19-.07.58-.18,1.15-.34l3-.72a8.9,8.9,0,0,0,1.1-.38q.15,0,.15-.15t-.15-.09h-4.7a.65.65,0,0,1-.63-.29,1.41,1.41,0,0,1,0-1.25,5.48,5.48,0,0,1,1.92-2.59,2.12,2.12,0,0,1,1.2-.43h4.32a.9.9,0,0,1,.94.62,2.17,2.17,0,0,1-.17,1.54,1.07,1.07,0,0,0-.14.29,3.61,3.61,0,0,0-.15.38,4,4,0,0,0-.19,1,1,1,0,0,0,.14.58.6.6,0,0,0,.49.19h4.36a2.3,2.3,0,0,1,.39,0c.06,0,.09,0,.09.07a.28.28,0,0,1-.09.17.25.25,0,0,0-.12,0l-.22.07a1.45,1.45,0,0,0-.24.1c-.29.06-.82.2-1.61.41l-2.16.57-1.12.31c-.29.1-.32.21-.1.34,0,0,0,.06.1.07l.16.07a.51.51,0,0,0,.22.08.47.47,0,0,1,.21.07,3,3,0,0,0,.39.17l.55.21.39.15c.28.19.3.54,0,1l-.19.39a11.45,11.45,0,0,0-.62,1l-.7,1.23-.6,1a1.46,1.46,0,0,0-.31.77c0,.16.15.3.41.43a6.47,6.47,0,0,0,1,.38.94.94,0,0,0,.26.1,2.26,2.26,0,0,1,.31.1l.29.09.19.15a.2.2,0,0,1,0,.28.8.8,0,0,1-.34.12l-.82.22a7.13,7.13,0,0,1-.81.19,12,12,0,0,0-1.44.48,2.49,2.49,0,0,0-1,.63c-.13.19-.12.28,0,.28h4c.22,0,.33,0,.33.1s-.17.19-.43.29a6.56,6.56,0,0,1-1.2.43c-1.57.45-2.37.67-2.4.67a.31.31,0,0,0-.14.24c0,.1.19.19.48.29a5.42,5.42,0,0,0,.65.24l.69.24c.39.16.58.33.6.5a2.55,2.55,0,0,1-.41,1.08q-.72,1.31-1.53,2.88c-.1.16-.14.27-.12.32s.08.08.21.12h12.58a.94.94,0,0,1,.89.62,2.22,2.22,0,0,1-.12,1.49c-.1.19-.23.48-.39.86s-.27.67-.33.87c-.16.41-.39,1-.68,1.8s-.49,1.33-.62,1.65a6.66,6.66,0,0,1-.43,1,3.91,3.91,0,0,1-.91,1,2.06,2.06,0,0,1-1.11.41Z"/><path class="cls-49" d="M313,72.67h20.74a.91.91,0,0,1,.81.57,1.94,1.94,0,0,1,0,1.35c0,.06-.16.35-.38.86a2.49,2.49,0,0,0-.07,1,1.55,1.55,0,0,0,.17.6q.09.15.48.15h4.6c.07,0,.1,0,.1,0s-.06.14-.19.24a5.88,5.88,0,0,1-1,.33l-1.27.29-1.47.34c-.57.16-1,.3-1.44.43-.19,0-.29.09-.31.17s0,.15.17.21a6.57,6.57,0,0,0,1,.43,7,7,0,0,1,1,.48c.22.2.19.45-.1.77a4,4,0,0,1-2.21,1.39h-6.19a1.06,1.06,0,0,0-.36,0,.4.4,0,0,0-.19.15,3.44,3.44,0,0,0-.26.43c-.77,1.28-1.22,2-1.35,2.21-.29.54-.27.91.05,1.1,0,0,.46.18,1.3.53l.62.24c.13.06.18.14.17.24s-.12.17-.31.24-.48.14-.77.24c-.71.16-1.3.32-1.78.48a5.12,5.12,0,0,0-1,.38c-.25.16-.38.29-.38.39s.08,0,.24,0h4c.13,0,.2,0,.2.15s-.07.13-.2.19a9.45,9.45,0,0,1-1.92.67c-1.18.32-1.8.5-1.87.53a.33.33,0,0,0-.28.19c0,.1,0,.18.19.24a3.25,3.25,0,0,0,.55.22l.5.17c.55.22.88.37,1,.43.29.16.3.48.05,1q-.15.33-.72,1.41c-.39.72-.69,1.28-.91,1.66a54.09,54.09,0,0,0-3.32,7.92,3.75,3.75,0,0,1-.67,1.3,2.15,2.15,0,0,1-1.72,1.1c-2.15,0-3.59,0-4.33,0a1.1,1.1,0,0,1-1.08-.67,2.45,2.45,0,0,1,0-1.68,35.6,35.6,0,0,1,2.11-5.43q.68-1.38,2.74-5.37a1.94,1.94,0,0,0,.31-.87c0-.16-.17-.3-.46-.43a6.53,6.53,0,0,0-.79-.31L316,91.2c-.39-.16-.58-.27-.58-.34s.18-.24.53-.34c2.14-.64,3.36-1,3.65-1.15a.26.26,0,0,0,.14-.19s0-.05-.12-.05a2.15,2.15,0,0,1-.41,0h-3.79a.2.2,0,0,1-.14,0c0-.07.05-.13.14-.2.35-.15.71-.3,1.06-.43a16.8,16.8,0,0,1,1.78-.57l1-.29c.19-.07.3-.15.31-.24s0-.18-.16-.24l-.44-.15s-.11-.08-.33-.16-.4-.14-.53-.17-.46-.23-.62-.29-.29-.26-.29-.41a1.85,1.85,0,0,1,.24-.69s.45-.71,1.25-2.12a3,3,0,0,0,.24-.43c.09-.16.08-.25-.05-.29h-6.39q-.9-.09-.72-1.2c.1-.57,0-.94-.43-1.1-.13-.06-.28-.13-.45-.19l-.51-.19-.43-.2a1.92,1.92,0,0,1-.41-.24.2.2,0,0,1-.07-.24,1.76,1.76,0,0,1,.72-.28c1.86-.42,2.82-.64,2.88-.68q.76-.18,1.92-.57c.13-.07.18-.13.14-.19s0,0-.14,0h-4.42c-.41,0-.64-.08-.67-.24a2.25,2.25,0,0,1,0-1.63,5.21,5.21,0,0,1,1.37-1.9A2.56,2.56,0,0,1,313,72.67Z"/><path class="cls-50" d="M366.06,77.32c0,.1-.13.2-.38.29s-.63.24-1.2.43-1.39.39-2.55.68a14.3,14.3,0,0,0-1.72.43c-.2.06-.29.14-.29.24s0,.13.14.19l.48.19.29.1.31.12.27.12a5.47,5.47,0,0,1,.62.24c.48.22.51.53.1.91a2.93,2.93,0,0,1-2,.67H347.53a.72.72,0,0,0-.62.43c-.16.26-.38.62-.65,1.08s-.45.8-.55,1-.14.26-.12.31.07.07.17.07h12.67a.73.73,0,0,1,.77.75,1,1,0,0,0,.67.93l1.54.58.09.05c.29.09.43.2.43.33s-.24.21-.72.34l-1,.29-1.29.38a8.34,8.34,0,0,0-1,.38c-.13.07-.19.12-.19.17s0,.07.09.07h3.89c.13,0,.19,0,.19.1s-.08.11-.24.14-.62.23-1.1.39-.83.27-1.06.33-.43.16-.72.29-.29.15-.29.24,0,.19.2.29l.57.29,1,.48c.39.22.35.57-.09,1.05a3.36,3.36,0,0,1-2.36,1.25H345.71c-.26,0-.4,0-.43,0s-.26.12-.39.34c-.32.61-.7,1.37-1.15,2.3-.09.19-.06.29.1.29h12.43a1.07,1.07,0,0,1,1.08.67,2.48,2.48,0,0,1-.22,1.68c-.57,1.41-.88,2.13-.91,2.16-.25.71-.53,1.49-.81,2.35-.55,1.64-1.44,2.45-2.69,2.45H334.14a1.16,1.16,0,0,1-1.2-.74,3,3,0,0,1,.05-1.9,45.77,45.77,0,0,1,2.45-6l2.25-4.41.1-.12a.51.51,0,0,0,.07-.17.52.52,0,0,1,.07-.15c.29-.54.29-.87,0-1s-.59-.32-.91-.48c-.48-.23-.73-.36-.77-.39s-.24-.14-.24-.24a1.27,1.27,0,0,1,.39-.29c.06,0,.32-.12.77-.26l1.36-.43c.47-.15.73-.23.8-.27l.09-.09a.18.18,0,0,0,.05-.07s-.05,0-.14-.08h-3.75c-.16,0-.24,0-.24-.07s.11-.12.34-.21a21.68,21.68,0,0,1,2.59-.82c.22-.1.53-.21.91-.34a.4.4,0,0,0,.24-.24c0-.06,0-.12-.19-.19a2.23,2.23,0,0,0-.38-.19l-.53-.19-.63-.24a1.1,1.1,0,0,1-.48-.29c-.16-.16-.17-.38,0-.67s.25-.4.38-.63.5-.89.94-1.63.76-1.31,1-1.73c.06-.09.16-.25.29-.48s.16-.54,0-.67a3.5,3.5,0,0,0-.53-.29s-.4-.17-1.1-.43a4.11,4.11,0,0,1-.58-.24.19.19,0,0,1-.1-.19c0-.06.07-.11.2-.14l1.24-.39c1-.25,1.78-.48,2.45-.67a9.4,9.4,0,0,0,2.07-.67c.09,0,.14-.07.14-.1s0-.14-.1-.14h-4.36c-.52,0-.84-.18-1-.53a1.31,1.31,0,0,1,0-.91,6.65,6.65,0,0,1,1.11-1.92,3.09,3.09,0,0,1,2.25-1.25h18.29a2.31,2.31,0,0,1,.58,0,.92.92,0,0,1,.84.65,2.12,2.12,0,0,1-.12,1.46c0,.07-.07.14-.1.22a1.34,1.34,0,0,1-.12.24.4.4,0,0,0-.07.21,1.74,1.74,0,0,0-.17,1.13.72.72,0,0,0,.6.6,2.64,2.64,0,0,0,.63,0h3.93Q366.06,77.23,366.06,77.32Z"/><path class="cls-51" d="M375.85,72.67h6.82a7.06,7.06,0,0,1,3.36.77,5,5,0,0,1,1.82,1.82,3.2,3.2,0,0,1,.24.41c.1.17.18.33.24.45a4.11,4.11,0,0,0,.24.39l.24.29a1.44,1.44,0,0,0,1,.38c.8,0,2.2,0,4.18,0H394c.38,0,.57,0,.57.14s-.25.23-.76.39c-.26.06-.69.18-1.3.36l-1.7.48-.84.21c-.2.07-.31.13-.34.19s0,.2.19.29l.34.1a5.56,5.56,0,0,1,.62.24l.7.29.5.19a.72.72,0,0,1,.39.43,1.3,1.3,0,0,1-.2.72q-.37.92-1.29,2.64c-.1.19-.25.46-.46.79a6.27,6.27,0,0,1-.36.55c-.29.52-.27.85.05,1l1.1.48a5.87,5.87,0,0,0,.63.29.19.19,0,0,1,.09.24q0,.15-.24.24a2.43,2.43,0,0,0-.43.12,2.45,2.45,0,0,1-.41.12l-.48.12-.5.14-.46.15-.4.12a8.48,8.48,0,0,0-1.3.43c-.29.13-.43.22-.43.29s.1.09.31.09h4c.13,0,.19,0,.19.08s-.13.13-.38.26a13.53,13.53,0,0,1-2.07.62c-.57.16-1.39.37-2.44.63-.2,0-.29.09-.29.17s.09.16.29.26c.76.38,1.16.59,1.2.62.25.17.22.37-.1.63a4.49,4.49,0,0,1-.72.48,14.07,14.07,0,0,1-3.36,1.44c-.29.09-.46.17-.5.24a1.07,1.07,0,0,0,0,.57,52.56,52.56,0,0,0,1.25,6.92,1.41,1.41,0,0,0,.1.43,3.74,3.74,0,0,1-.2,1.65,3.93,3.93,0,0,1-.81,1.47,2.07,2.07,0,0,1-1.49.67h-5.28a1.11,1.11,0,0,1-1.1-.91l-.63-2a49.19,49.19,0,0,1-1.25-7.63v-.43a.3.3,0,0,0-.33-.34H372q-.28,0-.48.39t-.72,1.41c-.35.72-.6,1.27-.76,1.66a40.79,40.79,0,0,0-2.16,5.42,3.46,3.46,0,0,1-.39.91,2.4,2.4,0,0,1-2.11,1.54h-4.13a1.16,1.16,0,0,1-1.13-.7,2.33,2.33,0,0,1,0-1.94,49.9,49.9,0,0,1,2.16-5.52q.72-1.44,2.54-5a1.94,1.94,0,0,0,.36-.91c0-.16-.18-.31-.5-.44l-1-.36-1-.36c-.13-.06-.18-.12-.14-.19a.56.56,0,0,1,.24-.19c.38-.13.88-.27,1.48-.43a16.31,16.31,0,0,0,2.07-.63c.45-.16.64-.3.57-.43s-.06,0-.19,0h-4q-.28,0-.24-.09t.24-.24a11.12,11.12,0,0,1,1.78-.72l.91-.27.93-.26a1.39,1.39,0,0,0,.41-.14.16.16,0,0,0,0-.24s-.17-.12-.53-.24-.68-.24-.91-.34l-.57-.24c-.23-.13-.34-.27-.34-.43a1.67,1.67,0,0,1,.29-.72l1-1.83,1.11-1.92a2.16,2.16,0,0,0,.36-.93q0-.27-.51-.51l-1.48-.57c-.26-.13-.38-.24-.36-.34s.18-.17.5-.24.56-.15,1.1-.26a11.7,11.7,0,0,0,1.4-.36c1.37-.35,2.22-.59,2.54-.72a.94.94,0,0,0,.19-.15c0-.06,0-.09-.14-.09h-.58l-1.46,0-1.63,0H366c-.35,0-.57-.11-.67-.34a2.11,2.11,0,0,1,.05-1.48,4.63,4.63,0,0,1,1.37-2,2.81,2.81,0,0,1,1.8-.79Q369.28,72.67,375.85,72.67Zm6,9.41q-6,0-7.2,0a.71.71,0,0,0-.62.43c-.19.35-.47.84-.84,1.46s-.62,1.07-.75,1.32c-.28.48-.27.82.05,1a2.66,2.66,0,0,0,1.49.48h7.68c.1,0,.15,0,.17-.07s0-.14-.12-.26-.07-.59.29-1.11a13.9,13.9,0,0,0,1-1.68c.39-.77.32-1.25-.19-1.44A4.22,4.22,0,0,0,381.9,82.08Z"/><path class="cls-52" d="M401.29,77.23h-4.56q-.28,0-.33-.15t.09-.48a2.09,2.09,0,0,1,.77-1q.72-.59,1.11-.87a16,16,0,0,1,5.9-2.45,16.71,16.71,0,0,1,8.54.48,6.32,6.32,0,0,1,3.41,2.79,4.11,4.11,0,0,0,.91,1.29,1.11,1.11,0,0,0,.87.39h4.46q.24,0,.24.09c0,.07-.08.13-.24.2a24.23,24.23,0,0,1-2.35.67l-1.08.26c-.43.12-.82.21-1.15.29l-.55.12c-.23.07-.34.14-.34.24s0,.19.19.29l.58.26a2.81,2.81,0,0,1,.57.31.32.32,0,0,1,.15.34c0,.07-.13.14-.29.24a5.1,5.1,0,0,1-.72.38l-3.7,1.73a4.57,4.57,0,0,1-1,.24.65.65,0,0,1-.67-.43,2.26,2.26,0,0,0-1.25-1.15,8.69,8.69,0,0,0-5.23-.15,8.91,8.91,0,0,0-.87.44,1.67,1.67,0,0,0-.57.43c-.52.64-.56,1.12-.15,1.44.13.06.67.29,1.63.67a52,52,0,0,0,5,1.68c.8.22,2.29.58,4.47,1.06l1.05.28c.2.07.28.16.24.29s-.2.23-.52.39c-.77.32-1.2.51-1.3.57-.32.23-.46.4-.43.53s.08.14.24.14h3.89a1.58,1.58,0,0,1,.57,0q.15,0,.15.12a.28.28,0,0,1-.15.22,3.44,3.44,0,0,1-.91.43,5.08,5.08,0,0,0-.74.22l-.94.31a2.92,2.92,0,0,1-.53.14c-.25.1-.29.23-.09.39l.52.19,1,.31c.37.11.63.2.79.26.42.17.65.34.7.53a2.6,2.6,0,0,1-.32,1.2,29.1,29.1,0,0,1-4.7,7.87,15.61,15.61,0,0,1-6.82,4.76,14.34,14.34,0,0,1-3.79.81,17.29,17.29,0,0,1-7.49-1,7.2,7.2,0,0,1-2.64-1.63,6.8,6.8,0,0,1-1.48-2.59,3,3,0,0,1,.86-3.07,4.81,4.81,0,0,1,1.15-1c1.35-.68,3-1.46,4.95-2.36a1.63,1.63,0,0,1,.91-.19.64.64,0,0,1,.72.58,2.7,2.7,0,0,0,2,2,9.94,9.94,0,0,0,4.37.24,4.28,4.28,0,0,0,2.21-1.06c.86-.86,1-1.54.34-2a2.21,2.21,0,0,0-.77-.38c-3.91-1.34-6.39-2.18-7.44-2.5a15.5,15.5,0,0,0-1.59-.45c-.73-.18-1.68-.39-2.83-.65a.13.13,0,0,1-.09-.19c0-.07.06-.13.19-.19a6.65,6.65,0,0,1,.86-.34,11.7,11.7,0,0,0,1.35-.62.36.36,0,0,0,.09-.24c0-.1-.05-.15-.14-.15a.82.82,0,0,0-.39,0h-3.74c-.26,0-.38,0-.38-.14s.33-.32,1-.67q.19,0,1.68-.63a2,2,0,0,0,.53-.28.16.16,0,0,0,.05-.2,1.29,1.29,0,0,0-.38-.14,15.29,15.29,0,0,1-1.64-.58,1.69,1.69,0,0,1-.57-.28q-.44-.3-.15-1c.32-.71.66-1.36,1-2,.1-.19.51-.87,1.25-2a1.82,1.82,0,0,0,.34-.77c0-.15-.12-.28-.34-.38a3.94,3.94,0,0,0-.67-.31,5.78,5.78,0,0,1-.63-.27.8.8,0,0,1-.38-.33c0-.16.21-.29.62-.39.2,0,.62-.12,1.28-.26s1.16-.26,1.51-.36c1.21-.29,2.13-.51,2.73-.67.13-.07.2-.12.2-.17S401.42,77.23,401.29,77.23Z"/><path class="cls-53" d="M117.55,132.64h10.37a.49.49,0,0,1,.41.29,1,1,0,0,1,0,.67l-.2.44a1.3,1.3,0,0,0,0,.51.87.87,0,0,0,.08.3c0,.05.11.07.24.07h2.31s0,0,0,0,0,.07-.09.12a3.67,3.67,0,0,1-.51.17l-.63.14-.73.17-.72.21c-.1,0-.15.05-.16.09s0,.07.08.11l.48.21a3.12,3.12,0,0,1,.51.24c.11.1.09.23-.05.39a2,2,0,0,1-1.1.69h-3.1a.42.42,0,0,0-.18,0,.23.23,0,0,0-.1.07l-.13.21c-.38.64-.61,1-.67,1.11-.14.27-.14.45,0,.55l.65.26.31.12q.1.06.09.12s-.06.09-.16.12l-.38.12c-.35.08-.65.16-.89.24a2.75,2.75,0,0,0-.5.2c-.13.08-.2.14-.2.19s0,0,.12,0h2c.06,0,.09,0,.09.07s0,.07-.09.1a4.75,4.75,0,0,1-1,.33c-.6.17-.91.25-.94.27s-.13,0-.14.1,0,.08.09.12l.28.1.25.09.5.21q.22.12,0,.48c0,.12-.17.35-.36.71s-.35.64-.46.83a27.49,27.49,0,0,0-1.65,4,2.14,2.14,0,0,1-.34.65,1.06,1.06,0,0,1-.86.55q-1.62,0-2.16,0a.54.54,0,0,1-.54-.34,1.19,1.19,0,0,1,0-.84,17.8,17.8,0,0,1,1.06-2.71c.22-.46.68-1.36,1.37-2.69a.89.89,0,0,0,.15-.43c0-.08-.08-.15-.22-.21l-.4-.16-.37-.13c-.19-.08-.29-.14-.29-.17s.09-.12.26-.17c1.08-.32,1.68-.51,1.83-.57s.07-.07.07-.1,0,0-.06,0l-.2,0h-1.9l-.07,0a.13.13,0,0,1,.07-.1c.18-.08.35-.15.53-.21a6.61,6.61,0,0,1,.89-.29l.5-.15c.1,0,.15-.07.16-.12s0-.08-.09-.12l-.21-.07a.48.48,0,0,0-.17-.08l-.27-.09-.31-.14a.26.26,0,0,1-.14-.2.89.89,0,0,1,.12-.35s.22-.35.62-1.06a.68.68,0,0,0,.12-.21c0-.08,0-.13,0-.15h-3.19q-.47,0-.36-.6c0-.29,0-.47-.22-.55l-.23-.1-.25-.09-.22-.1-.2-.12a.11.11,0,0,1,0-.12,1,1,0,0,1,.36-.14c.93-.21,1.41-.32,1.44-.34.26-.06.58-.16,1-.29.07,0,.09-.06.08-.09s0,0-.08,0h-2.2c-.21,0-.32,0-.34-.12a1.09,1.09,0,0,1,0-.81,2.57,2.57,0,0,1,.68-1A1.29,1.29,0,0,1,117.55,132.64Z"/><path class="cls-54" d="M133.94,134.92h-2.21c-.11,0-.17,0-.19-.12s0-.16.15-.28a5.39,5.39,0,0,1,.88-.67,10.29,10.29,0,0,1,1-.58,9.33,9.33,0,0,1,5.11-.87,4.91,4.91,0,0,1,1.7.51,3,3,0,0,1,1.2,1,3.13,3.13,0,0,0,.77.81,1.2,1.2,0,0,0,.65.19h2.25c.05,0,.07,0,.05.08s0,.07-.12.12a6.43,6.43,0,0,1-1,.36l-.61.18-.47.13c-.1,0-.15.07-.17.12s0,.07.14.12a1.85,1.85,0,0,0,.32.12l.24.08.28.1.24.08a.56.56,0,0,1,.32.27,1.17,1.17,0,0,1-.05.52,8.49,8.49,0,0,1-.48,1.56c-.15.31-.11.5.09.58a4,4,0,0,0,.41.16l.31.1.34.15s.07.06.07.09-.05.06-.12.08a2.05,2.05,0,0,1-.41.14l-.81.22a2.73,2.73,0,0,0-.65.26c-.18.11-.26.2-.24.26s0,0,.14,0H145c.14,0,.22,0,.24.07s-.28.2-.84.41c-.19.07-.44.14-.76.23a4.68,4.68,0,0,0-.51.16.08.08,0,0,0-.07.09.16.16,0,0,0,0,.12.65.65,0,0,1,.2.06,2.85,2.85,0,0,0,.33.13l.27.1a1,1,0,0,1,.24.14c.08.08.07.2,0,.34a.56.56,0,0,1-.09.14,20.66,20.66,0,0,1-4.49,4.76,10.37,10.37,0,0,1-4.47,2,7.6,7.6,0,0,1-4-.29,4.11,4.11,0,0,1-1.68-1.2,4,4,0,0,1-.74-3.12,6.87,6.87,0,0,1,.58-2,1.36,1.36,0,0,0,.14-.56c0-.08-.12-.16-.31-.24l-.29-.12-.38-.13-.2-.08a.1.1,0,0,1-.07-.12s0-.07.12-.1a4.93,4.93,0,0,1,.48-.14,9.19,9.19,0,0,0,1.35-.48c.14-.07.2-.12.19-.17s0-.05-.1-.05h-2c-.12,0-.19,0-.19,0s.09-.11.31-.24a6.89,6.89,0,0,1,1.4-.48l.48-.14a.23.23,0,0,0,.12-.12.19.19,0,0,0-.05-.1l-.46-.16a5.74,5.74,0,0,1-.53-.24c-.11-.08-.11-.22,0-.41,0,0,.32-.36.84-1s.82-.95.87-1a.88.88,0,0,0,.23-.36c0-.08-.06-.16-.21-.24a1.76,1.76,0,0,0-.25-.13l-.28-.13q-.09-.06-.09-.12c0-.05.05-.09.17-.12l.58-.14,1.07-.24.79-.18a5.35,5.35,0,0,0,.89-.24c.07,0,.1,0,.1-.07S134,134.92,133.94,134.92Zm-1.77,5.93h2c.09,0,.15,0,.16.05s-.05.08-.16.14a3.7,3.7,0,0,1-.7.29l-.44.13-.5.15-.26.08c-.1,0-.14.07-.14.12s0,.07.12.1l.1.06.21.07.24.08.25.1.18.07c.21.08.27.27.19.58a1.32,1.32,0,0,0,.24,1.27,1.37,1.37,0,0,0,.72.41,5.76,5.76,0,0,0,3.1-.1,5.09,5.09,0,0,0,1.89-1.1q.3-.27.6-.6c.18-.19.19-.34,0-.43a3,3,0,0,0-.39-.2l-.25-.09-.25-.1c-.06,0-.09-.07-.07-.12a.18.18,0,0,1,.12-.12l.57-.17a5.78,5.78,0,0,0,1.44-.5c.07,0,.09-.07.08-.12l-.08-.05h-2.13c-.08,0-.09-.06,0-.14a2.07,2.07,0,0,1,.82-.41l.3-.08.38-.11.33-.1a.6.6,0,0,0,.17-.07.25.25,0,0,0,.12-.1.09.09,0,0,0-.08-.09,2.18,2.18,0,0,0-.36-.15l-.36-.12-.45-.16c-.16-.07-.23-.22-.22-.46a1.11,1.11,0,0,0-.38-1,1.63,1.63,0,0,0-.55-.29,5.16,5.16,0,0,0-2.57,0,5.3,5.3,0,0,0-2.26,1.08,1.84,1.84,0,0,0-.38.33c-.19.19-.21.34-.05.43l.43.2.43.19c.12.06.11.12,0,.17l-.46.1c-.28.08-.52.14-.69.21a3.39,3.39,0,0,0-1,.41c-.1.08-.14.13-.12.16S132.12,140.85,132.17,140.85Z"/><path class="cls-55" d="M156,134.92h-2.28a.22.22,0,0,1-.17-.07s0-.11.05-.24a1,1,0,0,1,.38-.5l.56-.43a7.81,7.81,0,0,1,2.95-1.23,8.25,8.25,0,0,1,4.27.24,3.14,3.14,0,0,1,1.7,1.39,2,2,0,0,0,.46.65.54.54,0,0,0,.43.19h2.23c.08,0,.12,0,.12.05s0,.07-.12.1a10.94,10.94,0,0,1-1.17.33l-.54.14-.58.14-.27.06c-.12,0-.17.07-.17.12s0,.1.09.14l.29.14a1.34,1.34,0,0,1,.29.15.16.16,0,0,1,.07.17s-.06.07-.14.12a3.2,3.2,0,0,1-.36.19l-1.85.87a4.38,4.38,0,0,1-.53.12.33.33,0,0,1-.33-.22,1.13,1.13,0,0,0-.63-.58,3.24,3.24,0,0,0-3,.15.79.79,0,0,0-.28.21c-.26.32-.28.56-.08.72s.34.15.82.34a26,26,0,0,0,2.52.84c.4.11,1.14.29,2.23.53l.53.14q.15,0,.12.15a.72.72,0,0,1-.26.19,5,5,0,0,0-.65.29c-.16.11-.23.2-.22.26s0,.07.12.07h1.95c.17,0,.27,0,.28,0s.08,0,.08.06,0,.07-.08.1a1.6,1.6,0,0,1-.45.22,3.1,3.1,0,0,0-.37.11l-.47.15a1.43,1.43,0,0,1-.27.08c-.12,0-.14.11,0,.19l.26.09.49.16.4.13c.2.08.32.17.35.27a1.34,1.34,0,0,1-.16.6,14.73,14.73,0,0,1-2.35,3.93,7.83,7.83,0,0,1-3.41,2.38,7.42,7.42,0,0,1-1.9.41,8.78,8.78,0,0,1-3.74-.48,3.66,3.66,0,0,1-1.32-.82,3.36,3.36,0,0,1-.74-1.3,1.46,1.46,0,0,1,.43-1.53,2.26,2.26,0,0,1,.57-.48c.68-.34,1.5-.73,2.48-1.18a.76.76,0,0,1,.45-.09.32.32,0,0,1,.36.28,1.36,1.36,0,0,0,1,1,4.81,4.81,0,0,0,2.18.12,2.14,2.14,0,0,0,1.11-.53c.43-.43.49-.77.17-1a1.17,1.17,0,0,0-.39-.19c-1.95-.67-3.19-1.09-3.72-1.25a7.28,7.28,0,0,0-.79-.23l-1.42-.32a.07.07,0,0,1,0-.1s0-.06.09-.09a2.94,2.94,0,0,1,.43-.17,4.93,4.93,0,0,0,.68-.31.16.16,0,0,0,0-.12s0-.07-.07-.07-.08,0-.19,0h-1.87c-.13,0-.19,0-.19-.07s.16-.16.5-.34c.06,0,.34-.12.84-.31a1,1,0,0,0,.26-.14.1.1,0,0,0,0-.1,1,1,0,0,0-.19-.07,8,8,0,0,1-.82-.29.87.87,0,0,1-.29-.14c-.14-.1-.17-.26-.07-.48s.33-.68.5-1c0-.09.26-.43.63-1a1,1,0,0,0,.17-.39c0-.08-.06-.14-.17-.19a2.23,2.23,0,0,0-.34-.16l-.31-.13c-.11-.06-.18-.12-.19-.17s.1-.14.31-.19.31-.06.64-.13l.75-.18c.61-.14,1.07-.26,1.37-.34.06,0,.1-.06.1-.08S156,134.92,156,134.92Z"/><path class="cls-56" d="M167.37,132.64h10.37a.49.49,0,0,1,.41.29,1,1,0,0,1,0,.67L178,134a1.32,1.32,0,0,0,0,.51.82.82,0,0,0,.09.3c0,.05.11.07.24.07h2.3s0,0,0,0,0,.07-.1.12a3,3,0,0,1-.5.17l-.64.14-.73.17-.72.21c-.1,0-.15.05-.16.09s0,.07.09.11l.48.21a3.27,3.27,0,0,1,.5.24c.11.1.1.23,0,.39a2,2,0,0,1-1.1.69h-3.1a.42.42,0,0,0-.18,0,.16.16,0,0,0-.09.07,1.15,1.15,0,0,0-.13.21c-.39.64-.61,1-.68,1.11-.14.27-.13.45,0,.55l.65.26.31.12c.06,0,.09.08.08.12s-.06.09-.15.12l-.39.12c-.35.08-.65.16-.89.24a3.07,3.07,0,0,0-.5.2c-.13.08-.19.14-.19.19s0,0,.12,0h2c.06,0,.1,0,.1.07s0,.07-.1.1a4.75,4.75,0,0,1-1,.33l-.94.27a.17.17,0,0,0-.14.1s0,.08.1.12l.27.1.25.09.51.21c.14.08.15.24,0,.48s-.17.35-.36.71-.34.64-.45.83a26.51,26.51,0,0,0-1.66,4,1.94,1.94,0,0,1-.34.65,1.05,1.05,0,0,1-.86.55q-1.61,0-2.16,0a.54.54,0,0,1-.54-.34,1.19,1.19,0,0,1,0-.84,17.71,17.71,0,0,1,1.05-2.71c.23-.46.68-1.36,1.37-2.69a1,1,0,0,0,.16-.43c0-.08-.09-.15-.23-.21l-.4-.16-.37-.13c-.19-.08-.29-.14-.29-.17s.09-.12.27-.17c1.07-.32,1.68-.51,1.82-.57s.07-.07.07-.1,0,0-.06,0l-.2,0h-1.9l-.07,0a.15.15,0,0,1,.07-.1l.53-.21a7.11,7.11,0,0,1,.89-.29l.5-.15c.1,0,.15-.07.16-.12s0-.08-.08-.12l-.22-.07a.48.48,0,0,0-.17-.08l-.26-.09-.31-.14c-.1-.06-.15-.13-.15-.2a.89.89,0,0,1,.12-.35,10.69,10.69,0,0,0,.63-1.06,1.89,1.89,0,0,0,.12-.21c0-.08,0-.13,0-.15h-3.19q-.45,0-.36-.6c.05-.29,0-.47-.22-.55l-.22-.1-.26-.09-.21-.1-.21-.12a.09.09,0,0,1,0-.12s.13-.08.36-.14c.93-.21,1.41-.32,1.44-.34.25-.06.57-.16,1-.29.06,0,.09-.06.07-.09s0,0-.07,0h-2.21c-.21,0-.32,0-.34-.12a1.09,1.09,0,0,1,0-.81,2.57,2.57,0,0,1,.68-1A1.33,1.33,0,0,1,167.37,132.64Z"/><path class="cls-57" d="M185.49,149.39h-1c-.43,0-.66-.25-.7-.76,0-.1,0-.25,0-.46s0-.34,0-.41a.32.32,0,0,1,0-.14.3.3,0,0,0,0-.14s-.09,0-.22,0h-4.61a.54.54,0,0,0-.43.29l-.32.47a4.16,4.16,0,0,0-.3.47,1.28,1.28,0,0,1-1.11.71h-2a.62.62,0,0,1-.56-.27,1.06,1.06,0,0,1-.09-.73,1.59,1.59,0,0,1,.38-.84l1.42-1.75c.17-.2,1.05-1.16,2.64-2.91l.09-.11.09-.09.09-.1a.44.44,0,0,0,.09-.11c.13-.16.14-.27.05-.33l-.33-.21-.3-.18a.12.12,0,0,1-.05-.14.24.24,0,0,1,.15-.12,4.7,4.7,0,0,1,.45-.17c.79-.22,1.22-.35,1.3-.38s.1,0,.1,0,0,0-.08,0-.64,0-1.68,0h-.24c-.06,0-.09,0-.09,0s.06-.08.09-.09a3.5,3.5,0,0,1,.46-.12l.35-.1.42-.11.36-.08c.17-.05.36-.1.55-.17a.23.23,0,0,0,.12-.12.09.09,0,0,0-.05-.12l-.08,0-.13,0-.16-.08-.14-.08-.12-.06-.09-.05c-.11-.08-.1-.21,0-.38l.26-.27,1-1,.78-.77a1.39,1.39,0,0,0,.19-.21c.2-.23.2-.38,0-.46l-.16-.08-.17-.08-.15-.08-.07,0-.14,0-.06-.06s0-.05,0-.06.15-.17.39-.22l.91-.19,1.68-.41.34-.12c.08,0,.11-.05.09-.09a.09.09,0,0,0-.09-.08h-2a1.15,1.15,0,0,1-.29,0,.23.23,0,0,1-.21-.22.62.62,0,0,1,.14-.43c.45-.54.83-1,1.13-1.27a1.15,1.15,0,0,1,1.15-.34c.23.07.33.27.31.6a3.19,3.19,0,0,1,0,.4,2.48,2.48,0,0,0,0,.3,1.09,1.09,0,0,0,.16.7.69.69,0,0,0,.53.28h2.16q.12,0,.12.09c0,.05,0,.1-.12.13s-.61.2-1.34.41l-1,.31-.1.07a.1.1,0,0,0,.05.15l.86.28a1.3,1.3,0,0,0,.31.12q.35.15.24.63c0,.21-.08.51-.15.91s-.13.7-.16.91,0,.5.19.58l.4.15a4.79,4.79,0,0,0,.52.19l.26.11c.05,0,.06.06.05.12s0,.06-.1.08a2,2,0,0,1-.38.14c-.56.18-.93.3-1.11.38s-.12.1-.09.15a1.06,1.06,0,0,0,.29,0h1.72c.05,0,.08,0,.08.05s0,.06-.1.1a.88.88,0,0,0-.26.08l-.47.18-.35.14c-.14.07-.22.13-.22.18s.05.11.15.16l.25.1.28.09.48.24c.16.08.22.25.19.51-.1.76-.17,1.42-.22,2a19.82,19.82,0,0,0-.07,2.86,1.86,1.86,0,0,1-.14.84,2.22,2.22,0,0,1-.3.55,1.29,1.29,0,0,1-.41.37.9.9,0,0,1-.47.13Zm-3.4-6,.19,0h1.79c.08,0,.14-.06.15-.17a3.84,3.84,0,0,1,.1-.45c.09-.36,0-.59-.24-.7a7.82,7.82,0,0,1-1-.41.1.1,0,0,1-.07-.14.24.24,0,0,1,.13-.11l.27-.11.4-.13a1.46,1.46,0,0,0,.28-.11c.24-.08.35-.14.33-.19s-.06-.1-.19-.05a3.33,3.33,0,0,0-.48.12.6.6,0,0,1-.16.05l-.21.06-.25.08-.3.1-.3.09a2.68,2.68,0,0,0-.39.15c-.14.06-.17.14-.07.24l.22.14.38.21c.16.09.15.24,0,.47a2.24,2.24,0,0,0-.2.21l-.13.15-.15.16a.79.79,0,0,0-.12.15.61.61,0,0,0-.12.14S182,143.39,182.09,143.39Z"/><path class="cls-58" d="M197.49,132.64h3.41a3.47,3.47,0,0,1,1.68.39,2.4,2.4,0,0,1,.91.91,1.17,1.17,0,0,1,.12.2l.12.23.12.19.12.15a.72.72,0,0,0,.48.19c.4,0,1.1,0,2.09,0h0c.19,0,.28,0,.28.08s-.13.11-.38.19l-.65.18-.85.24-.42.11a.31.31,0,0,0-.17.09c0,.05,0,.1.1.15l.17,0,.31.12.35.15.25.09a.39.39,0,0,1,.19.22.7.7,0,0,1-.1.36c-.12.3-.34.74-.64,1.32l-.23.4-.18.27c-.15.26-.14.43,0,.51l.55.24.31.14a.09.09,0,0,1,.05.12q0,.08-.12.12l-.21.06-.21.06-.24.06-.25.07-.23.07-.2.06a4.94,4.94,0,0,0-.65.22c-.14.06-.21.11-.21.14s0,0,.15,0h2c.06,0,.1,0,.1,0s-.07.07-.19.13a7.55,7.55,0,0,1-1,.31c-.28.08-.69.19-1.22.31-.1,0-.14.05-.14.09s0,.08.14.13l.6.31c.13.08.11.19-.05.31a2.24,2.24,0,0,1-.36.24,6.66,6.66,0,0,1-1.68.72.69.69,0,0,0-.25.12.59.59,0,0,0,0,.29,25.51,25.51,0,0,0,.62,3.46.78.78,0,0,0,0,.21,2.2,2.2,0,0,1-.5,1.56,1,1,0,0,1-.75.34H198a.56.56,0,0,1-.55-.46l-.31-1a24.15,24.15,0,0,1-.63-3.82v-.22a.14.14,0,0,0-.16-.16h-.8c-.09,0-.17.06-.24.19l-.36.71c-.17.36-.3.63-.38.82a20.28,20.28,0,0,0-1.08,2.72,1.85,1.85,0,0,1-.19.45,1.22,1.22,0,0,1-1.06.77H190.2a.58.58,0,0,1-.57-.35,1.17,1.17,0,0,1,0-1,24.19,24.19,0,0,1,1.08-2.76c.23-.48.66-1.31,1.27-2.5a.94.94,0,0,0,.18-.45c0-.08-.09-.15-.25-.22l-.5-.18-.49-.18c-.06,0-.09-.06-.07-.09s0-.07.12-.1l.74-.22a7.94,7.94,0,0,0,1-.31c.22-.08.32-.15.28-.21s0,0-.09,0h-2c-.09,0-.14,0-.12,0s0-.08.12-.12a5.35,5.35,0,0,1,.89-.36l.46-.13.46-.13L193,140s0-.07,0-.12-.09-.06-.27-.12l-.45-.17-.29-.12a.27.27,0,0,1-.17-.22.8.8,0,0,1,.15-.36l.52-.91.56-1a1.22,1.22,0,0,0,.18-.47c0-.08-.1-.17-.26-.25l-.74-.29c-.13-.06-.19-.12-.18-.16s.09-.09.25-.12a4.53,4.53,0,0,1,.55-.14,4.15,4.15,0,0,0,.7-.18,10.91,10.91,0,0,0,1.27-.36l.1-.07s0-.05-.07-.05h-2.24a.33.33,0,0,1-.33-.17,1.09,1.09,0,0,1,0-.74,2.31,2.31,0,0,1,.68-1,1.43,1.43,0,0,1,.91-.4C194.09,132.64,195.3,132.64,197.49,132.64Zm3,4.71q-3,0-3.6,0a.34.34,0,0,0-.31.22l-.42.73c-.19.31-.31.53-.38.66s-.13.41,0,.51a1.3,1.3,0,0,0,.74.24h3.84a.1.1,0,0,0,.09,0,.27.27,0,0,0-.07-.13c-.08-.11,0-.3.15-.55a8.34,8.34,0,0,0,.5-.84c.2-.39.16-.63-.09-.73A2.21,2.21,0,0,0,200.52,137.35Z"/><path class="cls-59" d="M208.17,132.64h10.37a.49.49,0,0,1,.41.29,1,1,0,0,1,0,.67l-.19.44a1.32,1.32,0,0,0,0,.51.87.87,0,0,0,.08.3c0,.05.12.07.25.07h2.3s.05,0,.05,0,0,.07-.1.12a3,3,0,0,1-.5.17l-.64.14-.73.17-.72.21c-.1,0-.15.05-.16.09s0,.07.09.11l.48.21a3.27,3.27,0,0,1,.5.24c.11.1.1.23-.05.39a2,2,0,0,1-1.1.69h-3.1a.42.42,0,0,0-.18,0,.16.16,0,0,0-.09.07,1.78,1.78,0,0,0-.14.21c-.38.64-.6,1-.67,1.11-.14.27-.13.45,0,.55l.64.26.32.12c.06,0,.09.08.08.12s-.06.09-.15.12l-.39.12c-.35.08-.65.16-.89.24a3.07,3.07,0,0,0-.5.2c-.13.08-.19.14-.19.19s0,0,.12,0h2c.06,0,.09,0,.09.07s0,.07-.09.1a4.75,4.75,0,0,1-1,.33c-.59.17-.91.25-.94.27s-.13,0-.14.1,0,.08.09.12l.28.1.25.09.51.21c.14.08.15.24,0,.48s-.17.35-.36.71-.34.64-.45.83a26.51,26.51,0,0,0-1.66,4,2.14,2.14,0,0,1-.34.65,1.05,1.05,0,0,1-.86.55q-1.6,0-2.16,0a.54.54,0,0,1-.54-.34,1.14,1.14,0,0,1,0-.84,16.73,16.73,0,0,1,1-2.71c.23-.46.68-1.36,1.37-2.69a1.09,1.09,0,0,0,.16-.43c0-.08-.09-.15-.23-.21L210,142l-.37-.13c-.19-.08-.29-.14-.29-.17s.09-.12.27-.17c1.07-.32,1.68-.51,1.82-.57s.07-.07.07-.1,0,0-.06,0l-.2,0h-1.9l-.07,0a.13.13,0,0,1,.07-.1c.18-.08.35-.15.53-.21a6.61,6.61,0,0,1,.89-.29l.5-.15c.1,0,.15-.07.16-.12s0-.08-.09-.12l-.21-.07a.48.48,0,0,0-.17-.08l-.26-.09-.32-.14a.26.26,0,0,1-.14-.2.89.89,0,0,1,.12-.35s.22-.35.63-1.06a1.89,1.89,0,0,0,.12-.21q.06-.12,0-.15h-3.19q-.47,0-.36-.6c0-.29,0-.47-.22-.55l-.22-.1-.26-.09-.21-.1-.21-.12a.09.09,0,0,1,0-.12s.13-.08.36-.14c.92-.21,1.4-.32,1.44-.34.25-.06.57-.16,1-.29.06,0,.08-.06.07-.09s0,0-.07,0H207c-.21,0-.32,0-.34-.12a1.09,1.09,0,0,1,0-.81,2.57,2.57,0,0,1,.68-1A1.31,1.31,0,0,1,208.17,132.64Z"/><path class="cls-60" d="M231.24,132.62H239a1.57,1.57,0,0,1,.29,0,.44.44,0,0,1,.41.3,1.06,1.06,0,0,1-.05.69.5.5,0,0,1,0,.13.53.53,0,0,1-.06.14,1,1,0,0,1-.06.14.88.88,0,0,0-.07.58.36.36,0,0,0,.34.28,1.39,1.39,0,0,0,.36,0h1.8c.16,0,.23,0,.22.09s-.09.11-.27.18l-1.25.36-1,.21-.43.1c-.11,0-.18.07-.19.12s0,.1.14.14l.31.11a3.33,3.33,0,0,0,.39.13l.24.15c.12.09.11.23-.05.41a1.8,1.8,0,0,1-1,.55H232.7a.28.28,0,0,0-.24.17l-.35.61-.34.59q-.08.12-.06.15s0,0,.13.06h.21c3.19,0,5.13,0,5.83,0a.82.82,0,0,1,.68.29,1.21,1.21,0,0,0,.5.28,3.21,3.21,0,0,0,.41.16l.38.13c.13.05.19.11.17.17s-.11.1-.29.14l-.86.24-.74.27c-.13,0-.2.09-.2.12s.06,0,.17,0h1.71c.17,0,.26,0,.26.05s-.11.08-.31.14-.49.18-.7.24a3.64,3.64,0,0,0-.55.2c-.11,0-.18.08-.19.12s.08.11.26.19l.17.08.17.09.33.14a.38.38,0,0,1,.16.24.71.71,0,0,1-.13.36,2.69,2.69,0,0,1-.76.85,1.5,1.5,0,0,1-.87.35H231.5a.53.53,0,0,0-.18,0,.81.81,0,0,0-.13.2,26.3,26.3,0,0,0-1.68,4,3.54,3.54,0,0,1-.29.65,1.56,1.56,0,0,1-.43.48.87.87,0,0,1-.5.16c-.89,0-1.61,0-2.19,0a.57.57,0,0,1-.53-.38,1.37,1.37,0,0,1,0-.89,23.44,23.44,0,0,1,1.24-3.09q.07-.17,1.11-2.16a.88.88,0,0,1,.07-.13.9.9,0,0,0,.07-.14c.11-.22.11-.37,0-.45s-.19-.09-.53-.27l-.35-.18a.11.11,0,0,1-.06-.1.11.11,0,0,1,.08-.1c.11-.05.32-.12.62-.22l.29-.1.34-.11.21-.07a.43.43,0,0,0,.19-.1s0-.05-.15-.05h-1.89s0,0,0,0,0,0,.07,0a3.8,3.8,0,0,1,.51-.22l.41-.11.55-.17.31-.1c.13,0,.19-.09.19-.12s0-.1-.12-.15l-.21-.07a3.5,3.5,0,0,1-.75-.34c-.11-.08-.11-.21,0-.4s.08-.16.17-.32.15-.27.39-.67.41-.7.52-.91a2.19,2.19,0,0,0,.17-.29c.08-.16.07-.27,0-.33a1.66,1.66,0,0,0-.43-.22l-.32-.12-.24-.1c-.11,0-.16-.08-.16-.12s.07-.11.16-.14.45-.11,1.26-.32,1.29-.35,1.43-.4.3-.1.29-.17-.09-.05-.26-.05h-2a.46.46,0,0,1-.46-.24.66.66,0,0,1,0-.48A3,3,0,0,1,229,133a1.22,1.22,0,0,1,.79-.36Z"/><path class="cls-61" d="M247.05,132.64h3.41a3.47,3.47,0,0,1,1.68.39,2.4,2.4,0,0,1,.91.91,1.17,1.17,0,0,1,.12.2l.12.23a.76.76,0,0,0,.12.19l.12.15a.72.72,0,0,0,.48.19c.4,0,1.1,0,2.09,0h0c.19,0,.28,0,.28.08s-.13.11-.38.19l-.65.18-.85.24-.42.11a.31.31,0,0,0-.17.09c0,.05,0,.1.1.15l.17,0,.31.12.34.15.26.09a.39.39,0,0,1,.19.22.7.7,0,0,1-.1.36c-.13.3-.34.74-.65,1.32,0,.09-.12.23-.22.4l-.18.27c-.15.26-.14.43,0,.51l.55.24.32.14a.1.1,0,0,1,0,.12q0,.08-.12.12l-.21.06-.21.06-.24.06-.25.07-.23.07-.2.06a4.94,4.94,0,0,0-.65.22c-.14.06-.22.11-.22.14s.06,0,.16,0h2c.06,0,.1,0,.1,0s-.07.07-.2.13a7.27,7.27,0,0,1-1,.31c-.29.08-.69.19-1.22.31q-.15,0-.15.09s0,.08.15.13l.6.31c.13.08.11.19-.05.31a2.24,2.24,0,0,1-.36.24,6.66,6.66,0,0,1-1.68.72.69.69,0,0,0-.25.12s0,.13,0,.29a25.51,25.51,0,0,0,.62,3.46.78.78,0,0,0,.05.21,1.88,1.88,0,0,1-.1.83,1.79,1.79,0,0,1-.41.73,1,1,0,0,1-.74.34h-2.64A.56.56,0,0,1,247,149l-.31-1a24.15,24.15,0,0,1-.63-3.82v-.22c0-.11-.05-.16-.17-.16h-.79c-.09,0-.17.06-.24.19l-.36.71c-.17.36-.3.63-.38.82a20.28,20.28,0,0,0-1.08,2.72,1.85,1.85,0,0,1-.19.45,1.23,1.23,0,0,1-1.06.77h-2.06a.58.58,0,0,1-.57-.35,1.2,1.2,0,0,1,0-1,28.59,28.59,0,0,1,1.08-2.76c.24-.48.67-1.31,1.28-2.5a1.23,1.23,0,0,0,.18-.45c0-.08-.1-.15-.26-.22L241,142l-.49-.18c-.06,0-.09-.06-.07-.09s0-.07.12-.1l.74-.22a7.22,7.22,0,0,0,1-.31c.23-.08.32-.15.29-.21s0,0-.09,0h-2c-.1,0-.14,0-.12,0s0-.08.12-.12a5.35,5.35,0,0,1,.89-.36l.45-.13.47-.13.21-.07s0-.07,0-.12-.09-.06-.27-.12l-.45-.17-.29-.12a.27.27,0,0,1-.17-.22.88.88,0,0,1,.14-.36c.12-.19.29-.49.53-.91s.43-.73.55-1a1,1,0,0,0,.18-.47c0-.08-.09-.17-.25-.25l-.74-.29c-.13-.06-.19-.12-.18-.16s.09-.09.25-.12a4.53,4.53,0,0,1,.55-.14,4.41,4.41,0,0,0,.7-.18,10.91,10.91,0,0,0,1.27-.36l.1-.07s0-.05-.08-.05h-2.23c-.17,0-.29-.06-.33-.17a1,1,0,0,1,0-.74,2.17,2.17,0,0,1,.69-1,1.39,1.39,0,0,1,.89-.4C243.64,132.64,244.86,132.64,247.05,132.64Zm3,4.71q-3,0-3.6,0a.33.33,0,0,0-.31.22c-.1.18-.24.42-.43.73s-.3.53-.37.66-.13.41,0,.51a1.3,1.3,0,0,0,.74.24H250c.05,0,.08,0,.08,0s0-.07-.05-.13,0-.3.14-.55a8.34,8.34,0,0,0,.5-.84c.19-.39.16-.63-.09-.73A2.21,2.21,0,0,0,250.08,137.35Z"/><path class="cls-62" d="M260.68,134.92h-2.2c-.12,0-.18,0-.19-.12s0-.16.14-.28a5.13,5.13,0,0,1,.89-.67,10.31,10.31,0,0,1,1-.58,9.34,9.34,0,0,1,5.11-.87,5,5,0,0,1,1.71.51,3,3,0,0,1,1.19,1,3.31,3.31,0,0,0,.77.81,1.22,1.22,0,0,0,.65.19H272s.06,0,0,.08,0,.07-.13.12a6.43,6.43,0,0,1-1,.36l-.61.18-.47.13c-.1,0-.15.07-.17.12s0,.07.15.12a1.39,1.39,0,0,0,.31.12l.24.08.29.1.24.08c.17.08.28.17.31.27a1.17,1.17,0,0,1,0,.52,8.49,8.49,0,0,1-.48,1.56c-.14.31-.11.5.1.58a2.7,2.7,0,0,0,.41.16l.31.1.33.15c.05,0,.07.06.07.09s0,.06-.12.08a2.15,2.15,0,0,1-.4.14l-.82.22a2.73,2.73,0,0,0-.65.26c-.17.11-.25.2-.24.26s0,0,.15,0h1.89c.15,0,.23,0,.24.07s-.28.2-.84.41c-.19.07-.44.14-.75.23a4.47,4.47,0,0,0-.52.16.08.08,0,0,0-.07.09.13.13,0,0,0,.05.12l.19.06.33.13.27.1a1,1,0,0,1,.24.14c.08.08.07.2,0,.34a.56.56,0,0,1-.09.14,20.66,20.66,0,0,1-4.49,4.76,10.34,10.34,0,0,1-4.46,2,7.59,7.59,0,0,1-4-.29,4,4,0,0,1-1.68-1.2,3.93,3.93,0,0,1-.75-3.12,6.87,6.87,0,0,1,.58-2,1.36,1.36,0,0,0,.14-.56c0-.08-.12-.16-.31-.24a1.57,1.57,0,0,0-.29-.12l-.38-.13-.19-.08c-.07,0-.09-.07-.08-.12s0-.07.13-.1a4,4,0,0,1,.47-.14,8.78,8.78,0,0,0,1.35-.48c.14-.07.21-.12.19-.17s0-.05-.1-.05h-2c-.13,0-.2,0-.2,0s.09-.11.32-.24a6.54,6.54,0,0,1,1.39-.48l.48-.14a.23.23,0,0,0,.12-.12.19.19,0,0,0-.05-.1l-.46-.16a5.07,5.07,0,0,1-.52-.24c-.12-.08-.12-.22,0-.41l.84-1c.52-.62.81-.95.86-1a.88.88,0,0,0,.23-.36q0-.12-.21-.24a1.32,1.32,0,0,0-.25-.13l-.27-.13c-.07,0-.1-.08-.1-.12s.06-.09.17-.12l.59-.14,1.07-.24.79-.18a5.07,5.07,0,0,0,.88-.24c.07,0,.1,0,.1-.07S260.75,134.92,260.68,134.92Zm-1.77,5.93h2c.1,0,.15,0,.17.05s-.06.08-.17.14a3.7,3.7,0,0,1-.7.29l-.44.13-.49.15-.27.08c-.09,0-.14.07-.14.12s0,.07.12.1l.11.06.2.07.24.08.25.1.18.07c.21.08.27.27.2.58a1.34,1.34,0,0,0,.23,1.27,1.44,1.44,0,0,0,.73.41,5.73,5.73,0,0,0,3.09-.1,5.2,5.2,0,0,0,1.9-1.1q.29-.27.6-.6c.17-.19.18-.34,0-.43a3.38,3.38,0,0,0-.38-.2l-.26-.09-.25-.1c-.06,0-.09-.07-.07-.12a.23.23,0,0,1,.12-.12l.58-.17A6,6,0,0,0,268,141c.06,0,.09-.07.07-.12l-.07-.05h-2.14c-.08,0-.09-.06,0-.14a1.94,1.94,0,0,1,.81-.41l.3-.08.39-.11.32-.1a.48.48,0,0,0,.17-.07.25.25,0,0,0,.12-.1.1.1,0,0,0-.07-.09l-.36-.15-.36-.12-.46-.16c-.16-.07-.23-.22-.22-.46a1.09,1.09,0,0,0-.38-1,1.63,1.63,0,0,0-.55-.29,5.16,5.16,0,0,0-2.57,0,5.3,5.3,0,0,0-2.26,1.08,2.14,2.14,0,0,0-.38.33c-.19.19-.21.34-.05.43l.43.2.44.19c.11.06.1.12,0,.17l-.45.1c-.29.08-.52.14-.7.21a3.52,3.52,0,0,0-1,.41c-.09.08-.13.13-.12.16S258.86,140.85,258.91,140.85Z"/><path class="cls-63" d="M289.77,134.92H292s0,0,0,.05a.14.14,0,0,1-.08.1,2.79,2.79,0,0,1-.5.19c-.16.05-.62.16-1.37.34l-.3.07-.3.07-.24.07a.16.16,0,0,0-.12.15s0,.06.07.09l.41.16a2.7,2.7,0,0,1,.48.23.31.31,0,0,1,.18.2.8.8,0,0,1-.13.37l-1,1.63a2,2,0,0,0-.12.22c-.13.22-.12.38,0,.46a4.68,4.68,0,0,0,.5.21l.48.17c.1,0,.14.08.12.14s-.06.09-.19.12a.69.69,0,0,1-.17,0l-.18.05-.18.05-.16,0-.77.21a.92.92,0,0,0-.55.34c-.07.08-.06.13,0,.14h2.11c.08,0,.12,0,.12.05s-.05.1-.14.17a3,3,0,0,1-.43.19l-.65.19-.84.24a.32.32,0,0,0-.15.1.12.12,0,0,0,.08.14l.19.07.27.1.3.12a.67.67,0,0,1,.24.12c.13.08.14.23,0,.46l-.35.62c-.15.27-.27.47-.35.6a35.22,35.22,0,0,0-1.94,4.22,2.43,2.43,0,0,1-.57.82,1,1,0,0,1-.78.33h-2a.52.52,0,0,1-.47-.22.85.85,0,0,1-.11-.59,1.73,1.73,0,0,1,.15-.55l.81-1.9c.37-.8.92-1.86,1.66-3.19a1,1,0,0,0,.18-.46c0-.08-.09-.16-.25-.24l-.6-.24-.32-.14a.1.1,0,0,1,0-.12,1,1,0,0,1,.41-.24l.6-.19.31-.12c.06,0,.1-.07.1-.1s-.06-.1-.17-.07l-.48.12-1.08.36-.53.17a.17.17,0,0,0-.14.17s0,.08.12.14a1.15,1.15,0,0,0,.24.14l.15.09.13.08c.08.07.12.11.1.15a1.33,1.33,0,0,1-.22.19l-.28.19-.93.6-1.07.7c-.32.2-.62.4-.91.57a1.32,1.32,0,0,1-.84.29.5.5,0,0,1-.5-.31c0-.1-.15-.35-.35-.77s-.34-.74-.42-1a1.13,1.13,0,0,0-.72-.67l-.53-.15-.45-.14-.44-.12s-.06-.06,0-.1,0-.08.14-.12l.6-.19.67-.24h0c.12-.05.18-.1.16-.17s-.07,0-.16,0a.81.81,0,0,0-.24.06l-.22.06-1.32.41a1.33,1.33,0,0,0-.41.17c-.08.06-.09.12,0,.16a.26.26,0,0,0,.17.1,1.24,1.24,0,0,0,.3.12l.34.12c.2.08.3.16.32.25a1.32,1.32,0,0,1-.22.57,39.53,39.53,0,0,0-2,4c0,.11-.12.29-.21.54a5.54,5.54,0,0,1-.24.54,4,4,0,0,1-.34.67,1.19,1.19,0,0,1-1,.62c-1.05,0-1.77,0-2.13,0A.5.5,0,0,1,270,149a1.22,1.22,0,0,1,.06-.87,35.18,35.18,0,0,1,2.28-4.75,2,2,0,0,1,.13-.26l.16-.29a1.09,1.09,0,0,0,.14-.37c0-.08-.06-.14-.19-.21l-.6-.24-.34-.14a.07.07,0,0,1,0-.1.11.11,0,0,1,.09-.09l1.18-.41a4.89,4.89,0,0,0,.77-.29c.09,0,.14-.06.14-.1s-.05-.07-.14-.07h-.2l-1.6,0h-.34c-.1,0-.11-.05,0-.15a.3.3,0,0,1,.1-.09,8,8,0,0,1,1.37-.46c.32-.08.55-.14.69-.19s.15-.06.16-.1,0-.07-.11-.12l-.44-.15a4.61,4.61,0,0,1-.54-.23c-.12-.05-.17-.11-.17-.18a.9.9,0,0,1,.14-.35c.1-.19.25-.47.47-.84l.49-.84a1.15,1.15,0,0,0,.21-.5c0-.1-.1-.19-.28-.27a2,2,0,0,1-.36-.14l-.14-.05-.2-.07c-.12-.06-.17-.13-.14-.19s.1-.1.26-.15l.41-.1.29-.06q1-.24,1.32-.36a4.16,4.16,0,0,0,.6-.24s0-.06,0-.06a1.9,1.9,0,0,0-.35,0h-1.92a.39.39,0,0,1-.36-.16,1.1,1.1,0,0,1,.15-1.11,1.82,1.82,0,0,1,1.25-1,.47.47,0,0,1,.52.27c.05.08.11.18.17.3l.19.33c.07.11.12.21.17.3a3.46,3.46,0,0,0,.42.66,1.23,1.23,0,0,0,.54.33,2.07,2.07,0,0,0,.46,0H279c.11,0,.17,0,.17.08s-.08.12-.2.19a4,4,0,0,1-.57.21l-.45.14-.48.13c-.18.06-.28.11-.29.14s0,.19.19.24l.26.09.3.08.26.07.52.17a.85.85,0,0,1,.53.55c.05.13.17.4.35.81s.32.73.4,1a.84.84,0,0,0,.28.38,1.11,1.11,0,0,0,.35.19,2.47,2.47,0,0,0,.47.1.18.18,0,0,0,.1-.12c0-.1,0-.19.14-.29l.43-.29.91-.56,1-.64.91-.57.41-.29c.14-.11.16-.22.07-.34l-.19-.12-.06,0-.08,0-.06,0a.13.13,0,0,1-.07-.14c0-.06.05-.11.15-.14a3.42,3.42,0,0,1,.45-.1l1.71-.34c.6-.12,1.1-.24,1.48-.33.1,0,.15-.07.15-.1s0-.05-.1-.05H286.6a1.9,1.9,0,0,1-.38,0c-.11,0-.13-.07-.05-.22a3.65,3.65,0,0,1,.3-.34,3.28,3.28,0,0,1,.37-.33c.07,0,.61-.4,1.64-1.1a1.15,1.15,0,0,1,.69-.22.43.43,0,0,1,.37.27.86.86,0,0,1,0,.6,3.3,3.3,0,0,1-.15.4,1,1,0,0,0-.05.66A.42.42,0,0,0,289.77,134.92Z"/><path class="cls-64" d="M300,132.64h10.37a.47.47,0,0,1,.4.29,1,1,0,0,1,0,.67s-.08.18-.19.44a1.13,1.13,0,0,0,0,.51.87.87,0,0,0,.08.3c0,.05.11.07.24.07h2.3s.05,0,.05,0,0,.07-.09.12a3.67,3.67,0,0,1-.51.17l-.63.14-.74.17-.72.21q-.14,0-.15.09s0,.07.08.11l.48.21a3.7,3.7,0,0,1,.51.24c.11.1.09.23,0,.39a2,2,0,0,1-1.11.69h-3.09a.42.42,0,0,0-.18,0,.23.23,0,0,0-.1.07,2.33,2.33,0,0,0-.13.21c-.38.64-.61,1-.67,1.11-.15.27-.14.45,0,.55l.65.26.31.12c.07,0,.09.08.09.12s-.06.09-.16.12l-.38.12a9,9,0,0,0-.89.24,2.85,2.85,0,0,0-.51.2c-.12.08-.19.14-.19.19s0,0,.12,0h2c.07,0,.1,0,.1.07s0,.07-.1.1a4.3,4.3,0,0,1-1,.33c-.59.17-.9.25-.93.27s-.13,0-.15.1,0,.08.1.12l.28.1.25.09.5.21c.15.08.15.24,0,.48s-.17.35-.36.71l-.46.83a27.61,27.61,0,0,0-1.66,4,1.91,1.91,0,0,1-.33.65,1.08,1.08,0,0,1-.87.55q-1.6,0-2.16,0a.55.55,0,0,1-.54-.34,1.25,1.25,0,0,1,0-.84,17.8,17.8,0,0,1,1.06-2.71c.22-.46.68-1.36,1.37-2.69a.89.89,0,0,0,.15-.43c0-.08-.08-.15-.23-.21a2.76,2.76,0,0,0-.39-.16l-.37-.13c-.2-.08-.29-.14-.29-.17s.09-.12.26-.17q1.6-.48,1.83-.57s.07-.07.07-.1,0,0-.06,0l-.21,0h-1.89l-.07,0a.13.13,0,0,1,.07-.1,4.87,4.87,0,0,1,.53-.21,6.48,6.48,0,0,1,.88-.29l.51-.15c.09,0,.15-.07.15-.12s0-.08-.08-.12l-.22-.07s-.05,0-.16-.08l-.27-.09-.31-.14a.24.24,0,0,1-.14-.2.89.89,0,0,1,.12-.35s.22-.35.62-1.06a1.89,1.89,0,0,0,.12-.21c.05-.08,0-.13,0-.15h-3.2q-.45,0-.36-.6c.05-.29,0-.47-.21-.55l-.23-.1-.25-.09-.22-.1-.2-.12a.11.11,0,0,1,0-.12,1,1,0,0,1,.36-.14c.93-.21,1.41-.32,1.44-.34.26-.06.58-.16,1-.29.07,0,.09-.06.07-.09s0,0-.07,0h-2.21c-.2,0-.32,0-.33-.12a1.14,1.14,0,0,1,0-.81,2.72,2.72,0,0,1,.69-1A1.29,1.29,0,0,1,300,132.64Z"/><path class="cls-65" d="M316.75,138.6h4.53a.41.41,0,0,0,.36-.27l.42-.73c.19-.31.3-.51.35-.59a1,1,0,0,0,.16-.42c0-.07-.08-.15-.21-.23l-.31-.12-.2-.08-.28-.11c-.13-.05-.19-.09-.19-.14s.1-.14.24-.17l.25-.05.42-.11.47-.12.4-.08,1-.31c.1,0,.15-.07.15-.1s-.05-.05-.15-.05h-2.35a.31.31,0,0,1-.32-.19.66.66,0,0,1,0-.5,2.59,2.59,0,0,1,1.08-1.42,1,1,0,0,1,.53-.17h2.11a.44.44,0,0,1,.45.25,1.1,1.1,0,0,1,0,.83l-.09.18a1.19,1.19,0,0,0-.08.21,1.83,1.83,0,0,0-.07.45c0,.26.1.38.31.36h2.18c.23,0,.34,0,.34.08s-.11.08-.39.16-.64.17-1.46.36a1.51,1.51,0,0,1-.35.1l-.27.07-.34.07a.32.32,0,0,0-.17.15c0,.05,0,.09.1.12l.31.12a1.47,1.47,0,0,0,.29.09l.38.2c.13.09.14.24,0,.43l-.7,1.22a2.55,2.55,0,0,0-.2.34l-.21.38a.61.61,0,0,0-.13.33.25.25,0,0,0,.16.18,1.68,1.68,0,0,0,.33.16l.16.05.17.05.15,0a1,1,0,0,0,.22.09s0,.05,0,.1a.11.11,0,0,1-.08.1L326,140a7.09,7.09,0,0,0-1.63.6l-.18.11s-.07.07-.06.1.07,0,.17,0h1.85c.16,0,.24,0,.24.07s-.08.11-.29.17l-.84.24-.24.09-.28.07-.25.06c-.14,0-.22.09-.24.14s.06.07.17.12l.23.08a.62.62,0,0,0,.18.07,5.39,5.39,0,0,1,.53.21c.11.07.17.13.18.21a.9.9,0,0,1-.14.37c-.6,1.17-.95,1.82-1,2a27.68,27.68,0,0,0-1.41,3.45,4.11,4.11,0,0,1-.22.51,1.2,1.2,0,0,1-1,.71q-1.28,0-2.13,0A.54.54,0,0,1,319,149a1.47,1.47,0,0,1,.05-1,25.77,25.77,0,0,1,1.47-3.5c.12-.26.28-.57.48-.94,0-.11,0-.17-.05-.17h-4.63c-.1,0-.19.07-.27.2a32.05,32.05,0,0,0-1.77,4,1.67,1.67,0,0,0-.06.2c0,.08-.05.15-.08.22a1.31,1.31,0,0,1-.08.21,2,2,0,0,1-.31.58,1.47,1.47,0,0,1-.43.4.94.94,0,0,1-.51.14c-.61,0-1.27,0-2,0a.62.62,0,0,1-.64-.38,1.5,1.5,0,0,1,.06-1,32.63,32.63,0,0,1,2-4.56l.11-.19.11-.18a1.72,1.72,0,0,0,.09-.19l.1-.2q.19-.36,0-.48L312,142l-.19-.09-.22-.08a.09.09,0,0,1-.07-.09s0-.07.12-.1a4.52,4.52,0,0,1,.82-.27l1-.33c.07,0,.09-.07.07-.1s0,0-.07,0a.45.45,0,0,0-.21,0h-1.8a.4.4,0,0,1-.15,0s0-.09.15-.17a2.9,2.9,0,0,1,.48-.27c.3-.11.53-.19.69-.23l.45-.11.32-.09c.14,0,.22-.09.24-.14s-.05-.1-.14-.14l-.2-.05-.21-.07-.22-.08a.87.87,0,0,1-.21-.09c-.18-.08-.27-.16-.28-.24a1.34,1.34,0,0,1,.2-.53l1-1.66a.8.8,0,0,0,.13-.37.31.31,0,0,0-.18-.2l-.65-.27-.33-.14c-.07,0-.05-.1,0-.14l1.64-.44c.2-.05.54-.14,1-.28a.54.54,0,0,0,.22-.12s0-.06-.17-.08H313c-.29,0-.39-.2-.31-.6a2.21,2.21,0,0,1,.62-1.12,1.53,1.53,0,0,1,1-.56h2.18a.43.43,0,0,1,.45.3,1.09,1.09,0,0,1-.06.74l-.09.21a.85.85,0,0,0-.06.17,1.22,1.22,0,0,0-.12.55c0,.23.14.33.32.31h2.28l.24.05s0,0,0,.05a.23.23,0,0,1-.09.06l-.17.06-1.61.41-.38.11-.53.13c-.11,0-.18.06-.19.09s0,.08,0,.1a.41.41,0,0,0,.15.05l.36.14.53.22a.31.31,0,0,1,.18.2.7.7,0,0,1-.13.37l-.2.33c-.08.12-.15.24-.22.37l-.18.34q-.07.12-.24.45C316.65,138.55,316.67,138.6,316.75,138.6Z"/><path class="cls-66" d="M341.76,135c0,.05-.07.1-.2.15s-.31.12-.6.21l-1.27.34a8.85,8.85,0,0,0-.86.21q-.15.06-.15.12s0,.07.08.1l.24.1.14,0,.16.06.13.06.31.12c.24.12.26.27.05.46a1.53,1.53,0,0,1-1,.34h-6.31a.35.35,0,0,0-.31.21c-.08.13-.19.31-.32.54s-.23.4-.28.49-.07.14-.06.16a.09.09,0,0,0,.08,0h6.34a.35.35,0,0,1,.38.37.51.51,0,0,0,.34.47l.77.28.05,0c.14,0,.21.1.21.17s-.12.1-.36.16l-.48.15-.65.19a4,4,0,0,0-.48.19q-.09,0-.09.09s0,0,.05,0h1.94c.06,0,.1,0,.1.05s0,.06-.12.07l-.56.19-.52.17a2.33,2.33,0,0,0-.36.15q-.15,0-.15.12s0,.09.1.14l.29.14.48.24c.19.12.17.29-.05.53a1.68,1.68,0,0,1-1.18.63h-6.29c-.06,0-.12.05-.19.16-.16.31-.35.69-.57,1.16-.05.09,0,.14,0,.14h6.22a.54.54,0,0,1,.54.34,1.22,1.22,0,0,1-.11.84l-.45,1.08c-.13.35-.27.74-.41,1.17-.27.82-.72,1.22-1.35,1.22H325.8a.56.56,0,0,1-.6-.37,1.44,1.44,0,0,1,0-.94,23,23,0,0,1,1.22-3l1.13-2.21.05-.06a.25.25,0,0,0,0-.09.15.15,0,0,1,0-.07c.15-.27.15-.44,0-.5l-.45-.24-.39-.19q-.12-.06-.12-.12s.08-.08.19-.15l.39-.13.68-.22a3.58,3.58,0,0,0,.4-.13l.05-.05s0,0,0,0l-.07,0h-1.87q-.12,0-.12,0s.05-.06.16-.11a12.49,12.49,0,0,1,1.3-.41l.46-.17a.23.23,0,0,0,.12-.12s0-.06-.1-.09a.67.67,0,0,0-.19-.1l-.27-.1-.31-.12a.43.43,0,0,1-.24-.14.28.28,0,0,1,0-.34c.06-.09.13-.2.19-.31s.25-.45.47-.81.38-.66.49-.87l.14-.24q.12-.24,0-.33a1.19,1.19,0,0,0-.26-.15s-.2-.09-.55-.21l-.29-.12a.11.11,0,0,1-.05-.1s0-.06.1-.07l.62-.19,1.23-.34a4.42,4.42,0,0,0,1-.34c.05,0,.07,0,.07,0s0-.08-.05-.08h-2.18c-.26,0-.42-.08-.48-.26a.67.67,0,0,1,0-.46,3.57,3.57,0,0,1,.55-1,1.57,1.57,0,0,1,1.13-.62h9.15l.28,0a.46.46,0,0,1,.42.33,1,1,0,0,1-.06.73s0,.07,0,.11l-.06.12a.17.17,0,0,0,0,.11.82.82,0,0,0-.08.56.36.36,0,0,0,.3.3,1.07,1.07,0,0,0,.31,0h2C341.72,134.92,341.76,134.94,341.76,135Z"/><path class="cls-67" d="M354.16,149.39h-6.88a.53.53,0,0,1-.58-.34,1.26,1.26,0,0,1,0-.9,20.92,20.92,0,0,1,1.06-2.67c.24-.49.69-1.39,1.36-2.68l.15-.3a.65.65,0,0,0,0-.16.16.16,0,0,0,0-.14.38.38,0,0,0-.17-.1l-.43-.22a2.89,2.89,0,0,0-.36-.16.21.21,0,0,1-.05-.12.29.29,0,0,1,.14-.12c.12,0,.29-.12.53-.2l.4-.13.47-.14c.12,0,.18-.08.16-.11s0-.05-.16-.05h-1.68c-.13,0-.2,0-.22,0s.08-.1.29-.16l.86-.27.15-.05.15,0,.15,0,.15-.05c.15,0,.23-.09.24-.14s0-.14-.14-.19l-.27-.11-.24-.08-.33-.15c-.1-.06-.15-.13-.15-.2a.83.83,0,0,1,.12-.33c.34-.59.7-1.2,1.08-1.82.07-.14.11-.24.14-.28a.91.91,0,0,0,.06-.16.18.18,0,0,0-.05-.18.51.51,0,0,0-.22-.12,3.31,3.31,0,0,0-.48-.2l-.14,0-.17-.08c-.1,0-.14-.08-.12-.14s.08-.09.19-.12l.91-.24a15.05,15.05,0,0,0,1.73-.48c.16-.06.24-.12.24-.17s-.06-.05-.19-.05H349.8a.54.54,0,0,1-.32-.07c-.22-.17-.24-.48,0-.91a2.37,2.37,0,0,1,.84-1.06,1.05,1.05,0,0,1,.62-.26h6.74a4.19,4.19,0,0,1,1.8.36,1.94,1.94,0,0,1,1.11,1.2,1.12,1.12,0,0,0,.55.67.88.88,0,0,0,.43.07h2.1a.05.05,0,0,1,.06.06.13.13,0,0,1-.05.11.65.65,0,0,1-.26.15c-.22.08-.79.24-1.7.48l-.53.14q-.12,0-.12.12c0,.05,0,.08.05.1l.33.14.67.24c.15.06.22.14.23.23a.81.81,0,0,1-.15.42,11.43,11.43,0,0,1-1.23,1.85.83.83,0,0,0-.24.42c0,.08.07.17.22.25l.15.07.2.08.16.09.11,0c.11.06.1.12,0,.19l-.25.07-.51.12-.48.12c-.6.16-1,.27-1.16.34,0,0,0,0,0,0s0,0,0,0H361c.06,0,.1,0,.1.05s-.05.1-.15.14a5,5,0,0,1-.5.24l-.34.15c-.13.08-.14.16,0,.24a.65.65,0,0,0,.17.09,10.57,10.57,0,0,1,1.11.44c.16.09.2.26.12.5a10.35,10.35,0,0,1-.34,1,14,14,0,0,1-1.2,2.31,6.93,6.93,0,0,1-3.82,3.09A6.65,6.65,0,0,1,354.16,149.39Zm-2-4.6h3.65a1.21,1.21,0,0,0,.78-.24,2.14,2.14,0,0,0,.56-.84l0,0c.13-.3.1-.49-.07-.57a1.89,1.89,0,0,0-.46-.05c-.24,0-1,0-2.28,0h-1.32c-.11,0-.21.08-.29.24l-.21.42-.24.45-.21.4a1,1,0,0,0-.08.2S352.08,144.79,352.17,144.79Zm1-5.91c1.94,0,3.08,0,3.41,0a1.17,1.17,0,0,0,.67-.24,2.09,2.09,0,0,0,.53-.72c.19-.37.16-.58-.09-.65a3.76,3.76,0,0,0-.46,0H354c-.09,0-.17.05-.24.19s-.22.36-.38.64l-.36.63a.37.37,0,0,0-.07.16s0,0,.09,0Z"/><path class="cls-68" d="M378.07,135c0,.05-.07.1-.19.15l-.6.21-1.28.34c-.44.09-.73.17-.86.21s-.14.08-.14.12,0,.07.07.1l.24.1.14,0,.16.06.13.06.31.12c.24.12.26.27.05.46a1.5,1.5,0,0,1-1,.34H368.8a.36.36,0,0,0-.31.21c-.08.13-.19.31-.32.54s-.23.4-.28.49-.07.14-.06.16a.1.1,0,0,0,.09,0h6.33a.37.37,0,0,1,.39.37.49.49,0,0,0,.33.47l.77.28.05,0c.14,0,.21.1.21.17s-.12.1-.36.16l-.48.15-.64.19a3,3,0,0,0-.48.19c-.07,0-.1.06-.1.09s0,0,.05,0h1.94c.07,0,.1,0,.1.05s0,.06-.12.07l-.55.19-.53.17a2.33,2.33,0,0,0-.36.15q-.15,0-.15.12s0,.09.1.14l.29.14.48.24c.19.12.17.29-.05.53a1.68,1.68,0,0,1-1.18.63h-6.28c-.07,0-.13.05-.2.16-.16.31-.35.69-.57,1.16-.05.09,0,.14,0,.14h6.21a.54.54,0,0,1,.54.34,1.22,1.22,0,0,1-.11.84c-.28.7-.44,1.06-.45,1.08-.13.35-.27.74-.41,1.17-.27.82-.72,1.22-1.34,1.22h-9.29a.56.56,0,0,1-.6-.37,1.44,1.44,0,0,1,0-.94,23,23,0,0,1,1.23-3c.06-.13.44-.87,1.12-2.21l.05-.06a.25.25,0,0,0,0-.09l0-.07c.15-.27.15-.44,0-.5l-.45-.24-.39-.19q-.12-.06-.12-.12s.08-.08.2-.15l.38-.13.68-.22a2.9,2.9,0,0,0,.4-.13s0,0,.05-.05,0,0,0,0l-.07,0h-1.87q-.12,0-.12,0s.05-.06.17-.11a11.33,11.33,0,0,1,1.29-.41l.46-.17a.23.23,0,0,0,.12-.12s0-.06-.1-.09a.67.67,0,0,0-.19-.1l-.26-.1-.32-.12a.52.52,0,0,1-.24-.14c-.08-.08-.08-.19,0-.34s.13-.2.19-.31.25-.45.47-.81.38-.66.49-.87l.15-.24q.12-.24,0-.33a1.63,1.63,0,0,0-.27-.15,5,5,0,0,0-.55-.21l-.29-.12a.11.11,0,0,1-.05-.1s0-.06.1-.07l.62-.19,1.23-.34a4.22,4.22,0,0,0,1-.34c.05,0,.07,0,.07,0s0-.08-.05-.08h-2.18c-.26,0-.42-.08-.48-.26a.67.67,0,0,1,0-.46,3.33,3.33,0,0,1,.56-1,1.54,1.54,0,0,1,1.12-.62H375l.29,0a.48.48,0,0,1,.42.33,1.06,1.06,0,0,1-.06.73.37.37,0,0,0-.05.11l-.06.12a.17.17,0,0,0,0,.11.88.88,0,0,0-.08.56.36.36,0,0,0,.3.3,1.11,1.11,0,0,0,.31,0h2C378,134.92,378.07,134.94,378.07,135Z"/><path class="cls-69" d="M388.63,140h3a0,0,0,0,1,.05,0s0,.06-.08.07l-.4.17-.39.19a2.07,2.07,0,0,0-.24.2q-.17.21,0,.21h2l.09,0s.05,0,.07,0a.11.11,0,0,1,0,.1l-.26.12-.77.21a8.88,8.88,0,0,0-.89.27l-.12.07c0,.05,0,.09.08.12l.21.09.13.05.15,0,.13.05.14.05.12,0c.18.08.27.17.28.26a1.13,1.13,0,0,1-.23.51q-3.36,5.31-7.92,6.55a7.9,7.9,0,0,1-1.89.27,6.75,6.75,0,0,1-3.39-.65,3.91,3.91,0,0,1-1.77-1.78,5.16,5.16,0,0,1,.12-4.17.64.64,0,0,1,.06-.16s0-.11.06-.15,0-.1,0-.15c.1-.22.08-.37,0-.43a1.11,1.11,0,0,0-.27-.12l-.86-.34c-.1,0-.08-.1,0-.16l1.22-.39c.34-.09.56-.17.67-.21s.12-.08.12-.1,0-.05-.12-.05h-2.06q-.07,0-.09,0s0-.06.06-.11a3.8,3.8,0,0,1,.51-.22c.51-.19,1.05-.37,1.61-.53.16,0,.24-.07.26-.12s0-.11-.14-.14l-.23-.08-.23-.06a3.27,3.27,0,0,0-.41-.17c-.17-.07-.26-.15-.26-.24a1,1,0,0,1,.26-.46c.13-.16.59-.69,1.37-1.58a1.16,1.16,0,0,0,.13-.15l.11-.12c.13-.14.19-.24.19-.31s-.05-.13-.17-.19l-.45-.22A.53.53,0,0,1,378,136a.08.08,0,0,1-.05-.08s0-.07.1-.08l.55-.15c1.19-.24,1.84-.37,2-.41l.82-.21c.14-.07.2-.11.19-.12s0,0-.1,0h-2.28c-.19,0-.29,0-.31,0s.05-.2.29-.41a3.32,3.32,0,0,1,.53-.41,11.5,11.5,0,0,1,2.76-1.3,8.52,8.52,0,0,1,5.13-.12,3.86,3.86,0,0,1,2,1.47,3.12,3.12,0,0,0,.55.67.72.72,0,0,0,.46.14h2.11l.34,0s.07,0,.07,0,0,.07-.1.12a5.48,5.48,0,0,1-.53.22l-.88.24-.32.08-.4.11q-.22.07-.24.12c0,.06,0,.13.16.19l.17.06.12.06.39.12.19.12c.13.11.11.24-.05.39a5.47,5.47,0,0,1-1.13.67c-1.07.49-1.76.81-2.06.93l-.39.17a.43.43,0,0,1-.57-.24,1.38,1.38,0,0,0-.87-.79,5.33,5.33,0,0,0-2.18-.17,5.45,5.45,0,0,0-2,.58,5.75,5.75,0,0,0-1.15.79,1.23,1.23,0,0,0-.2.19c-.17.18-.19.31,0,.41a2.53,2.53,0,0,0,.43.19l.11,0,.09,0,.1.05.11,0q.12,0,.09.12c0,.05-.05.09-.17.12l-.2.06-.24.06-.2.05a6.16,6.16,0,0,0-1.28.45l-.2.14-.11.08a0,0,0,0,0,0,.05s.06,0,.17,0h1.8a.54.54,0,0,1,.22,0s.07,0,.07,0a.54.54,0,0,1-.15.12,1.72,1.72,0,0,1-.33.14l-.91.24-.51.17c-.11,0-.17.07-.18.11s0,.08.13.13a.17.17,0,0,1,.1,0l.1,0,.1,0,.11,0,.63.24c.17.08.23.25.16.52a1.38,1.38,0,0,0,.36,1.52,2.14,2.14,0,0,0,1,.4,6.93,6.93,0,0,0,2.83-.19,5,5,0,0,0,1.17-.5c.07,0,.1-.09.1-.12s0,0-.1,0h-1.8a1.28,1.28,0,0,1-.31,0c-.35-.08-.43-.38-.24-.89a3.21,3.21,0,0,1,.12-.31.28.28,0,0,0,0-.34l-.19-.12-.46-.16-.14-.05-.17,0c-.11-.05-.17-.1-.18-.17s.06-.11.2-.14,0,0,.05,0l.31-.07a1.41,1.41,0,0,0,.34-.1q.36-.09.72-.21a1.26,1.26,0,0,0,.38-.17c.07,0,.1-.06.1-.08s0,0-.1,0H383s0,0,0,0a.05.05,0,0,1,0-.06,3.14,3.14,0,0,1,.6-.32,7.53,7.53,0,0,1,.87-.26,8.79,8.79,0,0,1,2.28-.22Z"/><path class="cls-70" d="M398.73,134.92h2.43l.06,0a0,0,0,0,1,0,.05l-.08,0c-.12.05-.4.14-.87.27l-1.27.31-.6.17a.23.23,0,0,0-.12.12c0,.05,0,.08.07.09a.65.65,0,0,0,.22.1l.17.07.57.24c.18.08.19.26,0,.53l-1,1.73a1,1,0,0,0-.2.47c0,.08.09.17.25.25l.4.13.37.13c.16.07.24.12.24.17s-.13.12-.34.17c-.46.13-.77.21-.91.26a3,3,0,0,0-.89.39c-.13.09-.18.16-.17.19s.05,0,.15,0h2s.06,0,.06.06,0,.07-.12.1a3.89,3.89,0,0,1-.41.17,5.86,5.86,0,0,1-.62.16l-.53.15a1.12,1.12,0,0,0-.31.1c-.1,0-.1.1,0,.16a.34.34,0,0,0,.16.1l.16,0a.64.64,0,0,1,.18.06l.17.06a1.15,1.15,0,0,1,.31.14c.13.07.2.13.2.21a.79.79,0,0,1-.15.39c-.63,1.2-1,1.91-1.11,2.14a29.61,29.61,0,0,0-1.32,3.24,3,3,0,0,1-.26.57,1.13,1.13,0,0,1-.94.67c-.86,0-1.59,0-2.18,0A.55.55,0,0,1,392,149a1.4,1.4,0,0,1,0-.92,24.45,24.45,0,0,1,1.34-3.29c.06-.1.4-.75,1-1.95a.45.45,0,0,0,.07-.09.28.28,0,0,0,.05-.12q.14-.28,0-.39a2.25,2.25,0,0,0-.33-.19l-.29-.11-.26-.08a.77.77,0,0,1-.2-.07c-.09-.07-.08-.13.05-.19a1.66,1.66,0,0,1,.31-.12,10.74,10.74,0,0,0,1.56-.51c.07,0,.1,0,.1-.07s0-.05-.05-.05h-2c-.15,0-.22,0-.22,0a2.21,2.21,0,0,1,.31-.24,7.33,7.33,0,0,1,1.35-.48l.55-.14a.26.26,0,0,0,.17-.12.09.09,0,0,0,0-.06s-.05,0-.12-.06l-.79-.29a.57.57,0,0,1-.24-.14c-.1-.08-.1-.2,0-.36s.06-.12.14-.27l1-1.65a1,1,0,0,0,.16-.4.31.31,0,0,0-.18-.2,3.69,3.69,0,0,0-.41-.17l-.36-.14c-.16-.07-.24-.13-.23-.19s.12-.11.32-.17l.65-.15.75-.17c.36-.09.72-.2,1.08-.31.09,0,.14-.07.14-.12s0,0-.1,0a4.8,4.8,0,0,0-.55,0h-1.85a.31.31,0,0,1-.3-.18.71.71,0,0,1,0-.46,2.92,2.92,0,0,1,.73-1.19,1.32,1.32,0,0,1,.9-.45h2.26a.54.54,0,0,1,.18.1.43.43,0,0,1,.13.17.7.7,0,0,1,.06.23.64.64,0,0,1,0,.27,3.63,3.63,0,0,1-.2.58,1.24,1.24,0,0,0-.14.65C398.44,134.84,398.54,134.94,398.73,134.92Z"/><path class="cls-71" d="M412.39,134.92h-2a.41.41,0,0,1-.42-.32,1,1,0,0,1,.11-.71,2.34,2.34,0,0,1,.66-.9,1.32,1.32,0,0,1,.85-.35h1.7a.55.55,0,0,1,.58.32,1.32,1.32,0,0,1-.12.91.91.91,0,0,0-.08.86.47.47,0,0,0,.39.19h2.23c.06,0,.1,0,.1.05s0,.07-.12.1l-.82.26c-.21.07-.76.2-1.65.41l-.25.07a.27.27,0,0,0-.09.1.09.09,0,0,0,.05.12,3,3,0,0,0,.44.2,2.28,2.28,0,0,1,.56.28q.12.12,0,.36a1,1,0,0,1-.16.29,5,5,0,0,1-.29.52l-.35.59c-.1.19-.2.36-.3.52a1,1,0,0,0-.14.37c0,.07,0,.13.17.18l.67.26.36.17s0,0,0,.07,0,.07-.08.1l-.38.12a11,11,0,0,0-1.37.41c-.32.14-.47.25-.43.33s.05,0,.16,0h1.9c.13,0,.2,0,.21.07s-.08.13-.21.2a3.16,3.16,0,0,1-.55.21l-.35.1-.37.09-.34.1a1.07,1.07,0,0,0-.41.14.1.1,0,0,0,.05.12.67.67,0,0,0,.19.1s0,0,0,0l.24.09.31.11.2.07c.12.08.19.15.2.23a1,1,0,0,1-.16.42c-.72,1.28-1.25,2.3-1.61,3.07l-.41,1-.42.92a3.65,3.65,0,0,1-.37.65,1.42,1.42,0,0,1-.81.57.58.58,0,0,1-.65-.3,35.12,35.12,0,0,1-1.92-3.75c-.33-.8-.62-1.51-.84-2.13a.88.88,0,0,0-.62-.63c-.13,0-.33-.11-.59-.18l-.59-.15a1.41,1.41,0,0,1-.21-.1s0-.05,0-.11a.15.15,0,0,1,.08-.11l.31-.14a2.09,2.09,0,0,0,.35-.11l.4-.13s0,0,.07,0a.33.33,0,0,1,.13-.06.09.09,0,0,0,.06,0,.09.09,0,0,0,0-.07c0-.07-.1-.07-.24,0a5.24,5.24,0,0,0-.58.17q-1,.28-1.2.36c-.26.1-.38.17-.38.22a.12.12,0,0,0,0,.14.38.38,0,0,0,.18.07s0,0,0,0l.29.09.34.12.19.1a.35.35,0,0,1,0,.41l-.19.36a40.62,40.62,0,0,0-2,4c-.12.29-.27.65-.43,1.08a2.62,2.62,0,0,1-.38.67,1.25,1.25,0,0,1-.91.55h-1.9A.52.52,0,0,1,398,149a1.28,1.28,0,0,1,.06-.89,35.23,35.23,0,0,1,2.28-4.76,1.75,1.75,0,0,1,.14-.27,2.67,2.67,0,0,0,.17-.32c.13-.23.12-.39,0-.48l-.18-.08-.28-.1-.29-.12-.19-.09q-.17,0-.15-.12c0-.05.09-.09.25-.14l.76-.27a5.92,5.92,0,0,0,1.06-.36q.12,0,.12-.12s0-.07-.1-.07h-2c-.08,0-.12,0-.12-.07s.2-.18.61-.36c.11,0,.55-.18,1.34-.41.19-.06.29-.13.31-.19s-.07-.08-.22-.14l-.39-.15a2.05,2.05,0,0,1-.42-.17c-.13-.06-.19-.13-.19-.21a.91.91,0,0,1,.14-.39,3.89,3.89,0,0,0,.25-.42l.24-.4c.07-.12.16-.26.24-.41l.23-.4a1.15,1.15,0,0,0,.21-.5c0-.1-.11-.19-.28-.27l-.62-.24a2.06,2.06,0,0,0-.22-.09.15.15,0,0,1,0-.11.19.19,0,0,1,.11-.11l.31-.07,1.39-.34a5.65,5.65,0,0,0,1.06-.33c.06,0,.09-.07.07-.1s0,0-.07,0-.82,0-2.18,0a.45.45,0,0,1-.48-.4.77.77,0,0,1,.09-.58,2.2,2.2,0,0,1,.57-.7,1.25,1.25,0,0,1,.68-.33.49.49,0,0,1,.55.26q.08.12.21.39a3.9,3.9,0,0,0,.2.38,1.88,1.88,0,0,0,.72.82,1.33,1.33,0,0,0,.67.16h2c.21,0,.32.05.32.1s-.14.16-.37.24l-1.08.34-.47.16c-.1,0-.15.08-.16.12s0,.09.08.12a2,2,0,0,0,.39.12q.45.15.84.24a1.25,1.25,0,0,1,.84.82l.3.77c.13.35.24.62.32.81a.86.86,0,0,0,.53.58l.53.14a2.7,2.7,0,0,0,.48.12l.52.17a.12.12,0,0,1,.08.15.43.43,0,0,1-.17.14l-.55.19-.23.09a.63.63,0,0,1-.23,0c-.18.07-.26.13-.25.19s.05.07.13.06.31-.08.84-.25l1.06-.31c.22-.08.35-.15.38-.21a.17.17,0,0,0-.05-.12.3.3,0,0,0-.17-.07l-.17-.08-.27-.1-.23-.09q-.25-.12-.27-.24a1.17,1.17,0,0,1,.2-.5q.64-1.11.84-1.47a3.3,3.3,0,0,0,.19-.31c.08-.19.08-.33,0-.41l-.91-.4q-.17-.08-.15-.15c0-.05.08-.09.24-.14l.72-.19,1.59-.41c.24-.07.36-.13.36-.19S412.56,134.92,412.39,134.92Z"/><path class="cls-72" d="M427.22,134.92h-2a.42.42,0,0,1-.42-.32,1,1,0,0,1,.11-.71,2.34,2.34,0,0,1,.66-.9,1.34,1.34,0,0,1,.85-.35h1.7a.55.55,0,0,1,.58.32,1.32,1.32,0,0,1-.12.91c-.18.38-.2.67-.07.86a.44.44,0,0,0,.38.19h2.23c.07,0,.1,0,.1.05s0,.07-.12.1l-.82.26c-.2.07-.76.2-1.65.41l-.24.07a.31.31,0,0,0-.1.1.1.1,0,0,0,.05.12,3,3,0,0,0,.44.2,2.42,2.42,0,0,1,.57.28q.12.12,0,.36a1.07,1.07,0,0,1-.17.29,3.67,3.67,0,0,1-.29.52l-.35.59c-.1.19-.2.36-.3.52a1,1,0,0,0-.14.37c0,.07.06.13.17.18l.67.26.36.17a.08.08,0,0,1,0,.07.17.17,0,0,1-.09.1l-.38.12a11,11,0,0,0-1.37.41c-.32.14-.46.25-.43.33s.05,0,.17,0h1.89c.13,0,.2,0,.22.07s-.09.13-.22.2a3.16,3.16,0,0,1-.55.21l-.35.1-.37.09-.34.1c-.25.06-.39.11-.4.14a.1.1,0,0,0,0,.12.75.75,0,0,0,.2.1s0,0,0,0l.24.09.32.11.19.07c.13.08.19.15.2.23a.94.94,0,0,1-.15.42c-.72,1.28-1.26,2.3-1.61,3.07-.1.22-.24.55-.42,1l-.42.92a4.48,4.48,0,0,1-.36.65,1.47,1.47,0,0,1-.82.57.58.58,0,0,1-.65-.3,35.12,35.12,0,0,1-1.92-3.75q-.49-1.2-.84-2.13a.88.88,0,0,0-.62-.63c-.13,0-.33-.11-.59-.18l-.59-.15-.21-.1a.1.1,0,0,1,0-.11.14.14,0,0,1,.09-.11l.31-.14.35-.11.39-.13a.08.08,0,0,1,.07,0,.35.35,0,0,1,.14-.06l.06,0a.14.14,0,0,0,0-.07c0-.07-.1-.07-.24,0a6,6,0,0,0-.58.17q-1,.28-1.2.36c-.25.1-.38.17-.38.22a.12.12,0,0,0,0,.14.42.42,0,0,0,.19.07.05.05,0,0,0,0,0l.29.09.34.12a.78.78,0,0,1,.19.1c.1.1.1.23,0,.41l-.19.36a40.28,40.28,0,0,0-2,4c-.13.29-.28.65-.44,1.08a2.62,2.62,0,0,1-.38.67,1.23,1.23,0,0,1-.91.55h-1.9a.52.52,0,0,1-.54-.35,1.28,1.28,0,0,1,.06-.89,35.23,35.23,0,0,1,2.28-4.76l.15-.27c.07-.14.13-.24.16-.32.13-.23.12-.39,0-.48l-.18-.08-.28-.1-.29-.12-.19-.09q-.16,0-.15-.12c0-.05.09-.09.25-.14l.77-.27a6,6,0,0,0,1.05-.36q.12,0,.12-.12s0-.07-.09-.07h-2c-.08,0-.12,0-.12-.07s.2-.18.6-.36c.11,0,.56-.18,1.34-.41.19-.06.3-.13.31-.19s-.07-.08-.21-.14l-.4-.15a2.05,2.05,0,0,1-.42-.17c-.13-.06-.19-.13-.19-.21a1.08,1.08,0,0,1,.14-.39c.08-.12.17-.26.26-.42s.16-.28.24-.4l.23-.41.23-.4a1,1,0,0,0,.21-.5c0-.1-.1-.19-.28-.27l-.62-.24a2.06,2.06,0,0,0-.22-.09.11.11,0,0,1,0-.11s0-.08.1-.11l.32-.07,1.39-.34a5.74,5.74,0,0,0,1.05-.33c.07,0,.09-.07.08-.1s0,0-.08,0-.82,0-2.18,0a.45.45,0,0,1-.48-.4.74.74,0,0,1,.1-.58,2,2,0,0,1,.56-.7,1.29,1.29,0,0,1,.68-.33.49.49,0,0,1,.55.26q.07.12.21.39l.2.38a1.88,1.88,0,0,0,.72.82,1.37,1.37,0,0,0,.68.16h2c.2,0,.31.05.31.1s-.14.16-.36.24l-1.08.34-.48.16c-.1,0-.15.08-.16.12s0,.09.09.12a1.89,1.89,0,0,0,.38.12q.45.15.84.24a1.25,1.25,0,0,1,.84.82l.3.77c.14.35.24.62.32.81a.86.86,0,0,0,.53.58l.53.14a2.7,2.7,0,0,0,.48.12l.53.17a.13.13,0,0,1,.07.15.36.36,0,0,1-.17.14l-.55.19-.23.09a.63.63,0,0,1-.23,0c-.17.07-.26.13-.25.19s.05.07.13.06.31-.08.84-.25l1.06-.31c.22-.08.35-.15.38-.21a.13.13,0,0,0-.05-.12.27.27,0,0,0-.16-.07l-.18-.08-.27-.1-.23-.09q-.26-.12-.27-.24a1.17,1.17,0,0,1,.2-.5c.44-.74.71-1.23.84-1.47a3.3,3.3,0,0,0,.19-.31c.08-.19.08-.33,0-.41l-.91-.4q-.17-.08-.15-.15c0-.05.08-.09.25-.14s.27-.08.71-.19l1.59-.41c.24-.07.36-.13.36-.19S427.39,134.92,427.22,134.92Z"/><path class="cls-73" d="M434.83,134.92h2.42l.06,0s0,0,0,.05a.19.19,0,0,1-.09,0,8.66,8.66,0,0,1-.86.27l-1.27.31-.6.17a.18.18,0,0,0-.12.12c0,.05,0,.08.07.09a.69.69,0,0,0,.21.1.62.62,0,0,1,.17.07,6.16,6.16,0,0,1,.58.24c.17.08.18.26,0,.53s-.49.85-1,1.73a1,1,0,0,0-.21.47c0,.08.1.17.26.25l.39.13.37.13c.16.07.24.12.24.17s-.13.12-.33.17l-.91.26a2.84,2.84,0,0,0-.89.39c-.13.09-.19.16-.17.19s0,0,.14,0h2s.06,0,.06.06,0,.07-.12.1l-.41.17a5.86,5.86,0,0,1-.62.16l-.53.15a.94.94,0,0,0-.31.1c-.1,0-.11.1,0,.16a.38.38,0,0,0,.17.1l.16,0,.18.06.16.06a1.24,1.24,0,0,1,.32.14c.12.07.19.13.2.21a.85.85,0,0,1-.16.39c-.62,1.2-1,1.91-1.1,2.14a26.11,26.11,0,0,0-1.32,3.24,3.84,3.84,0,0,1-.26.57,1.15,1.15,0,0,1-.94.67q-1.29,0-2.19,0a.55.55,0,0,1-.54-.39,1.55,1.55,0,0,1,0-.92,23.29,23.29,0,0,1,1.35-3.29c.06-.1.4-.75,1-1.95a.25.25,0,0,0,.07-.09.19.19,0,0,0,.05-.12c.1-.19.09-.32,0-.39a2,2,0,0,0-.34-.19l-.28-.11-.27-.08a.69.69,0,0,1-.19-.07c-.1-.07-.08-.13.05-.19a1.43,1.43,0,0,1,.31-.12,10.74,10.74,0,0,0,1.56-.51c.06,0,.1,0,.1-.07s0-.05,0-.05h-2c-.14,0-.21,0-.21,0a2.21,2.21,0,0,1,.31-.24,6.94,6.94,0,0,1,1.34-.48l.55-.14c.1,0,.15-.07.17-.12a.14.14,0,0,0,0-.06l-.12-.06-.8-.29a.59.59,0,0,1-.23-.14q-.15-.12,0-.36l.14-.27c.61-1,.93-1.6,1-1.65a.82.82,0,0,0,.15-.4.31.31,0,0,0-.18-.2,2.55,2.55,0,0,0-.41-.17l-.36-.14c-.16-.07-.23-.13-.22-.19s.11-.11.32-.17l.65-.15.74-.17c.37-.09.73-.2,1.08-.31q.15,0,.15-.12s0,0-.1,0a4.93,4.93,0,0,0-.55,0h-1.85a.31.31,0,0,1-.3-.18.65.65,0,0,1,0-.46,2.82,2.82,0,0,1,.73-1.19,1.32,1.32,0,0,1,.9-.45h2.26a.54.54,0,0,1,.18.1.55.55,0,0,1,.13.17.7.7,0,0,1,.06.23.66.66,0,0,1,0,.27,2.62,2.62,0,0,1-.19.58,1.06,1.06,0,0,0-.14.65C434.53,134.84,434.63,134.94,434.83,134.92Z"/><path class="cls-74" d="M448.48,134.92h-2a.42.42,0,0,1-.42-.32,1.05,1.05,0,0,1,.11-.71,2.34,2.34,0,0,1,.66-.9,1.34,1.34,0,0,1,.85-.35h1.71a.54.54,0,0,1,.57.32,1.32,1.32,0,0,1-.12.91c-.17.38-.2.67-.07.86a.47.47,0,0,0,.39.19h2.23c.06,0,.09,0,.09.05s0,.07-.12.1l-.81.26c-.21.07-.76.2-1.66.41l-.24.07a.31.31,0,0,0-.1.1.1.1,0,0,0,.05.12,2.9,2.9,0,0,0,.45.2,2.5,2.5,0,0,1,.56.28q.12.12,0,.36a1.07,1.07,0,0,1-.17.29,4.72,4.72,0,0,1-.28.52c-.13.21-.25.41-.35.59l-.3.52a.92.92,0,0,0-.15.37c0,.07.06.13.17.18l.67.26.36.17s.05,0,0,.07a.17.17,0,0,1-.09.1l-.38.12a11.62,11.62,0,0,0-1.37.41c-.32.14-.46.25-.43.33s.06,0,.17,0h1.89c.13,0,.2,0,.22.07s-.09.13-.22.2a3.16,3.16,0,0,1-.55.21l-.34.1-.38.09-.33.1c-.26.06-.4.11-.41.14a.09.09,0,0,0,.05.12.56.56,0,0,0,.19.1s.05,0,.05,0l.24.09.31.11.19.07c.13.08.2.15.21.23a1.18,1.18,0,0,1-.16.42c-.72,1.28-1.26,2.3-1.61,3.07-.1.22-.24.55-.42,1s-.32.73-.42.92a4.48,4.48,0,0,1-.36.65,1.49,1.49,0,0,1-.81.57.57.57,0,0,1-.65-.3,33.36,33.36,0,0,1-1.92-3.75q-.51-1.2-.84-2.13a.89.89,0,0,0-.63-.63,5.67,5.67,0,0,0-.59-.18l-.58-.15-.22-.1s0-.05,0-.11a.12.12,0,0,1,.08-.11l.31-.14.35-.11.39-.13s0,0,.08,0a.33.33,0,0,1,.13-.06l.06,0a.08.08,0,0,0,0-.07c0-.07-.09-.07-.24,0a5.26,5.26,0,0,0-.57.17c-.68.19-1.07.31-1.2.36s-.39.17-.39.22a.14.14,0,0,0,0,.14.38.38,0,0,0,.18.07.05.05,0,0,0,.05,0l.29.09.33.12a.62.62,0,0,1,.19.1.34.34,0,0,1,0,.41,3.36,3.36,0,0,0-.2.36,40.28,40.28,0,0,0-2,4c-.13.29-.27.65-.43,1.08a2.63,2.63,0,0,1-.39.67,1.21,1.21,0,0,1-.91.55h-1.9a.52.52,0,0,1-.54-.35,1.35,1.35,0,0,1,.07-.89,33.86,33.86,0,0,1,2.27-4.76l.15-.27c.08-.14.13-.24.17-.32q.19-.35,0-.48l-.18-.08-.27-.1L436,142l-.19-.09c-.12,0-.17-.07-.16-.12s.09-.09.25-.14l.77-.27a6.66,6.66,0,0,0,1.06-.36q.12,0,.12-.12s0-.07-.1-.07h-2c-.08,0-.12,0-.12-.07s.2-.18.6-.36c.11,0,.56-.18,1.34-.41.2-.06.3-.13.32-.19s-.07-.08-.22-.14l-.4-.15a1.65,1.65,0,0,1-.41-.17c-.13-.06-.2-.13-.2-.21a1,1,0,0,1,.15-.39c.08-.12.16-.26.25-.42l.24-.4.24-.41c.09-.15.16-.29.23-.4a1.09,1.09,0,0,0,.2-.5c0-.1-.1-.19-.28-.27l-.62-.24-.21-.09a.1.1,0,0,1,0-.11.17.17,0,0,1,.11-.11l.31-.07,1.39-.34a6.21,6.21,0,0,0,1.06-.33c.06,0,.08-.07.07-.1s0,0-.07,0-.83,0-2.19,0a.46.46,0,0,1-.48-.4.83.83,0,0,1,.1-.58,2.31,2.31,0,0,1,.56-.7,1.28,1.28,0,0,1,.69-.33.5.5,0,0,1,.55.26c.05.08.11.21.2.39s.16.3.21.38a1.76,1.76,0,0,0,.72.82,1.3,1.3,0,0,0,.67.16h2c.21,0,.31.05.31.1s-.13.16-.36.24l-1.08.34-.48.16c-.09,0-.15.08-.16.12a.14.14,0,0,0,.09.12,1.89,1.89,0,0,0,.38.12q.47.15.84.24a1.25,1.25,0,0,1,.84.82c.07.16.17.42.3.77l.33.81a.87.87,0,0,0,.52.58l.53.14a3.19,3.19,0,0,0,.48.12l.53.17a.11.11,0,0,1,.07.15s-.07.09-.17.14l-.55.19-.23.09a.63.63,0,0,1-.22,0c-.18.07-.26.13-.25.19s.05.07.13.06.31-.08.84-.25l1.05-.31q.35-.12.39-.21a.17.17,0,0,0-.05-.12.3.3,0,0,0-.17-.07l-.18-.08-.26-.1-.23-.09c-.18-.08-.27-.16-.28-.24a1.11,1.11,0,0,1,.21-.5q.64-1.11.84-1.47c.08-.12.14-.23.19-.31s.07-.33,0-.41l-.92-.4c-.11-.05-.16-.1-.14-.15s.08-.09.24-.14.27-.08.72-.19l1.58-.41c.24-.07.36-.13.36-.19S448.66,134.92,448.48,134.92Z"/><path class="cls-75" d="M463,140h3s.05,0,.05,0,0,.06-.07.07l-.41.17-.38.19a2.07,2.07,0,0,0-.24.2q-.17.21,0,.21h2l.08,0a0,0,0,0,1,.07,0s0,.06,0,.1l-.26.12-.77.21a7.91,7.91,0,0,0-.89.27l-.12.07c0,.05,0,.09.07.12a2.06,2.06,0,0,1,.22.09.32.32,0,0,0,.13.05l.14,0,.14.05.14.05.12,0c.18.08.27.17.28.26a1.27,1.27,0,0,1-.23.51q-3.36,5.31-7.92,6.55a8,8,0,0,1-1.9.27,6.71,6.71,0,0,1-3.38-.65,3.93,3.93,0,0,1-1.78-1.78,5.24,5.24,0,0,1,.12-4.17l.06-.16a.58.58,0,0,0,.06-.15c0-.05,0-.1,0-.15.1-.22.08-.37,0-.43a1.23,1.23,0,0,0-.26-.12l-.87-.34c-.09,0-.08-.1,0-.16l1.23-.39c.33-.09.56-.17.67-.21s.12-.08.12-.1,0-.05-.12-.05H450s-.07,0-.08,0,0-.06.06-.11a4.13,4.13,0,0,1,.5-.22c.52-.19,1.05-.37,1.61-.53q.24,0,.27-.12c0-.06,0-.11-.15-.14l-.23-.08-.22-.06a4.1,4.1,0,0,0-.41-.17q-.27-.1-.27-.24a.91.91,0,0,1,.27-.46c.13-.16.58-.69,1.37-1.58l.13-.15.11-.12c.12-.14.19-.24.19-.31s-.06-.13-.17-.19l-.46-.22a.48.48,0,0,1-.21-.12.08.08,0,0,1-.05-.08s0-.07.1-.08l.55-.15c1.18-.24,1.84-.37,2-.41l.81-.21c.15-.07.21-.11.19-.12s0,0-.09,0h-2.28c-.19,0-.3,0-.31,0s0-.2.28-.41a3.83,3.83,0,0,1,.53-.41,11.5,11.5,0,0,1,2.76-1.3,8.55,8.55,0,0,1,5.14-.12,3.9,3.9,0,0,1,2,1.47,2.85,2.85,0,0,0,.55.67.71.71,0,0,0,.45.14H467l.33,0c.05,0,.07,0,.07,0s0,.07-.09.12l-.53.22c-.14,0-.44.13-.89.24l-.31.08-.41.11a.61.61,0,0,0-.24.12c0,.06,0,.13.17.19l.17.06.12.06.38.12.19.12c.13.11.12.24,0,.39a5.47,5.47,0,0,1-1.13.67c-1.07.49-1.76.81-2.07.93l-.38.17a.44.44,0,0,1-.58-.24,1.36,1.36,0,0,0-.86-.79,5.33,5.33,0,0,0-2.18-.17,5.56,5.56,0,0,0-2,.58,6,6,0,0,0-1.15.79,1.13,1.13,0,0,0-.19.19c-.18.18-.19.31-.05.41a3,3,0,0,0,.43.19l.11,0,.1,0a.19.19,0,0,0,.09.05l.11,0c.08,0,.11.07.1.12s-.06.09-.17.12l-.2.06-.24.06-.21.05a6,6,0,0,0-1.27.45l-.2.14c-.06,0-.1.06-.11.08s0,0,0,.05,0,0,.17,0h1.8a.45.45,0,0,1,.21,0c.05,0,.07,0,.07,0s-.06.07-.14.12a1.93,1.93,0,0,1-.34.14l-.91.24-.5.17c-.11,0-.17.07-.18.11s0,.08.13.13l.1,0,.09,0,.11,0,.11,0,.62.24c.18.08.23.25.17.52a1.35,1.35,0,0,0,.36,1.52,2.14,2.14,0,0,0,1,.4,6.93,6.93,0,0,0,2.83-.19,5,5,0,0,0,1.18-.5c.06,0,.1-.09.1-.12s0,0-.1,0H459a1.24,1.24,0,0,1-.31,0c-.35-.08-.43-.38-.24-.89a3.21,3.21,0,0,1,.12-.31.29.29,0,0,0,0-.34l-.19-.12-.45-.16-.15-.05a.58.58,0,0,0-.17,0c-.11-.05-.17-.1-.18-.17s.06-.11.21-.14a.05.05,0,0,1,.05,0l.31-.07a1.45,1.45,0,0,0,.33-.1q.36-.09.72-.21a1.35,1.35,0,0,0,.39-.17c.06,0,.09-.06.09-.08s0,0-.09,0h-2.09s0,0,0,0a.06.06,0,0,1,0-.06,3.14,3.14,0,0,1,.6-.32,6.87,6.87,0,0,1,.86-.26,8.87,8.87,0,0,1,2.28-.22Z"/></g></g></svg>