<svg xmlns="http://www.w3.org/2000/svg" xmlns:xlink="http://www.w3.org/1999/xlink" viewBox="0 0 484.51 211.54"><defs><style>.cls-1{mask:url(#mask);filter:url(#luminosity-noclip-2);}.cls-2{mix-blend-mode:multiply;fill:url(#Безымянный_градиент_70);}.cls-3{fill:#00d0ff;}.cls-4{mask:url(#mask-2);}.cls-5{fill:url(#Безымянный_градиент_10);}.cls-6{filter:url(#luminosity-noclip);}</style><filter id="luminosity-noclip" x="44.39" y="-8304.78" width="398.04" height="32766" filterUnits="userSpaceOnUse" color-interpolation-filters="sRGB"><feFlood flood-color="#fff" result="bg"/><feBlend in="SourceGraphic" in2="bg"/></filter><mask id="mask" x="44.39" y="-8304.78" width="398.04" height="32766" maskUnits="userSpaceOnUse"><g class="cls-6"/></mask><linearGradient id="Безымянный_градиент_70" x1="44.39" y1="134.4" x2="442.43" y2="134.4" gradientUnits="userSpaceOnUse"><stop offset="0" stop-color="#fff"/><stop offset="0.01" stop-color="#f6f6f6"/><stop offset="0.05" stop-color="#c8c8c8"/><stop offset="0.09" stop-color="#9d9d9d"/><stop offset="0.14" stop-color="#777"/><stop offset="0.2" stop-color="#575757"/><stop offset="0.25" stop-color="#3b3b3b"/><stop offset="0.32" stop-color="#252525"/><stop offset="0.4" stop-color="#141414"/><stop offset="0.49" stop-color="#090909"/><stop offset="0.63" stop-color="#020202"/><stop offset="1"/></linearGradient><filter id="luminosity-noclip-2" x="44.39" y="93.69" width="398.04" height="81.42" filterUnits="userSpaceOnUse" color-interpolation-filters="sRGB"><feFlood flood-color="#fff" result="bg"/><feBlend in="SourceGraphic" in2="bg"/></filter><mask id="mask-2" x="44.39" y="93.69" width="398.04" height="81.42" maskUnits="userSpaceOnUse"><g class="cls-1"><rect class="cls-2" x="44.39" y="93.69" width="398.04" height="81.42"/></g></mask><linearGradient id="Безымянный_градиент_10" x1="44.39" y1="134.4" x2="442.43" y2="134.4" gradientUnits="userSpaceOnUse"><stop offset="0" stop-color="#00d0ff"/><stop offset="0.02" stop-color="#01cdf6"/><stop offset="0.09" stop-color="#05c5db"/><stop offset="0.17" stop-color="#08bec5"/><stop offset="0.27" stop-color="#0bb9b4"/><stop offset="0.38" stop-color="#0db6a9"/><stop offset="0.55" stop-color="#0eb4a2"/><stop offset="1" stop-color="#0eb3a0"/></linearGradient></defs><title>right_blue</title><g id="Layer_2" data-name="Layer 2"><g id="Layer_1-2" data-name="Layer 1"><polygon class="cls-3" points="78.05 190.83 28.34 190.83 28.34 77.96 78.05 77.96 93.58 57.25 28.34 57.25 7.63 57.25 7.63 77.96 7.63 190.83 7.63 211.54 28.34 211.54 93.58 211.54 78.05 190.83"/><polygon class="cls-3" points="443.83 77.96 456.22 77.96 456.22 190.83 406.52 190.83 390.98 211.54 456.22 211.54 476.93 211.54 476.93 190.83 476.93 77.96 476.93 57.25 477.49 57.25 443.83 77.96"/><g class="cls-4"><rect class="cls-5" x="44.39" y="93.69" width="398.04" height="81.42"/></g><path class="cls-3" d="M443.2,175.87H43.62V92.92H443.2Zm-398-1.53H441.67V94.45H45.16Z"/><path class="cls-3" d="M431.13,77.1H87.64a.79.79,0,0,1-.68-.42.77.77,0,0,1,.07-.81l17.76-24.22H7.92a.76.76,0,0,1-.76-.76V.85a.77.77,0,1,1,1.53,0V50.12H106.3a.76.76,0,0,1,.62,1.22L89.16,75.56H430.9l35.43-22.77a.76.76,0,1,1,.83,1.28L431.54,77A.76.76,0,0,1,431.13,77.1Z"/><polygon class="cls-3" points="8.44 23.21 0 28.84 0 5.63 8.44 0 8.44 23.21"/><polygon class="cls-3" points="134.83 67.87 140.46 76.31 163.66 76.31 158.04 67.87 134.83 67.87"/><polygon class="cls-3" points="167.9 67.87 173.53 76.31 196.74 76.31 191.11 67.87 167.9 67.87"/><polygon class="cls-3" points="200.98 67.87 206.61 76.31 229.82 76.31 224.19 67.87 200.98 67.87"/><polygon class="cls-3" points="234.06 67.87 239.68 76.31 262.89 76.31 257.26 67.87 234.06 67.87"/><polygon class="cls-3" points="290.34 67.87 267.13 67.87 272.76 76.31 295.97 76.31 290.34 67.87"/><polygon class="cls-3" points="220.49 174.73 226.11 183.17 249.32 183.17 243.7 174.73 220.49 174.73"/><polygon class="cls-3" points="253.56 174.73 259.19 183.17 282.4 183.17 276.77 174.73 253.56 174.73"/><polygon class="cls-3" points="286.64 174.73 292.26 183.17 315.47 183.17 309.85 174.73 286.64 174.73"/><polygon class="cls-3" points="319.71 174.73 325.34 183.17 348.55 183.17 342.92 174.73 319.71 174.73"/><polygon class="cls-3" points="376 174.73 352.79 174.73 358.42 183.17 381.63 183.17 376 174.73"/><polygon class="cls-3" points="476.07 210.61 484.51 205.07 484.51 182.23 476.07 187.77 476.07 210.61"/><polygon class="cls-3" points="476.07 178.06 484.51 172.52 484.51 149.68 476.07 155.22 476.07 178.06"/><polygon class="cls-3" points="476.07 145.5 484.51 139.97 484.51 117.13 476.07 122.66 476.07 145.5"/><polygon class="cls-3" points="476.07 112.95 484.51 107.41 484.51 84.57 476.07 90.11 476.07 112.95"/><polygon class="cls-3" points="476.07 57.55 476.07 80.4 484.51 74.86 484.51 52.02 476.07 57.55"/></g></g></svg>