<svg xmlns="http://www.w3.org/2000/svg" xmlns:xlink="http://www.w3.org/1999/xlink" viewBox="0 0 497.54 138.56"><defs><style>.cls-1{mask:url(#mask);filter:url(#luminosity-noclip-3);}.cls-2,.cls-4{mix-blend-mode:multiply;}.cls-2{fill:url(#Безымянный_градиент_68);}.cls-3{mask:url(#mask-2);filter:url(#luminosity-noclip-4);}.cls-4{fill:url(#Безымянный_градиент_68-2);}.cls-10,.cls-11,.cls-12,.cls-13,.cls-14,.cls-15,.cls-16,.cls-17,.cls-18,.cls-19,.cls-5{fill:#00d0ff;}.cls-6{mask:url(#mask-3);}.cls-7{fill:url(#Безымянный_градиент_41);}.cls-8{mask:url(#mask-4);}.cls-9{fill:url(#Безымянный_градиент_41-2);}.cls-10{opacity:0.9;}.cls-11{opacity:0.8;}.cls-12{opacity:0.7;}.cls-13{opacity:0.6;}.cls-14{opacity:0.5;}.cls-15{opacity:0.4;}.cls-16{opacity:0.3;}.cls-17{opacity:0.2;}.cls-18{opacity:0.1;}.cls-19{opacity:0.05;}.cls-20{fill:#11e5b3;}.cls-21{filter:url(#luminosity-noclip-2);}.cls-22{filter:url(#luminosity-noclip);}</style><filter id="luminosity-noclip" x="21.89" y="-8261.46" width="194.61" height="32766" filterUnits="userSpaceOnUse" color-interpolation-filters="sRGB"><feFlood flood-color="#fff" result="bg"/><feBlend in="SourceGraphic" in2="bg"/></filter><mask id="mask" x="21.89" y="-8261.46" width="194.61" height="32766" maskUnits="userSpaceOnUse"><g class="cls-22"/></mask><linearGradient id="Безымянный_градиент_68" x1="119.19" y1="105" x2="119.19" y2="65.39" gradientUnits="userSpaceOnUse"><stop offset="0" stop-color="#fff"/><stop offset="0.04" stop-color="#d3d3d3"/><stop offset="0.1" stop-color="#9c9c9c"/><stop offset="0.16" stop-color="#6c6c6c"/><stop offset="0.21" stop-color="#454545"/><stop offset="0.27" stop-color="#272727"/><stop offset="0.33" stop-color="#111"/><stop offset="0.38" stop-color="#040404"/><stop offset="0.43"/><stop offset="0.56" stop-color="#030303"/><stop offset="0.63" stop-color="#0b0b0b"/><stop offset="0.7" stop-color="#191919"/><stop offset="0.76" stop-color="#2e2e2e"/><stop offset="0.81" stop-color="#484848"/><stop offset="0.86" stop-color="#696969"/><stop offset="0.9" stop-color="#8f8f8f"/><stop offset="0.95" stop-color="#bcbcbc"/><stop offset="0.99" stop-color="#ededed"/><stop offset="1" stop-color="#fff"/></linearGradient><filter id="luminosity-noclip-2" x="269.06" y="-8261.46" width="194.61" height="32766" filterUnits="userSpaceOnUse" color-interpolation-filters="sRGB"><feFlood flood-color="#fff" result="bg"/><feBlend in="SourceGraphic" in2="bg"/></filter><mask id="mask-2" x="269.06" y="-8261.46" width="194.61" height="32766" maskUnits="userSpaceOnUse"><g class="cls-21"/></mask><linearGradient id="Безымянный_градиент_68-2" x1="724.79" y1="-2426.94" x2="724.79" y2="-2466.55" gradientTransform="translate(1091.16 -2359.61) rotate(180)" xlink:href="#Безымянный_градиент_68"/><filter id="luminosity-noclip-3" x="21.89" y="65.39" width="194.61" height="39.61" filterUnits="userSpaceOnUse" color-interpolation-filters="sRGB"><feFlood flood-color="#fff" result="bg"/><feBlend in="SourceGraphic" in2="bg"/></filter><mask id="mask-3" x="21.89" y="65.39" width="194.61" height="39.61" maskUnits="userSpaceOnUse"><g class="cls-1"><rect class="cls-2" x="21.89" y="65.39" width="194.61" height="39.61" rx="12.92"/></g></mask><linearGradient id="Безымянный_градиент_41" x1="119.19" y1="105" x2="119.19" y2="65.39" gradientUnits="userSpaceOnUse"><stop offset="0" stop-color="#00d0ff"/><stop offset="0.07" stop-color="#04c8e5"/><stop offset="0.16" stop-color="#08bfc7"/><stop offset="0.26" stop-color="#0bb8b1"/><stop offset="0.35" stop-color="#0db4a4"/><stop offset="0.43" stop-color="#0eb3a0"/><stop offset="0.61" stop-color="#0eb4a3"/><stop offset="0.71" stop-color="#0cb6ab"/><stop offset="0.8" stop-color="#0abbb9"/><stop offset="0.88" stop-color="#07c1ce"/><stop offset="0.95" stop-color="#03c9e8"/><stop offset="1" stop-color="#00d0ff"/></linearGradient><filter id="luminosity-noclip-4" x="269.06" y="67.32" width="194.61" height="39.61" filterUnits="userSpaceOnUse" color-interpolation-filters="sRGB"><feFlood flood-color="#fff" result="bg"/><feBlend in="SourceGraphic" in2="bg"/></filter><mask id="mask-4" x="269.06" y="67.32" width="194.61" height="39.61" maskUnits="userSpaceOnUse"><g class="cls-3"><rect class="cls-4" x="269.06" y="67.32" width="194.61" height="39.61" rx="12.92"/></g></mask><linearGradient id="Безымянный_градиент_41-2" x1="724.79" y1="-2426.94" x2="724.79" y2="-2466.55" gradientTransform="translate(1091.16 -2359.61) rotate(180)" xlink:href="#Безымянный_градиент_41"/></defs><title>sales_blue</title><g id="Layer_2" data-name="Layer 2"><g id="Layer_1-2" data-name="Layer 1"><polygon class="cls-5" points="15.37 113.85 10.8 113.85 10.8 56.55 36.03 56.55 43.92 46.03 10.8 46.03 0.28 46.03 0.28 56.55 0.28 113.85 0.28 124.36 0 124.36 15.37 113.85"/><polygon class="cls-5" points="221.3 56.98 227.59 56.98 227.59 114.28 202.36 114.28 194.47 124.79 227.59 124.79 238.1 124.79 238.1 114.28 238.1 56.98 238.1 46.46 238.39 46.46 221.3 56.98"/><g class="cls-6"><rect class="cls-7" x="21.89" y="65.39" width="194.61" height="39.61" rx="12.92"/></g><path class="cls-5" d="M125,63.68a5.82,5.82,0,1,1-5.82-5.81A5.82,5.82,0,0,1,125,63.68Z"/><polygon class="cls-5" points="470.2 58.48 474.77 58.48 474.77 115.78 449.53 115.78 441.65 126.29 474.77 126.29 485.28 126.29 485.28 115.78 485.28 58.48 485.28 47.96 485.56 47.96 470.2 58.48"/><polygon class="cls-5" points="264.26 115.35 257.97 115.35 257.97 58.05 283.21 58.05 291.09 47.53 257.97 47.53 247.46 47.53 247.46 58.05 247.46 115.35 247.46 125.86 247.18 125.86 264.26 115.35"/><g class="cls-8"><rect class="cls-9" x="269.06" y="67.32" width="194.61" height="39.61" rx="12.92"/></g><path class="cls-5" d="M203.58,65.39A12.91,12.91,0,0,1,216.5,78.31V92.09A12.91,12.91,0,0,1,203.58,105H34.8A12.91,12.91,0,0,1,21.89,92.09V78.31A12.91,12.91,0,0,1,34.8,65.39H203.58m0-.78H34.8a13.71,13.71,0,0,0-13.69,13.7V92.09A13.7,13.7,0,0,0,34.8,105.78H203.58a13.71,13.71,0,0,0,13.7-13.69V78.31a13.71,13.71,0,0,0-13.7-13.7Z"/><path class="cls-5" d="M450.76,67.32a12.93,12.93,0,0,1,12.92,12.92V94a12.92,12.92,0,0,1-12.92,12.91H282A12.92,12.92,0,0,1,269.06,94V80.24A12.93,12.93,0,0,1,282,67.32H450.76m0-.78H282a13.72,13.72,0,0,0-13.7,13.7V94A13.71,13.71,0,0,0,282,107.71H450.76A13.7,13.7,0,0,0,464.45,94V80.24a13.71,13.71,0,0,0-13.69-13.7Z"/><path class="cls-5" d="M360.56,108.64a5.81,5.81,0,1,1,5.81,5.82A5.81,5.81,0,0,1,360.56,108.64Z"/><polygon class="cls-5" points="497.54 138.56 365.88 138.56 365.88 114.46 366.65 114.46 366.65 137.78 496.77 137.78 496.77 34.36 120.37 34.36 120.37 60.67 119.59 60.67 119.59 33.58 497.54 33.58 497.54 138.56"/><polygon class="cls-5" points="248 34.26 255.47 29.67 306.56 29.67 312.3 24.5 405.3 24.5 412.76 30.82 490.27 30.82 497.15 33.97 248 34.26"/><polygon class="cls-5" points="304.26 25.34 303.7 24.81 310.41 17.8 419.08 17.8 419.08 18.57 310.75 18.57 304.26 25.34"/><path class="cls-5" d="M422.52,18.19a2.87,2.87,0,1,1-2.87-2.87A2.87,2.87,0,0,1,422.52,18.19Z"/><circle class="cls-5" cx="108.5" cy="50.91" r="2.87"/><polygon class="cls-5" points="108.89 50.33 108.11 50.33 108.11 0 247 0 254.46 6.31 307.44 6.31 291.06 24.47 290.48 23.95 305.69 7.09 254.18 7.09 246.71 0.78 108.89 0.78 108.89 50.33"/><polygon class="cls-5" points="34.12 98.84 41.12 70.71 37.56 70.71 30.57 98.84 34.12 98.84"/><polygon class="cls-10" points="42.15 98.84 49.15 70.71 45.6 70.71 38.6 98.84 42.15 98.84"/><polygon class="cls-11" points="50.19 98.84 57.19 70.71 53.64 70.71 46.64 98.84 50.19 98.84"/><polygon class="cls-12" points="58.23 98.84 65.23 70.71 61.68 70.71 54.68 98.84 58.23 98.84"/><polygon class="cls-13" points="66.27 98.84 73.26 70.71 69.71 70.71 62.72 98.84 66.27 98.84"/><polygon class="cls-14" points="74.3 98.84 81.3 70.71 77.75 70.71 70.75 98.84 74.3 98.84"/><polygon class="cls-15" points="82.34 98.84 89.34 70.71 85.79 70.71 78.79 98.84 82.34 98.84"/><polygon class="cls-16" points="90.38 98.84 97.38 70.71 93.83 70.71 86.83 98.84 90.38 98.84"/><polygon class="cls-17" points="98.41 98.84 105.41 70.71 101.86 70.71 94.86 98.84 98.41 98.84"/><polygon class="cls-18" points="106.45 98.84 113.45 70.71 109.9 70.71 102.9 98.84 106.45 98.84"/><polygon class="cls-19" points="114.49 98.84 121.49 70.71 117.94 70.71 110.94 98.84 114.49 98.84"/><polygon class="cls-5" points="372.11 101.43 379.11 73.3 375.56 73.3 368.56 101.43 372.11 101.43"/><polygon class="cls-10" points="380.14 101.43 387.14 73.3 383.59 73.3 376.59 101.43 380.14 101.43"/><polygon class="cls-11" points="388.18 101.43 395.18 73.3 391.63 73.3 384.63 101.43 388.18 101.43"/><polygon class="cls-12" points="396.22 101.43 403.22 73.3 399.67 73.3 392.67 101.43 396.22 101.43"/><polygon class="cls-13" points="404.25 101.43 411.25 73.3 407.7 73.3 400.7 101.43 404.25 101.43"/><polygon class="cls-14" points="412.29 101.43 419.29 73.3 415.74 73.3 408.74 101.43 412.29 101.43"/><polygon class="cls-15" points="420.33 101.43 427.33 73.3 423.78 73.3 416.78 101.43 420.33 101.43"/><polygon class="cls-16" points="428.37 101.43 435.36 73.3 431.81 73.3 424.82 101.43 428.37 101.43"/><polygon class="cls-17" points="436.4 101.43 443.4 73.3 439.85 73.3 432.85 101.43 436.4 101.43"/><polygon class="cls-18" points="444.44 101.43 451.44 73.3 447.89 73.3 440.89 101.43 444.44 101.43"/><polygon class="cls-19" points="452.48 101.43 459.48 73.3 455.93 73.3 448.93 101.43 452.48 101.43"/><path class="cls-20" d="M126.5,12.67v1.27h18.19V24.52L140.25,20V18.43H122.09V8.18Zm-4.41,11.85L126.5,20h13.75v4.48Zm22.6-16.34-4.44,4.49H126.5V8.18Z"/><path class="cls-20" d="M164.06,12.67l4.44-4.49V24.52h-4.44v-4H150.91v4h-5V15.28l5-2.61v7l2.66-3.58h10.49Zm0-4.49v4.49H150.91l-5-4.49Z"/><path class="cls-20" d="M174.79,8.18V17l-5.09,3V8.18ZM169.7,20h19.39l-4.41,4.47h-15Z"/><path class="cls-20" d="M194.71,12.67V20H211v4.48H194.71L190.29,20V8.18ZM212.9,8.18l-4.44,4.49H194.71V8.18ZM197.13,18.43V13.92h13.92l-3.33,4.51Z"/><path class="cls-20" d="M218.52,12.67v1.27h18.19V24.52L232.27,20V18.43H214.1V8.18ZM214.1,24.52,218.52,20h13.75v4.48ZM236.71,8.18l-4.44,4.49H218.52V8.18Z"/></g></g></svg>