<svg xmlns="http://www.w3.org/2000/svg" xmlns:xlink="http://www.w3.org/1999/xlink" viewBox="0 0 491.79 170.82"><defs><style>.cls-1{fill:url(#New_Gradient_Swatch_2);}.cls-2{fill:url(#New_Gradient_Swatch_2-2);}.cls-3{fill:url(#New_Gradient_Swatch_2-3);}.cls-4{fill:url(#New_Gradient_Swatch_2-4);}.cls-5{fill:url(#New_Gradient_Swatch_2-5);}.cls-6{fill:url(#New_Gradient_Swatch_2-6);}.cls-7{fill:url(#New_Gradient_Swatch_2-7);}.cls-8{fill:url(#New_Gradient_Swatch_2-8);}.cls-9{fill:url(#New_Gradient_Swatch_2-9);}.cls-10{fill:url(#New_Gradient_Swatch_2-10);}.cls-11{fill:url(#New_Gradient_Swatch_2-11);}.cls-12{fill:url(#New_Gradient_Swatch_2-12);}.cls-13{fill:url(#New_Gradient_Swatch_2-13);}.cls-14{fill:url(#New_Gradient_Swatch_2-14);}.cls-15{fill:url(#New_Gradient_Swatch_2-15);}.cls-16{fill:url(#New_Gradient_Swatch_2-16);}.cls-17{fill:url(#New_Gradient_Swatch_2-17);}.cls-18{fill:url(#New_Gradient_Swatch_2-18);}.cls-19{fill:url(#New_Gradient_Swatch_2-19);}.cls-20{fill:url(#New_Gradient_Swatch_2-20);}.cls-21{fill:url(#New_Gradient_Swatch_2-21);}.cls-22{fill:url(#New_Gradient_Swatch_2-22);}.cls-23{fill:url(#New_Gradient_Swatch_2-23);}.cls-24{fill:url(#New_Gradient_Swatch_2-24);}.cls-25{fill:url(#New_Gradient_Swatch_2-25);}.cls-26{fill:url(#New_Gradient_Swatch_2-26);}.cls-27{fill:url(#New_Gradient_Swatch_2-27);}.cls-28{fill:url(#New_Gradient_Swatch_2-28);}.cls-29{fill:url(#New_Gradient_Swatch_2-29);}.cls-30{fill:url(#New_Gradient_Swatch_2-30);}.cls-31{fill:url(#New_Gradient_Swatch_2-31);}.cls-32{fill:url(#New_Gradient_Swatch_2-32);}.cls-33{fill:url(#New_Gradient_Swatch_2-33);}.cls-34{fill:url(#New_Gradient_Swatch_2-34);}.cls-35{fill:url(#New_Gradient_Swatch_2-35);}.cls-36{fill:url(#New_Gradient_Swatch_2-36);}.cls-37{fill:url(#New_Gradient_Swatch_2-37);}.cls-38{fill:url(#New_Gradient_Swatch_2-38);}.cls-39{fill:url(#New_Gradient_Swatch_2-39);}.cls-40{fill:url(#New_Gradient_Swatch_2-40);}.cls-41{fill:url(#New_Gradient_Swatch_2-41);}.cls-42{fill:url(#New_Gradient_Swatch_2-42);}.cls-43{fill:url(#New_Gradient_Swatch_2-43);}.cls-44{fill:url(#New_Gradient_Swatch_2-44);}.cls-45{fill:url(#New_Gradient_Swatch_2-45);}.cls-46{fill:url(#New_Gradient_Swatch_2-46);}.cls-47{fill:url(#New_Gradient_Swatch_2-47);}.cls-48{fill:url(#New_Gradient_Swatch_2-48);}.cls-49{fill:url(#New_Gradient_Swatch_2-49);}.cls-50{fill:url(#New_Gradient_Swatch_2-50);}.cls-51{fill:url(#New_Gradient_Swatch_2-51);}.cls-52{fill:url(#New_Gradient_Swatch_2-52);}.cls-53{fill:url(#New_Gradient_Swatch_2-53);}.cls-54{fill:url(#New_Gradient_Swatch_2-54);}.cls-55{fill:url(#New_Gradient_Swatch_2-55);}.cls-56{fill:url(#New_Gradient_Swatch_2-56);}.cls-57{fill:url(#New_Gradient_Swatch_2-57);}.cls-58{fill:url(#New_Gradient_Swatch_2-58);}.cls-59{fill:url(#New_Gradient_Swatch_2-59);}.cls-60{fill:url(#New_Gradient_Swatch_2-60);}.cls-61{fill:url(#New_Gradient_Swatch_2-61);}.cls-62{fill:url(#New_Gradient_Swatch_2-62);}.cls-63{fill:url(#New_Gradient_Swatch_2-63);}.cls-64{fill:url(#New_Gradient_Swatch_2-64);}</style><linearGradient id="New_Gradient_Swatch_2" x1="46.13" y1="90.79" x2="464.34" y2="90.79" gradientUnits="userSpaceOnUse"><stop offset="0" stop-color="#9541de"/><stop offset="1" stop-color="#3ab2c0"/></linearGradient><linearGradient id="New_Gradient_Swatch_2-2" x1="37.25" y1="90.78" x2="473.22" y2="90.78" xlink:href="#New_Gradient_Swatch_2"/><linearGradient id="New_Gradient_Swatch_2-3" x1="25.12" y1="67.46" x2="153.49" y2="67.46" xlink:href="#New_Gradient_Swatch_2"/><linearGradient id="New_Gradient_Swatch_2-4" x1="27.04" y1="109.64" x2="246.04" y2="109.64" xlink:href="#New_Gradient_Swatch_2"/><linearGradient id="New_Gradient_Swatch_2-5" x1="240.37" y1="118.96" x2="485.62" y2="118.96" xlink:href="#New_Gradient_Swatch_2"/><linearGradient id="New_Gradient_Swatch_2-6" x1="373.72" y1="76.73" x2="485.6" y2="76.73" xlink:href="#New_Gradient_Swatch_2"/><linearGradient id="New_Gradient_Swatch_2-7" x1="147.82" y1="48.13" x2="379.39" y2="48.13" xlink:href="#New_Gradient_Swatch_2"/><linearGradient id="New_Gradient_Swatch_2-8" x1="0" y1="62.81" x2="12.81" y2="62.81" xlink:href="#New_Gradient_Swatch_2"/><linearGradient id="New_Gradient_Swatch_2-9" x1="9.98" y1="127.07" x2="126.91" y2="127.07" xlink:href="#New_Gradient_Swatch_2"/><linearGradient id="New_Gradient_Swatch_2-10" x1="124.08" y1="148.42" x2="384.67" y2="148.42" xlink:href="#New_Gradient_Swatch_2"/><linearGradient id="New_Gradient_Swatch_2-11" x1="383.54" y1="89.91" x2="491.79" y2="89.91" xlink:href="#New_Gradient_Swatch_2"/><linearGradient id="New_Gradient_Swatch_2-12" x1="106.49" y1="27.12" x2="467.4" y2="27.12" xlink:href="#New_Gradient_Swatch_2"/><linearGradient id="New_Gradient_Swatch_2-13" x1="10.47" y1="23.15" x2="108.75" y2="23.15" xlink:href="#New_Gradient_Swatch_2"/><linearGradient id="New_Gradient_Swatch_2-14" x1="265.61" y1="28.39" x2="369.29" y2="28.39" xlink:href="#New_Gradient_Swatch_2"/><linearGradient id="New_Gradient_Swatch_2-15" x1="203.95" y1="150.75" x2="307.63" y2="150.75" xlink:href="#New_Gradient_Swatch_2"/><linearGradient id="New_Gradient_Swatch_2-16" x1="192.85" y1="158.74" x2="272.94" y2="158.74" xlink:href="#New_Gradient_Swatch_2"/><linearGradient id="New_Gradient_Swatch_2-17" x1="20.2" y1="10.86" x2="62.09" y2="10.86" xlink:href="#New_Gradient_Swatch_2"/><linearGradient id="New_Gradient_Swatch_2-18" x1="162.83" y1="44.68" x2="266.51" y2="44.68" xlink:href="#New_Gradient_Swatch_2"/><linearGradient id="New_Gradient_Swatch_2-19" x1="22.8" y1="149.91" x2="189.48" y2="149.91" xlink:href="#New_Gradient_Swatch_2"/><linearGradient id="New_Gradient_Swatch_2-20" x1="22.81" y1="160.12" x2="269.55" y2="160.12" xlink:href="#New_Gradient_Swatch_2"/><linearGradient id="New_Gradient_Swatch_2-21" x1="321.9" y1="149.39" x2="336.39" y2="149.39" xlink:href="#New_Gradient_Swatch_2"/><linearGradient id="New_Gradient_Swatch_2-22" x1="339.11" y1="149.38" x2="353.6" y2="149.38" xlink:href="#New_Gradient_Swatch_2"/><linearGradient id="New_Gradient_Swatch_2-23" x1="356.31" y1="149.36" x2="370.8" y2="149.36" xlink:href="#New_Gradient_Swatch_2"/><linearGradient id="New_Gradient_Swatch_2-24" x1="373.51" y1="149.35" x2="388" y2="149.35" xlink:href="#New_Gradient_Swatch_2"/><linearGradient id="New_Gradient_Swatch_2-25" x1="390.72" y1="149.33" x2="405.21" y2="149.33" xlink:href="#New_Gradient_Swatch_2"/><linearGradient id="New_Gradient_Swatch_2-26" x1="407.92" y1="149.32" x2="422.41" y2="149.32" xlink:href="#New_Gradient_Swatch_2"/><linearGradient id="New_Gradient_Swatch_2-27" x1="425.12" y1="149.31" x2="439.61" y2="149.31" xlink:href="#New_Gradient_Swatch_2"/><linearGradient id="New_Gradient_Swatch_2-28" x1="442.33" y1="149.29" x2="456.82" y2="149.29" xlink:href="#New_Gradient_Swatch_2"/><linearGradient id="New_Gradient_Swatch_2-29" x1="459.53" y1="149.28" x2="474.02" y2="149.28" xlink:href="#New_Gradient_Swatch_2"/><linearGradient id="New_Gradient_Swatch_2-30" x1="476.73" y1="149.26" x2="491.22" y2="149.26" xlink:href="#New_Gradient_Swatch_2"/><linearGradient id="New_Gradient_Swatch_2-31" x1="179.38" y1="5.91" x2="193.87" y2="5.91" xlink:href="#New_Gradient_Swatch_2"/><linearGradient id="New_Gradient_Swatch_2-32" x1="196.58" y1="5.9" x2="211.07" y2="5.9" xlink:href="#New_Gradient_Swatch_2"/><linearGradient id="New_Gradient_Swatch_2-33" x1="213.78" y1="5.88" x2="228.27" y2="5.88" xlink:href="#New_Gradient_Swatch_2"/><linearGradient id="New_Gradient_Swatch_2-34" x1="80.61" y1="164.94" x2="95.1" y2="164.94" xlink:href="#New_Gradient_Swatch_2"/><linearGradient id="New_Gradient_Swatch_2-35" x1="97.81" y1="164.93" x2="112.3" y2="164.93" xlink:href="#New_Gradient_Swatch_2"/><linearGradient id="New_Gradient_Swatch_2-36" x1="115.01" y1="164.91" x2="129.51" y2="164.91" xlink:href="#New_Gradient_Swatch_2"/><linearGradient id="New_Gradient_Swatch_2-37" x1="409.18" y1="10.55" x2="423.67" y2="10.55" xlink:href="#New_Gradient_Swatch_2"/><linearGradient id="New_Gradient_Swatch_2-38" x1="426.38" y1="10.54" x2="440.87" y2="10.54" xlink:href="#New_Gradient_Swatch_2"/><linearGradient id="New_Gradient_Swatch_2-39" x1="443.58" y1="10.52" x2="458.07" y2="10.52" xlink:href="#New_Gradient_Swatch_2"/><linearGradient id="New_Gradient_Swatch_2-40" x1="24.96" y1="41.04" x2="29.53" y2="41.04" xlink:href="#New_Gradient_Swatch_2"/><linearGradient id="New_Gradient_Swatch_2-41" x1="30.39" y1="41.03" x2="34.96" y2="41.03" xlink:href="#New_Gradient_Swatch_2"/><linearGradient id="New_Gradient_Swatch_2-42" x1="35.81" y1="41.03" x2="40.38" y2="41.03" xlink:href="#New_Gradient_Swatch_2"/><linearGradient id="New_Gradient_Swatch_2-43" x1="41.24" y1="41.02" x2="45.81" y2="41.02" xlink:href="#New_Gradient_Swatch_2"/><linearGradient id="New_Gradient_Swatch_2-44" x1="46.66" y1="41.02" x2="51.23" y2="41.02" xlink:href="#New_Gradient_Swatch_2"/><linearGradient id="New_Gradient_Swatch_2-45" x1="52.09" y1="41.01" x2="56.66" y2="41.01" xlink:href="#New_Gradient_Swatch_2"/><linearGradient id="New_Gradient_Swatch_2-46" x1="57.51" y1="41.01" x2="62.08" y2="41.01" xlink:href="#New_Gradient_Swatch_2"/><linearGradient id="New_Gradient_Swatch_2-47" x1="62.94" y1="41" x2="67.51" y2="41" xlink:href="#New_Gradient_Swatch_2"/><linearGradient id="New_Gradient_Swatch_2-48" x1="68.36" y1="41" x2="72.93" y2="41" xlink:href="#New_Gradient_Swatch_2"/><linearGradient id="New_Gradient_Swatch_2-49" x1="73.79" y1="40.99" x2="78.36" y2="40.99" xlink:href="#New_Gradient_Swatch_2"/><linearGradient id="New_Gradient_Swatch_2-50" x1="398.56" y1="39.29" x2="405.95" y2="39.29" xlink:href="#New_Gradient_Swatch_2"/><linearGradient id="New_Gradient_Swatch_2-51" x1="407.33" y1="39.28" x2="414.72" y2="39.28" xlink:href="#New_Gradient_Swatch_2"/><linearGradient id="New_Gradient_Swatch_2-52" x1="416.11" y1="39.28" x2="423.5" y2="39.28" xlink:href="#New_Gradient_Swatch_2"/><linearGradient id="New_Gradient_Swatch_2-53" x1="424.88" y1="39.27" x2="432.27" y2="39.27" xlink:href="#New_Gradient_Swatch_2"/><linearGradient id="New_Gradient_Swatch_2-54" x1="433.65" y1="39.26" x2="441.04" y2="39.26" xlink:href="#New_Gradient_Swatch_2"/><linearGradient id="New_Gradient_Swatch_2-55" x1="442.42" y1="39.26" x2="449.81" y2="39.26" xlink:href="#New_Gradient_Swatch_2"/><linearGradient id="New_Gradient_Swatch_2-56" x1="451.2" y1="39.25" x2="458.59" y2="39.25" xlink:href="#New_Gradient_Swatch_2"/><linearGradient id="New_Gradient_Swatch_2-57" x1="459.97" y1="39.24" x2="467.36" y2="39.24" xlink:href="#New_Gradient_Swatch_2"/><linearGradient id="New_Gradient_Swatch_2-58" x1="468.74" y1="39.23" x2="476.13" y2="39.23" xlink:href="#New_Gradient_Swatch_2"/><linearGradient id="New_Gradient_Swatch_2-59" x1="477.51" y1="39.23" x2="484.9" y2="39.23" xlink:href="#New_Gradient_Swatch_2"/><linearGradient id="New_Gradient_Swatch_2-60" x1="11.74" y1="28.14" x2="105.38" y2="28.14" xlink:href="#New_Gradient_Swatch_2"/><linearGradient id="New_Gradient_Swatch_2-61" x1="14.61" y1="29.14" x2="78.5" y2="29.14" xlink:href="#New_Gradient_Swatch_2"/><linearGradient id="New_Gradient_Swatch_2-62" x1="22.14" y1="57.84" x2="60.36" y2="57.84" xlink:href="#New_Gradient_Swatch_2"/><linearGradient id="New_Gradient_Swatch_2-63" x1="19.65" y1="51.19" x2="46.37" y2="51.19" xlink:href="#New_Gradient_Swatch_2"/><linearGradient id="New_Gradient_Swatch_2-64" x1="107.44" y1="22.13" x2="248" y2="22.13" xlink:href="#New_Gradient_Swatch_2"/></defs><title>search_purple_blue</title><g id="Layer_2" data-name="Layer 2"><g id="Layer_1-2" data-name="Layer 1"><rect class="cls-1" x="46.15" y="66.76" width="418.17" height="48.05"/><path class="cls-2" d="M473.22,120.69l-435.92.36,0-60.17,435.92-.36ZM38.78,119.57l433-.36L471.69,62l-433,.36Z"/><path class="cls-3" d="M28.93,90.47a3.77,3.77,0,0,1-3.78-3.77l0-38.37a3.77,3.77,0,0,1,3.77-3.79l120.81-.1a3.78,3.78,0,1,1,0,7.56l-117,.1,0,34.59A3.78,3.78,0,0,1,28.93,90.47Z"/><path class="cls-4" d="M244.15,134.3,29,134.48a1.9,1.9,0,0,1-1.9-1.89L27,86.7a1.89,1.89,0,1,1,3.78,0l0,44,213.3-.18a1.89,1.89,0,0,1,0,3.78Z"/><path class="cls-5" d="M481.84,136l-237.69.2a3.78,3.78,0,0,1,0-7.56l233.91-.19,0-22.93a3.78,3.78,0,1,1,7.56,0l0,26.71A3.78,3.78,0,0,1,481.84,136Z"/><path class="cls-6" d="M481.82,109.28a3.78,3.78,0,0,1-3.78-3.77l0-53.78-100.5.08a3.78,3.78,0,1,1,0-7.56l104.27-.08a3.77,3.77,0,0,1,3.78,3.77l.05,57.56A3.78,3.78,0,0,1,481.82,109.28Z"/><path class="cls-7" d="M377.5,49.92l-227.79.19a1.89,1.89,0,0,1,0-3.78l227.79-.19a1.89,1.89,0,0,1,0,3.78Z"/><path class="cls-8" d="M12.25,112.76a.57.57,0,0,1-.52-.34L.05,85.38a.59.59,0,0,1,0-.23L.18,27.41a.6.6,0,0,1,.12-.36l11.43-14a.56.56,0,1,1,.87.72L1.31,27.62,1.13,85,12.77,112a.56.56,0,0,1-.3.74A.44.44,0,0,1,12.25,112.76Z"/><path class="cls-9" d="M124.65,144.12l-100.15.09a2.28,2.28,0,0,1-2.1-1.4L10.15,113.06a2.27,2.27,0,1,1,4.19-1.73L26,139.68l98.63-.08a2.26,2.26,0,1,1,0,4.52Z"/><path class="cls-10" d="M318.13,155.85l-127,.1a.56.56,0,0,1-.44-.21.58.58,0,0,1-.11-.49l3.2-12.88-69.13.06a.57.57,0,0,1-.56-.57.56.56,0,0,1,.56-.56l69.85-.06a.59.59,0,0,1,.45.21.54.54,0,0,1,.1.49l-3.19,12.88,125.82-.1,3-13.33a.56.56,0,0,1,.55-.45l62.93-.05a.55.55,0,0,1,.56.56.57.57,0,0,1-.56.57l-62.48,0-2.95,13.33A.57.57,0,0,1,318.13,155.85Z"/><path class="cls-11" d="M384.11,142a.58.58,0,0,1-.57-.57.56.56,0,0,1,.57-.56l106.54-.1-.29-102.42a.57.57,0,0,1,.56-.57h0a.56.56,0,0,1,.57.56l.3,103a.56.56,0,0,1-.17.4.54.54,0,0,1-.4.17Z"/><path class="cls-12" d="M239,34a.59.59,0,0,1-.45-.23.57.57,0,0,1-.09-.49l3.23-11.79-71.32,0L167.28,33a.58.58,0,0,1-.55.42l-59.68,0a.57.57,0,0,1,0-1.14l59.25,0,3.12-11.42a.58.58,0,0,1,.55-.42l72.49-.06a.55.55,0,0,1,.45.22.57.57,0,0,1,.1.5L239.77,32.9l156.82-.32,3.31-11.9a.57.57,0,0,1,.55-.42l66.38-.05a.57.57,0,0,1,.57.56.58.58,0,0,1-.57.57l-65.95.05L397.57,33.3a.57.57,0,0,1-.54.41L239,34Z"/><path class="cls-13" d="M107.05,34.6l-23.52,0a1.7,1.7,0,0,1-1.21-.5l-18.95-19-51.2,0a1.7,1.7,0,1,1,0-3.39l51.92-.05a1.7,1.7,0,0,1,1.2.5l19,19,22.82,0a1.7,1.7,0,1,1,0,3.4Z"/><polygon class="cls-14" points="366.21 23.33 268.68 23.41 265.61 33.45 369.29 33.36 366.21 23.33"/><polygon class="cls-15" points="304.55 145.69 207.01 145.77 203.95 155.81 307.63 155.72 304.55 145.69"/><polygon class="cls-16" points="270.57 162.59 195.24 162.65 192.85 154.9 272.94 154.84 270.57 162.59"/><polygon class="cls-17" points="60.84 6.97 21.43 7 20.2 14.75 62.09 14.72 60.84 6.97"/><polygon class="cls-18" points="263.43 39.62 165.89 39.7 162.83 49.74 266.51 49.66 263.43 39.62"/><path class="cls-19" d="M188.92,150.41l-165.55.14a.57.57,0,1,1,0-1.14l165.55-.13a.56.56,0,0,1,.56.56A.57.57,0,0,1,188.92,150.41Z"/><path class="cls-20" d="M269,165.36l-77.36.06a.57.57,0,0,1-.54-.41l-2.58-9-165.13.13a.57.57,0,0,1,0-1.13l165.55-.14a.57.57,0,0,1,.55.41l2.58,9.06,76.93-.06a.57.57,0,0,1,.57.56A.58.58,0,0,1,269,165.36Z"/><path class="cls-21" d="M328,155.27h0c-3.48,0-6.22-.55-6.08-1.24l1.82-9.27c.13-.68,3.09-1.25,6.57-1.25h0c3.48,0,6.22.56,6.09,1.24L334.57,154C334.44,154.71,331.48,155.27,328,155.27Z"/><path class="cls-22" d="M345.2,155.26h0c-3.49,0-6.22-.56-6.09-1.25l1.82-9.26c.13-.69,3.09-1.25,6.58-1.26h0c3.48,0,6.22.56,6.08,1.25L351.77,154C351.64,154.69,348.68,155.26,345.2,155.26Z"/><path class="cls-23" d="M362.4,155.25h0c-3.48,0-6.22-.56-6.09-1.25l1.82-9.26c.14-.69,3.1-1.26,6.58-1.26h0c3.48,0,6.22.56,6.09,1.25L369,154C368.84,154.68,365.88,155.24,362.4,155.25Z"/><path class="cls-24" d="M379.6,155.23h0c-3.48,0-6.22-.56-6.08-1.24l1.82-9.27c.13-.69,3.09-1.25,6.57-1.25h0c3.49,0,6.22.55,6.09,1.24L386.18,154C386.05,154.66,383.09,155.23,379.6,155.23Z"/><path class="cls-25" d="M396.81,155.22h0c-3.48,0-6.22-.56-6.09-1.25l1.82-9.26c.13-.69,3.09-1.26,6.58-1.26h0c3.48,0,6.22.56,6.08,1.25L403.38,154C403.25,154.65,400.29,155.21,396.81,155.22Z"/><path class="cls-26" d="M414,155.2h0c-3.48,0-6.22-.55-6.08-1.24l1.81-9.27c.14-.68,3.1-1.25,6.58-1.25h0c3.48,0,6.22.55,6.09,1.24L420.59,154C420.45,154.63,417.49,155.2,414,155.2Z"/><path class="cls-27" d="M431.21,155.19h0c-3.48,0-6.22-.56-6.08-1.25l1.82-9.26c.13-.69,3.09-1.25,6.57-1.26h0c3.49,0,6.22.56,6.09,1.25l-1.82,9.26C437.66,154.62,434.7,155.19,431.21,155.19Z"/><path class="cls-28" d="M448.42,155.17h0c-3.48,0-6.22-.55-6.09-1.24l1.82-9.27c.14-.68,3.09-1.25,6.58-1.25h0c3.48,0,6.22.56,6.08,1.24L455,153.92C454.86,154.61,451.9,155.17,448.42,155.17Z"/><path class="cls-29" d="M465.62,155.16h0c-3.48,0-6.22-.56-6.08-1.24l1.81-9.27c.14-.69,3.1-1.25,6.58-1.26h0c3.48,0,6.22.56,6.09,1.25l-1.82,9.26C472.06,154.59,469.1,155.16,465.62,155.16Z"/><path class="cls-30" d="M482.82,155.15h0c-3.48,0-6.22-.56-6.08-1.25l1.82-9.26c.13-.69,3.09-1.26,6.57-1.26h0c3.49,0,6.22.56,6.09,1.25l-1.82,9.26C489.27,154.58,486.31,155.14,482.82,155.15Z"/><path class="cls-31" d="M185.47,11.79h0c-3.48,0-6.22-.55-6.09-1.24l1.82-9.27C181.33.6,184.29,0,187.78,0h0c3.48,0,6.22.56,6.08,1.24L192,10.54C191.91,11.23,189,11.79,185.47,11.79Z"/><path class="cls-32" d="M202.67,11.78h0c-3.48,0-6.22-.56-6.09-1.25l1.82-9.26C198.54.58,201.5,0,205,0h0c3.48,0,6.22.56,6.09,1.25l-1.82,9.26C209.11,11.21,206.15,11.78,202.67,11.78Z"/><path class="cls-33" d="M219.87,11.77h0c-3.48,0-6.22-.56-6.08-1.25l1.82-9.26C215.74.57,218.7,0,222.18,0h0c3.49,0,6.22.56,6.09,1.25l-1.82,9.26C226.32,11.2,223.36,11.76,219.87,11.77Z"/><path class="cls-34" d="M86.7,170.82h0c-3.48,0-6.22-.55-6.09-1.24l1.82-9.27c.14-.68,3.1-1.25,6.58-1.25h0c3.48,0,6.22.56,6.08,1.24l-1.81,9.27C93.14,170.26,90.18,170.82,86.7,170.82Z"/><path class="cls-35" d="M103.9,170.81h0c-3.48,0-6.22-.56-6.08-1.25l1.81-9.26c.14-.69,3.1-1.25,6.58-1.26h0c3.48,0,6.22.56,6.09,1.25l-1.82,9.26C110.34,170.24,107.38,170.81,103.9,170.81Z"/><path class="cls-36" d="M121.11,170.8h0c-3.49,0-6.23-.56-6.09-1.25l1.82-9.26c.13-.69,3.09-1.26,6.57-1.26h0c3.49,0,6.23.56,6.09,1.25l-1.82,9.26C127.55,170.23,124.59,170.79,121.11,170.8Z"/><path class="cls-37" d="M415.27,16.43h0c-3.48,0-6.22-.56-6.09-1.24L411,5.92c.13-.69,3.09-1.25,6.58-1.25h0c3.48,0,6.22.55,6.08,1.24l-1.82,9.27C421.71,15.86,418.75,16.43,415.27,16.43Z"/><path class="cls-38" d="M432.47,16.42h0c-3.48,0-6.22-.56-6.08-1.25l1.81-9.26c.14-.69,3.1-1.25,6.58-1.26h0c3.48,0,6.22.56,6.09,1.25l-1.82,9.26C438.91,15.85,436,16.42,432.47,16.42Z"/><path class="cls-39" d="M449.67,16.4h0c-3.48,0-6.22-.55-6.08-1.24l1.82-9.27c.13-.68,3.09-1.25,6.57-1.25h0c3.49,0,6.22.56,6.09,1.24l-1.82,9.27C456.12,15.84,453.16,16.4,449.67,16.4Z"/><path class="cls-40" d="M26.88,42.89h0c-1.09,0-2-.18-1.91-.39l.57-2.92c0-.22,1-.4,2.07-.4h0c1.1,0,2,.18,1.92.39L29,42.49C28.92,42.71,28,42.89,26.88,42.89Z"/><path class="cls-41" d="M32.31,42.89h0c-1.1,0-2-.18-1.92-.4L31,39.57c.05-.22,1-.39,2.08-.39h0c1.1,0,2,.17,1.92.39l-.58,2.92C34.34,42.71,33.41,42.88,32.31,42.89Z"/><path class="cls-42" d="M37.73,42.88h0c-1.09,0-2-.17-1.91-.39l.57-2.92c0-.22,1-.4,2.07-.4h0c1.1,0,2,.18,1.92.39l-.57,2.93C39.77,42.7,38.83,42.88,37.73,42.88Z"/><path class="cls-43" d="M43.16,42.88h0c-1.1,0-2-.18-1.92-.4l.57-2.92c0-.21,1-.39,2.08-.39h0c1.1,0,2,.17,1.92.39l-.58,2.92C45.19,42.7,44.26,42.88,43.16,42.88Z"/><path class="cls-44" d="M48.59,42.87h0c-1.1,0-2-.17-1.92-.39l.57-2.92c0-.22,1-.4,2.07-.4h0c1.1,0,2,.18,1.92.39l-.57,2.93C50.62,42.69,49.68,42.87,48.59,42.87Z"/><path class="cls-45" d="M54,42.87h0c-1.1,0-2-.18-1.92-.39l.57-2.93c.05-.21,1-.39,2.08-.39h0c1.1,0,2,.17,1.92.39l-.58,2.92C56,42.69,55.11,42.87,54,42.87Z"/><path class="cls-46" d="M59.44,42.86h0c-1.1,0-2-.17-1.92-.39l.57-2.92c0-.22,1-.4,2.07-.4h0c1.1,0,2,.18,1.92.4l-.57,2.92C61.47,42.68,60.53,42.86,59.44,42.86Z"/><path class="cls-47" d="M64.86,42.86h0c-1.1,0-2-.18-1.92-.39l.57-2.93c.05-.21,1-.39,2.08-.39h0c1.1,0,2,.17,1.92.39l-.58,2.92C66.89,42.68,66,42.86,64.86,42.86Z"/><path class="cls-48" d="M70.29,42.85h0c-1.1,0-2-.17-1.92-.39l.57-2.92c0-.22,1-.4,2.07-.4h0c1.1,0,2,.18,1.92.4l-.57,2.92C72.32,42.68,71.38,42.85,70.29,42.85Z"/><path class="cls-49" d="M75.71,42.85h0c-1.1,0-2-.18-1.92-.39l.57-2.92c0-.22,1-.4,2.08-.4h0c1.1,0,2,.18,1.92.39l-.58,2.92C77.74,42.67,76.81,42.85,75.71,42.85Z"/><path class="cls-50" d="M401.67,42.29h0c-1.78,0-3.17-.28-3.11-.63l.93-4.73c.07-.35,1.58-.64,3.36-.64h0c1.77,0,3.17.29,3.1.64L405,41.65C405,42,403.44,42.29,401.67,42.29Z"/><path class="cls-51" d="M410.44,42.28h0c-1.78,0-3.17-.28-3.1-.63l.92-4.72c.07-.36,1.58-.64,3.36-.65h0c1.77,0,3.17.29,3.1.64l-.93,4.72C413.73,42,412.22,42.28,410.44,42.28Z"/><path class="cls-52" d="M419.21,42.28h0c-1.77,0-3.17-.29-3.1-.64l.93-4.72c.07-.35,1.57-.64,3.35-.64h0c1.78,0,3.17.28,3.1.63l-.92,4.73C422.5,42,421,42.28,419.21,42.28Z"/><path class="cls-53" d="M428,42.27h0c-1.77,0-3.17-.28-3.1-.64l.93-4.72c.07-.35,1.58-.64,3.35-.64h0c1.78,0,3.17.28,3.11.64l-.93,4.72C431.27,42,429.76,42.27,428,42.27Z"/><path class="cls-54" d="M436.76,42.26h0c-1.78,0-3.17-.28-3.11-.63l.93-4.73c.07-.35,1.58-.64,3.35-.64h0c1.78,0,3.18.29,3.11.64l-.93,4.72C440,42,438.53,42.26,436.76,42.26Z"/><path class="cls-55" d="M445.53,42.26h0c-1.78,0-3.17-.29-3.1-.64l.92-4.72c.07-.35,1.58-.64,3.36-.64h0c1.77,0,3.17.28,3.1.63l-.93,4.72C448.81,42,447.31,42.25,445.53,42.26Z"/><path class="cls-56" d="M454.3,42.25h0c-1.77,0-3.17-.29-3.1-.64l.93-4.72c.06-.35,1.57-.64,3.35-.64h0c1.77,0,3.17.28,3.1.63l-.92,4.73C457.59,42,456.08,42.25,454.3,42.25Z"/><path class="cls-57" d="M463.07,42.24h0c-1.77,0-3.17-.28-3.1-.63l.93-4.73c.07-.35,1.58-.64,3.35-.64h0c1.78,0,3.17.29,3.1.64l-.92,4.72C466.36,42,464.85,42.24,463.07,42.24Z"/><path class="cls-58" d="M471.85,42.23h0c-1.78,0-3.18-.28-3.11-.63l.93-4.73c.07-.35,1.58-.63,3.35-.64h0c1.78,0,3.18.29,3.11.64l-.93,4.72C475.13,41.94,473.62,42.23,471.85,42.23Z"/><path class="cls-59" d="M480.62,42.23h0c-1.78,0-3.17-.29-3.1-.64l.92-4.72c.07-.35,1.58-.64,3.36-.64h0c1.77,0,3.17.28,3.1.63L484,41.59C483.9,41.94,482.39,42.22,480.62,42.23Z"/><path class="cls-60" d="M105,37.58l-24.39,0a.43.43,0,0,1-.3-.13L62.58,19.54l-50.41,0a.44.44,0,0,1-.43-.42.43.43,0,0,1,.43-.43l50.59,0a.43.43,0,0,1,.3.13L80.74,36.75l24.21,0a.44.44,0,0,1,.43.42A.43.43,0,0,1,105,37.58Z"/><path class="cls-61" d="M78.08,37.6a.42.42,0,0,1-.3-.12L61.92,21.53,15,21.57a.43.43,0,1,1,0-.85l47.05,0a.43.43,0,0,1,.3.13l16,16.07a.43.43,0,0,1,0,.6A.46.46,0,0,1,78.08,37.6Z"/><path class="cls-62" d="M22.74,79.06a.57.57,0,0,1-.57-.57l0-41.27a.56.56,0,0,1,.56-.56l37.1,0a.56.56,0,0,1,.56.56.57.57,0,0,1-.56.57l-36.53,0,0,40.7A.57.57,0,0,1,22.74,79.06Z"/><path class="cls-63" d="M20.24,68.08a.56.56,0,0,1-.56-.56l0-32.64a.56.56,0,0,1,.56-.56l25.59,0a.57.57,0,0,1,0,1.14l-25,0,0,32.07A.57.57,0,0,1,20.24,68.08Z"/><path class="cls-64" d="M162.81,29.08,108,29.13A.57.57,0,0,1,108,28l54.38,0,3.41-12.32a.56.56,0,0,1,.54-.42l81.1-.07a.58.58,0,0,1,.57.57.57.57,0,0,1-.57.57l-80.67.06-3.4,12.32A.57.57,0,0,1,162.81,29.08Z"/></g></g></svg>