<svg xmlns="http://www.w3.org/2000/svg" xmlns:xlink="http://www.w3.org/1999/xlink" viewBox="0 0 496.35 236.58"><defs><style>.cls-1{mask:url(#mask);filter:url(#luminosity-noclip-3);}.cls-2,.cls-4{mix-blend-mode:multiply;}.cls-2{fill:url(#Безымянный_градиент_73);}.cls-3{mask:url(#mask-2);filter:url(#luminosity-noclip-4);}.cls-4{fill:url(#Безымянный_градиент_72);}.cls-11,.cls-12,.cls-13,.cls-14,.cls-15,.cls-16,.cls-17,.cls-18,.cls-19,.cls-5,.cls-8{fill:#00d0ff;}.cls-6{mask:url(#mask-3);}.cls-7{fill:url(#Безымянный_градиент_30);}.cls-8{opacity:0.2;}.cls-9{mask:url(#mask-4);}.cls-10{fill:url(#Безымянный_градиент_10);}.cls-11{opacity:0.9;}.cls-12{opacity:0.8;}.cls-13{opacity:0.7;}.cls-14{opacity:0.6;}.cls-15{opacity:0.5;}.cls-16{opacity:0.4;}.cls-17{opacity:0.3;}.cls-18{opacity:0.1;}.cls-19{opacity:0.05;}.cls-20{fill:url(#New_Gradient_Swatch_5);}.cls-21{fill:url(#New_Gradient_Swatch_5-2);}.cls-22{fill:url(#New_Gradient_Swatch_5-3);}.cls-23{fill:url(#New_Gradient_Swatch_5-4);}.cls-24{fill:url(#New_Gradient_Swatch_5-5);}.cls-25{fill:url(#New_Gradient_Swatch_5-6);}.cls-26{fill:url(#New_Gradient_Swatch_5-7);}.cls-27{fill:url(#New_Gradient_Swatch_5-8);}.cls-28{fill:url(#New_Gradient_Swatch_5-9);}.cls-29{filter:url(#luminosity-noclip-2);}.cls-30{filter:url(#luminosity-noclip);}</style><filter id="luminosity-noclip" x="67.37" y="-8334.32" width="399.61" height="32766" filterUnits="userSpaceOnUse" color-interpolation-filters="sRGB"><feFlood flood-color="#fff" result="bg"/><feBlend in="SourceGraphic" in2="bg"/></filter><mask id="mask" x="67.37" y="-8334.32" width="399.61" height="32766" maskUnits="userSpaceOnUse"><g class="cls-30"/></mask><linearGradient id="Безымянный_градиент_73" x1="267.17" y1="184.25" x2="267.17" y2="93.21" gradientUnits="userSpaceOnUse"><stop offset="0" stop-color="#fff"/><stop offset="0" stop-color="#f6f6f6"/><stop offset="0.02" stop-color="#c8c8c8"/><stop offset="0.04" stop-color="#9d9d9d"/><stop offset="0.06" stop-color="#777"/><stop offset="0.08" stop-color="#575757"/><stop offset="0.11" stop-color="#3b3b3b"/><stop offset="0.14" stop-color="#252525"/><stop offset="0.17" stop-color="#141414"/><stop offset="0.21" stop-color="#090909"/><stop offset="0.27" stop-color="#020202"/><stop offset="0.43"/><stop offset="0.64" stop-color="#020202"/><stop offset="0.72" stop-color="#090909"/><stop offset="0.77" stop-color="#141414"/><stop offset="0.82" stop-color="#252525"/><stop offset="0.86" stop-color="#3b3b3b"/><stop offset="0.89" stop-color="#575757"/><stop offset="0.92" stop-color="#777"/><stop offset="0.95" stop-color="#9d9d9d"/><stop offset="0.97" stop-color="#c8c8c8"/><stop offset="1" stop-color="#f6f6f6"/><stop offset="1" stop-color="#fff"/></linearGradient><filter id="luminosity-noclip-2" x="6.02" y="-8334.32" width="147.9" height="32766" filterUnits="userSpaceOnUse" color-interpolation-filters="sRGB"><feFlood flood-color="#fff" result="bg"/><feBlend in="SourceGraphic" in2="bg"/></filter><mask id="mask-2" x="6.02" y="-8334.32" width="147.9" height="32766" maskUnits="userSpaceOnUse"><g class="cls-29"/></mask><linearGradient id="Безымянный_градиент_72" x1="6.02" y1="191.06" x2="403.72" y2="191.06" gradientUnits="userSpaceOnUse"><stop offset="0" stop-color="#fff"/><stop offset="0.01" stop-color="#f6f6f6"/><stop offset="0.05" stop-color="#c8c8c8"/><stop offset="0.09" stop-color="#9d9d9d"/><stop offset="0.14" stop-color="#777"/><stop offset="0.2" stop-color="#575757"/><stop offset="0.25" stop-color="#3b3b3b"/><stop offset="0.32" stop-color="#252525"/><stop offset="0.4" stop-color="#141414"/><stop offset="0.49" stop-color="#090909"/><stop offset="0.63" stop-color="#020202"/><stop offset="1"/></linearGradient><filter id="luminosity-noclip-3" x="67.37" y="93.21" width="399.61" height="91.04" filterUnits="userSpaceOnUse" color-interpolation-filters="sRGB"><feFlood flood-color="#fff" result="bg"/><feBlend in="SourceGraphic" in2="bg"/></filter><mask id="mask-3" x="67.37" y="93.21" width="399.61" height="91.04" maskUnits="userSpaceOnUse"><g class="cls-1"><path class="cls-2" d="M467,169.87a14.42,14.42,0,0,1-14.45,14.38H81.81a14.41,14.41,0,0,1-14.44-14.38V107.58A14.41,14.41,0,0,1,81.81,93.21H452.53A14.41,14.41,0,0,1,467,107.58Z"/></g></mask><linearGradient id="Безымянный_градиент_30" x1="267.17" y1="184.25" x2="267.17" y2="93.21" gradientUnits="userSpaceOnUse"><stop offset="0" stop-color="#00d0ff"/><stop offset="0.01" stop-color="#01cdf6"/><stop offset="0.04" stop-color="#05c5db"/><stop offset="0.07" stop-color="#08bec5"/><stop offset="0.11" stop-color="#0bb9b4"/><stop offset="0.16" stop-color="#0db6a9"/><stop offset="0.23" stop-color="#0eb4a2"/><stop offset="0.43" stop-color="#0eb3a0"/><stop offset="0.69" stop-color="#0eb4a2"/><stop offset="0.78" stop-color="#0db6a9"/><stop offset="0.85" stop-color="#0bb9b4"/><stop offset="0.9" stop-color="#08bec5"/><stop offset="0.95" stop-color="#05c5db"/><stop offset="0.99" stop-color="#01cdf6"/><stop offset="1" stop-color="#00d0ff"/></linearGradient><filter id="luminosity-noclip-4" x="6.02" y="145.54" width="147.9" height="91.04" filterUnits="userSpaceOnUse" color-interpolation-filters="sRGB"><feFlood flood-color="#fff" result="bg"/><feBlend in="SourceGraphic" in2="bg"/></filter><mask id="mask-4" x="6.02" y="145.54" width="147.9" height="91.04" maskUnits="userSpaceOnUse"><g class="cls-3"><path class="cls-4" d="M153.92,208.84H76.63a27.82,27.82,0,0,1-27.79-27.79V145.54H20.4A14.38,14.38,0,0,0,6,159.92v62.29A14.37,14.37,0,0,0,20.4,236.58H153.92Z"/></g></mask><linearGradient id="Безымянный_градиент_10" x1="6.02" y1="191.06" x2="403.72" y2="191.06" gradientUnits="userSpaceOnUse"><stop offset="0" stop-color="#00d0ff"/><stop offset="0.02" stop-color="#01cdf6"/><stop offset="0.09" stop-color="#05c5db"/><stop offset="0.17" stop-color="#08bec5"/><stop offset="0.27" stop-color="#0bb9b4"/><stop offset="0.38" stop-color="#0db6a9"/><stop offset="0.55" stop-color="#0eb4a2"/><stop offset="1" stop-color="#0eb3a0"/></linearGradient><linearGradient id="New_Gradient_Swatch_5" x1="194.17" y1="59.31" x2="239.39" y2="59.31" gradientUnits="userSpaceOnUse"><stop offset="0" stop-color="#11e5b3"/><stop offset="0.14" stop-color="#15dcb8"/><stop offset="0.36" stop-color="#21c4c6"/><stop offset="0.64" stop-color="#359edc"/><stop offset="0.97" stop-color="#4f68fb"/><stop offset="1" stop-color="#5263fe"/></linearGradient><linearGradient id="New_Gradient_Swatch_5-2" x1="253.79" y1="59.21" x2="278.46" y2="59.21" xlink:href="#New_Gradient_Swatch_5"/><linearGradient id="New_Gradient_Swatch_5-3" x1="292.86" y1="59.31" x2="339.57" y2="59.31" xlink:href="#New_Gradient_Swatch_5"/><linearGradient id="New_Gradient_Swatch_5-4" x1="382.21" y1="24.3" x2="419.7" y2="24.3" xlink:href="#New_Gradient_Swatch_5"/><linearGradient id="New_Gradient_Swatch_5-5" x1="386.3" y1="36.24" x2="415.6" y2="36.24" xlink:href="#New_Gradient_Swatch_5"/><linearGradient id="New_Gradient_Swatch_5-6" x1="384.97" y1="18.89" x2="416.94" y2="18.89" xlink:href="#New_Gradient_Swatch_5"/><linearGradient id="New_Gradient_Swatch_5-7" x1="107.47" y1="33.35" x2="144.42" y2="33.35" xlink:href="#New_Gradient_Swatch_5"/><linearGradient id="New_Gradient_Swatch_5-8" x1="111.51" y1="21.58" x2="140.39" y2="21.58" xlink:href="#New_Gradient_Swatch_5"/><linearGradient id="New_Gradient_Swatch_5-9" x1="110.19" y1="38.69" x2="141.7" y2="38.69" xlink:href="#New_Gradient_Swatch_5"/></defs><title>sort_name_2</title><g id="Layer_2" data-name="Layer 2"><g id="Layer_1-2" data-name="Layer 1"><polygon class="cls-5" points="494.67 62.77 494.67 61.16 495.14 61.16 494.67 60.8 494.67 50.85 491.66 48.28 490.97 47.69 490.97 57.99 488.06 55.78 453.88 55.78 451.25 57.46 439.33 57.46 436.76 60.47 436.18 61.16 490.97 61.16 490.97 106.66 496.35 99.58 496.35 65.4 494.67 62.77"/><polygon class="cls-5" points="43.62 56.44 42.01 56.44 42.01 55.96 41.65 56.44 31.7 56.44 29.13 59.45 28.54 60.13 38.84 60.13 36.63 63.04 36.63 97.22 38.31 99.85 38.31 111.77 41.32 114.34 42.01 114.93 42.01 60.13 87.51 60.13 80.43 54.76 46.25 54.76 43.62 56.44"/><g class="cls-6"><path class="cls-7" d="M467,169.87a14.42,14.42,0,0,1-14.45,14.38H81.81a14.41,14.41,0,0,1-14.44-14.38V107.58A14.41,14.41,0,0,1,81.81,93.21H452.53A14.41,14.41,0,0,1,467,107.58Z"/></g><path class="cls-5" d="M450.69,93.21a14.38,14.38,0,0,1,14.37,14.37v62.29a14.38,14.38,0,0,1-14.37,14.38H81.74a14.37,14.37,0,0,1-14.37-14.38V107.58A14.37,14.37,0,0,1,81.74,93.21h369m0-4.33H81.74A18.72,18.72,0,0,0,63,107.58v62.29a18.72,18.72,0,0,0,18.7,18.71h369a18.72,18.72,0,0,0,18.7-18.71V107.58a18.72,18.72,0,0,0-18.7-18.7Z"/><path class="cls-8" d="M87.49,177.54H414.58V142a14.37,14.37,0,0,0-14.38-14.37H73.12v35.51A14.37,14.37,0,0,0,87.49,177.54Z"/><g class="cls-9"><path class="cls-10" d="M153.92,208.84H76.63a27.82,27.82,0,0,1-27.79-27.79V145.54H20.4A14.38,14.38,0,0,0,6,159.92v62.29A14.37,14.37,0,0,0,20.4,236.58H153.92Z"/></g><path class="cls-5" d="M64.49,126.49a6,6,0,0,0-7.58,5.76v13a6,6,0,0,0,6,6,5.63,5.63,0,0,0,1.6-.23Z"/><path class="cls-5" d="M468.34,126.49a6.06,6.06,0,0,1,1.6-.22,6,6,0,0,1,6,6v13a6,6,0,0,1-6,6,5.68,5.68,0,0,1-1.6-.23Z"/><path class="cls-5" d="M59.06,141H42.45a.87.87,0,0,1-.87-.87V60.25a.87.87,0,0,1,.87-.86H147.86a.87.87,0,1,1,0,1.73H43.32v78.13H59.06a.87.87,0,1,1,0,1.73Z"/><path class="cls-5" d="M490.93,141H474.32a.87.87,0,0,1,0-1.73h15.75V61.12H385.52a.87.87,0,1,1,0-1.73H490.93a.87.87,0,0,1,.87.86v79.86A.87.87,0,0,1,490.93,141Z"/><path class="cls-5" d="M82.06,120.31a4.47,4.47,0,0,1-4.47,4.47h0a4.47,4.47,0,0,1-4.47-4.47V103.7a4.47,4.47,0,0,1,4.47-4.47h0a4.47,4.47,0,0,1,4.47,4.47Z"/><path class="cls-11" d="M95.14,120.31a4.47,4.47,0,0,1-4.47,4.47h0a4.47,4.47,0,0,1-4.47-4.47V103.7a4.47,4.47,0,0,1,4.47-4.47h0a4.47,4.47,0,0,1,4.47,4.47Z"/><path class="cls-12" d="M108.23,120.31a4.47,4.47,0,0,1-4.47,4.47h0a4.48,4.48,0,0,1-4.48-4.47V103.7a4.48,4.48,0,0,1,4.48-4.47h0a4.47,4.47,0,0,1,4.47,4.47Z"/><path class="cls-13" d="M121.31,120.31a4.47,4.47,0,0,1-4.47,4.47h0a4.47,4.47,0,0,1-4.47-4.47V103.7a4.47,4.47,0,0,1,4.47-4.47h0a4.47,4.47,0,0,1,4.47,4.47Z"/><path class="cls-14" d="M134.4,120.31a4.48,4.48,0,0,1-4.48,4.47h0a4.47,4.47,0,0,1-4.47-4.47V103.7a4.47,4.47,0,0,1,4.47-4.47h0a4.48,4.48,0,0,1,4.48,4.47Z"/><path class="cls-15" d="M147.48,120.31a4.47,4.47,0,0,1-4.47,4.47h0a4.47,4.47,0,0,1-4.47-4.47V103.7A4.47,4.47,0,0,1,143,99.23h0a4.47,4.47,0,0,1,4.47,4.47Z"/><path class="cls-16" d="M160.56,120.31a4.47,4.47,0,0,1-4.47,4.47h0a4.47,4.47,0,0,1-4.47-4.47V103.7a4.47,4.47,0,0,1,4.47-4.47h0a4.47,4.47,0,0,1,4.47,4.47Z"/><path class="cls-17" d="M173.65,120.31a4.47,4.47,0,0,1-4.47,4.47h0a4.48,4.48,0,0,1-4.48-4.47V103.7a4.48,4.48,0,0,1,4.48-4.47h0a4.47,4.47,0,0,1,4.47,4.47Z"/><path class="cls-8" d="M186.73,120.31a4.47,4.47,0,0,1-4.47,4.47h0a4.47,4.47,0,0,1-4.47-4.47V103.7a4.47,4.47,0,0,1,4.47-4.47h0a4.47,4.47,0,0,1,4.47,4.47Z"/><path class="cls-18" d="M199.92,120.31a4.47,4.47,0,0,1-4.47,4.47h0a4.48,4.48,0,0,1-4.48-4.47V103.7a4.48,4.48,0,0,1,4.48-4.47h0a4.47,4.47,0,0,1,4.47,4.47Z"/><path class="cls-19" d="M213.11,120.31a4.48,4.48,0,0,1-4.48,4.47h0a4.47,4.47,0,0,1-4.47-4.47V103.7a4.47,4.47,0,0,1,4.47-4.47h0a4.48,4.48,0,0,1,4.48,4.47Z"/><path class="cls-5" d="M167.67,230.83a4.47,4.47,0,0,1-4.47,4.47h0a4.48,4.48,0,0,1-4.48-4.47V214.22a4.48,4.48,0,0,1,4.48-4.47h0a4.47,4.47,0,0,1,4.47,4.47Z"/><path class="cls-11" d="M180.75,230.83a4.47,4.47,0,0,1-4.47,4.47h0a4.47,4.47,0,0,1-4.47-4.47V214.22a4.47,4.47,0,0,1,4.47-4.47h0a4.47,4.47,0,0,1,4.47,4.47Z"/><path class="cls-12" d="M193.84,230.83a4.48,4.48,0,0,1-4.48,4.47h0a4.47,4.47,0,0,1-4.47-4.47V214.22a4.47,4.47,0,0,1,4.47-4.47h0a4.48,4.48,0,0,1,4.48,4.47Z"/><path class="cls-13" d="M206.92,230.83a4.47,4.47,0,0,1-4.47,4.47h0a4.47,4.47,0,0,1-4.47-4.47V214.22a4.47,4.47,0,0,1,4.47-4.47h0a4.47,4.47,0,0,1,4.47,4.47Z"/><path class="cls-14" d="M220,230.83a4.47,4.47,0,0,1-4.47,4.47h0a4.47,4.47,0,0,1-4.47-4.47V214.22a4.47,4.47,0,0,1,4.47-4.47h0a4.47,4.47,0,0,1,4.47,4.47Z"/><path class="cls-15" d="M233.09,230.83a4.47,4.47,0,0,1-4.47,4.47h0a4.48,4.48,0,0,1-4.48-4.47V214.22a4.48,4.48,0,0,1,4.48-4.47h0a4.47,4.47,0,0,1,4.47,4.47Z"/><path class="cls-16" d="M246.17,230.83a4.47,4.47,0,0,1-4.47,4.47h0a4.47,4.47,0,0,1-4.47-4.47V214.22a4.47,4.47,0,0,1,4.47-4.47h0a4.47,4.47,0,0,1,4.47,4.47Z"/><path class="cls-17" d="M259.26,230.83a4.48,4.48,0,0,1-4.48,4.47h0a4.47,4.47,0,0,1-4.47-4.47V214.22a4.47,4.47,0,0,1,4.47-4.47h0a4.48,4.48,0,0,1,4.48,4.47Z"/><path class="cls-8" d="M272.34,230.83a4.47,4.47,0,0,1-4.47,4.47h0a4.48,4.48,0,0,1-4.48-4.47V214.22a4.48,4.48,0,0,1,4.48-4.47h0a4.47,4.47,0,0,1,4.47,4.47Z"/><path class="cls-18" d="M285.53,230.83a4.48,4.48,0,0,1-4.48,4.47h0a4.47,4.47,0,0,1-4.47-4.47V214.22a4.47,4.47,0,0,1,4.47-4.47h0a4.48,4.48,0,0,1,4.48,4.47Z"/><path class="cls-19" d="M298.71,230.83a4.47,4.47,0,0,1-4.47,4.47h0a4.47,4.47,0,0,1-4.47-4.47V214.22a4.47,4.47,0,0,1,4.47-4.47h0a4.47,4.47,0,0,1,4.47,4.47Z"/><path class="cls-5" d="M.43,220.56a.43.43,0,0,1-.43-.43V155.92a16,16,0,0,1,5.53-11.46c6.75-5.68,17-4.82,17.46-4.78h7.15a.43.43,0,0,1,.43.43.44.44,0,0,1-.43.44H23c-.14,0-10.4-.87-16.86,4.58A15.17,15.17,0,0,0,.86,156v64.17A.44.44,0,0,1,.43,220.56Z"/><path class="cls-5" d="M412,196.13a.44.44,0,0,1-.43-.44.43.43,0,0,1,.43-.43h43.6c.67,0,16.9-1.16,19.22-18.79V159.28a.43.43,0,0,1,.86,0v17.25c-2.42,18.41-19.88,19.59-20.05,19.6Z"/><path class="cls-20" d="M230.51,51.94l8.88-9V75.65h-8.88v-8h-26.3v8h-10V57.17l10-5.23V65.86l5.32-7.15h21Zm0-9v9h-26.3l-10-9Z"/><path class="cls-21" d="M278.46,57.46V61H253.79V57.46Z"/><path class="cls-22" d="M331.65,43l-8,9H292.86l8.07-9ZM330.3,63.46H315.57L296.32,75.65h-3.46v-9l18.48-12.19h26.93Zm-15.6,3.22h24.87l-8,9h-30Zm23.62-14.74H326.37l8.25-9h3.7Z"/><polygon class="cls-23" points="419.7 2.43 414.5 2.5 401.4 17.35 387.93 2.83 382.21 2.9 401.5 46.17 419.7 2.43"/><path class="cls-24" d="M386.3,16l5.13-.08,9.85,12.82,9.58-13.11,4.74-.07L401.38,56.89Zm4.7.82-3.43.05,13.78,37.33,13-37.74-3,.05-10,13.72Z"/><path class="cls-25" d="M385,.23l32-.23L401.23,37.77Zm31.35.19L385.6.64l15.62,36.07Z"/><polygon class="cls-26" points="107.47 54.9 112.6 54.84 125.51 40.2 138.78 54.51 144.42 54.44 125.41 11.79 107.47 54.9"/><path class="cls-27" d="M140.39,41.49l-5,.08-9.71-12.64-9.44,12.93-4.68.07,14-40.7Zm-4.63-.81,3.38,0L125.56,3.84,112.74,41l3,0,9.87-13.52Z"/><path class="cls-28" d="M141.7,57.07l-31.51.23,15.49-37.23Zm-30.89-.18,30.27-.22-15.4-35.55Z"/></g></g></svg>