<svg xmlns="http://www.w3.org/2000/svg" viewBox="0 0 376.8 495.12"><defs><style>.cls-1,.cls-2{fill:#17cffc;}.cls-1{opacity:0.35;}</style></defs><title>square_06</title><g id="Layer_2" data-name="Layer 2"><g id="Layer_1-2" data-name="Layer 1"><polygon class="cls-1" points="14.31 68.67 14.31 294.61 25.9 345.59 25.9 456.82 36.81 481.15 97.87 481.15 109.33 473.04 276.48 473.04 290.38 478.83 328.62 478.83 344.84 455.66 344.84 410.47 335.57 383.82 335.57 242.47 351.79 221.61 351.79 146.3 356.42 146.3 356.42 21.16 37.22 21.16 14.31 68.67"/><path class="cls-2" d="M357.22,20.37V147.09h-4.64v74.79l-16.22,20.86v141l9.27,26.65v45.57L329,479.63H290.22l-13.9-5.79H109.58L98.13,482H36.29L25.11,457V345.68l-11.59-51V68.49l.08-.17L36.72,20.37ZM355.63,145.5V22H37.72L15.11,68.85V294.52l11.59,51V456.65l10.62,23.71h60.3l11.45-8.11H276.64l13.9,5.79H328.2L344,455.41v-44.8L334.77,384V242.2L351,221.34V145.5Z"/><polygon class="cls-2" points="0 158 0 171.58 8.02 171.58 8.02 175.28 0 175.28 0 183.31 8.02 183.31 8.02 187.01 0 187.01 0 195.03 8.02 195.03 8.02 198.74 0 198.74 0 206.76 8.02 206.76 8.02 210.46 0 210.46 0 218.49 8.02 218.49 8.02 222.19 0 222.19 0 232.68 8.02 232.68 8.02 278.97 14.81 298.77 14.81 172.29 14.31 68.67 0 158"/><polygon class="cls-2" points="47.72 486.07 47.72 495.12 52.72 495.12 52.72 488.82 55.63 488.82 55.63 495.12 61.94 495.12 61.94 488.82 64.85 488.82 64.85 495.12 71.15 495.12 71.15 488.82 74.06 488.82 74.06 495.12 80.37 495.12 80.37 488.82 83.28 488.82 83.28 495.12 89.58 495.12 89.58 488.82 92.49 488.82 92.49 495.12 96.21 495.12 96.21 486.07 47.72 486.07"/><polygon class="cls-2" points="357.66 142.52 357.69 147.51 372.48 147.51 372.48 143.2 364.45 143.2 364.45 139.63 372.48 139.63 372.48 131.89 364.45 131.89 364.45 128.32 372.48 128.32 372.48 120.58 364.45 120.58 364.45 117.01 372.48 117.01 372.48 109.27 364.45 109.27 364.45 105.7 372.48 105.7 372.48 97.96 364.45 97.96 364.45 94.39 372.48 94.39 372.48 84.27 364.45 84.27 364.45 39.63 357.66 20.53 357.66 142.52"/><polygon class="cls-2" points="36.19 481.15 45.15 487.58 103.18 487.58 113.79 479.56 275.6 479.56 289.33 485.11 318.65 485.11 330.47 478.83 293.69 478.32 277.76 473.04 109.5 473.04 97.93 481.15 36.19 481.15"/><polygon class="cls-2" points="33.95 348.1 27.77 348.1 25.9 349.35 25.9 456.82 33.95 449.85 33.95 348.1"/><polygon class="cls-2" points="100.6 25.92 116.03 30.24 310.76 30.24 319.83 21.16 37.22 21.16 46.91 25.92 100.6 25.92"/><polygon class="cls-2" points="344.84 455.66 355.81 445 355.81 400.56 344.08 378.96 344.08 323.41 341 311.06 341 258.6 336.06 243.17 335.57 383.82 344.84 410.47 344.84 455.66"/><path class="cls-2" d="M359.3,451.79a.4.4,0,0,1-.08.23L334.53,486a.34.34,0,0,1-.12.12L325.77,491a.36.36,0,0,1-.2.06H284.83a.42.42,0,0,1-.15,0L273,486.13H122.32L114.39,491a.4.4,0,1,1-.42-.68l8-4.94a.36.36,0,0,1,.2-.06H273.11a.4.4,0,0,1,.15,0l11.65,4.91h40.55l8.48-4.84,24.64-33.88a.4.4,0,0,1,.55-.09A.4.4,0,0,1,359.3,451.79Z"/><path class="cls-2" d="M30,483.88a.39.39,0,0,1-.76.15l-10.5-25.92a.77.77,0,0,1,0-.15v-111L.85,280.31a.38.38,0,0,1,0-.1V240.09a.39.39,0,0,1,.39-.4.4.4,0,0,1,.4.4v40.06l17.89,66.61a.34.34,0,0,1,0,.1v111L30,483.73A.4.4,0,0,1,30,483.88Z"/><path class="cls-2" d="M317.33,13a.4.4,0,0,1-.4.4H246.49L234.8,10.89H33.57L8.38,60.66a.4.4,0,1,1-.71-.35l25.3-50a.42.42,0,0,1,.36-.22H234.92l11.69,2.46h70.32A.4.4,0,0,1,317.33,13Z"/><polygon class="cls-2" points="24.69 26.54 24.69 22.22 34.56 2.47 72.83 2.47 83.32 6.79 223.73 6.79 234.84 10.49 33.33 10.49 24.69 26.54"/><polygon class="cls-2" points="202.75 486.35 209.54 490.05 270.02 490.05 281.75 494.37 322.48 494.37 325.57 490.67 284.83 490.67 273.11 485.73 202.75 486.35"/><path class="cls-2" d="M360.53,165.41V258.6a.4.4,0,0,1-.4.4H348.8v54.46l3.68,9.18a.4.4,0,0,1,0,.15v56.7l4.28,9.17a.4.4,0,0,1-.19.53.39.39,0,0,1-.53-.19l-4.32-9.26a.33.33,0,0,1,0-.17v-56.7L348,313.68a.37.37,0,0,1,0-.15V258.6a.39.39,0,0,1,.4-.39h11.32v-92.8a.4.4,0,0,1,.8,0Z"/><polygon class="cls-2" points="352.11 359.82 357.66 368.46 357.66 317.85 353.34 308.6 353.34 263.54 363.83 263.54 363.83 220.96 360.75 212.31 360.13 258.6 348.41 258.6 348.41 313.53 352.11 322.79 352.11 359.82"/><polygon class="cls-2" points="373.49 30.79 373.49 64.19 372.7 64.19 372.7 30.93 363.56 6.57 283.6 6.57 283.6 5.78 364.11 5.78 373.49 30.79"/><polygon class="cls-2" points="315.63 0 309.52 5.55 363.83 5.55 373.09 30.86 373.09 43.2 376.8 38.27 376.8 25.92 365.85 0 315.63 0"/><path class="cls-2" d="M221,37.65a.39.39,0,0,1-.39.4H39.13L24.47,68V174.05a.4.4,0,0,1-.8,0V67.89a.47.47,0,0,1,0-.17L38.53,37.47a.39.39,0,0,1,.35-.22H220.65A.39.39,0,0,1,221,37.65Z"/><path class="cls-2" d="M335.22,409.82v40.11a.46.46,0,0,1-.06.23l-14.2,21a.4.4,0,0,1-.33.18H297.18a.47.47,0,0,1-.17,0l-10.41-4.9H243.48a.4.4,0,0,1,0-.8h43.21a.59.59,0,0,1,.17,0l10.41,4.9h23.15l14-20.71V409.89L324,383.42a.32.32,0,0,1,0-.14V283.91a.4.4,0,1,1,.79,0V383.2l10.47,26.47A.77.77,0,0,1,335.22,409.82Z"/></g></g></svg>