<svg xmlns="http://www.w3.org/2000/svg" viewBox="0 0 493.5 352.32"><defs><style>.cls-1,.cls-2,.cls-3,.cls-4,.cls-5,.cls-6{fill:#17cffc;}.cls-1{opacity:0.35;}.cls-3{opacity:0.2;}.cls-4{opacity:0.6;}.cls-5{opacity:0.8;}.cls-6{opacity:0.4;}</style></defs><title>square_15</title><g id="Layer_2" data-name="Layer 2"><g id="Layer_1-2" data-name="Layer 1"><polygon class="cls-1" points="358.91 15.36 272.25 102.02 12.29 102.02 34.42 125.99 34.42 269.79 12.29 287 12.29 338.01 419.75 338.01 476.9 292.06 476.9 15.36 358.91 15.36"/><path class="cls-2" d="M420,338.8H11.5V286.61l22.12-17.2V126.3L10.48,101.22H271.92l86.66-86.65H477.7V292.44l-.3.24ZM13.08,337.22H419.47l56.64-45.54V16.16H359.23l-86.65,86.65H14.1l21.11,22.87v144.5L13.08,287.39Z"/><path class="cls-2" d="M482.74,338.16a4.61,4.61,0,1,1-4.61-4.6A4.6,4.6,0,0,1,482.74,338.16Z"/><path class="cls-2" d="M9.22,263.65A4.61,4.61,0,1,1,4.61,259,4.62,4.62,0,0,1,9.22,263.65Z"/><polygon class="cls-3" points="253.69 80.81 241.83 92.8 268.56 92.8 280.69 80.81 253.69 80.81"/><polygon class="cls-2" points="334.8 27.35 346.92 15.36 318.43 15.36 306.57 27.35 334.8 27.35"/><polygon class="cls-4" points="284.69 49.47 275.57 58.69 303.08 58.69 312.41 49.47 284.69 49.47"/><polygon class="cls-5" points="300.19 33.8 291.07 43.02 318.94 43.02 328.27 33.8 300.19 33.8"/><polygon class="cls-6" points="287.22 74.36 296.55 65.14 269.19 65.14 260.07 74.36 287.22 74.36"/><polygon class="cls-4" points="11.37 181.79 11.37 201.95 27.04 216.84 27.04 196.68 11.37 181.79"/><polygon class="cls-6" points="27.04 227.01 11.37 212.12 11.37 232.28 27.04 247.17 27.04 227.01"/><polygon class="cls-3" points="11.37 242.45 11.37 278.09 27.04 263.34 27.04 257.34 11.37 242.45"/><polygon class="cls-2" points="27.04 156.18 27.04 133.36 11.37 116.04 11.37 141.29 27.04 156.18"/><polygon class="cls-5" points="11.37 151.47 11.37 171.62 27.04 186.51 27.04 166.35 11.37 151.47"/><rect class="cls-2" x="413.6" y="337.37" width="65.45" height="1.59"/><path class="cls-2" d="M237.22,102,221.55,92.8H90.65V88.19a2.77,2.77,0,0,0-2.77-2.77H13.21a2.77,2.77,0,0,0-2.76,2.77v12a2.77,2.77,0,0,0,2.76,2.77H87.88a2.76,2.76,0,0,0,2.05-.92Z"/><path class="cls-2" d="M476.29,14.21V1.52A2.76,2.76,0,0,0,473.83,0H399.16a2.77,2.77,0,0,0-2.77,2.77v12a2.43,2.43,0,0,0,.08.61H476V88.8a2.76,2.76,0,0,0,.92,2V238l9.22-15.65V91.57h4.61a2.77,2.77,0,0,0,2.77-2.77V14.21Z"/><path class="cls-2" d="M19.67,281.47v49.17H122.3s17.82-2.46,18.44,8H12.29V287Z"/><path class="cls-2" d="M210.18,352.32H4.3a.79.79,0,0,1-.79-.79V264.88a.79.79,0,1,1,1.58,0v85.86h204.3v-6.58a.79.79,0,0,1,.79-.8h94a.8.8,0,0,1,0,1.59H211v6.58A.79.79,0,0,1,210.18,352.32Z"/><path class="cls-2" d="M328.79,345H313.43a.8.8,0,0,1,0-1.59h15.36a.8.8,0,1,1,0,1.59Z"/><path class="cls-2" d="M344.77,345h-8a.8.8,0,0,1,0-1.59h8a.8.8,0,0,1,0,1.59Z"/><path class="cls-2" d="M44.86,149.12a.39.39,0,0,1-.39-.4V121.85L32.3,110.29a.39.39,0,0,1-.1-.43.4.4,0,0,1,.37-.25H283.15L339.58,53.8a.4.4,0,0,1,.56,0,.4.4,0,0,1,0,.56l-56.54,55.93a.39.39,0,0,1-.28.11H33.56l11.58,11a.42.42,0,0,1,.12.28v27A.4.4,0,0,1,44.86,149.12Z"/><polygon class="cls-2" points="408.07 338.01 470.76 288.85 470.76 248.9 476.9 237.99 476.9 292.06 419.75 338.01 408.07 338.01"/><path class="cls-2" d="M482.74,338.16a4.61,4.61,0,1,1-4.61-4.6A4.6,4.6,0,0,1,482.74,338.16Z"/><path class="cls-2" d="M9.22,263.65A4.61,4.61,0,1,1,4.61,259,4.62,4.62,0,0,1,9.22,263.65Z"/><polygon class="cls-3" points="253.69 80.81 241.83 92.8 268.56 92.8 280.69 80.81 253.69 80.81"/><polygon class="cls-2" points="334.8 27.35 346.92 15.36 318.43 15.36 306.57 27.35 334.8 27.35"/><polygon class="cls-4" points="284.69 49.47 275.57 58.69 303.08 58.69 312.41 49.47 284.69 49.47"/><polygon class="cls-5" points="300.19 33.8 291.07 43.02 318.94 43.02 328.27 33.8 300.19 33.8"/><polygon class="cls-6" points="287.22 74.36 296.55 65.14 269.19 65.14 260.07 74.36 287.22 74.36"/><polygon class="cls-4" points="11.37 181.79 11.37 201.95 27.04 216.84 27.04 196.68 11.37 181.79"/><polygon class="cls-6" points="27.04 227.01 11.37 212.12 11.37 232.28 27.04 247.17 27.04 227.01"/><polygon class="cls-3" points="11.37 242.45 11.37 278.09 27.04 263.34 27.04 257.34 11.37 242.45"/><polygon class="cls-2" points="27.04 156.18 27.04 133.36 11.37 116.04 11.37 141.29 27.04 156.18"/><polygon class="cls-5" points="11.37 151.47 11.37 171.62 27.04 186.51 27.04 166.35 11.37 151.47"/><path class="cls-2" d="M237.22,102,221.55,92.8H90.65V88.19a2.77,2.77,0,0,0-2.77-2.77H13.21a2.77,2.77,0,0,0-2.76,2.77v12a2.77,2.77,0,0,0,2.76,2.77H87.88a2.76,2.76,0,0,0,2.05-.92Z"/><path class="cls-2" d="M476.29,14.21V1.52A2.76,2.76,0,0,0,473.83,0H399.16a2.77,2.77,0,0,0-2.77,2.77v12a2.43,2.43,0,0,0,.08.61H476V88.8a2.76,2.76,0,0,0,.92,2V238l9.22-15.65V91.57h4.61a2.77,2.77,0,0,0,2.77-2.77V14.21Z"/><path class="cls-2" d="M19.67,281.47v49.17H122.3s17.82-2.46,18.44,8H12.29V287Z"/><polygon class="cls-2" points="408.07 338.01 470.76 288.85 470.76 248.9 476.9 237.99 476.9 292.06 419.75 338.01 408.07 338.01"/></g></g></svg>