<svg xmlns="http://www.w3.org/2000/svg" xmlns:xlink="http://www.w3.org/1999/xlink" viewBox="0 0 424.99 486.45"><defs><style>.cls-1,.cls-3,.cls-9{fill:#17cffc;}.cls-2{isolation:isolate;}.cls-3{opacity:0.35;}.cls-4{clip-path:url(#clip-path);}.cls-5{clip-path:url(#clip-path-2);}.cls-6{clip-path:url(#clip-path-3);}.cls-7{clip-path:url(#clip-path-4);}.cls-8{clip-path:url(#clip-path-5);}.cls-9{opacity:0.55;mix-blend-mode:screen;}</style><clipPath id="clip-path"><polygon id="SVGID" class="cls-1" points="258.45 82.04 247.16 89.86 252.45 89.86 263.73 82.04 258.45 82.04"/></clipPath><clipPath id="clip-path-2"><polygon id="SVGID-2" data-name="SVGID" class="cls-1" points="246.82 82.04 235.53 89.86 240.81 89.86 252.1 82.04 246.82 82.04"/></clipPath><clipPath id="clip-path-3"><polygon id="SVGID-3" data-name="SVGID" class="cls-1" points="235.18 82.04 223.9 89.86 229.18 89.86 240.47 82.04 235.18 82.04"/></clipPath><clipPath id="clip-path-4"><polygon id="SVGID-4" data-name="SVGID" class="cls-1" points="223.55 82.04 212.26 89.86 217.54 89.86 228.83 82.04 223.55 82.04"/></clipPath><clipPath id="clip-path-5"><polygon id="SVGID-5" data-name="SVGID" class="cls-1" points="211.92 82.04 200.63 89.86 205.91 89.86 217.2 82.04 211.92 82.04"/></clipPath></defs><title>square_02_01_1</title><g class="cls-2"><g id="Layer_2" data-name="Layer 2"><g id="Layer_1-2" data-name="Layer 1"><polygon class="cls-3" points="402.43 334.86 402.43 168.72 412.66 150.06 412.66 73.61 345.63 73.61 340.88 82.64 270.45 82.64 260.52 89.41 152.62 89.41 132.31 83.54 42.92 83.54 36.18 73.61 18.99 73.61 18.99 121.47 27.11 141.78 27.11 285.8 18.99 306.11 18.99 467.28 72.77 467.28 87.61 454.64 136.97 454.64 150.21 443.2 253.75 443.2 261.57 452.23 357.88 452.23 361.47 467.28 412.66 467.28 412.66 340.27 402.43 334.86"/><path class="cls-1" d="M413.56,468.19H360.75l-3.58-15.05h-96l-7.83-9H150.55l-13.24,11.43H87.94L73.1,468.19h-55V305.94l8.12-20.32V142l-8.12-20.32V72.71H36.65l6.74,9.93h89l20.32,5.87H260.24l9.93-6.77h70.16l4.76-9h68.47v77.58L403.33,169V334.31l10.23,5.42Zm-51.38-1.81h49.58V340.82l-10.24-5.42V168.49l10.24-18.66V74.51H346.18l-4.76,9H270.73l-9.93,6.78-108.43,0-20.19-5.83H42.44L35.7,74.51H19.89v46.78L28,141.61V286l-8.13,20.32V466.38H72.44l14.84-12.64h49.35l13.25-11.44H254.16l7.82,9H358.6Z"/><path class="cls-1" d="M424.38,63.36,411.4,55a1.58,1.58,0,0,0-.85-.24,1.64,1.64,0,0,0-.86.24l-12.32,7.95H346.1a1.4,1.4,0,0,0-1.46,1.31V72.8a1.4,1.4,0,0,0,1.46,1.32h64.45a1.59,1.59,0,0,0,.85-.25l13-8.37a1.24,1.24,0,0,0,0-2.14Z"/><path class="cls-1" d="M423,477.83l-10.1,8.37a1,1,0,0,1-1.33,0L402,478.26H362.13a1.24,1.24,0,0,1-1.14-1.32v-8.55a1.24,1.24,0,0,1,1.14-1.31h50.13a1,1,0,0,1,.66.24l10.1,8.37a1.39,1.39,0,0,1,.47,1.07A1.38,1.38,0,0,1,423,477.83Z"/><path class="cls-1" d="M8.62,63.12.25,72.86A1,1,0,0,0,0,73.5a.94.94,0,0,0,.25.64l7.94,9.25v38.48A1.22,1.22,0,0,0,9.51,123h8.55a1.22,1.22,0,0,0,1.31-1.1V73.5a1,1,0,0,0-.24-.64l-8.38-9.74a1.46,1.46,0,0,0-2.13,0Z"/><path class="cls-1" d="M19,306.11s-12-1.36-11.44,6.52v86.72l6.62,4.85v54L19,468.49S19.59,303.84,19,306.11Z"/><path class="cls-1" d="M412.91,469s12,1.09,11.43-5.22V394.43l-6.62-3.88V347.38l-4.81-8.25S412.3,470.84,412.91,469Z"/><polygon class="cls-1" points="401.82 177.52 401.82 183.57 412.66 165.87 412.66 159.82 401.82 177.52"/><polygon class="cls-1" points="401.82 197.42 412.66 179.72 412.66 173.66 401.82 191.37 401.82 197.42"/><polygon class="cls-1" points="401.82 211.26 412.66 193.56 412.66 187.51 401.82 205.21 401.82 211.26"/><polygon class="cls-1" points="401.82 225.11 412.66 207.4 412.66 201.35 401.82 219.05 401.82 225.11"/><polygon class="cls-1" points="401.82 238.95 412.66 221.25 412.66 215.19 401.82 232.9 401.82 238.95"/><polygon class="cls-1" points="256.5 452.23 249.1 443.2 245.02 443.2 252.41 452.23 256.5 452.23"/><polygon class="cls-1" points="248.7 452.23 241.3 443.2 237.21 443.2 244.61 452.23 248.7 452.23"/><polygon class="cls-1" points="240.89 452.23 233.49 443.2 229.41 443.2 236.81 452.23 240.89 452.23"/><polygon class="cls-1" points="233.09 452.23 225.69 443.2 221.6 443.2 229 452.23 233.09 452.23"/><polygon class="cls-1" points="225.28 452.23 217.88 443.2 213.8 443.2 221.19 452.23 225.28 452.23"/><polygon id="SVGID-11" data-name="SVGID" class="cls-1" points="258.45 82.04 247.16 89.86 252.45 89.86 263.73 82.04 258.45 82.04"/><g class="cls-4"><rect class="cls-1" x="247.16" y="82.04" width="16.57" height="7.83"/><path class="cls-1" d="M264.64,90.77H250.86v4.56a25.87,25.87,0,0,1-4.63-6.55h0V81.14h18.38Z"/><path class="cls-1" d="M264.67,91c-3.84,1.91-9-.61-11.5-5.64A12,12,0,0,1,252,77.85v3.29h12.66v9.63Z"/></g><polygon id="SVGID-12" data-name="SVGID" class="cls-1" points="246.82 82.04 235.53 89.86 240.81 89.86 252.1 82.04 246.82 82.04"/><g class="cls-5"><rect class="cls-1" x="235.53" y="82.04" width="16.57" height="7.83"/><path class="cls-1" d="M253,90.77H239.23v4.56a26.16,26.16,0,0,1-4.64-6.55h0V81.14H253Z"/><path class="cls-1" d="M253,91c-3.83,1.91-9-.61-11.49-5.64a12,12,0,0,1-1.19-7.46v3.29H253v9.63Z"/></g><polygon id="SVGID-13" data-name="SVGID" class="cls-1" points="235.18 82.04 223.9 89.86 229.18 89.86 240.47 82.04 235.18 82.04"/><g class="cls-6"><rect class="cls-1" x="223.9" y="82.04" width="16.57" height="7.83"/><path class="cls-1" d="M241.37,90.77H227.6v4.56A25.9,25.9,0,0,1,223,88.78h0V81.14h18.38Z"/><path class="cls-1" d="M241.4,91c-3.83,1.91-9-.61-11.5-5.64a12,12,0,0,1-1.19-7.46v3.29h12.66v9.63Z"/></g><polygon id="SVGID-14" data-name="SVGID" class="cls-1" points="223.55 82.04 212.26 89.86 217.54 89.86 228.83 82.04 223.55 82.04"/><g class="cls-7"><rect class="cls-1" x="212.26" y="82.04" width="16.57" height="7.83"/><path class="cls-1" d="M229.73,90.77H216v4.56a25.87,25.87,0,0,1-4.63-6.55h0V81.14h18.37Z"/><path class="cls-1" d="M229.77,91c-3.84,1.91-9-.61-11.5-5.64a12,12,0,0,1-1.19-7.46v3.29h12.65v9.63Z"/></g><polygon id="SVGID-15" data-name="SVGID" class="cls-1" points="211.92 82.04 200.63 89.86 205.91 89.86 217.2 82.04 211.92 82.04"/><g class="cls-8"><rect class="cls-1" x="200.63" y="82.04" width="16.57" height="7.83"/><path class="cls-1" d="M218.1,90.77H204.33v4.56a26.16,26.16,0,0,1-4.64-6.55h0V81.14H218.1Z"/><path class="cls-1" d="M218.13,91c-3.83,1.91-9-.61-11.5-5.64a11.94,11.94,0,0,1-1.18-7.46v3.29H218.1v9.63Z"/></g><path class="cls-1" d="M357.58,446.67H260.26a.42.42,0,0,1-.34-.17L252.08,437H148.89L138.77,446a.44.44,0,0,1-.63,0,.45.45,0,0,1,0-.64l10.24-9a.46.46,0,0,1,.3-.11H252.3a.42.42,0,0,1,.34.17l7.84,9.46h97.1a.46.46,0,0,1,0,.91Z"/><path class="cls-1" d="M29.22,305.21a.46.46,0,0,1-.2,0,.45.45,0,0,1-.2-.6L36.6,289V142.9l-6-21a.45.45,0,0,1,.87-.25l6,21.07a.51.51,0,0,1,0,.13V289.11a.46.46,0,0,1,0,.2L29.63,305A.45.45,0,0,1,29.22,305.21Z"/><polygon class="cls-1" points="403.03 79.33 403.03 143.44 391.59 166.91 391.59 201.22 397.61 193.7 397.61 167.51 408.45 145.84 408.45 79.03 403.03 79.33"/><path class="cls-1" d="M391.59,211V328.84l6,3.61V203.34C395.68,205.85,393.56,208.57,391.59,211Z"/><path class="cls-1" d="M424.38,63.36,411.4,55a1.58,1.58,0,0,0-.85-.24,1.64,1.64,0,0,0-.86.24l-12.32,7.95H346.1a1.4,1.4,0,0,0-1.46,1.31V72.8a1.4,1.4,0,0,0,1.46,1.32h64.45a1.59,1.59,0,0,0,.85-.25l13-8.37a1.24,1.24,0,0,0,0-2.14Z"/><path class="cls-1" d="M423,477.83l-10.1,8.37a1,1,0,0,1-1.33,0L402,478.26H362.13a1.24,1.24,0,0,1-1.14-1.32v-8.55a1.24,1.24,0,0,1,1.14-1.31h50.13a1,1,0,0,1,.66.24l10.1,8.37a1.39,1.39,0,0,1,.47,1.07A1.38,1.38,0,0,1,423,477.83Z"/><path class="cls-1" d="M8.62,63.12.25,72.86A1,1,0,0,0,0,73.5a.94.94,0,0,0,.25.64l7.94,9.25v38.48A1.22,1.22,0,0,0,9.51,123h8.55a1.22,1.22,0,0,0,1.31-1.1V73.5a1,1,0,0,0-.24-.64l-8.38-9.74a1.46,1.46,0,0,0-2.13,0Z"/><path class="cls-1" d="M19,306.11s-12-1.36-11.44,6.52v86.72l6.62,4.85v54L19,468.49S19.59,303.84,19,306.11Z"/><path class="cls-1" d="M412.91,469s12,1.09,11.43-5.22V394.43l-6.62-3.88V347.38l-4.81-8.25S412.3,470.84,412.91,469Z"/><polygon class="cls-1" points="401.82 177.52 401.82 183.57 412.66 165.87 412.66 159.82 401.82 177.52"/><polygon class="cls-1" points="401.82 197.42 412.66 179.72 412.66 173.66 401.82 191.37 401.82 197.42"/><polygon class="cls-1" points="401.82 211.26 412.66 193.56 412.66 187.51 401.82 205.21 401.82 211.26"/><polygon class="cls-1" points="401.82 225.11 412.66 207.4 412.66 201.35 401.82 219.05 401.82 225.11"/><polygon class="cls-1" points="401.82 238.95 412.66 221.25 412.66 215.19 401.82 232.9 401.82 238.95"/><polygon class="cls-1" points="256.5 452.23 249.1 443.2 245.02 443.2 252.41 452.23 256.5 452.23"/><polygon class="cls-1" points="248.7 452.23 241.3 443.2 237.21 443.2 244.61 452.23 248.7 452.23"/><polygon class="cls-1" points="240.89 452.23 233.49 443.2 229.41 443.2 236.81 452.23 240.89 452.23"/><polygon class="cls-1" points="233.09 452.23 225.69 443.2 221.6 443.2 229 452.23 233.09 452.23"/><polygon class="cls-1" points="225.28 452.23 217.88 443.2 213.8 443.2 221.19 452.23 225.28 452.23"/><polygon id="SVGID-16" data-name="SVGID" class="cls-1" points="258.45 82.04 247.16 89.86 252.45 89.86 263.73 82.04 258.45 82.04"/><g class="cls-4"><rect class="cls-1" x="247.16" y="82.04" width="16.57" height="7.83"/><path class="cls-1" d="M264.64,90.77H250.86v4.56a25.87,25.87,0,0,1-4.63-6.55h0V81.14h18.38Z"/><path class="cls-1" d="M264.67,91c-3.84,1.91-9-.61-11.5-5.64A12,12,0,0,1,252,77.85v3.29h12.66v9.63Z"/></g><polygon id="SVGID-17" data-name="SVGID" class="cls-1" points="246.82 82.04 235.53 89.86 240.81 89.86 252.1 82.04 246.82 82.04"/><g class="cls-5"><rect class="cls-1" x="235.53" y="82.04" width="16.57" height="7.83"/><path class="cls-1" d="M253,90.77H239.23v4.56a26.16,26.16,0,0,1-4.64-6.55h0V81.14H253Z"/><path class="cls-1" d="M253,91c-3.83,1.91-9-.61-11.49-5.64a12,12,0,0,1-1.19-7.46v3.29H253v9.63Z"/></g><polygon id="SVGID-18" data-name="SVGID" class="cls-1" points="235.18 82.04 223.9 89.86 229.18 89.86 240.47 82.04 235.18 82.04"/><g class="cls-6"><rect class="cls-1" x="223.9" y="82.04" width="16.57" height="7.83"/><path class="cls-1" d="M241.37,90.77H227.6v4.56A25.9,25.9,0,0,1,223,88.78h0V81.14h18.38Z"/><path class="cls-1" d="M241.4,91c-3.83,1.91-9-.61-11.5-5.64a12,12,0,0,1-1.19-7.46v3.29h12.66v9.63Z"/></g><polygon id="SVGID-19" data-name="SVGID" class="cls-1" points="223.55 82.04 212.26 89.86 217.54 89.86 228.83 82.04 223.55 82.04"/><g class="cls-7"><rect class="cls-1" x="212.26" y="82.04" width="16.57" height="7.83"/><path class="cls-1" d="M229.73,90.77H216v4.56a25.87,25.87,0,0,1-4.63-6.55h0V81.14h18.37Z"/><path class="cls-1" d="M229.77,91c-3.84,1.91-9-.61-11.5-5.64a12,12,0,0,1-1.19-7.46v3.29h12.65v9.63Z"/></g><polygon id="SVGID-20" data-name="SVGID" class="cls-1" points="211.92 82.04 200.63 89.86 205.91 89.86 217.2 82.04 211.92 82.04"/><g class="cls-8"><rect class="cls-1" x="200.63" y="82.04" width="16.57" height="7.83"/><path class="cls-1" d="M218.1,90.77H204.33v4.56a26.16,26.16,0,0,1-4.64-6.55h0V81.14H218.1Z"/><path class="cls-1" d="M218.13,91c-3.83,1.91-9-.61-11.5-5.64a11.94,11.94,0,0,1-1.18-7.46v3.29H218.1v9.63Z"/></g><polygon class="cls-1" points="403.03 79.33 403.03 143.44 391.59 166.91 391.59 201.22 397.61 193.7 397.61 167.51 408.45 145.84 408.45 79.03 403.03 79.33"/><path class="cls-1" d="M391.59,211V328.84l6,3.61V203.34C395.68,205.85,393.56,208.57,391.59,211Z"/><rect class="cls-9" x="57" y="5.17" width="264.22" height="60.45"/><polygon class="cls-1" points="52.44 17.64 51.9 17.64 51.9 0 325.13 0 325.13 4.63 324.59 4.63 324.59 0.54 52.44 0.54 52.44 17.64"/><polygon class="cls-1" points="325.13 70.12 51.9 70.12 51.9 27.69 52.44 27.69 52.44 69.58 324.59 69.58 324.59 14.67 325.13 14.67 325.13 70.12"/><rect class="cls-1" x="322.78" y="4" width="4.35" height="0.54" transform="translate(92.34 231.21) rotate(-45.04)"/><rect class="cls-1" x="322.78" y="14.25" width="4.35" height="0.54" transform="translate(85.17 234.31) rotate(-45.07)"/><rect class="cls-1" x="50" y="17.33" width="4.35" height="0.54" transform="translate(2.86 42.08) rotate(-45.04)"/><rect class="cls-1" x="50" y="27.58" width="4.35" height="0.54" transform="translate(-4.39 45.11) rotate(-45.07)"/><polygon class="cls-1" points="52.17 59.33 60.68 67.84 79.74 67.84 81.78 69.87 52.17 69.87 52.17 59.33"/><polygon class="cls-1" points="324.96 59.33 316.45 67.84 297.39 67.84 295.36 69.87 324.96 69.87 324.96 59.33"/><polygon class="cls-1" points="54.79 14.26 54.25 14.26 54.25 2.46 322.79 2.46 322.79 4.91 322.25 4.91 322.25 3 54.79 3 54.79 14.26"/><polygon class="cls-1" points="55.06 8.14 53.98 8.14 53.98 2.19 67.98 2.19 67.98 3.27 55.06 3.27 55.06 8.14"/><polygon class="cls-1" points="325.67 13.81 325.67 32.12 326.79 33.24 326.79 41.18 324.92 43.05 324.92 14.93 325.67 13.81"/><polygon class="cls-1" points="51.42 28.56 51.42 46.87 50.29 47.99 50.29 55.93 52.17 57.8 52.17 28.37 51.42 28.56"/><path class="cls-1" d="M81.53,26.08H99.69v4.48H85.94Zm0,16.34V31.84h5V42.42Zm22.6-16.34v5.76l-4.44,4.48H88.46V31.84H99.69V30.56ZM88.46,37.93H99.69V36.32h4.44v6.1H88.46Z"/><path class="cls-1" d="M109.75,30.56v7.37h16.32v4.49H109.75l-4.42-4.49V26.08Zm18.19-4.48-4.44,4.48H109.75V26.08ZM112.17,36.32V31.81h13.92l-3.33,4.51Z"/><path class="cls-1" d="M133.56,30.56v1.28h18.19V42.42l-4.44-4.49V36.32H129.14V26.08Zm-4.42,11.86,4.42-4.49h13.75v4.49Zm22.61-16.34-4.44,4.48H133.56V26.08Z"/><path class="cls-1" d="M175.12,26.08l-4.41,4.48H153V26.08Zm-9.81,18.57-5.11-4.49v-9.6l5.11,3Z"/><path class="cls-1" d="M180.74,30.56v1.28h18.19V42.42l-4.44-4.49V36.32H176.32V26.08Zm-4.42,11.86,4.42-4.49h13.75v4.49Zm22.61-16.34-4.44,4.48H180.74V26.08Z"/><path class="cls-1" d="M204.55,30.56v7.37h16.32v4.49H204.55l-4.42-4.49V26.08Zm18.19-4.48-4.44,4.48H204.55V26.08ZM207,36.32V31.81h13.92l-3.33,4.51Z"/><path class="cls-1" d="M229,26.15V35l-5.09,3V26.15ZM234.52,38h15.39l-4.42,4.46H223.94V38Zm5.12-11.83V35l-5.12,3V26.15Z"/><path class="cls-1" d="M255.52,30.56v7.37h16.32v4.49H255.52l-4.41-4.49V26.08Zm18.2-4.48-4.44,4.48H255.52V26.08ZM258,36.32V31.81h13.92l-3.34,4.51Z"/><path class="cls-1" d="M274.91,26.08h18.17v4.48H279.33Zm0,16.34V31.84h5V42.42Zm15-6.1,9.57,6H292l-10.1-6V31.84h11.23V30.56l4.42-4.48V36.32Z"/></g></g></g></svg>