<svg xmlns="http://www.w3.org/2000/svg" xmlns:xlink="http://www.w3.org/1999/xlink" viewBox="0 0 419.65 492.95"><defs><style>.cls-1{mask:url(#mask);filter:url(#luminosity-noclip-2);}.cls-2{mix-blend-mode:multiply;fill:url(#linear-gradient);}.cls-11,.cls-3,.cls-5,.cls-6,.cls-7,.cls-8{fill:#17cffc;}.cls-4{isolation:isolate;}.cls-5{opacity:0.35;}.cls-6{opacity:0.7;}.cls-7{opacity:0.4;}.cls-8{opacity:0.2;}.cls-9{mask:url(#mask-2);}.cls-10{clip-path:url(#clip-path);}.cls-11{opacity:0.55;mix-blend-mode:screen;}.cls-12{filter:url(#luminosity-noclip);}</style><filter id="luminosity-noclip" x="0" y="-8438.66" width="22.24" height="32766" filterUnits="userSpaceOnUse" color-interpolation-filters="sRGB"><feFlood flood-color="#fff" result="bg"/><feBlend in="SourceGraphic" in2="bg"/></filter><mask id="mask" x="0" y="-8438.66" width="22.24" height="32766" maskUnits="userSpaceOnUse"><g class="cls-12"/></mask><linearGradient id="linear-gradient" x1="11.12" y1="111.91" x2="11.12" y2="272.12" gradientUnits="userSpaceOnUse"><stop offset="0" stop-color="#fff"/><stop offset="0.1" stop-color="#efefef"/><stop offset="0.29" stop-color="#c4c4c4"/><stop offset="0.55" stop-color="#7f7f7f"/><stop offset="0.88" stop-color="#212121"/><stop offset="0.99"/></linearGradient><filter id="luminosity-noclip-2" x="0" y="111.91" width="22.24" height="160.21" filterUnits="userSpaceOnUse" color-interpolation-filters="sRGB"><feFlood flood-color="#fff" result="bg"/><feBlend in="SourceGraphic" in2="bg"/></filter><mask id="mask-2" x="0" y="111.91" width="22.24" height="160.21" maskUnits="userSpaceOnUse"><g class="cls-1"><path class="cls-2" d="M2.33,112l-.14,0a1.61,1.61,0,0,0-.54-.09A1.68,1.68,0,0,0,0,113.62v16.93a1.71,1.71,0,0,0,1.19,1.65l12,3.61v6l-11-3.31a1.61,1.61,0,0,0-.54-.09A1.68,1.68,0,0,0,0,140.16v16.93a1.71,1.71,0,0,0,1.19,1.65l12,3.61v6l-11-3.31a1.61,1.61,0,0,0-.54-.09A1.68,1.68,0,0,0,0,166.7v16.93a1.71,1.71,0,0,0,1.19,1.65l12,3.61v6l-11-3.31a1.61,1.61,0,0,0-.54-.09A1.68,1.68,0,0,0,0,193.24v16.93a1.71,1.71,0,0,0,1.19,1.65L18.58,217v13.53l-4.47-1.34a.54.54,0,0,0-.22,0,.68.68,0,0,0-.67.69v6.87a.68.68,0,0,0,.49.66l4.87,1.47v2.45L14.11,240a.54.54,0,0,0-.22,0,.68.68,0,0,0-.67.69v6.87a.68.68,0,0,0,.49.66l4.87,1.47v2.45l-4.47-1.34a.54.54,0,0,0-.22,0,.68.68,0,0,0-.67.69v6.87a.68.68,0,0,0,.49.66l4.87,1.47v2.45l-4.47-1.35a.78.78,0,0,0-.22,0,.68.68,0,0,0-.67.69V269a.68.68,0,0,0,.49.66l8,2.41a.64.64,0,0,0,.49,0V120.69C15.57,118,8,114.62,2.33,112Z"/></g></mask><clipPath id="clip-path"><polygon id="SVGID" class="cls-3" points="391.1 382.06 389.3 382.06 389.3 296.39 380.29 285.74 380.29 113.4 382.09 113.4 382.09 285.08 391.1 295.73 391.1 382.06"/></clipPath></defs><title>square_03</title><g class="cls-4"><g id="Layer_2" data-name="Layer 2"><g id="Layer_1-2" data-name="Layer 1"><path class="cls-5" d="M391.91,275.68V110.41l-12.53-9.63H234.23L223,110.41H32.15L22.07,120V271.47l10.08,9.21V400.77l-5.28,7.74V459.6c0,1.8,5.28,10.57,5.28,10.57H391.91l12.72-22.29V289.2Z"/><path class="cls-3" d="M392.43,471.07H31.64l-.26-.44c-1.27-2.1-5.41-9.13-5.41-11V408.23l5.28-7.73V281.07l-10.09-9.2V119.62l10.63-10.11H222.66l11.24-9.64H379.69L392.81,110V275.33l12.72,13.51V448.11Zm-359.77-1.8H391.38l12.35-21.63V289.56L391,276V110.86l-11.92-9.18H234.57l-11.25,9.63H32.51L23,120.4V271.07l10.08,9.21V401.05l-5.27,7.74V459.6C27.78,460.52,30.26,465.24,32.66,469.27Z"/><rect class="cls-6" x="397.69" y="112.05" width="8.41" height="22.84"/><rect class="cls-7" x="397.69" y="142.7" width="8.41" height="22.84"/><rect class="cls-7" x="397.69" y="173.36" width="8.41" height="22.84"/><polygon class="cls-8" points="397.69 234.66 397.69 267.12 406.11 276.74 406.11 234.66 397.69 234.66"/><rect class="cls-8" x="397.69" y="204.01" width="8.41" height="22.84"/><path class="cls-3" d="M379.09,101.08a1.81,1.81,0,0,0,.16-.35L381,94.11a1.57,1.57,0,0,0-.31-1.41,1.73,1.73,0,0,0-1.35-.64h-43l3.3-11a1.62,1.62,0,0,0,.1-.54A1.68,1.68,0,0,0,338,78.84H321A1.7,1.7,0,0,0,319.39,80l-3.6,12h-6l3.3-11a1.62,1.62,0,0,0,.1-.54,1.68,1.68,0,0,0-1.71-1.65H294.5A1.7,1.7,0,0,0,292.85,80l-3.6,12H283.2l3.31-11a1.62,1.62,0,0,0,.1-.54,1.68,1.68,0,0,0-1.71-1.65H268A1.7,1.7,0,0,0,266.31,80l-3.6,12h-6L260,81a1.62,1.62,0,0,0,.1-.54,1.68,1.68,0,0,0-1.71-1.65H241.42A1.7,1.7,0,0,0,239.77,80l-5.94,19.84a1.56,1.56,0,0,0,.13,1.21Z"/><path class="cls-3" d="M230.87,470.72H31.33a1.39,1.39,0,0,0-.16.35l-1.71,6.61a1.63,1.63,0,0,0,.31,1.42,1.74,1.74,0,0,0,1.35.63h43l-3.31,11a1.61,1.61,0,0,0-.09.54A1.68,1.68,0,0,0,72.45,493H89.38A1.7,1.7,0,0,0,91,491.76l3.6-12h6.05l-3.31,11a1.61,1.61,0,0,0-.09.54A1.68,1.68,0,0,0,99,493h16.93a1.7,1.7,0,0,0,1.65-1.19l3.6-12h6l-3.31,11a1.61,1.61,0,0,0-.09.54,1.68,1.68,0,0,0,1.71,1.65h16.93a1.7,1.7,0,0,0,1.65-1.19l3.61-12h6l-3.31,11a1.61,1.61,0,0,0-.09.54,1.68,1.68,0,0,0,1.71,1.65H169a1.7,1.7,0,0,0,1.65-1.19l5.21-17.39h13.53l-1.34,4.47a.54.54,0,0,0,0,.22.68.68,0,0,0,.69.67h6.87a.68.68,0,0,0,.66-.48l1.47-4.88h2.45l-1.34,4.47a.54.54,0,0,0,0,.22.68.68,0,0,0,.69.67h6.87a.68.68,0,0,0,.66-.48l1.47-4.88h2.45l-1.35,4.47a.78.78,0,0,0,0,.22.68.68,0,0,0,.69.67h6.87a.68.68,0,0,0,.66-.48l1.47-4.88h2.44l-1.34,4.47a.78.78,0,0,0,0,.22.68.68,0,0,0,.69.67h6.87a.68.68,0,0,0,.66-.48l2.41-8A.64.64,0,0,0,230.87,470.72Z"/><path class="cls-3" d="M399.52,479.28H234.83a.45.45,0,1,1,0-.9H399.25l15.44-28.51V375.45a.46.46,0,0,1,.91,0V450a.39.39,0,0,1-.06.21L399.91,479A.43.43,0,0,1,399.52,479.28Z"/><path class="cls-3" d="M419.65,374a4.51,4.51,0,1,1-4.5-4.51A4.5,4.5,0,0,1,419.65,374Z"/><path class="cls-3" d="M39.2,450.58a4.51,4.51,0,1,1-4.51-4.51A4.51,4.51,0,0,1,39.2,450.58Z"/><g class="cls-9"><path class="cls-7" d="M2.33,112l-.14,0a1.61,1.61,0,0,0-.54-.09A1.68,1.68,0,0,0,0,113.62v16.93a1.71,1.71,0,0,0,1.19,1.65l12,3.61v6l-11-3.31a1.61,1.61,0,0,0-.54-.09A1.68,1.68,0,0,0,0,140.16v16.93a1.71,1.71,0,0,0,1.19,1.65l12,3.61v6l-11-3.31a1.61,1.61,0,0,0-.54-.09A1.68,1.68,0,0,0,0,166.7v16.93a1.71,1.71,0,0,0,1.19,1.65l12,3.61v6l-11-3.31a1.61,1.61,0,0,0-.54-.09A1.68,1.68,0,0,0,0,193.24v16.93a1.71,1.71,0,0,0,1.19,1.65L18.58,217v13.53l-4.47-1.34a.54.54,0,0,0-.22,0,.68.68,0,0,0-.67.69v6.87a.68.68,0,0,0,.49.66l4.87,1.47v2.45L14.11,240a.54.54,0,0,0-.22,0,.68.68,0,0,0-.67.69v6.87a.68.68,0,0,0,.49.66l4.87,1.47v2.45l-4.47-1.34a.54.54,0,0,0-.22,0,.68.68,0,0,0-.67.69v6.87a.68.68,0,0,0,.49.66l4.87,1.47v2.45l-4.47-1.35a.78.78,0,0,0-.22,0,.68.68,0,0,0-.67.69V269a.68.68,0,0,0,.49.66l8,2.41a.64.64,0,0,0,.49,0V120.69C15.57,118,8,114.62,2.33,112Z"/></g><polygon class="cls-3" points="228.07 118.36 38.59 118.36 38.59 117.45 227.77 117.45 239.49 108.44 334.31 108.44 334.31 109.34 239.79 109.34 228.07 118.36"/><polygon id="SVGID-2" data-name="SVGID" class="cls-3" points="391.1 382.06 389.3 382.06 389.3 296.39 380.29 285.74 380.29 113.4 382.09 113.4 382.09 285.08 391.1 295.73 391.1 382.06"/><g class="cls-10"><rect class="cls-3" x="380.29" y="113.4" width="10.82" height="268.66"/><path class="cls-3" d="M385.69,342.78c-2.18,0-4.36,0-6.52-.12h.21V152.8h-.21c2.16-.08,4.34-.12,6.52-.12s4.37,0,6.53.12H392V342.66h.21Q389,342.78,385.69,342.78Z"/><path class="cls-3" d="M385.69,295.26c-2.18,0-4.34-.09-6.47-.25h.16V200.45h-.16c2.13-.16,4.29-.25,6.47-.25s4.35.09,6.48.25H392V295h.16C390,295.17,387.88,295.26,385.69,295.26Z"/></g><polygon class="cls-3" points="35.44 451.48 34.54 451.48 34.54 414.39 39.95 405.38 39.95 319.86 40.85 319.86 40.85 405.63 35.44 414.64 35.44 451.48"/><polygon class="cls-3" points="230.87 470.72 236.04 462.6 388.7 462.6 400.72 446.98 404.93 376.05 404.93 447.88 391.91 470.17 230.87 470.72"/><polygon class="cls-3" points="42.5 110.99 29.88 122.41 29.88 278.08 22.24 272.04 22.24 120.69 32.15 110.41 42.5 110.99"/><rect class="cls-6" x="397.69" y="112.05" width="8.41" height="22.84"/><rect class="cls-7" x="397.69" y="142.7" width="8.41" height="22.84"/><rect class="cls-7" x="397.69" y="173.36" width="8.41" height="22.84"/><polygon class="cls-8" points="397.69 234.66 397.69 267.12 406.11 276.74 406.11 234.66 397.69 234.66"/><rect class="cls-8" x="397.69" y="204.01" width="8.41" height="22.84"/><path class="cls-3" d="M379.09,101.08a1.81,1.81,0,0,0,.16-.35L381,94.11a1.57,1.57,0,0,0-.31-1.41,1.73,1.73,0,0,0-1.35-.64h-43l3.3-11a1.62,1.62,0,0,0,.1-.54A1.68,1.68,0,0,0,338,78.84H321A1.7,1.7,0,0,0,319.39,80l-3.6,12h-6l3.3-11a1.62,1.62,0,0,0,.1-.54,1.68,1.68,0,0,0-1.71-1.65H294.5A1.7,1.7,0,0,0,292.85,80l-3.6,12H283.2l3.31-11a1.62,1.62,0,0,0,.1-.54,1.68,1.68,0,0,0-1.71-1.65H268A1.7,1.7,0,0,0,266.31,80l-3.6,12h-6L260,81a1.62,1.62,0,0,0,.1-.54,1.68,1.68,0,0,0-1.71-1.65H241.42A1.7,1.7,0,0,0,239.77,80l-5.94,19.84a1.56,1.56,0,0,0,.13,1.21Z"/><path class="cls-3" d="M230.87,470.72H31.33a1.39,1.39,0,0,0-.16.35l-1.71,6.61a1.63,1.63,0,0,0,.31,1.42,1.74,1.74,0,0,0,1.35.63h43l-3.31,11a1.61,1.61,0,0,0-.09.54A1.68,1.68,0,0,0,72.45,493H89.38A1.7,1.7,0,0,0,91,491.76l3.6-12h6.05l-3.31,11a1.61,1.61,0,0,0-.09.54A1.68,1.68,0,0,0,99,493h16.93a1.7,1.7,0,0,0,1.65-1.19l3.6-12h6l-3.31,11a1.61,1.61,0,0,0-.09.54,1.68,1.68,0,0,0,1.71,1.65h16.93a1.7,1.7,0,0,0,1.65-1.19l3.61-12h6l-3.31,11a1.61,1.61,0,0,0-.09.54,1.68,1.68,0,0,0,1.71,1.65H169a1.7,1.7,0,0,0,1.65-1.19l5.21-17.39h13.53l-1.34,4.47a.54.54,0,0,0,0,.22.68.68,0,0,0,.69.67h6.87a.68.68,0,0,0,.66-.48l1.47-4.88h2.45l-1.34,4.47a.54.54,0,0,0,0,.22.68.68,0,0,0,.69.67h6.87a.68.68,0,0,0,.66-.48l1.47-4.88h2.45l-1.35,4.47a.78.78,0,0,0,0,.22.68.68,0,0,0,.69.67h6.87a.68.68,0,0,0,.66-.48l1.47-4.88h2.44l-1.34,4.47a.78.78,0,0,0,0,.22.68.68,0,0,0,.69.67h6.87a.68.68,0,0,0,.66-.48l2.41-8A.64.64,0,0,0,230.87,470.72Z"/><path class="cls-3" d="M419.65,374a4.51,4.51,0,1,1-4.5-4.51A4.5,4.5,0,0,1,419.65,374Z"/><path class="cls-3" d="M39.2,450.58a4.51,4.51,0,1,1-4.51-4.51A4.51,4.51,0,0,1,39.2,450.58Z"/><polygon class="cls-3" points="230.87 470.72 236.04 462.6 388.7 462.6 400.72 446.98 404.93 376.05 404.93 447.88 391.91 470.17 230.87 470.72"/><polygon class="cls-3" points="42.5 110.99 29.88 122.41 29.88 278.08 22.24 272.04 22.24 120.69 32.15 110.41 42.5 110.99"/><rect class="cls-3" x="39.73" y="3.83" width="74.22" height="0.55"/><rect class="cls-3" x="34.74" y="88.38" width="79.2" height="0.55"/><rect class="cls-3" x="14.58" y="33.03" width="0.55" height="35.73"/><rect class="cls-3" x="238.21" y="33.11" width="0.55" height="33.27"/><rect class="cls-3" x="139.54" y="88.38" width="63.8" height="0.55"/><rect class="cls-3" x="139.54" y="3.83" width="69.94" height="0.55"/><path class="cls-3" d="M131.23,4.15a4.15,4.15,0,1,0-4.15,4.14A4.15,4.15,0,0,0,131.23,4.15Z"/><path class="cls-3" d="M27.54,13.14a4,4,0,1,0-4,4A4,4,0,0,0,27.54,13.14Z"/><path class="cls-3" d="M228.35,78.74a1.91,1.91,0,1,0-1.91,1.91A1.9,1.9,0,0,0,228.35,78.74Z"/><path class="cls-3" d="M22.84,84.83a1.91,1.91,0,1,0-1.91,1.91A1.9,1.9,0,0,0,22.84,84.83Z"/><path class="cls-3" d="M235.52,12.17a4.38,4.38,0,1,0-4.37,4.38A4.37,4.37,0,0,0,235.52,12.17Z"/><path class="cls-3" d="M129,88.51a1.91,1.91,0,1,0-1.91,1.91A1.91,1.91,0,0,0,129,88.51Z"/><polygon class="cls-11" points="231.12 25.74 231.12 66.38 225.63 66.38 210.64 81.37 27.45 81.37 21.32 75.23 21.32 26.57 31.52 16.37 39.73 16.37 39.73 11.76 217.14 11.76 231.12 25.74"/><polygon class="cls-3" points="210.7 81.83 210.31 81.44 225.51 66.24 231.07 66.24 231.07 66.79 225.74 66.79 210.7 81.83"/><rect class="cls-3" x="223.85" y="8.86" width="0.55" height="19.77" transform="translate(52.39 163.97) rotate(-45)"/><polygon class="cls-3" points="21.45 26.69 21.05 26.3 31.54 15.82 39.86 15.82 39.86 16.37 31.77 16.37 21.45 26.69"/><polygon class="cls-3" points="59.1 91.75 61.42 94.06 85.12 94.06 87.07 96.02 103.73 96.02 108.91 90.84 58.11 90.84 59.1 91.75"/><polygon class="cls-3" points="194.93 91.75 192.61 94.06 168.91 94.06 166.95 96.02 150.3 96.02 145.12 90.84 195.91 90.84 194.93 91.75"/><path class="cls-3" d="M61.26,64.69H53.57L49.22,48.08,44.87,64.69H37.18L28.52,34.33H37l4.26,16.41,4.19-16.41H53l4.18,16.41,4.26-16.41h8.45Z"/><path class="cls-3" d="M86.37,64.69,85.22,60.6H75.09l-1.26,4.09H65.69v-.08L76,34.33h8.28L94.62,64.61v.08ZM80.11,44l-2.55,8.78h5.16Z"/><path class="cls-3" d="M113.75,64.69l-7.91-11.16V48.68h7.69V42.56H104.6V64.69H96.69V34.33h22.08a2.24,2.24,0,0,1,1.94,1.1,5.21,5.21,0,0,1,.73,2.92V51.86a4.94,4.94,0,0,1-.73,2.86,2.26,2.26,0,0,1-1.94,1H116.3l6.48,8.62v.32Z"/><path class="cls-3" d="M143,64.69l-10.21-16v16h-7.91V34.33h7.83L142.9,49V34.33h7.91V64.69Z"/><path class="cls-3" d="M154.74,64.69V34.33h7.91V64.69Z"/><path class="cls-3" d="M184.7,64.69l-10.21-16v16h-7.91V34.33h7.83L184.59,49V34.33h7.91V64.69Z"/><path class="cls-3" d="M221.64,63.6a2.22,2.22,0,0,1-1.95,1.09H199a2.15,2.15,0,0,1-1.92-1.09,5.42,5.42,0,0,1-.69-2.92V38.35a5.13,5.13,0,0,1,.73-2.92,2.26,2.26,0,0,1,2-1.1h20.57a2.23,2.23,0,0,1,1.95,1.1,5.22,5.22,0,0,1,.71,2.92v6.59h-7.91V42.56h-10.1V56.47h10.1V54.28H206.7V46.73h15.65v14A5.24,5.24,0,0,1,221.64,63.6Z"/></g></g></g></svg>