<svg xmlns="http://www.w3.org/2000/svg" xmlns:xlink="http://www.w3.org/1999/xlink" viewBox="0 0 488.62 327.52"><defs><style>.cls-1,.cls-10,.cls-2,.cls-3,.cls-4,.cls-5,.cls-6,.cls-7,.cls-8,.cls-9{fill:#17cffc;}.cls-2{opacity:0.35;}.cls-3{opacity:0.2;}.cls-4{opacity:0.3;}.cls-5{opacity:0.8;}.cls-6{opacity:0.4;}.cls-7{opacity:0.7;}.cls-8{opacity:0.1;}.cls-9{opacity:0.6;}.cls-10{opacity:0.5;}.cls-11{clip-path:url(#clip-path);}.cls-12{clip-path:url(#clip-path-2);}</style><clipPath id="clip-path"><path id="SVGID" class="cls-1" d="M59.35,54.71a.35.35,0,0,1-.26-.12.36.36,0,0,1,0-.5L77.7,36.92a.38.38,0,0,1,.25-.09H280.32a.36.36,0,1,1,0,.71H78.09L59.6,54.61A.35.35,0,0,1,59.35,54.71Z"/></clipPath><clipPath id="clip-path-2"><polygon id="SVGID-2" data-name="SVGID" class="cls-1" points="436.94 30.75 451.24 47.91 451.24 130.87 447.66 143.74 447.66 180.21 460.53 198.09 460.53 28.89 436.94 30.75"/></clipPath></defs><title>square_09</title><g id="Layer_2" data-name="Layer 2"><g id="Layer_1-2" data-name="Layer 1"><path class="cls-2" d="M303.3,278.27H461V28.89H73.4C54.58,46.15,32.55,66.16,15.31,81.26V302.41H278.17Z"/><path class="cls-1" d="M278.45,303.12H14.59V80.94l.25-.22C29.39,68,48.93,50.36,72.92,28.36l.2-.19H461.7V279H303.59ZM16,301.69H277.88L303,277.56H460.26V29.61H73.68C49.91,51.4,30.52,68.89,16,81.59Z"/><polygon class="cls-3" points="488.62 239.05 488.62 218.61 470.3 208.94 470.44 229.45 488.62 239.05"/><polygon class="cls-4" points="488.62 213.66 488.62 193.22 470.14 183.46 470.27 203.97 488.62 213.66"/><polygon class="cls-5" points="469.87 56.34 469.87 76.78 488.62 86.69 488.62 66.25 469.87 56.34"/><polygon class="cls-6" points="469.98 157.97 470.11 178.49 488.62 188.26 488.62 167.82 469.98 157.97"/><polygon class="cls-7" points="488.62 112.08 488.62 91.64 469.87 81.74 469.87 102.18 488.62 112.08"/><polygon class="cls-8" points="488.62 244 470.47 234.42 470.59 253 488.62 261.73 488.62 244"/><polygon class="cls-9" points="488.62 137.48 488.62 117.03 469.87 107.13 469.87 127.57 488.62 137.48"/><polygon class="cls-10" points="488.62 162.87 488.62 142.43 469.87 132.52 469.87 141.44 469.94 153.01 488.62 162.87"/><polygon class="cls-1" points="488.62 61.3 488.62 40.59 469.87 30.27 469.87 51.39 488.62 61.3"/><polygon class="cls-3" points="48.66 292.68 69.1 292.68 78.77 274.36 58.26 274.5 48.66 292.68"/><polygon class="cls-4" points="74.05 292.68 94.49 292.68 104.25 274.2 83.74 274.33 74.05 292.68"/><polygon class="cls-5" points="231.37 273.93 210.92 273.93 201.02 292.68 221.46 292.68 231.37 273.93"/><polygon class="cls-6" points="129.73 274.03 109.22 274.17 99.44 292.68 119.89 292.68 129.73 274.03"/><polygon class="cls-7" points="175.63 292.68 196.07 292.68 205.97 273.93 185.53 273.93 175.63 292.68"/><polygon class="cls-8" points="43.7 292.68 53.29 274.53 34.71 274.65 25.98 292.68 43.7 292.68"/><polygon class="cls-9" points="150.23 292.68 170.67 292.68 180.58 273.93 160.13 273.93 150.23 292.68"/><polygon class="cls-10" points="124.84 292.68 145.28 292.68 155.18 273.93 146.27 273.93 134.7 274 124.84 292.68"/><polygon class="cls-1" points="226.41 292.68 247.12 292.68 257.44 273.93 236.32 273.93 226.41 292.68"/><polygon class="cls-1" points="80.81 303.07 14.4 303.07 15.31 79.83 7.15 88.73 7.15 154.9 0 175.04 0 293 14.3 327.52 14.35 316.01 14.37 310.98 70.08 310.98 80.81 303.07"/><polygon class="cls-1" points="71.25 28.89 80.19 22.88 179.26 22.88 190.83 16.45 250.84 16.45 265.31 29.32 71.25 28.89"/><polygon class="cls-1" points="420.49 278.89 409.76 291.05 471.26 291.05 471.26 266.02 461.61 255.3 461.61 278.27 420.49 278.89"/><path class="cls-1" d="M458.39,23.6H271a.33.33,0,0,1-.25-.11l-8.59-8.58a.35.35,0,0,1,0-.5.36.36,0,0,1,.51,0l8.48,8.47H458.39a.36.36,0,0,1,0,.72Z"/><path class="cls-1" d="M481.27,298.56H395.46a.36.36,0,0,1-.33-.21.35.35,0,0,1,.06-.38l10.2-11.57H311.07a.36.36,0,0,1,0-.71h95.11a.35.35,0,0,1,.33.21.33.33,0,0,1-.06.38l-10.2,11.56h85a.36.36,0,0,1,0,.72Z"/><path id="SVGID-4" data-name="SVGID" class="cls-1" d="M59.35,54.71a.35.35,0,0,1-.26-.12.36.36,0,0,1,0-.5L77.7,36.92a.38.38,0,0,1,.25-.09H280.32a.36.36,0,1,1,0,.71H78.09L59.6,54.61A.35.35,0,0,1,59.35,54.71Z"/><g class="cls-11"><rect class="cls-1" x="58.96" y="36.83" width="221.73" height="17.88"/><path class="cls-1" d="M91.21,45.77c0-2.56,0-5.11.1-7.63,0-1.27.08-2.53.13-3.78v1.75h156.8V34.36c0,1.25.1,2.51.13,3.78.07,2.52.1,5.07.1,7.63s0,5.1-.1,7.63c0,1.26-.08,2.52-.13,3.78V55.42H91.44v1.76c0-1.26-.1-2.52-.13-3.78Q91.2,49.61,91.21,45.77Z"/><path class="cls-1" d="M130.52,45.77q0-3.84.21-7.58c.06-1.25.15-2.49.25-3.71v1.63H208.7V34.48c.1,1.22.19,2.46.25,3.71q.21,3.73.21,7.58c0,2.56-.07,5.08-.21,7.58-.06,1.24-.15,2.48-.25,3.71V55.42H131v1.64c-.1-1.23-.19-2.47-.25-3.71C130.59,50.85,130.52,48.33,130.52,45.77Z"/></g><polygon id="SVGID-5" data-name="SVGID" class="cls-1" points="436.94 30.75 451.24 47.91 451.24 130.87 447.66 143.74 447.66 180.21 460.53 198.09 460.53 28.89 436.94 30.75"/><g class="cls-12"><rect class="cls-1" x="436.93" y="28.89" width="23.6" height="169.2"/><polygon class="cls-1" points="436.22 113.49 436.22 32.96 436.22 28.17 461.25 28.17 461.25 198.8 436.22 198.8 436.22 113.49"/><path class="cls-1" d="M436.22,113.49V66.27h-4.37A31.62,31.62,0,0,1,437,61a17.66,17.66,0,0,1,23.51,0,31.62,31.62,0,0,1,5.13,5.25h-4.37v94.44h4.37a32,32,0,0,1-5.13,5.25A17.69,17.69,0,0,1,437,166a32,32,0,0,1-5.13-5.25h4.37Z"/></g><path class="cls-1" d="M.72,139.81a.36.36,0,0,1-.36-.36V81.52a.36.36,0,0,1,.11-.26L82.71,4.74a.36.36,0,0,1,.49.53L1.07,81.68v57.77A.36.36,0,0,1,.72,139.81Z"/><path class="cls-1" d="M88,5a5,5,0,1,1-5-5A5,5,0,0,1,88,5Z"/><path class="cls-1" d="M487,297.49a5,5,0,1,1-5-5A5,5,0,0,1,487,297.49Z"/><polygon class="cls-3" points="488.62 239.05 488.62 218.61 470.3 208.94 470.44 229.45 488.62 239.05"/><polygon class="cls-4" points="488.62 213.66 488.62 193.22 470.14 183.46 470.27 203.97 488.62 213.66"/><polygon class="cls-5" points="469.87 56.34 469.87 76.78 488.62 86.69 488.62 66.25 469.87 56.34"/><polygon class="cls-6" points="469.98 157.97 470.11 178.49 488.62 188.26 488.62 167.82 469.98 157.97"/><polygon class="cls-7" points="488.62 112.08 488.62 91.64 469.87 81.74 469.87 102.18 488.62 112.08"/><polygon class="cls-8" points="488.62 244 470.47 234.42 470.59 253 488.62 261.73 488.62 244"/><polygon class="cls-9" points="488.62 137.48 488.62 117.03 469.87 107.13 469.87 127.57 488.62 137.48"/><polygon class="cls-10" points="488.62 162.87 488.62 142.43 469.87 132.52 469.87 141.44 469.94 153.01 488.62 162.87"/><polygon class="cls-1" points="488.62 61.3 488.62 40.59 469.87 30.27 469.87 51.39 488.62 61.3"/><polygon class="cls-3" points="48.66 292.68 69.1 292.68 78.77 274.36 58.26 274.5 48.66 292.68"/><polygon class="cls-4" points="74.05 292.68 94.49 292.68 104.25 274.2 83.74 274.33 74.05 292.68"/><polygon class="cls-5" points="231.37 273.93 210.92 273.93 201.02 292.68 221.46 292.68 231.37 273.93"/><polygon class="cls-6" points="129.73 274.03 109.22 274.17 99.44 292.68 119.89 292.68 129.73 274.03"/><polygon class="cls-7" points="175.63 292.68 196.07 292.68 205.97 273.93 185.53 273.93 175.63 292.68"/><polygon class="cls-8" points="43.7 292.68 53.29 274.53 34.71 274.65 25.98 292.68 43.7 292.68"/><polygon class="cls-9" points="150.23 292.68 170.67 292.68 180.58 273.93 160.13 273.93 150.23 292.68"/><polygon class="cls-10" points="124.84 292.68 145.28 292.68 155.18 273.93 146.27 273.93 134.7 274 124.84 292.68"/><polygon class="cls-1" points="226.41 292.68 247.12 292.68 257.44 273.93 236.32 273.93 226.41 292.68"/><polygon class="cls-1" points="80.81 303.07 14.4 303.07 15.31 79.83 7.15 88.73 7.15 154.9 0 175.04 0 293 14.3 327.52 14.35 316.01 14.37 310.98 70.08 310.98 80.81 303.07"/><polygon class="cls-1" points="71.25 28.89 80.19 22.88 179.26 22.88 190.83 16.45 250.84 16.45 265.31 29.32 71.25 28.89"/><polygon class="cls-1" points="420.49 278.89 409.76 291.05 471.26 291.05 471.26 266.02 461.61 255.3 461.61 278.27 420.49 278.89"/><polygon id="SVGID-6" data-name="SVGID" class="cls-1" points="436.94 30.75 451.24 47.91 451.24 130.87 447.66 143.74 447.66 180.21 460.53 198.09 460.53 28.89 436.94 30.75"/><g class="cls-12"><rect class="cls-1" x="436.93" y="28.89" width="23.6" height="169.2"/><polygon class="cls-1" points="436.22 113.49 436.22 32.96 436.22 28.17 461.25 28.17 461.25 198.8 436.22 198.8 436.22 113.49"/><path class="cls-1" d="M436.22,113.49V66.27h-4.37A31.62,31.62,0,0,1,437,61a17.66,17.66,0,0,1,23.51,0,31.62,31.62,0,0,1,5.13,5.25h-4.37v94.44h4.37a32,32,0,0,1-5.13,5.25A17.69,17.69,0,0,1,437,166a32,32,0,0,1-5.13-5.25h4.37Z"/></g><path class="cls-1" d="M88,5a5,5,0,1,1-5-5A5,5,0,0,1,88,5Z"/><path class="cls-1" d="M487,297.49a5,5,0,1,1-5-5A5,5,0,0,1,487,297.49Z"/></g></g></svg>