<svg xmlns="http://www.w3.org/2000/svg" xmlns:xlink="http://www.w3.org/1999/xlink" viewBox="0 0 425.01 486.45"><defs><style>.cls-1{fill:none;}.cls-2,.cls-3,.cls-9{fill:#17cffc;}.cls-2{opacity:0.35;}.cls-2,.cls-9{isolation:isolate;}.cls-4{clip-path:url(#clip-path);}.cls-5{clip-path:url(#clip-path-2);}.cls-6{clip-path:url(#clip-path-3);}.cls-7{clip-path:url(#clip-path-4);}.cls-8{clip-path:url(#clip-path-5);}.cls-9{opacity:0.55;}</style><clipPath id="clip-path"><polygon class="cls-1" points="258.45 82.04 247.16 89.86 252.45 89.86 263.73 82.04 258.45 82.04"/></clipPath><clipPath id="clip-path-2"><polygon class="cls-1" points="246.82 82.04 235.53 89.86 240.81 89.86 252.1 82.04 246.82 82.04"/></clipPath><clipPath id="clip-path-3"><polygon class="cls-1" points="235.18 82.04 223.9 89.86 229.18 89.86 240.47 82.04 235.18 82.04"/></clipPath><clipPath id="clip-path-4"><polygon class="cls-1" points="223.55 82.04 212.26 89.86 217.54 89.86 228.83 82.04 223.55 82.04"/></clipPath><clipPath id="clip-path-5"><polygon class="cls-1" points="211.92 82.04 200.63 89.86 205.91 89.86 217.2 82.04 211.92 82.04"/></clipPath></defs><title>square_02_02</title><g id="Layer_2" data-name="Layer 2"><g id="Layer_1-2" data-name="Layer 1"><g id="Layer_2-2" data-name="Layer 2"><g id="Layer_1-2-2" data-name="Layer 1-2"><polygon class="cls-2" points="402.43 334.86 402.43 168.72 412.66 150.06 412.66 73.61 345.63 73.61 340.88 82.64 270.45 82.64 260.52 89.41 152.62 89.41 132.31 83.54 42.92 83.54 36.18 73.61 18.99 73.61 18.99 121.47 27.11 141.78 27.11 285.8 18.99 306.11 18.99 467.28 72.77 467.28 87.61 454.64 136.97 454.64 150.21 443.2 253.75 443.2 261.57 452.23 357.88 452.23 361.47 467.28 412.66 467.28 412.66 340.27 402.43 334.86"/><path class="cls-3" d="M413.56,468.19H360.75l-3.58-15.05h-96l-7.83-9H150.55l-13.24,11.43H87.94L73.1,468.19h-55V305.94l8.12-20.32V142L18.1,121.68v-49H36.65l6.74,9.93h89l20.32,5.87H260.24l9.93-6.77h70.16l4.76-9h68.47v77.58L403.33,169V334.31l10.23,5.42Zm-51.38-1.81h49.58V340.82l-10.24-5.42V168.49l10.24-18.66V74.51H346.18l-4.76,9H270.73l-9.93,6.78H152.37l-20.19-5.83H42.44L35.7,74.51H19.89v46.78L28,141.61V286l-8.13,20.32V466.38H72.44l14.84-12.64h49.35l13.25-11.44H254.16l7.82,9H358.6Z"/><path class="cls-3" d="M424.38,63.36,411.4,55a1.58,1.58,0,0,0-.85-.24,1.64,1.64,0,0,0-.86.24l-12.32,8H346.1a1.41,1.41,0,0,0-1.46,1.31V72.8a1.4,1.4,0,0,0,1.46,1.32h64.45a1.59,1.59,0,0,0,.85-.25l13-8.37a1.24,1.24,0,0,0,0-2.14Z"/><path class="cls-3" d="M423,477.83l-10.1,8.37a1,1,0,0,1-1.33,0L402,478.26H362.13a1.23,1.23,0,0,1-1.14-1.32v-8.55a1.24,1.24,0,0,1,1.14-1.31h50.13a1,1,0,0,1,.66.24l10.1,8.37a1.37,1.37,0,0,1,.47,1.07A1.42,1.42,0,0,1,423,477.83Z"/><path class="cls-3" d="M8.62,63.12.25,72.86A1,1,0,0,0,0,73.5a.93.93,0,0,0,.25.64l7.94,9.25v38.48A1.22,1.22,0,0,0,9.49,123h8.57a1.22,1.22,0,0,0,1.31-1.1V73.5a1,1,0,0,0-.24-.64l-8.38-9.74a1.46,1.46,0,0,0-2.06-.07Z"/><path class="cls-3" d="M19,306.11s-12-1.36-11.44,6.52v86.72l6.62,4.85v54L19,468.49S19.59,303.84,19,306.11Z"/><path class="cls-3" d="M412.91,469s12,1.09,11.43-5.22V394.43l-6.62-3.88V347.38l-4.81-8.25S412.3,470.84,412.91,469Z"/><polygon class="cls-3" points="401.82 177.52 401.82 183.57 412.66 165.87 412.66 159.82 401.82 177.52"/><polygon class="cls-3" points="401.82 197.42 412.66 179.72 412.66 173.66 401.82 191.37 401.82 197.42"/><polygon class="cls-3" points="401.82 211.26 412.66 193.56 412.66 187.51 401.82 205.21 401.82 211.26"/><polygon class="cls-3" points="401.82 225.11 412.66 207.4 412.66 201.35 401.82 219.05 401.82 225.11"/><polygon class="cls-3" points="401.82 238.95 412.66 221.25 412.66 215.19 401.82 232.9 401.82 238.95"/><polygon class="cls-3" points="256.5 452.23 249.1 443.2 245.02 443.2 252.41 452.23 256.5 452.23"/><polygon class="cls-3" points="248.7 452.23 241.3 443.2 237.21 443.2 244.61 452.23 248.7 452.23"/><polygon class="cls-3" points="240.89 452.23 233.49 443.2 229.41 443.2 236.81 452.23 240.89 452.23"/><polygon class="cls-3" points="233.09 452.23 225.69 443.2 221.6 443.2 229 452.23 233.09 452.23"/><polygon class="cls-3" points="225.28 452.23 217.88 443.2 213.8 443.2 221.19 452.23 225.28 452.23"/><polygon id="SVGID-11" class="cls-3" points="258.45 82.04 247.16 89.86 252.45 89.86 263.73 82.04 258.45 82.04"/><g class="cls-4"><rect class="cls-3" x="247.16" y="82.04" width="16.57" height="7.83"/><path class="cls-3" d="M264.64,90.77H250.86v4.56a25.92,25.92,0,0,1-4.63-6.55h0V81.14h18.38Z"/><path class="cls-3" d="M264.67,91c-3.84,1.91-9-.61-11.5-5.64A12.05,12.05,0,0,1,252,77.85v3.29h12.66V91Z"/></g><polygon id="SVGID-12" class="cls-3" points="246.82 82.04 235.53 89.86 240.81 89.86 252.1 82.04 246.82 82.04"/><g class="cls-5"><rect class="cls-3" x="235.53" y="82.04" width="16.57" height="7.83"/><path class="cls-3" d="M253,90.77H239.23v4.56a26.21,26.21,0,0,1-4.64-6.55h0V81.14H253Z"/><path class="cls-3" d="M253,91c-3.83,1.91-9-.61-11.49-5.64a12,12,0,0,1-1.19-7.46v3.29H253V91Z"/></g><polygon id="SVGID-13" class="cls-3" points="235.18 82.04 223.9 89.86 229.18 89.86 240.47 82.04 235.18 82.04"/><g class="cls-6"><rect class="cls-3" x="223.9" y="82.04" width="16.57" height="7.83"/><path class="cls-3" d="M241.37,90.77H227.6v4.56a25.81,25.81,0,0,1-4.6-6.55h0V81.14h18.38Z"/><path class="cls-3" d="M241.4,91c-3.83,1.91-9-.61-11.5-5.64a12,12,0,0,1-1.19-7.46v3.29h12.66v9.63Z"/></g><polygon id="SVGID-14" class="cls-3" points="223.55 82.04 212.26 89.86 217.54 89.86 228.83 82.04 223.55 82.04"/><g class="cls-7"><rect class="cls-3" x="212.26" y="82.04" width="16.57" height="7.83"/><path class="cls-3" d="M229.73,90.77H216v4.56a25.92,25.92,0,0,1-4.63-6.55h0V81.14h18.37Z"/><path class="cls-3" d="M229.77,91c-3.84,1.91-9-.61-11.5-5.64a12,12,0,0,1-1.19-7.46v3.29h12.65v9.63Z"/></g><polygon id="SVGID-15" class="cls-3" points="211.92 82.04 200.63 89.86 205.91 89.86 217.2 82.04 211.92 82.04"/><g class="cls-8"><rect class="cls-3" x="200.63" y="82.04" width="16.57" height="7.83"/><path class="cls-3" d="M218.1,90.77H204.33v4.56a26.21,26.21,0,0,1-4.64-6.55h0V81.14H218.1Z"/><path class="cls-3" d="M218.13,91c-3.83,1.91-9-.61-11.5-5.64a12,12,0,0,1-1.18-7.46v3.29H218.1v9.63Z"/></g><path class="cls-3" d="M357.58,446.67H260.26a.42.42,0,0,1-.34-.17l-7.84-9.5H148.89l-10.12,9a.44.44,0,0,1-.62,0h0a.45.45,0,0,1,0-.64h0l10.24-9a.46.46,0,0,1,.3-.11H252.3a.42.42,0,0,1,.34.17l7.84,9.46h97.1a.46.46,0,0,1,0,.91Z"/><path class="cls-3" d="M29.22,305.21a.67.67,0,0,1-.2,0,.45.45,0,0,1-.2-.6L36.6,289V142.9l-6-21a.45.45,0,0,1,.87-.25h0l6,21.07a.29.29,0,0,1,0,.13V289.11a.67.67,0,0,1,0,.2L29.63,305A.46.46,0,0,1,29.22,305.21Z"/><polygon class="cls-3" points="403.03 79.33 403.03 143.44 391.59 166.91 391.59 201.22 397.61 193.7 397.61 167.51 408.45 145.84 408.45 79.03 403.03 79.33"/><path class="cls-3" d="M391.59,211V328.84l6,3.61V203.34C395.68,205.85,393.56,208.57,391.59,211Z"/><path class="cls-3" d="M424.38,63.36,411.4,55a1.58,1.58,0,0,0-.85-.24,1.64,1.64,0,0,0-.86.24l-12.32,8H346.1a1.41,1.41,0,0,0-1.46,1.31V72.8a1.4,1.4,0,0,0,1.46,1.32h64.45a1.59,1.59,0,0,0,.85-.25l13-8.37a1.24,1.24,0,0,0,0-2.14Z"/><path class="cls-3" d="M423,477.83l-10.1,8.37a1,1,0,0,1-1.33,0L402,478.26H362.13a1.23,1.23,0,0,1-1.14-1.32v-8.55a1.24,1.24,0,0,1,1.14-1.31h50.13a1,1,0,0,1,.66.24l10.1,8.37a1.37,1.37,0,0,1,.47,1.07A1.42,1.42,0,0,1,423,477.83Z"/><path class="cls-3" d="M8.62,63.12.25,72.86A1,1,0,0,0,0,73.5a.93.93,0,0,0,.25.64l7.94,9.25v38.48A1.22,1.22,0,0,0,9.49,123h8.57a1.22,1.22,0,0,0,1.31-1.1V73.5a1,1,0,0,0-.24-.64l-8.38-9.74a1.46,1.46,0,0,0-2.06-.07Z"/><path class="cls-3" d="M19,306.11s-12-1.36-11.44,6.52v86.72l6.62,4.85v54L19,468.49S19.59,303.84,19,306.11Z"/><path class="cls-3" d="M412.91,469s12,1.09,11.43-5.22V394.43l-6.62-3.88V347.38l-4.81-8.25S412.3,470.84,412.91,469Z"/><polygon class="cls-3" points="401.82 177.52 401.82 183.57 412.66 165.87 412.66 159.82 401.82 177.52"/><polygon class="cls-3" points="401.82 197.42 412.66 179.72 412.66 173.66 401.82 191.37 401.82 197.42"/><polygon class="cls-3" points="401.82 211.26 412.66 193.56 412.66 187.51 401.82 205.21 401.82 211.26"/><polygon class="cls-3" points="401.82 225.11 412.66 207.4 412.66 201.35 401.82 219.05 401.82 225.11"/><polygon class="cls-3" points="401.82 238.95 412.66 221.25 412.66 215.19 401.82 232.9 401.82 238.95"/><polygon class="cls-3" points="256.5 452.23 249.1 443.2 245.02 443.2 252.41 452.23 256.5 452.23"/><polygon class="cls-3" points="248.7 452.23 241.3 443.2 237.21 443.2 244.61 452.23 248.7 452.23"/><polygon class="cls-3" points="240.89 452.23 233.49 443.2 229.41 443.2 236.81 452.23 240.89 452.23"/><polygon class="cls-3" points="233.09 452.23 225.69 443.2 221.6 443.2 229 452.23 233.09 452.23"/><polygon class="cls-3" points="225.28 452.23 217.88 443.2 213.8 443.2 221.19 452.23 225.28 452.23"/><polygon id="SVGID-16" class="cls-3" points="258.45 82.04 247.16 89.86 252.45 89.86 263.73 82.04 258.45 82.04"/><g class="cls-4"><rect class="cls-3" x="247.16" y="82.04" width="16.57" height="7.83"/><path class="cls-3" d="M264.64,90.77H250.86v4.56a25.92,25.92,0,0,1-4.63-6.55h0V81.14h18.38Z"/><path class="cls-3" d="M264.67,91c-3.84,1.91-9-.61-11.5-5.64A12.05,12.05,0,0,1,252,77.85v3.29h12.66V91Z"/></g><polygon id="SVGID-17" class="cls-3" points="246.82 82.04 235.53 89.86 240.81 89.86 252.1 82.04 246.82 82.04"/><g class="cls-5"><rect class="cls-3" x="235.53" y="82.04" width="16.57" height="7.83"/><path class="cls-3" d="M253,90.77H239.23v4.56a26.21,26.21,0,0,1-4.64-6.55h0V81.14H253Z"/><path class="cls-3" d="M253,91c-3.83,1.91-9-.61-11.49-5.64a12,12,0,0,1-1.19-7.46v3.29H253V91Z"/></g><polygon id="SVGID-18" class="cls-3" points="235.18 82.04 223.9 89.86 229.18 89.86 240.47 82.04 235.18 82.04"/><g class="cls-6"><rect class="cls-3" x="223.9" y="82.04" width="16.57" height="7.83"/><path class="cls-3" d="M241.37,90.77H227.6v4.56a25.81,25.81,0,0,1-4.6-6.55h0V81.14h18.38Z"/><path class="cls-3" d="M241.4,91c-3.83,1.91-9-.61-11.5-5.64a12,12,0,0,1-1.19-7.46v3.29h12.66v9.63Z"/></g><polygon id="SVGID-19" class="cls-3" points="223.55 82.04 212.26 89.86 217.54 89.86 228.83 82.04 223.55 82.04"/><g class="cls-7"><rect class="cls-3" x="212.26" y="82.04" width="16.57" height="7.83"/><path class="cls-3" d="M229.73,90.77H216v4.56a25.92,25.92,0,0,1-4.63-6.55h0V81.14h18.37Z"/><path class="cls-3" d="M229.77,91c-3.84,1.91-9-.61-11.5-5.64a12,12,0,0,1-1.19-7.46v3.29h12.65v9.63Z"/></g><polygon id="SVGID-20" class="cls-3" points="211.92 82.04 200.63 89.86 205.91 89.86 217.2 82.04 211.92 82.04"/><g class="cls-8"><rect class="cls-3" x="200.63" y="82.04" width="16.57" height="7.83"/><path class="cls-3" d="M218.1,90.77H204.33v4.56a26.21,26.21,0,0,1-4.64-6.55h0V81.14H218.1Z"/><path class="cls-3" d="M218.13,91c-3.83,1.91-9-.61-11.5-5.64a12,12,0,0,1-1.18-7.46v3.29H218.1v9.63Z"/></g><polygon class="cls-3" points="403.03 79.33 403.03 143.44 391.59 166.91 391.59 201.22 397.61 193.7 397.61 167.51 408.45 145.84 408.45 79.03 403.03 79.33"/><path class="cls-3" d="M391.59,211V328.84l6,3.61V203.34C395.68,205.85,393.56,208.57,391.59,211Z"/><rect class="cls-9" x="57" y="5.17" width="264.22" height="60.45"/><polygon class="cls-3" points="52.44 17.64 51.9 17.64 51.9 0 325.13 0 325.13 4.63 324.59 4.63 324.59 0.54 52.44 0.54 52.44 17.64"/><polygon class="cls-3" points="325.13 70.12 51.9 70.12 51.9 27.69 52.44 27.69 52.44 69.58 324.59 69.58 324.59 14.67 325.13 14.67 325.13 70.12"/><rect class="cls-3" x="322.8" y="4.02" width="4.35" height="0.54" transform="translate(92.31 231.21) rotate(-45.04)"/><rect class="cls-3" x="322.77" y="14.24" width="4.35" height="0.54" transform="translate(85.19 234.31) rotate(-45.07)"/><rect class="cls-3" x="50.01" y="17.33" width="4.35" height="0.54" transform="translate(2.86 42.09) rotate(-45.04)"/><rect class="cls-3" x="50" y="27.57" width="4.35" height="0.54" transform="translate(-4.38 45.12) rotate(-45.07)"/><polygon class="cls-3" points="52.17 59.33 60.68 67.84 79.74 67.84 81.78 69.87 52.17 69.87 52.17 59.33"/><polygon class="cls-3" points="324.96 59.33 316.45 67.84 297.39 67.84 295.36 69.87 324.96 69.87 324.96 59.33"/><polygon class="cls-3" points="54.79 14.26 54.25 14.26 54.25 2.46 322.79 2.46 322.79 4.91 322.25 4.91 322.25 3 54.79 3 54.79 14.26"/><polygon class="cls-3" points="55.06 8.14 53.98 8.14 53.98 2.19 67.98 2.19 67.98 3.27 55.06 3.27 55.06 8.14"/><polygon class="cls-3" points="325.67 13.81 325.67 32.12 326.79 33.24 326.79 41.18 324.92 43.05 324.92 14.93 325.67 13.81"/><polygon class="cls-3" points="51.42 28.56 51.42 46.87 50.29 47.99 50.29 55.93 52.17 57.8 52.17 28.37 51.42 28.56"/><path class="cls-3" d="M64,24.59H85.09v5.2h-16Zm0,19V31.27h5.8V43.55Zm26.23-19v6.68l-5.16,5.2h-13v-5.2h13V29.79ZM72.06,38.34h13V36.47h5.16v7.08H72.06Z"/><path class="cls-3" d="M96.77,29.79v8.55h18.94v5.21H96.77l-5.13-5.21V24.59Zm21.11-5.2-5.15,5.2h-16v-5.2ZM99.58,36.47V31.24h16.16l-3.87,5.23Z"/><path class="cls-3" d="M124.41,29.79v1.48h21.11V43.55l-5.15-5.21V36.47H119.28V24.59Zm-5.13,13.76,5.13-5.21h16v5.21Zm26.24-19-5.15,5.2h-16v-5.2Z"/><path class="cls-3" d="M172.65,24.59l-5.12,5.2H147v-5.2ZM161.26,46.14l-5.93-5.21V29.79l5.93,3.48Z"/><path class="cls-3" d="M179.17,29.79v1.48h21.11V43.55l-5.15-5.21V36.47H174V24.59ZM174,43.55l5.13-5.21h16v5.21Zm26.24-19-5.15,5.2h-16v-5.2Z"/><path class="cls-3" d="M206.81,29.79v8.55h18.94v5.21H206.81l-5.13-5.21V24.59Zm21.11-5.2-5.15,5.2h-16v-5.2ZM209.65,36.47V31.24h16.16l-3.87,5.23Z"/><path class="cls-3" d="M235.19,24.67V34.94l-5.91,3.48V24.67Zm6.4,13.75h17.87l-5.13,5.18h-25V38.42Zm5.95-13.73V34.94l-5.95,3.48V24.67Z"/><path class="cls-3" d="M266,29.79v8.55h18.94v5.21H266l-5.12-5.21V24.59Zm21.12-5.2-5.15,5.2H266v-5.2ZM268.85,36.47V31.24H285l-3.87,5.23Z"/><path class="cls-3" d="M288.48,24.59h21.09v5.2h-16Zm0,19V31.27h5.8V43.55Zm17.41-7.08,11.1,7h-8.68l-11.72-7v-5.2h13V29.79l5.13-5.2V36.47Z"/></g></g></g></g></svg>