<svg xmlns="http://www.w3.org/2000/svg" viewBox="0 0 382.91 492.95"><defs><style>.cls-1,.cls-2{fill:#17cffc;}.cls-1{opacity:0.35;}</style></defs><title>square_04</title><g id="Layer_2" data-name="Layer 2"><g id="Layer_1-2" data-name="Layer 1"><polygon class="cls-1" points="347.79 191.77 347.79 152.12 339.7 150.19 339.7 64.73 347.79 57.38 347.79 24.3 357.67 11.6 17.48 11.6 17.48 60.91 27.87 71.66 27.87 132.74 35.96 144.42 35.96 256.45 27.87 264.53 27.87 319.97 17.48 329.27 17.48 485.12 41.04 485.12 56.75 465.49 144.52 465.49 144.52 451.63 232.3 451.63 243.85 466.64 324.69 466.64 336.49 485.12 373.2 485.12 373.2 202.09 347.79 191.77"/><path class="cls-2" d="M373.9,485.83H336.1l-11.8-18.48H243.5l-11.55-15H145.23V466.2H57.09L41.38,485.83H16.77V329l10.4-9.3V264.24l8.08-8.08V144.64L27.17,133v-61L16.77,61.19V10.9H359.11L348.5,24.55V57.69L340.41,65v84.6l8.09,1.92V191.3l25.4,10.32Zm-37-1.41h35.62V202.57l-25.41-10.32V152.68L339,150.75V64.42l8.08-7.35v-33l9.15-11.75h-338V60.62l10.4,10.75v61.15l8.08,11.68V256.74l-8.08,8.08v55.46l-10.4,9.3V484.42H40.7l15.71-19.64h87.41V450.93h88.82l11.55,15h80.89Z"/><polygon class="cls-2" points="112.26 5.91 65.83 5.91 67.54 0 58.84 0 57.14 5.91 52.2 5.91 53.91 0 45.22 0 43.51 5.91 38.58 5.91 40.28 0 31.59 0 29.88 5.91 24.95 5.91 26.66 0 17.96 0 16.25 5.91 10.34 5.91 10.34 58.34 19.2 64.99 16.99 14.03 107.09 11.82 112.26 5.91"/><polygon class="cls-2" points="364.83 214.17 364.83 287.29 356.71 283.6 356.71 329.16 373.05 352.45 373.2 202.09 347.79 191.77 347.79 152.12 339.7 150.19 339.7 64.73 347.79 57.38 347.79 24.3 357.67 11.6 344.16 12.55 335.29 26.59 335.29 52.44 326.43 60.56 326.43 155.83 338.99 161 338.99 203.1 364.83 214.17"/><polygon class="cls-2" points="356.71 396.56 356.71 426.13 372.96 446.81 372.99 419.18 356.71 396.56"/><polygon class="cls-2" points="373.04 368.29 356.71 345.6 356.71 380.12 373 403.34 373.04 368.29"/><path class="cls-2" d="M36.19,243.72,19.94,260v32.5L0,313.14V325L19.94,302.8v9.6L0,333.08V356l11.82-10.34V470.44s3.94,14.59,5.66,14.68,0-155.85,0-155.85L27.87,320V264.53L36,256.45Z"/><polygon class="cls-2" points="151.71 450.5 156.64 450.5 165.33 450.5 170.27 450.5 178.96 450.5 183.9 450.5 192.59 450.5 215.99 450.5 216.86 446.99 193.61 446.99 195.64 439.95 186.95 439.95 184.91 446.99 179.98 446.99 182.01 439.95 173.32 439.95 171.28 446.99 166.35 446.99 168.39 439.95 159.69 439.95 157.66 446.99 152.72 446.99 154.76 439.95 146.06 439.95 143.01 450.5 144.77 450.5 151.71 450.5"/><polygon class="cls-2" points="290.24 467.49 243.85 466.65 232.3 451.63 144.52 451.63 144.52 461.58 56.13 466.01 41.04 486.6 52.44 486.6 61.3 474.88 151.4 474.88 151.4 461.58 226.73 461.58 241.5 478.57 300.58 478.57 290.24 467.49"/><path class="cls-2" d="M28.42,240h-.71V152.24L18.91,139a.36.36,0,0,1-.06-.2V75.33h.7v63.41l8.81,13.2a.36.36,0,0,1,.06.2Z"/><path class="cls-2" d="M382.91,287.29h-.7V196.68L356.56,185l.3-.64,25.85,11.82a.36.36,0,0,1,.2.32Z"/><path class="cls-2" d="M61.3,493h-45v-.7H61.12l7.28-9.47a.37.37,0,0,1,.28-.13h93.8v.7H68.86l-7.28,9.47A.37.37,0,0,1,61.3,493Z"/><circle class="cls-2" cx="163.22" cy="483" r="4.62"/><circle class="cls-2" cx="357.45" cy="185.37" r="4.62"/><path class="cls-2" d="M333.82,226.7a.71.71,0,0,1-.71-.71V172.48l-15.9-9.4a.68.68,0,0,1-.35-.6V59.82a.66.66,0,0,1,.17-.45L325,50V21.38H206.05a.7.7,0,0,1-.71-.7.71.71,0,0,1,.71-.71H325.69a.71.71,0,0,1,.71.71V50.22a.71.71,0,0,1-.17.46l-8,9.4v102l15.91,9.4a.72.72,0,0,1,.34.61V226A.7.7,0,0,1,333.82,226.7Z"/><path class="cls-2" d="M327.17,252.93a.35.35,0,0,1-.35-.35V179.64l-10.21-8a.36.36,0,1,1,.44-.56l10.34,8.13a.35.35,0,0,1,.13.27v73.12A.35.35,0,0,1,327.17,252.93Z"/><path class="cls-2" d="M345.63,478.18a.37.37,0,0,1-.3-.16l-11.71-19H247.41a.37.37,0,0,1-.3-.16l-6.65-10.34a.37.37,0,0,1,.11-.49.36.36,0,0,1,.49.11l6.54,10.18h86.22a.37.37,0,0,1,.3.16l11.81,19.21a.34.34,0,0,1-.11.48A.32.32,0,0,1,345.63,478.18Z"/><path class="cls-2" d="M46.53,273.61a.36.36,0,0,1-.36-.35V139.43l-8.81-14.68a.41.41,0,0,1,0-.18V66.47a.36.36,0,1,1,.71,0v58l8.81,14.68a.41.41,0,0,1,.05.19V273.26A.35.35,0,0,1,46.53,273.61Z"/><path class="cls-2" d="M94.92,96.6H85.17L79.66,81.1,74.15,96.6H64.4l-11-28.32h10.7l5.41,15.31,5.3-15.31H84.5l5.3,15.31,5.41-15.31h10.7Z"/><path class="cls-2" d="M126.76,96.6l-1.46-3.82H112.46l-1.6,3.82H100.54v-.08l13.09-28.24h10.5l13.09,28.24v.08Zm-7.93-19.28-3.24,8.19h6.54Z"/><path class="cls-2" d="M161.48,96.6l-10-10.42V81.66h9.74V76H149.88V96.6h-10V68.28h28a3.17,3.17,0,0,1,2.46,1,3.91,3.91,0,0,1,.92,2.72v12.6a3.72,3.72,0,0,1-.92,2.67,3.24,3.24,0,0,1-2.46,1h-3.13l8.22,8v.3Z"/><path class="cls-2" d="M198.58,96.6l-13-14.9V96.6h-10V68.28h9.92L198.44,82V68.28h10V96.6Z"/><path class="cls-2" d="M213.45,96.6V68.28h10V96.6Z"/><path class="cls-2" d="M251.44,96.6,238.49,81.7V96.6h-10V68.28h9.92L251.3,82V68.28h10V96.6Z"/><path class="cls-2" d="M298.27,95.58a3.15,3.15,0,0,1-2.47,1H269.62a3,3,0,0,1-2.44-1,4.07,4.07,0,0,1-.87-2.73V72a3.91,3.91,0,0,1,.92-2.72,3.21,3.21,0,0,1,2.49-1H295.8a3.15,3.15,0,0,1,2.47,1,4,4,0,0,1,.91,2.72v6.15h-10V76H276.34v13h12.81v-2h-9.82v-7h19.85v13A4,4,0,0,1,298.27,95.58Z"/><polygon class="cls-2" points="55.38 117.45 55.38 107.7 65.13 107.7 55.38 117.45"/><polygon class="cls-2" points="66.69 128.02 55.38 128.02 55.38 126.08 73.76 107.7 87.01 107.7 66.69 128.02"/><polygon class="cls-2" points="88.57 128.02 75.32 128.02 95.64 107.7 108.89 107.7 88.57 128.02"/><polygon class="cls-2" points="110.45 128.02 97.2 128.02 117.51 107.7 130.76 107.7 110.45 128.02"/><polygon class="cls-2" points="132.33 128.02 119.08 128.02 139.39 107.7 152.64 107.7 132.33 128.02"/><polygon class="cls-2" points="154.21 128.02 140.95 128.02 161.27 107.7 174.52 107.7 154.21 128.02"/><polygon class="cls-2" points="176.08 128.02 162.83 128.02 183.15 107.7 196.4 107.7 176.08 128.02"/><polygon class="cls-2" points="197.96 128.02 184.71 128.02 205.03 107.7 218.28 107.7 197.96 128.02"/><polygon class="cls-2" points="219.84 128.02 206.59 128.02 226.91 107.7 240.16 107.7 219.84 128.02"/><polygon class="cls-2" points="241.72 128.02 228.47 128.02 248.78 107.7 262.04 107.7 241.72 128.02"/><polygon class="cls-2" points="263.6 128.02 250.35 128.02 270.66 107.7 283.91 107.7 263.6 128.02"/><polygon class="cls-2" points="285.48 128.02 272.22 128.02 292.54 107.7 297.6 107.7 297.6 115.89 285.48 128.02"/><polygon class="cls-2" points="297.6 128.02 294.1 128.02 297.6 124.52 297.6 128.02"/><polygon class="cls-2" points="55.38 45.11 55.38 35.36 65.13 35.36 55.38 45.11"/><polygon class="cls-2" points="66.69 55.67 55.38 55.67 55.38 53.74 73.76 35.36 87.01 35.36 66.69 55.67"/><polygon class="cls-2" points="88.57 55.67 75.32 55.67 95.64 35.36 108.89 35.36 88.57 55.67"/><polygon class="cls-2" points="110.45 55.67 97.2 55.67 117.51 35.36 130.76 35.36 110.45 55.67"/><polygon class="cls-2" points="132.33 55.67 119.08 55.67 139.39 35.36 152.64 35.36 132.33 55.67"/><polygon class="cls-2" points="154.21 55.67 140.95 55.67 161.27 35.36 174.52 35.36 154.21 55.67"/><polygon class="cls-2" points="176.08 55.67 162.83 55.67 183.15 35.36 196.4 35.36 176.08 55.67"/><polygon class="cls-2" points="197.96 55.67 184.71 55.67 205.03 35.36 218.28 35.36 197.96 55.67"/><polygon class="cls-2" points="219.84 55.67 206.59 55.67 226.91 35.36 240.16 35.36 219.84 55.67"/><polygon class="cls-2" points="241.72 55.67 228.47 55.67 248.78 35.36 262.04 35.36 241.72 55.67"/><polygon class="cls-2" points="263.6 55.67 250.35 55.67 270.66 35.36 283.91 35.36 263.6 55.67"/><polygon class="cls-2" points="285.48 55.67 272.22 55.67 292.54 35.36 297.6 35.36 297.6 43.55 285.48 55.67"/><polygon class="cls-2" points="297.6 55.67 294.1 55.67 297.6 52.17 297.6 55.67"/><path class="cls-2" d="M303.7,136.15H49.28V28H303.7Zm-253.6-.81H302.89V28.85H50.1Z"/></g></g></svg>