<svg xmlns="http://www.w3.org/2000/svg" xmlns:xlink="http://www.w3.org/1999/xlink" viewBox="0 0 454.44 485.91"><defs><style>.cls-1{mask:url(#mask);filter:url(#luminosity-noclip-3);}.cls-2,.cls-4{mix-blend-mode:multiply;}.cls-2{fill:url(#linear-gradient);}.cls-3{mask:url(#mask-2);filter:url(#luminosity-noclip-4);}.cls-4{fill:url(#linear-gradient-2);}.cls-5{isolation:isolate;}.cls-11,.cls-6,.cls-7,.cls-9{fill:#17cffc;}.cls-7{opacity:0.35;}.cls-8{mask:url(#mask-3);}.cls-9{opacity:0.4;}.cls-10{mask:url(#mask-4);}.cls-11{opacity:0.33;mix-blend-mode:screen;}.cls-12{opacity:0.3;}.cls-13{filter:url(#luminosity-noclip-2);}.cls-14{filter:url(#luminosity-noclip);}</style><filter id="luminosity-noclip" x="11.38" y="-8435.13" width="7" height="32766" filterUnits="userSpaceOnUse" color-interpolation-filters="sRGB"><feFlood flood-color="#fff" result="bg"/><feBlend in="SourceGraphic" in2="bg"/></filter><mask id="mask" x="11.38" y="-8435.13" width="7" height="32766" maskUnits="userSpaceOnUse"><g class="cls-14"/></mask><linearGradient id="linear-gradient" x1="14.89" y1="260.6" x2="14.89" y2="432.89" gradientUnits="userSpaceOnUse"><stop offset="0" stop-color="#fff"/><stop offset="0.09" stop-color="#f3f3f3"/><stop offset="0.24" stop-color="#d4d4d4"/><stop offset="0.45" stop-color="#a1a1a1"/><stop offset="0.7" stop-color="#5a5a5a"/><stop offset="0.99" stop-color="#010101"/><stop offset="0.99"/></linearGradient><filter id="luminosity-noclip-2" x="417.66" y="-8435.13" width="15.76" height="32766" filterUnits="userSpaceOnUse" color-interpolation-filters="sRGB"><feFlood flood-color="#fff" result="bg"/><feBlend in="SourceGraphic" in2="bg"/></filter><mask id="mask-2" x="417.66" y="-8435.13" width="15.76" height="32766" maskUnits="userSpaceOnUse"><g class="cls-13"/></mask><linearGradient id="linear-gradient-2" x1="425.54" y1="346.21" x2="425.54" y2="446.03" xlink:href="#linear-gradient"/><filter id="luminosity-noclip-3" x="11.38" y="260.6" width="7" height="172.29" filterUnits="userSpaceOnUse" color-interpolation-filters="sRGB"><feFlood flood-color="#fff" result="bg"/><feBlend in="SourceGraphic" in2="bg"/></filter><mask id="mask-3" x="11.38" y="260.6" width="7" height="172.29" maskUnits="userSpaceOnUse"><g class="cls-1"><polygon class="cls-2" points="18.39 260.6 11.38 273.53 11.38 432.89 18.39 432.89 18.39 260.6"/></g></mask><filter id="luminosity-noclip-4" x="417.66" y="348.46" width="15.76" height="97.57" filterUnits="userSpaceOnUse" color-interpolation-filters="sRGB"><feFlood flood-color="#fff" result="bg"/><feBlend in="SourceGraphic" in2="bg"/></filter><mask id="mask-4" x="417.66" y="348.46" width="15.76" height="97.57" maskUnits="userSpaceOnUse"><g class="cls-3"><polygon class="cls-4" points="417.66 348.46 417.66 446.03 433.42 446.03 433.42 361.97 417.66 348.46"/></g></mask></defs><title>square_01</title><g class="cls-5"><g id="Layer_2" data-name="Layer 2"><g id="Layer_1-2" data-name="Layer 1"><polygon class="cls-6" points="66.53 472.28 66.53 459.7 79.11 459.7 66.53 472.28"/><polygon class="cls-6" points="81.13 485.91 66.53 485.91 66.53 483.41 90.24 459.7 107.34 459.7 81.13 485.91"/><polygon class="cls-6" points="109.35 485.91 92.25 485.91 118.47 459.7 135.56 459.7 109.35 485.91"/><polygon class="cls-6" points="137.58 485.91 120.48 485.91 146.69 459.7 163.79 459.7 137.58 485.91"/><polygon class="cls-6" points="165.8 485.91 148.71 485.91 174.91 459.7 192.01 459.7 165.8 485.91"/><polygon class="cls-6" points="194.03 485.91 176.93 485.91 203.14 459.7 220.24 459.7 194.03 485.91"/><polygon class="cls-6" points="222.25 485.91 205.16 485.91 231.37 459.7 248.46 459.7 222.25 485.91"/><polygon class="cls-6" points="250.48 485.91 233.38 485.91 259.59 459.7 276.69 459.7 250.48 485.91"/><polygon class="cls-6" points="278.7 485.91 261.61 485.91 287.81 459.7 304.91 459.7 278.7 485.91"/><polygon class="cls-6" points="306.93 485.91 289.83 485.91 316.04 459.7 333.14 459.7 306.93 485.91"/><polygon class="cls-6" points="335.15 485.91 318.06 485.91 344.26 459.7 361.36 459.7 335.15 485.91"/><polygon class="cls-6" points="363.38 485.91 346.28 485.91 372.49 459.7 379.02 459.7 379.02 470.26 363.38 485.91"/><polygon class="cls-6" points="379.02 485.91 374.51 485.91 379.02 481.39 379.02 485.91"/><polygon class="cls-6" points="417.75 473.81 389.1 473.81 389.1 471.8 416.91 471.8 429.21 459.49 430.64 460.92 417.75 473.81"/><path class="cls-6" d="M403,472.8l4.66,4.67h12.73l5.36-5.36V464.3s-7.5,8.44-8.45,8.44Z"/><polygon class="cls-6" points="55.95 473.81 27.3 473.81 14.41 460.92 15.83 459.49 28.14 471.8 55.95 471.8 55.95 473.81"/><path class="cls-6" d="M42.09,472.8l-4.67,4.67H24.7l-5.36-5.36V464.3s7.5,8.44,8.44,8.44Z"/><polygon class="cls-7" points="417.04 339.2 417.04 12.35 19.51 12.35 19.51 244.64 0.88 279.91 0.88 451.07 439.6 451.07 439.6 357.91 417.04 339.2"/><path class="cls-6" d="M440.47,451.94H0V279.7l18.64-35.28V11.47H417.91V338.79l22.56,18.71ZM1.75,450.19h437V358.32l-22.56-18.71V13.22H20.39V244.86L1.75,280.13Z"/><polygon class="cls-6" points="19.51 11.47 8.76 23.99 8.76 181.59 2.63 200.86 2.63 217.49 19.51 243.76 19.51 11.47"/><polygon class="cls-6" points="440.47 357.91 454.44 376.85 454.44 428.51 440.47 451.07 440.47 357.91"/><polygon class="cls-6" points="427.86 122.37 427.86 21.67 418.9 10.16 427.29 0.34 326.6 0.34 310.84 12.6 416.47 12.35 416.47 112.64 427.86 122.37"/><polygon class="cls-6" points="6.13 270.91 6.13 440.77 161.99 440.77 181.25 451.28 0.88 451.28 0.88 279.91 6.13 270.91"/><polygon class="cls-6" points="308.36 6.91 25.39 6.91 25.39 6.04 308.06 6.04 315.82 0 316.36 0.69 308.36 6.91"/><polygon class="cls-6" points="443.65 350.05 423.35 333.28 423.35 126.25 427.6 130.5 426.98 131.12 424.23 128.37 424.23 332.87 444.21 349.37 443.65 350.05"/><g class="cls-8"><polygon class="cls-9" points="18.39 260.6 11.38 273.53 11.38 432.89 18.39 432.89 18.39 260.6"/></g><g class="cls-10"><polygon class="cls-6" points="417.66 348.46 417.66 446.03 433.42 446.03 433.42 361.97 417.66 348.46"/></g><polygon class="cls-6" points="19.51 11.47 8.76 23.99 8.76 181.59 2.63 200.86 2.63 217.49 19.51 243.76 19.51 11.47"/><polygon class="cls-6" points="440.47 357.91 454.44 376.85 454.44 428.51 440.47 451.07 440.47 357.91"/><polygon class="cls-6" points="427.86 122.37 427.86 21.67 418.9 10.16 427.29 0.34 326.6 0.34 310.84 12.6 416.47 12.35 416.47 112.64 427.86 122.37"/><polygon class="cls-6" points="6.13 270.91 6.13 440.77 161.99 440.77 181.25 451.28 0.88 451.28 0.88 279.91 6.13 270.91"/><rect class="cls-11" x="80.4" y="43.48" width="267.86" height="95.95"/><g class="cls-12"><path class="cls-6" d="M373.82,117a2.68,2.68,0,0,1-4-2.32V70.06a2.68,2.68,0,0,1,4-2.32Z"/></g><path class="cls-6" d="M374,117.32a3.09,3.09,0,0,1-4.63-2.68V70.06A3.09,3.09,0,0,1,374,67.39Zm-.41-49.23a2.27,2.27,0,0,0-3.4,2v44.58a2.27,2.27,0,0,0,3.4,2Z"/><path class="cls-6" d="M382.19,70.75l1.85-.5Z"/><path class="cls-6" d="M381.85,70.71l2.21-.6Zm2.18-.32-1.49.41Z"/><polygon class="cls-6" points="382.47 69.27 380.18 67.96 378.26 68.48 380.87 69.97 382.78 69.44 382.47 69.27"/><path class="cls-6" d="M383.13,69.49l-2.28.62-2.93-1.68,2.27-.61Zm-2.25.33,1.55-.42h0l-2.24-1.29-1.55.42Z"/><polygon class="cls-6" points="378.53 67.02 377.68 66.53 375.77 67.05 376.93 67.71 378.84 67.19 378.53 67.02"/><path class="cls-6" d="M379.19,67.23l-2.28.62L375.43,67l2.27-.62Zm-2.25.34,1.55-.42,0,0-.8-.46-1.54.43Z"/><path class="cls-6" d="M382.19,113.67l1.85.51Z"/><path class="cls-6" d="M384.06,114.32l-2.21-.6Zm-1.52-.69L384,114Z"/><polygon class="cls-6" points="382.47 115.15 380.18 116.47 378.26 115.95 380.87 114.46 382.78 114.98 382.47 115.15"/><path class="cls-6" d="M380.19,116.61l-2.27-.62,2.93-1.67,2.28.62Zm-1.58-.71,1.55.42L382.4,115l0,0-1.55-.42Z"/><polygon class="cls-6" points="378.53 117.41 377.68 117.89 375.77 117.37 376.93 116.71 378.84 117.23 378.53 117.41"/><path class="cls-6" d="M377.7,118l-2.27-.61,1.48-.85,2.28.62Zm-1.58-.7,1.54.42.8-.46h0l-1.55-.43Z"/><polygon class="cls-6" points="360.14 44.27 360.42 43.99 369.58 53.15 369.58 66.13 369.18 66.13 369.18 53.31 360.14 44.27"/><polygon class="cls-6" points="369.38 63.06 370.91 61.53 370.91 56.19 369.54 54.81 369.38 63.06"/><path class="cls-6" d="M360,43a1.17,1.17,0,1,1-1.17,1.17A1.16,1.16,0,0,1,360,43Z"/><polygon class="cls-6" points="360.13 139.59 369.17 130.55 369.17 117.73 369.56 117.73 369.56 130.72 360.41 139.87 360.13 139.59"/><polygon class="cls-6" points="369.37 120.8 370.9 122.33 370.9 127.67 369.52 129.05 369.37 120.8"/><path class="cls-6" d="M360,140.9a1.17,1.17,0,1,0-1.17-1.17A1.17,1.17,0,0,0,360,140.9Z"/><path class="cls-6" d="M348.17,43.48,363.49,58.8v65l-15.41,15.42V114.32l3.91-3.91V74.62l-3.84-3.84S348.42,43.22,348.17,43.48Z"/><polygon class="cls-6" points="345.59 121.65 340.74 116.81 340.74 65.93 345.5 61.16 345.82 61.48 341.19 66.11 341.19 116.62 345.91 121.33 345.59 121.65"/><g class="cls-12"><path class="cls-6" d="M54.77,66.9a2.68,2.68,0,0,1,4,2.32V113.8a2.68,2.68,0,0,1-4,2.32Z"/></g><path class="cls-6" d="M54.56,66.54a3.1,3.1,0,0,1,3.09,0,3.05,3.05,0,0,1,1.54,2.68V113.8a3.09,3.09,0,0,1-4.63,2.67ZM55,115.77a2.28,2.28,0,0,0,3.41-2V69.22a2.28,2.28,0,0,0-3.41-2Z"/><path class="cls-6" d="M46.39,113.11l-1.85.5Z"/><path class="cls-6" d="M46.73,113.15l-2.21.6Zm-2.17.32,1.49-.4Z"/><polygon class="cls-6" points="46.12 114.59 48.41 115.9 50.32 115.38 47.72 113.89 45.8 114.42 46.12 114.59"/><path class="cls-6" d="M45.45,114.37l2.29-.62,2.92,1.68-2.27.61ZM47.7,114l-1.55.42h0l2.25,1.29,1.55-.42Z"/><polygon class="cls-6" points="50.06 116.84 50.9 117.33 52.81 116.81 51.66 116.15 49.74 116.67 50.06 116.84"/><path class="cls-6" d="M49.39,116.63l2.29-.62,1.47.84-2.27.62Zm2.25-.34-1.55.42,0,0,.8.46,1.55-.43Z"/><path class="cls-6" d="M46.39,70.19l-1.85-.51Z"/><path class="cls-6" d="M44.52,69.54l2.21.6Zm1.53.69-1.49-.4Z"/><polygon class="cls-6" points="46.12 68.71 48.41 67.39 50.32 67.91 47.72 69.4 45.8 68.88 46.12 68.71"/><path class="cls-6" d="M48.39,67.25l2.27.62-2.92,1.67-2.29-.62ZM50,68l-1.55-.42-2.25,1.28,0,0,1.55.42Z"/><polygon class="cls-6" points="50.06 66.45 50.9 65.97 52.81 66.49 51.66 67.15 49.74 66.63 50.06 66.45"/><path class="cls-6" d="M50.88,65.83l2.27.61-1.47.85-2.29-.62Zm1.59.7-1.55-.42-.8.46h0l1.55.43Z"/><polygon class="cls-6" points="68.44 139.59 68.16 139.87 59.01 130.72 59.01 117.73 59.4 117.73 59.4 130.55 68.44 139.59"/><polygon class="cls-6" points="59.2 120.8 57.67 122.33 57.67 127.67 59.05 129.05 59.2 120.8"/><circle class="cls-6" cx="68.58" cy="139.73" r="1.17"/><polygon class="cls-6" points="68.46 44.27 59.42 53.31 59.42 66.13 59.02 66.13 59.02 53.15 68.18 43.99 68.46 44.27"/><polygon class="cls-6" points="59.22 63.06 57.69 61.53 57.69 56.19 59.06 54.81 59.22 63.06"/><path class="cls-6" d="M68.59,43a1.17,1.17,0,1,0,1.17,1.17A1.16,1.16,0,0,0,68.59,43Z"/><path class="cls-6" d="M80.42,140.38,65.09,125.06v-65L80.51,44.68V69.54L76.6,73.45v35.79l3.84,3.84S80.16,140.64,80.42,140.38Z"/><polygon class="cls-6" points="83 62.21 87.84 67.05 87.84 117.93 83.08 122.7 82.76 122.38 87.39 117.75 87.39 67.24 82.68 62.53 83 62.21"/><circle class="cls-6" cx="145.91" cy="131.62" r="2.82"/><path class="cls-6" d="M208.42,131.62a2.82,2.82,0,1,1,2.82,2.82A2.82,2.82,0,0,1,208.42,131.62Z"/><circle class="cls-6" cx="283.09" cy="131.62" r="2.82"/><polygon class="cls-6" points="150.79 145.76 141.17 145.76 129.51 134.11 85.29 134.11 85.29 133.44 129.79 133.44 141.45 145.09 150.79 145.09 150.79 145.76"/><polygon class="cls-6" points="134.49 140.59 129.01 135.11 95.94 135.11 95.94 132.43 130.12 132.43 136.39 138.69 134.49 140.59"/><polygon class="cls-6" points="287.85 145.76 278.23 145.76 278.23 145.09 287.57 145.09 299.23 133.44 343.32 133.44 343.32 134.11 299.51 134.11 287.85 145.76"/><polygon class="cls-6" points="294.53 140.59 292.63 138.69 298.9 132.43 333.08 132.43 333.08 135.11 300.01 135.11 294.53 140.59"/><rect class="cls-6" x="84.63" y="46.94" width="257.26" height="0.67"/><path class="cls-6" d="M105.63,70.47V111.4H95.76V70.47Zm2.83,9.07V70.47h18l3.4,4.08V107.2l-3.4,4.2h-18v-9.07H120V79.54Z"/><path class="cls-6" d="M142.14,111.4h-9.41l10.15-29h7l1.24,3.29Zm10.54-20h3.69l-4.25-11.9H143.9l3.17-9.07h11.28l14.34,40.93H163.4l-3.86-10.89h-10Z"/><path class="cls-6" d="M202.06,111.57l-16.66-32h-9.87V70.47h16l16.21,31.86h9.87v9.24ZM185.4,87.3v24.1h-9.87v-29h7.26Zm22.33,7.54V70.47h9.87v29h-7.37Z"/><path class="cls-6" d="M233.13,102.33h6.52v9.07h-13l-3.4-4.26V74.6l3.4-4.13h13v9.07h-6.52ZM259,107.2l-3.4,4.2H242.49v-9.07h7.25V95.58h-7.93V86.51H259ZM242.49,79.54V70.47h13.15l3.4,4.08v8.73h-9V79.54Z"/><path class="cls-6" d="M264.14,111.4V70.47H274V111.4Zm12.7-31.86V70.47h19v9.07Zm0,15.64V86.11h14.51v9.07Zm0,16.22v-9.07h19v9.07Z"/><path class="cls-6" d="M300.09,111.4V70.47H310V111.4Zm12.7-31.86V70.47H330.3l3.4,4.08V91l-2.83,3.51,3.8,16.9h-9.81l-3.34-14h-8.73V88.38h11V79.54Z"/></g></g></g></svg>