<svg xmlns="http://www.w3.org/2000/svg" viewBox="0 0 376.26 489.7"><defs><style>.cls-1,.cls-2,.cls-3,.cls-4,.cls-5,.cls-6,.cls-7,.cls-8{fill:#17cffc;}.cls-1{opacity:0.35;}.cls-3{opacity:0.6;}.cls-4{opacity:0.4;}.cls-5{opacity:0.1;}.cls-6{opacity:0.8;}.cls-7{opacity:0.3;}.cls-8{opacity:0.2;}</style></defs><title>square_08</title><g id="Layer_2" data-name="Layer 2"><g id="Layer_1-2" data-name="Layer 1"><polygon class="cls-1" points="364.54 479.36 350.51 462.67 350.51 276.2 364.54 263.58 364.54 2.28 361.89 2.28 349.45 13.01 254.62 13.01 233.15 0 14.44 0 14.44 37.52 26.03 43.2 26.03 198.77 14.44 203.74 14.44 481.7 364.54 481.7 364.54 479.36"/><path class="cls-2" d="M13.73,484.87V205.73l11.59-5V46.1L13.73,40.41V1.74H233.35l21.46,13h94.38L361.63,4h3.62V266.35l-14,12.62v185.9l14,16.69v3.31Zm1.42-278.21V483.45H363.82v-1.38l-14-16.69v-187l14-12.62V5.44h-1.66L349.71,16.17H254.42l-.17-.1L233,3.16H15.15V39.53l11.59,5.68V201.69Z"/><polygon class="cls-2" points="365.01 4.73 371.53 23.91 371.53 99.69 376.26 114.84 376.26 220.93 364.9 247.93 365.01 4.73"/><polygon class="cls-2" points="254.62 15.46 243.66 15.46 229.92 8.28 21.22 8.28 21.22 35.75 32.11 41.44 32.11 105.37 36.85 112 36.85 155.1 32.11 160.78 32.11 182.1 25.95 186.36 26.03 45.65 14.44 39.97 14.44 2.45 233.15 2.45 254.62 15.46"/><polygon class="cls-2" points="349.98 408 343.11 416.06 343.11 471.47 331.75 478.1 297.17 478.1 287.23 475.73 244.6 475.73 234.66 484.25 364.54 484.16 364.54 481.82 350.51 465.13 349.98 408"/><polygon class="cls-2" points="14.82 313.76 10.56 319.44 10.56 371.54 11.98 376.27 11.98 429.32 14.35 443.52 14.82 313.76"/><polygon class="cls-3" points="364.9 319.05 364.9 305.1 354 314.28 354 328.23 364.9 319.05"/><polygon class="cls-4" points="364.9 336.72 364.9 322.77 354 331.95 354 345.9 364.9 336.72"/><polygon class="cls-5" points="354 384.97 354 401.61 364.9 391.65 364.9 375.78 354 384.97"/><polygon class="cls-6" points="354 296.61 354 310.56 364.9 301.38 364.9 287.42 354 296.61"/><polygon class="cls-7" points="364.9 354.39 364.9 340.44 354 349.62 354 363.58 364.9 354.39"/><polygon class="cls-2" points="364.9 283.71 364.9 272.09 354 281.79 354 292.89 364.9 283.71"/><polygon class="cls-8" points="364.9 372.07 364.9 358.11 354 367.29 354 381.25 364.9 372.07"/><polygon class="cls-3" points="9.38 247.9 9.38 235.88 0 243.79 0 255.8 9.38 247.9"/><polygon class="cls-4" points="9.38 263.11 9.38 251.1 0 259 0 271.01 9.38 263.11"/><polygon class="cls-5" points="0 304.64 0 318.97 9.38 310.39 9.38 296.73 0 304.64"/><polygon class="cls-6" points="0 228.58 0 240.59 9.38 232.69 9.38 220.67 0 228.58"/><polygon class="cls-7" points="9.38 278.32 9.38 266.31 0 274.21 0 286.23 9.38 278.32"/><polygon class="cls-2" points="9.38 217.47 9.38 207.47 0 215.82 0 225.38 9.38 217.47"/><polygon class="cls-8" points="9.38 293.54 9.38 281.52 0 289.43 0 301.44 9.38 293.54"/><polygon class="cls-3" points="312 11.6 322.29 11.6 315.51 3.57 305.22 3.57 312 11.6"/><polygon class="cls-4" points="298.96 11.6 309.25 11.6 302.48 3.57 292.19 3.57 298.96 11.6"/><polygon class="cls-5" points="263.39 3.57 251.12 3.57 258.47 11.6 270.16 11.6 263.39 3.57"/><polygon class="cls-6" points="328.55 3.57 318.25 3.57 325.03 11.6 335.32 11.6 328.55 3.57"/><polygon class="cls-7" points="285.93 11.6 296.22 11.6 289.45 3.57 279.16 3.57 285.93 11.6"/><polygon class="cls-2" points="338.06 11.6 346.62 11.6 339.47 3.57 331.29 3.57 338.06 11.6"/><polygon class="cls-8" points="272.9 11.6 283.19 11.6 276.42 3.57 266.13 3.57 272.9 11.6"/><path class="cls-2" d="M27.49,34.33V14a.36.36,0,0,1,.36-.36H228a.34.34,0,0,1,.17.05l9,5.21a.36.36,0,0,1,.13.49.35.35,0,0,1-.48.12l-8.92-5.16H28.2v19.8L38.67,39.7a.35.35,0,0,1,.19.32V96.85a.36.36,0,0,1-.71,0V40.23L27.68,34.65A.37.37,0,0,1,27.49,34.33Z"/><path class="cls-2" d="M38.74,99.69a2.61,2.61,0,1,1,2.6-2.61A2.6,2.6,0,0,1,38.74,99.69Z"/><path class="cls-2" d="M4.64,433.11a2.61,2.61,0,1,1,2.61-2.61A2.6,2.6,0,0,1,4.64,433.11Z"/><path class="cls-2" d="M342.16,380.54a2.61,2.61,0,1,1,2.61-2.61A2.61,2.61,0,0,1,342.16,380.54Z"/><path class="cls-2" d="M341.81,377.22V276.34a.36.36,0,0,1,.11-.25l16-15.53v-22.1a.36.36,0,1,1,.71,0v22.25a.36.36,0,0,1-.11.26l-16,15.52V377.22a.36.36,0,1,1-.71,0Z"/><path class="cls-2" d="M4.88,431.21a.71.71,0,0,1,.47-.67.72.72,0,0,1,.91.44l3.31,9.47a.59.59,0,0,1,0,.23v47.6H230.87a.71.71,0,0,1,0,1.42H8.9a.71.71,0,0,1-.71-.71V440.8l-3.27-9.35A.67.67,0,0,1,4.88,431.21Z"/><path class="cls-2" d="M278.11,22.49a.35.35,0,0,1,.35-.35h70l8.94-3.3a.36.36,0,0,1,.33.05.35.35,0,0,1,.15.29V182.1a.36.36,0,0,1-.71,0V19.69l-8.52,3.14-.12,0h-70.1A.36.36,0,0,1,278.11,22.49Z"/><polygon class="cls-2" points="365.01 4.73 371.53 23.91 371.53 99.69 376.26 114.84 376.26 220.93 364.9 247.93 365.01 4.73"/><polygon class="cls-2" points="254.62 15.46 243.66 15.46 229.92 8.28 21.22 8.28 21.22 35.75 32.11 41.44 32.11 105.37 36.85 112 36.85 155.1 32.11 160.78 32.11 182.1 25.95 186.36 26.03 45.65 14.44 39.97 14.44 2.45 233.15 2.45 254.62 15.46"/><polygon class="cls-2" points="349.98 408 343.11 416.06 343.11 471.47 331.75 478.1 297.17 478.1 287.23 475.73 244.6 475.73 234.66 484.25 364.54 484.16 364.54 481.82 350.51 465.13 349.98 408"/><polygon class="cls-2" points="14.82 313.76 10.56 319.44 10.56 371.54 11.98 376.27 11.98 429.32 14.35 443.52 14.82 313.76"/><polygon class="cls-3" points="364.9 319.05 364.9 305.1 354 314.28 354 328.23 364.9 319.05"/><polygon class="cls-4" points="364.9 336.72 364.9 322.77 354 331.95 354 345.9 364.9 336.72"/><polygon class="cls-5" points="354 384.97 354 401.61 364.9 391.65 364.9 375.78 354 384.97"/><polygon class="cls-6" points="354 296.61 354 310.56 364.9 301.38 364.9 287.42 354 296.61"/><polygon class="cls-7" points="364.9 354.39 364.9 340.44 354 349.62 354 363.58 364.9 354.39"/><polygon class="cls-2" points="364.9 283.71 364.9 272.09 354 281.79 354 292.89 364.9 283.71"/><polygon class="cls-8" points="364.9 372.07 364.9 358.11 354 367.29 354 381.25 364.9 372.07"/><polygon class="cls-3" points="9.38 247.9 9.38 235.88 0 243.79 0 255.8 9.38 247.9"/><polygon class="cls-4" points="9.38 263.11 9.38 251.1 0 259 0 271.01 9.38 263.11"/><polygon class="cls-5" points="0 304.64 0 318.97 9.38 310.39 9.38 296.73 0 304.64"/><polygon class="cls-6" points="0 228.58 0 240.59 9.38 232.69 9.38 220.67 0 228.58"/><polygon class="cls-7" points="9.38 278.32 9.38 266.31 0 274.21 0 286.23 9.38 278.32"/><polygon class="cls-2" points="9.38 217.47 9.38 207.47 0 215.82 0 225.38 9.38 217.47"/><polygon class="cls-8" points="9.38 293.54 9.38 281.52 0 289.43 0 301.44 9.38 293.54"/><polygon class="cls-3" points="312 11.6 322.29 11.6 315.51 3.57 305.22 3.57 312 11.6"/><polygon class="cls-4" points="298.96 11.6 309.25 11.6 302.48 3.57 292.19 3.57 298.96 11.6"/><polygon class="cls-5" points="263.39 3.57 251.12 3.57 258.47 11.6 270.16 11.6 263.39 3.57"/><polygon class="cls-6" points="328.55 3.57 318.25 3.57 325.03 11.6 335.32 11.6 328.55 3.57"/><polygon class="cls-7" points="285.93 11.6 296.22 11.6 289.45 3.57 279.16 3.57 285.93 11.6"/><polygon class="cls-2" points="338.06 11.6 346.62 11.6 339.47 3.57 331.29 3.57 338.06 11.6"/><polygon class="cls-8" points="272.9 11.6 283.19 11.6 276.42 3.57 266.13 3.57 272.9 11.6"/><path class="cls-2" d="M38.74,99.69a2.61,2.61,0,1,1,2.6-2.61A2.6,2.6,0,0,1,38.74,99.69Z"/><path class="cls-2" d="M4.64,433.11a2.61,2.61,0,1,1,2.61-2.61A2.6,2.6,0,0,1,4.64,433.11Z"/><path class="cls-2" d="M342.16,380.54a2.61,2.61,0,1,1,2.61-2.61A2.61,2.61,0,0,1,342.16,380.54Z"/></g></g></svg>