<svg xmlns="http://www.w3.org/2000/svg" xmlns:xlink="http://www.w3.org/1999/xlink" viewBox="0 0 490.79 184.74"><defs><style>.cls-1{mask:url(#mask);filter:url(#luminosity-noclip-4);}.cls-2,.cls-4,.cls-6{mix-blend-mode:multiply;}.cls-2{fill:url(#linear-gradient);}.cls-3{mask:url(#mask-2);filter:url(#luminosity-noclip-5);}.cls-4{fill:url(#linear-gradient-2);}.cls-5{mask:url(#mask-3);filter:url(#luminosity-noclip-6);}.cls-6{fill:url(#linear-gradient-3);}.cls-7,.cls-8{fill:#17cffc;}.cls-7{opacity:0.35;}.cls-9{mask:url(#mask-4);}.cls-10{mask:url(#mask-5);}.cls-11{mask:url(#mask-6);}.cls-12{filter:url(#luminosity-noclip-3);}.cls-13{filter:url(#luminosity-noclip-2);}.cls-14{filter:url(#luminosity-noclip);}</style><filter id="luminosity-noclip" x="299.16" y="-8284.55" width="150.58" height="32766" filterUnits="userSpaceOnUse" color-interpolation-filters="sRGB"><feFlood flood-color="#fff" result="bg"/><feBlend in="SourceGraphic" in2="bg"/></filter><mask id="mask" x="299.16" y="-8284.55" width="150.58" height="32766" maskUnits="userSpaceOnUse"><g class="cls-14"/></mask><linearGradient id="linear-gradient" x1="299.16" y1="174.78" x2="449.73" y2="174.78" gradientUnits="userSpaceOnUse"><stop offset="0"/><stop offset="0.1" stop-color="#060606"/><stop offset="0.22" stop-color="#151515"/><stop offset="0.36" stop-color="#303030"/><stop offset="0.51" stop-color="#545454"/><stop offset="0.67" stop-color="#838383"/><stop offset="0.83" stop-color="#bdbdbd"/><stop offset="1" stop-color="#fff"/></linearGradient><filter id="luminosity-noclip-2" x="34.11" y="-8284.55" width="130.6" height="32766" filterUnits="userSpaceOnUse" color-interpolation-filters="sRGB"><feFlood flood-color="#fff" result="bg"/><feBlend in="SourceGraphic" in2="bg"/></filter><mask id="mask-2" x="34.11" y="-8284.55" width="130.6" height="32766" maskUnits="userSpaceOnUse"><g class="cls-13"/></mask><linearGradient id="linear-gradient-2" x1="34.11" y1="10.28" x2="164.71" y2="10.28" gradientUnits="userSpaceOnUse"><stop offset="0" stop-color="#fff"/><stop offset="0.01" stop-color="#fbfbfb"/><stop offset="0.19" stop-color="#b0b0b0"/><stop offset="0.35" stop-color="#727272"/><stop offset="0.51" stop-color="#414141"/><stop offset="0.64" stop-color="#1d1d1d"/><stop offset="0.75" stop-color="#080808"/><stop offset="0.82"/></linearGradient><filter id="luminosity-noclip-3" x="22.13" y="-8284.55" width="138.45" height="32766" filterUnits="userSpaceOnUse" color-interpolation-filters="sRGB"><feFlood flood-color="#fff" result="bg"/><feBlend in="SourceGraphic" in2="bg"/></filter><mask id="mask-3" x="22.13" y="-8284.55" width="138.45" height="32766" maskUnits="userSpaceOnUse"><g class="cls-12"/></mask><linearGradient id="linear-gradient-3" x1="17.92" y1="33.09" x2="160.57" y2="33.09" xlink:href="#linear-gradient"/><filter id="luminosity-noclip-4" x="299.16" y="170.5" width="150.58" height="8.57" filterUnits="userSpaceOnUse" color-interpolation-filters="sRGB"><feFlood flood-color="#fff" result="bg"/><feBlend in="SourceGraphic" in2="bg"/></filter><mask id="mask-4" x="299.16" y="170.5" width="150.58" height="8.57" maskUnits="userSpaceOnUse"><g class="cls-1"><polygon class="cls-2" points="308.04 170.5 444.24 170.5 449.73 179.07 299.16 179.07 308.04 170.5"/></g></mask><filter id="luminosity-noclip-5" x="34.11" y="6" width="130.6" height="8.57" filterUnits="userSpaceOnUse" color-interpolation-filters="sRGB"><feFlood flood-color="#fff" result="bg"/><feBlend in="SourceGraphic" in2="bg"/></filter><mask id="mask-5" x="34.11" y="6" width="130.6" height="8.57" maskUnits="userSpaceOnUse"><g class="cls-3"><path class="cls-4" d="M45.42,6c-3.62,2.77-7.5,5.71-11.31,8.57H156.72l8-8.57Z"/></g></mask><filter id="luminosity-noclip-6" x="22.13" y="29.56" width="138.45" height="7.07" filterUnits="userSpaceOnUse" color-interpolation-filters="sRGB"><feFlood flood-color="#fff" result="bg"/><feBlend in="SourceGraphic" in2="bg"/></filter><mask id="mask-6" x="22.13" y="29.56" width="138.45" height="7.07" maskUnits="userSpaceOnUse"><g class="cls-5"><path class="cls-6" d="M154.18,36.63l6.39-7.07H32.06s-5.71,4.2-9.93,7.07Z"/></g></mask></defs><title>square_07</title><g id="Layer_2" data-name="Layer 2"><g id="Layer_1-2" data-name="Layer 1"><polygon class="cls-7" points="416.96 11.57 383.55 6.43 177.92 6.43 161.22 24.42 27.56 24.42 0.57 45.5 0.57 156.58 22.42 174.78 289.73 174.78 303.87 160.65 451.66 160.65 460.23 179.92 490.22 179.92 490.22 11.57 416.96 11.57"/><path class="cls-8" d="M490.79,180.49H459.86l-8.57-19.28H304.1L290,175.35H22.21L0,156.84V45.22L27.36,23.85H161l16.7-18h206L417,11h73.78Zm-30.19-1.14h29V12.14H416.92L383.5,7H178.17L161.46,25H27.75L1.14,45.78V156.31l21.48,17.9H289.5l14.13-14.13H452Z"/><polygon class="cls-8" points="11.17 36.31 11.17 31.16 27.88 18.96 159.61 18.96 177.28 0.96 211.98 0.96 217.12 6.43 177.92 6.43 161.22 24.42 27.56 24.42 11.17 36.31"/><polygon class="cls-8" points="490.22 179.92 486.36 184.74 457.77 184.74 448.13 166.11 306.12 166.11 300.01 172.21 292.94 172.21 303.87 160.65 451.66 160.65 460.23 179.92 490.22 179.92"/><polygon class="cls-8" points="374.12 6.85 418.68 14.56 469.23 14.56 479.08 14.56 486.36 20.13 486.36 71.11 490.22 77.54 490.22 11.57 416.96 11.57 385.26 6.43 374.12 6.85"/><path class="cls-8" d="M265.1,174.78c3.56-.24,5.6-.52,5.78-.85l-95.1-2.57,2.57-4.72H126.94l-5.57,3.86H24.56L4.85,154.43V100.67L.57,93.82v62.76l21.85,18.2Z"/><g class="cls-9"><polygon class="cls-8" points="308.04 170.5 444.24 170.5 449.73 179.07 299.16 179.07 308.04 170.5"/></g><g class="cls-10"><path class="cls-8" d="M45.42,6c-3.62,2.77-7.5,5.71-11.31,8.57H156.72l8-8.57Z"/></g><g class="cls-11"><path class="cls-8" d="M154.18,36.63l6.39-7.07H32.06s-5.71,4.2-9.93,7.07Z"/></g><polygon class="cls-8" points="269.24 0.44 271.71 3.85 287.48 3.85 284.97 0.38 269.24 0.44"/><polygon class="cls-8" points="233.53 0.58 235.9 3.85 251.68 3.85 249.26 0.52 233.53 0.58"/><polygon class="cls-8" points="251.39 0.51 253.81 3.85 269.58 3.85 267.12 0.45 251.39 0.51"/><polygon class="cls-8" points="304.94 0.3 307.51 3.85 323.29 3.85 320.67 0.23 304.94 0.3"/><polygon class="cls-8" points="287.09 0.37 289.61 3.85 305.38 3.85 302.82 0.3 287.09 0.37"/><polygon class="cls-8" points="377.12 0 358.5 0.08 361.22 3.85 379.69 3.85 377.12 0"/><polygon class="cls-8" points="322.8 0.23 325.42 3.85 341.19 3.85 338.52 0.16 322.8 0.23"/><polygon class="cls-8" points="217.76 0.64 220.33 3.85 233.77 3.85 231.41 0.59 217.76 0.64"/><polygon class="cls-8" points="340.65 0.15 343.32 3.85 359.1 3.85 356.38 0.09 340.65 0.15"/><polygon class="cls-8" points="75.82 178.43 78.29 181.85 94.06 181.85 91.55 178.37 75.82 178.43"/><polygon class="cls-8" points="40.12 178.57 42.48 181.85 58.26 181.85 55.85 178.51 40.12 178.57"/><polygon class="cls-8" points="57.97 178.5 60.39 181.85 76.16 181.85 73.7 178.44 57.97 178.5"/><polygon class="cls-8" points="111.53 178.29 114.1 181.85 129.87 181.85 127.25 178.23 111.53 178.29"/><polygon class="cls-8" points="93.67 178.36 96.19 181.85 111.97 181.85 109.4 178.3 93.67 178.36"/><polygon class="cls-8" points="183.71 178 165.08 178.08 167.81 181.85 186.28 181.85 183.71 178"/><polygon class="cls-8" points="129.38 178.22 132 181.85 147.78 181.85 145.11 178.16 129.38 178.22"/><polygon class="cls-8" points="24.34 178.64 26.91 181.85 40.36 181.85 37.99 178.58 24.34 178.64"/><polygon class="cls-8" points="147.23 178.15 149.9 181.85 165.68 181.85 162.96 178.09 147.23 178.15"/></g></g></svg>