<svg xmlns="http://www.w3.org/2000/svg" xmlns:xlink="http://www.w3.org/1999/xlink" viewBox="0 0 260.46 492.41"><defs><style>.cls-1{mask:url(#mask);filter:url(#luminosity-noclip-4);}.cls-2,.cls-4,.cls-6{mix-blend-mode:multiply;}.cls-2{fill:url(#linear-gradient);}.cls-3{mask:url(#mask-2);filter:url(#luminosity-noclip-5);}.cls-4{fill:url(#linear-gradient-2);}.cls-5{mask:url(#mask-3);filter:url(#luminosity-noclip-6);}.cls-6{fill:url(#linear-gradient-3);}.cls-10,.cls-11,.cls-12,.cls-13,.cls-14,.cls-15,.cls-7,.cls-8,.cls-9{fill:#17cffc;}.cls-7{opacity:0.35;}.cls-9{opacity:0.7;}.cls-10{opacity:0.8;}.cls-11{opacity:0.6;}.cls-12{opacity:0.3;}.cls-13{opacity:0.5;}.cls-14{opacity:0.2;}.cls-15{opacity:0.4;}.cls-16{mask:url(#mask-4);}.cls-17{mask:url(#mask-5);}.cls-18{mask:url(#mask-6);}.cls-19{filter:url(#luminosity-noclip-3);}.cls-20{filter:url(#luminosity-noclip-2);}.cls-21{filter:url(#luminosity-noclip);}</style><filter id="luminosity-noclip" x="245.37" y="-8438.38" width="6.83" height="32766" filterUnits="userSpaceOnUse" color-interpolation-filters="sRGB"><feFlood flood-color="#fff" result="bg"/><feBlend in="SourceGraphic" in2="bg"/></filter><mask id="mask" x="245.37" y="-8438.38" width="6.83" height="32766" maskUnits="userSpaceOnUse"><g class="cls-21"/></mask><linearGradient id="linear-gradient" x1="248.79" y1="38.72" x2="248.79" y2="202.91" gradientUnits="userSpaceOnUse"><stop offset="0" stop-color="#fff"/><stop offset="0.01" stop-color="#fbfbfb"/><stop offset="0.23" stop-color="#b0b0b0"/><stop offset="0.43" stop-color="#727272"/><stop offset="0.61" stop-color="#414141"/><stop offset="0.77" stop-color="#1d1d1d"/><stop offset="0.9" stop-color="#080808"/><stop offset="0.99"/></linearGradient><filter id="luminosity-noclip-2" x="4.55" y="-8438.38" width="6.83" height="32766" filterUnits="userSpaceOnUse" color-interpolation-filters="sRGB"><feFlood flood-color="#fff" result="bg"/><feBlend in="SourceGraphic" in2="bg"/></filter><mask id="mask-2" x="4.55" y="-8438.38" width="6.83" height="32766" maskUnits="userSpaceOnUse"><g class="cls-20"/></mask><linearGradient id="linear-gradient-2" x1="7.97" y1="127.06" x2="7.97" y2="291.25" xlink:href="#linear-gradient"/><filter id="luminosity-noclip-3" x="231.78" y="-8438.38" width="12.52" height="32766" filterUnits="userSpaceOnUse" color-interpolation-filters="sRGB"><feFlood flood-color="#fff" result="bg"/><feBlend in="SourceGraphic" in2="bg"/></filter><mask id="mask-3" x="231.78" y="-8438.38" width="12.52" height="32766" maskUnits="userSpaceOnUse"><g class="cls-19"/></mask><linearGradient id="linear-gradient-3" x1="-172.35" y1="-1662.89" x2="-1.66" y2="-1662.89" gradientTransform="translate(-1424.84 460.28) rotate(90)" gradientUnits="userSpaceOnUse"><stop offset="0"/><stop offset="0.18" stop-color="#030303"/><stop offset="0.31" stop-color="#0d0d0d"/><stop offset="0.43" stop-color="#1d1d1d"/><stop offset="0.54" stop-color="#343434"/><stop offset="0.64" stop-color="#515151"/><stop offset="0.74" stop-color="#757575"/><stop offset="0.83" stop-color="#a0a0a0"/><stop offset="0.92" stop-color="#d1d1d1"/><stop offset="1" stop-color="#fff"/></linearGradient><filter id="luminosity-noclip-4" x="245.37" y="38.72" width="6.83" height="164.19" filterUnits="userSpaceOnUse" color-interpolation-filters="sRGB"><feFlood flood-color="#fff" result="bg"/><feBlend in="SourceGraphic" in2="bg"/></filter><mask id="mask-4" x="245.37" y="38.72" width="6.83" height="164.19" maskUnits="userSpaceOnUse"><g class="cls-1"><polygon class="cls-2" points="252.2 50.68 245.37 38.72 245.37 187.88 252.2 202.91 252.2 50.68"/></g></mask><filter id="luminosity-noclip-5" x="4.55" y="127.06" width="6.83" height="164.19" filterUnits="userSpaceOnUse" color-interpolation-filters="sRGB"><feFlood flood-color="#fff" result="bg"/><feBlend in="SourceGraphic" in2="bg"/></filter><mask id="mask-5" x="4.55" y="127.06" width="6.83" height="164.19" maskUnits="userSpaceOnUse"><g class="cls-3"><polygon class="cls-4" points="11.39 132.18 4.55 127.06 4.55 286.46 11.39 291.25 11.39 132.18"/></g></mask><filter id="luminosity-noclip-6" x="231.78" y="337.49" width="12.52" height="121.13" filterUnits="userSpaceOnUse" color-interpolation-filters="sRGB"><feFlood flood-color="#fff" result="bg"/><feBlend in="SourceGraphic" in2="bg"/></filter><mask id="mask-6" x="231.78" y="337.49" width="12.52" height="121.13" maskUnits="userSpaceOnUse"><g class="cls-5"><polygon class="cls-6" points="244.31 337.49 239.75 337.49 239.75 356.05 231.78 360.12 231.78 451.21 244.31 458.62 244.31 337.49"/></g></mask></defs><title>square_14</title><g id="Layer_2" data-name="Layer 2"><g id="Layer_1-2" data-name="Layer 1"><polygon class="cls-7" points="240.75 191.07 240.75 11.66 239.3 11.66 235.69 0.85 170.79 0.85 164.04 11.66 20.4 11.66 7.73 33.88 7.73 151.58 15.42 156.86 15.42 351.77 20.4 355.2 20.4 482.08 240.75 482.08 240.75 477.82 249.36 463.52 249.36 212.93 240.75 191.07"/><path class="cls-8" d="M241.6,482.93h-222V355.65l-5-3.43V157.31L6.88,152V33.65l13-22.84H163.56L170.32,0h66l3.6,10.81h1.69v180.1l8.61,21.86v251l-8.61,14.3ZM21.25,481.22H239.89v-3.64l8.61-14.3V213.09l-8.61-21.86V12.52h-1.21l-3.6-10.81H171.27l-6.76,10.81H20.9L8.59,34.1v117l7.68,5.28V351.32l5,3.43Z"/><polygon class="cls-8" points="249.36 212.36 249.36 463.15 254.48 460.94 254.48 265.49 260.46 251.72 260.46 234.75 249.36 212.36"/><polygon class="cls-8" points="101.91 487.86 14.38 487.86 14.38 358.2 15.23 358.2 15.23 487 101.91 487 101.91 487.86"/><polygon class="cls-8" points="59.21 492.41 9.25 492.41 9.25 419.97 10.11 419.97 10.11 491.56 59.21 491.56 59.21 492.41"/><polygon class="cls-8" points="239.3 11.66 235.69 0.85 170.79 0.85 164.04 12.52 229.87 12.52 233.99 28.87 233.99 178.76 240.75 199.04 240.75 11.66 239.3 11.66"/><polygon class="cls-8" points="20.4 355.2 20.4 481.17 139.07 481.17 133.79 475.48 25.62 475.48 25.62 354.21 15.37 345.67 15.42 351.77 20.4 355.2"/><polygon class="cls-8" points="7.69 36.84 20.4 11.66 12.81 11.66 0 35.12 0 126.92 4.55 136.07 4.55 150.29 7.73 152.72 7.73 140.07 7.69 139.97 7.69 36.84"/><polygon class="cls-9" points="96.01 1.14 84.32 1.14 80.01 8.54 91.7 8.54 96.01 1.14"/><polygon class="cls-8" points="55.79 1.14 50.1 8.54 63.05 8.54 67.36 1.14 55.79 1.14"/><polygon class="cls-10" points="81.69 1.14 70 1.14 65.68 8.54 77.38 8.54 81.69 1.14"/><polygon class="cls-11" points="110.34 1.14 98.65 1.14 94.34 8.54 106.03 8.54 110.34 1.14"/><polygon class="cls-12" points="153.32 1.14 141.63 1.14 137.32 8.54 149.01 8.54 153.32 1.14"/><polygon class="cls-13" points="124.67 1.14 112.98 1.14 108.66 8.54 120.36 8.54 124.67 1.14"/><polygon class="cls-14" points="151.64 8.54 161.11 8.54 165.67 1.14 155.96 1.14 151.64 8.54"/><polygon class="cls-15" points="138.99 1.14 127.3 1.14 122.99 8.54 134.68 8.54 138.99 1.14"/><g class="cls-16"><polygon class="cls-8" points="252.2 157.13 245.37 145.17 245.37 187.88 252.2 202.91 252.2 157.13"/></g><g class="cls-17"><polygon class="cls-8" points="11.39 159.98 4.55 154.86 4.55 286.46 11.39 291.25 11.39 159.98"/></g><g class="cls-18"><polygon class="cls-8" points="244.31 337.49 239.75 337.49 239.75 356.05 231.78 360.12 231.78 451.21 244.31 458.62 244.31 337.49"/></g><polygon class="cls-8" points="249.36 212.36 249.36 463.15 254.48 460.94 254.48 265.49 260.46 251.72 260.46 234.75 249.36 212.36"/><polygon class="cls-8" points="239.3 11.66 235.69 0.85 170.79 0.85 164.04 12.52 229.87 12.52 233.99 28.87 233.99 178.76 240.75 199.04 240.75 11.66 239.3 11.66"/><polygon class="cls-8" points="20.4 355.2 20.4 481.17 139.07 481.17 133.79 475.48 25.62 475.48 25.62 354.21 15.37 345.67 15.42 351.77 20.4 355.2"/><polygon class="cls-8" points="7.69 36.84 20.4 11.66 12.81 11.66 0 35.12 0 126.92 4.55 136.07 4.55 150.29 7.73 152.72 7.73 140.07 7.69 139.97 7.69 36.84"/><polygon class="cls-9" points="96.01 1.14 84.32 1.14 80.01 8.54 91.7 8.54 96.01 1.14"/><polygon class="cls-8" points="55.79 1.14 50.1 8.54 63.05 8.54 67.36 1.14 55.79 1.14"/><polygon class="cls-10" points="81.69 1.14 70 1.14 65.68 8.54 77.38 8.54 81.69 1.14"/><polygon class="cls-11" points="110.34 1.14 98.65 1.14 94.34 8.54 106.03 8.54 110.34 1.14"/><polygon class="cls-12" points="153.32 1.14 141.63 1.14 137.32 8.54 149.01 8.54 153.32 1.14"/><polygon class="cls-13" points="124.67 1.14 112.98 1.14 108.66 8.54 120.36 8.54 124.67 1.14"/><polygon class="cls-14" points="151.64 8.54 161.11 8.54 165.67 1.14 155.96 1.14 151.64 8.54"/><polygon class="cls-15" points="138.99 1.14 127.3 1.14 122.99 8.54 134.68 8.54 138.99 1.14"/></g></g></svg>