<svg xmlns="http://www.w3.org/2000/svg" viewBox="0 0 493.61 491.7"><defs><style>.cls-1,.cls-2{fill:#17cffc;}.cls-1{opacity:0.35;}</style></defs><title>square_10</title><g id="Layer_2" data-name="Layer 2"><g id="Layer_1-2" data-name="Layer 1"><polygon class="cls-1" points="470.22 93.38 470.22 21.64 385.57 21.64 369.53 8.61 25.91 8.61 32.6 20.2 32.6 255.51 0.96 290.88 0.96 490.74 257.25 490.74 277.95 466.44 483.09 466.44 483.09 115.5 470.22 93.38"/><path class="cls-2" d="M257.69,491.7H0V290.51l31.64-35.36V20.46L24.25,7.65H369.87l16,13h85.27V93.12L484,115.25V467.39H278.4ZM1.91,489.78h254.9l20.7-24.3H482.13V115.76L469.27,93.64v-71h-84l-16-13H27.57l6,10.38V255.88L1.91,291.24Z"/><polygon class="cls-2" points="326.01 466.44 308.98 451.84 275.18 451.84 252.23 477.98 11.16 477.98 15.63 465.87 15.63 379.77 10.52 370.21 10.52 291.13 40.5 257.96 40.5 229.27 32.84 238.83 32.6 238.85 32.6 255.51 0.96 290.88 0.96 490.74 257.25 490.74 277.95 466.44 326.01 466.44"/><polygon class="cls-2" points="479.26 4.78 469.69 14.99 389.98 14.99 371.48 0.96 329.39 0.96 336.41 8.61 372.12 10.52 385.57 21.64 469.69 21.64 469.69 94.07 479.26 28.38 479.26 4.78"/><polygon class="cls-2" points="208.72 16.26 203.42 26.47 235.64 26.47 241.38 16.26 208.72 16.26"/><polygon class="cls-2" points="101.88 26.47 195.52 26.47 200.82 16.26 107.17 16.26 101.88 26.47"/><polygon class="cls-2" points="49.42 66.35 49.42 26.47 93.97 26.47 99.27 16.26 40.5 16.26 40.5 77.73 49.42 66.35"/><polygon class="cls-2" points="40.5 89.09 40.5 115.11 49.42 103.63 49.42 77.72 40.5 89.09"/><path class="cls-2" d="M24.55,133.93a1,1,0,0,1-.95-1V26L14.09,1.3A1,1,0,0,1,15,0H174.42a1,1,0,1,1,0,1.91h-158l9.07,23.58a.93.93,0,0,1,.06.34V133A1,1,0,0,1,24.55,133.93Z"/><path class="cls-2" d="M473.52,171.71a.48.48,0,0,1-.48-.48V115.91L460.38,98.82a.52.52,0,0,1-.09-.29V31.41H385.51a.53.53,0,0,1-.29-.1l-18.49-14a.48.48,0,1,1,.58-.76l18.36,13.93h75.1a.48.48,0,0,1,.47.48V98.37l12.66,17.09a.46.46,0,0,1,.1.29v55.48A.48.48,0,0,1,473.52,171.71Z"/><polygon class="cls-2" points="389.74 466.49 445.57 466.46 429.51 451.62 373.79 451.75 389.74 466.49"/><polygon class="cls-2" points="483.09 387.18 483.09 349.16 470.97 365.74 470.97 400.29 483.09 387.18"/><polygon class="cls-2" points="359.06 451.78 335.77 451.84 352.35 466.5 374.98 466.49 359.06 451.78"/><polygon class="cls-2" points="470.97 415.06 470.97 451.52 444.24 451.58 460.33 466.45 483.09 466.44 483.09 401.95 470.97 415.06"/><path class="cls-2" d="M274.55,488.83a.92.92,0,0,1-.64-.25,1,1,0,0,1-.08-1.35l9.67-10.84a1,1,0,0,1,.71-.32H491.7V333.54a1,1,0,1,1,1.91,0V477a1,1,0,0,1-1,1h-208l-9.38,10.53A1,1,0,0,1,274.55,488.83Z"/><path class="cls-2" d="M19.13,367.82a.49.49,0,0,1-.48-.48v-74a.51.51,0,0,1,.13-.33L49,261V210.77a.48.48,0,1,1,.95,0v50.38a.44.44,0,0,1-.13.33L19.61,293.55v73.79A.48.48,0,0,1,19.13,367.82Z"/><polygon class="cls-2" points="326.01 466.44 308.98 451.84 275.18 451.84 252.23 477.98 11.16 477.98 15.63 465.87 15.63 379.77 10.52 370.21 10.52 291.13 40.5 257.96 40.5 229.27 32.84 238.83 32.6 238.85 32.6 255.51 0.96 290.88 0.96 490.74 257.25 490.74 277.95 466.44 326.01 466.44"/><polygon class="cls-2" points="479.26 4.78 469.69 14.99 389.98 14.99 371.48 0.96 329.39 0.96 336.41 8.61 372.12 10.52 385.57 21.64 469.69 21.64 469.69 94.07 479.26 28.38 479.26 4.78"/><polygon class="cls-2" points="208.72 16.26 203.42 26.47 235.64 26.47 241.38 16.26 208.72 16.26"/><polygon class="cls-2" points="101.88 26.47 195.52 26.47 200.82 16.26 107.17 16.26 101.88 26.47"/><polygon class="cls-2" points="49.42 66.35 49.42 26.47 93.97 26.47 99.27 16.26 40.5 16.26 40.5 77.73 49.42 66.35"/><polygon class="cls-2" points="40.5 89.09 40.5 115.11 49.42 103.63 49.42 77.72 40.5 89.09"/><polygon class="cls-2" points="389.74 466.49 445.57 466.46 429.51 451.62 373.79 451.75 389.74 466.49"/><polygon class="cls-2" points="483.09 387.18 483.09 349.16 470.97 365.74 470.97 400.29 483.09 387.18"/><polygon class="cls-2" points="359.06 451.78 335.77 451.84 352.35 466.5 374.98 466.49 359.06 451.78"/><polygon class="cls-2" points="470.97 415.06 470.97 451.52 444.24 451.58 460.33 466.45 483.09 466.44 483.09 401.95 470.97 415.06"/></g></g></svg>