<svg xmlns="http://www.w3.org/2000/svg" xmlns:xlink="http://www.w3.org/1999/xlink" viewBox="0 0 495.66 241.89"><defs><style>.cls-1{mask:url(#mask);filter:url(#luminosity-noclip-2);}.cls-2{mix-blend-mode:multiply;fill:url(#linear-gradient);}.cls-10,.cls-11,.cls-12,.cls-3,.cls-4,.cls-5,.cls-6,.cls-7,.cls-8,.cls-9{fill:#17cffc;}.cls-4{opacity:0.35;}.cls-5{opacity:0.2;}.cls-6{opacity:0.3;}.cls-7{opacity:0.8;}.cls-8{opacity:0.4;}.cls-9{opacity:0.7;}.cls-10{opacity:0.1;}.cls-11{opacity:0.6;}.cls-12{opacity:0.5;}.cls-13{clip-path:url(#clip-path);}.cls-14{clip-path:url(#clip-path-2);}.cls-15{mask:url(#mask-2);}.cls-16{filter:url(#luminosity-noclip);}</style><filter id="luminosity-noclip" x="260.99" y="-8313.12" width="153.16" height="32766" filterUnits="userSpaceOnUse" color-interpolation-filters="sRGB"><feFlood flood-color="#fff" result="bg"/><feBlend in="SourceGraphic" in2="bg"/></filter><mask id="mask" x="260.99" y="-8313.12" width="153.16" height="32766" maskUnits="userSpaceOnUse"><g class="cls-16"/></mask><linearGradient id="linear-gradient" x1="260.17" y1="228.7" x2="414.15" y2="228.7" gradientUnits="userSpaceOnUse"><stop offset="0"/><stop offset="0.18" stop-color="#030303"/><stop offset="0.31" stop-color="#0d0d0d"/><stop offset="0.43" stop-color="#1d1d1d"/><stop offset="0.54" stop-color="#343434"/><stop offset="0.64" stop-color="#515151"/><stop offset="0.74" stop-color="#757575"/><stop offset="0.83" stop-color="#a0a0a0"/><stop offset="0.92" stop-color="#d1d1d1"/><stop offset="1" stop-color="#fff"/></linearGradient><clipPath id="clip-path"><path id="SVGID" class="cls-3" d="M476,170.39a.7.7,0,0,1-.7-.7V5h-59a.7.7,0,1,1,0-1.4H476a.7.7,0,0,1,.7.7V169.69A.7.7,0,0,1,476,170.39Z"/></clipPath><clipPath id="clip-path-2"><path id="SVGID-2" data-name="SVGID" class="cls-3" d="M418.94,4.26A4.26,4.26,0,1,1,414.68,0,4.26,4.26,0,0,1,418.94,4.26Z"/></clipPath><filter id="luminosity-noclip-2" x="260.99" y="222.97" width="153.16" height="11.45" filterUnits="userSpaceOnUse" color-interpolation-filters="sRGB"><feFlood flood-color="#fff" result="bg"/><feBlend in="SourceGraphic" in2="bg"/></filter><mask id="mask-2" x="260.99" y="222.97" width="153.16" height="11.45" maskUnits="userSpaceOnUse"><g class="cls-1"><polygon class="cls-2" points="356.07 234.43 404.02 233.9 414.15 223.24 269.76 222.97 260.99 234.43 356.07 234.43"/></g></mask></defs><title>square_13</title><g id="Layer_2" data-name="Layer 2"><g id="Layer_1-2" data-name="Layer 1"><path class="cls-4" d="M467.08,168.36V12.69H271.24L253.76,29.47H98c-14,12.86-30.43,27.77-43.28,39V106H30.13L7.2,123.94v94.35l18.56,15.46H252.83L268,217l149.78.38C429.53,205.94,452.87,183.14,467.08,168.36Z"/><path class="cls-3" d="M253.14,234.45H25.51l-19-15.83v-95l23.39-18.27H54V68.17l.24-.21c10.84-9.5,25.4-22.62,43.27-39l.2-.18H253.48L271,12H467.78V168.64l-.2.21c-14.06,14.63-36.92,37-49.29,49l-.2.2-149.75-.38ZM26,233.06h226.5l15.2-16.81H268l149.48.38c12.36-12,34.87-34,48.86-48.55V13.39H271.52L254,30.17H98.27C80.62,46.36,66.21,59.35,55.42,68.81v37.92h-25L7.9,124.28V218Z"/><polygon class="cls-5" points="495.66 159.98 495.66 144.75 482.02 137.54 482.12 152.82 495.66 159.98"/><polygon class="cls-6" points="495.66 141.06 495.66 125.83 481.9 118.56 482 133.84 495.66 141.06"/><polygon class="cls-7" points="481.69 23.85 481.69 39.08 495.66 46.46 495.66 31.23 481.69 23.85"/><polygon class="cls-8" points="481.77 99.57 481.87 114.85 495.66 122.14 495.66 106.91 481.77 99.57"/><polygon class="cls-9" points="495.66 65.38 495.66 50.15 481.69 42.77 481.69 58 495.66 65.38"/><polygon class="cls-10" points="495.66 163.67 482.14 156.52 482.23 170.37 495.66 176.88 495.66 163.67"/><polygon class="cls-11" points="495.66 84.3 495.66 69.07 481.69 61.69 481.69 76.92 495.66 84.3"/><polygon class="cls-12" points="495.66 103.22 495.66 87.99 481.69 80.61 481.69 87.25 481.75 95.87 495.66 103.22"/><polygon class="cls-3" points="495.66 27.54 495.66 12.11 481.69 4.42 481.69 20.16 495.66 27.54"/><path id="SVGID-4" data-name="SVGID" class="cls-3" d="M476,170.39a.7.7,0,0,1-.7-.7V5h-59a.7.7,0,1,1,0-1.4H476a.7.7,0,0,1,.7.7V169.69A.7.7,0,0,1,476,170.39Z"/><g class="cls-13"><rect class="cls-3" x="415.58" y="3.56" width="61.07" height="166.83"/><path class="cls-3" d="M446.11,149.79a220.72,220.72,0,0,1-23.87-1.28q-5.78-.62-11.35-1.54h4V27h-4q5.57-.91,11.35-1.55a225,225,0,0,1,47.74,0q5.79.63,11.35,1.55h-4V147h4q-5.55.92-11.35,1.54A220.59,220.59,0,0,1,446.11,149.79Z"/><path class="cls-3" d="M446.11,118.38a105.86,105.86,0,0,1-23.05-2.46A86,86,0,0,1,413,113h1.88V60.94H413A86,86,0,0,1,423.06,58a108.79,108.79,0,0,1,46.1,0,85.43,85.43,0,0,1,10.06,2.9h-1.87V113h1.87a85.43,85.43,0,0,1-10.06,2.9A105.73,105.73,0,0,1,446.11,118.38Z"/></g><path id="SVGID-5" data-name="SVGID" class="cls-3" d="M418.94,4.26A4.26,4.26,0,1,1,414.68,0,4.26,4.26,0,0,1,418.94,4.26Z"/><g class="cls-14"><rect class="cls-3" x="410.42" width="8.52" height="8.52"/><path class="cls-3" d="M414.68,8.52c-4.44,0-8-1.9-8-4.26s3.6-4.26,8-4.26,8,1.91,8,4.26S419.12,8.52,414.68,8.52Z"/><path class="cls-3" d="M414.68,6.39c-2.22,0-4-.95-4-2.13s1.8-2.13,4-2.13,4,1,4,2.13S416.9,6.39,414.68,6.39Z"/></g><g class="cls-15"><polygon class="cls-3" points="356.07 234.43 404.02 233.9 414.15 223.24 269.76 222.97 260.99 234.43 356.07 234.43"/></g><polygon class="cls-3" points="54.72 67.69 48.73 71.34 48.73 100.31 35.94 100.31 29.33 106.03 54.72 106.03 54.72 67.69"/><polygon class="cls-3" points="24.96 233.35 34.53 241.89 92.07 241.89 98.07 237.49 213.95 237.49 219.15 233.9 24.96 233.35"/><polygon class="cls-3" points="320.76 3.73 269.49 3.73 253.51 18.42 252.71 25.27 269.89 8.53 325.11 8.53 320.76 3.73"/><path class="cls-3" d="M.7,219.14a.69.69,0,0,1-.7-.69V120.94a.72.72,0,0,1,.27-.55L27.44,99.08a.7.7,0,0,1,1,.12.69.69,0,0,1-.12,1L1.4,121.28v97.17A.69.69,0,0,1,.7,219.14Z"/><polygon class="cls-3" points="232.18 20.11 106.86 20.11 100.07 25.71 236.33 25.71 236.33 25.24 232.18 20.11"/><polygon class="cls-3" points="248.98 233.36 268.43 211.52 297.46 211.52 308.65 203.53 366.73 203.53 373.12 209.92 417.34 209.92 466.89 161.44 467.08 168.36 417.81 217.33 268.03 216.95 252.83 233.75 248.98 233.36"/><path class="cls-3" d="M257,34.45H246.85a.35.35,0,1,1,0-.7h10L272.71,18.4a.35.35,0,0,1,.25-.1H458.9a.35.35,0,0,1,.35.35.35.35,0,0,1-.35.35H273.1L257.22,34.35A.39.39,0,0,1,257,34.45Z"/><path class="cls-3" d="M220.21,227.32H27.87a.37.37,0,0,1-.24-.1L16.44,216.57a.36.36,0,0,1,0-.5.35.35,0,0,1,.49,0L28,226.62h192.2a.35.35,0,0,1,0,.7Z"/><polygon class="cls-5" points="495.66 159.98 495.66 144.75 482.02 137.54 482.12 152.82 495.66 159.98"/><polygon class="cls-6" points="495.66 141.06 495.66 125.83 481.9 118.56 482 133.84 495.66 141.06"/><polygon class="cls-7" points="481.69 23.85 481.69 39.08 495.66 46.46 495.66 31.23 481.69 23.85"/><polygon class="cls-8" points="481.77 99.57 481.87 114.85 495.66 122.14 495.66 106.91 481.77 99.57"/><polygon class="cls-9" points="495.66 65.38 495.66 50.15 481.69 42.77 481.69 58 495.66 65.38"/><polygon class="cls-10" points="495.66 163.67 482.14 156.52 482.23 170.37 495.66 176.88 495.66 163.67"/><polygon class="cls-11" points="495.66 84.3 495.66 69.07 481.69 61.69 481.69 76.92 495.66 84.3"/><polygon class="cls-12" points="495.66 103.22 495.66 87.99 481.69 80.61 481.69 87.25 481.75 95.87 495.66 103.22"/><polygon class="cls-3" points="495.66 27.54 495.66 12.11 481.69 4.42 481.69 20.16 495.66 27.54"/><path id="SVGID-6" data-name="SVGID" class="cls-3" d="M418.94,4.26A4.26,4.26,0,1,1,414.68,0,4.26,4.26,0,0,1,418.94,4.26Z"/><g class="cls-14"><rect class="cls-3" x="410.42" width="8.52" height="8.52"/><path class="cls-3" d="M414.68,8.52c-4.44,0-8-1.9-8-4.26s3.6-4.26,8-4.26,8,1.91,8,4.26S419.12,8.52,414.68,8.52Z"/><path class="cls-3" d="M414.68,6.39c-2.22,0-4-.95-4-2.13s1.8-2.13,4-2.13,4,1,4,2.13S416.9,6.39,414.68,6.39Z"/></g><polygon class="cls-3" points="54.72 67.69 48.73 71.34 48.73 100.31 35.94 100.31 29.33 106.03 54.72 106.03 54.72 67.69"/><polygon class="cls-3" points="24.96 233.35 34.53 241.89 92.07 241.89 98.07 237.49 213.95 237.49 219.15 233.9 24.96 233.35"/><polygon class="cls-3" points="320.76 3.73 269.49 3.73 253.51 18.42 252.71 25.27 269.89 8.53 325.11 8.53 320.76 3.73"/><polygon class="cls-3" points="232.18 20.11 106.86 20.11 100.07 25.71 236.33 25.71 236.33 25.24 232.18 20.11"/><polygon class="cls-3" points="248.98 233.36 268.43 211.52 297.46 211.52 308.65 203.53 366.73 203.53 373.12 209.92 417.34 209.92 466.89 161.44 467.08 168.36 417.81 217.33 268.03 216.95 252.83 233.75 248.98 233.36"/></g></g></svg>