<svg xmlns="http://www.w3.org/2000/svg" xmlns:xlink="http://www.w3.org/1999/xlink" viewBox="0 0 494.35 287.53"><defs><style>.cls-1{mask:url(#mask);filter:url(#luminosity-noclip-2);}.cls-2{mix-blend-mode:multiply;fill:url(#linear-gradient);}.cls-11,.cls-12,.cls-3,.cls-4,.cls-5,.cls-6,.cls-7,.cls-8,.cls-9{fill:#17cffc;}.cls-3{opacity:0.35;}.cls-5{opacity:0.7;}.cls-6{opacity:0.4;}.cls-7{opacity:0.2;}.cls-8{opacity:0.5;}.cls-9{opacity:0.6;}.cls-10{mask:url(#mask-2);}.cls-11{opacity:0.9;}.cls-12{opacity:0.8;}.cls-13{filter:url(#luminosity-noclip);}</style><filter id="luminosity-noclip" x="277.54" y="-8335.95" width="121.85" height="32766" filterUnits="userSpaceOnUse" color-interpolation-filters="sRGB"><feFlood flood-color="#fff" result="bg"/><feBlend in="SourceGraphic" in2="bg"/></filter><mask id="mask" x="277.54" y="-8335.95" width="121.85" height="32766" maskUnits="userSpaceOnUse"><g class="cls-13"/></mask><linearGradient id="linear-gradient" x1="277.54" y1="255.83" x2="399.39" y2="255.83" gradientUnits="userSpaceOnUse"><stop offset="0" stop-color="#fff"/><stop offset="0.04" stop-color="#e9e9e9"/><stop offset="0.15" stop-color="#b3b3b3"/><stop offset="0.26" stop-color="#838383"/><stop offset="0.37" stop-color="#5b5b5b"/><stop offset="0.48" stop-color="#3a3a3a"/><stop offset="0.6" stop-color="#202020"/><stop offset="0.72" stop-color="#0e0e0e"/><stop offset="0.85" stop-color="#030303"/><stop offset="0.99"/></linearGradient><filter id="luminosity-noclip-2" x="277.54" y="251.54" width="121.85" height="8.57" filterUnits="userSpaceOnUse" color-interpolation-filters="sRGB"><feFlood flood-color="#fff" result="bg"/><feBlend in="SourceGraphic" in2="bg"/></filter><mask id="mask-2" x="277.54" y="251.54" width="121.85" height="8.57" maskUnits="userSpaceOnUse"><g class="cls-1"><polygon class="cls-2" points="277.54 260.11 399.39 260.11 391.23 251.54 277.54 251.54 277.54 260.11"/></g></mask></defs><title>square_05</title><g id="Layer_2" data-name="Layer 2"><g id="Layer_1-2" data-name="Layer 1"><polygon class="cls-3" points="484.21 46.66 484.21 29.68 346.68 29.68 331.01 43.7 133.93 43.7 108.68 29.68 9.42 29.68 9.42 266.22 84.1 266.22 103.46 245.92 396.61 245.92 409.89 266.22 484.21 266.22 484.21 223.45 474.12 213.36 474.12 51.41 484.21 46.66"/><path class="cls-4" d="M485.35,266.79h-75.2l-13.27-20.3H104.27l-19.35,20.3H9.42V29.11h100l25.25,14H331.37l15.66-14H485.35V47l-10.09,4.75V213.12l10.09,10.1Zm-74.58-1.14h73.44v-42L474.12,213.6V51l10.09-4.74v-16H347.47l-15.67,14H134.35l-25.25-14H10.56v235.4H84.43l19.35-20.3H397.49Z"/><path class="cls-4" d="M96.4,21.12H11.7a2.29,2.29,0,0,0-2.28,2.29v6.47H109.58V29Z"/><path class="cls-4" d="M62.72,287.53H3.86a1.6,1.6,0,0,1-1.59-1.61v-4.57H71.88V282Z"/><path class="cls-4" d="M483.11,24.55H388.92L385.23,28H348.67a1.72,1.72,0,0,0-.39,0l-1.81,1.66a2.64,2.64,0,0,0-.08.49h139V26.84A2.28,2.28,0,0,0,483.11,24.55Z"/><path class="cls-4" d="M452.27,10.3H384l-2.67,2.57H354.76a2.4,2.4,0,0,0-.28,0l-1.32,1.25a2.2,2.2,0,0,0-.06.37H453.93V12A1.69,1.69,0,0,0,452.27,10.3Z"/><path class="cls-4" d="M86.45,265.26H9.32v8.28a2.28,2.28,0,0,0,2.28,2.28H75.92Z"/><polygon class="cls-4" points="485.26 222.98 484.64 222.98 484.64 265.83 409.8 265.83 409.8 266.32 415.91 275.54 484.64 275.54 485.21 275.54 494.35 275.54 494.35 232.61 485.26 222.98"/><rect class="cls-5" x="480.54" y="113.29" width="5.33" height="14.47"/><rect class="cls-4" x="480.54" y="74.44" width="5.33" height="14.47"/><rect class="cls-5" x="480.54" y="93.87" width="5.33" height="14.47"/><rect class="cls-6" x="480.54" y="132.72" width="5.33" height="14.47"/><rect class="cls-6" x="480.54" y="152.14" width="5.33" height="14.47"/><polygon class="cls-7" points="480.54 190.99 480.54 209.27 485.88 217.65 485.88 190.99 480.54 190.99"/><polygon class="cls-4" points="485.88 69.49 485.88 54.59 480.54 56.92 480.54 69.49 485.88 69.49"/><rect class="cls-7" x="480.54" y="171.56" width="5.33" height="14.47"/><rect class="cls-8" x="229.55" y="251.54" width="16.57" height="8.57"/><rect class="cls-9" x="205.56" y="251.54" width="16.57" height="8.57"/><rect class="cls-6" x="253.55" y="251.54" width="16.57" height="8.57"/><g class="cls-10"><polygon class="cls-6" points="277.54 260.11 399.39 260.11 391.23 251.54 277.54 251.54 277.54 260.11"/></g><rect class="cls-5" x="181.57" y="251.54" width="16.57" height="8.57"/><polygon class="cls-4" points="126.15 251.54 110.72 251.54 102.69 260.11 126.15 260.11 126.15 251.54"/><rect class="cls-11" x="133.58" y="251.54" width="16.57" height="8.57"/><rect class="cls-12" x="157.57" y="251.54" width="16.57" height="8.57"/><path class="cls-4" d="M324.39,39H138.15a.56.56,0,0,1-.31-.09L120.7,28.08a.58.58,0,0,1-.17-.79.56.56,0,0,1,.78-.17l17,10.76H324.18l29-23.86a.53.53,0,0,1,.36-.13h100a.56.56,0,0,1,.57.57.57.57,0,0,1-.57.57H353.73l-29,23.86A.53.53,0,0,1,324.39,39Z"/><path class="cls-4" d="M71.31,282.39H2.75a.57.57,0,0,1-.57-.57V21.88a.58.58,0,0,1,.57-.57.57.57,0,0,1,.57.57V281.25h68a.58.58,0,0,1,.57.57A.57.57,0,0,1,71.31,282.39Z"/><polygon class="cls-4" points="413.85 261.42 398.88 239.64 279.92 239.64 279.92 239.07 399.18 239.07 414.32 261.1 413.85 261.42"/><polygon class="cls-4" points="468.64 129.29 468.07 129.29 468.07 48.01 476.77 42.21 477.08 42.69 468.64 48.32 468.64 129.29"/><circle class="cls-4" cx="2.86" cy="23.42" r="2.86"/><path class="cls-4" d="M485.35,266.79h-75.2l-13.27-20.3H104.27l-19.35,20.3H9.42V29.11h100l25.25,14H331.37l15.66-14H485.35V47l-10.09,4.75V213.12l10.09,10.1Zm-74.58-1.14h73.44v-42L474.12,213.6V51l10.09-4.74v-16H347.47l-15.67,14H134.35l-25.25-14H10.56v235.4H84.43l19.35-20.3H397.49Z"/><path class="cls-4" d="M96.4,21.12H11.7a2.29,2.29,0,0,0-2.28,2.29v6.47H109.58V29Z"/><path class="cls-4" d="M62.72,287.53H3.86a1.6,1.6,0,0,1-1.59-1.61v-4.57H71.88V282Z"/><path class="cls-4" d="M483.11,24.55H388.92L385.23,28H348.67a1.72,1.72,0,0,0-.39,0l-1.81,1.66a2.64,2.64,0,0,0-.08.49h139V26.84A2.28,2.28,0,0,0,483.11,24.55Z"/><path class="cls-4" d="M452.27,10.3H384l-2.67,2.57H354.76a2.4,2.4,0,0,0-.28,0l-1.32,1.25a2.2,2.2,0,0,0-.06.37H453.93V12A1.69,1.69,0,0,0,452.27,10.3Z"/><path class="cls-4" d="M86.45,265.26H9.32v8.28a2.28,2.28,0,0,0,2.28,2.28H75.92Z"/><polygon class="cls-4" points="485.26 222.98 484.64 222.98 484.64 265.83 409.8 265.83 409.8 266.32 415.91 275.54 484.64 275.54 485.21 275.54 494.35 275.54 494.35 232.61 485.26 222.98"/><rect class="cls-5" x="480.54" y="113.29" width="5.33" height="14.47"/><rect class="cls-4" x="480.54" y="74.44" width="5.33" height="14.47"/><rect class="cls-5" x="480.54" y="93.87" width="5.33" height="14.47"/><rect class="cls-6" x="480.54" y="132.72" width="5.33" height="14.47"/><rect class="cls-6" x="480.54" y="152.14" width="5.33" height="14.47"/><polygon class="cls-7" points="480.54 190.99 480.54 209.27 485.88 217.65 485.88 190.99 480.54 190.99"/><polygon class="cls-4" points="485.88 69.49 485.88 54.59 480.54 56.92 480.54 69.49 485.88 69.49"/><rect class="cls-7" x="480.54" y="171.56" width="5.33" height="14.47"/><rect class="cls-8" x="229.55" y="251.54" width="16.57" height="8.57"/><rect class="cls-9" x="205.56" y="251.54" width="16.57" height="8.57"/><rect class="cls-6" x="253.55" y="251.54" width="16.57" height="8.57"/><rect class="cls-5" x="181.57" y="251.54" width="16.57" height="8.57"/><polygon class="cls-4" points="126.15 251.54 110.72 251.54 102.69 260.11 126.15 260.11 126.15 251.54"/><rect class="cls-11" x="133.58" y="251.54" width="16.57" height="8.57"/><rect class="cls-12" x="157.57" y="251.54" width="16.57" height="8.57"/><circle class="cls-4" cx="2.86" cy="23.42" r="2.86"/><path class="cls-4" d="M162.31,25.55h-7.89l-4.46-14-4.46,14h-7.89L128.72,0h8.66l4.37,13.81L146,0h7.83l4.29,13.81L162.54,0h8.66Z"/><path class="cls-4" d="M188.07,25.55l-1.18-3.45H176.5l-1.3,3.45h-8.35v-.07L177.45,0h8.49l10.59,25.48v.07ZM181.65,8.16,179,15.55h5.3Z"/><path class="cls-4" d="M216.16,25.55,208,16.15V12.07h7.89V6.92h-9.15V25.55h-8.12V0h22.65a2.44,2.44,0,0,1,2,.92,3.76,3.76,0,0,1,.75,2.46V14.75a3.56,3.56,0,0,1-.75,2.4,2.49,2.49,0,0,1-2,.87h-2.53l6.65,7.26v.27Z"/><path class="cls-4" d="M246.18,25.55,235.7,12.1V25.55h-8.11V0h8l10.45,12.34V0h8.11V25.55Z"/><path class="cls-4" d="M258.21,25.55V0h8.12V25.55Z"/><path class="cls-4" d="M289,25.55,278.48,12.1V25.55h-8.12V0h8l10.45,12.34V0H297V25.55Z"/><path class="cls-4" d="M326.85,24.63a2.44,2.44,0,0,1-2,.92H303.66a2.35,2.35,0,0,1-2-.92,4,4,0,0,1-.71-2.46V3.38a3.76,3.76,0,0,1,.75-2.46,2.48,2.48,0,0,1,2-.92h21.1a2.44,2.44,0,0,1,2,.92,3.81,3.81,0,0,1,.73,2.46V8.93h-8.12v-2H309.1V18.63h10.36V16.79h-7.94V10.43h16.06V22.17A3.83,3.83,0,0,1,326.85,24.63Z"/></g></g></svg>