<svg xmlns="http://www.w3.org/2000/svg" xmlns:xlink="http://www.w3.org/1999/xlink" viewBox="0 0 501.6 404.27"><defs><style>.cls-1,.cls-2{fill:#17cffc;}.cls-2{opacity:0.35;}.cls-3{opacity:0.2;}.cls-4{clip-path:url(#clip-path);}.cls-5{clip-path:url(#clip-path-2);}.cls-6{clip-path:url(#clip-path-3);}.cls-7{opacity:0.8;}.cls-8{clip-path:url(#clip-path-4);}.cls-9{opacity:0.4;}.cls-10{clip-path:url(#clip-path-5);}.cls-11{opacity:0.6;}.cls-12{clip-path:url(#clip-path-6);}.cls-13{clip-path:url(#clip-path-7);}.cls-14{clip-path:url(#clip-path-8);}.cls-15{clip-path:url(#clip-path-9);}.cls-16{clip-path:url(#clip-path-10);}.cls-17{clip-path:url(#clip-path-11);}.cls-18{opacity:0.5;}.cls-19{clip-path:url(#clip-path-12);}.cls-20{opacity:0.3;}.cls-21{clip-path:url(#clip-path-13);}.cls-22{clip-path:url(#clip-path-14);}.cls-23{clip-path:url(#clip-path-15);}.cls-24{clip-path:url(#clip-path-16);}.cls-25{clip-path:url(#clip-path-17);}.cls-26{clip-path:url(#clip-path-18);}.cls-27{opacity:0.7;}.cls-28{clip-path:url(#clip-path-19);}.cls-29{clip-path:url(#clip-path-20);}</style><clipPath id="clip-path" transform="translate(4.71)"><polygon id="SVGID" class="cls-1" points="9.45 356.29 9.45 381.59 37.65 381.59 9.45 356.29"/></clipPath><clipPath id="clip-path-2" transform="translate(4.71)"><polygon id="SVGID-2" data-name="SVGID" class="cls-1" points="188.81 381.59 216.7 381.59 179.13 347.36 150.66 347.36 188.81 381.59"/></clipPath><clipPath id="clip-path-3" transform="translate(4.71)"><polygon id="SVGID-3" data-name="SVGID" class="cls-1" points="35.9 347.36 9.45 347.36 9.45 351.32 43.2 381.59 74.06 381.59 35.9 347.36"/></clipPath><clipPath id="clip-path-4" transform="translate(4.71)"><polygon id="SVGID-4" data-name="SVGID" class="cls-1" points="145.12 347.36 114.25 347.36 152.41 381.59 183.27 381.59 145.12 347.36"/></clipPath><clipPath id="clip-path-5" transform="translate(4.71)"><polygon id="SVGID-5" data-name="SVGID" class="cls-1" points="72.31 347.36 41.45 347.36 79.6 381.59 110.46 381.59 72.31 347.36"/></clipPath><clipPath id="clip-path-6" transform="translate(4.71)"><polygon id="SVGID-6" data-name="SVGID" class="cls-1" points="108.71 347.36 77.85 347.36 116 381.59 146.87 381.59 108.71 347.36"/></clipPath><clipPath id="clip-path-7" transform="translate(4.71)"><polygon id="SVGID-7" data-name="SVGID" class="cls-1" points="1.63 338.42 0 338.42 0 64.38 52.23 35.47 53.02 36.9 1.63 65.34 1.63 338.42"/></clipPath><clipPath id="clip-path-8" transform="translate(4.71)"><path id="SVGID-8" data-name="SVGID" class="cls-1" d="M56.33,37.11a5.25,5.25,0,1,1-5.24-5.24A5.25,5.25,0,0,1,56.33,37.11Z"/></clipPath><clipPath id="clip-path-9" transform="translate(4.71)"><polygon id="SVGID-9" data-name="SVGID" class="cls-1" points="8.84 78.74 62.5 50.99 150.7 41.73 159.95 46.67 241.99 39.27 246.3 33.72 304.9 28.78 309.22 23.85 59.41 44.82 9.45 71.05 8.84 78.74"/></clipPath><clipPath id="clip-path-10" transform="translate(4.71)"><polygon id="SVGID-10" data-name="SVGID" class="cls-1" points="493.64 6.58 452.93 6.58 441.83 14.6 474.52 15.19 474.52 65.17 483.16 54.63 483.16 11.64 493.64 6.58"/></clipPath><clipPath id="clip-path-11" transform="translate(4.71)"><polygon id="SVGID-11" data-name="SVGID" class="cls-1" points="484.08 401.02 484.08 360.31 476.06 349.21 475.47 381.9 425.49 381.9 436.03 390.54 479.02 390.54 484.08 401.02"/></clipPath><clipPath id="clip-path-12" transform="translate(4.71)"><rect id="SVGID-12" data-name="SVGID" class="cls-1" x="459.72" y="155.23" width="13.57" height="14.19"/></clipPath><clipPath id="clip-path-13" transform="translate(4.71)"><polygon id="SVGID-13" data-name="SVGID" class="cls-1" points="473.29 193.47 459.72 193.47 459.72 206.42 460.38 207.65 473.29 207.65 473.29 193.47"/></clipPath><clipPath id="clip-path-14" transform="translate(4.71)"><polygon id="SVGID-14" data-name="SVGID" class="cls-1" points="473.29 92.93 473.29 72.57 459.72 86.14 459.72 92.93 473.29 92.93"/></clipPath><clipPath id="clip-path-15" transform="translate(4.71)"><rect id="SVGID-15" data-name="SVGID" class="cls-1" x="459.72" y="174.35" width="13.57" height="14.19"/></clipPath><clipPath id="clip-path-16" transform="translate(4.71)"><polygon id="SVGID-16" data-name="SVGID" class="cls-1" points="463.03 212.59 473.29 231.71 473.29 212.59 463.03 212.59"/></clipPath><clipPath id="clip-path-17" transform="translate(4.71)"><rect id="SVGID-17" data-name="SVGID" class="cls-1" x="459.72" y="136.1" width="13.57" height="14.19"/></clipPath><clipPath id="clip-path-18" transform="translate(4.71)"><rect id="SVGID-18" data-name="SVGID" class="cls-1" x="459.72" y="97.86" width="13.57" height="14.19"/></clipPath><clipPath id="clip-path-19" transform="translate(4.71)"><rect id="SVGID-19" data-name="SVGID" class="cls-1" x="459.72" y="116.98" width="13.57" height="14.19"/></clipPath><clipPath id="clip-path-20" transform="translate(4.71)"><polygon id="SVGID-20" data-name="SVGID" class="cls-1" points="10.07 332.25 105.67 332.25 114.92 326.08 175.99 326.08 240.44 381.9 230.18 381.59 181.54 339.03 9.45 339.03 10.07 332.25"/></clipPath></defs><title>square_12</title><g id="Layer_2" data-name="Layer 2"><g id="Layer_1-2" data-name="Layer 1"><polygon class="cls-2" points="474.92 340.88 474.92 239.11 458.26 211.35 458.26 81.83 480.47 62.4 480.47 15.21 404.6 15.21 64.13 44.82 14.16 71.05 14.16 339.03 186.25 339.03 234.89 381.59 480.47 381.59 480.47 340.88 474.92 340.88"/><path class="cls-1" d="M476.57,382.41H229.87l-.23-.2-48.41-42.36H8.64V70.55L59.18,44l.16,0L399.82,14.4h76.75V62.77L454.37,82.2V211.13L471,238.88V340.07h5.55Zm-246.08-1.63H474.94V341.7h-5.55V239.34l-16.66-27.76V81.46L474.94,62V16H399.89L59.65,45.62,10.27,71.54V338.22H181.85l.23.2Z" transform="translate(4.71)"/><g class="cls-3"><polygon id="SVGID-40" data-name="SVGID" class="cls-1" points="14.16 356.29 14.16 381.59 42.37 381.59 14.16 356.29"/><g class="cls-4"><rect class="cls-1" x="14.16" y="356.29" width="28.2" height="25.3"/><path class="cls-1" d="M23.24,382.07c-7.27,0-13.85-1.56-18.61-4.09h4V358.24h-4c4.76-2.52,11.34-4.08,18.61-4.08s13.84,1.56,18.61,4.08H38.47V378h3.38C37.08,380.51,30.5,382.07,23.24,382.07Z" transform="translate(4.71)"/><path class="cls-1" d="M23.24,375.09c-7.27,0-13.16-3.12-13.16-7s5.89-7,13.16-7,13.16,3.13,13.16,7S30.5,375.09,23.24,375.09Z" transform="translate(4.71)"/></g></g><polygon id="SVGID-41" data-name="SVGID" class="cls-1" points="193.52 381.59 221.41 381.59 183.84 347.36 155.37 347.36 193.52 381.59"/><g class="cls-5"><rect class="cls-1" x="155.37" y="347.36" width="66.04" height="34.23"/><polygon class="cls-1" points="187.65 382.41 154.55 382.41 154.55 346.54 222.23 346.54 222.23 382.41 187.65 382.41"/><path class="cls-1" d="M182.94,376.92c-14.13,0-25.58-6.07-25.58-13.56s11.45-13.57,25.58-13.57,25.58,6.07,25.58,13.57S197.07,376.92,182.94,376.92Z" transform="translate(4.71)"/></g><g class="cls-3"><polygon id="SVGID-42" data-name="SVGID" class="cls-1" points="40.62 347.36 14.16 347.36 14.16 351.32 47.91 381.59 78.77 381.59 40.62 347.36"/><g class="cls-6"><rect class="cls-1" x="14.16" y="347.36" width="64.61" height="34.23"/><path class="cls-1" d="M41,382.41H21.45v5.52a64.59,64.59,0,0,1-16-5.71H8.64V346.54H74.87v35.68H76.6a64.53,64.53,0,0,1-16,5.71v-5.52Z" transform="translate(4.71)"/><path class="cls-1" d="M41,376.69c-13.89,0-25.15-6-25.15-13.33S27.14,350,41,350s25.15,6,25.15,13.34S54.92,376.69,41,376.69Z" transform="translate(4.71)"/></g></g><g class="cls-7"><polygon id="SVGID-43" data-name="SVGID" class="cls-1" points="149.83 347.36 118.97 347.36 157.12 381.59 187.98 381.59 149.83 347.36"/><g class="cls-8"><rect class="cls-1" x="118.97" y="347.36" width="69.02" height="34.23"/><polygon class="cls-1" points="152.7 382.41 118.15 382.41 118.15 346.54 188.8 346.54 188.8 382.41 152.7 382.41"/><path class="cls-1" d="M148,377.4c-14.62,0-26.47-6.29-26.47-14s11.85-14.05,26.47-14.05,26.48,6.29,26.48,14.05S162.61,377.4,148,377.4Z" transform="translate(4.71)"/></g></g><g class="cls-9"><polygon id="SVGID-44" data-name="SVGID" class="cls-1" points="77.02 347.36 46.16 347.36 84.31 381.59 115.17 381.59 77.02 347.36"/><g class="cls-10"><rect class="cls-1" x="46.16" y="347.36" width="69.02" height="34.23"/><polygon class="cls-1" points="79.9 382.41 45.34 382.41 45.34 346.54 115.99 346.54 115.99 382.41 79.9 382.41"/><path class="cls-1" d="M75.18,377.4c-14.62,0-26.47-6.29-26.47-14s11.85-14.05,26.47-14.05,26.48,6.29,26.48,14.05S89.8,377.4,75.18,377.4Z" transform="translate(4.71)"/></g></g><g class="cls-11"><polygon id="SVGID-45" data-name="SVGID" class="cls-1" points="113.42 347.36 82.56 347.36 120.72 381.59 151.58 381.59 113.42 347.36"/><g class="cls-12"><rect class="cls-1" x="82.56" y="347.36" width="69.02" height="34.23"/><polygon class="cls-1" points="116.3 382.41 81.75 382.41 81.75 346.54 152.39 346.54 152.39 382.41 116.3 382.41"/><path class="cls-1" d="M111.59,377.4c-14.63,0-26.48-6.29-26.48-14S97,349.31,111.59,349.31s26.47,6.29,26.47,14.05S126.21,377.4,111.59,377.4Z" transform="translate(4.71)"/></g></g><polygon id="SVGID-46" data-name="SVGID" class="cls-1" points="6.35 338.42 4.71 338.42 4.71 64.38 56.95 35.47 57.74 36.9 6.35 65.34 6.35 338.42"/><g class="cls-13"><rect class="cls-1" x="4.71" y="35.47" width="53.02" height="302.95"/><path class="cls-1" d="M26.51,295.68q-10.62,0-21-.56-5.17-.28-10.26-.69H-.82v-215H-4.71Q.37,79,5.55,78.77q10.33-.55,21-.56t21,.56q5.16.27,10.26.69h-3.9v215h3.9q-5.1.4-10.26.69Q37.13,295.68,26.51,295.68Z" transform="translate(4.71)"/><path class="cls-1" d="M26.51,241.31a192.71,192.71,0,0,1-20.66-1.1c-3.34-.37-6.61-.81-9.82-1.34H-.82V135H-4q4.81-.79,9.82-1.34a190.12,190.12,0,0,1,20.66-1.11,190.12,190.12,0,0,1,20.66,1.11q5,.54,9.83,1.34H53.84V238.87H57c-3.21.53-6.49,1-9.83,1.34A192.71,192.71,0,0,1,26.51,241.31Z" transform="translate(4.71)"/></g><path id="SVGID-47" data-name="SVGID" class="cls-1" d="M56.33,37.11a5.25,5.25,0,1,1-5.24-5.24A5.25,5.25,0,0,1,56.33,37.11Z" transform="translate(4.71)"/><g class="cls-14"><rect class="cls-1" x="50.56" y="31.87" width="10.49" height="10.49"/><ellipse class="cls-1" cx="55.8" cy="37.11" rx="9.89" ry="5.24"/><path class="cls-1" d="M51.09,39.73c-2.73,0-5-1.17-5-2.62s2.22-2.62,5-2.62S56,35.66,56,37.11,53.82,39.73,51.09,39.73Z" transform="translate(4.71)"/></g><polygon id="SVGID-48" data-name="SVGID" class="cls-1" points="13.55 78.74 67.21 50.99 155.41 41.73 164.66 46.67 246.7 39.27 251.02 33.72 309.61 28.78 313.93 23.85 64.13 44.82 14.16 71.05 13.55 78.74"/><g class="cls-15"><rect class="cls-1" x="13.55" y="23.85" width="300.38" height="54.9"/><polygon class="cls-1" points="163.74 79.56 19.79 79.56 12.73 79.56 12.73 23.03 314.75 23.03 314.75 79.56 163.74 79.56"/><path class="cls-1" d="M159,79.56H74.62v1.92a58,58,0,0,1-9.38-9.17c-5.15-6.46-8-13.56-8-21s2.85-14.55,8-21a57.59,57.59,0,0,1,9.38-9.17V23H243.43V21.11a56.8,56.8,0,0,1,9.38,9.17c5.15,6.46,8,13.56,8,21s-2.85,14.56-8,21a57.2,57.2,0,0,1-9.38,9.17V79.56Z" transform="translate(4.71)"/></g><polygon id="SVGID-49" data-name="SVGID" class="cls-1" points="498.36 6.58 457.65 6.58 446.54 14.6 479.23 15.19 479.23 65.17 487.87 54.63 487.87 11.64 498.36 6.58"/><g class="cls-16"><rect class="cls-1" x="446.54" y="6.58" width="51.81" height="58.6"/><path class="cls-1" d="M467.74,63.53a93.81,93.81,0,0,1-20.3-2.17,76.06,76.06,0,0,1-8.86-2.55H441V12.94h-2.43a76.06,76.06,0,0,1,8.86-2.55,96,96,0,0,1,40.59,0,75.5,75.5,0,0,1,8.86,2.55h-2.43V58.81h2.43A75.5,75.5,0,0,1,488,61.36,93.71,93.71,0,0,1,467.74,63.53Z" transform="translate(4.71)"/><path class="cls-1" d="M467.74,49.7c-14.4,0-26.08-6.19-26.08-13.83s11.68-13.82,26.08-13.82,26.07,6.19,26.07,13.82S482.14,49.7,467.74,49.7Z" transform="translate(4.71)"/></g><polygon id="SVGID-50" data-name="SVGID" class="cls-1" points="488.8 401.02 488.8 360.31 480.78 349.21 480.18 381.9 430.2 381.9 440.74 390.54 483.73 390.54 488.8 401.02"/><g class="cls-17"><rect class="cls-1" x="430.2" y="349.21" width="58.6" height="51.81"/><path class="cls-1" d="M427.13,375.12a93.19,93.19,0,0,1,2.17-20.3,76.06,76.06,0,0,1,2.55-8.86v2.43h45.86V346a74.15,74.15,0,0,1,2.55,8.86,95.56,95.56,0,0,1,0,40.59,73.62,73.62,0,0,1-2.55,8.86v-2.43H431.85v2.43a75.5,75.5,0,0,1-2.55-8.86A93.09,93.09,0,0,1,427.13,375.12Z" transform="translate(4.71)"/><path class="cls-1" d="M441,375.12c0-14.4,6.19-26.08,13.82-26.08s13.83,11.68,13.83,26.08-6.19,26.07-13.83,26.07S441,389.52,441,375.12Z" transform="translate(4.71)"/></g><g class="cls-18"><rect id="SVGID-51" data-name="SVGID" class="cls-1" x="464.43" y="155.23" width="13.57" height="14.19"/><g class="cls-19"><rect class="cls-1" x="464.43" y="155.23" width="13.57" height="14.19"/><path class="cls-1" d="M467.74,168.68c-6.69,0-12.1-2.87-12.1-6.42s5.41-6.41,12.1-6.41a18.67,18.67,0,0,1,8.55,1.88H474.1v9.07h2.19A18.67,18.67,0,0,1,467.74,168.68Z" transform="translate(4.71)"/><path class="cls-1" d="M467.74,165.47c-3.34,0-6.05-1.43-6.05-3.21s2.71-3.2,6.05-3.2,6.05,1.43,6.05,3.2S471.08,165.47,467.74,165.47Z" transform="translate(4.71)"/></g></g><g class="cls-20"><polygon id="SVGID-52" data-name="SVGID" class="cls-1" points="478 193.47 464.43 193.47 464.43 206.42 465.09 207.65 478 207.65 478 193.47"/><g class="cls-21"><rect class="cls-1" x="464.43" y="193.47" width="13.57" height="14.19"/><path class="cls-1" d="M467.74,206.92c-6.69,0-12.1-2.87-12.1-6.41s5.41-6.42,12.1-6.42a18.67,18.67,0,0,1,8.55,1.88H474.1V205h2.19A18.67,18.67,0,0,1,467.74,206.92Z" transform="translate(4.71)"/><path class="cls-1" d="M467.74,203.71c-3.34,0-6.05-1.43-6.05-3.2s2.71-3.21,6.05-3.21,6.05,1.43,6.05,3.21S471.08,203.71,467.74,203.71Z" transform="translate(4.71)"/></g></g><polygon id="SVGID-53" data-name="SVGID" class="cls-1" points="478 92.93 478 72.57 464.43 86.14 464.43 92.93 478 92.93"/><g class="cls-22"><rect class="cls-1" x="464.43" y="72.57" width="13.57" height="20.35"/><path class="cls-1" d="M467.74,90.94a24.15,24.15,0,0,1-11-2.42h2.19V76.83h-2.19a26.23,26.23,0,0,1,22.05,0H474.1V88.52h4.66A24.14,24.14,0,0,1,467.74,90.94Z" transform="translate(4.71)"/><path class="cls-1" d="M467.74,86.81c-4.31,0-7.8-1.85-7.8-4.14s3.49-4.13,7.8-4.13,7.79,1.85,7.79,4.13S472,86.81,467.74,86.81Z" transform="translate(4.71)"/></g><g class="cls-9"><rect id="SVGID-54" data-name="SVGID" class="cls-1" x="464.43" y="174.35" width="13.57" height="14.19"/><g class="cls-23"><rect class="cls-1" x="464.43" y="174.35" width="13.57" height="14.19"/><path class="cls-1" d="M467.74,187.8c-6.69,0-12.1-2.87-12.1-6.42s5.41-6.41,12.1-6.41a18.67,18.67,0,0,1,8.55,1.88H474.1v9.07h2.19A18.67,18.67,0,0,1,467.74,187.8Z" transform="translate(4.71)"/><path class="cls-1" d="M467.74,184.59c-3.34,0-6.05-1.43-6.05-3.21s2.71-3.2,6.05-3.2,6.05,1.43,6.05,3.2S471.08,184.59,467.74,184.59Z" transform="translate(4.71)"/></g></g><g class="cls-3"><polygon id="SVGID-55" data-name="SVGID" class="cls-1" points="467.74 212.59 478 231.71 478 212.59 467.74 212.59"/><g class="cls-24"><rect class="cls-1" x="467.74" y="212.59" width="10.26" height="19.12"/><path class="cls-1" d="M469.09,229.52a21.64,21.64,0,0,1-9.93-2.18h3V216.81h-3a23.61,23.61,0,0,1,19.86,0H474.1v10.53H479A21.64,21.64,0,0,1,469.09,229.52Z" transform="translate(4.71)"/><ellipse class="cls-1" cx="473.8" cy="222.07" rx="7.02" ry="3.73"/></g></g><g class="cls-11"><rect id="SVGID-56" data-name="SVGID" class="cls-1" x="464.43" y="136.1" width="13.57" height="14.19"/><g class="cls-25"><rect class="cls-1" x="464.43" y="136.1" width="13.57" height="14.19"/><path class="cls-1" d="M467.74,149.56c-6.69,0-12.1-2.87-12.1-6.42s5.41-6.41,12.1-6.41a18.54,18.54,0,0,1,8.55,1.88H474.1v9.07h2.19A18.67,18.67,0,0,1,467.74,149.56Z" transform="translate(4.71)"/><path class="cls-1" d="M467.74,146.35c-3.34,0-6.05-1.44-6.05-3.21s2.71-3.21,6.05-3.21,6.05,1.44,6.05,3.21S471.08,146.35,467.74,146.35Z" transform="translate(4.71)"/></g></g><g class="cls-7"><rect id="SVGID-57" data-name="SVGID" class="cls-1" x="464.43" y="97.86" width="13.57" height="14.19"/><g class="cls-26"><rect class="cls-1" x="464.43" y="97.86" width="13.57" height="14.19"/><path class="cls-1" d="M467.74,111.32c-6.69,0-12.1-2.88-12.1-6.42s5.41-6.42,12.1-6.42a18.67,18.67,0,0,1,8.55,1.88H474.1v9.08h2.19A18.67,18.67,0,0,1,467.74,111.32Z" transform="translate(4.71)"/><path class="cls-1" d="M467.74,108.11c-3.34,0-6.05-1.44-6.05-3.21s2.71-3.21,6.05-3.21,6.05,1.44,6.05,3.21S471.08,108.11,467.74,108.11Z" transform="translate(4.71)"/></g></g><g class="cls-27"><rect id="SVGID-58" data-name="SVGID" class="cls-1" x="464.43" y="116.98" width="13.57" height="14.19"/><g class="cls-28"><rect class="cls-1" x="464.43" y="116.98" width="13.57" height="14.19"/><path class="cls-1" d="M467.74,130.44c-6.69,0-12.1-2.87-12.1-6.42s5.41-6.41,12.1-6.41a18.54,18.54,0,0,1,8.55,1.88H474.1v9.07h2.19A18.67,18.67,0,0,1,467.74,130.44Z" transform="translate(4.71)"/><path class="cls-1" d="M467.74,127.23c-3.34,0-6.05-1.44-6.05-3.21s2.71-3.21,6.05-3.21,6.05,1.44,6.05,3.21S471.08,127.23,467.74,127.23Z" transform="translate(4.71)"/></g></g><polygon id="SVGID-59" data-name="SVGID" class="cls-1" points="14.78 332.25 110.39 332.25 119.64 326.08 180.7 326.08 245.16 381.9 234.89 381.59 186.25 339.03 14.16 339.03 14.78 332.25"/><g class="cls-29"><rect class="cls-1" x="14.16" y="326.08" width="230.99" height="55.82"/><polygon class="cls-1" points="129.66 382.72 17.64 382.72 13.35 382.72 13.35 325.26 245.97 325.26 245.97 382.72 129.66 382.72"/><path class="cls-1" d="M125,382.72h-56v1C54.6,376.09,45.73,365.59,45.73,354s8.87-22.1,23.21-29.7v1H181v-1c14.33,7.6,23.2,18.1,23.2,29.7s-8.87,22.1-23.2,29.71v-1Z" transform="translate(4.71)"/></g><polygon class="cls-1" points="458.26 81.83 451.48 88.61 451.48 154.61 454.56 165.71 454.56 206.11 459.5 214.75 458.26 81.83"/><polygon class="cls-1" points="426.81 373.67 249.01 373.67 248.89 373.56 187.94 317.24 158.5 317.24 158.5 316.42 188.26 316.42 188.38 316.53 249.33 372.86 426.81 372.86 426.81 373.67"/><polygon class="cls-1" points="443.87 152.14 443.05 152.14 443.05 84.42 443.19 84.3 470.81 59.44 470.81 23.02 403.68 23.02 403.68 22.2 471.62 22.2 471.62 59.8 471.49 59.92 443.87 84.78 443.87 152.14"/><polygon class="cls-1" points="441.74 9.14 404.6 9.14 404.6 8.33 441.48 8.33 453.51 0 494.35 0 494.35 0.82 453.76 0.82 441.74 9.14"/><polygon class="cls-1" points="478.62 397.73 437.74 397.73 430.34 390.33 394.42 390.33 394.42 389.51 430.68 389.51 438.08 396.91 478.62 396.91 478.62 397.73"/><g class="cls-3"><polygon id="SVGID-60" data-name="SVGID" class="cls-1" points="14.16 356.29 14.16 381.59 42.37 381.59 14.16 356.29"/><g class="cls-4"><rect class="cls-1" x="14.16" y="356.29" width="28.2" height="25.3"/><path class="cls-1" d="M23.24,382.07c-7.27,0-13.85-1.56-18.61-4.09h4V358.24h-4c4.76-2.52,11.34-4.08,18.61-4.08s13.84,1.56,18.61,4.08H38.47V378h3.38C37.08,380.51,30.5,382.07,23.24,382.07Z" transform="translate(4.71)"/><path class="cls-1" d="M23.24,375.09c-7.27,0-13.16-3.12-13.16-7s5.89-7,13.16-7,13.16,3.13,13.16,7S30.5,375.09,23.24,375.09Z" transform="translate(4.71)"/></g></g><polygon id="SVGID-61" data-name="SVGID" class="cls-1" points="193.52 381.59 221.41 381.59 183.84 347.36 155.37 347.36 193.52 381.59"/><g class="cls-5"><rect class="cls-1" x="155.37" y="347.36" width="66.04" height="34.23"/><polygon class="cls-1" points="187.65 382.41 154.55 382.41 154.55 346.54 222.23 346.54 222.23 382.41 187.65 382.41"/><path class="cls-1" d="M182.94,376.92c-14.13,0-25.58-6.07-25.58-13.56s11.45-13.57,25.58-13.57,25.58,6.07,25.58,13.57S197.07,376.92,182.94,376.92Z" transform="translate(4.71)"/></g><g class="cls-3"><polygon id="SVGID-62" data-name="SVGID" class="cls-1" points="40.62 347.36 14.16 347.36 14.16 351.32 47.91 381.59 78.77 381.59 40.62 347.36"/><g class="cls-6"><rect class="cls-1" x="14.16" y="347.36" width="64.61" height="34.23"/><path class="cls-1" d="M41,382.41H21.45v5.52a64.59,64.59,0,0,1-16-5.71H8.64V346.54H74.87v35.68H76.6a64.53,64.53,0,0,1-16,5.71v-5.52Z" transform="translate(4.71)"/><path class="cls-1" d="M41,376.69c-13.89,0-25.15-6-25.15-13.33S27.14,350,41,350s25.15,6,25.15,13.34S54.92,376.69,41,376.69Z" transform="translate(4.71)"/></g></g><g class="cls-7"><polygon id="SVGID-63" data-name="SVGID" class="cls-1" points="149.83 347.36 118.97 347.36 157.12 381.59 187.98 381.59 149.83 347.36"/><g class="cls-8"><rect class="cls-1" x="118.97" y="347.36" width="69.02" height="34.23"/><polygon class="cls-1" points="152.7 382.41 118.15 382.41 118.15 346.54 188.8 346.54 188.8 382.41 152.7 382.41"/><path class="cls-1" d="M148,377.4c-14.62,0-26.47-6.29-26.47-14s11.85-14.05,26.47-14.05,26.48,6.29,26.48,14.05S162.61,377.4,148,377.4Z" transform="translate(4.71)"/></g></g><g class="cls-9"><polygon id="SVGID-64" data-name="SVGID" class="cls-1" points="77.02 347.36 46.16 347.36 84.31 381.59 115.17 381.59 77.02 347.36"/><g class="cls-10"><rect class="cls-1" x="46.16" y="347.36" width="69.02" height="34.23"/><polygon class="cls-1" points="79.9 382.41 45.34 382.41 45.34 346.54 115.99 346.54 115.99 382.41 79.9 382.41"/><path class="cls-1" d="M75.18,377.4c-14.62,0-26.47-6.29-26.47-14s11.85-14.05,26.47-14.05,26.48,6.29,26.48,14.05S89.8,377.4,75.18,377.4Z" transform="translate(4.71)"/></g></g><g class="cls-11"><polygon id="SVGID-65" data-name="SVGID" class="cls-1" points="113.42 347.36 82.56 347.36 120.72 381.59 151.58 381.59 113.42 347.36"/><g class="cls-12"><rect class="cls-1" x="82.56" y="347.36" width="69.02" height="34.23"/><polygon class="cls-1" points="116.3 382.41 81.75 382.41 81.75 346.54 152.39 346.54 152.39 382.41 116.3 382.41"/><path class="cls-1" d="M111.59,377.4c-14.63,0-26.48-6.29-26.48-14S97,349.31,111.59,349.31s26.47,6.29,26.47,14.05S126.21,377.4,111.59,377.4Z" transform="translate(4.71)"/></g></g><path id="SVGID-66" data-name="SVGID" class="cls-1" d="M56.33,37.11a5.25,5.25,0,1,1-5.24-5.24A5.25,5.25,0,0,1,56.33,37.11Z" transform="translate(4.71)"/><g class="cls-14"><rect class="cls-1" x="50.56" y="31.87" width="10.49" height="10.49"/><ellipse class="cls-1" cx="55.8" cy="37.11" rx="9.89" ry="5.24"/><path class="cls-1" d="M51.09,39.73c-2.73,0-5-1.17-5-2.62s2.22-2.62,5-2.62S56,35.66,56,37.11,53.82,39.73,51.09,39.73Z" transform="translate(4.71)"/></g><polygon id="SVGID-67" data-name="SVGID" class="cls-1" points="13.55 78.74 67.21 50.99 155.41 41.73 164.66 46.67 246.7 39.27 251.02 33.72 309.61 28.78 313.93 23.85 64.13 44.82 14.16 71.05 13.55 78.74"/><g class="cls-15"><rect class="cls-1" x="13.55" y="23.85" width="300.38" height="54.9"/><polygon class="cls-1" points="163.74 79.56 19.79 79.56 12.73 79.56 12.73 23.03 314.75 23.03 314.75 79.56 163.74 79.56"/><path class="cls-1" d="M159,79.56H74.62v1.92a58,58,0,0,1-9.38-9.17c-5.15-6.46-8-13.56-8-21s2.85-14.55,8-21a57.59,57.59,0,0,1,9.38-9.17V23H243.43V21.11a56.8,56.8,0,0,1,9.38,9.17c5.15,6.46,8,13.56,8,21s-2.85,14.56-8,21a57.2,57.2,0,0,1-9.38,9.17V79.56Z" transform="translate(4.71)"/></g><polygon id="SVGID-68" data-name="SVGID" class="cls-1" points="498.36 6.58 457.65 6.58 446.54 14.6 479.23 15.19 479.23 65.17 487.87 54.63 487.87 11.64 498.36 6.58"/><g class="cls-16"><rect class="cls-1" x="446.54" y="6.58" width="51.81" height="58.6"/><path class="cls-1" d="M467.74,63.53a93.81,93.81,0,0,1-20.3-2.17,76.06,76.06,0,0,1-8.86-2.55H441V12.94h-2.43a76.06,76.06,0,0,1,8.86-2.55,96,96,0,0,1,40.59,0,75.5,75.5,0,0,1,8.86,2.55h-2.43V58.81h2.43A75.5,75.5,0,0,1,488,61.36,93.71,93.71,0,0,1,467.74,63.53Z" transform="translate(4.71)"/><path class="cls-1" d="M467.74,49.7c-14.4,0-26.08-6.19-26.08-13.83s11.68-13.82,26.08-13.82,26.07,6.19,26.07,13.82S482.14,49.7,467.74,49.7Z" transform="translate(4.71)"/></g><polygon id="SVGID-69" data-name="SVGID" class="cls-1" points="488.8 401.02 488.8 360.31 480.78 349.21 480.18 381.9 430.2 381.9 440.74 390.54 483.73 390.54 488.8 401.02"/><g class="cls-17"><rect class="cls-1" x="430.2" y="349.21" width="58.6" height="51.81"/><path class="cls-1" d="M427.13,375.12a93.19,93.19,0,0,1,2.17-20.3,76.06,76.06,0,0,1,2.55-8.86v2.43h45.86V346a74.15,74.15,0,0,1,2.55,8.86,95.56,95.56,0,0,1,0,40.59,73.62,73.62,0,0,1-2.55,8.86v-2.43H431.85v2.43a75.5,75.5,0,0,1-2.55-8.86A93.09,93.09,0,0,1,427.13,375.12Z" transform="translate(4.71)"/><path class="cls-1" d="M441,375.12c0-14.4,6.19-26.08,13.82-26.08s13.83,11.68,13.83,26.08-6.19,26.07-13.83,26.07S441,389.52,441,375.12Z" transform="translate(4.71)"/></g><g class="cls-18"><rect id="SVGID-70" data-name="SVGID" class="cls-1" x="464.43" y="155.23" width="13.57" height="14.19"/><g class="cls-19"><rect class="cls-1" x="464.43" y="155.23" width="13.57" height="14.19"/><path class="cls-1" d="M467.74,168.68c-6.69,0-12.1-2.87-12.1-6.42s5.41-6.41,12.1-6.41a18.67,18.67,0,0,1,8.55,1.88H474.1v9.07h2.19A18.67,18.67,0,0,1,467.74,168.68Z" transform="translate(4.71)"/><path class="cls-1" d="M467.74,165.47c-3.34,0-6.05-1.43-6.05-3.21s2.71-3.2,6.05-3.2,6.05,1.43,6.05,3.2S471.08,165.47,467.74,165.47Z" transform="translate(4.71)"/></g></g><g class="cls-20"><polygon id="SVGID-71" data-name="SVGID" class="cls-1" points="478 193.47 464.43 193.47 464.43 206.42 465.09 207.65 478 207.65 478 193.47"/><g class="cls-21"><rect class="cls-1" x="464.43" y="193.47" width="13.57" height="14.19"/><path class="cls-1" d="M467.74,206.92c-6.69,0-12.1-2.87-12.1-6.41s5.41-6.42,12.1-6.42a18.67,18.67,0,0,1,8.55,1.88H474.1V205h2.19A18.67,18.67,0,0,1,467.74,206.92Z" transform="translate(4.71)"/><path class="cls-1" d="M467.74,203.71c-3.34,0-6.05-1.43-6.05-3.2s2.71-3.21,6.05-3.21,6.05,1.43,6.05,3.21S471.08,203.71,467.74,203.71Z" transform="translate(4.71)"/></g></g><polygon id="SVGID-72" data-name="SVGID" class="cls-1" points="478 92.93 478 72.57 464.43 86.14 464.43 92.93 478 92.93"/><g class="cls-22"><rect class="cls-1" x="464.43" y="72.57" width="13.57" height="20.35"/><path class="cls-1" d="M467.74,90.94a24.15,24.15,0,0,1-11-2.42h2.19V76.83h-2.19a26.23,26.23,0,0,1,22.05,0H474.1V88.52h4.66A24.14,24.14,0,0,1,467.74,90.94Z" transform="translate(4.71)"/><path class="cls-1" d="M467.74,86.81c-4.31,0-7.8-1.85-7.8-4.14s3.49-4.13,7.8-4.13,7.79,1.85,7.79,4.13S472,86.81,467.74,86.81Z" transform="translate(4.71)"/></g><g class="cls-9"><rect id="SVGID-73" data-name="SVGID" class="cls-1" x="464.43" y="174.35" width="13.57" height="14.19"/><g class="cls-23"><rect class="cls-1" x="464.43" y="174.35" width="13.57" height="14.19"/><path class="cls-1" d="M467.74,187.8c-6.69,0-12.1-2.87-12.1-6.42s5.41-6.41,12.1-6.41a18.67,18.67,0,0,1,8.55,1.88H474.1v9.07h2.19A18.67,18.67,0,0,1,467.74,187.8Z" transform="translate(4.71)"/><path class="cls-1" d="M467.74,184.59c-3.34,0-6.05-1.43-6.05-3.21s2.71-3.2,6.05-3.2,6.05,1.43,6.05,3.2S471.08,184.59,467.74,184.59Z" transform="translate(4.71)"/></g></g><g class="cls-3"><polygon id="SVGID-74" data-name="SVGID" class="cls-1" points="467.74 212.59 478 231.71 478 212.59 467.74 212.59"/><g class="cls-24"><rect class="cls-1" x="467.74" y="212.59" width="10.26" height="19.12"/><path class="cls-1" d="M469.09,229.52a21.64,21.64,0,0,1-9.93-2.18h3V216.81h-3a23.61,23.61,0,0,1,19.86,0H474.1v10.53H479A21.64,21.64,0,0,1,469.09,229.52Z" transform="translate(4.71)"/><ellipse class="cls-1" cx="473.8" cy="222.07" rx="7.02" ry="3.73"/></g></g><g class="cls-11"><rect id="SVGID-75" data-name="SVGID" class="cls-1" x="464.43" y="136.1" width="13.57" height="14.19"/><g class="cls-25"><rect class="cls-1" x="464.43" y="136.1" width="13.57" height="14.19"/><path class="cls-1" d="M467.74,149.56c-6.69,0-12.1-2.87-12.1-6.42s5.41-6.41,12.1-6.41a18.54,18.54,0,0,1,8.55,1.88H474.1v9.07h2.19A18.67,18.67,0,0,1,467.74,149.56Z" transform="translate(4.71)"/><path class="cls-1" d="M467.74,146.35c-3.34,0-6.05-1.44-6.05-3.21s2.71-3.21,6.05-3.21,6.05,1.44,6.05,3.21S471.08,146.35,467.74,146.35Z" transform="translate(4.71)"/></g></g><g class="cls-7"><rect id="SVGID-76" data-name="SVGID" class="cls-1" x="464.43" y="97.86" width="13.57" height="14.19"/><g class="cls-26"><rect class="cls-1" x="464.43" y="97.86" width="13.57" height="14.19"/><path class="cls-1" d="M467.74,111.32c-6.69,0-12.1-2.88-12.1-6.42s5.41-6.42,12.1-6.42a18.67,18.67,0,0,1,8.55,1.88H474.1v9.08h2.19A18.67,18.67,0,0,1,467.74,111.32Z" transform="translate(4.71)"/><path class="cls-1" d="M467.74,108.11c-3.34,0-6.05-1.44-6.05-3.21s2.71-3.21,6.05-3.21,6.05,1.44,6.05,3.21S471.08,108.11,467.74,108.11Z" transform="translate(4.71)"/></g></g><g class="cls-27"><rect id="SVGID-77" data-name="SVGID" class="cls-1" x="464.43" y="116.98" width="13.57" height="14.19"/><g class="cls-28"><rect class="cls-1" x="464.43" y="116.98" width="13.57" height="14.19"/><path class="cls-1" d="M467.74,130.44c-6.69,0-12.1-2.87-12.1-6.42s5.41-6.41,12.1-6.41a18.54,18.54,0,0,1,8.55,1.88H474.1v9.07h2.19A18.67,18.67,0,0,1,467.74,130.44Z" transform="translate(4.71)"/><path class="cls-1" d="M467.74,127.23c-3.34,0-6.05-1.44-6.05-3.21s2.71-3.21,6.05-3.21,6.05,1.44,6.05,3.21S471.08,127.23,467.74,127.23Z" transform="translate(4.71)"/></g></g><polygon id="SVGID-78" data-name="SVGID" class="cls-1" points="14.78 332.25 110.39 332.25 119.64 326.08 180.7 326.08 245.16 381.9 234.89 381.59 186.25 339.03 14.16 339.03 14.78 332.25"/><g class="cls-29"><rect class="cls-1" x="14.16" y="326.08" width="230.99" height="55.82"/><polygon class="cls-1" points="129.66 382.72 17.64 382.72 13.35 382.72 13.35 325.26 245.97 325.26 245.97 382.72 129.66 382.72"/><path class="cls-1" d="M125,382.72h-56v1C54.6,376.09,45.73,365.59,45.73,354s8.87-22.1,23.21-29.7v1H181v-1c14.33,7.6,23.2,18.1,23.2,29.7s-8.87,22.1-23.2,29.71v-1Z" transform="translate(4.71)"/></g><polygon class="cls-1" points="458.26 81.83 451.48 88.61 451.48 154.61 454.56 165.71 454.56 206.11 459.5 214.75 458.26 81.83"/></g></g></svg>