<svg xmlns="http://www.w3.org/2000/svg" xmlns:xlink="http://www.w3.org/1999/xlink" viewBox="0 0 490.41 152.31"><defs><style>.cls-1{fill:url(#New_Gradient_Swatch_5);}.cls-2{opacity:0.22;}.cls-3{fill:url(#New_Gradient_Swatch_5-2);}.cls-4{fill:url(#New_Gradient_Swatch_5-3);}.cls-5{fill:url(#New_Gradient_Swatch_5-4);}.cls-6{fill:url(#New_Gradient_Swatch_5-5);}.cls-7{fill:url(#New_Gradient_Swatch_5-6);}.cls-8{fill:url(#New_Gradient_Swatch_5-7);}.cls-9{fill:url(#New_Gradient_Swatch_5-8);}.cls-10{fill:url(#New_Gradient_Swatch_5-9);}.cls-11{fill:url(#New_Gradient_Swatch_5-10);}.cls-12{fill:url(#New_Gradient_Swatch_5-11);}.cls-13{fill:url(#New_Gradient_Swatch_5-12);}.cls-14{fill:url(#New_Gradient_Swatch_5-13);}.cls-15{fill:url(#New_Gradient_Swatch_5-14);}.cls-16{fill:url(#New_Gradient_Swatch_5-15);}.cls-17{fill:url(#New_Gradient_Swatch_5-16);}.cls-18{fill:url(#New_Gradient_Swatch_5-17);}.cls-19{fill:url(#New_Gradient_Swatch_5-18);}.cls-20{fill:url(#New_Gradient_Swatch_5-19);}.cls-21{fill:url(#New_Gradient_Swatch_5-20);}.cls-22{fill:url(#New_Gradient_Swatch_5-21);}.cls-23{fill:url(#New_Gradient_Swatch_5-22);}.cls-24{fill:url(#New_Gradient_Swatch_5-23);}.cls-25{fill:url(#New_Gradient_Swatch_5-24);}.cls-26{fill:url(#New_Gradient_Swatch_5-25);}.cls-27{fill:url(#New_Gradient_Swatch_5-26);}.cls-28{fill:url(#New_Gradient_Swatch_5-27);}.cls-29{fill:url(#New_Gradient_Swatch_5-28);}.cls-30{fill:url(#New_Gradient_Swatch_5-29);}.cls-31{fill:url(#New_Gradient_Swatch_5-30);}.cls-32{fill:url(#New_Gradient_Swatch_5-31);}.cls-33{fill:url(#New_Gradient_Swatch_5-32);}.cls-34{fill:url(#New_Gradient_Swatch_5-33);}.cls-35{fill:url(#New_Gradient_Swatch_5-34);}.cls-36{fill:url(#New_Gradient_Swatch_5-35);}.cls-37{fill:url(#New_Gradient_Swatch_5-36);}.cls-38{fill:url(#New_Gradient_Swatch_5-37);}.cls-39{fill:url(#New_Gradient_Swatch_5-38);}.cls-40{fill:url(#New_Gradient_Swatch_5-39);}.cls-41{fill:url(#New_Gradient_Swatch_5-40);}.cls-42{fill:url(#New_Gradient_Swatch_5-41);}.cls-43{fill:url(#New_Gradient_Swatch_5-42);}.cls-44{fill:url(#New_Gradient_Swatch_5-43);}.cls-45{fill:url(#New_Gradient_Swatch_5-44);}.cls-46{fill:url(#New_Gradient_Swatch_5-45);}.cls-47{fill:url(#New_Gradient_Swatch_5-46);}.cls-48{fill:url(#New_Gradient_Swatch_5-47);}.cls-49{fill:url(#New_Gradient_Swatch_5-48);}.cls-50{fill:url(#New_Gradient_Swatch_5-49);}.cls-51{fill:url(#New_Gradient_Swatch_5-50);}.cls-52{fill:url(#New_Gradient_Swatch_5-51);}.cls-53{fill:url(#New_Gradient_Swatch_5-52);}.cls-54{fill:url(#New_Gradient_Swatch_5-53);}.cls-55{fill:url(#New_Gradient_Swatch_5-54);}.cls-56{fill:url(#New_Gradient_Swatch_5-55);}.cls-57{fill:url(#New_Gradient_Swatch_5-56);}.cls-58{fill:url(#New_Gradient_Swatch_5-57);}.cls-59{fill:url(#New_Gradient_Swatch_5-58);}.cls-60{fill:url(#New_Gradient_Swatch_5-59);}</style><linearGradient id="New_Gradient_Swatch_5" x1="2.82" y1="38.21" x2="384.19" y2="38.21" gradientUnits="userSpaceOnUse"><stop offset="0" stop-color="#11e5b3"/><stop offset="0.14" stop-color="#15dcb8"/><stop offset="0.36" stop-color="#21c4c6"/><stop offset="0.64" stop-color="#359edc"/><stop offset="0.97" stop-color="#4f68fb"/><stop offset="1" stop-color="#5263fe"/></linearGradient><linearGradient id="New_Gradient_Swatch_5-2" x1="3.13" y1="46.41" x2="377.45" y2="46.41" xlink:href="#New_Gradient_Swatch_5"/><linearGradient id="New_Gradient_Swatch_5-3" x1="196.72" y1="3.13" x2="202.99" y2="3.13" xlink:href="#New_Gradient_Swatch_5"/><linearGradient id="New_Gradient_Swatch_5-4" x1="374.32" y1="72.25" x2="380.58" y2="72.25" xlink:href="#New_Gradient_Swatch_5"/><linearGradient id="New_Gradient_Swatch_5-5" x1="177.44" y1="3.13" x2="183.71" y2="3.13" xlink:href="#New_Gradient_Swatch_5"/><linearGradient id="New_Gradient_Swatch_5-6" x1="158.16" y1="3.13" x2="164.42" y2="3.13" xlink:href="#New_Gradient_Swatch_5"/><linearGradient id="New_Gradient_Swatch_5-7" x1="138.88" y1="3.13" x2="145.14" y2="3.13" xlink:href="#New_Gradient_Swatch_5"/><linearGradient id="New_Gradient_Swatch_5-8" x1="119.6" y1="3.13" x2="125.86" y2="3.13" xlink:href="#New_Gradient_Swatch_5"/><linearGradient id="New_Gradient_Swatch_5-9" x1="100.31" y1="3.13" x2="106.58" y2="3.13" xlink:href="#New_Gradient_Swatch_5"/><linearGradient id="New_Gradient_Swatch_5-10" x1="81.03" y1="3.13" x2="87.3" y2="3.13" xlink:href="#New_Gradient_Swatch_5"/><linearGradient id="New_Gradient_Swatch_5-11" x1="61.75" y1="3.13" x2="68.01" y2="3.13" xlink:href="#New_Gradient_Swatch_5"/><linearGradient id="New_Gradient_Swatch_5-12" x1="42.47" y1="3.13" x2="48.73" y2="3.13" xlink:href="#New_Gradient_Swatch_5"/><linearGradient id="New_Gradient_Swatch_5-13" x1="23.18" y1="3.13" x2="29.45" y2="3.13" xlink:href="#New_Gradient_Swatch_5"/><linearGradient id="New_Gradient_Swatch_5-14" x1="0" y1="26.83" x2="6.26" y2="26.83" xlink:href="#New_Gradient_Swatch_5"/><linearGradient id="New_Gradient_Swatch_5-15" x1="3.04" y1="65.54" x2="191" y2="65.54" xlink:href="#New_Gradient_Swatch_5"/><linearGradient id="New_Gradient_Swatch_5-16" x1="359.34" y1="10.06" x2="388.29" y2="10.06" xlink:href="#New_Gradient_Swatch_5"/><linearGradient id="New_Gradient_Swatch_5-17" x1="154.72" y1="75.32" x2="253.76" y2="75.32" xlink:href="#New_Gradient_Swatch_5"/><linearGradient id="New_Gradient_Swatch_5-18" x1="202.55" y1="107.48" x2="481.6" y2="107.48" xlink:href="#New_Gradient_Swatch_5"/><linearGradient id="New_Gradient_Swatch_5-19" x1="483.05" y1="113.29" x2="490.41" y2="113.29" xlink:href="#New_Gradient_Swatch_5"/><linearGradient id="New_Gradient_Swatch_5-20" x1="202.94" y1="98.27" x2="216" y2="98.27" xlink:href="#New_Gradient_Swatch_5"/><linearGradient id="New_Gradient_Swatch_5-21" x1="238.53" y1="133.51" x2="275.56" y2="133.51" xlink:href="#New_Gradient_Swatch_5"/><linearGradient id="New_Gradient_Swatch_5-22" x1="257.05" y1="50.15" x2="264.44" y2="50.15" xlink:href="#New_Gradient_Swatch_5"/><linearGradient id="New_Gradient_Swatch_5-23" x1="269.96" y1="49.42" x2="277.36" y2="49.42" xlink:href="#New_Gradient_Swatch_5"/><linearGradient id="New_Gradient_Swatch_5-24" x1="282.88" y1="65.68" x2="290.27" y2="65.68" xlink:href="#New_Gradient_Swatch_5"/><linearGradient id="New_Gradient_Swatch_5-25" x1="295.79" y1="53.98" x2="303.19" y2="53.98" xlink:href="#New_Gradient_Swatch_5"/><linearGradient id="New_Gradient_Swatch_5-26" x1="308.7" y1="59.98" x2="316.1" y2="59.98" xlink:href="#New_Gradient_Swatch_5"/><linearGradient id="New_Gradient_Swatch_5-27" x1="321.62" y1="48.76" x2="329.01" y2="48.76" xlink:href="#New_Gradient_Swatch_5"/><linearGradient id="New_Gradient_Swatch_5-28" x1="334.53" y1="50.23" x2="341.93" y2="50.23" xlink:href="#New_Gradient_Swatch_5"/><linearGradient id="New_Gradient_Swatch_5-29" x1="347.45" y1="60.6" x2="354.84" y2="60.6" xlink:href="#New_Gradient_Swatch_5"/><linearGradient id="New_Gradient_Swatch_5-30" x1="360.36" y1="64.58" x2="367.75" y2="64.58" xlink:href="#New_Gradient_Swatch_5"/><linearGradient id="New_Gradient_Swatch_5-31" x1="248.43" y1="124.26" x2="353.6" y2="124.26" xlink:href="#New_Gradient_Swatch_5"/><linearGradient id="New_Gradient_Swatch_5-32" x1="365.42" y1="107.3" x2="422.74" y2="107.3" xlink:href="#New_Gradient_Swatch_5"/><linearGradient id="New_Gradient_Swatch_5-33" x1="310.18" y1="129.97" x2="443.95" y2="129.97" xlink:href="#New_Gradient_Swatch_5"/><linearGradient id="New_Gradient_Swatch_5-34" x1="354.59" y1="119.18" x2="367.09" y2="119.18" xlink:href="#New_Gradient_Swatch_5"/><linearGradient id="New_Gradient_Swatch_5-35" x1="364.17" y1="119.18" x2="376.67" y2="119.18" xlink:href="#New_Gradient_Swatch_5"/><linearGradient id="New_Gradient_Swatch_5-36" x1="373.76" y1="119.18" x2="386.25" y2="119.18" xlink:href="#New_Gradient_Swatch_5"/><linearGradient id="New_Gradient_Swatch_5-37" x1="383.34" y1="119.18" x2="395.83" y2="119.18" xlink:href="#New_Gradient_Swatch_5"/><linearGradient id="New_Gradient_Swatch_5-38" x1="392.92" y1="119.18" x2="405.41" y2="119.18" xlink:href="#New_Gradient_Swatch_5"/><linearGradient id="New_Gradient_Swatch_5-39" x1="402.5" y1="119.18" x2="414.99" y2="119.18" xlink:href="#New_Gradient_Swatch_5"/><linearGradient id="New_Gradient_Swatch_5-40" x1="412.08" y1="119.18" x2="424.58" y2="119.18" xlink:href="#New_Gradient_Swatch_5"/><linearGradient id="New_Gradient_Swatch_5-41" x1="421.66" y1="119.18" x2="434.16" y2="119.18" xlink:href="#New_Gradient_Swatch_5"/><linearGradient id="New_Gradient_Swatch_5-42" x1="431.24" y1="119.18" x2="443.74" y2="119.18" xlink:href="#New_Gradient_Swatch_5"/><linearGradient id="New_Gradient_Swatch_5-43" x1="285.64" y1="121.14" x2="445.69" y2="121.14" xlink:href="#New_Gradient_Swatch_5"/><linearGradient id="New_Gradient_Swatch_5-44" x1="376.17" y1="118.28" x2="449.53" y2="118.28" xlink:href="#New_Gradient_Swatch_5"/><linearGradient id="New_Gradient_Swatch_5-45" x1="260.15" y1="131.52" x2="297.57" y2="131.52" xlink:href="#New_Gradient_Swatch_5"/><linearGradient id="New_Gradient_Swatch_5-46" x1="244.39" y1="122.76" x2="277.3" y2="122.76" xlink:href="#New_Gradient_Swatch_5"/><linearGradient id="New_Gradient_Swatch_5-47" x1="276.47" y1="114" x2="348.72" y2="114" xlink:href="#New_Gradient_Swatch_5"/><linearGradient id="New_Gradient_Swatch_5-48" x1="261.42" y1="113.29" x2="431.18" y2="113.29" xlink:href="#New_Gradient_Swatch_5"/><linearGradient id="New_Gradient_Swatch_5-49" x1="42.08" y1="131.11" x2="241.49" y2="131.11" xlink:href="#New_Gradient_Swatch_5"/><linearGradient id="New_Gradient_Swatch_5-50" x1="34.38" y1="107.6" x2="41.74" y2="107.6" xlink:href="#New_Gradient_Swatch_5"/><linearGradient id="New_Gradient_Swatch_5-51" x1="68.73" y1="144.08" x2="118.83" y2="144.08" xlink:href="#New_Gradient_Swatch_5"/><linearGradient id="New_Gradient_Swatch_5-52" x1="84.3" y1="151.03" x2="150.32" y2="151.03" xlink:href="#New_Gradient_Swatch_5"/><linearGradient id="New_Gradient_Swatch_5-53" x1="83.29" y1="135.79" x2="103.07" y2="135.79" xlink:href="#New_Gradient_Swatch_5"/><linearGradient id="New_Gradient_Swatch_5-54" x1="104.12" y1="135.79" x2="123.9" y2="135.79" xlink:href="#New_Gradient_Swatch_5"/><linearGradient id="New_Gradient_Swatch_5-55" x1="124.95" y1="135.79" x2="144.74" y2="135.79" xlink:href="#New_Gradient_Swatch_5"/><linearGradient id="New_Gradient_Swatch_5-56" x1="145.79" y1="136.77" x2="165.19" y2="136.77" xlink:href="#New_Gradient_Swatch_5"/><linearGradient id="New_Gradient_Swatch_5-57" x1="166.24" y1="135.79" x2="187.7" y2="135.79" xlink:href="#New_Gradient_Swatch_5"/><linearGradient id="New_Gradient_Swatch_5-58" x1="187.28" y1="135.79" x2="207.06" y2="135.79" xlink:href="#New_Gradient_Swatch_5"/><linearGradient id="New_Gradient_Swatch_5-59" x1="208.11" y1="135.79" x2="227.9" y2="135.79" xlink:href="#New_Gradient_Swatch_5"/></defs><title>subtree_green_blue</title><g id="Layer_2" data-name="Layer 2"><g id="Layer_1-2" data-name="Layer 1"><polygon class="cls-1" points="377.42 72.56 376.8 71.94 383.31 65.42 383.31 15.42 372.64 4.75 215.17 4.75 208.18 11.74 18.47 11.74 3.44 26.77 2.82 26.15 18.11 10.86 207.81 10.86 214.8 3.87 373.01 3.87 384.19 15.05 384.19 65.79 377.42 72.56"/><g class="cls-2"><path class="cls-3" d="M3.13,39.12,20.39,21.86h195l6.27-6.27h148l7.79,7.79V62.52L362.74,77.23H265l-7.57-7.57H62.81s-5.16-6.88-6.88-6.88H3.13Z"/></g><circle class="cls-4" cx="199.86" cy="3.13" r="3.13"/><path class="cls-5" d="M374.32,72.25a3.13,3.13,0,1,1,3.13,3.13A3.14,3.14,0,0,1,374.32,72.25Z"/><circle class="cls-6" cx="180.57" cy="3.13" r="3.13"/><circle class="cls-7" cx="161.29" cy="3.13" r="3.13"/><circle class="cls-8" cx="142.01" cy="3.13" r="3.13"/><circle class="cls-9" cx="122.73" cy="3.13" r="3.13"/><path class="cls-10" d="M100.31,3.13a3.14,3.14,0,1,1,3.14,3.13A3.14,3.14,0,0,1,100.31,3.13Z"/><path class="cls-11" d="M81,3.13a3.14,3.14,0,1,1,3.13,3.13A3.13,3.13,0,0,1,81,3.13Z"/><circle class="cls-12" cx="64.88" cy="3.13" r="3.13"/><circle class="cls-13" cx="45.6" cy="3.13" r="3.13"/><circle class="cls-14" cx="26.32" cy="3.13" r="3.13"/><circle class="cls-15" cx="3.13" cy="26.83" r="3.13"/><path class="cls-16" d="M3.13,58.1H56.52l4,4h8.94l6.29,6.3h114L191,69.62H151.53L148.16,73H77.4l-3.22-3.21H62.85S56,62.9,56,62.9,3,63.13,3,62.9,3.13,58.1,3.13,58.1Z"/><polygon class="cls-17" points="388.29 19.5 387.4 19.5 387.4 13.5 375.41 1.5 359.34 1.5 359.34 0.62 375.77 0.62 388.29 13.13 388.29 19.5"/><rect class="cls-18" x="154.72" y="74.88" width="99.05" height="0.88"/><polygon class="cls-19" points="466.61 134.92 242.4 134.92 242.27 134.79 202.55 95.08 202.55 80.03 203.43 80.03 203.43 94.71 242.76 134.04 466.24 134.04 480.98 119.31 481.6 119.93 466.61 134.92"/><path class="cls-20" d="M483.05,113.29a3.68,3.68,0,1,1,3.68,3.68A3.68,3.68,0,0,1,483.05,113.29Z"/><path class="cls-21" d="M203,88.71l1.71,1.71v4.25L216,105.94a14.89,14.89,0,0,1,0,1.89l-13-13Z"/><path class="cls-22" d="M238.53,130.43v2.14l4,4h30.72s2.65-2.65,2.27-2.26-32.95,0-32.95,0Z"/><path class="cls-23" d="M264.44,33.16v34c-2.69-2.66-5.59-5.53-7.39-7.36V33.16Z"/><rect class="cls-24" x="269.96" y="25.28" width="7.4" height="48.27"/><rect class="cls-25" x="282.88" y="57.81" width="7.4" height="15.75"/><rect class="cls-26" x="295.79" y="34.41" width="7.4" height="39.15"/><rect class="cls-27" x="308.7" y="46.41" width="7.4" height="27.15"/><rect class="cls-28" x="321.62" y="23.96" width="7.4" height="49.6"/><rect class="cls-29" x="334.53" y="26.9" width="7.4" height="46.65"/><rect class="cls-30" x="347.45" y="47.65" width="7.4" height="25.9"/><polygon class="cls-31" points="367.75 55.6 367.75 66.3 360.49 73.55 360.36 73.55 360.36 55.6 367.75 55.6"/><polygon class="cls-32" points="349.14 120.22 253.88 120.22 248.43 123.22 248.43 126.91 278.75 126.91 279.94 128.3 351.26 128.3 353.6 126.91 349.14 120.22"/><polygon class="cls-33" points="420.96 105.33 367.19 105.33 365.42 109.28 422.74 109.28 420.96 105.33"/><path class="cls-34" d="M443.74,130.18H310.39a.22.22,0,0,1-.21-.21.21.21,0,0,1,.21-.21H443.74a.21.21,0,0,1,.21.21A.22.22,0,0,1,443.74,130.18Z"/><path class="cls-35" d="M361.18,124.35h-6.45c-.13,0-.17-.1-.11-.23l5.52-9.89a.48.48,0,0,1,.36-.23H367c.13,0,.18.11.11.23l-5.52,9.89A.46.46,0,0,1,361.18,124.35Z"/><path class="cls-36" d="M370.76,124.35h-6.45c-.12,0-.17-.1-.1-.23l5.51-9.89a.48.48,0,0,1,.36-.23h6.45c.13,0,.18.11.11.23l-5.51,9.89A.47.47,0,0,1,370.76,124.35Z"/><path class="cls-37" d="M380.35,124.35H373.9c-.13,0-.18-.1-.11-.23l5.51-9.89a.48.48,0,0,1,.36-.23h6.45c.13,0,.18.11.11.23l-5.51,9.89A.47.47,0,0,1,380.35,124.35Z"/><path class="cls-38" d="M389.93,124.35h-6.45c-.13,0-.18-.1-.11-.23l5.51-9.89a.48.48,0,0,1,.36-.23h6.45c.13,0,.18.11.11.23l-5.51,9.89A.46.46,0,0,1,389.93,124.35Z"/><path class="cls-39" d="M399.51,124.35h-6.45c-.13,0-.18-.1-.11-.23l5.51-9.89a.5.5,0,0,1,.36-.23h6.45c.13,0,.18.11.11.23l-5.51,9.89A.46.46,0,0,1,399.51,124.35Z"/><path class="cls-40" d="M409.09,124.35h-6.45c-.13,0-.18-.1-.11-.23l5.51-9.89a.5.5,0,0,1,.37-.23h6.45c.12,0,.17.11.1.23l-5.51,9.89A.46.46,0,0,1,409.09,124.35Z"/><g class="cls-2"><path class="cls-41" d="M418.67,124.35h-6.45c-.13,0-.18-.1-.11-.23l5.52-9.89A.48.48,0,0,1,418,114h6.45c.13,0,.17.11.1.23L419,124.12A.46.46,0,0,1,418.67,124.35Z"/></g><g class="cls-2"><path class="cls-42" d="M428.25,124.35H421.8c-.13,0-.17-.1-.11-.23l5.52-9.89a.48.48,0,0,1,.36-.23H434c.13,0,.18.11.11.23l-5.52,9.89A.46.46,0,0,1,428.25,124.35Z"/></g><g class="cls-2"><path class="cls-43" d="M437.83,124.35h-6.45c-.12,0-.17-.1-.1-.23l5.51-9.89a.48.48,0,0,1,.36-.23h6.45c.13,0,.18.11.11.23l-5.52,9.89A.44.44,0,0,1,437.83,124.35Z"/></g><path class="cls-44" d="M439.78,127.43H286.06a.42.42,0,0,1-.42-.42.41.41,0,0,1,.42-.41h153.2l5.64-11.52a.42.42,0,0,1,.56-.19.42.42,0,0,1,.19.56Z"/><path class="cls-45" d="M443.32,124.76a.57.57,0,0,1-.18,0,.42.42,0,0,1-.2-.56l5.29-11.53H376.59a.42.42,0,0,1-.42-.42.41.41,0,0,1,.42-.41h72.94l-5.83,12.71A.43.43,0,0,1,443.32,124.76Z"/><path class="cls-46" d="M297.36,131.72h-37a.2.2,0,0,1-.2-.2.2.2,0,0,1,.2-.21h37a.21.21,0,0,1,.21.21A.2.2,0,0,1,297.36,131.72Z"/><path class="cls-47" d="M260.35,132.14h-16V121.61l12.26-8.23h20a.63.63,0,0,1,0,1.25H257l-11.39,7.65v8.61h14.71a.63.63,0,1,1,0,1.25Z"/><path class="cls-48" d="M348.51,114.21H276.68a.21.21,0,0,1-.21-.21.2.2,0,0,1,.21-.2h71.83a.2.2,0,0,1,.21.2A.21.21,0,0,1,348.51,114.21Z"/><path class="cls-49" d="M353.36,117.93H262a.63.63,0,0,1,0-1.25h90.63l5-8h72.86a.63.63,0,0,1,0,1.25H358.39Z"/><polygon class="cls-50" points="229.37 150.49 79.89 150.49 42.08 112.67 43.01 111.74 80.44 149.16 228.82 149.16 240.55 137.43 241.49 138.37 229.37 150.49"/><path class="cls-51" d="M34.38,107.6a3.68,3.68,0,1,1,3.68,3.68A3.68,3.68,0,0,1,34.38,107.6Z"/><path class="cls-52" d="M68.73,138.39h4.58s8.4,8.7,8.7,8.7h34.15l2.67,2.67H80.16Z"/><path class="cls-53" d="M84.3,149.76s2.38,2,2.38,2.38,61.35,0,61.35,0,2.54-2.27,2.26-2.27H85.68Z"/><path class="cls-54" d="M87.15,132.57v1.11h15.92v9.26H83.29L87.15,139h12v-1.41H83.29v-9Zm15.92-3.93-3.88,3.93h-12v-3.93Z"/><path class="cls-55" d="M108,128.64V139H120v3.92H108L104.12,139V128.64Zm12.05,0h3.86v14.3L120,139Z"/><path class="cls-56" d="M144.74,128.64v5l-2.55,2.56,2.55,1.37v5.33H131V139h9.83v-1.41H129.34v5.33H125v-9.26h15.9v-1.11h-12L125,128.64Z"/><path class="cls-57" d="M165.19,128.64l-3.86,3.93H145.79v-3.93ZM156.6,144.9,152.13,141v-8.4l4.47,2.65Z"/><path class="cls-58" d="M170.63,137.61v5.33h-4.39v-9.26h15.9v-1.11h-12l-3.86-3.93H186v9h-6.68l8.38,5.29h-6.55l-8.84-5.29Z"/><path class="cls-59" d="M202.53,137.61H191.15V139h14.28v3.92H191.15L187.28,139V128.64l3.87,3.93v1.09h14.3Zm4.53-9-3.88,3.93h-12v-3.93Z"/><path class="cls-60" d="M223.36,137.61H212V139h14.28v3.92H212L208.11,139V128.64l3.87,3.93v1.09h14.3Zm4.54-9L224,132.57H212v-3.93Z"/></g></g></svg>