<svg xmlns="http://www.w3.org/2000/svg" viewBox="0 0 498.52 199.29"><defs><style>.cls-1{fill:#11e5b3;}.cls-2{opacity:0.15;}</style></defs><title>title_04_green</title><g id="Layer_2" data-name="Layer 2"><g id="Layer_1-2" data-name="Layer 1"><polygon class="cls-1" points="29.62 143.55 28.89 144.28 54.85 170.24 244.91 170.24 244.91 169.21 55.28 169.21 29.62 143.55"/><path class="cls-1" d="M491,51.14l.15.15V189.18l-10.11,10.11H257.61l-41.3-9.95H200.82L188.43,177h55.76l18.53-17.55H190.49l-7.22-7.23h-39V87.34L121.16,64.26l-.15-.15V22.33h341.2ZM122,63.68l23.09,23.08.15.15v64.23h38.41l7.23,7.23h74.39L244.6,178H190.92l10.33,10.32h15.48l41.3,9.94h222.6l9.51-9.5v-137L461.79,23.37H122Z"/><path class="cls-1" d="M247.3,188.25H450.9l19.52-19.52V145.46l20.31-20.31v63.1s-10.52,9.89-10.2,10.21-222.71,0-222.71,0Z"/><rect class="cls-1" x="7.1" y="121.37" width="10.76" height="10.76"/><path class="cls-1" d="M25,139.22H0v-25H25ZM1,138.19H23.92V115.3H1Z"/><polygon class="cls-1" points="121.53 30.68 469.9 30.68 462.36 23.14 121.53 23.14 121.53 30.68"/><polygon class="cls-1" points="196.21 184.01 204.22 184.01 209.01 188.81 201.03 188.81 196.21 184.01"/><polygon class="cls-1" points="144.76 122.4 150.61 128.25 150.61 144.34 167.91 144.34 174.88 151.31 144.76 151.31 144.76 122.4"/><polygon class="cls-1" points="254.96 178.5 274.58 158.88 292.3 158.88 272.77 178.42 254.96 178.5"/><polygon class="cls-1" points="282.26 178.5 301.87 158.88 319.6 158.88 300.07 178.42 282.26 178.5"/><polygon class="cls-1" points="309.55 178.5 329.17 158.88 346.9 158.88 327.37 178.42 309.55 178.5"/><polygon class="cls-1" points="336.85 178.5 356.47 158.88 374.19 158.88 354.66 178.42 336.85 178.5"/><polygon class="cls-1" points="364.15 178.5 383.77 158.88 401.49 158.88 381.96 178.42 364.15 178.5"/><polygon class="cls-1" points="391.44 178.5 411.06 158.88 428.79 158.88 409.26 178.42 391.44 178.5"/><polygon class="cls-1" points="418.74 178.5 438.36 158.88 456.08 158.88 436.55 178.42 418.74 178.5"/><polygon class="cls-1" points="468.45 158.88 468.23 165.91 455.67 178.47 446.04 178.5 465.65 158.88 468.45 158.88"/><path class="cls-1" d="M471,21,454.46,4.53H284.59L273.72,15.41H151.31L135.56,31.16l-1.2-.12,16.56-16.56H273.33L284.21,3.6H454.85l17,17"/><polygon class="cls-1" points="281.88 15.8 289.52 8.15 304.79 8.15 297.04 15.89 281.88 15.8"/><polygon class="cls-1" points="305.1 15.8 312.75 8.15 328.01 8.15 320.26 15.89 305.1 15.8"/><polygon class="cls-1" points="328.32 15.8 335.97 8.15 351.23 8.15 343.49 15.89 328.32 15.8"/><polygon class="cls-1" points="351.55 15.8 359.2 8.15 374.46 8.15 366.71 15.89 351.55 15.8"/><polygon class="cls-1" points="374.77 15.8 382.42 8.15 397.68 8.15 389.93 15.89 374.77 15.8"/><polygon class="cls-1" points="397.99 15.8 405.64 8.15 420.9 8.15 413.16 15.89 397.99 15.8"/><polygon class="cls-1" points="421.22 15.8 428.87 8.15 444.13 8.15 436.38 15.89 421.22 15.8"/><polygon class="cls-1" points="442.81 15.8 450.46 8.15 453.83 8.15 460.88 15.89 442.81 15.8"/><polygon class="cls-1" points="278.74 5.49 278.08 4.83 282.91 0 304.89 0 304.89 0.93 283.29 0.93 278.74 5.49"/><g class="cls-2"><path class="cls-1" d="M133.33,38H459.46L482,60.56s1.61,60.85,0,60.85-16.51,16.51-16.51,16.51V152.2H193.64L189.47,148H178.24l-7.43-7.43h-16.1V122.4l-5.09-5.09V81L128.43,59.8V44.85Z"/></g><polygon class="cls-1" points="493.7 57.12 493.7 101.85 498.52 106.67 498.52 146.03 490.55 153.99 490.77 50.97 493.7 57.12"/><polyline class="cls-1" points="131.9 63.27 131.9 62.97 131.9 50.51 135.72 46.7 217.59 46.7 220.38 43.9 220.38 40.89 217.22 37.73 168.83 37.73 165.87 34.76 135.2 34.76 129.97 39.99 129.97 42.69 128.43 44.84 128.43 59.55"/><path class="cls-1" d="M271.85,130.71h0a3.13,3.13,0,0,1,3.13,3.13h0a3.13,3.13,0,0,1-3.13,3.13h0a3.13,3.13,0,0,1-3.13-3.13h0A3.13,3.13,0,0,1,271.85,130.71Z"/><path class="cls-1" d="M278.59,140.58H265.11V127.11h13.48Zm-12.52-1h11.56V128.07H266.07Z"/><path class="cls-1" d="M320,130.71h0a3.13,3.13,0,0,1,3.13,3.13h0A3.13,3.13,0,0,1,320,137h0a3.13,3.13,0,0,1-3.13-3.13h0A3.13,3.13,0,0,1,320,130.71Z"/><path class="cls-1" d="M326.77,140.58H313.29V127.11h13.48Zm-12.52-1h11.56V128.07H314.25Z"/><path class="cls-1" d="M368.21,130.71h0a3.13,3.13,0,0,1,3.12,3.13h0a3.13,3.13,0,0,1-3.12,3.13h0a3.13,3.13,0,0,1-3.13-3.13h0A3.13,3.13,0,0,1,368.21,130.71Z"/><path class="cls-1" d="M374.94,140.58H361.47V127.11h13.47Zm-12.51-1H374V128.07H362.43Z"/><path class="cls-1" d="M220.13,92.26V86.34h1.42v5.92Zm1.83,0V91h2.77v1.31Z"/><path class="cls-1" d="M225.8,86.34h1.82v1.31h-.89V91h.89v1.31H225.8l-.49-.61V86.94ZM228,87.65V86.34h1.83l.49.59v4.73l-.49.6H228V91h1v-3.3Z"/><path class="cls-1" d="M231.17,92.26V86.34h1.43v5.92ZM233,87.65V86.34h2.53l.5.59v2.38l-.41.51.55,2.44h-1.42l-.49-2H233V88.93h1.6V87.65Z"/><path class="cls-1" d="M236.86,92.26V86.34h1.43v5.92Zm1.84-4.61V86.34h2.74v1.31Zm0,2.27V88.61h2.1v1.31Zm0,2.34V91h2.74v1.31Z"/><path class="cls-1" d="M246.3,91.08l-.2.49h-1l-1.56-3.92h-1.43V86.34h2.4Zm-2.81-2.28v3.46h-1.43v-4.2h1.06Zm2.29-.11.92-2.35h2.39v5.92h-1.43V87.65l-1.15,2.92Z"/><path class="cls-1" d="M252,92.26V86.34h1.42v5.92Z"/><path class="cls-1" d="M254.21,92.26V86.34h1.43v5.92Zm1.84-4.61V86.34h2.54l.49.59v2.71l-.49.61h-2.54V88.93h1.6V87.65Z"/><path class="cls-1" d="M260.23,86.34H262v1.31h-.88v.78l3.4.34.34.53v2.37l-.5.59h-1.94V91h1v-.9l-3.27-.31-.46-.57V86.94Zm.93,4.61H262v1.31h-1.81l-.49-.59V90.35h1.42Zm1.29-3.3V86.34h1.95l.5.59v1.29h-1.43v-.57Z"/><path class="cls-1" d="M268.07,91v1.31h-1.94l-.49-.61V86.34h1.42V91Zm2.5,1.31h-2.09V91h1.16V86.34h1.43v5.32Z"/><path class="cls-1" d="M276.13,91.08l-.2.49h-1.05l-1.56-3.92h-1.43V86.34h2.4Zm-2.81-2.28v3.46h-1.43v-4.2H273Zm2.29-.11.91-2.35h2.4v5.92h-1.43V87.65l-1.15,2.92Z"/><path class="cls-1" d="M283.22,86.34v5.92H281.8V86.34Zm.41,1.31V86.34h2.61l.49.59v4.73l-.49.6h-2.61V91h1.68v-3.3Z"/><path class="cls-1" d="M288.05,86.34h1.82v1.31H289V91h.89v1.31h-1.82l-.49-.61V86.94Zm2.23,1.31V86.34h1.83l.49.59v4.73l-.49.6h-1.83V91h1v-3.3Z"/><path class="cls-1" d="M293.42,92.26V86.34h1.43v5.92Zm1.84,0V91H298v1.31Z"/><path class="cls-1" d="M299.09,86.34h1.82v1.31H300V91h.88v1.31h-1.82l-.49-.61V86.94Zm2.24,1.31V86.34h1.82l.5.59v4.73l-.5.6h-1.82V91h1v-3.3Z"/><path class="cls-1" d="M304.47,92.26V86.34h1.43v5.92Zm1.84-4.61V86.34h2.53l.49.59v2.38l-.41.51.55,2.44h-1.42l-.48-2h-1.26V88.93h1.6V87.65Z"/><path class="cls-1" d="M312.62,86.34h1.81v1.31h-.88v.78l3.4.34.33.53v2.37l-.49.59h-1.94V91h1v-.9l-3.27-.31-.46-.57V86.94Zm.93,4.61h.88v1.31h-1.81l-.49-.59V90.35h1.42Zm1.29-3.3V86.34h2l.49.59v1.29h-1.42v-.57Z"/><path class="cls-1" d="M318,92.26V86.34h1.42v5.92Z"/><path class="cls-1" d="M320,86.34h5.35v1.31H320Zm2,5.92v-4.2h1.42v4.2Z"/><path class="cls-1" d="M329,92.26h-1.37l1.47-4.2h1l.18.48Zm1.52-2.88H331l-.61-1.73h-1.19l.46-1.31h1.63l2.08,5.92H332l-.56-1.57H330Z"/><path class="cls-1" d="M338,91.08l-.2.49h-1.06l-1.55-3.92h-1.43V86.34h2.39Zm-2.81-2.28v3.46h-1.43v-4.2h1.06Zm2.28-.11.92-2.35h2.4v5.92h-1.43V87.65l-1.16,2.92Z"/><path class="cls-1" d="M341.64,92.26V86.34h1.43v5.92Zm1.84-4.61V86.34h2.75v1.31Zm0,2.27V88.61h2.1v1.31Zm0,2.34V91h2.75v1.31Z"/><path class="cls-1" d="M346.6,86.34H352v1.31H346.6Zm2,5.92v-4.2H350v4.2Z"/><path class="cls-1" d="M352.37,93.22h0v-1h-.67V91h1.43v1.31Z"/><path class="cls-1" d="M356.21,86.34H358v1.31h-.89V91H358v1.31h-1.82l-.49-.61V86.94Zm2.23,1.31V86.34h1.83l.49.59v1.6h-1.3v-.88Zm0,4.61V91h1v-.87h1.3v1.58l-.49.6Z"/><path class="cls-1" d="M362,86.34h1.82v1.31h-.88V91h.88v1.31H362l-.49-.61V86.94Zm2.23,1.31V86.34H366l.5.59v4.73l-.5.6h-1.83V91h1v-3.3Z"/><path class="cls-1" d="M371.17,92.29l-2.42-4.64h-1.42V86.34h2.31L372,91h1.42v1.34Zm-2.42-3.51v3.48h-1.42v-4.2h1.05ZM372,89.87V86.34h1.42v4.2h-1.06Z"/><path class="cls-1" d="M374.65,86.34h1.81v1.31h-.88v.78l3.4.34.33.53v2.37l-.49.59h-1.94V91h1v-.9l-3.27-.31-.46-.57V86.94Zm.93,4.61h.88v1.31h-1.81l-.49-.59V90.35h1.42Zm1.29-3.3V86.34h1.95l.49.59v1.29h-1.42v-.57Z"/><path class="cls-1" d="M380.06,92.26V86.34h1.42v5.92Zm1.83-4.61V86.34h2.75v1.31Zm0,2.27V88.61H384v1.31Zm0,2.34V91h2.75v1.31Z"/><path class="cls-1" d="M385.75,86.34h1.82v1.31h-.89V91h.89v1.31h-1.82l-.49-.61V86.94ZM388,87.65V86.34h1.83l.49.59v1.6H389v-.88Zm0,4.61V91h1v-.87h1.3v1.58l-.49.6Z"/><path class="cls-1" d="M390.76,86.34h5.34v1.31h-5.34Zm2,5.92v-4.2h1.42v4.2Z"/><path class="cls-1" d="M396.68,92.26V86.34h1.43v5.92Zm1.84-4.61V86.34h2.75v1.31Zm0,2.27V88.61h2.1v1.31Zm0,2.34V91h2.75v1.31Z"/><path class="cls-1" d="M401.64,86.34H407v1.31h-5.35Zm2,5.92v-4.2H405v4.2Z"/><path class="cls-1" d="M410,91v1.31h-1.95l-.49-.61V86.34H409V91Zm2.5,1.31h-2.09V91h1.16V86.34H413v5.32Z"/><path class="cls-1" d="M413.82,92.26V86.34h1.42v5.92Zm1.83-4.61V86.34h2.54l.49.59v2.38l-.41.51.55,2.44H417.4l-.48-2h-1.27V88.93h1.6V87.65Z"/><path class="cls-1" d="M221.08,102.11h-1.36l1.46-4.2h1l.18.48Zm1.52-2.88h.54l-.62-1.73h-1.19l.46-1.31h1.63l2.08,5.92h-1.35l-.55-1.57h-1.46Z"/><path class="cls-1" d="M227.34,96.19v5.92h-1.43V96.19Zm.41,1.31V96.19h2.61l.49.59v4.73l-.49.6h-2.61V100.8h1.67V97.5Z"/><path class="cls-1" d="M231.67,102.11V96.19h1.43v5.92Z"/><path class="cls-1" d="M233.92,102.11V96.19h1.43v5.92Zm1.84-4.61V96.19h2.53l.49.59v2.71l-.49.6h-2.53V98.78h1.6V97.5Z"/><path class="cls-1" d="M239.52,102.11V96.19H241v5.92Z"/><path class="cls-1" d="M242.18,96.19H244V97.5h-.87v.78l3.39.34.34.53v2.36l-.49.6h-2V100.8h1v-.9l-3.27-.31-.46-.57V96.79Zm.94,4.61H244v1.31h-1.81l-.49-.59V100.2h1.43Zm1.28-3.3V96.19h2l.49.59v1.29h-1.43V97.5Z"/><path class="cls-1" d="M248.08,96.19h1.82V97.5H249v3.3h.88v1.31h-1.82l-.49-.61V96.79Zm2.23,1.31V96.19h1.83l.49.59v1.6h-1.3V97.5Zm0,4.61V100.8h1v-.87h1.3v1.58l-.49.6Z"/><path class="cls-1" d="M253.33,102.11V96.19h1.43v5.92Z"/><path class="cls-1" d="M259.42,102.14,257,97.5h-1.43V96.19h2.32l2.34,4.61h1.43v1.34ZM257,98.63v3.48h-1.43v-4.2h1Zm3.23,1.09V96.19h1.43v4.2H260.6Z"/><path class="cls-1" d="M263.92,100.8h.94v1.31H263l-.49-.61V96.79l.49-.6h1.88V97.5h-.94Zm3.75.71-.5.6h-1.9V100.8h1.05v-1h-1.15V98.51h2.5Zm-2.4-4V96.19h1.9l.5.59V98h-1.31V97.5Z"/><path class="cls-1" d="M270.46,102.11V96.19h1.43v5.92Zm1.84-4.61V96.19h2.75V97.5Zm0,2.27V98.45h2.1v1.32Zm0,2.34V100.8h2.75v1.31Z"/><path class="cls-1" d="M275.66,102.11V96.19h1.43v5.92Zm1.84,0V100.8h2.76v1.31Z"/><path class="cls-1" d="M280.84,102.11V96.19h1.43v5.92Z"/><path class="cls-1" d="M282.84,96.19h5.35V97.5h-5.35Zm2,5.92v-4.2h1.43v4.2Z"/><path class="cls-1" d="M288.61,103.06h0v-1h-.67V100.8h1.42v1.31Z"/><path class="cls-1" d="M292.37,96.19h1.81V97.5h-.88v.78l3.4.34.34.53v2.36l-.5.6H294.6V100.8h1v-.9l-3.27-.31-.46-.57V96.79Zm.93,4.61h.88v1.31h-1.81l-.49-.59V100.2h1.42Zm1.29-3.3V96.19h2l.5.59v1.29h-1.43V97.5Z"/><path class="cls-1" d="M297.78,102.11V96.19h1.43v5.92Zm1.84-4.61V96.19h2.74V97.5Zm0,2.27V98.45h2.1v1.32Zm0,2.34V100.8h2.74v1.31Z"/><path class="cls-1" d="M304.41,96.19v5.92H303V96.19Zm.41,1.31V96.19h2.6l.5.59v4.73l-.5.6h-2.6V100.8h1.67V97.5Z"/><path class="cls-1" d="M312.22,96.19v5.92h-1.43V96.19Zm.41,1.31V96.19h2.61l.49.59v4.73l-.49.6h-2.61V100.8h1.67V97.5Z"/><path class="cls-1" d="M317,96.19h1.83V97.5H318v3.3h.89v1.31H317l-.49-.61V96.79Zm2.24,1.31V96.19h1.82l.5.59v4.73l-.5.6h-1.82V100.8h1V97.5Z"/><path class="cls-1" d="M324.47,102.11V96.19h1.43v5.92Zm1.84-4.61V96.19h2.75V97.5Zm0,2.27V98.45h2.1v1.32Zm0,2.34V100.8h2.75v1.31Z"/><path class="cls-1" d="M329.67,102.11V96.19h1.43v5.92Z"/><path class="cls-1" d="M334.36,100.8v1.31h-1.95l-.49-.61V96.19h1.43v4.61Zm2.5,1.31h-2.09V100.8h1.15V96.19h1.43v5.32Z"/><path class="cls-1" d="M338.59,96.19h1.81V97.5h-.88v.78l3.4.34.33.53v2.36l-.49.6h-1.94V100.8h1v-.9l-3.28-.31-.46-.57V96.79Zm.93,4.61h.88v1.31h-1.81l-.5-.59V100.2h1.43Zm1.29-3.3V96.19h1.95l.49.59v1.29h-1.42V97.5Z"/><path class="cls-1" d="M348.23,100.93l-.19.48H347l-1.56-3.91H344V96.19h2.4Zm-2.81-2.29v3.47H344v-4.2h1.06Zm2.29-.1.92-2.35H351v5.92h-1.43V97.5l-1.15,2.91Z"/><path class="cls-1" d="M352.34,96.19h1.82V97.5h-.89v3.3h.89v1.31h-1.82l-.49-.61V96.79Zm2.23,1.31V96.19h1.83l.49.59v4.73l-.49.6h-1.83V100.8h1V97.5Z"/><path class="cls-1" d="M359.14,96.19v5.92h-1.43V96.19Zm.41,1.31V96.19h2.61l.49.59v4.73l-.49.6h-2.61V100.8h1.67V97.5Z"/><path class="cls-1" d="M365.28,96.19h5.35V97.5h-5.35Zm2,5.92v-4.2h1.43v4.2Z"/><path class="cls-1" d="M371.21,102.11V96.19h1.42v5.92ZM373,97.5V96.19h2.75V97.5Zm0,2.27V98.45h2.1v1.32Zm0,2.34V100.8h2.75v1.31Z"/><path class="cls-1" d="M380.65,100.93l-.2.48h-1.06l-1.56-3.91h-1.42V96.19h2.39Zm-2.82-2.29v3.47h-1.42v-4.2h1.06Zm2.29-.1.92-2.35h2.4v5.92H382V97.5l-1.16,2.91Z"/><path class="cls-1" d="M384.26,102.11V96.19h1.43v5.92Zm1.84-4.61V96.19h2.53l.49.59v2.71l-.49.6H386.1V98.78h1.6V97.5Z"/><path class="cls-1" d="M390.36,96.19h1.82V97.5h-.89v3.3h.89v1.31h-1.82l-.49-.61V96.79Zm2.23,1.31V96.19h1.83l.49.59v4.73l-.49.6h-1.83V100.8h1V97.5Z"/><path class="cls-1" d="M395.73,102.11V96.19h1.43v5.92Zm1.84-4.61V96.19h2.53l.5.59v2.38l-.41.51.55,2.44h-1.42l-.49-2h-1.26V98.78h1.6V97.5Z"/><path class="cls-1" d="M403.47,102.11V96.19h1.43v5.92Z"/><path class="cls-1" d="M409.56,102.14l-2.41-4.64h-1.43V96.19H408l2.35,4.61h1.42v1.34Zm-2.41-3.51v3.48h-1.43v-4.2h1Zm3.23,1.09V96.19h1.42v4.2h-1.06Z"/><path class="cls-1" d="M413.12,96.19h1.82V97.5h-.88v3.3h.88v1.31h-1.82l-.49-.61V96.79Zm2.23,1.31V96.19h1.83l.49.59v1.6h-1.3V97.5Zm0,4.61V100.8h1v-.87h1.3v1.58l-.49.6Z"/><path class="cls-1" d="M418.37,102.11V96.19h1.43v5.92Z"/><path class="cls-1" d="M422.05,96.19v5.92h-1.43V96.19Zm.41,1.31V96.19h2.61l.49.59v4.73l-.49.6h-2.61V100.8h1.67V97.5Z"/><path class="cls-1" d="M426.38,102.11V96.19h1.43v5.92Z"/><path class="cls-1" d="M430.06,96.19v5.92h-1.43V96.19Zm.41,1.31V96.19h2.6l.5.59v4.73l-.5.6h-2.6V100.8h1.67V97.5Z"/><path class="cls-1" d="M436.83,100.8v1.31h-1.95l-.49-.61V96.19h1.43v4.61Zm2.5,1.31h-2.09V100.8h1.15V96.19h1.43v5.32Z"/><path class="cls-1" d="M444.48,102.14l-2.41-4.64h-1.43V96.19H443l2.34,4.61h1.43v1.34Zm-2.41-3.51v3.48h-1.43v-4.2h1.05Zm3.23,1.09V96.19h1.43v4.2h-1.07Z"/><path class="cls-1" d="M447.31,96.19h5.34V97.5h-5.34Zm2,5.92v-4.2h1.42v4.2Z"/><path class="cls-1" d="M220.13,112.93V107h1.42v5.92Zm1.83,0v-1.31h2.77v1.31Z"/><path class="cls-1" d="M225.8,107h1.82v1.31h-.89v3.3h.89v1.31H225.8l-.49-.61v-4.71Zm2.23,1.31V107h1.83l.49.59v4.73l-.49.6H228v-1.31h1v-3.3Z"/><path class="cls-1" d="M231.17,112.93V107h1.43v5.92Zm1.84-4.61V107h2.53l.5.59V110l-.41.51.55,2.44h-1.42l-.49-2H233V109.6h1.6v-1.28Z"/><path class="cls-1" d="M236.86,112.93V107h1.43v5.92Zm1.84-4.61V107h2.74v1.31Zm0,2.27v-1.32h2.1v1.32Zm0,2.34v-1.31h2.74v1.31Z"/><path class="cls-1" d="M246.3,111.75l-.2.48h-1l-1.56-3.91h-1.43V107h2.4Zm-2.81-2.29v3.47h-1.43v-4.2h1.06Zm2.29-.1.92-2.35h2.39v5.92h-1.43v-4.61l-1.15,2.91Z"/><path class="cls-1" d="M252,112.93V107h1.42v5.92Z"/><path class="cls-1" d="M254.21,112.93V107h1.43v5.92Zm1.84-4.61V107h2.54l.49.59v2.71l-.49.6h-2.54V109.6h1.6v-1.28Z"/><path class="cls-1" d="M260.23,107H262v1.31h-.88v.78l3.4.34.34.53v2.36l-.5.6h-1.94v-1.31h1v-.9l-3.27-.31-.46-.57v-2.23Zm.93,4.61H262v1.31h-1.81l-.49-.59V111h1.42Zm1.29-3.3V107h1.95l.5.59v1.29h-1.43v-.57Z"/><path class="cls-1" d="M268.07,111.62v1.31h-1.94l-.49-.61V107h1.42v4.61Zm2.5,1.31h-2.09v-1.31h1.16V107h1.43v5.32Z"/><path class="cls-1" d="M276.13,111.75l-.2.48h-1.05l-1.56-3.91h-1.43V107h2.4Zm-2.81-2.29v3.47h-1.43v-4.2H273Zm2.29-.1.91-2.35h2.4v5.92h-1.43v-4.61l-1.15,2.91Z"/><path class="cls-1" d="M283.22,107v5.92H281.8V107Zm.41,1.31V107h2.61l.49.59v4.73l-.49.6h-2.61v-1.31h1.68v-3.3Z"/><path class="cls-1" d="M288.05,107h1.82v1.31H289v3.3h.89v1.31h-1.82l-.49-.61v-4.71Zm2.23,1.31V107h1.83l.49.59v4.73l-.49.6h-1.83v-1.31h1v-3.3Z"/><path class="cls-1" d="M293.42,112.93V107h1.43v5.92Zm1.84,0v-1.31H298v1.31Z"/><path class="cls-1" d="M299.09,107h1.82v1.31H300v3.3h.88v1.31h-1.82l-.49-.61v-4.71Zm2.24,1.31V107h1.82l.5.59v4.73l-.5.6h-1.82v-1.31h1v-3.3Z"/><path class="cls-1" d="M304.47,112.93V107h1.43v5.92Zm1.84-4.61V107h2.53l.49.59V110l-.41.51.55,2.44h-1.42l-.48-2h-1.26V109.6h1.6v-1.28Z"/><path class="cls-1" d="M312.62,107h1.81v1.31h-.88v.78l3.4.34.33.53v2.36l-.49.6h-1.94v-1.31h1v-.9l-3.27-.31-.46-.57v-2.23Zm.93,4.61h.88v1.31h-1.81l-.49-.59V111h1.42Zm1.29-3.3V107h2l.49.59v1.29h-1.42v-.57Z"/><path class="cls-1" d="M318,112.93V107h1.42v5.92Z"/><path class="cls-1" d="M320,107h5.35v1.31H320Zm2,5.92v-4.2h1.42v4.2Z"/><path class="cls-1" d="M329,112.93h-1.37l1.47-4.2h1l.18.48Zm1.52-2.89H331l-.61-1.72h-1.19l.46-1.31h1.63l2.08,5.92H332l-.56-1.57H330Z"/><path class="cls-1" d="M338,111.75l-.2.48h-1.06l-1.55-3.91h-1.43V107h2.39Zm-2.81-2.29v3.47h-1.43v-4.2h1.06Zm2.28-.1.92-2.35h2.4v5.92h-1.43v-4.61l-1.16,2.91Z"/><path class="cls-1" d="M341.64,112.93V107h1.43v5.92Zm1.84-4.61V107h2.75v1.31Zm0,2.27v-1.32h2.1v1.32Zm0,2.34v-1.31h2.75v1.31Z"/><path class="cls-1" d="M346.6,107H352v1.31H346.6Zm2,5.92v-4.2H350v4.2Z"/><polygon class="cls-1" points="250.58 50.1 246.62 50.1 246.62 66.56 249.73 66.56 250.58 66.56 259.4 66.56 259.4 62.91 250.58 62.91 250.58 50.1"/><path class="cls-1" d="M269.7,50.1h-7.34L261,51.77V64.85l1.37,1.71h11.28L275,64.87V51.74l-1.37-1.64Zm1.68,12.81H265V53.75h6.42Z"/><path class="cls-1" d="M290.8,58.35V51.74l-1.37-1.64H277.29V66.56h4V61h4.65l1.34,5.61h3.95l-1.53-6.79Zm-4-1.05h-5.58V53.75h5.58Z"/><polygon class="cls-1" points="298.18 50.1 293.08 50.1 293.08 66.56 298.18 66.56 298.8 66.56 305.81 66.56 305.81 62.91 298.8 62.91 298.8 60.04 304.01 60.04 304.01 56.39 298.8 56.39 298.8 53.75 305.81 53.75 305.81 50.1 298.8 50.1 298.18 50.1"/><polygon class="cls-1" points="307.52 50.1 307.52 52.9 307.52 53.75 307.52 66.56 311.49 66.56 311.49 53.75 315.82 64.62 318.76 64.62 319.3 63.28 314.18 50.1 307.52 50.1"/><polygon class="cls-1" points="317.85 56.62 319.87 61.84 323.09 53.75 323.09 66.56 327.05 66.56 327.05 50.1 320.4 50.1 317.85 56.62"/><rect class="cls-1" x="335.03" y="50.1" width="3.97" height="16.45"/><path class="cls-1" d="M345.23,50.1h-4V66.56h4V61h8.19l1.36-1.69V51.74l-1.36-1.64Zm5.59,7.2h-5.59V53.75h5.59Z"/><polygon class="cls-1" points="364.45 50.1 364.15 50.1 357.97 50.1 356.61 51.77 356.61 57.97 357.88 59.54 366.97 60.4 366.97 62.91 364.95 62.91 364.17 62.91 360.57 62.91 360.57 61.25 356.61 61.25 356.61 64.92 357.97 66.56 364.17 66.56 364.95 66.56 369.57 66.56 370.94 64.89 370.94 58.33 370 56.85 360.57 55.91 360.57 53.75 364.15 53.75 364.45 53.75 366.97 53.75 366.97 55.32 370.94 55.32 370.94 51.74 369.57 50.1 364.45 50.1"/><polygon class="cls-1" points="384.11 62.91 381.68 62.91 380.9 62.91 376.95 62.91 376.95 50.1 372.99 50.1 372.99 64.85 374.36 66.56 380.9 66.56 381.68 66.56 386.71 66.56 388.07 64.87 388.07 50.1 384.11 50.1 384.11 62.91"/><polygon class="cls-1" points="403.23 50.1 400.68 56.62 402.7 61.84 405.92 53.75 405.92 66.56 409.88 66.56 409.88 50.1 403.23 50.1"/><polygon class="cls-1" points="390.35 50.1 390.35 52.98 390.35 53.75 390.35 66.56 394.32 66.56 394.32 53.75 398.65 64.62 401.59 64.62 402.13 63.28 397.01 50.1 390.35 50.1"/></g></g></svg>