<svg xmlns="http://www.w3.org/2000/svg" xmlns:xlink="http://www.w3.org/1999/xlink" viewBox="0 0 492.53 259.68"><defs><style>.cls-1{fill:url(#New_Gradient_Swatch_7);}.cls-2{fill:url(#New_Gradient_Swatch_7-2);}.cls-3{fill:url(#New_Gradient_Swatch_7-3);}.cls-4{fill:url(#New_Gradient_Swatch_7-4);}.cls-5{fill:url(#New_Gradient_Swatch_7-5);}.cls-6{fill:url(#New_Gradient_Swatch_7-6);}.cls-7{fill:url(#New_Gradient_Swatch_7-7);}.cls-8{fill:url(#New_Gradient_Swatch_7-8);}.cls-9{fill:url(#New_Gradient_Swatch_7-9);}.cls-10{fill:url(#New_Gradient_Swatch_7-10);}.cls-11{fill:url(#New_Gradient_Swatch_7-11);}.cls-12{fill:url(#New_Gradient_Swatch_7-12);}.cls-13{fill:url(#New_Gradient_Swatch_7-13);}.cls-14{fill:url(#New_Gradient_Swatch_7-14);}.cls-15{fill:url(#New_Gradient_Swatch_7-15);}.cls-16{fill:url(#New_Gradient_Swatch_7-16);}.cls-17{fill:url(#New_Gradient_Swatch_7-17);}.cls-18{fill:url(#New_Gradient_Swatch_7-18);}.cls-19{fill:url(#New_Gradient_Swatch_7-19);}.cls-20{fill:url(#New_Gradient_Swatch_7-20);}.cls-21{fill:url(#New_Gradient_Swatch_7-21);}.cls-22{fill:url(#New_Gradient_Swatch_7-22);}.cls-23{fill:url(#New_Gradient_Swatch_7-23);}.cls-24{fill:url(#New_Gradient_Swatch_7-24);}.cls-25{fill:url(#New_Gradient_Swatch_7-25);}.cls-26{fill:url(#New_Gradient_Swatch_7-26);}.cls-27{fill:url(#New_Gradient_Swatch_7-27);}.cls-28{fill:url(#New_Gradient_Swatch_7-28);}.cls-29{fill:url(#New_Gradient_Swatch_7-29);}.cls-30{fill:url(#New_Gradient_Swatch_7-30);}.cls-31{fill:url(#New_Gradient_Swatch_7-31);}.cls-32{fill:url(#New_Gradient_Swatch_7-32);}.cls-33{fill:url(#New_Gradient_Swatch_7-33);}.cls-34{fill:url(#New_Gradient_Swatch_7-34);}.cls-35{fill:url(#New_Gradient_Swatch_7-35);}.cls-36{fill:url(#New_Gradient_Swatch_7-36);}.cls-37{fill:url(#New_Gradient_Swatch_7-37);}.cls-38{fill:url(#New_Gradient_Swatch_7-38);}.cls-39{fill:url(#New_Gradient_Swatch_7-39);}.cls-40{fill:url(#New_Gradient_Swatch_7-40);}.cls-41{fill:url(#New_Gradient_Swatch_7-41);}.cls-42{fill:url(#New_Gradient_Swatch_7-42);}.cls-43{fill:url(#New_Gradient_Swatch_7-43);}.cls-44{fill:url(#New_Gradient_Swatch_7-44);}.cls-45{fill:url(#New_Gradient_Swatch_7-45);}.cls-46{fill:url(#New_Gradient_Swatch_7-46);}.cls-47{fill:url(#New_Gradient_Swatch_7-47);}.cls-48{fill:url(#New_Gradient_Swatch_7-48);}.cls-49{fill:url(#New_Gradient_Swatch_7-49);}.cls-50{fill:url(#New_Gradient_Swatch_7-50);}.cls-51{fill:url(#New_Gradient_Swatch_7-51);}.cls-52{fill:url(#New_Gradient_Swatch_7-52);}.cls-53{fill:url(#New_Gradient_Swatch_7-53);}.cls-54{fill:url(#New_Gradient_Swatch_7-54);}.cls-55{fill:url(#New_Gradient_Swatch_7-55);}.cls-56{fill:url(#New_Gradient_Swatch_7-56);}.cls-57{fill:url(#New_Gradient_Swatch_7-57);}.cls-58{fill:url(#New_Gradient_Swatch_7-58);}.cls-59{fill:url(#New_Gradient_Swatch_7-59);}.cls-60{fill:url(#New_Gradient_Swatch_7-60);}.cls-61{fill:url(#New_Gradient_Swatch_7-61);}.cls-62{fill:url(#New_Gradient_Swatch_7-62);}.cls-63{fill:url(#New_Gradient_Swatch_7-63);}.cls-64{fill:url(#New_Gradient_Swatch_7-64);}.cls-65{fill:url(#New_Gradient_Swatch_7-65);}.cls-66{fill:url(#New_Gradient_Swatch_7-66);}.cls-67{fill:url(#New_Gradient_Swatch_7-67);}.cls-68{fill:url(#New_Gradient_Swatch_7-68);}.cls-69{fill:url(#New_Gradient_Swatch_7-69);}.cls-70{fill:url(#New_Gradient_Swatch_7-70);}.cls-71{fill:url(#New_Gradient_Swatch_7-71);}.cls-72{fill:url(#New_Gradient_Swatch_7-72);}.cls-73{fill:url(#New_Gradient_Swatch_7-73);}.cls-74{fill:url(#New_Gradient_Swatch_7-74);}.cls-75{fill:url(#New_Gradient_Swatch_7-75);}.cls-76{fill:url(#New_Gradient_Swatch_7-76);}.cls-77{fill:url(#New_Gradient_Swatch_7-77);}.cls-78{fill:url(#New_Gradient_Swatch_7-78);}.cls-79{fill:url(#New_Gradient_Swatch_7-79);}.cls-80{fill:url(#New_Gradient_Swatch_7-80);}.cls-81{fill:url(#New_Gradient_Swatch_7-81);}.cls-82{fill:url(#New_Gradient_Swatch_7-82);}.cls-83{fill:url(#New_Gradient_Swatch_7-83);}.cls-84{fill:url(#New_Gradient_Swatch_7-84);}.cls-85{fill:url(#New_Gradient_Swatch_7-85);}.cls-86{fill:url(#New_Gradient_Swatch_7-86);}.cls-87{fill:url(#New_Gradient_Swatch_7-87);}.cls-88{fill:url(#New_Gradient_Swatch_7-88);}.cls-89{fill:url(#New_Gradient_Swatch_7-89);}.cls-90{fill:url(#New_Gradient_Swatch_7-90);}.cls-91{fill:url(#New_Gradient_Swatch_7-91);}.cls-92{fill:url(#New_Gradient_Swatch_7-92);}.cls-93{fill:url(#New_Gradient_Swatch_7-93);}.cls-94{fill:url(#New_Gradient_Swatch_7-94);}.cls-95{fill:url(#New_Gradient_Swatch_7-95);}.cls-96{fill:url(#New_Gradient_Swatch_7-96);}.cls-97{fill:url(#New_Gradient_Swatch_7-97);}.cls-98{fill:url(#New_Gradient_Swatch_7-98);}.cls-99{fill:url(#New_Gradient_Swatch_7-99);}.cls-100{fill:url(#New_Gradient_Swatch_7-100);}.cls-101{fill:url(#New_Gradient_Swatch_7-101);}.cls-102{fill:url(#New_Gradient_Swatch_7-102);}.cls-103{fill:url(#New_Gradient_Swatch_7-103);}.cls-104{fill:url(#New_Gradient_Swatch_7-104);}.cls-105{fill:url(#New_Gradient_Swatch_7-105);}.cls-106{fill:url(#New_Gradient_Swatch_7-106);}.cls-107{fill:url(#New_Gradient_Swatch_7-107);}.cls-108{fill:url(#New_Gradient_Swatch_7-108);}.cls-109{fill:url(#New_Gradient_Swatch_7-109);}.cls-110{fill:url(#New_Gradient_Swatch_7-110);}.cls-111{fill:url(#New_Gradient_Swatch_7-111);}.cls-112{fill:url(#New_Gradient_Swatch_7-112);}.cls-113{fill:url(#New_Gradient_Swatch_7-113);}.cls-114{fill:url(#New_Gradient_Swatch_7-114);}.cls-115{fill:url(#New_Gradient_Swatch_7-115);}.cls-116{fill:url(#New_Gradient_Swatch_7-116);}.cls-117{fill:url(#New_Gradient_Swatch_7-117);}.cls-118{fill:url(#New_Gradient_Swatch_7-118);}.cls-119{fill:url(#New_Gradient_Swatch_7-119);}.cls-120{fill:url(#New_Gradient_Swatch_7-120);}.cls-121{fill:url(#New_Gradient_Swatch_7-121);}.cls-122{fill:url(#New_Gradient_Swatch_7-122);}.cls-123{fill:url(#New_Gradient_Swatch_7-123);}.cls-124{fill:url(#New_Gradient_Swatch_7-124);}.cls-125{fill:url(#New_Gradient_Swatch_7-125);}.cls-126{fill:url(#New_Gradient_Swatch_7-126);}.cls-127{fill:url(#New_Gradient_Swatch_7-127);}.cls-128{fill:url(#New_Gradient_Swatch_7-128);}.cls-129{fill:url(#New_Gradient_Swatch_7-129);}.cls-130{fill:url(#New_Gradient_Swatch_7-130);}.cls-131{fill:url(#New_Gradient_Swatch_7-131);}.cls-132{fill:url(#New_Gradient_Swatch_7-132);}.cls-133{fill:url(#New_Gradient_Swatch_7-133);}.cls-134{fill:url(#New_Gradient_Swatch_7-134);}.cls-135{fill:url(#New_Gradient_Swatch_7-135);}.cls-136{fill:url(#New_Gradient_Swatch_7-136);}.cls-137{fill:url(#New_Gradient_Swatch_7-137);}.cls-138{fill:url(#New_Gradient_Swatch_7-138);}.cls-139{fill:url(#New_Gradient_Swatch_7-139);}.cls-140{fill:url(#New_Gradient_Swatch_7-140);}.cls-141{fill:url(#New_Gradient_Swatch_7-141);}</style><linearGradient id="New_Gradient_Swatch_7" x1="40.11" y1="226.81" x2="43.56" y2="226.81" gradientUnits="userSpaceOnUse"><stop offset="0" stop-color="#fcdaff"/><stop offset="1" stop-color="#cf52fe"/></linearGradient><linearGradient id="New_Gradient_Swatch_7-2" x1="43.99" y1="226.81" x2="47.78" y2="226.81" xlink:href="#New_Gradient_Swatch_7"/><linearGradient id="New_Gradient_Swatch_7-3" x1="48.4" y1="226.81" x2="52.15" y2="226.81" xlink:href="#New_Gradient_Swatch_7"/><linearGradient id="New_Gradient_Swatch_7-4" x1="52.67" y1="226.81" x2="56.11" y2="226.81" xlink:href="#New_Gradient_Swatch_7"/><linearGradient id="New_Gradient_Swatch_7-5" x1="56.57" y1="226.81" x2="61.85" y2="226.81" xlink:href="#New_Gradient_Swatch_7"/><linearGradient id="New_Gradient_Swatch_7-6" x1="64" y1="226.81" x2="65.07" y2="226.81" xlink:href="#New_Gradient_Swatch_7"/><linearGradient id="New_Gradient_Swatch_7-7" x1="65.69" y1="226.81" x2="69.34" y2="226.81" xlink:href="#New_Gradient_Swatch_7"/><linearGradient id="New_Gradient_Swatch_7-8" x1="69.84" y1="226.81" x2="73.71" y2="226.81" xlink:href="#New_Gradient_Swatch_7"/><linearGradient id="New_Gradient_Swatch_7-9" x1="74.26" y1="226.81" x2="78.34" y2="226.81" xlink:href="#New_Gradient_Swatch_7"/><linearGradient id="New_Gradient_Swatch_7-10" x1="78.96" y1="226.81" x2="84.23" y2="226.81" xlink:href="#New_Gradient_Swatch_7"/><linearGradient id="New_Gradient_Swatch_7-11" x1="86.39" y1="226.81" x2="90.1" y2="226.81" xlink:href="#New_Gradient_Swatch_7"/><linearGradient id="New_Gradient_Swatch_7-12" x1="90.72" y1="226.81" x2="94.5" y2="226.81" xlink:href="#New_Gradient_Swatch_7"/><linearGradient id="New_Gradient_Swatch_7-13" x1="95.12" y1="226.81" x2="98.57" y2="226.81" xlink:href="#New_Gradient_Swatch_7"/><linearGradient id="New_Gradient_Swatch_7-14" x1="99.01" y1="226.81" x2="102.79" y2="226.81" xlink:href="#New_Gradient_Swatch_7"/><linearGradient id="New_Gradient_Swatch_7-15" x1="103.41" y1="226.81" x2="107.17" y2="226.81" xlink:href="#New_Gradient_Swatch_7"/><linearGradient id="New_Gradient_Swatch_7-16" x1="109.16" y1="226.81" x2="113.03" y2="226.81" xlink:href="#New_Gradient_Swatch_7"/><linearGradient id="New_Gradient_Swatch_7-17" x1="113.59" y1="226.81" x2="114.66" y2="226.81" xlink:href="#New_Gradient_Swatch_7"/><linearGradient id="New_Gradient_Swatch_7-18" x1="115.09" y1="226.81" x2="119.1" y2="226.81" xlink:href="#New_Gradient_Swatch_7"/><linearGradient id="New_Gradient_Swatch_7-19" x1="120.77" y1="226.81" x2="125.11" y2="226.81" xlink:href="#New_Gradient_Swatch_7"/><linearGradient id="New_Gradient_Swatch_7-20" x1="125.42" y1="226.81" x2="130.69" y2="226.81" xlink:href="#New_Gradient_Swatch_7"/><linearGradient id="New_Gradient_Swatch_7-21" x1="131.31" y1="226.81" x2="134.75" y2="226.81" xlink:href="#New_Gradient_Swatch_7"/><linearGradient id="New_Gradient_Swatch_7-22" x1="135.03" y1="226.81" x2="139.04" y2="226.81" xlink:href="#New_Gradient_Swatch_7"/><linearGradient id="New_Gradient_Swatch_7-23" x1="138.83" y1="228.9" x2="139.9" y2="228.9" xlink:href="#New_Gradient_Swatch_7"/><linearGradient id="New_Gradient_Swatch_7-24" x1="141.87" y1="226.81" x2="145.66" y2="226.81" xlink:href="#New_Gradient_Swatch_7"/><linearGradient id="New_Gradient_Swatch_7-25" x1="146.19" y1="226.81" x2="149.97" y2="226.81" xlink:href="#New_Gradient_Swatch_7"/><linearGradient id="New_Gradient_Swatch_7-26" x1="150.59" y1="226.82" x2="155.16" y2="226.82" xlink:href="#New_Gradient_Swatch_7"/><linearGradient id="New_Gradient_Swatch_7-27" x1="155.71" y1="226.81" x2="159.59" y2="226.81" xlink:href="#New_Gradient_Swatch_7"/><linearGradient id="New_Gradient_Swatch_7-28" x1="160.14" y1="226.81" x2="163.58" y2="226.81" xlink:href="#New_Gradient_Swatch_7"/><linearGradient id="New_Gradient_Swatch_7-29" x1="164.05" y1="226.81" x2="167.83" y2="226.81" xlink:href="#New_Gradient_Swatch_7"/><linearGradient id="New_Gradient_Swatch_7-30" x1="168.17" y1="226.81" x2="172.19" y2="226.81" xlink:href="#New_Gradient_Swatch_7"/><linearGradient id="New_Gradient_Swatch_7-31" x1="172.62" y1="226.81" x2="176.06" y2="226.81" xlink:href="#New_Gradient_Swatch_7"/><linearGradient id="New_Gradient_Swatch_7-32" x1="176.34" y1="226.81" x2="180.35" y2="226.81" xlink:href="#New_Gradient_Swatch_7"/><linearGradient id="New_Gradient_Swatch_7-33" x1="180.79" y1="226.81" x2="184.86" y2="226.81" xlink:href="#New_Gradient_Swatch_7"/><linearGradient id="New_Gradient_Swatch_7-34" x1="185.48" y1="226.81" x2="189.24" y2="226.81" xlink:href="#New_Gradient_Swatch_7"/><linearGradient id="New_Gradient_Swatch_7-35" x1="39.8" y1="234.2" x2="44.14" y2="234.2" xlink:href="#New_Gradient_Swatch_7"/><linearGradient id="New_Gradient_Swatch_7-36" x1="44.45" y1="234.2" x2="48.15" y2="234.2" xlink:href="#New_Gradient_Swatch_7"/><linearGradient id="New_Gradient_Swatch_7-37" x1="48.77" y1="234.2" x2="49.84" y2="234.2" xlink:href="#New_Gradient_Swatch_7"/><linearGradient id="New_Gradient_Swatch_7-38" x1="50.46" y1="234.2" x2="54.11" y2="234.2" xlink:href="#New_Gradient_Swatch_7"/><linearGradient id="New_Gradient_Swatch_7-39" x1="54.67" y1="234.2" x2="55.74" y2="234.2" xlink:href="#New_Gradient_Swatch_7"/><linearGradient id="New_Gradient_Swatch_7-40" x1="56.29" y1="234.2" x2="60.16" y2="234.2" xlink:href="#New_Gradient_Swatch_7"/><linearGradient id="New_Gradient_Swatch_7-41" x1="60.72" y1="234.2" x2="64.51" y2="234.2" xlink:href="#New_Gradient_Swatch_7"/><linearGradient id="New_Gradient_Swatch_7-42" x1="65.03" y1="234.2" x2="66.1" y2="234.2" xlink:href="#New_Gradient_Swatch_7"/><linearGradient id="New_Gradient_Swatch_7-43" x1="66.72" y1="234.21" x2="71.28" y2="234.21" xlink:href="#New_Gradient_Swatch_7"/><linearGradient id="New_Gradient_Swatch_7-44" x1="71.9" y1="234.2" x2="75.79" y2="234.2" xlink:href="#New_Gradient_Swatch_7"/><linearGradient id="New_Gradient_Swatch_7-45" x1="77.88" y1="234.2" x2="81.33" y2="234.2" xlink:href="#New_Gradient_Swatch_7"/><linearGradient id="New_Gradient_Swatch_7-46" x1="81.79" y1="234.2" x2="85.24" y2="234.2" xlink:href="#New_Gradient_Swatch_7"/><linearGradient id="New_Gradient_Swatch_7-47" x1="85.68" y1="234.2" x2="86.75" y2="234.2" xlink:href="#New_Gradient_Swatch_7"/><linearGradient id="New_Gradient_Swatch_7-48" x1="87.18" y1="234.2" x2="91.19" y2="234.2" xlink:href="#New_Gradient_Swatch_7"/><linearGradient id="New_Gradient_Swatch_7-49" x1="90.98" y1="236.29" x2="92.05" y2="236.29" xlink:href="#New_Gradient_Swatch_7"/><linearGradient id="New_Gradient_Swatch_7-50" x1="93.96" y1="234.2" x2="97.83" y2="234.2" xlink:href="#New_Gradient_Swatch_7"/><linearGradient id="New_Gradient_Swatch_7-51" x1="98.39" y1="234.2" x2="101.83" y2="234.2" xlink:href="#New_Gradient_Swatch_7"/><linearGradient id="New_Gradient_Swatch_7-52" x1="102.29" y1="234.2" x2="106" y2="234.2" xlink:href="#New_Gradient_Swatch_7"/><linearGradient id="New_Gradient_Swatch_7-53" x1="108.16" y1="234.2" x2="111.86" y2="234.2" xlink:href="#New_Gradient_Swatch_7"/><linearGradient id="New_Gradient_Swatch_7-54" x1="112.48" y1="234.2" x2="116.27" y2="234.2" xlink:href="#New_Gradient_Swatch_7"/><linearGradient id="New_Gradient_Swatch_7-55" x1="118.42" y1="234.2" x2="121.86" y2="234.2" xlink:href="#New_Gradient_Swatch_7"/><linearGradient id="New_Gradient_Swatch_7-56" x1="122.33" y1="234.2" x2="123.4" y2="234.2" xlink:href="#New_Gradient_Swatch_7"/><linearGradient id="New_Gradient_Swatch_7-57" x1="124.01" y1="234.2" x2="128.09" y2="234.2" xlink:href="#New_Gradient_Swatch_7"/><linearGradient id="New_Gradient_Swatch_7-58" x1="128.65" y1="234.2" x2="132.52" y2="234.2" xlink:href="#New_Gradient_Swatch_7"/><linearGradient id="New_Gradient_Swatch_7-59" x1="133.08" y1="234.2" x2="138.35" y2="234.2" xlink:href="#New_Gradient_Swatch_7"/><linearGradient id="New_Gradient_Swatch_7-60" x1="138.97" y1="234.2" x2="142.76" y2="234.2" xlink:href="#New_Gradient_Swatch_7"/><linearGradient id="New_Gradient_Swatch_7-61" x1="143.37" y1="234.2" x2="147.08" y2="234.2" xlink:href="#New_Gradient_Swatch_7"/><linearGradient id="New_Gradient_Swatch_7-62" x1="149.05" y1="234.2" x2="153.07" y2="234.2" xlink:href="#New_Gradient_Swatch_7"/><linearGradient id="New_Gradient_Swatch_7-63" x1="153.5" y1="234.2" x2="156.94" y2="234.2" xlink:href="#New_Gradient_Swatch_7"/><linearGradient id="New_Gradient_Swatch_7-64" x1="157.4" y1="234.2" x2="162.68" y2="234.2" xlink:href="#New_Gradient_Swatch_7"/><linearGradient id="New_Gradient_Swatch_7-65" x1="163.3" y1="234.2" x2="166.95" y2="234.2" xlink:href="#New_Gradient_Swatch_7"/><linearGradient id="New_Gradient_Swatch_7-66" x1="167.5" y1="234.2" x2="171.29" y2="234.2" xlink:href="#New_Gradient_Swatch_7"/><linearGradient id="New_Gradient_Swatch_7-67" x1="171.91" y1="234.2" x2="175.66" y2="234.2" xlink:href="#New_Gradient_Swatch_7"/><linearGradient id="New_Gradient_Swatch_7-68" x1="177.72" y1="234.2" x2="178.79" y2="234.2" xlink:href="#New_Gradient_Swatch_7"/><linearGradient id="New_Gradient_Swatch_7-69" x1="179.4" y1="234.21" x2="183.97" y2="234.21" xlink:href="#New_Gradient_Swatch_7"/><linearGradient id="New_Gradient_Swatch_7-70" x1="184.59" y1="234.2" x2="188.38" y2="234.2" xlink:href="#New_Gradient_Swatch_7"/><linearGradient id="New_Gradient_Swatch_7-71" x1="188.9" y1="234.2" x2="189.97" y2="234.2" xlink:href="#New_Gradient_Swatch_7"/><linearGradient id="New_Gradient_Swatch_7-72" x1="190.59" y1="234.2" x2="194.29" y2="234.2" xlink:href="#New_Gradient_Swatch_7"/><linearGradient id="New_Gradient_Swatch_7-73" x1="194.91" y1="234.2" x2="195.98" y2="234.2" xlink:href="#New_Gradient_Swatch_7"/><linearGradient id="New_Gradient_Swatch_7-74" x1="196.6" y1="234.2" x2="200.31" y2="234.2" xlink:href="#New_Gradient_Swatch_7"/><linearGradient id="New_Gradient_Swatch_7-75" x1="200.92" y1="234.2" x2="205" y2="234.2" xlink:href="#New_Gradient_Swatch_7"/><linearGradient id="New_Gradient_Swatch_7-76" x1="205.62" y1="234.21" x2="210.18" y2="234.21" xlink:href="#New_Gradient_Swatch_7"/><linearGradient id="New_Gradient_Swatch_7-77" x1="210.62" y1="234.2" x2="214.63" y2="234.2" xlink:href="#New_Gradient_Swatch_7"/><linearGradient id="New_Gradient_Swatch_7-78" x1="40.11" y1="242.32" x2="43.56" y2="242.32" xlink:href="#New_Gradient_Swatch_7"/><linearGradient id="New_Gradient_Swatch_7-79" x1="43.99" y1="242.32" x2="47.78" y2="242.32" xlink:href="#New_Gradient_Swatch_7"/><linearGradient id="New_Gradient_Swatch_7-80" x1="48.4" y1="242.32" x2="52.15" y2="242.32" xlink:href="#New_Gradient_Swatch_7"/><linearGradient id="New_Gradient_Swatch_7-81" x1="52.67" y1="242.32" x2="56.11" y2="242.32" xlink:href="#New_Gradient_Swatch_7"/><linearGradient id="New_Gradient_Swatch_7-82" x1="56.57" y1="242.32" x2="61.85" y2="242.32" xlink:href="#New_Gradient_Swatch_7"/><linearGradient id="New_Gradient_Swatch_7-83" x1="64" y1="242.32" x2="65.07" y2="242.32" xlink:href="#New_Gradient_Swatch_7"/><linearGradient id="New_Gradient_Swatch_7-84" x1="65.69" y1="242.32" x2="69.34" y2="242.32" xlink:href="#New_Gradient_Swatch_7"/><linearGradient id="New_Gradient_Swatch_7-85" x1="69.84" y1="242.32" x2="73.71" y2="242.32" xlink:href="#New_Gradient_Swatch_7"/><linearGradient id="New_Gradient_Swatch_7-86" x1="74.26" y1="242.32" x2="78.34" y2="242.32" xlink:href="#New_Gradient_Swatch_7"/><linearGradient id="New_Gradient_Swatch_7-87" x1="78.96" y1="242.32" x2="84.23" y2="242.32" xlink:href="#New_Gradient_Swatch_7"/><linearGradient id="New_Gradient_Swatch_7-88" x1="86.39" y1="242.32" x2="90.1" y2="242.32" xlink:href="#New_Gradient_Swatch_7"/><linearGradient id="New_Gradient_Swatch_7-89" x1="90.72" y1="242.32" x2="94.5" y2="242.32" xlink:href="#New_Gradient_Swatch_7"/><linearGradient id="New_Gradient_Swatch_7-90" x1="95.12" y1="242.32" x2="98.57" y2="242.32" xlink:href="#New_Gradient_Swatch_7"/><linearGradient id="New_Gradient_Swatch_7-91" x1="99.01" y1="242.32" x2="102.79" y2="242.32" xlink:href="#New_Gradient_Swatch_7"/><linearGradient id="New_Gradient_Swatch_7-92" x1="103.41" y1="242.32" x2="107.17" y2="242.32" xlink:href="#New_Gradient_Swatch_7"/><linearGradient id="New_Gradient_Swatch_7-93" x1="109.16" y1="242.32" x2="113.03" y2="242.32" xlink:href="#New_Gradient_Swatch_7"/><linearGradient id="New_Gradient_Swatch_7-94" x1="113.59" y1="242.32" x2="114.66" y2="242.32" xlink:href="#New_Gradient_Swatch_7"/><linearGradient id="New_Gradient_Swatch_7-95" x1="115.09" y1="242.32" x2="119.1" y2="242.32" xlink:href="#New_Gradient_Swatch_7"/><linearGradient id="New_Gradient_Swatch_7-96" x1="120.77" y1="242.32" x2="125.11" y2="242.32" xlink:href="#New_Gradient_Swatch_7"/><linearGradient id="New_Gradient_Swatch_7-97" x1="125.42" y1="242.32" x2="130.69" y2="242.32" xlink:href="#New_Gradient_Swatch_7"/><linearGradient id="New_Gradient_Swatch_7-98" x1="131.31" y1="242.32" x2="134.75" y2="242.32" xlink:href="#New_Gradient_Swatch_7"/><linearGradient id="New_Gradient_Swatch_7-99" x1="135.03" y1="242.32" x2="139.04" y2="242.32" xlink:href="#New_Gradient_Swatch_7"/><linearGradient id="New_Gradient_Swatch_7-100" x1="59.99" y1="203.56" x2="69.58" y2="203.56" xlink:href="#New_Gradient_Swatch_7"/><linearGradient id="New_Gradient_Swatch_7-101" x1="70.78" y1="203.56" x2="81.3" y2="203.56" xlink:href="#New_Gradient_Swatch_7"/><linearGradient id="New_Gradient_Swatch_7-102" x1="83.01" y1="203.56" x2="93.44" y2="203.56" xlink:href="#New_Gradient_Swatch_7"/><linearGradient id="New_Gradient_Swatch_7-103" x1="94.86" y1="203.56" x2="104.42" y2="203.56" xlink:href="#New_Gradient_Swatch_7"/><linearGradient id="New_Gradient_Swatch_7-104" x1="105.7" y1="203.56" x2="114.54" y2="203.56" xlink:href="#New_Gradient_Swatch_7"/><linearGradient id="New_Gradient_Swatch_7-105" x1="113.45" y1="203.56" x2="120.36" y2="203.56" xlink:href="#New_Gradient_Swatch_7"/><linearGradient id="New_Gradient_Swatch_7-106" x1="126.35" y1="203.56" x2="129.32" y2="203.56" xlink:href="#New_Gradient_Swatch_7"/><linearGradient id="New_Gradient_Swatch_7-107" x1="131.03" y1="203.56" x2="141.17" y2="203.56" xlink:href="#New_Gradient_Swatch_7"/><linearGradient id="New_Gradient_Swatch_7-108" x1="142.54" y1="203.56" x2="153.3" y2="203.56" xlink:href="#New_Gradient_Swatch_7"/><linearGradient id="New_Gradient_Swatch_7-109" x1="154.84" y1="203.56" x2="166.16" y2="203.56" xlink:href="#New_Gradient_Swatch_7"/><linearGradient id="New_Gradient_Swatch_7-110" x1="175.62" y1="203.56" x2="182.53" y2="203.56" xlink:href="#New_Gradient_Swatch_7"/><linearGradient id="New_Gradient_Swatch_7-111" x1="167.87" y1="203.56" x2="176.71" y2="203.56" xlink:href="#New_Gradient_Swatch_7"/><linearGradient id="New_Gradient_Swatch_7-112" x1="31.23" y1="103.97" x2="51.15" y2="103.97" xlink:href="#New_Gradient_Swatch_7"/><linearGradient id="New_Gradient_Swatch_7-113" x1="66.75" y1="83.96" x2="86.68" y2="83.96" xlink:href="#New_Gradient_Swatch_7"/><linearGradient id="New_Gradient_Swatch_7-114" x1="102.27" y1="115.61" x2="122.2" y2="115.61" xlink:href="#New_Gradient_Swatch_7"/><linearGradient id="New_Gradient_Swatch_7-115" x1="172.86" y1="115.61" x2="192.79" y2="115.61" xlink:href="#New_Gradient_Swatch_7"/><linearGradient id="New_Gradient_Swatch_7-116" x1="137.79" y1="94.56" x2="157.72" y2="94.56" xlink:href="#New_Gradient_Swatch_7"/><linearGradient id="New_Gradient_Swatch_7-117" x1="25.1" y1="144.27" x2="208.83" y2="144.27" xlink:href="#New_Gradient_Swatch_7"/><linearGradient id="New_Gradient_Swatch_7-118" x1="0" y1="127.99" x2="427.6" y2="127.99" xlink:href="#New_Gradient_Swatch_7"/><linearGradient id="New_Gradient_Swatch_7-119" x1="0.48" y1="159.16" x2="112.01" y2="159.16" xlink:href="#New_Gradient_Swatch_7"/><linearGradient id="New_Gradient_Swatch_7-120" x1="291.55" y1="106.83" x2="308.53" y2="106.83" xlink:href="#New_Gradient_Swatch_7"/><linearGradient id="New_Gradient_Swatch_7-121" x1="440.23" y1="69.66" x2="478.89" y2="69.66" xlink:href="#New_Gradient_Swatch_7"/><linearGradient id="New_Gradient_Swatch_7-122" x1="426.59" y1="69.66" x2="492.53" y2="69.66" xlink:href="#New_Gradient_Swatch_7"/><linearGradient id="New_Gradient_Swatch_7-123" x1="361.74" y1="104.47" x2="394.52" y2="104.47" xlink:href="#New_Gradient_Swatch_7"/><linearGradient id="New_Gradient_Swatch_7-124" x1="341.08" y1="100.95" x2="373.87" y2="100.95" xlink:href="#New_Gradient_Swatch_7"/><linearGradient id="New_Gradient_Swatch_7-125" x1="202.4" y1="138.98" x2="208.83" y2="138.98" xlink:href="#New_Gradient_Swatch_7"/><linearGradient id="New_Gradient_Swatch_7-126" x1="131.46" y1="151.04" x2="208.83" y2="151.04" xlink:href="#New_Gradient_Swatch_7"/><linearGradient id="New_Gradient_Swatch_7-127" x1="231.2" y1="240.52" x2="235.8" y2="240.52" xlink:href="#New_Gradient_Swatch_7"/><linearGradient id="New_Gradient_Swatch_7-128" x1="207.75" y1="257.38" x2="229.16" y2="257.38" xlink:href="#New_Gradient_Swatch_7"/><linearGradient id="New_Gradient_Swatch_7-129" x1="7.34" y1="240.94" x2="11.94" y2="240.94" xlink:href="#New_Gradient_Swatch_7"/><linearGradient id="New_Gradient_Swatch_7-130" x1="16.28" y1="257.08" x2="37.69" y2="257.08" xlink:href="#New_Gradient_Swatch_7"/><linearGradient id="New_Gradient_Swatch_7-131" x1="7.34" y1="205.14" x2="11.94" y2="205.14" xlink:href="#New_Gradient_Swatch_7"/><linearGradient id="New_Gradient_Swatch_7-132" x1="13.98" y1="188.28" x2="35.39" y2="188.28" xlink:href="#New_Gradient_Swatch_7"/><linearGradient id="New_Gradient_Swatch_7-133" x1="231.2" y1="204.72" x2="235.8" y2="204.72" xlink:href="#New_Gradient_Swatch_7"/><linearGradient id="New_Gradient_Swatch_7-134" x1="205.45" y1="188.58" x2="226.86" y2="188.58" xlink:href="#New_Gradient_Swatch_7"/><linearGradient id="New_Gradient_Swatch_7-135" x1="93.83" y1="189.36" x2="147.76" y2="189.36" xlink:href="#New_Gradient_Swatch_7"/><linearGradient id="New_Gradient_Swatch_7-136" x1="93.83" y1="254.78" x2="147.76" y2="254.78" xlink:href="#New_Gradient_Swatch_7"/><linearGradient id="New_Gradient_Swatch_7-137" x1="12.45" y1="86.12" x2="41.32" y2="86.12" xlink:href="#New_Gradient_Swatch_7"/><linearGradient id="New_Gradient_Swatch_7-138" x1="46.11" y1="16.59" x2="78.36" y2="16.59" xlink:href="#New_Gradient_Swatch_7"/><linearGradient id="New_Gradient_Swatch_7-139" x1="81.35" y1="26.65" x2="111.37" y2="26.65" xlink:href="#New_Gradient_Swatch_7"/><linearGradient id="New_Gradient_Swatch_7-140" x1="113.23" y1="35.54" x2="147.97" y2="35.54" xlink:href="#New_Gradient_Swatch_7"/><linearGradient id="New_Gradient_Swatch_7-141" x1="150.59" y1="52.64" x2="182.22" y2="52.64" xlink:href="#New_Gradient_Swatch_7"/></defs><title>title_01_purple</title><g id="Layer_2" data-name="Layer 2"><g id="Layer_1-2" data-name="Layer 1"><path class="cls-1" d="M40.11,229v-4.44h1.07V229Zm1.38,0v-1h2.07v1Z"/><path class="cls-2" d="M44.36,224.59h1.37v1h-.67v2.48h.67v1H44.36l-.37-.46V225Zm1.68,1v-1h1.37l.37.44v3.55l-.37.45H46v-1h.76v-2.48Z"/><path class="cls-3" d="M48.4,229v-4.44h1.07V229Zm1.38-3.46v-1h1.9l.37.44v1.79l-.31.38.41,1.83H51.09l-.37-1.51h-.94v-1H51v-1Z"/><path class="cls-4" d="M52.67,229v-4.44h1.07V229ZM54,225.57v-1h2.07v1Zm0,1.7v-1h1.58v1ZM54,229v-1h2.07v1Z"/><path class="cls-5" d="M59.75,228.15l-.15.36h-.79l-1.17-2.94H56.57v-1h1.8Zm-2.11-1.72V229H56.57v-3.15h.79Zm1.72-.08.69-1.76h1.8V229H60.77v-3.46l-.86,2.19Z"/><path class="cls-6" d="M64,229v-4.44h1.07V229Z"/><path class="cls-7" d="M65.69,229v-4.44h1.07V229Zm1.38-3.46v-1H69l.37.44v2l-.37.46h-1.9v-1h1.2v-1Z"/><path class="cls-8" d="M70.21,224.59h1.36v1h-.66v.59l2.55.25.25.4v1.77l-.37.45H71.88v-1h.76v-.68l-2.46-.23-.34-.43V225Zm.7,3.46h.66v1H70.21l-.37-.44v-1h1.07Zm1-2.48v-1h1.47l.37.44v1H72.64v-.43Z"/><path class="cls-9" d="M76.09,228.05v1H74.63l-.37-.46v-4h1.08v3.46ZM78,229H76.4v-1h.87v-3.46h1.07v4Z"/><path class="cls-10" d="M82.14,228.15l-.15.36H81.2L80,225.57H79v-1h1.8ZM80,226.43V229H79v-3.15h.79Zm1.72-.08.69-1.76h1.79V229H83.16v-3.46l-.87,2.19Z"/><path class="cls-11" d="M87.46,224.59V229H86.39v-4.44Zm.31,1v-1h2l.37.44v3.55l-.37.45h-2v-1H89v-2.48Z"/><path class="cls-12" d="M91.08,224.59h1.37v1h-.66v2.48h.66v1H91.08l-.36-.46V225Zm1.68,1v-1h1.37l.37.44v3.55l-.37.45H92.76v-1h.76v-2.48Z"/><path class="cls-13" d="M95.12,229v-4.44h1.07V229Zm1.38,0v-1h2.07v1Z"/><path class="cls-14" d="M99.38,224.59h1.36v1h-.66v2.48h.66v1H99.38l-.37-.46V225Zm1.67,1v-1h1.37l.37.44v3.55l-.37.45h-1.37v-1h.76v-2.48Z"/><path class="cls-15" d="M103.41,229v-4.44h1.07V229Zm1.38-3.46v-1h1.9l.37.44v1.79l-.31.38.42,1.83H106.1l-.36-1.51h-.95v-1H106v-1Z"/><path class="cls-16" d="M109.53,224.59h1.36v1h-.66v.59l2.55.25.25.4v1.77l-.37.45H111.2v-1H112v-.68l-2.46-.23-.34-.43V225Zm.7,3.46h.66v1h-1.36l-.37-.44v-1h1.07Zm1-2.48v-1h1.47l.37.44v1H112v-.43Z"/><path class="cls-17" d="M113.59,229v-4.44h1.07V229Z"/><path class="cls-18" d="M115.09,224.59h4v1h-4Zm1.48,4.44v-3.15h1.07V229Z"/><path class="cls-19" d="M121.79,229h-1l1.1-3.15h.76l.14.36Zm1.14-2.16h.4l-.46-1.3H122l.34-1h1.23l1.56,4.44h-1l-.42-1.18h-1.09Z"/><path class="cls-20" d="M128.6,228.15l-.15.36h-.79l-1.17-2.94h-1.07v-1h1.79Zm-2.11-1.72V229h-1.07v-3.15h.79Zm1.72-.08.68-1.76h1.8V229h-1.07v-3.46l-.87,2.19Z"/><path class="cls-21" d="M131.31,229v-4.44h1.07V229Zm1.38-3.46v-1h2.06v1Zm0,1.7v-1h1.58v1Zm0,1.76v-1h2.06v1Z"/><path class="cls-22" d="M135,224.59h4v1h-4Zm1.48,4.44v-3.15h1.07V229Z"/><path class="cls-23" d="M139.36,229.75h0V229h-.51v-1h1.07v1Z"/><path class="cls-24" d="M142.24,224.59h1.37v1h-.67v2.48h.67v1h-1.37l-.37-.46V225Zm1.68,1v-1h1.37l.37.44v1.2h-1v-.66Zm0,3.46v-1h.76v-.65h1v1.18l-.37.45Z"/><path class="cls-25" d="M146.55,224.59h1.37v1h-.66v2.48h.66v1h-1.37l-.36-.46V225Zm1.68,1v-1h1.37l.37.44v3.55l-.37.45h-1.37v-1H149v-2.48Z"/><path class="cls-26" d="M153.47,229.05l-1.81-3.48h-1.07v-1h1.74l1.76,3.46h1.07v1Zm-1.81-2.63V229h-1.07v-3.15h.79Zm2.43.82v-2.65h1.07v3.15h-.8Z"/><path class="cls-27" d="M156.08,224.59h1.36v1h-.66v.59l2.55.25.26.4v1.77l-.37.45h-1.46v-1h.75v-.68l-2.45-.23-.35-.43V225Zm.7,3.46h.66v1h-1.36l-.37-.44v-1h1.07Zm1-2.48v-1h1.47l.37.44v1h-1.08v-.43Z"/><path class="cls-28" d="M160.14,229v-4.44h1.07V229Zm1.38-3.46v-1h2.06v1Zm0,1.7v-1h1.58v1Zm0,1.76v-1h2.06v1Z"/><path class="cls-29" d="M164.42,224.59h1.36v1h-.66v2.48h.66v1h-1.36l-.37-.46V225Zm1.67,1v-1h1.37l.37.44v1.2h-1v-.66Zm0,3.46v-1h.76v-.65h1v1.18l-.37.45Z"/><path class="cls-30" d="M168.17,224.59h4v1h-4Zm1.48,4.44v-3.15h1.07V229Z"/><path class="cls-31" d="M172.62,229v-4.44h1.07V229Zm1.38-3.46v-1h2.06v1Zm0,1.7v-1h1.58v1Zm0,1.76v-1h2.06v1Z"/><path class="cls-32" d="M176.34,224.59h4v1h-4Zm1.48,4.44v-3.15h1.07V229Z"/><path class="cls-33" d="M182.62,228.05v1h-1.46l-.37-.46v-4h1.07v3.46Zm1.87,1h-1.57v-1h.87v-3.46h1.07v4Z"/><path class="cls-34" d="M185.48,229v-4.44h1.07V229Zm1.38-3.46v-1h1.9l.37.44v1.79l-.31.38.42,1.83h-1.07l-.36-1.51h-.95v-1h1.2v-1Z"/><path class="cls-35" d="M40.82,236.42h-1l1.1-3.15h.76l.14.36ZM42,234.26h.4L41.9,233H41l.35-1h1.22l1.56,4.44h-1l-.42-1.18H41.62Z"/><path class="cls-36" d="M45.52,232v4.44H44.45V232Zm.31,1v-1h2l.37.44V236l-.37.45h-2v-1h1.25V233Z"/><path class="cls-37" d="M48.77,236.42V232h1.07v4.44Z"/><path class="cls-38" d="M50.46,236.42V232h1.07v4.44ZM51.84,233v-1h1.9l.37.44v2l-.37.46h-1.9v-1H53v-1Z"/><path class="cls-39" d="M54.67,236.42V232h1.07v4.44Z"/><path class="cls-40" d="M56.66,232H58v1h-.66v.59l2.55.25.25.4V236l-.37.45H58.33v-1h.76v-.68l-2.45-.23-.35-.43v-1.67Zm.7,3.46H58v1H56.66l-.37-.44v-1h1.07Zm1-2.48v-1h1.46l.37.44v1H59.09V233Z"/><path class="cls-41" d="M61.09,232h1.37v1h-.67v2.48h.67v1H61.09l-.37-.46v-3.53Zm1.67,1v-1h1.38l.37.44v1.2h-1V233Zm0,3.46v-1h.77v-.65h1V236l-.37.45Z"/><path class="cls-42" d="M65,236.42V232H66.1v4.44Z"/><path class="cls-43" d="M69.6,236.44,67.79,233H66.72v-1h1.73l1.76,3.46h1.07v1Zm-1.81-2.63v2.61H66.72v-3.15h.79Zm2.42.82V232h1.07v3.15h-.79Z"/><path class="cls-44" d="M73,235.44h.71v1H72.27L71.9,236v-3.53l.37-.45h1.41v1H73Zm2.82.53-.37.45H74v-1h.79v-.73h-.86v-1h1.87ZM74,233v-1h1.43l.37.44v1h-1V233Z"/><path class="cls-45" d="M77.88,236.42V232H79v4.44ZM79.26,233v-1h2.07v1Zm0,1.7v-1h1.58v1Zm0,1.76v-1h2.07v1Z"/><path class="cls-46" d="M81.79,236.42V232h1.07v4.44Zm1.38,0v-1h2.07v1Z"/><path class="cls-47" d="M85.68,236.42V232h1.07v4.44Z"/><path class="cls-48" d="M87.18,232h4v1h-4Zm1.48,4.44v-3.15h1.07v3.15Z"/><path class="cls-49" d="M91.51,237.14h0v-.72H91v-1h1.07v1Z"/><path class="cls-50" d="M94.33,232h1.36v1H95v.59l2.55.25.25.4V236l-.37.45H96v-1h.76v-.68l-2.46-.23L94,234.1v-1.67Zm.7,3.46h.66v1H94.33L94,236v-1H95ZM96,233v-1h1.46l.37.44v1H96.76V233Z"/><path class="cls-51" d="M98.39,236.42V232h1.07v4.44ZM99.77,233v-1h2.06v1Zm0,1.7v-1h1.57v1Zm0,1.76v-1h2.06v1Z"/><path class="cls-52" d="M103.36,232v4.44h-1.07V232Zm.31,1v-1h2l.37.44V236l-.37.45h-2v-1h1.26V233Z"/><path class="cls-53" d="M109.23,232v4.44h-1.07V232Zm.31,1v-1h1.95l.37.44V236l-.37.45h-1.95v-1h1.25V233Z"/><path class="cls-54" d="M112.85,232h1.37v1h-.67v2.48h.67v1h-1.37l-.37-.46v-3.53Zm1.67,1v-1h1.38l.37.44V236l-.37.45h-1.38v-1h.77V233Z"/><path class="cls-55" d="M118.42,236.42V232h1.07v4.44ZM119.8,233v-1h2.06v1Zm0,1.7v-1h1.58v1Zm0,1.76v-1h2.06v1Z"/><path class="cls-56" d="M122.33,236.42V232h1.07v4.44Z"/><path class="cls-57" d="M125.84,235.44v1h-1.46L124,236v-4h1.08v3.46Zm1.88,1h-1.57v-1H127V232h1.07v4Z"/><path class="cls-58" d="M129,232h1.36v1h-.66v.59l2.55.25.25.4V236l-.37.45h-1.46v-1h.76v-.68l-2.46-.23-.34-.43v-1.67Zm.7,3.46h.66v1H129l-.37-.44v-1h1.07Zm1-2.48v-1h1.47l.37.44v1h-1.07V233Z"/><path class="cls-59" d="M136.26,235.54l-.15.36h-.79L134.15,233h-1.07v-1h1.79Zm-2.11-1.72v2.6h-1.07v-3.15h.79Zm1.71-.08.69-1.76h1.8v4.44h-1.07V233l-.87,2.19Z"/><path class="cls-60" d="M139.34,232h1.37v1H140v2.48h.67v1h-1.37L139,236v-3.53Zm1.67,1v-1h1.38l.37.44V236l-.37.45H141v-1h.77V233Z"/><path class="cls-61" d="M144.44,232v4.44h-1.07V232Zm.31,1v-1h2l.37.44V236l-.37.45h-2v-1H146V233Z"/><path class="cls-62" d="M149.05,232h4v1h-4Zm1.48,4.44v-3.15h1.07v3.15Z"/><path class="cls-63" d="M153.5,236.42V232h1.07v4.44Zm1.38-3.46v-1h2.06v1Zm0,1.7v-1h1.57v1Zm0,1.76v-1h2.06v1Z"/><path class="cls-64" d="M160.59,235.54l-.15.36h-.8L158.47,233H157.4v-1h1.8Zm-2.12-1.72v2.6H157.4v-3.15h.8Zm1.72-.08.69-1.76h1.8v4.44h-1.07V233l-.87,2.19Z"/><path class="cls-65" d="M163.3,236.42V232h1.07v4.44Zm1.38-3.46v-1h1.9l.37.44v2l-.37.46h-1.9v-1h1.2v-1Z"/><path class="cls-66" d="M167.87,232h1.37v1h-.66v2.48h.66v1h-1.37l-.37-.46v-3.53Zm1.68,1v-1h1.37l.37.44V236l-.37.45h-1.37v-1h.76V233Z"/><path class="cls-67" d="M171.91,236.42V232H173v4.44Zm1.38-3.46v-1h1.9l.37.44v1.79l-.31.38.41,1.83H174.6l-.36-1.51h-1v-1h1.2v-1Z"/><path class="cls-68" d="M177.72,236.42V232h1.07v4.44Z"/><path class="cls-69" d="M182.29,236.44,180.47,233H179.4v-1h1.74l1.76,3.46H184v1Zm-1.82-2.63v2.61H179.4v-3.15h.79Zm2.43.82V232H184v3.15h-.8Z"/><path class="cls-70" d="M185,232h1.37v1h-.67v2.48h.67v1H185l-.37-.46v-3.53Zm1.67,1v-1H188l.37.44v1.2h-1V233Zm0,3.46v-1h.77v-.65h1V236l-.37.45Z"/><path class="cls-71" d="M188.9,236.42V232H190v4.44Z"/><path class="cls-72" d="M191.66,232v4.44h-1.07V232Zm.31,1v-1h1.95l.37.44V236l-.37.45H192v-1h1.25V233Z"/><path class="cls-73" d="M194.91,236.42V232H196v4.44Z"/><path class="cls-74" d="M197.67,232v4.44H196.6V232Zm.31,1v-1h2l.37.44V236l-.37.45h-2v-1h1.25V233Z"/><path class="cls-75" d="M202.75,235.44v1h-1.46l-.37-.46v-4H202v3.46Zm1.88,1h-1.57v-1h.87V232H205v4Z"/><path class="cls-76" d="M208.5,236.44,206.69,233h-1.07v-1h1.73l1.76,3.46h1.07v1Zm-1.81-2.63v2.61h-1.07v-3.15h.78Zm2.42.82V232h1.07v3.15h-.8Z"/><path class="cls-77" d="M210.62,232h4v1h-4Zm1.48,4.44v-3.15h1.07v3.15Z"/><path class="cls-78" d="M40.11,244.55V240.1h1.07v4.45Zm1.38,0v-1h2.07v1Z"/><path class="cls-79" d="M44.36,240.1h1.37v1h-.67v2.47h.67v1H44.36l-.37-.47v-3.53Zm1.68,1v-1h1.37l.37.44v3.55l-.37.46H46v-1h.76v-2.47Z"/><path class="cls-80" d="M48.4,244.55V240.1h1.07v4.45Zm1.38-3.46v-1h1.9l.37.44v1.79l-.31.38.41,1.84H51.09L50.72,243h-.94v-1H51v-1Z"/><path class="cls-81" d="M52.67,244.55V240.1h1.07v4.45ZM54,241.09v-1h2.07v1Zm0,1.69v-1h1.58v1Zm0,1.77v-1h2.07v1Z"/><path class="cls-82" d="M59.75,243.66l-.15.36h-.79l-1.17-2.93H56.57v-1h1.8Zm-2.11-1.72v2.61H56.57v-3.16h.79Zm1.72-.08.69-1.76h1.8v4.45H60.77v-3.46l-.86,2.18Z"/><path class="cls-83" d="M64,244.55V240.1h1.07v4.45Z"/><path class="cls-84" d="M65.69,244.55V240.1h1.07v4.45Zm1.38-3.46v-1H69l.37.44v2L69,243h-1.9v-1h1.2v-1Z"/><path class="cls-85" d="M70.21,240.1h1.36v1h-.66v.58l2.55.25.25.4v1.78l-.37.45H71.88v-1h.76v-.68l-2.46-.23-.34-.43v-1.67Zm.7,3.46h.66v1H70.21l-.37-.45v-1h1.07Zm1-2.47v-1h1.47l.37.44v1H72.64v-.42Z"/><path class="cls-86" d="M76.09,243.56v1H74.63l-.37-.47v-4h1.08v3.46Zm1.88,1H76.4v-1h.87V240.1h1.07v4Z"/><path class="cls-87" d="M82.14,243.66,82,244H81.2L80,241.09H79v-1h1.8ZM80,241.94v2.61H79v-3.16h.79Zm1.72-.08.69-1.76h1.79v4.45H83.16v-3.46l-.87,2.18Z"/><path class="cls-88" d="M87.46,240.1v4.45H86.39V240.1Zm.31,1v-1h2l.37.44v3.55l-.37.46h-2v-1H89v-2.47Z"/><path class="cls-89" d="M91.08,240.1h1.37v1h-.66v2.47h.66v1H91.08l-.36-.47v-3.53Zm1.68,1v-1h1.37l.37.44v3.55l-.37.46H92.76v-1h.76v-2.47Z"/><path class="cls-90" d="M95.12,244.55V240.1h1.07v4.45Zm1.38,0v-1h2.07v1Z"/><path class="cls-91" d="M99.38,240.1h1.36v1h-.66v2.47h.66v1H99.38l-.37-.47v-3.53Zm1.67,1v-1h1.37l.37.44v3.55l-.37.46h-1.37v-1h.76v-2.47Z"/><path class="cls-92" d="M103.41,244.55V240.1h1.07v4.45Zm1.38-3.46v-1h1.9l.37.44v1.79l-.31.38.42,1.84H106.1l-.36-1.52h-.95v-1H106v-1Z"/><path class="cls-93" d="M109.53,240.1h1.36v1h-.66v.58l2.55.25.25.4v1.78l-.37.45H111.2v-1H112v-.68l-2.46-.23-.34-.43v-1.67Zm.7,3.46h.66v1h-1.36l-.37-.45v-1h1.07Zm1-2.47v-1h1.47l.37.44v1H112v-.42Z"/><path class="cls-94" d="M113.59,244.55V240.1h1.07v4.45Z"/><path class="cls-95" d="M115.09,240.1h4v1h-4Zm1.48,4.45v-3.16h1.07v3.16Z"/><path class="cls-96" d="M121.79,244.55h-1l1.1-3.16h.76l.14.36Zm1.14-2.17h.4l-.46-1.29H122l.34-1h1.23l1.56,4.45h-1l-.42-1.19h-1.09Z"/><path class="cls-97" d="M128.6,243.66l-.15.36h-.79l-1.17-2.93h-1.07v-1h1.79Zm-2.11-1.72v2.61h-1.07v-3.16h.79Zm1.72-.08.68-1.76h1.8v4.45h-1.07v-3.46l-.87,2.18Z"/><path class="cls-98" d="M131.31,244.55V240.1h1.07v4.45Zm1.38-3.46v-1h2.06v1Zm0,1.69v-1h1.58v1Zm0,1.77v-1h2.06v1Z"/><path class="cls-99" d="M135,240.1h4v1h-4Zm1.48,4.45v-3.16h1.07v3.16Z"/><polygon class="cls-100" points="62.96 197.39 59.99 197.39 59.99 209.74 62.33 209.74 62.96 209.74 69.58 209.74 69.58 207 62.96 207 62.96 197.39"/><path class="cls-101" d="M77.32,197.39H71.8l-1,1.25v9.82l1,1.28h8.47l1-1.27v-9.85l-1-1.23ZM78.58,207H73.75v-6.87h4.83Z"/><path class="cls-102" d="M93.15,203.58v-5l-1-1.23H83v12.35h3v-4.21h3.49l1,4.21h3l-1.15-5.1Zm-3-.79H86v-2.66h4.19Z"/><polygon class="cls-103" points="98.69 197.39 94.86 197.39 94.86 209.74 98.69 209.74 99.16 209.74 104.42 209.74 104.42 207 99.16 207 99.16 204.85 103.07 204.85 103.07 202.11 99.16 202.11 99.16 200.13 104.42 200.13 104.42 197.39 99.16 197.39 98.69 197.39"/><polygon class="cls-104" points="105.7 197.39 105.7 199.49 105.7 200.13 105.7 209.74 108.68 209.74 108.68 200.13 111.93 208.28 114.13 208.28 114.55 207.28 110.7 197.39 105.7 197.39"/><polygon class="cls-105" points="113.45 202.28 114.97 206.2 117.38 200.13 117.38 209.74 120.36 209.74 120.36 197.39 115.37 197.39 113.45 202.28"/><rect class="cls-106" x="126.35" y="197.39" width="2.98" height="12.35"/><path class="cls-107" d="M134,197.39h-3v12.35h3v-4.21h6.14l1-1.27v-5.64l-1-1.23Zm4.19,5.4H134v-2.66h4.19Z"/><polygon class="cls-108" points="148.43 197.39 148.2 197.39 143.57 197.39 142.54 198.64 142.54 203.29 143.5 204.47 150.32 205.12 150.32 207 148.8 207 148.22 207 145.52 207 145.52 205.75 142.54 205.75 142.54 208.51 143.57 209.74 148.22 209.74 148.8 209.74 152.27 209.74 153.3 208.49 153.3 203.56 152.6 202.45 145.52 201.75 145.52 200.13 148.2 200.13 148.43 200.13 150.32 200.13 150.32 201.31 153.3 201.31 153.3 198.62 152.27 197.39 148.43 197.39"/><polygon class="cls-109" points="163.18 207 161.36 207 160.77 207 157.81 207 157.81 197.39 154.84 197.39 154.84 208.46 155.86 209.74 160.77 209.74 161.36 209.74 165.13 209.74 166.16 208.47 166.16 197.39 163.18 197.39 163.18 207"/><polygon class="cls-110" points="177.53 197.39 175.62 202.28 177.14 206.2 179.55 200.13 179.55 209.74 182.53 209.74 182.53 197.39 177.53 197.39"/><polygon class="cls-111" points="167.87 197.39 167.87 199.55 167.87 200.13 167.87 209.74 170.85 209.74 170.85 200.13 174.1 208.28 176.3 208.28 176.71 207.28 172.86 197.39 167.87 197.39"/><rect class="cls-112" x="31.23" y="70.99" width="19.93" height="65.96"/><rect class="cls-113" x="66.75" y="30.97" width="19.93" height="105.99"/><rect class="cls-114" x="102.27" y="94.27" width="19.93" height="42.69"/><rect class="cls-115" x="172.86" y="94.27" width="19.93" height="42.69"/><rect class="cls-116" x="137.79" y="52.17" width="19.93" height="84.79"/><rect class="cls-117" x="25.1" y="141.7" width="183.73" height="5.14"/><polygon class="cls-118" points="226.55 176.98 14.08 176.98 0 162.9 0 141.11 19.17 141.11 19.17 142.29 1.19 142.29 1.19 162.4 14.57 175.79 226.06 175.79 299.93 101.92 403.84 101.92 426.76 79 427.6 79.84 404.33 103.11 300.42 103.11 226.55 176.98"/><path class="cls-119" d="M5.83,141.7v17.86l11.9,11.9h89.12s5,5.32,5.16,5.15-97.68,0-97.68,0L.48,162.76V141.7Z"/><polygon class="cls-120" points="291.55 111.14 299.93 111.14 308.54 102.53 300.17 102.53 291.55 111.14"/><rect class="cls-121" x="440.23" y="68.28" width="38.66" height="2.77"/><path class="cls-122" d="M492.53,75.09H426.59V64.22h65.94Zm-64.75-1.18h63.56v-8.5H427.78Z"/><path class="cls-123" d="M361.74,102.81l3.41,3.41H391s3.58-3.38,3.48-3.48S361.74,102.81,361.74,102.81Z"/><path class="cls-124" d="M373.87,102.6l-3.41-3.41H344.57s-3.58,3.39-3.48,3.49S373.87,102.6,373.87,102.6Z"/><rect class="cls-125" x="202.4" y="134.88" width="6.42" height="8.2"/><polygon class="cls-126" points="208.83 149.66 206.06 152.42 134.1 152.42 131.46 149.78 208.83 149.66"/><polygon class="cls-127" points="234.5 251.23 234.5 239.78 235.8 238.48 235.8 229.82 234.41 231.21 234.41 233.11 233.13 234.38 233.13 237.14 231.2 239.07 231.2 246.08 234.5 251.23"/><polygon class="cls-128" points="229.16 258.38 217.71 258.38 216.41 259.68 207.75 259.68 209.14 258.29 211.04 258.29 212.31 257.01 215.07 257.01 217 255.08 224.01 255.08 229.16 258.38"/><polygon class="cls-129" points="8.64 251.64 8.64 240.2 7.34 238.9 7.34 230.23 8.73 231.63 8.73 233.52 10.01 234.8 10.01 237.56 11.94 239.49 11.94 246.5 8.64 251.64"/><polygon class="cls-130" points="16.28 258.08 27.73 258.08 29.03 259.38 37.69 259.38 36.3 257.99 34.4 257.99 33.13 256.71 30.37 256.71 28.44 254.78 21.43 254.78 16.28 258.08"/><polygon class="cls-131" points="8.64 194.43 8.64 205.88 7.34 207.18 7.34 215.84 8.73 214.45 8.73 212.55 10.01 211.28 10.01 208.52 11.94 206.58 11.94 199.58 8.64 194.43"/><polygon class="cls-132" points="13.98 187.28 25.43 187.28 26.73 185.98 35.39 185.98 34 187.37 32.1 187.37 30.83 188.65 28.07 188.65 26.14 190.58 19.13 190.58 13.98 187.28"/><polygon class="cls-133" points="234.5 194.01 234.5 205.46 235.8 206.76 235.8 215.42 234.41 214.03 234.41 212.13 233.13 210.86 233.13 208.1 231.2 206.17 231.2 199.16 234.5 194.01"/><polygon class="cls-134" points="226.85 187.58 215.41 187.58 214.11 186.28 205.45 186.28 206.84 187.67 208.74 187.67 210.01 188.95 212.77 188.95 214.7 190.88 221.71 190.88 226.85 187.58"/><rect class="cls-135" x="93.83" y="189.08" width="53.93" height="0.56"/><rect class="cls-136" x="93.83" y="254.5" width="53.93" height="0.56"/><polygon class="cls-137" points="13.78 134.16 12.45 134.16 12.45 66.96 41.32 38.08 41.32 53.63 39.99 53.63 39.99 41.29 13.78 67.51 13.78 134.16"/><polygon class="cls-138" points="47.05 33.18 46.11 32.25 78.36 0 78.36 18 77.03 18 77.03 3.21 47.05 33.18"/><polygon class="cls-139" points="111.37 52.17 110.04 52.17 110.04 30.76 81.35 2.07 82.29 1.13 111.37 30.21 111.37 52.17"/><polygon class="cls-140" points="147.97 41.34 146.64 41.34 146.64 31.05 113.23 31.05 113.23 29.73 147.97 29.73 147.97 41.34"/><polygon class="cls-141" points="182.22 76.03 180.89 76.03 180.89 60.5 150.59 30.2 151.53 29.26 182.22 59.95 182.22 76.03"/></g></g></svg>