<svg xmlns="http://www.w3.org/2000/svg" viewBox="0 0 495.04 153.75"><defs><style>.cls-1{fill:#11e5b3;}.cls-2{opacity:0.22;}</style></defs><title>title_02_green</title><g id="Layer_2" data-name="Layer 2"><g id="Layer_1-2" data-name="Layer 1"><polygon class="cls-1" points="380.98 73.24 380.35 72.61 386.92 66.04 386.92 15.56 376.15 4.8 217.19 4.8 210.14 11.85 18.65 11.85 3.48 27.02 2.85 26.39 18.28 10.96 209.77 10.96 216.83 3.9 376.52 3.9 387.81 15.2 387.81 66.41 380.98 73.24"/><g class="cls-2"><path class="cls-1" d="M3.16,39.48,20.58,22.07h196.8l6.33-6.34H373.14L381,23.6V63.1L366.16,78H267.52l-7.64-7.64H63.4s-5.2-6.95-6.95-6.95H3.16Z"/></g><circle class="cls-1" cx="201.74" cy="3.16" r="3.16"/><path class="cls-1" d="M377.85,72.93A3.16,3.16,0,1,1,381,76.09,3.15,3.15,0,0,1,377.85,72.93Z"/><circle class="cls-1" cx="182.28" cy="3.16" r="3.16"/><circle class="cls-1" cx="162.81" cy="3.16" r="3.16"/><circle class="cls-1" cx="143.35" cy="3.16" r="3.16"/><circle class="cls-1" cx="123.88" cy="3.16" r="3.16"/><path class="cls-1" d="M101.26,3.16a3.16,3.16,0,1,1,3.16,3.16A3.16,3.16,0,0,1,101.26,3.16Z"/><path class="cls-1" d="M81.79,3.16A3.17,3.17,0,1,1,85,6.32,3.17,3.17,0,0,1,81.79,3.16Z"/><circle class="cls-1" cx="65.49" cy="3.16" r="3.16"/><circle class="cls-1" cx="46.03" cy="3.16" r="3.16"/><circle class="cls-1" cx="26.56" cy="3.16" r="3.16"/><circle class="cls-1" cx="3.16" cy="27.08" r="3.16"/><path class="cls-1" d="M3.16,58.65H57.05l4,4h9L76.44,69H191.53l1.27,1.27H153l-3.4,3.4H78.13l-3.25-3.25H63.44s-6.94-6.94-6.94-6.94-53.43.24-53.43,0S3.16,58.65,3.16,58.65Z"/><polygon class="cls-1" points="391.95 19.68 391.05 19.68 391.05 13.63 378.95 1.52 362.73 1.52 362.73 0.63 379.32 0.63 391.95 13.26 391.95 19.68"/><rect class="cls-1" x="156.18" y="75.58" width="99.98" height="0.89"/><polygon class="cls-1" points="471 136.19 244.68 136.19 244.55 136.06 204.46 95.97 204.46 80.78 205.35 80.78 205.35 95.6 245.05 135.3 470.63 135.3 485.51 120.43 486.14 121.06 471 136.19"/><path class="cls-1" d="M487.61,114.36a3.72,3.72,0,1,1,3.71,3.71A3.72,3.72,0,0,1,487.61,114.36Z"/><path class="cls-1" d="M204.9,89.55l1.73,1.73v4.28L218,106.94a15,15,0,0,1,0,1.9L204.85,95.69Z"/><path class="cls-1" d="M240.78,131.66v2.16l4.05,4.05h31l2.28-2.29c-.39.39-33.26,0-33.26,0Z"/><path class="cls-1" d="M266.93,33.47V67.78c-2.72-2.68-5.64-5.58-7.46-7.43V33.47Z"/><rect class="cls-1" x="272.51" y="25.52" width="7.47" height="48.73"/><rect class="cls-1" x="285.54" y="58.35" width="7.46" height="15.9"/><rect class="cls-1" x="298.58" y="34.73" width="7.46" height="39.52"/><rect class="cls-1" x="311.61" y="46.84" width="7.46" height="27.4"/><rect class="cls-1" x="324.65" y="24.18" width="7.46" height="50.06"/><rect class="cls-1" x="337.69" y="27.15" width="7.47" height="47.09"/><rect class="cls-1" x="350.72" y="48.1" width="7.46" height="26.15"/><polygon class="cls-1" points="371.22 56.12 371.22 66.92 363.89 74.25 363.76 74.25 363.76 56.12 371.22 56.12"/><polygon class="cls-1" points="352.43 121.36 256.27 121.36 250.77 124.38 250.77 128.1 281.38 128.1 282.57 129.51 354.57 129.51 356.93 128.1 352.43 121.36"/><polygon class="cls-1" points="424.93 106.32 370.65 106.32 368.87 110.31 426.72 110.31 424.93 106.32"/><path class="cls-1" d="M447.92,131.4H313.32a.21.21,0,0,1-.21-.21.21.21,0,0,1,.21-.21h134.6a.21.21,0,0,1,.21.21A.21.21,0,0,1,447.92,131.4Z"/><path class="cls-1" d="M364.59,125.52h-6.51c-.13,0-.18-.1-.11-.23l5.56-10a.47.47,0,0,1,.37-.23h6.51c.13,0,.18.1.11.23l-5.57,10A.46.46,0,0,1,364.59,125.52Z"/><path class="cls-1" d="M374.26,125.52h-6.51c-.13,0-.18-.1-.11-.23l5.56-10a.47.47,0,0,1,.37-.23h6.51c.13,0,.18.1.11.23l-5.57,10A.46.46,0,0,1,374.26,125.52Z"/><path class="cls-1" d="M383.93,125.52h-6.51c-.13,0-.18-.1-.11-.23l5.57-10a.46.46,0,0,1,.36-.23h6.51c.13,0,.18.1.11.23l-5.56,10A.49.49,0,0,1,383.93,125.52Z"/><path class="cls-1" d="M393.6,125.52h-6.51c-.13,0-.18-.1-.11-.23l5.57-10a.46.46,0,0,1,.36-.23h6.51c.13,0,.18.1.11.23l-5.56,10A.47.47,0,0,1,393.6,125.52Z"/><path class="cls-1" d="M403.27,125.52h-6.51c-.13,0-.18-.1-.11-.23l5.57-10a.46.46,0,0,1,.36-.23h6.51c.13,0,.18.1.11.23l-5.56,10A.47.47,0,0,1,403.27,125.52Z"/><path class="cls-1" d="M413,125.52h-6.51c-.13,0-.18-.1-.11-.23l5.56-10a.47.47,0,0,1,.37-.23h6.51c.13,0,.18.1.1.23l-5.56,10A.46.46,0,0,1,413,125.52Z"/><g class="cls-2"><path class="cls-1" d="M422.62,125.52h-6.51c-.13,0-.18-.1-.11-.23l5.56-10a.47.47,0,0,1,.37-.23h6.51c.13,0,.18.1.11.23l-5.57,10A.46.46,0,0,1,422.62,125.52Z"/></g><g class="cls-2"><path class="cls-1" d="M432.29,125.52h-6.51c-.13,0-.18-.1-.11-.23l5.56-10a.47.47,0,0,1,.37-.23h6.51c.13,0,.18.1.11.23l-5.57,10A.46.46,0,0,1,432.29,125.52Z"/></g><g class="cls-2"><path class="cls-1" d="M442,125.52h-6.51c-.13,0-.18-.1-.11-.23l5.57-10a.46.46,0,0,1,.36-.23h6.51c.13,0,.18.1.11.23l-5.56,10A.47.47,0,0,1,442,125.52Z"/></g><path class="cls-1" d="M443.92,128.63H288.76a.42.42,0,0,1,0-.84H443.4l5.69-11.63a.44.44,0,0,1,.57-.19.43.43,0,0,1,.19.56Z"/><path class="cls-1" d="M447.5,125.94a.39.39,0,0,1-.18,0,.43.43,0,0,1-.21-.56l5.35-11.64H380.13a.42.42,0,1,1,0-.84h73.64l-5.89,12.83A.42.42,0,0,1,447.5,125.94Z"/><path class="cls-1" d="M300.17,133H262.81a.21.21,0,0,1-.21-.21.21.21,0,0,1,.21-.21h37.36a.21.21,0,0,1,.21.21A.22.22,0,0,1,300.17,133Z"/><path class="cls-1" d="M262.81,133.39H246.69V122.76l12.37-8.31h20.23a.63.63,0,0,1,0,1.26H259.45L248,123.43v8.7h14.86a.63.63,0,0,1,.63.63A.63.63,0,0,1,262.81,133.39Z"/><path class="cls-1" d="M351.8,115.29H279.29a.21.21,0,0,1-.21-.21.21.21,0,0,1,.21-.21H351.8a.21.21,0,0,1,.21.21A.22.22,0,0,1,351.8,115.29Z"/><path class="cls-1" d="M356.69,119H264.51a.63.63,0,1,1,0-1.26H356l5.08-8.1h73.55a.63.63,0,0,1,0,1.26H361.77Z"/><polygon class="cls-1" points="231.53 151.91 80.64 151.91 42.47 113.74 43.42 112.79 81.19 150.57 230.98 150.57 242.82 138.72 243.76 139.67 231.53 151.91"/><path class="cls-1" d="M34.71,108.62a3.72,3.72,0,1,1,3.71,3.71A3.71,3.71,0,0,1,34.71,108.62Z"/><path class="cls-1" d="M69.38,139.7H74s8.48,8.78,8.78,8.78h34.48l2.69,2.69h-39Z"/><path class="cls-1" d="M85.1,151.17s2.4,2,2.4,2.4,61.92,0,61.92,0,2.57-2.29,2.29-2.29H86.49Z"/><polygon class="cls-1" points="41.03 30.24 36.19 30.24 36.19 50.35 40 50.35 41.03 50.35 51.81 50.35 51.81 45.89 41.03 45.89 41.03 30.24"/><path class="cls-1" d="M64.4,30.24h-9l-1.67,2v16l1.67,2.09H69.22l1.67-2.06v-16l-1.67-2Zm2.06,15.65H58.61V34.7h7.85Z"/><path class="cls-1" d="M90.18,40.32V32.25l-1.67-2H73.67V50.35h4.85V43.5H84.2l1.64,6.85h4.82l-1.87-8.3ZM85.34,39H78.52V34.7h6.82Z"/><polygon class="cls-1" points="99.2 30.24 92.97 30.24 92.97 50.35 99.2 50.35 99.96 50.35 108.53 50.35 108.53 45.89 99.96 45.89 99.96 42.38 106.33 42.38 106.33 37.93 99.96 37.93 99.96 34.7 108.53 34.7 108.53 30.24 99.96 30.24 99.2 30.24"/><polygon class="cls-1" points="110.62 30.24 110.62 33.66 110.62 34.7 110.62 50.35 115.47 50.35 115.47 34.7 120.76 47.98 124.35 47.98 125.02 46.34 118.75 30.24 110.62 30.24"/><polygon class="cls-1" points="123.24 38.21 125.72 44.58 129.64 34.7 129.64 50.35 134.49 50.35 134.49 30.24 126.36 30.24 123.24 38.21"/><rect class="cls-1" x="144.23" y="30.24" width="4.85" height="20.11"/><path class="cls-1" d="M156.71,30.24h-4.85V50.35h4.85V43.5h10l1.67-2.06V32.25l-1.67-2Zm6.82,8.8h-6.82V34.7h6.82Z"/><polygon class="cls-1" points="180.19 30.24 179.82 30.24 172.27 30.24 170.6 32.27 170.6 39.85 172.16 41.77 183.27 42.83 183.27 45.89 180.8 45.89 179.85 45.89 175.45 45.89 175.45 43.86 170.6 43.86 170.6 48.34 172.27 50.35 179.85 50.35 180.8 50.35 186.45 50.35 188.12 48.31 188.12 40.29 186.97 38.48 175.45 37.34 175.45 34.7 179.82 34.7 180.19 34.7 183.27 34.7 183.27 36.62 188.12 36.62 188.12 32.25 186.45 30.24 180.19 30.24"/><polygon class="cls-1" points="204.21 45.89 201.25 45.89 200.29 45.89 195.47 45.89 195.47 30.24 190.62 30.24 190.62 48.26 192.29 50.35 200.29 50.35 201.25 50.35 207.39 50.35 209.06 48.29 209.06 30.24 204.21 30.24 204.21 45.89"/><polygon class="cls-1" points="227.57 30.24 224.46 38.21 226.93 44.58 230.86 34.7 230.86 50.35 235.71 50.35 235.71 30.24 227.57 30.24"/><polygon class="cls-1" points="211.84 30.24 211.84 33.76 211.84 34.7 211.84 50.35 216.69 50.35 216.69 34.7 221.98 47.98 225.57 47.98 226.24 46.34 219.97 30.24 211.84 30.24"/></g></g></svg>