<svg xmlns="http://www.w3.org/2000/svg" viewBox="0 0 493.42 187.21"><defs><style>.cls-1{fill:#11e5b3;}.cls-2{opacity:0.15;}</style></defs><title>title_03_green</title><g id="Layer_2" data-name="Layer 2"><g id="Layer_1-2" data-name="Layer 1"><polygon class="cls-1" points="216.38 49.09 213.49 49.09 213.49 61.1 215.76 61.1 216.38 61.1 222.82 61.1 222.82 58.44 216.38 58.44 216.38 49.09"/><path class="cls-1" d="M230.34,49.09H225l-1,1.22v9.55l1,1.25h8.24l1-1.24V50.29l-1-1.2Zm1.23,9.35h-4.69V51.76h4.69Z"/><path class="cls-1" d="M245.74,55.12V50.29l-1-1.2h-8.87v12h2.89V57h3.4l1,4.1H246l-1.12-5Zm-2.89-.77h-4.08V51.76h4.08Z"/><polygon class="cls-1" points="251.13 49.09 247.41 49.09 247.41 61.1 251.13 61.1 251.59 61.1 256.71 61.1 256.71 58.44 251.59 58.44 251.59 56.35 255.39 56.35 255.39 53.69 251.59 53.69 251.59 51.76 256.71 51.76 256.71 49.09 251.59 49.09 251.13 49.09"/><polygon class="cls-1" points="257.95 49.09 257.95 51.13 257.95 51.76 257.95 61.1 260.85 61.1 260.85 51.76 264.01 59.69 266.15 59.69 266.56 58.71 262.81 49.09 257.95 49.09"/><polygon class="cls-1" points="265.49 53.85 266.97 57.66 269.32 51.76 269.32 61.1 272.21 61.1 272.21 49.09 267.35 49.09 265.49 53.85"/><rect class="cls-1" x="278.03" y="49.09" width="2.89" height="12.01"/><path class="cls-1" d="M285.49,49.09h-2.9v12h2.9V57h6l1-1.23V50.29l-1-1.2Zm4.07,5.26h-4.07V51.76h4.07Z"/><polygon class="cls-1" points="299.51 49.09 299.29 49.09 294.79 49.09 293.79 50.31 293.79 54.83 294.72 55.98 301.36 56.61 301.36 58.44 299.88 58.44 299.31 58.44 296.68 58.44 296.68 57.23 293.79 57.23 293.79 59.91 294.79 61.1 299.31 61.1 299.88 61.1 303.25 61.1 304.25 59.89 304.25 55.1 303.57 54.02 296.68 53.34 296.68 51.76 299.29 51.76 299.51 51.76 301.36 51.76 301.36 52.9 304.25 52.9 304.25 50.29 303.25 49.09 299.51 49.09"/><polygon class="cls-1" points="313.87 58.44 312.1 58.44 311.52 58.44 308.64 58.44 308.64 49.09 305.75 49.09 305.75 59.86 306.75 61.1 311.52 61.1 312.1 61.1 315.76 61.1 316.76 59.87 316.76 49.09 313.87 49.09 313.87 58.44"/><polygon class="cls-1" points="327.82 49.09 325.96 53.85 327.44 57.66 329.79 51.76 329.79 61.1 332.68 61.1 332.68 49.09 327.82 49.09"/><polygon class="cls-1" points="318.43 49.09 318.43 51.19 318.43 51.76 318.43 61.1 321.32 61.1 321.32 51.76 324.48 59.69 326.63 59.69 327.03 58.71 323.28 49.09 318.43 49.09"/><path class="cls-1" d="M213.32,76.37v-6h1.43v6Zm1.84,0V75.05h2.78v1.32Z"/><path class="cls-1" d="M219,70.42h1.83v1.32H220v3.31h.89v1.32H219l-.49-.62V71Zm2.24,1.32V70.42h1.84l.5.59v4.75l-.5.61h-1.84V75.05h1V71.74Z"/><path class="cls-1" d="M224.41,76.37v-6h1.44v6Zm1.85-4.63V70.42h2.55l.49.59V73.4l-.41.51.55,2.46H228l-.48-2h-1.27V73h1.61V71.74Z"/><path class="cls-1" d="M230.13,76.37v-6h1.43v6ZM232,71.74V70.42h2.76v1.32ZM232,74V72.69h2.11V74Zm0,2.36V75.05h2.76v1.32Z"/><path class="cls-1" d="M239.61,75.18l-.19.49h-1.07l-1.56-3.93h-1.44V70.42h2.41Zm-2.82-2.3v3.49h-1.44V72.15h1.07Zm2.3-.11.92-2.35h2.41v6H241V71.74l-1.16,2.92Z"/><path class="cls-1" d="M245.31,76.37v-6h1.43v6Z"/><path class="cls-1" d="M247.56,76.37v-6H249v6Zm1.85-4.63V70.42H252l.49.59v2.72l-.49.61h-2.55V73H251V71.74Z"/><path class="cls-1" d="M253.61,70.42h1.82v1.32h-.88v.78l3.41.34.34.53v2.37l-.5.61h-2V75.05h1v-.91l-3.28-.31-.47-.57V71Zm.94,4.63h.88v1.32h-1.82l-.5-.6V74.45h1.44Zm1.29-3.31V70.42h2l.5.59V72.3h-1.44v-.56Z"/><path class="cls-1" d="M261.49,75.05v1.32h-2l-.49-.62V70.42h1.44v4.63ZM264,76.37h-2.1V75.05h1.16V70.42h1.44v5.34Z"/><path class="cls-1" d="M269.58,75.18l-.19.49h-1.07l-1.56-3.93h-1.44V70.42h2.41Zm-2.82-2.3v3.49h-1.44V72.15h1.07Zm2.3-.11.92-2.35h2.41v6H271V71.74l-1.16,2.92Z"/><path class="cls-1" d="M276.71,70.42v6h-1.43v-6Zm.41,1.32V70.42h2.62l.5.59v4.75l-.5.61h-2.62V75.05h1.68V71.74Z"/><path class="cls-1" d="M281.56,70.42h1.83v1.32h-.89v3.31h.89v1.32h-1.83l-.5-.62V71Zm2.24,1.32V70.42h1.84l.49.59v4.75l-.49.61H283.8V75.05h1V71.74Z"/><path class="cls-1" d="M287,76.37v-6h1.43v6Zm1.85,0V75.05h2.77v1.32Z"/><path class="cls-1" d="M292.66,70.42h1.83v1.32h-.89v3.31h.89v1.32h-1.83l-.5-.62V71Zm2.24,1.32V70.42h1.84l.49.59v4.75l-.49.61H294.9V75.05h1V71.74Z"/><path class="cls-1" d="M298.06,76.37v-6h1.43v6Zm1.84-4.63V70.42h2.55l.49.59V73.4l-.41.51.55,2.46h-1.42l-.49-2H299.9V73h1.61V71.74Z"/><path class="cls-1" d="M306.24,70.42h1.83v1.32h-.89v.78l3.41.34.34.53v2.37l-.49.61h-1.95V75.05h1v-.91l-3.29-.31-.46-.57V71Zm.94,4.63h.89v1.32h-1.83l-.49-.6V74.45h1.43Zm1.3-3.31V70.42h2l.49.59V72.3H309.5v-.56Z"/><path class="cls-1" d="M311.68,76.37v-6h1.43v6Z"/><path class="cls-1" d="M313.69,70.42h5.37v1.32h-5.37Zm2,6V72.15h1.43v4.22Z"/><path class="cls-1" d="M322.66,76.37h-1.37l1.48-4.22h1l.18.47Zm1.53-2.91h.54l-.62-1.72h-1.19l.46-1.32H325l2.08,6h-1.35l-.56-1.59h-1.46Z"/><path class="cls-1" d="M331.78,75.18l-.2.49h-1.07L329,71.74h-1.43V70.42h2.4ZM329,72.88v3.49h-1.43V72.15h1.06Zm2.3-.11.92-2.35h2.41v6h-1.44V71.74L332,74.66Z"/><path class="cls-1" d="M335.41,76.37v-6h1.43v6Zm1.84-4.63V70.42H340v1.32Zm0,2.27V72.69h2.11V74Zm0,2.36V75.05H340v1.32Z"/><path class="cls-1" d="M340.39,70.42h5.37v1.32h-5.37Zm2,6V72.15h1.44v4.22Z"/><path class="cls-1" d="M346.18,77.32h0v-.95h-.68V75.05h1.44v1.32Z"/><path class="cls-1" d="M350,70.42h1.83v1.32H351v3.31h.89v1.32H350l-.49-.62V71Zm2.24,1.32V70.42h1.84l.5.59v1.61H353.3v-.88Zm0,4.63V75.05h1v-.88h1.32v1.59l-.5.61Z"/><path class="cls-1" d="M355.81,70.42h1.83v1.32h-.89v3.31h.89v1.32h-1.83l-.49-.62V71Zm2.24,1.32V70.42h1.84l.5.59v4.75l-.5.61h-1.84V75.05h1V71.74Z"/><path class="cls-1" d="M365.07,76.39l-2.42-4.65h-1.44V70.42h2.33l2.35,4.63h1.44v1.34Zm-2.42-3.53v3.51h-1.44V72.15h1.06Zm3.24,1.1V70.42h1.44v4.21h-1.07Z"/><path class="cls-1" d="M368.57,70.42h1.82v1.32h-.88v.78l3.41.34.34.53v2.37l-.5.61h-1.95V75.05h1v-.91l-3.28-.31-.47-.57V71Zm.94,4.63h.88v1.32h-1.82l-.5-.6V74.45h1.44Zm1.29-3.31V70.42h2l.5.59V72.3h-1.44v-.56Z"/><path class="cls-1" d="M374,76.37v-6h1.44v6Zm1.85-4.63V70.42h2.76v1.32Zm0,2.27V72.69H378V74Zm0,2.36V75.05h2.76v1.32Z"/><path class="cls-1" d="M379.72,70.42h1.83v1.32h-.89v3.31h.89v1.32h-1.83l-.49-.62V71ZM382,71.74V70.42h1.84l.5.59v1.61H383v-.88Zm0,4.63V75.05h1v-.88h1.31v1.59l-.5.61Z"/><path class="cls-1" d="M384.75,70.42h5.37v1.32h-5.37Zm2,6V72.15h1.43v4.22Z"/><path class="cls-1" d="M390.71,76.37v-6h1.43v6Zm1.84-4.63V70.42h2.76v1.32Zm0,2.27V72.69h2.11V74Zm0,2.36V75.05h2.76v1.32Z"/><path class="cls-1" d="M395.69,70.42h5.37v1.32h-5.37Zm2,6V72.15h1.44v4.22Z"/><path class="cls-1" d="M404.09,75.05v1.32h-2l-.49-.62V70.42h1.43v4.63Zm2.51,1.32h-2.1V75.05h1.16V70.42h1.43v5.34Z"/><path class="cls-1" d="M407.92,76.37v-6h1.43v6Zm1.85-4.63V70.42h2.54l.5.59V73.4l-.41.51.55,2.46h-1.43l-.48-2h-1.27V73h1.6V71.74Z"/><path class="cls-1" d="M214.27,86.26H212.9L214.38,82h1l.18.48Zm1.53-2.9h.54l-.62-1.73h-1.19l.46-1.32h1.64l2.08,6h-1.35l-.56-1.58h-1.46Z"/><path class="cls-1" d="M220.56,80.31v6h-1.43v-6Zm.41,1.32V80.31h2.62l.5.59v4.75l-.5.61H221V84.94h1.68V81.63Z"/><path class="cls-1" d="M224.91,86.26v-6h1.44v6Z"/><path class="cls-1" d="M227.17,86.26v-6h1.44v6ZM229,81.63V80.31h2.55l.49.59v2.72l-.49.61H229V82.91h1.61V81.63Z"/><path class="cls-1" d="M232.8,86.26v-6h1.44v6Z"/><path class="cls-1" d="M235.47,80.31h1.83v1.32h-.89v.78l3.42.34.33.54v2.37l-.49.6h-1.95V84.94h1V84l-3.29-.32-.46-.57V80.91Zm.94,4.63h.89v1.32h-1.83l-.49-.59V84.34h1.43Zm1.3-3.31V80.31h2l.49.59v1.3h-1.43v-.57Z"/><path class="cls-1" d="M241.4,80.31h1.83v1.32h-.89v3.31h.89v1.32H241.4l-.49-.62V80.91Zm2.24,1.32V80.31h1.84l.5.59v1.61h-1.31v-.88Zm0,4.63V84.94h1v-.87H246v1.58l-.5.61Z"/><path class="cls-1" d="M246.68,86.26v-6h1.43v6Z"/><path class="cls-1" d="M252.8,86.28l-2.43-4.65h-1.43V80.31h2.32l2.36,4.63h1.43v1.34Zm-2.43-3.52v3.5h-1.43V82H250Zm3.25,1.09V80.31h1.43v4.22H254Z"/><path class="cls-1" d="M257.31,84.94h.95v1.32h-1.89l-.49-.62V80.91l.49-.6h1.89v1.32h-.95Zm3.77.71-.49.61h-1.92V84.94h1.06V84h-1.15V82.64h2.5Zm-2.41-4V80.31h1.92l.49.59v1.27h-1.31v-.54Z"/><path class="cls-1" d="M263.89,86.26v-6h1.43v6Zm1.84-4.63V80.31h2.76v1.32Zm0,2.27V82.58h2.11V83.9Zm0,2.36V84.94h2.76v1.32Z"/><path class="cls-1" d="M269.11,86.26v-6h1.44v6Zm1.85,0V84.94h2.78v1.32Z"/><path class="cls-1" d="M274.32,86.26v-6h1.43v6Z"/><path class="cls-1" d="M276.33,80.31h5.37v1.32h-5.37Zm2,6V82h1.43v4.22Z"/><path class="cls-1" d="M282.12,87.22h0v-1h-.67V84.94h1.43v1.32Z"/><path class="cls-1" d="M285.9,80.31h1.82v1.32h-.88v.78l3.41.34.34.54v2.37l-.49.6h-2V84.94h1V84l-3.29-.32-.46-.57V80.91Zm.94,4.63h.88v1.32H285.9l-.49-.59V84.34h1.43Zm1.29-3.31V80.31h2l.49.59v1.3h-1.43v-.57Z"/><path class="cls-1" d="M291.33,86.26v-6h1.44v6Zm1.85-4.63V80.31h2.76v1.32Zm0,2.27V82.58h2.11V83.9Zm0,2.36V84.94h2.76v1.32Z"/><path class="cls-1" d="M298,80.31v6h-1.43v-6Zm.42,1.32V80.31H301l.49.59v4.75l-.49.61h-2.62V84.94h1.68V81.63Z"/><path class="cls-1" d="M305.84,80.31v6h-1.43v-6Zm.42,1.32V80.31h2.62l.49.59v4.75l-.49.61h-2.62V84.94h1.68V81.63Z"/><path class="cls-1" d="M310.69,80.31h1.83v1.32h-.89v3.31h.89v1.32h-1.83l-.49-.62V80.91Zm2.24,1.32V80.31h1.84l.5.59v4.75l-.5.61h-1.84V84.94h1V81.63Z"/><path class="cls-1" d="M318.15,86.26v-6h1.44v6ZM320,81.63V80.31h2.76v1.32Zm0,2.27V82.58h2.11V83.9Zm0,2.36V84.94h2.76v1.32Z"/><path class="cls-1" d="M323.38,86.26v-6h1.43v6Z"/><path class="cls-1" d="M328.09,84.94v1.32h-2l-.49-.62V80.31h1.43v4.63Zm2.51,1.32h-2.1V84.94h1.16V80.31h1.43v5.34Z"/><path class="cls-1" d="M332.33,80.31h1.83v1.32h-.89v.78l3.42.34.33.54v2.37l-.49.6h-1.95V84.94h1V84l-3.29-.32-.46-.57V80.91Zm.94,4.63h.89v1.32h-1.83l-.49-.59V84.34h1.43Zm1.3-3.31V80.31h2l.49.59v1.3h-1.43v-.57Z"/><path class="cls-1" d="M342,85.07l-.2.49h-1.06l-1.57-3.93h-1.43V80.31h2.4Zm-2.83-2.29v3.48h-1.43V82h1.06Zm2.3-.11.92-2.36h2.41v6H343.4V81.63l-1.17,2.92Z"/><path class="cls-1" d="M346.15,80.31H348v1.32h-.89v3.31H348v1.32h-1.83l-.49-.62V80.91Zm2.25,1.32V80.31h1.83l.5.59v4.75l-.5.61H348.4V84.94h1V81.63Z"/><path class="cls-1" d="M353,80.31v6h-1.44v-6Zm.41,1.32V80.31H356l.5.59v4.75l-.5.61H353.4V84.94h1.68V81.63Z"/><path class="cls-1" d="M359.16,80.31h5.37v1.32h-5.37Zm2,6V82h1.44v4.22Z"/><path class="cls-1" d="M365.11,86.26v-6h1.43v6ZM367,81.63V80.31h2.76v1.32Zm0,2.27V82.58h2.11V83.9Zm0,2.36V84.94h2.76v1.32Z"/><path class="cls-1" d="M374.6,85.07l-.2.49h-1.06l-1.57-3.93h-1.43V80.31h2.4Zm-2.83-2.29v3.48h-1.43V82h1.06Zm2.3-.11.92-2.36h2.41v6H376V81.63l-1.16,2.92Z"/><path class="cls-1" d="M378.23,86.26v-6h1.43v6Zm1.84-4.63V80.31h2.55l.49.59v2.72l-.49.61h-2.55V82.91h1.61V81.63Z"/><path class="cls-1" d="M384.35,80.31h1.83v1.32h-.89v3.31h.89v1.32h-1.83l-.49-.62V80.91Zm2.24,1.32V80.31h1.84l.5.59v4.75l-.5.61h-1.84V84.94h1V81.63Z"/><path class="cls-1" d="M389.75,86.26v-6h1.44v6Zm1.85-4.63V80.31h2.55l.49.59v2.39l-.41.51.55,2.46h-1.43l-.48-2H391.6V82.91h1.61V81.63Z"/><path class="cls-1" d="M397.53,86.26v-6H399v6Z"/><path class="cls-1" d="M403.64,86.28l-2.42-4.65h-1.43V80.31h2.32l2.36,4.63h1.43v1.34Zm-2.42-3.52v3.5h-1.43V82h1Zm3.25,1.09V80.31h1.43v4.22h-1.07Z"/><path class="cls-1" d="M407.22,80.31h1.83v1.32h-.89v3.31h.89v1.32h-1.83l-.49-.62V80.91Zm2.25,1.32V80.31h1.83l.5.59v1.61h-1.31v-.88Zm0,4.63V84.94h1v-.87h1.31v1.58l-.5.61Z"/><path class="cls-1" d="M412.5,86.26v-6h1.43v6Z"/><path class="cls-1" d="M416.19,80.31v6h-1.43v-6Zm.42,1.32V80.31h2.62l.49.59v4.75l-.49.61h-2.62V84.94h1.68V81.63Z"/><path class="cls-1" d="M420.55,86.26v-6H422v6Z"/><path class="cls-1" d="M424.24,80.31v6h-1.43v-6Zm.41,1.32V80.31h2.62l.5.59v4.75l-.5.61h-2.62V84.94h1.68V81.63Z"/><path class="cls-1" d="M431,84.94v1.32h-2l-.5-.62V80.31H430v4.63Zm2.51,1.32h-2.1V84.94h1.17V80.31h1.43v5.34Z"/><path class="cls-1" d="M438.73,86.28l-2.42-4.65h-1.43V80.31h2.32l2.36,4.63H441v1.34Zm-2.42-3.52v3.5h-1.43V82h1.05Zm3.25,1.09V80.31H441v4.22h-1.07Z"/><path class="cls-1" d="M441.57,80.31h5.37v1.32h-5.37Zm2,6V82H445v4.22Z"/><path class="cls-1" d="M213.32,97.66v-6h1.43v6Zm1.84,0V96.35h2.78v1.31Z"/><path class="cls-1" d="M219,91.71h1.83V93H220v3.32h.89v1.31H219l-.49-.61V92.32ZM221.25,93V91.71h1.84l.5.6v4.75l-.5.6h-1.84V96.35h1V93Z"/><path class="cls-1" d="M224.41,97.66v-6h1.44v6ZM226.26,93V91.71h2.55l.49.6V94.7l-.41.51.55,2.45H228l-.48-2h-1.27V94.32h1.61V93Z"/><path class="cls-1" d="M230.13,97.66v-6h1.43v6ZM232,93V91.71h2.76V93Zm0,2.28V94h2.11v1.32Zm0,2.35V96.35h2.76v1.31Z"/><path class="cls-1" d="M239.61,96.48l-.19.48h-1.07L236.79,93h-1.44V91.71h2.41Zm-2.82-2.3v3.48h-1.44V93.45h1.07Zm2.3-.11.92-2.36h2.41v6H241V93L239.82,96Z"/><path class="cls-1" d="M245.31,97.66v-6h1.43v6Z"/><path class="cls-1" d="M247.56,97.66v-6H249v6ZM249.41,93V91.71H252l.49.6V95l-.49.61h-2.55V94.32H251V93Z"/><path class="cls-1" d="M253.61,91.71h1.82V93h-.88v.79l3.41.33.34.54v2.37l-.5.6h-2V96.35h1v-.91l-3.28-.31-.47-.57V92.32Zm.94,4.64h.88v1.31h-1.82l-.5-.59V95.74h1.44ZM255.84,93V91.71h2l.5.6V93.6h-1.44V93Z"/><path class="cls-1" d="M261.49,96.35v1.31h-2l-.49-.61V91.71h1.44v4.64ZM264,97.66h-2.1V96.35h1.16V91.71h1.44v5.35Z"/><path class="cls-1" d="M269.58,96.48l-.19.48h-1.07L266.76,93h-1.44V91.71h2.41Zm-2.82-2.3v3.48h-1.44V93.45h1.07Zm2.3-.11.92-2.36h2.41v6H271V93L269.79,96Z"/><path class="cls-1" d="M276.71,91.71v6h-1.43v-6Zm.41,1.32V91.71h2.62l.5.6v4.75l-.5.6h-2.62V96.35h1.68V93Z"/><path class="cls-1" d="M281.56,91.71h1.83V93h-.89v3.32h.89v1.31h-1.83l-.5-.61V92.32ZM283.8,93V91.71h1.84l.49.6v4.75l-.49.6H283.8V96.35h1V93Z"/><path class="cls-1" d="M287,97.66v-6h1.43v6Zm1.85,0V96.35h2.77v1.31Z"/><path class="cls-1" d="M292.66,91.71h1.83V93h-.89v3.32h.89v1.31h-1.83l-.5-.61V92.32ZM294.9,93V91.71h1.84l.49.6v4.75l-.49.6H294.9V96.35h1V93Z"/><path class="cls-1" d="M298.06,97.66v-6h1.43v6ZM299.9,93V91.71h2.55l.49.6V94.7l-.41.51.55,2.45h-1.42l-.49-2H299.9V94.32h1.61V93Z"/><path class="cls-1" d="M306.24,91.71h1.83V93h-.89v.79l3.41.33.34.54v2.37l-.49.6h-1.95V96.35h1v-.91l-3.29-.31-.46-.57V92.32Zm.94,4.64h.89v1.31h-1.83l-.49-.59V95.74h1.43Zm1.3-3.32V91.71h2l.49.6V93.6H309.5V93Z"/><path class="cls-1" d="M311.68,97.66v-6h1.43v6Z"/><path class="cls-1" d="M313.69,91.71h5.37V93h-5.37Zm2,6V93.45h1.43v4.21Z"/><path class="cls-1" d="M322.66,97.66h-1.37l1.48-4.21h1l.18.47Zm1.53-2.9h.54L324.11,93h-1.19l.46-1.32H325l2.08,6h-1.35l-.56-1.58h-1.46Z"/><path class="cls-1" d="M331.78,96.48l-.2.48h-1.07L329,93h-1.43V91.71h2.4ZM329,94.18v3.48h-1.43V93.45h1.06Zm2.3-.11.92-2.36h2.41v6h-1.44V93L332,96Z"/><path class="cls-1" d="M335.41,97.66v-6h1.43v6ZM337.25,93V91.71H340V93Zm0,2.28V94h2.11v1.32Zm0,2.35V96.35H340v1.31Z"/><path class="cls-1" d="M340.39,91.71h5.37V93h-5.37Zm2,6V93.45h1.44v4.21Z"/><path class="cls-1" d="M346.18,98.62h0v-1h-.68V96.35h1.44v1.31Z"/><path class="cls-1" d="M350,91.71h1.83V93H351v3.32h.89v1.31H350l-.49-.61V92.32ZM352.28,93V91.71h1.84l.5.6v1.61H353.3V93Zm0,4.63V96.35h1v-.88h1.32v1.59l-.5.6Z"/><path class="cls-1" d="M355.81,91.71h1.83V93h-.89v3.32h.89v1.31h-1.83l-.49-.61V92.32ZM358.05,93V91.71h1.84l.5.6v4.75l-.5.6h-1.84V96.35h1V93Z"/><path class="cls-1" d="M365.07,97.69,362.65,93h-1.44V91.71h2.33l2.35,4.64h1.44v1.34Zm-2.42-3.53v3.5h-1.44V93.45h1.06Zm3.24,1.1V91.71h1.44v4.22h-1.07Z"/><path class="cls-1" d="M368.57,91.71h1.82V93h-.88v.79l3.41.33.34.54v2.37l-.5.6h-1.95V96.35h1v-.91l-3.28-.31-.47-.57V92.32Zm.94,4.64h.88v1.31h-1.82l-.5-.59V95.74h1.44ZM370.8,93V91.71h2l.5.6V93.6h-1.44V93Z"/><path class="cls-1" d="M374,97.66v-6h1.44v6ZM375.85,93V91.71h2.76V93Zm0,2.28V94H378v1.32Zm0,2.35V96.35h2.76v1.31Z"/><path class="cls-1" d="M379.72,91.71h1.83V93h-.89v3.32h.89v1.31h-1.83l-.49-.61V92.32ZM382,93V91.71h1.84l.5.6v1.61H383V93Zm0,4.63V96.35h1v-.88h1.31v1.59l-.5.6Z"/><path class="cls-1" d="M384.75,91.71h5.37V93h-5.37Zm2,6V93.45h1.43v4.21Z"/><path class="cls-1" d="M390.71,97.66v-6h1.43v6ZM392.55,93V91.71h2.76V93Zm0,2.28V94h2.11v1.32Zm0,2.35V96.35h2.76v1.31Z"/><path class="cls-1" d="M395.69,91.71h5.37V93h-5.37Zm2,6V93.45h1.44v4.21Z"/><path class="cls-1" d="M404.09,96.35v1.31h-2l-.49-.61V91.71h1.43v4.64Zm2.51,1.31h-2.1V96.35h1.16V91.71h1.43v5.35Z"/><path class="cls-1" d="M407.92,97.66v-6h1.43v6ZM409.77,93V91.71h2.54l.5.6V94.7l-.41.51.55,2.45h-1.43l-.48-2h-1.27V94.32h1.6V93Z"/><path class="cls-1" d="M214.27,107.56H212.9l1.48-4.22h1l.18.48Zm1.53-2.9h.54l-.62-1.73h-1.19l.46-1.32h1.64l2.08,6h-1.35L216.8,106h-1.46Z"/><path class="cls-1" d="M220.56,101.61v6h-1.43v-6Zm.41,1.32v-1.32h2.62l.5.59V107l-.5.61H221v-1.32h1.68v-3.31Z"/><path class="cls-1" d="M224.91,107.56v-6h1.44v6Z"/><path class="cls-1" d="M227.17,107.56v-6h1.44v6Zm1.85-4.63v-1.32h2.55l.49.59v2.72l-.49.61H229v-1.32h1.61v-1.28Z"/><path class="cls-1" d="M232.8,107.56v-6h1.44v6Z"/><path class="cls-1" d="M235.47,101.61h1.83v1.32h-.89v.78l3.42.34.33.53V107l-.49.6h-1.95v-1.32h1v-.91l-3.29-.31-.46-.57v-2.24Zm.94,4.63h.89v1.32h-1.83L235,107v-1.33h1.43Zm1.3-3.31v-1.32h2l.49.59v1.3h-1.43v-.57Z"/><path class="cls-1" d="M241.4,101.61h1.83v1.32h-.89v3.31h.89v1.32H241.4l-.49-.62v-4.73Zm2.24,1.32v-1.32h1.84l.5.59v1.61h-1.31v-.88Zm0,4.63v-1.32h1v-.87H246V107l-.5.61Z"/><path class="cls-1" d="M246.68,107.56v-6h1.43v6Z"/><path class="cls-1" d="M252.8,107.58l-2.43-4.65h-1.43v-1.32h2.32l2.36,4.63h1.43v1.34Zm-2.43-3.52v3.5h-1.43v-4.22H250Zm3.25,1.09v-3.54h1.43v4.22H254Z"/><path class="cls-1" d="M257.31,106.24h.95v1.32h-1.89l-.49-.62v-4.73l.49-.6h1.89v1.32h-.95Zm3.77.71-.49.61h-1.92v-1.32h1.06v-1h-1.15v-1.32h2.5Zm-2.41-4v-1.32h1.92l.49.59v1.27h-1.31v-.54Z"/><path class="cls-1" d="M263.89,107.56v-6h1.43v6Zm1.84-4.63v-1.32h2.76v1.32Zm0,2.27v-1.32h2.11v1.32Zm0,2.36v-1.32h2.76v1.32Z"/><path class="cls-1" d="M269.11,107.56v-6h1.44v6Zm1.85,0v-1.32h2.78v1.32Z"/><path class="cls-1" d="M274.32,107.56v-6h1.43v6Z"/><path class="cls-1" d="M276.33,101.61h5.37v1.32h-5.37Zm2,6v-4.22h1.43v4.22Z"/><path class="cls-1" d="M282.12,108.51h0v-1h-.67v-1.32h1.43v1.32Z"/><path class="cls-1" d="M285.9,101.61h1.82v1.32h-.88v.78l3.41.34.34.53V107l-.49.6h-2v-1.32h1v-.91l-3.29-.31-.46-.57v-2.24Zm.94,4.63h.88v1.32H285.9l-.49-.59v-1.33h1.43Zm1.29-3.31v-1.32h2l.49.59v1.3h-1.43v-.57Z"/><path class="cls-1" d="M291.33,107.56v-6h1.44v6Zm1.85-4.63v-1.32h2.76v1.32Zm0,2.27v-1.32h2.11v1.32Zm0,2.36v-1.32h2.76v1.32Z"/><path class="cls-1" d="M298,101.61v6h-1.43v-6Zm.42,1.32v-1.32H301l.49.59V107l-.49.61h-2.62v-1.32h1.68v-3.31Z"/><path class="cls-1" d="M305.84,101.61v6h-1.43v-6Zm.42,1.32v-1.32h2.62l.49.59V107l-.49.61h-2.62v-1.32h1.68v-3.31Z"/><path class="cls-1" d="M310.69,101.61h1.83v1.32h-.89v3.31h.89v1.32h-1.83l-.49-.62v-4.73Zm2.24,1.32v-1.32h1.84l.5.59V107l-.5.61h-1.84v-1.32h1v-3.31Z"/><path class="cls-1" d="M318.15,107.56v-6h1.44v6Zm1.85-4.63v-1.32h2.76v1.32Zm0,2.27v-1.32h2.11v1.32Zm0,2.36v-1.32h2.76v1.32Z"/><path class="cls-1" d="M323.38,107.56v-6h1.43v6Z"/><path class="cls-1" d="M328.09,106.24v1.32h-2l-.49-.62v-5.33h1.43v4.63Zm2.51,1.32h-2.1v-1.32h1.16v-4.63h1.43V107Z"/><path class="cls-1" d="M332.33,101.61h1.83v1.32h-.89v.78l3.42.34.33.53V107l-.49.6h-1.95v-1.32h1v-.91L332.3,105l-.46-.57v-2.24Zm.94,4.63h.89v1.32h-1.83l-.49-.59v-1.33h1.43Zm1.3-3.31v-1.32h2l.49.59v1.3h-1.43v-.57Z"/><path class="cls-1" d="M342,106.37l-.2.49h-1.06l-1.57-3.93h-1.43v-1.32h2.4Zm-2.83-2.3v3.49h-1.43v-4.22h1.06Zm2.3-.1.92-2.36h2.41v6H343.4v-4.63l-1.17,2.92Z"/><path class="cls-1" d="M346.15,101.61H348v1.32h-.89v3.31H348v1.32h-1.83l-.49-.62v-4.73Zm2.25,1.32v-1.32h1.83l.5.59V107l-.5.61H348.4v-1.32h1v-3.31Z"/><path class="cls-1" d="M353,101.61v6h-1.44v-6Zm.41,1.32v-1.32H356l.5.59V107l-.5.61H353.4v-1.32h1.68v-3.31Z"/><path class="cls-1" d="M218.8,175h-.23L196,152.39l-.17-.17L195.94,85,160.17,49.16,160,49l.05-46.51,101.19.11h.23L272.7,13.84c5.16.51,127.73.33,192.46.16h.56l0,23.5,23.73,23.78.17.17-.11,96.87-28.42,0-17,16.92Zm269.57-17.78.1-95.28L464.74,38.13l-.17-.17,0-22.83c-5.55,0-50.78.13-95.55.16-96.42.08-96.73-.23-97-.53l-11-11-99.82-.11-.05,44.91L196.9,84.37l.17.17L197,151.76l22,22.09,224.61.23,17-16.92Z"/><polygon class="cls-1" points="483.42 65.64 464.19 46.37 464.18 58.29 483.22 77.37 483.42 65.64"/><polygon class="cls-1" points="483.39 85.64 464.17 66.37 464.15 78.29 483.19 97.37 483.39 85.64"/><polygon class="cls-1" points="483.37 105.64 464.15 86.37 464.13 98.29 483.17 117.37 483.37 105.64"/><polygon class="cls-1" points="483.35 125.64 464.13 106.37 464.11 118.29 483.15 137.37 483.35 125.64"/><polygon class="cls-1" points="464.11 126.37 464.1 138.29 480.21 154.45 483.18 154.46 483.33 145.63 464.11 126.37"/><polygon class="cls-1" points="464.09 146.37 464.08 154.44 472.15 154.44 464.09 146.37"/><path class="cls-1" d="M480.54,53.17h7.25l5.63,5.64,0,32.95s-3.63,4.19-3.91,3.91,0-34.4,0-34.4Z"/><path class="cls-1" d="M472.82,158l-3.43,3.42s-8.31,0-8.36,0-9.54,9.52-9.54,9.52h-4.71v-3.29l6.05-6h4.26l3.51-3.5Z"/><polygon class="cls-1" points="455.79 152.48 456.59 151.69 444.21 139.28 443.97 139.28 211.47 139.03 203.26 147.23 204.05 148.03 211.94 140.16 443.74 140.41 455.79 152.48"/><polygon class="cls-1" points="447.58 143.46 379.25 143.39 375.13 139.25 443.69 139.32 447.58 143.46"/><path class="cls-1" d="M266.79,8.72V5.32L261.52,0,231.17,0s-3.23,2.66-2.95,2.94,33.46,0,33.46,0Z"/><polygon class="cls-1" points="442.73 183.9 442.73 182.77 212.55 182.53 187.84 157.77 187.91 90.45 187.74 90.28 154.23 56.7 154 56.7 109.91 56.66 109.74 56.82 72.33 94.15 38.56 94.11 38.55 95.24 72.8 95.28 72.97 95.11 110.37 57.78 153.77 57.83 186.78 90.91 186.71 158.23 186.88 158.4 212.08 183.66 212.32 183.66 442.73 183.9"/><rect class="cls-1" x="6.16" y="90.69" width="21.83" height="6.95" transform="translate(34.06 188.34) rotate(-179.94)"/><path class="cls-1" d="M0,103,0,85.31l34.14,0,0,17.66Zm1.62-16v14.45l30.92,0,0-14.45Z"/><path class="cls-1" d="M334.75,183.22l3.9,3.9,80.7.09s4.18-3.78,3.78-3.78Z"/><polygon class="cls-1" points="259.56 33.2 270.09 22.69 459.95 22.89 459.95 21.77 269.62 21.57 259.1 32.07 166.56 31.97 166.56 33.1 259.56 33.2"/><polygon class="cls-1" points="265.24 17.29 255.88 7.91 244.75 7.9 244.73 28.75 257.06 28.76 266.78 19.05 265.24 17.29"/><rect class="cls-1" x="225.12" y="7.89" width="13.19" height="20.84" transform="translate(463.41 36.86) rotate(-179.94)"/><rect class="cls-1" x="205.82" y="7.87" width="13.19" height="20.84" transform="translate(424.82 36.8) rotate(-179.94)"/><rect class="cls-1" x="186.53" y="7.85" width="13.19" height="20.84" transform="translate(386.23 36.74) rotate(-179.94)"/><rect class="cls-1" x="167.23" y="7.83" width="13.19" height="20.84" transform="translate(347.64 36.68) rotate(-179.94)"/><g class="cls-2"><polygon class="cls-1" points="207.65 152.62 215.38 144.89 373.52 144.89 377.35 148.72 444.95 148.72 451.02 154.79 451.02 157.98 444.44 164.56 444.44 167.59 441.78 170.25 219.32 170.25 204.75 155.68 207.65 152.62"/></g><polygon class="cls-1" points="107.85 68 114.39 61.46 151.52 61.46 161.89 71.82 161.89 74.78 159.41 74.78 159.41 71.39 151.13 63.11 129.61 63.11 128.27 64.45 116.13 64.45 113.21 67.37 107.85 68"/><path class="cls-1" d="M111.79,55.19,114,52.94H139.3l.95-.94h9.07s3.35,3.4,3.41,3.4H111.56Z"/><polyline class="cls-1" points="181.21 88.85 184.36 92 184.36 97.17 181.21 89.01"/><polygon class="cls-1" points="64.39 92.54 71.77 92.54 77.12 87.19 64.39 92.54"/><polygon class="cls-1" points="469.62 33.94 468.99 33.94 468.99 8.71 437.98 8.71 435.08 11.62 434.63 11.17 437.72 8.09 469.62 8.09 469.62 33.94"/><polygon class="cls-1" points="465.21 8.4 469.4 12.59 469.4 8.27 465.21 8.4"/><polygon class="cls-1" points="163.7 36.86 163.7 46.91 178.78 61.99 178.78 60.31 165.23 46.76 165.23 42.46 165.91 41.78 165.91 35.6 163.7 36.86"/><polygon class="cls-1" points="198.86 124.33 198.86 146.91 206.85 138.93 204.93 138.93 200.81 143.06 200.05 142.3 200.05 126.84 198.86 124.33"/><polygon class="cls-1" points="184.04 150.62 184.04 158.3 191.08 165.34 189.17 165.34 183.13 159.3 183.13 144.89 182.13 143.9 182.13 130.28 185.14 133.28 185.14 148.13 184.04 150.62"/><polygon class="cls-1" points="476.34 167.33 459.8 167.33 459.8 166.7 476.07 166.7 481.14 161.63 481.59 162.07 476.34 167.33"/></g></g></svg>