<svg xmlns="http://www.w3.org/2000/svg" viewBox="0 0 496 180.22"><defs><style>.cls-1{fill:#17cffc;}.cls-2{opacity:0.15;}</style></defs><title>title_05</title><g id="Layer_2" data-name="Layer 2"><g id="Layer_1-2" data-name="Layer 1"><polygon class="cls-1" points="16.26 149.59 140.23 149.59 150.73 160.09 25.93 160.09 16.26 149.59"/><polygon class="cls-1" points="326.01 169.01 207.08 169.01 189.6 151.53 164.18 151.53 164.18 150.57 190 150.57 207.48 168.05 325.61 168.05 341.61 152.05 341.61 122.04 320.9 101.33 320.9 21.67 287.54 21.67 287.4 21.53 266.82 0.96 142.35 0.96 129.72 13.59 15.48 13.59 2.34 26.73 14.6 38.99 14.6 120.36 1.34 133.99 26.13 158.78 179.5 158.78 179.5 159.74 25.73 159.74 0 134 13.64 119.97 13.64 39.39 0.98 26.73 15.08 12.63 129.32 12.63 141.95 0 267.22 0 267.36 0.14 287.93 20.71 321.86 20.71 321.86 100.93 342.57 121.64 342.57 152.45 326.01 169.01"/><polygon class="cls-1" points="304.14 101.06 314.23 101.17 314.23 60.81 304.14 60.7 304.14 101.06"/><rect class="cls-1" x="286.06" y="40.91" width="11.53" height="60.1"/><rect class="cls-1" x="267.98" y="65.09" width="11.53" height="35.92"/><rect class="cls-1" x="249.9" y="55.91" width="11.53" height="45.1"/><polygon class="cls-1" points="313.38 109.69 250.02 109.69 242.11 101.78 242.79 101.1 250.42 108.73 312.98 108.73 318.05 103.66 318.72 104.34 313.38 109.69"/><path class="cls-1" d="M242.79,40.57l-.68-.68,6-6V25.26h.48c25.2-.12,25.26-.05,25.45.14l-.33.34h0l-.09.47c-.66-.08-14.86,0-24.55,0v8Z"/><polygon class="cls-1" points="287.14 110.32 249.98 110.32 246.79 107.14 248.15 105.78 250.77 108.41 287.14 108.41 287.14 110.32"/><path class="cls-1" d="M249.59,29.87h-1.92V24.73h1c2.36,0,6.21,0,6.53,0l.18,1.91c-.18,0-2.12,0-5.75,0Z"/><polygon class="cls-1" points="139.87 2.75 227.63 2.75 229.97 5.09 259.18 5.09 267.02 0.48 142.15 0.48 139.87 2.75"/><polygon class="cls-1" points="321.38 21.19 324.51 24.32 324.51 76.98 321.71 79.79 321.38 21.19"/><polygon class="cls-1" points="9.61 34.68 9.61 124.39 14.18 119.82 14.18 39.19 9.61 34.68"/><polygon class="cls-1" points="327.32 173.56 207.76 173.56 207.76 172.6 326.93 172.6 344.38 155.14 345.06 155.82 327.32 173.56"/><polygon class="cls-1" points="335.69 164.52 335.69 167.69 327.11 176.27 286.54 176.27 283.46 173.19 327.12 173.19 335.69 164.52"/><polyline class="cls-1" points="22.58 165.5 185.73 165.5 185.73 166.46 22.18 166.46 22.05 166.32"/><rect class="cls-1" x="463.03" y="18.8" width="26.1" height="6.45"/><path class="cls-1" d="M496,30.13H456.17V13.91H496Zm-38.87-1H495V14.87H457.13Z"/><path class="cls-1" d="M345.2,125.1l-.95-.08c.24-2.88.35-6.28.11-6.83-1-1-20.54-20.54-20.54-20.54l-.14-.14V86.23l5.62-5.62V43l19.88-19.88H449.41v1H349.58L330.26,43.37V81l-5.62,5.62V97.12l20.42,20.42C345.54,118,345.59,120.56,345.2,125.1Z"/><g class="cls-2"><polygon class="cls-1" points="21.75 77.62 21.75 36.69 11.97 26.91 19.21 19.67 133.81 19.67 145.22 8.26 224.11 8.26 228.02 12.17 258.99 12.17 264.03 7.13 277 20.1 274.22 22.88 243.53 22.88 243.53 29.87 236.82 36.59 236.82 93.03 234.01 95.84 234.01 105.39 192.68 146.72 163.47 146.72 159.22 150.97 150.15 150.97 144.11 144.93 19.79 144.93 10.06 135.2 18.67 126.59 18.67 81.36 21.75 77.62"/></g><g class="cls-2"><polygon class="cls-1" points="193.67 150.97 239.42 105.22 248.37 114.17 314.23 114.17 320.8 107.61 337.05 123.87 337.05 150.97 323.09 164.93 208.42 164.93 193.67 150.97"/></g><polygon class="cls-1" points="119.51 19.67 123.33 23.49 139.08 23.49 151.6 10.97 189.47 10.97 191.89 8.55 145.22 8.55 134.33 19.44 119.51 19.67"/><rect class="cls-1" x="3.85" y="39.32" width="0.54" height="9.19" transform="translate(-29.85 15.78) rotate(-45)"/><rect class="cls-1" x="3.85" y="53" width="0.54" height="9.19" transform="translate(-39.52 19.78) rotate(-45)"/><rect class="cls-1" x="3.85" y="66.67" width="0.54" height="9.19" transform="translate(-49.18 23.78) rotate(-45)"/><rect class="cls-1" x="3.85" y="80.34" width="0.54" height="9.19" transform="translate(-58.85 27.79) rotate(-45)"/><rect class="cls-1" x="3.85" y="94.01" width="0.54" height="9.19" transform="translate(-68.52 31.79) rotate(-45)"/><rect class="cls-1" x="3.85" y="107.68" width="0.54" height="9.19" transform="translate(-78.19 35.8) rotate(-45)"/><rect class="cls-1" x="177.44" y="171.71" width="5.39" height="5.39"/><path class="cls-1" d="M186,180.22H174.33V168.6H186Zm-10.79-.83h10v-10h-10Z"/><rect class="cls-1" x="329.82" y="89.42" width="4.36" height="4.36"/><path class="cls-1" d="M336.68,96.29H327.3V86.91h9.38ZM328,95.63h8v-8h-8Z"/><rect class="cls-1" x="147.42" y="171.71" width="5.39" height="5.39"/><path class="cls-1" d="M155.92,180.22H144.3V168.6h11.62Zm-10.79-.83h10v-10h-10Z"/><rect class="cls-1" x="117.39" y="171.71" width="5.39" height="5.39"/><path class="cls-1" d="M125.9,180.22H114.28V168.6H125.9Zm-10.79-.83h10v-10h-10Z"/><rect class="cls-1" x="87.37" y="171.71" width="5.39" height="5.39"/><path class="cls-1" d="M95.88,180.22H84.26V168.6H95.88Zm-10.79-.83h10v-10h-10Z"/><rect class="cls-1" x="57.35" y="171.71" width="5.39" height="5.39"/><path class="cls-1" d="M65.85,180.22H54.23V168.6H65.85Zm-10.79-.83H65v-10h-10Z"/><rect class="cls-1" x="27.32" y="171.71" width="5.39" height="5.39"/><path class="cls-1" d="M35.83,180.22H24.21V168.6H35.83ZM25,179.39H35v-10H25Z"/><rect class="cls-1" x="347.37" y="21.13" width="5.39" height="5.39"/><path class="cls-1" d="M355.88,29.63H344.26V18h11.62Zm-10.79-.83h10v-10h-10Z"/><rect class="cls-1" x="71.97" y="106.33" width="5.39" height="5.39"/><path class="cls-1" d="M80.47,114.84H68.85V103.22H80.47ZM69.68,114h10v-10h-10Z"/><rect class="cls-1" x="113.5" y="106.33" width="5.39" height="5.39"/><path class="cls-1" d="M122,114.84H110.39V103.22H122ZM111.22,114h10v-10h-10Z"/><rect class="cls-1" x="155.04" y="106.33" width="5.39" height="5.39"/><path class="cls-1" d="M163.55,114.84H151.93V103.22h11.62ZM152.76,114h10v-10h-10Z"/><path class="cls-1" d="M30.07,73.18V68.07H31.3v5.11Zm1.58,0V72.05H34v1.13Z"/><path class="cls-1" d="M35,68.07h1.57V69.2h-.77v2.85h.77v1.13H35l-.43-.53V68.59Zm1.92,1.13V68.07h1.58l.42.51v4.08l-.42.52H36.88V72.05h.88V69.2Z"/><path class="cls-1" d="M39.59,73.18V68.07h1.23v5.11Zm1.59-4V68.07h2.18l.42.51v2l-.35.44.48,2.11H42.68l-.42-1.74H41.18V70.31h1.37V69.2Z"/><path class="cls-1" d="M44.49,73.18V68.07h1.24v5.11Zm1.59-4V68.07h2.37V69.2Zm0,2V70h1.81v1.14Zm0,2V72.05h2.37v1.13Z"/><path class="cls-1" d="M52.64,72.16l-.17.42h-.92L50.21,69.2H49V68.07H51Zm-2.43-2v3H49V69.56h.91Zm2-.09.8-2H55v5.11H53.81v-4l-1,2.51Z"/><path class="cls-1" d="M57.52,73.18V68.07h1.23v5.11Z"/><path class="cls-1" d="M59.46,73.18V68.07h1.23v5.11Zm1.58-4V68.07h2.19l.42.51v2.34l-.42.52H61V70.31h1.38V69.2Z"/><path class="cls-1" d="M64.64,68.07h1.57V69.2h-.76v.68l2.93.29.29.46v2l-.43.52H66.57V72.05h.87v-.78L64.62,71l-.4-.49V68.59Zm.81,4h.76v1.13H64.64l-.42-.51V71.53h1.23Zm1.11-2.85V68.07h1.68l.43.51v1.11H67.44V69.2Z"/><path class="cls-1" d="M71.41,72.05v1.13H69.73l-.42-.53V68.07h1.23v4Zm2.15,1.13h-1.8V72.05h1v-4H74v4.59Z"/><path class="cls-1" d="M78.35,72.16l-.17.42h-.91L75.93,69.2H74.7V68.07h2.06Zm-2.42-2v3H74.7V69.56h.91Zm2-.09.79-2h2.07v5.11H79.53v-4l-1,2.51Z"/><path class="cls-1" d="M84.47,68.07v5.11H83.24V68.07Zm.35,1.13V68.07h2.25l.43.51v4.08l-.43.52H84.82V72.05h1.44V69.2Z"/><path class="cls-1" d="M88.63,68.07H90.2V69.2h-.77v2.85h.77v1.13H88.63l-.43-.53V68.59Zm1.92,1.13V68.07h1.58l.42.51v4.08l-.42.52H90.55V72.05h.88V69.2Z"/><path class="cls-1" d="M93.26,73.18V68.07h1.23v5.11Zm1.59,0V72.05h2.38v1.13Z"/><path class="cls-1" d="M98.15,68.07h1.57V69.2H99v2.85h.76v1.13H98.15l-.42-.53V68.59Zm1.93,1.13V68.07h1.57l.43.51v4.08l-.43.52h-1.57V72.05H101V69.2Z"/><path class="cls-1" d="M102.79,73.18V68.07H104v5.11Zm1.58-4V68.07h2.19l.42.51v2l-.35.44.47,2.11h-1.22l-.42-1.74h-1.09V70.31h1.38V69.2Z"/><path class="cls-1" d="M109.81,68.07h1.57V69.2h-.76v.68l2.93.29.29.46v2l-.43.52h-1.67V72.05h.87v-.78L109.79,71l-.4-.49V68.59Zm.81,4h.76v1.13h-1.57l-.42-.51V71.53h1.23Zm1.11-2.85V68.07h1.68l.43.51v1.11h-1.23V69.2Z"/><path class="cls-1" d="M114.48,73.18V68.07h1.23v5.11Z"/><path class="cls-1" d="M116.2,68.07h4.61V69.2H116.2Zm1.7,5.11V69.56h1.23v3.62Z"/><path class="cls-1" d="M123.9,73.18h-1.17L124,69.56h.88L125,70Zm1.31-2.49h.46l-.53-1.49h-1l.4-1.13h1.4l1.79,5.11h-1.16l-.48-1.36h-1.25Z"/><path class="cls-1" d="M131.72,72.16l-.17.42h-.91L129.3,69.2h-1.23V68.07h2.06Zm-2.42-2v3h-1.23V69.56H129Zm2-.09.79-2h2.07v5.11H132.9v-4l-1,2.51Z"/><path class="cls-1" d="M134.84,73.18V68.07h1.23v5.11Zm1.58-4V68.07h2.37V69.2Zm0,2V70h1.81v1.14Zm0,2V72.05h2.37v1.13Z"/><path class="cls-1" d="M139.11,68.07h4.61V69.2h-4.61Zm1.7,5.11V69.56H142v3.62Z"/><path class="cls-1" d="M144.08,74h0v-.82h-.58V72.05h1.23v1.13Z"/><path class="cls-1" d="M147.4,68.07H149V69.2h-.77v2.85H149v1.13H147.4l-.43-.53V68.59Zm1.92,1.13V68.07h1.58l.42.51V70H150.2V69.2Zm0,4V72.05h.88V71.3h1.12v1.36l-.42.52Z"/><path class="cls-1" d="M152.35,68.07h1.57V69.2h-.76v2.85h.76v1.13h-1.57l-.43-.53V68.59Zm1.92,1.13V68.07h1.58l.42.51v4.08l-.42.52h-1.58V72.05h.88V69.2Z"/><path class="cls-1" d="M160.29,73.2l-2.08-4H157V68.07h2l2,4h1.23V73.2Zm-2.08-3v3H157V69.56h.91Zm2.79.94v-3h1.23v3.62h-.92Z"/><path class="cls-1" d="M163.29,68.07h1.57V69.2h-.76v.68l2.93.29.29.46v2l-.43.52h-1.67V72.05h.87v-.78L163.27,71l-.4-.49V68.59Zm.81,4h.76v1.13h-1.57l-.42-.51V71.53h1.23Zm1.11-2.85V68.07h1.68l.43.51v1.11h-1.23V69.2Z"/><path class="cls-1" d="M168,73.18V68.07h1.23v5.11Zm1.58-4V68.07h2.37V69.2Zm0,2V70h1.81v1.14Zm0,2V72.05h2.37v1.13Z"/><path class="cls-1" d="M172.87,68.07h1.57V69.2h-.77v2.85h.77v1.13h-1.57l-.43-.53V68.59Zm1.92,1.13V68.07h1.58l.42.51V70h-1.12V69.2Zm0,4V72.05h.88V71.3h1.12v1.36l-.42.52Z"/><path class="cls-1" d="M177.18,68.07h4.61V69.2h-4.61Zm1.7,5.11V69.56h1.23v3.62Z"/><path class="cls-1" d="M182.29,73.18V68.07h1.23v5.11Zm1.59-4V68.07h2.36V69.2Zm0,2V70h1.81v1.14Zm0,2V72.05h2.36v1.13Z"/><path class="cls-1" d="M186.57,68.07h4.61V69.2h-4.61Zm1.69,5.11V69.56h1.23v3.62Z"/><path class="cls-1" d="M193.77,72.05v1.13H192.1l-.43-.53V68.07h1.23v4Zm2.16,1.13h-1.8V72.05h1v-4h1.23v4.59Z"/><path class="cls-1" d="M197.07,73.18V68.07h1.22v5.11Zm1.58-4V68.07h2.18l.43.51v2l-.36.44.48,2.11h-1.23l-.41-1.74h-1.09V70.31H200V69.2Z"/><path class="cls-1" d="M30.89,81.67H29.71L31,78.05h.88l.15.41Zm1.31-2.49h.46l-.53-1.49h-1l.39-1.13h1.41l1.79,5.11H33.54l-.48-1.36H31.81Z"/><path class="cls-1" d="M36.29,76.56v5.11H35.06V76.56Zm.35,1.13V76.56h2.25l.42.51v4.08l-.42.52H36.64V80.54h1.44V77.69Z"/><path class="cls-1" d="M40,81.67V76.56h1.23v5.11Z"/><path class="cls-1" d="M42,81.67V76.56h1.23v5.11Zm1.58-4V76.56h2.19l.42.51v2.34l-.42.52H43.54V78.8h1.38V77.69Z"/><path class="cls-1" d="M46.79,81.67V76.56H48v5.11Z"/><path class="cls-1" d="M49.08,76.56h1.57v1.13h-.76v.68l2.93.29.29.46v2l-.43.52H51V80.54h.87v-.78l-2.82-.27-.4-.49V77.08Zm.81,4h.76v1.13H49.08l-.42-.51V80h1.23ZM51,77.69V76.56h1.68l.43.51v1.11H51.88v-.49Z"/><path class="cls-1" d="M54.17,76.56h1.57v1.13H55v2.85h.76v1.13H54.17l-.42-.53V77.08Zm1.92,1.13V76.56h1.58l.43.51v1.38H57v-.76Zm0,4V80.54H57v-.75H58.1v1.36l-.43.52Z"/><path class="cls-1" d="M58.7,81.67V76.56h1.23v5.11Z"/><path class="cls-1" d="M64,81.69l-2.08-4H60.64V76.56h2l2,4h1.23v1.15Zm-2.08-3v3H60.64V78.05h.9Zm2.78.94v-3h1.23v3.62H65Z"/><path class="cls-1" d="M67.82,80.54h.82v1.13H67l-.43-.53V77.08l.43-.52h1.62v1.13h-.82Zm3.24.61-.43.52H69V80.54h.91V79.7h-1V78.56h2.15ZM69,77.69V76.56h1.64l.43.51v1.09H69.93v-.47Z"/><path class="cls-1" d="M73.46,81.67V76.56h1.23v5.11Zm1.59-4V76.56h2.37v1.13Zm0,2V78.51h1.81v1.14Zm0,2V80.54h2.37v1.13Z"/><path class="cls-1" d="M78,81.67V76.56h1.23v5.11Zm1.58,0V80.54h2.39v1.13Z"/><path class="cls-1" d="M82.41,81.67V76.56h1.23v5.11Z"/><path class="cls-1" d="M84.14,76.56h4.61v1.13H84.14Zm1.7,5.11V78.05h1.23v3.62Z"/><path class="cls-1" d="M89.11,82.49h0v-.82h-.58V80.54h1.23v1.13Z"/><path class="cls-1" d="M92.36,76.56h1.56v1.13h-.76v.68l2.93.29.29.46v2l-.43.52H94.28V80.54h.87v-.78l-2.82-.27-.4-.49V77.08Zm.8,4h.76v1.13H92.36l-.43-.51V80h1.23Zm1.11-2.85V76.56H96l.43.51v1.11H95.15v-.49Z"/><path class="cls-1" d="M97,81.67V76.56h1.23v5.11Zm1.58-4V76.56H101v1.13Zm0,2V78.51h1.81v1.14Zm0,2V80.54H101v1.13Z"/><path class="cls-1" d="M102.73,76.56v5.11H101.5V76.56Zm.36,1.13V76.56h2.25l.42.51v4.08l-.42.52h-2.25V80.54h1.44V77.69Z"/><path class="cls-1" d="M109.47,76.56v5.11h-1.23V76.56Zm.35,1.13V76.56h2.25l.43.51v4.08l-.43.52h-2.25V80.54h1.45V77.69Z"/><path class="cls-1" d="M113.63,76.56h1.57v1.13h-.76v2.85h.76v1.13h-1.57l-.42-.53V77.08Zm1.92,1.13V76.56h1.58l.43.51v4.08l-.43.52h-1.58V80.54h.88V77.69Z"/><path class="cls-1" d="M120,81.67V76.56h1.23v5.11Zm1.59-4V76.56H124v1.13Zm0,2V78.51h1.81v1.14Zm0,2V80.54H124v1.13Z"/><path class="cls-1" d="M124.52,81.67V76.56h1.23v5.11Z"/><path class="cls-1" d="M128.56,80.54v1.13h-1.68l-.42-.53V76.56h1.23v4Zm2.15,1.13h-1.8V80.54h1v-4h1.23v4.59Z"/><path class="cls-1" d="M132.2,76.56h1.56v1.13H133v.68l2.93.29.29.46v2l-.43.52h-1.68V80.54H135v-.78l-2.83-.27-.39-.49V77.08Zm.81,4h.75v1.13H132.2l-.42-.51V80H133Zm1.11-2.85V76.56h1.68l.43.51v1.11H135v-.49Z"/><path class="cls-1" d="M140.52,80.65l-.17.42h-.91l-1.34-3.38h-1.24V76.56h2.07Zm-2.42-2v3h-1.24V78.05h.92Zm2-.09.79-2h2.07v5.11h-1.24v-4l-1,2.51Z"/><path class="cls-1" d="M144.06,76.56h1.57v1.13h-.76v2.85h.76v1.13h-1.57l-.42-.53V77.08ZM146,77.69V76.56h1.58l.43.51v4.08l-.43.52H146V80.54h.88V77.69Z"/><path class="cls-1" d="M149.92,76.56v5.11h-1.23V76.56Zm.36,1.13V76.56h2.25l.42.51v4.08l-.42.52h-2.25V80.54h1.44V77.69Z"/><path class="cls-1" d="M155.22,76.56h4.61v1.13h-4.61Zm1.7,5.11V78.05h1.23v3.62Z"/><path class="cls-1" d="M160.33,81.67V76.56h1.23v5.11Zm1.58-4V76.56h2.37v1.13Zm0,2V78.51h1.81v1.14Zm0,2V80.54h2.37v1.13Z"/><path class="cls-1" d="M168.47,80.65l-.17.42h-.91L166,77.69h-1.23V76.56h2.07Zm-2.43-2v3h-1.23V78.05h.91Zm2-.09.79-2h2.06v5.11h-1.23v-4l-1,2.51Z"/><path class="cls-1" d="M171.58,81.67V76.56h1.23v5.11Zm1.59-4V76.56h2.18l.43.51v2.34l-.43.52h-2.18V78.8h1.38V77.69Z"/><path class="cls-1" d="M176.84,76.56h1.57v1.13h-.77v2.85h.77v1.13h-1.57l-.42-.53V77.08Zm1.92,1.13V76.56h1.58l.42.51v4.08l-.42.52h-1.58V80.54h.88V77.69Z"/><path class="cls-1" d="M181.47,81.67V76.56h1.23v5.11Zm1.59-4V76.56h2.18l.43.51v2.05l-.36.44.48,2.11h-1.23l-.41-1.74h-1.09V78.8h1.38V77.69Z"/><path class="cls-1" d="M188.15,81.67V76.56h1.23v5.11Z"/><path class="cls-1" d="M193.39,81.69l-2.08-4h-1.23V76.56h2l2,4h1.23v1.15Zm-2.08-3v3h-1.23V78.05H191Zm2.79.94v-3h1.23v3.62h-.92Z"/><path class="cls-1" d="M196.46,76.56H198v1.13h-.77v2.85H198v1.13h-1.58l-.42-.53V77.08Zm1.93,1.13V76.56H200l.42.51v1.38h-1.12v-.76Zm0,4V80.54h.88v-.75h1.12v1.36l-.42.52Z"/><path class="cls-1" d="M201,81.67V76.56h1.23v5.11Z"/><path class="cls-1" d="M204.16,76.56v5.11h-1.23V76.56Zm.36,1.13V76.56h2.24l.43.51v4.08l-.43.52h-2.24V80.54H206V77.69Z"/><path class="cls-1" d="M207.9,81.67V76.56h1.23v5.11Z"/><path class="cls-1" d="M211.07,76.56v5.11h-1.23V76.56Zm.35,1.13V76.56h2.25l.42.51v4.08l-.42.52h-2.25V80.54h1.44V77.69Z"/><path class="cls-1" d="M216.9,80.54v1.13h-1.67l-.43-.53V76.56H216v4Zm2.16,1.13h-1.8V80.54h1v-4h1.22v4.59Z"/><path class="cls-1" d="M223.51,81.69l-2.08-4H220.2V76.56h2l2,4h1.23v1.15Zm-2.08-3v3H220.2V78.05h.9Zm2.78.94v-3h1.23v3.62h-.92Z"/><path class="cls-1" d="M225.94,76.56h4.61v1.13h-4.61Zm1.7,5.11V78.05h1.23v3.62Z"/><path class="cls-1" d="M30.07,91V85.89H31.3V91Zm1.58,0V89.87H34V91Z"/><path class="cls-1" d="M35,85.89h1.57V87h-.77v2.85h.77V91H35l-.43-.53V86.41ZM36.88,87V85.89h1.58l.42.51v4.07l-.42.53H36.88V89.87h.88V87Z"/><path class="cls-1" d="M39.59,91V85.89h1.23V91Zm1.59-4V85.89h2.18l.42.51v2l-.35.44L43.91,91H42.68l-.42-1.74H41.18V88.13h1.37V87Z"/><path class="cls-1" d="M44.49,91V85.89h1.24V91Zm1.59-4V85.89h2.37V87Zm0,2V87.84h1.81V89Zm0,2V89.87h2.37V91Z"/><path class="cls-1" d="M52.64,90l-.17.42h-.92L50.21,87H49V85.89H51Zm-2.43-2v3H49V87.38h.91Zm2-.1.8-2H55V91H53.81V87l-1,2.51Z"/><path class="cls-1" d="M57.52,91V85.89h1.23V91Z"/><path class="cls-1" d="M59.46,91V85.89h1.23V91ZM61,87V85.89h2.19l.42.51v2.33l-.42.53H61V88.13h1.38V87Z"/><path class="cls-1" d="M64.64,85.89h1.57V87h-.76v.68l2.93.29.29.45v2l-.43.52H66.57V89.87h.87v-.78l-2.82-.27-.4-.49V86.41Zm.81,4h.76V91H64.64l-.42-.51V89.35h1.23ZM66.56,87V85.89h1.68l.43.51v1.11H67.44V87Z"/><path class="cls-1" d="M71.41,89.87V91H69.73l-.42-.53V85.89h1.23v4ZM73.56,91h-1.8V89.87h1v-4H74v4.58Z"/><path class="cls-1" d="M78.35,90l-.17.42h-.91L75.93,87H74.7V85.89h2.06Zm-2.42-2v3H74.7V87.38h.91Zm2-.1.79-2h2.07V91H79.53V87l-1,2.51Z"/><path class="cls-1" d="M84.47,85.89V91H83.24V85.89ZM84.82,87V85.89h2.25l.43.51v4.07l-.43.53H84.82V89.87h1.44V87Z"/><path class="cls-1" d="M88.63,85.89H90.2V87h-.77v2.85h.77V91H88.63l-.43-.53V86.41ZM90.55,87V85.89h1.58l.42.51v4.07l-.42.53H90.55V89.87h.88V87Z"/><path class="cls-1" d="M93.26,91V85.89h1.23V91Zm1.59,0V89.87h2.38V91Z"/><path class="cls-1" d="M98.15,85.89h1.57V87H99v2.85h.76V91H98.15l-.42-.53V86.41ZM100.08,87V85.89h1.57l.43.51v4.07l-.43.53h-1.57V89.87H101V87Z"/><path class="cls-1" d="M102.79,91V85.89H104V91Zm1.58-4V85.89h2.19l.42.51v2l-.35.44L107.1,91h-1.22l-.42-1.74h-1.09V88.13h1.38V87Z"/><path class="cls-1" d="M109.81,85.89h1.57V87h-.76v.68l2.93.29.29.45v2l-.43.52h-1.67V89.87h.87v-.78l-2.82-.27-.4-.49V86.41Zm.81,4h.76V91h-1.57l-.42-.51V89.35h1.23ZM111.73,87V85.89h1.68l.43.51v1.11h-1.23V87Z"/><path class="cls-1" d="M114.48,91V85.89h1.23V91Z"/><path class="cls-1" d="M116.2,85.89h4.61V87H116.2ZM117.9,91V87.38h1.23V91Z"/><path class="cls-1" d="M123.9,91h-1.17L124,87.38h.88l.15.41Zm1.31-2.49h.46L125.14,87h-1l.4-1.13h1.4L127.71,91h-1.16l-.48-1.36h-1.25Z"/><path class="cls-1" d="M131.72,90l-.17.42h-.91L129.3,87h-1.23V85.89h2.06Zm-2.42-2v3h-1.23V87.38H129Zm2-.1.79-2h2.07V91H132.9V87l-1,2.51Z"/><path class="cls-1" d="M134.84,91V85.89h1.23V91Zm1.58-4V85.89h2.37V87Zm0,2V87.84h1.81V89Zm0,2V89.87h2.37V91Z"/><path class="cls-1" d="M139.11,85.89h4.61V87h-4.61Zm1.7,5.11V87.38H142V91Z"/><polygon class="cls-1" points="56.32 36.83 52.91 36.83 52.91 51.01 55.59 51.01 56.32 51.01 63.93 51.01 63.93 47.87 56.32 47.87 56.32 36.83"/><path class="cls-1" d="M72.81,36.83H66.48L65.3,38.26V49.54L66.48,51h9.73l1.18-1.45V38.24l-1.18-1.41Zm1.45,11H68.72V40h5.54Z"/><path class="cls-1" d="M91,43.94v-5.7l-1.18-1.41H79.35V51h3.42V46.18h4L87.94,51h3.39L90,45.16ZM87.58,43H82.77V40h4.81Z"/><polygon class="cls-1" points="97.37 36.83 92.97 36.83 92.97 51.01 97.37 51.01 97.9 51.01 103.95 51.01 103.95 47.87 97.9 47.87 97.9 45.39 102.39 45.39 102.39 42.25 97.9 42.25 97.9 39.97 103.95 39.97 103.95 36.83 97.9 36.83 97.37 36.83"/><polygon class="cls-1" points="105.42 36.83 105.42 39.24 105.42 39.97 105.42 51.01 108.84 51.01 108.84 39.97 112.57 49.34 115.11 49.34 115.58 48.19 111.16 36.83 105.42 36.83"/><polygon class="cls-1" points="114.32 42.45 116.07 46.95 118.84 39.97 118.84 51.01 122.26 51.01 122.26 36.83 116.52 36.83 114.32 42.45"/><rect class="cls-1" x="129.13" y="36.83" width="3.42" height="14.19"/><path class="cls-1" d="M137.93,36.83h-3.41V51h3.41V46.18H145l1.18-1.45V38.24L145,36.83ZM142.75,43h-4.82V40h4.82Z"/><polygon class="cls-1" points="154.5 36.83 154.24 36.83 148.92 36.83 147.74 38.26 147.74 43.61 148.84 44.96 156.68 45.71 156.68 47.87 154.93 47.87 154.26 47.87 151.16 47.87 151.16 46.44 147.74 46.44 147.74 49.6 148.92 51.01 154.26 51.01 154.93 51.01 158.92 51.01 160.1 49.58 160.1 43.92 159.29 42.64 151.16 41.84 151.16 39.97 154.24 39.97 154.5 39.97 156.68 39.97 156.68 41.33 160.1 41.33 160.1 38.24 158.92 36.83 154.5 36.83"/><polygon class="cls-1" points="171.45 47.87 169.36 47.87 168.68 47.87 165.28 47.87 165.28 36.83 161.86 36.83 161.86 49.54 163.04 51.01 168.68 51.01 169.36 51.01 173.69 51.01 174.87 49.56 174.87 36.83 171.45 36.83 171.45 47.87"/><polygon class="cls-1" points="187.94 36.83 185.74 42.45 187.48 46.95 190.25 39.97 190.25 51.01 193.67 51.01 193.67 36.83 187.94 36.83"/><polygon class="cls-1" points="176.84 36.83 176.84 39.31 176.84 39.97 176.84 51.01 180.25 51.01 180.25 39.97 183.99 49.34 186.52 49.34 186.99 48.19 182.57 36.83 176.84 36.83"/></g></g></svg>