<svg xmlns="http://www.w3.org/2000/svg" xmlns:xlink="http://www.w3.org/1999/xlink" viewBox="0 0 495.51 149.28"><defs><style>.cls-1{fill:url(#New_Gradient_Swatch_7);}.cls-2{fill:url(#New_Gradient_Swatch_7-2);}.cls-3{fill:url(#New_Gradient_Swatch_7-3);}.cls-4{fill:url(#New_Gradient_Swatch_7-4);}.cls-5{fill:url(#New_Gradient_Swatch_7-5);}.cls-6{fill:url(#New_Gradient_Swatch_7-6);}.cls-7{fill:url(#New_Gradient_Swatch_7-7);}.cls-8{fill:url(#New_Gradient_Swatch_7-8);}.cls-9{fill:url(#New_Gradient_Swatch_7-9);}.cls-10{fill:url(#New_Gradient_Swatch_7-10);}.cls-11{fill:url(#New_Gradient_Swatch_7-11);}.cls-12{fill:url(#New_Gradient_Swatch_7-12);}.cls-13{fill:url(#New_Gradient_Swatch_7-13);}.cls-14{fill:url(#New_Gradient_Swatch_7-14);}.cls-15{fill:url(#New_Gradient_Swatch_7-15);}.cls-16{fill:url(#New_Gradient_Swatch_7-16);}.cls-17{fill:url(#New_Gradient_Swatch_7-17);}.cls-18{fill:url(#New_Gradient_Swatch_7-18);}.cls-19{fill:url(#New_Gradient_Swatch_7-19);}.cls-20{fill:url(#New_Gradient_Swatch_7-20);}.cls-21{opacity:0.15;}.cls-22{fill:url(#New_Gradient_Swatch_7-21);}.cls-23{fill:url(#New_Gradient_Swatch_7-22);}.cls-24{fill:url(#New_Gradient_Swatch_7-23);}.cls-25{fill:url(#New_Gradient_Swatch_7-24);}.cls-26{fill:url(#New_Gradient_Swatch_7-25);}.cls-27{fill:url(#New_Gradient_Swatch_7-26);}.cls-28{fill:url(#New_Gradient_Swatch_7-27);}.cls-29{fill:url(#New_Gradient_Swatch_7-28);}.cls-30{fill:url(#New_Gradient_Swatch_7-29);}.cls-31{fill:url(#New_Gradient_Swatch_7-30);}.cls-32{fill:url(#New_Gradient_Swatch_7-31);}.cls-33{fill:url(#New_Gradient_Swatch_7-32);}.cls-34{fill:url(#New_Gradient_Swatch_7-33);}.cls-35{fill:url(#New_Gradient_Swatch_7-34);}.cls-36{fill:url(#New_Gradient_Swatch_7-35);}.cls-37{fill:url(#New_Gradient_Swatch_7-36);}.cls-38{fill:url(#New_Gradient_Swatch_7-37);}.cls-39{fill:url(#New_Gradient_Swatch_7-38);}.cls-40{fill:url(#New_Gradient_Swatch_7-39);}.cls-41{fill:url(#New_Gradient_Swatch_7-40);}.cls-42{fill:url(#New_Gradient_Swatch_7-41);}.cls-43{fill:url(#New_Gradient_Swatch_7-42);}.cls-44{fill:url(#New_Gradient_Swatch_7-43);}.cls-45{fill:url(#New_Gradient_Swatch_7-44);}.cls-46{fill:url(#New_Gradient_Swatch_7-45);}.cls-47{fill:url(#New_Gradient_Swatch_7-46);}.cls-48{fill:url(#New_Gradient_Swatch_7-47);}.cls-49{fill:url(#New_Gradient_Swatch_7-48);}.cls-50{fill:url(#New_Gradient_Swatch_7-49);}.cls-51{fill:url(#New_Gradient_Swatch_7-50);}.cls-52{fill:url(#New_Gradient_Swatch_7-51);}.cls-53{fill:url(#New_Gradient_Swatch_7-52);}.cls-54{fill:url(#New_Gradient_Swatch_7-53);}.cls-55{fill:url(#New_Gradient_Swatch_7-54);}.cls-56{fill:url(#New_Gradient_Swatch_7-55);}.cls-57{fill:url(#New_Gradient_Swatch_7-56);}.cls-58{fill:url(#New_Gradient_Swatch_7-57);}.cls-59{fill:url(#New_Gradient_Swatch_7-58);}.cls-60{fill:url(#New_Gradient_Swatch_7-59);}.cls-61{fill:url(#New_Gradient_Swatch_7-60);}.cls-62{fill:url(#New_Gradient_Swatch_7-61);}.cls-63{fill:url(#New_Gradient_Swatch_7-62);}.cls-64{fill:url(#New_Gradient_Swatch_7-63);}.cls-65{fill:url(#New_Gradient_Swatch_7-64);}.cls-66{fill:url(#New_Gradient_Swatch_7-65);}.cls-67{fill:url(#New_Gradient_Swatch_7-66);}.cls-68{fill:url(#New_Gradient_Swatch_7-67);}.cls-69{fill:url(#New_Gradient_Swatch_7-68);}.cls-70{fill:url(#New_Gradient_Swatch_7-69);}.cls-71{fill:url(#New_Gradient_Swatch_7-70);}.cls-72{fill:url(#New_Gradient_Swatch_7-71);}.cls-73{fill:url(#New_Gradient_Swatch_7-72);}.cls-74{fill:url(#New_Gradient_Swatch_7-73);}.cls-75{fill:url(#New_Gradient_Swatch_7-74);}.cls-76{fill:url(#New_Gradient_Swatch_7-75);}.cls-77{fill:url(#New_Gradient_Swatch_7-76);}.cls-78{fill:url(#New_Gradient_Swatch_7-77);}.cls-79{fill:url(#New_Gradient_Swatch_7-78);}.cls-80{fill:url(#New_Gradient_Swatch_7-79);}.cls-81{fill:url(#New_Gradient_Swatch_7-80);}.cls-82{fill:url(#New_Gradient_Swatch_7-81);}.cls-83{fill:url(#New_Gradient_Swatch_7-82);}.cls-84{fill:url(#New_Gradient_Swatch_7-83);}.cls-85{fill:url(#New_Gradient_Swatch_7-84);}.cls-86{fill:url(#New_Gradient_Swatch_7-85);}.cls-87{fill:url(#New_Gradient_Swatch_7-86);}.cls-88{fill:url(#New_Gradient_Swatch_7-87);}.cls-89{fill:url(#New_Gradient_Swatch_7-88);}.cls-90{fill:url(#New_Gradient_Swatch_7-89);}.cls-91{fill:url(#New_Gradient_Swatch_7-90);}.cls-92{fill:url(#New_Gradient_Swatch_7-91);}.cls-93{fill:url(#New_Gradient_Swatch_7-92);}.cls-94{fill:url(#New_Gradient_Swatch_7-93);}.cls-95{fill:url(#New_Gradient_Swatch_7-94);}.cls-96{fill:url(#New_Gradient_Swatch_7-95);}.cls-97{fill:url(#New_Gradient_Swatch_7-96);}.cls-98{fill:url(#New_Gradient_Swatch_7-97);}.cls-99{fill:url(#New_Gradient_Swatch_7-98);}.cls-100{fill:url(#New_Gradient_Swatch_7-99);}.cls-101{fill:url(#New_Gradient_Swatch_7-100);}.cls-102{fill:url(#New_Gradient_Swatch_7-101);}.cls-103{fill:url(#New_Gradient_Swatch_7-102);}.cls-104{fill:url(#New_Gradient_Swatch_7-103);}.cls-105{fill:url(#New_Gradient_Swatch_7-104);}.cls-106{fill:url(#New_Gradient_Swatch_7-105);}.cls-107{fill:url(#New_Gradient_Swatch_7-106);}.cls-108{fill:url(#New_Gradient_Swatch_7-107);}.cls-109{fill:url(#New_Gradient_Swatch_7-108);}.cls-110{fill:url(#New_Gradient_Swatch_7-109);}.cls-111{fill:url(#New_Gradient_Swatch_7-110);}.cls-112{fill:url(#New_Gradient_Swatch_7-111);}.cls-113{fill:url(#New_Gradient_Swatch_7-112);}.cls-114{fill:url(#New_Gradient_Swatch_7-113);}.cls-115{fill:url(#New_Gradient_Swatch_7-114);}.cls-116{fill:url(#New_Gradient_Swatch_7-115);}.cls-117{fill:url(#New_Gradient_Swatch_7-116);}.cls-118{fill:url(#New_Gradient_Swatch_7-117);}</style><linearGradient id="New_Gradient_Swatch_7" x1="14.92" y1="43.63" x2="313.41" y2="43.63" gradientUnits="userSpaceOnUse"><stop offset="0" stop-color="#fcdaff"/><stop offset="1" stop-color="#cf52fe"/></linearGradient><linearGradient id="New_Gradient_Swatch_7-2" x1="14.92" y1="134.13" x2="325.08" y2="134.13" xlink:href="#New_Gradient_Swatch_7"/><linearGradient id="New_Gradient_Swatch_7-3" x1="324.75" y1="70.36" x2="484.49" y2="70.36" xlink:href="#New_Gradient_Swatch_7"/><linearGradient id="New_Gradient_Swatch_7-4" x1="31.15" y1="23.37" x2="101.37" y2="23.37" xlink:href="#New_Gradient_Swatch_7"/><linearGradient id="New_Gradient_Swatch_7-5" x1="19.05" y1="125.27" x2="34.26" y2="125.27" xlink:href="#New_Gradient_Swatch_7"/><linearGradient id="New_Gradient_Swatch_7-6" x1="65.68" y1="137.93" x2="80.89" y2="137.93" xlink:href="#New_Gradient_Swatch_7"/><linearGradient id="New_Gradient_Swatch_7-7" x1="156.6" y1="36.89" x2="296.55" y2="36.89" xlink:href="#New_Gradient_Swatch_7"/><linearGradient id="New_Gradient_Swatch_7-8" x1="160.05" y1="31.76" x2="188.47" y2="31.76" xlink:href="#New_Gradient_Swatch_7"/><linearGradient id="New_Gradient_Swatch_7-9" x1="171.33" y1="31.86" x2="212.39" y2="31.86" xlink:href="#New_Gradient_Swatch_7"/><linearGradient id="New_Gradient_Swatch_7-10" x1="194.59" y1="31.86" x2="235.65" y2="31.86" xlink:href="#New_Gradient_Swatch_7"/><linearGradient id="New_Gradient_Swatch_7-11" x1="217.84" y1="31.86" x2="258.91" y2="31.86" xlink:href="#New_Gradient_Swatch_7"/><linearGradient id="New_Gradient_Swatch_7-12" x1="241.1" y1="31.86" x2="281.49" y2="31.86" xlink:href="#New_Gradient_Swatch_7"/><linearGradient id="New_Gradient_Swatch_7-13" x1="264.36" y1="33.73" x2="292.7" y2="33.73" xlink:href="#New_Gradient_Swatch_7"/><linearGradient id="New_Gradient_Swatch_7-14" x1="183.88" y1="146" x2="270.97" y2="146" xlink:href="#New_Gradient_Swatch_7"/><linearGradient id="New_Gradient_Swatch_7-15" x1="349.19" y1="81.24" x2="390.09" y2="81.24" xlink:href="#New_Gradient_Swatch_7"/><linearGradient id="New_Gradient_Swatch_7-16" x1="476.27" y1="79.76" x2="480.59" y2="79.76" xlink:href="#New_Gradient_Swatch_7"/><linearGradient id="New_Gradient_Swatch_7-17" x1="480.04" y1="11.36" x2="488.26" y2="11.36" xlink:href="#New_Gradient_Swatch_7"/><linearGradient id="New_Gradient_Swatch_7-18" x1="472.79" y1="11.36" x2="495.51" y2="11.36" xlink:href="#New_Gradient_Swatch_7"/><linearGradient id="New_Gradient_Swatch_7-19" x1="153.93" y1="43.37" x2="173.21" y2="43.37" xlink:href="#New_Gradient_Swatch_7"/><linearGradient id="New_Gradient_Swatch_7-20" x1="281.87" y1="46.41" x2="296.89" y2="46.41" xlink:href="#New_Gradient_Swatch_7"/><linearGradient id="New_Gradient_Swatch_7-21" x1="14.12" y1="51.36" x2="312.14" y2="51.36" xlink:href="#New_Gradient_Swatch_7"/><linearGradient id="New_Gradient_Swatch_7-22" x1="11.8" y1="71.18" x2="72.59" y2="71.18" xlink:href="#New_Gradient_Swatch_7"/><linearGradient id="New_Gradient_Swatch_7-23" x1="12.01" y1="82.88" x2="115.16" y2="82.88" xlink:href="#New_Gradient_Swatch_7"/><linearGradient id="New_Gradient_Swatch_7-24" x1="0" y1="112.91" x2="415.67" y2="112.91" xlink:href="#New_Gradient_Swatch_7"/><linearGradient id="New_Gradient_Swatch_7-25" x1="325.08" y1="134.66" x2="371.19" y2="134.66" xlink:href="#New_Gradient_Swatch_7"/><linearGradient id="New_Gradient_Swatch_7-26" x1="107.2" y1="86.79" x2="157.82" y2="86.79" xlink:href="#New_Gradient_Swatch_7"/><linearGradient id="New_Gradient_Swatch_7-27" x1="458.77" y1="104.97" x2="488.01" y2="104.97" xlink:href="#New_Gradient_Swatch_7"/><linearGradient id="New_Gradient_Swatch_7-28" x1="477.23" y1="111.11" x2="489.02" y2="111.11" xlink:href="#New_Gradient_Swatch_7"/><linearGradient id="New_Gradient_Swatch_7-29" x1="112.64" y1="63.75" x2="125.78" y2="63.75" xlink:href="#New_Gradient_Swatch_7"/><linearGradient id="New_Gradient_Swatch_7-30" x1="127.42" y1="63.75" x2="141.82" y2="63.75" xlink:href="#New_Gradient_Swatch_7"/><linearGradient id="New_Gradient_Swatch_7-31" x1="144.16" y1="63.75" x2="158.45" y2="63.75" xlink:href="#New_Gradient_Swatch_7"/><linearGradient id="New_Gradient_Swatch_7-32" x1="160.39" y1="63.75" x2="173.48" y2="63.75" xlink:href="#New_Gradient_Swatch_7"/><linearGradient id="New_Gradient_Swatch_7-33" x1="175.24" y1="63.75" x2="187.35" y2="63.75" xlink:href="#New_Gradient_Swatch_7"/><linearGradient id="New_Gradient_Swatch_7-34" x1="185.85" y1="63.75" x2="195.31" y2="63.75" xlink:href="#New_Gradient_Swatch_7"/><linearGradient id="New_Gradient_Swatch_7-35" x1="203.5" y1="63.75" x2="207.58" y2="63.75" xlink:href="#New_Gradient_Swatch_7"/><linearGradient id="New_Gradient_Swatch_7-36" x1="209.92" y1="63.75" x2="223.81" y2="63.75" xlink:href="#New_Gradient_Swatch_7"/><linearGradient id="New_Gradient_Swatch_7-37" x1="225.68" y1="63.75" x2="240.41" y2="63.75" xlink:href="#New_Gradient_Swatch_7"/><linearGradient id="New_Gradient_Swatch_7-38" x1="242.52" y1="63.75" x2="258.02" y2="63.75" xlink:href="#New_Gradient_Swatch_7"/><linearGradient id="New_Gradient_Swatch_7-39" x1="270.97" y1="63.75" x2="280.43" y2="63.75" xlink:href="#New_Gradient_Swatch_7"/><linearGradient id="New_Gradient_Swatch_7-40" x1="260.36" y1="63.75" x2="272.47" y2="63.75" xlink:href="#New_Gradient_Swatch_7"/><linearGradient id="New_Gradient_Swatch_7-41" x1="42.57" y1="102.89" x2="47.79" y2="102.89" xlink:href="#New_Gradient_Swatch_7"/><linearGradient id="New_Gradient_Swatch_7-42" x1="48.44" y1="102.89" x2="54.17" y2="102.89" xlink:href="#New_Gradient_Swatch_7"/><linearGradient id="New_Gradient_Swatch_7-43" x1="55.1" y1="102.89" x2="60.78" y2="102.89" xlink:href="#New_Gradient_Swatch_7"/><linearGradient id="New_Gradient_Swatch_7-44" x1="61.56" y1="102.89" x2="66.76" y2="102.89" xlink:href="#New_Gradient_Swatch_7"/><linearGradient id="New_Gradient_Swatch_7-45" x1="67.46" y1="102.89" x2="75.44" y2="102.89" xlink:href="#New_Gradient_Swatch_7"/><linearGradient id="New_Gradient_Swatch_7-46" x1="78.7" y1="102.89" x2="80.32" y2="102.89" xlink:href="#New_Gradient_Swatch_7"/><linearGradient id="New_Gradient_Swatch_7-47" x1="81.25" y1="102.89" x2="86.77" y2="102.89" xlink:href="#New_Gradient_Swatch_7"/><linearGradient id="New_Gradient_Swatch_7-48" x1="87.52" y1="102.89" x2="93.38" y2="102.89" xlink:href="#New_Gradient_Swatch_7"/><linearGradient id="New_Gradient_Swatch_7-49" x1="94.22" y1="102.89" x2="100.38" y2="102.89" xlink:href="#New_Gradient_Swatch_7"/><linearGradient id="New_Gradient_Swatch_7-50" x1="101.32" y1="102.89" x2="109.29" y2="102.89" xlink:href="#New_Gradient_Swatch_7"/><linearGradient id="New_Gradient_Swatch_7-51" x1="112.56" y1="102.89" x2="118.16" y2="102.89" xlink:href="#New_Gradient_Swatch_7"/><linearGradient id="New_Gradient_Swatch_7-52" x1="119.09" y1="102.89" x2="124.82" y2="102.89" xlink:href="#New_Gradient_Swatch_7"/><linearGradient id="New_Gradient_Swatch_7-53" x1="125.75" y1="102.89" x2="130.98" y2="102.89" xlink:href="#New_Gradient_Swatch_7"/><linearGradient id="New_Gradient_Swatch_7-54" x1="131.63" y1="102.89" x2="137.36" y2="102.89" xlink:href="#New_Gradient_Swatch_7"/><linearGradient id="New_Gradient_Swatch_7-55" x1="138.29" y1="102.89" x2="143.97" y2="102.89" xlink:href="#New_Gradient_Swatch_7"/><linearGradient id="New_Gradient_Swatch_7-56" x1="146.98" y1="102.89" x2="152.83" y2="102.89" xlink:href="#New_Gradient_Swatch_7"/><linearGradient id="New_Gradient_Swatch_7-57" x1="153.67" y1="102.89" x2="155.3" y2="102.89" xlink:href="#New_Gradient_Swatch_7"/><linearGradient id="New_Gradient_Swatch_7-58" x1="155.95" y1="102.89" x2="162.02" y2="102.89" xlink:href="#New_Gradient_Swatch_7"/><linearGradient id="New_Gradient_Swatch_7-59" x1="164.53" y1="102.89" x2="171.1" y2="102.89" xlink:href="#New_Gradient_Swatch_7"/><linearGradient id="New_Gradient_Swatch_7-60" x1="171.56" y1="102.89" x2="179.54" y2="102.89" xlink:href="#New_Gradient_Swatch_7"/><linearGradient id="New_Gradient_Swatch_7-61" x1="180.48" y1="102.89" x2="185.68" y2="102.89" xlink:href="#New_Gradient_Swatch_7"/><linearGradient id="New_Gradient_Swatch_7-62" x1="186.1" y1="102.89" x2="192.17" y2="102.89" xlink:href="#New_Gradient_Swatch_7"/><linearGradient id="New_Gradient_Swatch_7-63" x1="191.85" y1="106.04" x2="193.47" y2="106.04" xlink:href="#New_Gradient_Swatch_7"/><linearGradient id="New_Gradient_Swatch_7-64" x1="196.45" y1="102.89" x2="202.18" y2="102.89" xlink:href="#New_Gradient_Swatch_7"/><linearGradient id="New_Gradient_Swatch_7-65" x1="202.97" y1="102.89" x2="208.69" y2="102.89" xlink:href="#New_Gradient_Swatch_7"/><linearGradient id="New_Gradient_Swatch_7-66" x1="209.63" y1="102.9" x2="216.53" y2="102.9" xlink:href="#New_Gradient_Swatch_7"/><linearGradient id="New_Gradient_Swatch_7-67" x1="217.38" y1="102.89" x2="223.23" y2="102.89" xlink:href="#New_Gradient_Swatch_7"/><linearGradient id="New_Gradient_Swatch_7-68" x1="224.07" y1="102.89" x2="229.28" y2="102.89" xlink:href="#New_Gradient_Swatch_7"/><linearGradient id="New_Gradient_Swatch_7-69" x1="229.98" y1="102.89" x2="235.7" y2="102.89" xlink:href="#New_Gradient_Swatch_7"/><linearGradient id="New_Gradient_Swatch_7-70" x1="236.22" y1="102.89" x2="242.29" y2="102.89" xlink:href="#New_Gradient_Swatch_7"/><linearGradient id="New_Gradient_Swatch_7-71" x1="242.94" y1="102.89" x2="248.15" y2="102.89" xlink:href="#New_Gradient_Swatch_7"/><linearGradient id="New_Gradient_Swatch_7-72" x1="248.57" y1="102.89" x2="254.64" y2="102.89" xlink:href="#New_Gradient_Swatch_7"/><linearGradient id="New_Gradient_Swatch_7-73" x1="255.29" y1="102.89" x2="261.45" y2="102.89" xlink:href="#New_Gradient_Swatch_7"/><linearGradient id="New_Gradient_Swatch_7-74" x1="262.39" y1="102.89" x2="268.07" y2="102.89" xlink:href="#New_Gradient_Swatch_7"/><linearGradient id="New_Gradient_Swatch_7-75" x1="42.1" y1="114.06" x2="48.66" y2="114.06" xlink:href="#New_Gradient_Swatch_7"/><linearGradient id="New_Gradient_Swatch_7-76" x1="49.13" y1="114.06" x2="54.74" y2="114.06" xlink:href="#New_Gradient_Swatch_7"/><linearGradient id="New_Gradient_Swatch_7-77" x1="55.67" y1="114.06" x2="57.29" y2="114.06" xlink:href="#New_Gradient_Swatch_7"/><linearGradient id="New_Gradient_Swatch_7-78" x1="58.22" y1="114.06" x2="63.74" y2="114.06" xlink:href="#New_Gradient_Swatch_7"/><linearGradient id="New_Gradient_Swatch_7-79" x1="64.58" y1="114.06" x2="66.2" y2="114.06" xlink:href="#New_Gradient_Swatch_7"/><linearGradient id="New_Gradient_Swatch_7-80" x1="67.04" y1="114.06" x2="72.9" y2="114.06" xlink:href="#New_Gradient_Swatch_7"/><linearGradient id="New_Gradient_Swatch_7-81" x1="73.74" y1="114.06" x2="79.46" y2="114.06" xlink:href="#New_Gradient_Swatch_7"/><linearGradient id="New_Gradient_Swatch_7-82" x1="80.26" y1="114.06" x2="81.87" y2="114.06" xlink:href="#New_Gradient_Swatch_7"/><linearGradient id="New_Gradient_Swatch_7-83" x1="82.81" y1="114.08" x2="89.71" y2="114.08" xlink:href="#New_Gradient_Swatch_7"/><linearGradient id="New_Gradient_Swatch_7-84" x1="90.65" y1="114.06" x2="96.52" y2="114.06" xlink:href="#New_Gradient_Swatch_7"/><linearGradient id="New_Gradient_Swatch_7-85" x1="99.69" y1="114.06" x2="104.9" y2="114.06" xlink:href="#New_Gradient_Swatch_7"/><linearGradient id="New_Gradient_Swatch_7-86" x1="105.6" y1="114.06" x2="110.82" y2="114.06" xlink:href="#New_Gradient_Swatch_7"/><linearGradient id="New_Gradient_Swatch_7-87" x1="111.47" y1="114.06" x2="113.09" y2="114.06" xlink:href="#New_Gradient_Swatch_7"/><linearGradient id="New_Gradient_Swatch_7-88" x1="113.75" y1="114.06" x2="119.81" y2="114.06" xlink:href="#New_Gradient_Swatch_7"/><linearGradient id="New_Gradient_Swatch_7-89" x1="119.49" y1="117.22" x2="121.11" y2="117.22" xlink:href="#New_Gradient_Swatch_7"/><linearGradient id="New_Gradient_Swatch_7-90" x1="124" y1="114.06" x2="129.85" y2="114.06" xlink:href="#New_Gradient_Swatch_7"/><linearGradient id="New_Gradient_Swatch_7-91" x1="130.69" y1="114.06" x2="135.9" y2="114.06" xlink:href="#New_Gradient_Swatch_7"/><linearGradient id="New_Gradient_Swatch_7-92" x1="136.6" y1="114.06" x2="142.2" y2="114.06" xlink:href="#New_Gradient_Swatch_7"/><linearGradient id="New_Gradient_Swatch_7-93" x1="145.47" y1="114.06" x2="151.07" y2="114.06" xlink:href="#New_Gradient_Swatch_7"/><linearGradient id="New_Gradient_Swatch_7-94" x1="152" y1="114.06" x2="157.73" y2="114.06" xlink:href="#New_Gradient_Swatch_7"/><linearGradient id="New_Gradient_Swatch_7-95" x1="160.99" y1="114.06" x2="166.19" y2="114.06" xlink:href="#New_Gradient_Swatch_7"/><linearGradient id="New_Gradient_Swatch_7-96" x1="166.89" y1="114.06" x2="168.51" y2="114.06" xlink:href="#New_Gradient_Swatch_7"/><linearGradient id="New_Gradient_Swatch_7-97" x1="169.45" y1="114.06" x2="175.61" y2="114.06" xlink:href="#New_Gradient_Swatch_7"/><linearGradient id="New_Gradient_Swatch_7-98" x1="176.45" y1="114.06" x2="182.3" y2="114.06" xlink:href="#New_Gradient_Swatch_7"/><linearGradient id="New_Gradient_Swatch_7-99" x1="183.15" y1="114.06" x2="191.12" y2="114.06" xlink:href="#New_Gradient_Swatch_7"/><linearGradient id="New_Gradient_Swatch_7-100" x1="192.06" y1="114.06" x2="197.78" y2="114.06" xlink:href="#New_Gradient_Swatch_7"/><linearGradient id="New_Gradient_Swatch_7-101" x1="198.72" y1="114.06" x2="204.32" y2="114.06" xlink:href="#New_Gradient_Swatch_7"/><linearGradient id="New_Gradient_Swatch_7-102" x1="207.3" y1="114.06" x2="213.37" y2="114.06" xlink:href="#New_Gradient_Swatch_7"/><linearGradient id="New_Gradient_Swatch_7-103" x1="214.03" y1="114.06" x2="219.23" y2="114.06" xlink:href="#New_Gradient_Swatch_7"/><linearGradient id="New_Gradient_Swatch_7-104" x1="219.93" y1="114.06" x2="227.91" y2="114.06" xlink:href="#New_Gradient_Swatch_7"/><linearGradient id="New_Gradient_Swatch_7-105" x1="228.85" y1="114.06" x2="234.36" y2="114.06" xlink:href="#New_Gradient_Swatch_7"/><linearGradient id="New_Gradient_Swatch_7-106" x1="235.21" y1="114.06" x2="240.93" y2="114.06" xlink:href="#New_Gradient_Swatch_7"/><linearGradient id="New_Gradient_Swatch_7-107" x1="241.87" y1="114.06" x2="247.54" y2="114.06" xlink:href="#New_Gradient_Swatch_7"/><linearGradient id="New_Gradient_Swatch_7-108" x1="250.65" y1="114.06" x2="252.27" y2="114.06" xlink:href="#New_Gradient_Swatch_7"/><linearGradient id="New_Gradient_Swatch_7-109" x1="253.2" y1="114.08" x2="260.11" y2="114.08" xlink:href="#New_Gradient_Swatch_7"/><linearGradient id="New_Gradient_Swatch_7-110" x1="261.04" y1="114.06" x2="266.77" y2="114.06" xlink:href="#New_Gradient_Swatch_7"/><linearGradient id="New_Gradient_Swatch_7-111" x1="267.56" y1="114.06" x2="269.18" y2="114.06" xlink:href="#New_Gradient_Swatch_7"/><linearGradient id="New_Gradient_Swatch_7-112" x1="270.11" y1="114.06" x2="275.72" y2="114.06" xlink:href="#New_Gradient_Swatch_7"/><linearGradient id="New_Gradient_Swatch_7-113" x1="276.65" y1="114.06" x2="278.27" y2="114.06" xlink:href="#New_Gradient_Swatch_7"/><linearGradient id="New_Gradient_Swatch_7-114" x1="279.2" y1="114.06" x2="284.8" y2="114.06" xlink:href="#New_Gradient_Swatch_7"/><linearGradient id="New_Gradient_Swatch_7-115" x1="285.74" y1="114.06" x2="291.9" y2="114.06" xlink:href="#New_Gradient_Swatch_7"/><linearGradient id="New_Gradient_Swatch_7-116" x1="292.83" y1="114.08" x2="299.74" y2="114.08" xlink:href="#New_Gradient_Swatch_7"/><linearGradient id="New_Gradient_Swatch_7-117" x1="300.4" y1="114.06" x2="306.47" y2="114.06" xlink:href="#New_Gradient_Swatch_7"/></defs><title>title_06_purple</title><g id="Layer_2" data-name="Layer 2"><g id="Layer_1-2" data-name="Layer 1"><polygon class="cls-1" points="312.93 70.27 300.84 58.17 300.84 37.82 280.68 17.66 169.82 17.66 165.68 21.8 35.09 21.8 15.4 41.5 14.92 41.02 34.81 21.13 165.4 21.13 169.54 16.99 280.96 16.99 301.51 37.54 301.51 57.89 313.41 69.79 312.93 70.27"/><polygon class="cls-2" points="315.4 149.28 277.13 149.28 268.16 140.3 69.64 140.3 56.84 127.5 22.96 127.5 14.92 119.46 15.4 118.99 23.24 126.83 57.12 126.83 69.92 139.63 268.44 139.63 277.41 148.6 315.12 148.6 324.41 139.31 324.41 128.4 325.08 128.4 325.08 139.59 315.4 149.28"/><polygon class="cls-3" points="484.49 109.02 419.05 109.02 387.01 76.98 324.75 76.98 324.75 76.31 387.29 76.31 419.33 108.34 483.82 108.34 483.82 31.7 484.49 31.7 484.49 109.02"/><polygon class="cls-4" points="31.15 25.27 97.56 25.27 101.37 21.47 34.95 21.47 31.15 25.27"/><path class="cls-5" d="M19.05,123.12h11s4.73,4.17,4.16,4.17-10.8.31-11.11,0Z"/><path class="cls-6" d="M65.68,135.78h11S81.4,140,80.84,140s-10.8.31-11.12,0Z"/><polygon class="cls-7" points="290.46 46.63 162.05 46.63 156.6 41.17 156.6 32.62 162.07 27.16 162.54 27.63 157.27 32.9 157.27 40.9 162.33 45.95 290.19 45.95 296.07 40.07 296.55 40.55 290.46 46.63"/><polygon class="cls-8" points="173.65 20.04 160.05 33.65 160.05 39.08 164.64 43.68 188.47 19.85 173.65 20.04"/><path class="cls-9" d="M171.33,43.68,195,20.05h17.43c-.11,0-23.56,23.57-23.56,23.57Z"/><path class="cls-10" d="M194.59,43.68l23.62-23.63h17.44c-.11,0-23.57,23.57-23.57,23.57Z"/><path class="cls-11" d="M217.84,43.68l23.63-23.63h17.44c-.11,0-23.57,23.57-23.57,23.57Z"/><path class="cls-12" d="M241.1,43.68l23.63-23.63h16.76c-.11,0-22.89,23.57-22.89,23.57Z"/><path class="cls-13" d="M284.25,23.78l-19.89,19.9,17.49-.06L292.7,32.73Z"/><polyline class="cls-14" points="183.88 144.27 267.52 144.27 270.97 147.72"/><polyline class="cls-15" points="349.19 79.27 386.15 79.27 390.09 83.22"/><polyline class="cls-16" points="476.27 104.36 480.59 104.36 480.59 55.16"/><circle class="cls-17" cx="484.15" cy="11.36" r="4.11"/><path class="cls-18" d="M484.15,22.73a11.37,11.37,0,1,1,11.36-11.37A11.38,11.38,0,0,1,484.15,22.73Zm0-22.06a10.69,10.69,0,1,0,10.69,10.69A10.71,10.71,0,0,0,484.15.67Z"/><polygon class="cls-19" points="173.21 49.69 160.95 49.69 153.93 42.67 153.93 37.05 154.6 37.05 154.6 42.39 161.23 49.02 173.21 49.02 173.21 49.69"/><polygon class="cls-20" points="291.65 49.27 281.87 49.27 281.87 48.59 291.38 48.59 296.41 43.56 296.89 44.03 291.65 49.27"/><g class="cls-21"><polygon class="cls-22" points="14.12 48.96 34.55 28.53 99.63 28.53 104 24.17 160.23 24.17 153.46 30.94 151.85 30.94 151.85 44.2 159.7 52.05 179.39 52.05 182.18 49.26 278.31 49.26 282.04 52.99 293.39 52.99 297.02 49.37 298.89 49.37 298.89 59.29 312.14 72.54 306.13 78.56 60.62 78.56 55.35 73.29 14.12 73.29 14.12 48.96"/></g><polygon class="cls-23" points="13.94 63.76 11.79 65.9 11.79 76.13 57.92 76.13 60.39 78.6 72.59 78.6 70.29 76.3 61.5 76.3 56.17 70.98 43.56 70.98 41.61 69.03 19.57 69.03 17.52 66.98 15.66 66.98 15.66 64.71 13.94 63.76"/><polygon class="cls-24" points="12.01 79.99 58.53 79.99 60.95 82.4 81.08 82.4 84.89 78.6 115.16 78.6 112.8 80.95 112.8 84.18 109.83 87.16 50.87 87.16 48.38 84.67 16.26 84.67 12.01 79.99"/><g class="cls-21"><polygon class="cls-25" points="0 84.97 6.49 84.97 10.18 81.28 15.57 86.67 46.23 86.67 49.08 89.53 111.4 89.53 116.07 84.86 116.07 82.33 117.24 81.16 306.17 81.16 308.79 83.78 343.47 83.78 346.56 80.69 350.4 80.69 393.16 86.87 415.67 109.37 415.67 120.84 391.63 144.88 332.73 144.88 332.73 124.46 320.52 124.46 320.52 136.27 311.65 145.14 278.53 145.14 268.19 134.81 82.6 134.81 78.98 131.19 66.26 131.19 57.98 122.91 34.26 122.91 30.89 119.54 19.53 119.54 13.54 113.55 6.74 113.55 0.03 106.85 0 84.97"/></g><polygon class="cls-26" points="325.08 124.46 327.49 122.05 335.12 122.05 335.12 142.57 354.21 142.57 354.57 142.93 369.34 142.93 371.19 144.79 370.04 145.94 349.72 145.94 348.39 147.26 337.22 147.26 335.87 145.92 331.61 145.92 331.61 133.63 332.65 132.59 332.65 127.19 330.71 125.25 326.14 125.25 325.08 124.46"/><polygon class="cls-27" points="111.4 89.53 116.07 84.86 116.07 82.33 117.24 81.16 157.82 81.16 156.86 82.13 138.64 82.13 136.75 84.02 120.95 84.02 118.36 86.61 118.36 88.47 114.4 92.42 108.21 92.42 107.2 91.42 107.2 89.71 111.4 89.53"/><polygon class="cls-28" points="488.01 112.53 458.77 112.53 458.77 111.95 487.43 111.95 487.43 97.4 488.01 97.4 488.01 112.53"/><polygon class="cls-29" points="487.72 108.23 489.02 109.53 489.02 114 479.12 114 477.23 112.1 487.6 112.1 487.72 108.23"/><polygon class="cls-30" points="116.72 55.3 112.64 55.3 112.64 72.21 115.84 72.21 116.72 72.21 125.78 72.21 125.78 68.46 116.72 68.46 116.72 55.3"/><path class="cls-31" d="M136.37,55.3h-7.55L127.42,57V70.45l1.4,1.76h11.6l1.4-1.73V57l-1.4-1.69Zm1.73,13.16h-6.61V59.05h6.61Z"/><path class="cls-32" d="M158.05,63.78V57l-1.4-1.69H144.16V72.21h4.08V66.45H153l1.38,5.76h4l-1.57-7ZM154,62.7h-5.74V59.05H154Z"/><polygon class="cls-33" points="165.64 55.3 160.39 55.3 160.39 72.21 165.64 72.21 166.27 72.21 173.48 72.21 173.48 68.46 166.27 68.46 166.27 65.51 171.63 65.51 171.63 61.76 166.27 61.76 166.27 59.05 173.48 59.05 173.48 55.3 166.27 55.3 165.64 55.3"/><polygon class="cls-34" points="175.24 55.3 175.24 58.17 175.24 59.05 175.24 72.21 179.31 72.21 179.31 59.05 183.76 70.22 186.78 70.22 187.34 68.84 182.08 55.3 175.24 55.3"/><polygon class="cls-35" points="185.85 62 187.93 67.36 191.23 59.05 191.23 72.21 195.31 72.21 195.31 55.3 188.47 55.3 185.85 62"/><rect class="cls-36" x="203.5" y="55.3" width="4.07" height="16.91"/><path class="cls-37" d="M214,55.3h-4.07V72.21H214V66.45h8.41l1.41-1.74V57L222.4,55.3Zm5.74,7.4H214V59.05h5.74Z"/><polygon class="cls-38" points="233.74 55.3 233.43 55.3 227.08 55.3 225.68 57.01 225.68 63.38 226.99 65 236.34 65.89 236.34 68.46 234.25 68.46 233.45 68.46 229.75 68.46 229.75 66.75 225.68 66.75 225.68 70.52 227.08 72.21 233.45 72.21 234.25 72.21 239 72.21 240.41 70.5 240.41 63.75 239.45 62.23 229.75 61.27 229.75 59.05 233.43 59.05 233.74 59.05 236.34 59.05 236.34 60.66 240.41 60.66 240.41 56.99 239 55.3 233.74 55.3"/><polygon class="cls-39" points="253.94 68.46 251.45 68.46 250.64 68.46 246.59 68.46 246.59 55.3 242.52 55.3 242.52 70.45 243.92 72.21 250.64 72.21 251.45 72.21 256.62 72.21 258.02 70.48 258.02 55.3 253.94 55.3 253.94 68.46"/><polygon class="cls-40" points="273.59 55.3 270.97 62 273.05 67.36 276.36 59.05 276.36 72.21 280.43 72.21 280.43 55.3 273.59 55.3"/><polygon class="cls-41" points="260.36 55.3 260.36 58.26 260.36 59.05 260.36 72.21 264.44 72.21 264.44 59.05 268.89 70.22 271.91 70.22 272.47 68.84 267.2 55.3 260.36 55.3"/><path class="cls-42" d="M42.57,106.25V99.53h1.62v6.72Zm2.08,0v-1.49h3.14v1.49Z"/><path class="cls-43" d="M49,99.53h2.07V101h-1v3.74h1v1.49H49l-.56-.7v-5.34ZM51.54,101V99.53h2.07l.56.67v5.36l-.56.69H51.54v-1.49h1.15V101Z"/><path class="cls-44" d="M55.1,106.25V99.53h1.62v6.72ZM57.19,101V99.53h2.88l.55.67v2.7l-.46.57.62,2.78H59.17L58.62,104H57.19v-1.49H59V101Z"/><path class="cls-45" d="M61.56,106.25V99.53h1.62v6.72ZM63.64,101V99.53h3.12V101Zm0,2.57V102.1H66v1.49Zm0,2.66v-1.49h3.12v1.49Z"/><path class="cls-46" d="M72.28,104.91l-.23.55h-1.2L69.08,101H67.46V99.53h2.72Zm-3.2-2.6v3.94H67.46v-4.77h1.2Zm2.6-.12,1-2.66h2.72v6.72H73.82V101l-1.31,3.3Z"/><path class="cls-47" d="M78.7,106.25V99.53h1.62v6.72Z"/><path class="cls-48" d="M81.25,106.25V99.53h1.63v6.72ZM83.34,101V99.53h2.88l.55.67v3.07l-.55.69H83.34v-1.49h1.82V101Z"/><path class="cls-49" d="M88.08,99.53h2.06V101h-1v.88l3.85.38.39.61v2.68l-.56.68H90.61v-1.49h1.15v-1L88,103.38l-.52-.64v-2.53Zm1.06,5.23h1v1.49H88.08l-.56-.67v-1.5h1.62ZM90.6,101V99.53h2.22l.56.67v1.46H91.76V101Z"/><path class="cls-50" d="M97,104.76v1.49h-2.2l-.56-.7v-6h1.62v5.23Zm2.84,1.49H97.45v-1.49h1.31V99.53h1.62v6Z"/><path class="cls-51" d="M106.13,104.91l-.23.55h-1.2L102.94,101h-1.62V99.53H104Zm-3.19-2.6v3.94h-1.62v-4.77h1.2Zm2.59-.12,1-2.66h2.72v6.72h-1.62V101l-1.31,3.3Z"/><path class="cls-52" d="M114.18,99.53v6.72h-1.62V99.53Zm.46,1.49V99.53h3l.56.67v5.36l-.56.69h-3v-1.49h1.9V101Z"/><path class="cls-53" d="M119.65,99.53h2.07V101h-1v3.74h1v1.49h-2.07l-.56-.7v-5.34Zm2.54,1.49V99.53h2.07l.56.67v5.36l-.56.69h-2.07v-1.49h1.15V101Z"/><path class="cls-54" d="M125.75,106.25V99.53h1.62v6.72Zm2.09,0v-1.49H131v1.49Z"/><path class="cls-55" d="M132.19,99.53h2.07V101h-1v3.74h1v1.49h-2.07l-.56-.7v-5.34Zm2.53,1.49V99.53h2.08l.56.67v5.36l-.56.69h-2.08v-1.49h1.15V101Z"/><path class="cls-56" d="M138.29,106.25V99.53h1.62v6.72Zm2.08-5.23V99.53h2.88l.56.67v2.7l-.47.57.63,2.78h-1.61l-.55-2.29h-1.44v-1.49h1.82V101Z"/><path class="cls-57" d="M147.54,99.53h2.05V101h-1v.88l3.85.38.38.61v2.68l-.55.68h-2.21v-1.49h1.14v-1l-3.71-.35-.52-.64v-2.53Zm1.06,5.23h1v1.49h-2.05l-.56-.67v-1.5h1.62Zm1.46-3.74V99.53h2.22l.55.67v1.46h-1.62V101Z"/><path class="cls-58" d="M153.67,106.25V99.53h1.63v6.72Z"/><path class="cls-59" d="M156,99.53H162V101H156Zm2.23,6.72v-4.77h1.62v4.77Z"/><path class="cls-60" d="M166.08,106.25h-1.55l1.67-4.77h1.16l.2.54Zm1.73-3.28h.61l-.7-2h-1.35l.52-1.49h1.85l2.36,6.72h-1.53l-.63-1.79h-1.65Z"/><path class="cls-61" d="M176.38,104.91l-.23.55H175L173.18,101h-1.62V99.53h2.72Zm-3.2-2.6v3.94h-1.62v-4.77h1.21Zm2.6-.12,1-2.66h2.72v6.72h-1.62V101l-1.31,3.3Z"/><path class="cls-62" d="M180.48,106.25V99.53h1.62v6.72Zm2.08-5.23V99.53h3.12V101Zm0,2.57V102.1H185v1.49Zm0,2.66v-1.49h3.12v1.49Z"/><path class="cls-63" d="M186.1,99.53h6.07V101H186.1Zm2.24,6.72v-4.77H190v4.77Z"/><path class="cls-64" d="M192.65,107.33h0v-1.08h-.76v-1.49h1.62v1.49Z"/><path class="cls-65" d="M197,99.53h2.07V101h-1v3.74h1v1.49H197l-.56-.7v-5.34Zm2.53,1.49V99.53h2.08l.56.67V102h-1.49v-1Zm0,5.23v-1.49h1.15v-1h1.49v1.79l-.56.69Z"/><path class="cls-66" d="M203.53,99.53h2.06V101h-1v3.74h1v1.49h-2.06l-.56-.7v-5.34Zm2.53,1.49V99.53h2.08l.55.67v5.36l-.55.69h-2.08v-1.49h1.15V101Z"/><path class="cls-67" d="M214,106.28,211.25,101h-1.62V99.53h2.62l2.67,5.23h1.61v1.52Zm-2.73-4v4h-1.62v-4.77h1.19Zm3.67,1.24v-4h1.61v4.76h-1.21Z"/><path class="cls-68" d="M217.94,99.53H220V101h-1v.88l3.85.38.38.61v2.68l-.56.68h-2.2v-1.49h1.14v-1l-3.71-.35-.52-.64v-2.53Zm1.06,5.23h1v1.49h-2.05l-.56-.67v-1.5H219Zm1.46-3.74V99.53h2.21l.56.67v1.46h-1.62V101Z"/><path class="cls-69" d="M224.07,106.25V99.53h1.62v6.72Zm2.09-5.23V99.53h3.12V101Zm0,2.57V102.1h2.38v1.49Zm0,2.66v-1.49h3.12v1.49Z"/><path class="cls-70" d="M230.53,99.53h2.07V101h-1v3.74h1v1.49h-2.07l-.55-.7v-5.34Zm2.54,1.49V99.53h2.07l.56.67V102h-1.48v-1Zm0,5.23v-1.49h1.15v-1h1.48v1.79l-.56.69Z"/><path class="cls-71" d="M236.22,99.53h6.07V101h-6.07Zm2.23,6.72v-4.77h1.62v4.77Z"/><path class="cls-72" d="M242.94,106.25V99.53h1.62v6.72ZM245,101V99.53h3.12V101Zm0,2.57V102.1h2.38v1.49Zm0,2.66v-1.49h3.12v1.49Z"/><path class="cls-73" d="M248.57,99.53h6.07V101h-6.07Zm2.23,6.72v-4.77h1.62v4.77Z"/><path class="cls-74" d="M258.06,104.76v1.49h-2.21l-.56-.7v-6h1.62v5.23Zm2.84,1.49h-2.38v-1.49h1.31V99.53h1.62v6Z"/><path class="cls-75" d="M262.39,106.25V99.53H264v6.72Zm2.08-5.23V99.53h2.88l.56.67v2.7l-.47.57.63,2.78h-1.62l-.54-2.29h-1.44v-1.49h1.82V101Z"/><path class="cls-76" d="M43.65,117.42H42.1l1.67-4.76h1.15l.21.54Zm1.73-3.27H46l-.69-2H43.94l.52-1.49h1.85l2.35,6.72H47.14l-.63-1.78H44.86Z"/><path class="cls-77" d="M50.75,110.7v6.72H49.13V110.7Zm.47,1.49V110.7h3l.56.67v5.37l-.56.68h-3v-1.49h1.9v-3.74Z"/><path class="cls-78" d="M55.67,117.42V110.7h1.62v6.72Z"/><path class="cls-79" d="M58.22,117.42V110.7h1.62v6.72Zm2.09-5.23V110.7h2.87l.56.67v3.08l-.56.68H60.31v-1.48h1.81v-1.46Z"/><path class="cls-80" d="M64.58,117.42V110.7H66.2v6.72Z"/><path class="cls-81" d="M67.6,110.7h2.06v1.49h-1v.89l3.85.38.39.6v2.68l-.56.68H70.13v-1.49h1.15v-1l-3.72-.35-.52-.64v-2.54Zm1.06,5.23h1v1.49H67.6l-.56-.67v-1.49h1.62Zm1.46-3.74V110.7h2.22l.56.67v1.47H71.28v-.65Z"/><path class="cls-82" d="M74.29,110.7h2.07v1.49h-1v3.74h1v1.49H74.29l-.55-.69v-5.35Zm2.54,1.49V110.7H78.9l.56.67v1.82H78v-1Zm0,5.23v-1.49H78v-1h1.48v1.79l-.56.68Z"/><path class="cls-83" d="M80.26,117.42V110.7h1.61v6.72Z"/><path class="cls-84" d="M87.16,117.45l-2.73-5.26H82.81V110.7h2.62l2.66,5.23h1.62v1.52Zm-2.73-4v4H82.81v-4.76H84Zm3.66,1.24v-4h1.62v4.77H88.5Z"/><path class="cls-85" d="M92.27,115.93h1.07v1.49H91.21l-.56-.69v-5.35l.56-.68h2.13v1.49H92.27Zm4.25.81-.56.68H93.8v-1.49H95v-1.1H93.69v-1.49h2.83Zm-2.72-4.55V110.7H96l.56.67v1.44H95v-.62Z"/><path class="cls-86" d="M99.69,117.42V110.7h1.62v6.72Zm2.09-5.23V110.7h3.12v1.49Zm0,2.57v-1.49h2.38v1.49Zm0,2.66v-1.49h3.12v1.49Z"/><path class="cls-87" d="M105.6,117.42V110.7h1.62v6.72Zm2.08,0v-1.49h3.14v1.49Z"/><path class="cls-88" d="M111.47,117.42V110.7h1.62v6.72Z"/><path class="cls-89" d="M113.75,110.7h6.06v1.49h-6.06Zm2.23,6.72v-4.76h1.62v4.76Z"/><path class="cls-90" d="M120.29,118.5h0v-1.08h-.76v-1.49h1.62v1.49Z"/><path class="cls-91" d="M124.56,110.7h2v1.49h-1v.89l3.85.38.38.6v2.68l-.55.68h-2.21v-1.49h1.14v-1l-3.71-.35-.52-.64v-2.54Zm1.06,5.23h1v1.49h-2l-.56-.67v-1.49h1.62Zm1.46-3.74V110.7h2.22l.55.67v1.47h-1.62v-.65Z"/><path class="cls-92" d="M130.69,117.42V110.7h1.63v6.72Zm2.09-5.23V110.7h3.12v1.49Zm0,2.57v-1.49h2.38v1.49Zm0,2.66v-1.49h3.12v1.49Z"/><path class="cls-93" d="M138.22,110.7v6.72H136.6V110.7Zm.46,1.49V110.7h3l.56.67v5.37l-.56.68h-3v-1.49h1.9v-3.74Z"/><path class="cls-94" d="M147.09,110.7v6.72h-1.62V110.7Zm.46,1.49V110.7h3l.56.67v5.37l-.56.68h-3v-1.49h1.9v-3.74Z"/><path class="cls-95" d="M152.56,110.7h2.07v1.49h-1v3.74h1v1.49h-2.07l-.56-.69v-5.35Zm2.53,1.49V110.7h2.08l.56.67v5.37l-.56.68h-2.08v-1.49h1.16v-3.74Z"/><path class="cls-96" d="M161,117.42V110.7h1.62v6.72Zm2.09-5.23V110.7h3.11v1.49Zm0,2.57v-1.49h2.38v1.49Zm0,2.66v-1.49h3.11v1.49Z"/><path class="cls-97" d="M166.89,117.42V110.7h1.62v6.72Z"/><path class="cls-98" d="M172.21,115.93v1.49H170l-.55-.69v-6h1.62v5.23Zm2.84,1.49h-2.37v-1.49H174V110.7h1.62v6Z"/><path class="cls-99" d="M177,110.7h2.05v1.49h-1v.89l3.85.38.38.6v2.68l-.55.68h-2.21v-1.49h1.15v-1l-3.72-.35-.52-.64v-2.54Zm1.06,5.23h1v1.49H177l-.56-.67v-1.49h1.62Zm1.46-3.74V110.7h2.22l.55.67v1.47h-1.61v-.65Z"/><path class="cls-100" d="M188,116.08l-.23.55h-1.2l-1.76-4.44h-1.62V110.7h2.71Zm-3.19-2.59v3.93h-1.62v-4.76h1.2Zm2.59-.12,1-2.67h2.72v6.72H189.5v-5.23l-1.31,3.31Z"/><path class="cls-101" d="M192.62,110.7h2.06v1.49h-1v3.74h1v1.49h-2.06l-.56-.69v-5.35Zm2.53,1.49V110.7h2.07l.56.67v5.37l-.56.68h-2.07v-1.49h1.15v-3.74Z"/><path class="cls-102" d="M200.34,110.7v6.72h-1.62V110.7Zm.46,1.49V110.7h3l.56.67v5.37l-.56.68h-3v-1.49h1.9v-3.74Z"/><path class="cls-103" d="M207.3,110.7h6.07v1.49H207.3Zm2.24,6.72v-4.76h1.62v4.76Z"/><path class="cls-104" d="M214,117.42V110.7h1.62v6.72Zm2.08-5.23V110.7h3.12v1.49Zm0,2.57v-1.49h2.39v1.49Zm0,2.66v-1.49h3.12v1.49Z"/><path class="cls-105" d="M224.75,116.08l-.23.55h-1.2l-1.77-4.44h-1.62V110.7h2.72Zm-3.2-2.59v3.93h-1.62v-4.76h1.2Zm2.6-.12,1-2.67h2.72v6.72h-1.62v-5.23L225,115.5Z"/><path class="cls-106" d="M228.85,117.42V110.7h1.61v6.72Zm2.08-5.23V110.7h2.88l.55.67v3.08l-.55.68h-2.88v-1.48h1.82v-1.46Z"/><path class="cls-107" d="M235.76,110.7h2.07v1.49h-1v3.74h1v1.49h-2.07l-.55-.69v-5.35Zm2.54,1.49V110.7h2.07l.56.67v5.37l-.56.68H238.3v-1.49h1.15v-3.74Z"/><path class="cls-108" d="M241.87,117.42V110.7h1.62v6.72Zm2.08-5.23V110.7h2.88l.55.67v2.7l-.46.58.62,2.77h-1.61l-.55-2.29H244v-1.48h1.82v-1.46Z"/><path class="cls-109" d="M250.65,117.42V110.7h1.62v6.72Z"/><path class="cls-110" d="M257.56,117.45l-2.74-5.26H253.2V110.7h2.62l2.67,5.23h1.62v1.52Zm-2.74-4v4H253.2v-4.76h1.19Zm3.67,1.24v-4h1.62v4.77H258.9Z"/><path class="cls-111" d="M261.6,110.7h2.07v1.49h-1v3.74h1v1.49H261.6l-.56-.69v-5.35Zm2.53,1.49V110.7h2.08l.56.67v1.82h-1.49v-1Zm0,5.23v-1.49h1.15v-1h1.49v1.79l-.56.68Z"/><path class="cls-112" d="M267.56,117.42V110.7h1.62v6.72Z"/><path class="cls-113" d="M271.73,110.7v6.72h-1.62V110.7Zm.47,1.49V110.7h3l.56.67v5.37l-.56.68h-3v-1.49h1.89v-3.74Z"/><path class="cls-114" d="M276.65,117.42V110.7h1.62v6.72Z"/><path class="cls-115" d="M280.82,110.7v6.72H279.2V110.7Zm.47,1.49V110.7h2.95l.56.67v5.37l-.56.68h-2.95v-1.49h1.89v-3.74Z"/><path class="cls-116" d="M288.5,115.93v1.49h-2.2l-.56-.69v-6h1.62v5.23Zm2.84,1.49H289v-1.49h1.31V110.7h1.62v6Z"/><path class="cls-117" d="M297.19,117.45l-2.74-5.26h-1.62V110.7h2.63l2.66,5.23h1.62v1.52Zm-2.74-4v4h-1.62v-4.76H294Zm3.67,1.24v-4h1.62v4.77h-1.21Z"/><path class="cls-118" d="M300.4,110.7h6.07v1.49H300.4Zm2.23,6.72v-4.76h1.62v4.76Z"/></g></g></svg>