<svg xmlns="http://www.w3.org/2000/svg" xmlns:xlink="http://www.w3.org/1999/xlink" viewBox="0 0 498.52 199.29"><defs><style>.cls-1{fill:url(#New_Gradient_Swatch_1);}.cls-2{fill:url(#New_Gradient_Swatch_1-2);}.cls-3{fill:url(#New_Gradient_Swatch_1-3);}.cls-4{fill:url(#New_Gradient_Swatch_1-4);}.cls-5{fill:url(#New_Gradient_Swatch_1-5);}.cls-6{fill:url(#New_Gradient_Swatch_1-6);}.cls-7{fill:url(#New_Gradient_Swatch_1-7);}.cls-8{fill:url(#New_Gradient_Swatch_1-8);}.cls-9{fill:url(#New_Gradient_Swatch_1-9);}.cls-10{fill:url(#New_Gradient_Swatch_1-10);}.cls-11{fill:url(#New_Gradient_Swatch_1-11);}.cls-12{fill:url(#New_Gradient_Swatch_1-12);}.cls-13{fill:url(#New_Gradient_Swatch_1-13);}.cls-14{fill:url(#New_Gradient_Swatch_1-14);}.cls-15{fill:url(#New_Gradient_Swatch_1-15);}.cls-16{fill:url(#New_Gradient_Swatch_1-16);}.cls-17{fill:url(#New_Gradient_Swatch_1-17);}.cls-18{fill:url(#New_Gradient_Swatch_1-18);}.cls-19{fill:url(#New_Gradient_Swatch_1-19);}.cls-20{fill:url(#New_Gradient_Swatch_1-20);}.cls-21{fill:url(#New_Gradient_Swatch_1-21);}.cls-22{fill:url(#New_Gradient_Swatch_1-22);}.cls-23{fill:url(#New_Gradient_Swatch_1-23);}.cls-24{fill:url(#New_Gradient_Swatch_1-24);}.cls-25{fill:url(#New_Gradient_Swatch_1-25);}.cls-26{fill:url(#New_Gradient_Swatch_1-26);}.cls-27{opacity:0.15;}.cls-28{fill:url(#New_Gradient_Swatch_1-27);}.cls-29{fill:url(#New_Gradient_Swatch_1-28);}.cls-30{fill:url(#New_Gradient_Swatch_1-29);}.cls-31{fill:url(#New_Gradient_Swatch_1-30);}.cls-32{fill:url(#New_Gradient_Swatch_1-31);}.cls-33{fill:url(#New_Gradient_Swatch_1-32);}.cls-34{fill:url(#New_Gradient_Swatch_1-33);}.cls-35{fill:url(#New_Gradient_Swatch_1-34);}.cls-36{fill:url(#New_Gradient_Swatch_1-35);}.cls-37{fill:url(#New_Gradient_Swatch_1-36);}.cls-38{fill:url(#New_Gradient_Swatch_1-37);}.cls-39{fill:url(#New_Gradient_Swatch_1-38);}.cls-40{fill:url(#New_Gradient_Swatch_1-39);}.cls-41{fill:url(#New_Gradient_Swatch_1-40);}.cls-42{fill:url(#New_Gradient_Swatch_1-41);}.cls-43{fill:url(#New_Gradient_Swatch_1-42);}.cls-44{fill:url(#New_Gradient_Swatch_1-43);}.cls-45{fill:url(#New_Gradient_Swatch_1-44);}.cls-46{fill:url(#New_Gradient_Swatch_1-45);}.cls-47{fill:url(#New_Gradient_Swatch_1-46);}.cls-48{fill:url(#New_Gradient_Swatch_1-47);}.cls-49{fill:url(#New_Gradient_Swatch_1-48);}.cls-50{fill:url(#New_Gradient_Swatch_1-49);}.cls-51{fill:url(#New_Gradient_Swatch_1-50);}.cls-52{fill:url(#New_Gradient_Swatch_1-51);}.cls-53{fill:url(#New_Gradient_Swatch_1-52);}.cls-54{fill:url(#New_Gradient_Swatch_1-53);}.cls-55{fill:url(#New_Gradient_Swatch_1-54);}.cls-56{fill:url(#New_Gradient_Swatch_1-55);}.cls-57{fill:url(#New_Gradient_Swatch_1-56);}.cls-58{fill:url(#New_Gradient_Swatch_1-57);}.cls-59{fill:url(#New_Gradient_Swatch_1-58);}.cls-60{fill:url(#New_Gradient_Swatch_1-59);}.cls-61{fill:url(#New_Gradient_Swatch_1-60);}.cls-62{fill:url(#New_Gradient_Swatch_1-61);}.cls-63{fill:url(#New_Gradient_Swatch_1-62);}.cls-64{fill:url(#New_Gradient_Swatch_1-63);}.cls-65{fill:url(#New_Gradient_Swatch_1-64);}.cls-66{fill:url(#New_Gradient_Swatch_1-65);}.cls-67{fill:url(#New_Gradient_Swatch_1-66);}.cls-68{fill:url(#New_Gradient_Swatch_1-67);}.cls-69{fill:url(#New_Gradient_Swatch_1-68);}.cls-70{fill:url(#New_Gradient_Swatch_1-69);}.cls-71{fill:url(#New_Gradient_Swatch_1-70);}.cls-72{fill:url(#New_Gradient_Swatch_1-71);}.cls-73{fill:url(#New_Gradient_Swatch_1-72);}.cls-74{fill:url(#New_Gradient_Swatch_1-73);}.cls-75{fill:url(#New_Gradient_Swatch_1-74);}.cls-76{fill:url(#New_Gradient_Swatch_1-75);}.cls-77{fill:url(#New_Gradient_Swatch_1-76);}.cls-78{fill:url(#New_Gradient_Swatch_1-77);}.cls-79{fill:url(#New_Gradient_Swatch_1-78);}.cls-80{fill:url(#New_Gradient_Swatch_1-79);}.cls-81{fill:url(#New_Gradient_Swatch_1-80);}.cls-82{fill:url(#New_Gradient_Swatch_1-81);}.cls-83{fill:url(#New_Gradient_Swatch_1-82);}.cls-84{fill:url(#New_Gradient_Swatch_1-83);}.cls-85{fill:url(#New_Gradient_Swatch_1-84);}.cls-86{fill:url(#New_Gradient_Swatch_1-85);}.cls-87{fill:url(#New_Gradient_Swatch_1-86);}.cls-88{fill:url(#New_Gradient_Swatch_1-87);}.cls-89{fill:url(#New_Gradient_Swatch_1-88);}.cls-90{fill:url(#New_Gradient_Swatch_1-89);}.cls-91{fill:url(#New_Gradient_Swatch_1-90);}.cls-92{fill:url(#New_Gradient_Swatch_1-91);}.cls-93{fill:url(#New_Gradient_Swatch_1-92);}.cls-94{fill:url(#New_Gradient_Swatch_1-93);}.cls-95{fill:url(#New_Gradient_Swatch_1-94);}.cls-96{fill:url(#New_Gradient_Swatch_1-95);}.cls-97{fill:url(#New_Gradient_Swatch_1-96);}.cls-98{fill:url(#New_Gradient_Swatch_1-97);}.cls-99{fill:url(#New_Gradient_Swatch_1-98);}.cls-100{fill:url(#New_Gradient_Swatch_1-99);}.cls-101{fill:url(#New_Gradient_Swatch_1-100);}.cls-102{fill:url(#New_Gradient_Swatch_1-101);}.cls-103{fill:url(#New_Gradient_Swatch_1-102);}.cls-104{fill:url(#New_Gradient_Swatch_1-103);}.cls-105{fill:url(#New_Gradient_Swatch_1-104);}.cls-106{fill:url(#New_Gradient_Swatch_1-105);}.cls-107{fill:url(#New_Gradient_Swatch_1-106);}.cls-108{fill:url(#New_Gradient_Swatch_1-107);}.cls-109{fill:url(#New_Gradient_Swatch_1-108);}.cls-110{fill:url(#New_Gradient_Swatch_1-109);}.cls-111{fill:url(#New_Gradient_Swatch_1-110);}.cls-112{fill:url(#New_Gradient_Swatch_1-111);}.cls-113{fill:url(#New_Gradient_Swatch_1-112);}.cls-114{fill:url(#New_Gradient_Swatch_1-113);}.cls-115{fill:url(#New_Gradient_Swatch_1-114);}.cls-116{fill:url(#New_Gradient_Swatch_1-115);}.cls-117{fill:url(#New_Gradient_Swatch_1-116);}.cls-118{fill:url(#New_Gradient_Swatch_1-117);}.cls-119{fill:url(#New_Gradient_Swatch_1-118);}.cls-120{fill:url(#New_Gradient_Swatch_1-119);}.cls-121{fill:url(#New_Gradient_Swatch_1-120);}.cls-122{fill:url(#New_Gradient_Swatch_1-121);}.cls-123{fill:url(#New_Gradient_Swatch_1-122);}.cls-124{fill:url(#New_Gradient_Swatch_1-123);}.cls-125{fill:url(#New_Gradient_Swatch_1-124);}.cls-126{fill:url(#New_Gradient_Swatch_1-125);}.cls-127{fill:url(#New_Gradient_Swatch_1-126);}.cls-128{fill:url(#New_Gradient_Swatch_1-127);}.cls-129{fill:url(#New_Gradient_Swatch_1-128);}.cls-130{fill:url(#New_Gradient_Swatch_1-129);}.cls-131{fill:url(#New_Gradient_Swatch_1-130);}.cls-132{fill:url(#New_Gradient_Swatch_1-131);}.cls-133{fill:url(#New_Gradient_Swatch_1-132);}.cls-134{fill:url(#New_Gradient_Swatch_1-133);}.cls-135{fill:url(#New_Gradient_Swatch_1-134);}.cls-136{fill:url(#New_Gradient_Swatch_1-135);}.cls-137{fill:url(#New_Gradient_Swatch_1-136);}.cls-138{fill:url(#New_Gradient_Swatch_1-137);}.cls-139{fill:url(#New_Gradient_Swatch_1-138);}.cls-140{fill:url(#New_Gradient_Swatch_1-139);}.cls-141{fill:url(#New_Gradient_Swatch_1-140);}.cls-142{fill:url(#New_Gradient_Swatch_1-141);}.cls-143{fill:url(#New_Gradient_Swatch_1-142);}.cls-144{fill:url(#New_Gradient_Swatch_1-143);}.cls-145{fill:url(#New_Gradient_Swatch_1-144);}.cls-146{fill:url(#New_Gradient_Swatch_1-145);}.cls-147{fill:url(#New_Gradient_Swatch_1-146);}</style><linearGradient id="New_Gradient_Swatch_1" x1="28.89" y1="156.89" x2="244.91" y2="156.89" gradientUnits="userSpaceOnUse"><stop offset="0" stop-color="#cf52fe"/><stop offset="1" stop-color="#19dbb6"/></linearGradient><linearGradient id="New_Gradient_Swatch_1-2" x1="121.01" y1="110.81" x2="491.17" y2="110.81" xlink:href="#New_Gradient_Swatch_1"/><linearGradient id="New_Gradient_Swatch_1-3" x1="247.3" y1="161.87" x2="490.73" y2="161.87" xlink:href="#New_Gradient_Swatch_1"/><linearGradient id="New_Gradient_Swatch_1-4" x1="7.1" y1="126.75" x2="17.85" y2="126.75" xlink:href="#New_Gradient_Swatch_1"/><linearGradient id="New_Gradient_Swatch_1-5" x1="0" y1="126.75" x2="24.95" y2="126.75" xlink:href="#New_Gradient_Swatch_1"/><linearGradient id="New_Gradient_Swatch_1-6" x1="121.53" y1="26.91" x2="469.91" y2="26.91" xlink:href="#New_Gradient_Swatch_1"/><linearGradient id="New_Gradient_Swatch_1-7" x1="196.21" y1="186.41" x2="209.01" y2="186.41" xlink:href="#New_Gradient_Swatch_1"/><linearGradient id="New_Gradient_Swatch_1-8" x1="144.76" y1="136.86" x2="174.88" y2="136.86" xlink:href="#New_Gradient_Swatch_1"/><linearGradient id="New_Gradient_Swatch_1-9" x1="254.96" y1="168.69" x2="292.3" y2="168.69" xlink:href="#New_Gradient_Swatch_1"/><linearGradient id="New_Gradient_Swatch_1-10" x1="282.26" y1="168.69" x2="319.6" y2="168.69" xlink:href="#New_Gradient_Swatch_1"/><linearGradient id="New_Gradient_Swatch_1-11" x1="309.55" y1="168.69" x2="346.9" y2="168.69" xlink:href="#New_Gradient_Swatch_1"/><linearGradient id="New_Gradient_Swatch_1-12" x1="336.85" y1="168.69" x2="374.19" y2="168.69" xlink:href="#New_Gradient_Swatch_1"/><linearGradient id="New_Gradient_Swatch_1-13" x1="364.15" y1="168.69" x2="401.49" y2="168.69" xlink:href="#New_Gradient_Swatch_1"/><linearGradient id="New_Gradient_Swatch_1-14" x1="391.44" y1="168.69" x2="428.79" y2="168.69" xlink:href="#New_Gradient_Swatch_1"/><linearGradient id="New_Gradient_Swatch_1-15" x1="418.74" y1="168.69" x2="456.08" y2="168.69" xlink:href="#New_Gradient_Swatch_1"/><linearGradient id="New_Gradient_Swatch_1-16" x1="446.04" y1="168.69" x2="468.45" y2="168.69" xlink:href="#New_Gradient_Swatch_1"/><linearGradient id="New_Gradient_Swatch_1-17" x1="134.36" y1="17.38" x2="471.9" y2="17.38" xlink:href="#New_Gradient_Swatch_1"/><linearGradient id="New_Gradient_Swatch_1-18" x1="281.87" y1="12.02" x2="304.79" y2="12.02" xlink:href="#New_Gradient_Swatch_1"/><linearGradient id="New_Gradient_Swatch_1-19" x1="305.1" y1="12.02" x2="328.01" y2="12.02" xlink:href="#New_Gradient_Swatch_1"/><linearGradient id="New_Gradient_Swatch_1-20" x1="328.32" y1="12.02" x2="351.23" y2="12.02" xlink:href="#New_Gradient_Swatch_1"/><linearGradient id="New_Gradient_Swatch_1-21" x1="351.55" y1="12.02" x2="374.46" y2="12.02" xlink:href="#New_Gradient_Swatch_1"/><linearGradient id="New_Gradient_Swatch_1-22" x1="374.77" y1="12.02" x2="397.68" y2="12.02" xlink:href="#New_Gradient_Swatch_1"/><linearGradient id="New_Gradient_Swatch_1-23" x1="397.99" y1="12.02" x2="420.91" y2="12.02" xlink:href="#New_Gradient_Swatch_1"/><linearGradient id="New_Gradient_Swatch_1-24" x1="421.22" y1="12.02" x2="444.13" y2="12.02" xlink:href="#New_Gradient_Swatch_1"/><linearGradient id="New_Gradient_Swatch_1-25" x1="442.81" y1="12.02" x2="460.88" y2="12.02" xlink:href="#New_Gradient_Swatch_1"/><linearGradient id="New_Gradient_Swatch_1-26" x1="278.08" y1="2.74" x2="304.89" y2="2.74" xlink:href="#New_Gradient_Swatch_1"/><linearGradient id="New_Gradient_Swatch_1-27" x1="128.43" y1="95.1" x2="482.74" y2="95.1" xlink:href="#New_Gradient_Swatch_1"/><linearGradient id="New_Gradient_Swatch_1-28" x1="490.55" y1="102.48" x2="498.52" y2="102.48" xlink:href="#New_Gradient_Swatch_1"/><linearGradient id="New_Gradient_Swatch_1-29" x1="128.43" y1="49.02" x2="220.39" y2="49.02" xlink:href="#New_Gradient_Swatch_1"/><linearGradient id="New_Gradient_Swatch_1-30" x1="268.72" y1="133.84" x2="274.98" y2="133.84" xlink:href="#New_Gradient_Swatch_1"/><linearGradient id="New_Gradient_Swatch_1-31" x1="265.11" y1="133.84" x2="278.59" y2="133.84" xlink:href="#New_Gradient_Swatch_1"/><linearGradient id="New_Gradient_Swatch_1-32" x1="316.9" y1="133.84" x2="323.16" y2="133.84" xlink:href="#New_Gradient_Swatch_1"/><linearGradient id="New_Gradient_Swatch_1-33" x1="313.29" y1="133.84" x2="326.77" y2="133.84" xlink:href="#New_Gradient_Swatch_1"/><linearGradient id="New_Gradient_Swatch_1-34" x1="365.08" y1="133.84" x2="371.33" y2="133.84" xlink:href="#New_Gradient_Swatch_1"/><linearGradient id="New_Gradient_Swatch_1-35" x1="361.47" y1="133.84" x2="374.94" y2="133.84" xlink:href="#New_Gradient_Swatch_1"/><linearGradient id="New_Gradient_Swatch_1-36" x1="220.13" y1="89.3" x2="224.73" y2="89.3" xlink:href="#New_Gradient_Swatch_1"/><linearGradient id="New_Gradient_Swatch_1-37" x1="225.31" y1="89.3" x2="230.35" y2="89.3" xlink:href="#New_Gradient_Swatch_1"/><linearGradient id="New_Gradient_Swatch_1-38" x1="231.17" y1="89.3" x2="236.18" y2="89.3" xlink:href="#New_Gradient_Swatch_1"/><linearGradient id="New_Gradient_Swatch_1-39" x1="236.86" y1="89.3" x2="241.44" y2="89.3" xlink:href="#New_Gradient_Swatch_1"/><linearGradient id="New_Gradient_Swatch_1-40" x1="242.06" y1="89.3" x2="249.09" y2="89.3" xlink:href="#New_Gradient_Swatch_1"/><linearGradient id="New_Gradient_Swatch_1-41" x1="251.97" y1="89.3" x2="253.39" y2="89.3" xlink:href="#New_Gradient_Swatch_1"/><linearGradient id="New_Gradient_Swatch_1-42" x1="254.21" y1="89.3" x2="259.08" y2="89.3" xlink:href="#New_Gradient_Swatch_1"/><linearGradient id="New_Gradient_Swatch_1-43" x1="259.74" y1="89.3" x2="264.9" y2="89.3" xlink:href="#New_Gradient_Swatch_1"/><linearGradient id="New_Gradient_Swatch_1-44" x1="265.64" y1="89.3" x2="271.07" y2="89.3" xlink:href="#New_Gradient_Swatch_1"/><linearGradient id="New_Gradient_Swatch_1-45" x1="271.89" y1="89.3" x2="278.92" y2="89.3" xlink:href="#New_Gradient_Swatch_1"/><linearGradient id="New_Gradient_Swatch_1-46" x1="281.8" y1="89.3" x2="286.73" y2="89.3" xlink:href="#New_Gradient_Swatch_1"/><linearGradient id="New_Gradient_Swatch_1-47" x1="287.56" y1="89.3" x2="292.6" y2="89.3" xlink:href="#New_Gradient_Swatch_1"/><linearGradient id="New_Gradient_Swatch_1-48" x1="293.42" y1="89.3" x2="298.02" y2="89.3" xlink:href="#New_Gradient_Swatch_1"/><linearGradient id="New_Gradient_Swatch_1-49" x1="298.6" y1="89.3" x2="303.65" y2="89.3" xlink:href="#New_Gradient_Swatch_1"/><linearGradient id="New_Gradient_Swatch_1-50" x1="304.47" y1="89.3" x2="309.47" y2="89.3" xlink:href="#New_Gradient_Swatch_1"/><linearGradient id="New_Gradient_Swatch_1-51" x1="312.13" y1="89.3" x2="317.28" y2="89.3" xlink:href="#New_Gradient_Swatch_1"/><linearGradient id="New_Gradient_Swatch_1-52" x1="318.03" y1="89.3" x2="319.45" y2="89.3" xlink:href="#New_Gradient_Swatch_1"/><linearGradient id="New_Gradient_Swatch_1-53" x1="320.03" y1="89.3" x2="325.38" y2="89.3" xlink:href="#New_Gradient_Swatch_1"/><linearGradient id="New_Gradient_Swatch_1-54" x1="327.59" y1="89.3" x2="333.38" y2="89.3" xlink:href="#New_Gradient_Swatch_1"/><linearGradient id="New_Gradient_Swatch_1-55" x1="333.79" y1="89.3" x2="340.82" y2="89.3" xlink:href="#New_Gradient_Swatch_1"/><linearGradient id="New_Gradient_Swatch_1-56" x1="341.64" y1="89.3" x2="346.23" y2="89.3" xlink:href="#New_Gradient_Swatch_1"/><linearGradient id="New_Gradient_Swatch_1-57" x1="346.6" y1="89.3" x2="351.95" y2="89.3" xlink:href="#New_Gradient_Swatch_1"/><linearGradient id="New_Gradient_Swatch_1-58" x1="351.66" y1="92.08" x2="353.09" y2="92.08" xlink:href="#New_Gradient_Swatch_1"/><linearGradient id="New_Gradient_Swatch_1-59" x1="355.72" y1="89.3" x2="360.76" y2="89.3" xlink:href="#New_Gradient_Swatch_1"/><linearGradient id="New_Gradient_Swatch_1-60" x1="361.46" y1="89.3" x2="366.51" y2="89.3" xlink:href="#New_Gradient_Swatch_1"/><linearGradient id="New_Gradient_Swatch_1-61" x1="367.33" y1="89.32" x2="373.41" y2="89.32" xlink:href="#New_Gradient_Swatch_1"/><linearGradient id="New_Gradient_Swatch_1-62" x1="374.16" y1="89.3" x2="379.31" y2="89.3" xlink:href="#New_Gradient_Swatch_1"/><linearGradient id="New_Gradient_Swatch_1-63" x1="380.06" y1="89.3" x2="384.64" y2="89.3" xlink:href="#New_Gradient_Swatch_1"/><linearGradient id="New_Gradient_Swatch_1-64" x1="385.26" y1="89.3" x2="390.3" y2="89.3" xlink:href="#New_Gradient_Swatch_1"/><linearGradient id="New_Gradient_Swatch_1-65" x1="390.76" y1="89.3" x2="396.1" y2="89.3" xlink:href="#New_Gradient_Swatch_1"/><linearGradient id="New_Gradient_Swatch_1-66" x1="396.68" y1="89.3" x2="401.27" y2="89.3" xlink:href="#New_Gradient_Swatch_1"/><linearGradient id="New_Gradient_Swatch_1-67" x1="401.64" y1="89.3" x2="406.99" y2="89.3" xlink:href="#New_Gradient_Swatch_1"/><linearGradient id="New_Gradient_Swatch_1-68" x1="407.56" y1="89.3" x2="412.99" y2="89.3" xlink:href="#New_Gradient_Swatch_1"/><linearGradient id="New_Gradient_Swatch_1-69" x1="413.82" y1="89.3" x2="418.82" y2="89.3" xlink:href="#New_Gradient_Swatch_1"/><linearGradient id="New_Gradient_Swatch_1-70" x1="219.72" y1="99.15" x2="225.5" y2="99.15" xlink:href="#New_Gradient_Swatch_1"/><linearGradient id="New_Gradient_Swatch_1-71" x1="225.91" y1="99.15" x2="230.85" y2="99.15" xlink:href="#New_Gradient_Swatch_1"/><linearGradient id="New_Gradient_Swatch_1-72" x1="231.67" y1="99.15" x2="233.1" y2="99.15" xlink:href="#New_Gradient_Swatch_1"/><linearGradient id="New_Gradient_Swatch_1-73" x1="233.92" y1="99.15" x2="238.78" y2="99.15" xlink:href="#New_Gradient_Swatch_1"/><linearGradient id="New_Gradient_Swatch_1-74" x1="239.52" y1="99.15" x2="240.95" y2="99.15" xlink:href="#New_Gradient_Swatch_1"/><linearGradient id="New_Gradient_Swatch_1-75" x1="241.69" y1="99.15" x2="246.85" y2="99.15" xlink:href="#New_Gradient_Swatch_1"/><linearGradient id="New_Gradient_Swatch_1-76" x1="247.59" y1="99.15" x2="252.63" y2="99.15" xlink:href="#New_Gradient_Swatch_1"/><linearGradient id="New_Gradient_Swatch_1-77" x1="253.33" y1="99.15" x2="254.76" y2="99.15" xlink:href="#New_Gradient_Swatch_1"/><linearGradient id="New_Gradient_Swatch_1-78" x1="255.58" y1="99.16" x2="261.67" y2="99.16" xlink:href="#New_Gradient_Swatch_1"/><linearGradient id="New_Gradient_Swatch_1-79" x1="262.49" y1="99.15" x2="267.67" y2="99.15" xlink:href="#New_Gradient_Swatch_1"/><linearGradient id="New_Gradient_Swatch_1-80" x1="270.46" y1="99.15" x2="275.05" y2="99.15" xlink:href="#New_Gradient_Swatch_1"/><linearGradient id="New_Gradient_Swatch_1-81" x1="275.66" y1="99.15" x2="280.26" y2="99.15" xlink:href="#New_Gradient_Swatch_1"/><linearGradient id="New_Gradient_Swatch_1-82" x1="280.84" y1="99.15" x2="282.27" y2="99.15" xlink:href="#New_Gradient_Swatch_1"/><linearGradient id="New_Gradient_Swatch_1-83" x1="282.84" y1="99.15" x2="288.19" y2="99.15" xlink:href="#New_Gradient_Swatch_1"/><linearGradient id="New_Gradient_Swatch_1-84" x1="287.91" y1="101.93" x2="289.33" y2="101.93" xlink:href="#New_Gradient_Swatch_1"/><linearGradient id="New_Gradient_Swatch_1-85" x1="291.88" y1="99.15" x2="297.04" y2="99.15" xlink:href="#New_Gradient_Swatch_1"/><linearGradient id="New_Gradient_Swatch_1-86" x1="297.78" y1="99.15" x2="302.36" y2="99.15" xlink:href="#New_Gradient_Swatch_1"/><linearGradient id="New_Gradient_Swatch_1-87" x1="302.98" y1="99.15" x2="307.92" y2="99.15" xlink:href="#New_Gradient_Swatch_1"/><linearGradient id="New_Gradient_Swatch_1-88" x1="310.79" y1="99.15" x2="315.73" y2="99.15" xlink:href="#New_Gradient_Swatch_1"/><linearGradient id="New_Gradient_Swatch_1-89" x1="316.55" y1="99.15" x2="321.6" y2="99.15" xlink:href="#New_Gradient_Swatch_1"/><linearGradient id="New_Gradient_Swatch_1-90" x1="324.47" y1="99.15" x2="329.06" y2="99.15" xlink:href="#New_Gradient_Swatch_1"/><linearGradient id="New_Gradient_Swatch_1-91" x1="329.67" y1="99.15" x2="331.1" y2="99.15" xlink:href="#New_Gradient_Swatch_1"/><linearGradient id="New_Gradient_Swatch_1-92" x1="331.92" y1="99.15" x2="337.35" y2="99.15" xlink:href="#New_Gradient_Swatch_1"/><linearGradient id="New_Gradient_Swatch_1-93" x1="338.09" y1="99.15" x2="343.25" y2="99.15" xlink:href="#New_Gradient_Swatch_1"/><linearGradient id="New_Gradient_Swatch_1-94" x1="343.99" y1="99.15" x2="351.02" y2="99.15" xlink:href="#New_Gradient_Swatch_1"/><linearGradient id="New_Gradient_Swatch_1-95" x1="351.85" y1="99.15" x2="356.89" y2="99.15" xlink:href="#New_Gradient_Swatch_1"/><linearGradient id="New_Gradient_Swatch_1-96" x1="357.71" y1="99.15" x2="362.65" y2="99.15" xlink:href="#New_Gradient_Swatch_1"/><linearGradient id="New_Gradient_Swatch_1-97" x1="365.28" y1="99.15" x2="370.63" y2="99.15" xlink:href="#New_Gradient_Swatch_1"/><linearGradient id="New_Gradient_Swatch_1-98" x1="371.21" y1="99.15" x2="375.79" y2="99.15" xlink:href="#New_Gradient_Swatch_1"/><linearGradient id="New_Gradient_Swatch_1-99" x1="376.41" y1="99.15" x2="383.44" y2="99.15" xlink:href="#New_Gradient_Swatch_1"/><linearGradient id="New_Gradient_Swatch_1-100" x1="384.26" y1="99.15" x2="389.12" y2="99.15" xlink:href="#New_Gradient_Swatch_1"/><linearGradient id="New_Gradient_Swatch_1-101" x1="389.87" y1="99.15" x2="394.91" y2="99.15" xlink:href="#New_Gradient_Swatch_1"/><linearGradient id="New_Gradient_Swatch_1-102" x1="395.73" y1="99.15" x2="400.74" y2="99.15" xlink:href="#New_Gradient_Swatch_1"/><linearGradient id="New_Gradient_Swatch_1-103" x1="403.47" y1="99.15" x2="404.9" y2="99.15" xlink:href="#New_Gradient_Swatch_1"/><linearGradient id="New_Gradient_Swatch_1-104" x1="405.72" y1="99.16" x2="411.8" y2="99.16" xlink:href="#New_Gradient_Swatch_1"/><linearGradient id="New_Gradient_Swatch_1-105" x1="412.63" y1="99.15" x2="417.67" y2="99.15" xlink:href="#New_Gradient_Swatch_1"/><linearGradient id="New_Gradient_Swatch_1-106" x1="418.37" y1="99.15" x2="419.8" y2="99.15" xlink:href="#New_Gradient_Swatch_1"/><linearGradient id="New_Gradient_Swatch_1-107" x1="420.62" y1="99.15" x2="425.56" y2="99.15" xlink:href="#New_Gradient_Swatch_1"/><linearGradient id="New_Gradient_Swatch_1-108" x1="426.38" y1="99.15" x2="427.81" y2="99.15" xlink:href="#New_Gradient_Swatch_1"/><linearGradient id="New_Gradient_Swatch_1-109" x1="428.63" y1="99.15" x2="433.57" y2="99.15" xlink:href="#New_Gradient_Swatch_1"/><linearGradient id="New_Gradient_Swatch_1-110" x1="434.39" y1="99.15" x2="439.82" y2="99.15" xlink:href="#New_Gradient_Swatch_1"/><linearGradient id="New_Gradient_Swatch_1-111" x1="440.64" y1="99.16" x2="446.73" y2="99.16" xlink:href="#New_Gradient_Swatch_1"/><linearGradient id="New_Gradient_Swatch_1-112" x1="447.31" y1="99.15" x2="452.65" y2="99.15" xlink:href="#New_Gradient_Swatch_1"/><linearGradient id="New_Gradient_Swatch_1-113" x1="220.13" y1="109.97" x2="224.73" y2="109.97" xlink:href="#New_Gradient_Swatch_1"/><linearGradient id="New_Gradient_Swatch_1-114" x1="225.31" y1="109.97" x2="230.35" y2="109.97" xlink:href="#New_Gradient_Swatch_1"/><linearGradient id="New_Gradient_Swatch_1-115" x1="231.17" y1="109.97" x2="236.18" y2="109.97" xlink:href="#New_Gradient_Swatch_1"/><linearGradient id="New_Gradient_Swatch_1-116" x1="236.86" y1="109.97" x2="241.44" y2="109.97" xlink:href="#New_Gradient_Swatch_1"/><linearGradient id="New_Gradient_Swatch_1-117" x1="242.06" y1="109.97" x2="249.09" y2="109.97" xlink:href="#New_Gradient_Swatch_1"/><linearGradient id="New_Gradient_Swatch_1-118" x1="251.97" y1="109.97" x2="253.39" y2="109.97" xlink:href="#New_Gradient_Swatch_1"/><linearGradient id="New_Gradient_Swatch_1-119" x1="254.21" y1="109.97" x2="259.08" y2="109.97" xlink:href="#New_Gradient_Swatch_1"/><linearGradient id="New_Gradient_Swatch_1-120" x1="259.74" y1="109.97" x2="264.9" y2="109.97" xlink:href="#New_Gradient_Swatch_1"/><linearGradient id="New_Gradient_Swatch_1-121" x1="265.64" y1="109.97" x2="271.07" y2="109.97" xlink:href="#New_Gradient_Swatch_1"/><linearGradient id="New_Gradient_Swatch_1-122" x1="271.89" y1="109.97" x2="278.92" y2="109.97" xlink:href="#New_Gradient_Swatch_1"/><linearGradient id="New_Gradient_Swatch_1-123" x1="281.8" y1="109.97" x2="286.73" y2="109.97" xlink:href="#New_Gradient_Swatch_1"/><linearGradient id="New_Gradient_Swatch_1-124" x1="287.56" y1="109.97" x2="292.6" y2="109.97" xlink:href="#New_Gradient_Swatch_1"/><linearGradient id="New_Gradient_Swatch_1-125" x1="293.42" y1="109.97" x2="298.02" y2="109.97" xlink:href="#New_Gradient_Swatch_1"/><linearGradient id="New_Gradient_Swatch_1-126" x1="298.6" y1="109.97" x2="303.65" y2="109.97" xlink:href="#New_Gradient_Swatch_1"/><linearGradient id="New_Gradient_Swatch_1-127" x1="304.47" y1="109.97" x2="309.47" y2="109.97" xlink:href="#New_Gradient_Swatch_1"/><linearGradient id="New_Gradient_Swatch_1-128" x1="312.13" y1="109.97" x2="317.28" y2="109.97" xlink:href="#New_Gradient_Swatch_1"/><linearGradient id="New_Gradient_Swatch_1-129" x1="318.03" y1="109.97" x2="319.45" y2="109.97" xlink:href="#New_Gradient_Swatch_1"/><linearGradient id="New_Gradient_Swatch_1-130" x1="320.03" y1="109.97" x2="325.38" y2="109.97" xlink:href="#New_Gradient_Swatch_1"/><linearGradient id="New_Gradient_Swatch_1-131" x1="327.59" y1="109.97" x2="333.38" y2="109.97" xlink:href="#New_Gradient_Swatch_1"/><linearGradient id="New_Gradient_Swatch_1-132" x1="333.79" y1="109.97" x2="340.82" y2="109.97" xlink:href="#New_Gradient_Swatch_1"/><linearGradient id="New_Gradient_Swatch_1-133" x1="341.64" y1="109.97" x2="346.23" y2="109.97" xlink:href="#New_Gradient_Swatch_1"/><linearGradient id="New_Gradient_Swatch_1-134" x1="346.6" y1="109.97" x2="351.95" y2="109.97" xlink:href="#New_Gradient_Swatch_1"/><linearGradient id="New_Gradient_Swatch_1-135" x1="246.61" y1="58.33" x2="259.4" y2="58.33" xlink:href="#New_Gradient_Swatch_1"/><linearGradient id="New_Gradient_Swatch_1-136" x1="260.99" y1="58.33" x2="275.01" y2="58.33" xlink:href="#New_Gradient_Swatch_1"/><linearGradient id="New_Gradient_Swatch_1-137" x1="277.29" y1="58.33" x2="291.19" y2="58.33" xlink:href="#New_Gradient_Swatch_1"/><linearGradient id="New_Gradient_Swatch_1-138" x1="293.08" y1="58.33" x2="305.81" y2="58.33" xlink:href="#New_Gradient_Swatch_1"/><linearGradient id="New_Gradient_Swatch_1-139" x1="307.52" y1="58.33" x2="319.3" y2="58.33" xlink:href="#New_Gradient_Swatch_1"/><linearGradient id="New_Gradient_Swatch_1-140" x1="317.85" y1="58.33" x2="327.05" y2="58.33" xlink:href="#New_Gradient_Swatch_1"/><linearGradient id="New_Gradient_Swatch_1-141" x1="335.03" y1="58.33" x2="338.99" y2="58.33" xlink:href="#New_Gradient_Swatch_1"/><linearGradient id="New_Gradient_Swatch_1-142" x1="341.27" y1="58.33" x2="354.78" y2="58.33" xlink:href="#New_Gradient_Swatch_1"/><linearGradient id="New_Gradient_Swatch_1-143" x1="356.6" y1="58.33" x2="370.94" y2="58.33" xlink:href="#New_Gradient_Swatch_1"/><linearGradient id="New_Gradient_Swatch_1-144" x1="372.99" y1="58.33" x2="388.07" y2="58.33" xlink:href="#New_Gradient_Swatch_1"/><linearGradient id="New_Gradient_Swatch_1-145" x1="400.68" y1="58.33" x2="409.88" y2="58.33" xlink:href="#New_Gradient_Swatch_1"/><linearGradient id="New_Gradient_Swatch_1-146" x1="390.35" y1="58.33" x2="402.13" y2="58.33" xlink:href="#New_Gradient_Swatch_1"/></defs><title>title_04_purple_green</title><g id="Layer_2" data-name="Layer 2"><g id="Layer_1-2" data-name="Layer 1"><polygon class="cls-1" points="29.62 143.55 28.89 144.28 54.85 170.24 244.91 170.24 244.91 169.21 55.28 169.21 29.62 143.55"/><path class="cls-2" d="M491,51.14l.15.15V189.18l-10.11,10.11H257.61l-41.3-9.95H200.82L188.43,177h55.76l18.53-17.55H190.49l-7.22-7.23h-39V87.34L121.16,64.26l-.15-.15V22.33h341.2ZM122,63.68l23.09,23.08.15.15v64.23h38.41l7.23,7.23h74.39L244.6,178H190.92l10.33,10.32h15.48l41.3,9.94h222.6l9.51-9.5v-137L461.79,23.37H122Z"/><path class="cls-3" d="M247.3,188.25H450.9l19.52-19.52V145.46l20.31-20.31v63.1s-10.52,9.89-10.2,10.21-222.71,0-222.71,0Z"/><rect class="cls-4" x="7.1" y="121.37" width="10.76" height="10.76"/><path class="cls-5" d="M25,139.22H0v-25H25ZM1,138.19H23.92V115.3H1Z"/><polygon class="cls-6" points="121.53 30.68 469.9 30.68 462.36 23.14 121.53 23.14 121.53 30.68"/><polygon class="cls-7" points="196.21 184.01 204.22 184.01 209.01 188.81 201.03 188.81 196.21 184.01"/><polygon class="cls-8" points="144.76 122.4 150.61 128.25 150.61 144.34 167.91 144.34 174.88 151.31 144.76 151.31 144.76 122.4"/><polygon class="cls-9" points="254.96 178.5 274.58 158.88 292.3 158.88 272.77 178.42 254.96 178.5"/><polygon class="cls-10" points="282.26 178.5 301.87 158.88 319.6 158.88 300.07 178.42 282.26 178.5"/><polygon class="cls-11" points="309.55 178.5 329.17 158.88 346.9 158.88 327.37 178.42 309.55 178.5"/><polygon class="cls-12" points="336.85 178.5 356.47 158.88 374.19 158.88 354.66 178.42 336.85 178.5"/><polygon class="cls-13" points="364.15 178.5 383.77 158.88 401.49 158.88 381.96 178.42 364.15 178.5"/><polygon class="cls-14" points="391.44 178.5 411.06 158.88 428.79 158.88 409.26 178.42 391.44 178.5"/><polygon class="cls-15" points="418.74 178.5 438.36 158.88 456.08 158.88 436.55 178.42 418.74 178.5"/><polygon class="cls-16" points="468.45 158.88 468.23 165.91 455.67 178.47 446.04 178.5 465.65 158.88 468.45 158.88"/><path class="cls-17" d="M471,21,454.46,4.53H284.59L273.72,15.41H151.31L135.56,31.16l-1.2-.12,16.56-16.56H273.33L284.21,3.6H454.85l17,17"/><polygon class="cls-18" points="281.88 15.8 289.52 8.15 304.79 8.15 297.04 15.89 281.88 15.8"/><polygon class="cls-19" points="305.1 15.8 312.75 8.15 328.01 8.15 320.26 15.89 305.1 15.8"/><polygon class="cls-20" points="328.32 15.8 335.97 8.15 351.23 8.15 343.49 15.89 328.32 15.8"/><polygon class="cls-21" points="351.55 15.8 359.2 8.15 374.46 8.15 366.71 15.89 351.55 15.8"/><polygon class="cls-22" points="374.77 15.8 382.42 8.15 397.68 8.15 389.93 15.89 374.77 15.8"/><polygon class="cls-23" points="397.99 15.8 405.64 8.15 420.9 8.15 413.16 15.89 397.99 15.8"/><polygon class="cls-24" points="421.22 15.8 428.87 8.15 444.13 8.15 436.38 15.89 421.22 15.8"/><polygon class="cls-25" points="442.81 15.8 450.46 8.15 453.83 8.15 460.88 15.89 442.81 15.8"/><polygon class="cls-26" points="278.74 5.49 278.08 4.83 282.91 0 304.89 0 304.89 0.93 283.29 0.93 278.74 5.49"/><g class="cls-27"><path class="cls-28" d="M133.33,38H459.46L482,60.56s1.61,60.85,0,60.85-16.51,16.51-16.51,16.51V152.2H193.64L189.47,148H178.24l-7.43-7.43h-16.1V122.4l-5.09-5.09V81L128.43,59.8V44.85Z"/></g><polygon class="cls-29" points="493.7 57.12 493.7 101.85 498.52 106.67 498.52 146.03 490.55 153.99 490.77 50.97 493.7 57.12"/><polyline class="cls-30" points="131.9 63.27 131.9 62.97 131.9 50.51 135.72 46.7 217.59 46.7 220.38 43.9 220.38 40.89 217.22 37.73 168.83 37.73 165.87 34.76 135.2 34.76 129.97 39.99 129.97 42.69 128.43 44.84 128.43 59.55"/><path class="cls-31" d="M271.85,130.71h0a3.13,3.13,0,0,1,3.13,3.13h0a3.13,3.13,0,0,1-3.13,3.13h0a3.13,3.13,0,0,1-3.13-3.13h0A3.13,3.13,0,0,1,271.85,130.71Z"/><path class="cls-32" d="M278.59,140.58H265.11V127.11h13.48Zm-12.52-1h11.56V128.07H266.07Z"/><path class="cls-33" d="M320,130.71h0a3.13,3.13,0,0,1,3.13,3.13h0A3.13,3.13,0,0,1,320,137h0a3.13,3.13,0,0,1-3.13-3.13h0A3.13,3.13,0,0,1,320,130.71Z"/><path class="cls-34" d="M326.77,140.58H313.29V127.11h13.48Zm-12.52-1h11.56V128.07H314.25Z"/><path class="cls-35" d="M368.21,130.71h0a3.13,3.13,0,0,1,3.12,3.13h0a3.13,3.13,0,0,1-3.12,3.13h0a3.13,3.13,0,0,1-3.13-3.13h0A3.13,3.13,0,0,1,368.21,130.71Z"/><path class="cls-36" d="M374.94,140.58H361.47V127.11h13.47Zm-12.51-1H374V128.07H362.43Z"/><path class="cls-37" d="M220.13,92.26V86.34h1.42v5.92Zm1.83,0V91h2.77v1.31Z"/><path class="cls-38" d="M225.8,86.34h1.82v1.31h-.89V91h.89v1.31H225.8l-.49-.61V86.94ZM228,87.65V86.34h1.83l.49.59v4.73l-.49.6H228V91h1v-3.3Z"/><path class="cls-39" d="M231.17,92.26V86.34h1.43v5.92ZM233,87.65V86.34h2.53l.5.59v2.38l-.41.51.55,2.44h-1.42l-.49-2H233V88.93h1.6V87.65Z"/><path class="cls-40" d="M236.86,92.26V86.34h1.43v5.92Zm1.84-4.61V86.34h2.74v1.31Zm0,2.27V88.61h2.1v1.31Zm0,2.34V91h2.74v1.31Z"/><path class="cls-41" d="M246.3,91.08l-.2.49h-1l-1.56-3.92h-1.43V86.34h2.4Zm-2.81-2.28v3.46h-1.43v-4.2h1.06Zm2.29-.11.92-2.35h2.39v5.92h-1.43V87.65l-1.15,2.92Z"/><path class="cls-42" d="M252,92.26V86.34h1.42v5.92Z"/><path class="cls-43" d="M254.21,92.26V86.34h1.43v5.92Zm1.84-4.61V86.34h2.54l.49.59v2.71l-.49.61h-2.54V88.93h1.6V87.65Z"/><path class="cls-44" d="M260.23,86.34H262v1.31h-.88v.78l3.4.34.34.53v2.37l-.5.59h-1.94V91h1v-.9l-3.27-.31-.46-.57V86.94Zm.93,4.61H262v1.31h-1.81l-.49-.59V90.35h1.42Zm1.29-3.3V86.34h1.95l.5.59v1.29h-1.43v-.57Z"/><path class="cls-45" d="M268.07,91v1.31h-1.94l-.49-.61V86.34h1.42V91Zm2.5,1.31h-2.09V91h1.16V86.34h1.43v5.32Z"/><path class="cls-46" d="M276.13,91.08l-.2.49h-1.05l-1.56-3.92h-1.43V86.34h2.4Zm-2.81-2.28v3.46h-1.43v-4.2H273Zm2.29-.11.91-2.35h2.4v5.92h-1.43V87.65l-1.15,2.92Z"/><path class="cls-47" d="M283.22,86.34v5.92H281.8V86.34Zm.41,1.31V86.34h2.61l.49.59v4.73l-.49.6h-2.61V91h1.68v-3.3Z"/><path class="cls-48" d="M288.05,86.34h1.82v1.31H289V91h.89v1.31h-1.82l-.49-.61V86.94Zm2.23,1.31V86.34h1.83l.49.59v4.73l-.49.6h-1.83V91h1v-3.3Z"/><path class="cls-49" d="M293.42,92.26V86.34h1.43v5.92Zm1.84,0V91H298v1.31Z"/><path class="cls-50" d="M299.09,86.34h1.82v1.31H300V91h.88v1.31h-1.82l-.49-.61V86.94Zm2.24,1.31V86.34h1.82l.5.59v4.73l-.5.6h-1.82V91h1v-3.3Z"/><path class="cls-51" d="M304.47,92.26V86.34h1.43v5.92Zm1.84-4.61V86.34h2.53l.49.59v2.38l-.41.51.55,2.44h-1.42l-.48-2h-1.26V88.93h1.6V87.65Z"/><path class="cls-52" d="M312.62,86.34h1.81v1.31h-.88v.78l3.4.34.33.53v2.37l-.49.59h-1.94V91h1v-.9l-3.27-.31-.46-.57V86.94Zm.93,4.61h.88v1.31h-1.81l-.49-.59V90.35h1.42Zm1.29-3.3V86.34h2l.49.59v1.29h-1.42v-.57Z"/><path class="cls-53" d="M318,92.26V86.34h1.42v5.92Z"/><path class="cls-54" d="M320,86.34h5.35v1.31H320Zm2,5.92v-4.2h1.42v4.2Z"/><path class="cls-55" d="M329,92.26h-1.37l1.47-4.2h1l.18.48Zm1.52-2.88H331l-.61-1.73h-1.19l.46-1.31h1.63l2.08,5.92H332l-.56-1.57H330Z"/><path class="cls-56" d="M338,91.08l-.2.49h-1.06l-1.55-3.92h-1.43V86.34h2.39Zm-2.81-2.28v3.46h-1.43v-4.2h1.06Zm2.28-.11.92-2.35h2.4v5.92h-1.43V87.65l-1.16,2.92Z"/><path class="cls-57" d="M341.64,92.26V86.34h1.43v5.92Zm1.84-4.61V86.34h2.75v1.31Zm0,2.27V88.61h2.1v1.31Zm0,2.34V91h2.75v1.31Z"/><path class="cls-58" d="M346.6,86.34H352v1.31H346.6Zm2,5.92v-4.2H350v4.2Z"/><path class="cls-59" d="M352.37,93.22h0v-1h-.67V91h1.43v1.31Z"/><path class="cls-60" d="M356.21,86.34H358v1.31h-.89V91H358v1.31h-1.82l-.49-.61V86.94Zm2.23,1.31V86.34h1.83l.49.59v1.6h-1.3v-.88Zm0,4.61V91h1v-.87h1.3v1.58l-.49.6Z"/><path class="cls-61" d="M362,86.34h1.82v1.31h-.88V91h.88v1.31H362l-.49-.61V86.94Zm2.23,1.31V86.34H366l.5.59v4.73l-.5.6h-1.83V91h1v-3.3Z"/><path class="cls-62" d="M371.17,92.29l-2.42-4.64h-1.42V86.34h2.31L372,91h1.42v1.34Zm-2.42-3.51v3.48h-1.42v-4.2h1.05ZM372,89.87V86.34h1.42v4.2h-1.06Z"/><path class="cls-63" d="M374.65,86.34h1.81v1.31h-.88v.78l3.4.34.33.53v2.37l-.49.59h-1.94V91h1v-.9l-3.27-.31-.46-.57V86.94Zm.93,4.61h.88v1.31h-1.81l-.49-.59V90.35h1.42Zm1.29-3.3V86.34h1.95l.49.59v1.29h-1.42v-.57Z"/><path class="cls-64" d="M380.06,92.26V86.34h1.42v5.92Zm1.83-4.61V86.34h2.75v1.31Zm0,2.27V88.61H384v1.31Zm0,2.34V91h2.75v1.31Z"/><path class="cls-65" d="M385.75,86.34h1.82v1.31h-.89V91h.89v1.31h-1.82l-.49-.61V86.94ZM388,87.65V86.34h1.83l.49.59v1.6H389v-.88Zm0,4.61V91h1v-.87h1.3v1.58l-.49.6Z"/><path class="cls-66" d="M390.76,86.34h5.34v1.31h-5.34Zm2,5.92v-4.2h1.42v4.2Z"/><path class="cls-67" d="M396.68,92.26V86.34h1.43v5.92Zm1.84-4.61V86.34h2.75v1.31Zm0,2.27V88.61h2.1v1.31Zm0,2.34V91h2.75v1.31Z"/><path class="cls-68" d="M401.64,86.34H407v1.31h-5.35Zm2,5.92v-4.2H405v4.2Z"/><path class="cls-69" d="M410,91v1.31h-1.95l-.49-.61V86.34H409V91Zm2.5,1.31h-2.09V91h1.16V86.34H413v5.32Z"/><path class="cls-70" d="M413.82,92.26V86.34h1.42v5.92Zm1.83-4.61V86.34h2.54l.49.59v2.38l-.41.51.55,2.44H417.4l-.48-2h-1.27V88.93h1.6V87.65Z"/><path class="cls-71" d="M221.08,102.11h-1.36l1.46-4.2h1l.18.48Zm1.52-2.88h.54l-.62-1.73h-1.19l.46-1.31h1.63l2.08,5.92h-1.35l-.55-1.57h-1.46Z"/><path class="cls-72" d="M227.34,96.19v5.92h-1.43V96.19Zm.41,1.31V96.19h2.61l.49.59v4.73l-.49.6h-2.61V100.8h1.67V97.5Z"/><path class="cls-73" d="M231.67,102.11V96.19h1.43v5.92Z"/><path class="cls-74" d="M233.92,102.11V96.19h1.43v5.92Zm1.84-4.61V96.19h2.53l.49.59v2.71l-.49.6h-2.53V98.78h1.6V97.5Z"/><path class="cls-75" d="M239.52,102.11V96.19H241v5.92Z"/><path class="cls-76" d="M242.18,96.19H244V97.5h-.87v.78l3.39.34.34.53v2.36l-.49.6h-2V100.8h1v-.9l-3.27-.31-.46-.57V96.79Zm.94,4.61H244v1.31h-1.81l-.49-.59V100.2h1.43Zm1.28-3.3V96.19h2l.49.59v1.29h-1.43V97.5Z"/><path class="cls-77" d="M248.08,96.19h1.82V97.5H249v3.3h.88v1.31h-1.82l-.49-.61V96.79Zm2.23,1.31V96.19h1.83l.49.59v1.6h-1.3V97.5Zm0,4.61V100.8h1v-.87h1.3v1.58l-.49.6Z"/><path class="cls-78" d="M253.33,102.11V96.19h1.43v5.92Z"/><path class="cls-79" d="M259.42,102.14,257,97.5h-1.43V96.19h2.32l2.34,4.61h1.43v1.34ZM257,98.63v3.48h-1.43v-4.2h1Zm3.23,1.09V96.19h1.43v4.2H260.6Z"/><path class="cls-80" d="M263.92,100.8h.94v1.31H263l-.49-.61V96.79l.49-.6h1.88V97.5h-.94Zm3.75.71-.5.6h-1.9V100.8h1.05v-1h-1.15V98.51h2.5Zm-2.4-4V96.19h1.9l.5.59V98h-1.31V97.5Z"/><path class="cls-81" d="M270.46,102.11V96.19h1.43v5.92Zm1.84-4.61V96.19h2.75V97.5Zm0,2.27V98.45h2.1v1.32Zm0,2.34V100.8h2.75v1.31Z"/><path class="cls-82" d="M275.66,102.11V96.19h1.43v5.92Zm1.84,0V100.8h2.76v1.31Z"/><path class="cls-83" d="M280.84,102.11V96.19h1.43v5.92Z"/><path class="cls-84" d="M282.84,96.19h5.35V97.5h-5.35Zm2,5.92v-4.2h1.43v4.2Z"/><path class="cls-85" d="M288.61,103.06h0v-1h-.67V100.8h1.42v1.31Z"/><path class="cls-86" d="M292.37,96.19h1.81V97.5h-.88v.78l3.4.34.34.53v2.36l-.5.6H294.6V100.8h1v-.9l-3.27-.31-.46-.57V96.79Zm.93,4.61h.88v1.31h-1.81l-.49-.59V100.2h1.42Zm1.29-3.3V96.19h2l.5.59v1.29h-1.43V97.5Z"/><path class="cls-87" d="M297.78,102.11V96.19h1.43v5.92Zm1.84-4.61V96.19h2.74V97.5Zm0,2.27V98.45h2.1v1.32Zm0,2.34V100.8h2.74v1.31Z"/><path class="cls-88" d="M304.41,96.19v5.92H303V96.19Zm.41,1.31V96.19h2.6l.5.59v4.73l-.5.6h-2.6V100.8h1.67V97.5Z"/><path class="cls-89" d="M312.22,96.19v5.92h-1.43V96.19Zm.41,1.31V96.19h2.61l.49.59v4.73l-.49.6h-2.61V100.8h1.67V97.5Z"/><path class="cls-90" d="M317,96.19h1.83V97.5H318v3.3h.89v1.31H317l-.49-.61V96.79Zm2.24,1.31V96.19h1.82l.5.59v4.73l-.5.6h-1.82V100.8h1V97.5Z"/><path class="cls-91" d="M324.47,102.11V96.19h1.43v5.92Zm1.84-4.61V96.19h2.75V97.5Zm0,2.27V98.45h2.1v1.32Zm0,2.34V100.8h2.75v1.31Z"/><path class="cls-92" d="M329.67,102.11V96.19h1.43v5.92Z"/><path class="cls-93" d="M334.36,100.8v1.31h-1.95l-.49-.61V96.19h1.43v4.61Zm2.5,1.31h-2.09V100.8h1.15V96.19h1.43v5.32Z"/><path class="cls-94" d="M338.59,96.19h1.81V97.5h-.88v.78l3.4.34.33.53v2.36l-.49.6h-1.94V100.8h1v-.9l-3.28-.31-.46-.57V96.79Zm.93,4.61h.88v1.31h-1.81l-.5-.59V100.2h1.43Zm1.29-3.3V96.19h1.95l.49.59v1.29h-1.42V97.5Z"/><path class="cls-95" d="M348.23,100.93l-.19.48H347l-1.56-3.91H344V96.19h2.4Zm-2.81-2.29v3.47H344v-4.2h1.06Zm2.29-.1.92-2.35H351v5.92h-1.43V97.5l-1.15,2.91Z"/><path class="cls-96" d="M352.34,96.19h1.82V97.5h-.89v3.3h.89v1.31h-1.82l-.49-.61V96.79Zm2.23,1.31V96.19h1.83l.49.59v4.73l-.49.6h-1.83V100.8h1V97.5Z"/><path class="cls-97" d="M359.14,96.19v5.92h-1.43V96.19Zm.41,1.31V96.19h2.61l.49.59v4.73l-.49.6h-2.61V100.8h1.67V97.5Z"/><path class="cls-98" d="M365.28,96.19h5.35V97.5h-5.35Zm2,5.92v-4.2h1.43v4.2Z"/><path class="cls-99" d="M371.21,102.11V96.19h1.42v5.92ZM373,97.5V96.19h2.75V97.5Zm0,2.27V98.45h2.1v1.32Zm0,2.34V100.8h2.75v1.31Z"/><path class="cls-100" d="M380.65,100.93l-.2.48h-1.06l-1.56-3.91h-1.42V96.19h2.39Zm-2.82-2.29v3.47h-1.42v-4.2h1.06Zm2.29-.1.92-2.35h2.4v5.92H382V97.5l-1.16,2.91Z"/><path class="cls-101" d="M384.26,102.11V96.19h1.43v5.92Zm1.84-4.61V96.19h2.53l.49.59v2.71l-.49.6H386.1V98.78h1.6V97.5Z"/><path class="cls-102" d="M390.36,96.19h1.82V97.5h-.89v3.3h.89v1.31h-1.82l-.49-.61V96.79Zm2.23,1.31V96.19h1.83l.49.59v4.73l-.49.6h-1.83V100.8h1V97.5Z"/><path class="cls-103" d="M395.73,102.11V96.19h1.43v5.92Zm1.84-4.61V96.19h2.53l.5.59v2.38l-.41.51.55,2.44h-1.42l-.49-2h-1.26V98.78h1.6V97.5Z"/><path class="cls-104" d="M403.47,102.11V96.19h1.43v5.92Z"/><path class="cls-105" d="M409.56,102.14l-2.41-4.64h-1.43V96.19H408l2.35,4.61h1.42v1.34Zm-2.41-3.51v3.48h-1.43v-4.2h1Zm3.23,1.09V96.19h1.42v4.2h-1.06Z"/><path class="cls-106" d="M413.12,96.19h1.82V97.5h-.88v3.3h.88v1.31h-1.82l-.49-.61V96.79Zm2.23,1.31V96.19h1.83l.49.59v1.6h-1.3V97.5Zm0,4.61V100.8h1v-.87h1.3v1.58l-.49.6Z"/><path class="cls-107" d="M418.37,102.11V96.19h1.43v5.92Z"/><path class="cls-108" d="M422.05,96.19v5.92h-1.43V96.19Zm.41,1.31V96.19h2.61l.49.59v4.73l-.49.6h-2.61V100.8h1.67V97.5Z"/><path class="cls-109" d="M426.38,102.11V96.19h1.43v5.92Z"/><path class="cls-110" d="M430.06,96.19v5.92h-1.43V96.19Zm.41,1.31V96.19h2.6l.5.59v4.73l-.5.6h-2.6V100.8h1.67V97.5Z"/><path class="cls-111" d="M436.83,100.8v1.31h-1.95l-.49-.61V96.19h1.43v4.61Zm2.5,1.31h-2.09V100.8h1.15V96.19h1.43v5.32Z"/><path class="cls-112" d="M444.48,102.14l-2.41-4.64h-1.43V96.19H443l2.34,4.61h1.43v1.34Zm-2.41-3.51v3.48h-1.43v-4.2h1.05Zm3.23,1.09V96.19h1.43v4.2h-1.07Z"/><path class="cls-113" d="M447.31,96.19h5.34V97.5h-5.34Zm2,5.92v-4.2h1.42v4.2Z"/><path class="cls-114" d="M220.13,112.93V107h1.42v5.92Zm1.83,0v-1.31h2.77v1.31Z"/><path class="cls-115" d="M225.8,107h1.82v1.31h-.89v3.3h.89v1.31H225.8l-.49-.61v-4.71Zm2.23,1.31V107h1.83l.49.59v4.73l-.49.6H228v-1.31h1v-3.3Z"/><path class="cls-116" d="M231.17,112.93V107h1.43v5.92Zm1.84-4.61V107h2.53l.5.59V110l-.41.51.55,2.44h-1.42l-.49-2H233V109.6h1.6v-1.28Z"/><path class="cls-117" d="M236.86,112.93V107h1.43v5.92Zm1.84-4.61V107h2.74v1.31Zm0,2.27v-1.32h2.1v1.32Zm0,2.34v-1.31h2.74v1.31Z"/><path class="cls-118" d="M246.3,111.75l-.2.48h-1l-1.56-3.91h-1.43V107h2.4Zm-2.81-2.29v3.47h-1.43v-4.2h1.06Zm2.29-.1.92-2.35h2.39v5.92h-1.43v-4.61l-1.15,2.91Z"/><path class="cls-119" d="M252,112.93V107h1.42v5.92Z"/><path class="cls-120" d="M254.21,112.93V107h1.43v5.92Zm1.84-4.61V107h2.54l.49.59v2.71l-.49.6h-2.54V109.6h1.6v-1.28Z"/><path class="cls-121" d="M260.23,107H262v1.31h-.88v.78l3.4.34.34.53v2.36l-.5.6h-1.94v-1.31h1v-.9l-3.27-.31-.46-.57v-2.23Zm.93,4.61H262v1.31h-1.81l-.49-.59V111h1.42Zm1.29-3.3V107h1.95l.5.59v1.29h-1.43v-.57Z"/><path class="cls-122" d="M268.07,111.62v1.31h-1.94l-.49-.61V107h1.42v4.61Zm2.5,1.31h-2.09v-1.31h1.16V107h1.43v5.32Z"/><path class="cls-123" d="M276.13,111.75l-.2.48h-1.05l-1.56-3.91h-1.43V107h2.4Zm-2.81-2.29v3.47h-1.43v-4.2H273Zm2.29-.1.91-2.35h2.4v5.92h-1.43v-4.61l-1.15,2.91Z"/><path class="cls-124" d="M283.22,107v5.92H281.8V107Zm.41,1.31V107h2.61l.49.59v4.73l-.49.6h-2.61v-1.31h1.68v-3.3Z"/><path class="cls-125" d="M288.05,107h1.82v1.31H289v3.3h.89v1.31h-1.82l-.49-.61v-4.71Zm2.23,1.31V107h1.83l.49.59v4.73l-.49.6h-1.83v-1.31h1v-3.3Z"/><path class="cls-126" d="M293.42,112.93V107h1.43v5.92Zm1.84,0v-1.31H298v1.31Z"/><path class="cls-127" d="M299.09,107h1.82v1.31H300v3.3h.88v1.31h-1.82l-.49-.61v-4.71Zm2.24,1.31V107h1.82l.5.59v4.73l-.5.6h-1.82v-1.31h1v-3.3Z"/><path class="cls-128" d="M304.47,112.93V107h1.43v5.92Zm1.84-4.61V107h2.53l.49.59V110l-.41.51.55,2.44h-1.42l-.48-2h-1.26V109.6h1.6v-1.28Z"/><path class="cls-129" d="M312.62,107h1.81v1.31h-.88v.78l3.4.34.33.53v2.36l-.49.6h-1.94v-1.31h1v-.9l-3.27-.31-.46-.57v-2.23Zm.93,4.61h.88v1.31h-1.81l-.49-.59V111h1.42Zm1.29-3.3V107h2l.49.59v1.29h-1.42v-.57Z"/><path class="cls-130" d="M318,112.93V107h1.42v5.92Z"/><path class="cls-131" d="M320,107h5.35v1.31H320Zm2,5.92v-4.2h1.42v4.2Z"/><path class="cls-132" d="M329,112.93h-1.37l1.47-4.2h1l.18.48Zm1.52-2.89H331l-.61-1.72h-1.19l.46-1.31h1.63l2.08,5.92H332l-.56-1.57H330Z"/><path class="cls-133" d="M338,111.75l-.2.48h-1.06l-1.55-3.91h-1.43V107h2.39Zm-2.81-2.29v3.47h-1.43v-4.2h1.06Zm2.28-.1.92-2.35h2.4v5.92h-1.43v-4.61l-1.16,2.91Z"/><path class="cls-134" d="M341.64,112.93V107h1.43v5.92Zm1.84-4.61V107h2.75v1.31Zm0,2.27v-1.32h2.1v1.32Zm0,2.34v-1.31h2.75v1.31Z"/><path class="cls-135" d="M346.6,107H352v1.31H346.6Zm2,5.92v-4.2H350v4.2Z"/><polygon class="cls-136" points="250.58 50.1 246.62 50.1 246.62 66.56 249.73 66.56 250.58 66.56 259.4 66.56 259.4 62.91 250.58 62.91 250.58 50.1"/><path class="cls-137" d="M269.7,50.1h-7.34L261,51.77V64.85l1.37,1.71h11.28L275,64.87V51.74l-1.37-1.64Zm1.68,12.81H265V53.75h6.42Z"/><path class="cls-138" d="M290.8,58.35V51.74l-1.37-1.64H277.29V66.56h4V61h4.65l1.34,5.61h3.95l-1.53-6.79Zm-4-1.05h-5.58V53.75h5.58Z"/><polygon class="cls-139" points="298.18 50.1 293.08 50.1 293.08 66.56 298.18 66.56 298.8 66.56 305.81 66.56 305.81 62.91 298.8 62.91 298.8 60.04 304.01 60.04 304.01 56.39 298.8 56.39 298.8 53.75 305.81 53.75 305.81 50.1 298.8 50.1 298.18 50.1"/><polygon class="cls-140" points="307.52 50.1 307.52 52.9 307.52 53.75 307.52 66.56 311.49 66.56 311.49 53.75 315.82 64.62 318.76 64.62 319.3 63.28 314.18 50.1 307.52 50.1"/><polygon class="cls-141" points="317.85 56.62 319.87 61.84 323.09 53.75 323.09 66.56 327.05 66.56 327.05 50.1 320.4 50.1 317.85 56.62"/><rect class="cls-142" x="335.03" y="50.1" width="3.97" height="16.45"/><path class="cls-143" d="M345.23,50.1h-4V66.56h4V61h8.19l1.36-1.69V51.74l-1.36-1.64Zm5.59,7.2h-5.59V53.75h5.59Z"/><polygon class="cls-144" points="364.45 50.1 364.15 50.1 357.97 50.1 356.61 51.77 356.61 57.97 357.88 59.54 366.97 60.4 366.97 62.91 364.95 62.91 364.17 62.91 360.57 62.91 360.57 61.25 356.61 61.25 356.61 64.92 357.97 66.56 364.17 66.56 364.95 66.56 369.57 66.56 370.94 64.89 370.94 58.33 370 56.85 360.57 55.91 360.57 53.75 364.15 53.75 364.45 53.75 366.97 53.75 366.97 55.32 370.94 55.32 370.94 51.74 369.57 50.1 364.45 50.1"/><polygon class="cls-145" points="384.11 62.91 381.68 62.91 380.9 62.91 376.95 62.91 376.95 50.1 372.99 50.1 372.99 64.85 374.36 66.56 380.9 66.56 381.68 66.56 386.71 66.56 388.07 64.87 388.07 50.1 384.11 50.1 384.11 62.91"/><polygon class="cls-146" points="403.23 50.1 400.68 56.62 402.7 61.84 405.92 53.75 405.92 66.56 409.88 66.56 409.88 50.1 403.23 50.1"/><polygon class="cls-147" points="390.35 50.1 390.35 52.98 390.35 53.75 390.35 66.56 394.32 66.56 394.32 53.75 398.65 64.62 401.59 64.62 402.13 63.28 397.01 50.1 390.35 50.1"/></g></g></svg>