<svg xmlns="http://www.w3.org/2000/svg" viewBox="0 0 495.51 149.28"><defs><style>.cls-1{fill:#11e5b3;}.cls-2{opacity:0.15;}</style></defs><title>title_06_green</title><g id="Layer_2" data-name="Layer 2"><g id="Layer_1-2" data-name="Layer 1"><polygon class="cls-1" points="312.93 70.27 300.84 58.17 300.84 37.82 280.68 17.66 169.82 17.66 165.68 21.8 35.09 21.8 15.4 41.5 14.92 41.02 34.81 21.13 165.4 21.13 169.54 16.99 280.96 16.99 301.51 37.54 301.51 57.89 313.41 69.79 312.93 70.27"/><polygon class="cls-1" points="315.4 149.28 277.13 149.28 268.16 140.3 69.64 140.3 56.84 127.5 22.96 127.5 14.92 119.46 15.4 118.99 23.24 126.83 57.12 126.83 69.92 139.63 268.44 139.63 277.41 148.6 315.12 148.6 324.41 139.31 324.41 128.4 325.08 128.4 325.08 139.59 315.4 149.28"/><polygon class="cls-1" points="484.49 109.02 419.05 109.02 387.01 76.98 324.75 76.98 324.75 76.31 387.29 76.31 419.33 108.34 483.82 108.34 483.82 31.7 484.49 31.7 484.49 109.02"/><polygon class="cls-1" points="31.15 25.27 97.56 25.27 101.37 21.47 34.95 21.47 31.15 25.27"/><path class="cls-1" d="M19.05,123.12h11s4.73,4.17,4.16,4.17-10.8.31-11.11,0Z"/><path class="cls-1" d="M65.68,135.78h11S81.4,140,80.84,140s-10.8.31-11.12,0Z"/><polygon class="cls-1" points="290.46 46.63 162.05 46.63 156.6 41.17 156.6 32.62 162.07 27.16 162.54 27.63 157.27 32.9 157.27 40.9 162.33 45.95 290.19 45.95 296.07 40.07 296.55 40.55 290.46 46.63"/><polygon class="cls-1" points="173.65 20.04 160.05 33.65 160.05 39.08 164.64 43.68 188.47 19.85 173.65 20.04"/><path class="cls-1" d="M171.33,43.68,195,20.05h17.43c-.11,0-23.56,23.57-23.56,23.57Z"/><path class="cls-1" d="M194.59,43.68l23.62-23.63h17.44c-.11,0-23.57,23.57-23.57,23.57Z"/><path class="cls-1" d="M217.84,43.68l23.63-23.63h17.44c-.11,0-23.57,23.57-23.57,23.57Z"/><path class="cls-1" d="M241.1,43.68l23.63-23.63h16.76c-.11,0-22.89,23.57-22.89,23.57Z"/><path class="cls-1" d="M284.25,23.78l-19.89,19.9,17.49-.06L292.7,32.73Z"/><polyline class="cls-1" points="183.88 144.27 267.52 144.27 270.97 147.72"/><polyline class="cls-1" points="349.19 79.27 386.15 79.27 390.09 83.22"/><polyline class="cls-1" points="476.27 104.36 480.59 104.36 480.59 55.16"/><circle class="cls-1" cx="484.15" cy="11.36" r="4.11"/><path class="cls-1" d="M484.15,22.73a11.37,11.37,0,1,1,11.36-11.37A11.38,11.38,0,0,1,484.15,22.73Zm0-22.06a10.69,10.69,0,1,0,10.69,10.69A10.71,10.71,0,0,0,484.15.67Z"/><polygon class="cls-1" points="173.21 49.69 160.95 49.69 153.93 42.67 153.93 37.05 154.6 37.05 154.6 42.39 161.23 49.02 173.21 49.02 173.21 49.69"/><polygon class="cls-1" points="291.65 49.27 281.87 49.27 281.87 48.59 291.38 48.59 296.41 43.56 296.89 44.03 291.65 49.27"/><g class="cls-2"><polygon class="cls-1" points="14.12 48.96 34.55 28.53 99.63 28.53 104 24.17 160.23 24.17 153.46 30.94 151.85 30.94 151.85 44.2 159.7 52.05 179.39 52.05 182.18 49.26 278.31 49.26 282.04 52.99 293.39 52.99 297.02 49.37 298.89 49.37 298.89 59.29 312.14 72.54 306.13 78.56 60.62 78.56 55.35 73.29 14.12 73.29 14.12 48.96"/></g><polygon class="cls-1" points="13.94 63.76 11.79 65.9 11.79 76.13 57.92 76.13 60.39 78.6 72.59 78.6 70.29 76.3 61.5 76.3 56.17 70.98 43.56 70.98 41.61 69.03 19.57 69.03 17.52 66.98 15.66 66.98 15.66 64.71 13.94 63.76"/><polygon class="cls-1" points="12.01 79.99 58.53 79.99 60.95 82.4 81.08 82.4 84.89 78.6 115.16 78.6 112.8 80.95 112.8 84.18 109.83 87.16 50.87 87.16 48.38 84.67 16.26 84.67 12.01 79.99"/><g class="cls-2"><polygon class="cls-1" points="0 84.97 6.49 84.97 10.18 81.28 15.57 86.67 46.23 86.67 49.08 89.53 111.4 89.53 116.07 84.86 116.07 82.33 117.24 81.16 306.17 81.16 308.79 83.78 343.47 83.78 346.56 80.69 350.4 80.69 393.16 86.87 415.67 109.37 415.67 120.84 391.63 144.88 332.73 144.88 332.73 124.46 320.52 124.46 320.52 136.27 311.65 145.14 278.53 145.14 268.19 134.81 82.6 134.81 78.98 131.19 66.26 131.19 57.98 122.91 34.26 122.91 30.89 119.54 19.53 119.54 13.54 113.55 6.74 113.55 0.03 106.85 0 84.97"/></g><polygon class="cls-1" points="325.08 124.46 327.49 122.05 335.12 122.05 335.12 142.57 354.21 142.57 354.57 142.93 369.34 142.93 371.19 144.79 370.04 145.94 349.72 145.94 348.39 147.26 337.22 147.26 335.87 145.92 331.61 145.92 331.61 133.63 332.65 132.59 332.65 127.19 330.71 125.25 326.14 125.25 325.08 124.46"/><polygon class="cls-1" points="111.4 89.53 116.07 84.86 116.07 82.33 117.24 81.16 157.82 81.16 156.86 82.13 138.64 82.13 136.75 84.02 120.95 84.02 118.36 86.61 118.36 88.47 114.4 92.42 108.21 92.42 107.2 91.42 107.2 89.71 111.4 89.53"/><polygon class="cls-1" points="488.01 112.53 458.77 112.53 458.77 111.95 487.43 111.95 487.43 97.4 488.01 97.4 488.01 112.53"/><polygon class="cls-1" points="487.72 108.23 489.02 109.53 489.02 114 479.12 114 477.23 112.1 487.6 112.1 487.72 108.23"/><polygon class="cls-1" points="116.72 55.3 112.64 55.3 112.64 72.21 115.84 72.21 116.72 72.21 125.78 72.21 125.78 68.46 116.72 68.46 116.72 55.3"/><path class="cls-1" d="M136.37,55.3h-7.55L127.42,57V70.45l1.4,1.76h11.6l1.4-1.73V57l-1.4-1.69Zm1.73,13.16h-6.61V59.05h6.61Z"/><path class="cls-1" d="M158.05,63.78V57l-1.4-1.69H144.16V72.21h4.08V66.45H153l1.38,5.76h4l-1.57-7ZM154,62.7h-5.74V59.05H154Z"/><polygon class="cls-1" points="165.64 55.3 160.39 55.3 160.39 72.21 165.64 72.21 166.27 72.21 173.48 72.21 173.48 68.46 166.27 68.46 166.27 65.51 171.63 65.51 171.63 61.76 166.27 61.76 166.27 59.05 173.48 59.05 173.48 55.3 166.27 55.3 165.64 55.3"/><polygon class="cls-1" points="175.24 55.3 175.24 58.17 175.24 59.05 175.24 72.21 179.31 72.21 179.31 59.05 183.76 70.22 186.78 70.22 187.34 68.84 182.08 55.3 175.24 55.3"/><polygon class="cls-1" points="185.85 62 187.93 67.36 191.23 59.05 191.23 72.21 195.31 72.21 195.31 55.3 188.47 55.3 185.85 62"/><rect class="cls-1" x="203.5" y="55.3" width="4.07" height="16.91"/><path class="cls-1" d="M214,55.3h-4.07V72.21H214V66.45h8.41l1.41-1.74V57L222.4,55.3Zm5.74,7.4H214V59.05h5.74Z"/><polygon class="cls-1" points="233.74 55.3 233.43 55.3 227.08 55.3 225.68 57.01 225.68 63.38 226.99 65 236.34 65.89 236.34 68.46 234.25 68.46 233.45 68.46 229.75 68.46 229.75 66.75 225.68 66.75 225.68 70.52 227.08 72.21 233.45 72.21 234.25 72.21 239 72.21 240.41 70.5 240.41 63.75 239.45 62.23 229.75 61.27 229.75 59.05 233.43 59.05 233.74 59.05 236.34 59.05 236.34 60.66 240.41 60.66 240.41 56.99 239 55.3 233.74 55.3"/><polygon class="cls-1" points="253.94 68.46 251.45 68.46 250.64 68.46 246.59 68.46 246.59 55.3 242.52 55.3 242.52 70.45 243.92 72.21 250.64 72.21 251.45 72.21 256.62 72.21 258.02 70.48 258.02 55.3 253.94 55.3 253.94 68.46"/><polygon class="cls-1" points="273.59 55.3 270.97 62 273.05 67.36 276.36 59.05 276.36 72.21 280.43 72.21 280.43 55.3 273.59 55.3"/><polygon class="cls-1" points="260.36 55.3 260.36 58.26 260.36 59.05 260.36 72.21 264.44 72.21 264.44 59.05 268.89 70.22 271.91 70.22 272.47 68.84 267.2 55.3 260.36 55.3"/><path class="cls-1" d="M42.57,106.25V99.53h1.62v6.72Zm2.08,0v-1.49h3.14v1.49Z"/><path class="cls-1" d="M49,99.53h2.07V101h-1v3.74h1v1.49H49l-.56-.7v-5.34ZM51.54,101V99.53h2.07l.56.67v5.36l-.56.69H51.54v-1.49h1.15V101Z"/><path class="cls-1" d="M55.1,106.25V99.53h1.62v6.72ZM57.19,101V99.53h2.88l.55.67v2.7l-.46.57.62,2.78H59.17L58.62,104H57.19v-1.49H59V101Z"/><path class="cls-1" d="M61.56,106.25V99.53h1.62v6.72ZM63.64,101V99.53h3.12V101Zm0,2.57V102.1H66v1.49Zm0,2.66v-1.49h3.12v1.49Z"/><path class="cls-1" d="M72.28,104.91l-.23.55h-1.2L69.08,101H67.46V99.53h2.72Zm-3.2-2.6v3.94H67.46v-4.77h1.2Zm2.6-.12,1-2.66h2.72v6.72H73.82V101l-1.31,3.3Z"/><path class="cls-1" d="M78.7,106.25V99.53h1.62v6.72Z"/><path class="cls-1" d="M81.25,106.25V99.53h1.63v6.72ZM83.34,101V99.53h2.88l.55.67v3.07l-.55.69H83.34v-1.49h1.82V101Z"/><path class="cls-1" d="M88.08,99.53h2.06V101h-1v.88l3.85.38.39.61v2.68l-.56.68H90.61v-1.49h1.15v-1L88,103.38l-.52-.64v-2.53Zm1.06,5.23h1v1.49H88.08l-.56-.67v-1.5h1.62ZM90.6,101V99.53h2.22l.56.67v1.46H91.76V101Z"/><path class="cls-1" d="M97,104.76v1.49h-2.2l-.56-.7v-6h1.62v5.23Zm2.84,1.49H97.45v-1.49h1.31V99.53h1.62v6Z"/><path class="cls-1" d="M106.13,104.91l-.23.55h-1.2L102.94,101h-1.62V99.53H104Zm-3.19-2.6v3.94h-1.62v-4.77h1.2Zm2.59-.12,1-2.66h2.72v6.72h-1.62V101l-1.31,3.3Z"/><path class="cls-1" d="M114.18,99.53v6.72h-1.62V99.53Zm.46,1.49V99.53h3l.56.67v5.36l-.56.69h-3v-1.49h1.9V101Z"/><path class="cls-1" d="M119.65,99.53h2.07V101h-1v3.74h1v1.49h-2.07l-.56-.7v-5.34Zm2.54,1.49V99.53h2.07l.56.67v5.36l-.56.69h-2.07v-1.49h1.15V101Z"/><path class="cls-1" d="M125.75,106.25V99.53h1.62v6.72Zm2.09,0v-1.49H131v1.49Z"/><path class="cls-1" d="M132.19,99.53h2.07V101h-1v3.74h1v1.49h-2.07l-.56-.7v-5.34Zm2.53,1.49V99.53h2.08l.56.67v5.36l-.56.69h-2.08v-1.49h1.15V101Z"/><path class="cls-1" d="M138.29,106.25V99.53h1.62v6.72Zm2.08-5.23V99.53h2.88l.56.67v2.7l-.47.57.63,2.78h-1.61l-.55-2.29h-1.44v-1.49h1.82V101Z"/><path class="cls-1" d="M147.54,99.53h2.05V101h-1v.88l3.85.38.38.61v2.68l-.55.68h-2.21v-1.49h1.14v-1l-3.71-.35-.52-.64v-2.53Zm1.06,5.23h1v1.49h-2.05l-.56-.67v-1.5h1.62Zm1.46-3.74V99.53h2.22l.55.67v1.46h-1.62V101Z"/><path class="cls-1" d="M153.67,106.25V99.53h1.63v6.72Z"/><path class="cls-1" d="M156,99.53H162V101H156Zm2.23,6.72v-4.77h1.62v4.77Z"/><path class="cls-1" d="M166.08,106.25h-1.55l1.67-4.77h1.16l.2.54Zm1.73-3.28h.61l-.7-2h-1.35l.52-1.49h1.85l2.36,6.72h-1.53l-.63-1.79h-1.65Z"/><path class="cls-1" d="M176.38,104.91l-.23.55H175L173.18,101h-1.62V99.53h2.72Zm-3.2-2.6v3.94h-1.62v-4.77h1.21Zm2.6-.12,1-2.66h2.72v6.72h-1.62V101l-1.31,3.3Z"/><path class="cls-1" d="M180.48,106.25V99.53h1.62v6.72Zm2.08-5.23V99.53h3.12V101Zm0,2.57V102.1H185v1.49Zm0,2.66v-1.49h3.12v1.49Z"/><path class="cls-1" d="M186.1,99.53h6.07V101H186.1Zm2.24,6.72v-4.77H190v4.77Z"/><path class="cls-1" d="M192.65,107.33h0v-1.08h-.76v-1.49h1.62v1.49Z"/><path class="cls-1" d="M197,99.53h2.07V101h-1v3.74h1v1.49H197l-.56-.7v-5.34Zm2.53,1.49V99.53h2.08l.56.67V102h-1.49v-1Zm0,5.23v-1.49h1.15v-1h1.49v1.79l-.56.69Z"/><path class="cls-1" d="M203.53,99.53h2.06V101h-1v3.74h1v1.49h-2.06l-.56-.7v-5.34Zm2.53,1.49V99.53h2.08l.55.67v5.36l-.55.69h-2.08v-1.49h1.15V101Z"/><path class="cls-1" d="M214,106.28,211.25,101h-1.62V99.53h2.62l2.67,5.23h1.61v1.52Zm-2.73-4v4h-1.62v-4.77h1.19Zm3.67,1.24v-4h1.61v4.76h-1.21Z"/><path class="cls-1" d="M217.94,99.53H220V101h-1v.88l3.85.38.38.61v2.68l-.56.68h-2.2v-1.49h1.14v-1l-3.71-.35-.52-.64v-2.53Zm1.06,5.23h1v1.49h-2.05l-.56-.67v-1.5H219Zm1.46-3.74V99.53h2.21l.56.67v1.46h-1.62V101Z"/><path class="cls-1" d="M224.07,106.25V99.53h1.62v6.72Zm2.09-5.23V99.53h3.12V101Zm0,2.57V102.1h2.38v1.49Zm0,2.66v-1.49h3.12v1.49Z"/><path class="cls-1" d="M230.53,99.53h2.07V101h-1v3.74h1v1.49h-2.07l-.55-.7v-5.34Zm2.54,1.49V99.53h2.07l.56.67V102h-1.48v-1Zm0,5.23v-1.49h1.15v-1h1.48v1.79l-.56.69Z"/><path class="cls-1" d="M236.22,99.53h6.07V101h-6.07Zm2.23,6.72v-4.77h1.62v4.77Z"/><path class="cls-1" d="M242.94,106.25V99.53h1.62v6.72ZM245,101V99.53h3.12V101Zm0,2.57V102.1h2.38v1.49Zm0,2.66v-1.49h3.12v1.49Z"/><path class="cls-1" d="M248.57,99.53h6.07V101h-6.07Zm2.23,6.72v-4.77h1.62v4.77Z"/><path class="cls-1" d="M258.06,104.76v1.49h-2.21l-.56-.7v-6h1.62v5.23Zm2.84,1.49h-2.38v-1.49h1.31V99.53h1.62v6Z"/><path class="cls-1" d="M262.39,106.25V99.53H264v6.72Zm2.08-5.23V99.53h2.88l.56.67v2.7l-.47.57.63,2.78h-1.62l-.54-2.29h-1.44v-1.49h1.82V101Z"/><path class="cls-1" d="M43.65,117.42H42.1l1.67-4.76h1.15l.21.54Zm1.73-3.27H46l-.69-2H43.94l.52-1.49h1.85l2.35,6.72H47.14l-.63-1.78H44.86Z"/><path class="cls-1" d="M50.75,110.7v6.72H49.13V110.7Zm.47,1.49V110.7h3l.56.67v5.37l-.56.68h-3v-1.49h1.9v-3.74Z"/><path class="cls-1" d="M55.67,117.42V110.7h1.62v6.72Z"/><path class="cls-1" d="M58.22,117.42V110.7h1.62v6.72Zm2.09-5.23V110.7h2.87l.56.67v3.08l-.56.68H60.31v-1.48h1.81v-1.46Z"/><path class="cls-1" d="M64.58,117.42V110.7H66.2v6.72Z"/><path class="cls-1" d="M67.6,110.7h2.06v1.49h-1v.89l3.85.38.39.6v2.68l-.56.68H70.13v-1.49h1.15v-1l-3.72-.35-.52-.64v-2.54Zm1.06,5.23h1v1.49H67.6l-.56-.67v-1.49h1.62Zm1.46-3.74V110.7h2.22l.56.67v1.47H71.28v-.65Z"/><path class="cls-1" d="M74.29,110.7h2.07v1.49h-1v3.74h1v1.49H74.29l-.55-.69v-5.35Zm2.54,1.49V110.7H78.9l.56.67v1.82H78v-1Zm0,5.23v-1.49H78v-1h1.48v1.79l-.56.68Z"/><path class="cls-1" d="M80.26,117.42V110.7h1.61v6.72Z"/><path class="cls-1" d="M87.16,117.45l-2.73-5.26H82.81V110.7h2.62l2.66,5.23h1.62v1.52Zm-2.73-4v4H82.81v-4.76H84Zm3.66,1.24v-4h1.62v4.77H88.5Z"/><path class="cls-1" d="M92.27,115.93h1.07v1.49H91.21l-.56-.69v-5.35l.56-.68h2.13v1.49H92.27Zm4.25.81-.56.68H93.8v-1.49H95v-1.1H93.69v-1.49h2.83Zm-2.72-4.55V110.7H96l.56.67v1.44H95v-.62Z"/><path class="cls-1" d="M99.69,117.42V110.7h1.62v6.72Zm2.09-5.23V110.7h3.12v1.49Zm0,2.57v-1.49h2.38v1.49Zm0,2.66v-1.49h3.12v1.49Z"/><path class="cls-1" d="M105.6,117.42V110.7h1.62v6.72Zm2.08,0v-1.49h3.14v1.49Z"/><path class="cls-1" d="M111.47,117.42V110.7h1.62v6.72Z"/><path class="cls-1" d="M113.75,110.7h6.06v1.49h-6.06Zm2.23,6.72v-4.76h1.62v4.76Z"/><path class="cls-1" d="M120.29,118.5h0v-1.08h-.76v-1.49h1.62v1.49Z"/><path class="cls-1" d="M124.56,110.7h2v1.49h-1v.89l3.85.38.38.6v2.68l-.55.68h-2.21v-1.49h1.14v-1l-3.71-.35-.52-.64v-2.54Zm1.06,5.23h1v1.49h-2l-.56-.67v-1.49h1.62Zm1.46-3.74V110.7h2.22l.55.67v1.47h-1.62v-.65Z"/><path class="cls-1" d="M130.69,117.42V110.7h1.63v6.72Zm2.09-5.23V110.7h3.12v1.49Zm0,2.57v-1.49h2.38v1.49Zm0,2.66v-1.49h3.12v1.49Z"/><path class="cls-1" d="M138.22,110.7v6.72H136.6V110.7Zm.46,1.49V110.7h3l.56.67v5.37l-.56.68h-3v-1.49h1.9v-3.74Z"/><path class="cls-1" d="M147.09,110.7v6.72h-1.62V110.7Zm.46,1.49V110.7h3l.56.67v5.37l-.56.68h-3v-1.49h1.9v-3.74Z"/><path class="cls-1" d="M152.56,110.7h2.07v1.49h-1v3.74h1v1.49h-2.07l-.56-.69v-5.35Zm2.53,1.49V110.7h2.08l.56.67v5.37l-.56.68h-2.08v-1.49h1.16v-3.74Z"/><path class="cls-1" d="M161,117.42V110.7h1.62v6.72Zm2.09-5.23V110.7h3.11v1.49Zm0,2.57v-1.49h2.38v1.49Zm0,2.66v-1.49h3.11v1.49Z"/><path class="cls-1" d="M166.89,117.42V110.7h1.62v6.72Z"/><path class="cls-1" d="M172.21,115.93v1.49H170l-.55-.69v-6h1.62v5.23Zm2.84,1.49h-2.37v-1.49H174V110.7h1.62v6Z"/><path class="cls-1" d="M177,110.7h2.05v1.49h-1v.89l3.85.38.38.6v2.68l-.55.68h-2.21v-1.49h1.15v-1l-3.72-.35-.52-.64v-2.54Zm1.06,5.23h1v1.49H177l-.56-.67v-1.49h1.62Zm1.46-3.74V110.7h2.22l.55.67v1.47h-1.61v-.65Z"/><path class="cls-1" d="M188,116.08l-.23.55h-1.2l-1.76-4.44h-1.62V110.7h2.71Zm-3.19-2.59v3.93h-1.62v-4.76h1.2Zm2.59-.12,1-2.67h2.72v6.72H189.5v-5.23l-1.31,3.31Z"/><path class="cls-1" d="M192.62,110.7h2.06v1.49h-1v3.74h1v1.49h-2.06l-.56-.69v-5.35Zm2.53,1.49V110.7h2.07l.56.67v5.37l-.56.68h-2.07v-1.49h1.15v-3.74Z"/><path class="cls-1" d="M200.34,110.7v6.72h-1.62V110.7Zm.46,1.49V110.7h3l.56.67v5.37l-.56.68h-3v-1.49h1.9v-3.74Z"/><path class="cls-1" d="M207.3,110.7h6.07v1.49H207.3Zm2.24,6.72v-4.76h1.62v4.76Z"/><path class="cls-1" d="M214,117.42V110.7h1.62v6.72Zm2.08-5.23V110.7h3.12v1.49Zm0,2.57v-1.49h2.39v1.49Zm0,2.66v-1.49h3.12v1.49Z"/><path class="cls-1" d="M224.75,116.08l-.23.55h-1.2l-1.77-4.44h-1.62V110.7h2.72Zm-3.2-2.59v3.93h-1.62v-4.76h1.2Zm2.6-.12,1-2.67h2.72v6.72h-1.62v-5.23L225,115.5Z"/><path class="cls-1" d="M228.85,117.42V110.7h1.61v6.72Zm2.08-5.23V110.7h2.88l.55.67v3.08l-.55.68h-2.88v-1.48h1.82v-1.46Z"/><path class="cls-1" d="M235.76,110.7h2.07v1.49h-1v3.74h1v1.49h-2.07l-.55-.69v-5.35Zm2.54,1.49V110.7h2.07l.56.67v5.37l-.56.68H238.3v-1.49h1.15v-3.74Z"/><path class="cls-1" d="M241.87,117.42V110.7h1.62v6.72Zm2.08-5.23V110.7h2.88l.55.67v2.7l-.46.58.62,2.77h-1.61l-.55-2.29H244v-1.48h1.82v-1.46Z"/><path class="cls-1" d="M250.65,117.42V110.7h1.62v6.72Z"/><path class="cls-1" d="M257.56,117.45l-2.74-5.26H253.2V110.7h2.62l2.67,5.23h1.62v1.52Zm-2.74-4v4H253.2v-4.76h1.19Zm3.67,1.24v-4h1.62v4.77H258.9Z"/><path class="cls-1" d="M261.6,110.7h2.07v1.49h-1v3.74h1v1.49H261.6l-.56-.69v-5.35Zm2.53,1.49V110.7h2.08l.56.67v1.82h-1.49v-1Zm0,5.23v-1.49h1.15v-1h1.49v1.79l-.56.68Z"/><path class="cls-1" d="M267.56,117.42V110.7h1.62v6.72Z"/><path class="cls-1" d="M271.73,110.7v6.72h-1.62V110.7Zm.47,1.49V110.7h3l.56.67v5.37l-.56.68h-3v-1.49h1.89v-3.74Z"/><path class="cls-1" d="M276.65,117.42V110.7h1.62v6.72Z"/><path class="cls-1" d="M280.82,110.7v6.72H279.2V110.7Zm.47,1.49V110.7h2.95l.56.67v5.37l-.56.68h-2.95v-1.49h1.89v-3.74Z"/><path class="cls-1" d="M288.5,115.93v1.49h-2.2l-.56-.69v-6h1.62v5.23Zm2.84,1.49H289v-1.49h1.31V110.7h1.62v6Z"/><path class="cls-1" d="M297.19,117.45l-2.74-5.26h-1.62V110.7h2.63l2.66,5.23h1.62v1.52Zm-2.74-4v4h-1.62v-4.76H294Zm3.67,1.24v-4h1.62v4.77h-1.21Z"/><path class="cls-1" d="M300.4,110.7h6.07v1.49H300.4Zm2.23,6.72v-4.76h1.62v4.76Z"/></g></g></svg>