<svg xmlns="http://www.w3.org/2000/svg" xmlns:xlink="http://www.w3.org/1999/xlink" viewBox="0 0 496 180.22"><defs><style>.cls-1{fill:url(#New_Gradient_Swatch_1);}.cls-2{fill:url(#New_Gradient_Swatch_1-2);}.cls-3{fill:url(#New_Gradient_Swatch_1-3);}.cls-4{fill:url(#New_Gradient_Swatch_1-4);}.cls-5{fill:url(#New_Gradient_Swatch_1-5);}.cls-6{fill:url(#New_Gradient_Swatch_1-6);}.cls-7{fill:url(#New_Gradient_Swatch_1-7);}.cls-8{fill:url(#New_Gradient_Swatch_1-8);}.cls-9{fill:url(#New_Gradient_Swatch_1-9);}.cls-10{fill:url(#New_Gradient_Swatch_1-10);}.cls-11{fill:url(#New_Gradient_Swatch_1-11);}.cls-12{fill:url(#New_Gradient_Swatch_1-12);}.cls-13{fill:url(#New_Gradient_Swatch_1-13);}.cls-14{fill:url(#New_Gradient_Swatch_1-14);}.cls-15{fill:url(#New_Gradient_Swatch_1-15);}.cls-16{fill:url(#New_Gradient_Swatch_1-16);}.cls-17{fill:url(#New_Gradient_Swatch_1-17);}.cls-18{fill:url(#New_Gradient_Swatch_1-18);}.cls-19{fill:url(#New_Gradient_Swatch_1-19);}.cls-20{opacity:0.15;}.cls-21{fill:url(#New_Gradient_Swatch_1-20);}.cls-22{fill:url(#New_Gradient_Swatch_1-21);}.cls-23{fill:url(#New_Gradient_Swatch_1-22);}.cls-24{fill:url(#New_Gradient_Swatch_1-23);}.cls-25{fill:url(#New_Gradient_Swatch_1-24);}.cls-26{fill:url(#New_Gradient_Swatch_1-25);}.cls-27{fill:url(#New_Gradient_Swatch_1-26);}.cls-28{fill:url(#New_Gradient_Swatch_1-27);}.cls-29{fill:url(#New_Gradient_Swatch_1-28);}.cls-30{fill:url(#New_Gradient_Swatch_1-29);}.cls-31{fill:url(#New_Gradient_Swatch_1-30);}.cls-32{fill:url(#New_Gradient_Swatch_1-31);}.cls-33{fill:url(#New_Gradient_Swatch_1-32);}.cls-34{fill:url(#New_Gradient_Swatch_1-33);}.cls-35{fill:url(#New_Gradient_Swatch_1-34);}.cls-36{fill:url(#New_Gradient_Swatch_1-35);}.cls-37{fill:url(#New_Gradient_Swatch_1-36);}.cls-38{fill:url(#New_Gradient_Swatch_1-37);}.cls-39{fill:url(#New_Gradient_Swatch_1-38);}.cls-40{fill:url(#New_Gradient_Swatch_1-39);}.cls-41{fill:url(#New_Gradient_Swatch_1-40);}.cls-42{fill:url(#New_Gradient_Swatch_1-41);}.cls-43{fill:url(#New_Gradient_Swatch_1-42);}.cls-44{fill:url(#New_Gradient_Swatch_1-43);}.cls-45{fill:url(#New_Gradient_Swatch_1-44);}.cls-46{fill:url(#New_Gradient_Swatch_1-45);}.cls-47{fill:url(#New_Gradient_Swatch_1-46);}.cls-48{fill:url(#New_Gradient_Swatch_1-47);}.cls-49{fill:url(#New_Gradient_Swatch_1-48);}.cls-50{fill:url(#New_Gradient_Swatch_1-49);}.cls-51{fill:url(#New_Gradient_Swatch_1-50);}.cls-52{fill:url(#New_Gradient_Swatch_1-51);}.cls-53{fill:url(#New_Gradient_Swatch_1-52);}.cls-54{fill:url(#New_Gradient_Swatch_1-53);}.cls-55{fill:url(#New_Gradient_Swatch_1-54);}.cls-56{fill:url(#New_Gradient_Swatch_1-55);}.cls-57{fill:url(#New_Gradient_Swatch_1-56);}.cls-58{fill:url(#New_Gradient_Swatch_1-57);}.cls-59{fill:url(#New_Gradient_Swatch_1-58);}.cls-60{fill:url(#New_Gradient_Swatch_1-59);}.cls-61{fill:url(#New_Gradient_Swatch_1-60);}.cls-62{fill:url(#New_Gradient_Swatch_1-61);}.cls-63{fill:url(#New_Gradient_Swatch_1-62);}.cls-64{fill:url(#New_Gradient_Swatch_1-63);}.cls-65{fill:url(#New_Gradient_Swatch_1-64);}.cls-66{fill:url(#New_Gradient_Swatch_1-65);}.cls-67{fill:url(#New_Gradient_Swatch_1-66);}.cls-68{fill:url(#New_Gradient_Swatch_1-67);}.cls-69{fill:url(#New_Gradient_Swatch_1-68);}.cls-70{fill:url(#New_Gradient_Swatch_1-69);}.cls-71{fill:url(#New_Gradient_Swatch_1-70);}.cls-72{fill:url(#New_Gradient_Swatch_1-71);}.cls-73{fill:url(#New_Gradient_Swatch_1-72);}.cls-74{fill:url(#New_Gradient_Swatch_1-73);}.cls-75{fill:url(#New_Gradient_Swatch_1-74);}.cls-76{fill:url(#New_Gradient_Swatch_1-75);}.cls-77{fill:url(#New_Gradient_Swatch_1-76);}.cls-78{fill:url(#New_Gradient_Swatch_1-77);}.cls-79{fill:url(#New_Gradient_Swatch_1-78);}.cls-80{fill:url(#New_Gradient_Swatch_1-79);}.cls-81{fill:url(#New_Gradient_Swatch_1-80);}.cls-82{fill:url(#New_Gradient_Swatch_1-81);}.cls-83{fill:url(#New_Gradient_Swatch_1-82);}.cls-84{fill:url(#New_Gradient_Swatch_1-83);}.cls-85{fill:url(#New_Gradient_Swatch_1-84);}.cls-86{fill:url(#New_Gradient_Swatch_1-85);}.cls-87{fill:url(#New_Gradient_Swatch_1-86);}.cls-88{fill:url(#New_Gradient_Swatch_1-87);}.cls-89{fill:url(#New_Gradient_Swatch_1-88);}.cls-90{fill:url(#New_Gradient_Swatch_1-89);}.cls-91{fill:url(#New_Gradient_Swatch_1-90);}.cls-92{fill:url(#New_Gradient_Swatch_1-91);}.cls-93{fill:url(#New_Gradient_Swatch_1-92);}.cls-94{fill:url(#New_Gradient_Swatch_1-93);}.cls-95{fill:url(#New_Gradient_Swatch_1-94);}.cls-96{fill:url(#New_Gradient_Swatch_1-95);}.cls-97{fill:url(#New_Gradient_Swatch_1-96);}.cls-98{fill:url(#New_Gradient_Swatch_1-97);}.cls-99{fill:url(#New_Gradient_Swatch_1-98);}.cls-100{fill:url(#New_Gradient_Swatch_1-99);}.cls-101{fill:url(#New_Gradient_Swatch_1-100);}.cls-102{fill:url(#New_Gradient_Swatch_1-101);}.cls-103{fill:url(#New_Gradient_Swatch_1-102);}.cls-104{fill:url(#New_Gradient_Swatch_1-103);}.cls-105{fill:url(#New_Gradient_Swatch_1-104);}.cls-106{fill:url(#New_Gradient_Swatch_1-105);}.cls-107{fill:url(#New_Gradient_Swatch_1-106);}.cls-108{fill:url(#New_Gradient_Swatch_1-107);}.cls-109{fill:url(#New_Gradient_Swatch_1-108);}.cls-110{fill:url(#New_Gradient_Swatch_1-109);}.cls-111{fill:url(#New_Gradient_Swatch_1-110);}.cls-112{fill:url(#New_Gradient_Swatch_1-111);}.cls-113{fill:url(#New_Gradient_Swatch_1-112);}.cls-114{fill:url(#New_Gradient_Swatch_1-113);}.cls-115{fill:url(#New_Gradient_Swatch_1-114);}.cls-116{fill:url(#New_Gradient_Swatch_1-115);}.cls-117{fill:url(#New_Gradient_Swatch_1-116);}.cls-118{fill:url(#New_Gradient_Swatch_1-117);}.cls-119{fill:url(#New_Gradient_Swatch_1-118);}.cls-120{fill:url(#New_Gradient_Swatch_1-119);}.cls-121{fill:url(#New_Gradient_Swatch_1-120);}.cls-122{fill:url(#New_Gradient_Swatch_1-121);}.cls-123{fill:url(#New_Gradient_Swatch_1-122);}.cls-124{fill:url(#New_Gradient_Swatch_1-123);}.cls-125{fill:url(#New_Gradient_Swatch_1-124);}.cls-126{fill:url(#New_Gradient_Swatch_1-125);}.cls-127{fill:url(#New_Gradient_Swatch_1-126);}.cls-128{fill:url(#New_Gradient_Swatch_1-127);}.cls-129{fill:url(#New_Gradient_Swatch_1-128);}.cls-130{fill:url(#New_Gradient_Swatch_1-129);}.cls-131{fill:url(#New_Gradient_Swatch_1-130);}.cls-132{fill:url(#New_Gradient_Swatch_1-131);}.cls-133{fill:url(#New_Gradient_Swatch_1-132);}.cls-134{fill:url(#New_Gradient_Swatch_1-133);}.cls-135{fill:url(#New_Gradient_Swatch_1-134);}.cls-136{fill:url(#New_Gradient_Swatch_1-135);}.cls-137{fill:url(#New_Gradient_Swatch_1-136);}.cls-138{fill:url(#New_Gradient_Swatch_1-137);}.cls-139{fill:url(#New_Gradient_Swatch_1-138);}.cls-140{fill:url(#New_Gradient_Swatch_1-139);}.cls-141{fill:url(#New_Gradient_Swatch_1-140);}.cls-142{fill:url(#New_Gradient_Swatch_1-141);}.cls-143{fill:url(#New_Gradient_Swatch_1-142);}.cls-144{fill:url(#New_Gradient_Swatch_1-143);}.cls-145{fill:url(#New_Gradient_Swatch_1-144);}.cls-146{fill:url(#New_Gradient_Swatch_1-145);}.cls-147{fill:url(#New_Gradient_Swatch_1-146);}.cls-148{fill:url(#New_Gradient_Swatch_1-147);}.cls-149{fill:url(#New_Gradient_Swatch_1-148);}.cls-150{fill:url(#New_Gradient_Swatch_1-149);}.cls-151{fill:url(#New_Gradient_Swatch_1-150);}.cls-152{fill:url(#New_Gradient_Swatch_1-151);}.cls-153{fill:url(#New_Gradient_Swatch_1-152);}.cls-154{fill:url(#New_Gradient_Swatch_1-153);}.cls-155{fill:url(#New_Gradient_Swatch_1-154);}.cls-156{fill:url(#New_Gradient_Swatch_1-155);}.cls-157{fill:url(#New_Gradient_Swatch_1-156);}.cls-158{fill:url(#New_Gradient_Swatch_1-157);}.cls-159{fill:url(#New_Gradient_Swatch_1-158);}.cls-160{fill:url(#New_Gradient_Swatch_1-159);}.cls-161{fill:url(#New_Gradient_Swatch_1-160);}.cls-162{fill:url(#New_Gradient_Swatch_1-161);}</style><linearGradient id="New_Gradient_Swatch_1" x1="16.26" y1="154.84" x2="150.73" y2="154.84" gradientUnits="userSpaceOnUse"><stop offset="0" stop-color="#cf52fe"/><stop offset="1" stop-color="#19dbb6"/></linearGradient><linearGradient id="New_Gradient_Swatch_1-2" x1="0" y1="84.51" x2="342.57" y2="84.51" xlink:href="#New_Gradient_Swatch_1"/><linearGradient id="New_Gradient_Swatch_1-3" x1="304.14" y1="80.93" x2="314.23" y2="80.93" xlink:href="#New_Gradient_Swatch_1"/><linearGradient id="New_Gradient_Swatch_1-4" x1="286.06" y1="70.96" x2="297.59" y2="70.96" xlink:href="#New_Gradient_Swatch_1"/><linearGradient id="New_Gradient_Swatch_1-5" x1="267.98" y1="83.05" x2="279.51" y2="83.05" xlink:href="#New_Gradient_Swatch_1"/><linearGradient id="New_Gradient_Swatch_1-6" x1="249.9" y1="78.46" x2="261.44" y2="78.46" xlink:href="#New_Gradient_Swatch_1"/><linearGradient id="New_Gradient_Swatch_1-7" x1="242.11" y1="105.39" x2="318.72" y2="105.39" xlink:href="#New_Gradient_Swatch_1"/><linearGradient id="New_Gradient_Swatch_1-8" x1="242.11" y1="32.88" x2="274.08" y2="32.88" xlink:href="#New_Gradient_Swatch_1"/><linearGradient id="New_Gradient_Swatch_1-9" x1="246.79" y1="108.05" x2="287.14" y2="108.05" xlink:href="#New_Gradient_Swatch_1"/><linearGradient id="New_Gradient_Swatch_1-10" x1="247.67" y1="27.3" x2="255.34" y2="27.3" xlink:href="#New_Gradient_Swatch_1"/><linearGradient id="New_Gradient_Swatch_1-11" x1="139.87" y1="2.78" x2="267.02" y2="2.78" xlink:href="#New_Gradient_Swatch_1"/><linearGradient id="New_Gradient_Swatch_1-12" x1="321.38" y1="50.49" x2="324.51" y2="50.49" xlink:href="#New_Gradient_Swatch_1"/><linearGradient id="New_Gradient_Swatch_1-13" x1="9.61" y1="79.53" x2="14.18" y2="79.53" xlink:href="#New_Gradient_Swatch_1"/><linearGradient id="New_Gradient_Swatch_1-14" x1="207.76" y1="164.35" x2="345.06" y2="164.35" xlink:href="#New_Gradient_Swatch_1"/><linearGradient id="New_Gradient_Swatch_1-15" x1="283.46" y1="170.4" x2="335.68" y2="170.4" xlink:href="#New_Gradient_Swatch_1"/><linearGradient id="New_Gradient_Swatch_1-16" x1="22.05" y1="165.98" x2="185.73" y2="165.98" xlink:href="#New_Gradient_Swatch_1"/><linearGradient id="New_Gradient_Swatch_1-17" x1="463.03" y1="22.02" x2="489.13" y2="22.02" xlink:href="#New_Gradient_Swatch_1"/><linearGradient id="New_Gradient_Swatch_1-18" x1="456.17" y1="22.02" x2="496" y2="22.02" xlink:href="#New_Gradient_Swatch_1"/><linearGradient id="New_Gradient_Swatch_1-19" x1="323.68" y1="74.1" x2="449.41" y2="74.1" xlink:href="#New_Gradient_Swatch_1"/><linearGradient id="New_Gradient_Swatch_1-20" x1="10.06" y1="79.05" x2="277" y2="79.05" xlink:href="#New_Gradient_Swatch_1"/><linearGradient id="New_Gradient_Swatch_1-21" x1="193.67" y1="135.08" x2="337.05" y2="135.08" xlink:href="#New_Gradient_Swatch_1"/><linearGradient id="New_Gradient_Swatch_1-22" x1="119.51" y1="16.02" x2="191.89" y2="16.02" xlink:href="#New_Gradient_Swatch_1"/><linearGradient id="New_Gradient_Swatch_1-23" x1="0.68" y1="43.92" x2="7.56" y2="43.92" gradientTransform="translate(32.26 9.95) rotate(45)" xlink:href="#New_Gradient_Swatch_1"/><linearGradient id="New_Gradient_Swatch_1-24" x1="0.68" y1="57.59" x2="7.56" y2="57.59" gradientTransform="translate(41.93 13.96) rotate(45)" xlink:href="#New_Gradient_Swatch_1"/><linearGradient id="New_Gradient_Swatch_1-25" x1="0.68" y1="71.26" x2="7.56" y2="71.26" gradientTransform="translate(51.6 17.96) rotate(45)" xlink:href="#New_Gradient_Swatch_1"/><linearGradient id="New_Gradient_Swatch_1-26" x1="0.68" y1="84.94" x2="7.56" y2="84.94" gradientTransform="translate(61.26 21.97) rotate(45)" xlink:href="#New_Gradient_Swatch_1"/><linearGradient id="New_Gradient_Swatch_1-27" x1="0.68" y1="98.61" x2="7.56" y2="98.61" gradientTransform="translate(70.93 25.97) rotate(45)" xlink:href="#New_Gradient_Swatch_1"/><linearGradient id="New_Gradient_Swatch_1-28" x1="0.68" y1="112.28" x2="7.56" y2="112.28" gradientTransform="translate(80.6 29.97) rotate(45)" xlink:href="#New_Gradient_Swatch_1"/><linearGradient id="New_Gradient_Swatch_1-29" x1="177.44" y1="174.41" x2="182.83" y2="174.41" xlink:href="#New_Gradient_Swatch_1"/><linearGradient id="New_Gradient_Swatch_1-30" x1="174.33" y1="174.41" x2="185.95" y2="174.41" xlink:href="#New_Gradient_Swatch_1"/><linearGradient id="New_Gradient_Swatch_1-31" x1="329.82" y1="91.6" x2="334.17" y2="91.6" xlink:href="#New_Gradient_Swatch_1"/><linearGradient id="New_Gradient_Swatch_1-32" x1="327.3" y1="91.6" x2="336.68" y2="91.6" xlink:href="#New_Gradient_Swatch_1"/><linearGradient id="New_Gradient_Swatch_1-33" x1="147.42" y1="174.41" x2="152.81" y2="174.41" xlink:href="#New_Gradient_Swatch_1"/><linearGradient id="New_Gradient_Swatch_1-34" x1="144.3" y1="174.41" x2="155.92" y2="174.41" xlink:href="#New_Gradient_Swatch_1"/><linearGradient id="New_Gradient_Swatch_1-35" x1="117.39" y1="174.41" x2="122.79" y2="174.41" xlink:href="#New_Gradient_Swatch_1"/><linearGradient id="New_Gradient_Swatch_1-36" x1="114.28" y1="174.41" x2="125.9" y2="174.41" xlink:href="#New_Gradient_Swatch_1"/><linearGradient id="New_Gradient_Swatch_1-37" x1="87.37" y1="174.41" x2="92.76" y2="174.41" xlink:href="#New_Gradient_Swatch_1"/><linearGradient id="New_Gradient_Swatch_1-38" x1="84.26" y1="174.41" x2="95.88" y2="174.41" xlink:href="#New_Gradient_Swatch_1"/><linearGradient id="New_Gradient_Swatch_1-39" x1="57.35" y1="174.41" x2="62.74" y2="174.41" xlink:href="#New_Gradient_Swatch_1"/><linearGradient id="New_Gradient_Swatch_1-40" x1="54.23" y1="174.41" x2="65.85" y2="174.41" xlink:href="#New_Gradient_Swatch_1"/><linearGradient id="New_Gradient_Swatch_1-41" x1="27.32" y1="174.41" x2="32.72" y2="174.41" xlink:href="#New_Gradient_Swatch_1"/><linearGradient id="New_Gradient_Swatch_1-42" x1="24.21" y1="174.41" x2="35.83" y2="174.41" xlink:href="#New_Gradient_Swatch_1"/><linearGradient id="New_Gradient_Swatch_1-43" x1="347.37" y1="23.82" x2="352.77" y2="23.82" xlink:href="#New_Gradient_Swatch_1"/><linearGradient id="New_Gradient_Swatch_1-44" x1="344.26" y1="23.82" x2="355.88" y2="23.82" xlink:href="#New_Gradient_Swatch_1"/><linearGradient id="New_Gradient_Swatch_1-45" x1="71.97" y1="109.03" x2="77.36" y2="109.03" xlink:href="#New_Gradient_Swatch_1"/><linearGradient id="New_Gradient_Swatch_1-46" x1="68.85" y1="109.03" x2="80.47" y2="109.03" xlink:href="#New_Gradient_Swatch_1"/><linearGradient id="New_Gradient_Swatch_1-47" x1="113.5" y1="109.03" x2="118.9" y2="109.03" xlink:href="#New_Gradient_Swatch_1"/><linearGradient id="New_Gradient_Swatch_1-48" x1="110.39" y1="109.03" x2="122.01" y2="109.03" xlink:href="#New_Gradient_Swatch_1"/><linearGradient id="New_Gradient_Swatch_1-49" x1="155.04" y1="109.03" x2="160.44" y2="109.03" xlink:href="#New_Gradient_Swatch_1"/><linearGradient id="New_Gradient_Swatch_1-50" x1="151.93" y1="109.03" x2="163.55" y2="109.03" xlink:href="#New_Gradient_Swatch_1"/><linearGradient id="New_Gradient_Swatch_1-51" x1="30.07" y1="70.62" x2="34.04" y2="70.62" xlink:href="#New_Gradient_Swatch_1"/><linearGradient id="New_Gradient_Swatch_1-52" x1="34.53" y1="70.62" x2="38.88" y2="70.62" xlink:href="#New_Gradient_Swatch_1"/><linearGradient id="New_Gradient_Swatch_1-53" x1="39.59" y1="70.62" x2="43.91" y2="70.62" xlink:href="#New_Gradient_Swatch_1"/><linearGradient id="New_Gradient_Swatch_1-54" x1="44.49" y1="70.62" x2="48.45" y2="70.62" xlink:href="#New_Gradient_Swatch_1"/><linearGradient id="New_Gradient_Swatch_1-55" x1="48.98" y1="70.62" x2="55.04" y2="70.62" xlink:href="#New_Gradient_Swatch_1"/><linearGradient id="New_Gradient_Swatch_1-56" x1="57.52" y1="70.62" x2="58.75" y2="70.62" xlink:href="#New_Gradient_Swatch_1"/><linearGradient id="New_Gradient_Swatch_1-57" x1="59.46" y1="70.62" x2="63.65" y2="70.62" xlink:href="#New_Gradient_Swatch_1"/><linearGradient id="New_Gradient_Swatch_1-58" x1="64.22" y1="70.62" x2="68.67" y2="70.62" xlink:href="#New_Gradient_Swatch_1"/><linearGradient id="New_Gradient_Swatch_1-59" x1="69.31" y1="70.62" x2="73.99" y2="70.62" xlink:href="#New_Gradient_Swatch_1"/><linearGradient id="New_Gradient_Swatch_1-60" x1="74.7" y1="70.62" x2="80.76" y2="70.62" xlink:href="#New_Gradient_Swatch_1"/><linearGradient id="New_Gradient_Swatch_1-61" x1="83.24" y1="70.62" x2="87.5" y2="70.62" xlink:href="#New_Gradient_Swatch_1"/><linearGradient id="New_Gradient_Swatch_1-62" x1="88.2" y1="70.62" x2="92.55" y2="70.62" xlink:href="#New_Gradient_Swatch_1"/><linearGradient id="New_Gradient_Swatch_1-63" x1="93.26" y1="70.62" x2="97.23" y2="70.62" xlink:href="#New_Gradient_Swatch_1"/><linearGradient id="New_Gradient_Swatch_1-64" x1="97.73" y1="70.62" x2="102.08" y2="70.62" xlink:href="#New_Gradient_Swatch_1"/><linearGradient id="New_Gradient_Swatch_1-65" x1="102.79" y1="70.62" x2="107.1" y2="70.62" xlink:href="#New_Gradient_Swatch_1"/><linearGradient id="New_Gradient_Swatch_1-66" x1="109.39" y1="70.62" x2="113.84" y2="70.62" xlink:href="#New_Gradient_Swatch_1"/><linearGradient id="New_Gradient_Swatch_1-67" x1="114.48" y1="70.62" x2="115.71" y2="70.62" xlink:href="#New_Gradient_Swatch_1"/><linearGradient id="New_Gradient_Swatch_1-68" x1="116.2" y1="70.62" x2="120.81" y2="70.62" xlink:href="#New_Gradient_Swatch_1"/><linearGradient id="New_Gradient_Swatch_1-69" x1="122.73" y1="70.62" x2="127.71" y2="70.62" xlink:href="#New_Gradient_Swatch_1"/><linearGradient id="New_Gradient_Swatch_1-70" x1="128.07" y1="70.62" x2="134.13" y2="70.62" xlink:href="#New_Gradient_Swatch_1"/><linearGradient id="New_Gradient_Swatch_1-71" x1="134.84" y1="70.62" x2="138.79" y2="70.62" xlink:href="#New_Gradient_Swatch_1"/><linearGradient id="New_Gradient_Swatch_1-72" x1="139.11" y1="70.62" x2="143.72" y2="70.62" xlink:href="#New_Gradient_Swatch_1"/><linearGradient id="New_Gradient_Swatch_1-73" x1="143.48" y1="73.02" x2="144.71" y2="73.02" xlink:href="#New_Gradient_Swatch_1"/><linearGradient id="New_Gradient_Swatch_1-74" x1="146.97" y1="70.62" x2="151.32" y2="70.62" xlink:href="#New_Gradient_Swatch_1"/><linearGradient id="New_Gradient_Swatch_1-75" x1="151.92" y1="70.62" x2="156.27" y2="70.62" xlink:href="#New_Gradient_Swatch_1"/><linearGradient id="New_Gradient_Swatch_1-76" x1="156.98" y1="70.64" x2="162.23" y2="70.64" xlink:href="#New_Gradient_Swatch_1"/><linearGradient id="New_Gradient_Swatch_1-77" x1="162.87" y1="70.62" x2="167.32" y2="70.62" xlink:href="#New_Gradient_Swatch_1"/><linearGradient id="New_Gradient_Swatch_1-78" x1="167.96" y1="70.62" x2="171.91" y2="70.62" xlink:href="#New_Gradient_Swatch_1"/><linearGradient id="New_Gradient_Swatch_1-79" x1="172.44" y1="70.62" x2="176.79" y2="70.62" xlink:href="#New_Gradient_Swatch_1"/><linearGradient id="New_Gradient_Swatch_1-80" x1="177.18" y1="70.62" x2="181.79" y2="70.62" xlink:href="#New_Gradient_Swatch_1"/><linearGradient id="New_Gradient_Swatch_1-81" x1="182.29" y1="70.62" x2="186.24" y2="70.62" xlink:href="#New_Gradient_Swatch_1"/><linearGradient id="New_Gradient_Swatch_1-82" x1="186.57" y1="70.62" x2="191.18" y2="70.62" xlink:href="#New_Gradient_Swatch_1"/><linearGradient id="New_Gradient_Swatch_1-83" x1="191.67" y1="70.62" x2="196.35" y2="70.62" xlink:href="#New_Gradient_Swatch_1"/><linearGradient id="New_Gradient_Swatch_1-84" x1="197.07" y1="70.62" x2="201.38" y2="70.62" xlink:href="#New_Gradient_Swatch_1"/><linearGradient id="New_Gradient_Swatch_1-85" x1="29.71" y1="79.12" x2="34.7" y2="79.12" xlink:href="#New_Gradient_Swatch_1"/><linearGradient id="New_Gradient_Swatch_1-86" x1="35.06" y1="79.12" x2="39.31" y2="79.12" xlink:href="#New_Gradient_Swatch_1"/><linearGradient id="New_Gradient_Swatch_1-87" x1="40.02" y1="79.12" x2="41.25" y2="79.12" xlink:href="#New_Gradient_Swatch_1"/><linearGradient id="New_Gradient_Swatch_1-88" x1="41.96" y1="79.12" x2="46.15" y2="79.12" xlink:href="#New_Gradient_Swatch_1"/><linearGradient id="New_Gradient_Swatch_1-89" x1="46.79" y1="79.12" x2="48.02" y2="79.12" xlink:href="#New_Gradient_Swatch_1"/><linearGradient id="New_Gradient_Swatch_1-90" x1="48.66" y1="79.12" x2="53.11" y2="79.12" xlink:href="#New_Gradient_Swatch_1"/><linearGradient id="New_Gradient_Swatch_1-91" x1="53.75" y1="79.12" x2="58.1" y2="79.12" xlink:href="#New_Gradient_Swatch_1"/><linearGradient id="New_Gradient_Swatch_1-92" x1="58.7" y1="79.12" x2="59.93" y2="79.12" xlink:href="#New_Gradient_Swatch_1"/><linearGradient id="New_Gradient_Swatch_1-93" x1="60.64" y1="79.13" x2="65.88" y2="79.13" xlink:href="#New_Gradient_Swatch_1"/><linearGradient id="New_Gradient_Swatch_1-94" x1="66.59" y1="79.12" x2="71.06" y2="79.12" xlink:href="#New_Gradient_Swatch_1"/><linearGradient id="New_Gradient_Swatch_1-95" x1="73.46" y1="79.12" x2="77.42" y2="79.12" xlink:href="#New_Gradient_Swatch_1"/><linearGradient id="New_Gradient_Swatch_1-96" x1="77.95" y1="79.12" x2="81.92" y2="79.12" xlink:href="#New_Gradient_Swatch_1"/><linearGradient id="New_Gradient_Swatch_1-97" x1="82.41" y1="79.12" x2="83.64" y2="79.12" xlink:href="#New_Gradient_Swatch_1"/><linearGradient id="New_Gradient_Swatch_1-98" x1="84.14" y1="79.12" x2="88.75" y2="79.12" xlink:href="#New_Gradient_Swatch_1"/><linearGradient id="New_Gradient_Swatch_1-99" x1="88.51" y1="81.51" x2="89.74" y2="81.51" xlink:href="#New_Gradient_Swatch_1"/><linearGradient id="New_Gradient_Swatch_1-100" x1="91.93" y1="79.12" x2="96.38" y2="79.12" xlink:href="#New_Gradient_Swatch_1"/><linearGradient id="New_Gradient_Swatch_1-101" x1="97.02" y1="79.12" x2="100.97" y2="79.12" xlink:href="#New_Gradient_Swatch_1"/><linearGradient id="New_Gradient_Swatch_1-102" x1="101.5" y1="79.12" x2="105.76" y2="79.12" xlink:href="#New_Gradient_Swatch_1"/><linearGradient id="New_Gradient_Swatch_1-103" x1="108.24" y1="79.12" x2="112.5" y2="79.12" xlink:href="#New_Gradient_Swatch_1"/><linearGradient id="New_Gradient_Swatch_1-104" x1="113.21" y1="79.12" x2="117.56" y2="79.12" xlink:href="#New_Gradient_Swatch_1"/><linearGradient id="New_Gradient_Swatch_1-105" x1="120.03" y1="79.12" x2="123.99" y2="79.12" xlink:href="#New_Gradient_Swatch_1"/><linearGradient id="New_Gradient_Swatch_1-106" x1="124.52" y1="79.12" x2="125.75" y2="79.12" xlink:href="#New_Gradient_Swatch_1"/><linearGradient id="New_Gradient_Swatch_1-107" x1="126.46" y1="79.12" x2="131.14" y2="79.12" xlink:href="#New_Gradient_Swatch_1"/><linearGradient id="New_Gradient_Swatch_1-108" x1="131.78" y1="79.12" x2="136.23" y2="79.12" xlink:href="#New_Gradient_Swatch_1"/><linearGradient id="New_Gradient_Swatch_1-109" x1="136.86" y1="79.12" x2="142.93" y2="79.12" xlink:href="#New_Gradient_Swatch_1"/><linearGradient id="New_Gradient_Swatch_1-110" x1="143.64" y1="79.12" x2="147.99" y2="79.12" xlink:href="#New_Gradient_Swatch_1"/><linearGradient id="New_Gradient_Swatch_1-111" x1="148.69" y1="79.12" x2="152.95" y2="79.12" xlink:href="#New_Gradient_Swatch_1"/><linearGradient id="New_Gradient_Swatch_1-112" x1="155.22" y1="79.12" x2="159.83" y2="79.12" xlink:href="#New_Gradient_Swatch_1"/><linearGradient id="New_Gradient_Swatch_1-113" x1="160.33" y1="79.12" x2="164.28" y2="79.12" xlink:href="#New_Gradient_Swatch_1"/><linearGradient id="New_Gradient_Swatch_1-114" x1="164.81" y1="79.12" x2="170.87" y2="79.12" xlink:href="#New_Gradient_Swatch_1"/><linearGradient id="New_Gradient_Swatch_1-115" x1="171.58" y1="79.12" x2="175.78" y2="79.12" xlink:href="#New_Gradient_Swatch_1"/><linearGradient id="New_Gradient_Swatch_1-116" x1="176.42" y1="79.12" x2="180.76" y2="79.12" xlink:href="#New_Gradient_Swatch_1"/><linearGradient id="New_Gradient_Swatch_1-117" x1="181.47" y1="79.12" x2="185.79" y2="79.12" xlink:href="#New_Gradient_Swatch_1"/><linearGradient id="New_Gradient_Swatch_1-118" x1="188.15" y1="79.12" x2="189.38" y2="79.12" xlink:href="#New_Gradient_Swatch_1"/><linearGradient id="New_Gradient_Swatch_1-119" x1="190.08" y1="79.13" x2="195.33" y2="79.13" xlink:href="#New_Gradient_Swatch_1"/><linearGradient id="New_Gradient_Swatch_1-120" x1="196.04" y1="79.12" x2="200.39" y2="79.12" xlink:href="#New_Gradient_Swatch_1"/><linearGradient id="New_Gradient_Swatch_1-121" x1="200.99" y1="79.12" x2="202.22" y2="79.12" xlink:href="#New_Gradient_Swatch_1"/><linearGradient id="New_Gradient_Swatch_1-122" x1="202.93" y1="79.12" x2="207.19" y2="79.12" xlink:href="#New_Gradient_Swatch_1"/><linearGradient id="New_Gradient_Swatch_1-123" x1="207.9" y1="79.12" x2="209.13" y2="79.12" xlink:href="#New_Gradient_Swatch_1"/><linearGradient id="New_Gradient_Swatch_1-124" x1="209.84" y1="79.12" x2="214.09" y2="79.12" xlink:href="#New_Gradient_Swatch_1"/><linearGradient id="New_Gradient_Swatch_1-125" x1="214.8" y1="79.12" x2="219.48" y2="79.12" xlink:href="#New_Gradient_Swatch_1"/><linearGradient id="New_Gradient_Swatch_1-126" x1="220.2" y1="79.13" x2="225.44" y2="79.13" xlink:href="#New_Gradient_Swatch_1"/><linearGradient id="New_Gradient_Swatch_1-127" x1="225.94" y1="79.12" x2="230.55" y2="79.12" xlink:href="#New_Gradient_Swatch_1"/><linearGradient id="New_Gradient_Swatch_1-128" x1="30.07" y1="88.44" x2="34.04" y2="88.44" xlink:href="#New_Gradient_Swatch_1"/><linearGradient id="New_Gradient_Swatch_1-129" x1="34.53" y1="88.44" x2="38.88" y2="88.44" xlink:href="#New_Gradient_Swatch_1"/><linearGradient id="New_Gradient_Swatch_1-130" x1="39.59" y1="88.44" x2="43.91" y2="88.44" xlink:href="#New_Gradient_Swatch_1"/><linearGradient id="New_Gradient_Swatch_1-131" x1="44.49" y1="88.44" x2="48.45" y2="88.44" xlink:href="#New_Gradient_Swatch_1"/><linearGradient id="New_Gradient_Swatch_1-132" x1="48.98" y1="88.44" x2="55.04" y2="88.44" xlink:href="#New_Gradient_Swatch_1"/><linearGradient id="New_Gradient_Swatch_1-133" x1="57.52" y1="88.44" x2="58.75" y2="88.44" xlink:href="#New_Gradient_Swatch_1"/><linearGradient id="New_Gradient_Swatch_1-134" x1="59.46" y1="88.44" x2="63.65" y2="88.44" xlink:href="#New_Gradient_Swatch_1"/><linearGradient id="New_Gradient_Swatch_1-135" x1="64.22" y1="88.44" x2="68.67" y2="88.44" xlink:href="#New_Gradient_Swatch_1"/><linearGradient id="New_Gradient_Swatch_1-136" x1="69.31" y1="88.44" x2="73.99" y2="88.44" xlink:href="#New_Gradient_Swatch_1"/><linearGradient id="New_Gradient_Swatch_1-137" x1="74.7" y1="88.44" x2="80.76" y2="88.44" xlink:href="#New_Gradient_Swatch_1"/><linearGradient id="New_Gradient_Swatch_1-138" x1="83.24" y1="88.44" x2="87.5" y2="88.44" xlink:href="#New_Gradient_Swatch_1"/><linearGradient id="New_Gradient_Swatch_1-139" x1="88.2" y1="88.44" x2="92.55" y2="88.44" xlink:href="#New_Gradient_Swatch_1"/><linearGradient id="New_Gradient_Swatch_1-140" x1="93.26" y1="88.44" x2="97.23" y2="88.44" xlink:href="#New_Gradient_Swatch_1"/><linearGradient id="New_Gradient_Swatch_1-141" x1="97.73" y1="88.44" x2="102.08" y2="88.44" xlink:href="#New_Gradient_Swatch_1"/><linearGradient id="New_Gradient_Swatch_1-142" x1="102.79" y1="88.44" x2="107.1" y2="88.44" xlink:href="#New_Gradient_Swatch_1"/><linearGradient id="New_Gradient_Swatch_1-143" x1="109.39" y1="88.44" x2="113.84" y2="88.44" xlink:href="#New_Gradient_Swatch_1"/><linearGradient id="New_Gradient_Swatch_1-144" x1="114.48" y1="88.44" x2="115.71" y2="88.44" xlink:href="#New_Gradient_Swatch_1"/><linearGradient id="New_Gradient_Swatch_1-145" x1="116.2" y1="88.44" x2="120.81" y2="88.44" xlink:href="#New_Gradient_Swatch_1"/><linearGradient id="New_Gradient_Swatch_1-146" x1="122.73" y1="88.44" x2="127.71" y2="88.44" xlink:href="#New_Gradient_Swatch_1"/><linearGradient id="New_Gradient_Swatch_1-147" x1="128.07" y1="88.44" x2="134.13" y2="88.44" xlink:href="#New_Gradient_Swatch_1"/><linearGradient id="New_Gradient_Swatch_1-148" x1="134.84" y1="88.44" x2="138.79" y2="88.44" xlink:href="#New_Gradient_Swatch_1"/><linearGradient id="New_Gradient_Swatch_1-149" x1="139.11" y1="88.44" x2="143.72" y2="88.44" xlink:href="#New_Gradient_Swatch_1"/><linearGradient id="New_Gradient_Swatch_1-150" x1="52.91" y1="43.92" x2="63.93" y2="43.92" xlink:href="#New_Gradient_Swatch_1"/><linearGradient id="New_Gradient_Swatch_1-151" x1="65.3" y1="43.92" x2="77.39" y2="43.92" xlink:href="#New_Gradient_Swatch_1"/><linearGradient id="New_Gradient_Swatch_1-152" x1="79.35" y1="43.92" x2="91.33" y2="43.92" xlink:href="#New_Gradient_Swatch_1"/><linearGradient id="New_Gradient_Swatch_1-153" x1="92.96" y1="43.92" x2="103.95" y2="43.92" xlink:href="#New_Gradient_Swatch_1"/><linearGradient id="New_Gradient_Swatch_1-154" x1="105.42" y1="43.92" x2="115.58" y2="43.92" xlink:href="#New_Gradient_Swatch_1"/><linearGradient id="New_Gradient_Swatch_1-155" x1="114.32" y1="43.92" x2="122.26" y2="43.92" xlink:href="#New_Gradient_Swatch_1"/><linearGradient id="New_Gradient_Swatch_1-156" x1="129.13" y1="43.92" x2="132.55" y2="43.92" xlink:href="#New_Gradient_Swatch_1"/><linearGradient id="New_Gradient_Swatch_1-157" x1="134.52" y1="43.92" x2="146.17" y2="43.92" xlink:href="#New_Gradient_Swatch_1"/><linearGradient id="New_Gradient_Swatch_1-158" x1="147.74" y1="43.92" x2="160.1" y2="43.92" xlink:href="#New_Gradient_Swatch_1"/><linearGradient id="New_Gradient_Swatch_1-159" x1="161.86" y1="43.92" x2="174.87" y2="43.92" xlink:href="#New_Gradient_Swatch_1"/><linearGradient id="New_Gradient_Swatch_1-160" x1="185.74" y1="43.92" x2="193.67" y2="43.92" xlink:href="#New_Gradient_Swatch_1"/><linearGradient id="New_Gradient_Swatch_1-161" x1="176.83" y1="43.92" x2="186.99" y2="43.92" xlink:href="#New_Gradient_Swatch_1"/></defs><title>title_05_purple_green</title><g id="Layer_2" data-name="Layer 2"><g id="Layer_1-2" data-name="Layer 1"><polygon class="cls-1" points="16.26 149.59 140.23 149.59 150.73 160.09 25.93 160.09 16.26 149.59"/><polygon class="cls-2" points="326.01 169.01 207.08 169.01 189.6 151.53 164.18 151.53 164.18 150.57 190 150.57 207.48 168.05 325.61 168.05 341.61 152.05 341.61 122.04 320.9 101.33 320.9 21.67 287.54 21.67 287.4 21.53 266.82 0.96 142.35 0.96 129.72 13.59 15.48 13.59 2.34 26.73 14.6 38.99 14.6 120.36 1.34 133.99 26.13 158.78 179.5 158.78 179.5 159.74 25.73 159.74 0 134 13.64 119.97 13.64 39.39 0.98 26.73 15.08 12.63 129.32 12.63 141.95 0 267.22 0 267.36 0.14 287.93 20.71 321.86 20.71 321.86 100.93 342.57 121.64 342.57 152.45 326.01 169.01"/><polygon class="cls-3" points="304.14 101.06 314.23 101.17 314.23 60.81 304.14 60.7 304.14 101.06"/><rect class="cls-4" x="286.06" y="40.91" width="11.53" height="60.1"/><rect class="cls-5" x="267.98" y="65.09" width="11.53" height="35.92"/><rect class="cls-6" x="249.9" y="55.91" width="11.53" height="45.1"/><polygon class="cls-7" points="313.38 109.69 250.02 109.69 242.11 101.78 242.79 101.1 250.42 108.73 312.98 108.73 318.05 103.66 318.72 104.34 313.38 109.69"/><path class="cls-8" d="M242.79,40.57l-.68-.68,6-6V25.26h.48c25.2-.12,25.26-.05,25.45.14l-.33.34h0l-.09.47c-.66-.08-14.86,0-24.55,0v8Z"/><polygon class="cls-9" points="287.14 110.32 249.98 110.32 246.79 107.14 248.15 105.78 250.77 108.41 287.14 108.41 287.14 110.32"/><path class="cls-10" d="M249.59,29.87h-1.92V24.73h1c2.36,0,6.21,0,6.53,0l.18,1.91c-.18,0-2.12,0-5.75,0Z"/><polygon class="cls-11" points="139.87 2.75 227.63 2.75 229.97 5.09 259.18 5.09 267.02 0.48 142.15 0.48 139.87 2.75"/><polygon class="cls-12" points="321.38 21.19 324.51 24.32 324.51 76.98 321.71 79.79 321.38 21.19"/><polygon class="cls-13" points="9.61 34.68 9.61 124.39 14.18 119.82 14.18 39.19 9.61 34.68"/><polygon class="cls-14" points="327.32 173.56 207.76 173.56 207.76 172.6 326.93 172.6 344.38 155.14 345.06 155.82 327.32 173.56"/><polygon class="cls-15" points="335.69 164.52 335.69 167.69 327.11 176.27 286.54 176.27 283.46 173.19 327.12 173.19 335.69 164.52"/><polyline class="cls-16" points="22.58 165.5 185.73 165.5 185.73 166.46 22.18 166.46 22.05 166.32"/><rect class="cls-17" x="463.03" y="18.8" width="26.1" height="6.45"/><path class="cls-18" d="M496,30.13H456.17V13.91H496Zm-38.87-1H495V14.87H457.13Z"/><path class="cls-19" d="M345.2,125.1l-.95-.08c.24-2.88.35-6.28.11-6.83-1-1-20.54-20.54-20.54-20.54l-.14-.14V86.23l5.62-5.62V43l19.88-19.88H449.41v1H349.58L330.26,43.37V81l-5.62,5.62V97.12l20.42,20.42C345.54,118,345.59,120.56,345.2,125.1Z"/><g class="cls-20"><polygon class="cls-21" points="21.75 77.62 21.75 36.69 11.97 26.91 19.21 19.67 133.81 19.67 145.22 8.26 224.11 8.26 228.02 12.17 258.99 12.17 264.03 7.13 277 20.1 274.22 22.88 243.53 22.88 243.53 29.87 236.82 36.59 236.82 93.03 234.01 95.84 234.01 105.39 192.68 146.72 163.47 146.72 159.22 150.97 150.15 150.97 144.11 144.93 19.79 144.93 10.06 135.2 18.67 126.59 18.67 81.36 21.75 77.62"/></g><g class="cls-20"><polygon class="cls-22" points="193.67 150.97 239.42 105.22 248.37 114.17 314.23 114.17 320.8 107.61 337.05 123.87 337.05 150.97 323.09 164.93 208.42 164.93 193.67 150.97"/></g><polygon class="cls-23" points="119.51 19.67 123.33 23.49 139.08 23.49 151.6 10.97 189.47 10.97 191.89 8.55 145.22 8.55 134.33 19.44 119.51 19.67"/><rect class="cls-24" x="3.85" y="39.32" width="0.54" height="9.19" transform="translate(-29.85 15.78) rotate(-45)"/><rect class="cls-25" x="3.85" y="53" width="0.54" height="9.19" transform="translate(-39.52 19.78) rotate(-45)"/><rect class="cls-26" x="3.85" y="66.67" width="0.54" height="9.19" transform="translate(-49.18 23.78) rotate(-45)"/><rect class="cls-27" x="3.85" y="80.34" width="0.54" height="9.19" transform="translate(-58.85 27.79) rotate(-45)"/><rect class="cls-28" x="3.85" y="94.01" width="0.54" height="9.19" transform="translate(-68.52 31.79) rotate(-45)"/><rect class="cls-29" x="3.85" y="107.68" width="0.54" height="9.19" transform="translate(-78.19 35.8) rotate(-45)"/><rect class="cls-30" x="177.44" y="171.71" width="5.39" height="5.39"/><path class="cls-31" d="M186,180.22H174.33V168.6H186Zm-10.79-.83h10v-10h-10Z"/><rect class="cls-32" x="329.82" y="89.42" width="4.36" height="4.36"/><path class="cls-33" d="M336.68,96.29H327.3V86.91h9.38ZM328,95.63h8v-8h-8Z"/><rect class="cls-34" x="147.42" y="171.71" width="5.39" height="5.39"/><path class="cls-35" d="M155.92,180.22H144.3V168.6h11.62Zm-10.79-.83h10v-10h-10Z"/><rect class="cls-36" x="117.39" y="171.71" width="5.39" height="5.39"/><path class="cls-37" d="M125.9,180.22H114.28V168.6H125.9Zm-10.79-.83h10v-10h-10Z"/><rect class="cls-38" x="87.37" y="171.71" width="5.39" height="5.39"/><path class="cls-39" d="M95.88,180.22H84.26V168.6H95.88Zm-10.79-.83h10v-10h-10Z"/><rect class="cls-40" x="57.35" y="171.71" width="5.39" height="5.39"/><path class="cls-41" d="M65.85,180.22H54.23V168.6H65.85Zm-10.79-.83H65v-10h-10Z"/><rect class="cls-42" x="27.32" y="171.71" width="5.39" height="5.39"/><path class="cls-43" d="M35.83,180.22H24.21V168.6H35.83ZM25,179.39H35v-10H25Z"/><rect class="cls-44" x="347.37" y="21.13" width="5.39" height="5.39"/><path class="cls-45" d="M355.88,29.63H344.26V18h11.62Zm-10.79-.83h10v-10h-10Z"/><rect class="cls-46" x="71.97" y="106.33" width="5.39" height="5.39"/><path class="cls-47" d="M80.47,114.84H68.85V103.22H80.47ZM69.68,114h10v-10h-10Z"/><rect class="cls-48" x="113.5" y="106.33" width="5.39" height="5.39"/><path class="cls-49" d="M122,114.84H110.39V103.22H122ZM111.22,114h10v-10h-10Z"/><rect class="cls-50" x="155.04" y="106.33" width="5.39" height="5.39"/><path class="cls-51" d="M163.55,114.84H151.93V103.22h11.62ZM152.76,114h10v-10h-10Z"/><path class="cls-52" d="M30.07,73.18V68.07H31.3v5.11Zm1.58,0V72.05H34v1.13Z"/><path class="cls-53" d="M35,68.07h1.57V69.2h-.77v2.85h.77v1.13H35l-.43-.53V68.59Zm1.92,1.13V68.07h1.58l.42.51v4.08l-.42.52H36.88V72.05h.88V69.2Z"/><path class="cls-54" d="M39.59,73.18V68.07h1.23v5.11Zm1.59-4V68.07h2.18l.42.51v2l-.35.44.48,2.11H42.68l-.42-1.74H41.18V70.31h1.37V69.2Z"/><path class="cls-55" d="M44.49,73.18V68.07h1.24v5.11Zm1.59-4V68.07h2.37V69.2Zm0,2V70h1.81v1.14Zm0,2V72.05h2.37v1.13Z"/><path class="cls-56" d="M52.64,72.16l-.17.42h-.92L50.21,69.2H49V68.07H51Zm-2.43-2v3H49V69.56h.91Zm2-.09.8-2H55v5.11H53.81v-4l-1,2.51Z"/><path class="cls-57" d="M57.52,73.18V68.07h1.23v5.11Z"/><path class="cls-58" d="M59.46,73.18V68.07h1.23v5.11Zm1.58-4V68.07h2.19l.42.51v2.34l-.42.52H61V70.31h1.38V69.2Z"/><path class="cls-59" d="M64.64,68.07h1.57V69.2h-.76v.68l2.93.29.29.46v2l-.43.52H66.57V72.05h.87v-.78L64.62,71l-.4-.49V68.59Zm.81,4h.76v1.13H64.64l-.42-.51V71.53h1.23Zm1.11-2.85V68.07h1.68l.43.51v1.11H67.44V69.2Z"/><path class="cls-60" d="M71.41,72.05v1.13H69.73l-.42-.53V68.07h1.23v4Zm2.15,1.13h-1.8V72.05h1v-4H74v4.59Z"/><path class="cls-61" d="M78.35,72.16l-.17.42h-.91L75.93,69.2H74.7V68.07h2.06Zm-2.42-2v3H74.7V69.56h.91Zm2-.09.79-2h2.07v5.11H79.53v-4l-1,2.51Z"/><path class="cls-62" d="M84.47,68.07v5.11H83.24V68.07Zm.35,1.13V68.07h2.25l.43.51v4.08l-.43.52H84.82V72.05h1.44V69.2Z"/><path class="cls-63" d="M88.63,68.07H90.2V69.2h-.77v2.85h.77v1.13H88.63l-.43-.53V68.59Zm1.92,1.13V68.07h1.58l.42.51v4.08l-.42.52H90.55V72.05h.88V69.2Z"/><path class="cls-64" d="M93.26,73.18V68.07h1.23v5.11Zm1.59,0V72.05h2.38v1.13Z"/><path class="cls-65" d="M98.15,68.07h1.57V69.2H99v2.85h.76v1.13H98.15l-.42-.53V68.59Zm1.93,1.13V68.07h1.57l.43.51v4.08l-.43.52h-1.57V72.05H101V69.2Z"/><path class="cls-66" d="M102.79,73.18V68.07H104v5.11Zm1.58-4V68.07h2.19l.42.51v2l-.35.44.47,2.11h-1.22l-.42-1.74h-1.09V70.31h1.38V69.2Z"/><path class="cls-67" d="M109.81,68.07h1.57V69.2h-.76v.68l2.93.29.29.46v2l-.43.52h-1.67V72.05h.87v-.78L109.79,71l-.4-.49V68.59Zm.81,4h.76v1.13h-1.57l-.42-.51V71.53h1.23Zm1.11-2.85V68.07h1.68l.43.51v1.11h-1.23V69.2Z"/><path class="cls-68" d="M114.48,73.18V68.07h1.23v5.11Z"/><path class="cls-69" d="M116.2,68.07h4.61V69.2H116.2Zm1.7,5.11V69.56h1.23v3.62Z"/><path class="cls-70" d="M123.9,73.18h-1.17L124,69.56h.88L125,70Zm1.31-2.49h.46l-.53-1.49h-1l.4-1.13h1.4l1.79,5.11h-1.16l-.48-1.36h-1.25Z"/><path class="cls-71" d="M131.72,72.16l-.17.42h-.91L129.3,69.2h-1.23V68.07h2.06Zm-2.42-2v3h-1.23V69.56H129Zm2-.09.79-2h2.07v5.11H132.9v-4l-1,2.51Z"/><path class="cls-72" d="M134.84,73.18V68.07h1.23v5.11Zm1.58-4V68.07h2.37V69.2Zm0,2V70h1.81v1.14Zm0,2V72.05h2.37v1.13Z"/><path class="cls-73" d="M139.11,68.07h4.61V69.2h-4.61Zm1.7,5.11V69.56H142v3.62Z"/><path class="cls-74" d="M144.08,74h0v-.82h-.58V72.05h1.23v1.13Z"/><path class="cls-75" d="M147.4,68.07H149V69.2h-.77v2.85H149v1.13H147.4l-.43-.53V68.59Zm1.92,1.13V68.07h1.58l.42.51V70H150.2V69.2Zm0,4V72.05h.88V71.3h1.12v1.36l-.42.52Z"/><path class="cls-76" d="M152.35,68.07h1.57V69.2h-.76v2.85h.76v1.13h-1.57l-.43-.53V68.59Zm1.92,1.13V68.07h1.58l.42.51v4.08l-.42.52h-1.58V72.05h.88V69.2Z"/><path class="cls-77" d="M160.29,73.2l-2.08-4H157V68.07h2l2,4h1.23V73.2Zm-2.08-3v3H157V69.56h.91Zm2.79.94v-3h1.23v3.62h-.92Z"/><path class="cls-78" d="M163.29,68.07h1.57V69.2h-.76v.68l2.93.29.29.46v2l-.43.52h-1.67V72.05h.87v-.78L163.27,71l-.4-.49V68.59Zm.81,4h.76v1.13h-1.57l-.42-.51V71.53h1.23Zm1.11-2.85V68.07h1.68l.43.51v1.11h-1.23V69.2Z"/><path class="cls-79" d="M168,73.18V68.07h1.23v5.11Zm1.58-4V68.07h2.37V69.2Zm0,2V70h1.81v1.14Zm0,2V72.05h2.37v1.13Z"/><path class="cls-80" d="M172.87,68.07h1.57V69.2h-.77v2.85h.77v1.13h-1.57l-.43-.53V68.59Zm1.92,1.13V68.07h1.58l.42.51V70h-1.12V69.2Zm0,4V72.05h.88V71.3h1.12v1.36l-.42.52Z"/><path class="cls-81" d="M177.18,68.07h4.61V69.2h-4.61Zm1.7,5.11V69.56h1.23v3.62Z"/><path class="cls-82" d="M182.29,73.18V68.07h1.23v5.11Zm1.59-4V68.07h2.36V69.2Zm0,2V70h1.81v1.14Zm0,2V72.05h2.36v1.13Z"/><path class="cls-83" d="M186.57,68.07h4.61V69.2h-4.61Zm1.69,5.11V69.56h1.23v3.62Z"/><path class="cls-84" d="M193.77,72.05v1.13H192.1l-.43-.53V68.07h1.23v4Zm2.16,1.13h-1.8V72.05h1v-4h1.23v4.59Z"/><path class="cls-85" d="M197.07,73.18V68.07h1.22v5.11Zm1.58-4V68.07h2.18l.43.51v2l-.36.44.48,2.11h-1.23l-.41-1.74h-1.09V70.31H200V69.2Z"/><path class="cls-86" d="M30.89,81.67H29.71L31,78.05h.88l.15.41Zm1.31-2.49h.46l-.53-1.49h-1l.39-1.13h1.41l1.79,5.11H33.54l-.48-1.36H31.81Z"/><path class="cls-87" d="M36.29,76.56v5.11H35.06V76.56Zm.35,1.13V76.56h2.25l.42.51v4.08l-.42.52H36.64V80.54h1.44V77.69Z"/><path class="cls-88" d="M40,81.67V76.56h1.23v5.11Z"/><path class="cls-89" d="M42,81.67V76.56h1.23v5.11Zm1.58-4V76.56h2.19l.42.51v2.34l-.42.52H43.54V78.8h1.38V77.69Z"/><path class="cls-90" d="M46.79,81.67V76.56H48v5.11Z"/><path class="cls-91" d="M49.08,76.56h1.57v1.13h-.76v.68l2.93.29.29.46v2l-.43.52H51V80.54h.87v-.78l-2.82-.27-.4-.49V77.08Zm.81,4h.76v1.13H49.08l-.42-.51V80h1.23ZM51,77.69V76.56h1.68l.43.51v1.11H51.88v-.49Z"/><path class="cls-92" d="M54.17,76.56h1.57v1.13H55v2.85h.76v1.13H54.17l-.42-.53V77.08Zm1.92,1.13V76.56h1.58l.43.51v1.38H57v-.76Zm0,4V80.54H57v-.75H58.1v1.36l-.43.52Z"/><path class="cls-93" d="M58.7,81.67V76.56h1.23v5.11Z"/><path class="cls-94" d="M64,81.69l-2.08-4H60.64V76.56h2l2,4h1.23v1.15Zm-2.08-3v3H60.64V78.05h.9Zm2.78.94v-3h1.23v3.62H65Z"/><path class="cls-95" d="M67.82,80.54h.82v1.13H67l-.43-.53V77.08l.43-.52h1.62v1.13h-.82Zm3.24.61-.43.52H69V80.54h.91V79.7h-1V78.56h2.15ZM69,77.69V76.56h1.64l.43.51v1.09H69.93v-.47Z"/><path class="cls-96" d="M73.46,81.67V76.56h1.23v5.11Zm1.59-4V76.56h2.37v1.13Zm0,2V78.51h1.81v1.14Zm0,2V80.54h2.37v1.13Z"/><path class="cls-97" d="M78,81.67V76.56h1.23v5.11Zm1.58,0V80.54h2.39v1.13Z"/><path class="cls-98" d="M82.41,81.67V76.56h1.23v5.11Z"/><path class="cls-99" d="M84.14,76.56h4.61v1.13H84.14Zm1.7,5.11V78.05h1.23v3.62Z"/><path class="cls-100" d="M89.11,82.49h0v-.82h-.58V80.54h1.23v1.13Z"/><path class="cls-101" d="M92.36,76.56h1.56v1.13h-.76v.68l2.93.29.29.46v2l-.43.52H94.28V80.54h.87v-.78l-2.82-.27-.4-.49V77.08Zm.8,4h.76v1.13H92.36l-.43-.51V80h1.23Zm1.11-2.85V76.56H96l.43.51v1.11H95.15v-.49Z"/><path class="cls-102" d="M97,81.67V76.56h1.23v5.11Zm1.58-4V76.56H101v1.13Zm0,2V78.51h1.81v1.14Zm0,2V80.54H101v1.13Z"/><path class="cls-103" d="M102.73,76.56v5.11H101.5V76.56Zm.36,1.13V76.56h2.25l.42.51v4.08l-.42.52h-2.25V80.54h1.44V77.69Z"/><path class="cls-104" d="M109.47,76.56v5.11h-1.23V76.56Zm.35,1.13V76.56h2.25l.43.51v4.08l-.43.52h-2.25V80.54h1.45V77.69Z"/><path class="cls-105" d="M113.63,76.56h1.57v1.13h-.76v2.85h.76v1.13h-1.57l-.42-.53V77.08Zm1.92,1.13V76.56h1.58l.43.51v4.08l-.43.52h-1.58V80.54h.88V77.69Z"/><path class="cls-106" d="M120,81.67V76.56h1.23v5.11Zm1.59-4V76.56H124v1.13Zm0,2V78.51h1.81v1.14Zm0,2V80.54H124v1.13Z"/><path class="cls-107" d="M124.52,81.67V76.56h1.23v5.11Z"/><path class="cls-108" d="M128.56,80.54v1.13h-1.68l-.42-.53V76.56h1.23v4Zm2.15,1.13h-1.8V80.54h1v-4h1.23v4.59Z"/><path class="cls-109" d="M132.2,76.56h1.56v1.13H133v.68l2.93.29.29.46v2l-.43.52h-1.68V80.54H135v-.78l-2.83-.27-.39-.49V77.08Zm.81,4h.75v1.13H132.2l-.42-.51V80H133Zm1.11-2.85V76.56h1.68l.43.51v1.11H135v-.49Z"/><path class="cls-110" d="M140.52,80.65l-.17.42h-.91l-1.34-3.38h-1.24V76.56h2.07Zm-2.42-2v3h-1.24V78.05h.92Zm2-.09.79-2h2.07v5.11h-1.24v-4l-1,2.51Z"/><path class="cls-111" d="M144.06,76.56h1.57v1.13h-.76v2.85h.76v1.13h-1.57l-.42-.53V77.08ZM146,77.69V76.56h1.58l.43.51v4.08l-.43.52H146V80.54h.88V77.69Z"/><path class="cls-112" d="M149.92,76.56v5.11h-1.23V76.56Zm.36,1.13V76.56h2.25l.42.51v4.08l-.42.52h-2.25V80.54h1.44V77.69Z"/><path class="cls-113" d="M155.22,76.56h4.61v1.13h-4.61Zm1.7,5.11V78.05h1.23v3.62Z"/><path class="cls-114" d="M160.33,81.67V76.56h1.23v5.11Zm1.58-4V76.56h2.37v1.13Zm0,2V78.51h1.81v1.14Zm0,2V80.54h2.37v1.13Z"/><path class="cls-115" d="M168.47,80.65l-.17.42h-.91L166,77.69h-1.23V76.56h2.07Zm-2.43-2v3h-1.23V78.05h.91Zm2-.09.79-2h2.06v5.11h-1.23v-4l-1,2.51Z"/><path class="cls-116" d="M171.58,81.67V76.56h1.23v5.11Zm1.59-4V76.56h2.18l.43.51v2.34l-.43.52h-2.18V78.8h1.38V77.69Z"/><path class="cls-117" d="M176.84,76.56h1.57v1.13h-.77v2.85h.77v1.13h-1.57l-.42-.53V77.08Zm1.92,1.13V76.56h1.58l.42.51v4.08l-.42.52h-1.58V80.54h.88V77.69Z"/><path class="cls-118" d="M181.47,81.67V76.56h1.23v5.11Zm1.59-4V76.56h2.18l.43.51v2.05l-.36.44.48,2.11h-1.23l-.41-1.74h-1.09V78.8h1.38V77.69Z"/><path class="cls-119" d="M188.15,81.67V76.56h1.23v5.11Z"/><path class="cls-120" d="M193.39,81.69l-2.08-4h-1.23V76.56h2l2,4h1.23v1.15Zm-2.08-3v3h-1.23V78.05H191Zm2.79.94v-3h1.23v3.62h-.92Z"/><path class="cls-121" d="M196.46,76.56H198v1.13h-.77v2.85H198v1.13h-1.58l-.42-.53V77.08Zm1.93,1.13V76.56H200l.42.51v1.38h-1.12v-.76Zm0,4V80.54h.88v-.75h1.12v1.36l-.42.52Z"/><path class="cls-122" d="M201,81.67V76.56h1.23v5.11Z"/><path class="cls-123" d="M204.16,76.56v5.11h-1.23V76.56Zm.36,1.13V76.56h2.24l.43.51v4.08l-.43.52h-2.24V80.54H206V77.69Z"/><path class="cls-124" d="M207.9,81.67V76.56h1.23v5.11Z"/><path class="cls-125" d="M211.07,76.56v5.11h-1.23V76.56Zm.35,1.13V76.56h2.25l.42.51v4.08l-.42.52h-2.25V80.54h1.44V77.69Z"/><path class="cls-126" d="M216.9,80.54v1.13h-1.67l-.43-.53V76.56H216v4Zm2.16,1.13h-1.8V80.54h1v-4h1.22v4.59Z"/><path class="cls-127" d="M223.51,81.69l-2.08-4H220.2V76.56h2l2,4h1.23v1.15Zm-2.08-3v3H220.2V78.05h.9Zm2.78.94v-3h1.23v3.62h-.92Z"/><path class="cls-128" d="M225.94,76.56h4.61v1.13h-4.61Zm1.7,5.11V78.05h1.23v3.62Z"/><path class="cls-129" d="M30.07,91V85.89H31.3V91Zm1.58,0V89.87H34V91Z"/><path class="cls-130" d="M35,85.89h1.57V87h-.77v2.85h.77V91H35l-.43-.53V86.41ZM36.88,87V85.89h1.58l.42.51v4.07l-.42.53H36.88V89.87h.88V87Z"/><path class="cls-131" d="M39.59,91V85.89h1.23V91Zm1.59-4V85.89h2.18l.42.51v2l-.35.44L43.91,91H42.68l-.42-1.74H41.18V88.13h1.37V87Z"/><path class="cls-132" d="M44.49,91V85.89h1.24V91Zm1.59-4V85.89h2.37V87Zm0,2V87.84h1.81V89Zm0,2V89.87h2.37V91Z"/><path class="cls-133" d="M52.64,90l-.17.42h-.92L50.21,87H49V85.89H51Zm-2.43-2v3H49V87.38h.91Zm2-.1.8-2H55V91H53.81V87l-1,2.51Z"/><path class="cls-134" d="M57.52,91V85.89h1.23V91Z"/><path class="cls-135" d="M59.46,91V85.89h1.23V91ZM61,87V85.89h2.19l.42.51v2.33l-.42.53H61V88.13h1.38V87Z"/><path class="cls-136" d="M64.64,85.89h1.57V87h-.76v.68l2.93.29.29.45v2l-.43.52H66.57V89.87h.87v-.78l-2.82-.27-.4-.49V86.41Zm.81,4h.76V91H64.64l-.42-.51V89.35h1.23ZM66.56,87V85.89h1.68l.43.51v1.11H67.44V87Z"/><path class="cls-137" d="M71.41,89.87V91H69.73l-.42-.53V85.89h1.23v4ZM73.56,91h-1.8V89.87h1v-4H74v4.58Z"/><path class="cls-138" d="M78.35,90l-.17.42h-.91L75.93,87H74.7V85.89h2.06Zm-2.42-2v3H74.7V87.38h.91Zm2-.1.79-2h2.07V91H79.53V87l-1,2.51Z"/><path class="cls-139" d="M84.47,85.89V91H83.24V85.89ZM84.82,87V85.89h2.25l.43.51v4.07l-.43.53H84.82V89.87h1.44V87Z"/><path class="cls-140" d="M88.63,85.89H90.2V87h-.77v2.85h.77V91H88.63l-.43-.53V86.41ZM90.55,87V85.89h1.58l.42.51v4.07l-.42.53H90.55V89.87h.88V87Z"/><path class="cls-141" d="M93.26,91V85.89h1.23V91Zm1.59,0V89.87h2.38V91Z"/><path class="cls-142" d="M98.15,85.89h1.57V87H99v2.85h.76V91H98.15l-.42-.53V86.41ZM100.08,87V85.89h1.57l.43.51v4.07l-.43.53h-1.57V89.87H101V87Z"/><path class="cls-143" d="M102.79,91V85.89H104V91Zm1.58-4V85.89h2.19l.42.51v2l-.35.44L107.1,91h-1.22l-.42-1.74h-1.09V88.13h1.38V87Z"/><path class="cls-144" d="M109.81,85.89h1.57V87h-.76v.68l2.93.29.29.45v2l-.43.52h-1.67V89.87h.87v-.78l-2.82-.27-.4-.49V86.41Zm.81,4h.76V91h-1.57l-.42-.51V89.35h1.23ZM111.73,87V85.89h1.68l.43.51v1.11h-1.23V87Z"/><path class="cls-145" d="M114.48,91V85.89h1.23V91Z"/><path class="cls-146" d="M116.2,85.89h4.61V87H116.2ZM117.9,91V87.38h1.23V91Z"/><path class="cls-147" d="M123.9,91h-1.17L124,87.38h.88l.15.41Zm1.31-2.49h.46L125.14,87h-1l.4-1.13h1.4L127.71,91h-1.16l-.48-1.36h-1.25Z"/><path class="cls-148" d="M131.72,90l-.17.42h-.91L129.3,87h-1.23V85.89h2.06Zm-2.42-2v3h-1.23V87.38H129Zm2-.1.79-2h2.07V91H132.9V87l-1,2.51Z"/><path class="cls-149" d="M134.84,91V85.89h1.23V91Zm1.58-4V85.89h2.37V87Zm0,2V87.84h1.81V89Zm0,2V89.87h2.37V91Z"/><path class="cls-150" d="M139.11,85.89h4.61V87h-4.61Zm1.7,5.11V87.38H142V91Z"/><polygon class="cls-151" points="56.32 36.83 52.91 36.83 52.91 51.01 55.59 51.01 56.32 51.01 63.93 51.01 63.93 47.87 56.32 47.87 56.32 36.83"/><path class="cls-152" d="M72.81,36.83H66.48L65.3,38.26V49.54L66.48,51h9.73l1.18-1.45V38.24l-1.18-1.41Zm1.45,11H68.72V40h5.54Z"/><path class="cls-153" d="M91,43.94v-5.7l-1.18-1.41H79.35V51h3.42V46.18h4L87.94,51h3.39L90,45.16ZM87.58,43H82.77V40h4.81Z"/><polygon class="cls-154" points="97.37 36.83 92.97 36.83 92.97 51.01 97.37 51.01 97.9 51.01 103.95 51.01 103.95 47.87 97.9 47.87 97.9 45.39 102.39 45.39 102.39 42.25 97.9 42.25 97.9 39.97 103.95 39.97 103.95 36.83 97.9 36.83 97.37 36.83"/><polygon class="cls-155" points="105.42 36.83 105.42 39.24 105.42 39.97 105.42 51.01 108.84 51.01 108.84 39.97 112.57 49.34 115.11 49.34 115.58 48.19 111.16 36.83 105.42 36.83"/><polygon class="cls-156" points="114.32 42.45 116.07 46.95 118.84 39.97 118.84 51.01 122.26 51.01 122.26 36.83 116.52 36.83 114.32 42.45"/><rect class="cls-157" x="129.13" y="36.83" width="3.42" height="14.19"/><path class="cls-158" d="M137.93,36.83h-3.41V51h3.41V46.18H145l1.18-1.45V38.24L145,36.83ZM142.75,43h-4.82V40h4.82Z"/><polygon class="cls-159" points="154.5 36.83 154.24 36.83 148.92 36.83 147.74 38.26 147.74 43.61 148.84 44.96 156.68 45.71 156.68 47.87 154.93 47.87 154.26 47.87 151.16 47.87 151.16 46.44 147.74 46.44 147.74 49.6 148.92 51.01 154.26 51.01 154.93 51.01 158.92 51.01 160.1 49.58 160.1 43.92 159.29 42.64 151.16 41.84 151.16 39.97 154.24 39.97 154.5 39.97 156.68 39.97 156.68 41.33 160.1 41.33 160.1 38.24 158.92 36.83 154.5 36.83"/><polygon class="cls-160" points="171.45 47.87 169.36 47.87 168.68 47.87 165.28 47.87 165.28 36.83 161.86 36.83 161.86 49.54 163.04 51.01 168.68 51.01 169.36 51.01 173.69 51.01 174.87 49.56 174.87 36.83 171.45 36.83 171.45 47.87"/><polygon class="cls-161" points="187.94 36.83 185.74 42.45 187.48 46.95 190.25 39.97 190.25 51.01 193.67 51.01 193.67 36.83 187.94 36.83"/><polygon class="cls-162" points="176.84 36.83 176.84 39.31 176.84 39.97 176.84 51.01 180.25 51.01 180.25 39.97 183.99 49.34 186.52 49.34 186.99 48.19 182.57 36.83 176.84 36.83"/></g></g></svg>