<svg xmlns="http://www.w3.org/2000/svg" xmlns:xlink="http://www.w3.org/1999/xlink" viewBox="0 0 495.04 188.97"><defs><style>.cls-1{fill:url(#New_Gradient_Swatch_2);}.cls-2{fill:url(#New_Gradient_Swatch_2-2);}.cls-3{fill:url(#New_Gradient_Swatch_2-3);}.cls-4{fill:url(#New_Gradient_Swatch_2-4);}.cls-5{fill:url(#New_Gradient_Swatch_2-5);}.cls-6{fill:url(#New_Gradient_Swatch_2-6);}.cls-7{fill:url(#New_Gradient_Swatch_2-7);}.cls-8{fill:url(#New_Gradient_Swatch_2-8);}.cls-9{fill:url(#New_Gradient_Swatch_2-9);}.cls-10{fill:url(#New_Gradient_Swatch_2-10);}.cls-11{fill:url(#New_Gradient_Swatch_2-11);}.cls-12{fill:url(#New_Gradient_Swatch_2-12);}.cls-13{fill:url(#New_Gradient_Swatch_2-13);}.cls-14{fill:url(#New_Gradient_Swatch_2-14);}.cls-15{fill:url(#New_Gradient_Swatch_2-15);}.cls-16{fill:url(#New_Gradient_Swatch_2-16);}.cls-17{fill:url(#New_Gradient_Swatch_2-17);}.cls-18{fill:url(#New_Gradient_Swatch_2-18);}.cls-19{fill:url(#New_Gradient_Swatch_2-19);}.cls-20{fill:url(#New_Gradient_Swatch_2-20);}.cls-21{fill:url(#New_Gradient_Swatch_2-21);}.cls-22{fill:url(#New_Gradient_Swatch_2-22);}.cls-23{fill:url(#New_Gradient_Swatch_2-23);}.cls-24{fill:url(#New_Gradient_Swatch_2-24);}.cls-25{fill:url(#New_Gradient_Swatch_2-25);}.cls-26{fill:url(#New_Gradient_Swatch_2-26);}.cls-27{fill:url(#New_Gradient_Swatch_2-27);}.cls-28{fill:url(#New_Gradient_Swatch_2-28);}.cls-29{fill:url(#New_Gradient_Swatch_2-29);}.cls-30{fill:url(#New_Gradient_Swatch_2-30);}.cls-31{fill:url(#New_Gradient_Swatch_2-31);}.cls-32{fill:url(#New_Gradient_Swatch_2-32);}.cls-33{opacity:0.15;}.cls-34{fill:url(#New_Gradient_Swatch_2-33);}.cls-35{fill:url(#New_Gradient_Swatch_2-34);}.cls-36{fill:url(#New_Gradient_Swatch_2-35);}.cls-37{fill:url(#New_Gradient_Swatch_2-36);}.cls-38{fill:url(#New_Gradient_Swatch_2-37);}.cls-39{fill:url(#New_Gradient_Swatch_2-38);}.cls-40{fill:url(#New_Gradient_Swatch_2-39);}.cls-41{fill:url(#New_Gradient_Swatch_2-40);}.cls-42{fill:url(#New_Gradient_Swatch_2-41);}.cls-43{fill:url(#New_Gradient_Swatch_2-42);}.cls-44{fill:url(#New_Gradient_Swatch_2-43);}.cls-45{fill:url(#New_Gradient_Swatch_2-44);}.cls-46{fill:url(#New_Gradient_Swatch_2-45);}.cls-47{fill:url(#New_Gradient_Swatch_2-46);}.cls-48{fill:url(#New_Gradient_Swatch_2-47);}.cls-49{fill:url(#New_Gradient_Swatch_2-48);}.cls-50{fill:url(#New_Gradient_Swatch_2-49);}.cls-51{fill:url(#New_Gradient_Swatch_2-50);}.cls-52{fill:url(#New_Gradient_Swatch_2-51);}.cls-53{fill:url(#New_Gradient_Swatch_2-52);}.cls-54{fill:url(#New_Gradient_Swatch_2-53);}.cls-55{fill:url(#New_Gradient_Swatch_2-54);}.cls-56{fill:url(#New_Gradient_Swatch_2-55);}.cls-57{fill:url(#New_Gradient_Swatch_2-56);}.cls-58{fill:url(#New_Gradient_Swatch_2-57);}.cls-59{fill:url(#New_Gradient_Swatch_2-58);}.cls-60{fill:url(#New_Gradient_Swatch_2-59);}.cls-61{fill:url(#New_Gradient_Swatch_2-60);}</style><linearGradient id="New_Gradient_Swatch_2" x1="305.92" y1="59.32" x2="317.82" y2="59.32" gradientUnits="userSpaceOnUse"><stop offset="0" stop-color="#9541de"/><stop offset="1" stop-color="#3ab2c0"/></linearGradient><linearGradient id="New_Gradient_Swatch_2-2" x1="319.3" y1="59.32" x2="332.34" y2="59.32" xlink:href="#New_Gradient_Swatch_2"/><linearGradient id="New_Gradient_Swatch_2-3" x1="334.46" y1="59.32" x2="347.4" y2="59.32" xlink:href="#New_Gradient_Swatch_2"/><linearGradient id="New_Gradient_Swatch_2-4" x1="349.16" y1="59.32" x2="361.01" y2="59.32" xlink:href="#New_Gradient_Swatch_2"/><linearGradient id="New_Gradient_Swatch_2-5" x1="362.6" y1="59.32" x2="373.56" y2="59.32" xlink:href="#New_Gradient_Swatch_2"/><linearGradient id="New_Gradient_Swatch_2-6" x1="372.21" y1="59.32" x2="380.77" y2="59.32" xlink:href="#New_Gradient_Swatch_2"/><linearGradient id="New_Gradient_Swatch_2-7" x1="388.19" y1="59.32" x2="391.88" y2="59.32" xlink:href="#New_Gradient_Swatch_2"/><linearGradient id="New_Gradient_Swatch_2-8" x1="394" y1="59.32" x2="406.58" y2="59.32" xlink:href="#New_Gradient_Swatch_2"/><linearGradient id="New_Gradient_Swatch_2-9" x1="408.27" y1="59.32" x2="421.61" y2="59.32" xlink:href="#New_Gradient_Swatch_2"/><linearGradient id="New_Gradient_Swatch_2-10" x1="423.52" y1="59.32" x2="437.55" y2="59.32" xlink:href="#New_Gradient_Swatch_2"/><linearGradient id="New_Gradient_Swatch_2-11" x1="449.28" y1="59.32" x2="457.85" y2="59.32" xlink:href="#New_Gradient_Swatch_2"/><linearGradient id="New_Gradient_Swatch_2-12" x1="439.67" y1="59.32" x2="450.64" y2="59.32" xlink:href="#New_Gradient_Swatch_2"/><linearGradient id="New_Gradient_Swatch_2-13" x1="37.1" y1="59.32" x2="49" y2="59.32" xlink:href="#New_Gradient_Swatch_2"/><linearGradient id="New_Gradient_Swatch_2-14" x1="50.48" y1="59.32" x2="63.52" y2="59.32" xlink:href="#New_Gradient_Swatch_2"/><linearGradient id="New_Gradient_Swatch_2-15" x1="65.64" y1="59.32" x2="78.58" y2="59.32" xlink:href="#New_Gradient_Swatch_2"/><linearGradient id="New_Gradient_Swatch_2-16" x1="80.33" y1="59.32" x2="92.19" y2="59.32" xlink:href="#New_Gradient_Swatch_2"/><linearGradient id="New_Gradient_Swatch_2-17" x1="93.78" y1="59.32" x2="104.74" y2="59.32" xlink:href="#New_Gradient_Swatch_2"/><linearGradient id="New_Gradient_Swatch_2-18" x1="103.38" y1="59.32" x2="111.95" y2="59.32" xlink:href="#New_Gradient_Swatch_2"/><linearGradient id="New_Gradient_Swatch_2-19" x1="119.37" y1="59.32" x2="123.06" y2="59.32" xlink:href="#New_Gradient_Swatch_2"/><linearGradient id="New_Gradient_Swatch_2-20" x1="125.18" y1="59.32" x2="137.75" y2="59.32" xlink:href="#New_Gradient_Swatch_2"/><linearGradient id="New_Gradient_Swatch_2-21" x1="139.45" y1="59.32" x2="152.79" y2="59.32" xlink:href="#New_Gradient_Swatch_2"/><linearGradient id="New_Gradient_Swatch_2-22" x1="154.7" y1="59.32" x2="168.73" y2="59.32" xlink:href="#New_Gradient_Swatch_2"/><linearGradient id="New_Gradient_Swatch_2-23" x1="180.46" y1="59.32" x2="189.02" y2="59.32" xlink:href="#New_Gradient_Swatch_2"/><linearGradient id="New_Gradient_Swatch_2-24" x1="170.85" y1="59.32" x2="181.82" y2="59.32" xlink:href="#New_Gradient_Swatch_2"/><linearGradient id="New_Gradient_Swatch_2-25" x1="207.65" y1="35.06" x2="288.07" y2="35.06" xlink:href="#New_Gradient_Swatch_2"/><linearGradient id="New_Gradient_Swatch_2-26" x1="217.87" y1="35.06" x2="229.84" y2="35.06" xlink:href="#New_Gradient_Swatch_2"/><linearGradient id="New_Gradient_Swatch_2-27" x1="266.88" y1="35.06" x2="278.84" y2="35.06" xlink:href="#New_Gradient_Swatch_2"/><linearGradient id="New_Gradient_Swatch_2-28" x1="236.03" y1="35.06" x2="259.7" y2="35.06" xlink:href="#New_Gradient_Swatch_2"/><linearGradient id="New_Gradient_Swatch_2-29" x1="282.6" y1="16.51" x2="319.15" y2="16.51" xlink:href="#New_Gradient_Swatch_2"/><linearGradient id="New_Gradient_Swatch_2-30" x1="306.62" y1="16.51" x2="343.17" y2="16.51" xlink:href="#New_Gradient_Swatch_2"/><linearGradient id="New_Gradient_Swatch_2-31" x1="330.65" y1="16.51" x2="367.19" y2="16.51" xlink:href="#New_Gradient_Swatch_2"/><linearGradient id="New_Gradient_Swatch_2-32" x1="354.67" y1="16.51" x2="391.22" y2="16.51" xlink:href="#New_Gradient_Swatch_2"/><linearGradient id="New_Gradient_Swatch_2-33" x1="378.69" y1="16.51" x2="415.24" y2="16.51" xlink:href="#New_Gradient_Swatch_2"/><linearGradient id="New_Gradient_Swatch_2-34" x1="402.71" y1="16.51" x2="439.26" y2="16.51" xlink:href="#New_Gradient_Swatch_2"/><linearGradient id="New_Gradient_Swatch_2-35" x1="426.73" y1="16.51" x2="463.28" y2="16.51" xlink:href="#New_Gradient_Swatch_2"/><linearGradient id="New_Gradient_Swatch_2-36" x1="449.48" y1="16.51" x2="486.03" y2="16.51" xlink:href="#New_Gradient_Swatch_2"/><linearGradient id="New_Gradient_Swatch_2-37" x1="178.25" y1="16.51" x2="214.79" y2="16.51" xlink:href="#New_Gradient_Swatch_2"/><linearGradient id="New_Gradient_Swatch_2-38" x1="154.22" y1="16.51" x2="190.77" y2="16.51" xlink:href="#New_Gradient_Swatch_2"/><linearGradient id="New_Gradient_Swatch_2-39" x1="130.2" y1="16.51" x2="166.75" y2="16.51" xlink:href="#New_Gradient_Swatch_2"/><linearGradient id="New_Gradient_Swatch_2-40" x1="106.18" y1="16.51" x2="142.73" y2="16.51" xlink:href="#New_Gradient_Swatch_2"/><linearGradient id="New_Gradient_Swatch_2-41" x1="82.16" y1="16.51" x2="118.71" y2="16.51" xlink:href="#New_Gradient_Swatch_2"/><linearGradient id="New_Gradient_Swatch_2-42" x1="58.14" y1="16.51" x2="94.68" y2="16.51" xlink:href="#New_Gradient_Swatch_2"/><linearGradient id="New_Gradient_Swatch_2-43" x1="34.11" y1="16.51" x2="70.66" y2="16.51" xlink:href="#New_Gradient_Swatch_2"/><linearGradient id="New_Gradient_Swatch_2-44" x1="10.52" y1="16.51" x2="47.07" y2="16.51" xlink:href="#New_Gradient_Swatch_2"/><linearGradient id="New_Gradient_Swatch_2-45" x1="300.87" y1="31.95" x2="495.04" y2="31.95" xlink:href="#New_Gradient_Swatch_2"/><linearGradient id="New_Gradient_Swatch_2-46" x1="300.87" y1="40.65" x2="341.33" y2="40.65" xlink:href="#New_Gradient_Swatch_2"/><linearGradient id="New_Gradient_Swatch_2-47" x1="0" y1="31.95" x2="196.52" y2="31.95" xlink:href="#New_Gradient_Swatch_2"/><linearGradient id="New_Gradient_Swatch_2-48" x1="156.07" y1="40.65" x2="196.52" y2="40.65" gradientTransform="translate(352.59 81.29) rotate(-180)" xlink:href="#New_Gradient_Swatch_2"/><linearGradient id="New_Gradient_Swatch_2-49" x1="270.1" y1="100.57" x2="459.2" y2="100.57" xlink:href="#New_Gradient_Swatch_2"/><linearGradient id="New_Gradient_Swatch_2-50" x1="468.55" y1="176.56" x2="478.52" y2="176.56" gradientTransform="translate(947.07 353.11) rotate(-180)" xlink:href="#New_Gradient_Swatch_2"/><linearGradient id="New_Gradient_Swatch_2-51" x1="461.13" y1="176.56" x2="485.95" y2="176.56" xlink:href="#New_Gradient_Swatch_2"/><linearGradient id="New_Gradient_Swatch_2-52" x1="296.3" y1="102.19" x2="399.72" y2="102.19" xlink:href="#New_Gradient_Swatch_2"/><linearGradient id="New_Gradient_Swatch_2-53" x1="270.48" y1="80.87" x2="273.1" y2="80.87" xlink:href="#New_Gradient_Swatch_2"/><linearGradient id="New_Gradient_Swatch_2-54" x1="362.48" y1="105.17" x2="411.16" y2="105.17" xlink:href="#New_Gradient_Swatch_2"/><linearGradient id="New_Gradient_Swatch_2-55" x1="37.94" y1="100.57" x2="227.04" y2="100.57" xlink:href="#New_Gradient_Swatch_2"/><linearGradient id="New_Gradient_Swatch_2-56" x1="18.62" y1="176.56" x2="28.59" y2="176.56" xlink:href="#New_Gradient_Swatch_2"/><linearGradient id="New_Gradient_Swatch_2-57" x1="11.19" y1="176.56" x2="36.01" y2="176.56" xlink:href="#New_Gradient_Swatch_2"/><linearGradient id="New_Gradient_Swatch_2-58" x1="97.42" y1="102.19" x2="200.83" y2="102.19" xlink:href="#New_Gradient_Swatch_2"/><linearGradient id="New_Gradient_Swatch_2-59" x1="224.04" y1="80.87" x2="226.66" y2="80.87" xlink:href="#New_Gradient_Swatch_2"/><linearGradient id="New_Gradient_Swatch_2-60" x1="85.98" y1="105.17" x2="134.66" y2="105.17" xlink:href="#New_Gradient_Swatch_2"/></defs><title>title_09_purple_blue</title><g id="Layer_2" data-name="Layer 2"><g id="Layer_1-2" data-name="Layer 1"><polygon class="cls-1" points="309.61 51.66 305.92 51.66 305.92 66.97 308.82 66.97 309.61 66.97 317.82 66.97 317.82 63.58 309.61 63.58 309.61 51.66"/><path class="cls-2" d="M327.41,51.66h-6.84l-1.27,1.55V65.38L320.57,67h10.5l1.27-1.57V53.19l-1.27-1.53ZM329,63.58h-6V55.06h6Z"/><path class="cls-3" d="M347,59.34V53.19l-1.28-1.53h-11.3V67h3.69V61.76h4.33L343.73,67h3.67L346,60.65Zm-3.69-1h-5.2v-3.3h5.2Z"/><polygon class="cls-4" points="353.91 51.66 349.16 51.66 349.16 66.97 353.91 66.97 354.48 66.97 361.01 66.97 361.01 63.58 354.48 63.58 354.48 60.91 359.33 60.91 359.33 57.52 354.48 57.52 354.48 55.05 361.01 55.05 361.01 51.66 354.48 51.66 353.91 51.66"/><polygon class="cls-5" points="362.6 51.66 362.6 54.26 362.6 55.05 362.6 66.97 366.29 66.97 366.29 55.05 370.32 65.17 373.05 65.17 373.56 63.92 368.79 51.66 362.6 51.66"/><polygon class="cls-6" points="372.2 57.73 374.09 62.58 377.08 55.05 377.08 66.97 380.77 66.97 380.77 51.66 374.58 51.66 372.2 57.73"/><rect class="cls-7" x="388.19" y="51.66" width="3.69" height="15.31"/><path class="cls-8" d="M397.69,51.66H394V67h3.69V61.76h7.61l1.28-1.57v-7l-1.28-1.53Zm5.2,6.7h-5.2v-3.3h5.2Z"/><polygon class="cls-9" points="415.57 51.66 415.29 51.66 409.54 51.66 408.27 53.21 408.27 58.98 409.46 60.44 417.92 61.25 417.92 63.58 416.03 63.58 415.31 63.58 411.96 63.58 411.96 62.03 408.27 62.03 408.27 65.45 409.54 66.97 415.31 66.97 416.03 66.97 420.34 66.97 421.61 65.42 421.61 59.32 420.74 57.94 411.96 57.07 411.96 55.05 415.29 55.05 415.57 55.05 417.92 55.05 417.92 56.52 421.61 56.52 421.61 53.19 420.34 51.66 415.57 51.66"/><polygon class="cls-10" points="433.87 63.58 431.61 63.58 430.88 63.58 427.21 63.58 427.21 51.66 423.52 51.66 423.52 65.38 424.79 66.97 430.88 66.97 431.61 66.97 436.28 66.97 437.55 65.4 437.55 51.66 433.87 51.66 433.87 63.58"/><polygon class="cls-11" points="451.65 51.66 449.28 57.73 451.17 62.58 454.16 55.05 454.16 66.97 457.85 66.97 457.85 51.66 451.65 51.66"/><polygon class="cls-12" points="439.67 51.66 439.67 54.34 439.67 55.05 439.67 66.97 443.36 66.97 443.36 55.05 447.39 65.17 450.13 65.17 450.64 63.92 445.87 51.66 439.67 51.66"/><polygon class="cls-13" points="40.79 51.66 37.1 51.66 37.1 66.97 40 66.97 40.79 66.97 49 66.97 49 63.58 40.79 63.58 40.79 51.66"/><path class="cls-14" d="M58.58,51.66H51.75l-1.27,1.55V65.38L51.75,67h10.5l1.27-1.57V53.19l-1.27-1.53Zm1.57,11.92h-6V55.06h6Z"/><path class="cls-15" d="M78.22,59.34V53.19l-1.28-1.53H65.64V67h3.69V61.76h4.33L74.91,67h3.67l-1.42-6.32Zm-3.69-1h-5.2v-3.3h5.2Z"/><polygon class="cls-16" points="85.08 51.66 80.33 51.66 80.33 66.97 85.08 66.97 85.66 66.97 92.19 66.97 92.19 63.58 85.66 63.58 85.66 60.91 90.51 60.91 90.51 57.52 85.66 57.52 85.66 55.05 92.19 55.05 92.19 51.66 85.66 51.66 85.08 51.66"/><polygon class="cls-17" points="93.78 51.66 93.78 54.26 93.78 55.05 93.78 66.97 97.47 66.97 97.47 55.05 101.5 65.17 104.23 65.17 104.74 63.92 99.97 51.66 93.78 51.66"/><polygon class="cls-18" points="103.38 57.73 105.27 62.58 108.26 55.05 108.26 66.97 111.95 66.97 111.95 51.66 105.76 51.66 103.38 57.73"/><rect class="cls-19" x="119.37" y="51.66" width="3.69" height="15.31"/><path class="cls-20" d="M128.87,51.66h-3.69V67h3.69V61.76h7.61l1.27-1.57v-7l-1.27-1.53Zm5.19,6.7h-5.19v-3.3h5.19Z"/><polygon class="cls-21" points="146.75 51.66 146.47 51.66 140.72 51.66 139.45 53.21 139.45 58.98 140.64 60.44 149.1 61.25 149.1 63.58 147.21 63.58 146.49 63.58 143.14 63.58 143.14 62.03 139.45 62.03 139.45 65.45 140.72 66.97 146.49 66.97 147.21 66.97 151.51 66.97 152.79 65.42 152.79 59.32 151.92 57.94 143.14 57.07 143.14 55.05 146.47 55.05 146.75 55.05 149.1 55.05 149.1 56.52 152.79 56.52 152.79 53.19 151.51 51.66 146.75 51.66"/><polygon class="cls-22" points="165.04 63.58 162.78 63.58 162.05 63.58 158.38 63.58 158.38 51.66 154.69 51.66 154.69 65.38 155.97 66.97 162.05 66.97 162.78 66.97 167.46 66.97 168.73 65.4 168.73 51.66 165.04 51.66 165.04 63.58"/><polygon class="cls-23" points="182.83 51.66 180.46 57.73 182.34 62.58 185.34 55.05 185.34 66.97 189.03 66.97 189.03 51.66 182.83 51.66"/><polygon class="cls-24" points="170.85 51.66 170.85 54.34 170.85 55.05 170.85 66.97 174.54 66.97 174.54 55.05 178.57 65.17 181.31 65.17 181.81 63.92 177.04 51.66 170.85 51.66"/><path class="cls-25" d="M207.65,35.05l.17.3,8.88,15.39,11.06,19.14H268l11-19.14,9.05-15.69-.17-.29L268,.24H227.76ZM267.28,1.43l19.43,33.62-9.06,15.69L267.28,68.69H228.45L218.09,50.74,209,35.05,228.45,1.43Z"/><polygon class="cls-26" points="229.25 15.35 217.87 35.06 229.25 54.77 229.84 54.43 218.66 35.06 229.84 15.69 229.25 15.35"/><polygon class="cls-27" points="267.46 15.35 266.88 15.69 278.06 35.06 266.88 54.43 267.46 54.77 278.84 35.06 267.46 15.35"/><polygon class="cls-28" points="253.78 45.31 241.94 45.31 236.03 35.06 241.94 24.81 253.78 24.81 259.7 35.06 253.78 45.31"/><polygon class="cls-29" points="299.92 0 282.6 0 301.82 33.02 319.15 33.02 299.92 0"/><polygon class="cls-30" points="323.95 0 306.62 0 325.85 33.02 343.17 33.02 323.95 0"/><polygon class="cls-31" points="347.97 0 330.64 0 349.87 33.02 367.19 33.02 347.97 0"/><polygon class="cls-32" points="371.99 0 354.67 0 373.89 33.02 391.21 33.02 371.99 0"/><g class="cls-33"><polygon class="cls-34" points="396.01 0 378.69 0 397.91 33.02 415.24 33.02 396.01 0"/></g><g class="cls-33"><polygon class="cls-35" points="420.04 0 402.71 0 421.94 33.02 439.26 33.02 420.04 0"/></g><g class="cls-33"><polygon class="cls-36" points="444.06 0 426.73 0 445.96 33.02 463.28 33.02 444.06 0"/></g><g class="cls-33"><polygon class="cls-37" points="466.81 0 449.48 0 468.71 33.02 486.03 33.02 466.81 0"/></g><polygon class="cls-38" points="197.47 0 214.79 0 195.57 33.02 178.25 33.02 197.47 0"/><polygon class="cls-39" points="173.45 0 190.77 0 171.55 33.02 154.22 33.02 173.45 0"/><polygon class="cls-40" points="149.43 0 166.75 0 147.53 33.02 130.2 33.02 149.43 0"/><polygon class="cls-41" points="125.4 0 142.73 0 123.5 33.02 106.18 33.02 125.4 0"/><polygon class="cls-42" points="101.38 0 118.71 0 99.48 33.02 82.16 33.02 101.38 0"/><polygon class="cls-43" points="77.36 0 94.68 0 75.46 33.02 58.14 33.02 77.36 0"/><g class="cls-33"><polygon class="cls-44" points="53.34 0 70.66 0 51.44 33.02 34.11 33.02 53.34 0"/></g><g class="cls-33"><polygon class="cls-45" points="29.75 0 47.07 0 27.85 33.02 10.53 33.02 29.75 0"/></g><polygon class="cls-46" points="485.34 24.48 484.35 25.13 492.85 38.22 300.88 38.22 300.88 39.41 495.04 39.41 485.34 24.48"/><rect class="cls-47" x="300.87" y="38.82" width="40.45" height="3.66"/><polygon class="cls-48" points="9.69 24.48 0 39.41 196.52 39.41 196.52 38.22 2.19 38.22 10.69 25.13 9.69 24.48"/><rect class="cls-49" x="156.07" y="38.82" width="40.45" height="3.66" transform="translate(352.59 81.29) rotate(180)"/><polygon class="cls-50" points="291.1 39.17 291.94 39.65 271.07 75.95 271.07 87.22 283.1 99.25 397.16 99.25 397.31 99.39 459.2 161.28 458.51 161.97 396.76 100.22 282.7 100.22 270.1 87.62 270.1 75.69 291.1 39.17"/><rect class="cls-51" x="468.55" y="171.58" width="9.96" height="9.96" transform="translate(947.07 353.11) rotate(180)"/><path class="cls-52" d="M461.13,164.15H486V189H461.13Zm23.85,1H462.09V188H485Z"/><path class="cls-53" d="M399.72,102.49c-1-.18-90.57,0-90.57,0L307,104.65h-10.4s-.64-4.92,0-4.92H397Z"/><path class="cls-54" d="M272.9,89.73s.46-17.71,0-17.71-2.18,3.5-2.32,3.62-.1,11.8-.1,11.8Z"/><path class="cls-55" d="M411.16,113.93V109.8L397.77,96.41H366l-3.48,3.47s34.84-.46,35.3,0S411.16,113.93,411.16,113.93Z"/><polygon class="cls-56" points="206.04 39.17 227.04 75.69 227.04 87.62 214.44 100.22 100.38 100.22 38.63 161.97 37.94 161.28 99.98 99.25 214.04 99.25 226.07 87.22 226.07 75.95 205.2 39.65 206.04 39.17"/><rect class="cls-57" x="18.62" y="171.58" width="9.96" height="9.96"/><path class="cls-58" d="M11.19,164.15H36V189H11.19Zm23.86,1H12.16V188H35.05Z"/><path class="cls-59" d="M97.42,102.49c1-.18,90.57,0,90.57,0l2.16,2.16h10.4s.64-4.92,0-4.92H100.18Z"/><path class="cls-60" d="M224.24,89.73s-.46-17.71,0-17.71,2.17,3.5,2.32,3.62.1,11.8.1,11.8Z"/><path class="cls-61" d="M86,113.93V109.8L99.37,96.41h31.81l3.48,3.47s-34.84-.46-35.3,0S86,113.93,86,113.93Z"/></g></g></svg>