<svg xmlns="http://www.w3.org/2000/svg" xmlns:xlink="http://www.w3.org/1999/xlink" viewBox="0 0 493.61 135.64"><defs><style>.cls-1{fill:url(#New_Gradient_Swatch_2);}.cls-2{fill:url(#New_Gradient_Swatch_2-2);}.cls-3{fill:url(#New_Gradient_Swatch_2-3);}.cls-4{fill:url(#New_Gradient_Swatch_2-4);}.cls-5{fill:url(#New_Gradient_Swatch_2-5);}.cls-6{fill:url(#New_Gradient_Swatch_2-6);}.cls-7{fill:url(#New_Gradient_Swatch_2-7);}.cls-8{fill:url(#New_Gradient_Swatch_2-8);}.cls-9{fill:url(#New_Gradient_Swatch_2-9);}.cls-10{fill:url(#New_Gradient_Swatch_2-10);}.cls-11{fill:url(#New_Gradient_Swatch_2-11);}.cls-12{fill:url(#New_Gradient_Swatch_2-12);}.cls-13{fill:url(#New_Gradient_Swatch_2-13);}.cls-14{fill:url(#New_Gradient_Swatch_2-14);}.cls-15{fill:url(#New_Gradient_Swatch_2-15);}.cls-16{fill:url(#New_Gradient_Swatch_2-16);}.cls-17{fill:url(#New_Gradient_Swatch_2-17);}.cls-18{fill:url(#New_Gradient_Swatch_2-18);}.cls-19{fill:url(#New_Gradient_Swatch_2-19);}.cls-20{fill:url(#New_Gradient_Swatch_2-20);}.cls-21{fill:url(#New_Gradient_Swatch_2-21);}.cls-22{fill:url(#New_Gradient_Swatch_2-22);}.cls-23{fill:url(#New_Gradient_Swatch_2-23);}.cls-24{fill:url(#New_Gradient_Swatch_2-24);}.cls-25{fill:url(#New_Gradient_Swatch_2-25);}.cls-26{fill:url(#New_Gradient_Swatch_2-26);}.cls-27{fill:url(#New_Gradient_Swatch_2-27);}.cls-28{opacity:0.15;}.cls-29{fill:url(#New_Gradient_Swatch_2-28);}.cls-30{fill:url(#New_Gradient_Swatch_2-29);}.cls-31{fill:url(#New_Gradient_Swatch_2-30);}.cls-32{fill:url(#New_Gradient_Swatch_2-31);}.cls-33{fill:url(#New_Gradient_Swatch_2-32);}.cls-34{fill:url(#New_Gradient_Swatch_2-33);}.cls-35{fill:url(#New_Gradient_Swatch_2-34);}.cls-36{fill:url(#New_Gradient_Swatch_2-35);}.cls-37{fill:url(#New_Gradient_Swatch_2-36);}.cls-38{fill:url(#New_Gradient_Swatch_2-37);}.cls-39{fill:url(#New_Gradient_Swatch_2-38);}.cls-40{fill:url(#New_Gradient_Swatch_2-39);}.cls-41{fill:url(#New_Gradient_Swatch_2-40);}.cls-42{fill:url(#New_Gradient_Swatch_2-41);}.cls-43{fill:url(#New_Gradient_Swatch_2-42);}.cls-44{fill:url(#New_Gradient_Swatch_2-43);}.cls-45{opacity:0.22;}.cls-46{fill:url(#New_Gradient_Swatch_2-44);}.cls-47{fill:url(#New_Gradient_Swatch_2-45);}.cls-48{fill:url(#New_Gradient_Swatch_2-46);}.cls-49{fill:url(#New_Gradient_Swatch_2-47);}.cls-50{fill:url(#New_Gradient_Swatch_2-48);}.cls-51{fill:url(#New_Gradient_Swatch_2-49);}.cls-52{fill:url(#New_Gradient_Swatch_2-50);}.cls-53{fill:url(#New_Gradient_Swatch_2-51);}.cls-54{fill:url(#New_Gradient_Swatch_2-52);}</style><linearGradient id="New_Gradient_Swatch_2" x1="162.87" y1="5.32" x2="171.14" y2="5.32" gradientUnits="userSpaceOnUse"><stop offset="0" stop-color="#9541de"/><stop offset="1" stop-color="#3ab2c0"/></linearGradient><linearGradient id="New_Gradient_Swatch_2-2" x1="172.17" y1="5.32" x2="181.24" y2="5.32" xlink:href="#New_Gradient_Swatch_2"/><linearGradient id="New_Gradient_Swatch_2-3" x1="182.72" y1="5.32" x2="191.71" y2="5.32" xlink:href="#New_Gradient_Swatch_2"/><linearGradient id="New_Gradient_Swatch_2-4" x1="192.93" y1="5.32" x2="201.17" y2="5.32" xlink:href="#New_Gradient_Swatch_2"/><linearGradient id="New_Gradient_Swatch_2-5" x1="202.28" y1="5.32" x2="209.9" y2="5.32" xlink:href="#New_Gradient_Swatch_2"/><linearGradient id="New_Gradient_Swatch_2-6" x1="208.96" y1="5.32" x2="214.91" y2="5.32" xlink:href="#New_Gradient_Swatch_2"/><linearGradient id="New_Gradient_Swatch_2-7" x1="220.07" y1="5.32" x2="222.64" y2="5.32" xlink:href="#New_Gradient_Swatch_2"/><linearGradient id="New_Gradient_Swatch_2-8" x1="224.11" y1="5.32" x2="232.85" y2="5.32" xlink:href="#New_Gradient_Swatch_2"/><linearGradient id="New_Gradient_Swatch_2-9" x1="234.03" y1="5.32" x2="243.31" y2="5.32" xlink:href="#New_Gradient_Swatch_2"/><linearGradient id="New_Gradient_Swatch_2-10" x1="244.63" y1="5.32" x2="254.39" y2="5.32" xlink:href="#New_Gradient_Swatch_2"/><linearGradient id="New_Gradient_Swatch_2-11" x1="262.54" y1="5.32" x2="268.5" y2="5.32" xlink:href="#New_Gradient_Swatch_2"/><linearGradient id="New_Gradient_Swatch_2-12" x1="255.87" y1="5.32" x2="263.49" y2="5.32" xlink:href="#New_Gradient_Swatch_2"/><linearGradient id="New_Gradient_Swatch_2-13" x1="14.15" y1="68.41" x2="162.87" y2="68.41" xlink:href="#New_Gradient_Swatch_2"/><linearGradient id="New_Gradient_Swatch_2-14" x1="14.12" y1="95.14" x2="16.22" y2="95.14" xlink:href="#New_Gradient_Swatch_2"/><linearGradient id="New_Gradient_Swatch_2-15" x1="14.14" y1="88.08" x2="14.15" y2="88.08" xlink:href="#New_Gradient_Swatch_2"/><linearGradient id="New_Gradient_Swatch_2-16" x1="20.93" y1="54.25" x2="50.29" y2="54.25" xlink:href="#New_Gradient_Swatch_2"/><linearGradient id="New_Gradient_Swatch_2-17" x1="49.64" y1="54.29" x2="68.35" y2="54.29" xlink:href="#New_Gradient_Swatch_2"/><linearGradient id="New_Gradient_Swatch_2-18" x1="69.61" y1="54.31" x2="86.2" y2="54.31" xlink:href="#New_Gradient_Swatch_2"/><linearGradient id="New_Gradient_Swatch_2-19" x1="89.01" y1="54.34" x2="105.62" y2="54.34" xlink:href="#New_Gradient_Swatch_2"/><linearGradient id="New_Gradient_Swatch_2-20" x1="108.51" y1="54.36" x2="115.99" y2="54.36" xlink:href="#New_Gradient_Swatch_2"/><linearGradient id="New_Gradient_Swatch_2-21" x1="118.89" y1="54.39" x2="135.5" y2="54.39" xlink:href="#New_Gradient_Swatch_2"/><linearGradient id="New_Gradient_Swatch_2-22" x1="138.21" y1="54.41" x2="155.43" y2="54.41" xlink:href="#New_Gradient_Swatch_2"/><linearGradient id="New_Gradient_Swatch_2-23" x1="15.21" y1="61.4" x2="486.03" y2="61.4" xlink:href="#New_Gradient_Swatch_2"/><linearGradient id="New_Gradient_Swatch_2-24" x1="402.56" y1="15.6" x2="406.1" y2="15.6" xlink:href="#New_Gradient_Swatch_2"/><linearGradient id="New_Gradient_Swatch_2-25" x1="399.91" y1="15.6" x2="408.75" y2="15.6" xlink:href="#New_Gradient_Swatch_2"/><linearGradient id="New_Gradient_Swatch_2-26" x1="483" y1="15.6" x2="489.06" y2="15.6" xlink:href="#New_Gradient_Swatch_2"/><linearGradient id="New_Gradient_Swatch_2-27" x1="478.45" y1="15.6" x2="493.61" y2="15.6" xlink:href="#New_Gradient_Swatch_2"/><linearGradient id="New_Gradient_Swatch_2-28" x1="152.31" y1="55.66" x2="348.58" y2="55.66" xlink:href="#New_Gradient_Swatch_2"/><linearGradient id="New_Gradient_Swatch_2-29" x1="151.98" y1="21.82" x2="269.44" y2="21.82" xlink:href="#New_Gradient_Swatch_2"/><linearGradient id="New_Gradient_Swatch_2-30" x1="244.09" y1="90.76" x2="335.36" y2="90.76" xlink:href="#New_Gradient_Swatch_2"/><linearGradient id="New_Gradient_Swatch_2-31" x1="258.03" y1="97.86" x2="269.64" y2="97.86" gradientTransform="translate(146.47 -157.9) rotate(45)" xlink:href="#New_Gradient_Swatch_2"/><linearGradient id="New_Gradient_Swatch_2-32" x1="243.75" y1="97.86" x2="255.37" y2="97.86" gradientTransform="translate(142.29 -147.81) rotate(45)" xlink:href="#New_Gradient_Swatch_2"/><linearGradient id="New_Gradient_Swatch_2-33" x1="229.48" y1="97.86" x2="241.1" y2="97.86" gradientTransform="translate(138.11 -137.71) rotate(45)" xlink:href="#New_Gradient_Swatch_2"/><linearGradient id="New_Gradient_Swatch_2-34" x1="215.21" y1="97.86" x2="226.83" y2="97.86" gradientTransform="translate(133.93 -127.62) rotate(45)" xlink:href="#New_Gradient_Swatch_2"/><linearGradient id="New_Gradient_Swatch_2-35" x1="200.94" y1="97.86" x2="212.56" y2="97.86" gradientTransform="translate(129.75 -117.53) rotate(45)" xlink:href="#New_Gradient_Swatch_2"/><linearGradient id="New_Gradient_Swatch_2-36" x1="186.67" y1="97.86" x2="198.29" y2="97.86" gradientTransform="translate(125.57 -107.44) rotate(45)" xlink:href="#New_Gradient_Swatch_2"/><linearGradient id="New_Gradient_Swatch_2-37" x1="172.4" y1="97.86" x2="184.01" y2="97.86" gradientTransform="translate(121.39 -97.35) rotate(45)" xlink:href="#New_Gradient_Swatch_2"/><linearGradient id="New_Gradient_Swatch_2-38" x1="20.93" y1="114.67" x2="300.82" y2="114.67" xlink:href="#New_Gradient_Swatch_2"/><linearGradient id="New_Gradient_Swatch_2-39" x1="301.16" y1="113.43" x2="340.42" y2="113.43" xlink:href="#New_Gradient_Swatch_2"/><linearGradient id="New_Gradient_Swatch_2-40" x1="291.35" y1="43.04" x2="329.69" y2="43.04" xlink:href="#New_Gradient_Swatch_2"/><linearGradient id="New_Gradient_Swatch_2-41" x1="169.44" y1="74.58" x2="231.52" y2="74.58" xlink:href="#New_Gradient_Swatch_2"/><linearGradient id="New_Gradient_Swatch_2-42" x1="6.75" y1="47.26" x2="134.13" y2="47.26" xlink:href="#New_Gradient_Swatch_2"/><linearGradient id="New_Gradient_Swatch_2-43" x1="0" y1="35.93" x2="21.52" y2="35.93" xlink:href="#New_Gradient_Swatch_2"/><linearGradient id="New_Gradient_Swatch_2-44" x1="24.91" y1="125.54" x2="266.33" y2="125.54" xlink:href="#New_Gradient_Swatch_2"/><linearGradient id="New_Gradient_Swatch_2-45" x1="185.97" y1="131.88" x2="239.42" y2="131.88" xlink:href="#New_Gradient_Swatch_2"/><linearGradient id="New_Gradient_Swatch_2-46" x1="269.64" y1="122.73" x2="316.04" y2="122.73" xlink:href="#New_Gradient_Swatch_2"/><linearGradient id="New_Gradient_Swatch_2-47" x1="348.58" y1="66.46" x2="405.66" y2="66.46" xlink:href="#New_Gradient_Swatch_2"/><linearGradient id="New_Gradient_Swatch_2-48" x1="394.87" y1="107.85" x2="399.43" y2="107.85" xlink:href="#New_Gradient_Swatch_2"/><linearGradient id="New_Gradient_Swatch_2-49" x1="391.45" y1="107.85" x2="402.86" y2="107.85" xlink:href="#New_Gradient_Swatch_2"/><linearGradient id="New_Gradient_Swatch_2-50" x1="370.51" y1="25.94" x2="375.07" y2="25.94" xlink:href="#New_Gradient_Swatch_2"/><linearGradient id="New_Gradient_Swatch_2-51" x1="367.09" y1="25.94" x2="378.5" y2="25.94" xlink:href="#New_Gradient_Swatch_2"/><linearGradient id="New_Gradient_Swatch_2-52" x1="311.32" y1="25.88" x2="395.19" y2="25.88" xlink:href="#New_Gradient_Swatch_2"/></defs><title>title_07_purple_blue</title><g id="Layer_2" data-name="Layer 2"><g id="Layer_1-2" data-name="Layer 1"><polygon class="cls-1" points="165.44 0 162.87 0 162.87 10.64 164.89 10.64 165.44 10.64 171.14 10.64 171.14 8.29 165.44 8.29 165.44 0"/><path class="cls-2" d="M177.81,0h-4.75l-.89,1.08V9.54l.89,1.1h7.3l.88-1.09V1.06L180.36,0Zm1.09,8.29h-4.16V2.36h4.16Z"/><path class="cls-3" d="M191.46,5.34V1.06L190.57,0h-7.85V10.64h2.56V7h3l.87,3.62h2.55l-1-4.39Zm-2.57-.68h-3.61V2.36h3.61Z"/><polygon class="cls-4" points="196.23 0 192.93 0 192.93 10.64 196.23 10.64 196.63 10.64 201.17 10.64 201.17 8.29 196.63 8.29 196.63 6.43 200.01 6.43 200.01 4.07 196.63 4.07 196.63 2.36 201.17 2.36 201.17 0 196.63 0 196.23 0"/><polygon class="cls-5" points="202.28 0 202.28 1.81 202.28 2.36 202.28 10.64 204.84 10.64 204.84 2.36 207.64 9.39 209.55 9.39 209.9 8.52 206.58 0 202.28 0"/><polygon class="cls-6" points="208.96 4.22 210.27 7.59 212.35 2.36 212.35 10.64 214.91 10.64 214.91 0 210.61 0 208.96 4.22"/><rect class="cls-7" x="220.07" width="2.57" height="10.64"/><path class="cls-8" d="M226.68,0h-2.57V10.64h2.57V7H232l.88-1.09V1.06L232,0Zm3.61,4.66h-3.61V2.36h3.61Z"/><polygon class="cls-9" points="239.11 0 238.91 0 234.92 0 234.03 1.08 234.03 5.09 234.86 6.1 240.74 6.66 240.74 8.29 239.43 8.29 238.93 8.29 236.6 8.29 236.6 7.21 234.03 7.21 234.03 9.58 234.92 10.64 238.93 10.64 239.43 10.64 242.42 10.64 243.31 9.57 243.31 5.32 242.7 4.36 236.6 3.76 236.6 2.36 238.91 2.36 239.11 2.36 240.74 2.36 240.74 3.38 243.31 3.38 243.31 1.06 242.42 0 239.11 0"/><polygon class="cls-10" points="251.83 8.29 250.26 8.29 249.75 8.29 247.2 8.29 247.2 0 244.63 0 244.63 9.54 245.52 10.64 249.75 10.64 250.26 10.64 253.51 10.64 254.39 9.55 254.39 0 251.83 0 251.83 8.29"/><polygon class="cls-11" points="264.19 0 262.54 4.22 263.86 7.59 265.94 2.36 265.94 10.64 268.5 10.64 268.5 0 264.19 0"/><polygon class="cls-12" points="255.87 0 255.87 1.86 255.87 2.36 255.87 10.64 258.43 10.64 258.43 2.36 261.23 9.39 263.13 9.39 263.49 8.52 260.17 0 255.87 0"/><path class="cls-13" d="M162.87,101.42V86.29L145.67,75.73h9.9l7.3,4.49V35.41H14.15V87.32l0-4.54,21.2,13-9.9,0-11.32-7v12.58ZM14.2,77.12v-1.6l7.29,0,33,20.3h-9.9ZM92.84,95.9h-9.9l-33-20.31h9.9ZM69.05,75.61l9.9,0,33,20.3-9.9,0Zm4.63,20.26-9.9,0-33-20.3h9.9Zm47.56.07-33-20.3h9.9l33,20.31Zm19.16,0-33-20.31h9.9L150.3,96Zm22.44-4,0,4.06h-3.27l-33-20.3h9.9Zm-145-22.36V39.06h141.6V69.59Z"/><polygon class="cls-14" points="14.12 95.78 14.12 94.49 16.22 95.78 14.12 95.78"/><polygon class="cls-15" points="14.15 87.32 14.15 88.84 14.14 88.83 14.15 87.32"/><path class="cls-16" d="M50.29,45.63,46.92,62.91l-9.25,0a78.37,78.37,0,0,1-2.2-9.06Q35,56,33.37,62.89l-9.2,0L20.93,45.59h7.2l.75,6,.73,5.83a99,99,0,0,1,2.1-11.86H39.4q.15.77.78,5.71L41,57.89a93.57,93.57,0,0,1,2.12-12.27Z"/><path class="cls-17" d="M64.19,45.65l4.16,17.29H60.79l-.39-3.11H57.75l-.45,3.1H49.64l3.85-17.27Zm-4,11.11c-.36-2-.73-4.38-1.09-7.26Q58,54.45,57.67,56.75Z"/><path class="cls-18" d="M69.69,45.66h5.24a66.11,66.11,0,0,1,7.09.25,5.69,5.69,0,0,1,3,1.26A4,4,0,0,1,86.2,50.4a3.48,3.48,0,0,1-.84,2.71,5.92,5.92,0,0,1-3.26.83,7.21,7.21,0,0,1,3,.89,2.66,2.66,0,0,1,.94,1,9.83,9.83,0,0,1,.17,2.56l0,4.56H79.27l0-5.75c0-.92-.11-1.5-.35-1.72a3.29,3.29,0,0,0-1.89-.33L77,63h-7.4Zm7.39,3,0,3.84a5,5,0,0,0,1.75-.21c.34-.13.5-.58.51-1.35V50a1.08,1.08,0,0,0-.48-1.07A4,4,0,0,0,77.08,48.63Z"/><path class="cls-19" d="M105.62,45.71,105.54,63H99.05l-3.82-7.86,0,7.86H89l.07-17.28h6.19l4.12,7.79,0-7.79Z"/><path class="cls-20" d="M116,45.73,115.92,63h-7.41l.08-17.28Z"/><path class="cls-21" d="M135.5,45.76,135.42,63h-6.49l-3.82-7.86,0,7.85h-6.19L119,45.73h6.2l4.11,7.79,0-7.78Z"/><path class="cls-22" d="M155.43,52.15H148V50.57a4.74,4.74,0,0,0-.2-1.86c-.14-.25-.47-.37-1-.37a1.12,1.12,0,0,0-.93.31,3.22,3.22,0,0,0-.26,1.65l0,8.29a2.93,2.93,0,0,0,.24,1.53,1.09,1.09,0,0,0,1,.37,1.24,1.24,0,0,0,1.1-.41,3.23,3.23,0,0,0,.3-1.62V56.41h-1.5V53.78h8.67l0,9.28h-4.65l-.68-1.24a4.66,4.66,0,0,1-1.92,1.2,8.15,8.15,0,0,1-2.71.4,11.07,11.07,0,0,1-3.5-.56,6.59,6.59,0,0,1-2.46-1.36,3.43,3.43,0,0,1-1.05-1.71,12,12,0,0,1-.2-2.67l0-5.14a10.56,10.56,0,0,1,.46-3.59,4.47,4.47,0,0,1,2.53-2,13.34,13.34,0,0,1,5.39-.93,15.42,15.42,0,0,1,5.4.82,5.25,5.25,0,0,1,2.79,1.93,6.51,6.51,0,0,1,.63,3.24Z"/><polygon class="cls-23" points="343.28 108.32 15.21 108.32 15.21 107.28 342.85 107.28 404.2 14.49 486.03 14.49 486.03 15.53 404.64 15.53 343.28 108.32"/><path class="cls-24" d="M404.33,13.83h0a1.77,1.77,0,0,0-1.77,1.77h0a1.77,1.77,0,0,0,1.77,1.77h0a1.77,1.77,0,0,0,1.77-1.77h0A1.77,1.77,0,0,0,404.33,13.83Z"/><path class="cls-25" d="M406.69,20H402A2.07,2.07,0,0,1,399.91,18V13.24A2.07,2.07,0,0,1,402,11.17h4.72a2.07,2.07,0,0,1,2.06,2.07V18A2.07,2.07,0,0,1,406.69,20ZM402,11.76a1.48,1.48,0,0,0-1.47,1.48V18A1.47,1.47,0,0,0,402,19.43h4.72A1.47,1.47,0,0,0,408.16,18V13.24a1.48,1.48,0,0,0-1.47-1.48Z"/><path class="cls-26" d="M486,12.56h0a3,3,0,0,0-3,3h0a3,3,0,0,0,3,3h0a3,3,0,0,0,3-3h0A3,3,0,0,0,486,12.56Z"/><path class="cls-27" d="M490.07,23.18H482a3.54,3.54,0,0,1-3.53-3.54V11.55A3.53,3.53,0,0,1,482,8h8.09a3.54,3.54,0,0,1,3.54,3.53v8.09A3.55,3.55,0,0,1,490.07,23.18ZM482,9a2.52,2.52,0,0,0-2.52,2.52v8.09A2.53,2.53,0,0,0,482,22.17h8.09a2.54,2.54,0,0,0,2.53-2.53V11.55A2.53,2.53,0,0,0,490.07,9Z"/><g class="cls-28"><polygon class="cls-29" points="152.31 27.27 163.12 16.47 270.12 16.47 285.8 32.15 307.9 32.15 348.58 72.83 335.32 94.86 269 94.86 260.97 86.83 173.54 86.83 173.54 27.11 152.31 27.27"/></g><polygon class="cls-30" points="152.65 27.61 151.98 26.93 162.88 16.03 269.44 16.03 269.44 16.99 163.27 16.99 152.65 27.61"/><polygon class="cls-31" points="335.36 95.18 268.96 95.18 261.09 87.31 244.09 87.31 244.09 86.35 261.49 86.35 269.36 94.22 335.36 94.22 335.36 95.18"/><rect class="cls-32" x="263.35" y="90.12" width="0.96" height="15.47" transform="translate(8.08 215.22) rotate(-45)"/><rect class="cls-33" x="249.08" y="90.12" width="0.96" height="15.47" transform="translate(3.9 205.13) rotate(-45)"/><rect class="cls-34" x="234.81" y="90.12" width="0.96" height="15.47" transform="translate(-0.28 195.03) rotate(-45)"/><rect class="cls-35" x="220.54" y="90.12" width="0.96" height="15.47" transform="translate(-4.46 184.95) rotate(-45)"/><rect class="cls-36" x="206.27" y="90.12" width="0.96" height="15.47" transform="translate(-8.64 174.86) rotate(-45)"/><rect class="cls-37" x="192" y="90.12" width="0.96" height="15.47" transform="translate(-12.82 164.76) rotate(-45)"/><rect class="cls-38" x="177.73" y="90.12" width="0.96" height="15.47" transform="translate(-17 154.67) rotate(-45)"/><polygon class="cls-39" points="20.93 112.67 23.3 115.04 213.89 115.04 216.89 118.04 294.07 118.04 300.82 111.29 20.93 111.29 20.93 112.67"/><polygon class="cls-40" points="335.99 115.98 301.16 115.98 301.16 115.03 335.6 115.03 339.74 110.88 340.42 111.56 335.99 115.98"/><polygon class="cls-41" points="291.35 32.15 303.55 44.34 310.73 44.34 320.32 53.94 329.69 53.94 329.69 48.27 316.21 34.8 310.22 34.8 307.74 32.31 291.35 32.15"/><polygon class="cls-42" points="173.54 60.52 171.6 62.46 171.6 77.65 169.44 79.81 169.44 88.63 197.05 88.63 201.57 84.11 231.52 84.11 229.8 82.39 194.38 82.39 187.33 75.34 178.99 75.34 175.86 72.21 175.86 62.53 173.54 60.52"/><polygon class="cls-43" points="11.97 72.3 6.75 67.08 6.75 30.54 44.54 30.54 48.87 26.21 111.37 26.21 115.36 22.22 134.13 22.22 134.13 31.61 50.87 31.61 48.15 34.33 20.93 34.33 18.75 36.52 15.8 39.46 15.8 66.5 11.97 72.3"/><polygon class="cls-44" points="3.11 48.31 0 45.2 0 25.62 12.62 25.62 14.69 23.55 21.52 23.55 21.52 28.03 5.19 28.03 5.19 45.97 3.11 48.31"/><g class="cls-45"><polygon class="cls-46" points="24.91 117.36 35.66 128.11 212.11 128.11 217.71 133.71 260.66 133.71 266.33 128.04 266.33 121.2 214.79 121.2 211.09 117.5 24.91 117.36"/></g><polygon class="cls-47" points="185.97 128.11 212.56 128.11 217.76 133.31 239.42 133.31 237.09 135.64 214.61 135.64 209.35 130.38 188.82 130.38 185.97 128.11"/><polygon class="cls-48" points="310.11 126.07 269.64 126.07 269.64 125 309.67 125 315.28 119.39 316.04 120.14 310.11 126.07"/><polygon class="cls-49" points="397.76 108.86 348.58 108.86 348.58 107.79 396.78 107.79 404.59 24.06 405.65 24.16 397.76 108.86"/><path class="cls-50" d="M397.15,105.57h0a2.28,2.28,0,0,0-2.28,2.28h0a2.28,2.28,0,0,0,2.28,2.28h0a2.28,2.28,0,0,0,2.28-2.28h0A2.28,2.28,0,0,0,397.15,105.57Z"/><path class="cls-51" d="M400.19,113.55h-6.08a2.66,2.66,0,0,1-2.66-2.66v-6.08a2.66,2.66,0,0,1,2.66-2.66h6.08a2.67,2.67,0,0,1,2.67,2.66v6.08A2.67,2.67,0,0,1,400.19,113.55Zm-6.08-10.64a1.9,1.9,0,0,0-1.9,1.9v6.08a1.9,1.9,0,0,0,1.9,1.9h6.08a1.91,1.91,0,0,0,1.91-1.9v-6.08a1.91,1.91,0,0,0-1.91-1.9Z"/><path class="cls-52" d="M372.79,23.66h0a2.28,2.28,0,0,0-2.28,2.28h0a2.29,2.29,0,0,0,2.28,2.29h0a2.29,2.29,0,0,0,2.28-2.29h0A2.28,2.28,0,0,0,372.79,23.66Z"/><path class="cls-53" d="M375.83,31.65h-6.08A2.67,2.67,0,0,1,367.09,29V22.9a2.67,2.67,0,0,1,2.66-2.66h6.08a2.67,2.67,0,0,1,2.67,2.66V29A2.67,2.67,0,0,1,375.83,31.65ZM369.75,21a1.9,1.9,0,0,0-1.9,1.9V29a1.91,1.91,0,0,0,1.9,1.9h6.08a1.91,1.91,0,0,0,1.91-1.9V22.9a1.91,1.91,0,0,0-1.91-1.9Z"/><polygon class="cls-54" points="312.07 33.06 311.32 32.3 318.3 25.32 372.48 25.32 394.89 18.69 395.19 19.72 372.55 26.39 318.75 26.39 312.07 33.06"/></g></g></svg>