<svg xmlns="http://www.w3.org/2000/svg" viewBox="0 0 493.61 191.63"><defs><style>.cls-1{fill:#11e5b3;}</style></defs><title>title_08_green</title><g id="Layer_2" data-name="Layer 2"><g id="Layer_1-2" data-name="Layer 1"><polygon class="cls-1" points="113.3 64.59 109.24 64.59 109.24 81.44 112.43 81.44 113.3 81.44 122.33 81.44 122.33 77.71 113.3 77.71 113.3 64.59"/><path class="cls-1" d="M132.88,64.59h-7.52L124,66.3V79.69l1.4,1.75h11.55l1.4-1.73V66.27l-1.4-1.68Zm1.72,13.12H128V68.33h6.58Z"/><path class="cls-1" d="M154.48,73V66.27l-1.4-1.68H140.64V81.44h4.06V75.7h4.76l1.38,5.74h4l-1.57-7ZM150.42,72H144.7V68.33h5.72Z"/><polygon class="cls-1" points="162.04 64.59 156.81 64.59 156.81 81.44 162.04 81.44 162.67 81.44 169.86 81.44 169.86 77.71 162.67 77.71 162.67 74.77 168.01 74.77 168.01 71.03 162.67 71.03 162.67 68.33 169.86 68.33 169.86 64.59 162.67 64.59 162.04 64.59"/><polygon class="cls-1" points="171.61 64.59 171.61 67.45 171.61 68.33 171.61 81.44 175.67 81.44 175.67 68.33 180.1 79.45 183.11 79.45 183.67 78.08 178.42 64.59 171.61 64.59"/><polygon class="cls-1" points="182.18 71.27 184.25 76.61 187.54 68.33 187.54 81.44 191.6 81.44 191.6 64.59 184.79 64.59 182.18 71.27"/><rect class="cls-1" x="199.77" y="64.59" width="4.06" height="16.85"/><path class="cls-1" d="M210.22,64.59h-4.06V81.44h4.06V75.7h8.38L220,74v-7.7l-1.4-1.68ZM215.94,72h-5.72V68.33h5.72Z"/><polygon class="cls-1" points="229.9 64.59 229.59 64.59 223.26 64.59 221.86 66.3 221.86 72.64 223.17 74.25 232.48 75.14 232.48 77.71 230.41 77.71 229.61 77.71 225.92 77.71 225.92 76 221.86 76 221.86 79.76 223.26 81.44 229.61 81.44 230.41 81.44 235.14 81.44 236.54 79.74 236.54 73.02 235.58 71.5 225.92 70.54 225.92 68.33 229.59 68.33 229.9 68.33 232.48 68.33 232.48 69.94 236.54 69.94 236.54 66.27 235.14 64.59 229.9 64.59"/><polygon class="cls-1" points="250.03 77.71 247.54 77.71 246.74 77.71 242.7 77.71 242.7 64.59 238.64 64.59 238.64 79.69 240.04 81.44 246.74 81.44 247.54 81.44 252.69 81.44 254.09 79.71 254.09 64.59 250.03 64.59 250.03 77.71"/><polygon class="cls-1" points="269.6 64.59 266.99 71.27 269.07 76.61 272.36 68.33 272.36 81.44 276.42 81.44 276.42 64.59 269.6 64.59"/><polygon class="cls-1" points="256.42 64.59 256.42 67.54 256.42 68.33 256.42 81.44 260.48 81.44 260.48 68.33 264.91 79.45 267.92 79.45 268.48 78.08 263.23 64.59 256.42 64.59"/><path class="cls-1" d="M92.65,101.13V95.77H94v5.36Zm1.67,0V99.94h2.5v1.19Z"/><path class="cls-1" d="M97.79,95.77h1.65V97h-.81v3h.81v1.19H97.79l-.45-.56V96.31Zm2,1.19V95.77h1.65l.45.53v4.28l-.45.55H99.81V99.94h.92V97Z"/><path class="cls-1" d="M102.65,101.13V95.77H104v5.36ZM104.32,97V95.77h2.29l.45.53v2.16l-.37.46.49,2.21H105.9l-.44-1.83h-1.14V98.11h1.45V97Z"/><path class="cls-1" d="M107.8,101.13V95.77h1.3v5.36ZM109.47,97V95.77H112V97Zm0,2.05V97.82h1.9V99Zm0,2.12V99.94H112v1.19Z"/><path class="cls-1" d="M116.35,100.06l-.18.44h-1L113.8,97h-1.29V95.77h2.17ZM113.8,98v3.14h-1.29v-3.8h1Zm2.08-.1.83-2.12h2.17v5.36h-1.29V97l-1,2.63Z"/><path class="cls-1" d="M121.48,101.13V95.77h1.29v5.36Z"/><path class="cls-1" d="M123.52,101.13V95.77h1.29v5.36ZM125.18,97V95.77h2.29l.45.53v2.45l-.45.55h-2.29V98.11h1.45V97Z"/><path class="cls-1" d="M129,95.77h1.64V97h-.79v.7l3.07.31.31.48v2.14l-.45.54H131V99.94h.92v-.82l-3-.28-.41-.51v-2Zm.85,4.17h.79v1.19H129l-.44-.54V99.4h1.29ZM131,97V95.77h1.77l.45.53v1.17H131.9V97Z"/><path class="cls-1" d="M136.06,99.94v1.19H134.3l-.44-.56v-4.8h1.29v4.17Zm2.27,1.19h-1.89V99.94h1V95.77h1.29v4.81Z"/><path class="cls-1" d="M143.36,100.06l-.18.44h-1L140.81,97h-1.29V95.77h2.17ZM140.81,98v3.14h-1.29v-3.8h1Zm2.07-.1.84-2.12h2.16v5.36h-1.29V97l-1.05,2.63Z"/><path class="cls-1" d="M149.78,95.77v5.36h-1.29V95.77Zm.37,1.19V95.77h2.36l.45.53v4.28l-.45.55h-2.36V99.94h1.52V97Z"/><path class="cls-1" d="M154.15,95.77h1.65V97H155v3h.8v1.19h-1.65l-.45-.56V96.31Zm2,1.19V95.77h1.66l.44.53v4.28l-.44.55h-1.66V99.94h.92V97Z"/><path class="cls-1" d="M159,101.13V95.77h1.29v5.36Zm1.66,0V99.94h2.5v1.19Z"/><path class="cls-1" d="M164.15,95.77h1.65V97H165v3h.8v1.19h-1.65l-.45-.56V96.31Zm2,1.19V95.77h1.66l.44.53v4.28l-.44.55h-1.66V99.94h.92V97Z"/><path class="cls-1" d="M169,101.13V95.77h1.29v5.36ZM170.68,97V95.77H173l.45.53v2.16l-.37.46.5,2.21h-1.29l-.44-1.83h-1.14V98.11h1.45V97Z"/><path class="cls-1" d="M176.39,95.77H178V97h-.8v.7l3.08.31.3.48v2.14l-.44.54h-1.77V99.94h.92v-.82l-3-.28-.42-.51v-2Zm.85,4.17h.8v1.19h-1.65l-.44-.54V99.4h1.29Zm1.17-3V95.77h1.77l.44.53v1.17h-1.29V97Z"/><path class="cls-1" d="M181.29,101.13V95.77h1.29v5.36Z"/><path class="cls-1" d="M183.1,95.77H188V97H183.1Zm1.79,5.36v-3.8h1.29v3.8Z"/><path class="cls-1" d="M191.19,101.13H190l1.33-3.8h.92l.17.43Zm1.38-2.62h.48L192.49,97h-1.07l.41-1.19h1.48l1.88,5.36H194l-.5-1.43h-1.32Z"/><path class="cls-1" d="M199.4,100.06l-.18.44h-.95L196.86,97h-1.3V95.77h2.17ZM196.86,98v3.14h-1.3v-3.8h1Zm2.07-.1.83-2.12h2.17v5.36h-1.3V97l-1,2.63Z"/><path class="cls-1" d="M202.67,101.13V95.77H204v5.36ZM204.34,97V95.77h2.49V97Zm0,2.05V97.82h1.9V99Zm0,2.12V99.94h2.49v1.19Z"/><path class="cls-1" d="M207.16,95.77H212V97h-4.84Zm1.78,5.36v-3.8h1.3v3.8Z"/><path class="cls-1" d="M212.38,102h0v-.86h-.6V99.94H213v1.19Z"/><path class="cls-1" d="M215.86,95.77h1.65V97h-.8v3h.8v1.19h-1.65l-.44-.56V96.31Zm2,1.19V95.77h1.66l.44.53v1.45H218.8V97Zm0,4.17V99.94h.92v-.79H220v1.43l-.44.55Z"/><path class="cls-1" d="M221.06,95.77h1.65V97h-.8v3h.8v1.19h-1.65l-.44-.56V96.31Zm2,1.19V95.77h1.66l.44.53v4.28l-.44.55h-1.66V99.94H224V97Z"/><path class="cls-1" d="M229.4,101.15,227.22,97h-1.29V95.77H228l2.13,4.17h1.29v1.21ZM227.22,98v3.16h-1.29v-3.8h.95Zm2.93,1V95.77h1.29v3.8h-1Z"/><path class="cls-1" d="M232.56,95.77h1.64V97h-.8v.7l3.08.31.3.48v2.14l-.44.54h-1.76V99.94h.91v-.82l-3-.28-.42-.51v-2Zm.84,4.17h.8v1.19h-1.64l-.45-.54V99.4h1.29Zm1.17-3V95.77h1.77l.44.53v1.17h-1.29V97Z"/><path class="cls-1" d="M237.45,101.13V95.77h1.3v5.36ZM239.12,97V95.77h2.48V97Zm0,2.05V97.82H241V99Zm0,2.12V99.94h2.48v1.19Z"/><path class="cls-1" d="M242.61,95.77h1.65V97h-.81v3h.81v1.19h-1.65l-.45-.56V96.31Zm2,1.19V95.77h1.65l.45.53v1.45h-1.18V97Zm0,4.17V99.94h.92v-.79h1.18v1.43l-.45.55Z"/><path class="cls-1" d="M247.14,95.77H252V97h-4.84Zm1.78,5.36v-3.8h1.3v3.8Z"/><path class="cls-1" d="M252.51,101.13V95.77h1.29v5.36ZM254.17,97V95.77h2.49V97Zm0,2.05V97.82h1.9V99Zm0,2.12V99.94h2.49v1.19Z"/><path class="cls-1" d="M257,95.77h4.85V97H257Zm1.79,5.36v-3.8h1.29v3.8Z"/><path class="cls-1" d="M264.56,99.94v1.19H262.8l-.44-.56v-4.8h1.29v4.17Zm2.27,1.19h-1.9V99.94H266V95.77h1.29v4.81Z"/><path class="cls-1" d="M268,101.13V95.77h1.29v5.36ZM269.68,97V95.77H272l.44.53v2.16l-.37.46.5,2.21h-1.29l-.43-1.83h-1.15V98.11h1.45V97Z"/><path class="cls-1" d="M93.51,110.05H92.28l1.33-3.81h.92l.17.43Zm1.39-2.62h.48l-.56-1.56H93.75l.41-1.19h1.48l1.88,5.37H96.3l-.5-1.43H94.48Z"/><path class="cls-1" d="M99.18,104.68v5.37H97.89v-5.37Zm.37,1.19v-1.19h2.37l.44.54v4.28l-.44.55H99.55v-1.19h1.52v-3Z"/><path class="cls-1" d="M103.11,110.05v-5.37h1.29v5.37Z"/><path class="cls-1" d="M105.14,110.05v-5.37h1.29v5.37Zm1.67-4.18v-1.19h2.29l.44.54v2.45l-.44.55h-2.29V107h1.44v-1.16Z"/><path class="cls-1" d="M110.22,110.05v-5.37h1.29v5.37Z"/><path class="cls-1" d="M112.62,104.68h1.64v1.19h-.79v.71l3.07.3.31.48v2.14l-.45.55h-1.76v-1.19h.92V108l-3-.28-.41-.51v-2Zm.85,4.18h.79v1.19h-1.64l-.44-.54v-1.2h1.29Zm1.16-3v-1.19h1.77l.45.54v1.16h-1.29v-.51Z"/><path class="cls-1" d="M118,104.68h1.65v1.19h-.8v3h.8v1.19H118l-.44-.56v-4.26Zm2,1.19v-1.19h1.66l.45.54v1.45H120.9v-.8Zm0,4.18v-1.19h.92v-.79h1.19v1.43l-.45.55Z"/><path class="cls-1" d="M122.72,110.05v-5.37H124v5.37Z"/><path class="cls-1" d="M128.23,110.07l-2.18-4.2h-1.29v-1.19h2.09l2.12,4.18h1.29v1.21Zm-2.18-3.18v3.16h-1.29v-3.81h.95Zm2.92,1v-3.2h1.29v3.81h-1Z"/><path class="cls-1" d="M132.3,108.86h.86v1.19h-1.7l-.45-.56v-4.26l.45-.55h1.7v1.19h-.86Zm3.4.64-.45.55h-1.72v-1.19h.95V108h-1v-1.18h2.26Zm-2.17-3.63v-1.19h1.72l.45.54v1.14h-1.19v-.49Z"/><path class="cls-1" d="M138.23,110.05v-5.37h1.29v5.37Zm1.66-4.18v-1.19h2.49v1.19Zm0,2v-1.19h1.9v1.19Zm0,2.13v-1.19h2.49v1.19Z"/><path class="cls-1" d="M142.94,110.05v-5.37h1.29v5.37Zm1.66,0v-1.19h2.5v1.19Z"/><path class="cls-1" d="M147.62,110.05v-5.37h1.3v5.37Z"/><path class="cls-1" d="M149.44,104.68h4.84v1.19h-4.84Zm1.78,5.37v-3.81h1.29v3.81Z"/><path class="cls-1" d="M154.66,110.91h0v-.86H154v-1.19h1.29v1.19Z"/><path class="cls-1" d="M158.06,104.68h1.64v1.19h-.79v.71l3.07.3.31.48v2.14l-.45.55h-1.76v-1.19H161V108l-3-.28-.41-.51v-2Zm.85,4.18h.79v1.19h-1.64l-.44-.54v-1.2h1.29Zm1.16-3v-1.19h1.77l.45.54v1.16H161v-.51Z"/><path class="cls-1" d="M163,110.05v-5.37h1.29v5.37Zm1.66-4.18v-1.19h2.49v1.19Zm0,2v-1.19h1.9v1.19Zm0,2.13v-1.19h2.49v1.19Z"/><path class="cls-1" d="M169,104.68v5.37h-1.29v-5.37Zm.37,1.19v-1.19h2.36l.45.54v4.28l-.45.55h-2.36v-1.19h1.52v-3Z"/><path class="cls-1" d="M176,104.68v5.37h-1.29v-5.37Zm.38,1.19v-1.19h2.36l.44.54v4.28l-.44.55h-2.36v-1.19h1.51v-3Z"/><path class="cls-1" d="M180.4,104.68h1.65v1.19h-.8v3h.8v1.19H180.4l-.44-.56v-4.26Zm2,1.19v-1.19h1.66l.44.54v4.28l-.44.55h-1.66v-1.19h.92v-3Z"/><path class="cls-1" d="M187.13,110.05v-5.37h1.29v5.37Zm1.66-4.18v-1.19h2.49v1.19Zm0,2v-1.19h1.9v1.19Zm0,2.13v-1.19h2.49v1.19Z"/><path class="cls-1" d="M191.84,110.05v-5.37h1.29v5.37Z"/><path class="cls-1" d="M196.08,108.86v1.19h-1.76l-.45-.56v-4.81h1.3v4.18Zm2.26,1.19h-1.89v-1.19h1.05v-4.18h1.29v4.82Z"/><path class="cls-1" d="M199.91,104.68h1.64v1.19h-.8v.71l3.08.3.3.48v2.14l-.44.55h-1.77v-1.19h.92V108l-3-.28-.42-.51v-2Zm.84,4.18h.8v1.19h-1.64l-.45-.54v-1.2h1.29Zm1.17-3v-1.19h1.77l.44.54v1.16h-1.29v-.51Z"/><path class="cls-1" d="M208.64,109l-.18.43h-1l-1.41-3.54H204.8v-1.19H207Zm-2.55-2.08v3.15H204.8v-3.81h1Zm2.08-.09.83-2.13h2.17v5.37h-1.3v-4.18l-1,2.64Z"/><path class="cls-1" d="M212.36,104.68H214v1.19h-.8v3h.8v1.19h-1.65l-.45-.56v-4.26Zm2,1.19v-1.19H216l.45.54v4.28l-.45.55h-1.65v-1.19h.92v-3Z"/><path class="cls-1" d="M218.52,104.68v5.37h-1.3v-5.37Zm.37,1.19v-1.19h2.36l.45.54v4.28l-.45.55h-2.36v-1.19h1.51v-3Z"/><path class="cls-1" d="M224.08,104.68h4.84v1.19h-4.84Zm1.78,5.37v-3.81h1.29v3.81Z"/><path class="cls-1" d="M229.44,110.05v-5.37h1.29v5.37Zm1.66-4.18v-1.19h2.49v1.19Zm0,2v-1.19H233v1.19Zm0,2.13v-1.19h2.49v1.19Z"/><path class="cls-1" d="M238,109l-.18.43h-1l-1.41-3.54h-1.29v-1.19h2.17Zm-2.55-2.08v3.15h-1.29v-3.81h1Zm2.07-.09.83-2.13h2.17v5.37h-1.29v-4.18l-1.05,2.64Z"/><path class="cls-1" d="M241.26,110.05v-5.37h1.29v5.37Zm1.66-4.18v-1.19h2.3l.44.54v2.45l-.44.55h-2.3V107h1.45v-1.16Z"/><path class="cls-1" d="M246.78,104.68h1.65v1.19h-.8v3h.8v1.19h-1.65l-.45-.56v-4.26Zm2,1.19v-1.19h1.66l.44.54v4.28l-.44.55H248.8v-1.19h.92v-3Z"/><path class="cls-1" d="M251.65,110.05v-5.37h1.29v5.37Zm1.66-4.18v-1.19h2.29l.45.54v2.15l-.37.46.5,2.22h-1.29l-.44-1.83h-1.14V107h1.45v-1.16Z"/><path class="cls-1" d="M258.65,110.05v-5.37H260v5.37Z"/><path class="cls-1" d="M264.16,110.07l-2.18-4.2h-1.29v-1.19h2.09l2.13,4.18h1.29v1.21ZM262,106.89v3.16h-1.29v-3.81h.95Zm2.93,1v-3.2h1.29v3.81h-1Z"/><path class="cls-1" d="M267.39,104.68H269v1.19h-.8v3h.8v1.19h-1.65l-.45-.56v-4.26Zm2,1.19v-1.19h1.66l.44.54v1.45h-1.18v-.8Zm0,4.18v-1.19h.92v-.79h1.18v1.43l-.44.55Z"/><path class="cls-1" d="M272.15,110.05v-5.37h1.29v5.37Z"/><path class="cls-1" d="M275.47,104.68v5.37h-1.29v-5.37Zm.37,1.19v-1.19h2.37l.44.54v4.28l-.44.55h-2.37v-1.19h1.52v-3Z"/><path class="cls-1" d="M279.4,110.05v-5.37h1.29v5.37Z"/><path class="cls-1" d="M282.72,104.68v5.37h-1.29v-5.37Zm.38,1.19v-1.19h2.36l.44.54v4.28l-.44.55H283.1v-1.19h1.51v-3Z"/><path class="cls-1" d="M288.85,108.86v1.19h-1.76l-.44-.56v-4.81h1.29v4.18Zm2.27,1.19h-1.9v-1.19h1v-4.18h1.29v4.82Z"/><path class="cls-1" d="M295.78,110.07l-2.18-4.2h-1.29v-1.19h2.09l2.13,4.18h1.29v1.21Zm-2.18-3.18v3.16h-1.29v-3.81h.95Zm2.93,1v-3.2h1.29v3.81h-1Z"/><path class="cls-1" d="M298.34,104.68h4.84v1.19h-4.84Zm1.78,5.37v-3.81h1.3v3.81Z"/><polygon class="cls-1" points="315.18 84.06 353.69 84.06 353.69 86.12 317.24 86.12 317.24 117.72 316.88 118.03 286.68 143.5 223.44 143.5 223.44 141.44 285.92 141.44 315.18 116.77 315.18 84.06"/><rect class="cls-1" x="227.48" y="163.62" width="36.47" height="4.37" transform="translate(491.43 331.6) rotate(180)"/><rect class="cls-1" x="205.21" y="141.51" width="36.47" height="4.37" transform="translate(446.89 287.39) rotate(180)"/><polygon class="cls-1" points="290.45 130.82 291.37 131.85 283.72 138.68 272.11 138.68 272.11 137.3 283.2 137.3 290.45 130.82"/><polygon class="cls-1" points="311.75 105.54 313.13 105.63 312.44 115.86 304.15 123.99 303.18 123.01 311.1 115.25 311.75 105.54"/><polygon class="cls-1" points="315.67 124.13 316.13 124.64 288.85 148.7 205.21 148.7 205.21 148.01 288.59 148.01 315.67 124.13"/><path class="cls-1" d="M317.3,124.39a1.41,1.41,0,1,1-1.4-1.41A1.4,1.4,0,0,1,317.3,124.39Z"/><polygon class="cls-1" points="318.85 87.75 345.4 87.75 345.4 88.44 319.54 88.44 319.54 114.47 318.85 114.47 318.85 87.75"/><rect class="cls-1" x="317.68" y="82.02" width="36.01" height="0.69" transform="translate(671.38 164.72) rotate(180)"/><polygon class="cls-1" points="200.76 137.65 259.13 137.65 259.13 138.33 201.45 138.33 201.45 148.35 200.76 148.35 200.76 137.65"/><polygon class="cls-1" points="224.46 159.21 282.82 159.21 282.82 159.9 225.14 159.9 225.14 169.92 224.46 169.92 224.46 159.21"/><polygon class="cls-1" points="69.35 84.06 30.84 84.06 30.84 86.12 67.28 86.12 67.28 117.72 67.65 118.03 97.85 143.5 161.08 143.5 161.08 141.44 98.61 141.44 69.35 116.77 69.35 84.06"/><rect class="cls-1" x="120.58" y="163.62" width="36.47" height="4.37"/><rect class="cls-1" x="142.85" y="141.51" width="36.47" height="4.37"/><polygon class="cls-1" points="94.08 130.82 93.16 131.85 100.81 138.68 112.42 138.68 112.42 137.3 101.33 137.3 94.08 130.82"/><polygon class="cls-1" points="72.78 105.54 71.4 105.63 72.09 115.86 80.38 123.99 81.35 123.01 73.42 115.25 72.78 105.54"/><polygon class="cls-1" points="68.86 124.13 68.4 124.64 95.68 148.7 179.32 148.7 179.32 148.01 95.94 148.01 68.86 124.13"/><path class="cls-1" d="M67.23,124.39a1.41,1.41,0,1,0,1.4-1.41A1.4,1.4,0,0,0,67.23,124.39Z"/><polygon class="cls-1" points="65.67 87.75 39.13 87.75 39.13 88.44 64.99 88.44 64.99 114.47 65.67 114.47 65.67 87.75"/><rect class="cls-1" x="30.84" y="82.02" width="36.01" height="0.69"/><polygon class="cls-1" points="183.77 137.65 125.4 137.65 125.4 138.33 183.08 138.33 183.08 148.35 183.77 148.35 183.77 137.65"/><polygon class="cls-1" points="160.07 159.21 101.7 159.21 101.7 159.9 159.39 159.9 159.39 169.92 160.07 169.92 160.07 159.21"/><polyline class="cls-1" points="64.98 60.21 65.3 59.94 91.45 37.89 146.2 37.89 146.2 39.68 92.11 39.68 66.77 61.03"/><rect class="cls-1" x="130.41" y="35.98" width="31.57" height="3.78"/><polygon class="cls-1" points="69.37 71.09 68.18 71.01 68.78 62.16 75.96 55.12 76.79 55.97 69.94 62.69 69.37 71.09"/><polygon class="cls-1" points="87.58 48.38 86.79 47.49 93.41 41.58 103.47 41.58 103.47 42.77 93.86 42.77 87.58 48.38"/><polygon class="cls-1" points="66.35 55.05 65.95 54.6 89.57 33.77 161.99 33.77 161.99 34.37 89.79 34.37 66.35 55.05"/><path class="cls-1" d="M64.93,54.82A1.22,1.22,0,1,1,66.15,56,1.22,1.22,0,0,1,64.93,54.82Z"/><polygon class="cls-1" points="164.61 43.57 114.07 43.57 114.07 42.98 164.01 42.98 164.01 34.3 164.61 34.3 164.61 43.57"/><polyline class="cls-1" points="319.97 60.21 319.66 59.94 293.51 37.89 238.76 37.89 238.76 39.68 292.85 39.68 318.19 61.03"/><rect class="cls-1" x="222.97" y="35.98" width="31.57" height="3.78" transform="translate(477.52 75.74) rotate(180)"/><polygon class="cls-1" points="315.58 71.09 316.77 71.01 316.18 62.16 309 55.12 308.16 55.97 315.02 62.69 315.58 71.09"/><polygon class="cls-1" points="297.38 48.38 298.17 47.49 291.55 41.58 281.49 41.58 281.49 42.77 291.09 42.77 297.38 48.38"/><polygon class="cls-1" points="318.61 55.05 319 54.6 295.39 33.77 222.97 33.77 222.97 34.37 295.16 34.37 318.61 55.05"/><path class="cls-1" d="M320,54.82A1.22,1.22,0,1,0,318.81,56,1.21,1.21,0,0,0,320,54.82Z"/><line class="cls-1" x1="322.78" y1="79" x2="322.19" y2="79"/><polygon class="cls-1" points="220.35 43.57 270.89 43.57 270.89 42.98 220.94 42.98 220.94 34.3 220.35 34.3 220.35 43.57"/><polygon class="cls-1" points="323.82 93.69 357.77 93.69 366.99 84.47 384.9 84.47 384.9 94.97 370.81 109.06 340.3 109.06 307.19 142.16 307.19 137.65 326.76 118.08 324.13 115.45 323.82 93.69"/><polygon class="cls-1" points="201.8 163.62 215.42 163.62 219.62 167.82 219.62 174.09 254.54 174.09 258.54 178.09 254.33 182.31 215.42 182.31 206.65 173.54 201.93 173.54 201.8 163.62"/><polygon class="cls-1" points="61.08 93.69 27.13 93.69 17.91 84.47 0 84.47 0 94.97 14.09 109.06 44.6 109.06 77.7 142.16 77.7 137.65 58.14 118.08 60.77 115.45 61.08 93.69"/><polygon class="cls-1" points="183.1 163.62 169.48 163.62 165.28 167.82 165.28 174.09 130.35 174.09 126.36 178.09 130.57 182.31 169.48 182.31 178.25 173.54 182.97 173.54 183.1 163.62"/><polygon class="cls-1" points="93.16 30.05 152.96 30.05 157.48 25.53 163.18 25.53 163.18 17.84 158.27 17.84 154.36 13.92 117.52 13.92 111.5 19.95 100.94 19.95 93.16 30.05"/><polygon class="cls-1" points="289.59 30.05 229.79 30.05 225.27 25.53 219.57 25.53 219.57 17.84 224.48 17.84 228.4 13.92 265.23 13.92 271.26 19.95 281.81 19.95 289.59 30.05"/><polygon class="cls-1" points="195.76 43.57 194.62 43.57 194.62 19.54 214.16 0 378.5 0 403.76 25.26 466.62 25.26 466.62 26.39 403.29 26.39 378.03 1.14 214.63 1.14 195.76 20.01 195.76 43.57"/><rect class="cls-1" x="481.96" y="20.72" width="7.39" height="7.39"/><path class="cls-1" d="M493.61,32.37H477.7V16.46h15.91Zm-14.78-1.13h13.64V17.6H478.83Z"/><rect class="cls-1" x="455.54" y="95.06" width="7.39" height="7.39"/><path class="cls-1" d="M467.19,106.71H451.28V90.8h15.91Zm-14.78-1.13h13.64V91.94H452.41Z"/><polygon class="cls-1" points="313.36 191.63 215.06 191.63 208.09 184.66 197.75 184.66 191.91 178.83 191.91 137.65 193.05 137.65 193.05 178.36 198.22 183.53 208.56 183.53 215.53 190.5 312.89 190.5 366.68 136.71 420.36 136.71 448.71 108.36 449.51 109.16 420.83 137.84 367.15 137.84 313.36 191.63"/></g></g></svg>