<svg xmlns="http://www.w3.org/2000/svg" viewBox="0 0 493.61 135.64"><defs><style>.cls-1{fill:#11e5b3;}.cls-2{opacity:0.15;}.cls-3{opacity:0.22;}</style></defs><title>title_07_green</title><g id="Layer_2" data-name="Layer 2"><g id="Layer_1-2" data-name="Layer 1"><polygon class="cls-1" points="165.44 0 162.87 0 162.87 10.64 164.89 10.64 165.44 10.64 171.14 10.64 171.14 8.29 165.44 8.29 165.44 0"/><path class="cls-1" d="M177.81,0h-4.75l-.89,1.08V9.54l.89,1.1h7.3l.88-1.09V1.06L180.36,0Zm1.09,8.29h-4.16V2.36h4.16Z"/><path class="cls-1" d="M191.46,5.34V1.06L190.57,0h-7.85V10.64h2.56V7h3l.87,3.62h2.55l-1-4.39Zm-2.57-.68h-3.61V2.36h3.61Z"/><polygon class="cls-1" points="196.23 0 192.93 0 192.93 10.64 196.23 10.64 196.63 10.64 201.17 10.64 201.17 8.29 196.63 8.29 196.63 6.43 200.01 6.43 200.01 4.07 196.63 4.07 196.63 2.36 201.17 2.36 201.17 0 196.63 0 196.23 0"/><polygon class="cls-1" points="202.28 0 202.28 1.81 202.28 2.36 202.28 10.64 204.84 10.64 204.84 2.36 207.64 9.39 209.55 9.39 209.9 8.52 206.58 0 202.28 0"/><polygon class="cls-1" points="208.96 4.22 210.27 7.59 212.35 2.36 212.35 10.64 214.91 10.64 214.91 0 210.61 0 208.96 4.22"/><rect class="cls-1" x="220.07" width="2.57" height="10.64"/><path class="cls-1" d="M226.68,0h-2.57V10.64h2.57V7H232l.88-1.09V1.06L232,0Zm3.61,4.66h-3.61V2.36h3.61Z"/><polygon class="cls-1" points="239.11 0 238.91 0 234.92 0 234.03 1.08 234.03 5.09 234.86 6.1 240.74 6.66 240.74 8.29 239.43 8.29 238.93 8.29 236.6 8.29 236.6 7.21 234.03 7.21 234.03 9.58 234.92 10.64 238.93 10.64 239.43 10.64 242.42 10.64 243.31 9.57 243.31 5.32 242.7 4.36 236.6 3.76 236.6 2.36 238.91 2.36 239.11 2.36 240.74 2.36 240.74 3.38 243.31 3.38 243.31 1.06 242.42 0 239.11 0"/><polygon class="cls-1" points="251.83 8.29 250.26 8.29 249.75 8.29 247.2 8.29 247.2 0 244.63 0 244.63 9.54 245.52 10.64 249.75 10.64 250.26 10.64 253.51 10.64 254.39 9.55 254.39 0 251.83 0 251.83 8.29"/><polygon class="cls-1" points="264.19 0 262.54 4.22 263.86 7.59 265.94 2.36 265.94 10.64 268.5 10.64 268.5 0 264.19 0"/><polygon class="cls-1" points="255.87 0 255.87 1.86 255.87 2.36 255.87 10.64 258.43 10.64 258.43 2.36 261.23 9.39 263.13 9.39 263.49 8.52 260.17 0 255.87 0"/><path class="cls-1" d="M162.87,101.42V86.29L145.67,75.73h9.9l7.3,4.49V35.41H14.15V87.32l0-4.54,21.2,13-9.9,0-11.32-7v12.58ZM14.2,77.12v-1.6l7.29,0,33,20.3h-9.9ZM92.84,95.9h-9.9l-33-20.31h9.9ZM69.05,75.61l9.9,0,33,20.3-9.9,0Zm4.63,20.26-9.9,0-33-20.3h9.9Zm47.56.07-33-20.3h9.9l33,20.31Zm19.16,0-33-20.31h9.9L150.3,96Zm22.44-4,0,4.06h-3.27l-33-20.3h9.9Zm-145-22.36V39.06h141.6V69.59Z"/><polygon class="cls-1" points="14.12 95.78 14.12 94.49 16.22 95.78 14.12 95.78"/><polygon class="cls-1" points="14.15 87.32 14.15 88.84 14.14 88.83 14.15 87.32"/><path class="cls-1" d="M50.29,45.63,46.92,62.91l-9.25,0a78.37,78.37,0,0,1-2.2-9.06Q35,56,33.37,62.89l-9.2,0L20.93,45.59h7.2l.75,6,.73,5.83a99,99,0,0,1,2.1-11.86H39.4q.15.77.78,5.71L41,57.89a93.57,93.57,0,0,1,2.12-12.27Z"/><path class="cls-1" d="M64.19,45.65l4.16,17.29H60.79l-.39-3.11H57.75l-.45,3.1H49.64l3.85-17.27Zm-4,11.11c-.36-2-.73-4.38-1.09-7.26Q58,54.45,57.67,56.75Z"/><path class="cls-1" d="M69.69,45.66h5.24a66.11,66.11,0,0,1,7.09.25,5.69,5.69,0,0,1,3,1.26A4,4,0,0,1,86.2,50.4a3.48,3.48,0,0,1-.84,2.71,5.92,5.92,0,0,1-3.26.83,7.21,7.21,0,0,1,3,.89,2.66,2.66,0,0,1,.94,1,9.83,9.83,0,0,1,.17,2.56l0,4.56H79.27l0-5.75c0-.92-.11-1.5-.35-1.72a3.29,3.29,0,0,0-1.89-.33L77,63h-7.4Zm7.39,3,0,3.84a5,5,0,0,0,1.75-.21c.34-.13.5-.58.51-1.35V50a1.08,1.08,0,0,0-.48-1.07A4,4,0,0,0,77.08,48.63Z"/><path class="cls-1" d="M105.62,45.71,105.54,63H99.05l-3.82-7.86,0,7.86H89l.07-17.28h6.19l4.12,7.79,0-7.79Z"/><path class="cls-1" d="M116,45.73,115.92,63h-7.41l.08-17.28Z"/><path class="cls-1" d="M135.5,45.76,135.42,63h-6.49l-3.82-7.86,0,7.85h-6.19L119,45.73h6.2l4.11,7.79,0-7.78Z"/><path class="cls-1" d="M155.43,52.15H148V50.57a4.74,4.74,0,0,0-.2-1.86c-.14-.25-.47-.37-1-.37a1.12,1.12,0,0,0-.93.31,3.22,3.22,0,0,0-.26,1.65l0,8.29a2.93,2.93,0,0,0,.24,1.53,1.09,1.09,0,0,0,1,.37,1.24,1.24,0,0,0,1.1-.41,3.23,3.23,0,0,0,.3-1.62V56.41h-1.5V53.78h8.67l0,9.28h-4.65l-.68-1.24a4.66,4.66,0,0,1-1.92,1.2,8.15,8.15,0,0,1-2.71.4,11.07,11.07,0,0,1-3.5-.56,6.59,6.59,0,0,1-2.46-1.36,3.43,3.43,0,0,1-1.05-1.71,12,12,0,0,1-.2-2.67l0-5.14a10.56,10.56,0,0,1,.46-3.59,4.47,4.47,0,0,1,2.53-2,13.34,13.34,0,0,1,5.39-.93,15.42,15.42,0,0,1,5.4.82,5.25,5.25,0,0,1,2.79,1.93,6.51,6.51,0,0,1,.63,3.24Z"/><polygon class="cls-1" points="343.28 108.32 15.21 108.32 15.21 107.28 342.85 107.28 404.2 14.49 486.03 14.49 486.03 15.53 404.64 15.53 343.28 108.32"/><path class="cls-1" d="M404.33,13.83h0a1.77,1.77,0,0,0-1.77,1.77h0a1.77,1.77,0,0,0,1.77,1.77h0a1.77,1.77,0,0,0,1.77-1.77h0A1.77,1.77,0,0,0,404.33,13.83Z"/><path class="cls-1" d="M406.69,20H402A2.07,2.07,0,0,1,399.91,18V13.24A2.07,2.07,0,0,1,402,11.17h4.72a2.07,2.07,0,0,1,2.06,2.07V18A2.07,2.07,0,0,1,406.69,20ZM402,11.76a1.48,1.48,0,0,0-1.47,1.48V18A1.47,1.47,0,0,0,402,19.43h4.72A1.47,1.47,0,0,0,408.16,18V13.24a1.48,1.48,0,0,0-1.47-1.48Z"/><path class="cls-1" d="M486,12.56h0a3,3,0,0,0-3,3h0a3,3,0,0,0,3,3h0a3,3,0,0,0,3-3h0A3,3,0,0,0,486,12.56Z"/><path class="cls-1" d="M490.07,23.18H482a3.54,3.54,0,0,1-3.53-3.54V11.55A3.53,3.53,0,0,1,482,8h8.09a3.54,3.54,0,0,1,3.54,3.53v8.09A3.55,3.55,0,0,1,490.07,23.18ZM482,9a2.52,2.52,0,0,0-2.52,2.52v8.09A2.53,2.53,0,0,0,482,22.17h8.09a2.54,2.54,0,0,0,2.53-2.53V11.55A2.53,2.53,0,0,0,490.07,9Z"/><g class="cls-2"><polygon class="cls-1" points="152.31 27.27 163.12 16.47 270.12 16.47 285.8 32.15 307.9 32.15 348.58 72.83 335.32 94.86 269 94.86 260.97 86.83 173.54 86.83 173.54 27.11 152.31 27.27"/></g><polygon class="cls-1" points="152.65 27.61 151.98 26.93 162.88 16.03 269.44 16.03 269.44 16.99 163.27 16.99 152.65 27.61"/><polygon class="cls-1" points="335.36 95.18 268.96 95.18 261.09 87.31 244.09 87.31 244.09 86.35 261.49 86.35 269.36 94.22 335.36 94.22 335.36 95.18"/><rect class="cls-1" x="263.35" y="90.12" width="0.96" height="15.47" transform="translate(8.08 215.22) rotate(-45)"/><rect class="cls-1" x="249.08" y="90.12" width="0.96" height="15.47" transform="translate(3.9 205.13) rotate(-45)"/><rect class="cls-1" x="234.81" y="90.12" width="0.96" height="15.47" transform="translate(-0.28 195.03) rotate(-45)"/><rect class="cls-1" x="220.54" y="90.12" width="0.96" height="15.47" transform="translate(-4.46 184.95) rotate(-45)"/><rect class="cls-1" x="206.27" y="90.12" width="0.96" height="15.47" transform="translate(-8.64 174.86) rotate(-45)"/><rect class="cls-1" x="192" y="90.12" width="0.96" height="15.47" transform="translate(-12.82 164.76) rotate(-45)"/><rect class="cls-1" x="177.73" y="90.12" width="0.96" height="15.47" transform="translate(-17 154.67) rotate(-45)"/><polygon class="cls-1" points="20.93 112.67 23.3 115.04 213.89 115.04 216.89 118.04 294.07 118.04 300.82 111.29 20.93 111.29 20.93 112.67"/><polygon class="cls-1" points="335.99 115.98 301.16 115.98 301.16 115.03 335.6 115.03 339.74 110.88 340.42 111.56 335.99 115.98"/><polygon class="cls-1" points="291.35 32.15 303.55 44.34 310.73 44.34 320.32 53.94 329.69 53.94 329.69 48.27 316.21 34.8 310.22 34.8 307.74 32.31 291.35 32.15"/><polygon class="cls-1" points="173.54 60.52 171.6 62.46 171.6 77.65 169.44 79.81 169.44 88.63 197.05 88.63 201.57 84.11 231.52 84.11 229.8 82.39 194.38 82.39 187.33 75.34 178.99 75.34 175.86 72.21 175.86 62.53 173.54 60.52"/><polygon class="cls-1" points="11.97 72.3 6.75 67.08 6.75 30.54 44.54 30.54 48.87 26.21 111.37 26.21 115.36 22.22 134.13 22.22 134.13 31.61 50.87 31.61 48.15 34.33 20.93 34.33 18.75 36.52 15.8 39.46 15.8 66.5 11.97 72.3"/><polygon class="cls-1" points="3.11 48.31 0 45.2 0 25.62 12.62 25.62 14.69 23.55 21.52 23.55 21.52 28.03 5.19 28.03 5.19 45.97 3.11 48.31"/><g class="cls-3"><polygon class="cls-1" points="24.91 117.36 35.66 128.11 212.11 128.11 217.71 133.71 260.66 133.71 266.33 128.04 266.33 121.2 214.79 121.2 211.09 117.5 24.91 117.36"/></g><polygon class="cls-1" points="185.97 128.11 212.56 128.11 217.76 133.31 239.42 133.31 237.09 135.64 214.61 135.64 209.35 130.38 188.82 130.38 185.97 128.11"/><polygon class="cls-1" points="310.11 126.07 269.64 126.07 269.64 125 309.67 125 315.28 119.39 316.04 120.14 310.11 126.07"/><polygon class="cls-1" points="397.76 108.86 348.58 108.86 348.58 107.79 396.78 107.79 404.59 24.06 405.65 24.16 397.76 108.86"/><path class="cls-1" d="M397.15,105.57h0a2.28,2.28,0,0,0-2.28,2.28h0a2.28,2.28,0,0,0,2.28,2.28h0a2.28,2.28,0,0,0,2.28-2.28h0A2.28,2.28,0,0,0,397.15,105.57Z"/><path class="cls-1" d="M400.19,113.55h-6.08a2.66,2.66,0,0,1-2.66-2.66v-6.08a2.66,2.66,0,0,1,2.66-2.66h6.08a2.67,2.67,0,0,1,2.67,2.66v6.08A2.67,2.67,0,0,1,400.19,113.55Zm-6.08-10.64a1.9,1.9,0,0,0-1.9,1.9v6.08a1.9,1.9,0,0,0,1.9,1.9h6.08a1.91,1.91,0,0,0,1.91-1.9v-6.08a1.91,1.91,0,0,0-1.91-1.9Z"/><path class="cls-1" d="M372.79,23.66h0a2.28,2.28,0,0,0-2.28,2.28h0a2.29,2.29,0,0,0,2.28,2.29h0a2.29,2.29,0,0,0,2.28-2.29h0A2.28,2.28,0,0,0,372.79,23.66Z"/><path class="cls-1" d="M375.83,31.65h-6.08A2.67,2.67,0,0,1,367.09,29V22.9a2.67,2.67,0,0,1,2.66-2.66h6.08a2.67,2.67,0,0,1,2.67,2.66V29A2.67,2.67,0,0,1,375.83,31.65ZM369.75,21a1.9,1.9,0,0,0-1.9,1.9V29a1.91,1.91,0,0,0,1.9,1.9h6.08a1.91,1.91,0,0,0,1.91-1.9V22.9a1.91,1.91,0,0,0-1.91-1.9Z"/><polygon class="cls-1" points="312.07 33.06 311.32 32.3 318.3 25.32 372.48 25.32 394.89 18.69 395.19 19.72 372.55 26.39 318.75 26.39 312.07 33.06"/></g></g></svg>