<svg xmlns="http://www.w3.org/2000/svg" viewBox="0 0 495.04 188.97"><defs><style>.cls-1{fill:#17cffc;}.cls-2{opacity:0.15;}</style></defs><title>title_09</title><g id="Layer_2" data-name="Layer 2"><g id="Layer_1-2" data-name="Layer 1"><polygon class="cls-1" points="309.61 51.66 305.92 51.66 305.92 66.97 308.82 66.97 309.61 66.97 317.82 66.97 317.82 63.58 309.61 63.58 309.61 51.66"/><path class="cls-1" d="M327.41,51.66h-6.84l-1.27,1.55V65.38L320.57,67h10.5l1.27-1.57V53.19l-1.27-1.53ZM329,63.58h-6V55.06h6Z"/><path class="cls-1" d="M347,59.34V53.19l-1.28-1.53h-11.3V67h3.69V61.76h4.33L343.73,67h3.67L346,60.65Zm-3.69-1h-5.2v-3.3h5.2Z"/><polygon class="cls-1" points="353.91 51.66 349.16 51.66 349.16 66.97 353.91 66.97 354.48 66.97 361.01 66.97 361.01 63.58 354.48 63.58 354.48 60.91 359.33 60.91 359.33 57.52 354.48 57.52 354.48 55.05 361.01 55.05 361.01 51.66 354.48 51.66 353.91 51.66"/><polygon class="cls-1" points="362.6 51.66 362.6 54.26 362.6 55.05 362.6 66.97 366.29 66.97 366.29 55.05 370.32 65.17 373.05 65.17 373.56 63.92 368.79 51.66 362.6 51.66"/><polygon class="cls-1" points="372.2 57.73 374.09 62.58 377.08 55.05 377.08 66.97 380.77 66.97 380.77 51.66 374.58 51.66 372.2 57.73"/><rect class="cls-1" x="388.19" y="51.66" width="3.69" height="15.31"/><path class="cls-1" d="M397.69,51.66H394V67h3.69V61.76h7.61l1.28-1.57v-7l-1.28-1.53Zm5.2,6.7h-5.2v-3.3h5.2Z"/><polygon class="cls-1" points="415.57 51.66 415.29 51.66 409.54 51.66 408.27 53.21 408.27 58.98 409.46 60.44 417.92 61.25 417.92 63.58 416.03 63.58 415.31 63.58 411.96 63.58 411.96 62.03 408.27 62.03 408.27 65.45 409.54 66.97 415.31 66.97 416.03 66.97 420.34 66.97 421.61 65.42 421.61 59.32 420.74 57.94 411.96 57.07 411.96 55.05 415.29 55.05 415.57 55.05 417.92 55.05 417.92 56.52 421.61 56.52 421.61 53.19 420.34 51.66 415.57 51.66"/><polygon class="cls-1" points="433.87 63.58 431.61 63.58 430.88 63.58 427.21 63.58 427.21 51.66 423.52 51.66 423.52 65.38 424.79 66.97 430.88 66.97 431.61 66.97 436.28 66.97 437.55 65.4 437.55 51.66 433.87 51.66 433.87 63.58"/><polygon class="cls-1" points="451.65 51.66 449.28 57.73 451.17 62.58 454.16 55.05 454.16 66.97 457.85 66.97 457.85 51.66 451.65 51.66"/><polygon class="cls-1" points="439.67 51.66 439.67 54.34 439.67 55.05 439.67 66.97 443.36 66.97 443.36 55.05 447.39 65.17 450.13 65.17 450.64 63.92 445.87 51.66 439.67 51.66"/><polygon class="cls-1" points="40.79 51.66 37.1 51.66 37.1 66.97 40 66.97 40.79 66.97 49 66.97 49 63.58 40.79 63.58 40.79 51.66"/><path class="cls-1" d="M58.58,51.66H51.75l-1.27,1.55V65.38L51.75,67h10.5l1.27-1.57V53.19l-1.27-1.53Zm1.57,11.92h-6V55.06h6Z"/><path class="cls-1" d="M78.22,59.34V53.19l-1.28-1.53H65.64V67h3.69V61.76h4.33L74.91,67h3.67l-1.42-6.32Zm-3.69-1h-5.2v-3.3h5.2Z"/><polygon class="cls-1" points="85.08 51.66 80.33 51.66 80.33 66.97 85.08 66.97 85.66 66.97 92.19 66.97 92.19 63.58 85.66 63.58 85.66 60.91 90.51 60.91 90.51 57.52 85.66 57.52 85.66 55.05 92.19 55.05 92.19 51.66 85.66 51.66 85.08 51.66"/><polygon class="cls-1" points="93.78 51.66 93.78 54.26 93.78 55.05 93.78 66.97 97.47 66.97 97.47 55.05 101.5 65.17 104.23 65.17 104.74 63.92 99.97 51.66 93.78 51.66"/><polygon class="cls-1" points="103.38 57.73 105.27 62.58 108.26 55.05 108.26 66.97 111.95 66.97 111.95 51.66 105.76 51.66 103.38 57.73"/><rect class="cls-1" x="119.37" y="51.66" width="3.69" height="15.31"/><path class="cls-1" d="M128.87,51.66h-3.69V67h3.69V61.76h7.61l1.27-1.57v-7l-1.27-1.53Zm5.19,6.7h-5.19v-3.3h5.19Z"/><polygon class="cls-1" points="146.75 51.66 146.47 51.66 140.72 51.66 139.45 53.21 139.45 58.98 140.64 60.44 149.1 61.25 149.1 63.58 147.21 63.58 146.49 63.58 143.14 63.58 143.14 62.03 139.45 62.03 139.45 65.45 140.72 66.97 146.49 66.97 147.21 66.97 151.51 66.97 152.79 65.42 152.79 59.32 151.92 57.94 143.14 57.07 143.14 55.05 146.47 55.05 146.75 55.05 149.1 55.05 149.1 56.52 152.79 56.52 152.79 53.19 151.51 51.66 146.75 51.66"/><polygon class="cls-1" points="165.04 63.58 162.78 63.58 162.05 63.58 158.38 63.58 158.38 51.66 154.69 51.66 154.69 65.38 155.97 66.97 162.05 66.97 162.78 66.97 167.46 66.97 168.73 65.4 168.73 51.66 165.04 51.66 165.04 63.58"/><polygon class="cls-1" points="182.83 51.66 180.46 57.73 182.34 62.58 185.34 55.05 185.34 66.97 189.03 66.97 189.03 51.66 182.83 51.66"/><polygon class="cls-1" points="170.85 51.66 170.85 54.34 170.85 55.05 170.85 66.97 174.54 66.97 174.54 55.05 178.57 65.17 181.31 65.17 181.81 63.92 177.04 51.66 170.85 51.66"/><path class="cls-1" d="M207.65,35.05l.17.3,8.88,15.39,11.06,19.14H268l11-19.14,9.05-15.69-.17-.29L268,.24H227.76ZM267.28,1.43l19.43,33.62-9.06,15.69L267.28,68.69H228.45L218.09,50.74,209,35.05,228.45,1.43Z"/><polygon class="cls-1" points="229.25 15.35 217.87 35.06 229.25 54.77 229.84 54.43 218.66 35.06 229.84 15.69 229.25 15.35"/><polygon class="cls-1" points="267.46 15.35 266.88 15.69 278.06 35.06 266.88 54.43 267.46 54.77 278.84 35.06 267.46 15.35"/><polygon class="cls-1" points="253.78 45.31 241.94 45.31 236.03 35.06 241.94 24.81 253.78 24.81 259.7 35.06 253.78 45.31"/><polygon class="cls-1" points="299.92 0 282.6 0 301.82 33.02 319.15 33.02 299.92 0"/><polygon class="cls-1" points="323.95 0 306.62 0 325.85 33.02 343.17 33.02 323.95 0"/><polygon class="cls-1" points="347.97 0 330.64 0 349.87 33.02 367.19 33.02 347.97 0"/><polygon class="cls-1" points="371.99 0 354.67 0 373.89 33.02 391.21 33.02 371.99 0"/><g class="cls-2"><polygon class="cls-1" points="396.01 0 378.69 0 397.91 33.02 415.24 33.02 396.01 0"/></g><g class="cls-2"><polygon class="cls-1" points="420.04 0 402.71 0 421.94 33.02 439.26 33.02 420.04 0"/></g><g class="cls-2"><polygon class="cls-1" points="444.06 0 426.73 0 445.96 33.02 463.28 33.02 444.06 0"/></g><g class="cls-2"><polygon class="cls-1" points="466.81 0 449.48 0 468.71 33.02 486.03 33.02 466.81 0"/></g><polygon class="cls-1" points="197.47 0 214.79 0 195.57 33.02 178.25 33.02 197.47 0"/><polygon class="cls-1" points="173.45 0 190.77 0 171.55 33.02 154.22 33.02 173.45 0"/><polygon class="cls-1" points="149.43 0 166.75 0 147.53 33.02 130.2 33.02 149.43 0"/><polygon class="cls-1" points="125.4 0 142.73 0 123.5 33.02 106.18 33.02 125.4 0"/><polygon class="cls-1" points="101.38 0 118.71 0 99.48 33.02 82.16 33.02 101.38 0"/><polygon class="cls-1" points="77.36 0 94.68 0 75.46 33.02 58.14 33.02 77.36 0"/><g class="cls-2"><polygon class="cls-1" points="53.34 0 70.66 0 51.44 33.02 34.11 33.02 53.34 0"/></g><g class="cls-2"><polygon class="cls-1" points="29.75 0 47.07 0 27.85 33.02 10.53 33.02 29.75 0"/></g><polygon class="cls-1" points="485.34 24.48 484.35 25.13 492.85 38.22 300.88 38.22 300.88 39.41 495.04 39.41 485.34 24.48"/><rect class="cls-1" x="300.87" y="38.82" width="40.45" height="3.66"/><polygon class="cls-1" points="9.69 24.48 0 39.41 196.52 39.41 196.52 38.22 2.19 38.22 10.69 25.13 9.69 24.48"/><rect class="cls-1" x="156.07" y="38.82" width="40.45" height="3.66" transform="translate(352.59 81.29) rotate(180)"/><polygon class="cls-1" points="291.1 39.17 291.94 39.65 271.07 75.95 271.07 87.22 283.1 99.25 397.16 99.25 397.31 99.39 459.2 161.28 458.51 161.97 396.76 100.22 282.7 100.22 270.1 87.62 270.1 75.69 291.1 39.17"/><rect class="cls-1" x="468.55" y="171.58" width="9.96" height="9.96" transform="translate(947.07 353.11) rotate(180)"/><path class="cls-1" d="M461.13,164.15H486V189H461.13Zm23.85,1H462.09V188H485Z"/><path class="cls-1" d="M399.72,102.49c-1-.18-90.57,0-90.57,0L307,104.65h-10.4s-.64-4.92,0-4.92H397Z"/><path class="cls-1" d="M272.9,89.73s.46-17.71,0-17.71-2.18,3.5-2.32,3.62-.1,11.8-.1,11.8Z"/><path class="cls-1" d="M411.16,113.93V109.8L397.77,96.41H366l-3.48,3.47s34.84-.46,35.3,0S411.16,113.93,411.16,113.93Z"/><polygon class="cls-1" points="206.04 39.17 227.04 75.69 227.04 87.62 214.44 100.22 100.38 100.22 38.63 161.97 37.94 161.28 99.98 99.25 214.04 99.25 226.07 87.22 226.07 75.95 205.2 39.65 206.04 39.17"/><rect class="cls-1" x="18.62" y="171.58" width="9.96" height="9.96"/><path class="cls-1" d="M11.19,164.15H36V189H11.19Zm23.86,1H12.16V188H35.05Z"/><path class="cls-1" d="M97.42,102.49c1-.18,90.57,0,90.57,0l2.16,2.16h10.4s.64-4.92,0-4.92H100.18Z"/><path class="cls-1" d="M224.24,89.73s-.46-17.71,0-17.71,2.17,3.5,2.32,3.62.1,11.8.1,11.8Z"/><path class="cls-1" d="M86,113.93V109.8L99.37,96.41h31.81l3.48,3.47s-34.84-.46-35.3,0S86,113.93,86,113.93Z"/></g></g></svg>