<svg xmlns="http://www.w3.org/2000/svg" xmlns:xlink="http://www.w3.org/1999/xlink" viewBox="0 0 493.42 187.21"><defs><style>.cls-1{fill:url(#New_Gradient_Swatch_1);}.cls-2{fill:url(#New_Gradient_Swatch_1-2);}.cls-3{fill:url(#New_Gradient_Swatch_1-3);}.cls-4{fill:url(#New_Gradient_Swatch_1-4);}.cls-5{fill:url(#New_Gradient_Swatch_1-5);}.cls-6{fill:url(#New_Gradient_Swatch_1-6);}.cls-7{fill:url(#New_Gradient_Swatch_1-7);}.cls-8{fill:url(#New_Gradient_Swatch_1-8);}.cls-9{fill:url(#New_Gradient_Swatch_1-9);}.cls-10{fill:url(#New_Gradient_Swatch_1-10);}.cls-11{fill:url(#New_Gradient_Swatch_1-11);}.cls-12{fill:url(#New_Gradient_Swatch_1-12);}.cls-13{fill:url(#New_Gradient_Swatch_1-13);}.cls-14{fill:url(#New_Gradient_Swatch_1-14);}.cls-15{fill:url(#New_Gradient_Swatch_1-15);}.cls-16{fill:url(#New_Gradient_Swatch_1-16);}.cls-17{fill:url(#New_Gradient_Swatch_1-17);}.cls-18{fill:url(#New_Gradient_Swatch_1-18);}.cls-19{fill:url(#New_Gradient_Swatch_1-19);}.cls-20{fill:url(#New_Gradient_Swatch_1-20);}.cls-21{fill:url(#New_Gradient_Swatch_1-21);}.cls-22{fill:url(#New_Gradient_Swatch_1-22);}.cls-23{fill:url(#New_Gradient_Swatch_1-23);}.cls-24{fill:url(#New_Gradient_Swatch_1-24);}.cls-25{fill:url(#New_Gradient_Swatch_1-25);}.cls-26{fill:url(#New_Gradient_Swatch_1-26);}.cls-27{fill:url(#New_Gradient_Swatch_1-27);}.cls-28{fill:url(#New_Gradient_Swatch_1-28);}.cls-29{fill:url(#New_Gradient_Swatch_1-29);}.cls-30{fill:url(#New_Gradient_Swatch_1-30);}.cls-31{fill:url(#New_Gradient_Swatch_1-31);}.cls-32{fill:url(#New_Gradient_Swatch_1-32);}.cls-33{fill:url(#New_Gradient_Swatch_1-33);}.cls-34{fill:url(#New_Gradient_Swatch_1-34);}.cls-35{fill:url(#New_Gradient_Swatch_1-35);}.cls-36{fill:url(#New_Gradient_Swatch_1-36);}.cls-37{fill:url(#New_Gradient_Swatch_1-37);}.cls-38{fill:url(#New_Gradient_Swatch_1-38);}.cls-39{fill:url(#New_Gradient_Swatch_1-39);}.cls-40{fill:url(#New_Gradient_Swatch_1-40);}.cls-41{fill:url(#New_Gradient_Swatch_1-41);}.cls-42{fill:url(#New_Gradient_Swatch_1-42);}.cls-43{fill:url(#New_Gradient_Swatch_1-43);}.cls-44{fill:url(#New_Gradient_Swatch_1-44);}.cls-45{fill:url(#New_Gradient_Swatch_1-45);}.cls-46{fill:url(#New_Gradient_Swatch_1-46);}.cls-47{fill:url(#New_Gradient_Swatch_1-47);}.cls-48{fill:url(#New_Gradient_Swatch_1-48);}.cls-49{fill:url(#New_Gradient_Swatch_1-49);}.cls-50{fill:url(#New_Gradient_Swatch_1-50);}.cls-51{fill:url(#New_Gradient_Swatch_1-51);}.cls-52{fill:url(#New_Gradient_Swatch_1-52);}.cls-53{fill:url(#New_Gradient_Swatch_1-53);}.cls-54{fill:url(#New_Gradient_Swatch_1-54);}.cls-55{fill:url(#New_Gradient_Swatch_1-55);}.cls-56{fill:url(#New_Gradient_Swatch_1-56);}.cls-57{fill:url(#New_Gradient_Swatch_1-57);}.cls-58{fill:url(#New_Gradient_Swatch_1-58);}.cls-59{fill:url(#New_Gradient_Swatch_1-59);}.cls-60{fill:url(#New_Gradient_Swatch_1-60);}.cls-61{fill:url(#New_Gradient_Swatch_1-61);}.cls-62{fill:url(#New_Gradient_Swatch_1-62);}.cls-63{fill:url(#New_Gradient_Swatch_1-63);}.cls-64{fill:url(#New_Gradient_Swatch_1-64);}.cls-65{fill:url(#New_Gradient_Swatch_1-65);}.cls-66{fill:url(#New_Gradient_Swatch_1-66);}.cls-67{fill:url(#New_Gradient_Swatch_1-67);}.cls-68{fill:url(#New_Gradient_Swatch_1-68);}.cls-69{fill:url(#New_Gradient_Swatch_1-69);}.cls-70{fill:url(#New_Gradient_Swatch_1-70);}.cls-71{fill:url(#New_Gradient_Swatch_1-71);}.cls-72{fill:url(#New_Gradient_Swatch_1-72);}.cls-73{fill:url(#New_Gradient_Swatch_1-73);}.cls-74{fill:url(#New_Gradient_Swatch_1-74);}.cls-75{fill:url(#New_Gradient_Swatch_1-75);}.cls-76{fill:url(#New_Gradient_Swatch_1-76);}.cls-77{fill:url(#New_Gradient_Swatch_1-77);}.cls-78{fill:url(#New_Gradient_Swatch_1-78);}.cls-79{fill:url(#New_Gradient_Swatch_1-79);}.cls-80{fill:url(#New_Gradient_Swatch_1-80);}.cls-81{fill:url(#New_Gradient_Swatch_1-81);}.cls-82{fill:url(#New_Gradient_Swatch_1-82);}.cls-83{fill:url(#New_Gradient_Swatch_1-83);}.cls-84{fill:url(#New_Gradient_Swatch_1-84);}.cls-85{fill:url(#New_Gradient_Swatch_1-85);}.cls-86{fill:url(#New_Gradient_Swatch_1-86);}.cls-87{fill:url(#New_Gradient_Swatch_1-87);}.cls-88{fill:url(#New_Gradient_Swatch_1-88);}.cls-89{fill:url(#New_Gradient_Swatch_1-89);}.cls-90{fill:url(#New_Gradient_Swatch_1-90);}.cls-91{fill:url(#New_Gradient_Swatch_1-91);}.cls-92{fill:url(#New_Gradient_Swatch_1-92);}.cls-93{fill:url(#New_Gradient_Swatch_1-93);}.cls-94{fill:url(#New_Gradient_Swatch_1-94);}.cls-95{fill:url(#New_Gradient_Swatch_1-95);}.cls-96{fill:url(#New_Gradient_Swatch_1-96);}.cls-97{fill:url(#New_Gradient_Swatch_1-97);}.cls-98{fill:url(#New_Gradient_Swatch_1-98);}.cls-99{fill:url(#New_Gradient_Swatch_1-99);}.cls-100{fill:url(#New_Gradient_Swatch_1-100);}.cls-101{fill:url(#New_Gradient_Swatch_1-101);}.cls-102{fill:url(#New_Gradient_Swatch_1-102);}.cls-103{fill:url(#New_Gradient_Swatch_1-103);}.cls-104{fill:url(#New_Gradient_Swatch_1-104);}.cls-105{fill:url(#New_Gradient_Swatch_1-105);}.cls-106{fill:url(#New_Gradient_Swatch_1-106);}.cls-107{fill:url(#New_Gradient_Swatch_1-107);}.cls-108{fill:url(#New_Gradient_Swatch_1-108);}.cls-109{fill:url(#New_Gradient_Swatch_1-109);}.cls-110{fill:url(#New_Gradient_Swatch_1-110);}.cls-111{fill:url(#New_Gradient_Swatch_1-111);}.cls-112{fill:url(#New_Gradient_Swatch_1-112);}.cls-113{fill:url(#New_Gradient_Swatch_1-113);}.cls-114{fill:url(#New_Gradient_Swatch_1-114);}.cls-115{fill:url(#New_Gradient_Swatch_1-115);}.cls-116{fill:url(#New_Gradient_Swatch_1-116);}.cls-117{fill:url(#New_Gradient_Swatch_1-117);}.cls-118{fill:url(#New_Gradient_Swatch_1-118);}.cls-119{fill:url(#New_Gradient_Swatch_1-119);}.cls-120{fill:url(#New_Gradient_Swatch_1-120);}.cls-121{fill:url(#New_Gradient_Swatch_1-121);}.cls-122{fill:url(#New_Gradient_Swatch_1-122);}.cls-123{fill:url(#New_Gradient_Swatch_1-123);}.cls-124{fill:url(#New_Gradient_Swatch_1-124);}.cls-125{fill:url(#New_Gradient_Swatch_1-125);}.cls-126{fill:url(#New_Gradient_Swatch_1-126);}.cls-127{fill:url(#New_Gradient_Swatch_1-127);}.cls-128{fill:url(#New_Gradient_Swatch_1-128);}.cls-129{fill:url(#New_Gradient_Swatch_1-129);}.cls-130{fill:url(#New_Gradient_Swatch_1-130);}.cls-131{fill:url(#New_Gradient_Swatch_1-131);}.cls-132{fill:url(#New_Gradient_Swatch_1-132);}.cls-133{fill:url(#New_Gradient_Swatch_1-133);}.cls-134{fill:url(#New_Gradient_Swatch_1-134);}.cls-135{fill:url(#New_Gradient_Swatch_1-135);}.cls-136{fill:url(#New_Gradient_Swatch_1-136);}.cls-137{fill:url(#New_Gradient_Swatch_1-137);}.cls-138{fill:url(#New_Gradient_Swatch_1-138);}.cls-139{fill:url(#New_Gradient_Swatch_1-139);}.cls-140{fill:url(#New_Gradient_Swatch_1-140);}.cls-141{fill:url(#New_Gradient_Swatch_1-141);}.cls-142{fill:url(#New_Gradient_Swatch_1-142);}.cls-143{fill:url(#New_Gradient_Swatch_1-143);}.cls-144{fill:url(#New_Gradient_Swatch_1-144);}.cls-145{fill:url(#New_Gradient_Swatch_1-145);}.cls-146{fill:url(#New_Gradient_Swatch_1-146);}.cls-147{fill:url(#New_Gradient_Swatch_1-147);}.cls-148{fill:url(#New_Gradient_Swatch_1-148);}.cls-149{fill:url(#New_Gradient_Swatch_1-149);}.cls-150{fill:url(#New_Gradient_Swatch_1-150);}.cls-151{fill:url(#New_Gradient_Swatch_1-151);}.cls-152{fill:url(#New_Gradient_Swatch_1-152);}.cls-153{fill:url(#New_Gradient_Swatch_1-153);}.cls-154{fill:url(#New_Gradient_Swatch_1-154);}.cls-155{fill:url(#New_Gradient_Swatch_1-155);}.cls-156{fill:url(#New_Gradient_Swatch_1-156);}.cls-157{fill:url(#New_Gradient_Swatch_1-157);}.cls-158{fill:url(#New_Gradient_Swatch_1-158);}.cls-159{fill:url(#New_Gradient_Swatch_1-159);}.cls-160{fill:url(#New_Gradient_Swatch_1-160);}.cls-161{fill:url(#New_Gradient_Swatch_1-161);}.cls-162{fill:url(#New_Gradient_Swatch_1-162);}.cls-163{fill:url(#New_Gradient_Swatch_1-163);}.cls-164{fill:url(#New_Gradient_Swatch_1-164);}.cls-165{fill:url(#New_Gradient_Swatch_1-165);}.cls-166{fill:url(#New_Gradient_Swatch_1-166);}.cls-167{fill:url(#New_Gradient_Swatch_1-167);}.cls-168{fill:url(#New_Gradient_Swatch_1-168);}.cls-169{fill:url(#New_Gradient_Swatch_1-169);}.cls-170{fill:url(#New_Gradient_Swatch_1-170);}.cls-171{fill:url(#New_Gradient_Swatch_1-171);}.cls-172{fill:url(#New_Gradient_Swatch_1-172);}.cls-173{opacity:0.15;}.cls-174{fill:url(#New_Gradient_Swatch_1-173);}.cls-175{fill:url(#New_Gradient_Swatch_1-174);}.cls-176{fill:url(#New_Gradient_Swatch_1-175);}.cls-177{fill:url(#New_Gradient_Swatch_1-176);}.cls-178{fill:url(#New_Gradient_Swatch_1-177);}.cls-179{fill:url(#New_Gradient_Swatch_1-178);}.cls-180{fill:url(#New_Gradient_Swatch_1-179);}.cls-181{fill:url(#New_Gradient_Swatch_1-180);}.cls-182{fill:url(#New_Gradient_Swatch_1-181);}.cls-183{fill:url(#New_Gradient_Swatch_1-182);}.cls-184{fill:url(#New_Gradient_Swatch_1-183);}</style><linearGradient id="New_Gradient_Swatch_1" x1="213.49" y1="55.1" x2="222.82" y2="55.1" gradientUnits="userSpaceOnUse"><stop offset="0" stop-color="#cf52fe"/><stop offset="1" stop-color="#19dbb6"/></linearGradient><linearGradient id="New_Gradient_Swatch_1-2" x1="223.98" y1="55.1" x2="234.21" y2="55.1" xlink:href="#New_Gradient_Swatch_1"/><linearGradient id="New_Gradient_Swatch_1-3" x1="235.88" y1="55.1" x2="246.03" y2="55.1" xlink:href="#New_Gradient_Swatch_1"/><linearGradient id="New_Gradient_Swatch_1-4" x1="247.41" y1="55.1" x2="256.71" y2="55.1" xlink:href="#New_Gradient_Swatch_1"/><linearGradient id="New_Gradient_Swatch_1-5" x1="257.95" y1="55.1" x2="266.55" y2="55.1" xlink:href="#New_Gradient_Swatch_1"/><linearGradient id="New_Gradient_Swatch_1-6" x1="265.49" y1="55.1" x2="272.21" y2="55.1" xlink:href="#New_Gradient_Swatch_1"/><linearGradient id="New_Gradient_Swatch_1-7" x1="278.03" y1="55.1" x2="280.93" y2="55.1" xlink:href="#New_Gradient_Swatch_1"/><linearGradient id="New_Gradient_Swatch_1-8" x1="282.59" y1="55.1" x2="292.46" y2="55.1" xlink:href="#New_Gradient_Swatch_1"/><linearGradient id="New_Gradient_Swatch_1-9" x1="293.79" y1="55.1" x2="304.25" y2="55.1" xlink:href="#New_Gradient_Swatch_1"/><linearGradient id="New_Gradient_Swatch_1-10" x1="305.75" y1="55.1" x2="316.76" y2="55.1" xlink:href="#New_Gradient_Swatch_1"/><linearGradient id="New_Gradient_Swatch_1-11" x1="325.96" y1="55.1" x2="332.68" y2="55.1" xlink:href="#New_Gradient_Swatch_1"/><linearGradient id="New_Gradient_Swatch_1-12" x1="318.42" y1="55.1" x2="327.03" y2="55.1" xlink:href="#New_Gradient_Swatch_1"/><linearGradient id="New_Gradient_Swatch_1-13" x1="213.32" y1="73.39" x2="217.94" y2="73.39" xlink:href="#New_Gradient_Swatch_1"/><linearGradient id="New_Gradient_Swatch_1-14" x1="218.52" y1="73.39" x2="223.59" y2="73.39" xlink:href="#New_Gradient_Swatch_1"/><linearGradient id="New_Gradient_Swatch_1-15" x1="224.41" y1="73.39" x2="229.44" y2="73.39" xlink:href="#New_Gradient_Swatch_1"/><linearGradient id="New_Gradient_Swatch_1-16" x1="230.13" y1="73.39" x2="234.73" y2="73.39" xlink:href="#New_Gradient_Swatch_1"/><linearGradient id="New_Gradient_Swatch_1-17" x1="235.35" y1="73.39" x2="242.42" y2="73.39" xlink:href="#New_Gradient_Swatch_1"/><linearGradient id="New_Gradient_Swatch_1-18" x1="245.31" y1="73.39" x2="246.74" y2="73.39" xlink:href="#New_Gradient_Swatch_1"/><linearGradient id="New_Gradient_Swatch_1-19" x1="247.56" y1="73.39" x2="252.45" y2="73.39" xlink:href="#New_Gradient_Swatch_1"/><linearGradient id="New_Gradient_Swatch_1-20" x1="253.11" y1="73.39" x2="258.3" y2="73.39" xlink:href="#New_Gradient_Swatch_1"/><linearGradient id="New_Gradient_Swatch_1-21" x1="259.04" y1="73.39" x2="264.5" y2="73.39" xlink:href="#New_Gradient_Swatch_1"/><linearGradient id="New_Gradient_Swatch_1-22" x1="265.32" y1="73.39" x2="272.39" y2="73.39" xlink:href="#New_Gradient_Swatch_1"/><linearGradient id="New_Gradient_Swatch_1-23" x1="275.28" y1="73.39" x2="280.24" y2="73.39" xlink:href="#New_Gradient_Swatch_1"/><linearGradient id="New_Gradient_Swatch_1-24" x1="281.06" y1="73.39" x2="286.13" y2="73.39" xlink:href="#New_Gradient_Swatch_1"/><linearGradient id="New_Gradient_Swatch_1-25" x1="286.96" y1="73.39" x2="291.58" y2="73.39" xlink:href="#New_Gradient_Swatch_1"/><linearGradient id="New_Gradient_Swatch_1-26" x1="292.16" y1="73.39" x2="297.23" y2="73.39" xlink:href="#New_Gradient_Swatch_1"/><linearGradient id="New_Gradient_Swatch_1-27" x1="298.06" y1="73.39" x2="303.08" y2="73.39" xlink:href="#New_Gradient_Swatch_1"/><linearGradient id="New_Gradient_Swatch_1-28" x1="305.75" y1="73.39" x2="310.93" y2="73.39" xlink:href="#New_Gradient_Swatch_1"/><linearGradient id="New_Gradient_Swatch_1-29" x1="311.68" y1="73.39" x2="313.11" y2="73.39" xlink:href="#New_Gradient_Swatch_1"/><linearGradient id="New_Gradient_Swatch_1-30" x1="313.69" y1="73.39" x2="319.06" y2="73.39" xlink:href="#New_Gradient_Swatch_1"/><linearGradient id="New_Gradient_Swatch_1-31" x1="321.29" y1="73.39" x2="327.1" y2="73.39" xlink:href="#New_Gradient_Swatch_1"/><linearGradient id="New_Gradient_Swatch_1-32" x1="327.52" y1="73.39" x2="334.58" y2="73.39" xlink:href="#New_Gradient_Swatch_1"/><linearGradient id="New_Gradient_Swatch_1-33" x1="335.41" y1="73.39" x2="340.01" y2="73.39" xlink:href="#New_Gradient_Swatch_1"/><linearGradient id="New_Gradient_Swatch_1-34" x1="340.39" y1="73.39" x2="345.76" y2="73.39" xlink:href="#New_Gradient_Swatch_1"/><linearGradient id="New_Gradient_Swatch_1-35" x1="345.47" y1="76.18" x2="346.91" y2="76.18" xlink:href="#New_Gradient_Swatch_1"/><linearGradient id="New_Gradient_Swatch_1-36" x1="349.55" y1="73.39" x2="354.62" y2="73.39" xlink:href="#New_Gradient_Swatch_1"/><linearGradient id="New_Gradient_Swatch_1-37" x1="355.32" y1="73.39" x2="360.39" y2="73.39" xlink:href="#New_Gradient_Swatch_1"/><linearGradient id="New_Gradient_Swatch_1-38" x1="361.21" y1="73.4" x2="367.33" y2="73.4" xlink:href="#New_Gradient_Swatch_1"/><linearGradient id="New_Gradient_Swatch_1-39" x1="368.07" y1="73.39" x2="373.26" y2="73.39" xlink:href="#New_Gradient_Swatch_1"/><linearGradient id="New_Gradient_Swatch_1-40" x1="374" y1="73.39" x2="378.61" y2="73.39" xlink:href="#New_Gradient_Swatch_1"/><linearGradient id="New_Gradient_Swatch_1-41" x1="379.23" y1="73.39" x2="384.3" y2="73.39" xlink:href="#New_Gradient_Swatch_1"/><linearGradient id="New_Gradient_Swatch_1-42" x1="384.75" y1="73.39" x2="390.12" y2="73.39" xlink:href="#New_Gradient_Swatch_1"/><linearGradient id="New_Gradient_Swatch_1-43" x1="390.71" y1="73.39" x2="395.31" y2="73.39" xlink:href="#New_Gradient_Swatch_1"/><linearGradient id="New_Gradient_Swatch_1-44" x1="395.69" y1="73.39" x2="401.06" y2="73.39" xlink:href="#New_Gradient_Swatch_1"/><linearGradient id="New_Gradient_Swatch_1-45" x1="401.64" y1="73.39" x2="407.09" y2="73.39" xlink:href="#New_Gradient_Swatch_1"/><linearGradient id="New_Gradient_Swatch_1-46" x1="407.92" y1="73.39" x2="412.95" y2="73.39" xlink:href="#New_Gradient_Swatch_1"/><linearGradient id="New_Gradient_Swatch_1-47" x1="212.9" y1="83.29" x2="218.71" y2="83.29" xlink:href="#New_Gradient_Swatch_1"/><linearGradient id="New_Gradient_Swatch_1-48" x1="219.13" y1="83.29" x2="224.09" y2="83.29" xlink:href="#New_Gradient_Swatch_1"/><linearGradient id="New_Gradient_Swatch_1-49" x1="224.91" y1="83.29" x2="226.35" y2="83.29" xlink:href="#New_Gradient_Swatch_1"/><linearGradient id="New_Gradient_Swatch_1-50" x1="227.17" y1="83.29" x2="232.06" y2="83.29" xlink:href="#New_Gradient_Swatch_1"/><linearGradient id="New_Gradient_Swatch_1-51" x1="232.8" y1="83.29" x2="234.24" y2="83.29" xlink:href="#New_Gradient_Swatch_1"/><linearGradient id="New_Gradient_Swatch_1-52" x1="234.98" y1="83.29" x2="240.16" y2="83.29" xlink:href="#New_Gradient_Swatch_1"/><linearGradient id="New_Gradient_Swatch_1-53" x1="240.91" y1="83.29" x2="245.98" y2="83.29" xlink:href="#New_Gradient_Swatch_1"/><linearGradient id="New_Gradient_Swatch_1-54" x1="246.68" y1="83.29" x2="248.11" y2="83.29" xlink:href="#New_Gradient_Swatch_1"/><linearGradient id="New_Gradient_Swatch_1-55" x1="248.94" y1="83.3" x2="255.05" y2="83.3" xlink:href="#New_Gradient_Swatch_1"/><linearGradient id="New_Gradient_Swatch_1-56" x1="255.88" y1="83.29" x2="261.08" y2="83.29" xlink:href="#New_Gradient_Swatch_1"/><linearGradient id="New_Gradient_Swatch_1-57" x1="263.89" y1="83.29" x2="268.49" y2="83.29" xlink:href="#New_Gradient_Swatch_1"/><linearGradient id="New_Gradient_Swatch_1-58" x1="269.11" y1="83.29" x2="273.74" y2="83.29" xlink:href="#New_Gradient_Swatch_1"/><linearGradient id="New_Gradient_Swatch_1-59" x1="274.32" y1="83.29" x2="275.75" y2="83.29" xlink:href="#New_Gradient_Swatch_1"/><linearGradient id="New_Gradient_Swatch_1-60" x1="276.33" y1="83.29" x2="281.7" y2="83.29" xlink:href="#New_Gradient_Swatch_1"/><linearGradient id="New_Gradient_Swatch_1-61" x1="281.42" y1="86.08" x2="282.85" y2="86.08" xlink:href="#New_Gradient_Swatch_1"/><linearGradient id="New_Gradient_Swatch_1-62" x1="285.41" y1="83.29" x2="290.59" y2="83.29" xlink:href="#New_Gradient_Swatch_1"/><linearGradient id="New_Gradient_Swatch_1-63" x1="291.33" y1="83.29" x2="295.94" y2="83.29" xlink:href="#New_Gradient_Swatch_1"/><linearGradient id="New_Gradient_Swatch_1-64" x1="296.56" y1="83.29" x2="301.52" y2="83.29" xlink:href="#New_Gradient_Swatch_1"/><linearGradient id="New_Gradient_Swatch_1-65" x1="304.41" y1="83.29" x2="309.37" y2="83.29" xlink:href="#New_Gradient_Swatch_1"/><linearGradient id="New_Gradient_Swatch_1-66" x1="310.2" y1="83.29" x2="315.27" y2="83.29" xlink:href="#New_Gradient_Swatch_1"/><linearGradient id="New_Gradient_Swatch_1-67" x1="318.15" y1="83.29" x2="322.76" y2="83.29" xlink:href="#New_Gradient_Swatch_1"/><linearGradient id="New_Gradient_Swatch_1-68" x1="323.38" y1="83.29" x2="324.81" y2="83.29" xlink:href="#New_Gradient_Swatch_1"/><linearGradient id="New_Gradient_Swatch_1-69" x1="325.64" y1="83.29" x2="331.09" y2="83.29" xlink:href="#New_Gradient_Swatch_1"/><linearGradient id="New_Gradient_Swatch_1-70" x1="331.84" y1="83.29" x2="337.02" y2="83.29" xlink:href="#New_Gradient_Swatch_1"/><linearGradient id="New_Gradient_Swatch_1-71" x1="337.77" y1="83.29" x2="344.83" y2="83.29" xlink:href="#New_Gradient_Swatch_1"/><linearGradient id="New_Gradient_Swatch_1-72" x1="345.66" y1="83.29" x2="350.73" y2="83.29" xlink:href="#New_Gradient_Swatch_1"/><linearGradient id="New_Gradient_Swatch_1-73" x1="351.55" y1="83.29" x2="356.52" y2="83.29" xlink:href="#New_Gradient_Swatch_1"/><linearGradient id="New_Gradient_Swatch_1-74" x1="359.16" y1="83.29" x2="364.53" y2="83.29" xlink:href="#New_Gradient_Swatch_1"/><linearGradient id="New_Gradient_Swatch_1-75" x1="365.11" y1="83.29" x2="369.72" y2="83.29" xlink:href="#New_Gradient_Swatch_1"/><linearGradient id="New_Gradient_Swatch_1-76" x1="370.34" y1="83.29" x2="377.4" y2="83.29" xlink:href="#New_Gradient_Swatch_1"/><linearGradient id="New_Gradient_Swatch_1-77" x1="378.23" y1="83.29" x2="383.11" y2="83.29" xlink:href="#New_Gradient_Swatch_1"/><linearGradient id="New_Gradient_Swatch_1-78" x1="383.86" y1="83.29" x2="388.93" y2="83.29" xlink:href="#New_Gradient_Swatch_1"/><linearGradient id="New_Gradient_Swatch_1-79" x1="389.75" y1="83.29" x2="394.78" y2="83.29" xlink:href="#New_Gradient_Swatch_1"/><linearGradient id="New_Gradient_Swatch_1-80" x1="397.53" y1="83.29" x2="398.96" y2="83.29" xlink:href="#New_Gradient_Swatch_1"/><linearGradient id="New_Gradient_Swatch_1-81" x1="399.79" y1="83.3" x2="405.9" y2="83.3" xlink:href="#New_Gradient_Swatch_1"/><linearGradient id="New_Gradient_Swatch_1-82" x1="406.73" y1="83.29" x2="411.8" y2="83.29" xlink:href="#New_Gradient_Swatch_1"/><linearGradient id="New_Gradient_Swatch_1-83" x1="412.5" y1="83.29" x2="413.93" y2="83.29" xlink:href="#New_Gradient_Swatch_1"/><linearGradient id="New_Gradient_Swatch_1-84" x1="414.76" y1="83.29" x2="419.72" y2="83.29" xlink:href="#New_Gradient_Swatch_1"/><linearGradient id="New_Gradient_Swatch_1-85" x1="420.55" y1="83.29" x2="421.98" y2="83.29" xlink:href="#New_Gradient_Swatch_1"/><linearGradient id="New_Gradient_Swatch_1-86" x1="422.81" y1="83.29" x2="427.77" y2="83.29" xlink:href="#New_Gradient_Swatch_1"/><linearGradient id="New_Gradient_Swatch_1-87" x1="428.59" y1="83.29" x2="434.05" y2="83.29" xlink:href="#New_Gradient_Swatch_1"/><linearGradient id="New_Gradient_Swatch_1-88" x1="434.88" y1="83.3" x2="440.99" y2="83.3" xlink:href="#New_Gradient_Swatch_1"/><linearGradient id="New_Gradient_Swatch_1-89" x1="441.57" y1="83.29" x2="446.94" y2="83.29" xlink:href="#New_Gradient_Swatch_1"/><linearGradient id="New_Gradient_Swatch_1-90" x1="213.32" y1="94.69" x2="217.94" y2="94.69" xlink:href="#New_Gradient_Swatch_1"/><linearGradient id="New_Gradient_Swatch_1-91" x1="218.52" y1="94.69" x2="223.59" y2="94.69" xlink:href="#New_Gradient_Swatch_1"/><linearGradient id="New_Gradient_Swatch_1-92" x1="224.41" y1="94.69" x2="229.44" y2="94.69" xlink:href="#New_Gradient_Swatch_1"/><linearGradient id="New_Gradient_Swatch_1-93" x1="230.13" y1="94.69" x2="234.73" y2="94.69" xlink:href="#New_Gradient_Swatch_1"/><linearGradient id="New_Gradient_Swatch_1-94" x1="235.35" y1="94.69" x2="242.42" y2="94.69" xlink:href="#New_Gradient_Swatch_1"/><linearGradient id="New_Gradient_Swatch_1-95" x1="245.31" y1="94.69" x2="246.74" y2="94.69" xlink:href="#New_Gradient_Swatch_1"/><linearGradient id="New_Gradient_Swatch_1-96" x1="247.56" y1="94.69" x2="252.45" y2="94.69" xlink:href="#New_Gradient_Swatch_1"/><linearGradient id="New_Gradient_Swatch_1-97" x1="253.11" y1="94.69" x2="258.3" y2="94.69" xlink:href="#New_Gradient_Swatch_1"/><linearGradient id="New_Gradient_Swatch_1-98" x1="259.04" y1="94.69" x2="264.5" y2="94.69" xlink:href="#New_Gradient_Swatch_1"/><linearGradient id="New_Gradient_Swatch_1-99" x1="265.32" y1="94.69" x2="272.39" y2="94.69" xlink:href="#New_Gradient_Swatch_1"/><linearGradient id="New_Gradient_Swatch_1-100" x1="275.28" y1="94.69" x2="280.24" y2="94.69" xlink:href="#New_Gradient_Swatch_1"/><linearGradient id="New_Gradient_Swatch_1-101" x1="281.06" y1="94.69" x2="286.13" y2="94.69" xlink:href="#New_Gradient_Swatch_1"/><linearGradient id="New_Gradient_Swatch_1-102" x1="286.96" y1="94.69" x2="291.58" y2="94.69" xlink:href="#New_Gradient_Swatch_1"/><linearGradient id="New_Gradient_Swatch_1-103" x1="292.16" y1="94.69" x2="297.23" y2="94.69" xlink:href="#New_Gradient_Swatch_1"/><linearGradient id="New_Gradient_Swatch_1-104" x1="298.06" y1="94.69" x2="303.08" y2="94.69" xlink:href="#New_Gradient_Swatch_1"/><linearGradient id="New_Gradient_Swatch_1-105" x1="305.75" y1="94.69" x2="310.93" y2="94.69" xlink:href="#New_Gradient_Swatch_1"/><linearGradient id="New_Gradient_Swatch_1-106" x1="311.68" y1="94.69" x2="313.11" y2="94.69" xlink:href="#New_Gradient_Swatch_1"/><linearGradient id="New_Gradient_Swatch_1-107" x1="313.69" y1="94.69" x2="319.06" y2="94.69" xlink:href="#New_Gradient_Swatch_1"/><linearGradient id="New_Gradient_Swatch_1-108" x1="321.29" y1="94.69" x2="327.1" y2="94.69" xlink:href="#New_Gradient_Swatch_1"/><linearGradient id="New_Gradient_Swatch_1-109" x1="327.52" y1="94.69" x2="334.58" y2="94.69" xlink:href="#New_Gradient_Swatch_1"/><linearGradient id="New_Gradient_Swatch_1-110" x1="335.41" y1="94.69" x2="340.01" y2="94.69" xlink:href="#New_Gradient_Swatch_1"/><linearGradient id="New_Gradient_Swatch_1-111" x1="340.39" y1="94.69" x2="345.76" y2="94.69" xlink:href="#New_Gradient_Swatch_1"/><linearGradient id="New_Gradient_Swatch_1-112" x1="345.47" y1="97.48" x2="346.91" y2="97.48" xlink:href="#New_Gradient_Swatch_1"/><linearGradient id="New_Gradient_Swatch_1-113" x1="349.55" y1="94.69" x2="354.62" y2="94.69" xlink:href="#New_Gradient_Swatch_1"/><linearGradient id="New_Gradient_Swatch_1-114" x1="355.32" y1="94.69" x2="360.39" y2="94.69" xlink:href="#New_Gradient_Swatch_1"/><linearGradient id="New_Gradient_Swatch_1-115" x1="361.21" y1="94.7" x2="367.33" y2="94.7" xlink:href="#New_Gradient_Swatch_1"/><linearGradient id="New_Gradient_Swatch_1-116" x1="368.07" y1="94.69" x2="373.26" y2="94.69" xlink:href="#New_Gradient_Swatch_1"/><linearGradient id="New_Gradient_Swatch_1-117" x1="374" y1="94.69" x2="378.61" y2="94.69" xlink:href="#New_Gradient_Swatch_1"/><linearGradient id="New_Gradient_Swatch_1-118" x1="379.23" y1="94.69" x2="384.3" y2="94.69" xlink:href="#New_Gradient_Swatch_1"/><linearGradient id="New_Gradient_Swatch_1-119" x1="384.75" y1="94.69" x2="390.12" y2="94.69" xlink:href="#New_Gradient_Swatch_1"/><linearGradient id="New_Gradient_Swatch_1-120" x1="390.71" y1="94.69" x2="395.31" y2="94.69" xlink:href="#New_Gradient_Swatch_1"/><linearGradient id="New_Gradient_Swatch_1-121" x1="395.69" y1="94.69" x2="401.06" y2="94.69" xlink:href="#New_Gradient_Swatch_1"/><linearGradient id="New_Gradient_Swatch_1-122" x1="401.64" y1="94.69" x2="407.09" y2="94.69" xlink:href="#New_Gradient_Swatch_1"/><linearGradient id="New_Gradient_Swatch_1-123" x1="407.92" y1="94.69" x2="412.95" y2="94.69" xlink:href="#New_Gradient_Swatch_1"/><linearGradient id="New_Gradient_Swatch_1-124" x1="212.9" y1="104.58" x2="218.71" y2="104.58" xlink:href="#New_Gradient_Swatch_1"/><linearGradient id="New_Gradient_Swatch_1-125" x1="219.13" y1="104.58" x2="224.09" y2="104.58" xlink:href="#New_Gradient_Swatch_1"/><linearGradient id="New_Gradient_Swatch_1-126" x1="224.91" y1="104.58" x2="226.35" y2="104.58" xlink:href="#New_Gradient_Swatch_1"/><linearGradient id="New_Gradient_Swatch_1-127" x1="227.17" y1="104.58" x2="232.06" y2="104.58" xlink:href="#New_Gradient_Swatch_1"/><linearGradient id="New_Gradient_Swatch_1-128" x1="232.8" y1="104.58" x2="234.24" y2="104.58" xlink:href="#New_Gradient_Swatch_1"/><linearGradient id="New_Gradient_Swatch_1-129" x1="234.98" y1="104.58" x2="240.16" y2="104.58" xlink:href="#New_Gradient_Swatch_1"/><linearGradient id="New_Gradient_Swatch_1-130" x1="240.91" y1="104.58" x2="245.98" y2="104.58" xlink:href="#New_Gradient_Swatch_1"/><linearGradient id="New_Gradient_Swatch_1-131" x1="246.68" y1="104.58" x2="248.11" y2="104.58" xlink:href="#New_Gradient_Swatch_1"/><linearGradient id="New_Gradient_Swatch_1-132" x1="248.94" y1="104.6" x2="255.05" y2="104.6" xlink:href="#New_Gradient_Swatch_1"/><linearGradient id="New_Gradient_Swatch_1-133" x1="255.88" y1="104.58" x2="261.08" y2="104.58" xlink:href="#New_Gradient_Swatch_1"/><linearGradient id="New_Gradient_Swatch_1-134" x1="263.89" y1="104.58" x2="268.49" y2="104.58" xlink:href="#New_Gradient_Swatch_1"/><linearGradient id="New_Gradient_Swatch_1-135" x1="269.11" y1="104.58" x2="273.74" y2="104.58" xlink:href="#New_Gradient_Swatch_1"/><linearGradient id="New_Gradient_Swatch_1-136" x1="274.32" y1="104.58" x2="275.75" y2="104.58" xlink:href="#New_Gradient_Swatch_1"/><linearGradient id="New_Gradient_Swatch_1-137" x1="276.33" y1="104.58" x2="281.7" y2="104.58" xlink:href="#New_Gradient_Swatch_1"/><linearGradient id="New_Gradient_Swatch_1-138" x1="281.42" y1="107.38" x2="282.85" y2="107.38" xlink:href="#New_Gradient_Swatch_1"/><linearGradient id="New_Gradient_Swatch_1-139" x1="285.41" y1="104.58" x2="290.59" y2="104.58" xlink:href="#New_Gradient_Swatch_1"/><linearGradient id="New_Gradient_Swatch_1-140" x1="291.33" y1="104.58" x2="295.94" y2="104.58" xlink:href="#New_Gradient_Swatch_1"/><linearGradient id="New_Gradient_Swatch_1-141" x1="296.56" y1="104.58" x2="301.52" y2="104.58" xlink:href="#New_Gradient_Swatch_1"/><linearGradient id="New_Gradient_Swatch_1-142" x1="304.41" y1="104.58" x2="309.37" y2="104.58" xlink:href="#New_Gradient_Swatch_1"/><linearGradient id="New_Gradient_Swatch_1-143" x1="310.2" y1="104.58" x2="315.27" y2="104.58" xlink:href="#New_Gradient_Swatch_1"/><linearGradient id="New_Gradient_Swatch_1-144" x1="318.15" y1="104.58" x2="322.76" y2="104.58" xlink:href="#New_Gradient_Swatch_1"/><linearGradient id="New_Gradient_Swatch_1-145" x1="323.38" y1="104.58" x2="324.81" y2="104.58" xlink:href="#New_Gradient_Swatch_1"/><linearGradient id="New_Gradient_Swatch_1-146" x1="325.64" y1="104.58" x2="331.09" y2="104.58" xlink:href="#New_Gradient_Swatch_1"/><linearGradient id="New_Gradient_Swatch_1-147" x1="331.84" y1="104.58" x2="337.02" y2="104.58" xlink:href="#New_Gradient_Swatch_1"/><linearGradient id="New_Gradient_Swatch_1-148" x1="337.77" y1="104.58" x2="344.83" y2="104.58" xlink:href="#New_Gradient_Swatch_1"/><linearGradient id="New_Gradient_Swatch_1-149" x1="345.66" y1="104.58" x2="350.73" y2="104.58" xlink:href="#New_Gradient_Swatch_1"/><linearGradient id="New_Gradient_Swatch_1-150" x1="351.55" y1="104.58" x2="356.52" y2="104.58" xlink:href="#New_Gradient_Swatch_1"/><linearGradient id="New_Gradient_Swatch_1-151" x1="160" y1="88.85" x2="489.6" y2="88.85" xlink:href="#New_Gradient_Swatch_1"/><linearGradient id="New_Gradient_Swatch_1-152" x1="464.18" y1="61.87" x2="483.42" y2="61.87" xlink:href="#New_Gradient_Swatch_1"/><linearGradient id="New_Gradient_Swatch_1-153" x1="464.15" y1="81.87" x2="483.39" y2="81.87" xlink:href="#New_Gradient_Swatch_1"/><linearGradient id="New_Gradient_Swatch_1-154" x1="464.13" y1="101.87" x2="483.37" y2="101.87" xlink:href="#New_Gradient_Swatch_1"/><linearGradient id="New_Gradient_Swatch_1-155" x1="464.11" y1="121.87" x2="483.35" y2="121.87" xlink:href="#New_Gradient_Swatch_1"/><linearGradient id="New_Gradient_Swatch_1-156" x1="464.1" y1="140.41" x2="483.33" y2="140.41" xlink:href="#New_Gradient_Swatch_1"/><linearGradient id="New_Gradient_Swatch_1-157" x1="464.08" y1="150.41" x2="472.15" y2="150.41" xlink:href="#New_Gradient_Swatch_1"/><linearGradient id="New_Gradient_Swatch_1-158" x1="480.54" y1="74.43" x2="493.42" y2="74.43" xlink:href="#New_Gradient_Swatch_1"/><linearGradient id="New_Gradient_Swatch_1-159" x1="446.78" y1="164.48" x2="472.82" y2="164.48" xlink:href="#New_Gradient_Swatch_1"/><linearGradient id="New_Gradient_Swatch_1-160" x1="203.26" y1="145.76" x2="456.59" y2="145.76" xlink:href="#New_Gradient_Swatch_1"/><linearGradient id="New_Gradient_Swatch_1-161" x1="375.13" y1="141.36" x2="447.58" y2="141.36" xlink:href="#New_Gradient_Swatch_1"/><linearGradient id="New_Gradient_Swatch_1-162" x1="228.2" y1="4.36" x2="266.8" y2="4.36" xlink:href="#New_Gradient_Swatch_1"/><linearGradient id="New_Gradient_Swatch_1-163" x1="38.55" y1="120.28" x2="442.73" y2="120.28" xlink:href="#New_Gradient_Swatch_1"/><linearGradient id="New_Gradient_Swatch_1-164" x1="6.16" y1="94.16" x2="28" y2="94.16" gradientTransform="translate(34.25 188.31) rotate(179.94)" xlink:href="#New_Gradient_Swatch_1"/><linearGradient id="New_Gradient_Swatch_1-165" x1="0" y1="94.16" x2="34.16" y2="94.16" xlink:href="#New_Gradient_Swatch_1"/><linearGradient id="New_Gradient_Swatch_1-166" x1="334.75" y1="185.22" x2="423.16" y2="185.22" xlink:href="#New_Gradient_Swatch_1"/><linearGradient id="New_Gradient_Swatch_1-167" x1="166.56" y1="27.38" x2="459.95" y2="27.38" xlink:href="#New_Gradient_Swatch_1"/><linearGradient id="New_Gradient_Swatch_1-168" x1="244.73" y1="18.33" x2="266.78" y2="18.33" xlink:href="#New_Gradient_Swatch_1"/><linearGradient id="New_Gradient_Swatch_1-169" x1="225.11" y1="18.31" x2="238.32" y2="18.31" gradientTransform="translate(463.45 36.38) rotate(179.94)" xlink:href="#New_Gradient_Swatch_1"/><linearGradient id="New_Gradient_Swatch_1-170" x1="205.81" y1="18.29" x2="219.03" y2="18.29" gradientTransform="translate(424.86 36.36) rotate(179.94)" xlink:href="#New_Gradient_Swatch_1"/><linearGradient id="New_Gradient_Swatch_1-171" x1="186.52" y1="18.27" x2="199.73" y2="18.27" gradientTransform="translate(386.27 36.34) rotate(179.94)" xlink:href="#New_Gradient_Swatch_1"/><linearGradient id="New_Gradient_Swatch_1-172" x1="167.22" y1="18.25" x2="180.44" y2="18.25" gradientTransform="translate(347.68 36.32) rotate(179.94)" xlink:href="#New_Gradient_Swatch_1"/><linearGradient id="New_Gradient_Swatch_1-173" x1="204.75" y1="157.57" x2="451.02" y2="157.57" xlink:href="#New_Gradient_Swatch_1"/><linearGradient id="New_Gradient_Swatch_1-174" x1="107.85" y1="68.12" x2="161.89" y2="68.12" xlink:href="#New_Gradient_Swatch_1"/><linearGradient id="New_Gradient_Swatch_1-175" x1="111.56" y1="53.7" x2="152.73" y2="53.7" xlink:href="#New_Gradient_Swatch_1"/><linearGradient id="New_Gradient_Swatch_1-176" x1="181.2" y1="93.01" x2="184.36" y2="93.01" xlink:href="#New_Gradient_Swatch_1"/><linearGradient id="New_Gradient_Swatch_1-177" x1="64.38" y1="89.87" x2="77.12" y2="89.87" xlink:href="#New_Gradient_Swatch_1"/><linearGradient id="New_Gradient_Swatch_1-178" x1="434.63" y1="21.01" x2="469.62" y2="21.01" xlink:href="#New_Gradient_Swatch_1"/><linearGradient id="New_Gradient_Swatch_1-179" x1="465.21" y1="10.43" x2="469.4" y2="10.43" xlink:href="#New_Gradient_Swatch_1"/><linearGradient id="New_Gradient_Swatch_1-180" x1="163.7" y1="48.79" x2="178.78" y2="48.79" xlink:href="#New_Gradient_Swatch_1"/><linearGradient id="New_Gradient_Swatch_1-181" x1="198.86" y1="135.62" x2="206.85" y2="135.62" xlink:href="#New_Gradient_Swatch_1"/><linearGradient id="New_Gradient_Swatch_1-182" x1="182.13" y1="147.81" x2="191.08" y2="147.81" xlink:href="#New_Gradient_Swatch_1"/><linearGradient id="New_Gradient_Swatch_1-183" x1="459.8" y1="164.48" x2="481.59" y2="164.48" xlink:href="#New_Gradient_Swatch_1"/></defs><title>title_03_purple_green</title><g id="Layer_2" data-name="Layer 2"><g id="Layer_1-2" data-name="Layer 1"><polygon class="cls-1" points="216.38 49.09 213.49 49.09 213.49 61.1 215.76 61.1 216.38 61.1 222.82 61.1 222.82 58.44 216.38 58.44 216.38 49.09"/><path class="cls-2" d="M230.34,49.09H225l-1,1.22v9.55l1,1.25h8.24l1-1.24V50.29l-1-1.2Zm1.23,9.35h-4.69V51.76h4.69Z"/><path class="cls-3" d="M245.74,55.12V50.29l-1-1.2h-8.87v12h2.89V57h3.4l1,4.1H246l-1.12-5Zm-2.89-.77h-4.08V51.76h4.08Z"/><polygon class="cls-4" points="251.13 49.09 247.41 49.09 247.41 61.1 251.13 61.1 251.59 61.1 256.71 61.1 256.71 58.44 251.59 58.44 251.59 56.35 255.39 56.35 255.39 53.69 251.59 53.69 251.59 51.76 256.71 51.76 256.71 49.09 251.59 49.09 251.13 49.09"/><polygon class="cls-5" points="257.95 49.09 257.95 51.13 257.95 51.76 257.95 61.1 260.85 61.1 260.85 51.76 264.01 59.69 266.15 59.69 266.56 58.71 262.81 49.09 257.95 49.09"/><polygon class="cls-6" points="265.49 53.85 266.97 57.66 269.32 51.76 269.32 61.1 272.21 61.1 272.21 49.09 267.35 49.09 265.49 53.85"/><rect class="cls-7" x="278.03" y="49.09" width="2.89" height="12.01"/><path class="cls-8" d="M285.49,49.09h-2.9v12h2.9V57h6l1-1.23V50.29l-1-1.2Zm4.07,5.26h-4.07V51.76h4.07Z"/><polygon class="cls-9" points="299.51 49.09 299.29 49.09 294.79 49.09 293.79 50.31 293.79 54.83 294.72 55.98 301.36 56.61 301.36 58.44 299.88 58.44 299.31 58.44 296.68 58.44 296.68 57.23 293.79 57.23 293.79 59.91 294.79 61.1 299.31 61.1 299.88 61.1 303.25 61.1 304.25 59.89 304.25 55.1 303.57 54.02 296.68 53.34 296.68 51.76 299.29 51.76 299.51 51.76 301.36 51.76 301.36 52.9 304.25 52.9 304.25 50.29 303.25 49.09 299.51 49.09"/><polygon class="cls-10" points="313.87 58.44 312.1 58.44 311.52 58.44 308.64 58.44 308.64 49.09 305.75 49.09 305.75 59.86 306.75 61.1 311.52 61.1 312.1 61.1 315.76 61.1 316.76 59.87 316.76 49.09 313.87 49.09 313.87 58.44"/><polygon class="cls-11" points="327.82 49.09 325.96 53.85 327.44 57.66 329.79 51.76 329.79 61.1 332.68 61.1 332.68 49.09 327.82 49.09"/><polygon class="cls-12" points="318.43 49.09 318.43 51.19 318.43 51.76 318.43 61.1 321.32 61.1 321.32 51.76 324.48 59.69 326.63 59.69 327.03 58.71 323.28 49.09 318.43 49.09"/><path class="cls-13" d="M213.32,76.37v-6h1.43v6Zm1.84,0V75.05h2.78v1.32Z"/><path class="cls-14" d="M219,70.42h1.83v1.32H220v3.31h.89v1.32H219l-.49-.62V71Zm2.24,1.32V70.42h1.84l.5.59v4.75l-.5.61h-1.84V75.05h1V71.74Z"/><path class="cls-15" d="M224.41,76.37v-6h1.44v6Zm1.85-4.63V70.42h2.55l.49.59V73.4l-.41.51.55,2.46H228l-.48-2h-1.27V73h1.61V71.74Z"/><path class="cls-16" d="M230.13,76.37v-6h1.43v6ZM232,71.74V70.42h2.76v1.32ZM232,74V72.69h2.11V74Zm0,2.36V75.05h2.76v1.32Z"/><path class="cls-17" d="M239.61,75.18l-.19.49h-1.07l-1.56-3.93h-1.44V70.42h2.41Zm-2.82-2.3v3.49h-1.44V72.15h1.07Zm2.3-.11.92-2.35h2.41v6H241V71.74l-1.16,2.92Z"/><path class="cls-18" d="M245.31,76.37v-6h1.43v6Z"/><path class="cls-19" d="M247.56,76.37v-6H249v6Zm1.85-4.63V70.42H252l.49.59v2.72l-.49.61h-2.55V73H251V71.74Z"/><path class="cls-20" d="M253.61,70.42h1.82v1.32h-.88v.78l3.41.34.34.53v2.37l-.5.61h-2V75.05h1v-.91l-3.28-.31-.47-.57V71Zm.94,4.63h.88v1.32h-1.82l-.5-.6V74.45h1.44Zm1.29-3.31V70.42h2l.5.59V72.3h-1.44v-.56Z"/><path class="cls-21" d="M261.49,75.05v1.32h-2l-.49-.62V70.42h1.44v4.63ZM264,76.37h-2.1V75.05h1.16V70.42h1.44v5.34Z"/><path class="cls-22" d="M269.58,75.18l-.19.49h-1.07l-1.56-3.93h-1.44V70.42h2.41Zm-2.82-2.3v3.49h-1.44V72.15h1.07Zm2.3-.11.92-2.35h2.41v6H271V71.74l-1.16,2.92Z"/><path class="cls-23" d="M276.71,70.42v6h-1.43v-6Zm.41,1.32V70.42h2.62l.5.59v4.75l-.5.61h-2.62V75.05h1.68V71.74Z"/><path class="cls-24" d="M281.56,70.42h1.83v1.32h-.89v3.31h.89v1.32h-1.83l-.5-.62V71Zm2.24,1.32V70.42h1.84l.49.59v4.75l-.49.61H283.8V75.05h1V71.74Z"/><path class="cls-25" d="M287,76.37v-6h1.43v6Zm1.85,0V75.05h2.77v1.32Z"/><path class="cls-26" d="M292.66,70.42h1.83v1.32h-.89v3.31h.89v1.32h-1.83l-.5-.62V71Zm2.24,1.32V70.42h1.84l.49.59v4.75l-.49.61H294.9V75.05h1V71.74Z"/><path class="cls-27" d="M298.06,76.37v-6h1.43v6Zm1.84-4.63V70.42h2.55l.49.59V73.4l-.41.51.55,2.46h-1.42l-.49-2H299.9V73h1.61V71.74Z"/><path class="cls-28" d="M306.24,70.42h1.83v1.32h-.89v.78l3.41.34.34.53v2.37l-.49.61h-1.95V75.05h1v-.91l-3.29-.31-.46-.57V71Zm.94,4.63h.89v1.32h-1.83l-.49-.6V74.45h1.43Zm1.3-3.31V70.42h2l.49.59V72.3H309.5v-.56Z"/><path class="cls-29" d="M311.68,76.37v-6h1.43v6Z"/><path class="cls-30" d="M313.69,70.42h5.37v1.32h-5.37Zm2,6V72.15h1.43v4.22Z"/><path class="cls-31" d="M322.66,76.37h-1.37l1.48-4.22h1l.18.47Zm1.53-2.91h.54l-.62-1.72h-1.19l.46-1.32H325l2.08,6h-1.35l-.56-1.59h-1.46Z"/><path class="cls-32" d="M331.78,75.18l-.2.49h-1.07L329,71.74h-1.43V70.42h2.4ZM329,72.88v3.49h-1.43V72.15h1.06Zm2.3-.11.92-2.35h2.41v6h-1.44V71.74L332,74.66Z"/><path class="cls-33" d="M335.41,76.37v-6h1.43v6Zm1.84-4.63V70.42H340v1.32Zm0,2.27V72.69h2.11V74Zm0,2.36V75.05H340v1.32Z"/><path class="cls-34" d="M340.39,70.42h5.37v1.32h-5.37Zm2,6V72.15h1.44v4.22Z"/><path class="cls-35" d="M346.18,77.32h0v-.95h-.68V75.05h1.44v1.32Z"/><path class="cls-36" d="M350,70.42h1.83v1.32H351v3.31h.89v1.32H350l-.49-.62V71Zm2.24,1.32V70.42h1.84l.5.59v1.61H353.3v-.88Zm0,4.63V75.05h1v-.88h1.32v1.59l-.5.61Z"/><path class="cls-37" d="M355.81,70.42h1.83v1.32h-.89v3.31h.89v1.32h-1.83l-.49-.62V71Zm2.24,1.32V70.42h1.84l.5.59v4.75l-.5.61h-1.84V75.05h1V71.74Z"/><path class="cls-38" d="M365.07,76.39l-2.42-4.65h-1.44V70.42h2.33l2.35,4.63h1.44v1.34Zm-2.42-3.53v3.51h-1.44V72.15h1.06Zm3.24,1.1V70.42h1.44v4.21h-1.07Z"/><path class="cls-39" d="M368.57,70.42h1.82v1.32h-.88v.78l3.41.34.34.53v2.37l-.5.61h-1.95V75.05h1v-.91l-3.28-.31-.47-.57V71Zm.94,4.63h.88v1.32h-1.82l-.5-.6V74.45h1.44Zm1.29-3.31V70.42h2l.5.59V72.3h-1.44v-.56Z"/><path class="cls-40" d="M374,76.37v-6h1.44v6Zm1.85-4.63V70.42h2.76v1.32Zm0,2.27V72.69H378V74Zm0,2.36V75.05h2.76v1.32Z"/><path class="cls-41" d="M379.72,70.42h1.83v1.32h-.89v3.31h.89v1.32h-1.83l-.49-.62V71ZM382,71.74V70.42h1.84l.5.59v1.61H383v-.88Zm0,4.63V75.05h1v-.88h1.31v1.59l-.5.61Z"/><path class="cls-42" d="M384.75,70.42h5.37v1.32h-5.37Zm2,6V72.15h1.43v4.22Z"/><path class="cls-43" d="M390.71,76.37v-6h1.43v6Zm1.84-4.63V70.42h2.76v1.32Zm0,2.27V72.69h2.11V74Zm0,2.36V75.05h2.76v1.32Z"/><path class="cls-44" d="M395.69,70.42h5.37v1.32h-5.37Zm2,6V72.15h1.44v4.22Z"/><path class="cls-45" d="M404.09,75.05v1.32h-2l-.49-.62V70.42h1.43v4.63Zm2.51,1.32h-2.1V75.05h1.16V70.42h1.43v5.34Z"/><path class="cls-46" d="M407.92,76.37v-6h1.43v6Zm1.85-4.63V70.42h2.54l.5.59V73.4l-.41.51.55,2.46h-1.43l-.48-2h-1.27V73h1.6V71.74Z"/><path class="cls-47" d="M214.27,86.26H212.9L214.38,82h1l.18.48Zm1.53-2.9h.54l-.62-1.73h-1.19l.46-1.32h1.64l2.08,6h-1.35l-.56-1.58h-1.46Z"/><path class="cls-48" d="M220.56,80.31v6h-1.43v-6Zm.41,1.32V80.31h2.62l.5.59v4.75l-.5.61H221V84.94h1.68V81.63Z"/><path class="cls-49" d="M224.91,86.26v-6h1.44v6Z"/><path class="cls-50" d="M227.17,86.26v-6h1.44v6ZM229,81.63V80.31h2.55l.49.59v2.72l-.49.61H229V82.91h1.61V81.63Z"/><path class="cls-51" d="M232.8,86.26v-6h1.44v6Z"/><path class="cls-52" d="M235.47,80.31h1.83v1.32h-.89v.78l3.42.34.33.54v2.37l-.49.6h-1.95V84.94h1V84l-3.29-.32-.46-.57V80.91Zm.94,4.63h.89v1.32h-1.83l-.49-.59V84.34h1.43Zm1.3-3.31V80.31h2l.49.59v1.3h-1.43v-.57Z"/><path class="cls-53" d="M241.4,80.31h1.83v1.32h-.89v3.31h.89v1.32H241.4l-.49-.62V80.91Zm2.24,1.32V80.31h1.84l.5.59v1.61h-1.31v-.88Zm0,4.63V84.94h1v-.87H246v1.58l-.5.61Z"/><path class="cls-54" d="M246.68,86.26v-6h1.43v6Z"/><path class="cls-55" d="M252.8,86.28l-2.43-4.65h-1.43V80.31h2.32l2.36,4.63h1.43v1.34Zm-2.43-3.52v3.5h-1.43V82H250Zm3.25,1.09V80.31h1.43v4.22H254Z"/><path class="cls-56" d="M257.31,84.94h.95v1.32h-1.89l-.49-.62V80.91l.49-.6h1.89v1.32h-.95Zm3.77.71-.49.61h-1.92V84.94h1.06V84h-1.15V82.64h2.5Zm-2.41-4V80.31h1.92l.49.59v1.27h-1.31v-.54Z"/><path class="cls-57" d="M263.89,86.26v-6h1.43v6Zm1.84-4.63V80.31h2.76v1.32Zm0,2.27V82.58h2.11V83.9Zm0,2.36V84.94h2.76v1.32Z"/><path class="cls-58" d="M269.11,86.26v-6h1.44v6Zm1.85,0V84.94h2.78v1.32Z"/><path class="cls-59" d="M274.32,86.26v-6h1.43v6Z"/><path class="cls-60" d="M276.33,80.31h5.37v1.32h-5.37Zm2,6V82h1.43v4.22Z"/><path class="cls-61" d="M282.12,87.22h0v-1h-.67V84.94h1.43v1.32Z"/><path class="cls-62" d="M285.9,80.31h1.82v1.32h-.88v.78l3.41.34.34.54v2.37l-.49.6h-2V84.94h1V84l-3.29-.32-.46-.57V80.91Zm.94,4.63h.88v1.32H285.9l-.49-.59V84.34h1.43Zm1.29-3.31V80.31h2l.49.59v1.3h-1.43v-.57Z"/><path class="cls-63" d="M291.33,86.26v-6h1.44v6Zm1.85-4.63V80.31h2.76v1.32Zm0,2.27V82.58h2.11V83.9Zm0,2.36V84.94h2.76v1.32Z"/><path class="cls-64" d="M298,80.31v6h-1.43v-6Zm.42,1.32V80.31H301l.49.59v4.75l-.49.61h-2.62V84.94h1.68V81.63Z"/><path class="cls-65" d="M305.84,80.31v6h-1.43v-6Zm.42,1.32V80.31h2.62l.49.59v4.75l-.49.61h-2.62V84.94h1.68V81.63Z"/><path class="cls-66" d="M310.69,80.31h1.83v1.32h-.89v3.31h.89v1.32h-1.83l-.49-.62V80.91Zm2.24,1.32V80.31h1.84l.5.59v4.75l-.5.61h-1.84V84.94h1V81.63Z"/><path class="cls-67" d="M318.15,86.26v-6h1.44v6ZM320,81.63V80.31h2.76v1.32Zm0,2.27V82.58h2.11V83.9Zm0,2.36V84.94h2.76v1.32Z"/><path class="cls-68" d="M323.38,86.26v-6h1.43v6Z"/><path class="cls-69" d="M328.09,84.94v1.32h-2l-.49-.62V80.31h1.43v4.63Zm2.51,1.32h-2.1V84.94h1.16V80.31h1.43v5.34Z"/><path class="cls-70" d="M332.33,80.31h1.83v1.32h-.89v.78l3.42.34.33.54v2.37l-.49.6h-1.95V84.94h1V84l-3.29-.32-.46-.57V80.91Zm.94,4.63h.89v1.32h-1.83l-.49-.59V84.34h1.43Zm1.3-3.31V80.31h2l.49.59v1.3h-1.43v-.57Z"/><path class="cls-71" d="M342,85.07l-.2.49h-1.06l-1.57-3.93h-1.43V80.31h2.4Zm-2.83-2.29v3.48h-1.43V82h1.06Zm2.3-.11.92-2.36h2.41v6H343.4V81.63l-1.17,2.92Z"/><path class="cls-72" d="M346.15,80.31H348v1.32h-.89v3.31H348v1.32h-1.83l-.49-.62V80.91Zm2.25,1.32V80.31h1.83l.5.59v4.75l-.5.61H348.4V84.94h1V81.63Z"/><path class="cls-73" d="M353,80.31v6h-1.44v-6Zm.41,1.32V80.31H356l.5.59v4.75l-.5.61H353.4V84.94h1.68V81.63Z"/><path class="cls-74" d="M359.16,80.31h5.37v1.32h-5.37Zm2,6V82h1.44v4.22Z"/><path class="cls-75" d="M365.11,86.26v-6h1.43v6ZM367,81.63V80.31h2.76v1.32Zm0,2.27V82.58h2.11V83.9Zm0,2.36V84.94h2.76v1.32Z"/><path class="cls-76" d="M374.6,85.07l-.2.49h-1.06l-1.57-3.93h-1.43V80.31h2.4Zm-2.83-2.29v3.48h-1.43V82h1.06Zm2.3-.11.92-2.36h2.41v6H376V81.63l-1.16,2.92Z"/><path class="cls-77" d="M378.23,86.26v-6h1.43v6Zm1.84-4.63V80.31h2.55l.49.59v2.72l-.49.61h-2.55V82.91h1.61V81.63Z"/><path class="cls-78" d="M384.35,80.31h1.83v1.32h-.89v3.31h.89v1.32h-1.83l-.49-.62V80.91Zm2.24,1.32V80.31h1.84l.5.59v4.75l-.5.61h-1.84V84.94h1V81.63Z"/><path class="cls-79" d="M389.75,86.26v-6h1.44v6Zm1.85-4.63V80.31h2.55l.49.59v2.39l-.41.51.55,2.46h-1.43l-.48-2H391.6V82.91h1.61V81.63Z"/><path class="cls-80" d="M397.53,86.26v-6H399v6Z"/><path class="cls-81" d="M403.64,86.28l-2.42-4.65h-1.43V80.31h2.32l2.36,4.63h1.43v1.34Zm-2.42-3.52v3.5h-1.43V82h1Zm3.25,1.09V80.31h1.43v4.22h-1.07Z"/><path class="cls-82" d="M407.22,80.31h1.83v1.32h-.89v3.31h.89v1.32h-1.83l-.49-.62V80.91Zm2.25,1.32V80.31h1.83l.5.59v1.61h-1.31v-.88Zm0,4.63V84.94h1v-.87h1.31v1.58l-.5.61Z"/><path class="cls-83" d="M412.5,86.26v-6h1.43v6Z"/><path class="cls-84" d="M416.19,80.31v6h-1.43v-6Zm.42,1.32V80.31h2.62l.49.59v4.75l-.49.61h-2.62V84.94h1.68V81.63Z"/><path class="cls-85" d="M420.55,86.26v-6H422v6Z"/><path class="cls-86" d="M424.24,80.31v6h-1.43v-6Zm.41,1.32V80.31h2.62l.5.59v4.75l-.5.61h-2.62V84.94h1.68V81.63Z"/><path class="cls-87" d="M431,84.94v1.32h-2l-.5-.62V80.31H430v4.63Zm2.51,1.32h-2.1V84.94h1.17V80.31h1.43v5.34Z"/><path class="cls-88" d="M438.73,86.28l-2.42-4.65h-1.43V80.31h2.32l2.36,4.63H441v1.34Zm-2.42-3.52v3.5h-1.43V82h1.05Zm3.25,1.09V80.31H441v4.22h-1.07Z"/><path class="cls-89" d="M441.57,80.31h5.37v1.32h-5.37Zm2,6V82H445v4.22Z"/><path class="cls-90" d="M213.32,97.66v-6h1.43v6Zm1.84,0V96.35h2.78v1.31Z"/><path class="cls-91" d="M219,91.71h1.83V93H220v3.32h.89v1.31H219l-.49-.61V92.32ZM221.25,93V91.71h1.84l.5.6v4.75l-.5.6h-1.84V96.35h1V93Z"/><path class="cls-92" d="M224.41,97.66v-6h1.44v6ZM226.26,93V91.71h2.55l.49.6V94.7l-.41.51.55,2.45H228l-.48-2h-1.27V94.32h1.61V93Z"/><path class="cls-93" d="M230.13,97.66v-6h1.43v6ZM232,93V91.71h2.76V93Zm0,2.28V94h2.11v1.32Zm0,2.35V96.35h2.76v1.31Z"/><path class="cls-94" d="M239.61,96.48l-.19.48h-1.07L236.79,93h-1.44V91.71h2.41Zm-2.82-2.3v3.48h-1.44V93.45h1.07Zm2.3-.11.92-2.36h2.41v6H241V93L239.82,96Z"/><path class="cls-95" d="M245.31,97.66v-6h1.43v6Z"/><path class="cls-96" d="M247.56,97.66v-6H249v6ZM249.41,93V91.71H252l.49.6V95l-.49.61h-2.55V94.32H251V93Z"/><path class="cls-97" d="M253.61,91.71h1.82V93h-.88v.79l3.41.33.34.54v2.37l-.5.6h-2V96.35h1v-.91l-3.28-.31-.47-.57V92.32Zm.94,4.64h.88v1.31h-1.82l-.5-.59V95.74h1.44ZM255.84,93V91.71h2l.5.6V93.6h-1.44V93Z"/><path class="cls-98" d="M261.49,96.35v1.31h-2l-.49-.61V91.71h1.44v4.64ZM264,97.66h-2.1V96.35h1.16V91.71h1.44v5.35Z"/><path class="cls-99" d="M269.58,96.48l-.19.48h-1.07L266.76,93h-1.44V91.71h2.41Zm-2.82-2.3v3.48h-1.44V93.45h1.07Zm2.3-.11.92-2.36h2.41v6H271V93L269.79,96Z"/><path class="cls-100" d="M276.71,91.71v6h-1.43v-6Zm.41,1.32V91.71h2.62l.5.6v4.75l-.5.6h-2.62V96.35h1.68V93Z"/><path class="cls-101" d="M281.56,91.71h1.83V93h-.89v3.32h.89v1.31h-1.83l-.5-.61V92.32ZM283.8,93V91.71h1.84l.49.6v4.75l-.49.6H283.8V96.35h1V93Z"/><path class="cls-102" d="M287,97.66v-6h1.43v6Zm1.85,0V96.35h2.77v1.31Z"/><path class="cls-103" d="M292.66,91.71h1.83V93h-.89v3.32h.89v1.31h-1.83l-.5-.61V92.32ZM294.9,93V91.71h1.84l.49.6v4.75l-.49.6H294.9V96.35h1V93Z"/><path class="cls-104" d="M298.06,97.66v-6h1.43v6ZM299.9,93V91.71h2.55l.49.6V94.7l-.41.51.55,2.45h-1.42l-.49-2H299.9V94.32h1.61V93Z"/><path class="cls-105" d="M306.24,91.71h1.83V93h-.89v.79l3.41.33.34.54v2.37l-.49.6h-1.95V96.35h1v-.91l-3.29-.31-.46-.57V92.32Zm.94,4.64h.89v1.31h-1.83l-.49-.59V95.74h1.43Zm1.3-3.32V91.71h2l.49.6V93.6H309.5V93Z"/><path class="cls-106" d="M311.68,97.66v-6h1.43v6Z"/><path class="cls-107" d="M313.69,91.71h5.37V93h-5.37Zm2,6V93.45h1.43v4.21Z"/><path class="cls-108" d="M322.66,97.66h-1.37l1.48-4.21h1l.18.47Zm1.53-2.9h.54L324.11,93h-1.19l.46-1.32H325l2.08,6h-1.35l-.56-1.58h-1.46Z"/><path class="cls-109" d="M331.78,96.48l-.2.48h-1.07L329,93h-1.43V91.71h2.4ZM329,94.18v3.48h-1.43V93.45h1.06Zm2.3-.11.92-2.36h2.41v6h-1.44V93L332,96Z"/><path class="cls-110" d="M335.41,97.66v-6h1.43v6ZM337.25,93V91.71H340V93Zm0,2.28V94h2.11v1.32Zm0,2.35V96.35H340v1.31Z"/><path class="cls-111" d="M340.39,91.71h5.37V93h-5.37Zm2,6V93.45h1.44v4.21Z"/><path class="cls-112" d="M346.18,98.62h0v-1h-.68V96.35h1.44v1.31Z"/><path class="cls-113" d="M350,91.71h1.83V93H351v3.32h.89v1.31H350l-.49-.61V92.32ZM352.28,93V91.71h1.84l.5.6v1.61H353.3V93Zm0,4.63V96.35h1v-.88h1.32v1.59l-.5.6Z"/><path class="cls-114" d="M355.81,91.71h1.83V93h-.89v3.32h.89v1.31h-1.83l-.49-.61V92.32ZM358.05,93V91.71h1.84l.5.6v4.75l-.5.6h-1.84V96.35h1V93Z"/><path class="cls-115" d="M365.07,97.69,362.65,93h-1.44V91.71h2.33l2.35,4.64h1.44v1.34Zm-2.42-3.53v3.5h-1.44V93.45h1.06Zm3.24,1.1V91.71h1.44v4.22h-1.07Z"/><path class="cls-116" d="M368.57,91.71h1.82V93h-.88v.79l3.41.33.34.54v2.37l-.5.6h-1.95V96.35h1v-.91l-3.28-.31-.47-.57V92.32Zm.94,4.64h.88v1.31h-1.82l-.5-.59V95.74h1.44ZM370.8,93V91.71h2l.5.6V93.6h-1.44V93Z"/><path class="cls-117" d="M374,97.66v-6h1.44v6ZM375.85,93V91.71h2.76V93Zm0,2.28V94H378v1.32Zm0,2.35V96.35h2.76v1.31Z"/><path class="cls-118" d="M379.72,91.71h1.83V93h-.89v3.32h.89v1.31h-1.83l-.49-.61V92.32ZM382,93V91.71h1.84l.5.6v1.61H383V93Zm0,4.63V96.35h1v-.88h1.31v1.59l-.5.6Z"/><path class="cls-119" d="M384.75,91.71h5.37V93h-5.37Zm2,6V93.45h1.43v4.21Z"/><path class="cls-120" d="M390.71,97.66v-6h1.43v6ZM392.55,93V91.71h2.76V93Zm0,2.28V94h2.11v1.32Zm0,2.35V96.35h2.76v1.31Z"/><path class="cls-121" d="M395.69,91.71h5.37V93h-5.37Zm2,6V93.45h1.44v4.21Z"/><path class="cls-122" d="M404.09,96.35v1.31h-2l-.49-.61V91.71h1.43v4.64Zm2.51,1.31h-2.1V96.35h1.16V91.71h1.43v5.35Z"/><path class="cls-123" d="M407.92,97.66v-6h1.43v6ZM409.77,93V91.71h2.54l.5.6V94.7l-.41.51.55,2.45h-1.43l-.48-2h-1.27V94.32h1.6V93Z"/><path class="cls-124" d="M214.27,107.56H212.9l1.48-4.22h1l.18.48Zm1.53-2.9h.54l-.62-1.73h-1.19l.46-1.32h1.64l2.08,6h-1.35L216.8,106h-1.46Z"/><path class="cls-125" d="M220.56,101.61v6h-1.43v-6Zm.41,1.32v-1.32h2.62l.5.59V107l-.5.61H221v-1.32h1.68v-3.31Z"/><path class="cls-126" d="M224.91,107.56v-6h1.44v6Z"/><path class="cls-127" d="M227.17,107.56v-6h1.44v6Zm1.85-4.63v-1.32h2.55l.49.59v2.72l-.49.61H229v-1.32h1.61v-1.28Z"/><path class="cls-128" d="M232.8,107.56v-6h1.44v6Z"/><path class="cls-129" d="M235.47,101.61h1.83v1.32h-.89v.78l3.42.34.33.53V107l-.49.6h-1.95v-1.32h1v-.91l-3.29-.31-.46-.57v-2.24Zm.94,4.63h.89v1.32h-1.83L235,107v-1.33h1.43Zm1.3-3.31v-1.32h2l.49.59v1.3h-1.43v-.57Z"/><path class="cls-130" d="M241.4,101.61h1.83v1.32h-.89v3.31h.89v1.32H241.4l-.49-.62v-4.73Zm2.24,1.32v-1.32h1.84l.5.59v1.61h-1.31v-.88Zm0,4.63v-1.32h1v-.87H246V107l-.5.61Z"/><path class="cls-131" d="M246.68,107.56v-6h1.43v6Z"/><path class="cls-132" d="M252.8,107.58l-2.43-4.65h-1.43v-1.32h2.32l2.36,4.63h1.43v1.34Zm-2.43-3.52v3.5h-1.43v-4.22H250Zm3.25,1.09v-3.54h1.43v4.22H254Z"/><path class="cls-133" d="M257.31,106.24h.95v1.32h-1.89l-.49-.62v-4.73l.49-.6h1.89v1.32h-.95Zm3.77.71-.49.61h-1.92v-1.32h1.06v-1h-1.15v-1.32h2.5Zm-2.41-4v-1.32h1.92l.49.59v1.27h-1.31v-.54Z"/><path class="cls-134" d="M263.89,107.56v-6h1.43v6Zm1.84-4.63v-1.32h2.76v1.32Zm0,2.27v-1.32h2.11v1.32Zm0,2.36v-1.32h2.76v1.32Z"/><path class="cls-135" d="M269.11,107.56v-6h1.44v6Zm1.85,0v-1.32h2.78v1.32Z"/><path class="cls-136" d="M274.32,107.56v-6h1.43v6Z"/><path class="cls-137" d="M276.33,101.61h5.37v1.32h-5.37Zm2,6v-4.22h1.43v4.22Z"/><path class="cls-138" d="M282.12,108.51h0v-1h-.67v-1.32h1.43v1.32Z"/><path class="cls-139" d="M285.9,101.61h1.82v1.32h-.88v.78l3.41.34.34.53V107l-.49.6h-2v-1.32h1v-.91l-3.29-.31-.46-.57v-2.24Zm.94,4.63h.88v1.32H285.9l-.49-.59v-1.33h1.43Zm1.29-3.31v-1.32h2l.49.59v1.3h-1.43v-.57Z"/><path class="cls-140" d="M291.33,107.56v-6h1.44v6Zm1.85-4.63v-1.32h2.76v1.32Zm0,2.27v-1.32h2.11v1.32Zm0,2.36v-1.32h2.76v1.32Z"/><path class="cls-141" d="M298,101.61v6h-1.43v-6Zm.42,1.32v-1.32H301l.49.59V107l-.49.61h-2.62v-1.32h1.68v-3.31Z"/><path class="cls-142" d="M305.84,101.61v6h-1.43v-6Zm.42,1.32v-1.32h2.62l.49.59V107l-.49.61h-2.62v-1.32h1.68v-3.31Z"/><path class="cls-143" d="M310.69,101.61h1.83v1.32h-.89v3.31h.89v1.32h-1.83l-.49-.62v-4.73Zm2.24,1.32v-1.32h1.84l.5.59V107l-.5.61h-1.84v-1.32h1v-3.31Z"/><path class="cls-144" d="M318.15,107.56v-6h1.44v6Zm1.85-4.63v-1.32h2.76v1.32Zm0,2.27v-1.32h2.11v1.32Zm0,2.36v-1.32h2.76v1.32Z"/><path class="cls-145" d="M323.38,107.56v-6h1.43v6Z"/><path class="cls-146" d="M328.09,106.24v1.32h-2l-.49-.62v-5.33h1.43v4.63Zm2.51,1.32h-2.1v-1.32h1.16v-4.63h1.43V107Z"/><path class="cls-147" d="M332.33,101.61h1.83v1.32h-.89v.78l3.42.34.33.53V107l-.49.6h-1.95v-1.32h1v-.91L332.3,105l-.46-.57v-2.24Zm.94,4.63h.89v1.32h-1.83l-.49-.59v-1.33h1.43Zm1.3-3.31v-1.32h2l.49.59v1.3h-1.43v-.57Z"/><path class="cls-148" d="M342,106.37l-.2.49h-1.06l-1.57-3.93h-1.43v-1.32h2.4Zm-2.83-2.3v3.49h-1.43v-4.22h1.06Zm2.3-.1.92-2.36h2.41v6H343.4v-4.63l-1.17,2.92Z"/><path class="cls-149" d="M346.15,101.61H348v1.32h-.89v3.31H348v1.32h-1.83l-.49-.62v-4.73Zm2.25,1.32v-1.32h1.83l.5.59V107l-.5.61H348.4v-1.32h1v-3.31Z"/><path class="cls-150" d="M353,101.61v6h-1.44v-6Zm.41,1.32v-1.32H356l.5.59V107l-.5.61H353.4v-1.32h1.68v-3.31Z"/><path class="cls-151" d="M218.8,175h-.23L196,152.39l-.17-.17L195.94,85,160.17,49.16,160,49l.05-46.51,101.19.11h.23L272.7,13.84c5.16.51,127.73.33,192.46.16h.56l0,23.5,23.73,23.78.17.17-.11,96.87-28.42,0-17,16.92Zm269.57-17.78.1-95.28L464.74,38.13l-.17-.17,0-22.83c-5.55,0-50.78.13-95.55.16-96.42.08-96.73-.23-97-.53l-11-11-99.82-.11-.05,44.91L196.9,84.37l.17.17L197,151.76l22,22.09,224.61.23,17-16.92Z"/><polygon class="cls-152" points="483.42 65.64 464.19 46.37 464.18 58.29 483.22 77.37 483.42 65.64"/><polygon class="cls-153" points="483.39 85.64 464.17 66.37 464.15 78.29 483.19 97.37 483.39 85.64"/><polygon class="cls-154" points="483.37 105.64 464.15 86.37 464.13 98.29 483.17 117.37 483.37 105.64"/><polygon class="cls-155" points="483.35 125.64 464.13 106.37 464.11 118.29 483.15 137.37 483.35 125.64"/><polygon class="cls-156" points="464.11 126.37 464.1 138.29 480.21 154.45 483.18 154.46 483.33 145.63 464.11 126.37"/><polygon class="cls-157" points="464.09 146.37 464.08 154.44 472.15 154.44 464.09 146.37"/><path class="cls-158" d="M480.54,53.17h7.25l5.63,5.64,0,32.95s-3.63,4.19-3.91,3.91,0-34.4,0-34.4Z"/><path class="cls-159" d="M472.82,158l-3.43,3.42s-8.31,0-8.36,0-9.54,9.52-9.54,9.52h-4.71v-3.29l6.05-6h4.26l3.51-3.5Z"/><polygon class="cls-160" points="455.79 152.48 456.59 151.69 444.21 139.28 443.97 139.28 211.47 139.03 203.26 147.23 204.05 148.03 211.94 140.16 443.74 140.41 455.79 152.48"/><polygon class="cls-161" points="447.58 143.46 379.25 143.39 375.13 139.25 443.69 139.32 447.58 143.46"/><path class="cls-162" d="M266.79,8.72V5.32L261.52,0,231.17,0s-3.23,2.66-2.95,2.94,33.46,0,33.46,0Z"/><polygon class="cls-163" points="442.73 183.9 442.73 182.77 212.55 182.53 187.84 157.77 187.91 90.45 187.74 90.28 154.23 56.7 154 56.7 109.91 56.66 109.74 56.82 72.33 94.15 38.56 94.11 38.55 95.24 72.8 95.28 72.97 95.11 110.37 57.78 153.77 57.83 186.78 90.91 186.71 158.23 186.88 158.4 212.08 183.66 212.32 183.66 442.73 183.9"/><rect class="cls-164" x="6.16" y="90.69" width="21.83" height="6.95" transform="translate(34.06 188.34) rotate(-179.94)"/><path class="cls-165" d="M0,103,0,85.31l34.14,0,0,17.66Zm1.62-16v14.45l30.92,0,0-14.45Z"/><path class="cls-166" d="M334.75,183.22l3.9,3.9,80.7.09s4.18-3.78,3.78-3.78Z"/><polygon class="cls-167" points="259.56 33.2 270.09 22.69 459.95 22.89 459.95 21.77 269.62 21.57 259.1 32.07 166.56 31.97 166.56 33.1 259.56 33.2"/><polygon class="cls-168" points="265.24 17.29 255.88 7.91 244.75 7.9 244.73 28.75 257.06 28.76 266.78 19.05 265.24 17.29"/><rect class="cls-169" x="225.12" y="7.89" width="13.19" height="20.84" transform="translate(463.41 36.86) rotate(-179.94)"/><rect class="cls-170" x="205.82" y="7.87" width="13.19" height="20.84" transform="translate(424.82 36.8) rotate(-179.94)"/><rect class="cls-171" x="186.53" y="7.85" width="13.19" height="20.84" transform="translate(386.23 36.74) rotate(-179.94)"/><rect class="cls-172" x="167.23" y="7.83" width="13.19" height="20.84" transform="translate(347.64 36.68) rotate(-179.94)"/><g class="cls-173"><polygon class="cls-174" points="207.65 152.62 215.38 144.89 373.52 144.89 377.35 148.72 444.95 148.72 451.02 154.79 451.02 157.98 444.44 164.56 444.44 167.59 441.78 170.25 219.32 170.25 204.75 155.68 207.65 152.62"/></g><polygon class="cls-175" points="107.85 68 114.39 61.46 151.52 61.46 161.89 71.82 161.89 74.78 159.41 74.78 159.41 71.39 151.13 63.11 129.61 63.11 128.27 64.45 116.13 64.45 113.21 67.37 107.85 68"/><path class="cls-176" d="M111.79,55.19,114,52.94H139.3l.95-.94h9.07s3.35,3.4,3.41,3.4H111.56Z"/><polyline class="cls-177" points="181.21 88.85 184.36 92 184.36 97.17 181.21 89.01"/><polygon class="cls-178" points="64.39 92.54 71.77 92.54 77.12 87.19 64.39 92.54"/><polygon class="cls-179" points="469.62 33.94 468.99 33.94 468.99 8.71 437.98 8.71 435.08 11.62 434.63 11.17 437.72 8.09 469.62 8.09 469.62 33.94"/><polygon class="cls-180" points="465.21 8.4 469.4 12.59 469.4 8.27 465.21 8.4"/><polygon class="cls-181" points="163.7 36.86 163.7 46.91 178.78 61.99 178.78 60.31 165.23 46.76 165.23 42.46 165.91 41.78 165.91 35.6 163.7 36.86"/><polygon class="cls-182" points="198.86 124.33 198.86 146.91 206.85 138.93 204.93 138.93 200.81 143.06 200.05 142.3 200.05 126.84 198.86 124.33"/><polygon class="cls-183" points="184.04 150.62 184.04 158.3 191.08 165.34 189.17 165.34 183.13 159.3 183.13 144.89 182.13 143.9 182.13 130.28 185.14 133.28 185.14 148.13 184.04 150.62"/><polygon class="cls-184" points="476.34 167.33 459.8 167.33 459.8 166.7 476.07 166.7 481.14 161.63 481.59 162.07 476.34 167.33"/></g></g></svg>