<svg xmlns="http://www.w3.org/2000/svg" xmlns:xlink="http://www.w3.org/1999/xlink" viewBox="0 0 495.04 153.75"><defs><style>.cls-1{fill:url(#New_Gradient_Swatch_2);}.cls-2{opacity:0.22;}.cls-3{fill:url(#New_Gradient_Swatch_2-2);}.cls-4{fill:url(#New_Gradient_Swatch_2-3);}.cls-5{fill:url(#New_Gradient_Swatch_2-4);}.cls-6{fill:url(#New_Gradient_Swatch_2-5);}.cls-7{fill:url(#New_Gradient_Swatch_2-6);}.cls-8{fill:url(#New_Gradient_Swatch_2-7);}.cls-9{fill:url(#New_Gradient_Swatch_2-8);}.cls-10{fill:url(#New_Gradient_Swatch_2-9);}.cls-11{fill:url(#New_Gradient_Swatch_2-10);}.cls-12{fill:url(#New_Gradient_Swatch_2-11);}.cls-13{fill:url(#New_Gradient_Swatch_2-12);}.cls-14{fill:url(#New_Gradient_Swatch_2-13);}.cls-15{fill:url(#New_Gradient_Swatch_2-14);}.cls-16{fill:url(#New_Gradient_Swatch_2-15);}.cls-17{fill:url(#New_Gradient_Swatch_2-16);}.cls-18{fill:url(#New_Gradient_Swatch_2-17);}.cls-19{fill:url(#New_Gradient_Swatch_2-18);}.cls-20{fill:url(#New_Gradient_Swatch_2-19);}.cls-21{fill:url(#New_Gradient_Swatch_2-20);}.cls-22{fill:url(#New_Gradient_Swatch_2-21);}.cls-23{fill:url(#New_Gradient_Swatch_2-22);}.cls-24{fill:url(#New_Gradient_Swatch_2-23);}.cls-25{fill:url(#New_Gradient_Swatch_2-24);}.cls-26{fill:url(#New_Gradient_Swatch_2-25);}.cls-27{fill:url(#New_Gradient_Swatch_2-26);}.cls-28{fill:url(#New_Gradient_Swatch_2-27);}.cls-29{fill:url(#New_Gradient_Swatch_2-28);}.cls-30{fill:url(#New_Gradient_Swatch_2-29);}.cls-31{fill:url(#New_Gradient_Swatch_2-30);}.cls-32{fill:url(#New_Gradient_Swatch_2-31);}.cls-33{fill:url(#New_Gradient_Swatch_2-32);}.cls-34{fill:url(#New_Gradient_Swatch_2-33);}.cls-35{fill:url(#New_Gradient_Swatch_2-34);}.cls-36{fill:url(#New_Gradient_Swatch_2-35);}.cls-37{fill:url(#New_Gradient_Swatch_2-36);}.cls-38{fill:url(#New_Gradient_Swatch_2-37);}.cls-39{fill:url(#New_Gradient_Swatch_2-38);}.cls-40{fill:url(#New_Gradient_Swatch_2-39);}.cls-41{fill:url(#New_Gradient_Swatch_2-40);}.cls-42{fill:url(#New_Gradient_Swatch_2-41);}.cls-43{fill:url(#New_Gradient_Swatch_2-42);}.cls-44{fill:url(#New_Gradient_Swatch_2-43);}.cls-45{fill:url(#New_Gradient_Swatch_2-44);}.cls-46{fill:url(#New_Gradient_Swatch_2-45);}.cls-47{fill:url(#New_Gradient_Swatch_2-46);}.cls-48{fill:url(#New_Gradient_Swatch_2-47);}.cls-49{fill:url(#New_Gradient_Swatch_2-48);}.cls-50{fill:url(#New_Gradient_Swatch_2-49);}.cls-51{fill:url(#New_Gradient_Swatch_2-50);}.cls-52{fill:url(#New_Gradient_Swatch_2-51);}.cls-53{fill:url(#New_Gradient_Swatch_2-52);}.cls-54{fill:url(#New_Gradient_Swatch_2-53);}.cls-55{fill:url(#New_Gradient_Swatch_2-54);}.cls-56{fill:url(#New_Gradient_Swatch_2-55);}.cls-57{fill:url(#New_Gradient_Swatch_2-56);}.cls-58{fill:url(#New_Gradient_Swatch_2-57);}.cls-59{fill:url(#New_Gradient_Swatch_2-58);}.cls-60{fill:url(#New_Gradient_Swatch_2-59);}.cls-61{fill:url(#New_Gradient_Swatch_2-60);}.cls-62{fill:url(#New_Gradient_Swatch_2-61);}.cls-63{fill:url(#New_Gradient_Swatch_2-62);}.cls-64{fill:url(#New_Gradient_Swatch_2-63);}.cls-65{fill:url(#New_Gradient_Swatch_2-64);}</style><linearGradient id="New_Gradient_Swatch_2" x1="2.85" y1="38.57" x2="387.81" y2="38.57" gradientUnits="userSpaceOnUse"><stop offset="0" stop-color="#9541de"/><stop offset="1" stop-color="#3ab2c0"/></linearGradient><linearGradient id="New_Gradient_Swatch_2-2" x1="3.16" y1="46.84" x2="381.01" y2="46.84" xlink:href="#New_Gradient_Swatch_2"/><linearGradient id="New_Gradient_Swatch_2-3" x1="198.58" y1="3.16" x2="204.9" y2="3.16" xlink:href="#New_Gradient_Swatch_2"/><linearGradient id="New_Gradient_Swatch_2-4" x1="377.85" y1="72.93" x2="384.17" y2="72.93" xlink:href="#New_Gradient_Swatch_2"/><linearGradient id="New_Gradient_Swatch_2-5" x1="179.11" y1="3.16" x2="185.44" y2="3.16" xlink:href="#New_Gradient_Swatch_2"/><linearGradient id="New_Gradient_Swatch_2-6" x1="159.65" y1="3.16" x2="165.97" y2="3.16" xlink:href="#New_Gradient_Swatch_2"/><linearGradient id="New_Gradient_Swatch_2-7" x1="140.19" y1="3.16" x2="146.51" y2="3.16" xlink:href="#New_Gradient_Swatch_2"/><linearGradient id="New_Gradient_Swatch_2-8" x1="120.72" y1="3.16" x2="127.05" y2="3.16" xlink:href="#New_Gradient_Swatch_2"/><linearGradient id="New_Gradient_Swatch_2-9" x1="101.26" y1="3.16" x2="107.58" y2="3.16" xlink:href="#New_Gradient_Swatch_2"/><linearGradient id="New_Gradient_Swatch_2-10" x1="81.79" y1="3.16" x2="88.12" y2="3.16" xlink:href="#New_Gradient_Swatch_2"/><linearGradient id="New_Gradient_Swatch_2-11" x1="62.33" y1="3.16" x2="68.65" y2="3.16" xlink:href="#New_Gradient_Swatch_2"/><linearGradient id="New_Gradient_Swatch_2-12" x1="42.87" y1="3.16" x2="49.19" y2="3.16" xlink:href="#New_Gradient_Swatch_2"/><linearGradient id="New_Gradient_Swatch_2-13" x1="23.4" y1="3.16" x2="29.73" y2="3.16" xlink:href="#New_Gradient_Swatch_2"/><linearGradient id="New_Gradient_Swatch_2-14" x1="0" y1="27.08" x2="6.32" y2="27.08" xlink:href="#New_Gradient_Swatch_2"/><linearGradient id="New_Gradient_Swatch_2-15" x1="3.07" y1="66.16" x2="192.8" y2="66.16" xlink:href="#New_Gradient_Swatch_2"/><linearGradient id="New_Gradient_Swatch_2-16" x1="362.73" y1="10.15" x2="391.95" y2="10.15" xlink:href="#New_Gradient_Swatch_2"/><linearGradient id="New_Gradient_Swatch_2-17" x1="156.18" y1="76.03" x2="256.16" y2="76.03" xlink:href="#New_Gradient_Swatch_2"/><linearGradient id="New_Gradient_Swatch_2-18" x1="204.46" y1="108.49" x2="486.14" y2="108.49" xlink:href="#New_Gradient_Swatch_2"/><linearGradient id="New_Gradient_Swatch_2-19" x1="487.61" y1="114.36" x2="495.04" y2="114.36" xlink:href="#New_Gradient_Swatch_2"/><linearGradient id="New_Gradient_Swatch_2-20" x1="204.85" y1="99.2" x2="218.04" y2="99.2" xlink:href="#New_Gradient_Swatch_2"/><linearGradient id="New_Gradient_Swatch_2-21" x1="240.78" y1="134.77" x2="278.16" y2="134.77" xlink:href="#New_Gradient_Swatch_2"/><linearGradient id="New_Gradient_Swatch_2-22" x1="259.47" y1="50.63" x2="266.93" y2="50.63" xlink:href="#New_Gradient_Swatch_2"/><linearGradient id="New_Gradient_Swatch_2-23" x1="272.51" y1="49.88" x2="279.97" y2="49.88" xlink:href="#New_Gradient_Swatch_2"/><linearGradient id="New_Gradient_Swatch_2-24" x1="285.54" y1="66.3" x2="293.01" y2="66.3" xlink:href="#New_Gradient_Swatch_2"/><linearGradient id="New_Gradient_Swatch_2-25" x1="298.58" y1="54.49" x2="306.04" y2="54.49" xlink:href="#New_Gradient_Swatch_2"/><linearGradient id="New_Gradient_Swatch_2-26" x1="311.61" y1="60.55" x2="319.08" y2="60.55" xlink:href="#New_Gradient_Swatch_2"/><linearGradient id="New_Gradient_Swatch_2-27" x1="324.65" y1="49.21" x2="332.12" y2="49.21" xlink:href="#New_Gradient_Swatch_2"/><linearGradient id="New_Gradient_Swatch_2-28" x1="337.69" y1="50.7" x2="345.15" y2="50.7" xlink:href="#New_Gradient_Swatch_2"/><linearGradient id="New_Gradient_Swatch_2-29" x1="350.72" y1="61.17" x2="358.19" y2="61.17" xlink:href="#New_Gradient_Swatch_2"/><linearGradient id="New_Gradient_Swatch_2-30" x1="363.76" y1="65.18" x2="371.22" y2="65.18" xlink:href="#New_Gradient_Swatch_2"/><linearGradient id="New_Gradient_Swatch_2-31" x1="250.77" y1="125.43" x2="356.93" y2="125.43" xlink:href="#New_Gradient_Swatch_2"/><linearGradient id="New_Gradient_Swatch_2-32" x1="368.87" y1="108.32" x2="426.72" y2="108.32" xlink:href="#New_Gradient_Swatch_2"/><linearGradient id="New_Gradient_Swatch_2-33" x1="313.11" y1="131.19" x2="448.13" y2="131.19" xlink:href="#New_Gradient_Swatch_2"/><linearGradient id="New_Gradient_Swatch_2-34" x1="357.94" y1="120.3" x2="370.55" y2="120.3" xlink:href="#New_Gradient_Swatch_2"/><linearGradient id="New_Gradient_Swatch_2-35" x1="367.61" y1="120.3" x2="380.22" y2="120.3" xlink:href="#New_Gradient_Swatch_2"/><linearGradient id="New_Gradient_Swatch_2-36" x1="377.28" y1="120.3" x2="389.89" y2="120.3" xlink:href="#New_Gradient_Swatch_2"/><linearGradient id="New_Gradient_Swatch_2-37" x1="386.95" y1="120.3" x2="399.56" y2="120.3" xlink:href="#New_Gradient_Swatch_2"/><linearGradient id="New_Gradient_Swatch_2-38" x1="396.62" y1="120.3" x2="409.24" y2="120.3" xlink:href="#New_Gradient_Swatch_2"/><linearGradient id="New_Gradient_Swatch_2-39" x1="406.29" y1="120.3" x2="418.91" y2="120.3" xlink:href="#New_Gradient_Swatch_2"/><linearGradient id="New_Gradient_Swatch_2-40" x1="415.97" y1="120.3" x2="428.58" y2="120.3" xlink:href="#New_Gradient_Swatch_2"/><linearGradient id="New_Gradient_Swatch_2-41" x1="425.64" y1="120.3" x2="438.25" y2="120.3" xlink:href="#New_Gradient_Swatch_2"/><linearGradient id="New_Gradient_Swatch_2-42" x1="435.31" y1="120.3" x2="447.92" y2="120.3" xlink:href="#New_Gradient_Swatch_2"/><linearGradient id="New_Gradient_Swatch_2-43" x1="288.34" y1="122.28" x2="449.89" y2="122.28" xlink:href="#New_Gradient_Swatch_2"/><linearGradient id="New_Gradient_Swatch_2-44" x1="379.71" y1="119.4" x2="453.77" y2="119.4" xlink:href="#New_Gradient_Swatch_2"/><linearGradient id="New_Gradient_Swatch_2-45" x1="262.6" y1="132.76" x2="300.38" y2="132.76" xlink:href="#New_Gradient_Swatch_2"/><linearGradient id="New_Gradient_Swatch_2-46" x1="246.69" y1="123.92" x2="279.92" y2="123.92" xlink:href="#New_Gradient_Swatch_2"/><linearGradient id="New_Gradient_Swatch_2-47" x1="279.08" y1="115.08" x2="352.01" y2="115.08" xlink:href="#New_Gradient_Swatch_2"/><linearGradient id="New_Gradient_Swatch_2-48" x1="263.88" y1="114.36" x2="435.25" y2="114.36" xlink:href="#New_Gradient_Swatch_2"/><linearGradient id="New_Gradient_Swatch_2-49" x1="42.47" y1="132.35" x2="243.76" y2="132.35" xlink:href="#New_Gradient_Swatch_2"/><linearGradient id="New_Gradient_Swatch_2-50" x1="34.71" y1="108.62" x2="42.14" y2="108.62" xlink:href="#New_Gradient_Swatch_2"/><linearGradient id="New_Gradient_Swatch_2-51" x1="69.38" y1="145.43" x2="119.95" y2="145.43" xlink:href="#New_Gradient_Swatch_2"/><linearGradient id="New_Gradient_Swatch_2-52" x1="85.1" y1="152.46" x2="151.73" y2="152.46" xlink:href="#New_Gradient_Swatch_2"/><linearGradient id="New_Gradient_Swatch_2-53" x1="36.19" y1="40.29" x2="51.81" y2="40.29" xlink:href="#New_Gradient_Swatch_2"/><linearGradient id="New_Gradient_Swatch_2-54" x1="53.76" y1="40.29" x2="70.89" y2="40.29" xlink:href="#New_Gradient_Swatch_2"/><linearGradient id="New_Gradient_Swatch_2-55" x1="73.67" y1="40.29" x2="90.66" y2="40.29" xlink:href="#New_Gradient_Swatch_2"/><linearGradient id="New_Gradient_Swatch_2-56" x1="92.97" y1="40.29" x2="108.53" y2="40.29" xlink:href="#New_Gradient_Swatch_2"/><linearGradient id="New_Gradient_Swatch_2-57" x1="110.62" y1="40.29" x2="125.02" y2="40.29" xlink:href="#New_Gradient_Swatch_2"/><linearGradient id="New_Gradient_Swatch_2-58" x1="123.24" y1="40.29" x2="134.49" y2="40.29" xlink:href="#New_Gradient_Swatch_2"/><linearGradient id="New_Gradient_Swatch_2-59" x1="144.23" y1="40.29" x2="149.08" y2="40.29" xlink:href="#New_Gradient_Swatch_2"/><linearGradient id="New_Gradient_Swatch_2-60" x1="151.86" y1="40.29" x2="168.37" y2="40.29" xlink:href="#New_Gradient_Swatch_2"/><linearGradient id="New_Gradient_Swatch_2-61" x1="170.6" y1="40.29" x2="188.12" y2="40.29" xlink:href="#New_Gradient_Swatch_2"/><linearGradient id="New_Gradient_Swatch_2-62" x1="190.62" y1="40.29" x2="209.06" y2="40.29" xlink:href="#New_Gradient_Swatch_2"/><linearGradient id="New_Gradient_Swatch_2-63" x1="224.46" y1="40.29" x2="235.71" y2="40.29" xlink:href="#New_Gradient_Swatch_2"/><linearGradient id="New_Gradient_Swatch_2-64" x1="211.84" y1="40.29" x2="226.24" y2="40.29" xlink:href="#New_Gradient_Swatch_2"/></defs><title>title_02_purple_blue</title><g id="Layer_2" data-name="Layer 2"><g id="Layer_1-2" data-name="Layer 1"><polygon class="cls-1" points="380.98 73.24 380.35 72.61 386.92 66.04 386.92 15.56 376.15 4.8 217.19 4.8 210.14 11.85 18.65 11.85 3.48 27.02 2.85 26.39 18.28 10.96 209.77 10.96 216.83 3.9 376.52 3.9 387.81 15.2 387.81 66.41 380.98 73.24"/><g class="cls-2"><path class="cls-3" d="M3.16,39.48,20.58,22.07h196.8l6.33-6.34H373.14L381,23.6V63.1L366.16,78H267.52l-7.64-7.64H63.4s-5.2-6.95-6.95-6.95H3.16Z"/></g><circle class="cls-4" cx="201.74" cy="3.16" r="3.16"/><path class="cls-5" d="M377.85,72.93A3.16,3.16,0,1,1,381,76.09,3.15,3.15,0,0,1,377.85,72.93Z"/><circle class="cls-6" cx="182.28" cy="3.16" r="3.16"/><circle class="cls-7" cx="162.81" cy="3.16" r="3.16"/><circle class="cls-8" cx="143.35" cy="3.16" r="3.16"/><circle class="cls-9" cx="123.88" cy="3.16" r="3.16"/><path class="cls-10" d="M101.26,3.16a3.16,3.16,0,1,1,3.16,3.16A3.16,3.16,0,0,1,101.26,3.16Z"/><path class="cls-11" d="M81.79,3.16A3.17,3.17,0,1,1,85,6.32,3.17,3.17,0,0,1,81.79,3.16Z"/><circle class="cls-12" cx="65.49" cy="3.16" r="3.16"/><circle class="cls-13" cx="46.03" cy="3.16" r="3.16"/><circle class="cls-14" cx="26.56" cy="3.16" r="3.16"/><circle class="cls-15" cx="3.16" cy="27.08" r="3.16"/><path class="cls-16" d="M3.16,58.65H57.05l4,4h9L76.44,69H191.53l1.27,1.27H153l-3.4,3.4H78.13l-3.25-3.25H63.44s-6.94-6.94-6.94-6.94-53.43.24-53.43,0S3.16,58.65,3.16,58.65Z"/><polygon class="cls-17" points="391.95 19.68 391.05 19.68 391.05 13.63 378.95 1.52 362.73 1.52 362.73 0.63 379.32 0.63 391.95 13.26 391.95 19.68"/><rect class="cls-18" x="156.18" y="75.58" width="99.98" height="0.89"/><polygon class="cls-19" points="471 136.19 244.68 136.19 244.55 136.06 204.46 95.97 204.46 80.78 205.35 80.78 205.35 95.6 245.05 135.3 470.63 135.3 485.51 120.43 486.14 121.06 471 136.19"/><path class="cls-20" d="M487.61,114.36a3.72,3.72,0,1,1,3.71,3.71A3.72,3.72,0,0,1,487.61,114.36Z"/><path class="cls-21" d="M204.9,89.55l1.73,1.73v4.28L218,106.94a15,15,0,0,1,0,1.9L204.85,95.69Z"/><path class="cls-22" d="M240.78,131.66v2.16l4.05,4.05h31l2.28-2.29c-.39.39-33.26,0-33.26,0Z"/><path class="cls-23" d="M266.93,33.47V67.78c-2.72-2.68-5.64-5.58-7.46-7.43V33.47Z"/><rect class="cls-24" x="272.51" y="25.52" width="7.47" height="48.73"/><rect class="cls-25" x="285.54" y="58.35" width="7.46" height="15.9"/><rect class="cls-26" x="298.58" y="34.73" width="7.46" height="39.52"/><rect class="cls-27" x="311.61" y="46.84" width="7.46" height="27.4"/><rect class="cls-28" x="324.65" y="24.18" width="7.46" height="50.06"/><rect class="cls-29" x="337.69" y="27.15" width="7.47" height="47.09"/><rect class="cls-30" x="350.72" y="48.1" width="7.46" height="26.15"/><polygon class="cls-31" points="371.22 56.12 371.22 66.92 363.89 74.25 363.76 74.25 363.76 56.12 371.22 56.12"/><polygon class="cls-32" points="352.43 121.36 256.27 121.36 250.77 124.38 250.77 128.1 281.38 128.1 282.57 129.51 354.57 129.51 356.93 128.1 352.43 121.36"/><polygon class="cls-33" points="424.93 106.32 370.65 106.32 368.87 110.31 426.72 110.31 424.93 106.32"/><path class="cls-34" d="M447.92,131.4H313.32a.21.21,0,0,1-.21-.21.21.21,0,0,1,.21-.21h134.6a.21.21,0,0,1,.21.21A.21.21,0,0,1,447.92,131.4Z"/><path class="cls-35" d="M364.59,125.52h-6.51c-.13,0-.18-.1-.11-.23l5.56-10a.47.47,0,0,1,.37-.23h6.51c.13,0,.18.1.11.23l-5.57,10A.46.46,0,0,1,364.59,125.52Z"/><path class="cls-36" d="M374.26,125.52h-6.51c-.13,0-.18-.1-.11-.23l5.56-10a.47.47,0,0,1,.37-.23h6.51c.13,0,.18.1.11.23l-5.57,10A.46.46,0,0,1,374.26,125.52Z"/><path class="cls-37" d="M383.93,125.52h-6.51c-.13,0-.18-.1-.11-.23l5.57-10a.46.46,0,0,1,.36-.23h6.51c.13,0,.18.1.11.23l-5.56,10A.49.49,0,0,1,383.93,125.52Z"/><path class="cls-38" d="M393.6,125.52h-6.51c-.13,0-.18-.1-.11-.23l5.57-10a.46.46,0,0,1,.36-.23h6.51c.13,0,.18.1.11.23l-5.56,10A.47.47,0,0,1,393.6,125.52Z"/><path class="cls-39" d="M403.27,125.52h-6.51c-.13,0-.18-.1-.11-.23l5.57-10a.46.46,0,0,1,.36-.23h6.51c.13,0,.18.1.11.23l-5.56,10A.47.47,0,0,1,403.27,125.52Z"/><path class="cls-40" d="M413,125.52h-6.51c-.13,0-.18-.1-.11-.23l5.56-10a.47.47,0,0,1,.37-.23h6.51c.13,0,.18.1.1.23l-5.56,10A.46.46,0,0,1,413,125.52Z"/><g class="cls-2"><path class="cls-41" d="M422.62,125.52h-6.51c-.13,0-.18-.1-.11-.23l5.56-10a.47.47,0,0,1,.37-.23h6.51c.13,0,.18.1.11.23l-5.57,10A.46.46,0,0,1,422.62,125.52Z"/></g><g class="cls-2"><path class="cls-42" d="M432.29,125.52h-6.51c-.13,0-.18-.1-.11-.23l5.56-10a.47.47,0,0,1,.37-.23h6.51c.13,0,.18.1.11.23l-5.57,10A.46.46,0,0,1,432.29,125.52Z"/></g><g class="cls-2"><path class="cls-43" d="M442,125.52h-6.51c-.13,0-.18-.1-.11-.23l5.57-10a.46.46,0,0,1,.36-.23h6.51c.13,0,.18.1.11.23l-5.56,10A.47.47,0,0,1,442,125.52Z"/></g><path class="cls-44" d="M443.92,128.63H288.76a.42.42,0,0,1,0-.84H443.4l5.69-11.63a.44.44,0,0,1,.57-.19.43.43,0,0,1,.19.56Z"/><path class="cls-45" d="M447.5,125.94a.39.39,0,0,1-.18,0,.43.43,0,0,1-.21-.56l5.35-11.64H380.13a.42.42,0,1,1,0-.84h73.64l-5.89,12.83A.42.42,0,0,1,447.5,125.94Z"/><path class="cls-46" d="M300.17,133H262.81a.21.21,0,0,1-.21-.21.21.21,0,0,1,.21-.21h37.36a.21.21,0,0,1,.21.21A.22.22,0,0,1,300.17,133Z"/><path class="cls-47" d="M262.81,133.39H246.69V122.76l12.37-8.31h20.23a.63.63,0,0,1,0,1.26H259.45L248,123.43v8.7h14.86a.63.63,0,0,1,.63.63A.63.63,0,0,1,262.81,133.39Z"/><path class="cls-48" d="M351.8,115.29H279.29a.21.21,0,0,1-.21-.21.21.21,0,0,1,.21-.21H351.8a.21.21,0,0,1,.21.21A.22.22,0,0,1,351.8,115.29Z"/><path class="cls-49" d="M356.69,119H264.51a.63.63,0,1,1,0-1.26H356l5.08-8.1h73.55a.63.63,0,0,1,0,1.26H361.77Z"/><polygon class="cls-50" points="231.53 151.91 80.64 151.91 42.47 113.74 43.42 112.79 81.19 150.57 230.98 150.57 242.82 138.72 243.76 139.67 231.53 151.91"/><path class="cls-51" d="M34.71,108.62a3.72,3.72,0,1,1,3.71,3.71A3.71,3.71,0,0,1,34.71,108.62Z"/><path class="cls-52" d="M69.38,139.7H74s8.48,8.78,8.78,8.78h34.48l2.69,2.69h-39Z"/><path class="cls-53" d="M85.1,151.17s2.4,2,2.4,2.4,61.92,0,61.92,0,2.57-2.29,2.29-2.29H86.49Z"/><polygon class="cls-54" points="41.03 30.24 36.19 30.24 36.19 50.35 40 50.35 41.03 50.35 51.81 50.35 51.81 45.89 41.03 45.89 41.03 30.24"/><path class="cls-55" d="M64.4,30.24h-9l-1.67,2v16l1.67,2.09H69.22l1.67-2.06v-16l-1.67-2Zm2.06,15.65H58.61V34.7h7.85Z"/><path class="cls-56" d="M90.18,40.32V32.25l-1.67-2H73.67V50.35h4.85V43.5H84.2l1.64,6.85h4.82l-1.87-8.3ZM85.34,39H78.52V34.7h6.82Z"/><polygon class="cls-57" points="99.2 30.24 92.97 30.24 92.97 50.35 99.2 50.35 99.96 50.35 108.53 50.35 108.53 45.89 99.96 45.89 99.96 42.38 106.33 42.38 106.33 37.93 99.96 37.93 99.96 34.7 108.53 34.7 108.53 30.24 99.96 30.24 99.2 30.24"/><polygon class="cls-58" points="110.62 30.24 110.62 33.66 110.62 34.7 110.62 50.35 115.47 50.35 115.47 34.7 120.76 47.98 124.35 47.98 125.02 46.34 118.75 30.24 110.62 30.24"/><polygon class="cls-59" points="123.24 38.21 125.72 44.58 129.64 34.7 129.64 50.35 134.49 50.35 134.49 30.24 126.36 30.24 123.24 38.21"/><rect class="cls-60" x="144.23" y="30.24" width="4.85" height="20.11"/><path class="cls-61" d="M156.71,30.24h-4.85V50.35h4.85V43.5h10l1.67-2.06V32.25l-1.67-2Zm6.82,8.8h-6.82V34.7h6.82Z"/><polygon class="cls-62" points="180.19 30.24 179.82 30.24 172.27 30.24 170.6 32.27 170.6 39.85 172.16 41.77 183.27 42.83 183.27 45.89 180.8 45.89 179.85 45.89 175.45 45.89 175.45 43.86 170.6 43.86 170.6 48.34 172.27 50.35 179.85 50.35 180.8 50.35 186.45 50.35 188.12 48.31 188.12 40.29 186.97 38.48 175.45 37.34 175.45 34.7 179.82 34.7 180.19 34.7 183.27 34.7 183.27 36.62 188.12 36.62 188.12 32.25 186.45 30.24 180.19 30.24"/><polygon class="cls-63" points="204.21 45.89 201.25 45.89 200.29 45.89 195.47 45.89 195.47 30.24 190.62 30.24 190.62 48.26 192.29 50.35 200.29 50.35 201.25 50.35 207.39 50.35 209.06 48.29 209.06 30.24 204.21 30.24 204.21 45.89"/><polygon class="cls-64" points="227.57 30.24 224.46 38.21 226.93 44.58 230.86 34.7 230.86 50.35 235.71 50.35 235.71 30.24 227.57 30.24"/><polygon class="cls-65" points="211.84 30.24 211.84 33.76 211.84 34.7 211.84 50.35 216.69 50.35 216.69 34.7 221.98 47.98 225.57 47.98 226.24 46.34 219.97 30.24 211.84 30.24"/></g></g></svg>