<svg xmlns="http://www.w3.org/2000/svg" xmlns:xlink="http://www.w3.org/1999/xlink" viewBox="0 0 482.16 482.16"><defs><style>.cls-1{mask:url(#mask);filter:url(#luminosity-noclip-6);}.cls-10,.cls-2,.cls-4,.cls-6,.cls-8{mix-blend-mode:multiply;}.cls-2{fill:url(#Безымянный_градиент_2);}.cls-3{mask:url(#mask-2);filter:url(#luminosity-noclip-7);}.cls-4{fill:url(#linear-gradient);}.cls-5{mask:url(#mask-3);filter:url(#luminosity-noclip-8);}.cls-6{fill:url(#linear-gradient-2);}.cls-7{mask:url(#mask-4);filter:url(#luminosity-noclip-9);}.cls-8{fill:url(#linear-gradient-3);}.cls-9{mask:url(#mask-5);filter:url(#luminosity-noclip-10);}.cls-10{fill:url(#linear-gradient-4);}.cls-11{opacity:0.5;}.cls-12{mask:url(#mask-6);}.cls-13{fill:url(#New_Gradient_Swatch_3);}.cls-14{opacity:0.45;fill:url(#New_Gradient_Swatch_3-2);}.cls-15{fill:url(#New_Gradient_Swatch_3-3);}.cls-16{fill:url(#New_Gradient_Swatch_3-4);}.cls-17{fill:url(#New_Gradient_Swatch_3-5);}.cls-18{fill:url(#New_Gradient_Swatch_3-6);}.cls-19{fill:url(#New_Gradient_Swatch_3-7);}.cls-20{fill:url(#New_Gradient_Swatch_3-8);}.cls-21{fill:url(#New_Gradient_Swatch_3-9);}.cls-22{fill:url(#New_Gradient_Swatch_3-10);}.cls-23{fill:url(#New_Gradient_Swatch_3-11);}.cls-24{fill:url(#New_Gradient_Swatch_3-12);}.cls-25{fill:url(#New_Gradient_Swatch_3-13);}.cls-26{fill:url(#New_Gradient_Swatch_3-14);}.cls-27{fill:url(#New_Gradient_Swatch_3-15);}.cls-28{fill:url(#New_Gradient_Swatch_3-16);}.cls-29{fill:url(#New_Gradient_Swatch_3-17);}.cls-30{fill:url(#New_Gradient_Swatch_3-18);}.cls-31{fill:url(#New_Gradient_Swatch_3-19);}.cls-32{fill:url(#New_Gradient_Swatch_3-20);}.cls-33{fill:url(#New_Gradient_Swatch_3-21);}.cls-34{fill:url(#New_Gradient_Swatch_3-22);}.cls-35{fill:url(#New_Gradient_Swatch_3-23);}.cls-36{fill:url(#New_Gradient_Swatch_3-24);}.cls-37{fill:url(#New_Gradient_Swatch_3-25);}.cls-38{fill:url(#New_Gradient_Swatch_3-26);}.cls-39{fill:url(#New_Gradient_Swatch_3-27);}.cls-40{fill:url(#New_Gradient_Swatch_3-28);}.cls-41{fill:url(#New_Gradient_Swatch_3-29);}.cls-42{fill:url(#New_Gradient_Swatch_3-30);}.cls-43{fill:url(#New_Gradient_Swatch_3-31);}.cls-44{fill:url(#New_Gradient_Swatch_3-32);}.cls-45{fill:url(#New_Gradient_Swatch_3-33);}.cls-46{fill:url(#New_Gradient_Swatch_3-34);}.cls-47{fill:url(#New_Gradient_Swatch_3-35);}.cls-48{fill:url(#New_Gradient_Swatch_3-36);}.cls-49{fill:url(#New_Gradient_Swatch_3-37);}.cls-50{fill:url(#New_Gradient_Swatch_3-38);}.cls-51,.cls-52,.cls-53,.cls-54{opacity:0.2;}.cls-51{fill:url(#New_Gradient_Swatch_3-39);}.cls-52{fill:url(#New_Gradient_Swatch_3-40);}.cls-53{fill:url(#New_Gradient_Swatch_3-41);}.cls-54{fill:url(#New_Gradient_Swatch_3-42);}.cls-55{fill:url(#New_Gradient_Swatch_3-43);}.cls-56{fill:url(#New_Gradient_Swatch_3-44);}.cls-57{fill:url(#New_Gradient_Swatch_3-45);}.cls-58{fill:url(#New_Gradient_Swatch_3-46);}.cls-59{fill:url(#New_Gradient_Swatch_3-47);}.cls-60{fill:url(#New_Gradient_Swatch_3-48);}.cls-61{fill:url(#New_Gradient_Swatch_3-49);}.cls-62{fill:url(#New_Gradient_Swatch_3-50);}.cls-63{fill:url(#New_Gradient_Swatch_3-51);}.cls-64{mask:url(#mask-7);}.cls-65{fill:url(#New_Gradient_Swatch_3-52);}.cls-66{mask:url(#mask-8);}.cls-67{fill:url(#New_Gradient_Swatch_3-53);}.cls-68{mask:url(#mask-9);}.cls-69{fill:url(#New_Gradient_Swatch_3-54);}.cls-70{mask:url(#mask-10);}.cls-71{fill:url(#New_Gradient_Swatch_3-55);}.cls-72{filter:url(#luminosity-noclip-5);}.cls-73{filter:url(#luminosity-noclip-4);}.cls-74{filter:url(#luminosity-noclip-3);}.cls-75{filter:url(#luminosity-noclip-2);}.cls-76{filter:url(#luminosity-noclip);}</style><filter id="luminosity-noclip" x="84.05" y="-8433.26" width="314.06" height="32766" filterUnits="userSpaceOnUse" color-interpolation-filters="sRGB"><feFlood flood-color="#fff" result="bg"/><feBlend in="SourceGraphic" in2="bg"/></filter><mask id="mask" x="84.05" y="-8433.26" width="314.06" height="32766" maskUnits="userSpaceOnUse"><g class="cls-76"/></mask><radialGradient id="Безымянный_градиент_2" cx="223.73" cy="339.44" r="177.96" gradientTransform="translate(43.67 -58.19) scale(0.88)" gradientUnits="userSpaceOnUse"><stop offset="0.59" stop-color="#fff"/><stop offset="0.81" stop-color="gray"/><stop offset="0.9" stop-color="#4d4d4d"/><stop offset="1"/></radialGradient><filter id="luminosity-noclip-2" x="262.62" y="-8433.26" width="61.32" height="32766" filterUnits="userSpaceOnUse" color-interpolation-filters="sRGB"><feFlood flood-color="#fff" result="bg"/><feBlend in="SourceGraphic" in2="bg"/></filter><mask id="mask-2" x="262.62" y="-8433.26" width="61.32" height="32766" maskUnits="userSpaceOnUse"><g class="cls-75"/></mask><linearGradient id="linear-gradient" x1="262.62" y1="284.63" x2="323.95" y2="284.63" gradientUnits="userSpaceOnUse"><stop offset="0" stop-color="#fff"/><stop offset="0.02" stop-color="#f2f2f2"/><stop offset="0.14" stop-color="#bababa"/><stop offset="0.25" stop-color="#888"/><stop offset="0.37" stop-color="#5e5e5e"/><stop offset="0.49" stop-color="#3c3c3c"/><stop offset="0.61" stop-color="#222"/><stop offset="0.74" stop-color="#0f0f0f"/><stop offset="0.86" stop-color="#040404"/><stop offset="1"/></linearGradient><filter id="luminosity-noclip-3" x="262.62" y="-8433.26" width="61.48" height="32766" filterUnits="userSpaceOnUse" color-interpolation-filters="sRGB"><feFlood flood-color="#fff" result="bg"/><feBlend in="SourceGraphic" in2="bg"/></filter><mask id="mask-3" x="262.62" y="-8433.26" width="61.48" height="32766" maskUnits="userSpaceOnUse"><g class="cls-74"/></mask><linearGradient id="linear-gradient-2" x1="262.62" y1="198.59" x2="324.11" y2="198.59" xlink:href="#linear-gradient"/><filter id="luminosity-noclip-4" x="158.06" y="-8433.26" width="61.85" height="32766" filterUnits="userSpaceOnUse" color-interpolation-filters="sRGB"><feFlood flood-color="#fff" result="bg"/><feBlend in="SourceGraphic" in2="bg"/></filter><mask id="mask-4" x="158.06" y="-8433.26" width="61.85" height="32766" maskUnits="userSpaceOnUse"><g class="cls-73"/></mask><linearGradient id="linear-gradient-3" x1="188.98" y1="160.65" x2="188.98" y2="236.43" xlink:href="#linear-gradient"/><filter id="luminosity-noclip-5" x="158.22" y="-8433.26" width="61.69" height="32766" filterUnits="userSpaceOnUse" color-interpolation-filters="sRGB"><feFlood flood-color="#fff" result="bg"/><feBlend in="SourceGraphic" in2="bg"/></filter><mask id="mask-5" x="158.22" y="-8433.26" width="61.69" height="32766" maskUnits="userSpaceOnUse"><g class="cls-72"/></mask><linearGradient id="linear-gradient-4" x1="189.06" y1="321.51" x2="189.06" y2="247.84" xlink:href="#linear-gradient"/><filter id="luminosity-noclip-6" x="84.05" y="84.3" width="314.06" height="314.06" filterUnits="userSpaceOnUse" color-interpolation-filters="sRGB"><feFlood flood-color="#fff" result="bg"/><feBlend in="SourceGraphic" in2="bg"/></filter><mask id="mask-6" x="84.05" y="84.3" width="314.06" height="314.06" maskUnits="userSpaceOnUse"><g class="cls-1"><path class="cls-2" d="M170,101.35a157,157,0,1,0,211.06,68.9A157,157,0,0,0,170,101.35ZM288.21,334.14A104.09,104.09,0,1,1,333.89,194.2,104.09,104.09,0,0,1,288.21,334.14Z"/></g></mask><radialGradient id="New_Gradient_Swatch_3" cx="241.08" cy="241.33" r="157.03" gradientUnits="userSpaceOnUse"><stop offset="0" stop-color="#19dbb6"/><stop offset="0.13" stop-color="#1ed7b8"/><stop offset="0.28" stop-color="#2bcdbd"/><stop offset="0.44" stop-color="#42bcc6"/><stop offset="0.6" stop-color="#62a4d3"/><stop offset="0.77" stop-color="#8b85e3"/><stop offset="0.94" stop-color="#bd60f7"/><stop offset="1" stop-color="#cf52fe"/></radialGradient><radialGradient id="New_Gradient_Swatch_3-2" cx="241.08" cy="241.33" r="56.3" gradientTransform="translate(285.28 -96.91) rotate(52.41)" xlink:href="#New_Gradient_Swatch_3"/><radialGradient id="New_Gradient_Swatch_3-3" cx="241.08" cy="241.33" r="131.54" gradientTransform="translate(481.78 -0.38) rotate(89.85)" xlink:href="#New_Gradient_Swatch_3"/><radialGradient id="New_Gradient_Swatch_3-4" cx="241.08" cy="241.33" r="131.54" gradientTransform="translate(481.78 -0.38) rotate(89.85)" xlink:href="#New_Gradient_Swatch_3"/><radialGradient id="New_Gradient_Swatch_3-5" cx="253.65" cy="197.52" r="22.21" gradientTransform="translate(450.51 -56.65) rotate(89.85)" xlink:href="#New_Gradient_Swatch_3"/><radialGradient id="New_Gradient_Swatch_3-6" cx="284.96" cy="228.99" r="22.21" gradientTransform="translate(513.2 -56.57) rotate(89.85)" xlink:href="#New_Gradient_Swatch_3"/><radialGradient id="New_Gradient_Swatch_3-7" cx="229.05" cy="197.77" r="22.21" gradientTransform="translate(426.24 -31.78) rotate(89.86)" xlink:href="#New_Gradient_Swatch_3"/><radialGradient id="New_Gradient_Swatch_3-8" cx="197.58" cy="229.07" r="22.21" gradientTransform="translate(426.13 30.89) rotate(89.85)" xlink:href="#New_Gradient_Swatch_3"/><radialGradient id="New_Gradient_Swatch_3-9" cx="253.42" cy="284.46" r="22.21" gradientTransform="translate(537.25 30.33) rotate(89.86)" xlink:href="#New_Gradient_Swatch_3"/><radialGradient id="New_Gradient_Swatch_3-10" cx="284.9" cy="253.16" r="22.21" gradientTransform="matrix(0, 1, -1, 0, 537.3, -32.4)" xlink:href="#New_Gradient_Swatch_3"/><radialGradient id="New_Gradient_Swatch_3-11" cx="228.82" cy="284.09" r="22.21" gradientTransform="translate(512.31 54.52) rotate(89.85)" xlink:href="#New_Gradient_Swatch_3"/><radialGradient id="New_Gradient_Swatch_3-12" cx="197.52" cy="252.62" r="22.21" gradientTransform="translate(449.61 54.44) rotate(89.85)" xlink:href="#New_Gradient_Swatch_3"/><radialGradient id="New_Gradient_Swatch_3-13" cx="170" cy="101.35" r="11.64" gradientTransform="translate(64.31 -65.99) rotate(26.92)" xlink:href="#New_Gradient_Swatch_3"/><radialGradient id="New_Gradient_Swatch_3-14" cx="312.16" cy="381.31" r="11.64" gradientTransform="translate(206.48 -100.02) rotate(26.92)" xlink:href="#New_Gradient_Swatch_3"/><radialGradient id="New_Gradient_Swatch_3-15" cx="91.84" cy="192.61" r="11.49" gradientTransform="translate(246.44 45.54) rotate(71.92)" xlink:href="#New_Gradient_Swatch_3"/><radialGradient id="New_Gradient_Swatch_3-16" cx="390.33" cy="290.05" r="11.49" gradientTransform="translate(544.94 -171.01) rotate(71.92)" xlink:href="#New_Gradient_Swatch_3"/><radialGradient id="New_Gradient_Swatch_3-17" cx="101.1" cy="312.42" r="11.64" gradientTransform="translate(152.33 -11.93) rotate(26.91)" xlink:href="#New_Gradient_Swatch_3"/><radialGradient id="New_Gradient_Swatch_3-18" cx="381.06" cy="170.25" r="11.64" gradientTransform="translate(118.34 -154.05) rotate(26.91)" xlink:href="#New_Gradient_Swatch_3"/><radialGradient id="New_Gradient_Swatch_3-19" cx="192.36" cy="390.58" r="11.49" gradientTransform="translate(503.9 86.44) rotate(71.91)" xlink:href="#New_Gradient_Swatch_3"/><radialGradient id="New_Gradient_Swatch_3-20" cx="289.8" cy="92.09" r="11.49" gradientTransform="translate(287.34 -211.98) rotate(71.91)" xlink:href="#New_Gradient_Swatch_3"/><radialGradient id="New_Gradient_Swatch_3-21" cx="164.4" cy="175.65" r="7.82" gradientTransform="translate(190.87 -63.47) rotate(49.42)" xlink:href="#New_Gradient_Swatch_3"/><radialGradient id="New_Gradient_Swatch_3-22" cx="317.77" cy="307.01" r="7.82" gradientTransform="translate(344.23 -134.05) rotate(49.42)" xlink:href="#New_Gradient_Swatch_3"/><radialGradient id="New_Gradient_Swatch_3-23" cx="140.42" cy="249.12" r="7.25" gradientTransform="translate(19.71 -10.13) rotate(4.44)" xlink:href="#New_Gradient_Swatch_3"/><radialGradient id="New_Gradient_Swatch_3-24" cx="341.75" cy="233.55" r="7.25" gradientTransform="translate(19.08 -25.72) rotate(4.43)" xlink:href="#New_Gradient_Swatch_3"/><radialGradient id="New_Gradient_Swatch_3-25" cx="175.4" cy="318.02" r="7.82" gradientTransform="translate(302.78 -22.1) rotate(49.41)" xlink:href="#New_Gradient_Swatch_3"/><radialGradient id="New_Gradient_Swatch_3-26" cx="306.76" cy="164.65" r="7.82" gradientTransform="translate(232.26 -175.44) rotate(49.42)" xlink:href="#New_Gradient_Swatch_3"/><radialGradient id="New_Gradient_Swatch_3-27" cx="248.87" cy="342" r="7.25" gradientTransform="matrix(1, 0.08, -0.08, 1, 27.1, -18.17)" xlink:href="#New_Gradient_Swatch_3"/><radialGradient id="New_Gradient_Swatch_3-28" cx="233.3" cy="140.67" r="7.25" gradientTransform="translate(11.54 -17.57) rotate(4.42)" xlink:href="#New_Gradient_Swatch_3"/><radialGradient id="New_Gradient_Swatch_3-29" cx="250.17" cy="241.08" r="5.68" xlink:href="#New_Gradient_Swatch_3"/><radialGradient id="New_Gradient_Swatch_3-30" cx="231.99" cy="241.08" r="5.68" xlink:href="#New_Gradient_Swatch_3"/><radialGradient id="New_Gradient_Swatch_3-31" cx="250.17" cy="42.5" r="5.68" xlink:href="#New_Gradient_Swatch_3"/><radialGradient id="New_Gradient_Swatch_3-32" cx="231.99" cy="42.5" r="5.68" xlink:href="#New_Gradient_Swatch_3"/><radialGradient id="New_Gradient_Swatch_3-33" cx="250.17" cy="439.67" r="5.68" xlink:href="#New_Gradient_Swatch_3"/><radialGradient id="New_Gradient_Swatch_3-34" cx="231.99" cy="439.67" r="5.68" xlink:href="#New_Gradient_Swatch_3"/><radialGradient id="New_Gradient_Swatch_3-35" cx="439.67" cy="250.17" r="5.68" xlink:href="#New_Gradient_Swatch_3"/><radialGradient id="New_Gradient_Swatch_3-36" cx="439.67" cy="231.99" r="5.68" xlink:href="#New_Gradient_Swatch_3"/><radialGradient id="New_Gradient_Swatch_3-37" cx="42.5" cy="250.17" r="5.68" xlink:href="#New_Gradient_Swatch_3"/><radialGradient id="New_Gradient_Swatch_3-38" cx="42.5" cy="231.99" r="5.68" xlink:href="#New_Gradient_Swatch_3"/><radialGradient id="New_Gradient_Swatch_3-39" cx="317.73" cy="174.97" r="56.87" xlink:href="#New_Gradient_Swatch_3"/><radialGradient id="New_Gradient_Swatch_3-40" cx="164.64" cy="174.94" r="56.98" xlink:href="#New_Gradient_Swatch_3"/><radialGradient id="New_Gradient_Swatch_3-41" cx="164.69" cy="308.41" r="56.32" xlink:href="#New_Gradient_Swatch_3"/><radialGradient id="New_Gradient_Swatch_3-42" cx="317.67" cy="308.38" r="56.21" xlink:href="#New_Gradient_Swatch_3"/><radialGradient id="New_Gradient_Swatch_3-43" cx="241.08" cy="241.08" r="12.72" xlink:href="#New_Gradient_Swatch_3"/><radialGradient id="New_Gradient_Swatch_3-44" cx="99.91" cy="241.08" r="70.66" xlink:href="#New_Gradient_Swatch_3"/><radialGradient id="New_Gradient_Swatch_3-45" cx="382.26" cy="241.08" r="70.66" xlink:href="#New_Gradient_Swatch_3"/><radialGradient id="New_Gradient_Swatch_3-46" cx="99.91" cy="241.08" r="70.66" xlink:href="#New_Gradient_Swatch_3"/><radialGradient id="New_Gradient_Swatch_3-47" cx="382.26" cy="241.08" r="70.66" xlink:href="#New_Gradient_Swatch_3"/><radialGradient id="New_Gradient_Swatch_3-48" cx="241.08" cy="99.91" r="70.66" xlink:href="#New_Gradient_Swatch_3"/><radialGradient id="New_Gradient_Swatch_3-49" cx="241.08" cy="382.26" r="70.66" xlink:href="#New_Gradient_Swatch_3"/><radialGradient id="New_Gradient_Swatch_3-50" cx="241.08" cy="241.08" r="49.49" xlink:href="#New_Gradient_Swatch_3"/><radialGradient id="New_Gradient_Swatch_3-51" cx="241.08" cy="241.08" r="162.09" xlink:href="#New_Gradient_Swatch_3"/><filter id="luminosity-noclip-7" x="262.62" y="247.84" width="61.32" height="73.57" filterUnits="userSpaceOnUse" color-interpolation-filters="sRGB"><feFlood flood-color="#fff" result="bg"/><feBlend in="SourceGraphic" in2="bg"/></filter><mask id="mask-7" x="262.62" y="247.84" width="61.32" height="73.57" maskUnits="userSpaceOnUse"><g class="cls-3"><path class="cls-4" d="M262.62,306.71v14.7A83.2,83.2,0,0,0,324,247.84H309.82A69.11,69.11,0,0,1,262.62,306.71Z"/></g></mask><radialGradient id="New_Gradient_Swatch_3-52" cx="293.28" cy="284.63" r="33.86" xlink:href="#New_Gradient_Swatch_3"/><filter id="luminosity-noclip-8" x="262.62" y="160.75" width="61.48" height="75.68" filterUnits="userSpaceOnUse" color-interpolation-filters="sRGB"><feFlood flood-color="#fff" result="bg"/><feBlend in="SourceGraphic" in2="bg"/></filter><mask id="mask-8" x="262.62" y="160.75" width="61.48" height="75.68" maskUnits="userSpaceOnUse"><g class="cls-5"><path class="cls-6" d="M310,236.43h14.13a83.2,83.2,0,0,0-61.49-75.68v14.7A69.09,69.09,0,0,1,310,236.43Z"/></g></mask><radialGradient id="New_Gradient_Swatch_3-53" cx="293.36" cy="198.59" r="34.47" xlink:href="#New_Gradient_Swatch_3"/><filter id="luminosity-noclip-9" x="158.06" y="160.65" width="61.85" height="75.78" filterUnits="userSpaceOnUse" color-interpolation-filters="sRGB"><feFlood flood-color="#fff" result="bg"/><feBlend in="SourceGraphic" in2="bg"/></filter><mask id="mask-9" x="158.06" y="160.65" width="61.85" height="75.78" maskUnits="userSpaceOnUse"><g class="cls-7"><path class="cls-8" d="M219.91,175.33V160.65a83.2,83.2,0,0,0-61.85,75.78h14.12A69.09,69.09,0,0,1,219.91,175.33Z"/></g></mask><radialGradient id="New_Gradient_Swatch_3-54" cx="188.98" cy="198.54" r="34.58" xlink:href="#New_Gradient_Swatch_3"/><filter id="luminosity-noclip-10" x="158.22" y="247.84" width="61.69" height="73.67" filterUnits="userSpaceOnUse" color-interpolation-filters="sRGB"><feFlood flood-color="#fff" result="bg"/><feBlend in="SourceGraphic" in2="bg"/></filter><mask id="mask-10" x="158.22" y="247.84" width="61.69" height="73.67" maskUnits="userSpaceOnUse"><g class="cls-9"><path class="cls-10" d="M172.34,247.84H158.22a83.18,83.18,0,0,0,61.69,73.67V306.83A69.11,69.11,0,0,1,172.34,247.84Z"/></g></mask><radialGradient id="New_Gradient_Swatch_3-55" cx="189.06" cy="284.68" r="33.97" xlink:href="#New_Gradient_Swatch_3"/></defs><title>to_cart_circle_02</title><g id="Layer_2" data-name="Layer 2"><g id="Layer_1-2" data-name="Layer 1"><g class="cls-11"><g class="cls-12"><path class="cls-13" d="M170,101.35a157,157,0,1,0,211.06,68.9A157,157,0,0,0,170,101.35ZM288.21,334.14A104.09,104.09,0,1,1,333.89,194.2,104.09,104.09,0,0,1,288.21,334.14Z"/></g></g><circle class="cls-14" cx="241.08" cy="241.33" r="56.29" transform="translate(-97.21 285.18) rotate(-52.41)"/><rect class="cls-15" x="55.07" y="240.31" width="372.03" height="2.04" transform="translate(-0.88 481.78) rotate(-89.85)"/><rect class="cls-16" x="240.06" y="55.32" width="2.04" height="372.03" transform="translate(-0.88 481.78) rotate(-89.85)"/><rect class="cls-17" x="222.26" y="196.5" width="62.78" height="2.04" transform="translate(55.47 450.65) rotate(-89.85)"/><rect class="cls-18" x="283.94" y="197.6" width="2.04" height="62.78" transform="translate(55.22 513.35) rotate(-89.85)"/><rect class="cls-19" x="197.66" y="196.75" width="62.78" height="2.04" transform="matrix(0, -1, 1, 0, 30.71, 426.32)"/><rect class="cls-20" x="196.56" y="197.68" width="2.04" height="62.78" transform="matrix(0, -1, 1, 0, -32.01, 426.05)"/><rect class="cls-21" x="222.03" y="283.44" width="62.78" height="2.04" transform="translate(-31.67 537.18) rotate(-89.86)"/><rect class="cls-22" x="283.88" y="221.77" width="2.04" height="62.78" transform="translate(30.99 537.39) rotate(-89.85)"/><rect class="cls-23" x="197.43" y="283.07" width="62.78" height="2.04" transform="translate(-55.86 512.16) rotate(-89.85)"/><rect class="cls-24" x="196.5" y="221.23" width="2.04" height="62.78" transform="translate(-55.62 449.47) rotate(-89.85)"/><rect class="cls-25" x="168.98" y="85.73" width="2.04" height="31.24" transform="translate(-27.47 87.95) rotate(-26.92)"/><rect class="cls-26" x="311.14" y="365.69" width="2.04" height="31.24" transform="translate(-138.82 182.67) rotate(-26.92)"/><rect class="cls-27" x="90.82" y="176.99" width="2.04" height="31.24" transform="translate(-119.77 220.15) rotate(-71.92)"/><rect class="cls-28" x="389.31" y="274.43" width="2.04" height="31.24" transform="matrix(0.31, -0.95, 0.95, 0.31, -6.53, 571.1)"/><rect class="cls-29" x="85.48" y="311.4" width="31.24" height="2.04" transform="translate(-130.44 79.58) rotate(-26.91)"/><rect class="cls-30" x="365.44" y="169.23" width="31.24" height="2.04" transform="translate(-35.79 190.93) rotate(-26.91)"/><rect class="cls-31" x="176.74" y="389.56" width="31.24" height="2.04" transform="translate(-238.64 452.15) rotate(-71.91)"/><rect class="cls-32" x="274.18" y="91.07" width="31.24" height="2.04" transform="translate(112.27 338.96) rotate(-71.91)"/><rect class="cls-33" x="163.38" y="165.61" width="2.04" height="20.09" transform="translate(-75.95 186.26) rotate(-49.42)"/><rect class="cls-34" x="316.75" y="296.96" width="2.04" height="20.09" transform="translate(-122.12 348.64) rotate(-49.42)"/><rect class="cls-35" x="130.37" y="248.1" width="20.09" height="2.04" transform="translate(-18.87 11.62) rotate(-4.44)"/><rect class="cls-36" x="331.7" y="232.53" width="20.09" height="2.04" transform="translate(-17.03 27.12) rotate(-4.43)"/><rect class="cls-37" x="165.36" y="317" width="20.09" height="2.04" transform="translate(-180.22 244.3) rotate(-49.41)"/><rect class="cls-38" x="296.71" y="163.63" width="20.09" height="2.04" transform="translate(-17.84 290.52) rotate(-49.42)"/><rect class="cls-39" x="247.85" y="331.95" width="2.04" height="20.09" transform="translate(-25.62 20.2) rotate(-4.42)"/><rect class="cls-40" x="232.28" y="130.62" width="2.04" height="20.09" transform="translate(-10.15 18.4) rotate(-4.42)"/><path class="cls-41" d="M250.17,233.47a2.7,2.7,0,0,0-2.57,2.82v9.59a2.58,2.58,0,1,0,5.14,0v-9.59A2.7,2.7,0,0,0,250.17,233.47Z"/><path class="cls-42" d="M232,233.47a2.7,2.7,0,0,0-2.57,2.82v9.59a2.59,2.59,0,1,0,5.15,0v-9.59A2.71,2.71,0,0,0,232,233.47Z"/><path class="cls-43" d="M250.17,34.88a2.7,2.7,0,0,0-2.57,2.82v9.59a2.58,2.58,0,1,0,5.14,0V37.7A2.7,2.7,0,0,0,250.17,34.88Z"/><path class="cls-44" d="M232,34.88a2.7,2.7,0,0,0-2.57,2.82v9.59a2.59,2.59,0,1,0,5.15,0V37.7A2.71,2.71,0,0,0,232,34.88Z"/><path class="cls-45" d="M250.17,432.05a2.71,2.71,0,0,0-2.57,2.82v9.59a2.58,2.58,0,1,0,5.14,0v-9.59A2.71,2.71,0,0,0,250.17,432.05Z"/><path class="cls-46" d="M232,432.05a2.71,2.71,0,0,0-2.57,2.82v9.59a2.59,2.59,0,1,0,5.15,0v-9.59A2.72,2.72,0,0,0,232,432.05Z"/><path class="cls-47" d="M447.28,250.17a2.7,2.7,0,0,0-2.82-2.57h-9.59a2.58,2.58,0,1,0,0,5.14h9.59A2.7,2.7,0,0,0,447.28,250.17Z"/><path class="cls-48" d="M447.28,232a2.7,2.7,0,0,0-2.82-2.57h-9.59a2.59,2.59,0,1,0,0,5.15h9.59A2.71,2.71,0,0,0,447.28,232Z"/><path class="cls-49" d="M50.11,250.17a2.7,2.7,0,0,0-2.82-2.57H37.7a2.58,2.58,0,1,0,0,5.14h9.59A2.7,2.7,0,0,0,50.11,250.17Z"/><path class="cls-50" d="M50.11,232a2.7,2.7,0,0,0-2.82-2.57H37.7a2.59,2.59,0,1,0,0,5.15h9.59A2.71,2.71,0,0,0,50.11,232Z"/><path class="cls-51" d="M344.28,235.87h26a129.3,129.3,0,0,0-105-121.8v26.54A103.35,103.35,0,0,1,344.28,235.87Z"/><path class="cls-52" d="M217.36,140.52V114A129.29,129.29,0,0,0,111.92,235.87h26A103.35,103.35,0,0,1,217.36,140.52Z"/><path class="cls-53" d="M138.05,248.65H112A129.33,129.33,0,0,0,217.36,368.17V341.65A103.36,103.36,0,0,1,138.05,248.65Z"/><path class="cls-54" d="M265.21,341.55V368.1A129.33,129.33,0,0,0,370.14,248.65h-26A103.35,103.35,0,0,1,265.21,341.55Z"/><path class="cls-55" d="M253.81,241.08a12.73,12.73,0,1,1-12.73-12.72A12.73,12.73,0,0,1,253.81,241.08Z"/><path class="cls-56" d="M198,242.9H1.82a1.82,1.82,0,1,1,0-3.64H198a1.82,1.82,0,0,1,0,3.64Z"/><path class="cls-57" d="M480.35,242.9H284.17a1.82,1.82,0,1,1,0-3.64H480.35a1.82,1.82,0,0,1,0,3.64Z"/><path class="cls-58" d="M198,242.9H1.82a1.82,1.82,0,1,1,0-3.64H198a1.82,1.82,0,0,1,0,3.64Z"/><path class="cls-59" d="M480.35,242.9H284.17a1.82,1.82,0,1,1,0-3.64H480.35a1.82,1.82,0,0,1,0,3.64Z"/><path class="cls-60" d="M241.08,199.81a1.82,1.82,0,0,1-1.82-1.82V1.82a1.82,1.82,0,1,1,3.64,0V198A1.81,1.81,0,0,1,241.08,199.81Z"/><path class="cls-61" d="M241.08,482.16a1.82,1.82,0,0,1-1.82-1.81V284.17a1.82,1.82,0,1,1,3.64,0V480.35A1.81,1.81,0,0,1,241.08,482.16Z"/><path class="cls-62" d="M285.62,241.08a44.5,44.5,0,0,0-.55-7h5.5a50.07,50.07,0,0,0-42.52-42.52v5.51a44.44,44.44,0,0,0-13.94,0v-5.51a50.08,50.08,0,0,0-42.52,42.52h5.51a44.44,44.44,0,0,0,0,13.94h-5.51a50.07,50.07,0,0,0,42.52,42.52v-5.5a44.44,44.44,0,0,0,13.94,0v5.5a50.06,50.06,0,0,0,42.52-42.52h-5.5A44.5,44.5,0,0,0,285.62,241.08Zm-85.44,0a40.9,40.9,0,1,1,40.9,40.9A40.95,40.95,0,0,1,200.18,241.08Z"/><path class="cls-63" d="M400.28,226.12l-42,1.93c-.1-.91-.21-1.83-.33-2.74l4.06-5.39A129,129,0,0,0,315.85,149l-.31.4c-2.34-1.9-4.73-3.71-7.2-5.42l.31-.41a129.72,129.72,0,0,0-40.8-19.93l9-38.39c.4-1.67,0-3.19-.8-3.39L272.55,81c-.84-.19-1.84,1-2.24,2.68l-9,38.25c-2-.45-4-.87-6-1.23l-1.46-1.93c-4.19-.14-8.37,0-12.52.21a131.27,131.27,0,0,0-13.61-.25l-1.59,2.11c-1.65.3-3.3.63-4.93,1L212,83c-.4-1.68-1.4-2.87-2.24-2.67l-3.54.84c-.84.2-1.19,1.72-.8,3.4l9.29,39A129.69,129.69,0,0,0,173,143.82l.23.3c-2.47,1.72-4.85,3.55-7.18,5.46l-.24-.32a129.07,129.07,0,0,0-46,71l4,5.35c-.08.63-.15,1.26-.22,1.89l-42.59-1.86c-1.72-.08-3.15.56-3.18,1.42l-.16,3.64c0,.86,1.32,1.62,3,1.69l42.35,1.85c-.09,1.62-.14,3.25-.15,4.88,0,.51,0,1,0,1.54s0,1.3,0,1.95c0,1.58.06,3.16.14,4.74l-41.84,1.92c-1.72.08-3.09.84-3,1.7l.17,3.64c0,.86,1.47,1.49,3.19,1.41l42-1.93c.09.83.2,1.66.3,2.48l-4,5.37a129,129,0,0,0,46.18,70.91l.24-.31c2.33,1.9,4.73,3.72,7.19,5.43l-.23.3a130,130,0,0,0,41.1,20l-9.09,38.58c-.39,1.68,0,3.2.8,3.39l3.55.84c.83.2,1.83-1,2.23-2.68L220.91,360q2.75.63,5.52,1.13l1.6,2.11a131.25,131.25,0,0,0,13.61-.28c4.16.25,8.33.33,12.52.18l1.46-1.94q2.5-.45,5-1l9.29,39c.39,1.68,1.4,2.88,2.24,2.68l3.54-.85c.83-.2,1.19-1.72.79-3.39l-9.31-39.13a129.65,129.65,0,0,0,41.71-20.3l-.3-.4c2.46-1.71,4.85-3.54,7.18-5.44l.31.4a129,129,0,0,0,46-71L358,256.38c.07-.58.15-1.16.21-1.74l42.87,1.86c1.72.08,3.15-.56,3.19-1.42l.16-3.63c0-.87-1.33-1.62-3.05-1.7l-42.62-1.86c.08-1.61.14-3.22.16-4.84,0-.52,0-1,0-1.55,0-.69,0-1.38,0-2.07,0-1.55-.05-3.1-.13-4.64l41.79-1.92c1.72-.07,3.08-.84,3-1.7l-.16-3.63C403.43,226.68,402,226,400.28,226.12Zm-60.6,71.14a123,123,0,0,1-27.6,30.26l.83,1.1c-1,.82-2,1.63-3.06,2.41l-.42.31h0l-.07.05-.07.05h0l-.41.32c-1,.79-2.09,1.55-3.15,2.29l-.84-1.1a123,123,0,0,1-36.61,18.34,112.83,112.83,0,0,1-15.51,2.78c-.57.05-1.14.12-1.71.16l-.95.08a113.45,113.45,0,0,1-36.23-3A122.85,122.85,0,0,1,177.23,333l-.83,1.1c-1.07-.74-2.12-1.5-3.16-2.28l-.41-.32h0a.18.18,0,0,1-.07,0l-.07-.05h0l-.42-.3c-1.05-.79-2.07-1.59-3.07-2.41l.83-1.1a123.06,123.06,0,0,1-27.67-30.2,112.14,112.14,0,0,1-.13-112.63,123,123,0,0,1,27.6-30.26l-.84-1.11c1-.81,2-1.62,3.07-2.41l.42-.3h0l.07-.06.07,0h0l.41-.32c1-.79,2.09-1.55,3.15-2.3l.84,1.11a123,123,0,0,1,36.61-18.35,113.13,113.13,0,0,1,36.22-3.11l1,.07,1.7.17A113,113,0,0,1,268,130.59a123.14,123.14,0,0,1,36.66,18.26l.83-1.1c1.06.74,2.12,1.5,3.16,2.29l.41.32h0l.07,0,.07.06h0l.42.31c1.05.78,2.06,1.59,3.07,2.4l-.83,1.11a123,123,0,0,1,27.67,30.19,112.44,112.44,0,0,1,.13,112.79Z"/><g class="cls-64"><path class="cls-65" d="M262.62,306.71v14.7A83.2,83.2,0,0,0,324,247.84H309.82A69.11,69.11,0,0,1,262.62,306.71Z"/></g><g class="cls-66"><path class="cls-67" d="M310,236.43h14.13a83.2,83.2,0,0,0-61.49-75.68v14.7A69.09,69.09,0,0,1,310,236.43Z"/></g><g class="cls-68"><path class="cls-69" d="M219.91,175.33V160.65a83.2,83.2,0,0,0-61.85,75.78h14.12A69.09,69.09,0,0,1,219.91,175.33Z"/></g><g class="cls-70"><path class="cls-71" d="M172.34,247.84H158.22a83.18,83.18,0,0,0,61.69,73.67V306.83A69.11,69.11,0,0,1,172.34,247.84Z"/></g></g></g></svg>