<svg xmlns="http://www.w3.org/2000/svg" viewBox="0 0 489.89 124.96"><defs><style>.cls-1,.cls-2,.cls-3,.cls-4,.cls-5,.cls-6,.cls-7,.cls-8{fill:#00d0ff;}.cls-1{opacity:0.5;}.cls-2{opacity:0.7;}.cls-4{opacity:0.8;}.cls-5{opacity:0.6;}.cls-6{opacity:0.4;}.cls-7{opacity:0.2;}.cls-8{opacity:0.1;}</style></defs><title>product_bottom_blue</title><g id="Layer_2" data-name="Layer 2"><g id="Layer_1-2" data-name="Layer 1"><polygon class="cls-1" points="66.64 98.11 9.15 98.11 9.72 0.24 2.29 9.39 2.29 48.84 0 59.13 0 102.58 4.48 112.56 14.88 112.56 11.73 105.02 58.71 104.53 66.64 98.11"/><polygon class="cls-2" points="246.88 115.53 246.88 115.81 199.89 115.53 149.37 115.53 158.15 122.67 197.6 122.67 207.89 124.96 251.35 124.96 261.32 120.48 261.32 115.53 246.88 115.53"/><polygon class="cls-2" points="24.52 56.1 24.6 56.14 16.93 68.97 8.76 82.81 12.13 81.55 18.51 70.75 20.8 68.3 27.83 56.4 28.21 52.94 26.86 52.14 24.52 56.1"/><polygon class="cls-3" points="481.12 115.4 464.76 115.4 473.54 123.71 489.89 123.71 481.12 115.4"/><rect class="cls-4" x="135.32" y="47.24" width="10.11" height="24.39" rx="1.19"/><rect class="cls-5" x="149.29" y="47.24" width="10.11" height="24.39" rx="1.19"/><rect class="cls-6" x="163.25" y="47.24" width="10.11" height="24.39" rx="1.19"/><rect class="cls-7" x="177.22" y="47.24" width="10.11" height="24.39" rx="1.19"/><rect class="cls-8" x="191.18" y="47.24" width="10.11" height="24.39" rx="1.19"/><rect class="cls-3" x="115.74" y="32.14" width="16.37" height="39.49" rx="1.93"/><path class="cls-3" d="M107.31,72a1,1,0,0,1-1-1V32.54a1,1,0,0,1,1.93,0V71.07A1,1,0,0,1,107.31,72Z"/><path class="cls-3" d="M10,.37V97.08H478.18a.48.48,0,1,1,0,1H9.48A.47.47,0,0,1,9,97.56V.24A.5.5,0,0,1,9.06,0"/><path class="cls-3" d="M126.31,72.59a2.39,2.39,0,1,1-2.38-2.39A2.39,2.39,0,0,1,126.31,72.59Z"/><polygon class="cls-3" points="149.94 114.92 124.41 88.31 124.41 72.91 123.44 72.91 123.44 87.3 123.44 88.7 123.44 88.96 123.7 88.96 149.53 115.88 481.54 115.88 481.54 114.92 149.94 114.92"/><polygon class="cls-3" points="10.17 80.52 9.43 80.07 26.89 51.45 107.55 51.45 107.55 52.32 27.38 52.32 10.17 80.52"/></g></g></svg>