<?xml version="1.0" encoding="utf-8"?>

<!DOCTYPE svg PUBLIC "-//W3C//DTD SVG 1.1//EN" "http://www.w3.org/Graphics/SVG/1.1/DTD/svg11.dtd">
<!-- Uploaded to: SVG Repo, www.svgrepo.com, Generator: SVG Repo Mixer Tools -->
<svg height="800px" width="800px" version="1.1" id="_x32_" xmlns="http://www.w3.org/2000/svg" xmlns:xlink="http://www.w3.org/1999/xlink" 
	 viewBox="0 0 512 512"  xml:space="preserve">
<style type="text/css">
	.st0{fill:#000000;}
</style>
<g>
	<path class="st0" d="M412.578,198.174c-11.158,6.083-20.201,20.053-20.201,31.21c0,11.151,9.043,15.266,20.201,9.191
		c11.15-6.082,20.2-20.06,20.2-31.211C432.778,196.207,423.728,192.091,412.578,198.174z"/>
	<path class="st0" d="M412.578,263.945c-11.158,6.083-20.201,20.053-20.201,31.21c0,11.158,9.043,15.273,20.201,9.191
		c11.15-6.082,20.2-20.059,20.2-31.21C432.778,261.985,423.728,257.863,412.578,263.945z"/>
	<path class="st0" d="M314.4,296.257c11.151-6.083,20.201-20.053,20.201-31.211c0-11.158-9.05-15.273-20.201-9.191
		c-11.164,6.083-20.201,20.053-20.201,31.211C294.199,298.224,303.236,302.339,314.4,296.257z"/>
	<path class="st0" d="M412.578,329.723c-11.158,6.076-20.201,20.053-20.201,31.204c0,11.158,9.043,15.273,20.201,9.19
		c11.15-6.082,20.2-20.053,20.2-31.21C432.778,327.756,423.728,323.641,412.578,329.723z"/>
	<path class="st0" d="M314.4,387.399c-11.164,6.089-20.201,20.06-20.201,31.21c0,11.158,9.036,15.273,20.201,9.19
		c11.151-6.075,20.201-20.052,20.201-31.21C334.601,385.438,325.551,381.323,314.4,387.399z"/>
	<path class="st0" d="M315.602,321.627c-11.157,6.083-20.194,20.053-20.194,31.211c0,11.158,9.036,15.273,20.194,9.191
		c11.158-6.083,20.208-20.053,20.208-31.211C335.81,319.66,326.76,315.544,315.602,321.627z"/>
	<path class="st0" d="M449.528,105.602L288.466,8.989C278.476,2.994,267.232,0,256,0c-11.225,0-22.476,2.994-32.46,8.989
		L62.472,105.602c-19.012,11.406-30.647,31.949-30.647,54.117v192.562c0,22.168,11.634,42.711,30.647,54.117l161.069,96.613
		C233.524,508.999,244.775,512,256,512c11.232,0,22.476-3.001,32.466-8.989l161.062-96.613
		c19.006-11.406,30.647-31.95,30.647-54.117V159.719C480.175,137.551,468.534,117.008,449.528,105.602z M250.589,492.733
		c-6.016-0.745-11.923-2.719-17.314-5.949L72.206,390.171c-13.313-7.989-21.456-22.369-21.456-37.89V159.719
		c0-6.022,1.242-11.862,3.512-17.234l196.328,117.76V492.733z M59.658,133.114c3.371-4.464,7.6-8.318,12.548-11.286l161.069-96.613
		c6.996-4.196,14.857-6.29,22.725-6.29c7.868,0,15.723,2.095,22.725,6.29l161.068,96.613c4.948,2.968,9.177,6.821,12.547,11.286
		L256,250.881L59.658,133.114z M461.244,352.281c0,15.521-8.137,29.901-21.45,37.89l-161.068,96.613
		c-5.391,3.23-11.292,5.204-17.314,5.949V260.246l196.328-117.76c2.269,5.371,3.505,11.212,3.505,17.234V352.281z"/>
	<path class="st0" d="M275.522,44.678c-9.828-7.27-26.028-7.459-36.172-0.403c-10.144,7.049-10.399,18.677-0.57,25.948
		c9.835,7.277,26.022,7.465,36.166,0.41C285.083,63.576,285.351,51.961,275.522,44.678z"/>
	<path class="st0" d="M382.34,115.78c-9.828-7.284-26.021-7.466-36.165-0.417c-10.137,7.049-10.399,18.677-0.57,25.948
		c9.835,7.277,26.021,7.459,36.165,0.416C391.914,134.664,392.175,123.057,382.34,115.78z"/>
	<path class="st0" d="M165.617,113.564c-9.829-7.278-26.021-7.459-36.165-0.41c-10.151,7.056-10.406,18.67-0.577,25.948
		c9.828,7.284,26.022,7.459,36.172,0.41C175.183,132.456,175.445,120.842,165.617,113.564z"/>
	<path class="st0" d="M272.441,184.653c-9.836-7.278-26.028-7.459-36.165-0.41c-10.144,7.056-10.406,18.67-0.572,25.947
		c9.836,7.284,26.015,7.466,36.166,0.41C282.008,203.551,282.27,191.937,272.441,184.653z"/>
	<path class="st0" d="M273.354,115.102c-9.5-7.029-25.135-7.21-34.944-0.396c-9.802,6.814-10.043,18.039-0.551,25.068
		c9.5,7.028,25.142,7.21,34.95,0.396C282.605,133.356,282.854,122.131,273.354,115.102z"/>
	<path class="st0" d="M89.278,248.303c11.158,6.083,20.208,1.961,20.208-9.19c0-11.158-9.05-25.129-20.208-31.211
		c-11.15-6.082-20.194-1.967-20.194,9.191C69.084,228.243,78.128,242.22,89.278,248.303z"/>
	<path class="st0" d="M202.064,422.55c11.157,6.082,20.194,1.967,20.194-9.191c0-11.151-9.037-25.128-20.194-31.211
		c-11.158-6.076-20.194-1.96-20.194,9.191C181.87,402.497,190.906,416.468,202.064,422.55z"/>
	<path class="st0" d="M145.672,335.423c11.157,6.083,20.2,1.968,20.2-9.19c0-11.151-9.043-25.128-20.2-31.204
		c-11.158-6.082-20.194-1.967-20.194,9.184C125.478,315.37,134.514,329.341,145.672,335.423z"/>
</g>
</svg>