<svg width="46" height="46" viewBox="0 0 46 46" fill="none" xmlns="http://www.w3.org/2000/svg">
<path fill-rule="evenodd" clip-rule="evenodd" d="M2.47003 5.29532C2.72109 4.54215 3.53518 4.13511 4.28833 4.38617L4.79609 4.55541C4.82139 4.56385 4.8466 4.57226 4.87174 4.58064C6.07229 4.98076 7.08684 5.31892 7.88461 5.69004C8.73262 6.08455 9.46841 6.57347 10.0264 7.34756C10.5843 8.12166 10.8154 8.97431 10.9215 9.90355C11.0213 10.7777 11.0213 11.8472 11.0213 13.1126V18.2082C11.0213 20.9595 11.0243 22.8783 11.219 24.3259C11.408 25.7324 11.7539 26.4772 12.2844 27.0077C12.8148 27.5381 13.5596 27.884 14.966 28.073C16.4137 28.2677 18.3326 28.2708 21.0838 28.2708H34.5004C35.2943 28.2708 35.9379 28.9142 35.9379 29.7083C35.9379 30.5022 35.2943 31.1458 34.5004 31.1458H20.9785C18.3574 31.1458 16.2446 31.1458 14.5829 30.9223C12.8577 30.6904 11.4051 30.1942 10.2514 29.0405C9.09776 27.8869 8.60154 26.4343 8.3696 24.7091C8.1462 23.0473 8.14622 20.9346 8.14625 18.3134V13.1924C8.14625 11.8258 8.14409 10.9216 8.06508 10.2296C7.99029 9.57446 7.85967 9.25842 7.69404 9.02861C7.5284 8.7988 7.26988 8.57493 6.67195 8.29679C6.04051 8.00304 5.18337 7.71502 3.88692 7.28289L3.37918 7.11363C2.62602 6.86258 2.21898 6.0485 2.47003 5.29532Z" fill="#1C274C"/>
<path opacity="0.5" d="M11.0115 11.5C11.021 11.9966 11.021 12.5342 11.021 13.1127L11.0209 18.2083C11.0209 20.9595 11.024 22.8783 11.2186 24.3261C11.2471 24.5374 11.279 24.7338 11.3146 24.9167H30.709C32.5479 24.9167 33.4673 24.9167 34.1874 24.4419C34.9075 23.967 35.2697 23.1219 35.994 21.4318L36.8155 19.5151C38.3671 15.8948 39.1427 14.0847 38.2906 12.7923C37.4384 11.5 35.4691 11.5 31.5305 11.5H11.0115Z" fill="#1C274C"/>
<path d="M14.375 34.5C15.9628 34.5 17.25 35.7872 17.25 37.375C17.25 38.9628 15.9628 40.25 14.375 40.25C12.7872 40.25 11.5 38.9628 11.5 37.375C11.5 35.7872 12.7872 34.5 14.375 34.5Z" fill="#1C274C"/>
<path d="M34.5 37.3752C34.5 35.7872 33.2128 34.5002 31.625 34.5002C30.0372 34.5002 28.75 35.7872 28.75 37.3752C28.75 38.9629 30.0372 40.2502 31.625 40.2502C33.2128 40.2502 34.5 38.9629 34.5 37.3752Z" fill="#1C274C"/>
</svg>
