<svg xmlns="http://www.w3.org/2000/svg" viewBox="0 0 912 496.12"><defs><style>.cls-1,.cls-10,.cls-11,.cls-12,.cls-2,.cls-3,.cls-4,.cls-5,.cls-6,.cls-7,.cls-8{fill:#ff4bfa;}.cls-2{opacity:0.8;}.cls-10,.cls-11,.cls-12,.cls-2,.cls-3,.cls-4,.cls-5,.cls-6,.cls-7,.cls-8{isolation:isolate;}.cls-3{opacity:0.6;}.cls-4{opacity:0.4;}.cls-5{opacity:0.2;}.cls-6{opacity:0.1;}.cls-7{opacity:0.5;}.cls-8{opacity:0.3;}.cls-9{opacity:0.51;}.cls-10{opacity:0.7;}.cls-11{opacity:0.46;}.cls-12{opacity:0.25;}.cls-13{font-size:9.03px;fill:#fff;font-family:Kingslay;}.cls-14{letter-spacing:-0.02em;}.cls-15{letter-spacing:-0.04em;}.cls-16{opacity:0.15;}</style></defs><title>header_ui_frame_03</title><g id="Layer_2" data-name="Layer 2"><g id="Layer_1-2" data-name="Layer 1"><g id="Layer_2-2" data-name="Layer 2"><g id="Layer_1-2-2" data-name="Layer 1-2"><g id="Layer_2-2-2" data-name="Layer 2-2"><g id="Layer_1-2-2-2" data-name="Layer 1-2-2"><path class="cls-1" d="M912,308.25l-2.57.26c-1-.06-1.51-.28-1.51-1.44V214c0-1.15.6-1.27,1.83-2.16l2.25-1.26Z"/><polygon class="cls-1" points="306.36 256.77 306.95 256.76 306.95 251.08 306.36 251.07 306.36 256.77"/><polygon class="cls-1" points="302.56 256.81 303.16 256.81 303.16 251.04 302.56 251.03 302.56 256.81"/><polygon class="cls-1" points="298.64 256.85 299.26 256.84 299.26 250.99 298.64 250.99 298.64 256.85"/><polygon class="cls-1" points="294.62 256.9 295.26 256.88 295.26 250.96 294.62 250.95 294.62 256.9"/><polygon class="cls-1" points="290.48 256.94 291.13 256.93 291.13 250.91 290.48 250.9 290.48 256.94"/><polygon class="cls-1" points="286.21 256.99 286.89 256.98 286.89 250.87 286.21 250.86 286.21 256.99"/><polygon class="cls-1" points="281.81 257.03 282.51 257.02 282.51 250.82 281.81 250.81 281.81 257.03"/><polygon class="cls-1" points="277.28 257.08 278.01 257.06 278.01 250.78 277.28 250.77 277.28 257.08"/><polygon class="cls-1" points="272.61 257.12 273.36 257.12 273.36 250.72 272.61 250.72 272.61 257.12"/><polygon class="cls-1" points="267.79 257.18 268.56 257.17 268.56 250.68 267.79 250.67 267.79 257.18"/><polygon class="cls-1" points="262.82 257.22 263.62 257.22 263.62 250.62 262.82 250.62 262.82 257.22"/><polygon class="cls-1" points="257.69 257.28 258.51 257.27 258.51 250.56 257.69 250.56 257.69 257.28"/><polygon class="cls-1" points="252.39 257.34 253.23 257.32 253.23 250.52 252.39 250.51 252.39 257.34"/><polygon class="cls-1" points="246.9 257.39 247.78 257.38 247.78 250.45 246.9 250.45 246.9 257.39"/><polygon class="cls-1" points="241.23 257.45 242.14 257.45 242.14 250.4 241.23 250.38 241.23 257.45"/><polygon class="cls-1" points="235.37 257.52 236.3 257.5 236.3 250.34 235.37 250.33 235.37 257.52"/><polygon class="cls-1" points="229.29 257.57 230.26 257.57 230.26 250.27 229.29 250.26 229.29 257.57"/><polygon class="cls-1" points="222.99 257.64 224 257.64 224 250.2 222.99 250.2 222.99 257.64"/><polygon class="cls-1" points="216.47 257.71 217.51 257.71 217.51 250.13 216.47 250.12 216.47 257.71"/><polygon class="cls-1" points="209.7 257.79 210.78 257.78 210.78 250.07 209.7 250.06 209.7 257.79"/><polygon class="cls-1" points="202.67 257.86 203.79 257.84 203.79 250 202.67 249.99 202.67 257.86"/><polygon class="cls-1" points="195.36 257.93 196.53 257.92 196.53 249.92 195.36 249.91 195.36 257.93"/><polygon class="cls-1" points="187.77 258.01 188.99 258 188.99 249.84 187.77 249.83 187.77 258.01"/><polygon class="cls-1" points="179.88 258.09 181.14 258.08 181.14 249.76 179.88 249.74 179.88 258.09"/><polygon class="cls-1" points="171.65 258.18 172.97 258.17 172.97 249.67 171.65 249.66 171.65 258.18"/><polygon class="cls-1" points="163.08 258.27 164.45 258.26 164.45 249.58 163.08 249.57 163.08 258.27"/><polygon class="cls-1" points="154.13 258.36 155.57 258.35 155.57 249.49 154.13 249.47 154.13 258.36"/><polygon class="cls-1" points="144.8 258.46 146.29 258.45 146.29 249.39 144.8 249.38 144.8 258.46"/><polygon class="cls-1" points="135.04 258.57 136.61 258.56 136.61 249.29 135.04 249.28 135.04 258.57"/><polygon class="cls-1" points="124.84 258.68 126.48 258.66 126.48 249.19 124.84 249.16 124.84 258.68"/><polygon class="cls-1" points="114.15 258.78 115.86 258.77 115.86 249.07 114.15 249.05 114.15 258.78"/><polygon class="cls-1" points="102.95 258.9 104.75 258.88 104.75 248.96 102.95 248.94 102.95 258.9"/><polygon class="cls-1" points="78.84 259.15 80.83 259.13 80.83 248.7 78.84 248.68 78.84 259.15"/><polygon class="cls-1" points="65.84 259.29 67.93 259.27 67.93 248.57 65.84 248.54 65.84 259.29"/><polygon class="cls-1" points="52.15 259.44 54.35 259.41 54.35 248.43 52.15 248.41 52.15 259.44"/><polygon class="cls-1" points="37.7 259.59 40.03 259.56 40.03 248.28 37.7 248.25 37.7 259.59"/><polygon class="cls-1" points="22.44 259.75 24.91 259.73 24.91 248.12 22.44 248.09 22.44 259.75"/><polygon class="cls-1" points="6.3 259.92 8.91 259.89 8.91 247.95 6.3 247.92 6.3 259.92"/><polygon class="cls-1" points="0 302.76 3.09 302.54 3.09 205.31 0 205.07 0 302.76"/><polygon class="cls-1" points="568.61 2.82 568.22 2.11 568.64 2.11 603.37 41.31 797.47 41.31 797.47 42.14 603.06 42.14 602.95 42.02 568.53 3.17 568.61 2.82"/><path class="cls-1" d="M590.22,30,568.32,5.29l-22.8,16-1.95-3.55,24-16.87L568.86,0l24,27.09Z"/><polygon class="cls-1" points="605.87 45.38 669.79 45.38 673.02 49.04 768.99 49.04 764 54.67 665.63 54.67 660.37 60.61 637.09 60.61 628.41 50.81 609.1 50.81 604.31 45.4 605.87 45.38"/><polygon class="cls-1" points="740.42 65.79 723.33 65.79 717.2 58.87 667.6 58.87 667.6 58.03 717.51 58.03 723.64 64.95 740.11 64.95 747.56 56.54 748.08 57.14 740.42 65.79"/><polygon class="cls-1" points="724.58 58.94 740.77 58.94 737.8 62.28 726.5 62.28 723.61 59.02 724.58 58.94"/><polygon class="cls-1" points="898.14 176.13 858.54 131.44 858.54 97.46 817.76 51.43 781.5 51.43 781.5 50.6 818.07 50.6 818.18 50.72 859.28 97.11 859.28 131.09 898.67 175.54 898.14 176.13"/><polygon class="cls-1" points="817.92 55.88 856.21 99.1 856.21 110.65 853.07 107.09 853.07 101.19 819.99 63.86 817.92 55.88"/><polygon class="cls-1" points="911.33 183.19 897.8 183.19 889.89 174.26 890.41 173.67 898.11 182.36 911.33 182.36 911.33 183.19"/><polygon class="cls-1" points="568.64 494.01 568.25 494.72 568.64 494.01 568.53 492.95 603.06 453.98 797.47 453.98 797.47 454.81 603.37 454.81 568.64 494.01"/><path class="cls-1" d="M568.86,496.12l-1.25-.87-24-16.87,1.95-3.55,22.8,16,21.9-24.71,2.61,2.95Z"/><polygon class="cls-1" points="605.87 450.74 669.79 450.74 673.02 447.08 768.99 447.08 764 441.45 665.63 441.45 660.37 435.51 637.09 435.51 628.41 445.31 609.1 445.31 604.31 450.71 605.87 450.74"/><polygon class="cls-1" points="747.56 439.57 740.11 431.17 723.64 431.17 717.51 438.08 667.6 438.08 667.6 437.25 717.2 437.25 723.33 430.33 740.42 430.33 748.08 438.98 747.56 439.57"/><polygon class="cls-1" points="724.58 437.18 740.77 437.18 737.8 433.84 726.5 433.84 723.61 437.1 724.58 437.18"/><polygon class="cls-1" points="818.07 445.52 781.5 445.52 781.5 444.69 817.76 444.69 858.54 398.66 858.54 364.68 858.65 364.55 898.14 319.99 898.67 320.57 859.28 365.03 859.28 399.01 859.17 399.13 818.07 445.52"/><polygon class="cls-1" points="817.92 440.24 856.21 397.01 856.21 385.47 853.07 389.02 853.07 394.93 819.99 432.26 817.92 440.24"/><polygon class="cls-1" points="890.41 322.45 889.89 321.86 897.8 312.92 911.33 312.92 911.33 313.75 898.11 313.75 890.41 322.45"/><polygon class="cls-1" points="343.17 2.29 343.03 3.17 308.51 42.14 114.09 42.14 114.09 41.31 308.2 41.31 342.93 2.11 343.17 2.29 343.57 1.58 343.17 2.29"/><path class="cls-1" d="M321.35,30l-2.61-2.91L342.74,0,344,.87,368.05,17.8l-2,3.54-22.8-16Z"/><polygon class="cls-1" points="305.7 45.38 241.78 45.38 238.55 49.04 142.57 49.04 147.56 54.67 245.94 54.67 251.2 60.61 274.48 60.61 283.16 50.81 302.46 50.81 307.25 45.4 305.7 45.38"/><polygon class="cls-1" points="188.24 65.79 171.15 65.79 163.49 57.14 164.01 56.54 171.46 64.95 187.93 64.95 194.06 58.03 243.96 58.03 243.96 58.87 194.36 58.87 188.24 65.79"/><polygon class="cls-1" points="186.98 58.94 170.79 58.94 173.76 62.28 185.06 62.28 187.96 59.02 186.98 58.94"/><polygon class="cls-1" points="13.42 176.13 12.9 175.54 52.29 131.09 52.29 97.11 93.5 50.6 130.06 50.6 130.06 51.43 93.8 51.43 53.03 97.46 53.03 131.44 13.42 176.13"/><polygon class="cls-1" points="93.65 55.88 55.35 99.1 55.35 110.65 58.5 107.09 58.5 101.19 91.58 63.86 93.65 55.88"/><polygon class="cls-1" points="13.76 183.19 0.23 183.19 0.23 182.36 13.46 182.36 21.16 173.67 21.68 174.26 13.76 183.19"/><polygon class="cls-1" points="342.93 494.01 342.72 493.77 308.2 454.81 114.09 454.81 114.09 453.98 308.51 453.98 308.61 454.1 343.03 492.95 343.15 493.65 343.56 494.36 342.93 494.01"/><path class="cls-1" d="M342.71,496.12l-24-27.09,2.61-3,21.9,24.72,22.78-16,2,3.55-24,16.87Z"/><polygon class="cls-1" points="305.7 450.74 241.78 450.74 238.55 447.08 142.57 447.08 147.56 441.45 245.94 441.45 251.2 435.51 274.48 435.51 283.16 445.31 302.46 445.31 307.25 450.71 305.7 450.74"/><polygon class="cls-1" points="164.01 439.57 163.49 438.98 171.15 430.33 188.24 430.33 194.36 437.25 243.96 437.25 243.96 438.08 194.06 438.08 187.93 431.17 171.46 431.17 164.01 439.57"/><polygon class="cls-1" points="186.98 437.18 170.79 437.18 173.76 433.84 185.06 433.84 187.96 437.1 186.98 437.18"/><polygon class="cls-1" points="130.06 445.52 93.5 445.52 93.39 445.4 52.29 399.01 52.29 365.03 12.9 320.57 13.42 319.99 53.03 364.68 53.03 398.66 93.8 444.69 130.06 444.69 130.06 445.52"/><polygon class="cls-1" points="93.65 440.24 55.35 397.01 55.35 385.47 58.5 389.02 58.5 394.93 91.58 432.26 93.65 440.24"/><polygon class="cls-1" points="21.16 322.45 13.46 313.75 0.23 313.75 0.23 312.92 13.76 312.92 21.68 321.86 21.16 322.45"/></g></g><path class="cls-2" d="M126.79,103.45h3.55a.58.58,0,0,1,.54.61v11.39a.58.58,0,0,1-.54.61h-3.55a.58.58,0,0,1-.54-.61V104.06A.58.58,0,0,1,126.79,103.45Z"/><path class="cls-3" d="M133.18,103.45h3.55a.58.58,0,0,1,.54.61v11.39a.58.58,0,0,1-.54.61h-3.55a.58.58,0,0,1-.54-.61V104.06A.58.58,0,0,1,133.18,103.45Z"/><path class="cls-4" d="M139.58,103.45h3.55a.58.58,0,0,1,.54.61v11.39a.58.58,0,0,1-.54.61h-3.55a.58.58,0,0,1-.54-.61V104.06A.58.58,0,0,1,139.58,103.45Z"/><path class="cls-5" d="M146,103.45h3.55a.58.58,0,0,1,.54.61v11.39a.58.58,0,0,1-.54.61H146a.58.58,0,0,1-.54-.61V104.06A.58.58,0,0,1,146,103.45Z"/><path class="cls-6" d="M152.36,103.45h3.55a.58.58,0,0,1,.54.61v11.39a.58.58,0,0,1-.54.61h-3.55a.58.58,0,0,1-.54-.61V104.06A.58.58,0,0,1,152.36,103.45Z"/><path class="cls-2" d="M126.79,134.22h3.55a.57.57,0,0,1,.54.6v11.39a.58.58,0,0,1-.54.61h-3.55a.58.58,0,0,1-.54-.61V134.82A.57.57,0,0,1,126.79,134.22Z"/><path class="cls-3" d="M133.18,134.22h3.55a.57.57,0,0,1,.54.6v11.39a.58.58,0,0,1-.54.61h-3.55a.58.58,0,0,1-.54-.61V134.82A.57.57,0,0,1,133.18,134.22Z"/><path class="cls-4" d="M139.58,134.22h3.55a.57.57,0,0,1,.54.6v11.39a.58.58,0,0,1-.54.61h-3.55a.58.58,0,0,1-.54-.61V134.82A.57.57,0,0,1,139.58,134.22Z"/><path class="cls-5" d="M146,134.22h3.55a.57.57,0,0,1,.54.6v11.39a.58.58,0,0,1-.54.61H146a.58.58,0,0,1-.54-.61V134.82A.57.57,0,0,1,146,134.22Z"/><path class="cls-6" d="M152.36,134.22h3.55a.57.57,0,0,1,.54.6v11.39a.58.58,0,0,1-.54.61h-3.55a.58.58,0,0,1-.54-.61V134.82A.57.57,0,0,1,152.36,134.22Z"/><path class="cls-2" d="M126.79,164.72h3.55a.58.58,0,0,1,.54.61v11.39a.58.58,0,0,1-.54.61h-3.55a.58.58,0,0,1-.54-.61V165.33A.58.58,0,0,1,126.79,164.72Z"/><path class="cls-3" d="M133.18,164.72h3.55a.58.58,0,0,1,.54.61v11.39a.58.58,0,0,1-.54.61h-3.55a.58.58,0,0,1-.54-.61V165.33A.58.58,0,0,1,133.18,164.72Z"/><path class="cls-4" d="M139.58,164.72h3.55a.58.58,0,0,1,.54.61v11.39a.58.58,0,0,1-.54.61h-3.55a.58.58,0,0,1-.54-.61V165.33A.58.58,0,0,1,139.58,164.72Z"/><path class="cls-5" d="M146,164.72h3.55a.58.58,0,0,1,.54.61v11.39a.58.58,0,0,1-.54.61H146a.58.58,0,0,1-.54-.61V165.33A.58.58,0,0,1,146,164.72Z"/><path class="cls-6" d="M152.36,164.72h3.55a.58.58,0,0,1,.54.61v11.39a.58.58,0,0,1-.54.61h-3.55a.58.58,0,0,1-.54-.61V165.33A.58.58,0,0,1,152.36,164.72Z"/><path class="cls-1" d="M157.9,109.75a1.11,1.11,0,1,1-2.2,0,1.16,1.16,0,0,1,1.08-1.24h0a1.15,1.15,0,0,1,1.11,1.2Z"/><path class="cls-1" d="M118.11,95.63h5.74a.94.94,0,0,1,.88,1V115a.94.94,0,0,1-.88,1h-5.74a.94.94,0,0,1-.88-1V96.62A.94.94,0,0,1,118.11,95.63Z"/><path class="cls-1" d="M118.16,126.48h5.74a.94.94,0,0,1,.88,1V145.9a.94.94,0,0,1-.88,1h-5.74a.94.94,0,0,1-.88-1V127.48A.94.94,0,0,1,118.16,126.48Z"/><path class="cls-1" d="M118.16,157h5.74a.94.94,0,0,1,.88,1V176.4a.94.94,0,0,1-.88,1h-5.74a.94.94,0,0,1-.88-1V158A.94.94,0,0,1,118.16,157Z"/><path class="cls-1" d="M122.08,95.45a1.11,1.11,0,1,1-1.1-1.26h0a1.16,1.16,0,0,1,1.09,1.21h0Z"/><path class="cls-1" d="M122.08,209.16a1.11,1.11,0,1,1-2.2,0A1.19,1.19,0,0,1,121,207.9h.13A1.2,1.2,0,0,1,122.08,209.16Z"/><rect class="cls-1" x="157.9" y="109.58" width="13.24" height="0.34"/><path class="cls-1" d="M157.68,140.65a1.11,1.11,0,1,1-2.2,0,1.16,1.16,0,0,1,1.08-1.24h0a1.15,1.15,0,0,1,1.11,1.2Z"/><rect class="cls-1" x="157.68" y="140.48" width="13.24" height="0.34"/><path class="cls-1" d="M157.46,170.92a1.11,1.11,0,1,1-2.2,0,1.16,1.16,0,0,1,1.08-1.24h0a1.15,1.15,0,0,1,1.11,1.2Z"/><rect class="cls-1" x="157.46" y="170.75" width="13.24" height="0.34"/><path class="cls-1" d="M110,229.66c-6.1,0-11.07-7.31-11.07-16.31V95.19c0-9,5-16.3,11.07-16.3s11,7.3,11,16.3V213.36C121,222.34,116.08,229.66,110,229.66Zm0-150.33c-5.93,0-10.76,7.11-10.76,15.8V213.36c0,8.74,4.83,15.81,10.76,15.81s10.76-7.11,10.76-15.81V95.19C120.71,86.44,115.88,79.33,110,79.33Z"/><path class="cls-1" d="M107.19,83.68c-3.37,2.39-5.73,7.76-5.73,14V210.53c0,6.24,2.36,11.6,5.73,14Z"/><rect class="cls-7" x="108.74" y="83.68" width="1.98" height="140.58"/><rect class="cls-8" x="112.04" y="83.99" width="1.98" height="140.58"/><rect class="cls-7" x="171.95" y="119.69" width="59.98" height="10.62"/><rect class="cls-8" x="171.95" y="150.22" width="59.98" height="10.62"/><path class="cls-2" d="M126.79,196h3.55a.58.58,0,0,1,.54.61V208a.58.58,0,0,1-.54.61h-3.55a.58.58,0,0,1-.54-.61V196.59A.58.58,0,0,1,126.79,196Z"/><path class="cls-3" d="M133.18,196h3.55a.58.58,0,0,1,.54.61V208a.58.58,0,0,1-.54.61h-3.55a.58.58,0,0,1-.54-.61V196.59A.58.58,0,0,1,133.18,196Z"/><path class="cls-4" d="M139.58,196h3.55a.58.58,0,0,1,.54.61V208a.58.58,0,0,1-.54.61h-3.55A.58.58,0,0,1,139,208V196.59A.58.58,0,0,1,139.58,196Z"/><path class="cls-5" d="M146,196h3.55a.58.58,0,0,1,.54.61V208a.58.58,0,0,1-.54.61H146a.58.58,0,0,1-.54-.61V196.59A.58.58,0,0,1,146,196Z"/><path class="cls-6" d="M152.36,196h3.55a.58.58,0,0,1,.54.61V208a.58.58,0,0,1-.54.61h-3.55a.58.58,0,0,1-.54-.61V196.59A.58.58,0,0,1,152.36,196Z"/><path class="cls-1" d="M118.13,188.49h5.74a.94.94,0,0,1,.88,1V207.9a.94.94,0,0,1-.88,1h-5.74a.94.94,0,0,1-.88-1V189.48A.94.94,0,0,1,118.13,188.49Z"/><rect class="cls-8" x="171.94" y="180.59" width="59.98" height="10.62"/><path class="cls-1" d="M157.68,202.28a1.11,1.11,0,1,1-1.12-1.24h0a1.16,1.16,0,0,1,1.11,1.21Z"/><rect class="cls-1" x="157.68" y="202.11" width="13.24" height="0.34"/><path class="cls-1" d="M172.9,195.78h57.36c3.07,0,5.56,2.81,5.56,6.28v.59c0,3.47-2.49,6.28-5.56,6.28H172.9c-3.07,0-5.56-2.81-5.56-6.28v-.59C167.34,198.59,169.83,195.78,172.9,195.78Z"/><path class="cls-1" d="M190.61,201.28l1.1-1.26v4.58h-1.1v-1.13h-3.25v1.13h-1.28V202l1.24-.73v2l.66-1h2.59Zm0-1.26v1.26h-3.25L186.08,200Z"/><path class="cls-1" d="M201.37,200.05l-1.09,1.25h-7.2v2h4v1.26h-4l-1.1-1.26v-3.3Zm-2.43,5.19L197.67,204v-2.68l1.27.83Z"/><path class="cls-1" d="M202.76,200v4.58h-1.09V200Z"/><path class="cls-1" d="M203.08,200h1.43l4,4.58h-1.45Zm4.7,0h1.1v4.58l-1.1-1.26Z"/><path class="cls-1" d="M213.45,202.85h-3.22v.45h4v1.25h-4l-1.09-1.25V200l1.09,1.26v.35h4.05Zm1.28-2.87-1.09,1.25h-3.41V200Z"/><path class="cls-1" d="M173.08,103.35h57.36c3.07,0,5.56,2.81,5.56,6.27v.6c0,3.47-2.49,6.28-5.56,6.28H173.08c-3.07,0-5.56-2.81-5.56-6.28v-.6C167.52,106.16,170,103.35,173.08,103.35Z"/><path class="cls-1" d="M172.94,134.6H230.3c3.07,0,5.56,2.81,5.56,6.27v.6c0,3.47-2.49,6.28-5.56,6.28H172.94c-3.07,0-5.56-2.81-5.56-6.28v-.6C167.38,137.41,169.87,134.6,172.94,134.6Z"/><path class="cls-1" d="M172.85,164.51h57.36c3.07,0,5.56,2.81,5.56,6.27v.6c0,3.47-2.49,6.28-5.56,6.28H172.85c-3.07,0-5.56-2.81-5.56-6.28v-.6C167.29,167.32,169.78,164.51,172.85,164.51Z"/><path class="cls-1" d="M183.83,113.06h-4.66l-1.28-1.47v-3.91h5.3l.65,1.48h-4.67v2.43h4.66Z"/><path class="cls-1" d="M185.67,107.68v2.92l-1.48,1v-3.92Zm-1.48,3.9h5.65L188.55,113h-4.36Z"/><path class="cls-1" d="M195.5,113.06h-4l-1.29-1.47v-3.91h5.31l1.28,1.48v3.9l-1.29-1.47v-2.43h-4v2.43h4Z"/><path class="cls-1" d="M203.6,107.68l-1.28,1.48h-5.18v-1.48Zm-2.86,6.12-1.49-1.48v-3.16l1.49,1Z"/><path class="cls-1" d="M205.24,107.68v1.89h3.47l-1,1.49h-2.5v2H204v-5.38Zm3.47,0H210v5.38h-1.29Z"/><path class="cls-1" d="M215.43,111.06h-3.79v.53h4.76v1.47h-4.76l-1.29-1.47v-3.91l1.29,1.48v.41h4.77Zm1.52-3.39-1.3,1.48h-4v-1.47Z"/><path class="cls-1" d="M218.58,109.16v.42h5.31v3.48H217.3l1.28-1.47h4v-.53H217.3v-3.39Zm5.31-1.48-1.3,1.48h-4v-1.48Z"/><path class="cls-1" d="M174.41,139.66v.41h5.3v3.49h-6.59l1.29-1.48h4v-.53h-5.3v-3.38Zm5.3-1.47-1.29,1.47h-4v-1.47Z"/><path class="cls-1" d="M185.37,143.56h-4l-1.29-1.48v-3.89h5.31l1.28,1.47v3.9l-1.29-1.48v-2.42h-4v2.42h4Z"/><path class="cls-1" d="M188.3,138.19v3.89h4v1.48h-4l-1.3-1.48v-3.89Zm4,0h1.29v5.37l-1.29-1.48Z"/><path class="cls-1" d="M194,138.19h1.69l4.7,5.37h-1.7Zm5.55,0h1.28v5.37l-1.28-1.48Z"/><path class="cls-1" d="M206.22,141.55h-3.8v.53h4.76v1.48h-4.76l-1.29-1.48v-3.89l1.29,1.47v.41h4.77Zm1.51-3.38-1.3,1.46h-4v-1.46Z"/><path class="cls-1" d="M208.08,143.56v-5.37l1.29,1.47v3.9Zm5.3-5.37,1.29,1.47v3.9h-1.29v-3.9h-4v-1.47Z"/><path class="cls-1" d="M216.31,138.19v5.37H215v-5.37Z"/><path class="cls-1" d="M218.12,141.55v2h-1.46v-3.49H222v-.41h-4l-1.29-1.47h6.59v3.38H221l2.79,2h-2.18l-3-2Z"/><path class="cls-1" d="M225.31,139.66v.41h5.31v3.49H224l1.29-1.48h4v-.53H224v-3.38Zm5.31-1.47-1.3,1.47h-4v-1.47Z"/><path class="cls-1" d="M194.07,168.5h5.3V170h-4Zm0,5.37v-3.45h1.46v3.48Zm5.3-3.9,1.29-1.47v3.39h-4.57v-1.47h3.28Z"/><path class="cls-1" d="M207,173.87h-4.7L201,172.4v-3.9h5.31L207,170H202.3v2.43H207Z"/><path class="cls-1" d="M185.46,199.87h6.6v5.37h-1.3v-1.31h-3.83v1.31h-1.47v-3l1.47-.87v2.26l.77-1.13h3.06v-1.13h-3.83Z"/><path class="cls-1" d="M203.45,199.89l-1.28,1.48h-8.48v2.41h4.66v1.48h-4.66l-1.28-1.48v-3.89ZM200.58,206l-1.49-1.47v-3.16l1.49,1Z"/><path class="cls-1" d="M205.09,199.87v5.37H203.8v-5.37Z"/><path class="cls-1" d="M205.44,199.87h1.69l4.7,5.37h-1.71Zm5.55,0h1.28v5.37L211,203.76Z"/><path class="cls-1" d="M217.7,203.23h-3.79v.53h4.76v1.48h-4.76l-1.29-1.48v-3.89l1.29,1.46v.42h4.77Zm1.52-3.39-1.3,1.47h-4v-1.47Z"/><rect class="cls-1" x="706.88" y="406.14" width="41.63" height="3.25"/><rect class="cls-1" x="706.88" y="416.26" width="4.16" height="3.25"/><rect class="cls-1" x="712.32" y="416.26" width="4.16" height="3.25"/><rect class="cls-1" x="717.77" y="416.26" width="4.16" height="3.25"/><rect class="cls-1" x="723.21" y="416.26" width="4.16" height="3.25"/><rect class="cls-1" x="728.02" y="416.26" width="11.21" height="3.25"/><rect class="cls-1" x="706.88" y="411.92" width="13.77" height="3.25"/><rect class="cls-1" x="721.61" y="411.92" width="5.44" height="3.25"/><rect class="cls-1" x="728.98" y="411.92" width="5.44" height="3.25"/><rect class="cls-1" x="736.34" y="411.92" width="5.44" height="3.25"/><rect class="cls-1" x="743.71" y="411.92" width="4.8" height="3.25"/><rect class="cls-1" x="743.71" y="416.26" width="4.8" height="3.25"/><rect class="cls-1" x="750.97" y="406.14" width="41.63" height="3.25"/><rect class="cls-1" x="750.97" y="416.26" width="4.16" height="3.25"/><rect class="cls-1" x="756.42" y="416.26" width="4.16" height="3.25"/><rect class="cls-1" x="761.86" y="416.26" width="4.16" height="3.25"/><rect class="cls-1" x="767.3" y="416.26" width="4.16" height="3.25"/><rect class="cls-1" x="772.11" y="416.26" width="11.21" height="3.25"/><rect class="cls-1" x="750.97" y="411.92" width="13.77" height="3.25"/><rect class="cls-1" x="765.7" y="411.92" width="5.44" height="3.25"/><rect class="cls-1" x="773.07" y="411.92" width="5.44" height="3.25"/><rect class="cls-1" x="780.43" y="411.92" width="5.44" height="3.25"/><rect class="cls-1" x="787.8" y="411.92" width="4.8" height="3.25"/><rect class="cls-1" x="787.8" y="416.26" width="4.8" height="3.25"/><rect class="cls-1" x="796.8" y="402.61" width="2.27" height="16.96"/><rect class="cls-1" x="800.86" y="404.53" width="2.27" height="15.04"/><rect class="cls-1" x="804.92" y="406.64" width="2.27" height="12.95"/><rect class="cls-1" x="808.98" y="409.28" width="2.27" height="10.29"/><rect class="cls-1" x="813.04" y="414.21" width="2.27" height="5.37"/><g id="red"><path class="cls-1" d="M897.62,205.05c0,1.52-.51,2.37-1.39,2.37s-1.31-.83-1.32-2.32.58-2.33,1.39-2.33S897.62,203.61,897.62,205.05Zm-2.17.06c0,1.13.32,1.84.81,1.84s.82-.73.82-1.88-.26-1.84-.81-1.84-.82.65-.82,1.88Z"/><path class="cls-1" d="M898.16,207a.41.41,0,0,1,.35-.44h0a.43.43,0,0,1,.32.5.41.41,0,0,1-.32.37.39.39,0,0,1-.37-.4Z"/><path class="cls-1" d="M899.39,207.35V207l.43-.48c1-1.13,1.48-1.67,1.48-2.36a.78.78,0,0,0-.63-.88h-.16a1.37,1.37,0,0,0-.85.39l-.17-.43a1.69,1.69,0,0,1,1.13-.45,1.17,1.17,0,0,1,1.22,1.14v.17c0,.82-.53,1.5-1.37,2.41l-.32.34h1.79v.51Z"/><path class="cls-1" d="M903.72,203.41l-.7.42-.11-.46.88-.54h.46v4.52h-.53Z"/></g><g id="red-2"><path class="cls-1" d="M897.62,234c0,1.54-.51,2.39-1.39,2.39s-1.31-.83-1.32-2.32.58-2.35,1.39-2.35S897.62,232.55,897.62,234Zm-2.17.07c0,1.13.32,1.84.81,1.84s.82-.72.82-1.87-.26-1.84-.81-1.84S895.45,232.83,895.45,234.05Z"/><path class="cls-1" d="M898.16,235.88a.41.41,0,0,1,.35-.44h0a.38.38,0,0,1,.36.41v0a.4.4,0,0,1-.33.44h0a.4.4,0,0,1-.37-.42Z"/><path class="cls-1" d="M899.39,236.29v-.41l.43-.46c1-1.13,1.48-1.68,1.48-2.36a.78.78,0,0,0-.63-.88.43.43,0,0,0-.16,0,1.3,1.3,0,0,0-.85.38l-.17-.43a1.65,1.65,0,0,1,1.13-.46,1.17,1.17,0,0,1,1.22,1.15V233c0,.84-.53,1.5-1.37,2.43l-.32.32h1.79v.51Z"/><path class="cls-1" d="M902.86,235.88a1.62,1.62,0,0,0,.44,0,1.44,1.44,0,0,0,.84-.44,2.13,2.13,0,0,0,.53-1.2,1.18,1.18,0,0,1-1,.49,1.23,1.23,0,0,1-1.18-1.28v-.1a1.48,1.48,0,0,1,1.3-1.6h.06c.82,0,1.32.74,1.32,1.9a3.07,3.07,0,0,1-.69,2.12,2,2,0,0,1-1.16.6,2.09,2.09,0,0,1-.5,0Zm.2-2.59a.85.85,0,0,0,.69,1h.08a.85.85,0,0,0,.79-.47.5.5,0,0,0,0-.21c0-.78-.26-1.37-.82-1.37a.94.94,0,0,0-.79,1v.06Z"/></g><g id="red-3"><path class="cls-1" d="M897.62,274.51c0,1.53-.51,2.38-1.39,2.38s-1.31-.83-1.32-2.32.58-2.34,1.39-2.34S897.62,273.13,897.62,274.51Zm-2.17.07c0,1.13.32,1.84.81,1.84s.82-.73.82-1.88-.26-1.84-.81-1.84S895.45,273.35,895.45,274.58Z"/><path class="cls-1" d="M898.16,276.51a.41.41,0,0,1,.35-.44h0a.38.38,0,0,1,.36.41v0a.4.4,0,0,1-.33.44h0a.4.4,0,0,1-.37-.42Z"/><path class="cls-1" d="M899.52,276.12a1.79,1.79,0,0,0,.89.28.83.83,0,0,0,.9-.87.91.91,0,0,0-1-.9H900v-.47h.3a.81.81,0,0,0,.89-.75.64.64,0,0,0-.7-.69,1.32,1.32,0,0,0-.8.3l-.14-.45a1.85,1.85,0,0,1,1-.34,1,1,0,0,1,1.14,1.08,1.13,1.13,0,0,1-.73,1.06,1.15,1.15,0,0,1,.89,1.13,1.33,1.33,0,0,1-1.46,1.35,1.75,1.75,0,0,1-1-.32Z"/><path class="cls-1" d="M904.93,272.82h-1.52l-.15,1.13h.32a1.49,1.49,0,0,1,.86.25,1.29,1.29,0,0,1,.57,1.13,1.47,1.47,0,0,1-1.39,1.55h-.09a1.81,1.81,0,0,1-1-.28l.14-.46a1.62,1.62,0,0,0,.85.25.91.91,0,0,0,1-.85.66.66,0,0,0,0-.14c0-.57-.35-1-1.15-1h-.55l.25-2.17H905Z"/></g><path class="cls-1" d="M892.6,206.79c0,1.53-.5,2.38-1.39,2.38s-1.31-.83-1.32-2.32.58-2.34,1.39-2.34S892.6,205.41,892.6,206.79Zm-2.17.06c0,1.13.32,1.84.81,1.84s.82-.72.82-1.87-.25-1.84-.81-1.84-.82.65-.82,1.87Z"/><path class="cls-1" d="M893.15,208.73a.41.41,0,0,1,.3-.48.37.37,0,0,1,.43.34.33.33,0,0,1,0,.14.42.42,0,0,1-.3.48.38.38,0,0,1-.43-.35A.29.29,0,0,1,893.15,208.73Z"/><path class="cls-1" d="M894.38,209.09v-.37l.42-.47c1-1.13,1.48-1.68,1.49-2.36a.79.79,0,0,0-.65-.88h-.15a1.27,1.27,0,0,0-.84.39l-.17-.43a1.53,1.53,0,0,1,1.12-.46,1.16,1.16,0,0,1,1.23,1.13v.17c0,.84-.54,1.52-1.38,2.43l-.32.33h1.8v.49Z"/><path class="cls-1" d="M898.71,205.15l-.71.43-.1-.47.87-.53h.46v4.52h-.52Z"/><path class="cls-1" d="M892.6,235.73c0,1.54-.5,2.39-1.39,2.39s-1.31-.83-1.32-2.26.58-2.35,1.39-2.35S892.6,234.3,892.6,235.73Zm-2.17.07c0,1.13.32,1.84.81,1.84s.82-.73.82-1.87-.25-1.84-.81-1.84-.82.64-.82,1.87Z"/><path class="cls-1" d="M893.15,237.68a.4.4,0,0,1,.39-.4.41.41,0,0,1,.35.44.4.4,0,0,1-.38.4.39.39,0,0,1-.36-.41Z"/><path class="cls-1" d="M894.38,238v-.38l.42-.46c1-1.13,1.48-1.68,1.49-2.36a.78.78,0,0,0-.63-.88.49.49,0,0,0-.17,0,1.22,1.22,0,0,0-.84.39l-.17-.44a1.61,1.61,0,0,1,1.12-.46,1.18,1.18,0,0,1,1.23,1.14v.17c0,.84-.54,1.5-1.38,2.42l-.32.34h1.8V238Z"/><path class="cls-1" d="M897.85,237.61h.43a1.44,1.44,0,0,0,.84-.44,2.13,2.13,0,0,0,.53-1.2,1.18,1.18,0,0,1-1,.49,1.24,1.24,0,0,1-1.18-1.29v-.09a1.48,1.48,0,0,1,1.32-1.6h0c.82,0,1.32.74,1.32,1.89a3.09,3.09,0,0,1-.68,2.12,1.9,1.9,0,0,1-1.16.6,2.09,2.09,0,0,1-.5,0ZM898,235a.85.85,0,0,0,.69,1h.08a.88.88,0,0,0,.79-.47.46.46,0,0,0,0-.23c0-.77-.25-1.35-.82-1.35a.93.93,0,0,0-.84,1s0,.07,0,.1Z"/><path class="cls-1" d="M892.6,276.26c0,1.53-.5,2.37-1.39,2.37s-1.31-.82-1.32-2.25.58-2.35,1.39-2.35S892.6,274.82,892.6,276.26Zm-2.17.07c0,1.13.32,1.83.81,1.83s.82-.72.82-1.87-.25-1.84-.81-1.84-.82.65-.82,1.88Z"/><path class="cls-1" d="M893.15,278.19a.42.42,0,0,1,.3-.48.38.38,0,0,1,.43.35.29.29,0,0,1,0,.13.41.41,0,0,1-.3.48.37.37,0,0,1-.43-.34A.33.33,0,0,1,893.15,278.19Z"/><path class="cls-1" d="M894.51,277.85a1.58,1.58,0,0,0,.88.3.83.83,0,0,0,.9-.88.91.91,0,0,0-1-.91H895v-.45h.3a.81.81,0,0,0,.89-.76.63.63,0,0,0-.7-.68,1.4,1.4,0,0,0-.8.29l-.14-.44a1.76,1.76,0,0,1,1-.35,1.06,1.06,0,0,1,1.14,1.13,1.1,1.1,0,0,1-.74,1.06,1.15,1.15,0,0,1,.89,1.13,1.33,1.33,0,0,1-1.45,1.35,1.8,1.8,0,0,1-1-.3Z"/><path class="cls-1" d="M899.92,274.57H898.4l-.16,1.13h.33a1.48,1.48,0,0,1,.86.24,1.32,1.32,0,0,1,.57,1.12,1.47,1.47,0,0,1-1.4,1.54h-.09a1.8,1.8,0,0,1-1-.27l.13-.48a1.58,1.58,0,0,0,.86.26.94.94,0,0,0,.94-.94v0c0-.59-.35-1-1.15-1a3.41,3.41,0,0,0-.55.05L898,274h1.91Z"/><g id="red-4"><rect class="cls-1" x="6.17" y="274.87" width="3.63" height="27.17"/><rect class="cls-1" x="12.67" y="277.94" width="3.63" height="24.1"/><rect class="cls-1" x="19.17" y="281.32" width="3.63" height="20.72"/><rect class="cls-1" x="25.67" y="285.55" width="3.63" height="16.48"/><rect class="cls-1" x="32.17" y="293.44" width="3.63" height="8.6"/></g><rect class="cls-1" x="7.56" y="271.62" width="3.63" height="27.17"/><rect class="cls-1" x="14.06" y="274.71" width="3.63" height="24.1"/><rect class="cls-1" x="20.56" y="278.07" width="3.63" height="20.72"/><rect class="cls-1" x="27.06" y="282.31" width="3.63" height="16.48"/><rect class="cls-1" x="33.57" y="290.2" width="3.63" height="8.6"/><g id="red-5"><g class="cls-9"><polygon class="cls-1" points="806.38 371.85 797.15 371.85 791.15 371.85 764.15 371.85 764.15 378.62 797.15 378.62 797.15 378.62 806.38 375.23 806.38 371.85"/><path class="cls-1" d="M766.4,373.9c0-.8.63-.8,1.26-.8h2.41v.47H767.5c-.16,0-.31,0-.31.21v2.48c0,.21.15.21.31.21h1.73c.16,0,.32,0,.32-.21v-1.21h-.79v-.51h1.57v1.63c0,.8-.63.8-1.26.8h-1.41c-.63,0-1.26,0-1.26-.8Z"/><path class="cls-1" d="M771.07,373.1h.79v3.38h2.88V377h-3.67Z"/><path class="cls-1" d="M775.26,373.9c0-.8.63-.8,1.26-.8h1.42c.63,0,1.26,0,1.26.8v2.26c0,.8-.63.8-1.26.8h-1.42c-.63,0-1.26,0-1.26-.8Zm1.11,2.61h1.73c.15,0,.31,0,.31-.22v-2.48c0-.2-.16-.2-.31-.2h-1.73c-.16,0-.32,0-.32.2v2.48C776.05,376.51,776.21,376.51,776.37,376.51Z"/><path class="cls-1" d="M779.93,373.1h2.63c.63,0,1.26,0,1.26.8v.33a.58.58,0,0,0-.45.67.57.57,0,0,0,.45.51v.79c0,.8-.63.8-1.26.8h-2.68Zm2.78,1.48c.16,0,.32,0,.32-.21v-.56c0-.2-.16-.2-.32-.2h-2v1Zm.06,1.93c.15,0,.31,0,.31-.22v-1c0-.21-.16-.21-.31-.21h-2v1.43Z"/><path class="cls-1" d="M786.07,373.1h1l1.73,3.9H788l-.55-1.24h-1.78l-.55,1.24h-.79Zm1.18,2.19-.68-1.54-.68,1.54Z"/><path class="cls-1" d="M789.27,373.1h.79v3.38h2.88V377h-3.67Z"/><path class="cls-1" d="M765.7,381.27h1.19v.32h-.74v3.1h.74V385H765.7Z"/><path class="cls-1" d="M767.38,383.73h2c.11,0,.23,0,.23-.15v-.72c0-.15-.12-.15-.23-.15h-1.12c-.45,0-.9,0-.9-.56v-.27c0-.58.45-.58.9-.58H770v.36h-1.83c-.11,0-.23,0-.23.15v.4c0,.14.12.14.23.14h1.12c.45,0,.9,0,.9.58v.59c0,.57-.45.57-.9.57h-1.91Z"/><path class="cls-1" d="M770.72,381.27h2.62v.36h-2.06v.69h1.87v.36h-1.87v1h2.06v.36h-2.62Z"/><path class="cls-1" d="M773.72,381.27h3.1v.36h-1.27v2.43H775v-2.43h-1.27Z"/><path class="cls-1" d="M777.17,382.83h1.49v.43h-1.49Z"/><path class="cls-1" d="M779.11,381.84c0-.57.45-.57.9-.57h1c.45,0,.9,0,.9.57v1.64c0,.58-.45.58-.9.58h-1c-.45,0-.9,0-.9-.58Zm.79,1.86h1.23c.11,0,.23,0,.23-.15v-1.77c0-.15-.12-.15-.23-.15H779.9c-.11,0-.23,0-.23.15v1.77c0,.18.12.18.23.18Z"/><path class="cls-1" d="M784.58,384.06H784v-2.43h-.82v-.36h1.38Z"/><path class="cls-1" d="M786.38,384.69v-3.1h-.74v-.32h1.19V385h-1.19v-.31Z"/><rect class="cls-1" x="764.15" y="386.26" width="3.33" height="1.11"/><rect class="cls-1" x="767.95" y="386.26" width="3.33" height="1.11"/><rect class="cls-1" x="771.75" y="386.26" width="3.33" height="1.11"/><rect class="cls-1" x="774.68" y="388.1" width="2.03" height="1.11"/><rect class="cls-1" x="775.54" y="386.26" width="3.33" height="1.11"/><rect class="cls-1" x="779.34" y="386.26" width="3.33" height="1.11"/><rect class="cls-1" x="783.14" y="386.26" width="3.33" height="1.11"/><rect class="cls-1" x="777.68" y="388.05" width="8.79" height="1.11"/><rect class="cls-1" x="764.15" y="388.05" width="8.79" height="1.11"/><rect class="cls-1" x="783.14" y="389.86" width="3.33" height="1.11"/><rect class="cls-1" x="778.74" y="389.86" width="3.33" height="1.11"/><rect class="cls-1" x="774.35" y="389.86" width="3.33" height="1.11"/><rect class="cls-1" x="769.96" y="389.86" width="0.98" height="1.11"/><rect class="cls-1" x="768.23" y="389.86" width="0.98" height="1.11"/><rect class="cls-1" x="766.5" y="389.86" width="0.98" height="1.11"/><rect class="cls-1" x="764.77" y="389.86" width="0.98" height="1.11"/></g><rect class="cls-1" x="781.4" y="368.61" width="20.52" height="0.14"/><path class="cls-1" d="M781.14,368.45a.23.23,0,0,1,.15.28.21.21,0,0,1-.25.18.24.24,0,0,1-.16-.24A.24.24,0,0,1,781.14,368.45Z"/><path class="cls-1" d="M814.41,369.86H764.34c0-.07,50.07-.07,50.07-.07Z"/><polygon class="cls-1" points="820.46 385.93 816.85 388.28 813.25 390.63 813.25 385.93 813.25 381.24 816.85 383.58 820.46 385.93"/><polygon class="cls-10" points="829.05 385.93 825.44 388.28 821.84 390.63 821.84 385.93 821.84 381.24 825.44 383.58 829.05 385.93"/><polygon class="cls-11" points="835.44 385.93 833.11 387.45 830.77 388.98 830.77 385.93 830.77 382.88 833.11 384.41 835.44 385.93"/><polygon class="cls-12" points="841.32 385.93 838.98 387.45 836.64 388.98 836.64 385.93 836.64 382.88 838.98 384.41 841.32 385.93"/><polygon class="cls-6" points="846.53 385.93 845 386.92 843.47 387.93 843.47 385.93 843.47 383.94 845 384.94 846.53 385.93"/><path class="cls-1" d="M790.07,382.6c0,.62-.2,1-.55,1s-.53-.33-.53-.94.23-.93.55-.93S790.07,382,790.07,382.6Zm-.87,0c0,.48.13.73.33.73s.33-.29.33-.75-.1-.75-.33-.75S789.2,382.1,789.2,382.6Z"/><path class="cls-1" d="M790.74,381.91l-.28.17v-.19l.35-.21H791v1.81h-.21Z"/><path class="cls-1" d="M792.21,383.49V383h-.75v-.17l.72-1.13h.23v1.13h.22v.2h-.22v.49Zm0-.69v-.89a1.71,1.71,0,0,1-.14.27l-.39.62Z"/><path class="cls-1" d="M793.76,381.89h-.61l-.07.46h.13a.74.74,0,0,1,.35.1.58.58,0,0,1,.23.47.59.59,0,0,1-.57.62h0a.72.72,0,0,1-.4-.12l.06-.18a.6.6,0,0,0,.34.11.38.38,0,0,0,.38-.39h0c0-.24-.14-.41-.46-.41h-.22l.1-.88h.77Z"/><path class="cls-1" d="M794.06,383.49v-.14l.17-.2c.41-.44.6-.66.6-.94a.32.32,0,0,0-.27-.35h0a.51.51,0,0,0-.34.14l-.07-.17a.72.72,0,0,1,.46-.18.47.47,0,0,1,.49.46v.07c0,.33-.22.6-.56,1l-.12.14h.72v.2Z"/><path class="cls-1" d="M795.34,383.36a.16.16,0,0,1,.14-.18h0a.14.14,0,0,1,.15.14v0a.15.15,0,1,1-.3,0Z"/><path class="cls-1" d="M796.31,381.91l-.28.17v-.19l.35-.21h.19v1.81h-.21Z"/><path class="cls-1" d="M797.57,381.91l-.28.17v-.19l.35-.21h.18v1.81h-.21Z"/><path class="cls-1" d="M798.84,381.91l-.29.17v-.19l.35-.21h.18v1.81h-.2Z"/><path class="cls-1" d="M799.63,383.49v-.14l.17-.2c.41-.44.59-.66.59-.94a.3.3,0,0,0-.25-.35h-.06a.48.48,0,0,0-.34.14l-.07-.17a.71.71,0,0,1,.45-.18.47.47,0,0,1,.49.46v.07c0,.33-.21.6-.55,1l-.13.14h.72v.2Z"/><path class="cls-1" d="M804.05,382.6c0,.62-.21,1-.56,1s-.53-.33-.53-.94.23-.93.56-.93S804.05,382,804.05,382.6Zm-.87,0c0,.48.12.73.32.73s.33-.29.33-.75-.1-.75-.33-.75S803.18,382.1,803.18,382.6Z"/><path class="cls-1" d="M805.31,382.6c0,.62-.2,1-.56,1s-.52-.33-.53-.94.24-.93.56-.93S805.31,382,805.31,382.6Zm-.87,0c0,.48.13.73.33.73s.32-.29.32-.75-.1-.75-.32-.75-.33.27-.33.77Z"/><path class="cls-1" d="M806.57,382.6c0,.62-.2,1-.55,1s-.53-.33-.53-.94.23-.93.55-.93S806.57,382,806.57,382.6Zm-.87,0c0,.48.13.73.33.73s.33-.29.33-.75-.11-.75-.33-.75S805.7,382.1,805.7,382.6Z"/><path class="cls-1" d="M807.84,382.6c0,.62-.21,1-.56,1s-.52-.33-.53-.94.23-.93.56-.93S807.84,382,807.84,382.6Zm-.87,0c0,.48.13.73.32.73s.33-.29.33-.75-.1-.75-.33-.75-.29.27-.29.77Z"/><path class="cls-1" d="M808.21,382.15l.17.28.12.23.12-.23.17-.28H809l-.4.65.42.69h-.25l-.17-.3a1.71,1.71,0,0,1-.13-.23l-.13.23-.18.3H808l.42-.69-.41-.65Z"/><path class="cls-1" d="M809.65,381.91l-.29.17v-.19l.35-.21h.19v1.81h-.21Z"/><path class="cls-1" d="M789.68,386.86v-.5h-.74v-.16l.71-1.13h.23v1.13h.23v.19h-.23v.5Zm0-.69v-.89a1.71,1.71,0,0,0-.14.27l-.4.62Z"/><path class="cls-1" d="M791.23,385.24h-.61l-.06.48h.13a.52.52,0,0,1,.34.09.56.56,0,0,1,.23.47.59.59,0,0,1-.57.62h0a.61.61,0,0,1-.39-.11v-.19a.67.67,0,0,0,.34.1.37.37,0,0,0,.38-.36v0c0-.23-.14-.39-.46-.39h-.22l.1-.87h.77Z"/><path class="cls-1" d="M792,385.26l-.29.17v-.18l.35-.21h.19v1.82H792Z"/><path class="cls-1" d="M793.76,385.24h-.61l-.07.48h.13a.56.56,0,0,1,.35.09.58.58,0,0,1,.23.47.59.59,0,0,1-.57.62h0a.8.8,0,0,1-.4-.11l.06-.19a.67.67,0,0,0,.34.1.37.37,0,0,0,.38-.36v0c0-.23-.14-.39-.46-.39h-.22l.1-.87h.77Z"/><path class="cls-1" d="M794.53,385.26l-.28.17v-.18l.35-.21h.18v1.82h-.21Z"/><path class="cls-1" d="M795.34,386.71a.17.17,0,0,1,.15-.17h0c.08,0,.14.06.15.15v0a.15.15,0,1,1-.3,0Z"/><path class="cls-1" d="M796.31,385.26l-.28.17v-.18l.35-.21h.19v1.82h-.21Z"/><path class="cls-1" d="M797.1,386.86v-.15l.17-.19c.41-.44.6-.68.6-.95a.32.32,0,0,0-.26-.36h-.06a.46.46,0,0,0-.34.16l-.07-.17a.61.61,0,0,1,.45-.2.48.48,0,0,1,.49.46v.08c0,.33-.21.6-.55,1l-.13.13h.72v.21Z"/><path class="cls-1" d="M799,386.86v-.5h-.74v-.16l.72-1.13h.23v1.13h.22v.19h-.22v.5Zm0-.69v-.89l-.14.27-.39.62Z"/><path class="cls-1" d="M803.83,386c0,.62-.21,1-.56,1s-.52-.34-.53-.94.23-.95.56-.95S803.83,385.35,803.83,386Zm-.87,0c0,.47.13.74.32.74s.33-.29.33-.75-.1-.75-.33-.75-.28.23-.28.76Z"/><path class="cls-1" d="M805.09,386c0,.62-.2,1-.56,1s-.52-.34-.53-.94.24-.95.56-.95S805.09,385.35,805.09,386Zm-.87,0c0,.47.13.74.33.74s.32-.29.32-.75-.1-.75-.32-.75S804.22,385.46,804.22,386Z"/><path class="cls-1" d="M806.35,386c0,.62-.2,1-.55,1s-.53-.34-.53-.94.23-.95.55-.95S806.35,385.35,806.35,386Zm-.87,0c0,.47.13.74.33.74s.33-.29.33-.75-.1-.75-.33-.75S805.48,385.46,805.48,386Z"/><path class="cls-1" d="M807.62,386c0,.62-.2,1-.56,1s-.52-.34-.53-.94.23-.95.56-.95S807.62,385.35,807.62,386Zm-.87,0c0,.47.13.74.32.74s.33-.29.33-.75-.1-.75-.32-.75S806.75,385.46,806.75,386Z"/><path class="cls-1" d="M808,385.5l.17.29.12.23.12-.23.17-.29h.23l-.4.66.42.7h-.25l-.17-.31a1.36,1.36,0,0,1-.13-.24l-.13.24-.18.31h-.23l.42-.69-.4-.67Z"/><path class="cls-1" d="M809.43,385.26l-.28.17,0-.18.35-.21h.19v1.82h-.21Z"/><path class="cls-1" d="M790.05,388.4v.16l-.7,1.66h-.22l.69-1.61H789v-.21Z"/><path class="cls-1" d="M791.31,388.4v.16l-.69,1.66h-.23l.7-1.61h-.79v-.21Z"/><path class="cls-1" d="M791.54,390.22v-.16l.17-.18c.41-.44.59-.68.59-.95a.32.32,0,0,0-.26-.36H792a.45.45,0,0,0-.33.16l-.07-.18a.66.66,0,0,1,.45-.18.49.49,0,0,1,.49.48v0a1.48,1.48,0,0,1-.55,1l-.13.13h.72v.21Z"/><path class="cls-1" d="M793.47,390.22v-.5h-.74v-.16l.71-1.12h.23v1.12h.23v.2h-.23v.49Zm0-.69v-.61a1.31,1.31,0,0,1,0-.28c-.05.09-.1.18-.14.27l-.39.61Z"/><path class="cls-1" d="M794.53,388.63l-.28.17v-.19l.35-.21h.18v1.82h-.21Z"/><path class="cls-1" d="M796.28,388.61h-.61l-.06.46h.13a.64.64,0,0,1,.35.1.56.56,0,0,1,.23.46.61.61,0,0,1-.56.64h0a.64.64,0,0,1-.4-.11V390a.64.64,0,0,0,.35.1.37.37,0,0,0,.38-.36v0c0-.24-.14-.41-.46-.41h-.23l.11-.87h.76Z"/><path class="cls-1" d="M797.55,388.61h-.61l-.07.46H797a.59.59,0,0,1,.34.1.5.5,0,0,1,.23.46.61.61,0,0,1-.56.64h0a.64.64,0,0,1-.4-.11l.06-.19a.67.67,0,0,0,.34.1.37.37,0,0,0,.38-.36v0c0-.24-.14-.41-.46-.41h-.22l.1-.87h.77Z"/><path class="cls-1" d="M798.33,388.63l-.29.17v-.19l.35-.21h.19v1.82h-.21Z"/><path class="cls-1" d="M799.14,390.07a.17.17,0,0,1,.14-.18h0a.18.18,0,0,1,0,.36.16.16,0,0,1-.14-.18Z"/><path class="cls-1" d="M800.69,389.29c0,.61-.2,1-.55,1s-.53-.34-.53-.93.23-.95.55-.95S800.69,388.71,800.69,389.29Zm-.87,0c0,.48.13.75.33.75s.33-.29.33-.76-.11-.74-.33-.74-.33.28-.33.83Z"/><path class="cls-1" d="M803.52,389.29c0,.61-.2,1-.55,1s-.53-.34-.53-.93.23-.95.55-.95S803.52,388.71,803.52,389.29Zm-.87,0c0,.48.13.75.33.75s.33-.29.33-.76-.1-.74-.33-.74-.33.28-.33.83Z"/><path class="cls-1" d="M804.79,389.29c0,.61-.21,1-.56,1s-.52-.34-.53-.93.23-.95.56-.95S804.79,388.71,804.79,389.29Zm-.87,0c0,.48.13.75.32.75s.33-.29.33-.76-.1-.74-.33-.74-.32.28-.32.83Z"/><path class="cls-1" d="M806.05,389.29c0,.61-.2,1-.56,1s-.52-.34-.53-.93.24-.95.56-.95S806.05,388.71,806.05,389.29Zm-.87,0c0,.48.13.75.33.75s.32-.29.32-.76-.1-.74-.32-.74-.33.28-.33.83Z"/><path class="cls-1" d="M807.31,389.29c0,.61-.2,1-.55,1s-.53-.34-.53-.93.23-.95.56-.95S807.31,388.71,807.31,389.29Zm-.86,0c0,.48.12.75.32.75s.33-.29.33-.76-.1-.74-.33-.74-.32.28-.32.83Z"/><path class="cls-1" d="M807.68,388.86l.17.3a.88.88,0,0,1,.12.21l.13-.22.17-.29h.23l-.4.66.41.7h-.24l-.18-.31a1.71,1.71,0,0,0-.13-.23,1.71,1.71,0,0,1-.13.23l-.17.31h-.24l.43-.69-.41-.67Z"/><path class="cls-1" d="M808.71,389.94a.66.66,0,0,0,.35.11.33.33,0,0,0,.36-.35.46.46,0,0,0-.41-.37c-.21,0-.12-.18-.12-.18.28,0,.48-.09.48-.31s-.09-.27-.28-.27a.54.54,0,0,0-.32.11l-.06-.18a.72.72,0,0,1,.42-.13.42.42,0,0,1,.46.43.45.45,0,0,1-.3.43.49.49,0,0,1,.36.47.54.54,0,0,1-.59.55.75.75,0,0,1-.41-.12Z"/></g><g class="cls-9"><polygon class="cls-1" points="806.23 369.37 796.81 369.37 790.69 369.37 763.16 369.37 763.16 376.28 796.81 376.28 796.81 376.28 806.23 372.83 806.23 369.37"/><path class="cls-1" d="M765.45,371.47c0-.81.64-.81,1.28-.81h2.46v.51h-2.62c-.16,0-.32,0-.32.21v2.54c0,.21.16.21.32.21h1.76c.17,0,.33,0,.33-.21v-1.24h-.81v-.51h1.61v1.66c0,.81-.64.81-1.29.81h-1.44c-.64,0-1.28,0-1.28-.81Z"/><path class="cls-1" d="M770.21,370.66h.8v3.47h3v.57h-3.74Z"/><path class="cls-1" d="M774.49,371.47c0-.81.64-.81,1.28-.81h1.45c.64,0,1.28,0,1.28.81v2.36c0,.81-.64.81-1.28.81h-1.45c-.64,0-1.28,0-1.28-.81Zm1.12,2.66h1.77c.16,0,.32,0,.32-.21v-2.54c0-.21-.16-.21-.32-.21h-1.77c-.16,0-.32,0-.32.21v2.54c0,.21.16.21.32.21Z"/><path class="cls-1" d="M779.25,370.66h2.68c.64,0,1.28,0,1.28.81v.33a.58.58,0,0,1-.43.61.56.56,0,0,1,.48.6v.82c0,.81-.64.81-1.28.81h-2.73Zm2.84,1.51c.16,0,.32,0,.32-.21v-.58c0-.21-.16-.21-.32-.21h-2v1Zm0,2c.16,0,.32,0,.32-.21v-1c0-.21-.16-.21-.32-.21h-2.08v1.45Z"/><path class="cls-1" d="M785.51,370.66h1l1.76,4h-.8l-.56-1.27h-1.82l-.56,1.27h-.8Zm1.21,2.26-.7-1.58-.69,1.58Z"/><path class="cls-1" d="M788.78,370.66h.8v3.47h2.94v.57h-3.74Z"/><path class="cls-1" d="M764.73,379H766v.33h-.76v3.16H766v.32h-1.22Z"/><path class="cls-1" d="M766.45,381.47h2.06c.11,0,.23,0,.23-.14v-.74c0-.14-.12-.14-.23-.14h-1.14c-.46,0-.92,0-.92-.58v-.28c0-.59.46-.59.92-.59h1.75v.37h-1.87c-.11,0-.23,0-.23.15v.41c0,.15.12.15.23.15h1.14c.46,0,.92,0,.92.58v.6c0,.58-.46.58-.92.58h-1.94Z"/><path class="cls-1" d="M769.85,379h2.67v.37h-2.09v.71h1.9v.36h-1.9v1h2.09v.37h-2.67Z"/><path class="cls-1" d="M772.91,379h3.17v.37h-1.3v2.47h-.57v-2.47h-1.3Z"/><path class="cls-1" d="M776.43,380.58H778V381h-1.52Z"/><path class="cls-1" d="M778.42,379.58c0-.59.45-.59.91-.59h1c.46,0,.92,0,.92.59v1.67c0,.58-.46.58-.92.58h-1c-.46,0-.91,0-.91-.58Zm.8,1.88h1.26c.11,0,.22,0,.22-.15v-1.8c0-.15-.11-.15-.22-.15h-1.26c-.12,0-.23,0-.23.15v1.8c0,.16.11.16.23.16Z"/><path class="cls-1" d="M784,381.83h-.57v-2.47h-.84V379H784Z"/><path class="cls-1" d="M785.83,382.48v-3.16h-.76V379h1.22v3.81h-1.22v-.32Z"/><rect class="cls-1" x="763.16" y="384.08" width="3.39" height="1.13"/><rect class="cls-1" x="767.03" y="384.08" width="3.39" height="1.13"/><rect class="cls-1" x="770.9" y="384.08" width="3.39" height="1.13"/><rect class="cls-1" x="773.89" y="385.95" width="2.07" height="1.13"/><rect class="cls-1" x="774.77" y="384.08" width="3.39" height="1.13"/><rect class="cls-1" x="778.65" y="384.08" width="3.39" height="1.13"/><rect class="cls-1" x="782.52" y="384.08" width="3.39" height="1.13"/><rect class="cls-1" x="776.95" y="385.92" width="8.96" height="1.13"/><rect class="cls-1" x="763.16" y="385.92" width="8.96" height="1.13"/><rect class="cls-1" x="782.52" y="387.75" width="3.39" height="1.13"/><rect class="cls-1" x="778.04" y="387.75" width="3.39" height="1.13"/><rect class="cls-1" x="773.56" y="387.75" width="3.39" height="1.13"/><rect class="cls-1" x="769.07" y="387.75" width="1" height="1.13"/><rect class="cls-1" x="767.31" y="387.75" width="1" height="1.13"/><rect class="cls-1" x="765.55" y="387.75" width="1" height="1.13"/><rect class="cls-1" x="763.78" y="387.75" width="1" height="1.13"/></g><rect class="cls-1" x="780.75" y="366.08" width="20.93" height="0.14"/><path class="cls-1" d="M780.48,365.91a.25.25,0,0,1,.27.23h0a.25.25,0,0,1-.27.22.21.21,0,0,1-.25-.18.23.23,0,0,1,.16-.28A.14.14,0,0,1,780.48,365.91Z"/><path class="cls-1" d="M814.42,367.35H763.35c0-.08,51.07-.08,51.07-.08Z"/><polygon class="cls-1" points="820.59 383.75 816.91 386.14 813.24 388.54 813.24 383.75 813.24 378.96 816.91 381.35 820.59 383.75"/><polygon class="cls-10" points="829.36 383.75 825.68 386.14 822 388.54 822 383.75 822 378.96 825.68 381.35 829.36 383.75"/><polygon class="cls-11" points="835.88 383.75 833.49 385.3 831.11 386.86 831.11 383.75 831.11 380.64 833.49 382.19 835.88 383.75"/><polygon class="cls-12" points="841.87 383.75 839.48 385.3 837.09 386.86 837.09 383.75 837.09 380.64 839.48 382.19 841.87 383.75"/><polygon class="cls-6" points="847.18 383.75 845.62 384.77 844.06 385.78 844.06 383.75 844.06 381.72 845.62 382.74 847.18 383.75"/><path class="cls-1" d="M789.6,380.34c0,.64-.21,1-.57,1s-.54-.33-.54-.94.23-1,.57-1S789.6,379.72,789.6,380.34Zm-.89,0c0,.49.13.76.33.76s.33-.29.33-.77-.1-.75-.33-.75S788.71,379.84,788.71,380.34Z"/><path class="cls-1" d="M790.28,379.64l-.29.17v-.18l.35-.22h.19v1.86h-.21Z"/><path class="cls-1" d="M791.77,381.27v-.51H791v-.17l.73-1.18H792v1.13h.23v.2H792v.51Zm0-.71V380a1.4,1.4,0,0,1,0-.29,1.71,1.71,0,0,0-.14.27l-.4.63Z"/><path class="cls-1" d="M793.35,379.62h-.62l-.06.48h.13a.57.57,0,0,1,.35.1.52.52,0,0,1,.23.47.6.6,0,0,1-.56.63h0a.69.69,0,0,1-.41-.11l.06-.19a.67.67,0,0,0,.34.1.38.38,0,0,0,.39-.37v0c0-.23-.14-.41-.47-.41h-.22l.1-.89h.78Z"/><path class="cls-1" d="M793.67,381.27v-.16l.17-.19c.42-.45.61-.69.61-1a.32.32,0,0,0-.26-.36h-.07a.5.5,0,0,0-.34.16l-.07-.18a.68.68,0,0,1,.46-.19.49.49,0,0,1,.5.48v.05a1.6,1.6,0,0,1-.56,1l-.13.13h.73v.22Z"/><path class="cls-1" d="M795,381.12a.17.17,0,0,1,.14-.18h0c.08,0,.14.06.15.15v0a.15.15,0,1,1-.3,0Z"/><path class="cls-1" d="M796,379.64l-.29.17-.05-.18.36-.22h.19v1.86H796Z"/><path class="cls-1" d="M797.25,379.64l-.29.17v-.18l.36-.22h.19v1.86h-.21Z"/><path class="cls-1" d="M798.53,379.64l-.29.17v-.18l.36-.22h.19v1.86h-.22Z"/><path class="cls-1" d="M799.34,381.27v-.16l.18-.19c.41-.45.6-.69.6-1a.32.32,0,0,0-.26-.36h-.06a.54.54,0,0,0-.35.16l-.07-.18a.78.78,0,0,1,.47-.19.49.49,0,0,1,.5.48v.05c0,.35-.22.63-.57,1l-.13.13h.74v.22Z"/><path class="cls-1" d="M803.85,380.34c0,.64-.21,1-.57,1s-.53-.33-.54-.94.24-1,.57-1S803.85,379.72,803.85,380.34Zm-.89,0c0,.49.13.76.33.76s.34-.29.34-.77-.11-.75-.33-.75-.3.26-.3.76Z"/><path class="cls-1" d="M805.14,380.34c0,.64-.21,1-.57,1s-.53-.33-.54-.94.24-1,.57-1S805.14,379.72,805.14,380.34Zm-.89,0c0,.49.13.76.33.76s.34-.29.34-.77-.11-.75-.34-.75S804.25,379.84,804.25,380.34Z"/><path class="cls-1" d="M806.43,380.34c0,.64-.21,1-.57,1s-.54-.33-.54-.94.23-1,.57-1S806.43,379.72,806.43,380.34Zm-.89,0c0,.49.13.76.33.76s.33-.29.33-.77-.1-.75-.33-.75S805.54,379.84,805.54,380.34Z"/><path class="cls-1" d="M807.72,380.34c0,.64-.21,1-.57,1s-.54-.33-.54-.94.23-1,.57-1S807.72,379.72,807.72,380.34Zm-.89,0c0,.49.13.76.33.76s.33-.29.33-.77-.1-.75-.33-.75S806.83,379.84,806.83,380.34Z"/><path class="cls-1" d="M808.09,379.88l.18.31.12.22.13-.24.17-.29h.24l-.42.67.43.72h-.25l-.18-.32a1.71,1.71,0,0,1-.13-.23,1.71,1.71,0,0,0-.13.23l-.18.32h-.24l.43-.71-.41-.68Z"/><path class="cls-1" d="M809.56,379.64l-.29.17v-.18l.36-.22h.19v1.86h-.22Z"/><path class="cls-1" d="M789.19,384.69v-.5h-.75V384l.72-1.18h.24V384h.23v.2h-.23v.5Zm0-.7v-.91l-.14.28-.4.63Z"/><path class="cls-1" d="M790.77,383.05h-.62l-.06.48h.13a.57.57,0,0,1,.35.1.53.53,0,0,1,.24.47.61.61,0,0,1-.58.64h0a.69.69,0,0,1-.41-.11l.06-.19a.64.64,0,0,0,.35.1.38.38,0,0,0,.38-.38h0c0-.25-.14-.42-.47-.42h-.22l.1-.89h.78Z"/><path class="cls-1" d="M791.57,383.08l-.29.16v-.19l.35-.21h.19v1.85h-.21Z"/><path class="cls-1" d="M793.35,383.05h-.62l-.06.48h.13a.57.57,0,0,1,.35.1.52.52,0,0,1,.23.47.61.61,0,0,1-.56.64h0a.69.69,0,0,1-.41-.11l.06-.19a.59.59,0,0,0,.34.1.38.38,0,0,0,.39-.37v0c0-.25-.14-.42-.47-.42h-.22l.1-.89h.78Z"/><path class="cls-1" d="M794.15,383.08l-.29.16v-.19l.35-.21h.19v1.85h-.21Z"/><path class="cls-1" d="M795,384.54a.18.18,0,0,1,.15-.18.18.18,0,0,1,.17.17.17.17,0,0,1-.15.19.17.17,0,0,1-.17-.17Z"/><path class="cls-1" d="M796,383.08l-.29.16-.05-.19.36-.21h.19v1.85H796Z"/><path class="cls-1" d="M796.77,384.69v-.15l.17-.19c.42-.45.6-.69.61-1a.32.32,0,0,0-.26-.36h-.07a.46.46,0,0,0-.34.16l-.07-.18a.65.65,0,0,1,.46-.2.49.49,0,0,1,.5.48v.07a1.56,1.56,0,0,1-.57,1l-.13.13h.74v.21Z"/><path class="cls-1" d="M798.74,384.69v-.5H798V384l.73-1.18H799V384h.22v.2H799v.5Zm0-.7v-.91c0,.09-.09.19-.14.28l-.4.63Z"/><path class="cls-1" d="M803.62,383.73c0,.63-.2,1-.56,1s-.54-.34-.54-.95.23-1,.56-1S803.62,383.15,803.62,383.73Zm-.88,0c0,.48.13.76.33.76s.33-.31.33-.78-.1-.76-.33-.76S802.74,383.27,802.74,383.73Z"/><path class="cls-1" d="M804.91,383.73c0,.63-.2,1-.56,1s-.54-.34-.54-.95.23-1,.56-1S804.91,383.15,804.91,383.73Zm-.88,0c0,.48.13.76.33.76s.33-.31.33-.78-.1-.76-.33-.76-.36.32-.36.78Z"/><path class="cls-1" d="M806.2,383.73c0,.63-.2,1-.56,1s-.54-.34-.54-.95.23-1,.56-1S806.2,383.15,806.2,383.73Zm-.88,0c0,.48.13.76.33.76s.33-.31.33-.78-.1-.76-.33-.76S805.32,383.27,805.32,383.73Z"/><path class="cls-1" d="M807.49,383.73c0,.63-.2,1-.57,1s-.53-.34-.54-.95.24-1,.57-1S807.49,383.15,807.49,383.73Zm-.88,0c0,.48.13.76.33.76s.33-.31.33-.78-.1-.76-.33-.76S806.61,383.27,806.61,383.73Z"/><path class="cls-1" d="M807.87,383.31l.17.3.13.22.12-.22.17-.3h.24l-.41.67.43.71h-.26l-.17-.31a1.71,1.71,0,0,1-.13-.23l-.14.23-.17.31h-.25l.44-.7-.42-.68Z"/><path class="cls-1" d="M809.34,383.08l-.29.16v-.19l.35-.21h.19v1.85h-.21Z"/><path class="cls-1" d="M789.57,386.27v.16l-.71,1.69h-.23l.71-1.64h-.8v-.2Z"/><path class="cls-1" d="M790.86,386.27v.16l-.71,1.69h-.23l.71-1.64h-.8v-.2Z"/><path class="cls-1" d="M791.09,388.12V388l.17-.19c.42-.45.61-.69.61-1a.32.32,0,0,0-.26-.36h-.06a.5.5,0,0,0-.35.16l-.07-.17a.6.6,0,0,1,.46-.19.47.47,0,0,1,.5.47v.07c0,.34-.22.61-.56,1l-.13.14h.73v.21Z"/><path class="cls-1" d="M793.06,388.12v-.51h-.76v-.16l.73-1.18h.24v1.13h.23v.19h-.23v.51Zm0-.7v-.91l-.14.27-.4.63Z"/><path class="cls-1" d="M794.15,386.49l-.29.19v-.2l.35-.21h.19v1.85h-.21Z"/><path class="cls-1" d="M795.93,386.47h-.62l-.07.49h.14a.64.64,0,0,1,.35.1.55.55,0,0,1,.23.48.61.61,0,0,1-.58.64h0a.72.72,0,0,1-.4-.12v-.19a.64.64,0,0,0,.35.1.38.38,0,0,0,.39-.39h0c0-.24-.14-.41-.47-.41H795l.11-.88h.78Z"/><path class="cls-1" d="M797.22,386.47h-.62l-.07.49h.14a.64.64,0,0,1,.35.1.55.55,0,0,1,.23.48.61.61,0,0,1-.58.64h0a.72.72,0,0,1-.4-.12v-.19a.64.64,0,0,0,.35.1.38.38,0,0,0,.39-.39h0c0-.24-.14-.41-.47-.41h-.23l.11-.88h.78Z"/><path class="cls-1" d="M798,386.49l-.28.19v-.2l.36-.21h.19v1.85H798Z"/><path class="cls-1" d="M798.84,388a.15.15,0,1,1,.3,0,.15.15,0,1,1-.3,0Z"/><path class="cls-1" d="M800.43,387.17c0,.63-.21,1-.57,1s-.53-.33-.54-1,.24-.95.57-.95S800.43,386.58,800.43,387.17Zm-.89,0c0,.48.13.76.33.76s.34-.31.34-.78-.11-.76-.33-.76-.34.31-.34.82Z"/><path class="cls-1" d="M803.32,387.17c0,.63-.21,1-.57,1s-.54-.33-.54-1,.23-.95.57-.95S803.32,386.58,803.32,387.17Zm-.89,0c0,.48.13.76.33.76s.33-.31.33-.78-.1-.76-.33-.76-.33.31-.33.82Z"/><path class="cls-1" d="M804.6,387.17c0,.63-.2,1-.56,1s-.54-.33-.54-1,.23-.95.56-.95S804.6,386.58,804.6,387.17Zm-.88,0c0,.48.13.76.33.76s.33-.31.33-.78-.1-.76-.33-.76-.33.31-.33.82Z"/><path class="cls-1" d="M805.89,387.17c0,.63-.2,1-.56,1s-.54-.33-.54-1,.23-.95.56-.95S805.89,386.58,805.89,387.17Zm-.88,0c0,.48.13.76.33.76s.33-.31.33-.78-.1-.76-.33-.76-.34.31-.34.82Z"/><path class="cls-1" d="M807.18,387.17c0,.63-.2,1-.56,1s-.54-.33-.54-1,.23-.95.56-.95S807.18,386.58,807.18,387.17Zm-.88,0c0,.48.13.76.33.76s.33-.31.33-.78-.1-.76-.33-.76-.33.31-.33.82Z"/><path class="cls-1" d="M807.56,386.74l.17.3.13.22L808,387l.18-.3h.23l-.41.67.43.71h-.25l-.18-.32a1.71,1.71,0,0,1-.13-.23l-.14.23-.17.32h-.25l.44-.7-.42-.68Z"/><path class="cls-1" d="M808.6,387.83a.77.77,0,0,0,.36.12.33.33,0,0,0,.37-.36.45.45,0,0,0-.42-.37c-.22,0-.12-.19-.12-.19.28,0,.49-.1.49-.31s-.09-.28-.29-.28a.58.58,0,0,0-.33.12l0-.19a.65.65,0,0,1,.42-.13.43.43,0,0,1,.47.44.49.49,0,0,1-.3.44.45.45,0,0,1,.36.47.54.54,0,0,1-.59.56.74.74,0,0,1-.43-.12Z"/></g></g><text class="cls-13" transform="translate(176.1 113.42) scale(0.89 1)">clothes</text><text class="cls-13" transform="translate(195.36 144.7) scale(0.89 1)">PC</text><text class="cls-13" transform="translate(169.26 173.88) scale(0.89 1)">souveni<tspan class="cls-14" x="56.16" y="0">r</tspan><tspan x="65.66" y="0">s</tspan></text><text class="cls-13" transform="translate(174.11 206) scale(0.89 1)">stic<tspan class="cls-15" x="26.37" y="0">k</tspan><tspan x="35.69" y="0">e</tspan><tspan class="cls-14" x="44.65" y="0">r</tspan><tspan x="54.15" y="0">s</tspan></text><path class="cls-1" d="M438.73,472l.07-.14,3.66-7.17,4.57-8.91H463.6l4.57,8.91,3.77,7.31-.07.14-8.24,16.08H447.05Zm24.62,15.67,8-15.67-3.77-7.31-4.28-8.36h-16L443,464.72,439.27,472l8,15.67Z"/><polygon class="cls-1" points="447.65 481.21 442.94 472.03 447.65 462.85 447.89 463 443.27 472.03 447.89 481.05 447.65 481.21"/><polygon class="cls-1" points="463.42 481.21 463.18 481.05 467.8 472.03 463.18 463 463.42 462.85 468.12 472.03 463.42 481.21"/><polygon class="cls-1" points="457.77 467.25 452.89 467.25 450.44 472.03 452.89 476.81 457.77 476.81 460.22 472.03 457.77 467.25"/><polygon class="cls-1" points="476.82 488.36 469.68 488.36 477.61 472.98 484.76 472.98 476.82 488.36"/><polygon class="cls-1" points="486.74 488.36 479.59 488.36 487.52 472.98 494.68 472.98 486.74 488.36"/><polygon class="cls-1" points="496.66 488.36 489.5 488.36 497.45 472.98 504.6 472.98 496.66 488.36"/><polygon class="cls-1" points="506.58 488.36 499.43 488.36 507.36 472.98 514.51 472.98 506.58 488.36"/><g class="cls-16"><polygon class="cls-1" points="516.49 488.36 509.34 488.36 517.28 472.98 524.43 472.98 516.49 488.36"/></g><g class="cls-16"><polygon class="cls-1" points="526.41 488.36 519.26 488.36 527.2 472.98 534.35 472.98 526.41 488.36"/></g><g class="cls-16"><polygon class="cls-1" points="536.33 488.36 529.18 488.36 537.11 472.98 544.27 472.98 536.33 488.36"/></g><polygon class="cls-1" points="434.52 488.36 441.68 488.36 433.74 472.98 426.59 472.98 434.52 488.36"/><polygon class="cls-1" points="424.61 488.36 431.76 488.42 423.82 473.04 416.67 472.98 424.61 488.36"/><polygon class="cls-1" points="414.69 488.36 421.84 488.36 413.91 472.98 406.75 472.98 414.69 488.36"/><polygon class="cls-1" points="404.77 488.36 411.93 488.36 403.99 472.98 396.84 472.98 404.77 488.36"/><polygon class="cls-1" points="394.85 488.36 402 488.36 394.07 472.98 386.91 472.98 394.85 488.36"/><polygon class="cls-1" points="384.93 488.36 392.09 488.36 384.15 472.98 377 472.98 384.93 488.36"/><g class="cls-16"><polygon class="cls-1" points="375.02 488.36 382.17 488.36 374.23 472.98 367.08 472.98 375.02 488.36"/></g><path class="cls-1" d="M439.73,22.82l.07.14,3.66,7.17L448,39H464.6l4.57-8.91,3.77-7.31-.07-.14L464.63,6.59H448.05ZM464.35,7.14l8,15.68-3.77,7.31-4.28,8.36h-16L444,30.13l-3.76-7.31,8-15.68Z"/><polygon class="cls-1" points="448.65 13.63 443.94 22.82 448.65 32 448.89 31.85 444.27 22.82 448.89 13.79 448.65 13.63"/><polygon class="cls-1" points="464.42 13.63 464.18 13.79 468.8 22.82 464.18 31.85 464.42 32 469.12 22.82 464.42 13.63"/><polygon class="cls-1" points="458.77 27.59 453.89 27.59 451.44 22.82 453.89 18.04 458.77 18.04 461.22 22.82 458.77 27.59"/><polygon class="cls-1" points="477.82 6.48 470.68 6.48 478.61 21.86 485.76 21.86 477.82 6.48"/><polygon class="cls-1" points="487.74 6.48 480.59 6.48 488.52 21.86 495.68 21.86 487.74 6.48"/><polygon class="cls-1" points="497.66 6.48 490.5 6.48 498.45 21.86 505.6 21.86 497.66 6.48"/><polygon class="cls-1" points="507.58 6.48 500.43 6.48 508.36 21.86 515.51 21.86 507.58 6.48"/><g class="cls-16"><polygon class="cls-1" points="517.49 6.48 510.34 6.48 518.28 21.86 525.43 21.86 517.49 6.48"/></g><g class="cls-16"><polygon class="cls-1" points="527.41 6.48 520.26 6.48 528.2 21.86 535.35 21.86 527.41 6.48"/></g><g class="cls-16"><polygon class="cls-1" points="537.33 6.48 530.18 6.48 538.11 21.86 545.27 21.86 537.33 6.48"/></g><polygon class="cls-1" points="435.52 6.48 442.68 6.48 434.74 21.86 427.59 21.86 435.52 6.48"/><polygon class="cls-1" points="425.61 6.48 432.76 6.43 424.82 21.81 417.67 21.86 425.61 6.48"/><polygon class="cls-1" points="415.69 6.48 422.84 6.48 414.91 21.86 407.75 21.86 415.69 6.48"/><polygon class="cls-1" points="405.77 6.48 412.93 6.48 404.99 21.86 397.84 21.86 405.77 6.48"/><polygon class="cls-1" points="395.85 6.48 403 6.48 395.07 21.86 387.91 21.86 395.85 6.48"/><polygon class="cls-1" points="385.93 6.48 393.09 6.48 385.15 21.86 378 21.86 385.93 6.48"/><g class="cls-16"><polygon class="cls-1" points="376.02 6.48 383.17 6.48 375.23 21.86 368.08 21.86 376.02 6.48"/></g></g></g></svg>